<?xml version="1.0" encoding="utf-8"?>
<svg id="Filled" height="512" viewBox="0 0 512 512" width="512" xmlns="http://www.w3.org/2000/svg">
  <defs/>
  <path d="m454.667 189.807a40 40 0 0 0 -48.879-28.474l-85.929 22.667h-13.259a88 88 0 1 0 -101.2 0h-13.259l-85.929-22.667a40 40 0 0 0 -48.879 28.474 40 40 0 0 0 28.474 48.88l58.355 15.393a32 32 0 0 1 23.838 30.942v37.7a60 60 0 0 1 -5.6 25.309l-38.374 82.483a40 40 0 0 0 71.964 34.946l35.529-59.472a28.766 28.766 0 0 1 19.658-13.783 28.206 28.206 0 0 1 29.028 13.324l35.8 59.931a40 40 0 1 0 71.964-34.946l-38.369-82.479a60 60 0 0 1 -5.6-25.309v-37.7a32 32 0 0 1 23.838-30.942l58.355-15.393a40 40 0 0 0 28.474-48.884z" fill="#ad6643"/>
  <circle cx="222.07" cy="249.47" fill="#35a872" r="16"/>
  <path d="m312 200a16 16 0 0 1 -16 16c-8.837 0-40-7.163-40-16s31.163-16 40-16a16 16 0 0 1 16 16z" fill="#fbe9d8"/>
  <path d="m200 200a16 16 0 0 0 16 16c8.837 0 40-7.163 40-16s-31.163-16-40-16a16 16 0 0 0 -16 16z" fill="#fbe9d8"/>
  <circle cx="224" cy="104" r="8"/>
  <circle cx="288" cy="104" r="8"/>
  <path d="m216.845 139.578c.016.033.053.1.1.191l.044.081c1.334 2.476 11.821 20.15 39.011 20.15s37.677-17.674 39.012-20.15l.044-.081c.046-.088.083-.158.1-.191h-.006a7.993 7.993 0 1 0 -14.3-7.15h-.006l.053-.1c-.257.478-6.51 11.683-24.9 11.683s-24.641-11.205-24.9-11.683l.053.1h-.006a7.993 7.993 0 1 0 -14.3 7.15z"/>
  <path d="m462.4 187.768a48 48 0 0 0 -58.655-34.17c-.089.023-.179.048-.267.075l-76.644 23.092a96 96 0 1 0 -141.673 0l-76.641-23.092c-.088-.027-.178-.052-.267-.075a48 48 0 1 0 -24.486 92.824l58.355 15.393a24.02 24.02 0 0 1 17.878 23.206v37.706a52.338 52.338 0 0 1 -4.853 21.933l-38.347 82.423a48 48 0 0 0 86.226 42.2l35.36-59.188a20.7 20.7 0 0 1 14.141-10 20.109 20.109 0 0 1 20.809 9.542l35.634 59.647a48 48 0 0 0 86.226-42.2l-38.345-82.422a52.346 52.346 0 0 1 -4.851-21.935v-37.706a24.02 24.02 0 0 1 17.878-23.206l58.355-15.393a48 48 0 0 0 34.167-58.654zm-158.4 12.232a8.009 8.009 0 0 1 -8 8c-7.045 0-23.292-4.316-29.948-8 6.656-3.684 22.9-8 29.948-8a8.009 8.009 0 0 1 8 8zm-48-168a80 80 0 0 1 46.689 144.956 23.914 23.914 0 0 0 -6.689-.956c-5.807 0-16.894 2.184-25.79 5.079a59.09 59.09 0 0 0 -14.21 6.379 59.09 59.09 0 0 0 -14.21-6.379c-8.9-2.9-19.983-5.079-25.79-5.079a23.914 23.914 0 0 0 -6.689.956 80 80 0 0 1 46.689-144.956zm-40 160c7.045 0 23.292 4.316 29.948 8-6.656 3.684-22.9 8-29.948 8a8 8 0 0 1 0-16zm-147.641 24.117a32 32 0 0 1 35.686-47.082l27.47 8.277a22.446 22.446 0 0 0 1.855 10.42c.952 2.508 1.133 3.095.559 4.718s-1.086 1.966-3.405 3.316c-3.139 1.826-7.882 4.587-10.437 11.8s-.608 12.344.682 15.74c.951 2.507 1.133 3.093.558 4.716s-1.085 1.964-3.4 3.312a23.679 23.679 0 0 0 -7.082 5.684l-22.994-6.066a31.791 31.791 0 0 1 -19.492-14.835zm120.764 245.244q-.177.3-.329.609a32 32 0 0 1 -57.57-27.958q.029-.058.057-.12l10.15-21.818a21.8 21.8 0 0 0 11.724.843c2.653-.386 3.266-.437 4.726.476s1.684 1.485 2.5 4.041c1.105 3.46 2.773 8.688 9.263 12.744s11.92 3.264 15.513 2.74c2.653-.385 3.266-.437 4.726.476s1.682 1.484 2.5 4.038a22.2 22.2 0 0 0 5.305 9.6zm191.653-27.349a32 32 0 0 1 -57.571 27.957c-.1-.207-.21-.41-.329-.608l-10.926-18.289a20.192 20.192 0 0 0 14.408-2.895c6.489-4.056 8.157-9.284 9.261-12.744.816-2.555 1.039-3.127 2.5-4.039s2.074-.861 4.727-.476c3.594.523 9.025 1.314 15.514-2.741s8.159-9.284 9.263-12.744c.12-.376.225-.7.325-1l12.773 27.455q.027.065.055.124zm-14.976-187.667a40.03 40.03 0 0 0 -29.8 38.676v37.706a68.456 68.456 0 0 0 6.346 28.683l18.208 39.138c-5.593 3.938-7.137 8.763-8.176 12.02-.816 2.555-1.039 3.128-2.5 4.04s-2.071.864-4.727.477c-3.594-.524-9.026-1.315-15.514 2.74s-8.157 9.284-9.261 12.744c-.814 2.555-1.038 3.127-2.5 4.039s-2.071.863-4.725.476a22.506 22.506 0 0 0 -10.5.421l-15.578-26.074a36 36 0 0 0 -37.244-17.108 36.675 36.675 0 0 0 -25.177 17.567l-17.489 29.275a20.066 20.066 0 0 0 -8.8-11.34c-6.489-4.055-11.92-3.263-15.514-2.74-2.655.386-3.266.436-4.725-.476s-1.685-1.485-2.5-4.04c-1.1-3.46-2.772-8.688-9.262-12.745s-11.921-3.265-15.513-2.74a16.577 16.577 0 0 1 -2.562.255l21.368-45.93a68.449 68.449 0 0 0 6.345-28.682v-37.706a40.03 40.03 0 0 0 -29.8-38.676l-15.8-4.168a19.656 19.656 0 0 0 6.006-8.814c2.554-7.213.607-12.343-.682-15.738-.952-2.507-1.134-3.094-.559-4.717s1.086-1.965 3.4-3.314c3.139-1.826 7.883-4.587 10.438-11.8 2.467-6.962.739-11.98-.543-15.374l43.94 13.236a23.977 23.977 0 0 0 23.6 28.344c5.807 0 16.894-2.184 25.79-5.079a59.09 59.09 0 0 0 14.21-6.379 59.09 59.09 0 0 0 14.21 6.379c8.9 2.9 19.983 5.079 25.79 5.079a23.977 23.977 0 0 0 23.6-28.344l38.923-11.727a21.85 21.85 0 0 0 8.605 7.879c2.318 1.348 2.829 1.691 3.4 3.313s.394 2.212-.558 4.72c-1.289 3.394-3.237 8.526-.681 15.739s7.3 9.973 10.437 11.8c2.318 1.349 2.829 1.69 3.4 3.313s.394 2.209-.558 4.716a26.075 26.075 0 0 0 -1.838 7zm58.355-15.394-25.455 6.715a19.616 19.616 0 0 0 -.482-12.317c-2.555-7.212-7.3-9.973-10.438-11.8-2.318-1.349-2.828-1.691-3.4-3.314s-.394-2.21.558-4.717c1.289-3.4 3.237-8.527.681-15.741a20.158 20.158 0 0 0 -9.391-11.182l31.734-9.561a32 32 0 0 1 16.2 61.916z"/>
  <circle cx="222.985" cy="302.721" fill="#35a872" r="16"/>
  <circle cx="299.805" cy="305.439" fill="#35a872" r="16"/>
  <circle cx="303.285" cy="252.888" fill="#35a872" r="16"/>
  <circle cx="221.635" cy="355.29" fill="#35a872" r="16"/>
  <circle cx="298.935" cy="357.68" fill="#35a872" r="16"/>
  <circle cx="260.785" cy="275.249" fill="#35a872" r="16"/>
  <circle cx="258.175" cy="329.189" fill="#35a872" r="16"/>
</svg>