<svg id="Layer_1" enable-background="new 0 0 500 500" viewBox="0 0 500 500" xmlns="http://www.w3.org/2000/svg"><path clip-rule="evenodd" d="m91.8 150.593c2.638 0 4.79 2.142 4.79 4.79 0 2.638-2.152 4.785-4.79 4.785-2.648 0-4.79-2.147-4.79-4.785 0-2.648 2.142-4.79 4.79-4.79zm0 22.381c9.704 0 17.591-7.897 17.591-17.591 0-9.704-7.887-17.591-17.591-17.591s-17.591 7.886-17.591 17.591c.001 9.694 7.887 17.591 17.591 17.591zm348.059 272.959h-379.718c-4.661 0-8.593-4.601-8.593-10.039v-240.307h110.487c-29.853 25.949-46.807 62.491-46.807 101.904v89.276c0 3.539 2.87 6.403 6.403 6.403h256.738c3.533 0 6.403-2.865 6.403-6.403v-89.276c0-39.522-16.936-75.83-46.801-101.904h110.487v240.307c-.001 5.437-3.933 10.039-8.599 10.039zm-379.718-317.958c-4.661 0-8.593 4.601-8.593 10.044v44.762h127.862c11.668-7.239 24.312-12.612 37.577-15.962-14.813-8.404-26.141-22.268-31.201-38.844zm189.859-73.902c29.955 0 54.332 24.372 54.332 54.332 0 29.949-24.377 54.316-54.332 54.316-29.96 0-54.332-24.366-54.332-54.316 0-29.961 24.372-54.332 54.332-54.332zm0 121.453c-67.251 0-121.966 54.715-121.966 121.966v82.873h243.937v-82.873c0-67.251-54.715-121.966-121.971-121.966zm189.859-47.551h-125.645c-5.071 16.577-16.388 30.44-31.195 38.844 13.254 3.35 25.893 8.723 37.566 15.962h127.872v-44.762c0-5.443-3.932-10.044-8.598-10.044zm0-12.806h-123.066c3.935-39.645-27.176-73.902-66.793-73.902-39.628 0-70.727 34.259-66.792 73.902h-123.067c-11.803 0-21.399 10.254-21.399 22.85v297.875c0 12.596 9.596 22.84 21.399 22.84h379.718c11.797 0 21.399-10.244 21.399-22.84v-297.875c0-12.596-9.602-22.85-21.399-22.85z" fill-rule="evenodd"/></svg>