<svg height="384pt" viewBox="0 0 384 384" width="384pt" xmlns="http://www.w3.org/2000/svg"><path d="m21.332031 330.667969c.054688 17.652343 14.347657 31.945312 32 32h128v-160h-160zm49.816407-63.042969c-4.15625-4.1875-4.140626-10.945312.027343-15.113281 4.171875-4.171875 10.929688-4.183594 15.117188-.03125l15.039062 15.144531 15.042969-15.144531c4.1875-4.152344 10.945312-4.140625 15.113281.03125 4.171875 4.167969 4.183594 10.925781.03125 15.113281l-15.144531 15.042969 15.144531 15.039062c4.160157 4.191407 4.160157 10.953125 0 15.144531-2.027343 1.976563-4.742187 3.082032-7.574219 3.09375-2.824218-.03125-5.53125-1.136718-7.570312-3.09375l-15.042969-15.144531-15.039062 15.144531c-2.039063 1.957032-4.746094 3.0625-7.574219 3.09375-2.828125-.011718-5.542969-1.117187-7.570312-3.09375-4.160157-4.191406-4.160157-10.953124 0-15.144531l15.144531-15.039062zm0 0" fill="#90caf9"/><path d="m330.667969 21.332031h-128v160h160v-128c-.054688-17.652343-14.347657-31.945312-32-32zm-16 90.667969h-64c-5.890625 0-10.667969-4.777344-10.667969-10.667969s4.777344-10.664062 10.667969-10.664062h64c5.890625 0 10.664062 4.773437 10.664062 10.664062s-4.773437 10.667969-10.664062 10.667969zm0 0" fill="#90caf9"/><path d="m202.667969 202.667969v160h128c17.652343-.054688 31.945312-14.347657 32-32v-128zm112 112h-64c-5.890625 0-10.667969-4.777344-10.667969-10.667969s4.777344-10.667969 10.667969-10.667969h64c5.890625 0 10.664062 4.777344 10.664062 10.667969s-4.773437 10.667969-10.664062 10.667969zm0-42.667969h-64c-5.890625 0-10.667969-4.777344-10.667969-10.667969s4.777344-10.664062 10.667969-10.664062h64c5.890625 0 10.664062 4.773437 10.664062 10.664062s-4.773437 10.667969-10.664062 10.667969zm0 0" fill="#42a5f5"/><path d="m21.332031 53.332031v128h160v-160h-128c-17.652343.054688-31.945312 14.347657-32 32zm48 37.335938h21.335938v-21.335938c0-5.890625 4.773437-10.664062 10.664062-10.664062s10.667969 4.773437 10.667969 10.664062v21.335938h21.332031c5.890625 0 10.667969 4.773437 10.667969 10.664062s-4.777344 10.667969-10.667969 10.667969h-21.332031v21.332031c0 5.890625-4.777344 10.667969-10.667969 10.667969s-10.664062-4.777344-10.664062-10.667969v-21.332031h-21.335938c-5.890625 0-10.664062-4.777344-10.664062-10.667969s4.773437-10.664062 10.664062-10.664062zm0 0" fill="#42a5f5"/><g fill="#1976d2"><path d="m325.332031 261.332031c-.015625 5.886719-4.78125 10.652344-10.664062 10.667969h-64c-5.890625 0-10.667969-4.777344-10.667969-10.667969s4.777344-10.664062 10.667969-10.664062h64c5.882812.015625 10.648437 4.78125 10.664062 10.664062zm0 0"/><path d="m330.667969 0h-277.335938c-29.449219.0117188-53.3203122 23.882812-53.332031 53.332031v277.335938c.0117188 29.449219 23.882812 53.320312 53.332031 53.332031h277.335938c29.449219-.011719 53.320312-23.882812 53.332031-53.332031v-277.335938c-.011719-29.449219-23.882812-53.3203122-53.332031-53.332031zm-149.335938 362.667969h-128c-17.652343-.054688-31.945312-14.347657-32-32v-128h160zm0-181.335938h-160v-128c.054688-17.652343 14.347657-31.945312 32-32h128zm181.335938 149.335938c-.054688 17.652343-14.347657 31.945312-32 32h-128v-160h160zm0-149.335938h-160v-160h128c17.652343.054688 31.945312 14.347657 32 32zm0 0"/><path d="m69.332031 112h21.335938v21.332031c0 5.890625 4.773437 10.667969 10.664062 10.667969s10.667969-4.777344 10.667969-10.667969v-21.332031h21.332031c5.890625 0 10.667969-4.777344 10.667969-10.667969s-4.777344-10.664062-10.667969-10.664062h-21.332031v-21.335938c0-5.890625-4.777344-10.664062-10.667969-10.664062s-10.664062 4.773437-10.664062 10.664062v21.335938h-21.335938c-5.890625 0-10.664062 4.773437-10.664062 10.664062s4.773437 10.667969 10.664062 10.667969zm0 0"/><path d="m314.667969 90.667969h-64c-5.890625 0-10.667969 4.773437-10.667969 10.664062s4.777344 10.667969 10.667969 10.667969h64c5.890625 0 10.664062-4.777344 10.664062-10.667969s-4.773437-10.664062-10.664062-10.664062zm0 0"/><path d="m71.148438 312.851562c2.027343 1.976563 4.742187 3.082032 7.570312 3.09375 2.828125-.03125 5.535156-1.136718 7.574219-3.09375l15.039062-15.144531 15.042969 15.144531c2.039062 1.957032 4.746094 3.0625 7.570312 3.09375 2.832032-.011718 5.546876-1.117187 7.574219-3.09375 4.160157-4.191406 4.160157-10.953124 0-15.144531l-15.144531-15.039062 15.144531-15.042969c4.152344-4.1875 4.140625-10.945312-.03125-15.113281-4.167969-4.171875-10.925781-4.183594-15.113281-.03125l-15.042969 15.144531-15.039062-15.144531c-4.1875-4.152344-10.945313-4.140625-15.117188.03125-4.167969 4.167969-4.183593 10.925781-.027343 15.113281l15.144531 15.042969-15.144531 15.039062c-4.160157 4.191407-4.160157 10.953125 0 15.144531zm0 0"/><path d="m250.667969 314.667969h64c5.890625 0 10.664062-4.777344 10.664062-10.667969s-4.773437-10.667969-10.664062-10.667969h-64c-5.890625 0-10.667969 4.777344-10.667969 10.667969s4.777344 10.667969 10.667969 10.667969zm0 0"/></g></svg>