<?xml version="1.0" encoding="UTF-8" standalone="no"?>
<!-- Created with Inkscape (http://www.inkscape.org/) -->

<svg
   version="1.1"
   id="svg3597"
   xml:space="preserve"
   width="682.66669"
   height="682.66669"
   viewBox="0 0 682.66669 682.66669"
   xmlns="http://www.w3.org/2000/svg"
   xmlns:svg="http://www.w3.org/2000/svg"><defs
     id="defs3601"><clipPath
       clipPathUnits="userSpaceOnUse"
       id="clipPath3611"><path
         d="M 0,512 H 512 V 0 H 0 Z"
         id="path3609" /></clipPath></defs><g
     id="g3603"
     transform="matrix(1.3333333,0,0,-1.3333333,0,682.66667)"><g
       id="g3605"><g
         id="g3607"
         clip-path="url(#clipPath3611)"><g
           id="g3613"
           transform="translate(319.6807,44.5)"><path
             d="m 0,0 h -298.181 c -7.732,0 -14,6.268 -14,14 v 22 c 0,7.732 6.268,14 14,14 h 469 c 7.733,0 14,-6.268 14,-14 V 14 c 0,-7.732 -6.267,-14 -14,-14 H 32.744"
             style="fill:none;stroke:#000000;stroke-width:15;stroke-linecap:round;stroke-linejoin:round;stroke-miterlimit:10;stroke-dasharray:none;stroke-opacity:1"
             id="path3615" /></g><g
           id="g3617"
           transform="translate(41.001,347.8193)"><path
             d="m 0,0 -0.001,26.671 c 0,11.04 8.95,20 20,20 h 48"
             style="fill:none;stroke:#000000;stroke-width:15;stroke-linecap:round;stroke-linejoin:round;stroke-miterlimit:10;stroke-dasharray:none;stroke-opacity:1"
             id="path3619" /></g><g
           id="g3621"
           transform="translate(403,394.5)"><path
             d="m 0,0 h 47.99 c 11.05,0 20,-8.95 20,-20 L 68,-279.99 c 0,-11.04 -8.95,-20 -20,-20 L -341.99,-300 c -11.05,0 -20,8.95 -20,20 l -0.008,201.227"
             style="fill:none;stroke:#000000;stroke-width:15;stroke-linecap:round;stroke-linejoin:round;stroke-miterlimit:10;stroke-dasharray:none;stroke-opacity:1"
             id="path3623" /></g><g
           id="g3625"
           transform="translate(403,364.5)"><path
             d="M 0,0 H 37.99 L 38,-239.99 -331.99,-240 -332,-0.01 h 38"
             style="fill:none;stroke:#000000;stroke-width:15;stroke-linecap:round;stroke-linejoin:round;stroke-miterlimit:10;stroke-dasharray:none;stroke-opacity:1"
             id="path3627" /></g><g
           id="g3629"
           transform="translate(256,416.7598)"><path
             d="m 0,0 v -185.26 h -141.4 c -3.09,0 -5.6,2.51 -5.6,5.6 V -5.6 c 0,3.09 2.51,5.6 5.6,5.6 h 19.91"
             style="fill:none;stroke:#000000;stroke-width:15;stroke-linecap:round;stroke-linejoin:round;stroke-miterlimit:10;stroke-dasharray:none;stroke-opacity:1"
             id="path3631" /></g><g
           id="g3633"
           transform="translate(256,416.7598)"><path
             d="m 0,0 v -185.26 h 141.4 c 3.09,0 5.6,2.51 5.6,5.6 V -5.6 c 0,3.09 -2.51,5.6 -5.6,5.6 h -19.91"
             style="fill:none;stroke:#000000;stroke-width:15;stroke-linecap:round;stroke-linejoin:round;stroke-miterlimit:10;stroke-dasharray:none;stroke-opacity:1"
             id="path3635" /></g><g
           id="g3637"
           transform="translate(256,231.5)"><path
             d="m 0,0 -117.716,40.707 c -2.257,0.781 -3.771,2.906 -3.771,5.294 v 184.393 c 0,3.85 3.795,6.552 7.434,5.293 L 0,196.247 Z"
             style="fill:none;stroke:#000000;stroke-width:15;stroke-linecap:round;stroke-linejoin:round;stroke-miterlimit:10;stroke-dasharray:none;stroke-opacity:1"
             id="path3639" /></g><g
           id="g3641"
           transform="translate(316.1855,448.5596)"><path
             d="M 0,0 -60.186,-20.812 V -217.06 l 117.716,40.707 c 2.257,0.782 3.772,2.907 3.772,5.294 V 13.334 c 0,3.851 -3.795,6.553 -7.435,5.294 L 30.243,10.459"
             style="fill:none;stroke:#000000;stroke-width:15;stroke-linecap:round;stroke-linejoin:round;stroke-miterlimit:10;stroke-dasharray:none;stroke-opacity:1"
             id="path3643" /></g><g
           id="g3645"
           transform="translate(287.7695,70.5)"><path
             d="M 0,0 H -63.539 C -69.741,0 -74.77,5.028 -74.77,11.23 V 24 h 86 V 11.23 C 11.23,5.028 6.202,0 0,0 Z"
             style="fill:none;stroke:#000000;stroke-width:15;stroke-linecap:round;stroke-linejoin:round;stroke-miterlimit:10;stroke-dasharray:none;stroke-opacity:1"
             id="path3647" /></g><g
           id="g3649"
           transform="translate(157.4888,195.1104)"><path
             d="M 0,0 H 197.023"
             style="fill:none;stroke:#000000;stroke-width:15;stroke-linecap:round;stroke-linejoin:round;stroke-miterlimit:10;stroke-dasharray:none;stroke-opacity:1"
             id="path3651" /></g><g
           id="g3653"
           transform="translate(157.4888,163.2959)"><path
             d="M 0,0 H 127.774"
             style="fill:none;stroke:#000000;stroke-width:15;stroke-linecap:round;stroke-linejoin:round;stroke-miterlimit:10;stroke-dasharray:none;stroke-opacity:1"
             id="path3655" /></g></g></g></g></svg>
