<svg clip-rule="evenodd" fill-rule="evenodd" height="512" image-rendering="optimizeQuality" shape-rendering="geometricPrecision" text-rendering="geometricPrecision" viewBox="0 0 173.397 173.397" width="512" xmlns="http://www.w3.org/2000/svg"><g id="Layer_x0020_1"><circle cx="86.699" cy="86.699" fill="#f26946" r="84.667"/><g id="_411578144" fill="#fff"><path id="_411547232" d="m108.4 126.163h-43.4033v-6.734h43.4033z"/><path id="_411547328" d="m61.3266 141.139h50.744v-12.5564h-50.744zm41.9598-9.2936c1.6653 0 3.0154 1.35 3.0154 3.0154s-1.3501 3.0154-3.0154 3.0154c-1.6654 0-3.0155-1.35-3.0155-3.0154s1.3501-3.0154 3.0155-3.0154z"/><g fill-rule="nonzero"><path id="_411545960" d="m88.6979 34.2574c0-1.1042-.8952-1.9994-1.9994-1.9994-1.1043 0-1.9995.8952-1.9995 1.9994v8.0418c0 1.1043.8952 1.9995 1.9995 1.9995 1.1042 0 1.9994-.8952 1.9994-1.9995z"/><path id="_411546392" d="m73.9476 36.0994c-.2847-1.0654-1.3793-1.6983-2.4446-1.4136-1.0654.2846-1.6984 1.3792-1.4137 2.4446l2.0814 7.7678c.2846 1.0653 1.3792 1.6983 2.4446 1.4136 1.0654-.2846 1.6983-1.3792 1.4137-2.4446z"/><path id="_411546080" d="m60.4861 40.9848c-.5478-.9532-1.7647-1.2819-2.718-.7341-.9532.5478-1.2819 1.7647-.7341 2.7179l4.0208 6.9644c.5478.9533 1.7648 1.282 2.718.7342.9533-.5478 1.282-1.7647.7342-2.718z"/><path id="_411546344" d="m103.308 37.1304c.2847-1.0654-.3483-2.16-1.4137-2.4446-1.0653-.2847-2.1599.3482-2.4446 1.4136l-2.0814 7.7678c-.2846 1.0654.3483 2.16 1.4137 2.4446 1.0654.2847 2.16-.3483 2.4446-1.4136z"/><path id="_411546176" d="m116.363 42.9686c.5478-.9532.2191-2.1701-.7341-2.7179-.9533-.5478-2.1702-.2191-2.718.7341l-4.0209 6.9644c-.5478.9533-.2191 2.1702.7342 2.718.9532.5478 2.1702.2191 2.718-.7342z"/></g><path id="_411546296" d="m99.7049 77.46c.2379.8307-.4481 1.6246-1.2903 1.5351-4.0083-.0694-7.3169 1.2509-9.3245 4.6647-1.997 3.3957-2.7006 8.644-2.1108 15.7443.0548.6655-.4403 1.2495-1.1058 1.3043s-1.2495-.4403-1.3043-1.1058c-.504-6.0682-.0867-10.9383 1.2518-14.6104-.5408.1903-1.0871.331-1.6353.4238-1.8662.316-3.7406.0733-5.4808-.6458-.7141 1.9928-2.3451 3.453-4.3191 4.1592-2.6762.9574-5.8168.4964-7.9107-1.4969-1.8313-1.7431-3.3454-4.021-5.2374-5.5991-.1093-.0911-.2161-.1832-.3204-.2762-.3206 4.2604-.3192 8.1298.0042 11.6077.3658 3.9313 1.1339 7.551 2.7077 11.181 1.439 3.319 3.8644 8.9134 5.2843 12.6631h34.2822c.3654-7.8804 4.6722-14.458 8.6064-21.0068 2.1211-3.5646 1.5182-8.0738.9332-12.4483-.4185-3.1307-.6558-6.1739-1.273-9.2769-.6486-3.2604-1.6914-7.8976-3.2126-10.8201-1.8965-3.6436-3.2838-3.0072-6.8742-2.8318-4.3405.2126-7.4624-.0547-11.6686-.2592-1.9446-.0946-5.0932-.1995-6.2775 1.7345-1.2432 2.03 1.0004 5.0076 2.3184 6.3006 2.2606 2.218 5.6089 3.2964 8.7201 3.165 2.3543-.0995 4.7928-.7356 7.0051-1.5231.6289-.2218 1.3188.1083 1.5405.7372.2218.629-.1083 1.3188-.7372 1.5406-.9774.3479-1.9245.6415-2.8412.8808-.0955 1.2022-.0522 3.1323.2698 4.2585z"/><path id="_411546488" d="m76.6211 83.2118c-2.7626-3.8498-4.5154-10.8604-6.2752-15.5301-.2001-.5292-.3674-1.0524-.5019-1.5696-1.6834-.7612-3.3134-.9338-4.7239-.5044-3.5224 1.0726-5.4679 6.5806-5.0164 9.8396.2405 1.7361 1.1322 3.2475 2.6747 4.5336 1.9926 1.662 3.4748 3.9084 5.3602 5.703 1.4291 1.3605 3.6201 1.6167 5.4343.9677 1.5717-.5623 2.7704-1.755 3.0482-3.4398z"/><path id="_411545816" d="m85.7365 76.5184c-.6109-2.0787-.8991-4.1042-.9746-5.7554-2.6459-2.2269-5.4868-6.5004-3.3929-9.9196.4924-.8041 1.2289-1.4601 2.2093-1.968-.1062-.8139-.1159-1.5938-.0411-2.3358-1.6112-.6784-3.3337-1.1849-4.9491-1.2054-3.6636-.0465-6.19 3.1012-6.6649 6.5094-.2162 1.5511.011 3.2137.6816 4.9874 1.4022 3.7214 3.8904 12.6807 5.922 15.0615 1.6494 1.0626 3.2327 1.4852 5.2619 1.1416 1.3298-.2251 2.6604-.8312 3.9046-1.8703-.8625-1.4983-1.4997-3.0898-1.9568-4.6454z"/><path id="_411546272" d="m99.5418 58.2957c.1747-1.2127.4796-2.4315.946-3.5667-1.1473-2.7113-3.2882-4.0951-5.5747-4.416-1.1491-.1613-2.336-.0627-3.4574.264-3.3819.9855-5.7574 3.8346-5.5276 7.4699.9075-.1683 2.3631-.1655 3.8923-.0911 3.446.1675 6.1891.4926 9.7214.3399z"/><path id="_411578312" d="m97.1107 76.6064c-.1079-.95-.149-1.9279-.1198-2.8838-.8384.136-1.6479.2205-2.4285.2535-2.6596.1124-4.9286-.4163-7.2318-1.544.1414 1.0634.3737 2.2219.7216 3.4057.3519 1.1977.823 2.4173 1.439 3.5832 1.9843-1.7153 4.5241-2.6535 7.6195-2.8146z"/><path id="_411578264" d="m114.561 63.9099c.2713-2.9557.4568-5.3316-.3317-7.1008-.766-1.7187-2.561-3.0676-6.307-4.1793-1.4186-.4213-2.7446-.2733-3.8341.8287-1.1701 1.1836-1.7968 3.0941-2.0815 4.7204 4.2532-.2016 6.1287-.1783 8.3884 4.1628 1.406 2.7012 2.2531 6.1951 2.946 9.1852.6767-2.5004.9835-5.0419 1.2199-7.617z"/></g></g></svg>