<svg clip-rule="evenodd" fill-rule="evenodd" height="2.667in" image-rendering="optimizeQuality" shape-rendering="geometricPrecision" text-rendering="geometricPrecision" viewBox="0 0 2667 2667" width="2.667in" xmlns="http://www.w3.org/2000/svg"><g id="Layer_x0020_1"><circle cx="1333" cy="1333" fill="#a5d2cb" r="1333"/><path d="m1333 812c-11 0-20-9-20-20v-291c0-27 40-27 40 0v291c0 11-9 20-20 20z"/><path d="m860 1133c-11 0-20-9-20-20v-135c0-27 40-27 40 0v135c0 10-9 20-20 20z"/><path d="m1097 930c-11 0-20-9-20-20v-253c0-26 40-26 40 0v253c0 11-9 20-20 20z"/><path d="m1807 1133c-11 0-20-9-20-20v-135c0-27 40-27 40 0v135c0 10-9 20-20 20z"/><path d="m1570 930c-11 0-20-9-20-20v-253c0-26 40-26 40 0v253c0 11-9 20-20 20z"/><path d="m1490 1484c-57 0-103-47-103-103 0-22-5-53 20-53 26 0 20 31 20 53 0 38 35 68 74 62 24-5 43 41-11 41zm-83-284c-11 0-20-9-20-20v-140c0-56 46-102 103-102s103 46 103 102v136c0 26-40 26-40 0v-136c0-82-126-82-126 0v140c0 11-9 20-20 20z"/><path d="m1331 1495c-53 0-96-43-96-96v-317c0-53 43-96 96-96s96 43 96 96v98c0 26-40 26-40 0v-98c0-74-112-74-112 0v317c0 74 112 74 112 0 0-34-7-72 20-72 28 0 20 38 20 72 0 53-43 96-96 96z"/><path d="m1182 1457c-52 0-94-42-94-93v-239c0-123 187-123 187 0v239c0 52-42 93-93 93zm0-386c-30 0-54 24-54 54v239c0 70 107 70 107 0v-239c0-30-24-54-53-54z"/><path d="m1031 1426c-54 0-98-43-98-97v-134c0-53 44-97 98-97 53 0 97 44 97 97v134c0 54-44 97-97 97zm0-288c-32 0-58 26-58 57v134c0 76 115 76 115 0v-134c0-31-26-57-57-57z"/><path d="m1547 2186h-436c-11 0-20-9-20-20v-242c-121-133-143-252-151-292-19-101-9-202-7-304 1-26 41-25 40 2-5 202-32 373 152 573 4 3 6 8 6 13v230h396v-222c0-23 74-72 110-183 64-199 111-451-32-534-27-16-43-10-73-10-67 0-157 4-158 5-14 0-31 3-38 16-7 14-4 34 8 53 21 33 77 67 156 94 67 24 107 10 112 36 1 9-3 17-11 21-164 88-258 261-259 262-13 23-48 5-35-19 3-6 83-152 228-249-76-15-187-63-225-123-36-58-16-131 63-131l175-5c25-1 46-2 77 16 131 76 149 276 51 579-1 3-22 81-109 180v234c0 11-9 20-20 20z"/><path d="m853 833c-9 0-18-7-19-16l-17-87-67-58c-13-11-7-32 9-35l87-16 58-67c11-13 32-7 35 9l17 87 67 58c13 11 7 32-10 35l-87 16c-13 8-51 74-73 74zm-46-164c57 49 44 26 58 100 49-57 27-44 100-58-56-49-44-27-58-100-48 57-26 44-100 58z"/><path d="m1813 833c-21 0-60-66-73-74l-87-16c-16-3-22-24-9-35l67-58 16-87c3-16 24-22 35-9l58 67 87 16c16 3 22 24 9 35l-67 58-16 87c-2 9-10 16-20 16zm-112-122c74 14 51 1 100 58 14-73 1-51 58-100-74-14-51-1-100-58-14 74-1 51-58 100z"/><path d="m717 1133c-10 0-63-31-75-38l-65 36c-15 8-33-5-29-21l14-74-55-51c-12-11-5-32 11-34l75-10 31-67c8-16 29-15 36 0l32 67 74 10c17 2 24 23 12 34l-55 51 14 74c2 12-7 23-20 23zm-75-81c9 0 36 17 48 24-12-63-17-47 29-91-63-8-50 2-77-55-27 57-13 47-76 55 46 44 41 28 29 91 11-6 38-24 47-24z"/><path d="m1949 1133c-13 0-22-11-19-23l14-74-55-51c-12-11-5-32 11-34l75-9 31-68c8-15 29-16 36 0l32 68 74 9c17 2 24 23 12 34l-55 51 14 74c3 16-14 29-29 21l-66-36c-12 7-64 38-75 38zm-1-148c46 44 41 28 29 90 56-30 39-30 95 0-12-62-17-46 29-90-63-8-49 2-76-56-27 58-14 48-77 56z"/><g fill="#ffc89f"><path d="m1637 1741c64-199 111-451-32-534-27-16-43-10-73-10-67 0-157 4-158 5-14 0-31 3-38 16-7 14-4 34 8 53s36 39 70 57c1 1 2 1 3 2 1 0 2 1 3 2 23 12 50 23 80 33 67 24 107 10 112 36 1 9-3 17-11 21-164 88-258 261-259 262-13 23-48 5-35-19 2-5 54-100 149-187-17-6-31-16-43-29-17 27-47 46-82 46-40 0-74-25-89-60-16 14-37 22-60 22-39 0-72-23-86-56-17 16-40 25-65 25-23 0-44-7-60-20-7 170-6 323 154 497 4 3 6 8 6 13v230h396v-222c0-23 74-72 110-183z"/><path d="m1427 1160 121-3c2-1 3-1 5-1v-116c0-82-126-82-126 0v41 1z"/><path d="m1535 1416c-32-7-71-19-107-36v6c3 35 34 61 69 57 12-9 25-19 38-27z"/><path d="m1387 1399c0-14-1-28 0-40-33-19-61-42-77-66-36-58-16-131 63-131l14-1v-79c0-74-112-74-112 0v43 239 35c0 74 112 74 112 0z"/><path d="m1235 1364v-239c0-30-24-54-53-54-30 0-54 24-54 54v70 134 35c0 70 107 70 107 0z"/><path d="m1088 1329v-134c0-31-26-57-57-57-32 0-58 26-58 57v131 4 2c3 73 115 72 115-3z"/></g><path d="m690 1076c-12-63-17-47 29-91-63-8-50 2-77-55-27 57-13 47-76 55 46 44 41 28 29 91 11-6 38-24 47-24s36 17 48 24z" fill="#f7cc3f"/><path d="m807 669c57 49 44 26 58 100 49-57 27-44 100-58-56-49-44-27-58-100-48 57-26 44-100 58z" fill="#f7cc3f"/><path d="m1759 611c-14 74-1 51-58 100 74 14 51 1 100 58 14-73 1-51 58-100-74-14-51-1-100-58z" fill="#f7cc3f"/><path d="m2025 929c-27 58-14 48-77 56 46 44 41 28 29 90 56-30 39-30 95 0-12-62-17-46 29-90-63-8-49 2-76-56z" fill="#f7cc3f"/></g></svg>