<svg clip-rule="evenodd" fill-rule="evenodd" height="2.833in" image-rendering="optimizeQuality" shape-rendering="geometricPrecision" text-rendering="geometricPrecision" viewBox="0 0 2.83333 2.83333" width="2.833in" xmlns="http://www.w3.org/2000/svg"><g id="Layer_x0020_1"><circle cx="1.417" cy="1.417" fill="#a07269" r="1.417"/><circle cx="1.417" cy="1.417" fill="#a07269" r="1.417"/><path d="m2.19904 1.38914h-.18876c-.0110394 0-.02-.00896063-.02-.02 0-.0110394.00897244-.02.02-.02h.18876c.0110394 0 .02.00896063.02.02 0 .0110394-.00895669.02-.02.02zm-1.10507.0357205c-.0271299 0-.0520157-.00975591-.0713504-.025937v.185531c.00114173.0110984.015122.12261.118335.154154h.49922c.163429-.0295984.246291-.20439.246291-.519567 0-.00094488.00006693-.00188976.00020866-.00283465.00005906-.00074803.00207087-.0306654-.0476929-.054748l-.113386-.0480433-.00024016-.0001063-.0786378-.0333189c-.0104291-.00374803-.0377047-.00923622-.0493976.00017717-.00892913.0071811-.00870866.0243858-.00694488.0375512.0116378.0873346.0899134.158709.139551.174665.0100984.00325197.0159173.0138071.0132323.0240591-.00076378.00292913-.0197874.0716693-.124335.0716693-.0763346 0-.131079.0367244-.146445.0982165-.0026811.0107244-.0134685.0172756-.024252.0145669-.0107244-.0026811-.0172323-.0135433-.0145669-.024248.0198228-.0792756.0908031-.128531.185264-.128531.0203819 0 .0360433-.00320866.0480394-.00785039-.00813386.00188189-.0164921.00285827-.0249252.00285827-.0377638 0-.0711929-.0189016-.0913346-.0477402-.0201457.0288346-.0535709.0477402-.0913307.0477402-.0297323 0-.0567756-.0117165-.0767677-.0307717-.0145118.0446181-.0564882.0769567-.105886.0769567-.0311772 0-.0593976-.0128898-.0796299-.0336063-.0166575.0405354-.0565512.0691575-.10302.0691575zm-.111331-.111161-.00000394-.00016929v-.268748c0-.061374.0499409-.111315.111335-.111315.0311732 0 .0593898.0128819.0796181.0335945.0166535-.0405394.0565512-.0691654.103016-.0691654.0297362 0 .0567835.0117165.0767717.0307756.0145197-.0446181.0565-.0769606.105898-.0769606.0377598 0 .071189.0189016.0913346.0477362.0201417-.0288346.0535709-.0477362.0913307-.0477362.0613898 0 .111331.0499449.111331.111335v.118693l.102236.0433189c.070878.0342638.0716969.0839173.0709724.0947677-.00014961.327929-.0891102.514555-.264539.555142v.114126.0647087h.0212992c.0197638 0 .0358504.0160827.0358504.0358465v.244496c0 .0197638-.0160866.0358465-.0358504.0358465h-.586504c-.0197638 0-.0358465-.0160827-.0358465-.0358465v-.244496c0-.0197638.0160827-.0358465.0358465-.0358465h.0213189v-.0647087-.116016c-.122067-.0448583-.134854-.180039-.135362-.185996-.00004331-.00055512-.00007087-.00111417-.00007087-.00166929v-.270937l.00001968-.00077559zm.222646-.270193.00001575.00127559v.234429c.00065748.0387677.0323937.0701063.0713031.0701063h.00000394c.0393346 0 .0713307-.0319961.0713307-.0713307v-.0461929-.222555c.00001181-.0393346-.0319882-.0713307-.0713189-.0713307-.0393346 0-.0713346.0319961-.0713346.0713307v.0342677zm-.111315-.0700591c-.0393346 0-.0713346.032-.0713346.0713189v.268748c0 .0393307.032.0713307.0713346.0713307.0393307 0 .0713307-.032.0713307-.0713307v-.0342638l-.00001575-.00127559v-.234433c-.00066929-.0387559-.0323937-.0700945-.071315-.0700945zm.365303-.0817362c-.0393346 0-.0713346.032-.0713346.0713346v.268748c0 .0393307.032.0713307.0713346.0713307.0393307 0 .0713307-.032.0713307-.0713307v-.268748c0-.0393346-.032-.0713346-.0713307-.0713346zm.253996.173079v-.101744c0-.0393346-.0319843-.0713346-.071315-.0713346-.0393346 0-.0713189.032-.0713189.0713346v.0873189c.00056299-.00048819.00114173-.0009685.00173228-.00144094.0324488-.0259409.0834016-.00820866.0890984-.00608268l.0518031.0219488zm-.142634.125299v.0417047c0 .0393307.0319843.0713307.0713189.0713307.0065 0 .012937-.00090945.0191378-.00265748-.0358268-.0262598-.0695236-.0651457-.0904567-.110378zm-.412583.763697h.46387v-.0446929h-.46387zm.46387-.0846929v-.0904724h-.46387v.0904724zm-.521035.360902h.578189v-.236177h-.0371378-.503886-.0371654v.236177zm.105732-.0321102c-.0474173 0-.0859724-.0385669-.0859724-.0859843 0-.0474016.0385669-.0859724.0859724-.0859724s.0859843.0385669.0859843.0859724c.00000394.0474094-.0385669.0859843-.0859843.0859843zm0-.131957c-.0253504 0-.0459843.0206063-.0459843.0459724 0 .0253622.020626.0459843.0459843.0459843s.0459843-.020626.0459843-.0459843-.020622-.0459724-.0459843-.0459724zm-.403634-.667358h-.168693c-.0110394 0-.02-.00896063-.02-.02 0-.0110394.00896063-.02.02-.02h.168693c.0110394 0 .02.00896063.02.02 0 .0110394-.00895669.02-.02.02zm.036126-.214457c-.0033937 0-.00683465-.00087402-.00998425-.0026811l-.0758504-.0437913c-.00955118-.00552756-.0128346-.017748-.00731496-.027315.00551181-.00955512.0177205-.0128465.027315-.0073189l.0758504.0437913c.00955118.00552756.0128346.017748.00731496.027315-.00370472.00642126-.0104291.01-.0173307.01zm.139787-.212067c-.00512205 0-.0102362-.00195669-.0141378-.0058622l-.134941-.134945c-.00782283-.00780315-.00782283-.0204685 0-.0282756.0078189-.00782283.0204724-.00782283.0282756 0l.134945.134945c.00782283.00780315.00782283.0204685 0 .0282756-.00390551.00390551-.00901181.0058622-.0141417.0058622zm.214484-.144579c-.00691732 0-.0136339-.00358661-.0173465-.01l-.0446811-.077374c-.00551181-.00957087-.00225197-.0218071.00731496-.0273189.00958661-.00551181.0218071-.00223622.0273189.0073189l.0446811.077374c.00551181.00957087.00225197.0218071-.0073189.0273189-.00313386.0018189-.0065748.0026811-.0099685.0026811zm.207224-.0385709c-.0110394 0-.02-.00896063-.02-.02v-.185555c0-.0110394.00896063-.0199961.02-.0199961.0110394 0 .02.00895669.02.0199961v.185555c0 .0110551-.00894488.02-.02.02zm.226496.0457913c-.0038622 0-.00776378-.00111024-.0112087-.00344094-.0091378-.00619291-.0115433-.018626-.00534646-.0277795.0188583-.027874.0405394-.0623189.0456772-.0739016 0-.00338976.00087795-.0068189.0026811-.00995669.00551181-.00957087.0177638-.0128189.0273189-.00733465.00480315.00277953.00866535.00807087.00991732.0134724.00191339.00830315.00387402.0168858-.0524724.100134-.00385827.00572047-.0101535.00880709-.0165669.00880709zm.206469.13172c-.00511024 0-.0102362-.00195669-.0141496-.0058622-.00782283-.00780315-.00782283-.0204724 0-.0282756l.137551-.137555c.00782283-.0078189.0204882-.0078189.0282953 0 .0078189.00780709.0078189.0204724 0 .0282795l-.137555.137551c-.00390551.00390551-.00902756.0058622-.0141417.0058622zm.138567.209858c-.00690157 0-.013626-.00358661-.0173346-.01-.00550787-.00957087-.00224803-.0218071.0073189-.0273189l.0789016-.0455512c.00952756-.00551181.0217795-.00227953.0273189.00731496.00551181.00957087.00225197.0218071-.0073189.0273189l-.0789016.0455551c-.00314961.0018189-.00657874.0026811-.00998425.0026811z" fill="#000002"/><path d="m1.16528 1.27797v-.234433c-.00066929-.0387559-.0323937-.0700945-.071315-.0700945-.0393346 0-.0713346.032-.0713346.0713189v.268748c0 .0393307.032.0713307.0713346.0713307.0393307 0 .0713307-.032.0713307-.0713307v-.0342638l-.00001575-.00127559z" fill="#ffbc8a"/><path d="m1.2053 1.04478v.234429c.00065748.0387677.0323937.0701063.0713071.0701063.0393346 0 .0713307-.0319961.0713307-.0713307v-.0461929-.222555c.00001181-.0393346-.0319882-.0713307-.0713189-.0713307-.0393346 0-.0713346.0319961-.0713346.0713307v.0342677l.00001575.00127559z" fill="#ffa97c"/><path d="m1.38794.963043v.268748c0 .0393307.032.0713307.0713346.0713307.0393307 0 .0713307-.032.0713307-.0713307v-.268748c0-.0393346-.032-.0713346-.0713307-.0713346-.0393346 0-.0713346.032-.0713346.0713346z" fill="#ffbc8a"/><path d="m1.57063.963043v.0873189l.00173228-.00144094c.0324488-.0259409.0834016-.00820866.0890984-.00608268l.0518031.0219488v-.101744c0-.0393346-.0319843-.0713346-.071315-.0713346-.0393346 0-.0713189.032-.0713189.0713346z" fill="#ffa97c"/><path d="m1.66109 1.30046c-.0358268-.0262598-.0695236-.0651457-.0904567-.110378v.0417047c0 .0393307.0319843.0713307.0713189.0713307.0065 0 .012937-.00090945.0191378-.00265748z" fill="#ffa97c"/><path d="m1.59037 1.11772c.0116378.0873346.0899134.158709.139551.174665.0100984.00325197.0159173.0138071.0132323.0240591-.00076378.00292913-.0197874.0716693-.124335.0716693-.0763346 0-.131079.0367244-.146445.0982165-.0026811.0107244-.0134685.0172756-.024252.0145669-.0107244-.0026811-.0172323-.0135433-.0145669-.024248.0198228-.0792756.0908031-.128531.185264-.128531.0203819 0 .0360433-.00320866.0480394-.00785039-.00813386.00188189-.0164921.00285827-.0249252.00285827-.0377638 0-.0711929-.0189016-.0913346-.0477402-.0201457.0288346-.0535709.0477402-.0913307.0477402-.0297323 0-.0567756-.0117165-.0767677-.0307717-.0145118.0446181-.0564882.0769567-.105886.0769567-.0311772 0-.0593976-.0128898-.0796299-.0336063-.0166575.0405354-.0565512.0691575-.10302.0691575-.0271299 0-.0520157-.00975591-.0713504-.025937v.185531c.00114173.0110984.015122.12261.118335.154154h.49922c.163429-.0295984.246291-.20439.246291-.519567 0-.00094488.00006693-.00188976.00020866-.00283465.00005906-.00074803.00207087-.0306654-.0476929-.054748l-.113386-.0480433-.00024016-.0001063-.0786378-.0333189c-.0104291-.00374803-.0377047-.00923622-.0493976.00017717-.00892913.0071811-.00870866.0243858-.00694488.0375512z" fill="#fdd1a7"/><path d="m1.62192 1.77862h-.46387v.09047h.46387z" fill="#ffbc8a"/><path d="m1.62192 1.90909h-.46387v.04469h.46387z" fill="#f0f0ff"/><path d="m1.64194 1.99381h-.503886-.0371654v.236177h.578189v-.236177h-.0371378zm-.349335.118083c.00000394.0474094-.0385669.0859843-.0859843.0859843-.0474173 0-.0859724-.0385669-.0859724-.0859843 0-.0474016.0385669-.0859724.0859724-.0859724s.0859843.0385669.0859843.0859724z" fill="#69f"/></g></svg>