<svg id="Layer_1" data-name="Layer 1" xmlns="http://www.w3.org/2000/svg" xmlns:xlink="http://www.w3.org/1999/xlink" width="26" height="15" viewBox="0 0 26 15">
  <defs>
    <clipPath id="clip-path">
      <rect x="-0.017" y="0.065" width="26" height="15" rx="2" fill="none"/>
    </clipPath>
  </defs>
  <g clip-path="url(#clip-path)">
    <g>
      <rect x="-2.133" y="0.088" width="30.07" height="15.035" fill="#f3f3f3"/>
      <rect x="-2.098" y="-0.947" width="30.279" height="3.419" fill="#0458a0"/>
      <rect x="-2.08" y="12.617" width="30.279" height="3.419" fill="#faa71b"/>
    </g>
  </g>
  <g id="g4158">
    <polygon id="polygon9" points="11.264 10.321 9.818 10.321 10.723 4.727 12.169 4.727 11.264 10.321" fill="#0458a0"/>
    <path id="path11" d="M16.509,4.863a3.574,3.574,0,0,0-1.3-.238c-1.429,0-2.435.762-2.441,1.851-.012.8.721,1.25,1.268,1.518s.75.452.75.7c-.006.375-.452.548-.869.548a2.873,2.873,0,0,1-1.357-.3l-.19-.089-.2,1.256a4.41,4.41,0,0,0,1.613.3c1.518,0,2.507-.75,2.518-1.911.006-.637-.381-1.125-1.214-1.524-.506-.256-.816-.428-.816-.69.006-.238.262-.482.833-.482a2.46,2.46,0,0,1,1.078.214l.131.059.2-1.208Z" fill="#0458a0"/>
    <path id="path13" d="M18.431,8.339c.119-.321.578-1.565.578-1.565s.119-.327.19-.536l.1.482s.274,1.34.334,1.619Zm1.786-3.612H19.1a.714.714,0,0,0-.756.464l-2.149,5.13h1.518l.3-.839h1.857c.041.2.173.839.173.839h1.339L20.217,4.727Z" fill="#0458a0"/>
    <path id="path15" d="M8.61,4.727,7.193,8.542l-.155-.774a4.279,4.279,0,0,0-2-2.345l1.3,4.892H7.865l2.274-5.588Z" fill="#0458a0"/>
    <path id="path17" d="M5.877,4.727H3.55l-.024.113A4.839,4.839,0,0,1,7.038,7.768L6.532,5.2a.6.6,0,0,0-.655-.47Z" fill="#faa71b"/>
  </g>
</svg>
