<svg height="512" viewBox="0 0 32 32" width="512" xmlns="http://www.w3.org/2000/svg"><g id="Layer_1" data-name="Layer 1"><path d="m6 12h20a0 0 0 0 1 0 0v14a4 4 0 0 1 -4 4h-12a4 4 0 0 1 -4-4v-14a0 0 0 0 1 0 0z" fill="#a098a3"/><rect fill="#837a87" height="5" rx="2.5" width="26" x="3" y="7"/></g><g id="Layer_2" data-name="Layer 2"><path d="m5 12.949v13.051a5.006 5.006 0 0 0 5 5h12a5.006 5.006 0 0 0 5-5v-13.051a3.492 3.492 0 0 0 -.5-6.949h-4.5v-2a3 3 0 0 0 -3-3h-6a3 3 0 0 0 -3 3v2h-4.5a3.492 3.492 0 0 0 -.5 6.949zm20 13.051a3 3 0 0 1 -3 3h-12a3 3 0 0 1 -3-3v-13h18zm-13-22a1 1 0 0 1 1-1h6a1 1 0 0 1 1 1v2h-8zm-6.5 4h21a1.5 1.5 0 0 1 0 3h-21a1.5 1.5 0 0 1 0-3z"/><path d="m12.465 24.536a1.014 1.014 0 0 0 1.414 0l2.121-2.122 2.121 2.122a1.023 1.023 0 0 0 1.414 0 1 1 0 0 0 0-1.414l-2.121-2.122 2.121-2.122a1 1 0 0 0 -1.414-1.414l-2.121 2.122-2.121-2.122a1 1 0 0 0 -1.414 1.414l2.121 2.122-2.121 2.122a1 1 0 0 0 0 1.414z"/></g></svg>