<svg id="Capa_1" enable-background="new 0 0 512 512" height="512" viewBox="0 0 512 512" width="512" xmlns="http://www.w3.org/2000/svg"><g><g><g fill="#fe9738"><g><path d="m298.333 286.602 89.879-70.407 14.032-122.575-103.911-57.204-42.182 57.97c21.83 10.961 37.334 32.842 39.198 58.37 2.339 32.111-17.132 62.007-47.368 72.69-40.177 14.217-67.178 52.57-67.178 95.446v18.42c0 23.993 19.45 43.443 43.432 43.443h63.531z"/><path d="m173.02 201.623h-63.528c-23.99 0-43.438-19.448-43.438-43.438 0-7.354.513-14.758 1.524-22.006 11.381-81.565 84.835-141.242 167.225-135.834h63.539l-45.202 45.641"/></g><path d="m287.768 424.763h-63.529c-23.99 0-43.438 19.448-43.438 43.438v.36c0 23.99 19.448 43.438 43.438 43.438h55.803"/></g></g><g><g><g><g><path d="m287.768 382.75c-23.99 0-43.438-19.448-43.438-43.438v-18.425c0-42.876 26.999-81.228 67.185-95.436 30.227-10.688 49.705-40.581 47.364-72.693-2.564-35.163-31.033-63.417-66.222-65.721-37.221-2.459-70.382 24.422-75.507 61.148-.458 3.283-.69 6.648-.69 10.001 0 23.99-19.448 43.438-43.438 43.438s-43.438-19.448-43.438-43.438c0-7.354.513-14.758 1.524-22.006 11.381-81.566 84.834-141.243 167.225-135.835 78.216 5.122 141.496 67.93 147.194 146.096 5.178 71.044-38.02 137.215-105.051 160.917-5.544 1.96-9.269 7.397-9.269 13.529v18.425c0 23.99-19.448 43.438-43.439 43.438z" fill="#ffd15b"/></g><path d="m287.768 512c-23.99 0-43.438-19.448-43.438-43.438v-.36c0-23.99 19.448-43.438 43.438-43.438s43.438 19.448 43.438 43.438v.36c.001 23.99-19.447 43.438-43.438 43.438z" fill="#ffd15b"/></g><g fill="#ffc344"><g><path d="m169.506 136.184c-1.02 7.247-1.519 14.645-1.519 22.001 0 17.097 9.872 31.894 24.235 38.968-5.793 2.864-12.302 4.47-19.202 4.47-23.975 0-43.437-19.44-43.437-43.437 0-7.355.521-14.754 1.54-22.001 11.37-81.581 84.836-141.248 167.219-135.845 2.951.195 5.88.477 8.787.846-69.755 8.592-127.621 63.355-137.623 134.998z"/><path d="m349.916 225.445c-40.183 14.211-67.195 52.572-67.195 95.445v18.421c0 17.097 9.894 31.895 24.257 38.968-5.793 2.864-12.302 4.47-19.202 4.47-23.997 0-43.437-19.441-43.437-43.437v-18.422c0-42.873 26.991-81.233 67.195-95.445 30.224-10.697 49.686-40.573 47.343-72.685-2.191-30.202-23.498-55.306-51.769-63.225 7.616-2.148 15.687-3.038 23.953-2.495 35.193 2.3 63.659 30.549 66.219 65.72 2.343 32.112-17.141 61.989-47.364 72.685z"/></g><path d="m306.977 507.527c-5.793 2.864-12.302 4.47-19.202 4.47-23.997 0-43.437-19.44-43.437-43.437v-.369c0-23.975 19.44-43.437 43.437-43.437 6.9 0 13.409 1.606 19.202 4.47-14.363 7.095-24.257 21.892-24.257 38.968v.369c0 17.096 9.894 31.893 24.257 38.966z"/></g></g></g></g></svg>