<svg height="512" viewBox="0 0 64 64" width="512" xmlns="http://www.w3.org/2000/svg"><g id="Layer_4" data-name="Layer 4"><path d="m31 47h2l6 17h-14z" fill="#171717"/><path d="m47 24c-.4025 0-.7968.0308-1.1924.0566a16 16 0 1 0 -27.6152 0c-.3956-.0258-.7899-.0566-1.1924-.0566-9.3889 0-17 7.1635-17 16s7.6111 16 17 16a17.1611 17.1611 0 0 0 15-8.4747 17.1611 17.1611 0 0 0 15 8.4747c9.3889 0 17-7.1635 17-16s-7.6111-16-17-16z" fill="#171717"/><path d="m64 40c0 8.84-7.61 16-17 16a17.3879 17.3879 0 0 1 -12.74-5.42l4.74 13.42h-14l4.74-13.42a17.3879 17.3879 0 0 1 -12.74 5.42c-9.35 0-16.93-7.09-17-15.88 16.3 2.05 35.4-2.61 55.46-14a15.8569 15.8569 0 0 1 8.54 13.88z"/></g></svg>