<svg height="512" viewBox="0 0 60 61" width="512" xmlns="http://www.w3.org/2000/svg"><g id="005---Moth" fill="none"><g id="Icons" transform="translate(0 8)"><path id="Shape" d="m59 36c-.44 17-13 16-16 16-4.32 0-7.42-2.21-9.85-5.81h-6.29c-2.41 3.57-5.5 5.81-9.86 5.81-3 0-15.56 1-16-16-.36-13.84 12.71-22.89 20.8-27.15h16.39c8.09 4.26 21.17 13.31 20.81 27.15z" fill="#ef314c"/><path id="Shape" d="m59 36c-.28 10.9-5.51 16.6-16.54 16 4.7-.23 13.17-2.1 13.54-16s-12.72-22.89-20.81-27.15h3c8.09 4.26 21.17 13.31 20.81 27.15z" fill="#bb193b"/><path id="Shape" d="m28.5 50.72c-2.59-4.44-4.5-19.6-4.5-31.72-.0449996-3.0092756.1355056-6.0176941.54-9l5.46-5 5.46 5c1.98 12.67-1.94 49.3-6.96 40.72z" fill="#283593"/><path id="Shape" d="m28.5 50.72c-2.59-4.44-4.5-19.6-4.5-31.72-.0449996-3.0092756.1355056-6.0176941.54-9l4-3.6 4 3.6c1.46 9.8-.46 34.59-4.04 40.72z" fill="#3f51b5"/><circle id="Oval" cx="14" cy="40" fill="#ffdc00" r="6"/><circle id="Oval" cx="46" cy="40" fill="#ffdc00" r="6"/><path id="Shape" d="m30 5c.0018389 1.93882162-1.1173393 3.70393091-2.8717582 4.52918664-1.7544189.82525576-3.8277737.56187226-5.3201299-.67582951-1.4923562-1.23770175-2.1346564-3.22657608-1.6481119-5.10335713 2.2596901-.54509734 4.2685564-1.83852526 5.7-3.67 2.3913794.41753838 4.1373368 2.49244428 4.14 4.92z" fill="#f5f5f5"/><path id="Shape" d="m33.5 9.78c-1.7936559-.56007105-3.1218587-2.07849597-3.4382985-3.93072349-.3164398-1.85222753.4323182-3.7254863 1.9382985-4.84927651.6356122-.46274664 1.3668746-.77712114 2.14-.92 1.4292827 1.83384106 3.4390501 3.12784916 5.7 3.67.4586333 1.76004669-.0746617 3.63032128-1.3925788 4.88379771-1.3179172 1.25347644-3.2125567 1.69242029-4.9474212 1.14620229z" fill="#cfd8dc"/><path id="Shape" d="m33.5 9.78c-1.7936559-.56007105-3.1218587-2.07849597-3.4382985-3.93072349-.3164398-1.85222753.4323182-3.7254863 1.9382985-4.84927651 1.3193527 1.36096701 3.003371 2.31235057 4.85 2.74.6767159 2.58504434-.7987558 5.2452978-3.35 6.04z" fill="#f5f5f5"/></g><g id="Layer_10" fill="#000" transform="translate(-1)"><circle id="Oval" cx="27" cy="13" r="1"/><circle id="Oval" cx="35" cy="13" r="1"/><path id="Shape" d="m28.55 26.45c1.5515949.7307697 3.3484051.7307697 4.9 0 .490313-.2495756.6869243-.8483464.44-1.34-.2459531-.4940809-.8456857-.6954836-1.34-.45-.9908032.436097-2.1191968.436097-3.11 0-.4909683-.2255152-1.0722858-.0202733-1.3128266.4635108-.2405407.4837842-.0533137 1.0711515.4228266 1.3264892z"/><path id="Shape" d="m28.55 30.45c1.5515949.7307697 3.3484051.7307697 4.9 0 .490313-.2495756.6869243-.8483464.44-1.34-.2459531-.4940809-.8456857-.6954836-1.34-.45-.9908032.436097-2.1191968.436097-3.11 0-.4909683-.2255152-1.0722858-.0202733-1.3128266.4635108-.2405407.4837842-.0533137 1.0711515.4228266 1.3264892z"/><path id="Shape" d="m28.55 34.45c1.5515949.7307697 3.3484051.7307697 4.9 0 .490313-.2495756.6869243-.8483464.44-1.34-.2459531-.4940809-.8456857-.6954836-1.34-.45-.9908032.436097-2.1191968.436097-3.11 0-.4909683-.2255152-1.0722858-.0202733-1.3128266.4635108-.2405407.4837842-.0533137 1.0711515.4228266 1.3264892z"/><path id="Shape" d="m33.89 37.11c-.2459531-.4940809-.8456857-.6954836-1.34-.45-.9908032.436097-2.1191968.436097-3.11 0-.4909683-.2255152-1.0722858-.0202733-1.3128266.4635108-.2405407.4837842-.0533137 1.0711515.4228266 1.3264892 1.5515949.7307697 3.3484051.7307697 4.9 0 .490313-.2495756.6869243-.8483464.44-1.34z"/><path id="Shape" d="m17.14 61h.86c3.6948969.0016878 7.1845595-1.6988771 9.46-4.61 2 6 5 6.29 7.08 0 2.2869242 2.8968986 5.7692299 4.5938785 9.46 4.61h.86c10.41 0 15.84-5.7 16.14-17 .37-13.79-12-22.92-20.19-27.45 1.100203-1.4556187 1.4690398-3.3366866 1-5.1-.0972997-.3547608-.3815183-.6274571-.74-.71-1.500688-.3541234-2.880814-1.0993914-4-2.16.1-1.33.74-5.61 5-5.61 4.62 0 3.71 4 2 4-.5522847 0-1 .44771525-1 1s.4477153 1 1 1c4.32 0 5.33-8-2-8-4.42 0-6.24 3.33-6.8 6.09h-.27c-1.6353856.27654637-3.0833424 1.21771831-4 2.6-.9166576-1.38228169-2.3646144-2.32345363-4-2.6h-.2c-.56-2.73-2.38-6.06-6.8-6.06-7.32 0-6.33 8-2 8 .5522847 0 1-.44771525 1-1s-.4477153-1-1-1c-1.71 0-2.63-4 2-4 4.24 0 4.88 4.28 5 5.61-1.1254283 1.05404514-2.5027912 1.8012645-4 2.17-.355928.0808045-.6395616.3491065-.74.7-.4690398 1.7633134-.100203 3.6443813 1 5.1-8.26 4.53-20.62 13.66-20.26 27.42.29 11.3 5.72 17 16.14 17zm13.86-2c-2.78-.8-6.3-26.83-4.61-40 1.8728484-.1261841 3.5787156-1.1215817 4.61-2.69 1.0271105 1.563054 2.7243631 2.5577402 4.59 2.69 1.71 13.31-1.87 39.21-4.59 40zm28-15c-.4 15.2-10.65 15.05-14.52 15h-.48c-3.52 0-6.46-1.69-8.75-5 2.16-8.58 3.47-26.33 2.34-35.22.596998-.1714736 1.1637497-.4346083 1.68-.78 7.73 4.21 20.07 12.92 19.73 26zm-26.67-32.6c.4606468-1.0548644 1.3533937-1.86015857 2.45-2.21 1.3898546 1.5902612 3.198601 2.7579768 5.22 3.37.1781055 1.6673261-.7026312 3.2687677-2.2060748 4.0113007s-3.3104398.4685309-4.5261751-.686322c-1.2157354-1.154853-1.582131-2.9454022-.9177501-4.4849787zm-10.33 1.16c2.006203-.6324006 3.8033284-1.7970762 5.2-3.37 2.0040696.64418132 3.1659186 2.7313911 2.6575312 4.774136s-2.5130163 3.3418987-4.5852464 2.9715924c-2.0722302-.3703062-3.502844-2.2833357-3.2722848-4.3757284zm.73 5.44c.5211986.3358174 1.0912993.5888207 1.69.75-1.13 8.88.18 26.65 2.34 35.22-2.3 3.31-5.24 5-8.76 5h-.49c-3.87.06-14.12.2-14.51-15-.34-13.05 12-21.76 19.73-25.97z"/><path id="Shape" d="m15 55c3.8659932 0 7-3.1340068 7-7s-3.1340068-7-7-7-7 3.1340068-7 7c0 1.8565154.73749788 3.6369928 2.0502525 4.9497475 1.3127547 1.3127546 3.0932321 2.0502525 4.9497475 2.0502525zm0-12c2.7614237 0 5 2.2385763 5 5s-2.2385763 5-5 5-5-2.2385763-5-5 2.2385763-5 5-5z"/><path id="Shape" d="m47 55c3.8659932 0 7-3.1340068 7-7s-3.1340068-7-7-7-7 3.1340068-7 7c0 1.8565154.7374979 3.6369928 2.0502525 4.9497475 1.3127547 1.3127546 3.0932321 2.0502525 4.9497475 2.0502525zm0-12c2.7614237 0 5 2.2385763 5 5s-2.2385763 5-5 5-5-2.2385763-5-5 2.2385763-5 5-5z"/></g></g></svg>