<svg height="512" viewBox="0 0 60 60" width="512" xmlns="http://www.w3.org/2000/svg"><g id="008---Dragonfly" fill="none"><g id="Icons" transform="translate(0 3)"><path id="Shape" d="m34.56 21.4c0 .1-4.56 2.36-4.56 4.46 0-2.12-4.56-4.36-4.56-4.46.1739996-1.2788427.4583949-2.5402195.85-3.77h7.42c.3916051 1.2297805.6760004 2.4911573.85 3.77z" fill="#ffdc00"/><path id="Shape" d="m35 32c-.33 11.08-2.42 24-5 24-.52 0-1-.55-1.5-1.53-1.82-3.74-3.19-13.67-3.45-22.47 1.39-.93 4.57-3.26 5-5 .26 1.36 2.22 3.22 4.95 5z" fill="#fec108"/><path id="Shape" d="m32 32c-.17 5.6-1.12 17.64-3.45 22.45-.540571-1.2234519-.9625044-2.4959494-1.26-3.8-1.3221647-6.1339585-2.0720487-12.3774122-2.24-18.65 1.4685791-.9561091 2.8122686-2.0915268 4-3.38z" fill="#ffdc00"/><path id="Shape" d="m25.05 32c-2.4730687 1.6536027-5.1063494 3.0539988-7.86 4.18-6.81 2.77-11 2.3-11.89 0s1.7-5.49 8.52-8.26c1-.43 1.24-.46 1.27-.49 7.09 1.3 14.28 1.06 14.87-1.26.72 1.83-3.3 4.77-4.91 5.83z" fill="#02a9f4"/><path id="Shape" d="m54.7 36.21c-2.7 6.73-26.32-5.89-24.7-10.04.31 1.21 2.43 1.86 5.41 2 3.1714265.1031822 6.3444512-.148379 9.46-.75 0 0 1.23.47 1.27.49 6.86 2.78 9.49 6.02 8.56 8.3z" fill="#0377bc"/><path id="Shape" d="m51.7 36.21c-.5003276 1.0225919-1.5048472 1.7036866-2.64 1.79-7.35-1-19.84-8.53-19.06-11.58h.17c.52 1 2.54 1.61 5.3 1.75 2.4573898.0890928 4.9177647-.0481526 7.35-.41 3.62 1.41 10.31 4.94 8.88 8.45z" fill="#02a9f4"/><path id="Shape" d="m39 12c0 5.09-5.46 6.35-10.5 5.94-10.62-.75-6.84-9.13-6.84-9.23 16.61-7.92 2.33-1.14 8.39-4l8.29 4c.4071268 1.0506786.6303855 2.1635894.66 3.29z" fill="#283593"/><path id="Shape" d="m36 12c0 4-3.24 5.64-7.5 5.94-10.65-.75-6.84-9.13-6.84-9.23l6.88-3.28 6.8 3.28c.4071268 1.0506786.6303855 2.1635894.66 3.29z" fill="#3f51b5"/><circle id="Oval" cx="25" cy="5" fill="#f5f5f5" r="5"/><path id="Shape" d="m40 5c.0095192 1.94115487-1.1053548 3.71238838-2.8597077 4.54330278-1.7543529.83091442-3.831087.57132262-5.326927-.66586588-1.4958401-1.23718851-2.1404143-3.22835305-1.6533653-5.1074369.6303402-2.43191563 2.9673556-4.01848011 5.4602338-3.70687033 2.4928782.31160977 4.3674465 2.42462221 4.3797662 4.93687033z" fill="#cfd8dc"/><path id="Shape" d="m37 5c.0045063 2.18739016-1.4133569 4.1237862-3.5 4.78-2.0915959-.649612-3.516971-2.58484725-3.516971-4.775s1.4253751-4.12538799 3.516971-4.775c2.0831174.6551101 3.5001328 2.58629965 3.5 4.77z" fill="#f5f5f5"/><path id="Shape" d="m34.65 37.54c-.15 2-.36 4-.6 5.86-.9711995-.2111848-1.9576313-.3449382-2.95-.4.24-1.92.44-3.93.59-6 1.0008102.0912644 1.9914346.2719864 2.96.54z" fill="#f57c00"/><path id="Shape" d="m31.69 37.07c-.15 2-.35 4-.59 6-1.7071144-.1057164-3.4207448.0051655-5.1.33-.24-1.88-.45-3.86-.6-5.86 2.0586083-.4883817 4.1816716-.6470207 6.29-.47z" fill="#ff9801"/><path id="Shape" d="m33.09 49.22c-.93 4.45-2.63 9.34-4.59 5.25.7480865-1.7559535 1.2949042-3.5909798 1.63-5.47.9907321.0005014 1.9800795.074034 2.96.22z" fill="#f57c00"/><path id="Shape" d="m30.13 49c-.3350958 1.8790202-.8819135 3.7140465-1.63 5.47-.7173066-1.6877106-1.2503927-3.4479004-1.59-5.25 1.0659236-.1574731 2.1425637-.2310323 3.22-.22z" fill="#ff9801"/><path id="Shape" d="m30 26.17c-1.28 4.83-30.91.53-28.92-7.33s30.11 2.5 28.92 7.33z" fill="#00bcd4"/><path id="Shape" d="m48.2 26.72c-4.161167 1.0786081-8.4527219 1.5700332-12.75 1.46-3-.15-5.1-.8-5.41-2-1.24-4.89 26.9-15.18 28.88-7.34.68 2.68-2.75 5.85-10.72 7.88z" fill="#00838f"/><path id="Shape" d="m45.2 26.72c-3.1934754.8091222-6.4595919 1.2982022-9.75 1.46-3-.15-5.1-.8-5.41-2-.87-3.42 12.76-9.47 21.21-10.1 2.71.25 4.29 1.27 4.67 2.77.68 2.67-2.75 5.84-10.72 7.87z" fill="#00bcd4"/></g><g id="Layer_10" fill="#000" transform="translate(0 -1)"><path id="Shape" d="m11.55 31.69h.21c-5.81 2.72-8.56 6-7.39 8.85.78 1.9 2.89 2.52 4.94 2.52 4.63 0 10.82-2.86 14.82-5.32.05.92.13 2.16.24 3.58-.0351328.1377959-.0351328.2822041 0 .42.08.32.13 1.9.59 5.62-.0050196.0665722-.0050196.1334278 0 .2v.08c.45 3.23 1.82 13.36 5.04 13.36 1.85 0 3.14-3.31 4-7.51 0 0 0-.07 0-.12.18-1.16.44-1.95.91-5.67.13-.4.59-5.77.63-5.91.0351328-.1377959.0351328-.2822041 0-.42.11-1.42.19-2.66.24-3.58 4 2.45 10.18 5.32 14.82 5.32 2.06 0 4.17-.63 4.94-2.52 1.17-2.88-1.58-6.13-7.39-8.85h.2c9.65-2.47 12.25-6.34 11.54-9.15-.26-1-1.22-2.83-4.66-3.41-5.7-.95-14.76 2-19.92 4.67-.11-.54-.22-1.05-.35-1.53 4.58-1.45 5.91-5.09 4.53-9.35 2.1830056-2.4702258 1.9642026-6.23899603-.49-8.44 1.0545477-1.05645498 2.5096052-1.61301445 4-1.53 3.79 0 4 1.82 4 2 0 .55228475.4477153 1 1 1s1-.44771525 1-1c0 0-.07-4-6-4-2.1813783-.1073376-4.289625.8009438-5.71 2.46-2.6506715-1.09428857-5.7051456-.15992956-7.29 2.23-1.5848544-2.38992956-4.6393285-3.32428857-7.29-2.23-1.420375-1.6590562-3.5286217-2.5673376-5.71-2.46-5.93 0-6 4-6 4 0 .55228475.4477153 1 1 1s1-.44771525 1-1c0-.2.21-2 4-2 1.4903948-.08301445 2.9454523.47354502 4 1.53-2.4708305 2.20668796-2.6857029 5.9982901-.48 8.47-1.41 4.31 0 7.92 4.52 9.35-.13.48-.24 1-.35 1.53-5.16-2.64-14.23-5.62-19.92-4.67-3.45.58-4.4 2.39-4.66 3.41-.71 2.78 1.89 6.65 11.44 9.07zm5.26 7.58c-12.36 5-15-1.34-2.61-6.43l1-.38c3.6.63 8.78 1.14 12.32.35-3.1812899 2.7403301-6.8021009 4.9243114-10.71 6.46zm9.6 3.06c2.3731054-.4400551 4.8068946-.4400551 7.18 0-.11 1.36-.24 2.67-.39 3.9-2.1227883-.2999742-4.2772117-.2999742-6.4 0-.15-1.23-.28-2.54-.39-3.9zm.65 5.88c1.9499951-.2800684 3.9300049-.2800684 5.88 0-.2 1.43-.42 2.74-.65 3.92-1.5229811-.1500217-3.0570189-.1500217-4.58 0-.23-1.13-.45-2.49-.65-3.92zm-.8-7.89c-.08-1.23-.14-2.49-.19-3.79 1.4692-.986364 2.7921882-2.1746968 3.93-3.53 1.1354053 1.3453676 2.4551 2.5236664 3.92 3.5 0 1.3-.11 2.56-.19 3.79-2.4732617-.4188693-5.0001824-.4087211-7.47.03zm3.74 18.68c-.54-.38-1.22-2.12-1.87-4.88 1.2442391-.1100238 2.4957609-.1100238 3.74 0-.65 2.73-1.33 4.47-1.87 4.88zm20.93-17.9c-5.31.17-14.69-4.69-18.44-8.29 3.55.79 8.73.28 12.32-.35 10.01 3.81 11.19 8.54 6.12 8.64zm-4.93-19.1c14.69-3.73 16.62 4 2 7.75-3.7898621.9726584-7.6873143 1.4631998-11.6 1.46-3.71-.06-5.27-.82-5.39-1.28-.17-.68 1.32-2.11 4-3.66 3.4588261-1.9021287 7.1542691-3.3379378 10.99-4.27zm-11-17c2.209139 0 4 1.790861 4 4s-1.790861 4-4 4-4-1.790861-4-4 1.790861-4 4-4zm-10 0c2.209139 0 4 1.790861 4 4s-1.790861 4-4 4-4-1.790861-4-4 1.790861-4 4-4zm-2.78 9.31c2.7228767 1.4237855 6.0813424.5604267 7.78-2 1.6994222 2.5659072 5.0646953 3.4299054 7.79 2 .82 3.5-.77 5.59-4.31 6.36-2.3125552.4403736-4.6874448.4403736-7 0-3.56-.78-5.08-2.91-4.26-6.36zm4.78 8.46c1.9881469.3079367 4.0118531.3079367 6 0 .1733333.6666667.3233333 1.3666667.45 2.1-1.2874027.7255272-2.4518174 1.6503088-3.45 2.74-1.0012085-1.0905272-2.1690505-2.0153501-3.46-2.74.1333333-.76.2866667-1.46.46-2.1zm-19.83-1.77c5.35 0 13 2.58 17.78 5.27 2.72 1.55 4.21 3 4 3.66-.12.46-1.69 1.22-5.39 1.28-3.8956287-.0061204-7.7753846-.4965484-11.55-1.46-12.16-3.1-12.58-8.75-4.84-8.75z"/><circle id="Oval" cx="26" cy="9" r="1"/><circle id="Oval" cx="34" cy="9" r="1"/></g></g></svg>