<svg height="512" viewBox="0 0 60 57" width="512" xmlns="http://www.w3.org/2000/svg"><g id="010---Fly" fill="none"><g id="Icons" transform="translate(1 1)"><path id="Shape" d="m36.87 5c-3.94 4.62-6.65 11.93-7.25 18-.28 0-1 0-1.24 0-.6-6.1-3.3-13.41-7.25-18 3.98-6.65 11.75-6.67 15.74 0z" fill="#3f51b5"/><path id="Shape" d="m12.28 31.18c-3.73076301-2.8603885-6.88058054-6.4073274-9.28-10.45-5.34-9.06-3-15.66 2.74-19.01s12.69-2.07 17.93 6.87c2.5477676 4.426757 4.1514248 9.3330628 4.71 14.41z" fill="#02a9f4"/><path id="Shape" d="m55 20.73c-2.4082786 4.0453528-5.5684435 7.5924767-9.31 10.45l-16.07-8.18c.88-8.85 6.38-21.59 15.22-22.89 2.5848552-.33188094 5.2051429.23667206 7.42 1.61 5.74 3.35 8.08 9.95 2.74 19.01z" fill="#0377bc"/><path id="Shape" d="m52 20.73c-2.1525792 3.612881-4.9053486 6.8323362-8.14 9.52l-14.24-7.25c.87-8.76 6.32-21.59 15.22-22.9 1.5623171.25068269 3.0624662.79711711 4.42 1.61 5.74 3.36 8.08 9.96 2.74 19.02z" fill="#02a9f4"/><path id="Shape" d="m47 36c0 6.55-6.71 12-15.44 12.87h-5.12c-8.73-.87-15.44-6.32-15.44-12.87 0-6.82 7.26-12.4 16.5-12.95.49 0 1-.05 1.5-.05 9.94 0 18 5.82 18 13z" fill="#283593"/><path id="Shape" d="m44 36c0 6.55-6.71 12-15.44 12.87h-2.12c-8.73-.87-15.44-6.32-15.44-12.87 0-6.82 7.26-12.4 16.5-12.95 9.24.55 16.5 6.13 16.5 12.95z" fill="#3f51b5"/><circle id="Oval" cx="23" cy="35" fill="#f5f5f5" r="6"/><circle id="Oval" cx="35" cy="35" fill="#f5f5f5" r="6"/><path id="Shape" d="m31.13 46.86c.2 1.53.68 3.54 1.87 4.14 2 1 0 2-4 2s-6-1-4-2c1.19-.6 1.67-2.61 1.87-4.14.1461994-1.0643593 1.0556467-1.8574252 2.13-1.8574252s1.9838006.7930659 2.13 1.8574252z" fill="#3f51b5"/><g fill="#607d8b"><circle id="Oval" cx="23" cy="35" r="2"/><circle id="Oval" cx="35" cy="35" r="2"/></g></g><g id="Layer_10" fill="#000" transform="translate(0 -1)"><path id="Shape" d="m12 33.47c-1.5517917 3.1989654-1.3671056 6.9680705.49 10l-5.19 2.3c-.68460611.3139858-1.22936546.8694267-1.53 1.56l-2.43 5.67h-1.34c-.55228475 0-1 .4477153-1 1s.44771525 1 1 1h2c.4012802-.000327.7635008-.2404951.92-.61l2.69-6.27c.10451571-.2330712.28896172-.4210642.52-.53l5.54-2.47c.8078771.9966203 1.7386007 1.8870237 2.77 2.65-2.63 2.1-3.18 2.34-3.58 3.47l-1.58 4.76h-1.28c-.55228475 0-1 .4477153-1 1s.44771525 1 1 1h2c.4299159.0011098.8124279-.2726883.95-.68 1.93-5.78 1.8-5.64 2.13-5.91l3.09-2.47c2.417129 1.3918048 5.072452 2.3209983 7.83 2.74-.1121706.1748373-.2626306.3218778-.44.43-1.38.68-1.4 1.54-1.3 2 .36 1.56 3.32 1.89 5.74 1.89s5.38-.33 5.75-1.9c.1-.45.08-1.31-1.3-2-.1773694-.1081222-.3278294-.2551627-.44-.43 2.7540989-.4202036 5.405926-1.3493604 7.82-2.74l3.09 2.47c.32.26.19.08 2.13 5.91.1340978.411264.5174261.6896813.95.69h2c.5522847 0 1-.4477153 1-1s-.4477153-1-1-1h-1.28l-1.59-4.77c-.39-1.12-1-1.38-3.57-3.46 1.0313993-.7629763 1.9621229-1.6533797 2.77-2.65 6.07 2.71 5.85 2.5 6.06 3l2.69 6.28c.1595531.3655887.5211135.601389.92.6h2c.5522847 0 1-.4477153 1-1s-.4477153-1-1-1h-1.34l-2.43-5.68c-.3050951-.6885773-.8534118-1.2404545-1.54-1.55l-5.22-2.33c1.8571056-3.0319295 2.0417917-6.8010346.49-10 6.41-5.09 13.41-14.55 11.8-22.58-.7331902-3.416087-2.9258497-6.33963309-6-8-5.44-3.2-11.13-2.27-15.76 2.51-4.34-5.83-11.66-5.83-16 0-4.63-4.78-10.32-5.71-15.76-2.51-3.0759571 1.65826931-5.26932945 4.58276578-6 8-1.61 8.06 5.39 17.52 11.76 22.61zm21.3 16.29c-.1922549-.9076194-.2927604-1.8322703-.3-2.76 0-.5522847-.4477153-1-1-1s-1 .4477153-1 1c0 .89.11 5.22 2.21 6.69-2.1193843.4200834-4.3006157.4200834-6.42 0 2.1-1.47 2.21-5.8 2.21-6.69 0-.5522847-.4477153-1-1-1s-1 .4477153-1 1c-.0072396.9277297-.1077451 1.8523806-.3 2.76-7.87-1.1-13.7-6.05-13.7-11.76 0-6.62 7.63-12 17-12s17 5.38 17 12c0 5.71-5.83 10.66-13.7 11.76zm19.45-45.18c10.44 6.11 3.53 19.59-5.8 27.13-.792563-1.1258379-1.7383493-2.1355742-2.81-3l3.5-2.91c.4252593-.3534622.4834622-.9847407.13-1.41s-.9847407-.4834622-1.41-.13l-3.88 3.24c-.48-.31-1-.59-1.48-.86l7.86-13.1c.2245083-.3087061.2536931-.7182934.0752238-1.0557132-.1784692-.3374198-.5334581-.5438087-.9149856-.5319684-.3815274.0118404-.7230353.2398445-.8802382.5876816l-8 13.26c-.53-.21-1.07-.41-1.62-.59l1.48-4.93c.1000344-.3572656.001871-.7407603-.2575129-1.0060254s-.6405817-.3720005-1-.28c-.3594182.0920005-.6424527.3687598-.7424871.7260254l-1.41 4.91c-1.2760369-.2914165-2.5736372-.4786991-3.88-.56 1.66-11.99 10.19-25.85 21.04-19.49zm-16.12 2.34c-3.3952078 4.5376873-5.667236 9.8150982-6.63 15.4-.9612967-5.5853374-3.2334673-10.8630792-6.63-15.4 3.63-5.23 9.63-5.22 13.26 0zm-29.38-2.34c10.75-6.31 19.35 7.33 21 19.49-1.3063628.0813009-2.6039631.2685835-3.88.56l-1.37-4.91c-.1546397-.5301934-.7098066-.8346397-1.24-.68s-.8346397.7098066-.68 1.24l1.4 4.88c-.55.18-1.09.38-1.62.59l-8-13.26c-.3016091-.4147221-.8680449-.5340875-1.311363-.2763444-.4433182.2577431-.6198266.8090528-.408637 1.2763444l7.86 13.12c-.51.27-1 .55-1.48.86l-3.88-3.24c-.4252593-.3534622-1.0565378-.2952593-1.41.13s-.2952593 1.0565378.13 1.41l3.5 2.91c-1.0716507.8644258-2.017437 1.8741621-2.81 3-9.35-7.53-16.23-20.99-5.8-27.1z"/><path id="Shape" d="m36 30c-2.4602832.0032762-4.7382273 1.2979078-6 3.41-1.6149109-2.703207-4.8360137-3.9954217-7.8714101-3.1577857s-5.1379077 3.5989343-5.1379077 6.7477857 2.1025113 5.9101497 5.1379077 6.7477857 6.2564992-.4545787 7.8714101-3.1577857c1.7360746 2.9060166 5.3028775 4.1533674 8.4716344 2.9626252s5.031429-4.4783583 4.4240955-7.8085285c-.6073335-3.3301701-3.5106351-5.7486008-6.8957299-5.7440967zm-12 12c-2.0223112 0-3.8454927-1.2182109-4.6193977-3.0865828-.773905-1.868372-.3461262-4.0189611 1.0838638-5.4489511s3.5805791-1.8577688 5.4489511-1.0838638c1.8683719.773905 3.0865828 2.5970865 3.0865828 4.6193977 0 2.7614237-2.2385763 5-5 5zm12 0c-2.7614237 0-5-2.2385763-5-5s2.2385763-5 5-5 5 2.2385763 5 5-2.2385763 5-5 5z"/><path id="Shape" d="m24 34c-1.6568542 0-3 1.3431458-3 3s1.3431458 3 3 3 3-1.3431458 3-3-1.3431458-3-3-3zm0 4c-.5522847 0-1-.4477153-1-1s.4477153-1 1-1 1 .4477153 1 1-.4477153 1-1 1z"/><path id="Shape" d="m36 34c-1.6568542 0-3 1.3431458-3 3s1.3431458 3 3 3 3-1.3431458 3-3-1.3431458-3-3-3zm0 4c-.5522847 0-1-.4477153-1-1s.4477153-1 1-1 1 .4477153 1 1-.4477153 1-1 1z"/></g></g></svg>