<svg height="512" viewBox="0 0 61 60" width="512" xmlns="http://www.w3.org/2000/svg"><g id="012---Beelte" fill="none"><g id="Icons" transform="translate(10 1)"><path id="Shape" d="m30.16 20h-20.32c-4.63-.15-4-7.49-2.84-12 1.24-4.95 7-8 7-8s-2 2-2 7c-.0088603.76935064.1303346 1.53322514.41 2.25h15.18c1-2.57 0-7.67-1.59-9.24 0 0 5.76 3.05 7 8 1.12 4.48 1.8 11.83-2.84 11.99z" fill="#3f51b5"/><path id="Shape" d="m30.16 20h-3c4.63-.15 4-7.49 2.84-12-.4363923-1.56511922-1.2267459-3.00896867-2.31-4.22-.2280955-1.38460782-.8102632-2.68673445-1.69-3.78.29.15 5.78 3.17 7 8 1.12 4.49 1.8 11.84-2.84 12z" fill="#283593"/><path id="Shape" d="m40 35c0 11.68-9.91 24.1-21.5 22.92-10.35-1.01-18.5-12.38-18.5-22.92s8.15-16.44 18.5-17c11.36-.65 21.5 5.3 21.5 17z" fill="#549414"/><path id="Shape" d="m37 35c0 10.54-8.15 21.91-18.5 22.92-10.35-1.01-18.5-12.38-18.5-22.92s8.15-16.44 18.5-17c10.35.56 18.5 6.46 18.5 17z" fill="#60a917"/><g fill="#f5f5f5"><path id="Shape" d="m20 11c0 2.209139-1.790861 4-4 4s-4-1.790861-4-4 1.790861-4 4-4 4 1.790861 4 4z"/><path id="Shape" d="m28 11c0 2.209139-1.790861 4-4 4s-4-1.790861-4-4 1.790861-4 4-4 4 1.790861 4 4z"/></g></g><g id="Layer_10" fill="#000" transform="translate(0 -1)"><path id="Shape" d="m.11 25.45c.24957563.490313.84834645.6869243 1.34.44l3.79-1.89h4.65l3.94.88c-.6255545.6170894-1.1976074 1.2861571-1.71 2-2.47.9-1.07.16-6 3.31l-4.21.43c-.26949107.0225919-.51834194.1533701-.68979759.3625083s-.25089571.4788028-.22020241.7474917c.05781605.5453664.54408797.9424141 1.09.89l2.46-.25-1.26 2.12c-.18324549.3090648-.18659574.6926808-.00877613 1.004899.17781961.3122181.50947127.5050383.86877613.505101.34949489-.0035669.67176653-.189347.85-.49l2.18-3.63 3.27-2.08c-5.35 12.2 4.87 31.2 19.55 31.2s24.91-19 19.55-31.2l3.27 2.08 2.18 3.63c.1782335.300653.5005051.4864331.85.49.3593049-.0000627.6909565-.1928829.8687761-.505101.1778196-.3122182.1744694-.6958342-.0087761-1.004899l-1.27-2.12 2.46.25c.2639182.0279908.5281387-.0500791.7344619-.2170134.2063232-.1669342.3378245-.4090391.3655381-.6729866.0279908-.2639182-.0500791-.5281387-.2170134-.7344619-.1669342-.2063232-.4090391-.3378245-.6729866-.3655381l-4.21-.43c-5-3.16-3.54-2.41-6-3.31-.5123926-.7138429-1.0844455-1.3829106-1.71-2l3.92-.89h4.65l3.79 1.89c.3211808.1932607.7234705.1906728 1.0421383-.0067041.3186678-.1973768.5001928-.5563928.4702434-.9300368s-.2663431-.6991617-.6123817-.8432591l-2.21-1.11 2.21-1.11c.3460386-.1440974.5824323-.4696151.6123817-.8432591s-.1515756-.73266-.4702434-.9300368c-.3186678-.1973769-.7209575-.1999648-1.0421383-.0067041l-3.79 1.89c-5.27 0-4.83 0-5 0l-5.5 1.23c-.21-.16-.42-.33-.64-.48l5-5 2.91-2c.4021248-.3239123.4915129-.9007244.206288-1.3311547s-.8512619-.5729246-1.306288-.3288453l-1.45 1v-2.09c0-.5522847-.4477153-1-1-1s-1 .4477153-1 1v3.59l-2.5 2.51c.83-3.33-.12-7.8-.51-9.34-1.33-5.32-7.25-8.51-7.5-8.64-.4352399-.23612324-.9777439-.11816633-1.2756431.27736372s-.261477.94951367.0856431 1.30263628c0 0 1.72 1.85 1.72 6.3-1.0540354-.81433721-2.3927282-1.1675254-3.7113081-.97915684s-2.5048323.9022632-3.2886919 1.97915684c-.7855882-1.07456199-1.9715811-1.78662069-3.2893047-1.97486693-1.3177237-.18824624-2.6556533.16325212-3.7106953.97486693 0-1.9.44-4.9 1.71-6.31.3219637-.35527051.3464653-.88906216.0584015-1.27233358-.2880639-.38327142-.8076198-.50815365-1.2384015-.29766642-.25.13-6.17 3.32-7.5 8.64-.39 1.54-1.34 6-.51 9.34l-2.52-2.51v-3.59c0-.5522847-.4477153-1-1-1s-1 .4477153-1 1v2.13l-1.45-1c-.45502613-.2440793-1.02106313-.101585-1.30628803.3288453s-.19583676 1.0072424.20628803 1.3311547l2.91 2 5 5c-.22.15-.43.32-.64.48l-5.5-1.27c-.17 0 0 0-5 0l-3.77-1.89c-.48352717-.2013504-1.04049627.0045141-1.2768341.4719378s-.07195864 1.0380149.3768341 1.3080622l2.21 1.11-2.21 1.11c-.49031299.2495756-.6869243.8483464-.44 1.34zm30.89 33.55v-31c0-.5522847-.4477153-1-1-1s-1 .4477153-1 1v31c-15.12-1-25.78-26.09-10.72-35.08.31-.14 3.72-2.66 10.72-2.92v3c0 .5522847.4477153 1 1 1s1-.4477153 1-1v-3c7.11.24 10.38 2.74 10.72 2.86 15 8.98 4.44 34.06-10.72 35.14zm3-49c1.6568542 0 3 1.3431458 3 3s-1.3431458 3-3 3-3-1.3431458-3-3 1.3431458-3 3-3zm-8 0c1.6568542 0 3 1.3431458 3 3s-1.3431458 3-3 3-3-1.3431458-3-3 1.3431458-3 3-3zm-8 .24c.6116405-2.05203369 1.8194573-3.87594161 3.47-5.24-.5651911 2.01586896-.6099187 4.14214653-.13 6.18-.9157452 2.3307407.0339536 4.9794557 2.2220508 6.1973112 2.1880972 1.2178554 4.9396603.6291962 6.4379492-1.3773112 1.2912912 1.7217216 3.5394281 2.4239867 5.5811388 1.7434165s3.4188612-2.5912645 3.4188612-4.7434165c-.0045319-.6122811-.1197175-1.2186995-.34-1.79.4802823-2.04792155.4355663-4.18397222-.13-6.21 1.6505427 1.36405839 2.8583595 3.18796631 3.47 5.24.85 3.41 1.8 10.38-1.7 10.73-6.6348856-2.6335773-14.0251144-2.6335773-20.66 0-3.47-.35-2.52-7.31-1.64-10.73z"/><circle id="Oval" cx="26" cy="12" r="1"/><circle id="Oval" cx="34" cy="12" r="1"/></g></g></svg>