<svg height="512" viewBox="0 0 60 61" width="512" xmlns="http://www.w3.org/2000/svg"><g id="014---Beetle" fill="none"><g id="Icons" transform="translate(11 1)"><path id="Shape" d="m28 8 .0000012 4h-18.00000244l.00000124-4c-.00083446-1.06118518.4200457-2.07921158 1.17-2.83h15.66c.7499543.75078842 1.1708345 1.76881482 1.17 2.83z" fill="#283593"/><path id="Shape" d="m25 8 .0000012 4h-15.00000244l.00000124-4c-.00083446-1.06118518.4200457-2.07921158 1.17-2.83h12.66c.7499543.75078842 1.1708345 1.76881482 1.17 2.83z" fill="#3f51b5"/><path id="Shape" d="m19 4c.004123 2.13473642-1.66881 3.89651772-3.8009047 4.00276796-2.1320946.10625023-3.9718964-1.48047839-4.1800305-3.60504817-.2081341-2.12456979 1.2887561-4.03817845 3.4009352-4.34771979 1.1484755-.16830989 2.3134254.17056482 3.19242.92864968.8789946.75808485 1.3853382 1.86060956 1.38758 3.02135032z" fill="#f5f5f5"/><path id="Shape" d="m27 4c.0010466 1.97292178-1.4365716 3.65195204-3.3861212 3.9547355-1.9495496.30278347-3.8287025-.8611209-4.4260981-2.74142405s.2654074-3.91536086 2.0322193-4.79331145c1.239569-.61595713 2.7094888-.54728308 3.8862291.18156304 1.1767404.72884611 1.8930366 2.01426428 1.8937709 3.39843696z" fill="#f5f5f5"/><path id="Shape" d="m37 19v21.42c0 4.63-2.28 8.85-5.86 10.84l-11.65 6.47c-.57.31-1 0-1.49-.28l-11.14-6.19c-3.58-2-5.86-6.21-5.86-10.84v-21.42c-.14388257-2.0472919 1.3847181-3.8299166 3.43-4h29.14c2.0452819.1700834 3.5738826 1.9527081 3.43 4z" fill="#bb193b"/><path id="Shape" d="m34 19v21.42c0 4.63-2.28 8.85-5.86 10.84l-10.64 5.91-10.64-5.91c-3.58-2-5.86-6.21-5.86-10.84v-21.42c-.14388257-2.0472919 1.3847181-3.8299166 3.43-4h26.14c2.0452819.1700834 3.5738826 1.9527081 3.43 4z" fill="#ef314c"/><path id="Shape" d="m31 14.07v3c-.0296003 1.3989265-.7880422 2.6806933-2 3.38l-8.57 5.17c-.854496.4909731-1.905504.4909731-2.76 0-.19-.11.74.42-8.57-5.17-1.24750519-.6720676-2.04633369-1.9539972-2.1-3.37v-3c.09065206-1.2359722 1.16369118-2.1659394 2.4-2.08h19.2c1.2326915-.0861029 2.3041479.8380282 2.4 2.07z" fill="#0377bc"/><path id="Shape" d="m28 14.07v3c-.0296003 1.3989265-.7880422 2.6806933-2 3.38l-8.45 5.1-8.45-5.1c-1.24750519-.6720676-2.04633369-1.9539972-2.1-3.37v-3c.09065206-1.2359722 1.16369118-2.1659394 2.4-2.08h16.2c1.2326915-.0861029 2.3041479.8380282 2.4 2.07z" fill="#02a9f4"/></g><g id="Layer_10" fill="#000" transform="translate(-1)"><circle id="Oval" cx="28" cy="5" r="1"/><circle id="Oval" cx="34" cy="5" r="1"/><path id="Shape" d="m2.71 45.71 1.29-1.3v1.59c0 .5522847.44771525 1 1 1s1-.4477153 1-1v-3.82l2.81-7.5 3.19-1.91v8.46c-3.24 5.24-3.12 4.89-3.06 5.36l1 8.27-1.25 3.84c-.14461623.3492422-.07994893.7501811.16713574 1.036246.24708468.2860648.63435416.4083605 1.00091666.3160789.3665625-.0922815.6497639-.3833672.7319476-.7523249l.56-1.74.73 1.44c.139871.3543202.468897.5984007.8485557.6294817.3796586.0310809.7440013-.1562365.939637-.4830903.1956357-.3268537.1885815-.7364677-.0181927-1.0563914l-1.75-3.4-.93-8 1.36-2.2c.6782442 3.6004871 2.8611564 6.7402425 6 8.63l12.14 6.74c.3094011.1786328.6905989.1786328 1 0l12.14-6.74c3.1388436-1.8897575 5.3217558-5.0295129 6-8.63l1.39 2.21-.93 8-1.75 3.4c-.2067742.3199237-.2138284.7295377-.0181927 1.0563914.1956357.3268538.5599784.5141712.939637.4830903.3796587-.031081.7086847-.2751615.8485557-.6294817l.73-1.41.56 1.74c.0821837.3689577.3653851.6600434.7319476.7523249.3665625.0922816.753832-.0300141 1.0009167-.3160789.2470846-.2860649.3117519-.6870038.1671357-1.036246l-1.22-3.84 1-8.27c.06-.47.15-.17-3.06-5.36v-8.5l3.19 1.91 2.81 7.5v3.82c0 .5522847.4477153 1 1 1s1-.4477153 1-1v-1.59l1.29 1.3c.3921222.3921222 1.0278778.3921222 1.42 0s.3921222-1.0278778 0-1.42l-2.85-2.84-2.92-7.8c-.17-.44.06-.22-4.94-3.22v-10.43c.0953783-2.293218-1.4265645-4.3405438-3.65-4.91 5.51-3.45 5.31-3.28 5.48-3.54l3.79-5.67 3.62-.88c.5522847-.13254834.8925483-.68771525.76-1.24s-.6877153-.89254834-1.24-.76l-2.76.72v-2.72c0-.55228475-.4477153-1-1-1s-1 .44771525-1 1v3.7l-3.71 5.57-6.42 4c-.4064902-1.2695784-1.5409309-2.1668539-2.87-2.27v-3c-.0081879-1.11975788-.3920229-2.20435587-1.09-3.08.4231285-2.2813669-.7788198-4.5540738-2.9026369-5.48845795-2.1238171-.93438416-4.6113966-.28490388-6.0073631 1.56845795-1.3945041-1.84229515-3.8697235-2.48914121-5.9872696-1.56464579s-3.3258429 3.17952088-2.9227304 5.45464579c-.7043414.88370374-1.0885541 1.97994381-1.09 3.11v3c-1.3212792.0984714-2.4535603.982203-2.87 2.24l-6.42-4-3.71-5.54v-3.7c0-.55228475-.44771525-1-1-1s-1 .44771525-1 1v2.72l-2.76-.72c-.55228475-.13254834-1.10745166.20771525-1.24.76s.20771525 1.10745166.76 1.24l3.62.91 3.79 5.67c.17.26-.1 0 5.48 3.54-2.2120705.5671186-3.7309381 2.5978238-3.65 4.88v10.43c-5 3-4.77 2.78-4.94 3.22l-2.92 7.8-2.85 2.84c-.39212214.3921222-.39212212 1.0278778.00000004 1.42.39212215.3921221 1.02787778.3921221 1.41999996 0zm32.29-43.71c1.6568542 0 3 1.34314575 3 3s-1.3431458 3-3 3-3-1.34314575-3-3 1.3431458-3 3-3zm-8 0c1.6568542 0 3 1.34314575 3 3s-1.3431458 3-3 3-3-1.34314575-3-3 1.3431458-3 3-3zm4 6c.9216547 1.22616124 2.3551344 1.96142113 3.8886984 1.99458981 1.5335641.03316869 2.9974935-.63942459 3.9713016-1.82458981.19.62.14.57.14 3.86h-16c0-2.86-.06-3.18.14-3.86.960597 1.20700785 2.4298854 1.8959993 3.9721246 1.8626429 1.5422392-.03335628 2.9803639-.78523066 3.8878754-2.0326429zm-11 7.06c0-.57.64-1.06 1.4-1.06h19.2c.76 0 1.4.49 1.4 1.06v3c-.0397988 1.0561494-.6324061 2.0134381-1.56 2.52l-8.58 5.17c-.5342905.2992292-1.1857095.2992292-1.72 0l-8.58-5.15c-.9275939-.5065619-1.5202012-1.4638506-1.56-2.52zm-6 4.94c-.1350444-1.4927402.941756-2.8221234 2.43-3h1.57v1.08c.0380191 1.7601951.9989873 3.3706714 2.53 4.24 9.26 5.57 8.8 5.36 9.47 5.54v3.14c0 .5522847.4477153 1 1 1s1-.4477153 1-1v-3.14c.69-.19.17.06 9.47-5.54 1.5310127-.8693286 2.4919809-2.4798049 2.53-4.24v-1.08h1.57c1.488244.1778766 2.5650444 1.5072598 2.43 3v21.42c0 4.25-2.1 8.16-5.35 10l-10.65 5.88v-22.3c0-.5522847-.4477153-1-1-1s-1 .4477153-1 1v22.3l-10.65-5.91c-3.25-1.81-5.35-5.72-5.35-9.97z"/></g></g></svg>