<svg height="512" viewBox="0 0 61 60" width="512" xmlns="http://www.w3.org/2000/svg"><g id="016---Caterpillar" fill="none"><g id="Icons" transform="translate(3 5)"><path id="Shape" d="m57 34c.0000957 1.8178957-.8240082 3.5378083-2.2408877 4.676754-1.4168796 1.1389457-3.2737298 1.5740936-5.0491123 1.183246-.6695009-2.3887862-2.4093516-4.3318041-4.71-5.26-.1656854-3.3137085 2.3862915-6.1343146 5.7-6.3s6.1343146 2.3862915 6.3 5.7z" fill="#007900"/><path id="Shape" d="m54 34c-.0044394 2.6629621-1.7635518 5.0043733-4.32 5.75-.6925738-2.3407768-2.4159779-4.2372578-4.68-5.15-.2912249-2.9435085 1.6061529-5.6601121 4.47-6.4 2.6576063.6715694 4.5221673 3.0588661 4.53 5.8z" fill="#008a00"/><path id="Shape" d="m50 42c-.0136056 2.4133849-1.1159914 4.6916488-3 6.2l-3.84 1.71c-.9404179.1383027-1.8975698.1146276-2.83-.07-.56-.12 0 .16-3.69-1.9l1.36-.78c3.4445934-3.3532468 4.0157851-8.6829695 1.36-12.69 2.4432458-.8541288 5.1487522-.4734541 7.2614436 1.0217119 2.1126913 1.4951659 3.3714915 3.9200578 3.3785564 6.5082881z" fill="#90ac00"/><path id="Shape" d="m44.05 48.2-3.67 1.64c-.56-.12 0 .16-3.69-1.9l1.31-.78c3.4445934-3.3532468 4.0157851-8.6829695 1.36-12.69.3826202-.1428376.7776378-.249961 1.18-.32 3.0425207.5988433 5.464935 2.9019815 6.2165086 5.9104167.7515735 3.0084353-.3030837 6.1802227-2.7065086 8.1395833z" fill="#a4c400"/><circle id="Oval" cx="46" cy="51" fill="#60a917" r="3"/><path id="Shape" d="m41 40c.0118542 2.6946444-1.070824 5.2786364-3 7.16l-3.81 2.33c-2.0052552.6503421-4.1647448.6503421-6.17 0-.53-.87-.19-.3-1.56-2.55l1-.56c4.4494464-4.2896093 4.7869632-11.3029448.77-16 3.0210389-.8709086 6.2757693-.2703099 8.7870055 1.621475 2.5112363 1.8917849 3.9865481 4.8544599 3.9829945 7.998525z" fill="#007900"/><path id="Shape" d="m35 47.16-3.82 2.33c-.5375721.1801935-1.0895893.3140158-1.65.4-.5189743-.0780217-1.0306854-.1984243-1.53-.36-.53-.87-.19-.3-1.56-2.55l1-.56c4.4494464-4.2896093 4.7869632-11.3029448.77-16 .4346108-.1330509.8794507-.2300461 1.33-.29 3.7410819.5803954 6.8336536 3.2236723 7.9894814 6.8287541 1.1558277 3.6050818.176715 7.5537842-2.5294814 10.2012459z" fill="#008a00"/><path id="Shape" d="m27.42 46.42-7.24 4.06c-2.7439528.6900123-5.6160472.6900123-8.36 0l-7.24-4.06c-2.43723402-2.3629806-3.73447149-5.6638829-3.55816388-9.0539718.17630762-3.3900888 1.80895923-6.5386171 4.47816388-8.6360282 1.32443711 1.4387322 2.95908992 2.5569989 4.78 3.27 1.3590274.5094348 2.7768838.8454197 4.22 1 1.556779.1451583 3.1263702.0643209 4.66-.24l2.56-.76c1.821007-.6898643 3.4596393-1.7879874 4.79-3.21 2.6505438 2.0970152 4.2697457 5.2338251 4.443966 8.6091033s-1.1134144 6.6621289-3.533966 9.0208967z" fill="#90ac00"/><path id="Shape" d="m24.42 46.42-7.24 4.06c-.8797609.2219099-1.7760081.3723992-2.68.45-.9039919-.0776008-1.8002391-.2280901-2.68-.45l-7.24-4.06c-5.14-5.23-4.67-13 .92-17.69 1.32443711 1.4387322 2.95908992 2.5569989 4.78 3.27 1.3590274.5094348 2.7768838.8454197 4.22 1 1.556779.1451583 3.1263702.0643209 4.66-.24l2.56-.76c1.1727966-.4680259 2.2762954-1.0937904 3.28-1.86 4.2367141 4.6921611 3.9798799 11.901231-.58 16.28z" fill="#a4c400"/><ellipse id="Oval" cx="8" cy="49" fill="#60a917" rx="4" ry="5"/><ellipse id="Oval" cx="24" cy="49" fill="#60a917" rx="4" ry="5"/><path id="Shape" d="m21.72 32-2.56.74c-1.5336298.3043209-3.103221.3851583-4.66.24-1.4431162-.1545803-2.8609726-.4905652-4.22-1-14.38-5.72-8.04-28.98 4.22-30.86 13.61-2.22 23.08 24.56 7.22 30.88z" fill="#549414"/><path id="Shape" d="m18.72 32c-4.56 1.32-4.12 1.25-8.44 0-14.38-5.74-8.04-29 4.22-30.88 12.17 1.88 18.7 25.1 4.22 30.88z" fill="#60a917"/><path id="Shape" d="m16 16c.0011384 1.7709393-.9345884 3.410363-2.46 4.31-1.6672997-.4199223-3.4127003-.4199223-5.08 0-2.08468868-1.2294813-2.98949693-3.7755565-2.14818507-6.0448616.84131186-2.269305 3.18717321-3.6102417 5.56951637-3.1836359 2.3823431.4266057 4.1171124 2.4982602 4.1186687 4.9184975z" fill="#f5f5f5"/><path id="Shape" d="m26 16c.0011384 1.7709393-.9345884 3.410363-2.46 4.31-1.6672997-.4199223-3.4127003-.4199223-5.08 0-2.0846887-1.2294813-2.9894969-3.7755565-2.1481851-6.0448616.8413119-2.269305 3.1871732-3.6102417 5.5695164-3.1836359 2.3823431.4266057 4.1171124 2.4982602 4.1186687 4.9184975z" fill="#f5f5f5"/><circle id="Oval" cx="2" cy="3" fill="#008a00" r="2"/><circle id="Oval" cx="30" cy="3" fill="#008a00" r="2"/><ellipse id="Oval" cx="37" cy="50.5" fill="#60a917" rx="3.5" ry="3" transform="matrix(.102 -.995 .995 .102 -17.002 82.169)"/></g><g id="Layer_10" fill="#000"><circle id="Oval" cx="15" cy="21" r="1"/><circle id="Oval" cx="23" cy="21" r="1"/><path id="Shape" d="m9.31 25.28c-.29311056.282509-.3857076.7145035-.23413819 1.0923287s.51704783.6260568.92413819.6276713c.61 0 .52-.37 1.72-.71 1.4879087-.3652828 3.0420913-.3652828 4.53 0 .2658217.0774721.5518664.0412639.79-.1.7902107-.4791638 1.4605806-1.1324325 1.96-1.91.5131928.7747974 1.1974402 1.4214111 2 1.89.2381336.1412639.5241783.1774721.79.1 1.9-.56 4.76-.2 5.59.47.4083084.3310902 1.0032538.2895246 1.3615573-.0951247.3583034-.3846494.357623-.9810446-.0015573-1.3648753-.0871779-.0808461-.1808235-.1544248-.28-.22 1.4117579-1.681814 1.7920488-4.0004749.9914825-6.0451392-.8005664-2.0446643-2.654099-3.4886956-4.8324716-3.7648325-2.1783726-.276137-4.3335886.6597335-5.6190109 2.4399717-1.2361231-1.9052869-3.4420778-2.9493207-5.6992027-2.6973177s-4.17850329 1.7568445-4.96398448 3.8878391c-.7854812 2.1309945-.30041789 4.5228466 1.25318718 6.1794786-.09917647.0655752-.19282213.1391539-.28.22zm14.69-8.28c1.731104-.0002293 3.2659084 1.1131291 3.8030783 2.7587808.5371698 1.6456517-.0452118 3.4500971-1.4430783 4.4712192-1.5580532-.3101016-3.1619468-.3101016-4.72 0-1.3978665-1.0211221-1.9802481-2.8255675-1.4430783-4.4712192.5371699-1.6456517 2.0719743-2.7590101 3.8030783-2.7587808zm-10 0c1.731104-.0002293 3.2659084 1.1131291 3.8030783 2.7587808.5371698 1.6456517-.0452118 3.4500971-1.4430783 4.4712192-1.5585558-.3049586-3.1614442-.3049586-4.72 0-1.3978665-1.0211221-1.98024812-2.8255675-1.4430783-4.4712192.5371699-1.6456517 2.0719743-2.7590101 3.8030783-2.7587808z"/><path id="Shape" d="m54 32c-3.591086-.0206655-6.6152939 2.6795201-7 6.25-1.4281872-.3556881-2.9218128-.3556881-4.35 0-2.6127983-3.4199889-6.9907035-4.9863235-11.18-4-.21-.23-.42-.46-.65-.67 5.74-7.27 3-19.26-3.6-25.2-.32-1.48-.6-3.86.48-5.22.8551924-.8859456 2.0785562-1.31597652 3.3-1.16 2 0 3.35.55 3.83 1.55.2700811.66010946.2700811 1.39989054 0 2.06-1.1419901-.85915401-2.7314853-.7934942-3.7987247.15691998s-1.3159137 2.5217089-.5943053 3.75522757c.7216084 1.23351865 2.2131516 1.78678615 3.56463 1.32225045 1.3514783-.4645357 2.1876661-1.81790042 1.9984-3.234398 1.0993214-1.42933139 1.3438691-3.33986023.64-5-.64-1.15-2.08-2.61-5.64-2.61-4.07 0-6.25 2.39-6 6.73-3.6681777-2.30416081-8.3318223-2.30416081-12 0 .27-4.39-2-6.73-6-6.73-5.91 0-7.31 4.35-5 7.69-.16104339 1.41413534.69372174 2.7467902 2.04617483 3.1901686s2.83029831-.1245705 3.53773169-1.35958137c.70743339-1.23501083.44971658-2.79711661-.61693398-3.73943839-1.06665055-.94232178-2.64861316-1.0054624-3.78697254-.15114884-.27500376-.66259889-.27500376-1.40740111 0-2.07.47-1.01 1.82-1.56 3.82-1.56 3 0 4.78 1.56 3.7 6.45-6.55 5.92-9.33 17.87-3.55 25.18-2.51144934 2.2733079-4.0044172 5.4602014-4.14356446 8.8448646-.13914726 3.3846631 1.08719117 6.6833503 3.40356446 9.1551354-1.41 3.93 1 8.37 4.59 8.37 2.0367289-.0986722 3.8094799-1.4242784 4.48-3.35 2.3102007.4646553 4.6897993.4646553 7 0 2 4.87 7.93 4.29 9.26-.88 1.3961111.2798815 2.8338889.2798815 4.23 0-.06219 2.2493657 1.6918859 4.1325487 3.94 4.23 2.1987188-.1134002 3.9604162-1.8621756 4.09-4.06.34 0 .68.06 1 .06.0058088 1.8375864 1.2628889 3.4348315 3.0476435 3.8723338 1.7847547.4375023 3.6380092-.397297 4.4929987-2.0238733s.4917457-3.6264503-.8806422-4.8484605c1.7345394-1.8945784 2.5625941-4.4480512 2.27-7 3.8659932.01933 7.01567-3.0990068 7.035-6.965s-3.0990068-7.01567-6.965-7.035zm-21-23c-.5522847 0-1-.44771525-1-1s.4477153-1 1-1 1 .44771525 1 1-.4477153 1-1 1zm-28-2c.55228475 0 1 .44771525 1 1s-.44771525 1-1 1-1-.44771525-1-1 .44771525-1 1-1zm14 0c2.4269512.04888424 4.758137.95585014 6.58 2.56.0704511.08679109.154956.16115535.25.22 7.06 6.16 9.11 19.9.54 25.22-.013618-1.6423165-.5533616-3.2370135-1.54-4.55-.1793781-.3344065-.5325821-.5384678-.9118826-.5268341-.3793006.0116337-.7193347.2369575-.8778815.5817287-.1585468.3447711-.1082846.749577.1297641 1.0451054 1.35 2 1.86 4.11 0 5.66-.3179797-2.1998563-1.6925261-4.1047983-3.68-5.1-.2830476-.1426286-.6169524-.1426286-.9 0-1.9874739.9952017-3.3620203 2.9001437-3.68 5.1-1.9-1.55-1.39-3.63 0-5.66.2380487-.2955284.2883109-.7003343.1297641-1.0451054-.1585468-.3447712-.4985809-.570095-.8778815-.5817287-.3793005-.0116337-.7325045.1924276-.9118826.5268341-1.0152582 1.3029854-1.5833611 2.8985831-1.62 4.55-11.3-7-3.89-28 7.37-28zm2 29.85c-1.347348.1800011-2.712652.1800011-4.06 0 .3310091-1.100607 1.0391057-2.0494565 2-2.68.9834121.6200544 1.7137423 1.5701926 2.06 2.68zm-10 21.15c-2.35 0-3.82-3.49-2.51-6.17.41390215-1.0428822 1.39050064-1.7549042 2.51-1.83 1.65 0 3 1.79 3 4s-1.35 4-3 4zm5-3.29c.56-5.69-5.19-8.93-8.5-4.94-3.65846197-4.3656856-3.21705272-10.8411593 1-14.67 1.20676718 1.1261914 2.6055275 2.0270879 4.13 2.66.7882886.9829221 1.8236181 1.7387126 3 2.19.3342978.1382796.7172142.0852224 1.001319-.1387434.2841049-.2239659.4250929-.5839137.368681-.9412566 1.3281299.1665883 2.6718701.1665883 4 0-.0678476.3527986.0587693.7148794.3316883.9485146.2729189.2336351.6501917.3029144.9883117.1814854 1.1945392-.4435095 2.2479406-1.1998862 3.05-2.19 1.5286677-.6350664 2.9309089-1.5394103 4.14-2.67 4.2083619 3.8371323 4.6491306 10.3076162 1 14.68-3.32-4-9.06-.73-8.5 4.94-1.9892314.3546183-4.026944.3376656-6.01-.05zm11 3.29c-1.65 0-3-1.79-3-4s1.35-4 3-4c1.1203671.0727034 2.0981102.78556 2.51 1.83 1.32 2.69-.17 6.17-2.51 6.17zm5-4.26c-.0268562-.7226611-.1616819-1.4372374-.4-2.12 3.9895125-4.249579 4.5280053-10.6866389 1.3-15.54 3.7333943-.4467634 7.3510722 1.4744693 9.0717219 4.8177005 1.7206496 3.3432312 1.1816015 7.4037922-1.3517219 10.1822995-1.8361822-.215654-3.5809176.855167-4.22 2.59-1.4382789.3870618-2.9501365.4111141-4.4.07zm10 2c-.0160272 1.237585-1.0124982 2.2384848-2.25 2.26-1.81-.19-2.39-3-.92-4.44s3.38-.01 3.17 2.14zm7 2.26c-1.1045695 0-2-.8954305-2-2s.8954305-2 2-2 2 .8954305 2 2-.8954305 2-2 2zm.8-5.92c-1.675246-.328193-3.3741577.4429442-4.23 1.92-.6076443.0484983-1.2189547.0216275-1.82-.08-.2339113-.7395076-.6621649-1.4026098-1.24-1.92 2.7724628-3.3483322 3.2948368-8.0222049 1.33-11.9 3.0489847-.5356159 6.0877088.9950778 7.472136 3.763932 1.3844271 2.7688543.7857475 6.1182497-1.472136 8.236068zm3.66-8.08c-.7877586-2.1785563-2.3852371-3.9694515-4.46-5 .0120978-2.0689355 1.2972048-3.9167214 3.2326245-4.6480157 1.9354197-.7312944 4.1213361-.1950276 5.4985668 1.3489531 1.3772307 1.5439806 1.6612697 3.7767221.7144862 5.6163529-.9467835 1.8396309-2.9288044 2.9061232-4.9856775 2.6827097z"/></g></g></svg>