<svg height="512" viewBox="0 0 62 61" width="512" xmlns="http://www.w3.org/2000/svg"><g id="017---Butterfly" fill="none"><g id="Icons" transform="translate(1 4)"><path id="Shape" d="m58.91 55c-7 .26-20.71-.5-25.95-5.09l-5.96-.07c-.05 0-.5.42-.76.6-5.68 4.13-17.44 4.65-24.46 4.56h-.78c1-18 14-20 14-20-2.8224508.0489224-5.59944625-.7147513-8-2.2 1.61993864-2.3106513 4.1868547-3.7774604 7-4-10.58-4.23-13.7-17.67-13-28.8 9.5 1.19 15.4 4.1 19.06 7.19l19.85-.07c5.19-4.33 12.35-6.28 19-7.12 0 0 2 22.8-13 28.8 2.8131453.2225396 5.3800614 1.6893487 7 4-2.4019117 1.482132-5.1779758 2.2455496-8 2.2 0 0 13 2 14 20z" fill="#9d27b0"/><path id="Shape" d="m44.91 35c2.8218115.0438743 5.5974144-.7194165 8-2.2-1.6199386-2.3106513-4.1868547-3.7774604-7-4 15-6 13-28.8 13-28.8-1.0266667.13333333-2.0266667.28333333-3 .45.18 3.18.74 22.84-13 28.35 2.8131453.2225396 5.3800614 1.6893487 7 4-2.4019117 1.482132-5.1779758 2.2455496-8 2.2 0 0 13 2 14 20-.45 0-.93 0-.48 0h3.48c-1-18-14-20-14-20z" fill="#6a1b9a"/><circle id="Oval" cx="47.91" cy="13" fill="#ffdc00" r="5"/><path id="Shape" d="m28.5 53.72c-2.59-4.44-4.5-19.6-4.5-31.72-.0449996-3.0092756.1355056-6.0176941.54-9l5.46-5 5.46 5c1.98 12.67-1.94 49.3-6.96 40.72z" fill="#fec108"/><path id="Shape" d="m28.5 53.72c-2.59-4.44-4.5-19.6-4.5-31.72-.0449996-3.0092756.1355056-6.0176941.54-9l4-3.6 4 3.6c1.46 9.8-.46 34.59-4.04 40.72z" fill="#ffdc00"/><circle id="Oval" cx="25" cy="8" fill="#f5f5f5" r="5"/><circle id="Oval" cx="35" cy="8" fill="#cfd8dc" r="5"/><path id="Shape" d="m37 8c.0045063 2.1873902-1.4133569 4.1237862-3.5 4.78-2.0915959-.649612-3.516971-2.5848473-3.516971-4.775 0-2.19015275 1.4253751-4.125388 3.516971-4.775 2.0831174.6551101 3.5001328 2.58629965 3.5 4.77z" fill="#f5f5f5"/><g fill="#ffdc00"><circle id="Oval" cx="12" cy="13" r="5"/><circle id="Oval" cx="15" cy="45" r="4"/><circle id="Oval" cx="44.91" cy="45" r="4"/></g></g><g id="Layer_10" fill="#000" transform="translate(0 -1)"><circle id="Oval" cx="27" cy="13" r="1"/><circle id="Oval" cx="35" cy="13" r="1"/><path id="Shape" d="m28.55 26.45c1.5506436.7350099 3.3493564.7350099 4.9 0 .490313-.2495756.6869243-.8483464.44-1.34-.2459531-.4940809-.8456857-.6954836-1.34-.45-.9908032.436097-2.1191968.436097-3.11 0-.4909683-.2255152-1.0722858-.0202733-1.3128266.4635108-.2405407.4837842-.0533137 1.0711515.4228266 1.3264892z"/><path id="Shape" d="m28.55 30.45c1.5506436.7350099 3.3493564.7350099 4.9 0 .490313-.2495756.6869243-.8483464.44-1.34-.2459531-.4940809-.8456857-.6954836-1.34-.45-.9908032.436097-2.1191968.436097-3.11 0-.4909683-.2255152-1.0722858-.0202733-1.3128266.4635108-.2405407.4837842-.0533137 1.0711515.4228266 1.3264892z"/><path id="Shape" d="m28.55 34.45c1.5506436.7350099 3.3493564.7350099 4.9 0 .490313-.2495756.6869243-.8483464.44-1.34-.2459531-.4940809-.8456857-.6954836-1.34-.45-.9908032.436097-2.1191968.436097-3.11 0-.4909683-.2255152-1.0722858-.0202733-1.3128266.4635108-.2405407.4837842-.0533137 1.0711515.4228266 1.3264892z"/><path id="Shape" d="m33.89 37.11c-.2459531-.4940809-.8456857-.6954836-1.34-.45-.9908032.436097-2.1191968.436097-3.11 0-.4909683-.2255152-1.0722858-.0202733-1.3128266.4635108-.2405407.4837842-.0533137 1.0711515.4228266 1.3264892 1.5506436.7350099 3.3493564.7350099 4.9 0 .490313-.2495756.6869243-.8483464.44-1.34z"/><path id="Shape" d="m19 18c0-3.3137085-2.6862915-6-6-6s-6 2.6862915-6 6 2.6862915 6 6 6c1.5912989 0 3.1174224-.632141 4.2426407-1.7573593s1.7573593-2.6513418 1.7573593-4.2426407zm-6 4c-2.209139 0-4-1.790861-4-4s1.790861-4 4-4 4 1.790861 4 4-1.790861 4-4 4z"/><path id="Shape" d="m16 45c-2.7614237 0-5 2.2385763-5 5s2.2385763 5 5 5 5-2.2385763 5-5-2.2385763-5-5-5zm0 8c-1.6568542 0-3-1.3431458-3-3s1.3431458-3 3-3 3 1.3431458 3 3-1.3431458 3-3 3z"/><path id="Shape" d="m60.91 4.91c-.0224319-.27144765-.1546178-.52200026-.3660102-.69375663-.2113925-.17175637-.4836985-.24985341-.7539898-.21624337-7.7 1-13.85 3.15-18.35 6.47-.8190479-1.76121583-2.4399993-3.01698738-4.35-3.37.2777832-2.45931775 2.440571-4.26531164 4.91-4.1.5522847 0 1-.44771525 1-1s-.4477153-1-1-1c-3.5734861-.17910771-6.642627 2.5135873-6.93 6.08-1.6626742.26068376-3.1394246 1.20769077-4.07 2.61-.9305754-1.40230923-2.4073258-2.34931624-4.07-2.61-.287373-3.5664127-3.3565139-6.25910771-6.93-6.08-.5522847 0-1 .44771525-1 1s.4477153 1 1 1c2.4745678-.1811963 4.6469302 1.63279262 4.91 4.1-1.9301138.35950131-3.5622442 1.6405556-4.37 3.43-4.54-3.35-10.69-5.53-18.42-6.53-.27029129-.03361004-.54259731.044487-.75398976.21624337-.21139246.17175637-.34357832.42230898-.36601024.69375663-.08.91-1.67 21 11 28.54-1.9210916.7732529-3.58488767 2.0730936-4.8 3.75-.16125382.2140679-.22983125.4839051-.19035076.7489884s.18371438.5032252.40035076.6610116c1.34698103.8830425 2.8402095 1.5196116 4.41 1.88-4.17 2.19-10.15 7.4-10.82 19.45-.0165573.2754504.08144377.5454995.27080463.746222.18936085.2007226.45324826.3142752.72919537.313778 6.92.28 19.52-.48 25.53-4.5 2 5.91 4.91 6.11 7 0 6 3.94 18.37 4.73 25.46 4.45.2759471.0004972.5398345-.1130554.7291954-.313778.1893608-.2007225.2873619-.4707716.2708046-.746222-.67-12-6.65-17.26-10.82-19.45 1.5697905-.3603884 3.063019-.9969575 4.41-1.88.2166364-.1577864.3608703-.3959283.4003508-.6610116s-.029097-.5349205-.1903508-.7489884c-1.2251981-1.6794536-2.8993051-2.9792262-4.83-3.75 12.62-7.5 11.04-27.58 10.95-28.49zm-24.91 4.09c2.209139 0 4 1.790861 4 4s-1.790861 4-4 4-4-1.790861-4-4 1.790861-4 4-4zm-10 0c2.209139 0 4 1.790861 4 4s-1.790861 4-4 4-4-1.790861-4-4 1.790861-4 4-4zm-22.93 50c1.35-16 12.6-18 13.08-18 .3572656-.0267949.6730977-.2421534.8285254-.5649519s.1268379-.7039964-.075-1-.5462598-.461843-.9035254-.4350481c-2.2416103.0195657-4.4569121-.4837564-6.47-1.47 1.4039067-1.5802355 3.3632138-2.5580981 5.47-2.73.480605.0011766.8940741-.339705.9845632-.8117159.0904892-.4720108-.1675978-.9416363-.6145632-1.1182841-12.37-4.94-12.58-22.28-12.43-26.73 7.27 1 13 3.23 17.08 6.51-.1625044 2.825292 1.6712269 5.3800131 4.4 6.13-1.14 9 .22 27.21 2.47 35.69-5.8 4.46-19.89 4.61-23.82 4.53zm28 0c-2.76-.79-6.31-26.77-4.61-40 1.8475849-.1473157 3.5233779-1.1402415 4.54-2.69 1.0271105 1.563054 2.7243631 2.5577402 4.59 2.69 1.7 13.22-1.85 39.2-4.59 40zm15.47-26.13c-.4452498.1759347-.7033424.6427624-.6155562 1.1133939s.4968208.813021.9755562.8166061c2.1103346.1693946 4.0736537 1.1474714 5.48 2.73-2.0130879.9862436-4.2283897 1.4895657-6.47 1.47-.5522847-.0441828-1.0358172.3677153-1.08.92s.3677153 1.0358172.92 1.08c.49.08 11.74 2.06 13.09 18-3.9.06-17.89-.08-23.74-4.48 2.26-8.47 3.63-26.72 2.48-35.76 2.7559362-.7552223 4.596857-3.3492471 4.4-6.2 4.02-3.22 9.76-5.39 17.02-6.43.12 4.46-.1 21.8-12.46 26.74z"/><path id="Shape" d="m48.91 12c-3.3137085 0-6 2.6862915-6 6s2.6862915 6 6 6 6-2.6862915 6-6-2.6862915-6-6-6zm0 10c-2.209139 0-4-1.790861-4-4s1.790861-4 4-4 4 1.790861 4 4-1.790861 4-4 4z"/><path id="Shape" d="m40.91 50c0 2.7614237 2.2385763 5 5 5s5-2.2385763 5-5-2.2385763-5-5-5-5 2.2385763-5 5zm5-3c1.6568542 0 3 1.3431458 3 3s-1.3431458 3-3 3-3-1.3431458-3-3 1.3431458-3 3-3z"/></g></g></svg>