<svg height="512" viewBox="0 0 60 60" width="512" xmlns="http://www.w3.org/2000/svg"><g id="019---Butterfly" fill="none"><g id="Icons" transform="translate(1 1)"><path id="Shape" d="m46.17 33c1.23 1 2.37 2.76 2.83 6 1 7 2 7 6 10 6.25 4.69-1 9-6 9-4.41 0-13.49 0-16.94-5.49h-6.12c-3.45 5.49-12.53 5.49-16.94 5.49-5 0-12.25-4.31-6-9 4-3 5-3 6-10 .46-3.24 1.6-5 2.83-6z" fill="#008a00"/><path id="Shape" d="m49 58c-.71 0-1.53 0-2.44 0 5-.3 11.46-4.46 5.44-9-4-3-5-3-6-10-.46-3.24-1.6-5-2.83-6h3c1.23 1 2.37 2.76 2.83 6 1 7 2 7 6 10 6.25 4.69-1 9-6 9z" fill="#007900"/><path id="Shape" d="m38.9 10c1.71-1.38 4-3.32 7.1-6 5.32-4.66 12-6 12 1s-6 12-3 18-2 10-7 10h-38c-5 0-10-4-7-10s-3-11-3-18 6.68-5.66 12-1c3.06 2.68 5.39 4.62 7.1 6z" fill="#60a917"/><path id="Shape" d="m55 23c3 6-2 10-7 10h-2.86c5-.07 9.83-4.06 6.86-10s3-11 3-18c0-2.71-1-4.16-2.53-4.66 3.1-.75 5.53.44 5.53 4.66 0 7-6 12-3 18z" fill="#549414"/><path id="Shape" d="m27.5 56.72c-2.59-4.44-4.5-19.6-4.5-31.72-.0449996-3.0092756.1355056-6.0176941.54-9l5.46-4 5.46 4c1.98 12.67-1.94 49.3-6.96 40.72z" fill="#fec108"/><path id="Shape" d="m27.5 56.72c-2.59-4.44-4.5-19.6-4.5-31.72-.0449996-3.0092756.1355056-6.0176941.54-9l4-2.88 4 2.88c1.46 9.8-.46 34.59-4.04 40.72z" fill="#ffdc00"/><circle id="Oval" cx="24" cy="11" fill="#f5f5f5" r="5"/><circle id="Oval" cx="34" cy="11" fill="#cfd8dc" r="5"/><path id="Shape" d="m36 11c.0045063 2.1873902-1.4133569 4.1237862-3.5 4.78-2.0915959-.649612-3.516971-2.5848473-3.516971-4.775 0-2.19015275 1.4253751-4.125388 3.516971-4.775 2.0831174.6551101 3.5001328 2.58629965 3.5 4.77z" fill="#f5f5f5"/><g fill="#ffdc00"><circle id="Oval" cx="13" cy="24" r="4"/><circle id="Oval" cx="16" cy="47" r="4"/><circle id="Oval" cx="9" cy="11" r="3"/><circle id="Oval" cx="45" cy="24" r="4"/><circle id="Oval" cx="42" cy="47" r="4"/><circle id="Oval" cx="49" cy="11" r="3"/></g></g><g id="Layer_10" fill="#000" transform="translate(0 -1)"><circle id="Oval" cx="26" cy="13" r="1"/><circle id="Oval" cx="34" cy="13" r="1"/><path id="Shape" d="m27.55 26.45c1.5506436.7350099 3.3493564.7350099 4.9 0 .490313-.2495756.6869243-.8483464.44-1.34-.2459531-.4940809-.8456857-.6954836-1.34-.45-.9908032.436097-2.1191968.436097-3.11 0-.4909683-.2255152-1.0722858-.0202733-1.3128266.4635108-.2405407.4837842-.0533137 1.0711515.4228266 1.3264892z"/><path id="Shape" d="m27.55 30.45c1.5506436.7350099 3.3493564.7350099 4.9 0 .490313-.2495756.6869243-.8483464.44-1.34-.2459531-.4940809-.8456857-.6954836-1.34-.45-.9908032.436097-2.1191968.436097-3.11 0-.4909683-.2255152-1.0722858-.0202733-1.3128266.4635108-.2405407.4837842-.0533137 1.0711515.4228266 1.3264892z"/><path id="Shape" d="m27.55 34.45c1.5506436.7350099 3.3493564.7350099 4.9 0 .490313-.2495756.6869243-.8483464.44-1.34-.2459531-.4940809-.8456857-.6954836-1.34-.45-.9908032.436097-2.1191968.436097-3.11 0-.4909683-.2255152-1.0722858-.0202733-1.3128266.4635108-.2405407.4837842-.0533137 1.0711515.4228266 1.3264892z"/><path id="Shape" d="m32.89 37.11c-.2459531-.4940809-.8456857-.6954836-1.34-.45-.9908032.436097-2.1191968.436097-3.11 0-.4909683-.2255152-1.0722858-.0202733-1.3128266.4635108-.2405407.4837842-.0533137 1.0711515.4228266 1.3264892 1.5506436.7350099 3.3493564.7350099 4.9 0 .490313-.2495756.6869243-.8483464.44-1.34z"/><path id="Shape" d="m57.23 1.56c-2.67-1.22-6.95.23-10.89 3.69-2.16 1.88666667-4.16 3.58-6 5.08-.8333284-1.68227274-2.4060266-2.87752339-4.25-3.23.2777832-2.45931775 2.440571-4.26531164 4.91-4.1.5522847 0 1-.44771525 1-1s-.4477153-1-1-1c-3.5734861-.17910771-6.642627 2.5135873-6.93 6.08-1.6626742.26068376-3.1394246 1.20769077-4.07 2.61-.9305754-1.40230923-2.4073258-2.34931624-4.07-2.61-.287373-3.5664127-3.3565139-6.25910771-6.93-6.08-.5522847 0-1 .44771525-1 1s.4477153 1 1 1c2.4745678-.1811963 4.6469302 1.63279262 4.91 4.1-1.8514346.34672344-3.4325812 1.54276644-4.27 3.23-1.8333333-1.5-3.8333333-3.19333333-6-5.08-3.93-3.46-8.2-4.9-10.87-3.69-1.27.57-2.77 1.98-2.77 5.44 0 7.23 5.84 12.09 3.11 17.55-3.06 6.12 1.34 11.22 7.54 11.45-.89007366 1.483896-1.45264425 3.140922-1.65 4.86-.93 6.51-1.66 6.38-5.61 9.34-2.99 2.25-3.07 4.38-2.6 5.8 1 3 5.57 5 9.21 5 4.12 0 12.23 0 16.53-4.4 2 5.77 4.86 6 6.94 0 4.3 4.4 12.41 4.4 16.53 4.4 3.64 0 8.21-2 9.21-5 .47-1.38.39-3.51-2.61-5.76-4-3-4.67-2.79-5.61-9.34-.1887062-1.7320959-.7480408-3.4032786-1.64-4.9 6.18-.21 10.61-5.29 7.54-11.43-2.71-5.46 3.11-10.39 3.11-17.57 0-3.46-1.5-4.87-2.77-5.44zm-22.23 7.44c2.209139 0 4 1.790861 4 4s-1.790861 4-4 4-4-1.790861-4-4 1.790861-4 4-4zm-10 0c2.209139 0 4 1.790861 4 4s-1.790861 4-4 4-4-1.790861-4-4 1.790861-4 4-4zm-20.21 22c-.95977685-1.7210542-.92159443-3.8249054.1-5.51 3.25-6.49-2.89-11.78-2.89-18.49 0-1.92.54-3.14 1.59-3.62 1.9-.87 5.5.52 8.75 3.37 2.44 2.14 4.68 4 6.69 5.67-.2785086 2.9056117 1.5744439 5.5900713 4.39 6.36-.4915953 5.0588454-.558496 10.1499839-.2 15.22h-12.22c-2.44203661.104311-4.7738331-1.0221607-6.21-3zm5.21 28c-2.82 0-6.63-1.6-7.32-3.67-.37-1.11.32-2.33 1.92-3.53 4.22-3.16 5.4-3.45 6.4-10.66.1260627-1.915921.9062371-3.7304443 2.21-5.14h10.12c.3143469 6.1636161 1.1540595 12.2891692 2.51 18.31-3.33 4.69-11.74 4.69-15.84 4.69zm20 0c-2.75-.79-6.32-26.68-4.61-40 1.8728484-.1261841 3.5787156-1.1215817 4.61-2.69 1.0271105 1.563054 2.7243631 2.5577402 4.59 2.69 1.7 13.22-1.85 39.2-4.59 40zm24.24-8c1.46 1.06 3.67 2.54 3.06 4.37-.67 2.03-4.48 3.63-7.3 3.63-4.1 0-12.51 0-15.84-4.69 1.3559405-6.0208308 2.1956531-12.1463839 2.51-18.31h10.12c1.3037629 1.4095557 2.0839373 3.224079 2.21 5.14.92 6.41 1.93 7.39 5.26 9.86zm.85-25.51c1.0215944 1.6850946 1.0597768 3.7889458.1 5.51-1.4321827 1.9717874-3.7549262 3.0975113-6.19 3h-12.22c.358496-5.0700161.2915953-10.1611546-.2-15.22 2.8275632-.7578865 4.6954509-3.4456163 4.42-6.36 2-1.64 4.25-3.53 6.69-5.67 3.25-2.85 6.85-4.23 8.75-3.37 1.02.48 1.56 1.7 1.56 3.62 0 6.76-6.15 11.93-2.89 18.45z"/><path id="Shape" d="m19 26c0-2.7614237-2.2385763-5-5-5s-5 2.2385763-5 5 2.2385763 5 5 5 5-2.2385763 5-5zm-8 0c0-1.6568542 1.3431458-3 3-3s3 1.3431458 3 3-1.3431458 3-3 3-3-1.3431458-3-3z"/><path id="Shape" d="m17 44c-2.7614237 0-5 2.2385763-5 5s2.2385763 5 5 5 5-2.2385763 5-5-2.2385763-5-5-5zm0 8c-1.6568542 0-3-1.3431458-3-3s1.3431458-3 3-3 3 1.3431458 3 3-1.3431458 3-3 3z"/><path id="Shape" d="m14 13c0-2.209139-1.790861-4-4-4s-4 1.790861-4 4 1.790861 4 4 4 4-1.790861 4-4zm-6 0c0-1.1045695.8954305-2 2-2s2 .8954305 2 2-.8954305 2-2 2-2-.8954305-2-2z"/><path id="Shape" d="m46 21c-2.7614237 0-5 2.2385763-5 5s2.2385763 5 5 5 5-2.2385763 5-5c0-1.3260824-.5267842-2.597852-1.4644661-3.5355339s-2.2094515-1.4644661-3.5355339-1.4644661zm0 8c-1.6568542 0-3-1.3431458-3-3s1.3431458-3 3-3 3 1.3431458 3 3-1.3431458 3-3 3z"/><path id="Shape" d="m43 44c-2.7614237 0-5 2.2385763-5 5s2.2385763 5 5 5 5-2.2385763 5-5c0-1.3260824-.5267842-2.597852-1.4644661-3.5355339s-2.2094515-1.4644661-3.5355339-1.4644661zm0 8c-1.6568542 0-3-1.3431458-3-3s1.3431458-3 3-3 3 1.3431458 3 3-1.3431458 3-3 3z"/><path id="Shape" d="m50 9c-2.209139 0-4 1.790861-4 4s1.790861 4 4 4 4-1.790861 4-4c0-1.060866-.4214274-2.0782816-1.1715729-2.8284271-.7501455-.75014554-1.7675611-1.1715729-2.8284271-1.1715729zm0 6c-1.1045695 0-2-.8954305-2-2s.8954305-2 2-2 2 .8954305 2 2-.8954305 2-2 2z"/></g></g></svg>