<svg height="512" viewBox="0 0 61 60" width="512" xmlns="http://www.w3.org/2000/svg"><g id="021---Dragonfly" fill="none"><g id="Icons" transform="translate(-1 1)"><path id="Shape" d="m38 16.31c-6.68 6.39-5.21 5-7 6.69-2.42-2.32-.46-.43-7-6.74.0743365-1.4623819.3920272-2.9021294.94-4.26l6.06-6 6.06 6c.5602059 1.3715013.878254 2.8297859.94 4.31z" fill="#fec108"/><path id="Shape" d="m35 16.31-5.5 5.25-5.5-5.3c.0743365-1.4623819.3920272-2.9021294.94-4.26l4.56-4.51 4.56 4.51c.5602059 1.3715013.878254 2.8297859.94 4.31z" fill="#ffdc00"/><path id="Shape" d="m31 58c-.606257-.0468958-1.1582526-.3670532-1.5-.87-3.6-4.3-4.36-19.93-2.5-29.38l4-5.75 4 5.68c2.37 11.99.25 30.32-4 30.32z" fill="#fec108"/><path id="Shape" d="m33 39c0 8.51-1.47 15.71-3.5 18.13-3.6-4.3-4.36-19.93-2.5-29.38l2.54-3.62 2.46 3.55c.6883522 3.7335203 1.0231671 7.5236246 1 11.32z" fill="#ffdc00"/><path id="Shape" d="m30.9 22.84c.1658599.2578214.2166042.5731614.14.87-.4440889 1.1349216-1.2349701 2.1007765-2.26 2.76-3.3170439 2.3740843-6.97089 4.2380851-10.84 5.53-8 2.87-15 3.51-15.79 1.43s5.11-6.09 13.08-9c1.89-.68 3.72-1.23 5.43-1.66z" fill="#02a9f4"/><ellipse id="Oval" cx="16.58" cy="17.415" fill="#00bcd4" rx="4" ry="15.34" transform="matrix(.339 -.941 .941 .339 -5.423 27.112)"/><path id="Shape" d="m59.92 33.45c-1.28 3.6-19.35-1.21-26.64-7-.91-.71-2.56-2.2-2.24-3.3.0192227-.113656.0674434-.2204303.14-.31h10.23c1.84085.4587775 3.6566292 1.0128572 5.44 1.66 7.97 2.86 13.82 6.88 13.07 8.95z" fill="#0377bc"/><path id="Shape" d="m56.92 33.45c-.22.61-1 1-2.17 1.14-9.84-.89-24.68-8.13-23.75-11.43.0192227-.113656.0674434-.2204303.14-.31h7.25c9.35 2.32 19.54 7.82 18.53 10.6z" fill="#02a9f4"/><path id="Shape" d="m46.85 21.18c-5.63 2-10.8 2.95-13.63 2.58-1.17-.15-1.94-.53-2.16-1.14-1.22-3.43 14-10.65 23.69-11.54 9.91-.9 4.89 5.49-7.9 10.1z" fill="#00838f"/><path id="Shape" d="m33.22 23.76c-1.17-.15-1.94-.53-2.16-1.14-1.22-3.43 14-10.65 23.69-11.54 1.18.15 2 .53 2.17 1.14 1.23 3.41-13.92 10.65-23.7 11.54z" fill="#00bcd4"/><circle id="Oval" cx="25" cy="6" fill="#f5f5f5" r="6"/><path id="Shape" d="m43 6c.0049248 3.11923836-2.3810275 5.7219825-5.488934 5.9876684-3.1079066.2656859-5.9010121-1.8943157-6.4255988-4.96912971-.5245867-3.07481398 1.3943405-6.03872424 4.4145328-6.81853869 1.7951888-.46351822 3.7038307-.07106388 5.1704933 1.06315518s2.3265794 2.88278349 2.3295067 4.73684482z" fill="#cfd8dc"/><path id="Shape" d="m40 6c.0002394 2.73618516-1.8507001 5.1259537-4.5 5.81-2.6406605-.6901773-4.4827739-3.07563514-4.4827739-5.805s1.8421134-5.11482274 4.4827739-5.805c2.6456983.68311274 4.4956841 3.06753882 4.5 5.8z" fill="#f5f5f5"/></g><g id="Layer_10" fill="#000"><path id="Shape" d="m56.22 18.23c3-2 4.19-3.83 3.64-5.35s-2.64-2.12-6.21-1.79c-5.4920843.6924832-10.83509 2.2730943-15.82 4.68-.098554-.6450783-.2388485-1.2830845-.42-1.91 3.1423393-.6422624 5.4462027-3.3379373 5.591103-6.54196627.1449003-3.20402893-1.9062353-6.09665612-4.9777739-7.0199375-3.0715385-.92328137-6.3776221.35900604-8.0233291 3.11190377-1.645707-2.75289773-4.9517906-4.03518514-8.0233291-3.11190377-3.0715386.92328138-5.1226742 3.81590857-4.9777739 7.0199375.1449003 3.20402897 2.4487637 5.89970387 5.591103 6.54196627-.184615.6152409-.3216851 1.2437574-.41 1.88-4.9652911-2.38816-10.2838219-3.9583928-15.75-4.65-3.58-.33-5.67.27-6.22 1.79s.68 3.32 3.65 5.35c3.77240857 2.4139397 7.856814 4.3013791 12.14 5.61-.71.23-1.42.45-2.13.71-7.38 2.66-14.82 7-13.66 10.24 1.59 4.42 16.44.28 24.42-4.1-1.63 11.17-.04 29.31 5.37 29.31 3.94 0 6-10.06 6-20 .0129628-3.1313609-.2009303-6.2595473-.64-9.36 5.47 3 14.25 6 20 6 2.36 0 4.07-.54 4.55-1.87 1.44-4-9.65-8.79-13.67-10.24-.71-.26-1.42-.48-2.13-.71 4.2709868-1.306851 8.344837-3.1873483 12.11-5.59zm-20.22-16.23c2.7614237 0 5 2.23857625 5 5s-2.2385763 5-5 5-5-2.23857625-5-5 2.2385763-5 5-5zm-17 5c0-2.76142375 2.2385763-5 5-5s5 2.23857625 5 5-2.2385763 5-5 5-5-2.23857625-5-5zm5.66 7c2.2219827-.2199428 4.2057302-1.4867179 5.34-3.41 1.1342698 1.9232821 3.1180173 3.1900572 5.34 3.41.3045929.890146.5026402 1.8132477.59 2.75-2.217444 1.0463515-4.2266487 2.486338-5.93 4.25-1.7240914-1.786312-3.7567387-3.2464303-6-4.31.1131771-.9195514.3347159-1.8224898.66-2.69zm-19.66 2.58c-2.63-1.8-2.95-2.86-2.89-3s.65-.58 2.58-.58c3.62 0 8.51 1.37 11.91 2.6 2.0521964.7254068 4.0562328 1.5804623 6 2.56 4.14 2 6.16 4 6.44 4.83-.0098932.1231349-.0098932.2468651 0 .37-.48.6-3.72.85-9.14-.5-5.2710215-1.2816097-10.30182921-3.4019769-14.9-6.28zm11.6 15.5c-8.9 3.2-14.21 2.88-14.51 2-.5-1.4 7.13-6.57 17.58-9.25 2.53.62 6.07 1.27 8.62.81-2.5 2.69-8.29 5.21-11.69 6.44zm17.4 7.92c0 11.65-2.64 18-4 18s-4-6.35-4-18c-.0209238-3.5723056.2735526-7.1394849.88-10.66 1.1555064-.7257407 2.2053981-1.6073806 3.12-2.62.9003289.9908792 1.9334634 1.8523855 3.07 2.56.6309202 3.5382042.9421753 7.1260048.93 10.72zm11.51-13.57c7 2.52 11.6 5.65 12.38 7.33.0658713.1043807.0973484.2267914.09.35-.3.85-5.61 1.17-14.5-2-3.41-1.23-9.26-3.82-11.69-6.4 2.56.45 6.09-.21 8.62-.82 1.69.41 3.4.93 5.1 1.54zm-14.44-3.07c-.0138384-.1216528-.0372442-.2420256-.07-.36.28-.84 2.31-2.71 6.32-4.76.1 0 8.37-4.42 16.48-5.15 3.17-.29 4.09.31 4.15.48s-.27 1.22-2.89 3c-2.9933398 1.9346652-6.2101279 3.4994076-9.58 4.66-8.57 3.11-13.8 2.91-14.41 2.13z"/><circle id="Oval" cx="25" cy="7" r="1"/><circle id="Oval" cx="35" cy="7" r="1"/><path id="Shape" d="m29 34c-.5522847 0-1 .4477153-1 1s.4477153 1 1 1h2c.5522847 0 1-.4477153 1-1s-.4477153-1-1-1z"/><path id="Shape" d="m31 38h-2c-.5522847 0-1 .4477153-1 1s.4477153 1 1 1h2c.5522847 0 1-.4477153 1-1s-.4477153-1-1-1z"/><path id="Shape" d="m31 42h-2c-.5522847 0-1 .4477153-1 1s.4477153 1 1 1h2c.5522847 0 1-.4477153 1-1s-.4477153-1-1-1z"/><path id="Shape" d="m31 46h-2c-.5522847 0-1 .4477153-1 1s.4477153 1 1 1h2c.5522847 0 1-.4477153 1-1s-.4477153-1-1-1z"/></g></g></svg>