<svg height="512" viewBox="0 0 60 60" width="512" xmlns="http://www.w3.org/2000/svg"><g id="035---Beetle" fill="none"><g id="Icons" transform="translate(0 3)"><path id="Shape" d="m40 9 .0000001 3h-20.0000471l.000047-3c-.0067443-1.83339246.7122654-3.59496629 2-4.9h16c1.2822225 1.30866278 2.0002671 3.06787209 2 4.9z" fill="#283593"/><path id="Shape" d="m37 9v3h-17c0-3-.3-5.51 1.7-7.9h13.6c1.1192077 1.38596289 1.7203541 3.11867895 1.7 4.9z" fill="#3f51b5"/><circle id="Oval" cx="3" cy="7" fill="#f44335" r="2"/><path id="Shape" d="m1.11 49.66c-.29803089-.8545875.01498595-1.8028102.7632176-2.312017s1.74517038-.4524705 2.43079952.1383382c.68562914.5908086.88904557 1.5684218.49598288 2.3836788-.35140324.7288505-1.10734852 1.1741586-1.91518122 1.1281843-.8078327-.0459742-1.50837522-.5741718-1.77481878-1.3381843z" fill="#f44335"/><circle id="Oval" cx="57" cy="7" fill="#f44335" r="2"/><path id="Shape" d="m55.2 49.87c-.3523622-.7283048-.2312212-1.5971638.3069187-2.20131.5381398-.6041461 1.3872622-.8245598 2.1513061-.5584321.7640439.2661276 1.292489.9663682 1.3388496 1.7741044.0463605.8077361-.3984967 1.56384-1.1270744 1.9156377-.9941391.4800254-2.1892042.0637668-2.67-.93z" fill="#f44335"/><path id="Shape" d="m46 14v26c0 8.836556-7.163444 16-16 16s-16-7.163444-16-16v-26c0-1.1045695.8954305-2 2-2h28c1.1045695 0 2 .8954305 2 2z" fill="#c81e1e"/><path id="Shape" d="m43 14v26c.0002413 8.2556303-6.2807294 15.1560347-14.5 15.93-8.2192706-.7739653-14.5002413-7.6743697-14.5-15.93v-26c0-1.1045695.8954305-2 2-2h25c1.1045695 0 2 .8954305 2 2z" fill="#f44335"/><g fill="#3f51b5"><circle id="Oval" cx="23" cy="21" r="3"/><circle id="Oval" cx="37" cy="21" r="3"/><circle id="Oval" cx="30" cy="32" r="3"/><circle id="Oval" cx="23" cy="43" r="3"/><circle id="Oval" cx="37" cy="43" r="3"/></g><path id="Shape" d="m30 4c.004123 2.13473642-1.66881 3.89651772-3.8009047 4.00276796-2.1320946.10625023-3.9718964-1.48047839-4.1800305-3.60504817-.2081341-2.12456979 1.2887561-4.03817845 3.4009352-4.34771979 1.1484755-.16830989 2.3134254.17056482 3.19242.92864968.8789946.75808485 1.3853382 1.86060956 1.38758 3.02135032z" fill="#f5f5f5"/><path id="Shape" d="m38 4c.0010466 1.97292178-1.4365716 3.65195204-3.3861212 3.9547355-1.9495496.30278347-3.8287025-.8611209-4.4260981-2.74142405s.2654074-3.91536086 2.0322193-4.79331145c1.239569-.61595713 2.7094888-.54728308 3.8862291.18156304 1.1767404.72884611 1.8930366 2.01426428 1.8937709 3.39843696z" fill="#f5f5f5"/><circle id="Oval" cx="3" cy="22" fill="#f44335" r="2"/><circle id="Oval" cx="3" cy="35" fill="#f44335" r="2"/><circle id="Oval" cx="57" cy="22" fill="#f44335" r="2"/><circle id="Oval" cx="57" cy="35" fill="#f44335" r="2"/></g><g id="Layer_10" fill="#000" transform="translate(-1)"><path id="Shape" d="m24 28c2.209139 0 4-1.790861 4-4s-1.790861-4-4-4-4 1.790861-4 4 1.790861 4 4 4zm0-6c1.1045695 0 2 .8954305 2 2s-.8954305 2-2 2-2-.8954305-2-2 .8954305-2 2-2z"/><path id="Shape" d="m38 20c-2.209139 0-4 1.790861-4 4s1.790861 4 4 4 4-1.790861 4-4-1.790861-4-4-4zm0 6c-1.1045695 0-2-.8954305-2-2s.8954305-2 2-2 2 .8954305 2 2-.8954305 2-2 2z"/><path id="Shape" d="m31 31c-2.209139 0-4 1.790861-4 4s1.790861 4 4 4 4-1.790861 4-4-1.790861-4-4-4zm0 6c-1.1045695 0-2-.8954305-2-2s.8954305-2 2-2 2 .8954305 2 2-.8954305 2-2 2z"/><path id="Shape" d="m24 42c-2.209139 0-4 1.790861-4 4s1.790861 4 4 4 4-1.790861 4-4-1.790861-4-4-4zm0 6c-1.1045695 0-2-.8954305-2-2s.8954305-2 2-2 2 .8954305 2 2-.8954305 2-2 2z"/><path id="Shape" d="m38 42c-2.209139 0-4 1.790861-4 4s1.790861 4 4 4 4-1.790861 4-4-1.790861-4-4-4zm0 6c-1.1045695 0-2-.8954305-2-2s.8954305-2 2-2 2 .8954305 2 2-.8954305 2-2 2z"/><circle id="Oval" cx="28" cy="7" r="1"/><circle id="Oval" cx="34" cy="7" r="1"/><path id="Shape" d="m53.49 18.19c.7534476-.2162026 1.3923509-.7187108 1.78-1.4l2.2-3.79c1.4364621.2682082 2.8572045-.5375916 3.3642436-1.9080917.5070391-1.37050006-.0471468-2.90695707-1.3122832-3.63824978s-2.8731352-.44465343-3.807657.67874681c-.9345218 1.12340025-.9236699 2.75671107.0256966 3.86759467l-2.2 3.85c-.1320972.2259426-.3475096.3910921-.6.46l-4.94 1.36v-.67c0-1.6568542-1.3431458-3-3-3h-3v-2c.006962-1.958354-.7046484-3.85123763-2-5.32-.0207347-.33845448-.0777276-.67370694-.17-1 1.9945951-.66208319 3.295132-2.58211871 3.17-4.68 0-.55228475-.4477153-1-1-1s-1 .44771525-1 1c.1328818 1.36309329-.794796 2.60288697-2.14 2.86-.9559981-1.2104348-2.4225029-1.90486994-3.9646865-1.87740102s-2.9830279.7736889-3.8953135 2.01740102c-.9075115-1.24741224-2.3456362-1.99928662-3.8878754-2.03264294s-3.0115276.65563509-3.9721246 1.86264294c-1.3301658-.26034229-2.2518614-1.47922014-2.14-2.83 0-.55228475-.4477153-1-1-1s-1 .44771525-1 1c-.1130168 2.09992723 1.2063949 4.01122467 3.21 4.65-.0979831.32536767-.1583767.66088756-.18 1-2.25 2.52-2 5-2 7.32h-3.03c-1.6568542 0-3 1.3431458-3 3v.67l-4.94-1.38c-.25249041-.0689079-.46790285-.2340574-.6-.46l-2.2-3.8c.94936654-1.1108836.96021838-2.74419442.02569657-3.86759467-.9345218-1.12340024-2.54252058-1.41003952-3.80765697-.67874681-1.26513638.73129271-1.81932228 2.26774972-1.3122832 3.63824978.50703908 1.3705001 1.92778146 2.1762999 3.3642436 1.9080917l2.2 3.84c.38764912.6812892 1.02655244 1.1837974 1.78 1.4l5.49 1.51v6.53l-4.28 1.43c-.33947115.1291408-.72227373.0640644-1-.17l-1.9-1.54c.48158308-1.379566-.10082787-2.9054338-1.37915054-3.6132586-1.27832267-.7078247-2.88067533-.3916905-3.794375.7486067-.91369966 1.1402972-.87293847 2.7730291.09652261 3.8663131s2.58559242 1.3290688 3.82700293.5583388l2 1.56c.53049808.4256129 1.18987368.6583337 1.87.66.65 0 .65-.05 4.6-1.37v8.93l-3.73 1.46c-.49.19-.68 0-3.32-.86-.02307254-1.4604363-1.09459893-2.6920048-2.53780732-2.9168516-1.4432084-.2248468-2.83860442.6223838-3.30486142 2.0065842-.46625701 1.3842005.13215095 2.9030282 1.41727177 3.5971976 1.28512081.6941693 2.88341109.3619075 3.78539697-.7869302 4.28 1.42 3.13 1.45 7.65-.36 0 3.66-.12 5.07.53 7.64-2.94 3.31-2.83 3.33-3.37 3.37l-4.42.31c-.58979945-1.336163-2.05614992-2.0534025-3.47298277-1.6987483s-2.37236314 1.6781261-2.26312898 3.1345817c.10923417 1.4564555 1.25148524 2.6225939 2.70536844 2.7619444 1.45388319.1393504 2.79684536-.7885875 3.18074331-2.1977778l4.41-.31c.7706241-.0631426 1.4871115-.4213863 2-1l1.91-2.15c2.597353 6.4225043 8.8321718 10.6264296 15.76 10.6264296s13.162647-4.2039253 15.76-10.6264296l1.91 2.15c.5128885.5786137 1.2293759.9368574 2 1l4.41.31c.383898 1.4091903 1.7268601 2.3371282 3.1807433 2.1977778 1.4538832-.1393505 2.5961343-1.3054889 2.7053684-2.7619444.1092342-1.4564556-.8462961-2.7799275-2.2631289-3.1345817-1.4168329-.3546542-2.8831834.3625853-3.4729828 1.6987483l-4.42-.31c-.54 0-.43-.06-3.37-3.37.66-2.61.53-4.1.53-7.64 4.52 1.81 3.37 1.78 7.65.36.9019859 1.1488377 2.5002762 1.4810995 3.785397.7869302 1.2851208-.6941694 1.8835287-2.2129971 1.4172717-3.5971976-.466257-1.3842004-1.861653-2.231431-3.3048614-2.0065842s-2.5147348 1.4564153-2.5378073 2.9168516c-2.83 1-2.87 1-3.32.86l-3.63-1.48v-8.93c3.87 1.29 4 1.37 4.6 1.37.6801263-.0016663 1.3395019-.2343871 1.87-.66l2-1.56c1.2583344.7408286 2.8673014.4680359 3.8111254-.6461584.943824-1.1141942.9483242-2.7461165.0106595-3.8654991-.9376646-1.1193826-2.5451027-1.401045-3.8075037-.6671676-1.2624011.7338774-1.8130377 2.2701033-1.3042812 3.6388251l-2 1.56c-.2665587.2158344-.625134.2800005-.95.17l-4.23-1.45v-6.53zm4.51-9.19c.5522847 0 1 .44771525 1 1 0 .5522847-.4477153 1-1 1s-1-.4477153-1-1c0-.55228475.4477153-1 1-1zm-55 1c0-.55228475.44771525-1 1-1s1 .44771525 1 1c0 .5522847-.44771525 1-1 1-.26521649 0-.5195704-.1053568-.70710678-.2928932s-.29289322-.4418903-.29289322-.7071068zm0 15c0-.5522847.44771525-1 1-1s1 .4477153 1 1-.44771525 1-1 1c-.26521649 0-.5195704-.1053568-.70710678-.2928932s-.29289322-.4418903-.29289322-.7071068zm1 14c-.55228475 0-1-.4477153-1-1s.44771525-1 1-1 1 .4477153 1 1-.44771525 1-1 1zm.9 13.43c-.19283637.4118149-.63923956.6416757-1.08646999.5594425-.44723044-.0822332-.78267031-.4558532-.81640401-.909328-.03373371-.4534748.2427333-.8726142.672874-1.0201145.37964796-.1301857.80034763-.0207791 1.06847435.2778661s.33172562.7286606.16152565 1.0921339zm53.1-1.43c.4003521-.0044071.7647414.2304029.9261475.5968034.1614062.3664004.088712.7937538-.1847625 1.0861797s-.695007.3935482-1.071385.2570169c-.4544443-.1648499-.7258984-.6311803-.6448316-1.1077549.0810668-.4765745.4914407-.8269239.9748316-.8322451zm0-14c.5522847 0 1 .4477153 1 1s-.4477153 1-1 1-1-.4477153-1-1 .4477153-1 1-1zm0-13c.5522847 0 1 .4477153 1 1s-.4477153 1-1 1-1-.4477153-1-1 .4477153-1 1-1zm-23-20c1.6568542 0 3 1.34314575 3 3s-1.3431458 3-3 3-3-1.34314575-3-3 1.3431458-3 3-3zm-8 0c1.6568542 0 3 1.34314575 3 3s-1.3431458 3-3 3-3-1.34314575-3-3 1.3431458-3 3-3zm-4.38 5.35c.8073723 1.4950786 2.3187621 2.4778129 4.0128235 2.6092138 1.6940614.131401 3.3389147-.6065173 4.3671765-1.9592138 1.0235602 1.3553275 2.665137 2.0983926 4.358915 1.9730773 1.6937781-.1253153 3.2081273-1.1018738 4.021085-2.5930773.76 1.51.62 2.62.62 4.62h-18c0-1.92-.14-3.11.62-4.65zm8.38 48.65c-8.2842712 0-15-6.7157288-15-15v-26c0-.5522847.4477153-1 1-1h28c.5522847 0 1 .4477153 1 1v26c0 8.2842712-6.7157288 15-15 15z"/></g></g></svg>