<svg height="512" viewBox="0 0 48 48" width="512" xmlns="http://www.w3.org/2000/svg"><g id="agenda_book" data-name="agenda book"><path d="m43 3v42a2 2 0 0 1 -2 2h-4v-46h4a2 2 0 0 1 2 2z" fill="#9fdbf3"/><path d="m43 3c0 43.26-.1 42 0 42a4 4 0 0 1 -4-4v-40h2a2 2 0 0 1 2 2z" fill="#b2e5fb"/><path d="m37 1v46h-29a1 1 0 0 1 -1-1v-44a1 1 0 0 1 1-1z" fill="#6fabe6"/><path d="m37 1v44h-24a4 4 0 0 1 -4-4v-40z" fill="#82bcf4"/><g fill="#dad7e5"><path d="m9 7h-4a1 1 0 0 1 0-2h4a1 1 0 0 1 0 2z"/><path d="m9 11h-4a1 1 0 0 1 0-2h4a1 1 0 0 1 0 2z"/><path d="m9 15h-4a1 1 0 0 1 0-2h4a1 1 0 0 1 0 2z"/><path d="m9 19h-4a1 1 0 0 1 0-2h4a1 1 0 0 1 0 2z"/><path d="m9 23h-4a1 1 0 0 1 0-2h4a1 1 0 0 1 0 2z"/><path d="m9 27h-4a1 1 0 0 1 0-2h4a1 1 0 0 1 0 2z"/><path d="m9 31h-4a1 1 0 0 1 0-2h4a1 1 0 0 1 0 2z"/><path d="m9 35h-4a1 1 0 0 1 0-2h4a1 1 0 0 1 0 2z"/><path d="m9 39h-4a1 1 0 0 1 0-2h4a1 1 0 0 1 0 2z"/><path d="m9 43h-4a1 1 0 0 1 0-2h4a1 1 0 0 1 0 2z"/><path d="m14 6h18v8h-18z"/></g><path d="m32 6v6h-10a6 6 0 0 1 -6-6z" fill="#edebf2"/><path d="m26 43h-12a1 1 0 0 1 0-2h12a1 1 0 0 1 0 2z" fill="#5b9ad8"/><path d="m32 39h-18a1 1 0 0 1 0-2h18a1 1 0 0 1 0 2z" fill="#5b9ad8"/><path d="m41 0h-33a2 2 0 0 0 -2 2v3h-1a1 1 0 0 0 0 2h1v2h-1a1 1 0 0 0 0 2h1v2h-1a1 1 0 0 0 0 2h1v2h-1a1 1 0 0 0 0 2h1v2h-1a1 1 0 0 0 0 2h1v2h-1a1 1 0 0 0 0 2h1v2h-1a1 1 0 0 0 0 2h1v2h-1a1 1 0 0 0 0 2h1v2h-1a1 1 0 0 0 0 2h1v2h-1a1 1 0 0 0 0 2h1v3a2 2 0 0 0 2 2h33a3 3 0 0 0 3-3v-42a3 3 0 0 0 -3-3zm-33 43h1a1 1 0 0 0 0-2h-1v-2h1a1 1 0 0 0 0-2h-1v-2h1a1 1 0 0 0 0-2h-1v-2h1a1 1 0 0 0 0-2h-1v-2h1a1 1 0 0 0 0-2h-1v-2h1a1 1 0 0 0 0-2h-1v-2h1a1 1 0 0 0 0-2h-1v-2h1a1 1 0 0 0 0-2h-1v-2h1a1 1 0 0 0 0-2h-1v-2h1a1 1 0 0 0 0-2h-1v-3h28v44h-28zm34 2a1 1 0 0 1 -1 1h-3v-44h3a1 1 0 0 1 1 1z"/><path d="m32 5h-18a1 1 0 0 0 -1 1v8a1 1 0 0 0 1 1h18a1 1 0 0 0 1-1v-8a1 1 0 0 0 -1-1zm-1 8h-16v-6h16z"/><path d="m26 41h-12a1 1 0 0 0 0 2h12a1 1 0 0 0 0-2z"/><path d="m32 37h-18a1 1 0 0 0 0 2h18a1 1 0 0 0 0-2z"/></g></svg>