<svg height="512" viewBox="0 0 48 60" width="512" xmlns="http://www.w3.org/2000/svg"><g id="002---Beetle" fill="none"><g id="Icons" transform="translate(0 2)"><path id="Shape" d="m35 36.74c.171351 3.8955028-.2741466 7.7936063-1.32 11.55-5.57 6.27-13.73 6.29-19.32 0-.9522688-3.4580745-1.4101459-7.033556-1.36-10.62.1000304-6.7540669 2.8893878-13.1893844 7.75-17.88 2.1576178.2800426 4.3423822.2800426 6.5 0 4.6311727 4.4685495 7.3999015 10.5240272 7.75 16.95z" fill="#3f51b5"/><path id="Shape" d="m18.36 57c-4.9366521-1.173678-9.34806035-3.9435503-12.55-7.88 2.77.13 5.93-.34 8.08-2.62.8523435 3.7384218 2.3661569 7.2943594 4.47 10.5z" fill="#008a00"/><path id="Shape" d="m13.89 46.5c-2.15 2.28-5.31 2.75-8.08 2.62-3.15689591-3.8632166-4.85900137-8.7112093-4.81-13.7 2.28 1.26 6.45 2.59 12.07.44-.2031225 3.5673721.0726646 7.1458775.82 10.64z" fill="#60a917"/><path id="Shape" d="m15.58 26.91c-1.4181922 2.8065963-2.2710174 5.8645353-2.51 9-5.62 2.09-9.79.77-12.07-.49.0853633-5.6514504 2.39580456-11.0412823 6.43-15 .78 2.37 2.84 5.3 8.15 6.49z" fill="#008a00"/><path id="Shape" d="m20.75 19.79c-2.0984717 2.0768959-3.844665 4.4817113-5.17 7.12-5.31-1.19-7.37-4.12-8.15-6.49 1.80357927-1.8023794 3.8914764-3.295665 6.18-4.42z" fill="#60a917"/><path id="Shape" d="m40.57 20.41c-.77 2.37-2.83 5.31-8.15 6.5-1.3298604-2.6355314-3.0755509-5.0396545-5.17-7.12l7.15-3.79c2.2871927 1.1173353 4.3723737 2.6077158 6.17 4.41z" fill="#549414"/><path id="Shape" d="m47 35.42c-3.7547847 1.9454408-8.1835315 2.1068865-12.07.44-.245423-3.1183971-1.0980789-6.1587437-2.51-8.95 4.7-1.05 7.18-3.55 8.15-6.5 4.0393511 3.9592952 6.3505027 9.3543784 6.43 15.01z" fill="#007900"/><path id="Shape" d="m47 35.42c.0484324 4.986994-1.6496946 9.8337316-4.8 13.7-.9716393.0463807-1.9454784.0062224-2.91-.12-1.9619653-.2157043-3.7904788-1.0981915-5.18-2.5.7462645-3.4942775 1.0220405-7.0726388.82-10.64 3.8859355 1.6697421 8.3159549 1.5082501 12.07-.44z" fill="#549414"/><path id="Shape" d="m42.19 49.12c-3.2019397 3.9364497-7.6133479 6.706322-12.55 7.88 2.0996888-3.2078635 3.6131747-6.7630317 4.47-10.5 2.15 2.28 5.31 2.75 8.08 2.62z" fill="#007900"/><path id="Shape" d="m40.57 20.41c-.77 2.37-2.83 5.31-8.15 6.5-1.3298604-2.6355314-3.0755509-5.0396545-5.17-7.12l7.15-3.79c2.2871927 1.1173353 4.3723737 2.6077158 6.17 4.41z" fill="#60a917"/><path id="Shape" d="m47 35.42c-3.7547847 1.9454408-8.1835315 2.1068865-12.07.44-.245423-3.1183971-1.0980789-6.1587437-2.51-8.95 4.7-1.05 7.18-3.55 8.15-6.5 4.0393511 3.9592952 6.3505027 9.3543784 6.43 15.01z" fill="#008a00"/><path id="Shape" d="m47 35.42c.0484324 4.986994-1.6496946 9.8337316-4.8 13.7-.9716393.0463807-1.9454784.0062224-2.91-.12-1.9619653-.2157043-3.7904788-1.0981915-5.18-2.5.7462645-3.4942775 1.0220405-7.0726388.82-10.64 3.8859355 1.6697421 8.3159549 1.5082501 12.07-.44z" fill="#60a917"/><path id="Shape" d="m42.19 49.12c-3.2019397 3.9364497-7.6133479 6.706322-12.55 7.88 2.0996888-3.2078635 3.6131747-6.7630317 4.47-10.5 2.15 2.28 5.31 2.75 8.08 2.62z" fill="#008a00"/><path id="Shape" d="m40.57 20.41c-.2557084.775143-.6156754 1.5118978-1.07 2.19-1.807121-2.3349041-4.0523888-4.2948429-6.61-5.77l1.51-.83c2.2871927 1.1173353 4.3723737 2.6077158 6.17 4.41z" fill="#549414"/><path id="Shape" d="m47 35.42c-.9457237.5193676-1.9538692.9159048-3 1.18.2161278-5.0505439-1.3719227-10.0132018-4.48-14 .4591858-.6752923.8194958-1.4127491 1.07-2.19 4.0320013 3.9625777 6.33579 9.3572529 6.41 15.01z" fill="#007900"/><path id="Shape" d="m47 35.42c.0484324 4.986994-1.6496946 9.8337316-4.8 13.7-.9716049.0532373-1.9460771.0130529-2.91-.12 2.8491732-3.5270167 4.4991306-7.8708534 4.71-12.4 1.0461308-.2640952 2.0542763-.6606324 3-1.18z" fill="#549414"/><path id="Shape" d="m42.19 49.12c-3.2019397 3.9364497-7.6133479 6.706322-12.55 7.88.25-.41.5-.82.75-1.25 3.4842992-1.4706064 6.544262-3.7913648 8.9-6.75.9605929.1327811 1.931721.1729657 2.9.12z" fill="#007900"/><path id="Shape" d="m35 13.6c0 5.4-7.13 6.69-12.5 6.4s-9.5-2.35-9.5-6.4c.0786424-1.7741262.7077625-3.4797408 1.8-4.88.2319923.37087749.5147328.7074734.84 1 2.1309945-.93974951 4.5590055-.93974951 6.69 0 1.0674206-.94089618 1.6762558-2.29710394 1.67-3.72-.0046016 1.41756022.5999911 2.76878844 1.66 3.71 2.1304272-.92583608 4.5495728-.92583608 6.68 0 .3283335-.29230531.6144084-.62886405.85-1 1.0977693 1.4017803 1.7305366 3.1113008 1.81 4.89z" fill="#283593"/><path id="Shape" d="m22.5 20c-5.37-.31-9.5-2.31-9.5-6.36.0786424-1.7741262.7077625-3.4797408 1.8-4.88.2319923.37087749.5147328.7074734.84 1 2.1309945-.93974951 4.5590055-.93974951 6.69 0 .8382546-.73626546 1.3964047-1.73952265 1.58-2.84l.16.05c.1996186 1.08060379.755963 2.06300947 1.58 2.79 1.5209726-.68072093 3.2165485-.8695067 4.85-.54 3.33 4.95 1.4 10.2-8 10.78z" fill="#3f51b5"/><path id="Shape" d="m22.34 9.71c-1.0627767-.43169938-2.1935185-.67206665-3.34-.71-1.1489884.04386722-2.2820013.28399832-3.35.71-1.5387134-1.38497423-2.0647886-3.57496367-1.3230596-5.5077416.7417291-1.93277794 2.597844-3.20857042 4.6680596-3.20857042s3.9263305 1.27579248 4.6680596 3.20857042c.741729 1.93277793.2156538 4.12276737-1.3230596 5.5077416z" fill="#f5f5f5"/><path id="Shape" d="m34 6c.0059008 1.41783511-.5989203 2.76957395-1.66 3.71-2.1294174-.93068097-4.5505826-.93068097-6.68 0-1.7099306-1.53493726-2.1535718-4.03771203-1.075411-6.06686564 1.0781609-2.0291536 3.4005338-3.06224755 5.6295615-2.50427734 2.2290277.5579702 3.7908109 2.56334608 3.7858495 4.86114298z" fill="#cfd8dc"/><path id="Shape" d="m29.94 9.07c-.8122266-.12333592-1.6405899-.0893866-2.44.1-.8000944-.18435801-1.6275029-.21826819-2.44-.1-1.0103834-1.29213855-1.3227428-2.99767229-.8358767-4.56402411.486866-1.56635182 1.7110309-2.79429072 3.2758767-3.28597589 1.5648458.49168517 2.7890107 1.71962407 3.2758767 3.28597589.4868661 1.56635182.1745067 3.27188556-.8358767 4.56402411z" fill="#f5f5f5"/></g><g id="Layer_10" fill="#000" transform="translate(-1)"><path id="Shape" d="m19.11 60c.3939928.1001378.8093962-.0482006 1.0508424-.3752506.2414463-.3270499.2608785-.767716.0491576-1.1147494-.9830009-1.5653625-1.8583557-3.1957944-2.62-4.88 4.4218636 3.1997461 10.3981364 3.1997461 14.82 0-.762333 1.6838654-1.6376632 3.3142514-2.62 4.88-.2184081.3682089-.1782018.8346023.1 1.16.2437299.2908124.6310543.4186294 1 .33 11.18-2.83 18.11-12.19 18.11-22.33-.0567842-8.4650479-4.8008797-16.2011582-12.32-20.09.6475451-2.3855089.1646753-4.9362409-1.31-6.92.6639344-1.32642789.806653-2.85351722.4-4.28 1.9451371-1.10332338 3.1706161-3.1445237 3.23-5.38 0-.55228475-.4477153-1-1-1s-1 .44771525-1 1c-.0534811 1.46537396-.8334436 2.80780947-2.08 3.58-1.1354024-1.62923893-3.003381-2.59115409-4.9890983-2.56913504-1.9857173.02201904-3.8319064 1.02511952-4.9309017 2.67913504-1.0973194-1.65517162-2.9425252-2.66016861-4.9282558-2.68418954-1.9857305-.02402094-3.8547073.93604643-4.9917442 2.56418954-1.2463126-.76767829-2.0267609-2.10719766-2.08-3.57 0-.55228475-.4477153-1-1-1s-1 .44771525-1 1c.0593839 2.2354763 1.2848629 4.27667662 3.23 5.38-.4106252 1.42611262-.2677691 2.95467189.4 4.28-1.4708126 1.9892763-1.9531932 4.5411064-1.31 6.93-7.40017111 3.8196498-12.12482076 11.3744873-12.32 19.7v.09c-.13 10.81 7.46 20.02 18.11 22.62zm-11-35.76c1.06 2 3.12 4.19 7.08 5.37-1.0570927 2.3931996-1.7319732 4.9374991-2 7.54-3.29631456 1.298196-6.98163553 1.1824646-10.19-.32.20667088-4.6661352 2.00672979-9.1203986 5.1-12.62zm6.29 26.4c.6722829 2.3288691 1.6153922 4.5708514 2.81 6.68-3.0966697-1.1054667-5.9033119-2.8967949-8.21-5.24 1.8983199-.1026431 3.7333479-.7177749 5.31-1.78.04.11.02.1.08.31zm-1.4-11.38c-.0588508 2.9860182.2026439 5.9697393.78 8.9-1.51 1.36-3.68 2-6.5 2-2.48846589-3.2157276-3.95812619-7.1023174-4.22-11.16 3.18597704 1.2214823 6.69452279 1.3132551 9.94.26zm3.24 10.53c-.8754682-3.3005065-1.2927131-6.7057638-1.24-10.12.1206065-6.3149301 2.666512-12.3413139 7.11-16.83 1.9206785.214822 3.8593215.214822 5.78 0 4.443488 4.4886861 6.9893935 10.5150699 7.11 16.83.0494521 3.4146979-.3711587 6.8199629-1.25 10.12-5.12 5.61-12.37 5.61-17.5 0zm25.66-25.58c3.0953666 3.4983043 4.895738 7.9533412 5.1 12.62-3.1926059 1.4728165-6.848292 1.5775743-10.12.29-.2680268-2.6025009-.9429073-5.1468004-2-7.54 3.91-1.17 5.96-3.34 7.02-5.37zm.81 25.92c-2.81 0-5-.61-6.5-2 .5773561-2.9302607.8388508-5.9139818.78-8.9 3.2451125 1.0652338 6.7575742.9840412 9.95-.23-.2724446 4.0479612-1.7451235 7.9228822-4.23 11.13zm-7 .17c1.5708997 1.058816 3.398562 1.673795 5.29 1.78-2.3068547 2.3310956-5.1097173 4.1119388-8.2 5.21 1.2469539-2.2023688 2.2176096-4.5500792 2.89-6.99zm4.69-27.63c-.76 1.85-2.51 4-6.47 5.08-1.0260274-1.9002711-2.2639116-3.678262-3.69-5.3 2.1298669-.3851836 4.0676062-1.477364 5.5-3.1 1.6922646.8974253 3.2590526 2.0136777 4.66 3.32zm-10.4-18.67c1.5492223.00069757 2.9587325.89591666 3.6179745 2.29787609.659242 1.40195944.449655 3.05852504-.5379745 4.25212391-1.9884954-.72975028-4.1715046-.72975028-6.16 0-.9876295-1.19359887-1.1972165-2.85016447-.5379745-4.25212391.659242-1.40195943 2.0687522-2.29717852 3.6179745-2.29787609zm-10 0c1.5492223.00069757 2.9587325.89591666 3.6179745 2.29787609.659242 1.40195944.449655 3.05852504-.5379745 4.25212391-1.9884954-.72975028-4.1715046-.72975028-6.16 0-.9876295-1.19359887-1.1972165-2.85016447-.5379745-4.25212391.659242-1.40195943 2.0687522-2.29717852 3.6179745-2.29787609zm-4 8.45c.2737532.2409348.6569579.3137437 1 .19 4.55-1.76 5.87.81 7-.18.3855228-.3384133.722083-.7288231 1-1.16.277917.4311769.6144772.8215867 1 1.16.2757481.237491.658746.3064307 1 .18 4.57-1.76 5.83.87 7.06-.26.5800866.9767913.9034644 2.0845323.94 3.22 0 5-7.65 5.4-10 5.4s-10-.39-10-5.4c.0312352-1.1322472.3439813-2.2388872.91-3.22zm3.78 10c-1.4260884 1.621738-2.6639726 3.3997289-3.69 5.3-3.95-1.08-5.7-3.23-6.47-5.07 1.4031705-1.3063871 2.969513-2.4256833 4.66-3.33 1.4272383 1.6187579 3.3573248 2.7105951 5.48 3.1z"/><circle id="Oval" cx="21" cy="8" r="1"/><circle id="Oval" cx="29" cy="8" r="1"/><path id="Shape" d="m25 27c-.5522847 0-1 .4477153-1 1v1c0 .5522847.4477153 1 1 1s1-.4477153 1-1v-1c0-.5522847-.4477153-1-1-1z"/><path id="Shape" d="m25 32c-.5522847 0-1 .4477153-1 1v16c0 .5522847.4477153 1 1 1s1-.4477153 1-1v-16c0-.5522847-.4477153-1-1-1z"/></g></g></svg>