<svg height="512" viewBox="0 0 64 64" width="512" xmlns="http://www.w3.org/2000/svg"><g id="_02-Flower" data-name="02-Flower"><rect fill="#35343a" height="1.004" transform="matrix(.996 -.09 .09 .996 -3.858 1.742)" width="0" x="17.317" y="42.998"/><circle cx="21" cy="11" fill="#f5cd62" r="4"/><circle cx="46" cy="19" fill="#f5cd62" r="3"/><path d="m21 19.45c-.84 0-1.9 1.74-2.67 1.53-.81-.21-.85-2.25-1.56-2.66s-2.5.56-3.08-.01.4-2.37-.01-3.08-2.45-.75-2.66-1.56c-.21-.77 1.53-1.83 1.53-2.67s-1.74-1.9-1.53-2.67c.21-.81 2.25-.85 2.66-1.56s-.56-2.5.01-3.08 2.37.4 3.08-.01.75-2.45 1.56-2.66c.77-.21 1.83 1.53 2.67 1.53s1.9-1.74 2.67-1.53c.81.21.85 2.25 1.56 2.66s2.5-.56 3.08.01-.4 2.37.01 3.08 2.45.75 2.66 1.56c.21.77-1.53 1.83-1.53 2.67s1.74 1.9 1.53 2.67c-.21.81-2.25.85-2.66 1.56s.56 2.5-.01 3.08-2.37-.4-3.08.01-.75 2.45-1.56 2.66c-.77.21-1.83-1.53-2.67-1.53zm4-8.45a4 4 0 1 0 -4 4 4 4 0 0 0 4-4z" fill="#ffa8ad"/><path d="m46 22a3 3 0 1 0 -3-3 3 3 0 0 0 3 3zm-2.14 4.99c-.64-.18-.68-1.81-1.24-2.13s-2 .45-2.46-.01.31-1.9-.02-2.47-1.95-.6-2.13-1.24c-.16-.62 1.23-1.47 1.23-2.14s-1.39-1.52-1.23-2.14c.18-.64 1.81-.68 2.13-1.24s-.45-2 .01-2.46 1.9.31 2.47-.02.6-1.95 1.24-2.13c.62-.16 1.47 1.23 2.14 1.23s1.52-1.39 2.14-1.23c.64.18.68 1.81 1.24 2.13s2-.45 2.46.01-.31 1.9.02 2.47 1.95.6 2.13 1.24c.16.62-1.23 1.47-1.23 2.14s1.39 1.52 1.23 2.14c-.18.64-1.81.68-2.13 1.24s.45 2-.01 2.46-1.9-.31-2.47.02-.6 1.95-1.24 2.13c-.62.16-1.47-1.23-2.14-1.23s-1.52 1.39-2.14 1.23z" fill="#ffa8ad"/><g fill="#98ba5c"><path d="m51 32a6.83 6.83 0 0 1 4-4 24.417 24.417 0 0 0 -1 7h-8s0-4 3-6z"/><path d="m16.01 25.32c2.28 1.46 2.46 4.47 1.24 5.8l-.25-.12-7-7s3.95 0 6.01 1.32z"/><path d="m32 24-7 7-.25.12c-1.22-1.33-1.04-4.34 1.24-5.8 2.06-1.32 6.01-1.32 6.01-1.32z"/></g><path d="m25 31 7-7s0 3.95-1.32 6.01c-1.49 2.32-4.57 2.47-5.87 1.18a.435.435 0 0 1 -.06-.07z" fill="#bed264"/><path d="m10 24 7 7 .25.12a.435.435 0 0 1 -.06.07c-1.3 1.29-4.38 1.14-5.87-1.18-1.32-2.06-1.32-6.01-1.32-6.01z" fill="#bed264"/><path d="m41 32 2-3c3 2 3 6 3 6h-8a24.417 24.417 0 0 0 -1-7 6.83 6.83 0 0 1 4 4z" fill="#bed264"/><path d="m57 35v6h-2-46-2v-6h14 17 8 8z" fill="#c48958"/><path d="m13 39a2 2 0 0 1 -2-2v-2h-4v6h50v-2z" fill="#b27a49"/><path d="m55 41-.36 4h-45.28l-.36-4z" fill="#f2bb88"/><path d="m9 41 .36 4h4l-.36-4z" fill="#e3a76f"/><path d="m54.64 45-1.64 18h-42l-1.64-18z" fill="#fff2de"/><path d="m15 59-1.276-14h-4.364l1.64 18h42l.364-4z" fill="#ffe4c2"/><path d="m57 42h-50a1 1 0 0 1 -1-1v-6a1 1 0 0 1 1-1h50a1 1 0 0 1 1 1v6a1 1 0 0 1 -1 1zm-49-2h48v-4h-48z"/><path d="m53 64h-42a1 1 0 0 1 -1-.91l-2-22 2-.18 1.913 21.09h40.174l1.913-21.09 2 .18-2 22a1 1 0 0 1 -1 .91z"/><path d="m9 44h46v2h-46z"/><path d="m14 58h2v2h-2z"/><path d="m18 58h32v2h-32z"/><path d="m43.97 28a1.407 1.407 0 0 1 -.368-.049c-.859-.229-1.155-1.1-1.371-1.742-.043-.127-.1-.3-.152-.424-.142.018-.327.055-.455.08a2.287 2.287 0 0 1 -2.176-.314 2.288 2.288 0 0 1 -.314-2.175c.025-.128.062-.314.081-.456-.128-.052-.3-.109-.425-.152-.639-.217-1.513-.512-1.742-1.371a2.267 2.267 0 0 1 .808-2.02c.093-.105.228-.259.317-.378-.089-.119-.224-.273-.317-.378a2.267 2.267 0 0 1 -.808-2.02c.229-.859 1.1-1.155 1.742-1.371.127-.043.3-.1.424-.152-.018-.142-.055-.327-.08-.455a2.287 2.287 0 0 1 .314-2.176 2.288 2.288 0 0 1 2.175-.314c.128.025.314.062.456.081.052-.128.109-.3.152-.425.217-.639.512-1.513 1.371-1.742a2.257 2.257 0 0 1 2.02.808c.1.093.259.228.378.317.119-.089.273-.224.378-.317a2.269 2.269 0 0 1 2.02-.808c.859.229 1.155 1.1 1.371 1.742.043.127.1.3.152.424.142-.018.327-.055.455-.08a2.285 2.285 0 0 1 2.176.314 2.288 2.288 0 0 1 .314 2.175c-.025.128-.062.314-.081.456.128.052.3.109.425.152.639.217 1.513.512 1.742 1.371a2.267 2.267 0 0 1 -.808 2.02c-.093.105-.228.259-.317.378.089.119.224.273.317.378a2.267 2.267 0 0 1 .808 2.02c-.229.859-1.1 1.155-1.742 1.371-.127.043-.3.1-.424.152.018.142.055.327.08.455a2.287 2.287 0 0 1 -.314 2.176 2.288 2.288 0 0 1 -2.175.314c-.128-.025-.314-.062-.456-.081-.052.128-.109.3-.152.425-.217.639-.512 1.513-1.371 1.742a2.261 2.261 0 0 1 -2.02-.808c-.1-.093-.259-.228-.378-.317-.119.089-.273.224-.378.317a2.685 2.685 0 0 1 -1.652.857zm2.03-3.237a2.677 2.677 0 0 1 1.7.877l.117.1c.022-.063.042-.123.06-.174a2.622 2.622 0 0 1 1.007-1.576 2.646 2.646 0 0 1 1.885-.089l.172.034c-.012-.063-.023-.122-.033-.172a2.645 2.645 0 0 1 .088-1.885 2.622 2.622 0 0 1 1.576-1.007l.173-.06-.1-.117a2.677 2.677 0 0 1 -.877-1.7 2.677 2.677 0 0 1 .877-1.7l.1-.117-.174-.06a2.622 2.622 0 0 1 -1.576-1.007 2.64 2.64 0 0 1 -.089-1.885c.01-.05.022-.11.034-.172l-.172.033a2.63 2.63 0 0 1 -1.885-.088 2.622 2.622 0 0 1 -1.007-1.576c-.018-.051-.038-.111-.06-.173l-.117.1a2.677 2.677 0 0 1 -1.7.877 2.677 2.677 0 0 1 -1.7-.877l-.117-.1c-.022.063-.042.123-.06.174a2.622 2.622 0 0 1 -1.007 1.576 2.635 2.635 0 0 1 -1.885.089l-.172-.034c.012.063.023.122.033.172a2.645 2.645 0 0 1 -.088 1.885 2.622 2.622 0 0 1 -1.576 1.007l-.173.06.1.117a2.677 2.677 0 0 1 .877 1.7 2.677 2.677 0 0 1 -.877 1.7l-.1.117.174.06a2.622 2.622 0 0 1 1.576 1.007 2.64 2.64 0 0 1 .089 1.885c-.01.05-.022.11-.034.172l.172-.033a2.646 2.646 0 0 1 1.885.088 2.622 2.622 0 0 1 1.007 1.576c.018.051.038.111.06.173l.117-.1a2.677 2.677 0 0 1 1.7-.877z"/><path d="m20 19h2v16h-2z"/><path d="m27.053 33a4.158 4.158 0 0 1 -2.947-1.106 4.313 4.313 0 0 1 -1.076-3.507 5.3 5.3 0 0 1 2.416-3.906c2.286-1.464 6.381-1.481 6.554-1.481a1 1 0 0 1 1 1c0 .173-.017 4.268-1.481 6.554a5.306 5.306 0 0 1 -4.466 2.446zm3.9-7.954a10.832 10.832 0 0 0 -4.429 1.119 3.3 3.3 0 0 0 -1.505 2.435 2.348 2.348 0 0 0 .5 1.877 2.358 2.358 0 0 0 1.877.5 3.3 3.3 0 0 0 2.437-1.506 10.832 10.832 0 0 0 1.121-4.425z"/><path d="m21.447 33.9-.894-1.79 3.855-1.927 6.885-6.885 1.414 1.414-7 7a1.028 1.028 0 0 1 -.26.188z"/><path d="m14.947 33a5.306 5.306 0 0 1 -4.466-2.446c-1.464-2.286-1.481-6.381-1.481-6.554a1 1 0 0 1 1-1c.173 0 4.268.017 6.554 1.481a5.3 5.3 0 0 1 2.416 3.906 4.313 4.313 0 0 1 -1.076 3.507 4.158 4.158 0 0 1 -2.947 1.106zm-2.782-3.525a3.3 3.3 0 0 0 2.435 1.506 2.352 2.352 0 0 0 1.877-.5 2.348 2.348 0 0 0 .5-1.877 3.3 3.3 0 0 0 -1.506-2.437 10.832 10.832 0 0 0 -4.429-1.119 10.832 10.832 0 0 0 1.119 4.429z"/><path d="m20.553 33.9-4-2a1.028 1.028 0 0 1 -.26-.188l-7-7 1.414-1.414 6.885 6.885 3.855 1.917z"/><path d="m18.464 22a1.529 1.529 0 0 1 -.4-.052c-.945-.252-1.276-1.23-1.542-2.016a6.158 6.158 0 0 0 -.273-.716 6.02 6.02 0 0 0 -.773.121 2.638 2.638 0 0 1 -2.493-.324 2.635 2.635 0 0 1 -.324-2.494 6 6 0 0 0 .12-.772 6.156 6.156 0 0 0 -.716-.274c-.785-.266-1.763-.6-2.016-1.54-.246-.923.421-1.684.957-2.3a5.751 5.751 0 0 0 .515-.633 5.751 5.751 0 0 0 -.511-.638c-.536-.612-1.2-1.373-.957-2.294.252-.945 1.23-1.276 2.016-1.542a6.158 6.158 0 0 0 .716-.273 6.02 6.02 0 0 0 -.121-.773 2.633 2.633 0 0 1 .324-2.493 2.635 2.635 0 0 1 2.494-.324 6 6 0 0 0 .772.12 6.156 6.156 0 0 0 .274-.716c.266-.785.6-1.763 1.54-2.016.923-.245 1.684.422 2.3.957a5.751 5.751 0 0 0 .634.511 5.751 5.751 0 0 0 .638-.511c.612-.536 1.375-1.2 2.294-.957.945.252 1.276 1.23 1.542 2.016a6.158 6.158 0 0 0 .273.716 6.02 6.02 0 0 0 .773-.121 2.632 2.632 0 0 1 2.493.324 2.635 2.635 0 0 1 .324 2.494 6 6 0 0 0 -.12.772 6.156 6.156 0 0 0 .716.274c.785.266 1.763.6 2.016 1.54.246.923-.421 1.684-.957 2.3a5.751 5.751 0 0 0 -.511.638 5.751 5.751 0 0 0 .511.638c.536.612 1.2 1.373.957 2.294-.252.945-1.23 1.276-2.016 1.542a6.158 6.158 0 0 0 -.716.273 6.02 6.02 0 0 0 .121.773 2.633 2.633 0 0 1 -.324 2.493 2.632 2.632 0 0 1 -2.494.324 6 6 0 0 0 -.772-.12 6.156 6.156 0 0 0 -.274.716c-.266.785-.6 1.763-1.54 2.016-.926.244-1.684-.422-2.3-.957a5.751 5.751 0 0 0 -.634-.515 5.751 5.751 0 0 0 -.638.511 3.126 3.126 0 0 1 -1.898 1.008zm-2.182-4.782a1.939 1.939 0 0 1 .992.239 3.09 3.09 0 0 1 1.147 1.834c.053.157.127.377.2.553.143-.112.3-.255.423-.358a3.162 3.162 0 0 1 1.956-1.032 3.164 3.164 0 0 1 1.957 1.033c.117.1.28.246.422.358.073-.176.147-.4.2-.553a3.09 3.09 0 0 1 1.147-1.834 3.115 3.115 0 0 1 2.183-.083c.159.032.383.076.568.1-.025-.186-.069-.409-.1-.568a3.114 3.114 0 0 1 .082-2.183 3.09 3.09 0 0 1 1.834-1.147c.157-.053.377-.127.553-.2-.112-.143-.255-.3-.358-.423a3.162 3.162 0 0 1 -1.034-1.954 3.164 3.164 0 0 1 1.033-1.957c.1-.117.246-.28.358-.422-.176-.073-.4-.147-.553-.2a3.09 3.09 0 0 1 -1.834-1.147 3.12 3.12 0 0 1 -.083-2.183c.032-.159.076-.383.1-.568-.186.025-.409.069-.568.1a3.114 3.114 0 0 1 -2.183-.082 3.09 3.09 0 0 1 -1.147-1.834c-.053-.157-.127-.377-.2-.553-.143.112-.3.255-.423.358a3.162 3.162 0 0 1 -1.954 1.034 3.164 3.164 0 0 1 -1.957-1.033c-.117-.1-.28-.246-.422-.358-.073.176-.147.4-.2.553a3.09 3.09 0 0 1 -1.147 1.834 3.115 3.115 0 0 1 -2.183.083c-.159-.032-.383-.076-.568-.1.025.186.069.409.1.568a3.114 3.114 0 0 1 -.082 2.183 3.09 3.09 0 0 1 -1.834 1.147c-.157.053-.377.127-.553.2.112.143.255.3.358.423a3.162 3.162 0 0 1 1.034 1.954 3.164 3.164 0 0 1 -1.033 1.957c-.1.117-.246.28-.358.422.176.073.4.147.553.2a3.09 3.09 0 0 1 1.834 1.147 3.12 3.12 0 0 1 .083 2.183c-.032.159-.076.383-.1.568.186-.025.409-.069.568-.1a6.205 6.205 0 0 1 1.189-.158z"/><path d="m21 16a5 5 0 1 1 5-5 5.006 5.006 0 0 1 -5 5zm0-8a3 3 0 1 0 3 3 3 3 0 0 0 -3-3z"/><path d="m46 23a4 4 0 1 1 4-4 4 4 0 0 1 -4 4zm0-6a2 2 0 1 0 2 2 2 2 0 0 0 -2-2z"/><path d="m45 25h2v10h-2z"/><path d="m47 35h-2c0-.185.039-4.562 3.445-6.832a1 1 0 0 1 1.387.277l1.062 1.593a7.36 7.36 0 0 1 3.79-2.987 1 1 0 0 1 1.265 1.264 23.685 23.685 0 0 0 -.949 6.685h-2a26.717 26.717 0 0 1 .469-4.942 6.158 6.158 0 0 0 -1.52 2.258 1 1 0 0 1 -1.781.239l-1.387-2.08a7.308 7.308 0 0 0 -1.781 4.525z"/><path d="m45 35a7.308 7.308 0 0 0 -1.781-4.528l-1.387 2.08a1 1 0 0 1 -1.781-.239 6.31 6.31 0 0 0 -1.518-2.249 26.763 26.763 0 0 1 .467 4.936h-2a23.492 23.492 0 0 0 -.949-6.684 1 1 0 0 1 1.265-1.265 7.36 7.36 0 0 1 3.79 2.987l1.062-1.593a1 1 0 0 1 1.387-.277c3.406 2.27 3.445 6.647 3.445 6.832h-1z"/></g></svg>