<svg height="512" viewBox="0 0 60 61" width="512" xmlns="http://www.w3.org/2000/svg"><g id="003---Ant" fill="none"><g id="Icons" transform="translate(17 1)"><path id="Shape" d="m25.44 38.44c0 8.84-12.44 19.56-12.44 19.56-4.93-4.25-12.44-12.86-12.44-19.56s3.18-10.36 7.69-11.77c2.9192145 1.7704219 6.5807855 1.7704219 9.5 0 4.51 1.41 7.69 5.1 7.69 11.77z" fill="#783e22"/><path id="Shape" d="m22.44 38.44c0 6.92-7.63 15-10.94 18.18-3.31-3.18-10.94-11.26-10.94-18.18 0-6.67 3.18-10.36 7.69-11.77 2.476012 1.498321 5.511005 1.7500034 8.2.68 3.55 1.75 5.99 5.29 5.99 11.09z" fill="#a0522d"/><path id="Shape" d="m20 23c0 4.41-7.37 6.59-11.75 3.67-3.55-2.34-2.78-6.51 1.51-8.1 2.1216899.5753251 4.3583101.5753251 6.48 0 2.24.83 3.76 2.5 3.76 4.43z" fill="#6d4122"/><path id="Shape" d="m11.5 27.88c-2.73-.42-5.5-2.21-5.5-4.88 0-1.93 1.52-3.6 3.76-4.43 1.4093676.3825006 2.8755525.5111727 4.33.38 4.91 2.51 3.27 8.05-2.59 8.93z" fill="#91562d"/><path id="Shape" d="m21.67 9c.3628711.59974981.6136193 1.2605051.74 1.95l-2.73 6c-4.0314849 2.7412638-9.3285151 2.7412638-13.36 0l-2.73-6c.12638074-.6894949.37712891-1.35025019.74-1.95-1.22532537-1.87217911-1.54818731-4.19458374-.88-6.33.26225238-.95266329.68131731-1.85500472 1.24-2.67 0 0 1 4.07 6.81 4.67 2.77.29 5.94-.15 8-2 .8404303-.70387358 1.4673561-1.62867573 1.81-2.67 0 0 3.3 4.41.36 9z" fill="#783e22"/><path id="Shape" d="m18.67 9c.3628711.59974981.6136193 1.2605051.74 1.95l-2.73 6c-1.5272236 1.0986702-3.3107122 1.7872759-5.18 2-1.87036857-.2083131-3.65494029-.8973369-5.18-2l-2.73-6c.12638074-.6894949.37712891-1.35025019.74-1.95-1.22532537-1.87217911-1.54818731-4.19458374-.88-6.33 2.11 1.89 5.28 2.32 8.05 2 2.77.29 5.94-.15 8-2 .6828865 2.12804.3784334 4.44995298-.83 6.33z" fill="#a0522d"/><path id="Shape" d="m11 13c0 2.209139-1.790861 4-4 4s-4-1.790861-4-4 1.790861-4 4-4 4 1.790861 4 4z" fill="#f5f5f5"/><path id="Shape" d="m23 13c.0040734 2.0125606-1.4877913 3.7147474-3.4835086 3.9746114-1.9957172.259864-3.8737324-1.003528-4.385171-2.9500242-.5114387-1.9464961.5029839-3.9698713 2.3686796-4.7245872 1.231661-.49823456 2.630331-.35239625 3.732715.38920749 1.1023839.74160371 1.7645959 1.98217701 1.767285 3.31079251z" fill="#cfd8dc"/><path id="Shape" d="m17.49 16.7c-1.5004686-.6163554-2.4801316-2.0778718-2.4801316-3.7s.979663-3.08364463 2.4801316-3.7c1.5004686.61635537 2.4801316 2.0778718 2.4801316 3.7s-.979663 3.0836446-2.4801316 3.7z" fill="#f5f5f5"/></g><g id="Layer_10" fill="#000"><circle id="Oval" cx="24" cy="13" r="1"/><circle id="Oval" cx="36" cy="13" r="1"/><path id="Shape" d="m30 42c-.5522847 0-1 .4477153-1 1v1c0 .5522847.4477153 1 1 1s1-.4477153 1-1v-1c0-.5522847-.4477153-1-1-1z"/><path id="Shape" d="m1 23h3.86l6.33 1.81c1 .27.8.19 10.93.19v.15l-12 5.24c-1.25079046.5576862-2.22408546 1.5958676-2.7 2.88l-3.28 9.18-2.85 2.84c-.39212214.3921222-.39212212 1.0278778.00000004 1.42.39212215.3921221 1.02787778.3921221 1.41999996 0l1.29-1.3v2.59c0 .5522847.44771525 1 1 1s1-.4477153 1-1v-4.82l3.35-9.18c.27710888-.7954857.875893-1.4378177 1.65-1.77l12-5.23c.1.1266667.21.2566667.33.39-4.4 2-6.8 6.26-6.8 12.1 0 9.19 12.27 19.87 12.79 20.32.374224.3200877.925776.3200877 1.3 0 .52-.45 12.79-11.13 12.79-20.32 0-5.84-2.4-10.07-6.8-12.1.12-.1266667.23-.2566667.33-.39l12.06 5.23c.774107.3321823 1.3728911.9745143 1.65 1.77l3.35 9.18v4.82c0 .5522847.4477153 1 1 1s1-.4477153 1-1v-2.59l1.29 1.3c.3921222.3921222 1.0278778.3921222 1.42 0s.3921222-1.0278778 0-1.42l-2.85-2.84-3.33-9.19c-.4801235-1.2791538-1.4525071-2.3127616-2.7-2.87l-12-5.24v-.15c10.29 0 10 .07 10.93-.19l6.38-1.81h3.86c.5522847 0 1-.4477153 1-1s-.4477153-1-1-1h-2.38l1.27-2.55c.1932607-.3211808.1906728-.7234705-.0067041-1.0421383-.1973768-.3186678-.5563928-.5001928-.9300368-.4702434s-.6991617.2663431-.8432591.6123817l-1.81 3.61-6 1.72c-.56.16 0 .12-10.32.12l7.25-4.34c1.0635775-.6466055 1.8533607-1.6605164 2.22-2.85l2.5-8.35 2.85-3.86c.3313708-.4418278.2418278-1.06862915-.2-1.4s-1.0686292-.2418278-1.4.2l-1.66 2.21-.54-2.81c-.0714531-.3572656-.3280774-.64927284-.6732051-.76602543-.3451276-.11675258-.7263255-.04051301-1 .20000001-.2736745.24051301-.398248.60875983-.3267949.96602542l1 4.8-2.48 8.28c-.2148735.7157592-.6891561 1.3255511-1.33 1.71l-7.09 4.25c-.3986726-.5606784-.8848736-1.0536322-1.44-1.46.5046419-.2453076.9894375-.5294981 1.45-.85 1.5305702-.3466422 2.809592-1.391779 3.4542445-2.8225931s.5801341-3.0812823-.1742445-4.4574069c-.1088799-.5547531-.2904453-1.0927246-.54-1.6 2.74-4.89-.56-9.4-.71-9.6-.2318544-.3085166-.6205448-.45608115-.998728-.37916254-.3781831.07691861-.678351.36458991-.771272.73916254 0 0-1.07 4-7.34 4s-7.33-3.9-7.37-4.05c-.092921-.37457263-.3930889-.66224393-.771272-.73916254-.3781832-.07691861-.7668736.07064594-.998728.37916254-.15.2-3.45 4.71-.71 9.6-.2495547.5072754-.4311201 1.0452469-.54 1.6-.7543786 1.3761246-.818897 3.0265928-.1742445 4.4574069s1.9236743 2.4759509 3.4542445 2.8225931c.460948.3198988.945696.6040614 1.45.85-.5551264.4063678-1.0413274.8993216-1.44 1.46l-7.08-4.25c-.6446147-.3825734-1.1226536-.9926081-1.34-1.71l-2.51-8.23 1-4.8c.0714531-.35726559-.0531204-.72551239-.3267949-.9660254s-.6548724-.31675258-1-.2c-.3451277.11675258-.601752.40875981-.6732051.7660254l-.56 2.81-1.64-2.21c-.21435935-.28581247-.5649147-.43555473-.91961524-.39282032s-.65965882.27145311-.8.6c-.14034119.32854688-.09474411.70700785.11961524.99282032l2.89 3.86 2.5 8.35c.3665989 1.192412 1.1607613 2.2073729 2.23 2.85l7.24 4.34c-10.24 0-9.75.05-10.32-.12l-6-1.72-1.85-3.61c-.1440974-.3460386-.46961514-.5824323-.84325912-.6123817-.37364399-.0299494-.73265995.1515756-.93003682.4702434-.19737686.3186678-.19996479.7209575-.00670406 1.0421383l1.27 2.55h-2.38c-.55228475 0-1 .4477153-1 1s.44771525 1 1 1zm32.15-2.38c1.76.73 2.85 2 2.85 3.38 0 3.43-6.34 5.39-10.2 2.84-2.8-1.84-2.23-4.84 1.05-6.22 2.0696475.5049368 4.2303525.5049368 6.3 0zm8.29 18.82c0 7.15-8.92 15.89-11.44 18.21-2.52-2.32-11.44-11.06-11.44-18.21 0-5.49 2.3-9.15 6.62-10.67 1.1784407.6489838 2.4796735 1.0441226 3.82 1.16v9.07c0 .5522847.4477153 1 1 1s1-.4477153 1-1v-9.07c1.3403265-.1158774 2.6415593-.5110162 3.82-1.16 4.32 1.52 6.62 5.23 6.62 10.67zm-5.44-22.44c-1.6568542 0-3-1.3431458-3-3s1.3431458-3 3-3 3 1.3431458 3 3-1.3431458 3-3 3zm-14.34-13.86c1.14 1.6 3.52 3.61 8.34 3.61s7.2-2 8.33-3.6c.878647 2.02397709.7028081 4.3510364-.47 6.22-2.4073314-.79707531-5.0301474.33420376-6.1025247 2.6321552-1.0723773 2.2979513-.2546875 5.0347997 1.9025247 6.3678448-2.3719036.8152427-4.9480964.8152427-7.32 0 2.1572122-1.3330451 2.974902-4.0698935 1.9025247-6.3678448-1.0723773-2.29795144-3.6951933-3.42923051-6.1025247-2.6321552-1.1795471-1.86979502-1.3592035-4.20158534-.48-6.23zm-.66 10.86c0-1.6568542 1.3431458-3 3-3s3 1.3431458 3 3-1.3431458 3-3 3-3-1.3431458-3-3z"/></g></g></svg>