<svg height="512" viewBox="0 0 48 48" width="512" xmlns="http://www.w3.org/2000/svg"><g id="calculator"><path d="m41 4c0 42.69.06 40.22-.13 40.87a3 3 0 0 1 -2.87 2.13h-28a3 3 0 0 1 -3-3v-40a3 3 0 0 1 3-3h28a3 3 0 0 1 3 3z" fill="#7c7d7d"/><path d="m41 4c0 42.69.06 40.22-.13 40.87-.69.2-28 .13-27.87.13a4 4 0 0 1 -4-4c0-41.63-.06-39.22.13-39.87.69-.2 28.97-.13 28.87-.13a3 3 0 0 1 3 3z" fill="#919191"/><g fill="#dad7e5"><path d="m21 36h6v6h-6z"/><path d="m21 26h6v6h-6z"/><path d="m11 36h6v6h-6z"/></g><path d="m17 36v5a5 5 0 0 1 -5-5z" fill="#edebf2"/><path d="m27 36v5a5 5 0 0 1 -5-5z" fill="#edebf2"/><path d="m11 26h6v6h-6z" fill="#dad7e5"/><path d="m31 26h6v16h-6z" fill="#db5669"/><path d="m37 26c0 14.74-.1 14 0 14a4 4 0 0 1 -4-4v-10z" fill="#f26674"/><path d="m11 6h26v14h-26z" fill="#dad7e5"/><path d="m37 6v12h-12a12 12 0 0 1 -12-12z" fill="#edebf2"/><path d="m17 26v5a5 5 0 0 1 -5-5z" fill="#edebf2"/><path d="m27 26v5a5 5 0 0 1 -5-5z" fill="#edebf2"/><path d="m38 0h-28a4 4 0 0 0 -4 4v40a4 4 0 0 0 4 4h28a4 4 0 0 0 4-4v-40a4 4 0 0 0 -4-4zm2 44a2 2 0 0 1 -2 2h-28a2 2 0 0 1 -2-2v-40a2 2 0 0 1 2-2h28a2 2 0 0 1 2 2z"/><path d="m27 35h-6a1 1 0 0 0 -1 1v6a1 1 0 0 0 1 1h6a1 1 0 0 0 1-1v-6a1 1 0 0 0 -1-1zm-1 6h-4v-4h4z"/><path d="m27 25h-6a1 1 0 0 0 -1 1v6a1 1 0 0 0 1 1h6a1 1 0 0 0 1-1v-6a1 1 0 0 0 -1-1zm-1 6h-4v-4h4z"/><path d="m17 35h-6a1 1 0 0 0 -1 1v6a1 1 0 0 0 1 1h6a1 1 0 0 0 1-1v-6a1 1 0 0 0 -1-1zm-1 6h-4v-4h4z"/><path d="m17 25h-6a1 1 0 0 0 -1 1v6a1 1 0 0 0 1 1h6a1 1 0 0 0 1-1v-6a1 1 0 0 0 -1-1zm-1 6h-4v-4h4z"/><path d="m37 25h-6a1 1 0 0 0 -1 1v16a1 1 0 0 0 1 1h6a1 1 0 0 0 1-1v-16a1 1 0 0 0 -1-1zm-1 16h-4v-14h4z"/><path d="m37 5h-26a1 1 0 0 0 -1 1v14a1 1 0 0 0 1 1h26a1 1 0 0 0 1-1v-14a1 1 0 0 0 -1-1zm-1 14h-24v-12h24z"/></g></svg>