<svg id="svg8" height="512" viewBox="0 0 111 111" width="512" xmlns="http://www.w3.org/2000/svg" xmlns:svg="http://www.w3.org/2000/svg"><g id="layer1"><g id="g852"><g fill="#1a1c20"><path id="path1029-3-3-3-4-9-9-3-5-0" d="m42.148461 8.9251805c-1.515165-2.5654997 1.996566-5.8357057 4.206102-1.8360956 2.604891 6.6100981 8.174812 27.6600681 8.914945 34.4453561l-3.986942 1.349689c-1.783908-9.116814-7.198971-28.69275-9.134105-33.9589495z"/><path id="path1029-3-3-3-4-9-9-3-5-0-9" d="m68.390555 7.7963633c1.515165-2.5654967-1.99657-5.8357025-4.206112-1.8360932-2.604877 6.6100959-8.174803 27.6600769-8.914935 34.4453539l3.986934 1.349677c1.783913-9.116812 7.199018-28.692723 9.134113-33.9589377z"/><path id="path1029-3-3-3-4-9-9-3-5" d="m50.221765 3.3599148c-1.077519-2.80483958 2.910792-5.3826869 4.44032-1.03791 1.496676 6.9887268 3.578214 28.7450372 3.20966 35.5646282l-4.14575.598918c-.282462-9.307571-2.4499-29.5834663-3.50423-35.1256362z"/></g><path id="path854" d="m55.500267 36.267844c-3.370694.000006-1.749824-.03501-3.60276-.035-29.915468-.000004-24.939029 35.017126-.655639 46.33337 5.267328 2.454604 2.251329 24.531136 4.25838 26.009126 2.007021-1.478-1.009959-23.554526 4.257389-26.009147 24.283395-11.316232 29.260782-46.333349-.654699-46.333348-1.852869-.000006-.231986.03499-3.602671.035z" fill="#9f5f80"/><path id="path847" d="m74.240234 47.332031a4.8494449 4.8494449 0 0 0 -4.742187 4.578125c-.201901 3.621244-1.53842 8.292692-3.65625 12.207032-2.11783 3.914339-5.017151 6.975982-7.59375 8.177734a4.8494449 4.8494449 0 0 0 -2.345703 6.445312 4.8494449 4.8494449 0 0 0 6.445312 2.345704c5.36145-2.500635 9.231943-7.190447 12.025391-12.353516 2.793447-5.163069 4.508218-10.895752 4.808594-16.283203a4.8494449 4.8494449 0 0 0 -4.572266-5.111328 4.8494449 4.8494449 0 0 0 -.369141-.0059z" fill="#804c68" font-variant-ligatures="normal" font-variant-position="normal" font-variant-caps="normal" font-variant-numeric="normal" font-variant-alternates="normal" font-variant-east-asian="normal" font-feature-settings="normal" font-variation-settings="normal" text-indent="0" text-align="start" text-decoration-line="none" text-decoration-style="solid" text-decoration-color="#000000" text-transform="none" text-orientation="mixed" white-space="normal" shape-padding="0" shape-margin="0" inline-size="0" isolation="auto" mix-blend-mode="normal" solid-color="#000000" solid-opacity="1" vector-effect="none"/><path id="path851" d="m51.898438 33.808594c-7.951904-.000001-13.986706 2.376218-17.878907 6.382812-3.892201 4.006595-5.493526 9.47908-5.195312 15.09375.596428 11.229341 8.440426 23.442714 21.392578 29.478516-.0248-.01156.818488 1.002519 1.253906 3.171875s.622974 5.113421.699219 8.064453c.07625 2.951032.04979 5.9124.134766 8.31836.04249 1.20298.107581 2.25963.257812 3.19922s-.02802 1.88454 1.5 3.00976a2.4249625 2.4249625 0 0 0 2.875 0c1.528045-1.12527 1.349806-2.07016 1.5-3.00976s.215375-1.99624.257812-3.19922c.08488-2.40596.05864-5.367329.134766-8.31836.07612-2.951031.263883-5.895107.699219-8.064453.435336-2.169347 1.276765-3.183438 1.251953-3.171875 12.952142-6.03579 20.797842-18.249188 21.394531-29.478516.298345-5.614664-1.303193-11.087136-5.195312-15.09375s-9.925047-6.382813-17.876953-6.382812c-1.883402-.000006-.249618.03515-3.603516.03516-3.353907.000006-1.718084-.03517-3.601562-.03516zm0 4.849609c1.822399-.00001.214073.03516 3.601562.03516 3.387468-.000009 1.781167-.03516 3.603516-.03516 7.005832 0 11.568945 1.999382 14.398437 4.912109 2.829492 2.912728 4.074024 6.902887 3.832031 11.457032-.483984 9.108289-7.268359 20.061354-18.599609 25.341797-1.845751.860132-2.657091 2.481698-3.234375 4.253906-.577331-1.772183-1.388641-3.393784-3.234375-4.253906-11.331238-5.280444-18.115838-16.233513-18.599609-25.341797-.241886-4.554143 1.002445-8.544283 3.832031-11.457032 2.829586-2.912748 7.39456-4.91211 14.400391-4.912109z" fill="#1a1c20" font-variant-ligatures="normal" font-variant-position="normal" font-variant-caps="normal" font-variant-numeric="normal" font-variant-alternates="normal" font-variant-east-asian="normal" font-feature-settings="normal" font-variation-settings="normal" text-indent="0" text-align="start" text-decoration-line="none" text-decoration-style="solid" text-decoration-color="#000000" text-transform="none" text-orientation="mixed" white-space="normal" shape-padding="0" shape-margin="0" inline-size="0" isolation="auto" mix-blend-mode="normal" solid-color="#000000" solid-opacity="1" vector-effect="none"/><path id="path855" d="m50.017578 39.314453a2.424715 2.424715 0 0 0 -.01172.002c-6.972865.243825-11.476175 3.154155-13.730468 6.8125-2.254294 3.658346-2.393716 7.681914-1.957032 10.496094a2.424715 2.424715 0 0 0 2.767579 2.023438 2.424715 2.424715 0 0 0 2.023437-2.767579c-.292993-1.888171-.129562-4.897282 1.294922-7.208984s3.976255-4.30712 9.771484-4.509766a2.424715 2.424715 0 0 0 2.337891-2.507812 2.424715 2.424715 0 0 0 -2.496094-2.339844z" fill="#fff" font-variant-ligatures="normal" font-variant-position="normal" font-variant-caps="normal" font-variant-numeric="normal" font-variant-alternates="normal" font-variant-east-asian="normal" font-feature-settings="normal" font-variation-settings="normal" text-indent="0" text-align="start" text-decoration-line="none" text-decoration-style="solid" text-decoration-color="#000000" text-transform="none" text-orientation="mixed" white-space="normal" shape-padding="0" shape-margin="0" inline-size="0" isolation="auto" mix-blend-mode="normal" solid-color="#000000" solid-opacity="1" vector-effect="none"/></g></g></svg>