<svg height="512" viewBox="0 0 48 48" width="512" xmlns="http://www.w3.org/2000/svg"><g id="Line"><path d="m46 10.12c0 2.12-.81 4.12-2.29 5.65l-26.71 27.58c-8.472 8.086-20.454-3.844-12.35-12.35 0 0 27.58-26.71 27.58-26.71 4.988-4.993 13.886-1.215 13.77 5.83z" fill="#609c48"/><g><path d="m43.49 4.25-4.75 1.73c-1.309.523-2.363 1.638-2.85 2.99-.71 1.78-2.14 3.21-3.92 3.92-1.538.537-2.683 1.819-3.19 3.35-.64 1.6-1.84 2.91-3.39 3.68l-1.71.86c-1.485.698-2.365 2.124-2.78 3.67-.69 2.09-2.36 3.76-4.45 4.45-1.596.424-2.958 1.512-3.56 3.07-.71 1.78-2.14 3.21-3.92 3.92-1.355.489-2.466 1.539-3 2.88 0 0-1.62 4.45-1.62 4.45-.56-.6-1.03-1.27-1.4-2l1.15-3.16c.72-1.81 2.15-3.24 3.93-3.95 1.355-.489 2.465-1.539 3-2.88.77-1.93 2.34-3.41 4.31-4.06 1.692-.445 3.125-1.667 3.67-3.35.547-2.073 1.832-3.888 3.78-4.83 0 0 1.71-.86 1.71-.86 1.274-.617 2.164-1.779 2.61-3.1.71-1.78 2.14-3.21 3.92-3.92 1.355-.489 2.466-1.539 3-2.88.687-1.866 2.15-3.385 4-4.12l3.46-1.26c.74.36 1.41.84 2 1.4z" fill="#92b77e"/></g><g><path d="m45.9 8.83-3.16 1.15c-1.309.523-2.363 1.638-2.85 2.99-.71 1.78-2.14 3.21-3.92 3.92-1.538.537-2.683 1.819-3.19 3.35-.64 1.6-1.84 2.91-3.39 3.68l-1.71.86c-1.485.698-2.365 2.124-2.78 3.67-.69 2.09-2.36 3.76-4.45 4.45-1.596.424-2.958 1.512-3.56 3.07-.735 1.85-2.254 3.313-4.12 4-2.365.773-3.181 3.766-4.12 5.77-.66-.15-1.28-.39-1.87-.69l1.35-3.05c.713-1.819 2.237-3.284 4.1-3.97 1.27-.51 2.29-1.53 2.8-2.8.824-2.105 2.628-3.624 4.79-4.22 1.801-.568 3.002-2.16 3.44-3.95.6-1.79 1.85-3.23 3.53-4.07l1.71-.86c1.274-.617 2.164-1.779 2.61-3.1.71-1.78 2.14-3.21 3.92-3.92 1.355-.489 2.466-1.539 3-2.88.687-1.866 2.15-3.385 4-4.12l3.31-1.2c.26.61.45 1.25.56 1.92z" fill="#92b77e"/></g><path d="m37.882 2c-2.12 0-4.125.812-5.648 2.287l-27.579 26.717c-8.095 8.499 3.824 20.444 12.341 12.341 0 0 26.717-27.579 26.717-27.579 4.977-4.997 1.238-13.855-5.831-13.766zm-31.836 30.441 27.579-26.717c1.234-1.194 2.919-1.831 4.634-1.705-1.948.709-3.513 2.263-4.228 4.208-.533 1.343-1.644 2.394-3.001 2.883-1.779.711-3.208 2.14-3.919 3.919-.448 1.327-1.336 2.483-2.611 3.102 0 0-1.711.856-1.711.856-1.681.84-2.934 2.284-3.528 4.067-.443 1.786-1.639 3.384-3.439 3.95-2.16.598-3.966 2.123-4.79 4.222-.509 1.274-1.532 2.297-2.805 2.806-1.905.703-3.444 2.217-4.163 4.117-.297-2.082.472-4.25 1.982-5.708zm-.948 8.505.87-2.174c.533-1.343 1.644-2.394 3.001-2.883 1.779-.711 3.208-2.14 3.919-3.919.605-1.557 1.969-2.644 3.565-3.067 2.089-.696 3.752-2.359 4.449-4.449.405-1.55 1.295-2.975 2.78-3.677 2.113-.921 4.291-2.252 5.097-4.536.503-1.532 1.651-2.815 3.19-3.352 1.849-.736 3.31-2.253 3.998-4.117.51-1.272 1.533-2.295 2.806-2.804l2.439-.976c.96.625 1.73 1.513 2.217 2.56-2.389.77-4.545 2.215-5.397 4.676-.533 1.343-1.645 2.394-3.002 2.883-1.779.711-3.208 2.14-3.919 3.919-.448 1.327-1.336 2.483-2.611 3.102 0 0-1.711.856-1.711.856-1.956.943-3.232 2.765-3.784 4.834-.544 1.679-1.978 2.902-3.667 3.345-1.967.656-3.537 2.136-4.307 4.062-.533 1.343-1.645 2.394-3.001 2.883-2.255.84-3.691 2.905-4.402 5.127-1.027-.537-1.898-1.329-2.53-2.293zm37.178-26.571-26.717 27.579c-1.532 1.593-3.864 2.352-6.037 1.932 0 0 .446-1.114.446-1.114.533-1.343 1.644-2.394 3.001-2.883 1.779-.711 3.208-2.14 3.919-3.919.605-1.557 1.969-2.644 3.565-3.067 2.089-.696 3.752-2.359 4.449-4.449.405-1.55 1.295-2.975 2.78-3.677 0 0 1.711-.856 1.711-.856 1.543-.771 2.746-2.078 3.386-3.679.485-1.46 1.542-2.71 2.993-3.273 1.934-.711 3.484-2.262 4.195-4.195.63-1.749 2.316-2.736 4-3.283.187 1.792-.431 3.591-1.691 4.884z"/></g></svg>