<svg height="512" viewBox="0 0 48 48" width="512" xmlns="http://www.w3.org/2000/svg"><g id="calendar_desk" data-name="calendar desk"><path d="m1 6h40v8h-40z" fill="#db5669"/><path d="m41 6v6h-32a6 6 0 0 1 -6-6z" fill="#f26674"/><path d="m1 14h40v30h-40z" fill="#dad7e5"/><path d="m41 14v28h-34a4 4 0 0 1 -4-4v-24z" fill="#edebf2"/><path d="m8 8v-4a1 1 0 0 1 2 0v4a1 1 0 0 1 -2 0z" fill="#dad7e5"/><path d="m12 8v-4a1 1 0 0 1 2 0v4a1 1 0 0 1 -2 0z" fill="#dad7e5"/><path d="m32 8v-4a1 1 0 0 1 2 0v4a1 1 0 0 1 -2 0z" fill="#dad7e5"/><path d="m28 8v-4a1 1 0 0 1 2 0v4a1 1 0 0 1 -2 0z" fill="#dad7e5"/><path d="m7 19h6v4h-6z" fill="#c6c3d8"/><path d="m18 19h6v4h-6z" fill="#c6c3d8"/><path d="m29 19h6v4h-6z" fill="#c6c3d8"/><path d="m7 27h6v4h-6z" fill="#c6c3d8"/><path d="m18 27h6v4h-6z" fill="#c6c3d8"/><path d="m29 27h6v4h-6z" fill="#c6c3d8"/><path d="m7 35h6v4h-6z" fill="#c6c3d8"/><path d="m13 35v2h-2a2 2 0 0 1 -2-2z" fill="#dad7e5"/><path d="m18 35h6v4h-6z" fill="#c6c3d8"/><path d="m29 35h6v4h-6z" fill="#c6c3d8"/><path d="m47 40h-3l-3 4v-38c6.72 38.05 5.32 30.1 6 34z" fill="#db5669"/><path d="m46.65 38h-2.65l-1 1.33v-22z" fill="#f26674"/><g fill="#dad7e5"><path d="m13 27v2h-2a2 2 0 0 1 -2-2z"/><path d="m13 19v2h-2a2 2 0 0 1 -2-2z"/><path d="m24 35v2h-2a2 2 0 0 1 -2-2z"/><path d="m24 27v2h-2a2 2 0 0 1 -2-2z"/><path d="m24 19v2h-2a2 2 0 0 1 -2-2z"/><path d="m35 35v2h-2a2 2 0 0 1 -2-2z"/><path d="m35 27v2h-2a2 2 0 0 1 -2-2z"/><path d="m35 19v2h-2a2 2 0 0 1 -2-2z"/></g><path d="m7 24h6a1 1 0 0 0 1-1v-4a1 1 0 0 0 -1-1h-6a1 1 0 0 0 -1 1v4a1 1 0 0 0 1 1zm1-4h4v2h-4z"/><path d="m18 24h6a1 1 0 0 0 1-1v-4a1 1 0 0 0 -1-1h-6a1 1 0 0 0 -1 1v4a1 1 0 0 0 1 1zm1-4h4v2h-4z"/><path d="m29 24h6a1 1 0 0 0 1-1v-4a1 1 0 0 0 -1-1h-6a1 1 0 0 0 -1 1v4a1 1 0 0 0 1 1zm1-4h4v2h-4z"/><path d="m7 32h6a1 1 0 0 0 1-1v-4a1 1 0 0 0 -1-1h-6a1 1 0 0 0 -1 1v4a1 1 0 0 0 1 1zm1-4h4v2h-4z"/><path d="m18 32h6a1 1 0 0 0 1-1v-4a1 1 0 0 0 -1-1h-6a1 1 0 0 0 -1 1v4a1 1 0 0 0 1 1zm1-4h4v2h-4z"/><path d="m29 32h6a1 1 0 0 0 1-1v-4a1 1 0 0 0 -1-1h-6a1 1 0 0 0 -1 1v4a1 1 0 0 0 1 1zm1-4h4v2h-4z"/><path d="m7 40h6a1 1 0 0 0 1-1v-4a1 1 0 0 0 -1-1h-6a1 1 0 0 0 -1 1v4a1 1 0 0 0 1 1zm1-4h4v2h-4z"/><path d="m18 40h6a1 1 0 0 0 1-1v-4a1 1 0 0 0 -1-1h-6a1 1 0 0 0 -1 1v4a1 1 0 0 0 1 1zm1-4h4v2h-4z"/><path d="m29 40h6a1 1 0 0 0 1-1v-4a1 1 0 0 0 -1-1h-6a1 1 0 0 0 -1 1v4a1 1 0 0 0 1 1zm1-4h4v2h-4z"/><path d="m42 5.83a1 1 0 0 0 -1-.83h-7v-1a1 1 0 0 0 -2 0v1h-2v-1a1 1 0 0 0 -2 0v1h-14v-1a1 1 0 0 0 -2 0v1h-2v-1a1 1 0 0 0 -2 0v1h-7a1 1 0 0 0 -1 1v38a1 1 0 0 0 1 1c43 0 40.1.09 40.51-.16s.15-.05 3-3.84h2.49a1 1 0 0 0 1-1.17zm-40 1.17h6v1a1 1 0 0 0 2 0v-1h2v1a1 1 0 0 0 2 0v-1h14v1a1 1 0 0 0 2 0v-1h2v1a1 1 0 0 0 2 0v-1h6v6h-38zm38 36h-38v-28h38zm2-2v-23.58l3.81 21.58c-2.7 0-2.05-.34-3.81 2z"/></g></svg>