<svg id="svg8" height="512" viewBox="0 0 111 111" width="512" xmlns="http://www.w3.org/2000/svg" xmlns:svg="http://www.w3.org/2000/svg"><g id="layer1"><g id="g852"><path id="path1029-3-3-3-4-7" d="m48.924775 3.2882286c-1.039749-2.96937443 3.219094-5.242157 5.030361-.7784456 3.726089 9.182632 4.383867 19.090795 3.709887 24.419008l-4.739692.299548c-.277129-8.664715-.829358-14.883621-4.000556-23.9401104z" fill="#1a1c20"/><path id="path906" d="m55.500151 99.31468-20.831728 2.80832c-.515691 1.49047-2.043114 2.4456.09276 4.72379 2.442203 2.60492 18.766602 2.92277 20.738956-4.5386 1.972317 7.46136 18.297101 7.14352 20.739289 4.5386 2.135884-2.2782.608157-3.23333.09243-4.72379z" fill="#153e90"/><path id="path968" d="m55.437223 96.843747a2.4727429 2.4727429 0 0 0 -.266567.02124l-20.832707 2.808601a2.4727429 2.4727429 0 0 0 -2.006971 1.641892c-.06457.18662-.638486.80382-1.008315 2.26775-.369829 1.46392.247171 3.47524 1.634166 4.95465 1.533406 1.63557 3.29062 1.87897 5.43949 2.19434s4.652371.3662 7.189553.0772c2.537184-.28893 5.102759-.90549 7.344086-2.09389.943299-.50016 1.789279-1.20037 2.571009-1.95868.781524.7579 1.628075 1.45873 2.571008 1.95868 2.241356 1.1884 4.804931 1.80497 7.342153 2.09389 2.537223.28894 5.042587.2381 7.191486-.0772 2.148899-.31537 3.904131-.55874 5.437559-2.19434 1.387034-1.47946 2.004145-3.49075 1.634165-4.95465-.36998-1.46391-.943785-2.08319-1.008315-2.26968a2.4727429 2.4727429 0 0 0 -2.006971-1.639958l-20.830776-2.808601a2.4727429 2.4727429 0 0 0 -.394053-.02124zm-2.603848 5.325523c-.373739.81566-1.019056 1.53946-2.221382 2.17696-1.450543.76911-3.488626 1.31051-5.584364 1.54917-2.095736.23866-4.254211.18767-5.914673-.056-1.660462-.24369-2.860132-1.01691-2.54783-.6838-.748884-.79878-.436974-.40541-.448138-.36121-.0024.009.15455-.34623.1893-.39599zm5.335182 0 16.525157 2.22911c.03476.0498.191675.40538.1893.39599-.01117-.0442.30071-.43754-.448139.36121.312333-.33314-.887333.44011-2.54783.6838-1.660496.24369-3.816956.29468-5.912741.056-2.095785-.23866-4.135722-.78006-5.586295-1.54917-1.202078-.63736-1.845639-1.36155-2.219452-2.17696z" fill="#1a1c20" font-variant-ligatures="normal" font-variant-position="normal" font-variant-caps="normal" font-variant-numeric="normal" font-variant-alternates="normal" font-variant-east-asian="normal" font-feature-settings="normal" font-variation-settings="normal" text-indent="0" text-align="start" text-decoration-line="none" text-decoration-style="solid" text-decoration-color="#000000" text-transform="none" text-orientation="mixed" white-space="normal" shape-padding="0" shape-margin="0" inline-size="0" isolation="auto" mix-blend-mode="normal" solid-color="#000000" solid-opacity="1" vector-effect="none"/><path id="path856" d="m50.185513 22.405681c-.243934-.0081-.486819.000057-.728175.02753-45.9793441 5.230686-51.516404 70.346527-12.481148 81.338639 3.611894 1.01706 12.33087-3.871993 18.52397-3.872002 6.193068 0 14.912069 4.889092 18.523937 3.872002 39.035263-10.992112 33.498213-76.107952-12.481129-81.338638-1.930857-.219663-3.944906.826043-6.042809.826045-1.835677.000002-3.606923-.800584-5.314645-.853569z" fill="#0e49b5"/><path id="path972" d="m93.053926 49.912689a4.5595887 4.5595887 0 0 0 -1.247838.20089 4.5595887 4.5595887 0 0 0 -3.024943 5.694467c2.559168 8.350623 2.448882 16.329566-.363148 23.08886-2.812031 6.759294-8.298322 12.518743-17.560514 16.449822a4.5595887 4.5595887 0 0 0 -2.416479 5.978422 4.5595887 4.5595887 0 0 0 5.978417 2.41647c11.085056-4.704739 18.660937-12.310381 22.418582-21.342656 3.757647-9.032275 3.724307-19.271788.662552-29.262372a4.5595887 4.5595887 0 0 0 -4.446629-3.223903z" fill="#0a3585" font-variant-ligatures="normal" font-variant-position="normal" font-variant-caps="normal" font-variant-numeric="normal" font-variant-alternates="normal" font-variant-east-asian="normal" font-feature-settings="normal" font-variation-settings="normal" text-indent="0" text-align="start" text-decoration-line="none" text-decoration-style="solid" text-decoration-color="#000000" text-transform="none" text-orientation="mixed" white-space="normal" shape-padding="0" shape-margin="0" inline-size="0" isolation="auto" mix-blend-mode="normal" solid-color="#000000" solid-opacity="1" vector-effect="none"/><path id="path976" d="m50.262367 19.933679c-.353097-.01163-.716352.000457-1.08558.0425-24.122271 2.745118-37.925686 21.415227-40.2939533 40.664825-2.3683312 19.25012 6.6503443 39.661716 27.4234543 45.511306 1.650256.46468 3.161339.20972 4.751827-.14294 1.590488-.35267 3.260606-.88994 4.968171-1.43907 3.415129-1.09827 7.028755-2.1982 9.474681-2.19821 2.4459 0 6.057619 1.09993 9.472749 2.19821 1.707565.54913 3.377681 1.0864 4.96817 1.43907 1.59049.35266 3.101564.60765 4.751828.14294 20.773113-5.84959 29.791786-26.261189 27.423456-45.511308-2.368329-19.250118-16.170476-37.9205-40.293955-40.664826-2.998361-.341107-5.045947.811287-6.322248.811287-.98336 0-2.628277-.556043-4.61275-.751407a2.4727429 2.4727429 0 0 0 -.620056-.102377c-.0026-.000083-.0032.000081-.0058 0zm-.160327 4.94306a2.4727429 2.4727429 0 0 0 .0077 0c.989062.03069 2.836651.855715 5.3912.855715 2.919522 0 4.898721-.940412 5.762074-.842193 21.85586 2.486358 33.81155 18.989915 35.947768 36.353412 2.136225 17.363498-5.5955 35.006563-23.857651 40.149077-.155669.0438-1.087449.0674-2.341144-.21055-1.253696-.27798-2.828023-.77331-4.525826-1.319304-3.395607-1.091997-7.238054-2.435794-10.985221-2.435794-3.747171.000005-7.591544 1.343802-10.987153 2.435794-1.697804.545994-3.272125 1.041324-4.525826 1.319304-1.253701.27799-2.185454.25439-2.341145.21055-18.262119-5.142514-25.991913-22.785578-23.855692-40.149077 2.136222-17.363498 14.089973-33.86705 35.945837-36.353412.111517-.0127.232093-.018.365079-.01352z" fill="#1a1c20" font-variant-ligatures="normal" font-variant-position="normal" font-variant-caps="normal" font-variant-numeric="normal" font-variant-alternates="normal" font-variant-east-asian="normal" font-feature-settings="normal" font-variation-settings="normal" text-indent="0" text-align="start" text-decoration-line="none" text-decoration-style="solid" text-decoration-color="#000000" text-transform="none" text-orientation="mixed" white-space="normal" shape-padding="0" shape-margin="0" inline-size="0" isolation="auto" mix-blend-mode="normal" solid-color="#000000" solid-opacity="1" vector-effect="none"/><path id="path980" d="m44.776517 26.769743a2.2797893 2.2797893 0 0 0 -.546654.07148c-11.030268 2.81109-19.926164 11.634343-23.70312 19.304777a2.2797893 2.2797893 0 0 0 1.039221 3.051987 2.2797893 2.2797893 0 0 0 3.051986-1.037289c3.092986-6.281398 11.432431-14.530265 20.738058-16.90183a2.2797893 2.2797893 0 0 0 1.647686-2.771899 2.2797893 2.2797893 0 0 0 -2.227177-1.717226z" fill="#fff" font-variant-ligatures="normal" font-variant-position="normal" font-variant-caps="normal" font-variant-numeric="normal" font-variant-alternates="normal" font-variant-east-asian="normal" font-feature-settings="normal" font-variation-settings="normal" text-indent="0" text-align="start" text-decoration-line="none" text-decoration-style="solid" text-decoration-color="#000000" text-transform="none" text-orientation="mixed" white-space="normal" shape-padding="0" shape-margin="0" inline-size="0" isolation="auto" mix-blend-mode="normal" solid-color="#000000" solid-opacity="1" vector-effect="none"/></g></g></svg>