<svg height="512" viewBox="0 0 48 48" width="512" xmlns="http://www.w3.org/2000/svg"><g id="Line"><path d="m37 13h-12c-.552 0-1 .448-1 1v12.731c.126 6.871-5.335 13.117-12.135 13.993-1.507.034-2.876 1.081-2.865 2.67 0 1.437 1.169 2.606 2.606 2.606h4.879c11.559.218 21.75-9.947 21.515-21.515v-10.485c0-.552-.448-1-1-1z" fill="#e26667"/><path d="m39.832 15.445c-.983-1.387-1.987-2.993-2.524-4.602-1.116-1.821-3.176-2.913-5.308-2.843v-5c0-.552-.448-1-1-1s-1 .448-1 1v5c-2.132-.07-4.192 1.022-5.308 2.844-.535 1.605-1.547 3.218-2.525 4.602-.447.629.058 1.579.833 1.554 1.947 0 3.771-.851 5.018-2.309l2.182 2.909c.188.252.485.4.8.4s.611-.148.8-.4l2.182-2.909c1.247 1.458 3.071 2.309 5.018 2.309.772.024 1.283-.923.832-1.555z" fill="#92b77e"/><path d="m19.86 36.726c-2.297 2.311-5.391 3.738-8.623 4.087-3.148.501-2.85 5.132.37 5.187h4.879c11.558.217 21.748-9.947 21.514-21.515v-7.57c.329.05.661.085 1 .085.771.025 1.284-.924.832-1.555-.986-1.38-1.985-2.998-2.524-4.602-1.116-1.821-3.176-2.913-5.308-2.843v-5c0-.552-.448-1-1-1s-1 .448-1 1v5c-2.132-.07-4.192 1.022-5.308 2.844-.408 1.05-.829 2.101-1.479 3.033-.493.88-1.565 1.816-1.095 2.595.361.708 1.238.531 1.882.443v9.816c0 3.775-1.47 7.325-4.14 9.995zm6.593-24.925c.728-1.113 1.992-1.801 3.326-1.801h2.441c1.334 0 2.599.688 3.326 1.801.314.915.723 1.794 1.22 2.623-.633-.351-1.184-.852-1.599-1.475l-.336-.504c-.356-.565-1.251-.599-1.632-.045 0 0-2.2 2.934-2.2 2.934l-2.199-2.934c-.386-.546-1.276-.521-1.632.045 0 0-.336.504-.336.504-.415.623-.965 1.124-1.599 1.475.497-.829.906-1.708 1.22-2.623zm1.565 2.89 2.182 2.909c.372.529 1.227.526 1.6 0 0 0 2.182-2.909 2.182-2.909.566.663 1.256 1.192 2.018 1.581v8.214c.213 10.491-9.031 19.713-19.515 19.514h-4.879c-.741.003-.786-1.125-.086-1.208 3.655-.431 7.153-2.039 9.754-4.653 3.048-3.047 4.726-7.098 4.726-11.408v-10.459c.762-.389 1.452-.919 2.018-1.581z"/></g></svg>