<?xml version="1.0" encoding="iso-8859-1"?>
<!-- Generator: Adobe Illustrator 19.0.0, SVG Export Plug-In . SVG Version: 6.00 Build 0)  -->
<svg xmlns="http://www.w3.org/2000/svg" xmlns:xlink="http://www.w3.org/1999/xlink" version="1.1" id="Layer_1" x="0px" y="0px" viewBox="0 0 511.999 511.999" style="enable-background:new 0 0 511.999 511.999;" xml:space="preserve">
<path style="fill:#871B00;" d="M90.946,309.594c17.145,88.447,84.533,191.958,165.052,191.958  c79.82,0,146.737-101.722,164.595-189.651l-164.824-60.35L90.946,309.594z"/>
<path style="fill:#FF5764;" d="M183.005,134.364c-56.946,20.587-96.278,66.818-96.278,134.167c0,15.523,2.101,32.317,6.013,49.53  c11.212-7.441,20.199-17.133,37.108-17.133c27.43,0,34.942,25.517,63.065,25.53c28.124-0.013,35.635-25.53,63.065-25.53  c27.438,0,34.004,25.531,63.084,25.531c29.08,0,33.537-25.531,63.085-25.531h0.071c17.895,0,26.591,9.357,37.125,16.741  c3.856-17.076,5.926-33.733,5.926-49.138c0-67.889-39.966-114.321-97.654-134.658L183.005,134.364z"/>
<path style="fill:#9AE523;" d="M255.961,146.307v-0.019c-0.172-0.121-37.571-30.714-37.221-68.139  c0.36-37.437,37.06-67.561,37.221-67.695v-0.01v0.015V10.45v0.011c0.309,0.256,39.189,30.781,38.837,68.145  C294.448,116.123,255.961,146.307,255.961,146.307z"/>
<g>
	<path style="fill:#1A8400;" d="M352.202,50.227l0.008-0.008l-0.003,0.003c-0.174-0.016-33.433-3.284-59.927,11.123   c1.625,5.517,2.574,11.3,2.518,17.26c-0.336,36.073-35.913,65.352-38.652,67.554c0.006,0.064,0.01,0.108,0.012,0.113l-0.014,0.014   c0,0,48.558,5.871,75.334-20.411C358.147,99.703,352.24,50.627,352.202,50.227z"/>
	<path style="fill:#1A8400;" d="M255.849,146.198c-2.159-1.777-37.45-31.684-37.109-68.049c0.053-5.537,0.916-10.909,2.324-16.053   c-26.699-15.27-61.095-11.891-61.272-11.874l-0.007-0.007l0.01,0.01l0.002,0.002c-0.038,0.4-5.944,49.475,20.724,75.648   c26.776,26.281,75.334,20.411,75.334,20.411l-0.014-0.014C255.842,146.268,255.845,146.238,255.849,146.198z"/>
</g>
<g>
	<polygon style="fill:#9AE523;" points="352.214,50.215 352.21,50.219 352.203,50.226  "/>
	<polygon style="fill:#9AE523;" points="352.214,50.215 352.21,50.219 352.203,50.226  "/>
</g>
<path d="M234.736,467.07c-1.704,0-3.431-0.417-5.029-1.297c-26.185-14.412-51.144-38.949-72.183-70.96  c-3.169-4.822-1.83-11.3,2.993-14.471c4.822-3.172,11.3-1.829,14.471,2.993c19.177,29.176,41.583,51.352,64.798,64.13  c5.055,2.783,6.898,9.136,4.115,14.193C241.996,465.115,238.421,467.07,234.736,467.07z"/>
<path d="M150.373,372.405c-3.756,0-7.374-2.029-9.229-5.6l-0.08-0.157c-2.674-5.115-0.719-11.473,4.396-14.147  c5.112-2.673,11.403-0.742,14.077,4.374l0.109,0.208c2.661,5.12,0.69,11.471-4.43,14.132  C153.661,372.023,152.004,372.405,150.373,372.405z"/>
<path d="M131.658,280.808c-5.77,0-10.449-4.678-10.449-10.449v-14.235c0-5.771,4.679-10.449,10.449-10.449  s10.449,4.678,10.449,10.449v14.235C142.107,276.13,137.428,280.808,131.658,280.808z"/>
<path d="M193.829,262c-5.77,0-10.449-4.678-10.449-10.449v-14.234c0-5.771,4.679-10.449,10.449-10.449s10.449,4.678,10.449,10.449  v14.234C204.278,257.322,199.599,262,193.829,262z"/>
<path d="M255.999,280.808c-5.77,0-10.449-4.678-10.449-10.449v-14.235c0-5.771,4.679-10.449,10.449-10.449  s10.449,4.678,10.449,10.449v14.235C266.448,276.13,261.769,280.808,255.999,280.808z"/>
<path d="M318.17,262c-5.77,0-10.449-4.678-10.449-10.449v-14.234c0-5.771,4.679-10.449,10.449-10.449s10.449,4.678,10.449,10.449  v14.234C328.619,257.322,323.94,262,318.17,262z"/>
<path d="M380.341,280.808c-5.77,0-10.449-4.678-10.449-10.449v-14.235c0-5.771,4.679-10.449,10.449-10.449  s10.449,4.678,10.449,10.449v14.235C390.79,276.13,386.111,280.808,380.341,280.808z"/>
<path d="M161.437,203.455c-5.77,0-10.449-4.678-10.449-10.449v-14.234c0-5.771,4.679-10.449,10.449-10.449  s10.449,4.678,10.449,10.449v14.234C171.886,198.777,167.207,203.455,161.437,203.455z"/>
<path d="M223.608,222.263c-5.77,0-10.449-4.678-10.449-10.449V197.58c0-5.771,4.679-10.449,10.449-10.449  c5.77,0,10.449,4.678,10.449,10.449v14.235C234.057,217.585,229.378,222.263,223.608,222.263z"/>
<path d="M285.779,203.455c-5.77,0-10.449-4.678-10.449-10.449v-14.234c0-5.771,4.679-10.449,10.449-10.449  s10.449,4.678,10.449,10.449v14.234C296.228,198.777,291.549,203.455,285.779,203.455z"/>
<path d="M347.95,222.263c-5.77,0-10.449-4.678-10.449-10.449V197.58c0-5.771,4.679-10.449,10.449-10.449s10.449,4.678,10.449,10.449  v14.235C358.398,217.585,353.719,222.263,347.95,222.263z"/>
<path d="M256.965,74.507c-0.836,0-1.684-0.101-2.532-0.311c-5.6-1.394-9.01-7.063-7.616-12.664l0.059-0.234  c1.394-5.6,7.069-9.007,12.663-7.616c5.6,1.394,9.01,7.063,7.616,12.664l-0.059,0.234C265.914,71.331,261.651,74.507,256.965,74.507  z"/>
<path d="M435.72,268.531c0-35.1-9.866-65.879-29.323-91.483c-15.638-20.576-37.37-37.118-63.338-48.336  c23.838-28.416,20.282-72.471,19.571-79.242c-0.17-2.362-1.142-4.681-2.916-6.514c-1.799-1.858-4.123-2.905-6.514-3.132v-0.003  c-1.316-0.125-28.876-2.6-55.1,7.401c-10.937-24.033-31.002-41.175-35.211-44.597C261.044,0.992,258.619,0,255.961,0  c-2.629,0-5.029,0.972-6.866,2.575c-2.548,2.142-23.002,19.874-33.946,45.117c-25.127-10.058-51.415-8.308-55.973-7.906  c-2.336,0.137-4.64,1.056-6.488,2.766c-2.025,1.876-3.143,4.374-3.322,6.936c-0.709,6.758-4.264,50.813,19.575,79.226  c-26.21,11.322-48.117,28.079-63.782,48.918c-19.163,25.493-28.881,56.076-28.881,90.897c0,13.493,1.504,27.944,4.439,43.054  c-0.009-0.001-0.019-0.001-0.028-0.002c9.208,47.498,31.37,96.201,60.806,133.618c15.977,20.311,33.357,36.352,51.657,47.679  c20.494,12.687,41.64,19.12,62.847,19.12c40.19,0,79.511-22.753,113.714-65.801c29.255-36.82,51.533-85.012,61.121-132.22  l-0.02-0.001C434.065,297.998,435.72,282.733,435.72,268.531z M342.311,60.363c0.227,14.204-1.672,41.88-18.153,58.055  c-11.71,11.494-28.893,15.806-42.896,17.277c11.4-13.733,23.768-33.9,23.983-56.991c0.037-3.911-0.299-7.739-0.918-11.475  C318.166,61.649,333.1,60.461,342.311,60.363z M256.137,24.626c7.987,7.737,20.884,22.229,26.01,39.229  c0.063,0.25,0.13,0.498,0.211,0.745c1.288,4.493,2.035,9.153,1.991,13.908c-0.151,16.273-9.107,31.357-17.901,42.28V98.44  c0-5.771-4.679-10.449-10.449-10.449s-10.449,4.678-10.449,10.449v21.607c-8.306-10.922-16.511-25.794-16.361-41.798  c0.043-4.405,0.702-8.724,1.806-12.897c0.006-0.02,0.01-0.041,0.018-0.061C235.692,47.649,248.325,32.612,256.137,24.626z   M169.69,60.365c9.543,0.104,25.24,1.373,39.478,7.485c-0.525,3.331-0.843,6.732-0.877,10.201  c-0.218,23.277,11.888,43.759,23.106,57.708c-14.123-1.404-31.663-5.666-43.559-17.342C171.375,102.26,169.469,74.577,169.69,60.365  z M186.557,144.191c0.225-0.082,0.438-0.18,0.654-0.275c19.51,11.331,42.639,13.389,56.807,13.388c5.76,0,10.029-0.337,11.98-0.528  c1.951,0.19,6.218,0.529,11.981,0.528c14.157,0,37.258-2.055,56.755-13.358c57.258,20.419,90.087,65.79,90.087,124.584  c0,9.784-0.878,20.185-2.617,31.063c-7.496-4.862-16.869-9.116-30.056-9.116c-18.339,0-29.307,8.292-38.121,14.955  c-7.815,5.908-13.988,10.575-24.964,10.575c-11.331,0-17.962-4.863-26.359-11.02c-9.271-6.801-19.784-14.51-36.724-14.51  c-17.014,0-27.756,7.771-37.236,14.626c-8.419,6.09-15.067,10.899-25.826,10.903c-10.767-0.004-17.415-4.814-25.834-10.903  c-9.477-6.855-20.221-14.626-37.235-14.626c-12.984,0-22.191,4.526-29.962,9.702c-1.802-11.09-2.711-21.687-2.711-31.651  C97.177,210.046,129.754,164.725,186.557,144.191z M353.352,433.2c-29.669,37.339-64.241,57.903-97.352,57.903  c-33.407,0-68.238-20.89-98.079-58.823c-23.989-30.493-43.372-70.607-53.358-109.774c0.303-0.222,0.608-0.444,0.908-0.664  c7.976-5.848,14.275-10.467,24.379-10.467c10.249,0,16.753,4.704,24.987,10.661c9.631,6.966,20.545,14.86,38.081,14.868  c17.528-0.007,28.444-7.902,38.074-14.869c8.235-5.956,14.738-10.661,24.987-10.661c10.099,0,16.395,4.617,24.367,10.465  c9.153,6.712,20.545,15.066,38.717,15.066c17.988,0,28.843-8.208,37.567-14.803c7.929-5.993,14.19-10.728,25.589-10.728  c11.25,0,17.509,4.666,25.359,10.597C397.527,361.714,377.728,402.52,353.352,433.2z"/>
<g>
</g>
<g>
</g>
<g>
</g>
<g>
</g>
<g>
</g>
<g>
</g>
<g>
</g>
<g>
</g>
<g>
</g>
<g>
</g>
<g>
</g>
<g>
</g>
<g>
</g>
<g>
</g>
<g>
</g>
</svg>
