<svg height="512" viewBox="0 0 64 64" width="512" xmlns="http://www.w3.org/2000/svg"><g id="_07-Umbrella" data-name="07-Umbrella"><path d="m30 48h4v3h-4z" fill="#5998bd"/><path d="m63 18a2 2 0 0 1 -4 0c0-1.1 2-4 2-4s2 2.9 2 4z" fill="#a3d4ff"/><path d="m61 19a2 2 0 0 1 -1.919-1.469 1.762 1.762 0 0 0 -.081.469 2 2 0 0 0 4 0 1.762 1.762 0 0 0 -.081-.469 2 2 0 0 1 -1.919 1.469z" fill="#65b1fc"/><path d="m63 36s-6 0-9 5c0 0-4-28-22-32 .68 0 1.35.02 2 .06 25.2 1.29 29 26.94 29 26.94z" fill="#ffb13b"/><path d="m57 8a2 2 0 0 1 -4 0c0-1.1 2-4 2-4s2 2.9 2 4z" fill="#a3d4ff"/><path d="m57 50a2 2 0 0 1 -4 0c0-1.1 2-4 2-4s2 2.9 2 4z" fill="#a3d4ff"/><path d="m54 41s-3-4-7-4-7 4-7 4 0-23-8-32c18 4 22 32 22 32z" fill="#f5d882"/><path d="m45 5a2 2 0 0 1 -4 0c0-1.1 2-4 2-4s2 2.9 2 4z" fill="#a3d4ff"/><path d="m30 37.16a8.223 8.223 0 0 0 -6 3.84s0-23 8-32c8 9 8 32 8 32a8.223 8.223 0 0 0 -6-3.84 12.58 12.58 0 0 0 -4 0z" fill="#ffb13b"/><path d="m34 51v6a6.009 6.009 0 0 1 -6 6 6 6 0 0 1 -6-6 2 2 0 0 1 4 0 2.015 2.015 0 0 0 2 2 2.006 2.006 0 0 0 2-2v-6z" fill="#8bc8e8"/><path d="m28 61a6.006 6.006 0 0 1 -5.86-4.723 1.98 1.98 0 0 0 -.14.723 6 6 0 0 0 6 6 6.009 6.009 0 0 0 6-6v-2a6.009 6.009 0 0 1 -6 6z" fill="#5998bd"/><path d="m34 37.16v10.84h-4v-10.84a12.58 12.58 0 0 1 4 0z" fill="#dce1eb"/><path d="m32 37a12.375 12.375 0 0 0 -2 .16v2a12.58 12.58 0 0 1 4 0v-2a12.375 12.375 0 0 0 -2-.16z" fill="#afb4c8"/><path d="m34 9v.06c-.65-.04-1.32-.06-2-.06s-1.35.02-2 .06v-.06l1-6h2z" fill="#dce1eb"/><path d="m30 9.06c.65-.04 1.32-.06 2-.06-18 4-22 32-22 32-3-5-9-5-9-5s3.8-25.65 29-26.94z" fill="#ffb13b"/><path d="m32 9c-8 9-8 32-8 32s-3-4-7-4-7 4-7 4 4-28 22-32z" fill="#f5d882"/><path d="m23 5a2 2 0 0 1 -4 0c0-1.1 2-4 2-4s2 2.9 2 4z" fill="#a3d4ff"/><path d="m11 8a2 2 0 0 1 -4 0c0-1.1 2-4 2-4s2 2.9 2 4z" fill="#a3d4ff"/><path d="m11 50a2 2 0 0 1 -4 0c0-1.1 2-4 2-4s2 2.9 2 4z" fill="#a3d4ff"/><path d="m5 18a2 2 0 0 1 -4 0c0-1.1 2-4 2-4s2 2.9 2 4z" fill="#a3d4ff"/><g fill="#65b1fc"><path d="m55 9a2 2 0 0 1 -1.919-1.469 1.762 1.762 0 0 0 -.081.469 2 2 0 0 0 4 0 1.762 1.762 0 0 0 -.081-.469 2 2 0 0 1 -1.919 1.469z"/><path d="m43 6a2 2 0 0 1 -1.919-1.469 1.762 1.762 0 0 0 -.081.469 2 2 0 0 0 4 0 1.762 1.762 0 0 0 -.081-.469 2 2 0 0 1 -1.919 1.469z"/><path d="m3 19a2 2 0 0 0 1.919-1.469 1.762 1.762 0 0 1 .081.469 2 2 0 0 1 -4 0 1.762 1.762 0 0 1 .081-.469 2 2 0 0 0 1.919 1.469z"/><path d="m9 9a2 2 0 0 0 1.919-1.469 1.762 1.762 0 0 1 .081.469 2 2 0 0 1 -4 0 1.762 1.762 0 0 1 .081-.469 2 2 0 0 0 1.919 1.469z"/><path d="m21 6a2 2 0 0 0 1.919-1.469 1.762 1.762 0 0 1 .081.469 2 2 0 0 1 -4 0 1.762 1.762 0 0 1 .081-.469 2 2 0 0 0 1.919 1.469z"/><path d="m55 51a2 2 0 0 1 -1.919-1.469 1.762 1.762 0 0 0 -.081.469 2 2 0 0 0 4 0 1.762 1.762 0 0 0 -.081-.469 2 2 0 0 1 -1.919 1.469z"/><path d="m9 51a2 2 0 0 1 -1.919-1.469 1.762 1.762 0 0 0 -.081.469 2 2 0 0 0 4 0 1.762 1.762 0 0 0 -.081-.469 2 2 0 0 1 -1.919 1.469z"/></g><path d="m60.543 27.993q-5.523-.033-10.294-.3a63.572 63.572 0 0 1 3.751 13.307c3-5 9-5 9-5a35.874 35.874 0 0 0 -2.457-8.007z" fill="#ffa426"/><path d="m38.73 26.659a98.289 98.289 0 0 1 1.27 14.341s3-4 7-4 7 4 7 4a63.572 63.572 0 0 0 -3.751-13.3c-4.249-.235-8.078-.59-11.519-1.041z" fill="#ffc247"/><path d="m25.742 24.1a96.735 96.735 0 0 0 -1.742 16.9 8.223 8.223 0 0 1 6-3.84 12.58 12.58 0 0 1 4 0 8.223 8.223 0 0 1 6 3.84 98.289 98.289 0 0 0 -1.27-14.341 92.3 92.3 0 0 1 -12.988-2.559z" fill="#ffa426"/><path d="m11.1 16.8c-8.43 7.974-10.1 19.2-10.1 19.2s6 0 9 5c0 0 1.564-10.947 7.137-20.129a24.663 24.663 0 0 1 -6.037-4.071z" fill="#ffa426"/><path d="m17.137 20.871c-5.573 9.182-7.137 20.129-7.137 20.129s3-4 7-4 7 4 7 4a96.735 96.735 0 0 1 1.742-16.9 49.1 49.1 0 0 1 -8.605-3.229z" fill="#ffc247"/><path d="m10.99 41.142-1.98-.284a63.808 63.808 0 0 1 4.323-14.758c4.384-10.117 10.767-16.368 18.45-18.076l.434 1.952c-17.111 3.803-21.188 30.893-21.227 31.166z"/><path d="m53.01 41.142c-.039-.273-4.116-27.363-21.227-31.166l.434-1.952c7.683 1.708 14.066 7.959 18.45 18.076a63.808 63.808 0 0 1 4.323 14.758z"/><path d="m25 41h-2c0-.955.094-23.486 8.252-32.665l1.5 1.33c-7.658 8.61-7.752 31.109-7.752 31.335z"/><path d="m39 41c0-.226-.094-22.725-7.748-31.335l1.5-1.33c8.154 9.179 8.248 31.71 8.248 32.665z"/><path d="m54 42a1 1 0 0 1 -.8-.4c-.026-.035-2.76-3.6-6.2-3.6s-6.174 3.565-6.2 3.6a1 1 0 0 1 -1.694-.155c-.07-.133-1.847-3.445-7.106-3.445s-7.036 3.312-7.109 3.454a1 1 0 0 1 -1.69.148c-.027-.037-2.761-3.602-6.201-3.602s-6.174 3.565-6.2 3.6a1.013 1.013 0 0 1 -.852.4 1 1 0 0 1 -.8-.483c-2.667-4.438-8.096-4.517-8.148-4.517a1 1 0 0 1 -.987-1.146c.039-.279 4.443-27.854 31.987-27.854s31.948 27.575 31.989 27.854a1 1 0 0 1 -.989 1.146c-.052 0-5.481.079-8.143 4.515a1 1 0 0 1 -.8.483zm-22-6a10.171 10.171 0 0 1 8.086 3.388c1.267-1.301 3.786-3.388 6.914-3.388s5.634 2.076 6.9 3.378a12.035 12.035 0 0 1 7.911-4.285c-1.035-4.951-6.688-25.093-29.811-25.093s-28.776 20.142-29.815 25.093a12.035 12.035 0 0 1 7.915 4.285c1.266-1.302 3.78-3.378 6.9-3.378s5.647 2.087 6.914 3.388a10.171 10.171 0 0 1 8.086-3.388z"/><path d="m33.014 9.165-.861-5.165h-.306l-.861 5.165-1.972-.33 1-6a1 1 0 0 1 .986-.835h2a1 1 0 0 1 .986.835l1 6z"/><path d="m28 64a7.008 7.008 0 0 1 -7-7 3 3 0 0 1 6 0 1 1 0 0 0 2 0v-6a1 1 0 0 1 1-1h4a1 1 0 0 1 1 1v6a7.008 7.008 0 0 1 -7 7zm-4-8a1 1 0 0 0 -1 1 5 5 0 0 0 10 0v-5h-2v5a3 3 0 0 1 -6 0 1 1 0 0 0 -1-1z"/><path d="m29 37h2v14h-2z"/><path d="m33 37h2v14h-2z"/><path d="m61 21a3 3 0 0 1 -3-3c0-1.278 1.522-3.621 2.177-4.568a1.038 1.038 0 0 1 1.646 0c.655.947 2.177 3.29 2.177 4.568a3 3 0 0 1 -3 3zm0-5.146a7.457 7.457 0 0 0 -1 2.146 1 1 0 0 0 2 0 7.457 7.457 0 0 0 -1-2.146z"/><path d="m55 11a3 3 0 0 1 -3-3c0-1.278 1.522-3.621 2.177-4.568a1.038 1.038 0 0 1 1.646 0c.655.947 2.177 3.29 2.177 4.568a3 3 0 0 1 -3 3zm0-5.146a7.457 7.457 0 0 0 -1 2.146 1 1 0 0 0 2 0 7.457 7.457 0 0 0 -1-2.146z"/><path d="m43 8a3 3 0 0 1 -3-3c0-1.278 1.522-3.621 2.177-4.568a1.038 1.038 0 0 1 1.646 0c.655.947 2.177 3.29 2.177 4.568a3 3 0 0 1 -3 3zm0-5.146a7.457 7.457 0 0 0 -1 2.146 1 1 0 0 0 2 0 7.457 7.457 0 0 0 -1-2.146z"/><path d="m3 21a3 3 0 0 1 -3-3c0-1.278 1.522-3.621 2.177-4.568a1.038 1.038 0 0 1 1.646 0c.655.947 2.177 3.29 2.177 4.568a3 3 0 0 1 -3 3zm-1-3a1 1 0 0 0 2 0 7.467 7.467 0 0 0 -1-2.146 7.457 7.457 0 0 0 -1 2.146z"/><path d="m9 11a3 3 0 0 1 -3-3c0-1.278 1.522-3.621 2.177-4.568a1.038 1.038 0 0 1 1.646 0c.655.947 2.177 3.29 2.177 4.568a3 3 0 0 1 -3 3zm-1-3a1 1 0 0 0 2 0 7.467 7.467 0 0 0 -1-2.146 7.457 7.457 0 0 0 -1 2.146z"/><path d="m55 11a3 3 0 0 1 -3-3c0-1.278 1.522-3.621 2.177-4.568a1.038 1.038 0 0 1 1.646 0c.655.947 2.177 3.29 2.177 4.568a3 3 0 0 1 -3 3zm0-5.146a7.457 7.457 0 0 0 -1 2.146 1 1 0 0 0 2 0 7.457 7.457 0 0 0 -1-2.146z"/><path d="m9 11a3 3 0 0 1 -3-3c0-1.278 1.522-3.621 2.177-4.568a1.038 1.038 0 0 1 1.646 0c.655.947 2.177 3.29 2.177 4.568a3 3 0 0 1 -3 3zm-1-3a1 1 0 0 0 2 0 7.467 7.467 0 0 0 -1-2.146 7.457 7.457 0 0 0 -1 2.146z"/><path d="m21 8a3 3 0 0 1 -3-3c0-1.278 1.522-3.621 2.177-4.568a1.038 1.038 0 0 1 1.646 0c.655.947 2.177 3.29 2.177 4.568a3 3 0 0 1 -3 3zm-1-3a1 1 0 0 0 2 0 7.467 7.467 0 0 0 -1-2.146 7.457 7.457 0 0 0 -1 2.146z"/><path d="m55 53a3 3 0 0 1 -3-3c0-1.278 1.522-3.621 2.177-4.568a1.038 1.038 0 0 1 1.646 0c.655.947 2.177 3.29 2.177 4.568a3 3 0 0 1 -3 3zm0-5.146a7.457 7.457 0 0 0 -1 2.146 1 1 0 0 0 2 0 7.457 7.457 0 0 0 -1-2.146z"/><path d="m9 53a3 3 0 0 1 -3-3c0-1.278 1.522-3.621 2.177-4.568a1.038 1.038 0 0 1 1.646 0c.655.947 2.177 3.29 2.177 4.568a3 3 0 0 1 -3 3zm-1-3a1 1 0 0 0 2 0 7.467 7.467 0 0 0 -1-2.146 7.457 7.457 0 0 0 -1 2.146z"/><path d="m55 53a3 3 0 0 1 -3-3c0-1.278 1.522-3.621 2.177-4.568a1.038 1.038 0 0 1 1.646 0c.655.947 2.177 3.29 2.177 4.568a3 3 0 0 1 -3 3zm0-5.146a7.457 7.457 0 0 0 -1 2.146 1 1 0 0 0 2 0 7.457 7.457 0 0 0 -1-2.146z"/><path d="m9 53a3 3 0 0 1 -3-3c0-1.278 1.522-3.621 2.177-4.568a1.038 1.038 0 0 1 1.646 0c.655.947 2.177 3.29 2.177 4.568a3 3 0 0 1 -3 3zm-1-3a1 1 0 0 0 2 0 7.467 7.467 0 0 0 -1-2.146 7.457 7.457 0 0 0 -1 2.146z"/><path d="m30 47h4v2h-4z"/></g></svg>