<svg height="512" viewBox="0 0 61 60" width="512" xmlns="http://www.w3.org/2000/svg"><g id="009---Beetle" fill="none"><g id="Icons" transform="translate(14 1)"><path id="Rectangle-path" d="m14 24h4v33h-4z" fill="#673ab7"/><path id="Shape" d="m14 24v32c0 1.1045695-.8954305 2-2 2-5.5228475 0-10-4.4771525-10-10v-24z" fill="#9d27b0"/><path id="Shape" d="m30 24v24c0 5.5228475-4.4771525 10-10 10-1.1045695 0-2-.8954305-2-2v-32z" fill="#6a1b9a"/><path id="Shape" d="m27 24v24c.000398 4.7177235-3.2964644 8.7939958-7.91 9.78-.6686778-.3416633-1.0896309-1.0290914-1.09-1.78v-32z" fill="#9d27b0"/><path id="Shape" d="m24 12h-16c0-4.3-.09-4.89.36-6.37h15.28c.46 1.5.36 2.12.36 6.37z" fill="#283593"/><path id="Shape" d="m21 12h-13c0-4.27-.08-4.89.29-6.37h12.42c.39 1.57.29 2.45.29 6.37z" fill="#3f51b5"/><circle id="Oval" cx="12" cy="4" fill="#f5f5f5" r="4"/><circle id="Oval" cx="20" cy="4" fill="#cfd8dc" r="4"/><path id="Shape" d="m18.5 7.7c-1.5004686-.61635537-2.4801316-2.07787176-2.4801316-3.7s.979663-3.08364463 2.4801316-3.7c1.5004686.61635537 2.4801316 2.07787176 2.4801316 3.7s-.979663 3.08364463-2.4801316 3.7z" fill="#f5f5f5"/><path id="Shape" d="m8 12h16c4.418278 0 8 3.581722 8 8v2c0 1.1045695-.8954305 2-2 2h-28c-1.1045695 0-2-.8954305-2-2v-2c0-4.418278 3.581722-8 8-8z" fill="#6a1b9a"/><path id="Shape" d="m8 12h13c4.418278 0 8 3.581722 8 8v2c0 1.1045695-.8954305 2-2 2h-25c-1.1045695 0-2-.8954305-2-2v-2c0-4.418278 3.581722-8 8-8z" fill="#9d27b0"/></g><g id="Layer_10" fill="#000" transform="translate(-1 -1)"><path id="Shape" d="m1.76 26 3.8 1c3.54 2.65 3.79 3 4.81 3.14l5.63.81v11.6l-4.54 4.09c-.75.68-.74 1-2.24 5.29l-2.63 2.91c-.26512776.2600904-.36426997.6456941-.25747163 1.0014101.10679834.3557159.40194255.6229411.76648741.6939818.36454487.0710407.73843276-.0658067.97098422-.3553919l1.31-1.45.29 2.27c.04465819.3572656.27652299.6635678.6082532.8035254.3317302.1399577.712928.0923079 1-.125s.436405-.5712598.3917468-.9285254l-.53-4.2 1.4-4c.11-.33 0-.15 3.48-3.29v4.74c-.00001 6.0673303 4.9126797 10.9889685 10.98 11 .8480832-.0045533 1.6546153-.3678561 2.22-1h3.56c.5653847.6321439 1.3719168.9954467 2.22 1 6.0751322 0 11-4.9248678 11-11v-4.75l3.21 2.88c.25.23.15.07 1.67 4.43l-.53 4.2c-.0446582.3572656.1046748.7112175.3917468.9285254s.6682698.2649577 1 .125.563595-.4462598.6082532-.8035254l.29-2.28 1.31 1.45c.3778487.3706696.9790941.3827003 1.3714683.0274426s.439954-.9547383.1085317-1.3674426l-2.63-2.91-1.41-4c-.34-1-.47-.93-5.37-5.34v-11.72l5.63-.81c1-.14 1.17-.41 4.81-3.14l3.8-1c.3843675-.0495971.7054682-.3168171.8240582-.6857815.11859-.3689643.0133131-.7732278-.270178-1.0374835s-.6941436-.340915-1.0538802-.196735l-1.89.47 1-2.05c.1932607-.3211808.1906728-.7234705-.0067041-1.0421383-.1973768-.3186678-.5563928-.5001928-.9300368-.4702434s-.6991617.2663431-.8432591.6123817l-1.9 3.79c-3.6 2.7-3.5 2.69-3.86 2.74l-5.33.8v-2c1.2061389-.4263974 2.0091877-1.5707419 2-2.85v-2c-.0021749-4.5819603-3.4464107-8.4308938-8-8.94 0-3.27.08-3.82-.32-5.35 1.98-5.42-5.26-9.27-8.68-4.71-3.42-4.59-10.66-.74-8.68 4.68-.42 1.61-.32 2.32-.32 5.38-4.5535893.5091062-7.9978251 4.3580397-8 8.94v2c.0035644 1.2682549.8042713 2.3972517 2 2.82v2l-5.35-.77c-.35 0-.12.07-3.86-2.74l-1.9-3.79c-.1440974-.3460386-.46961514-.5824323-.84325912-.6123817-.37364399-.0299494-.73265995.1515756-.93003682.4702434-.19737686.3186678-.19996479.7209575-.00670406 1.0421383l1 2.05-1.87-.47c-.26565525-.071912-.5492047-.0311592-.78385451.1126584-.23464981.1438177-.39965467.3779853-.45614549.6473416-.07191196.2656553-.03115919.5492047.11265843.7838545s.37798525.3996547.64734157.4561455zm25.24 33c-4.9705627 0-9-4.0294373-9-9v-23h10v31c0 .5522847-.4477153 1-1 1zm3-1v-31h2v31zm14-8c0 4.9705627-4.0294373 9-9 9-.5522847 0-1-.4477153-1-1v-31h10zm-20-40c1.0540354.8143372 2.3927282 1.1675254 3.7113081.9791568 1.3185799-.1883685 2.5048323-.9022632 3.2886919-1.9791568.7855882 1.074562 1.9715811 1.7866207 3.2893047 1.9748669 1.3177237.1882463 2.6556533-.1632521 3.7106953-.9748669v3h-14zm11-7c1.6568542 0 3 1.34314575 3 3s-1.3431458 3-3 3-3-1.34314575-3-3 1.3431458-3 3-3zm-8 0c1.4976036-.0025746 2.7677141 1.09970509 2.9760009 2.58275593.2082869 1.48305084-.7090576 2.89254728-2.1494335 3.30259674s-2.9625308-.30496475-3.5665674-1.67535267c-.4085684-.92692595-.3217739-1.99743831.2307822-2.84643869.552556-.84900037 1.4962436-1.36181986 2.5092178-1.36356131zm-11 19c0-3.8659932 3.1340068-7 7-7h16c3.8659932 0 7 3.1340068 7 7v2c0 .5522847-.4477153 1-1 1h-28c-.5522847 0-1-.4477153-1-1z"/><circle id="Oval" cx="28" cy="6" r="1"/><circle id="Oval" cx="34" cy="6" r="1"/><path id="Shape" d="m22 19h1c.5522847 0 1-.4477153 1-1s-.4477153-1-1-1h-1c-.5522847 0-1 .4477153-1 1s.4477153 1 1 1z"/><path id="Shape" d="m27 19h13c.5522847 0 1-.4477153 1-1s-.4477153-1-1-1h-13c-.5522847 0-1 .4477153-1 1s.4477153 1 1 1z"/></g></g></svg>