<svg height="512" viewBox="0 0 48 48" width="512" xmlns="http://www.w3.org/2000/svg"><g id="Line"><path d="m37.984 29.824c-.064-.36-.321-.657-.668-.773l-3-1c-2.439.107-4.759 1.601-6.681 3.026 0 0-.655-3.274-.655-3.274-.093-.467-.503-.803-.98-.803h-4c-.477 0-.887.336-.98.804l-.655 3.274c-1.922-1.425-4.242-2.919-6.681-3.027 0 0-3 1-3 1-.733.22-.925 1.269-.308 1.729 0 0 4.534 3.627 4.534 3.627 3.235 2.589 5.09 6.45 5.09 10.593 0 .552.448 1 1 1h6c.552 0 1-.448 1-1 0-4.143 1.855-8.004 5.091-10.592l4.534-3.627c.286-.229.424-.596.359-.957z" fill="#92b77e"/><path d="m43.429 16.015-.429-.429c.04-3.022-1.543-5.782-4.147-7.264-.755-2.461-2.966-4.184-5.538-4.314-1.829-1.269-4.089-1.664-6.223-1.08-1.625-.981-3.706-1.271-5.434-.375 0 0-.75.375-.75.375-2.131-.584-4.393-.19-6.223 1.08-2.571.131-4.782 1.853-5.538 4.314-2.603 1.482-4.187 4.241-4.147 7.264-6.042 5.29-2.287 15.431 5.778 15.414 1.7 0 3.298-.662 4.5-1.864l1.919-1.919c4.154 2.331 9.45 2.332 13.604 0 0 0 1.919 1.919 1.919 1.919 1.202 1.202 2.8 1.864 4.5 1.864 7.736.05 11.726-9.561 6.209-14.985z" fill="#609c48"/><path d="m43 15.586c.04-3.022-1.543-5.782-4.147-7.264-.761-2.604-3.094-4.096-5.667-4.4-1.811-1.207-4.009-1.562-6.094-.994-1.625-.981-3.706-1.271-5.434-.375 0 0-.75.375-.75.375-2.083-.567-4.282-.213-6.095.995-2.569.305-4.908 1.794-5.666 4.4-2.603 1.481-4.187 4.24-4.147 7.263l-.429.429c-5.475 5.323-1.566 14.958 6.07 14.978 0 0 4.268 3.415 4.268 3.415 3.236 2.588 5.091 6.449 5.091 10.592 0 .552.448 1 1 1h6c.552 0 1-.448 1-1 0-4.143 1.855-8.004 5.091-10.592l4.268-3.415c7.982-.102 11.644-10.155 5.641-15.407zm-11.158 17.26c-3.451 2.761-5.534 6.783-5.81 11.154h-4.063c-.276-4.371-2.359-8.393-5.81-11.154l-2.922-2.338c.295-.124.578-.275.853-.443 2.311.639 4.422 1.86 6.12 3.557.509.654 1.63.396 1.772-.426 0 0 .858-4.288.858-4.288.774.064 1.55.064 2.324 0l.858 4.288c.28 1.054 1.315.874 1.688.511 1.747-1.704 3.855-2.993 6.204-3.642.274.168.557.32.853.443zm-15.963-4.311 1.319-1.318c1.154.608 2.383 1.123 3.659 1.402 0 0-.492 2.459-.492 2.459-1.347-1.086-2.862-1.945-4.486-2.543zm11.264.084c1.275-.279 2.505-.794 3.659-1.402 0 0 1.319 1.318 1.319 1.318-1.623.598-3.139 1.456-4.486 2.543zm10.079.381c-2.272.175-4.055-2.343-5.515-3.707-.305-.306-.772-.379-1.154-.187-4.232 2.482-8.873 2.483-13.105 0-.385-.191-.851-.116-1.154.188-1.444 1.35-3.249 3.888-5.515 3.707-3.738-.001-6.779-3.042-6.779-6.779-.043-2.186 1.1-4.106 2.707-5.515.334-.295.302-.829.293-1.235 0-2.377 1.321-4.515 3.447-5.578.305-.146.494-.444.553-.771.46-1.839 2.104-3.123 4-3.123.198 0 .391-.059.555-.168 1.475-1.106 3.369-1.483 5.129-.883.25.083.527.064.763-.054 1.198-.695 2.674-1.28 4-.553.473.192 1.333.844 1.869.607 1.76-.601 3.655-.224 5.129.883.164.109.357.168.555.168 1.896 0 3.54 1.284 4 3.122.057.328.249.625.553.772 2.31 1.136 3.605 3.559 3.447 6.106 0 .265.106.52.293.707 5.072 4.074 2.522 12.197-4.071 12.293z"/></g></svg>