<?xml version="1.0" encoding="iso-8859-1"?>
<!-- Generator: Adobe Illustrator 21.0.0, SVG Export Plug-In . SVG Version: 6.00 Build 0)  -->
<svg version="1.1" id="Capa_1" xmlns="http://www.w3.org/2000/svg" xmlns:xlink="http://www.w3.org/1999/xlink" x="0px" y="0px"
	 viewBox="0 0 593.277 593.277" style="enable-background:new 0 0 593.277 593.277;" xml:space="preserve">
<g>
	<g>
		<g id="filled_outline_9_">
			<polygon style="fill:#F09E26;" points="504.285,217.529 454.845,217.529 454.845,177.977 494.397,177.977 			"/>
			<polygon style="fill:#E68A00;" points="563.613,385.626 158.204,385.626 108.763,237.306 553.725,237.306 			"/>
			<polygon style="fill:#F5AE45;" points="88.987,138.425 583.399,138.425 583.399,177.977 435.068,177.977 326.3,296.634 
				9.883,217.529 			"/>
			<polygon style="fill:#F5AE45;" points="405.404,217.529 398.809,217.529 326.3,296.634 395.516,296.634 425.18,257.082 
				533.949,257.082 563.613,385.626 583.389,385.626 583.389,257.082 583.389,217.529 			"/>
			<circle style="fill:#697B8C;" cx="197.756" cy="375.738" r="79.104"/>
			<circle style="fill:#C3C9D1;" cx="197.756" cy="375.738" r="19.776"/>
			<rect x="276.86" y="336.186" style="fill:#F5AE45;" width="118.656" height="49.44"/>
			<rect x="276.86" y="365.85" style="fill:#F09E26;" width="118.656" height="19.776"/>
			<polygon style="fill:#F09E26;" points="118.651,177.977 98.875,197.753 332.48,253.374 405.404,177.977 			"/>
			<circle style="fill:#697B8C;" cx="474.621" cy="375.738" r="79.104"/>
			<circle style="fill:#C3C9D1;" cx="474.621" cy="375.738" r="19.776"/>
			<path d="M583.389,128.537H88.987c-2.62,0-5.142,1.038-6.991,2.897L2.892,210.539c-3.856,3.866-3.856,10.125,0,13.982
				c1.266,1.266,2.848,2.165,4.588,2.601l95.41,23.85l23.8,71.372c-29.516,39.246-21.635,94.984,17.611,124.5
				s94.984,21.635,124.5-17.611c7.535-10.017,12.864-21.506,15.643-33.728h103.488c10.867,47.878,58.488,77.878,106.366,67.011
				c33.372-7.574,59.437-33.639,67.011-67.011h22.08c5.458,0,9.888-4.43,9.888-9.888V217.52c0-5.458-4.43-9.888-9.888-9.888h-71.382
				l-4.944-19.776h76.326c5.458,0,9.888-4.43,9.888-9.888v-39.552C593.277,132.967,588.847,128.537,583.389,128.537z
				 M266.151,385.626c-1.622,11.421-6.101,22.248-13.023,31.483l-13.398-13.408l-13.982,13.982l13.408,13.428
				c-9.245,6.922-20.083,11.411-31.513,13.062v-18.995h-19.776v18.985c-11.421-1.641-22.248-6.131-31.484-13.052l13.398-13.408
				l-13.982-13.982l-13.418,13.388c-6.922-9.235-11.411-20.063-13.052-31.483h18.985V365.85h-18.886
				c1.681-11.381,6.2-22.159,13.121-31.345l13.25,13.27l13.982-13.982l-13.438-13.428c9.255-6.912,20.092-11.401,31.523-13.042
				v18.975h19.776v-18.985c11.421,1.641,22.248,6.131,31.483,13.052l-13.398,13.408l13.982,13.982l13.418-13.388
				c6.922,9.235,11.411,20.063,13.052,31.483h-18.985v19.776H266.151z M306.524,375.738h-19.776v-29.664h19.776V375.738z
				 M346.076,375.738H326.3v-29.664h19.776V375.738z M385.628,375.738h-19.776v-29.664h19.776V375.738z M395.516,326.298H276.86
				c-1.552,0.03-3.075,0.435-4.44,1.177c-16.375-25.363-44.476-40.689-74.665-40.729c-2.966,0-5.883,0.188-8.79,0.475
				c-0.89,0.089-1.77,0.227-2.66,0.346c-2.057,0.267-4.094,0.593-6.121,0.989c-0.989,0.188-1.889,0.386-2.828,0.613
				c-2.116,0.494-4.212,1.088-6.289,1.74c-0.702,0.227-1.404,0.405-2.106,0.653c-2.739,0.939-5.429,1.978-8.059,3.194
				c-0.475,0.218-0.92,0.475-1.384,0.702c-2.146,0.989-4.252,2.126-6.318,3.322c-0.801,0.475-1.582,0.989-2.373,1.463
				c-1.73,1.078-3.421,2.215-5.082,3.411c-0.761,0.554-1.533,1.107-2.284,1.681c-0.415,0.326-0.87,0.613-1.285,0.989l-16.533-49.638
				l198.255,49.559c0.781,0.188,1.592,0.287,2.403,0.277h69.216c3.115,0,6.042-1.463,7.91-3.955l26.698-35.597h95.914l10.333,44.783
				c-0.989-0.91-1.978-1.73-2.966-2.601c-0.989-0.87-1.819-1.661-2.779-2.442c-1.216-0.989-2.492-1.889-3.758-2.818
				c-0.989-0.742-1.978-1.513-3.065-2.215c-1.285-0.86-2.63-1.622-3.955-2.413c-1.107-0.663-2.185-1.365-3.332-1.978
				c-1.355-0.722-2.769-1.345-4.163-1.978c-1.177-0.554-2.334-1.157-3.55-1.671c-1.463-0.603-2.966-1.098-4.469-1.632
				c-1.206-0.435-2.393-0.92-3.619-1.295c-1.622-0.504-3.293-0.87-4.944-1.276c-1.167-0.287-2.304-0.643-3.481-0.88
				c-1.908-0.386-3.866-0.623-5.814-0.89c-0.989-0.129-1.978-0.336-2.966-0.435c-2.956-0.306-5.923-0.475-8.889-0.484
				c-30.188,0.04-58.29,15.366-74.665,40.729C398.592,326.733,397.069,326.327,395.516,326.298z M543.016,385.626
				c-1.622,11.421-6.101,22.248-13.023,31.483l-13.398-13.408l-13.982,13.982l13.408,13.428
				c-9.245,6.922-20.083,11.411-31.513,13.062v-18.995h-19.776v18.995c-11.431-1.641-22.268-6.131-31.513-13.052l13.428-13.438
				l-13.982-13.982l-13.418,13.408c-6.922-9.235-11.401-20.063-13.023-31.483h18.955V365.85h-18.985
				c1.641-11.421,6.131-22.248,13.052-31.483l13.398,13.408l13.982-13.982l-13.379-13.428c9.235-6.922,20.063-11.411,31.483-13.052
				v18.985h19.776v-18.985c11.421,1.641,22.248,6.131,31.483,13.052l-13.398,13.408l13.982,13.982l13.418-13.388
				c6.922,9.235,11.411,20.063,13.052,31.483h-18.985v19.776H543.016z M573.501,227.417v148.32h-1.978L543.59,254.857
				c-1.038-4.489-5.033-7.663-9.641-7.663H425.18c-3.115,0-6.042,1.463-7.91,3.955l-26.698,35.597h-41.797l44.209-48.224
				l10.175-11.104C403.16,227.417,573.501,227.417,573.501,227.417z M421.294,207.641l18.125-19.776h5.537v19.776H421.294z
				 M464.733,207.641v-19.776h21.942l4.944,19.776H464.733z M573.501,168.089H435.068c-2.769,0-5.419,1.167-7.287,3.204
				l-53.89,58.794l0,0l-50.884,55.511l-40.056-10.007L29.224,212.17l63.857-63.857h480.42V168.089z"/>
			<path d="M197.756,346.074c-16.384,0-29.664,13.28-29.664,29.664c0,16.384,13.28,29.664,29.664,29.664s29.664-13.28,29.664-29.664
				C227.42,359.353,214.14,346.074,197.756,346.074z M197.756,385.626c-5.458,0-9.888-4.43-9.888-9.888
				c0-5.458,4.43-9.888,9.888-9.888c5.458,0,9.888,4.43,9.888,9.888C207.644,381.196,203.214,385.626,197.756,385.626z"/>
			<path d="M474.621,346.074c-16.384,0-29.664,13.28-29.664,29.664c0,16.384,13.28,29.664,29.664,29.664s29.664-13.28,29.664-29.664
				C504.285,359.353,491.005,346.074,474.621,346.074z M474.621,385.626c-5.458,0-9.888-4.43-9.888-9.888
				c0-5.458,4.43-9.888,9.888-9.888c5.458,0,9.888,4.43,9.888,9.888C484.509,381.196,480.079,385.626,474.621,385.626z"/>
			<path d="M89.363,200.453c0.979,3.451,3.757,6.101,7.248,6.922l225.358,53.148l4.539-19.262l-15.821-3.718l49.391-49.677h35.439
				v-19.776H118.651c-2.62,0-5.142,1.038-6.991,2.897l-19.776,19.776C89.343,193.294,88.384,197.002,89.363,200.453z
				 M332.233,187.865l-44.071,44.358l-41.945-9.888l34.717-34.47H332.233z M201.919,187.865h50.933l-29.387,29.11l-40.64-9.581
				L201.919,187.865z M122.745,187.865h51.536l-13.893,14.239l-41.975-9.888L122.745,187.865z"/>
		</g>
	</g>
</g>
<g>
</g>
<g>
</g>
<g>
</g>
<g>
</g>
<g>
</g>
<g>
</g>
<g>
</g>
<g>
</g>
<g>
</g>
<g>
</g>
<g>
</g>
<g>
</g>
<g>
</g>
<g>
</g>
<g>
</g>
</svg>
