<svg height="512" viewBox="0 0 48 48" width="512" xmlns="http://www.w3.org/2000/svg"><g id="Line"><g><path d="m32.76 4.32c-.262.445-1.138 1.912-1.39 2.32-.57.85-1.52 1.36-2.54 1.36-2.07 0-4.02.79-5.49 2.25-.57-.15-1.16-.24-1.77-.25-.85-1.25-2.26-2-3.81-2-.97 0-1.76-.79-1.76-1.76v-2.39c5.108-2.62 11.825-2.411 16.76.47z" fill="#a9ca95"/></g><g><path d="m40.97 14.23-1.01 4.35c-3.335-3.019-8.307-5.825-12.45-5.58-1.048-1.361-2.509-2.324-4.17-2.75 1.47-1.46 3.42-2.25 5.49-2.25 1.284.027 2.35-.834 2.9-1.95 0 0 1.03-1.73 1.03-1.73 3.668 1.982 6.305 5.447 8.12 9.2.12.22.15.47.09.71z" fill="#609c48"/></g><g><path d="m39.96 18.58-.07.3-2.72 11.67c-.09.38-.39.67-.77.75l-13.2 2.64c-.208.041-.425.019-.62-.07-12.1-5.59-12.1-6.13-12.1-6.87-.09-.67-3.49-13.2-3.39-13.41 1.418-3.505 3.824-6.586 6.91-8.6.64-.42 1.31-.8 2-1.14v2.39c0 .97.79 1.76 1.76 1.76 1.55 0 2.96.75 3.81 2 1.361.031 2.691.424 3.84 1.12.8.49 1.52 1.12 2.1 1.88h.83c3.718.028 8.576 2.785 11.62 5.58z" fill="#92b77e"/></g><path d="m45.946 12.675c-.102-.295-.334-.525-.63-.624-2.205-.733-4.62.021-6.014 1.878-1.153 1.449-1.698 3.324-2.093 5.107-1.902.18-3.669 1.008-5.038 2.377l-2.596 2.596c-2.041.096-3.99.883-5.529 2.24-.205.181-.327.438-.337.71l-.708 18c-.011.272.09.537.278.732.189.198.449.309.721.309 11.028 0 20-8.972 20-20v-9.697l1.832-2.748c.173-.26.215-.585.114-.88z" fill="#a9ca95"/><path d="m25.2 27.6c-1.605-2.141-4.114-3.462-6.776-3.59l-2.596-2.596c-1.369-1.369-3.135-2.197-5.038-2.377l-.374-1.497c-.726-3.498-3.949-6.834-7.733-5.489-.295.098-.528.329-.629.624s-.059.62.114.879l1.832 2.749v9.697c0 11.028 8.972 20 20 20 .431 0 .812-.275.949-.684l2.102-6.308c1.292-3.875.6-8.139-1.851-11.408z" fill="#609c48"/><path d="m7.472 12.745c-1.031-1.082-6.383-1.735-5.305.81 0 0 1.832 2.748 1.832 2.748v9.697c1.096 26.528 38.903 26.53 40 0v-9.697l1.832-2.748c.366-.522.099-1.318-.516-1.503-1.672-.556-3.463-.253-4.84.734l-.775-1.421c-7.001-13.034-26.354-12.183-32.228 1.38zm-1.472 13.255v-10c.046-.494-1.059-1.799-1.27-2.209 2.113.175 3.257 2.385 3.746 4.234 0 0 .554 2.217.554 2.217.111.446.511.758.97.758 1.667 0 3.235.649 4.414 1.828l2.879 2.879c.187.188.442.293.707.293 2.191 0 4.285 1.047 5.6 2.8 2.057 2.743 2.638 6.323 1.554 9.575l-1.871 5.61c-9.594-.377-17.283-8.299-17.283-17.985zm37.271-12.209c-.222.424-1.323 1.724-1.271 2.209v10c0 9.449-7.323 17.204-16.589 17.929l1.64-4.92c1.269-3.807.614-7.984-1.732-11.229 1.305-1.124 2.946-1.79 4.681-1.78.266 0 .52-.105.707-.293l2.879-2.879c1.18-1.179 2.747-1.828 4.414-1.828.459 0 .858-.312.97-.757.586-2.43 1.282-6.127 4.301-6.452zm-5.326-1.469 1.092 2.001c-.474.697-.865 1.438-1.149 2.227-2.658-2.29-6.002-3.55-9.545-3.55h-.831c-.589-.762-1.311-1.388-2.115-1.875.991-.727 2.179-1.125 3.431-1.125 1.973.029 3.665-1.168 4.608-2.851 1.828 1.356 3.381 3.103 4.509 5.173zm-6.187-6.262c-.602 1.09-1.627 1.974-2.93 1.94-2.07 0-4.015.8-5.488 2.25-.572-.148-1.165-.235-1.769-.248-.854-1.249-2.262-2.002-3.807-2.002-.972 0-1.764-.792-1.764-1.764 2.095-1.564 5.165-2.173 7.927-2.236 2.797 0 5.481.737 7.831 2.06zm-17.576 1.273c.473 1.538 1.891 2.667 3.582 2.667.998 0 1.895.555 2.341 1.447.226.501.796.594 1.289.553 1.923 0 3.707.955 4.773 2.555.362.662 1.576.396 2.175.445 3.381 0 6.559 1.316 8.95 3.707l-.083.33c-1.902.18-3.669 1.008-5.038 2.377l-2.596 2.596c-2.051.106-4.065.887-5.574 2.299-1.533-1.369-3.505-2.2-5.578-2.299l-2.596-2.596c-1.369-1.369-3.135-2.197-5.038-2.377-.358-1.625-.851-3.366-1.834-4.724 1.125-2.752 2.91-5.234 5.227-6.98z"/></g></svg>