<svg height="512" viewBox="0 0 48 48" width="512" xmlns="http://www.w3.org/2000/svg"><g id="crayon"><path d="m24 8h-8a5.69 5.69 0 0 1 .38-2.8c1.14-2.45 1.43-3.74 3-4.11a2.59 2.59 0 0 1 3 1.42c1.73 3.73 1.62 3.16 1.62 5.49z" fill="#fc6"/><path d="m23.89 6h-4.81a1.08 1.08 0 0 1 -1.08-1.08c0-1.17.41-1.78 1.36-3.83 2.52-.72 3.36 2.18 4.26 4.11a3.43 3.43 0 0 1 .27.8z" fill="#ffde76"/><path d="m16 8h8v5h-8z" fill="#fc6"/><path d="m24 8v3h-3a3 3 0 0 1 -3-3z" fill="#ffde76"/><path d="m32 8h-8a5.69 5.69 0 0 1 .38-2.8c1.14-2.45 1.43-3.74 3-4.11a2.59 2.59 0 0 1 3 1.42c1.73 3.73 1.62 3.16 1.62 5.49z" fill="#9dcc6b"/><path d="m31.89 6h-4.81a1.08 1.08 0 0 1 -1.08-1.08c0-1.17.41-1.78 1.36-3.83 2.52-.72 3.36 2.18 4.26 4.11a3.43 3.43 0 0 1 .27.8z" fill="#b5e08c"/><path d="m24 8h8v5h-8z" fill="#9dcc6b"/><path d="m32 8v3h-3a3 3 0 0 1 -3-3z" fill="#b5e08c"/><path d="m40 8h-8a5.69 5.69 0 0 1 .38-2.8c1.14-2.45 1.43-3.74 3-4.11a2.59 2.59 0 0 1 3 1.42c1.73 3.73 1.62 3.16 1.62 5.49z" fill="#6fabe6"/><path d="m39.89 6h-4.81a1.08 1.08 0 0 1 -1.08-1.08c0-1.17.41-1.78 1.36-3.83 2.52-.72 3.36 2.18 4.26 4.11a3.43 3.43 0 0 1 .27.8z" fill="#82bcf4"/><path d="m32 8h8v5h-8z" fill="#6fabe6"/><path d="m40 8v3h-3a3 3 0 0 1 -3-3z" fill="#82bcf4"/><path d="m5 13h38v34h-38z" fill="#df8761"/><path d="m43 13v32h-24a12 12 0 0 1 -12-12v-20z" fill="#f29b75"/><path d="m16 8h-8a5.69 5.69 0 0 1 .38-2.8c1.14-2.45 1.43-3.74 3-4.11a2.59 2.59 0 0 1 3 1.42c1.73 3.73 1.62 3.16 1.62 5.49z" fill="#db5669"/><path d="m15.89 6h-4.81a1.08 1.08 0 0 1 -1.08-1.08c0-1.17.41-1.78 1.36-3.83 2.52-.72 3.36 2.18 4.26 4.11a3.43 3.43 0 0 1 .27.8z" fill="#f26674"/><path d="m8 8h8v5h-8z" fill="#db5669"/><path d="m16 8v3h-3a3 3 0 0 1 -3-3z" fill="#f26674"/><path d="m16 19v6h-3a2 2 0 0 1 -2-2v-2a2 2 0 0 1 2-2z" fill="#db5669"/><path d="m16 19h8v6h-8z" fill="#fc6"/><path d="m24 19h8v6h-8z" fill="#9dcc6b"/><path d="m37 21v2a2 2 0 0 1 -2 2h-3v-6h3a2 2 0 0 1 2 2z" fill="#6fabe6"/><path d="m16 19v4h-1a2 2 0 0 1 -2-2v-2z" fill="#f26674"/><path d="m16 19h8v4h-8z" fill="#ffde76"/><path d="m24 19h8v4h-8z" fill="#b5e08c"/><path d="m37 21v2h-5v-4h3a2 2 0 0 1 2 2z" fill="#82bcf4"/><path d="m43 12h-2c0-7.19.35-5.48-1.72-9.91a3.63 3.63 0 0 0 -6.56 0l-.72 1.55-.72-1.55a3.63 3.63 0 0 0 -6.56 0l-.72 1.55-.72-1.55a3.62 3.62 0 0 0 -6.56 0l-.72 1.55-.72-1.55a3.62 3.62 0 0 0 -6.56 0c-2.07 4.44-1.72 2.77-1.72 9.91h-2a1 1 0 0 0 -1 1v34a1 1 0 0 0 1 1h38a1 1 0 0 0 1-1v-34a1 1 0 0 0 -1-1zm-18 0v-3h6v3zm-8 0v-3h6v3zm16-3h6v3h-6zm1.54-6.07a1.62 1.62 0 0 1 2.93 0c1.37 2.95 1.53 3.07 1.53 4.07-6.66 0-6 0-6-.11 0-.89.24-1.17 1.54-3.96zm-8 0a1.62 1.62 0 0 1 2.93 0c1.37 2.95 1.53 3.07 1.53 4.07-6.66 0-6 0-6-.11 0-.89.25-1.21 1.54-3.96zm-8 0a1.62 1.62 0 0 1 2.93 0c1.34 2.89 1.53 3.07 1.53 4.07-6.66 0-6 0-6-.11 0-.89.24-1.19 1.54-3.96zm-8 0a1.62 1.62 0 0 1 2.93 0c1.37 2.95 1.53 3.07 1.53 4.07-6.66 0-6 0-6-.11 0-.89.25-1.2 1.53-3.96zm-1.54 6.07h6v3h-6zm33 37h-36v-32h36z"/><path d="m35 18h-22a3 3 0 0 0 -3 3v2a3 3 0 0 0 3 3h22a3 3 0 0 0 3-3v-2a3 3 0 0 0 -3-3zm-10 2h6v4h-6zm-2 4h-6v-4h6zm-11-1v-2a1 1 0 0 1 1-1h2v4h-2a1 1 0 0 1 -1-1zm24 0a1 1 0 0 1 -1 1h-2v-4h2a1 1 0 0 1 1 1z"/></g></svg>