<?xml version="1.0" encoding="iso-8859-1"?>
<!-- Generator: Adobe Illustrator 19.0.0, SVG Export Plug-In . SVG Version: 6.00 Build 0)  -->
<svg xmlns="http://www.w3.org/2000/svg" xmlns:xlink="http://www.w3.org/1999/xlink" version="1.1" id="Layer_1" x="0px" y="0px" viewBox="0 0 512 512" style="enable-background:new 0 0 512 512;" xml:space="preserve">
<path style="fill:#BF4F28;" d="M322.814,54.01L322.814,54.01c12.841,29.123,43.067,46.573,74.708,43.132l0,0  c63.103-6.862,104.309,64.507,66.814,115.726l0,0c-18.801,25.682-18.801,60.583,0,86.265l0,0  c37.495,51.219-3.71,122.587-66.814,115.726l0,0c-31.642-3.441-61.866,14.01-74.708,43.132l0,0  c-25.609,58.081-108.018,58.081-133.628,0l0,0c-12.841-29.122-43.067-46.573-74.708-43.132l0,0  c-63.103,6.862-104.309-64.507-66.814-115.726l0,0c18.801-25.682,18.801-60.583,0-86.265l0,0  c-37.495-51.219,3.71-122.587,66.814-115.726l0,0c31.642,3.441,61.866-14.01,74.708-43.132l0,0  C214.795-4.071,297.204-4.071,322.814,54.01z"/>
<g>
	<circle style="fill:#4D1907;" cx="185.992" cy="184.895" r="33.437"/>
	<circle style="fill:#4D1907;" cx="185.992" cy="327.105" r="33.437"/>
	<circle style="fill:#4D1907;" cx="326.457" cy="327.105" r="33.437"/>
	<circle style="fill:#4D1907;" cx="326.457" cy="185.375" r="33.437"/>
</g>
<path d="M96.796,298.516c-2.118,0-4.26-0.644-6.117-1.979c-4.685-3.368-5.725-9.937-2.357-14.623  c0.03-0.043,0.097-0.133,0.129-0.176c3.439-4.636,9.983-5.605,14.617-2.165c4.635,3.439,5.604,9.983,2.165,14.617  C103.2,297.02,100.025,298.516,96.796,298.516z"/>
<path d="M256,512c-33.567,0-62.832-19.08-76.375-49.795c-11.054-25.068-36.778-39.923-64.018-36.96  C82.233,428.873,51.081,413.07,34.298,384c-16.783-29.07-14.892-63.954,4.936-91.039c16.183-22.107,16.183-51.814,0-73.921  c-19.828-27.085-21.719-61.97-4.936-91.039s47.937-44.878,81.31-41.245c27.235,2.962,52.964-11.892,64.018-36.961  C193.168,19.08,222.433,0,256,0s62.832,19.08,76.375,49.795c11.055,25.068,36.781,39.927,64.018,36.96  c33.374-3.628,64.527,12.175,81.31,41.245c16.783,29.07,14.892,63.954-4.936,91.039c-16.183,22.107-16.183,51.814,0,73.921  c19.828,27.085,21.719,61.97,4.936,91.039c-15.192,26.313-42.165,41.757-71.89,41.758c-3.115,0-6.255-0.169-9.42-0.513  c-27.233-2.96-52.964,11.892-64.018,36.961C318.832,492.92,289.567,512,256,512z M122.522,403.971  c32.833,0,62.726,19.191,76.225,49.803c10.152,23.025,32.09,37.328,57.253,37.328s47.101-14.303,57.253-37.328  c14.746-33.442,49.059-53.26,85.398-49.305c25.014,2.719,48.37-9.127,60.953-30.919c12.582-21.791,11.164-47.942-3.7-68.246  c-21.589-29.491-21.589-69.118,0-98.609c14.864-20.304,16.282-46.454,3.7-68.246s-35.927-33.637-60.953-30.919  c-36.33,3.953-70.653-15.863-85.398-49.305l0,0C303.101,35.201,281.163,20.898,256,20.898s-47.101,14.303-57.253,37.328  c-14.746,33.441-49.062,53.256-85.398,49.305c-25.021-2.718-48.371,9.127-60.953,30.919s-11.164,47.942,3.7,68.246  c21.589,29.491,21.589,69.118,0,98.609c-14.864,20.304-16.282,46.454-3.7,68.246c12.582,21.791,35.933,33.643,60.953,30.919  C116.421,404.136,119.488,403.971,122.522,403.971z"/>
<path d="M107.21,269.24c-0.181,0-0.363-0.004-0.545-0.014c-5.764-0.297-10.195-5.209-9.898-10.971  c0.516-10.023-2.464-20-8.389-28.095c-15.303-20.903-16.807-47.848-3.929-70.322c2.87-5.006,9.255-6.74,14.261-3.87  c5.007,2.869,6.74,9.254,3.87,14.261c-8.714,15.207-7.696,33.441,2.659,47.587c8.756,11.961,13.159,26.704,12.398,41.513  C117.348,264.909,112.734,269.24,107.21,269.24z"/>
<path d="M326.276,370.986c-24.2,0-43.887-19.687-43.886-43.886l0,0l0,0c0-24.198,19.687-43.885,43.886-43.885  c11.723,0,22.743,4.565,31.031,12.853c8.289,8.289,12.854,19.31,12.853,31.032c0,11.721-4.564,22.741-12.853,31.03  C349.018,366.421,337.997,370.986,326.276,370.986z M326.276,304.114c-12.676,0-22.988,10.312-22.988,22.988l0,0  c0,12.674,10.312,22.986,22.988,22.987c6.14,0,11.913-2.392,16.254-6.733s6.732-10.114,6.732-16.253  c0-6.141-2.391-11.913-6.732-16.255C338.189,306.505,332.415,304.114,326.276,304.114z M292.838,327.101h0.01H292.838z"/>
<path d="M303.264,219.591c-2.713,0-5.422-1.049-7.469-3.141l-0.179-0.182c-4.015-4.146-3.907-10.761,0.239-14.775  c4.143-4.011,10.75-3.908,14.765,0.229c0.016,0.016,0.109,0.11,0.111,0.113c4.036,4.124,3.964,10.741-0.161,14.776  C308.538,218.6,305.9,219.591,303.264,219.591z"/>
<path d="M185.991,370.986c-24.199,0-43.886-19.687-43.886-43.885c0-11.722,4.565-22.742,12.855-31.031  c8.289-8.288,19.309-12.853,31.029-12.853c0.001,0,0,0,0.001,0c11.722,0,22.742,4.564,31.031,12.853  c8.289,8.289,12.854,19.309,12.854,31.031c0,11.722-4.564,22.742-12.853,31.031C208.734,366.422,197.713,370.986,185.991,370.986z   M185.992,304.114c-6.14,0-11.912,2.391-16.254,6.732c-4.343,4.343-6.733,10.115-6.733,16.254c0,12.675,10.312,22.987,22.988,22.987  c6.14,0,11.913-2.392,16.254-6.733s6.732-10.114,6.732-16.253s-2.392-11.913-6.733-16.254S192.131,304.114,185.992,304.114z"/>
<path d="M185.992,228.78c-11.722,0-22.741-4.564-31.03-12.853c-8.29-8.289-12.855-19.309-12.855-31.03c0,0,0,0,0-0.001  c0-11.722,4.566-22.742,12.855-31.03c8.289-8.288,19.309-12.852,31.029-12.852c0,0,0,0,0.001,0  c24.198,0,43.885,19.685,43.886,43.884C229.876,209.093,210.189,228.779,185.992,228.78z M163.003,184.896  c0,6.139,2.392,11.912,6.733,16.253c4.343,4.342,10.115,6.732,16.253,6.732c12.676,0,22.988-10.312,22.988-22.987  c0-12.674-10.312-22.986-22.988-22.986c-6.14,0-11.912,2.391-16.254,6.732C165.395,172.985,163.003,178.757,163.003,184.896  L163.003,184.896z"/>
<path d="M331.846,228.318c-5.009,0-9.433-3.613-10.292-8.719c-0.957-5.691,2.881-11.08,8.572-12.037  c11.087-1.864,19.135-11.397,19.136-22.666c0-12.674-10.312-22.986-22.988-22.986c-11.319,0-21.096,8.424-22.742,19.596  c-0.841,5.709-6.159,9.652-11.86,8.815c-5.709-0.841-9.656-6.15-8.815-11.86c3.144-21.349,21.809-37.449,43.414-37.449  c0.001,0,0,0,0.001,0c24.198,0,43.885,19.685,43.886,43.884c0,21.513-15.381,39.713-36.57,43.275  C333.005,228.269,332.422,228.318,331.846,228.318z"/>
<g>
</g>
<g>
</g>
<g>
</g>
<g>
</g>
<g>
</g>
<g>
</g>
<g>
</g>
<g>
</g>
<g>
</g>
<g>
</g>
<g>
</g>
<g>
</g>
<g>
</g>
<g>
</g>
<g>
</g>
</svg>
