<svg height="512" viewBox="0 0 52 61" width="512" xmlns="http://www.w3.org/2000/svg"><g id="018---Bug" fill="none"><g id="Icons" transform="translate(1 1)"><path id="Shape" d="m23.5 57.56c-6.17-3.59-10.66-29-7.43-42h17.86c3.58 14.44-2.6 46.63-10.43 42z" fill="#6a1b9a"/><path id="Shape" d="m23.5 57.56c-6.28-3.66-10.61-29.25-7.43-42h14.86c3.15 12.71-1.14 38.33-7.43 42z" fill="#9d27b0"/><path id="Shape" d="m25 18c-10.06 0-12.78-5.25-10-11.14l3.9-4.74c1.7594856-1.33114911 3.8942023-2.07305064 6.1-2.12 2.1989717.03380846 4.3281235.77743315 6.07 2.12l3.93 4.74c2.76 5.84.11 11.14-10 11.14z" fill="#283593"/><path id="Shape" d="m23.5 18c-8.84-.56-11.14-5.56-8.5-11.14l3.9-4.74c1.3546402-1.01283738 2.9258599-1.6974647 4.59-2 1.6619929.28949089 3.2296499.9755552 4.57 2l3.94 4.74c2.65 5.6.32 10.58-8.5 11.14z" fill="#3f51b5"/><path id="Shape" d="m33.44 41.69c-.5359622 2.8487121-1.284727 5.6532373-2.24 8.39-.4692471-.2746974-.8775623-.6421811-1.2-1.08-.4918976.3508588-1.0614777.5773183-1.66.66.991143-2.9373853 1.7566986-5.9461194 2.29-9 .7769482.6792096 1.7781513 1.0461986 2.81 1.03z" fill="#549414"/><path id="Shape" d="m30.63 40.67c-.5333014 3.0538806-1.298857 6.0626147-2.29 9-1.3285107.0644932-2.5944882-.5684955-3.34-1.67 0 0-2 3-5 1-.3285804.432208-.7356881.7986049-1.2 1.08-.9483348-2.7388917-1.6969616-5.5429004-2.24-8.39 1.3507387.0182703 2.6289675-.6096968 3.44-1.69 3 2 5-1 5-1s2 3 5 1c.1821762.2479524.3937169.4729243.63.67z" fill="#60a917"/><path id="Shape" d="m34.62 33.52c-.9924617.2876667-2.054507.2168637-3-.2.2643245-2.6115301.3911662-5.235151.38-7.86.9725369.3314397 2.0274631.3314397 3 0 .0271154 2.6917144-.0997585 5.3827763-.38 8.06z" fill="#549414"/><g fill="#60a917"><path id="Shape" d="m31.65 33.31c-.6554442-.2842795-1.2245101-.7360833-1.65-1.31-3 2-5-1-5-1s-2 3-5 1c-1.0710237 1.4223689-2.9136761 2.0286095-4.62 1.52-.2705791-2.6912597-.3940961-5.3952798-.37-8.1 1.7938604.6928824 3.8297113.1135421 4.99-1.42 3 2 5-1 5-1s2 3 5 1c.5069704.6743959 1.203194 1.1826391 2 1.46.0253643 2.6210704-.091474 5.2415871-.35 7.85z"/><circle id="Oval" cx="2.82" cy="25" r="2"/><circle id="Oval" cx="2.96" cy="35.52" r="2"/><circle id="Oval" cx="4.87" cy="46" r="2"/><circle id="Oval" cx="10" cy="55" r="2"/><circle id="Oval" cx="47.18" cy="25" r="2"/><circle id="Oval" cx="47.04" cy="35.52" r="2"/><circle id="Oval" cx="45.13" cy="46" r="2"/><circle id="Oval" cx="40" cy="55" r="2"/></g><path id="Shape" d="m23.06 11c-1.8422047-1.27043664-4.2777953-1.27043664-6.12 0-1.6910743-1.30862658-2.3628202-3.54777047-1.6713552-5.57116171s2.5930765-3.3831271 4.7313552-3.3831271 4.0398902 1.35973586 4.7313552 3.3831271.0197191 4.26253513-1.6713552 5.57116171z" fill="#f5f5f5"/><path id="Shape" d="m35 7c.0142425 1.56330314-.7035481 3.0432836-1.94 4-1.8404087-1.27619171-4.2795913-1.27619171-6.12 0-1.8474665-1.4298068-2.4586161-3.94832921-1.4719561-6.06587071.9866599-2.1175415 3.3081151-3.26962848 5.5912337-2.77480584 2.2831186.49482265 3.9192889 2.50464992 3.9407224 4.84067655z" fill="#cfd8dc"/><path id="Shape" d="m30.94 10.07c-.8130463-.12605284-1.643246-.08522335-2.44.12-.7967961-.20494616-1.6269391-.24577287-2.44-.12-1.0056695-1.29322992-1.3140231-2.99708053-.8253785-4.56074327.4886447-1.56366273 1.7122951-2.78876207 3.2753785-3.27925673 1.5596693.4951979 2.7783182 1.72225528 3.26278 3.28529268.4844618 1.56303739.1734184 3.26422136-.83278 4.55470732z" fill="#f5f5f5"/></g><g id="Layer_10" fill="#000"><path id="Shape" d="m13.2 19.45c-.9606941-.3616346-2.0395949-.206967-2.86.41l-4.86 3.64c-1.21059064-.8177467-2.83422011-.6445685-3.84509442.4101222s-1.11504423 2.6842035-.24669617 3.8590274c.86834806 1.1748238 2.45670966 1.5533351 3.76157273.8963938 1.30486306-.6569412 1.94679022-2.1583049 1.52021786-3.5555434l4.87-3.65c.2854844-.2205333.6676189-.2702108 1-.13l2.68 1c-.1829963 2.1081024-.2564285 4.2242835-.22 6.34l-3.24-.49c-1.0116045-.1485501-2.02921325.2283421-2.7 1l-4 4.57c-1.35386421-.5481874-2.90577037-.0416376-3.67552211 1.1997084-.76975174 1.2413461-.53360131 2.8566598.5592968 3.8256961s2.72486548 1.0101204 3.86513845.0973032 1.45740242-2.5142023.75108686-3.7927077l4-4.58c.2242942-.2559906.5633899-.3803257.9-.33l3.62.55c.11 2.32.33 4.72.64 7.1l-3.16-.07c-1.0217258-.0431077-1.9920029.4496111-2.56 1.3l-3.4 5.05c-1.41348372-.3722851-2.88953064.328319-3.4947973 1.6588019s-.16355067 2.9035206 1.04583928 3.7244398c1.20938994.8209193 2.83438193.6507379 3.84745059-.402934 1.01306867-1.0536718 1.11929421-2.6840941.25150743-3.8603077l3.41-5c.1803216-.2923997.5071476-.4615802.85-.44l3.5.08c.4250351 2.744965 1.009355 5.4628872 1.75 8.14h-1.6c-1.0745514.0013702-2.0663066.5773511-2.6 1.51l-2 3.55c-1.4366762-.2622677-2.85347536.5481305-3.35574599 1.9194609-.50227064 1.3713304.05593925 2.9051058 1.32214265 3.6328089 1.26620344.7277031 2.87246134.4378748 3.80448684-.6864701.9320255-1.1243448.9189865-2.7564891-.0308835-3.8657997l2-3.54c.179341-.3106342.5113152-.501424.87-.5h2.19c4.3 13.38 11 13.35 15.3 0h2.19c.3607641.0006217.6932259.1955131.87.51l2 3.53c-.94987 1.1093106-.962909 2.7414549-.0308835 3.8657997.9320255 1.1243449 2.5382834 1.4141732 3.8044868.6864701s1.8244133-2.2614785 1.3221427-3.6328089-1.9190698-2.1817286-3.355746-1.9194609l-2-3.55c-.5372345-.9388714-1.5383038-1.5158236-2.62-1.51h-1.6c.7459126-2.6933338 1.3335837-5.4280077 1.76-8.19l3.5-.08c.3396828-.007255.6598117.1584588.85.44l3.41 5c-.1857395.2395895-.334091.5059479-.44.79-.4574361 1.2975095.026313 2.7398686 1.1735812 3.4991805 1.1472681.7593118 2.6639756.6409417 3.6795504-.2871674 1.0155749-.928109 1.2696944-2.4280545.616497-3.6388855-.6531974-1.2108311-2.0462773-1.822175-3.3796286-1.4831276l-3.41-5c-.5724996-.8476542-1.5374354-1.3451992-2.56-1.32l-3.16.07c.31-2.38.53-4.78.64-7.1l3.62-.55c.3366101-.0503257.6757058.0740094.9.33l4 4.58c-.7063156 1.2785054-.3891861 2.8798905.7510869 3.7927077 1.1402729.9128172 2.7722403.8717331 3.8651384-.0973032s1.3290486-2.58435.5592968-3.8256961c-.7697517-1.241346-2.3216579-1.7478958-3.6755221-1.1997084l-4-4.57c-.6707867-.7716579-1.6883955-1.1485501-2.7-1l-3.24.51c.0562582-2.1146783.0028532-4.2308513-.16-6.34l2.68-1c.3323811-.1402108.7145156-.0905333 1 .13l4.87 3.65c-.4265724 1.3972385.2153548 2.8986022 1.5202179 3.5555434 1.304863.6569413 2.8932246.27843 3.7615727-.8963938.868348-1.1748239.7641781-2.8043367-.2466962-3.8590274s-2.6345038-1.2278689-3.8450944-.4101222l-4.86-3.64c-.8204051-.616967-1.8993059-.7716346-2.86-.41l-2.19.82c-.15-1.2-.34-2.34-.58-3.39 2.49-2.49 2.4-6 .95-9.24-.1038849-1.71927172-.9416284-3.31098446-2.3-4.37.9064915-.78860247 2.0589304-1.23755873 3.26-1.27 3.19 0 4 2.23 4 2.32.1429939.42537094.5518476.70339147 1 .68.3313201.01760445.6497991-.13026848.8501516-.39473367.2003524-.26446519.2564878-.61108331.1498484-.92526633-.1-.15-1.33-3.68-6-3.68-1.9674889.02528448-3.8404512.84808875-5.19 2.28l-.32-.09c-3.8613274-2.86032099-9.1386726-2.86032099-13 0l-.32.09c-1.3447392-1.42696448-3.2094872-2.24932913-5.17-2.28-4.67 0-5.9 3.53-5.95 3.68-.10156011.25804893-.09140308.54668422.02804477.7969559.11944785.25027169.33745932.43970373.60195523.5230441.26479337.09996924.55954805.08304615.81115985-.04657205s.43651126-.35978967.50884015-.63342795c0 0 .76-2.32 4-2.32 1.2218218.01848809 2.3977712.46832415 3.32 1.27-1.3658831 1.05517232-2.2112095 2.6474467-2.32 4.37-1.45 3.22-1.54 6.75.95 9.24-.24 1.05-.43 2.19-.58 3.39zm-9.38 7.55c-.55228475 0-1-.4477153-1-1s.44771525-1 1-1 1 .4477153 1 1-.44771525 1-1 1zm1 10.07c-.26393809.4006661-.77524286.5574127-1.21838712.3735111-.44314427-.1839016-.69322656-.6566181-.59592059-1.1264353.09730597-.4698171.51457423-.8043156.99430771-.7970758.36146575.0125744.68797044.2193523.85385443.5407526.16588399.3214002.14529063.7073255-.05385443 1.0092474zm1.4 10.87c-.51902278.1800268-1.08608564-.092342-1.27-.61-.1356346-.3817664-.02751798-.8076472.27379146-1.0784884.30130945-.2708413.73626393-.3331166 1.10146648-.1577044.36520255.1754123.58847817.5538454.56541688.9583334-.02306128.404488-.28790186.7550919-.67067482.8878594zm5.13 9c-.5190228.1800268-1.0860856-.092342-1.27-.61-.1356346-.3817664-.027518-.8076472.2737915-1.0784884.3013094-.2708413.7362639-.3331166 1.1014664-.1577044.3652026.1754123.5884782.5538454.5654169.9583334s-.2879018.7550919-.6706748.8878594zm30.61-.61c-.1673544.4785153-.6662945.7561028-1.1611295.6459995-.4948349-.1101033-.8289999-.5730611-.777666-1.0773915s.4719247-.8904645.9787955-.898608c.3233079.0012862.6260457.1588027.8126492.4228269.1866036.2640241.2340458.6019751.1273508.9071731zm4.52-10.28c.2510643.0882604.4565919.2729554.5710813.5131956.1144895.2402402.128496.516207.0389187.7668044-.1839144.517658-.7509772.7900268-1.27.61-.521642-.1797945-.7990902-.7481157-.62-1.27.1798413-.5164057.7411271-.792594 1.26-.62zm1.79-10.51c.5391912.1168105.8819179.6482251.7659164 1.1875909-.1160016.5393658-.6469015.8828893-1.1864407.7676969s-.8838586-.6455764-.7694757-1.1852878c.115115-.5325402.6353582-.8749225 1.17-.77zm.91-9.54c0 .5522847-.4477153 1-1 1s-1-.4477153-1-1 .4477153-1 1-1 1 .4477153 1 1zm-15.56 15.6c-.7120936-.1698214-1.3441112-.579397-1.79-1.16-.308376-.4528266-.9237025-.5732166-1.38-.27-.5646076.4190103-1.2800459.5797891-1.9696396.4426323-.6895936-.1371567-1.2890592-.5594633-1.6503604-1.1626323-.1857617-.2764295-.4969525-.4422366-.83-.4422366s-.6442383.1658071-.83.4422366c-.3613012.603169-.9607668 1.0254756-1.6503604 1.1626323-.6895937.1371568-1.405032-.023622-1.9696396-.4426323-.4562975-.3032166-1.071624-.1828266-1.38.27-.4512688.5727272-1.0815156.9776344-1.79 1.15-.35-1.9-.65-3.89-.88-5.92 1.3755668.0456641 2.7119853-.462247 3.71-1.41 1.2441668.6128018 2.7128466.5602148 3.91-.14 1.48-.85.28-.85 1.76 0 1.1971534.7002148 2.6658332.7528018 3.91.14.9920297.9582765 2.3316627 1.4710201 3.71 1.42-.23 2.03-.5 4.01-.88 5.92zm-1.9 7.73c-.3292742-.3527799-.8635144-.4200858-1.27-.16-.5646076.4190103-1.2800459.5797891-1.9696396.4426323-.6895936-.1371567-1.2890592-.5594633-1.6503604-1.1626323-.1857617-.2764295-.4969525-.4422366-.83-.4422366s-.6442383.1658071-.83.4422366c-.3613012.603169-.9607668 1.0254756-1.6503604 1.1626323-.6895937.1371568-1.405032-.023622-1.9696396-.4426323-.4043011-.2544783-.9321344-.1874518-1.26.16-.56-1.75-1.07-3.69-1.52-5.77.9136861-.2107309 1.7554444-.6592087 2.44-1.3 1.2441668.6128018 2.7128466.5602148 3.91-.14 1.48-.85.28-.85 1.76 0 1.1971534.7002148 2.6658332.7528018 3.91.14.6845556.6407913 1.5263139 1.0892691 2.44 1.3-.45 2.08-.96 4.02-1.51 5.77zm3-15.67c-1.0990856.1037306-2.1769336-.3506931-2.87-1.21-.3051825-.456275-.9211173-.5812473-1.38-.28-.5646076.4190103-1.2800459.5797891-1.9696396.4426323-.6895936-.1371567-1.2890592-.5594633-1.6503604-1.1626323-.1857617-.2764295-.4969525-.4422366-.83-.4422366s-.6442383.1658071-.83.4422366c-.3634314.6007065-.9627063 1.0209068-1.6513084 1.1578663-.688602.1369595-1.4030582-.0219462-1.9686916-.4378663-.4588827-.3012473-1.0748175-.176275-1.38.28-.6883594.8646728-1.7710348 1.3173594-2.87 1.2-.17-2-.28-4-.29-6 1.535048.1699865 3.0689689-.3291754 4.21-1.37 1.2434932.6043495 2.7066001.5480762 3.9-.15 1.48-.85.28-.85 1.76 0 1.1933999.6980762 2.6565068.7543495 3.9.15 1.1331267 1.0461293 2.6695523 1.5399804 4.2 1.35 0 2-.13 4.03-.3 6.03zm-8.72 24.34c-1.7 0-3.47-2.56-5-6.57l.2-.17c1.6044852.7776092 3.5242929.4656404 4.8-.78 1.2725088 1.2439251 3.1885785 1.5559365 4.79.78l.2.17c-1.52 4.01-3.29 6.57-4.99 6.57zm-10-46.63c.3552666.5216735.7906195.984025 1.29 1.37.3595659.2767981.8604341.2767981 1.22 0 .7217737-.5224948 1.6000191-.7834995 2.49-.74 2.13 0 2.27.95 3.06.95.2209494-.0006878.4354502-.0745323.61-.21.5184523-.4008353.9677355-.8838992 1.33-1.43.3622645.5461008.8115477 1.0291647 1.33 1.43.3595659.2767981.8604341.2767981 1.22 0 1.481391-.9963384 3.418609-.9963384 4.9 0 .3595659.2767981.8604341.2767981 1.22 0 .5136202-.3827451.9626379-.8452671 1.33-1.37.43 5.12-4.88 6.63-10 6.63s-10.43-1.51-10-6.63zm5-7.37c1.5944026-.01953439 3.048117.90974505 3.699742 2.36504088s.3766802 3.15860185-.699742 4.33495912c-1.8557026-.9343004-4.0442974-.9343004-5.9 0-1.0641928-1.1629731-1.346094-2.8425267-.7199147-4.28921683.6261793-1.44669012 2.0436504-2.39069452 3.6199147-2.41078317zm13 6.7c-1.8557026-.9343004-4.0442974-.9343004-5.9 0-1.4611094-1.59557672-1.3887509-4.0637198.1633237-5.57095907 1.5520745-1.50723928 4.0212781-1.50723928 5.5733526 0 1.5520746 1.50723927 1.6244331 3.97538235.1633237 5.57095907zm-5.32-8.23c-1.0930325.45899021-2.0255997 1.2314899-2.68 2.22-.6544003-.9885101-1.5869675-1.76100979-2.68-2.22 1.741158-.57029382 3.618842-.57029382 5.36 0zm5.58 15.74c.4605632 2.4473106.7081563 4.929933.74 7.42-1.1885234.2323501-2.4066498-.2239639-3.15-1.18-.3051825-.456275-.9211173-.5812473-1.38-.28-.5646076.4190103-1.2800459.5797891-1.9696396.4426323-.6895936-.1371567-1.2890592-.5594633-1.6503604-1.1626323-.1857617-.2764295-.4969525-.4422366-.83-.4422366s-.6442383.1658071-.83.4422366c-.3613012.603169-.9607668 1.0254756-1.6503604 1.1626323-.6895937.1371568-1.405032-.023622-1.9696396-.4426323-.4588827-.3012473-1.0748175-.176275-1.38.28-.7576242.9608235-1.9894807 1.4164946-3.19 1.18.0252463-2.4894862.2661472-4.9721037.72-7.42 4.22 2.4 12.28 2.41 16.54 0z"/><circle id="Oval" cx="22" cy="8" r="1"/><circle id="Oval" cx="30" cy="8" r="1"/></g></g></svg>