<svg id="svg4938" height="512" viewBox="0 0 16.933333 16.933334" width="512" xmlns="http://www.w3.org/2000/svg" xmlns:svg="http://www.w3.org/2000/svg"><g id="layer1" transform="translate(0 -280.067)"><path id="path6468" d="m1.3073564 288.00415c-.43516103 0-.79375003.35859-.79375003.79375s.358589.79375.79375003.79375h2.5362799a.26460979.26460979 0 0 0 .2645842-.26458v-1.05834a.26460979.26460979 0 0 0 -.2645842-.26458h-1.4779459z" font-variant-ligatures="normal" font-variant-position="normal" font-variant-caps="normal" font-variant-numeric="normal" font-variant-alternates="normal" font-feature-settings="normal" text-indent="0" text-align="start" text-decoration-line="none" text-decoration-style="solid" text-decoration-color="#000000" text-transform="none" text-orientation="mixed" white-space="normal" shape-padding="0" isolation="auto" mix-blend-mode="normal" solid-color="#000000" solid-opacity="1" vector-effect="none"/><path id="path6466" d="m8.3725575 288.00415a.26460979.26460979 0 0 0 -.2645831.26458l.0005292 1.05834a.26460979.26460979 0 0 0 .2645838.26458h7.2217806c.43516 0 .79375-.35859.79375-.79375s-.35859-.79375-.79375-.79375h-5.290128z" font-variant-ligatures="normal" font-variant-position="normal" font-variant-caps="normal" font-variant-numeric="normal" font-variant-alternates="normal" font-feature-settings="normal" text-indent="0" text-align="start" text-decoration-line="none" text-decoration-style="solid" text-decoration-color="#000000" text-transform="none" text-orientation="mixed" white-space="normal" shape-padding="0" isolation="auto" mix-blend-mode="normal" solid-color="#000000" solid-opacity="1" vector-effect="none"/><path id="path6464" d="m1.3073564 288.53332h1.058334 1.2133629v.52916h-2.2716969c-.151156 0-.264583-.11343-.264583-.26458 0-.15116.113427-.26458.264583-.26458z" fill="#e4d3cf" font-variant-ligatures="normal" font-variant-position="normal" font-variant-caps="normal" font-variant-numeric="normal" font-variant-alternates="normal" font-feature-settings="normal" text-indent="0" text-align="start" text-decoration-line="none" text-decoration-style="solid" text-decoration-color="#000000" text-transform="none" text-orientation="mixed" white-space="normal" shape-padding="0" isolation="auto" mix-blend-mode="normal" solid-color="#000000" solid-opacity="1" vector-effect="none"/><path id="path4374" d="m8.6371403 288.53332h1.6675997 5.290117c.151156 0 .264583.11342.264583.26458 0 .15115-.113427.26458-.264583.26458h-6.9571976z" fill="#e4d3cf" font-variant-ligatures="normal" font-variant-position="normal" font-variant-caps="normal" font-variant-numeric="normal" font-variant-alternates="normal" font-feature-settings="normal" text-indent="0" text-align="start" text-decoration-line="none" text-decoration-style="solid" text-decoration-color="#000000" text-transform="none" text-orientation="mixed" white-space="normal" shape-padding="0" isolation="auto" mix-blend-mode="normal" solid-color="#000000" solid-opacity="1" vector-effect="none"/><path id="path6474" d="m5.1639683 290.22882c0 .11146-.03325.21201-.08966.29611-.01819.0274-.03972.0529-.06434.0775-.07187.072-.1630339.12265-.2661341.14366-.03438.007-.06985.0109-.107487.0109-.03721 0-.07321-.004-.107487-.0109-.1032298-.021-.19485-.0718-.2666499-.14366-.09551-.0955-.153995-.22502-.153995-.37362v-.90175c-.000015-.14612-.1184589-.26457-.2645751-.26459h-2.0071128c-.175806.00009-.302642.16844-.254249.33745l1.5874999 5.55625c.1074132.37594.2648691.74099.5177981 1.02784.252931.28685.6185241.4868 1.0593681.4868h7.6729165c.440843 0 .806436-.19995 1.059368-.4868.252928-.28685.410384-.6519.517797-1.02784l1.5875-5.55625c.04839-.16901-.07844-.33736-.254249-.33745h-6.9571967c-.1461199.00002-.2645688.11847-.2645839.26459l.00101 1.92391c-.0001669.0597-.012089.11444-.03307.16485-.03137.0754-.0831.13901-.148309.18345-.04307.0293-.09251.0504-.14702.0615-.02784.006-.05543.009-.08449.009s-.05754-.003-.08527-.009c-.05478-.0111-.105233-.0323-.1493441-.062-.04362-.0294-.08305-.0668-.1180639-.12508-.04659-.0775-.06535-.14694-.06535-.22224v-1.65773c0-.58114-.4775142-1.08568-1.1089801-1.04619-.5848038.0366-1.0056289.42725-1.00563.96823z" font-variant-ligatures="normal" font-variant-position="normal" font-variant-caps="normal" font-variant-numeric="normal" font-variant-alternates="normal" font-feature-settings="normal" text-indent="0" text-align="start" text-decoration-line="none" text-decoration-style="solid" text-decoration-color="#000000" text-transform="none" text-orientation="mixed" white-space="normal" shape-padding="0" isolation="auto" mix-blend-mode="normal" solid-color="#000000" solid-opacity="1" vector-effect="none"/><path id="path6472" d="m5.6931355 290.22882v-.6351c0-.29698.230949-.52762.5281348-.52762.2971821 0 .5281322.23064.5281322.52762v1.65778c0 .1754.04666.34033.1457298.50253.08007.13109.1704941.21491.2713051.28291.1011079.0682.2161879.11753.3395131.14263.06134.0125.125172.0191.1906878.0191.06551 0 .1295641-.007.190685-.0191.1231532-.0252.2377601-.0745.3384819-.14315.1504532-.10252.2688321-.24717.3395131-.41703.04706-.11305.07302-.23798.07338-.36741v-.00053l-.00101-1.65985h6.3417367l-1.490866 5.2188c-.09393.32876-.231209.62529-.406177.82373-.175006.19847-.370478.30751-.662531.30751h-7.6729107c-.292053 0-.4875239-.10904-.6624929-.30748-.1749661-.19843-.3122451-.49496-.4061751-.82372l-1.4908659-5.21879h1.3916469v.63717c0 .29045.1180412.55677.3090251.74776.1432219.14337.3281871.24615.5353659.28835.06909.0141.1403561.0212.2129081.0212.07247 0 .1436211-.007.212907-.0212.2072251-.0422.3918879-.14512.5348499-.28835.04701-.047.09026-.0991.1289331-.15607.1140499-.16887.1800931-.37386.1800931-.59169z" fill="#b67162" font-variant-ligatures="normal" font-variant-position="normal" font-variant-caps="normal" font-variant-numeric="normal" font-variant-alternates="normal" font-feature-settings="normal" text-indent="0" text-align="start" text-decoration-line="none" text-decoration-style="solid" text-decoration-color="#000000" text-transform="none" text-orientation="mixed" white-space="normal" shape-padding="0" isolation="auto" mix-blend-mode="normal" solid-color="#000000" solid-opacity="1" vector-effect="none"/><path id="path4376" d="m6.8661914 291.6184c-.0000021.00002.004.0605.0041.0625-.0000079-.00002-.0005291-.001-.0005291-.001.0000029.00002-.0036-.0615-.0036-.0615z" font-variant-ligatures="normal" font-variant-position="normal" font-variant-caps="normal" font-variant-numeric="normal" font-variant-alternates="normal" font-feature-settings="normal" text-indent="0" text-align="start" text-decoration-line="none" text-decoration-style="solid" text-decoration-color="#000000" text-transform="none" text-orientation="mixed" white-space="normal" shape-padding="0" isolation="auto" mix-blend-mode="normal" solid-color="#000000" solid-opacity="1" vector-effect="none"/><path id="path6478" d="m1.9945954 287.36352c.0017.32486.03934.64866.113282.96485.02772.12004.134612.20507.257812.20508h1.2128911v1.69531c0 .58106.4755798 1.05664 1.05664 1.05664.5810578 0 1.0585939-.47558 1.0585939-1.05664v-.63477c0-.29705.2302889-.52734.527344-.52734.2970559 0 .5273429.23029.5273429.52734v1.65821c0 .52029.42697.94726.947266.94726.5202992 0 .9414981-.43064.94336-.94726.0000032-.00067.0000032-.001 0-.002l-.00201-2.71679h1.6679677c.1232-.00001.230096-.085.257813-.20508.07348-.31629.110004-.64013.111328-.96484 0-2.39401-1.9458325-4.3418-4.3398204-4.34178-2.3939871.00003-4.339821 1.94781-4.339821 4.34182z" font-variant-ligatures="normal" font-variant-position="normal" font-variant-caps="normal" font-variant-numeric="normal" font-variant-alternates="normal" font-feature-settings="normal" text-indent="0" text-align="start" text-decoration-line="none" text-decoration-style="solid" text-decoration-color="#000000" text-transform="none" text-orientation="mixed" white-space="normal" shape-padding="0" isolation="auto" mix-blend-mode="normal" solid-color="#000000" solid-opacity="1" vector-effect="none"/><path id="path4378" d="m6.3344395 283.55102c2.1080288 0 3.8105465 1.70448 3.8105465 3.8125-.000979.2155-.03695.42862-.07422.64063h-1.6992187a.26460982.26460982 0 0 0 -.2636708.26562l.00201 2.98047c-.0008731.23996-.1777701.41992-.4140631.41992-.2362899 0-.4179689-.18167-.4179689-.41796v-1.65821c0-.58106-.4755801-1.05664-1.05664-1.05664-.58106 0-1.0566411.47558-1.0566411 1.05664v.63477c0 .29705-.2322449.52734-.5292968.52734-.2970562 0-.5273432-.23029-.5273432-.52734v-1.96094a.26460982.26460982 0 0 0 -.2637279-.26367h-1.2441411c-.037722-.21265-.075038-.42645-.076172-.64258.00108-2.1071 1.703185-3.81055 3.8105471-3.81055z" fill="#fce38a" font-variant-ligatures="normal" font-variant-position="normal" font-variant-caps="normal" font-variant-numeric="normal" font-variant-alternates="normal" font-feature-settings="normal" text-indent="0" text-align="start" text-decoration-line="none" text-decoration-style="solid" text-decoration-color="#000000" text-transform="none" text-orientation="mixed" white-space="normal" shape-padding="0" isolation="auto" mix-blend-mode="normal" solid-color="#000000" solid-opacity="1" vector-effect="none"/><path id="path6482" d="m10.567773 283.02254c-.8263325 0-1.5980356.23571-2.2546407.63614-.168924.10316-.168924.34848 0 .45165 1.0976869.66941 1.8324457 1.87161 1.8324457 3.25251-.0013.28504-.03431.56877-.0987.84595-.03858.16597.08747.32461.257865.32453h4.233334c.123088.00006.229965-.0848.257862-.20464.07352-.31646.110813-.64025.112139-.96532 0-2.39451-1.946302-4.34082-4.340305-4.34082z" font-variant-ligatures="normal" font-variant-position="normal" font-variant-caps="normal" font-variant-numeric="normal" font-variant-alternates="normal" font-feature-settings="normal" text-indent="0" text-align="start" text-decoration-line="none" text-decoration-style="solid" text-decoration-color="#000000" text-transform="none" text-orientation="mixed" white-space="normal" shape-padding="0" isolation="auto" mix-blend-mode="normal" solid-color="#000000" solid-opacity="1" vector-effect="none"/><path id="path4380" d="m8.9539174 283.94962c.494247-.23586 1.0297078-.39791 1.6138556-.39791 2.107862 0 3.810855 1.70282 3.811138 3.81062-.0009.21619-.01424.43806-.07493.64182h-3.703648c.05605-.21276.07348-.42495.07441-.64079 0-1.40149-.6885487-2.62085-1.7208256-3.41374z" fill="#ff75a0" font-variant-ligatures="normal" font-variant-position="normal" font-variant-caps="normal" font-variant-numeric="normal" font-variant-alternates="normal" font-feature-settings="normal" text-indent="0" text-align="start" text-decoration-line="none" text-decoration-style="solid" text-decoration-color="#000000" text-transform="none" text-orientation="mixed" white-space="normal" shape-padding="0" isolation="auto" mix-blend-mode="normal" solid-color="#000000" solid-opacity="1" vector-effect="none"/><path id="path6488" d="m8.4511075 280.60822c-1.9268451 0-3.5623352 1.25921-4.1273971 3.00085a.26460979.26460979 0 0 0 .366387.32039c.499708-.23984 1.054761-.37775 1.6443429-.37775.7268951 0 1.402294.20493 1.9797231.5581a.26460979.26460979 0 0 0 .2754371 0c.5781598-.35236 1.2526118-.5581 1.9781725-.5581.589468 0 1.144122.13796 1.643827.37775a.26460979.26460979 0 0 0 .366387-.32039c-.565025-1.74156-2.200039-3.00085-4.1268795-3.00085z" font-variant-ligatures="normal" font-variant-position="normal" font-variant-caps="normal" font-variant-numeric="normal" font-variant-alternates="normal" font-feature-settings="normal" text-indent="0" text-align="start" text-decoration-line="none" text-decoration-style="solid" text-decoration-color="#000000" text-transform="none" text-orientation="mixed" white-space="normal" shape-padding="0" isolation="auto" mix-blend-mode="normal" solid-color="#000000" solid-opacity="1" vector-effect="none"/><path id="path6486" d="m8.4511075 281.13738c1.4763398 0 2.7121135.86204 3.3450155 2.0867-.391629-.11798-.797841-.20154-1.22835-.20154-.7723446 0-1.4876506.22132-2.1151156.57516-.6280261-.3552-1.345039-.57516-2.1182171-.57516-.4307309 0-.8369488.084-1.228865.20206.632931-1.22489 1.8690161-2.08722 3.3455322-2.08722z" fill="#95e1d3" font-variant-ligatures="normal" font-variant-position="normal" font-variant-caps="normal" font-variant-numeric="normal" font-variant-alternates="normal" font-feature-settings="normal" text-indent="0" text-align="start" text-decoration-line="none" text-decoration-style="solid" text-decoration-color="#000000" text-transform="none" text-orientation="mixed" white-space="normal" shape-padding="0" isolation="auto" mix-blend-mode="normal" solid-color="#000000" solid-opacity="1" vector-effect="none"/><path id="path6492" d="m13.901936 281.36993-1.524971 2.31665c-.08405.1273-.04335.29911.08888.37517.515461.29713.955413.70887 1.282092 1.20303.104573.15861.33726.15861.441833 0l1.701708-2.58485c.158623-.24094.09009-.57464-.150894-.73329l-1.104842-.72761c-.06096-.0401-.128341-.0656-.195336-.078-.0532-.01-.104201-.0108-.152445-.006-.150583.0161-.296426.0985-.386025.23461z" font-variant-ligatures="normal" font-variant-position="normal" font-variant-caps="normal" font-variant-numeric="normal" font-variant-alternates="normal" font-feature-settings="normal" text-indent="0" text-align="start" text-decoration-line="none" text-decoration-style="solid" text-decoration-color="#000000" text-transform="none" text-orientation="mixed" white-space="normal" shape-padding="0" isolation="auto" mix-blend-mode="normal" solid-color="#000000" solid-opacity="1" vector-effect="none"/><path id="path4384" d="m14.344291 281.66138 1.104841.72761-1.507918 2.2903c-.281107-.35219-.609082-.65881-.984957-.90899z" fill="#b67162" font-variant-ligatures="normal" font-variant-position="normal" font-variant-caps="normal" font-variant-numeric="normal" font-variant-alternates="normal" font-feature-settings="normal" text-indent="0" text-align="start" text-decoration-line="none" text-decoration-style="solid" text-decoration-color="#000000" text-transform="none" text-orientation="mixed" white-space="normal" shape-padding="0" isolation="auto" mix-blend-mode="normal" solid-color="#000000" solid-opacity="1" vector-effect="none"/><path id="path4388" d="m10.746548 291.64477c-.9626766.10719-1.7002116.38567-2.3964836.65039-1.3925441.52945-2.610911 1.00568-5.5097659.0508l-.1660152.50391c2.9951162.98661 4.4674401.47211 5.863281-.0586 1.3958412-.5307 2.7228897-1.07343 5.8183587-.25391l.136719-.51171c-1.59573-.42247-2.783416-.48805-3.746094-.38086z" font-variant-ligatures="normal" font-variant-position="normal" font-variant-caps="normal" font-variant-numeric="normal" font-variant-alternates="normal" font-feature-settings="normal" text-indent="0" text-align="start" text-decoration-line="none" text-decoration-style="solid" text-decoration-color="#000000" text-transform="none" text-orientation="mixed" white-space="normal" shape-padding="0" isolation="auto" mix-blend-mode="normal" solid-color="#000000" solid-opacity="1" vector-effect="none"/></g></svg>