<?xml version="1.0" encoding="iso-8859-1"?>
<!-- Generator: Adobe Illustrator 19.0.0, SVG Export Plug-In . SVG Version: 6.00 Build 0)  -->
<svg xmlns="http://www.w3.org/2000/svg" xmlns:xlink="http://www.w3.org/1999/xlink" version="1.1" id="Layer_1" x="0px" y="0px" viewBox="0 0 512 512" style="enable-background:new 0 0 512 512;" xml:space="preserve">
<path style="fill:#82FFFF;" d="M248.736,501.544l-13.231-46.376l-46.367-13.233l-13.231-46.375l-46.284-13.208l-13.208-46.292  l-46.367-13.233l-13.231-46.376l-46.366-13.229L263.265,10.451l13.232,46.376l46.367,13.233l13.231,46.376l46.284,13.208  l13.208,46.292l46.367,13.233l13.231,46.376l46.367,13.233L248.736,501.544z"/>
<circle style="fill:#FFFFFF;" cx="255.999" cy="255.999" r="131.657"/>
<circle style="fill:#FF6700;" cx="255.999" cy="255.999" r="102.4"/>
<path d="M368.847,255.999c0-62.224-50.623-112.849-112.849-112.849S143.15,193.775,143.15,255.999s50.623,112.849,112.849,112.849  S368.847,318.224,368.847,255.999z M164.646,266.448h66.127l-46.73,46.73C173.581,300.039,166.638,283.985,164.646,266.448z   M184.042,198.82l46.731,46.73h-66.127C166.638,228.014,173.581,211.959,184.042,198.82z M347.353,245.55h-66.127l46.73-46.73  C338.417,211.959,345.359,228.014,347.353,245.55z M327.955,313.178l-46.73-46.73h66.127  C345.359,283.985,338.417,300.039,327.955,313.178z M313.177,327.955c-13.139,10.461-29.193,17.405-46.73,19.397v-66.127  L313.177,327.955z M266.448,230.772v-66.127c17.536,1.993,33.592,8.936,46.73,19.397L266.448,230.772z M245.55,230.772l-46.73-46.73  c13.139-10.461,29.193-17.405,46.73-19.397V230.772z M245.55,281.225v66.127c-17.536-1.993-33.592-8.936-46.73-19.397  L245.55,281.225z"/>
<path d="M511.665,246.151c-0.929-3.585-3.685-6.409-7.247-7.426l-40.779-11.638l-11.638-40.788c-0.991-3.474-3.706-6.19-7.181-7.182  l-40.78-11.638l-11.614-40.705c-0.991-3.474-3.707-6.19-7.181-7.182l-40.697-11.614L332.911,67.19  c-0.991-3.474-3.706-6.19-7.181-7.182L284.952,48.37L273.313,7.584c-1.017-3.56-3.841-6.317-7.424-7.247  c-3.585-0.929-7.392,0.107-10.011,2.725L3.061,255.833c-2.619,2.619-3.656,6.427-2.726,10.011c0.929,3.585,3.685,6.409,7.247,7.426  l40.779,11.638l11.639,40.788c0.991,3.474,3.706,6.19,7.181,7.182l40.779,11.638l9.933,34.813L3.06,494.161  c-4.08,4.08-4.08,10.697,0,14.778c2.041,2.04,4.715,3.059,7.388,3.059s5.348-1.021,7.388-3.06l114.844-114.845l34.769,9.922  l11.638,40.788c0.991,3.474,3.706,6.19,7.18,7.182l40.78,11.638l11.638,40.788c1.017,3.561,3.841,6.317,7.424,7.247  c0.868,0.225,1.749,0.334,2.623,0.334c2.737,0,5.404-1.075,7.388-3.059l252.815-252.771  C511.557,253.544,512.595,249.735,511.665,246.151z M253.91,481.595l-6.652-23.314l15.63-15.63c4.08-4.08,4.08-10.697,0-14.777  c-4.081-4.08-10.696-4.08-14.778,0l-15.578,15.579l-34.94-9.971l-11.638-40.788c-0.991-3.474-3.706-6.19-7.18-7.182l-29.183-8.329  l13.633-13.633c24.912,21.522,57.35,34.554,92.776,34.554c78.357,0,142.106-63.748,142.106-142.106s-63.749-142.106-142.106-142.106  s-142.106,63.748-142.106,142.106c0,35.426,13.032,67.864,34.551,92.776L134.8,362.42l-8.339-29.226  c-0.991-3.474-3.706-6.19-7.181-7.182l-40.779-11.638l-9.96-34.906l15.561-15.561c4.08-4.08,4.08-10.697,0-14.777  c-4.081-4.08-10.696-4.08-14.778,0L53.745,264.71l-23.344-6.662L258.091,30.4l6.672,23.382l-15.475,15.476  c-4.08,4.08-4.08,10.697,0,14.777c2.041,2.041,4.715,3.06,7.388,3.06c2.674,0,5.348-1.021,7.388-3.06l15.473-15.474l34.871,9.952  l11.638,40.788c0.991,3.474,3.706,6.19,7.181,7.182l40.697,11.614l11.614,40.705c0.991,3.474,3.706,6.19,7.181,7.182l40.78,11.638  l9.955,34.89l-15.381,15.381c-4.08,4.08-4.08,10.697,0,14.778c2.041,2.041,4.715,3.06,7.388,3.06c2.674,0,5.348-1.02,7.388-3.06  l15.388-15.388l23.361,6.666L253.91,481.595z M134.791,255.999c0-66.833,54.373-121.208,121.208-121.208  s121.208,54.374,121.208,121.208s-54.373,121.208-121.208,121.208S134.791,322.833,134.791,255.999z"/>
<path d="M269.943,406.041l-0.097,0.097c-4.08,4.08-4.08,10.697,0,14.778c2.041,2.041,4.715,3.06,7.388,3.06  c2.674,0,5.348-1.02,7.388-3.06l0.097-0.097c4.08-4.08,4.08-10.697,0-14.778C280.638,401.959,274.024,401.959,269.943,406.041z"/>
<path d="M91.157,227.298l-0.097,0.097c-4.08,4.08-4.08,10.697,0,14.778c2.041,2.041,4.715,3.06,7.388,3.06s5.348-1.02,7.388-3.06  l0.097-0.097c4.08-4.08,4.08-10.697,0-14.778C101.854,223.218,95.24,223.218,91.157,227.298z"/>
<path d="M227.551,90.994l-0.097,0.097c-4.08,4.08-4.08,10.697,0,14.778c2.041,2.041,4.715,3.06,7.388,3.06s5.348-1.02,7.388-3.06  l0.097-0.097c4.08-4.08,4.08-10.697,0-14.778C238.247,86.913,231.633,86.913,227.551,90.994z"/>
<path d="M406.336,269.627l-0.097,0.097c-4.08,4.08-4.08,10.697,0,14.778c2.041,2.041,4.715,3.06,7.388,3.06  c2.674,0,5.348-1.02,7.388-3.06l0.097-0.097c4.08-4.08,4.08-10.697,0-14.778C417.032,265.546,410.417,265.546,406.336,269.627z"/>
<g>
</g>
<g>
</g>
<g>
</g>
<g>
</g>
<g>
</g>
<g>
</g>
<g>
</g>
<g>
</g>
<g>
</g>
<g>
</g>
<g>
</g>
<g>
</g>
<g>
</g>
<g>
</g>
<g>
</g>
</svg>
