<svg height="512" viewBox="0 0 48 48" width="512" xmlns="http://www.w3.org/2000/svg"><g id="Line"><path d="m38.206 17.42.837-2.932c1.631-5.182-2.799-10.815-8.213-10.507-1.423.081-12.599.059-13.967.001-5.296-.117-9.499 5.445-7.906 10.505 0 0 .837 2.932.837 2.932-2.928 1.369-4.794 4.283-4.794 7.611.023 2.917 1.841 5.622 4.631 6.892l10.954 4.988c.131.059.272.09.415.09h6c.143 0 .284-.031.415-.09 0 0 10.954-4.988 10.954-4.988 6.34-2.769 5.921-11.788-.163-14.502z" fill="#92b77e"/><g><path d="m36 22.96c0 2.23-.87 4.32-2.44 5.89l-6.51 6.51.08.64h-6.26l.08-.64-6.51-6.51c-4.072-3.841-2.781-11.214 2.35-13.43 0 0-.83-2.9-.83-2.9-1.603-5.011 2.594-10.702 7.83-10.54 5.426-.327 9.9 5.306 8.25 10.51 0 0-.83 2.93-.83 2.93 2.92 1.37 4.79 4.28 4.79 7.54z" fill="#a9ca95"/></g><path d="m30.707 21.293c-.391-.391-1.023-.391-1.414 0l-4.293 4.293v-10.253l2.8-3.733c.779-1.044-.808-2.245-1.6-1.2 0 0-1.2 1.6-1.2 1.6v-4c-.004-1.301-1.994-1.313-2 0v4l-1.2-1.6c-.33-.44-.956-.532-1.4-.2-.442.331-.531.958-.2 1.4l2.8 3.733v10.253l-4.293-4.293c-.925-.922-2.337.486-1.414 1.414 0 0 5.707 5.707 5.707 5.707v8.796c.019 1.302 1.977 1.325 2 0v-8.796l5.707-5.707c.391-.391.391-1.023 0-1.414z" fill="#92b77e"/><path d="m28 43c0 1.65-1.35 3-3 3h-2c-1.682.005-3.086-1.433-2.99-3.12 0 0 .86-6.88.86-6.88h6.26l.86 6.88c.01.04.01.08.01.12z" fill="#ffecae"/><path d="m9.631 31.922 10.954 4.988c.053.024.109.021.164.036l-.741 5.93c-.091 1.693 1.301 3.129 2.992 3.124h2c1.654 0 3-1.346 3-3 .007-.142-.741-5.913-.749-6.054.055-.014.111-.012.164-.036l10.954-4.988c2.79-1.271 4.608-3.976 4.631-6.958 0-3.265-1.866-6.175-4.794-7.543l.837-2.932c.665-2.325.276-4.812-1.065-6.824-1.751-2.672-4.946-4.018-8.09-3.632-.091.01-.169.048-.25.08-1.562-1.421-3.652-2.188-5.808-2.132-2.046-.009-3.985.752-5.482 2.128-.077-.03-.151-.067-.237-.076-3.136-.381-6.344.956-8.09 3.632-1.341 2.012-1.73 4.499-1.065 6.824l.837 2.932c-6.024 2.686-6.558 11.712-.162 14.501zm15.369 12.078h-2c-.534 0-.972-.421-.999-.948l.884-7.075c.04.005.074.023.115.023h2c.041 0 .075-.018.114-.023l.884 7.075c-.026.527-.464.948-.998.948zm11.314-35.227c1.015 1.523 1.309 3.406.806 5.166l-1.082 3.787c-.141.493.114 1.012.59 1.203 2.603.886 4.384 3.272 4.372 6.085-.017 2.142-1.375 4.139-3.46 5.088l-9.598 4.371 5.618-5.618c4.076-3.848 2.783-11.222-2.354-13.435 0 0 .838-2.932.838-2.932.63-2.204.303-4.55-.875-6.503 2.072.023 3.994 1.062 5.145 2.788zm-12.493-4.792c4.126-.273 7.546 3.997 6.299 7.958 0 0-1.081 3.787-1.081 3.787-.141.493.114 1.012.59 1.203 4.399 1.325 5.862 7.349 2.517 10.512 0 0-6.686 6.686-6.686 6.686-.14-.075-.291-.127-.46-.127v-5.586l5.707-5.707c.918-.931-.484-2.334-1.414-1.414 0 0-4.293 4.293-4.293 4.293v-10.253l2.8-3.733c.779-1.045-.808-2.245-1.6-1.2 0 0-1.2 1.6-1.2 1.6v-4c0-.552-.448-1-1-1s-1 .448-1 1v4l-1.2-1.6c-.784-1.038-2.383.146-1.6 1.2 0 0 2.8 3.733 2.8 3.733v10.253l-4.293-4.293c-.925-.922-2.337.487-1.414 1.414 0 0 5.707 5.707 5.707 5.707v5.586c-.169 0-.32.052-.46.126l-6.686-6.686c-3.343-3.165-1.885-9.186 2.517-10.512.476-.191.731-.71.59-1.203l-1.08-3.764c-1.204-3.724 1.936-8.128 5.94-7.98zm-12.841 15.104c.633-.174 1.184-.646.981-1.359 0 0-1.082-3.787-1.082-3.787-1.201-3.819 1.957-8.019 5.954-7.953-1.183 1.967-1.509 4.322-.874 6.53l.833 2.905c-5.136 2.213-6.428 9.587-2.353 13.434 0 0 5.617 5.618 5.617 5.618l-9.598-4.371c-4.966-2.178-4.292-9.183.522-11.017z"/></g></svg>