<svg height="512" viewBox="0 0 48 48" width="512" xmlns="http://www.w3.org/2000/svg"><g id="File_folder" data-name="File folder"><path d="m17 1h14v46h-14z" fill="#fc6"/><path d="m31 1h14v46h-14z" fill="#6fabe6"/><path d="m31 1v44h-8a4 4 0 0 1 -4-4v-40z" fill="#ffde76"/><path d="m45 1v44h-8a4 4 0 0 1 -4-4v-40z" fill="#82bcf4"/><circle cx="24" cy="10" fill="#374f68" r="3"/><path d="m21 19h6v20h-6z" fill="#dad7e5"/><circle cx="38" cy="10" fill="#374f68" r="3"/><path d="m35 19h6v20h-6z" fill="#dad7e5"/><path d="m3 1h14v46h-14z" fill="#db5669"/><path d="m17 1v44h-8a4 4 0 0 1 -3.87-3c-.19-.68-.13 1.76-.13-41z" fill="#f26674"/><path d="m13 10a3 3 0 1 1 -3.87-2.87 3 3 0 0 1 3.87 2.87z" fill="#374f68"/><g fill="#425b72"><path d="m12.87 10.87a3 3 0 0 1 -3.74-3.74 3 3 0 0 1 3.74 3.74z"/><path d="m26.87 10.87a3 3 0 0 1 -3.74-3.74 3 3 0 0 1 3.74 3.74z"/><path d="m40.87 10.87a3 3 0 0 1 -3.74-3.74 3 3 0 0 1 3.74 3.74z"/></g><path d="m7 19h6v20h-6z" fill="#dad7e5"/><path d="m13 19c0 18.76-.1 18 0 18a4 4 0 0 1 -4-4v-14z" fill="#edebf2"/><path d="m27 19c0 18.76-.1 18 0 18a4 4 0 0 1 -4-4v-14z" fill="#edebf2"/><path d="m41 19c0 18.76-.1 18 0 18a4 4 0 0 1 -4-4v-14z" fill="#edebf2"/><path d="m3 42h14v2h-14z" fill="#374f68"/><path d="m17 42v2h-10.64a4 4 0 0 1 -1.23-2z" fill="#425b72"/><path d="m17 42h14v2h-14z" fill="#374f68"/><path d="m31 42v2h-10.64a4 4 0 0 1 -1.23-2z" fill="#425b72"/><path d="m31 42h14v2h-14z" fill="#374f68"/><path d="m45 42v2h-10.64a4 4 0 0 1 -1.23-2z" fill="#425b72"/><path d="m24 14a4 4 0 1 0 -4-4 4 4 0 0 0 4 4zm0-6a2 2 0 1 1 -2 2 2 2 0 0 1 2-2z"/><path d="m21 40h6a1 1 0 0 0 1-1v-20a1 1 0 0 0 -1-1h-6a1 1 0 0 0 -1 1v20a1 1 0 0 0 1 1zm1-20h4v18h-4z"/><path d="m45 0h-42a1 1 0 0 0 -1 1v46a1 1 0 0 0 1 1h42a1 1 0 0 0 1-1v-46a1 1 0 0 0 -1-1zm-1 42h-12v-40h12zm-14-40v40h-12v-40zm-14 0v40h-12v-40zm-12 44v-2h12v2zm14-2h12v2h-12zm14 2v-2h12v2z"/><path d="m38 14a4 4 0 1 0 -4-4 4 4 0 0 0 4 4zm0-6a2 2 0 1 1 -2 2 2 2 0 0 1 2-2z"/><path d="m35 40h6a1 1 0 0 0 1-1v-20a1 1 0 0 0 -1-1h-6a1 1 0 0 0 -1 1v20a1 1 0 0 0 1 1zm1-20h4v18h-4z"/><path d="m10 14a4 4 0 1 0 -4-4 4 4 0 0 0 4 4zm0-6a2 2 0 1 1 -2 2 2 2 0 0 1 2-2z"/><path d="m7 40h6a1 1 0 0 0 1-1v-20a1 1 0 0 0 -1-1h-6a1 1 0 0 0 -1 1v20a1 1 0 0 0 1 1zm1-20h4v18h-4z"/></g></svg>