<svg height="512" viewBox="0 0 60 61" width="512" xmlns="http://www.w3.org/2000/svg"><g id="020---Tick" fill="none"><g id="Icons" transform="translate(12)"><path id="Shape" d="m28 13v4.14h-20.00001479l.00001479-4.14c-.00268211-1.3828321.35950543-2.7418977 1.05-3.94l8.95-3.06 9 3.06c.6730474 1.2029277 1.0179138 2.5617014 1 3.94z" fill="#283593"/><path id="Shape" d="m25 17.14h-17c0-3.92-.21-5.83.89-8.08l7.61-3.06 7.61 3.06c1.11 2.27.89 3.94.89 8.08z" fill="#3f51b5"/><path id="Shape" d="m18 6c-.0019316 1.90251834-1.083411 3.63908744-2.79 4.48-1.4038997-.63968386-3.0161003-.63968386-4.42 0-2.21434604-1.09111031-3.30100176-3.63496733-2.55839559-5.98919463s3.09220119-3.81416986 5.53182899-3.43725298 4.2390717 2.4778764 4.2365666 4.94644761z" fill="#f5f5f5"/><path id="Shape" d="m28 6c-.0019316 1.90251834-1.083411 3.63908744-2.79 4.48-1.4036125-.64100559-3.0163875-.64100559-4.42 0-2.214346-1.09111031-3.3010018-3.63496733-2.5583956-5.98919463s3.0922012-3.81416986 5.531829-3.43725298 4.2390717 2.4778764 4.2365666 4.94644761z" fill="#cfd8dc"/><path id="Shape" d="m23 10c-.507466-.00203619-1.0126035.0686831-1.5.21-.4873965-.1413169-.992534-.21203619-1.5-.21-1.499921-1.12650137-2.2431278-2.99777152-1.9248334-4.84640804.3182943-1.84863652 1.6445345-3.36359367 3.4348334-3.92359196 1.7873699.56488465 3.1086346 2.08205366 3.4226096 3.93008115.313975 1.8480275-.4320898 3.71643037-1.9326096 4.83991885z" fill="#f5f5f5"/><rect id="Rectangle-path" fill="#783e22" height="44" rx="16" width="36" y="15"/><rect id="Rectangle-path" fill="#a0522d" height="44" rx="16" width="33" y="15"/><path id="Shape" d="m27 16.61v18.39c0 4.9705627-4.0294373 9-9 9s-9-4.0294373-9-9v-18.39c3.88-1.89 6.75-1.61 11-1.61 2.4254742-.003236 4.8196619.5474272 7 1.61z" fill="#825a2c"/></g><g id="Layer_10" fill="#000" transform="translate(-1 -1)"><circle id="Oval" cx="27" cy="7" r="1"/><circle id="Oval" cx="35" cy="7" r="1"/><path id="Shape" d="m2.71 47.71 1.29-1.3v1.59c0 .5522847.44771525 1 1 1s1-.4477153 1-1v-3.84l1.67-5c.09009062-.2632213.28576448-.4770131.54-.59l3.79-1.7v6.07l-4.42 5.46c-.53050611.6526198-.76270209 1.4979582-.64 2.33l.78 5.15-1.24 3.81c-.12654607.3436342-.05514428.7289538.18612623 1.0044296.2412705.2754758.61381666.3970435.97113271.3168959s.64224655-.3491902.74274106-.7013255l.62-1.74.67 1.43c.1561707.3291516.4789913.5473259.8426381.5694864s.7105712-.1551997.9055546-.4629521c.1949835-.3077523.207169-.6971939.0318073-1.0165343l-1.74-3.44-.79-5.22c-.04279707-.2779624.03343163-.5610976.21-.78l3-3.69c.9943182 8.5667133 8.2457798 15.0315611 16.87 15.04h4c8.6144607-.0009846 15.8665341-6.4453626 16.88-15l3 3.7c.173831.2163983.2498984.4953119.21.77l-.79 5.22-1.74 3.42c-.1753617.3193404-.1631762.708782.0318073 1.0165343.1949834.3077524.5419078.4851126.9055546.4629521s.6864674-.2403348.8426381-.5694864l.72-1.41.57 1.74c.1004945.3521353.385425.6211779.7427411.7013255.357316.0801476.7298622-.0414201.9711327-.3168959s.3126723-.6607954.1861262-1.0044296l-1.24-3.81.78-5.15c.1227021-.8320418-.1094939-1.6773802-.64-2.33l-4.43-5.5v-6.07l3.79 1.69c.2542355.1129869.4499094.3267787.54.59l1.67 5v3.85c0 .5522847.4477153 1 1 1s1-.4477153 1-1v-1.59l1.29 1.3c.3921222.3921222 1.0278778.3921222 1.42 0s.3921222-1.0278778 0-1.42l-2.84-2.83-1.64-4.94c-.2677735-.7991407-.85935-1.448786-1.63-1.79l-4.6-2c0-3 .13-4.91-.81-7.86l4.75-2.65c1.09-.59 1.25-1.31 2.85-4.51l3.81-2.91c.2858125-.2143593.4355548-.5649147.3928204-.9196153-.0427344-.3547005-.2714531-.6596588-.6-.8s-.7070079-.0947441-.9928204.1196153l-1.91 1.43.51-2.43c.0714531-.3572656-.0531204-.7255124-.3267949-.9660254s-.6548724-.3167526-1-.2c-.3451277.1167526-.601752.4087598-.6732051.7660254l-1 4.87c-1.78 3.55-1.71 3.55-2.08 3.76l-4.52 2.51c-.8209952-1.7778916-1.9367242-3.4041512-3.3-4.81l3.9-2.89c.5736025-.4296364.9744515-1.0504202 1.13-1.75l1.79-8.06 2.88-3.83c.3313708-.4418278.2418278-1.06862915-.2-1.4s-1.0686292-.2418278-1.4.2l-1.66 2.21-.54-2.81c-.0714531-.3572656-.3280774-.64927284-.6732051-.76602543-.3451276-.11675258-.7263255-.04051301-1 .20000001-.2736745.24051301-.398248.60875983-.3267949.96602542l1 4.8-1.8 8.07c-.11.49 0 .34-4.54 3.7-.5299308-.4221885-1.0842201-.8128623-1.66-1.17 0-3.57.21-5.15-.89-7.44 1.786641-2.7917994.9717992-6.50335871-1.8200001-8.28999983-2.7917994-1.78664113-6.5033587-.97179945-8.2899999 1.81999983-1.7866412-2.79179935-5.4982006-3.60664107-8.29-1.81999992-2.7917993 1.78664114-3.6066411 5.49820051-1.82 8.28999992-1.1 2.29-.89 3.84-.89 7.44-.5686855.3545568-1.1162761.7418769-1.64 1.16-4.61-3.45-4.44-3.21-4.54-3.7l-1.82-8.06 1-4.8c.0714531-.35726559-.0531204-.72551239-.3267949-.9660254s-.6548724-.31675258-1-.2c-.3451277.11675258-.601752.40875981-.6732051.7660254l-.54 2.81-1.66-2.21c-.21435935-.28581248-.5649147-.43555474-.91961525-.39282034-.35470054.04273441-.65965882.27145312-.8.60000001-.14034119.32854689-.09474411.70700786.11961525.99282033l2.87 3.83 1.79 8.06c.1581244.7010491.5626569 1.3220419 1.14 1.75l3.86 2.89c-1.3632758 1.4058488-2.4790048 3.0321084-3.3 4.81l-4.56-2.51c-.39-.22-.29-.19-2.08-3.76l-.92-4.87c-.11045696-.5522847-.64771525-.9104569-1.2-.8-.55228474.110457-.91045694.6477153-.8 1.2l.49 2.43-1.89-1.43c-.4418278-.3313708-1.06862914-.2418278-1.39999998.2s-.2418278 1.0686291.19999998 1.4l3.81 2.86 1.62 3.23c.26442791.5459308.69503308.9940403 1.23 1.28l4.75 2.65c-.94 2.95-.81 4.93-.81 7.86l-4.6 2c-.77065004.341214-1.36222651.9908593-1.63 1.79l-1.64 4.99-2.84 2.83c-.39212214.3921222-.39212212 1.0278778.00000004 1.42.39212215.3921221 1.02787778.3921221 1.41999996 0zm30.29 11.29h-4c-8.2842712 0-15-6.7157288-15-15v-12c.0063737-5.1442505 2.6484461-9.9264016 7-12.67v16.67c0 5.5228475 4.4771525 10 10 10s10-4.4771525 10-10v-16.67c4.3515539 2.7435984 6.9936263 7.5257495 7 12.67v12c0 8.2842712-6.7157288 15-15 15zm-10.62-47.23c.3113797.2373121.6465009.441736 1 .61.274806.1327594.595194.1327594.87 0 1.133945-.500252 2.426055-.500252 3.56 0 .274806.1327594.595194.1327594.87 0 .9445042-.4701549 1.7456579-1.1849774 2.32-2.07.5825646.8890917 1.3945016 1.6042872 2.35 2.07.274806.1327594.595194.1327594.87 0 1.133945-.500252 2.426055-.500252 3.56 0 .6.29 1.21-.14 1.84-.61.49 1.45.38 2.3.38 4.76-4-1.8-6.72-1.53-11-1.53-2.4164125-.0012013-4.8044425.5207539-7 1.53 0-2.53-.11-3.31.38-4.76zm.62 6.49c3.44-1.51 5.82-1.26 10-1.26 2.0658403-.0016267 4.1093252.4275052 6 1.26v17.74c0 4.418278-3.581722 8-8 8s-8-3.581722-8-8zm13-15.26c1.7759288.00212264 3.3378115 1.17493011 3.8351607 2.87979707.4973493 1.70486696-.1889383 3.53351788-1.6851607 4.49020293-1.3905792-.49509953-2.9094208-.49509953-4.3 0-1.4962224-.95668505-2.18251-2.78533597-1.6851607-4.49020293.4973492-1.70486696 2.0592319-2.87767443 3.8351607-2.87979707zm-10 0c1.7759288.00212264 3.3378115 1.17493011 3.8351607 2.87979707.4973493 1.70486696-.1889383 3.53351788-1.6851607 4.49020293-1.3905792-.49509953-2.9094208-.49509953-4.3 0-1.4962224-.95668505-2.18251-2.78533597-1.6851607-4.49020293.4973492-1.70486696 2.0592319-2.87767443 3.8351607-2.87979707z"/></g></g></svg>