<svg height="512" viewBox="0 0 64 64" width="512" xmlns="http://www.w3.org/2000/svg"><g id="_20-Jar" data-name="20-Jar"><g fill="#ffb13b"><circle cx="17" cy="13" r="2"/><circle cx="31" cy="7" r="2"/><circle cx="47" cy="11" r="2"/></g><path d="m17 15a2 2 0 1 0 -2-2 2.006 2.006 0 0 0 2 2zm3 1a3 3 0 0 1 -6 0 3 3 0 0 1 0-6 3 3 0 0 1 6 0 3 3 0 0 1 0 6z" fill="#ffa8ad"/><path d="m31 9a2 2 0 1 0 -2-2 2.006 2.006 0 0 0 2 2zm3 1a3 3 0 0 1 -6 0 3 3 0 0 1 0-6 3 3 0 0 1 6 0 3 3 0 0 1 0 6z" fill="#ffa8ad"/><path d="m47 13a2 2 0 1 0 -2-2 2.006 2.006 0 0 0 2 2zm-6-2a3 3 0 0 1 3-3 3 3 0 0 1 6 0 3 3 0 0 1 0 6 3 3 0 0 1 -6 0 3 3 0 0 1 -3-3z" fill="#ffa8ad"/><path d="m43.81 20.81 7.19 7.19s-3.95 0-6.01-1.32c-2.32-1.49-2.47-4.57-1.18-5.87z" fill="#85ad59"/><path d="m18.27 22.73a3 3 0 0 1 -.66 4.49c-1.54.93-4.6.77-4.6.77z" fill="#85ad59"/><path d="m49.68 21.99c1.32 2.06 1.32 6.01 1.32 6.01l-7.19-7.19c1.3-1.29 4.38-1.14 5.87 1.18z" fill="#bed264"/><path d="m18.27 22.73-5.26 5.26s-.16-3.06.77-4.6a3 3 0 0 1 4.49-.66z" fill="#bed264"/><path d="m47 54h-5.27q-.15-1.545-.33-3h4.6v-11h-6.7c-.09-.38-.18-.74-.26-1.1.19-.52 1.18-2.9 2.96-2.9h5a1.959 1.959 0 0 1 2 2v14a2.006 2.006 0 0 1 -2 2z" fill="#c48958"/><path d="m20.01 59h21.98c.01.33.01.66.01 1a2.938 2.938 0 0 1 -3 3h-16a2.938 2.938 0 0 1 -3-3c0-.34 0-.67.01-1z" fill="#c48958"/><path d="m24 60c0-.34 0-.67.01-1h-4c-.01.33-.01.66-.01 1a2.938 2.938 0 0 0 3 3h4a2.938 2.938 0 0 1 -3-3z" fill="#b27a49"/><path d="m35 23h5s-.58 1.75-1.12 4h-15.6a12.389 12.389 0 0 0 -1.28-4z" fill="#c48958"/><path d="m22 23a12.389 12.389 0 0 1 1.28 4h4a12.389 12.389 0 0 0 -1.28-4z" fill="#b27a49"/><path d="m41.73 54c.14 1.6.24 3.27.26 5h-21.98c.2-12.26 3.99-17.16 3.99-23a47.94 47.94 0 0 0 -.72-9h15.6a27.536 27.536 0 0 0 -.88 6 31.61 31.61 0 0 0 1.04 5.9c.08.36.17.72.26 1.1.7 3.04 1.54 6.76 2.1 11q.18 1.455.33 3z" fill="#fff2de"/><path d="m27.28 27h-4a47.94 47.94 0 0 1 .72 9c0 5.84-3.79 10.74-3.99 23h4c.2-12.26 3.99-17.16 3.99-23a47.94 47.94 0 0 0 -.72-9z" fill="#ffe4c2"/><path d="m39 64h-16a3.888 3.888 0 0 1 -4-4 54.963 54.963 0 0 1 2.605-16.892 25.555 25.555 0 0 0 1.395-7.108c0-9.422-1.821-12.428-1.839-12.457a1 1 0 0 1 .839-1.543h18a1 1 0 0 1 .949 1.316c-.02.059-1.949 5.895-1.949 9.684a34.922 34.922 0 0 0 1.138 6.21 88.519 88.519 0 0 1 2.862 20.79 3.887 3.887 0 0 1 -4 4zm-15.479-40c.635 1.843 1.479 5.511 1.479 12a27.34 27.34 0 0 1 -1.474 7.664 53.24 53.24 0 0 0 -2.526 16.336 1.882 1.882 0 0 0 2 2h16a1.884 1.884 0 0 0 2-2 86.818 86.818 0 0 0 -2.81-20.337 35.318 35.318 0 0 1 -1.19-6.663 36.519 36.519 0 0 1 1.643-9z"/><path d="m23 26h16v2h-16z"/><path d="m20 58h22v2h-22z"/><path d="m47 18a4.007 4.007 0 0 1 -3.9-3.1 4 4 0 0 1 0-7.8 4 4 0 0 1 7.8 0 4 4 0 0 1 0 7.8 4.007 4.007 0 0 1 -3.9 3.1zm0-12a2 2 0 0 0 -2 2 1 1 0 0 1 -1 1 2 2 0 0 0 0 4 1 1 0 0 1 1 1 2 2 0 0 0 4 0 1 1 0 0 1 1-1 2 2 0 0 0 0-4 1 1 0 0 1 -1-1 2 2 0 0 0 -2-2z"/><path d="m47 14a3 3 0 1 1 3-3 3 3 0 0 1 -3 3zm0-4a1 1 0 1 0 1 1 1 1 0 0 0 -1-1z"/><path d="m17 20a4.007 4.007 0 0 1 -3.9-3.1 4 4 0 0 1 0-7.8 4 4 0 0 1 7.8 0 4 4 0 0 1 0 7.8 4.007 4.007 0 0 1 -3.9 3.1zm0-12a2 2 0 0 0 -2 2 1 1 0 0 1 -1 1 2 2 0 0 0 0 4 1 1 0 0 1 1 1 2 2 0 0 0 4 0 1 1 0 0 1 1-1 2 2 0 0 0 0-4 1 1 0 0 1 -1-1 2 2 0 0 0 -2-2z"/><path d="m17 16a3 3 0 1 1 3-3 3 3 0 0 1 -3 3zm0-4a1 1 0 1 0 1 1 1 1 0 0 0 -1-1z"/><path d="m31 14a4.007 4.007 0 0 1 -3.9-3.1 4 4 0 0 1 0-7.8 4 4 0 0 1 7.8 0 4 4 0 0 1 0 7.8 4.007 4.007 0 0 1 -3.9 3.1zm0-12a2 2 0 0 0 -2 2 1 1 0 0 1 -1 1 2 2 0 0 0 0 4 1 1 0 0 1 1 1 2 2 0 0 0 4 0 1 1 0 0 1 1-1 2 2 0 0 0 0-4 1 1 0 0 1 -1-1 2 2 0 0 0 -2-2z"/><path d="m31 10a3 3 0 1 1 3-3 3 3 0 0 1 -3 3zm0-4a1 1 0 1 0 1 1 1 1 0 0 0 -1-1z"/><path d="m30 13h2v10h-2z"/><path d="m33.136 17.5h12.728v2h-12.728z" transform="matrix(.707 -.707 .707 .707 -1.512 33.349)"/><path d="m22.5 14.55h2v9.899h-2z" transform="matrix(.707 -.707 .707 .707 -6.906 22.328)"/><path d="m51 29c-.173 0-4.268-.017-6.554-1.481a5.3 5.3 0 0 1 -2.416-3.906 4.314 4.314 0 0 1 1.076-3.507 4.3 4.3 0 0 1 3.506-1.076 5.3 5.3 0 0 1 3.907 2.417c1.464 2.285 1.481 6.38 1.481 6.553a1 1 0 0 1 -1 1zm-5.475-3.165a10.816 10.816 0 0 0 4.429 1.118 10.832 10.832 0 0 0 -1.119-4.428 3.3 3.3 0 0 0 -2.435-1.506 2.351 2.351 0 0 0 -1.876.5 2.348 2.348 0 0 0 -.5 1.877 3.3 3.3 0 0 0 1.506 2.437z"/><path d="m44.5 14.722h2v15.556h-2z" transform="matrix(.707 -.707 .707 .707 -2.583 38.763)"/><path d="m13.6 29c-.329 0-.56-.011-.641-.016a1 1 0 0 1 -.944-.943c-.019-.345-.152-3.416.915-5.173a3.907 3.907 0 0 1 2.9-1.84 3.865 3.865 0 0 1 3.153.991 3.994 3.994 0 0 1 -.85 6.05 9.656 9.656 0 0 1 -4.533.931zm2.726-6a2.062 2.062 0 0 0 -.26.016 1.9 1.9 0 0 0 -1.427.893 7.242 7.242 0 0 0 -.632 3.085 7.229 7.229 0 0 0 3.086-.632 2 2 0 0 0 .473-2.926 1.8 1.8 0 0 0 -1.242-.436z"/><path d="m10.943 21.994h14.126v2h-14.126z" transform="matrix(.707 -.707 .707 .707 -10.986 19.467)"/><path d="m35.5 16.379h2v4.243h-2z" transform="matrix(.707 -.707 .707 .707 -2.391 31.228)"/><path d="m28.5 15.379h2v4.243h-2z" transform="matrix(.707 -.707 .707 .707 -3.734 25.985)"/><path d="m23.586 18h2.828v2h-2.828z" transform="matrix(.707 -.707 .707 .707 -6.113 23.243)"/><path d="m47 55h-6v-2h6a1 1 0 0 0 1-1v-14a.918.918 0 0 0 -1.012-1h-4.988c-1.062 0-1.888 1.827-2.051 2.316l-1.9-.632c.128-.377 1.306-3.684 3.951-3.684h5a2.916 2.916 0 0 1 3 3v14a3 3 0 0 1 -3 3z"/><path d="m46 52h-5v-2h4v-9h-6v-2h7a1 1 0 0 1 1 1v11a1 1 0 0 1 -1 1z"/></g></svg>