<svg height="512" viewBox="0 0 64 64" width="512" xmlns="http://www.w3.org/2000/svg"><g id="_21-Bike" data-name="21-Bike"><path d="m49 14v4h-6a2.006 2.006 0 0 1 -2-2 2.015 2.015 0 0 1 2-2z" fill="#d6995c"/><path d="m1 18h14v3h-14z" fill="#d6995c"/><path d="m15 26v2h-14v-7h14z" fill="#fff2de"/><g fill="#f2bb88"><path d="m31 9a2.006 2.006 0 0 1 2 2 2.015 2.015 0 0 1 -2 2h-4v-4z"/><path d="m11 43a2.006 2.006 0 0 1 2-2 2.015 2.015 0 0 1 2 2 2 2 0 0 1 -4 0z"/><path d="m43.55 40.09 7.45.91a2 2 0 0 1 0 4l-7.45.91-4.06.49-3.31.4a3.9 3.9 0 0 1 -1.18.2 4 4 0 0 1 0-8 3.9 3.9 0 0 1 1.18.2l3.31.4z"/></g><path d="m51 43-7.45.91-4.06.49-3.31.4a3.9 3.9 0 0 1 -1.18.2 3.991 3.991 0 0 1 -3.866-3.022 4 4 0 0 0 3.866 5.022 3.9 3.9 0 0 0 1.18-.2l3.31-.4 4.06-.49 7.45-.91a2.006 2.006 0 0 0 2-2 1.975 1.975 0 0 0 -.279-1 2 2 0 0 1 -1.721 1z" fill="#e3a76f"/><path d="m51 31a12 12 0 1 1 -11.51 15.4l4.06-.49a8 8 0 1 0 0-5.82l-4.06-.49a12 12 0 0 1 11.51-8.6z" fill="#707789"/><path d="m16.92 36.03a7.876 7.876 0 0 0 -3.92-1.03 8.009 8.009 0 1 0 3.92 1.03zm.92-4.02a12.018 12.018 0 1 1 -4.84-1.01 12.016 12.016 0 0 1 4.84 1.01z" fill="#707789"/><path d="m13 56a13 13 0 1 1 13-13 13.015 13.015 0 0 1 -13 13zm0-24a11 11 0 1 0 11 11 11.013 11.013 0 0 0 -11-11z"/><path d="m51 56a13.061 13.061 0 0 1 -12.469-9.317l1.919-.565a11 11 0 1 0 0-6.236l-1.919-.565a13 13 0 1 1 12.469 16.683z"/><path d="m51 52a8.938 8.938 0 0 1 -8.382-5.727l1.863-.726a7 7 0 1 0 0-5.094l-1.863-.726a9 9 0 1 1 8.382 12.273z"/><path d="m13 52a9 9 0 1 1 9-9 9.01 9.01 0 0 1 -9 9zm0-16a7 7 0 1 0 7 7 7.008 7.008 0 0 0 -7-7z"/><path d="m13 46a3 3 0 1 1 3-3 3 3 0 0 1 -3 3zm0-4a1 1 0 1 0 1 1 1 1 0 0 0 -1-1z"/><path d="m35 48a5 5 0 0 1 0-10 4.839 4.839 0 0 1 1.382.214l14.684 1.786a3 3 0 0 1 0 6l-14.684 1.786a4.839 4.839 0 0 1 -1.382.214zm0-8a3 3 0 0 0 0 6 2.928 2.928 0 0 0 .879-.151.969.969 0 0 1 .176-.038l14.824-1.8a.971.971 0 0 1 .121-.011 1 1 0 0 0 0-2 .971.971 0 0 1 -.121-.007l-14.824-1.8a.969.969 0 0 1 -.176-.038 2.928 2.928 0 0 0 -.879-.155z"/><path d="m34 43h2v7h-2z"/><path d="m32 49h6v2h-6z"/><path d="m14.707 42.707-1.414-1.414 1.8-1.8 5.907-25.607v-.886a3 3 0 0 1 3-3h3v2h-3a1 1 0 0 0 -1 1v1a1.07 1.07 0 0 1 -.025.225l-6 26a1.009 1.009 0 0 1 -.268.482z"/><path d="m35.839 39.543-1.678-1.086 10.839-16.752v-3.705h2v4a1 1 0 0 1 -.161.543z"/><path d="m49 19h-6a3 3 0 0 1 0-6h6a1 1 0 0 1 1 1v4a1 1 0 0 1 -1 1zm-6-4a1 1 0 0 0 0 2h5v-2z"/><path d="m32.293 40.707-13.707-13.707h-3.586v-2h4a1 1 0 0 1 .707.293l14 14z"/><path d="m15 29h-14a1 1 0 0 1 -1-1v-10a1 1 0 0 1 1-1h14a1 1 0 0 1 1 1v10a1 1 0 0 1 -1 1zm-13-2h12v-8h-12z"/><path d="m1 20h14v2h-14z"/><path d="m31 14h-4a1 1 0 0 1 -1-1v-4a1 1 0 0 1 1-1h4a3 3 0 0 1 0 6zm-3-2h3a1 1 0 0 0 0-2h-3z"/><path d="m60.293 31.707-2.707-2.707h-10.586a1 1 0 0 1 -.707-.293l-3-3 1.414-1.414 2.707 2.707h10.586a1 1 0 0 1 .707.293l3 3z"/><path d="m1 54h23v2h-23z"/><path d="m26 54h2v2h-2z"/><path d="m30 54h33v2h-33z"/></g></svg>