<svg height="512" viewBox="0 0 60 60" width="512" xmlns="http://www.w3.org/2000/svg"><g id="022---Moth" fill="none"><g id="Icons" transform="translate(0 1)"><path id="Shape" d="m35.39 54.08v.24c-3.52 5.09-7.47 4.72-10.72 0 1.2506913-1.1289378 2.0736481-2.6547634 2.33-4.32.82-5-2.52-15.09-1.9-24.89 2.7794323 2.5231982 7.0205677 2.5231982 9.8 0 .79 14.4-5.32 23.76.49 28.97z" fill="#3f51b5"/><path id="Shape" d="m36.48 12.73h-13c-.78-1.73-.48-4.23.06-6.11l3.08-5.15c.8738896-.93781558 2.0981337-1.47039685 3.38-1.47039685s2.5061104.53258127 3.38 1.47039685l3.08 5.15c.54 1.88.84 4.38.02 6.11z" fill="#283593"/><path id="Shape" d="m33.48 12.73h-10c-.78-1.73-.48-4.23.06-6.11l3.08-5.15c.5424805-.51377013 1.1814759-.91484169 1.88-1.18.6985241.26515831 1.3375195.66622987 1.88 1.18l3.08 5.15c.54 1.88.84 4.38.02 6.11z" fill="#3f51b5"/><path id="Shape" d="m25.1 25.11c2.7794323 2.5231982 7.0205677 2.5231982 9.8 0l2.58-10.29c-2.57-7.7-12.36-7.79-15 0z" fill="#825a2c"/><path id="Shape" d="m27 50c-1 6-8 8-17 8-6.8 0-9.26-7.84-9-14.42.12719236-8.2737733 3.69228011-16.121314 9.84-21.66 3.7854585-3.3977891 8.2267151-5.984268 13.05-7.6.273584-.0917173.573451-.0607878.8225541.0848417s.4231588.3917625.4774459.6751583c.47 2.33.82 3.55.49 5.21-2.33 11.65 2.32 23.92 1.32 29.71z" fill="#a0522d"/><path id="Shape" d="m59 45.38c-.14 2.63-1.2 12.35-9 12.35-7 0-15.85-1.15-17-8-1-5.8 3.65-18.06 1.29-29.71-.33-1.67 0-2.87.49-5.21.0542871-.2833958.2283428-.5295288.4774459-.6751583s.5489701-.176559.8225541-.0848417c6.0008953 1.9950573 11.3754815 5.5252538 15.59 10.24 5.065804 5.8250694 7.6911467 13.37875 7.33 21.09z" fill="#783e22"/><path id="Shape" d="m56 45.38c-.14 2.54-1.13 11.68-8.19 12.31-7.92-.32-13.87-2.46-14.79-8-.7-4.22 1.56-11.89 1.92-20.24s-1.24-9.15-.6-12.35c.35-1.76.45-2.37.5-2.47 9.23 3.64 16.86 10.74 19.75 20.11 1.0381103 3.4479827 1.5142048 7.0406391 1.41 10.64z" fill="#a0522d"/><g fill="#f5f5f5"><circle id="Oval" cx="11" cy="34" r="2"/><circle id="Oval" cx="49" cy="34" r="2"/><circle id="Oval" cx="25" cy="4" r="3"/><circle id="Oval" cx="35" cy="4" r="3"/></g></g><g id="Layer_10" fill="#000" transform="translate(-1)"><path id="Shape" d="m12 32c-1.6568542 0-3 1.3431458-3 3s1.3431458 3 3 3 3-1.3431458 3-3-1.3431458-3-3-3zm0 4c-.5522847 0-1-.4477153-1-1s.4477153-1 1-1 1 .4477153 1 1-.4477153 1-1 1z"/><path id="Shape" d="m51.74 23.14c-.0958378-.1756009-.2421411-.3184207-.42-.41-3.0421691-2.8429203-6.5280039-5.1701878-10.32-6.89l3.33-1.84 6.55-1 4.75 1.9c.246631.0983792.5222628.0946309.7661274-.0104184.2438647-.1050494.4359375-.3027739.5338726-.5495816.0983792-.246631.0946309-.5222628-.0104184-.7661274-.1050494-.2438647-.3027739-.4359375-.5495816-.5338726l-2.68-1.04 2.68-1.07c.332257-.1321883.5687535-.4315923.6204036-.7854294.0516501-.35383714-.0893931-.70835114-.37-.93000001s-.6581466-.27675886-.9904036-.14457059l-4.89 2c-7.45 1.06-7 1-7.24 1.1l-4.41 2.52c-.16-.34-.33-.68-.51-1 .561567-1.8541086.5685192-3.83198953.02-5.69 1.4013518-1.16439343 1.8156963-3.14081659 1-4.77 2.4901405-.56829338 5.0832622.36507422 6.64 2.39.1842459.23334946.4627729.37261292.76.38.3862502.00131696.7387238-.21992752.9054501-.56834288.1667264-.34841536.1178912-.76169718-.1254501-1.06165712-2.3285888-2.9245404-6.2565048-4.04909714-9.78-2.8-1.0574261-.64121866-2.3567393-.74145139-3.5-.27-2.0418732-1.64933164-4.9581268-1.64933164-7 0-1.1432607-.47145139-2.4425739-.37121866-3.5.27-3.51767-1.23955563-7.4344646-.11588503-9.76 2.8-.1677705.20659343-.2462689.47154091-.2181156.73618251.0281534.26464159.1606359.5071443.3681156.67381749.2065934.1677705.4715409.24626892.7361825.21811556s.5071443-.16063585.6738175-.36811556c1.5567378-2.02492578 4.1498595-2.95829338 6.64-2.39-.8119605 1.61873783-.4159051 3.58251237.96 4.76-.5451191 1.84048472-.5451191 3.7995153 0 5.64-.18.32-.35.66-.51 1-4.76-2.71-4.5-2.6-4.77-2.64l-6.88-1-4.89-2c-.51362482-.20434536-1.09565464.04637518-1.3.56-.20434536.5136248.04637518 1.0956546.56 1.3l2.7 1.14-2.68 1.07c-.44696544.1766478-.70505237.6462733-.61456323 1.1182841.09048913.4720109.50395822.8128925.98456323.8117159.27 0 0 .07 5.12-2l6.55.93 3.33 1.91c-3.7919961 1.7198122-7.2778309 4.0470797-10.32 6.89-.1778589.0915793-.3241622.2343991-.42.41-6.01810112 5.8998155-9.36341103 14.0029798-9.26 22.43-.06 6.98 3 14.43 10 14.43 6.63 0 11.45-1.1 14.45-3.25 3.44 4.33 7.66 4.34 11.1 0 3 2.15 7.82 3.25 14.45 3.25 7 0 10.06-7.5 10-14.4.0976337-8.4347085-3.2461419-16.5449893-9.26-22.46zm-13.74-18.14c0 1.1045695-.8954305 2-2 2s-2-.8954305-2-2 .8954305-2 2-2 2 .8954305 2 2zm-10 0c0 1.1045695-.8954305 2-2 2s-2-.8954305-2-2 .8954305-2 2-2 2 .8954305 2 2zm1.16-2.43c1.1183959-.7288679 2.5616041-.7288679 3.68 0-.9991147 1.31678237-1.0853935 3.11248416-.2171257 4.51898938.8682678 1.40650523 2.5122292 2.13409026 4.1371257 1.83101062.1509989.68328838.2314209 1.3802786.24 2.08v.52c-1.5647376-1.61043004-3.714585-2.51910197-5.96-2.51910197s-4.3952624.90867193-5.96 2.51910197c0-.18 0-.33 0-.52.0085791-.6997214.0890011-1.39671162.24-2.08 1.6110659.26168292 3.2195295-.48173142 4.0641259-1.87839472s.7558938-3.16639544-.2241259-4.47160528zm-2.16 52.84c1.0619765-1.1945428 1.7564563-2.6703123 2-4.25.81-4.94-2.09-13.72-2-23.16 2.4857797 1.3890506 5.5142203 1.3890506 8 0 .13 9.45-2.77 18.25-2 23.18.2435437 1.5796877.9380235 3.0554572 2 4.25-2.62 3.42-5.38 3.43-8-.02zm24 2.59c-9.83 0-15.22-2.41-16-7.16-1-5.77 4-18.84 1-31.08-.1491291-.5161023-.6793873-.8221608-1.2008781-.6931322-.5214908.1290287-.8478565.6470354-.7391219 1.1731322.4330876 1.7728304.714107 3.5793838.84 5.4-2.260556 1.8156712-5.479444 1.8156712-7.74 0 .125893-1.8206162.4069124-3.6271696.84-5.4.0857438-.3572656-.0256247-.7331364-.2921539-.9860254-.2665292-.2528891-.6477271-.3443766-1-.24-.352273.1043765-.6221024.3887598-.7078461.7460254-3 12.24 2 25.34 1 31.08-.78 4.75-6.17 7.16-16 7.16-6.71 0-7.79-8.33-8-11.11 1.32383261.1747039 2.66923638-.0664204 3.85-.69 2.17439021 1.5296687 5.0812962 1.505545 7.23-.06 1.82.7 4.95 1.07 6.72-1.59.2440793-.4550261.101585-1.0210631-.3288453-1.306288s-1.0072424-.1958368-1.3311547.206288c-1.48 2.22-4.59.72-4.72.66-.325329-.1516414-.7069751-.1172932-1 .09-3.17 2.38-5.45.33-5.69.09-.32430655-.323535-.82697943-.385339-1.22-.15-1.02829567.6957667-2.29213206.9514145-3.51.71.06498166-7.2479827 2.83625346-14.2100452 7.77-19.52.8822583 1.5763377 2.5155255 2.5857875 4.32 2.67.3534405 2.4038941 2.4842882 4.1398189 4.91 4 .5522847 0 1-.4477153 1-1s-.4477153-1-1-1c-.8074109.0405933-1.5942863-.2624201-2.1659331-.8340669s-.8746602-1.3585222-.8340669-2.1659331c0-.5522847-.4477153-1-1-1-2 0-3.2-.72-3.74-2.17 4.0024577-3.658535 8.7925211-6.3478134 14-7.86.5440005-.1380712.8730712-.6909995.735-1.235s-.6909995-.8730712-1.235-.735l-.28.08c1.17246-1.9138812 3.2555393-3.0806529 5.5-3.0806529s4.32754 1.1667717 5.5 3.0806529l-.24-.08c-.5522847-.1325483-1.1074517.2077153-1.24.76s.2077153 1.1074517.76 1.24c5.1942038 1.5727438 9.9616096 4.3087012 13.94 8-.56 1.32-1.77 2-3.7 2-.5522847 0-1 .4477153-1 1 .0405933.8074109-.2624201 1.5942863-.8340669 2.1659331s-1.3585222.8746602-2.1659331.8340669c-.5522847 0-1 .4477153-1 1s.4477153 1 1 1c2.4257118.1398189 4.5565595-1.5961059 4.91-4 1.7581764-.0805229 3.3601062-1.0334273 4.27-2.54 4.9269053 5.2661857 7.7149166 12.1791703 7.82 19.39-1.2018257.227625-2.4449413-.0274652-3.46-.71-.3906965-.230102-.8873166-.1685375-1.21.15-.25.24-2.53 2.29-5.7-.09-.3045133-.2269526-.7113062-.2618205-1.05-.09 0 0-3.23 1.57-4.72-.66-.3239123-.4021248-.9007244-.4915129-1.3311547-.206288s-.5729246.8512619-.3288453 1.306288c1.77 2.66 4.9 2.29 6.72 1.59 2.1487038 1.565545 5.0556098 1.5896687 7.23.06 1.1772093.623417 2.5193985.8645916 3.84.69-.23 2.77-1.36 11.11-7.99 11.11z"/><path id="Shape" d="m50 38c1.6568542 0 3-1.3431458 3-3s-1.3431458-3-3-3-3 1.3431458-3 3 1.3431458 3 3 3zm0-4c.5522847 0 1 .4477153 1 1s-.4477153 1-1 1-1-.4477153-1-1 .4477153-1 1-1z"/></g></g></svg>