<?xml version="1.0" encoding="iso-8859-1"?>
<!-- Generator: Adobe Illustrator 19.0.0, SVG Export Plug-In . SVG Version: 6.00 Build 0)  -->
<svg xmlns="http://www.w3.org/2000/svg" xmlns:xlink="http://www.w3.org/1999/xlink" version="1.1" id="Layer_1" x="0px" y="0px" viewBox="0 0 512.001 512.001" style="enable-background:new 0 0 512.001 512.001;" xml:space="preserve">
<path style="fill:#F777F1;" d="M155.654,471.278H10.449l31.378-279.86c7.71-68.77,65.932-120.771,135.219-120.771h157.909  c69.286,0,127.508,52,135.219,120.771l31.376,279.86h-0.133H356.214H155.654z"/>
<path style="fill:#BA40CC;" d="M356.214,325.645v145.633H155.654V140.877c0-55.085,45.126-100.156,100.28-100.156l0,0  c55.154,0,100.28,45.07,100.28,100.156v118.697v66.071H356.214z"/>
<path d="M356.215,303.702c-5.771,0-10.449-4.678-10.449-10.449v-0.607c0-5.771,4.678-10.449,10.449-10.449  s10.449,4.678,10.449,10.449v0.607C366.664,299.024,361.986,303.702,356.215,303.702z"/>
<path d="M199.783,145.842c-5.771,0-10.449-4.678-10.449-10.449c0-36.288,29.877-65.812,66.6-65.812  c23.221,0,45.117,12.298,57.143,32.096c2.996,4.932,1.426,11.359-3.506,14.356c-4.932,2.995-11.359,1.427-14.356-3.506  c-8.261-13.6-23.314-22.048-39.282-22.048c-25.2,0-45.702,20.149-45.702,44.914C210.232,141.164,205.554,145.842,199.783,145.842z"/>
<path d="M312.084,145.842c-2.674,0-5.349-1.02-7.388-3.061l-0.097-0.097c-4.08-4.08-4.08-10.697,0-14.778  c4.08-4.08,10.697-4.08,14.778,0l0.097,0.097c4.08,4.08,4.08,10.697,0,14.778C317.433,144.823,314.758,145.842,312.084,145.842z"/>
<path d="M511.935,470.114l-31.377-279.86c-8.313-74.144-70.909-130.055-145.603-130.055c-1.198,0-2.307,0.01-3.331,0.03  c-19.814-18.565-46.444-29.955-75.69-29.955c-29.249,0-55.88,11.391-75.696,29.96c-0.988-0.022-2.033-0.036-3.192-0.036  c-74.693,0-137.29,55.911-145.603,130.055L0.065,470.114c-0.331,2.956,0.612,5.912,2.594,8.129s4.815,3.484,7.79,3.484h491.102  c2.974,0,5.808-1.267,7.79-3.484C511.323,476.027,512.267,473.069,511.935,470.114z M52.211,192.582  c6.57-58.6,52.705-103.914,110.056-110.626c-10.801,17.07-17.063,37.279-17.063,58.923V460.83H22.135L52.211,192.582z   M366.662,460.829V325.645c0-5.771-4.678-10.449-10.449-10.449c-5.771,0-10.449,4.678-10.449,10.449v135.184H166.102V140.877  c0-49.464,40.299-89.707,89.832-89.707s89.831,40.242,89.831,89.707v118.697c0,5.771,4.678,10.449,10.449,10.449  c5.771,0,10.449-4.678,10.449-10.449V140.877c0-21.65-6.265-41.864-17.073-58.937c57.417,6.654,103.624,51.993,110.2,110.641  l30.075,268.247H366.662V460.829z"/>
<path d="M78.967,238.949c-0.389,0-0.782-0.022-1.177-0.066c-5.735-0.643-9.863-5.813-9.219-11.548  c2.752-24.55,11.734-48.142,25.975-68.227c3.338-4.706,9.86-5.817,14.568-2.481c4.707,3.337,5.818,9.861,2.481,14.568  c-12.2,17.206-19.896,37.424-22.255,58.467C88.739,235.003,84.216,238.949,78.967,238.949z"/>
<path d="M125.327,151.16c-2.683,0-5.366-1.027-7.408-3.08c-4.07-4.092-4.052-10.707,0.04-14.777l0.097-0.096  c4.091-4.07,10.706-4.052,14.777,0.04c4.07,4.092,4.052,10.707-0.04,14.777l-0.097,0.096  C130.657,150.146,127.992,151.16,125.327,151.16z"/>
<path d="M433.033,238.949c-5.25,0-9.773-3.947-10.371-9.286c-2.359-21.043-10.056-41.261-22.255-58.467  c-3.337-4.707-2.227-11.231,2.481-14.568c4.708-3.336,11.23-2.228,14.568,2.481c14.24,20.085,23.223,43.677,25.975,68.227  c0.644,5.734-3.484,10.906-9.219,11.548C433.816,238.927,433.423,238.949,433.033,238.949z"/>
<path d="M386.674,151.16c-2.666,0-5.33-1.014-7.369-3.041l-0.097-0.096c-4.092-4.07-4.109-10.686-0.04-14.777  c4.07-4.092,10.686-4.107,14.777-0.04l0.097,0.096c4.092,4.07,4.109,10.686,0.04,14.777  C392.041,150.133,389.357,151.16,386.674,151.16z"/>
<g>
</g>
<g>
</g>
<g>
</g>
<g>
</g>
<g>
</g>
<g>
</g>
<g>
</g>
<g>
</g>
<g>
</g>
<g>
</g>
<g>
</g>
<g>
</g>
<g>
</g>
<g>
</g>
<g>
</g>
</svg>
