<svg height="512" viewBox="0 0 48 48" width="512" xmlns="http://www.w3.org/2000/svg"><g id="Line"><path d="m45.651 23.241-3.833-3.287c-3.529-3.102-8.685-3.732-12.98-1.954h-9.675c-4.293-1.778-9.453-1.148-12.98 1.955 0 0-3.834 3.286-3.834 3.286-.459.376-.462 1.142 0 1.518 0 0 3.833 3.287 3.833 3.287 3.529 3.102 8.685 3.732 12.98 1.954h9.675c4.293 1.778 9.453 1.148 12.98-1.955 0 0 3.833-3.286 3.833-3.286.46-.376.463-1.142.001-1.518z" fill="#92b77e"/><path d="m26.507 24.725-.906-.725c4.683-3.033 5.912-9.638 2.242-13.951 0 0-3.075-3.689-3.075-3.689-.38-.455-1.156-.455-1.536 0l-3.075 3.69c-3.671 4.317-2.442 10.914 2.242 13.95 0 0-.906.725-.906.725-4.035 3.085-4.653 9.392-1.336 13.227 0 0 3.075 3.689 3.075 3.689.377.473 1.16.476 1.536 0 0 0 3.075-3.69 3.075-3.69 3.317-3.835 2.699-10.141-1.336-13.226z" fill="#a9ca95"/><path d="m39 23h-2.586c.544-.425.846-1.148.293-1.707-.391-.391-1.023-.391-1.414 0l-1.707 1.707h-2.172l1.293-1.293c.917-.926-.482-2.337-1.414-1.414 0 0-2.707 2.707-2.707 2.707h-3.586v-4.586l1.707-1.707c.391-.391.391-1.023 0-1.414-.561-.546-1.277-.259-1.707.293v-2.586c-.004-1.301-1.994-1.313-2 0v2.586l-.293-.293c-.927-.917-2.336.482-1.414 1.414 0 0 1.707 1.707 1.707 1.707v4.586h-3.586l-2.707-2.707c-.923-.919-2.338.484-1.414 1.414 0 0 1.293 1.293 1.293 1.293h-2.172l-1.707-1.707c-.92-.919-2.34.484-1.414 1.414 0 0 .293.293.293.293h-2.586c-.552 0-1 .447-1 1s.448 1 1 1h2.586l-.293.293c-.915.927.48 2.337 1.414 1.414 0 0 1.707-1.707 1.707-1.707h2.172l-1.293 1.293c-.636.593-.15 1.738.707 1.707.256 0 .512-.098.707-.293l2.707-2.707h3.586v4.586l-1.707 1.707c-.919.923.484 2.338 1.414 1.414 0 0 .293-.293.293-.293v2.586c.004 1.301 1.994 1.313 2 0v-2.586l.293.293c.927.917 2.336-.482 1.414-1.414 0 0-1.707-1.707-1.707-1.707v-4.586h3.586l2.707 2.707c.923.919 2.338-.484 1.414-1.414 0 0-1.293-1.293-1.293-1.293h2.172l1.707 1.707c.391.391 1.023.391 1.414 0 .545-.561.261-1.277-.293-1.707h2.586c1.304-.019 1.323-1.977 0-2z" fill="#609c48"/><path d="m41.817 19.954c-3.209-2.784-7.848-3.694-11.87-2.324 0 0-.109.036-.109.036.098-.543.162-1.095.162-1.658 0-2.173-.766-4.289-2.157-5.959l-3.075-3.689c-.38-.455-1.156-.455-1.536 0l-3.075 3.69c-1.391 1.669-2.157 3.785-2.157 5.958 0 .563.064 1.115.161 1.658l-.109-.037c-1.255-.417-2.56-.629-3.882-.629-2.927 0-5.764 1.049-7.988 2.955l-3.833 3.286c-.459.376-.462 1.142 0 1.518 0 0 3.833 3.287 3.833 3.287 3.209 2.784 7.848 3.694 11.87 2.324 0 0 .109-.036.109-.036-.097.543-.161 1.095-.161 1.658 0 2.173.766 4.289 2.157 5.959l3.075 3.689c.377.473 1.16.476 1.536 0 0 0 3.075-3.69 3.075-3.69 1.391-1.669 2.157-3.785 2.157-5.958 0-.563-.064-1.115-.161-1.658l.109.037c4.022 1.368 8.661.46 11.869-2.326 0 0 3.834-3.286 3.834-3.286.459-.376.462-1.142 0-1.518 0 0-3.834-3.287-3.834-3.287zm-20.124-8.624 2.307-2.768 2.307 2.769c2.695 3.108 2.057 8.226-1.307 10.589v-3.505l1.707-1.707c.92-.928-.485-2.335-1.414-1.414 0 0-.293.293-.293.293v-2.587c-.005-1.306-1.995-1.309-2 0v2.586l-.293-.293c-.927-.921-2.336.486-1.414 1.414 0 0 1.707 1.707 1.707 1.707v3.505c-3.364-2.363-4.002-7.481-1.307-10.589zm-3.009 16.722c-3.69 1.563-8.131 1.157-11.199-1.525 0 0-2.948-2.527-2.948-2.527l2.948-2.526c2.701-2.316 6.559-3.069 9.935-1.947l1.264.422c.067.023.135.017.202.025.539 1.145 1.321 2.171 2.3 3.026h-1.772l-2.707-2.707c-.93-.92-2.334.485-1.414 1.414 0 0 1.293 1.293 1.293 1.293h-2.172l-1.707-1.707c-.927-.92-2.336.485-1.414 1.414 0 0 .293.293.293.293h-2.586c-1.305.005-1.31 1.995 0 2h2.586l-.293.293c-.92.927.485 2.336 1.414 1.414 0 0 1.707-1.707 1.707-1.707h2.172l-1.293 1.293c-.391.391-.391 1.023 0 1.414s1.023.391 1.414 0l2.707-2.707h1.772c-.979.855-1.761 1.881-2.3 3.026-.068.008-.135.003-.202.026zm7.623 8.618-2.307 2.768-2.307-2.769c-2.695-3.108-2.057-8.226 1.307-10.589v3.505l-1.707 1.707c-.92.928.485 2.335 1.414 1.414 0 0 .293-.293.293-.293v2.587c.005 1.306 1.994 1.309 2 0v-2.586l.293.293c.927.921 2.336-.486 1.414-1.414 0 0-1.707-1.707-1.707-1.707v-3.505c3.364 2.363 4.002 7.481 1.307 10.589zm14.209-10.144c-3.069 2.681-7.511 3.089-11.199 1.525-.067-.022-.134-.017-.202-.025-.539-1.145-1.321-2.171-2.3-3.027h1.772l2.707 2.707c.194.196.45.294.706.294.856.029 1.344-1.112.707-1.707 0 0-1.293-1.293-1.293-1.293h2.172l1.707 1.707c.927.92 2.336-.485 1.414-1.414 0 0-.293-.293-.293-.293h2.586c1.304-.005 1.31-1.995 0-2h-2.586l.293-.293c.92-.927-.485-2.336-1.414-1.414 0 0-1.707 1.707-1.707 1.707h-2.172l1.293-1.293c.921-.926-.486-2.336-1.414-1.414 0 0-2.707 2.707-2.707 2.707h-1.772c.979-.856 1.761-1.882 2.3-3.027.068-.008.135-.002.202-.025 3.691-1.563 8.131-1.157 11.199 1.525 0 0 2.948 2.527 2.948 2.527z"/></g></svg>