<svg height="512" viewBox="0 0 64 64" width="512" xmlns="http://www.w3.org/2000/svg"><g id="_26-Bird" data-name="26-Bird"><path d="m63 45-3 3-8-8-1.48-1.48a41.615 41.615 0 0 0 6.48.48z" fill="#bfbfde"/><circle cx="39" cy="49" fill="#ffb13b" r="2"/><path d="m42 46a3 3 0 0 1 0 6 3 3 0 0 1 -6 0 3 3 0 0 1 0-6 3 3 0 0 1 6 0zm-1 3a2 2 0 1 0 -2 2 2.006 2.006 0 0 0 2-2z" fill="#ffa8ad"/><path d="m63 51v7l-12-12h-9a3 3 0 0 0 -6 0h-14l-10-11h-11v-4h13l9 9h29l8 8z" fill="#a37862"/><path d="m42 44a3 3 0 0 0 -6 0h-14l-10-11h-11v2h11l10 11h14a3 3 0 0 1 6 0h9l12 12v-2l-12-12z" fill="#966857"/><path d="m21 15a2 2 0 0 1 0 4h-4z" fill="#636978"/><path d="m52 30c5 5 5 9 5 9a41.615 41.615 0 0 1 -6.48-.48 30.58 30.58 0 0 1 -3.6-.76c-6.42-1.76-8.92-4.76-8.92-4.76v-17c0 5.52.74 9.02 2.86 11.14s5.62 2.86 11.14 2.86z" fill="#806e9c"/><path d="m45.5 23.5 6.5 6.5c-5.52 0-9.02-.74-11.14-2.86s-2.86-5.62-2.86-11.14z" fill="#988fc4"/><path d="m52 40h-17a14 14 0 0 1 -14-14v-7a2 2 0 0 0 0-4v-2a7 7 0 0 1 7-7 7.964 7.964 0 0 1 2.75.62 7.684 7.684 0 0 1 4.25 4.38s0 2 3 5v17s2.5 3 8.92 4.76a30.58 30.58 0 0 0 3.6.76z" fill="#d1d1e8"/><path d="m47.9 38h-12.9a14 14 0 0 1 -14-14v2a14 14 0 0 0 14 14h17l-1.48-1.48c-.941-.142-1.798-.32-2.62-.52z" fill="#bfbfde"/><circle cx="7" cy="51" fill="#ffb13b" r="2"/><circle cx="57" cy="12" fill="#ffb13b" r="2"/><path d="m10 48a3 3 0 0 1 0 6 3 3 0 0 1 -6 0 3 3 0 0 1 0-6 3 3 0 0 1 6 0zm-1 3a2 2 0 1 0 -2 2 2.006 2.006 0 0 0 2-2z" fill="#ffa8ad"/><path d="m60 9a3 3 0 0 1 0 6 3 3 0 0 1 -6 0 3 3 0 0 1 0-6 3 3 0 0 1 6 0zm-1 3a2 2 0 1 0 -2 2 2.006 2.006 0 0 0 2-2z" fill="#ffa8ad"/><path d="m61 29-7.19-7.19c1.3-1.29 4.38-1.14 5.87 1.18 1.32 2.06 1.32 6.01 1.32 6.01z" fill="#bed264"/><path d="m53.81 21.81 7.19 7.19s-3.95 0-6.01-1.32c-2.32-1.49-2.47-4.57-1.18-5.87z" fill="#85ad59"/><path d="m22.22 50.39c.93 1.54.77 4.6.77 4.6l-5.26-5.26a3 3 0 0 1 4.49.66z" fill="#bed264"/><path d="m22.99 54.99s-3.06.16-4.6-.77a3 3 0 0 1 -.66-4.49z" fill="#85ad59"/><path d="m15.99 22.01s.16 3.06-.77 4.6a3 3 0 0 1 -4.49.66z" fill="#85ad59"/><path d="m15.99 22.01-5.26 5.26a3 3 0 0 1 .66-4.49c1.54-.93 4.6-.77 4.6-.77z" fill="#bed264"/><path d="m5.61 21.78a3 3 0 0 1 .66 4.49l-5.26-5.26s3.06-.16 4.6.77z" fill="#bed264"/><path d="m1.01 21.01 5.26 5.26a3 3 0 0 1 -4.49-.66c-.93-1.54-.77-4.6-.77-4.6z" fill="#85ad59"/><path d="m57 40a42.65 42.65 0 0 1 -6.636-.493 31.8 31.8 0 0 1 -3.712-.783c-6.643-1.822-9.31-4.952-9.42-5.083a1 1 0 0 1 -.232-.641v-16.592c-2.473-2.582-2.909-4.505-2.984-5.174a6.661 6.661 0 0 0 -3.653-3.692 7.1 7.1 0 0 0 -2.363-.542 6.005 6.005 0 0 0 -6 6v2h-2v-2a8.009 8.009 0 0 1 8-8 8.985 8.985 0 0 1 3.132.7 8.728 8.728 0 0 1 4.8 4.933 1 1 0 0 1 .068.367s.12 1.705 2.707 4.293a1 1 0 0 1 .293.707v16.6a18.939 18.939 0 0 0 8.184 4.2 29.084 29.084 0 0 0 3.485.735 39.379 39.379 0 0 0 5.163.455 15.99 15.99 0 0 0 -4.539-7.278l1.414-1.414c5.233 5.227 5.293 9.521 5.293 9.702a1 1 0 0 1 -1 1z"/><path d="m35 41a15.017 15.017 0 0 1 -15-15v-7h2v7a13.015 13.015 0 0 0 13 13z"/><path d="m52 31c-11.636 0-15-3.364-15-15a1 1 0 0 1 1.707-.707l14 14a1 1 0 0 1 -.707 1.707zm-12.943-12.528c.389 7.617 2.854 10.083 10.471 10.47z"/><path d="m60 49a1 1 0 0 1 -.707-.293l-9.48-9.48 1.414-1.415 8.773 8.774 1.586-1.586-5.293-5.293 1.414-1.414 6 6a1 1 0 0 1 0 1.414l-3 3a1 1 0 0 1 -.707.293z"/><path d="m21 20h-4a1 1 0 0 1 -.707-1.707l4-4a1 1 0 0 1 .707-.293 2.916 2.916 0 0 1 3 3 2.916 2.916 0 0 1 -3 3zm-1.586-2h1.578a.918.918 0 0 0 1.008-1 .868.868 0 0 0 -.639-.946z"/><path d="m27 12h2v2h-2z"/><path d="m23 12h2v2h-2z"/><path d="m36 47h-14a1 1 0 0 1 -.74-.327l-9.702-10.673h-10.558a1 1 0 0 1 -1-1v-4a1 1 0 0 1 1-1h13a1 1 0 0 1 .707.293l8.707 8.707h28.586v2h-29a1 1 0 0 1 -.707-.293l-8.707-8.707h-11.586v2h10a1 1 0 0 1 .74.327l9.702 10.673h13.558z"/><path d="m63 59a1 1 0 0 1 -.707-.293l-11.707-11.707h-8.586v-2h9a1 1 0 0 1 .707.293l10.293 10.293v-4.172l-2.707-2.707 1.414-1.414 3 3a1 1 0 0 1 .293.707v7a1 1 0 0 1 -.617.924.987.987 0 0 1 -.383.076z"/><path d="m4.324 28a4.16 4.16 0 0 1 -.5-.03 3.907 3.907 0 0 1 -2.9-1.84c-1.063-1.757-.93-4.83-.911-5.173a1 1 0 0 1 .944-.943c.343-.023 3.416-.154 5.172.915a3.994 3.994 0 0 1 .85 6.05 3.786 3.786 0 0 1 -2.655 1.021zm-2.319-5.994a7.242 7.242 0 0 0 .632 3.085 1.9 1.9 0 0 0 1.427.893 1.877 1.877 0 0 0 1.5-.42 2 2 0 0 0 -.473-2.926 7.229 7.229 0 0 0 -3.086-.632z"/><path d="m5.006 18.943h2v14.126h-2z" transform="matrix(.707 -.707 .707 .707 -16.63 11.864)"/><path d="m12.677 29a3.788 3.788 0 0 1 -2.656-1.021 3.994 3.994 0 0 1 .85-6.05c1.755-1.068 4.825-.937 5.172-.915a1 1 0 0 1 .944.943c.019.345.152 3.416-.915 5.173a3.9 3.9 0 0 1 -2.9 1.84 4.172 4.172 0 0 1 -.495.03zm2.323-5.994a7.229 7.229 0 0 0 -3.086.632 2 2 0 0 0 -.473 2.926 1.874 1.874 0 0 0 1.5.42 1.9 1.9 0 0 0 1.426-.893 7.239 7.239 0 0 0 .633-3.085z"/><path d="m7.553 24.506h9.883v2h-9.883z" transform="matrix(.707 -.707 .707 .707 -14.376 16.305)"/><path d="m57 19a4.007 4.007 0 0 1 -3.9-3.1 4 4 0 0 1 0-7.8 4 4 0 0 1 7.8 0 4 4 0 0 1 0 7.8 4.007 4.007 0 0 1 -3.9 3.1zm0-12a2 2 0 0 0 -2 2 1 1 0 0 1 -1 1 2 2 0 0 0 0 4 1 1 0 0 1 1 1 2 2 0 0 0 4 0 1 1 0 0 1 1-1 2 2 0 0 0 0-4 1 1 0 0 1 -1-1 2 2 0 0 0 -2-2z"/><path d="m57 15a3 3 0 1 1 3-3 3 3 0 0 1 -3 3zm0-4a1 1 0 1 0 1 1 1 1 0 0 0 -1-1z"/><path d="m43.136 18.5h12.728v2h-12.728z" transform="matrix(.707 -.707 .707 .707 .71 40.713)"/><path d="m61 30c-.173 0-4.268-.017-6.554-1.481a5.3 5.3 0 0 1 -2.416-3.906 4.314 4.314 0 0 1 1.076-3.507 4.3 4.3 0 0 1 3.506-1.076 5.3 5.3 0 0 1 3.907 2.417c1.464 2.285 1.481 6.38 1.481 6.553a1 1 0 0 1 -1 1zm-5.475-3.165a10.816 10.816 0 0 0 4.429 1.118 10.832 10.832 0 0 0 -1.119-4.428 3.3 3.3 0 0 0 -2.435-1.506 2.344 2.344 0 0 0 -1.876.5 2.348 2.348 0 0 0 -.5 1.877 3.3 3.3 0 0 0 1.506 2.437z"/><path d="m54.5 15.722h2v15.556h-2z" transform="matrix(.707 -.707 .707 .707 -.361 46.127)"/><path d="m45.5 17.379h2v4.243h-2z" transform="matrix(.707 -.707 .707 .707 -.169 38.592)"/><path d="m39 56a4.007 4.007 0 0 1 -3.9-3.1 4 4 0 0 1 0-7.8 4 4 0 0 1 7.8 0 4 4 0 0 1 0 7.8 4.007 4.007 0 0 1 -3.9 3.1zm0-12a2 2 0 0 0 -2 2 1 1 0 0 1 -1 1 2 2 0 0 0 0 4 1 1 0 0 1 1 1 2 2 0 0 0 4 0 1 1 0 0 1 1-1 2 2 0 0 0 0-4 1 1 0 0 1 -1-1 2 2 0 0 0 -2-2z"/><path d="m39 52a3 3 0 1 1 3-3 3 3 0 0 1 -3 3zm0-4a1 1 0 1 0 1 1 1 1 0 0 0 -1-1z"/><path d="m22.4 56a9.653 9.653 0 0 1 -4.53-.93 4 4 0 0 1 -.85-6.051 3.865 3.865 0 0 1 3.153-.991 3.907 3.907 0 0 1 2.9 1.84c1.067 1.757.934 4.828.915 5.173a1 1 0 0 1 -.944.943c-.082.007-.314.016-.644.016zm-2.725-6a1.8 1.8 0 0 0 -1.24.436 2 2 0 0 0 .473 2.927 7.228 7.228 0 0 0 3.092.631 7.242 7.242 0 0 0 -.632-3.085 1.9 1.9 0 0 0 -1.427-.893 2.062 2.062 0 0 0 -.265-.016z"/><path d="m16.994 42.931h2v14.126h-2z" transform="matrix(.707 -.707 .707 .707 -30.081 27.368)"/><path d="m7 58a4.007 4.007 0 0 1 -3.9-3.1 4 4 0 0 1 0-7.8 4 4 0 0 1 7.8 0 4 4 0 0 1 0 7.8 4.007 4.007 0 0 1 -3.9 3.1zm0-12a2 2 0 0 0 -2 2 1 1 0 0 1 -1 1 2 2 0 0 0 0 4 1 1 0 0 1 1 1 2 2 0 0 0 4 0 1 1 0 0 1 1-1 2 2 0 0 0 0-4 1 1 0 0 1 -1-1 2 2 0 0 0 -2-2z"/><path d="m7 54a3 3 0 1 1 3-3 3 3 0 0 1 -3 3zm0-4a1 1 0 1 0 1 1 1 1 0 0 0 -1-1z"/><path d="m8.55 43.5h9.899v2h-9.899z" transform="matrix(.707 -.707 .707 .707 -27.512 22.58)"/></g></svg>