<svg height="512" viewBox="0 0 64 64" width="512" xmlns="http://www.w3.org/2000/svg"><g id="_29-Bee" data-name="29-Bee"><path d="m11 9v4l-10-1v-3z" fill="#966857"/><path d="m63 19v4h-2l-4 4-2-2 2-2-4.18-4.18c.1-1.58.16-3.19.17-4.82h.01l5 5z" fill="#966857"/><path d="m53 9v4c0 .33 0 .67-.01 1-.01 1.63-.07 3.24-.17 4.82-.56 8.68-2.34 16.38-5.03 22.08a5.035 5.035 0 0 0 -.67-.85 3.588 3.588 0 0 0 -5.56 4.47c-2.74 1.43-4.53 3.77-4.56 6.42a8.262 8.262 0 0 1 -1 .06h-8c-3.94 0-7.41-2.64-10.17-7.11 5.21-.63 9.17-3.92 9.17-7.89 0-2.67-1.8-5.03-4.56-6.48a3.588 3.588 0 0 0 -5.56-4.47 5.744 5.744 0 0 0 -.88 1.19 5.744 5.744 0 0 0 -.88-1.19 3.565 3.565 0 0 0 -3.43-.93 87.931 87.931 0 0 1 -.69-11.12v-4a4 4 0 0 1 4-4h34a4 4 0 0 1 4 4z" fill="#ffb13b"/><path d="m53 9v4c0 .33 0 .67-.01 1-.01 1.63-.07 3.24-.17 4.82-.56 8.68-2.34 16.38-5.03 22.08a5.035 5.035 0 0 0 -.67-.85 3.588 3.588 0 0 0 -5.56 4.47c-2.74 1.43-4.53 3.77-4.56 6.42a8.262 8.262 0 0 1 -1 .06h-8c-3.94 0-7.41-2.64-10.17-7.11 5.21-.63 9.17-3.92 9.17-7.89 0-2.67-1.8-5.03-4.56-6.48a3.588 3.588 0 0 0 -5.56-4.47 5.744 5.744 0 0 0 -.88 1.19 5.744 5.744 0 0 0 -.88-1.19 3.565 3.565 0 0 0 -3.43-.93 87.931 87.931 0 0 1 -.69-11.12v-4a4 4 0 0 1 4-4h34a4 4 0 0 1 4 4z" fill="#ffb13b"/><path d="m44.79 41.4a.511.511 0 0 1 -.214-.047.5.5 0 0 1 -.238-.666c2.7-5.731 4.429-13.3 4.983-21.9a.516.516 0 0 1 .532-.467.5.5 0 0 1 .466.532c-.563 8.72-2.319 16.418-5.077 22.262a.5.5 0 0 1 -.452.286z" fill="#f5d882"/><path d="m27 40a5.961 5.961 0 0 0 -.353-2c-1.071 3.034-4.514 5.371-8.817 5.891a21.039 21.039 0 0 0 2.6 3.431c3.87-1.239 6.57-4.047 6.57-7.322z" fill="#ff9500"/><path d="m49 5h-34a4 4 0 0 0 -4 4v4a4 4 0 0 1 4-4h34a4 4 0 0 1 4 4v-4a4 4 0 0 0 -4-4z" fill="#ff9500"/><path d="m21.95 25.05a3.594 3.594 0 0 1 .49 4.47 13.488 13.488 0 0 0 -5.69-1.5 8.064 8.064 0 0 0 -.75-1.78 5.744 5.744 0 0 1 .88-1.19 3.585 3.585 0 0 1 5.07 0z" fill="#80dbff"/><path d="m47.12 40.05a5.035 5.035 0 0 1 .67.85c.07.11.14.22.21.34a8.064 8.064 0 0 0 -.75 1.78 13.488 13.488 0 0 0 -5.69 1.5 3.588 3.588 0 0 1 5.56-4.47z" fill="#80dbff"/><path d="m11.59 31.19a6.225 6.225 0 0 1 -1.54-1.07 3.9 3.9 0 0 1 -.49-.6 3.594 3.594 0 0 1 .49-4.47 3.523 3.523 0 0 1 1.64-.93 3.565 3.565 0 0 1 3.43.93 5.744 5.744 0 0 1 .88 1.19 8.064 8.064 0 0 1 .75 1.78c.37 1.3.38 2.63-.36 3.37a2.209 2.209 0 0 1 -1.39.59 6.706 6.706 0 0 1 -3.41-.79z" fill="#96e8ff"/><path d="m52.41 46.19a6.706 6.706 0 0 1 -3.41.79 2.209 2.209 0 0 1 -1.39-.59c-.74-.74-.73-2.07-.36-3.37a8.064 8.064 0 0 1 .75-1.78 5.744 5.744 0 0 1 .88-1.19 3.588 3.588 0 0 1 5.56 4.47 3.9 3.9 0 0 1 -.49.6 6.225 6.225 0 0 1 -1.54 1.07z" fill="#96e8ff"/><path d="m11.59 31.19a6.706 6.706 0 0 0 3.41.79v.02a4.333 4.333 0 0 0 -2 4c0 2.87 1.83 7.57 1.99 7.97a13.694 13.694 0 0 1 -5.09-1.32 24.967 24.967 0 0 1 -.9-6.65 5.12 5.12 0 0 1 2.59-4.81z" fill="#555a66"/><path d="m9.9 38.65a24.174 24.174 0 0 1 -.754-4.014 6.655 6.655 0 0 0 -.146 1.364 24.967 24.967 0 0 0 .9 6.65 13.694 13.694 0 0 0 5.09 1.32 41.046 41.046 0 0 1 -1.366-4.157 13.178 13.178 0 0 1 -3.724-1.163z" fill="#414952"/><path d="m13 32a12.114 12.114 0 0 0 .267 2.283 4 4 0 0 1 1.733-2.283v-.02a5.519 5.519 0 0 1 -1.978-.241c-.004.09-.022.166-.022.261z" fill="#414952"/><path d="m51 51a4.333 4.333 0 0 0 -2-4v-.02a6.706 6.706 0 0 0 3.41-.79 5.12 5.12 0 0 1 2.59 4.81 24.967 24.967 0 0 1 -.9 6.65 13.694 13.694 0 0 1 -5.09 1.32c.16-.4 1.99-5.1 1.99-7.97z" fill="#555a66"/><path d="m50.733 49.283a12.114 12.114 0 0 0 .267-2.283c0-.095-.018-.171-.022-.261a5.519 5.519 0 0 1 -1.978.241v.02a4 4 0 0 1 1.733 2.283z" fill="#414952"/><path d="m54.1 53.65a13.178 13.178 0 0 1 -3.724 1.163 41.046 41.046 0 0 1 -1.366 4.157 13.694 13.694 0 0 0 5.09-1.32 24.967 24.967 0 0 0 .9-6.65 6.655 6.655 0 0 0 -.146-1.364 24.174 24.174 0 0 1 -.754 4.014z" fill="#414952"/><path d="m5.71 38.83-4.71-2.76 4.69-2.88a6.207 6.207 0 0 0 -.69 2.81 6.058 6.058 0 0 0 .71 2.83z" fill="#f2f6fc"/><path d="m63 51.07-4.71 2.76a6.058 6.058 0 0 0 .71-2.83 6.207 6.207 0 0 0 -.69-2.81z" fill="#f2f6fc"/><path d="m9.56 29.52a3.9 3.9 0 0 0 .49.6 6.225 6.225 0 0 0 1.54 1.07 5.12 5.12 0 0 0 -2.59 4.81 24.967 24.967 0 0 0 .9 6.65 8.979 8.979 0 0 1 -4.19-3.82 6.058 6.058 0 0 1 -.71-2.83 6.207 6.207 0 0 1 .69-2.81h.01a8.821 8.821 0 0 1 3.86-3.67z" fill="#f5d882"/><path d="m5.71 34.83a6.429 6.429 0 0 1 -.357-.835 5.944 5.944 0 0 0 .357 4.835 8.979 8.979 0 0 0 4.19 3.82 24.306 24.306 0 0 1 -.8-4.426 8.614 8.614 0 0 1 -3.39-3.394z" fill="#f5cd62"/><path d="m9.56 29.52c-.032.017-.059.038-.091.056a6.09 6.09 0 0 0 -.469 2.424 24.784 24.784 0 0 0 .146 2.636 4.917 4.917 0 0 1 2.444-3.446 6.225 6.225 0 0 1 -1.54-1.07 3.9 3.9 0 0 1 -.49-.6z" fill="#f5cd62"/><path d="m54.44 44.52a8.821 8.821 0 0 1 3.86 3.67h.01a6.207 6.207 0 0 1 .69 2.81 6.058 6.058 0 0 1 -.71 2.83 8.979 8.979 0 0 1 -4.19 3.82 24.967 24.967 0 0 0 .9-6.65 5.12 5.12 0 0 0 -2.59-4.81 6.225 6.225 0 0 0 1.54-1.07 3.9 3.9 0 0 0 .49-.6z" fill="#f5d882"/><path d="m17.83 43.89a15.776 15.776 0 0 1 -1.83.11c-.34 0-.67-.01-1.01-.03-.16-.4-1.99-5.1-1.99-7.97a4.333 4.333 0 0 1 2-4v-.02a2.209 2.209 0 0 0 1.39-.59c.74-.74.73-2.07.36-3.37a13.488 13.488 0 0 1 5.69 1.5c2.76 1.45 4.56 3.81 4.56 6.48 0 3.97-3.96 7.26-9.17 7.89z" fill="#f5d882"/><path d="m17.83 39.89a15.776 15.776 0 0 1 -1.83.11c-.34 0-.67-.01-1.01-.03a37.646 37.646 0 0 1 -1.723-5.687 5.468 5.468 0 0 0 -.267 1.717c0 2.87 1.83 7.57 1.99 7.97.34.02.67.03 1.01.03a15.776 15.776 0 0 0 1.83-.11c5.21-.63 9.17-3.92 9.17-7.89a5.961 5.961 0 0 0 -.353-2c-1.071 3.033-4.514 5.37-8.817 5.89z" fill="#f5cd62"/><path d="m49 47a4.333 4.333 0 0 1 2 4c0 2.87-1.83 7.57-1.99 7.97-.34.02-.67.03-1.01.03-6.08 0-11-3.58-11-8v-.06c.03-2.65 1.82-4.99 4.56-6.42a13.488 13.488 0 0 1 5.69-1.5c-.37 1.3-.38 2.63.36 3.37a2.209 2.209 0 0 0 1.39.59z" fill="#f5d882"/><g fill="#f5cd62"><path d="m55 47a6.09 6.09 0 0 0 -.469-2.424c-.032-.018-.059-.039-.091-.056a3.9 3.9 0 0 1 -.49.6 6.225 6.225 0 0 1 -1.54 1.07 4.917 4.917 0 0 1 2.444 3.446 24.784 24.784 0 0 0 .146-2.636z"/><path d="m58.29 49.83a8.614 8.614 0 0 1 -3.39 3.394 24.306 24.306 0 0 1 -.8 4.426 8.979 8.979 0 0 0 4.19-3.82 5.944 5.944 0 0 0 .357-4.83 6.429 6.429 0 0 1 -.357.83z"/><path d="m49.01 54.97c-.34.02-.67.03-1.01.03-5.135 0-9.43-2.558-10.645-6.014a6 6 0 0 0 -.355 1.954v.06c0 4.42 4.92 8 11 8 .34 0 .67-.01 1.01-.03.16-.4 1.99-5.1 1.99-7.97a5.468 5.468 0 0 0 -.267-1.717 37.646 37.646 0 0 1 -1.723 5.687z"/></g><path d="m48 60c-6.617 0-12-4.037-12-9 0-4.728 4.92-8.672 11.2-8.979l.1 2c-5.215.252-9.3 3.319-9.3 6.979 0 3.859 4.486 7 10 7s10-3.141 10-7c0-2.184-1.5-4.275-4.023-5.595l.927-1.771c3.196 1.671 5.096 4.425 5.096 7.366 0 4.963-5.383 9-12 9z"/><path d="m49.362 47.994a3.374 3.374 0 0 1 -2.461-.9c-1.98-1.98-.28-6.2 1.269-7.754a4.585 4.585 0 0 1 6.486 0 4.585 4.585 0 0 1 0 6.486 8.476 8.476 0 0 1 -5.294 2.168zm2.051-7.994a2.567 2.567 0 0 0 -1.829.758c-1.194 1.2-2.1 4.1-1.269 4.926s3.732-.075 4.927-1.268a2.586 2.586 0 0 0 0-3.658 2.567 2.567 0 0 0 -1.829-.758z"/><path d="m40.718 45.059a4.588 4.588 0 0 1 7.109-5.716 6.725 6.725 0 0 1 1.041 1.4l-1.736.994a4.778 4.778 0 0 0 -.72-.981 2.589 2.589 0 0 0 -4.012 3.224z"/><path d="m49.929 59.371-1.858-.742c.02-.049 1.929-4.858 1.929-7.629a3.392 3.392 0 0 0 -1.46-3.112l.907-1.783a5.316 5.316 0 0 1 2.553 4.895c0 3.156-1.987 8.16-2.071 8.371z"/><path d="m54.948 58.316-1.9-.631a23.685 23.685 0 0 0 .952-6.685c0-3.242-2.293-4.044-2.316-4.052l.632-1.9c.151.052 3.684 1.285 3.684 5.952a25.237 25.237 0 0 1 -1.052 7.316z"/><path d="m43 49h2v2h-2z"/><path d="m39 49h2v2h-2z"/><path d="m58.8 54.693-1.012-1.726 3.273-1.917-3.271-2.007.519-.845-.009-1.008a1.032 1.032 0 0 1 .533.148l4.69 2.88a1 1 0 0 1 -.017 1.716z"/><path d="m16 45c-6.617 0-12-4.037-12-9 0-2.941 1.905-5.695 5.1-7.366l.927 1.771c-2.527 1.32-4.027 3.411-4.027 5.595 0 3.859 4.486 7 10 7s10-3.141 10-7c0-3.66-4.085-6.727-9.3-6.981l.1-2c6.28.309 11.2 4.253 11.2 8.981 0 4.963-5.383 9-12 9z"/><path d="m14.638 32.994a8.471 8.471 0 0 1 -5.294-2.164 4.585 4.585 0 0 1 0-6.486 4.585 4.585 0 0 1 6.486 0c1.549 1.549 3.248 5.774 1.269 7.755a3.373 3.373 0 0 1 -2.461.895zm-2.051-7.994a2.567 2.567 0 0 0 -1.829.758 2.586 2.586 0 0 0 0 3.658c1.2 1.194 4.1 2.1 4.927 1.269s-.075-3.732-1.269-4.927a2.567 2.567 0 0 0 -1.829-.758z"/><path d="m23.282 30.059-1.682-1.079a2.589 2.589 0 0 0 -4.012-3.223 4.777 4.777 0 0 0 -.719.98l-1.736-.994a6.724 6.724 0 0 1 1.04-1.4 4.588 4.588 0 0 1 7.11 5.715z"/><path d="m14.071 44.371c-.084-.211-2.071-5.215-2.071-8.371a5.316 5.316 0 0 1 2.553-4.895l.894 1.79-.447-.895.46.888a3.392 3.392 0 0 0 -1.46 3.112c0 2.775 1.909 7.58 1.929 7.629z"/><path d="m9.052 43.316a25.237 25.237 0 0 1 -1.052-7.316c0-4.667 3.533-5.9 3.684-5.948l.632 1.9-.316-.952.326.945c-.096.034-2.326.867-2.326 4.055a23.557 23.557 0 0 0 .948 6.684z"/><path d="m19 34h2v2h-2z"/><path d="m23 34h2v2h-2z"/><path d="m5.2 39.693-4.706-2.759a1 1 0 0 1 -.017-1.716l4.69-2.88a1 1 0 0 1 .523-.148v1.008l.519.845-3.266 2.007 3.273 1.917z"/><path d="m36 52h-8c-4.146 0-7.958-2.623-11.021-7.585l1.7-1.051c1.871 3.028 5.005 6.636 9.321 6.636h8a7.121 7.121 0 0 0 .88-.053l.24 1.987a9.192 9.192 0 0 1 -1.12.066z"/><path d="m48.694 41.327-1.808-.853c2.678-5.675 4.385-13.185 4.936-21.718.118-1.864.178-3.801.178-5.756v-4a3 3 0 0 0 -3-3h-34a3 3 0 0 0 -3 3v4a86.787 86.787 0 0 0 .683 10.993l-1.985.254a89.117 89.117 0 0 1 -.698-11.247v-4a5.006 5.006 0 0 1 5-5h34a5.006 5.006 0 0 1 5 5v4c0 2-.062 3.977-.182 5.884-.567 8.782-2.339 16.543-5.124 22.443z"/><path d="m10.9 14-10-1a1 1 0 0 1 -.9-1v-3a1 1 0 0 1 1-1h10v2h-9v1.1l9.1.91z"/><path d="m57 28a1 1 0 0 1 -.707-.293l-2-2a1 1 0 0 1 0-1.414l1.293-1.293-3.473-3.473 1.414-1.414 4.18 4.18a1 1 0 0 1 0 1.414l-1.293 1.293.586.586 3.293-3.293a1 1 0 0 1 .707-.293h1v-2h-4a1 1 0 0 1 -.707-.293l-5-5 1.414-1.414 4.707 4.707h4.586a1 1 0 0 1 1 1v4a1 1 0 0 1 -1 1h-1.586l-3.707 3.707a1 1 0 0 1 -.707.293z"/><path d="m14 8h2v2h-2z"/><path d="m18 8h16v2h-16z"/><path d="m30 12h2v2h-2z"/><path d="m34 12h16v2h-16z"/><path d="m16 16h2v2h-2z"/><path d="m20 16h16v2h-16z"/><path d="m30 20h2v2h-2z"/><path d="m34 20h16v2h-16z"/><path d="m26 24h2v2h-2z"/><path d="m30 24h16v2h-16z"/><path d="m28 28h2v2h-2z"/><path d="m32 28h16v2h-16z"/><path d="m30 32h2v2h-2z"/><path d="m34 32h10v2h-10z"/><path d="m24 45h2v2h-2z"/><path d="m28 45h7v2h-7z"/><path d="m27 41h10v2h-10z"/></g></svg>