<?xml version="1.0" encoding="iso-8859-1"?>
<!-- Generator: Adobe Illustrator 19.0.0, SVG Export Plug-In . SVG Version: 6.00 Build 0)  -->
<svg xmlns="http://www.w3.org/2000/svg" xmlns:xlink="http://www.w3.org/1999/xlink" version="1.1" id="Layer_1" x="0px" y="0px" viewBox="0 0 512 512" style="enable-background:new 0 0 512 512;" xml:space="preserve">
<rect x="226.324" y="10.036" transform="matrix(0.9659 0.2588 -0.2588 0.9659 74.9944 -57.5342)" style="fill:#82FFFF;" width="59.381" height="492.058"/>
<g>
	<polygon style="fill:#0092E0;" points="253.388,377.755 211.658,306.878 192.617,377.939 192.617,387.121 232.926,456.94  "/>
	<polygon style="fill:#0092E0;" points="283.813,37.589 260.903,123.091 260.858,127.498 302.073,198.882 325.791,110.365  "/>
</g>
<rect x="218.605" y="-53.859" transform="matrix(-0.7071 -0.7071 0.7071 -0.7071 255.998 618.0466)" style="fill:#FF7DBE;" width="74.792" height="619.727"/>
<g>
	<polygon style="fill:#FF3939;" points="190.467,374.721 266.294,298.59 266.294,192.823 190.467,268.954  "/>
	<polygon style="fill:#FF3939;" points="114.64,344.477 10.45,448.666 63.334,501.55 114.64,450.244  "/>
	<polygon style="fill:#FF3939;" points="342.12,222.763 417.948,146.936 417.948,41.169 342.12,116.996  "/>
</g>
<path d="M508.939,55.945L456.056,3.061C454.095,1.101,451.438,0,448.666,0c-2.771,0-5.429,1.101-7.389,3.061L337.576,106.762  l20.892-77.97c0.718-2.677,0.342-5.53-1.044-7.93c-1.386-2.399-3.668-4.152-6.345-4.869l-57.361-15.37  c-5.578-1.495-11.304,1.815-12.798,7.389L224.038,220.3L3.061,441.276C1.102,443.236,0,445.894,0,448.666  c0,2.772,1.101,5.43,3.061,7.389l52.884,52.884C57.986,510.98,60.66,512,63.334,512s5.348-1.021,7.389-3.061l103.78-103.78  l-20.941,78.156c-1.494,5.575,1.814,11.305,7.389,12.799l57.36,15.37c0.89,0.238,1.798,0.356,2.705,0.356  c1.818,0,3.623-0.475,5.225-1.4c2.4-1.386,4.152-3.668,4.869-6.345l11.909-44.444c0.001-0.004,0.002-0.008,0.003-0.013  l45.02-168.016l59.838-59.839c1.173-0.776,2.178-1.783,2.955-2.955L508.939,70.723C513.02,66.642,513.02,60.025,508.939,55.945z   M250.34,351.575l-8.144-14.107l16.289-16.289L250.34,351.575z M229.362,429.865l-27.694-47.968  c-0.478-0.827-1.058-1.554-1.705-2.196l26.934-26.934l15.795,27.357L229.362,429.865z M255.843,218.052v76.209l-54.927,54.927  v-76.21L255.843,218.052z M287.365,64.71l27.211,47.133l-6.559,24.477l-19.086,19.086l-17.668-30.602L287.365,64.71z   M276.743,273.361v-74.761c0-0.459-0.04-0.907-0.097-1.35l55.023-55.023v76.209L276.743,273.361z M335.574,33.476l-13.348,49.815  l-27.211-47.133l3.388-12.643L335.574,33.476z M263.613,153.355l10.018,17.352l-20.036,20.036L263.613,153.355z M63.334,486.771  l-38.105-38.105l154.787-154.787v76.21l-54.927,54.927v-5.723c0-5.772-4.68-10.45-10.45-10.45c-5.771,0-10.45,4.679-10.45,10.45  v26.623L63.334,486.771z M213.626,488.59l-37.171-9.96l18.046-67.347l27.211,47.131L213.626,488.59z M428.398,121.706v-5.722  c0-5.772-4.68-10.45-10.45-10.45c-5.771,0-10.45,4.679-10.45,10.45v26.622l-54.928,54.928v-75.221c0-0.318-0.02-0.63-0.047-0.939  l96.143-96.143l38.104,38.105L428.398,121.706z"/>
<path d="M114.639,395.934c5.771,0,10.45-4.679,10.45-10.45v-0.137c0-5.772-4.68-10.45-10.45-10.45c-5.771,0-10.45,4.679-10.45,10.45  v0.137C104.188,391.255,108.868,395.934,114.639,395.934z"/>
<path d="M417.947,71.589c-5.771,0-10.45,4.679-10.45,10.45v0.137c0,5.772,4.68,10.45,10.45,10.45c5.771,0,10.45-4.679,10.45-10.45  v-0.137C428.397,76.267,423.718,71.589,417.947,71.589z"/>
<g>
</g>
<g>
</g>
<g>
</g>
<g>
</g>
<g>
</g>
<g>
</g>
<g>
</g>
<g>
</g>
<g>
</g>
<g>
</g>
<g>
</g>
<g>
</g>
<g>
</g>
<g>
</g>
<g>
</g>
</svg>
