<svg height="512" viewBox="0 0 59 60" width="512" xmlns="http://www.w3.org/2000/svg"><g id="033---Fly" fill="none"><g id="Icons" transform="translate(1 5)"><path id="Shape" d="m18.65 42.59c-.77 2-.54 1.39-1 2.6-1.325874 3.3849831-4.5336032 5.6608157-8.16655031 5.7940369-3.63294714.1332212-6.99874762-1.9015582-8.56898376-5.1803402s-1.04565337-7.1766985 1.33553407-9.9236967l15-17.28z" fill="#00bcd4"/><path id="Shape" d="m51.2 50.37c-4.694409 1.8385191-9.9904672-.4759881-11.83-5.17-1-2.51-.63-1.61-1.52-3.87.44-23.61.37-19.79.45-24.44l16.47 19c1.937232 2.242656 2.6669038 5.285356 1.9575027 8.1627027s-2.7698133 5.2321599-5.5275027 6.3172973z" fill="#00838f"/><path id="Shape" d="m46.38 50.87c-3.1724705-.5177189-5.8347822-2.6741913-7-5.67-1-2.51-.63-1.61-1.52-3.87l.39-21 13.52 15.56c2.1536181 2.4972023 2.7951156 5.9608599 1.6786716 9.0637043-1.116444 3.1028443-3.817708 5.3637326-7.0686716 5.9162957z" fill="#00bcd4"/><path id="Shape" d="m28 51c-.5054216.0005795-1.009065-.0598577-1.5-.18-5.92-1.38-10.5-10.82-10.5-22.35-.0481935-4.5011008.7209372-8.9735789 2.27-13.2h19.46c5.56 14.42.33 35.73-9.73 35.73z" fill="#283593"/><path id="Shape" d="m26.5 50.82c-5.92-1.38-10.5-10.82-10.5-22.35-.0481935-4.5011008.7209372-8.9735789 2.27-13.2h16.46c5.38 13.97.7 33.47-8.23 35.55z" fill="#3f51b5"/><path id="Shape" d="m39.88 11.27-7.1-9.53c-3.1105143-.98523531-6.4494857-.98523531-9.56 0l-7.1 9.53c.71 3.8 4.57 6.82 9.54 7.56-.3084343.8814874-.8899387 1.6416467-1.66 2.17-3 2 4 2 4 2s7 0 4-2c-.7700613-.5283533-1.3515657-1.2885126-1.66-2.17 4.97-.74 8.83-3.76 9.54-7.56z" fill="#02a9f4"/><circle id="Oval" cx="19" cy="6" fill="#f5f5f5" r="6"/><circle id="Oval" cx="37" cy="6" fill="#cfd8dc" r="6"/><path id="Shape" d="m40 6c.0002394 2.73618516-1.8507001 5.1259537-4.5 5.81-2.6406605-.6901773-4.4827739-3.07563514-4.4827739-5.805s1.8421134-5.11482274 4.4827739-5.805c2.6456983.68311274 4.4956841 3.06753882 4.5 5.8z" fill="#f5f5f5"/></g><g id="Layer_10" fill="#000" transform="translate(-1)"><path id="Shape" d="m57.53 40.24-16.34-18.85c-.1-.31-.21-.6-.32-.9.8950273-1.0372194 1.5414502-2.2650808 1.89-3.59 2.0631182-1.3394817 3.2717701-3.6635533 3.1836834-6.1217862-.0880867-2.45823279-1.4599835-4.68983475-3.6136834-5.8782138 1.5113749-.7429392 2.5241164-2.22222444 2.67-3.9 0-.55228475-.4477153-1-1-1s-1 .44771525-1 1c0 .09-.15 2.21-4.14 3-1.5898199.02535826-3.1224107.59743132-4.34 1.62-2.9449865-.81250359-6.0550135-.81250359-9 0-1.2281782-1.03121273-2.7763915-1.60383957-4.38-1.62-3.95-.8-4.14-2.89-4.14-3 0-.55228475-.4477153-1-1-1s-1 .44771525-1 1c.1625831 1.65935045 1.1728865 3.11615502 2.67 3.85-2.1536999 1.18837905-3.5255967 3.41998101-3.6136834 5.8782138-.0880867 2.4582329 1.1205652 4.7823045 3.1836834 6.1217862.3485498 1.3249192.9949727 2.5527806 1.89 3.59-.31.85-.59 1.72-.83 2.63-16.41 19-15.73 17.93-16.6 20.09-1.34069125 3.3730791-.77419062 7.2056764 1.48500716 10.0466517 2.25919777 2.8409753 5.86575519 4.2560614 9.45411764 3.7094629 3.5883625-.5465985 6.6100185-2.9713295 7.9208752-6.3561146l.17-.44c.28.51.57 1 .87 1.44-.55 1.1-.6 1.14-.6 1.44v5h-1c-.5522847 0-1 .4477153-1 1s.4477153 1 1 1h2c.5522847 0 1-.4477153 1-1v-5.6c4.23 4.8 9.77 4.81 14 0v5.6c0 .5522847.4477153 1 1 1h2c.5522847 0 1-.4477153 1-1s-.4477153-1-1-1h-1v-5c0-.31-.08-.4-.6-1.44.5313178-.8216365 1.0089799-1.6767519 1.43-2.56l.61 1.54c1.4555743 3.7712978 5.0139938 6.316174 9.0533329 6.4746757 4.0393391.1585016 7.7862297-2.099718 9.5328411-5.7453636 1.7466115-3.6456456 1.1585391-7.9807253-1.496174-11.0293121zm-13.53-29.24c0 2.7614237-2.2385763 5-5 5s-5-2.2385763-5-5c0-2.76142375 2.2385763-5 5-5s5 2.23857625 5 5zm-28 0c0-2.76142375 2.2385763-5 5-5s5 2.23857625 5 5c0 2.7614237-2.2385763 5-5 5s-5-2.2385763-5-5zm11-3.68c2.0126659-.4099936 4.0873341-.4099936 6.1 0-1.4498193 2.35243326-1.3800395 5.3376375.1781134 7.6197588s4.3130455 3.434024 7.0318866 2.9402412c-1.38 2.6-4.33 4.21-7.23 4.81-.2263572-1.1542349-.2432935-2.3397701-.05-3.5.1076955-.5522847-.2527153-1.0873044-.805-1.1949999-.5522847-.1076956-1.0873044.2527152-1.195.8049999-.358124 1.8129929-.2199242 3.6890549.4 5.43v.1c.372886.9447437.9991986 1.7682929 1.81 2.38-2.1600794.3394416-4.3599206.3394416-6.52 0 .8108014-.6117071 1.437114-1.4352563 1.81-2.38v-.1c.6433464-1.7345255.8057433-3.6107283.47-5.43-.0714531-.3572656-.3280774-.6492728-.6732051-.7660254-.3451276-.1167526-.7263255-.040513-1 .2s-.398248.6087598-.3267949.9660254c.2099014 1.1538652.2099014 2.3361348 0 3.49-2.92-.61-5.86-2.22-7.23-4.81 2.7221622.5036006 5.4853946-.6443853 7.0493371-2.9286499 1.5639425-2.2842645 1.6347596-5.27563715.1806629-7.6313501zm-8.3 42.52c-1.178282 3.0199575-4.0380141 5.051334-7.2775396 5.1695132-3.23952558.1181792-6.23967008-1.6994266-7.63486581-4.6255026-1.39519573-2.9260761-.91877722-6.4013578 1.21240541-8.8440106l12.48-14.41c-.4644926 3.0668819-.591918 6.1753904-.38 9.27l-1.61 1.6c-.24.24-.11 0-1.89 5.11l-.94-.33c-.3470941-.2043773-.7829254-.1805584-1.1056796.0604273-.3227543.2409857-.4694181.652089-.3720781 1.0429462.09734.3908571.4196797.6851586.8177577.7466265 2.07.72 2.18.84 2.65.61.2388153-.1149123.4222482-.3199256.51-.57 2.18-6.24 1.78-5.33 2.18-5.72.3544889 2.9806597 1.0974619 5.9021238 2.21 8.69zm15.41-2.39 1.94 3.88c-3.7 4.89-8.39 4.9-12.1 0l1.94-3.88c.2013504-.4835272-.0045141-1.0404963-.4719378-1.2768341s-1.0380149-.0719586-1.3080622.3768341l-1.42 2.84c-2.0008903-3.7880506-3.1991743-7.9480028-3.52-12.22l2.53-2.45c.397645-.3865993.4065993-1.022355.02-1.42s-1.022355-.4065993-1.42-.02l-1.3 1.26c-.1411493-4.2472528.4404627-8.4876101 1.72-12.54 1.5974193 1.2213504 3.4391947 2.0842562 5.4 2.53-.190657.2422456-.416491.454597-.67.63-1 .65-1.37 1.36-1.14 2.11.13.43.52 1.72 5.69 1.72s5.56-1.29 5.69-1.72c.23-.75-.16-1.46-1.14-2.11-.253509-.175403-.479343-.3877544-.67-.63 1.9624586-.4409203 3.8052289-1.3042923 5.4-2.53 1.2795373 4.0523899 1.8611493 8.2927472 1.72 12.54l-1.3-1.26c-.397645-.3865993-1.0334007-.377645-1.42.02s-.377645 1.0334007.02 1.42l2.53 2.45c-.3208257 4.2719972-1.5191097 8.4319494-3.52 12.22l-1.42-2.84c-.2700473-.4487927-.8406385-.6131719-1.3080622-.3768341s-.6732882.7933069-.4719378 1.2768341zm18.72 7c-2.0085756.7895407-4.2490096.7459304-6.2253384-.1211768s-3.5255314-2.4861865-4.3046616-4.4988232l-1.37-3.47c.8361394-2.385012 1.416072-4.8522399 1.73-7.36.4.4 0-.51 2.18 5.72.1397915.3998911.5163826.6683124.94.67.23 0 .13 0 2.22-.71.337616-.1178976.5866884-.4069555.653394-.7582884.0667057-.3513328-.0590896-.7115648-.33-.945-.2709103-.2334352-.645778-.3046093-.983394-.1867116l-.94.33-1.65-4.72c-.12-.35-.36-.5-1.85-2 .2511363-3.5785084.0427735-7.1744472-.62-10.7 15 17.35 14.45 16.42 15.16 18.2 1.6343056 4.1834933-.4286747 8.9001555-4.61 10.54z"/><circle id="Oval" cx="22" cy="11" r="2"/><circle id="Oval" cx="38" cy="11" r="2"/></g></g></svg>