<svg height="512" viewBox="0 0 60 60" width="512" xmlns="http://www.w3.org/2000/svg"><g id="034---Dragonfly" fill="none"><g id="Icons"><path id="Shape" d="m59 16.2c.1835318 2.4985986-1.6916146 4.6735893-4.19 4.86l-17.93 1.35c-17.33 0-10.17.23-31.68-1.35-1.77019238-.1102564-3.31409495-1.2412638-3.95299021-2.8958182s-.25578527-3.529665.98091037-4.8010113 3.10050656-1.7061126 4.77207984-1.1131705l15.1 5.25h15.8c15.42-5.37 15-5.2 15.07-5.25 1.3332105-.4632233 2.8059036-.2815204 3.9865397.4918648 1.180636.7733851 1.9355238 2.050877 2.0434603 3.4581352z" fill="#00838f"/><path id="Shape" d="m56 16.2c.1835318 2.4985986-1.6916146 4.6735893-4.19 4.86l-17.93 1.35c-13.55 0-7.16.24-28.68-1.35-2.14496533-.1559618-3.88461702-1.7985791-4.16329545-3.931075-.27867844-2.1324959.98044058-4.1669981 3.01329545-4.868925l15.05 5.24h18.8l15.1-5.24c1.6944876.5999571 2.8724156 2.1469693 3 3.94z" fill="#00bcd4"/><path id="Shape" d="m35.94 19.24h-11.88c-3.6115985-2.2126713-5.0303268-6.7551658-3.32-10.63l9.26-2.61 9.26 2.61c1.7056678 3.8750964.2879169 8.4144616-3.32 10.63z" fill="#283593"/><path id="Shape" d="m32.94 19.24h-8.88c-3.6115985-2.2126713-5.0303268-6.7551658-3.32-10.63l7.76-2.19 7.76 2.19c1.7056678 3.8750964.2879169 8.4144616-3.32 10.63z" fill="#3f51b5"/><path id="Shape" d="m30 6c-.0019316 1.90251834-1.083411 3.63908744-2.79 4.48-1.4038997-.63968386-3.0161003-.63968386-4.42 0-2.214346-1.09111031-3.3010018-3.63496733-2.5583956-5.98919463s3.0922012-3.81416986 5.531829-3.43725298 4.2390717 2.4778764 4.2365666 4.94644761z" fill="#f5f5f5"/><path id="Shape" d="m40 6c-.0019316 1.90251834-1.083411 3.63908744-2.79 4.48-1.4036125-.64100559-3.0163875-.64100559-4.42 0-2.214346-1.09111031-3.3010018-3.63496733-2.5583956-5.98919463s3.0922012-3.81416986 5.531829-3.43725298 4.2390717 2.4778764 4.2365666 4.94644761z" fill="#cfd8dc"/><path id="Shape" d="m35 10c-.507466-.00203619-1.0126035.0686831-1.5.21-.4873965-.1413169-.992534-.21203619-1.5-.21-1.499921-1.12650137-2.2431278-2.99777152-1.9248334-4.84640804.3182943-1.84863652 1.6445345-3.36359367 3.4348334-3.92359196 1.7873699.56488465 3.1086346 2.08205366 3.4226096 3.93008115.313975 1.8480275-.4320898 3.71643037-1.9326096 4.83991885z" fill="#f5f5f5"/><path id="Shape" d="m33 32.13v23.87c0 1.6568542-1.3431458 3-3 3s-3-1.3431458-3-3v-23.87z" fill="#ff9801"/><path id="Shape" d="m30 32.13v23.87c-.0064304 1.0653332-.5773664 2.0473431-1.5 2.58.9254108.5343119 2.0651764.5360437 2.9922066.0045464s1.5013659-1.5159805 1.5077934-2.5845464v-23.87z" fill="#f57c00"/><path id="Shape" d="m36.94 22.9 17.41 5.21c1.6856025.5090806 2.9248314 1.9469031 3.1796196 3.6891723.2547883 1.7422691-.5208191 3.4747399-1.9900572 4.4451822s-3.3671074 1.0038218-4.8695624.0856455l-14.24-8.77h-12.86c-15.25 9.44-14.44 8.98-15.32 9.25-2.40243866.7179702-4.93202983-.6475613-5.65-3.05s.64756134-4.9320298 3.05-5.65l17.41-5.21z" fill="#02a9f4"/><path id="Shape" d="m57.4 33.76c-.3447586 1.153707-1.1337172 2.1231997-2.1933048 2.6951894-1.0595876.5719898-2.3030033.6996195-3.4566952.3548106l-.19-.07c1.8528314-.654517 3.0742712-2.4267432 3.0264687-4.3912003-.0478026-1.964457-1.3539955-3.6751765-3.2364687-4.2387997l-17.41-5.21h3l17.41 5.21c1.153707.3447586 2.1231997 1.1337172 2.6951894 2.1933048.5719898 1.0595876.6996195 2.3030033.3548106 3.4566952z" fill="#0377bc"/><path id="Rectangle-path" d="m27 39h6v4h-6z" fill="#fec108"/><path id="Rectangle-path" d="m27 49h6v4h-6z" fill="#fec108"/><path id="Rectangle-path" d="m27 39h3v4h-3z" fill="#ffdc00"/><path id="Rectangle-path" d="m27 49h3v4h-3z" fill="#ffdc00"/><path id="Shape" d="m37 24c0 6.2-4.5 10-8.5 8.79-3.15-.88-5.5-4.48-5.5-8.79s2.35-7.91 5.5-8.79c4.04-1.21 8.5 2.68 8.5 8.79z" fill="#fec108"/><ellipse id="Oval" cx="28.5" cy="24" fill="#ffdc00" rx="5.5" ry="8.79"/></g><g id="Layer_10" fill="#000" transform="translate(-1)"><circle id="Oval" cx="27" cy="6" r="1"/><circle id="Oval" cx="35" cy="6" r="1"/><path id="Shape" d="m61 16.12c-.1344685-1.7137699-1.0554852-3.268496-2.4938878-4.209818s-3.2318114-1.1629749-4.8561122-.600182l-12.42 4.32c.9863181-2.220155 1.0332035-4.7447539.13-7 1.2647087-2.81457919.1884104-6.12950393-2.4884703-7.66431779s-6.0814275-.78902227-7.8715297 1.72431779c-1.7636815-2.61577698-5.251815-3.41892724-7.9818348-1.83783469s-3.7692993 5.00629666-2.3781652 7.83783469c-.9032035 2.2552461-.8563181 4.779845.13 7l-12.42-4.39c-2.03323272-.7041191-4.29025988-.1672539-5.78870408 1.3769236-1.49844421 1.5441774-1.96723207 3.8163204-1.20232237 5.8274724.7649097 2.0111519 2.62514233 3.3974889 4.77102645 3.555604l13.79 1-13.56 4c-2.95748484.8781328-4.64313275 3.9875152-3.765 6.945s3.98751516 4.6431328 6.945 3.765c1-.32.54-.11 14.56-8.74.6450361 1.4324598 1.6428017 2.6779465 2.9 3.62v23.35c0 2.209139 1.790861 4 4 4s4-1.790861 4-4v-23.35c1.2611838-.9504072 2.2592751-2.2066255 2.9-3.65 14.1 8.69 13.54 8.45 14.56 8.77 2.932632.8781327 6.0218672-.787368 6.8999999-3.72.8781328-2.932632-.7873679-6.0218672-3.7199999-6.9l-13.56-4 13.79-1c1.4848733-.106743 2.8646119-.8055498 3.8292605-1.9394351.9646487-1.1338852 1.4333241-2.6077756 1.3007395-4.0905649zm-36.24 1.64c-2.1336752-1.7244907-3.1381986-4.4878922-2.61-7.18.3654097.3152232.7684825.5839384 1.2.8.274806.1327594.595194.1327594.87 0 1.3219412-.6232344 2.8754046-.4975866 4.08.33.3472012.3402964.8888375.3815827 1.2836059.0978429.3947683-.2837397.5282755-.8102854.3163941-1.2478429.4229809-.3635168.7932118-.78423364 1.1-1.25.3067882.46576636.6770191.8864832 1.1 1.25-.2118814.4375575-.0783742.9641032.3163941 1.2478429.3947684.2837398.9364047.2424535 1.2836059-.0978429 1.208738-.8158486 2.7558565-.9409832 4.08-.33.274806.1327594.595194.1327594.87 0 .4315175-.2160616.8345903-.4847768 1.2-.8.5281986 2.6921078-.4763248 5.4555093-2.61 7.18-3.24-5.02-9.24-5.01-12.48 0zm11.24-15.76c1.7759288.00212264 3.3378115 1.17493011 3.8351607 2.87979707.4973493 1.70486696-.1889383 3.53351788-1.6851607 4.49020293-1.3914161-.4902301-2.9085839-.4902301-4.3 0-1.4962224-.95668505-2.18251-2.78533597-1.6851607-4.49020293.4973492-1.70486696 2.0592319-2.87767443 3.8351607-2.87979707zm-10 0c1.7759288.00212264 3.3378115 1.17493011 3.8351607 2.87979707.4973493 1.70486696-.1889383 3.53351788-1.6851607 4.49020293-1.3914161-.4902301-2.9085839-.4902301-4.3 0-1.4962224-.95668505-2.18251-2.78533597-1.6851607-4.49020293.4973492-1.70486696 2.0592319-2.87767443 3.8351607-2.87979707zm-23 14.28c.08226231-1.0982662.66960253-2.0961529 1.58987226-2.7011813.92026974-.6050284 2.06923193-.7486682 3.11012774-.3888187l14.82 5.17c.4034561.441471.845178.8463827 1.32 1.21-.2337333.5756851-.4144818 1.1714856-.54 1.78l-17-1.29c-.93967303-.0615375-1.81610235-.4949373-2.43540926-1.2043252-.61930692-.709388-.93044668-1.6362945-.86459074-2.5756748zm6.83 19.18c-1.1687429.7364485-2.65911587.7257617-3.81717761-.0273713-1.15806175-.7531331-1.77223538-2.1111156-1.57303567-3.4780962s1.17537914-2.493213 2.50021328-2.8845325l16.06-4.81c.015254.9622012.1461945 1.9190743.39 2.85zm23.17 12.54h-4v-4h4zm0 4h-4v-2h4zm0-10h-4v-2h4zm-2 16c-1.1045695 0-2-.8954305-2-2v-2h4v2c0 1.1045695-.8954305 2-2 2zm2-20h-4v-4.33c1.2969642.4404188 2.7030358.4404188 4 0zm-2-6c-3.27 0-6.67-3.93-5.89-9.48.54-3.68 3-6.46 5.89-6.46s5.35 2.78 5.89 6.46c.77 5.48-2.55 9.48-5.89 9.48zm26.17-1.22c.7645977 1.4165616.4803474 3.1702912-.6925522 4.2728168-1.1728996 1.1025257-2.9408431 1.2778582-4.3074478.4271832l-13.57-8.37c.2471812-.9305137.3814801-1.8873935.4-2.85l16.07 4.81c.8995038.2681387 1.6551813.8834761 2.1 1.71zm-18.47-9.43c-.1255182-.6085144-.3062667-1.2043149-.54-1.78.474822-.3636173.9165439-.768529 1.32-1.21 16-5.58 15.06-5.3 15.71-5.35 1.3287653-.2445719 2.6805698.290754 3.4816259 1.378753s.9108261 2.537792.2827171 3.7339992c-.6281091 1.1962072-1.8839015 1.9289654-3.234343 1.8872478z"/></g></g></svg>