<?xml version="1.0" encoding="iso-8859-1"?>
<!-- Generator: Adobe Illustrator 19.0.0, SVG Export Plug-In . SVG Version: 6.00 Build 0)  -->
<svg xmlns="http://www.w3.org/2000/svg" xmlns:xlink="http://www.w3.org/1999/xlink" version="1.1" id="Layer_1" x="0px" y="0px" viewBox="0 0 511.998 511.998" style="enable-background:new 0 0 511.998 511.998;" xml:space="preserve">
<path style="fill:#3FD0FC;" d="M353.202,158.608l16.254-16.254c30.071-30.071,79.279-30.071,109.351,0l0,0  c30.071,30.071,30.071,79.279,0,109.351L268.234,462.277L49.532,243.576L260.107,33.002c30.071-30.071,79.279-30.071,109.351,0l0,0  c30.071,30.071,30.071,79.278,0,109.351L353.202,158.608"/>
<g>
	<path style="fill:#0092E0;" d="M172.724,261.637l-31.996-31.996l120.35-120.35c8.799-8.799,23.197-8.799,31.996,0l0,0   c8.799,8.799,8.799,23.197,0,31.996l-77.698,77.698L172.724,261.637z"/>
	<path style="fill:#0092E0;" d="M282.169,371.081l-31.996-31.996l120.35-120.35c8.799-8.799,23.198-8.799,31.996,0l0,0   c8.799,8.799,8.799,23.198,0,31.996l-77.698,77.698L282.169,371.081z"/>
</g>
<g>
	<path style="fill:#FFDF9F;" d="M116.721,312.243L42.58,386.384c-7.244,7.244-19.156,7.187-26.471-0.128l0,0   c-7.314-7.314-7.372-19.227-0.127-26.471l74.142-74.142L116.721,312.243z"/>
	<path style="fill:#FFDF9F;" d="M226.165,421.686l-74.142,74.468c-7.244,7.244-19.156,7.187-26.471-0.127l0,0   c-7.314-7.314-7.372-19.227-0.127-26.471l74.142-74.468L226.165,421.686z"/>
</g>
<path d="M486.195,134.965c-23.616-23.616-57.45-30.934-87.402-21.959c2.415-8.103,3.664-16.616,3.664-25.329  c0-23.505-9.097-45.546-25.615-62.064C360.327,9.097,338.286,0,314.781,0s-45.546,9.097-62.064,25.614L42.144,236.188  c-1.959,1.959-3.061,4.617-3.061,7.388c0,2.771,1.101,5.429,3.061,7.388l33.94,33.94L8.592,352.396  c-5.49,5.491-8.494,12.824-8.456,20.648c0.038,7.787,3.087,15.103,8.584,20.6c5.498,5.497,12.814,8.546,20.6,8.584  c0.049,0,0.097,0,0.146,0c7.77,0,15.045-3,20.503-8.456l67.491-67.491l68.082,68.082l-67.505,67.803  c-5.491,5.491-8.494,12.824-8.456,20.648c0.038,7.787,3.087,15.103,8.584,20.6c5.498,5.497,12.814,8.546,20.6,8.583  c0.049,0,0.097,0,0.146,0c7.77,0,15.045-3,20.519-8.472l67.49-67.788l33.926,33.926c2.041,2.04,4.715,3.06,7.388,3.06  s5.349-1.021,7.388-3.06l210.573-210.573C520.418,224.87,520.418,169.187,486.195,134.965z M35.191,378.995  c-1.516,1.517-3.533,2.343-5.77,2.335c-2.242-0.011-4.346-0.886-5.924-2.464c-1.578-1.578-2.452-3.681-2.463-5.922  c-0.01-2.205,0.819-4.254,2.335-5.77l67.491-67.491l11.821,11.821L35.191,378.995z M144.635,488.767  c-3.189,3.189-8.435,3.132-11.693-0.128c-1.578-1.578-2.452-3.681-2.464-5.924c-0.01-2.204,0.819-4.253,2.352-5.787l67.489-67.788  l11.822,11.822L144.635,488.767z M471.418,244.315L268.234,447.499L64.309,243.576L267.495,40.391  c12.57-12.57,29.364-19.493,47.286-19.493s34.717,6.922,47.286,19.494c12.57,12.57,19.494,29.364,19.494,47.286  s-6.922,34.717-19.494,47.287l-16.254,16.254c-2.041,2.041-3.06,4.715-3.06,7.388c0,2.674,1.02,5.349,3.06,7.388  c4.08,4.08,10.697,4.08,14.778,0l16.254-16.254c12.57-12.57,29.365-19.494,47.287-19.494c17.922,0,34.717,6.922,47.286,19.494  C497.492,175.816,497.492,218.242,471.418,244.315z"/>
<path d="M300.464,101.902c-12.896-12.894-33.878-12.895-46.774,0l-120.35,120.351c-4.08,4.08-4.08,10.697,0,14.777l31.996,31.996  c2.041,2.041,4.715,3.06,7.388,3.06c2.674,0,5.349-1.02,7.388-3.06c4.08-4.08,4.08-10.697,0-14.778l-24.607-24.607l112.962-112.962  c4.748-4.748,12.473-4.747,17.219,0c4.747,4.747,4.747,12.472,0,17.219l-77.698,77.698c-4.08,4.08-4.08,10.697,0,14.778  c4.08,4.08,10.697,4.08,14.778,0l77.698-77.698C313.359,135.779,313.359,114.798,300.464,101.902z"/>
<path d="M185.366,234.218l-0.097,0.097c-4.08,4.08-4.08,10.697,0,14.778c2.041,2.041,4.715,3.061,7.388,3.061  s5.349-1.02,7.388-3.061l0.097-0.097c4.08-4.08,4.08-10.697,0-14.778C196.064,230.138,189.447,230.138,185.366,234.218z"/>
<path d="M363.133,211.346l-120.35,120.35c-1.959,1.959-3.061,4.617-3.061,7.388c0,2.771,1.101,5.429,3.061,7.388l31.997,31.996  c2.041,2.041,4.715,3.061,7.388,3.061s5.349-1.021,7.388-3.061c4.08-4.08,4.08-10.697,0-14.777l-24.607-24.607l112.962-112.962  c4.747-4.748,12.473-4.747,17.219,0c4.747,4.747,4.747,12.472,0,17.219l-77.699,77.698c-4.08,4.08-4.08,10.697,0,14.777  c4.081,4.081,10.697,4.081,14.778,0l77.699-77.698c12.895-12.896,12.895-33.878,0-46.774  C397.012,198.451,376.031,198.45,363.133,211.346z"/>
<path d="M294.811,343.663l-0.097,0.097c-4.08,4.08-4.08,10.697,0,14.778c2.041,2.041,4.715,3.06,7.388,3.06s5.349-1.02,7.388-3.06  l0.097-0.097c4.08-4.08,4.08-10.697,0-14.778C305.507,339.581,298.891,339.581,294.811,343.663z"/>
<g>
</g>
<g>
</g>
<g>
</g>
<g>
</g>
<g>
</g>
<g>
</g>
<g>
</g>
<g>
</g>
<g>
</g>
<g>
</g>
<g>
</g>
<g>
</g>
<g>
</g>
<g>
</g>
<g>
</g>
</svg>
