<svg height="512" viewBox="0 0 61 60" width="512" xmlns="http://www.w3.org/2000/svg"><g id="036---Butterfly" fill="none"><g id="Icons" transform="translate(2 9)"><path id="Shape" d="m29 30.6c.18 1.79 1.4 11.53 7.16 16.4-1.8814048 1.9241273-4.4589129 3.0087555-7.15 3.0087555s-5.2685952-1.0846282-7.15-3.0087555c5.72-4.9 6.93-14.61 7.14-16.4z" fill="#283593"/><path id="Shape" d="m29 29.41c-.71-6.8-3.63-15.31-9.95-18.18.1691953-2.07461627.9721348-4.04705463 2.3-5.65h15.32c1.3360349 1.59308318 2.1495097 3.55868967 2.33 5.63-6.32 2.7-9.36 11.49-10 18.2z" fill="#283593"/><path id="Shape" d="m29 30.6c.16 1.62 1.17 9.69 5.6 14.84-.82.83-2.39 2.43-2.78 2.7-1.2802088.9169843-2.7616144 1.5136615-4.32 1.74-2.1494764-.3195138-4.1363747-1.330515-5.66-2.88 5.74-4.9 6.95-14.61 7.16-16.4z" fill="#3f51b5"/><path id="Shape" d="m36 11.21-.06 2c-5.58 5-6.76 14.49-6.93 16.23-.71-6.8-3.63-15.31-9.95-18.18.1691953-2.07461627.9721348-4.04705463 2.3-5.65h12.31c1.3303918 1.58488063 2.1435165 3.53917182 2.33 5.6z" fill="#3f51b5"/><path id="Shape" d="m58 46.88s-7.27 3.61-14.28 3.06c-2.0052738-.1274894-3.958014-.6941937-5.72-1.66-8-4.58-9-18-9-18v-.62s1-13.39 9-18c1.7770603-.9728538 3.7476413-1.53978 5.77-1.66 7-.55 14.28 3.06 14.28 3.06s-.9 11.65-7.47 16.94c6.57 5.29 7.42 16.88 7.42 16.88z" fill="#fec108"/><path id="Shape" d="m47.58 30c6.57-5.29 7.42-16.88 7.42-16.88-3.5561524-1.6608119-7.3720588-2.695978-11.28-3.06-2.0052738.1274894-3.958014.6941937-5.72 1.66-7.35 4.2-8.78 15.78-9 17.69-.19-1.9-1.63-13.49-9-17.69-8-4.57-20 1.4-20 1.4s.8 11.59 7.37 16.88c-6.57 5.29-7.37 16.88-7.37 16.88s12 6 20.05 1.4c7.35-4.2 8.79-15.78 9-17.7.19 1.91 1.63 13.5 9 17.7 1.7770603.9728538 3.7476413 1.53978 5.77 1.66 3.8738444-.3752802 7.6549974-1.4101933 11.18-3.06 0 0-.85-11.59-7.42-16.88z" fill="#ffdc00"/><circle id="Oval" cx="13" cy="20" fill="#9d27b0" r="5"/><circle id="Oval" cx="14" cy="40" fill="#ff5722" r="3"/><circle id="Oval" cx="45" cy="20" fill="#9d27b0" r="5"/><circle id="Oval" cx="44" cy="40" fill="#ff5722" r="3"/><g fill="#f5f5f5"><circle id="Oval" cx="25" cy="4" r="4"/><circle id="Oval" cx="33" cy="4" r="4"/></g></g><g id="Layer_10" fill="#000"><path id="Shape" d="m60.45 21.22c-.45-.22-10.54-5.14-18.68-2.4-.326585-1.6108323-1.0099961-3.128005-2-4.44.4201948-1.4475728.1649251-3.0074573-.6947744-4.2455798-.8596995-1.23812254-2.2320729-2.02233795-3.7352256-2.1344202.52-3 1.77-6 4.71-6 4.6 0 4.69 4 2 4-.5522847 0-1 .44771525-1 1s.4477153 1 1 1c5.33 0 5.35-8-2-8-3.6 0-6 3-6.77 8.32-.9060291.32855862-1.6977954.91196538-2.28 1.68-.5752208-.77961133-1.3686471-1.37120111-2.28-1.7-.72-5.3-3.16-8.3-6.72-8.3-7.33 0-7.35 8-2 8 .5522847 0 1-.44771525 1-1s-.4477153-1-1-1c-2.69 0-2.6-4 2-4 2.95 0 4.19 3.06 4.71 6-1.4979522.11128232-2.8665117.89010645-3.7272474 2.1211136-.8607357 1.2310071-1.1224421 2.783757-.7127526 4.2288864-.9927138 1.3178601-1.6762538 2.8421544-2 4.46-8.19-2.75-18.27 2.19-18.77 2.41-.3742205.1857211-.59355133.5845044-.55 1 .05.44.88 11.03 6.91 16.78-6.03 5.74-6.86 16.34-6.86 16.8-.04355133.4154956.1757795.8142789.55 1 4.12985337 1.9522947 8.6147048 3.0411813 13.18 3.2 3.2364283.1103422 6.4195257-.8452897 9.06-2.72 4.1233603 3.6043698 10.2766397 3.6043698 14.4 0 2.6257805 1.8563721 5.7859784 2.8044314 9 2.7 4.5850709-.1645783 9.087741-1.267273 13.23-3.24.3742205-.1857211.5935513-.5845044.55-1 0-.46-.88-11.06-6.91-16.8 6-5.75 6.87-16.34 6.91-16.81.0122425-.3771481-.188857-.7290722-.52-.91zm-25.45-11.22c1.6568542 0 3 1.3431458 3 3s-1.3431458 3-3 3-3-1.3431458-3-3 1.3431458-3 3-3zm-8 0c1.6568542 0 3 1.3431458 3 3s-1.3431458 3-3 3-3-1.3431458-3-3 1.3431458-3 3-3zm-3.7 6.34c.9996254 1.106036 2.4406583 1.7083118 3.9300345 1.6425471 1.4893763-.0657646 2.8717164-.7927088 3.7699655-1.9825471.893585 1.1938192 2.2733907 1.9264844 3.7628791 1.9980572s2.9331866-.5254175 3.9371209-1.6280572c.6010443 1.009768.9985241 2.1274676 1.17 3.29-4.85 2.53-7.52 8-8.89 13.23-1.38-5.27-4.05-10.67-8.85-13.2.1638197-1.1832461.5615487-2.3220431 1.17-3.35zm-1.8 40.07c-6.46 3.68-16 0-18.48-1.14.3-2.51 1.71-11.27 6.98-15.49.2365713-.1897968.3742205-.4767035.3742205-.78s-.1376492-.5902032-.3742205-.78c-5.26-4.22-6.68-12.99-7-15.49 2.51-1.1 12-4.82 18.48-1.14 6.84 3.9 8.28 15 8.47 16.82-.0303043.3894113-.0303043.7805887 0 1.17-.2 2.06-1.66 12.95-8.45 16.83zm3.82-.41c3.07-3.06 4.75-7.37 5.65-10.84.91 3.48 2.6 7.8 5.68 10.86-3.3075534 2.6696293-8.0318922 2.6612897-11.33-.02zm26.68-17.78c-.2365713.1897968-.3742205.4767035-.3742205.78s.1376492.5902032.3742205.78c5.26 4.23 6.68 13 7 15.49-2.51 1.1-12 4.82-18.48 1.14-6.85-3.87-8.32-14.77-8.52-16.83.0251528-.3895944.0251528-.7804056 0-1.17.22-2.07 1.69-12.95 8.47-16.82 6.46-3.68 16 0 18.48 1.14-.32 2.5-1.73 11.27-6.95 15.49z"/><circle id="Oval" cx="28" cy="13" r="1"/><circle id="Oval" cx="34" cy="13" r="1"/><path id="Shape" d="m15 23c-3.3137085 0-6 2.6862915-6 6s2.6862915 6 6 6 6-2.6862915 6-6-2.6862915-6-6-6zm0 10c-2.209139 0-4-1.790861-4-4s1.790861-4 4-4 4 1.790861 4 4-1.790861 4-4 4z"/><path id="Shape" d="m16 45c-2.209139 0-4 1.790861-4 4s1.790861 4 4 4 4-1.790861 4-4-1.790861-4-4-4zm0 6c-1.1045695 0-2-.8954305-2-2s.8954305-2 2-2 2 .8954305 2 2-.8954305 2-2 2z"/><path id="Shape" d="m41 29c0 3.3137085 2.6862915 6 6 6s6-2.6862915 6-6-2.6862915-6-6-6-6 2.6862915-6 6zm10 0c0 2.209139-1.790861 4-4 4s-4-1.790861-4-4 1.790861-4 4-4 4 1.790861 4 4z"/><path id="Shape" d="m46 45c-2.209139 0-4 1.790861-4 4s1.790861 4 4 4 4-1.790861 4-4-1.790861-4-4-4zm0 6c-1.1045695 0-2-.8954305-2-2s.8954305-2 2-2 2 .8954305 2 2-.8954305 2-2 2z"/></g></g></svg>