<svg id="Filled" height="512" viewBox="0 0 512 512" width="512" xmlns="http://www.w3.org/2000/svg"><path d="m432 72v-32h-32v32l56 400h32z" fill="#93573d"/><path d="m80 40v32l-56 400h32l56-400v-32z" fill="#93573d"/><path d="m24 40h464v32h-464z" fill="#ab6647"/><path d="m60.48 440-4.48 32h-32l4.48-32z" fill="#794832"/><path d="m336 352v32a16 16 0 0 1 -16 16h-128a16 16 0 0 1 -16-16v-32a16 16 0 0 1 16-16 16 16 0 0 1 16 16v16h96v-16a16 16 0 0 1 16-16 16 16 0 0 1 16 16z" fill="#ab6647"/><path d="m451.52 440 4.48 32h32l-4.48-32z" fill="#794832"/><path d="m488 32h-464a8 8 0 0 0 -8 8v32a8 8 0 0 0 8 8h46.8l-54.723 390.891a8 8 0 0 0 7.923 9.109h32a8 8 0 0 0 7.923-6.891l55.035-393.109h50.418a23.985 23.985 0 0 0 14.624 30.624v218.752a24.039 24.039 0 0 0 -16 22.624v32a24.028 24.028 0 0 0 24 24h128a24.028 24.028 0 0 0 24-24v-32a24.039 24.039 0 0 0 -16-22.624v-218.752a23.985 23.985 0 0 0 14.624-30.624h50.418l55.035 393.109a8 8 0 0 0 7.923 6.891h32a8 8 0 0 0 7.923-9.109l-54.723-390.891h46.8a8 8 0 0 0 8-8v-32a8 8 0 0 0 -8-8zm-454.8 432 2.24-16h15.842l-2.24 16zm20.324-32h-15.846l49.28-352h15.842zm258.476-321.376v218.752a24.039 24.039 0 0 0 -16 22.624v8h-80v-8a24.039 24.039 0 0 0 -16-22.624v-218.752a23.985 23.985 0 0 0 14.624-30.624h82.752a23.985 23.985 0 0 0 14.624 30.624zm-112-22.624a8 8 0 1 1 -8-8 8.009 8.009 0 0 1 8 8zm128 296a8.009 8.009 0 0 1 -8 8h-128a8.009 8.009 0 0 1 -8-8v-32a8 8 0 0 1 16 0v16a8 8 0 0 0 8 8h96a8 8 0 0 0 8-8v-16a8 8 0 0 1 16 0zm0-296a8 8 0 1 1 -8-8 8.009 8.009 0 0 1 8 8zm134.958 376-2.24-16h15.844l2.24 16zm11.364-32h-15.844l-49.278-352h15.844zm5.678-368h-448v-16h448z"/></svg>