<?xml version="1.0" encoding="iso-8859-1"?>
<!-- Generator: Adobe Illustrator 19.0.0, SVG Export Plug-In . SVG Version: 6.00 Build 0)  -->
<svg xmlns="http://www.w3.org/2000/svg" xmlns:xlink="http://www.w3.org/1999/xlink" version="1.1" id="Layer_1" x="0px" y="0px" viewBox="0 0 512 512" style="enable-background:new 0 0 512 512;" xml:space="preserve">
<path style="fill:#3FD0FC;" d="M248.217,25.191l-19.164,38.831c-3.851,7.805-11.297,13.215-19.91,14.467l-42.853,6.227  c-21.69,3.151-30.351,29.807-14.656,45.106l31.009,30.227c6.233,6.075,9.077,14.828,7.606,23.407l-7.321,42.68  c-3.705,21.602,18.969,38.076,38.37,27.877l38.329-20.151c7.704-4.05,16.907-4.05,24.611,0l38.329,20.151  c19.401,10.199,42.075-6.275,38.37-27.877l-7.321-42.68c-1.471-8.579,1.373-17.332,7.606-23.407l31.009-30.227  c15.695-15.299,7.034-41.955-14.656-45.106l-42.853-6.227c-8.613-1.252-16.059-6.661-19.91-14.467l-19.164-38.831  C285.945,5.535,257.917,5.535,248.217,25.191z"/>
<circle style="fill:#F777F1;" cx="119.118" cy="392.88" r="108.669"/>
<path style="fill:#FF5764;" d="M363.153,288.625l-74.528,74.528c-7.434,7.434-8.695,19.041-3.028,27.898l64.089,100.173  c7.707,12.047,24.579,13.878,34.691,3.766l110.612-110.612c10.112-10.112,8.282-26.984-3.766-34.691L391.05,285.597  C382.194,279.93,370.588,281.191,363.153,288.625z"/>
<path d="M279.374,243.109l38.33,20.151c12.52,6.583,27.409,5.508,38.853-2.808c11.445-8.315,17.068-22.141,14.677-36.084  l-7.319-42.68c-0.89-5.19,0.83-10.483,4.6-14.158l31.009-30.227c10.129-9.874,13.707-24.366,9.335-37.82  s-15.783-23.074-29.783-25.109l-42.853-6.227c-5.211-0.758-9.712-4.028-12.043-8.751l-19.164-38.832  C298.754,7.881,286.077,0,271.931,0c-0.001,0,0,0,0,0c-14.145,0-26.822,7.881-33.083,20.566l-19.164,38.832  c-2.33,4.722-6.834,7.993-12.043,8.751l-42.853,6.227c-13.998,2.034-25.411,11.656-29.783,25.109  c-4.371,13.454-0.794,27.946,9.336,37.82l31.008,30.226c3.771,3.676,5.49,8.968,4.601,14.158l-7.321,42.68  c-2.392,13.942,3.233,27.769,14.677,36.084c6.467,4.699,14.033,7.085,21.65,7.085c5.863,0,11.757-1.415,17.203-4.278l38.329-20.151  C269.148,240.658,274.713,240.659,279.374,243.109z M254.763,224.612l-38.329,20.151c-5.511,2.897-11.808,2.442-16.846-1.217  s-7.417-9.509-6.363-15.644l7.321-42.68c2.053-11.97-1.913-24.178-10.611-32.655l-31.008-30.226  c-4.459-4.347-5.972-10.476-4.048-16.398c1.924-5.921,6.751-9.991,12.912-10.886l42.853-6.227  c12.018-1.746,22.403-9.291,27.778-20.182l19.164-38.832l0,0c2.756-5.585,8.119-8.918,14.345-8.918  c6.225,0,11.588,3.333,14.343,8.916l19.164,38.832c5.375,10.891,15.759,18.435,27.777,20.182l42.853,6.227  c6.161,0.895,10.988,4.965,12.912,10.887c1.925,5.921,0.412,12.051-4.047,16.396l-31.008,30.227  c-8.697,8.477-12.663,20.685-10.61,32.655l7.319,42.68c1.052,6.137-1.327,11.985-6.363,15.644  c-5.036,3.66-11.333,4.115-16.846,1.217l-38.33-20.151C278.349,218.96,265.513,218.96,254.763,224.612z"/>
<path d="M201.048,109.807c-4.134-4.029-10.749-3.944-14.776,0.189c-4.028,4.133-3.943,10.748,0.189,14.776l27.402,26.711  c3.046,2.969,4.435,7.243,3.716,11.435l-0.786,4.581c-0.976,5.687,2.844,11.089,8.533,12.064c0.598,0.102,1.192,0.153,1.778,0.153  c4.996,0,9.413-3.594,10.286-8.684l0.786-4.581c1.882-10.972-1.754-22.162-9.726-29.932L201.048,109.807z"/>
<path d="M119.118,273.762C53.436,273.762,0,327.198,0,392.88s53.436,119.118,119.118,119.118s119.118-53.436,119.118-119.118  S184.8,273.762,119.118,273.762z M119.118,491.1c-13.113,0-25.63-2.589-37.078-7.273c-18.58-9.455-32.411-25.545-38.955-45.354  c-6.582-19.922-5.012-41.216,4.421-59.957c7.294-14.495,19.799-25.28,35.207-30.371c15.407-5.091,31.874-3.877,46.37,3.419  c11.097,5.585,19.355,15.157,23.252,26.954s2.967,24.404-2.617,35.501c-4.217,8.379-11.445,14.614-20.352,17.557  c-8.908,2.941-18.427,2.241-26.806-1.977c-6.205-3.122-10.822-8.474-13.001-15.07s-1.659-13.645,1.463-19.85  c4.639-9.218,15.911-12.943,25.131-8.303c5.154,2.593,11.436,0.519,14.031-4.636c2.594-5.154,0.519-11.436-4.636-14.031  c-19.511-9.82-43.372-1.936-53.192,17.574c-5.632,11.19-6.57,23.905-2.639,35.801c3.931,11.896,12.258,21.55,23.448,27.181  c13.365,6.727,28.551,7.847,42.757,3.153c14.206-4.694,25.736-14.64,32.463-28.004c8.096-16.083,9.443-34.356,3.794-51.453  c-5.649-17.097-17.617-30.97-33.7-39.065c-19.48-9.804-41.613-11.436-62.322-4.594c-20.708,6.842-37.513,21.338-47.318,40.819  c-3.496,6.946-6.132,14.172-7.913,21.547c1.182-53.141,44.774-96.008,98.193-96.008c54.159,0,98.22,44.061,98.22,98.22  S173.277,491.1,119.118,491.1z"/>
<path d="M121.885,403.641c-2.613,5.145-0.561,11.434,4.584,14.049c1.517,0.77,3.133,1.135,4.724,1.135  c3.809,0,7.481-2.09,9.325-5.719c0.014-0.026,0.059-0.117,0.071-0.143l0.006-0.013c2.569-5.15,0.468-11.365-4.674-13.954  C130.78,396.407,124.492,398.508,121.885,403.641z"/>
<path d="M329.074,376.599l-0.039-0.062c-3.041-4.905-9.464-6.386-14.367-3.346c-4.905,3.041-6.398,9.513-3.357,14.417  c1.978,3.191,5.395,4.945,8.891,4.945c1.879,0,3.781-0.507,5.495-1.569C330.602,387.945,332.114,381.505,329.074,376.599z"/>
<path d="M345.954,403.827c-3.041-4.905-9.482-6.415-14.386-3.375c-4.905,3.041-6.416,9.481-3.375,14.386l31.589,50.953  c1.978,3.19,5.394,4.944,8.89,4.944c1.879,0,3.781-0.507,5.496-1.569c4.905-3.041,6.416-9.481,3.375-14.386L345.954,403.827z"/>
<path d="M511.805,365.003c-1.078-9.939-6.527-18.73-14.949-24.118l-100.173-64.09c-12.89-8.246-30.098-6.378-40.918,4.441  l-74.528,74.528c-10.819,10.82-12.687,28.028-4.441,40.918l64.089,100.173c5.387,8.422,14.178,13.87,24.118,14.949  c1.203,0.131,2.4,0.195,3.592,0.195c8.665,0,16.958-3.406,23.172-9.621l110.612-110.612  C509.448,384.697,512.884,374.942,511.805,365.003z M487.601,376.99L376.988,487.602c-2.569,2.57-6.118,3.819-9.731,3.428  c-3.614-0.392-6.811-2.373-8.77-5.436l-64.089-100.173c-2.999-4.687-2.32-10.944,1.614-14.878l74.528-74.528  c2.29-2.291,5.37-3.478,8.468-3.478c2.221,0,4.453,0.611,6.411,1.863l100.173,64.089c3.063,1.959,5.044,5.155,5.436,8.77  C491.421,370.872,490.172,374.419,487.601,376.99z"/>
<path d="M221.409,191.814c-5.771,0-10.449,4.678-10.449,10.449v0.137c0,5.771,4.678,10.449,10.449,10.449  c5.771,0,10.449-4.678,10.449-10.449v-0.137C231.858,196.492,227.179,191.814,221.409,191.814z"/>
<g>
</g>
<g>
</g>
<g>
</g>
<g>
</g>
<g>
</g>
<g>
</g>
<g>
</g>
<g>
</g>
<g>
</g>
<g>
</g>
<g>
</g>
<g>
</g>
<g>
</g>
<g>
</g>
<g>
</g>
</svg>
