<svg height="512" viewBox="0 0 62 60" width="512" xmlns="http://www.w3.org/2000/svg"><g id="039---Fly" fill="none"><g id="Icons" transform="translate(1 2)"><path id="Shape" d="m20.11 21.55c-2.2856063-2.259444-4.8655313-4.2002742-7.67-5.77-2.59096703-1.3128769-5.68998332-1.1182567-8.0963423.5084554-2.40635897 1.6267122-3.74195775 4.4299166-3.48932171 7.3235183.25263603 2.8936017 2.05381104 5.4229391 4.70566401 6.6080263 4.6039082 1.7770566 9.5054771 2.6562162 14.44 2.59z" fill="#00bcd4"/><path id="Shape" d="m20 44.39c-2.2617226 2.2118668-4.8033255 4.118069-7.56 5.67-3.99025732 1.8998595-8.76514046.2052573-10.665-3.785-1.89985954-3.9902573-.20525732-8.7651405 3.785-10.665 4.6013534-1.7882015 9.503809-2.6743101 14.44-2.61z" fill="#02a9f4"/><path id="Shape" d="m54.44 30.22c-4.6039082 1.7770566-9.5054771 2.6562162-14.44 2.59 0-.89 0 3.13-.11-11.26 2.2856063-2.259444 4.8655313-4.2002742 7.67-5.77 3.964468-1.7716821 8.6184043-.0572947 10.4861625 3.8628256 1.8677582 3.9201204.2672823 8.6144493-3.6061625 10.5771744z" fill="#00838f"/><path id="Shape" d="m51.44 30.22c-3.6490125 1.4658006-7.513534 2.3238325-11.44 2.54l-.11-11.21c2.2856063-2.259444 4.8655313-4.2002742 7.67-5.77.6173437-.2936584 1.269104-.5086721 1.94-.64 3.3968838.6489178 5.9922238 3.4070938 6.4334894 6.8371373.4412655 3.4300435-1.3714573 6.7553046-4.4934894 8.2428627z" fill="#00bcd4"/><path id="Shape" d="m58.22 46.27c-1.8971019 3.9902532-6.6697424 5.6870925-10.66 3.79-2.7566745-1.551931-5.2982774-3.4581332-7.56-5.67v-11.39c4.9342385-.0738705 9.8366284.8020413 14.44 2.58 1.9221581.9127073 3.4015112 2.5535723 4.1108788 4.5596939s.5902966 4.2121919-.3308788 6.1303061z" fill="#0377bc"/><path id="Shape" d="m55.22 46.27c-1.0943592 2.2998713-3.2184427 3.9412086-5.72 4.42-.6716849-.1232705-1.3240442-.3351192-1.94-.63-2.7566745-1.551931-5.2982774-3.4581332-7.56-5.67v-11.32c3.926466.2161675 7.7909875 1.0741994 11.44 2.54 3.9864416 1.9008095 5.6784423 6.6724305 3.78 10.66z" fill="#02a9f4"/><path id="Shape" d="m40 23v24c0 5.5228475-4.4771525 10-10 10s-10-4.4771525-10-10v-24c.0037142-1.9747058.5879406-3.9047393 1.68-5.55h16.64c1.0920594 1.6452607 1.6762858 3.5752942 1.68 5.55z" fill="#ffdc00"/><path id="Shape" d="m38.32 17.45h-3c1.0920594 1.6452607 1.6762858 3.5752942 1.68 5.55v24c-.0033897 4.9409985-3.6149026 9.1388512-8.5 9.88 2.8798988.4369289 5.8071697-.4035567 8.0166027-2.3017479 2.209433-1.8981911 3.4813992-4.6653978 3.4833973-7.5782521v-24c-.0037142-1.9747058-.5879406-3.9047393-1.68-5.55z" fill="#fec108"/><path id="Shape" d="m41 12c0 10.69-22 10.67-22 0 .084432-2.52832754 1.1623892-4.92139262 3-6.66h16c1.8376108 1.73860738 2.915568 4.13167246 3 6.66z" fill="#283593"/><path id="Shape" d="m28.5 19.93c-5.37-.45-9.5-3.38-9.5-7.93.084432-2.52832754 1.1623892-4.92139262 3-6.66h13c5.54 5.5 3.46 13.76-6.5 14.59z" fill="#3f51b5"/><g fill="#f5f5f5"><path id="Shape" d="m30 5c-.0009561 1.3990779-.7328321 2.69597734-1.93 3.42-1.3231635-.5601227-2.8168365-.5601227-4.14 0-1.6525744-.99944439-2.3550468-3.03692926-1.6695614-4.84247654.6854854-1.80554727 2.5631459-2.86347129 4.462623-2.51436087 1.899477.34911043 3.2782576 2.00554523 3.2769384 3.93683741z"/><path id="Shape" d="m38 5c-.0009561 1.3990779-.7328321 2.69597734-1.93 3.42-1.3231635-.5601227-2.8168365-.5601227-4.14 0-1.6525744-.99944439-2.3550468-3.03692926-1.6695614-4.84247654.6854854-1.80554727 2.5631459-2.86347129 4.462623-2.51436087 1.899477.34911043 3.2782576 2.00554523 3.2769384 3.93683741z"/></g></g><g id="Layer_10" fill="#000" transform="translate(0 -1)"><circle id="Oval" cx="28" cy="8" r="1"/><circle id="Oval" cx="34" cy="8" r="1"/><path id="Shape" d="m55.87 37.71c-1.9063275-.8087806-3.8945631-1.4089394-5.93-1.79 2.0348298-.3883192 4.0226503-.9917048 5.93-1.8 3.0118929-1.3149969 5.0675454-4.1671463 5.3625255-7.4403255.2949802-3.2731793-1.2176187-6.4469008-3.9458758-8.2792022-2.7282572-1.8323013-6.2383366-2.0318174-9.1566497-.5204723-2.4056086 1.3125176-4.6392962 2.9180855-6.65 4.78-.2199903-.6949836-.5115538-1.3652447-.87-2 3.66-3.66 2.85-9-.61-12.66-.0079543-.21473603-.0313481-.42862152-.07-.64 2.1412607-.92198224 3.6721605-2.8628774 4.07-5.16.1104569-.55228474-.2477153-1.08954303-.8-1.19999997-.5522847-.11045695-1.089543.24771523-1.2.79999997-.2548671 1.59491456-1.285432 2.9590078-2.75 3.64-.8573546-1.41345666-2.3579358-2.3117727-4.0087432-2.39981576s-3.2384247.64556906-4.2412568 1.95981576c-.9970612-1.32589794-2.5868392-2.07092592-4.2437606-1.98878109-1.6569214.08214484-3.1652126.98076512-4.0262394 2.39878109-1.4489836-.68031114-2.4700453-2.0305063-2.73-3.61-.110457-.55228474-.6477153-.91045692-1.2-.79999997-.5522847.11045694-.9104569.64771523-.8 1.19999997.4031262 2.28149583 1.9243559 4.20838679 4.05 5.13-.0334134.22176701-.050127.44572998-.05.67-3.46 3.69-4.27 9.06-.61 12.68-.3584462.6347553-.6500097 1.3050164-.87 2-2.0107038-1.8619145-4.2443914-3.4674824-6.65-4.78-2.9253228-1.6016375-6.49649903-1.454293-9.27993851.3828844-2.78343949 1.8371774-4.32273858 5.0629437-3.99997089 8.3823679s2.45467758 6.1882167 5.5399094 7.4547477c1.9073497.8082952 3.8951702 1.4116808 5.93 1.8-2.0354369.3810606-4.02367253.9812194-5.93 1.79-4.49835918 2.1401035-6.4101032 7.5216407-4.26999983 12.0199999 2.14010338 4.4983592 7.52164056 6.4101034 12.01999983 4.2700001 2.1998509-1.2187104 4.2531796-2.6848945 6.12-4.37-.0000001 3.9299215 2.0965881 7.5613188 5.5 9.5262796 3.4034118 1.9649608 7.5965882 1.9649608 11 0 3.4034119-1.9649608 5.5000001-5.5963581 5.5-9.5262796 1.868451 1.687593 3.9253871 3.1539568 6.13 4.37 4.4772559 2.080021 9.7943833.1650675 11.9173189-4.2920001 2.1229356-4.4570677.2591492-9.7923456-4.1773189-11.9579999zm-6.87-18.03c2.2720071-1.1755711 5.0043419-1.0181595 7.1263146.4105517 2.1219727 1.4287111 3.295605 3.9011632 3.0609986 6.4485037s-1.8400844 4.7638405-4.1873132 5.7809446c-4.1530656 1.5909545-8.5531739 2.4405138-13 2.51 0-9.91 0-9.09-.06-9.89 2.1168834-2.0501828 4.4898741-3.8181617 7.06-5.26zm-14-14.68c1.2624359-.00162726 2.3908129.78725348 2.8227811 1.97348728.4319681 1.18623379.0750883 2.5159722-.8927811 3.32651272-1.2555974-.39987899-2.6044026-.39987899-3.86 0-.9678694-.81054052-1.3247492-2.14027893-.8927811-3.32651272.4319682-1.1862338 1.5603452-1.97511454 2.8227811-1.97348728zm-8 0c1.2624359-.00162726 2.3908129.78725348 2.8227811 1.97348728.4319681 1.18623379.0750883 2.5159722-.8927811 3.32651272-1.2555974-.39987899-2.6044026-.39987899-3.86 0-.9678694-.81054052-1.3247492-2.14027893-.8927811-3.32651272.4319682-1.1862338 1.5603452-1.97511454 2.8227811-1.97348728zm-4.4 5.37c.4219746.7868548 1.046952 1.4463613 1.81 1.91.2828453.1688181.630685.1875192.93.05 1.0629284-.4400166 2.2570716-.4400166 3.32 0 .1287602.0586689.2685051.0893446.41.09.64 0 1.55-.91 1.93-1.41.3857035.5084649.8641149.9393744 1.41 1.27.2828453.1688181.630685.1875192.93.05 1.0629284-.4400166 2.2570716-.4400166 3.32 0 .299315.1375192.6471547.1188181.93-.05.763048-.4636387 1.3880254-1.1231452 1.81-1.91 3.91 5.47.49 11.63-8.4 11.63s-12.29-6.18-8.4-11.63zm-18.92 12.63c1.65850183-3.4886161 5.82943671-4.9743998 9.32-3.32 2.5490695 1.446163 4.9016793 3.2139812 7 5.26-.08.8-.06 0-.06 9.89-4.4266162-.0764763-8.8058171-.9259195-12.94-2.51-3.48861612-1.6585018-4.97439978-5.8294367-3.32-9.32zm9.32 29.16c-2.2597049 1.0717968-4.91955502.8566396-6.97761068-.5644238s-3.2016492-3.8321398-3-6.325 1.71790582-4.6887794 3.97761068-5.7605762c4.1512784-1.5972017 8.552507-2.4469774 13-2.51v10c-2.1097488 2.0043155-4.4612285 3.737692-7 5.16zm27-2.16c0 4.9705627-4.0294373 9-9 9s-9-4.0294373-9-9v-24c.0068323-1.419841.349499-2.8179209 1-4.08 4.36 2.78 11.66 2.78 16 0 .650501 1.2620791.9931677 2.660159 1 4.08zm18.32-1.16c-1.6585018 3.4886161-5.8294367 4.9743998-9.32 3.32-2.5387715-1.422308-4.8902512-3.1556845-7-5.16v-10c4.4468913.0598286 8.8481003.9062149 13 2.5 1.6805484.7964127 2.975107 2.2288277 3.5979793 3.9811251s.5228549 3.680429-.2779793 5.3588749z"/><path id="Shape" d="m36.56 27.1c-2.5 1.19-8.58 1.2-11.12 0-.4909683-.2255152-1.0722858-.0202733-1.3128266.4635108-.2405407.4837842-.0533137 1.0711515.4228266 1.3264892 3 1.47 9.92 1.47 12.9 0 .4845734-.2493745.6802449-.840836.44-1.33-.2421629-.4921264-.8355359-.6973532-1.33-.46z"/><path id="Shape" d="m36.56 33.1c-2.5 1.19-8.58 1.2-11.12 0-.4909683-.2255152-1.0722858-.0202733-1.3128266.4635108-.2405407.4837842-.0533137 1.0711515.4228266 1.3264892 3 1.47 9.92 1.47 12.9 0 .4845734-.2493745.6802449-.840836.44-1.33-.2421629-.4921264-.8355359-.6973532-1.33-.46z"/><path id="Shape" d="m36.56 39.1c-2.5 1.19-8.58 1.2-11.12 0-.4909683-.2255152-1.0722858-.0202733-1.3128266.4635108-.2405407.4837842-.0533137 1.0711515.4228266 1.3264892 3 1.47 9.92 1.47 12.9 0 .4845734-.2493745.6802449-.840836.44-1.33-.2421629-.4921264-.8355359-.6973532-1.33-.46z"/><path id="Shape" d="m36.56 45.1c-2.5 1.19-8.58 1.2-11.12 0-.4909683-.2255152-1.0722858-.0202733-1.3128266.4635108-.2405407.4837842-.0533137 1.0711515.4228266 1.3264892 3 1.47 9.92 1.47 12.9 0 .4845734-.2493745.6802449-.840836.44-1.33-.2421629-.4921264-.8355359-.6973532-1.33-.46z"/><path id="Shape" d="m36.56 51.1c-2.5 1.19-8.58 1.2-11.12 0-.4909683-.2255152-1.0722858-.0202733-1.3128266.4635108-.2405407.4837842-.0533137 1.0711515.4228266 1.3264892 3 1.47 9.92 1.47 12.9 0 .4845734-.2493745.6802449-.840836.44-1.33-.2421629-.4921264-.8355359-.6973532-1.33-.46z"/></g></g></svg>