<?xml version="1.0" encoding="iso-8859-1"?>
<!-- Generator: Adobe Illustrator 19.0.0, SVG Export Plug-In . SVG Version: 6.00 Build 0)  -->
<svg xmlns="http://www.w3.org/2000/svg" xmlns:xlink="http://www.w3.org/1999/xlink" version="1.1" id="Layer_1" x="0px" y="0px" viewBox="0 0 512 512" style="enable-background:new 0 0 512 512;" xml:space="preserve">
<polygon style="fill:#FFDF9F;" points="273.753,433.633 10.449,395.861 10.449,196.854 273.753,234.624 "/>
<polygon style="fill:#FFA1D5;" points="501.551,116.138 236.169,78.367 10.449,196.854 273.753,234.624 "/>
<polygon style="fill:#FFA30C;" points="273.753,433.633 501.551,315.146 501.551,116.138 273.753,234.624 "/>
<polygon style="fill:#FFA1D5;" points="10.449,196.854 10.449,274.982 273.753,312.754 273.753,234.624 "/>
<polygon style="fill:#FF7DBE;" points="273.753,312.754 501.551,194.267 501.551,116.138 273.753,234.624 "/>
<g>
	<path style="fill:#9AE523;" d="M222.525,400.29c-14.303-24.923-4.321-57.488-4.24-57.76l-0.005-0.006l0.008,0.003v-0.013   l0.005,0.005c0.143,0.038,33.422,7.883,47.759,32.853c14.326,24.965,4.283,57.624,4.23,57.761l0.011,0.01   C270.293,433.143,236.885,425.316,222.525,400.29z"/>
	<path style="fill:#9AE523;" d="M276.819,429.251l0.011-0.01c-0.053-0.137-10.096-32.796,4.23-57.761   c14.336-24.97,47.616-32.815,47.759-32.853l0.005-0.005v0.013l0.008-0.003l-0.005,0.006c0.082,0.272,10.063,32.837-4.24,57.76   C310.227,421.425,276.819,429.251,276.819,429.251z"/>
</g>
<path d="M224.699,315.873h-0.138c-5.77,0-10.449-4.678-10.449-10.449c0-5.771,4.679-10.449,10.449-10.449h0.138  c5.77,0,10.449,4.678,10.449,10.449C235.148,311.195,230.469,315.873,224.699,315.873z"/>
<path d="M468.73,221.975c-3.274,0-6.496-1.533-8.533-4.406c-3.337-4.707-2.228-11.23,2.48-14.567l0.112-0.079  c4.708-3.338,11.23-2.228,14.567,2.48c3.337,4.707,2.228,11.23-2.48,14.567l-0.112,0.079  C472.929,221.349,470.819,221.975,468.73,221.975z"/>
<path d="M506.973,107.206c-1.229-0.746-2.577-1.208-3.956-1.403c0.002-0.003,0.004-0.006,0.006-0.009L237.641,68.022  c-2.169-0.307-4.386,0.074-6.329,1.093L5.593,187.601c0.001,0.002,0.001,0.004,0.002,0.006c-0.706,0.371-1.376,0.818-1.991,1.35  C1.316,190.943,0,193.823,0,196.854v199.008c0,5.197,3.82,9.605,8.965,10.342l263.304,37.771c0.495,0.071,0.991,0.107,1.484,0.107  c1.683,0,3.332-0.416,4.817-1.188c0.001,0.003,0.002,0.005,0.004,0.008l227.798-118.486c3.459-1.798,5.628-5.372,5.628-9.27V116.138  C512,112.487,510.094,109.101,506.973,107.206z M262.469,419.451c-9.605-3.979-23.572-11.621-30.882-24.362h-0.001  c-7.312-12.743-6.872-28.57-5.45-38.866c9.614,3.985,23.544,11.62,30.852,24.349c3.627,6.32,5.353,13.354,6.005,20.09  c-0.114,3.716-0.003,7.274,0.239,10.588C263.097,414.225,262.813,417.001,262.469,419.451z M263.304,355.288  c-16.797-16.016-38.724-21.975-42.363-22.878c-5.478-1.435-11.271,1.923-12.745,7.389c-1.457,4.955-10.383,38.424,5.266,65.692  h-0.001c2.085,3.633,4.469,6.939,7.044,9.947L20.898,386.803v-99.787l168.393,23.861c0.498,0.071,0.991,0.106,1.48,0.106  c5.12,0,9.593-3.768,10.333-8.985c0.809-5.713-3.166-11.002-8.88-11.811L20.898,265.911v-57.002l242.406,34.773V355.288z   M271.912,223.805L43.898,191.095L238.036,89.187l229.803,32.707L271.912,223.805z M315.525,391.198  c-7.355,12.819-21.286,20.435-30.879,24.389c-0.165-1.177-0.315-2.435-0.444-3.746V396.02c0.706-6.507,2.428-13.252,5.919-19.337  c7.307-12.727,21.241-20.364,30.856-24.351C322.398,362.616,322.841,378.451,315.525,391.198z M491.102,308.803l-151.545,78.824  c6.963-23.642,0.577-47.574-0.632-51.688c-1.461-5.473-7.234-8.849-12.725-7.428c-3.486,0.862-25.196,6.721-41.999,22.508v-31.921  l158.977-82.659c5.119-2.662,7.113-8.97,4.45-14.091c-2.662-5.119-8.971-7.113-14.09-4.45l-149.337,77.645v-54.578l206.9-107.614  V308.803z"/>
<g>
</g>
<g>
</g>
<g>
</g>
<g>
</g>
<g>
</g>
<g>
</g>
<g>
</g>
<g>
</g>
<g>
</g>
<g>
</g>
<g>
</g>
<g>
</g>
<g>
</g>
<g>
</g>
<g>
</g>
</svg>
