<?xml version="1.0" encoding="iso-8859-1"?>
<!-- Generator: Adobe Illustrator 19.0.0, SVG Export Plug-In . SVG Version: 6.00 Build 0)  -->
<svg xmlns="http://www.w3.org/2000/svg" xmlns:xlink="http://www.w3.org/1999/xlink" version="1.1" id="Layer_1" x="0px" y="0px" viewBox="0 0 512 512" style="enable-background:new 0 0 512 512;" xml:space="preserve">
<g>
	<polygon style="fill:#82FFFF;" points="267.807,451.255 217.521,501.551 210.24,457.033 165.73,449.749 158.448,405.231    113.939,397.948 114.032,398.041 106.751,353.523 62.242,346.24 54.96,301.723 10.45,294.44 60.736,244.145  "/>
	<polygon style="fill:#82FFFF;" points="232.939,72.001 294.48,10.449 301.761,54.967 346.27,62.25 353.552,106.768    398.062,114.051 397.969,113.958 405.251,158.476 449.76,165.759 457.042,210.276 501.551,217.559 440.01,279.112  "/>
</g>
<polygon style="fill:#FFFFFF;" points="267.07,451.991 59.999,244.881 244.884,59.962 451.955,267.072 "/>
<path style="fill:#0092E0;" d="M187.201,318.849c14.704-14.707,38.543-14.707,53.247,0c14.704,14.707,14.704,38.55,0,53.257  c-14.704,14.707-38.543,14.707-53.247,0C172.497,357.4,172.497,333.555,187.201,318.849z"/>
<path style="fill:#FF7DBE;" d="M240.447,372.106c14.704-14.707,38.543-14.707,53.247,0c14.704,14.707,14.704,38.55,0,53.257  s-38.543,14.707-53.247,0C225.744,410.657,225.744,386.813,240.447,372.106z"/>
<path style="fill:#FFA30C;" d="M133.953,265.592c14.704-14.707,38.543-14.707,53.247,0c14.704,14.707,14.704,38.55,0,53.257  c-14.704,14.707-38.543,14.707-53.247,0C119.249,304.142,119.25,280.299,133.953,265.592z"/>
<path style="fill:#9AE523;" d="M240.447,265.592c14.704-14.707,38.543-14.707,53.247,0c14.704,14.707,14.704,38.55,0,53.257  c-14.704,14.707-38.543,14.707-53.247,0C225.744,304.142,225.744,280.299,240.447,265.592z"/>
<path style="fill:#BF4F28;" d="M293.694,318.849c14.704-14.707,38.543-14.707,53.247,0c14.704,14.707,14.704,38.55,0,53.257  c-14.704,14.707-38.543,14.707-53.247,0C278.991,357.4,278.991,333.555,293.694,318.849z"/>
<path style="fill:#0078D5;" d="M346.941,265.592c14.704-14.707,38.543-14.707,53.247,0c14.704,14.707,14.704,38.55,0,53.257  c-14.704,14.707-38.543,14.707-53.247,0S332.237,280.299,346.941,265.592z"/>
<path d="M247.013,126.143c-2.675,0-5.348-1.02-7.388-3.061c-4.08-4.08-4.08-10.697,0-14.778l0.097-0.097  c4.081-4.08,10.696-4.08,14.778,0c4.08,4.08,4.08,10.697,0,14.778l-0.097,0.097C252.36,125.124,249.687,126.143,247.013,126.143z"/>
<path d="M168.815,204.341c-2.675,0-5.348-1.02-7.388-3.061c-4.08-4.08-4.08-10.697,0-14.778l54.295-54.295  c4.081-4.08,10.696-4.08,14.778,0c4.08,4.08,4.08,10.697,0,14.778l-54.295,54.295C174.162,203.322,171.49,204.341,168.815,204.341z"/>
<path d="M511.497,214.356c-1.202-3.73-4.391-6.475-8.258-7.107l-37.097-6.071l-6.07-37.105c-0.724-4.428-4.196-7.9-8.625-8.625  l-37.098-6.071l-5.848-35.752c-0.106-2.551-1.144-5.043-3.031-6.941l-0.093-0.093c-1.904-1.915-4.415-2.967-6.987-3.072  l-35.739-5.848l-6.07-37.105c-0.724-4.428-4.196-7.9-8.625-8.625l-37.097-6.071l-6.07-37.105c-0.632-3.868-3.377-7.057-7.109-8.259  c-3.727-1.202-7.821-0.215-10.592,2.558L3.061,287.052c-2.771,2.771-3.76,6.861-2.557,10.592c1.203,3.731,4.391,6.475,8.258,7.107  l37.097,6.071l6.07,37.105c0.724,4.428,4.196,7.9,8.625,8.625l37.098,6.071l5.848,35.752c0.106,2.552,1.144,5.043,3.031,6.941  l0.093,0.093c1.904,1.915,4.415,2.967,6.987,3.072l35.739,5.848l6.07,37.105c0.724,4.428,4.196,7.9,8.625,8.625l37.097,6.071  l6.07,37.105c0.632,3.868,3.377,7.057,7.109,8.259c1.051,0.339,2.131,0.504,3.202,0.504c2.729,0,5.4-1.071,7.39-3.062  l284.03-283.991C511.711,222.176,512.698,218.086,511.497,214.356z M224.542,479.749l-3.99-24.402  c-0.724-4.428-4.196-7.9-8.625-8.625l-37.097-6.071l-6.07-37.105c-0.724-4.428-4.196-7.9-8.625-8.625l-37.018-6.057l-6.056-37.026  c-0.724-4.428-4.196-7.9-8.625-8.625l-37.098-6.071l-6.07-37.105c-0.724-4.428-4.196-7.9-8.625-8.625l-24.401-3.993l27.753-27.759  l192.296,192.332L224.542,479.749z M141.342,272.981L141.342,272.981c5.138-5.139,11.968-7.968,19.234-7.968  c7.265,0,14.096,2.83,19.233,7.968c10.607,10.609,10.607,27.873,0.001,38.481c-5.138,5.139-11.969,7.968-19.234,7.968  c-7.266,0-14.097-2.83-19.233-7.967l-0.002-0.002C130.736,300.851,130.736,283.589,141.342,272.981z M247.836,272.981  L247.836,272.981c5.138-5.139,11.968-7.968,19.234-7.968c7.265,0,14.096,2.83,19.233,7.968  c10.607,10.609,10.607,27.873,0.001,38.481c-5.138,5.139-11.969,7.968-19.234,7.968c-7.266,0-14.097-2.83-19.234-7.968  C237.229,300.852,237.229,283.589,247.836,272.981z M354.33,272.981C354.331,272.981,354.331,272.981,354.33,272.981  c5.138-5.139,11.968-7.968,19.234-7.968c7.265,0,14.096,2.83,19.234,7.968c10.603,10.606,10.607,27.857,0.013,38.468l-0.027,0.027  c-5.136,5.13-11.962,7.956-19.221,7.956c-7.266,0-14.097-2.83-19.234-7.968C343.723,300.852,343.723,283.589,354.33,272.981z   M339.565,364.705l-0.026,0.026c-5.138,5.13-11.962,7.956-19.221,7.956c-7.266,0-14.097-2.83-19.234-7.969  c-10.606-10.607-10.607-27.866-0.004-38.475c0.002-0.002,0.004-0.003,0.005-0.005c5.137-5.139,11.967-7.968,19.233-7.968  c7.265,0,14.096,2.83,19.233,7.968C350.154,336.843,350.158,354.095,339.565,364.705z M286.292,417.988  c-5.138,5.13-11.962,7.956-19.222,7.956c-7.262,0-14.088-2.827-19.225-7.96l-0.019-0.019c-10.594-10.607-10.595-27.855-0.001-38.462  c0.003-0.003,0.007-0.006,0.01-0.01c5.137-5.138,11.967-7.968,19.233-7.968c7.265,0,14.097,2.83,19.233,7.968  c10.603,10.605,10.607,27.859,0.014,38.469L286.292,417.988z M261.579,350.948c0.413-3.635,0.413-7.306,0-10.94  c1.811,0.205,3.643,0.321,5.492,0.321s3.68-0.116,5.491-0.321c-0.413,3.635-0.413,7.306,0,10.94  c-1.811-0.205-3.641-0.321-5.491-0.321C265.221,350.628,263.39,350.743,261.579,350.948z M233.059,364.718  c-5.139,5.139-11.969,7.968-19.234,7.968c-7.266,0-14.097-2.83-19.234-7.969c-10.606-10.607-10.607-27.866-0.004-38.475  c0.002-0.002,0.004-0.003,0.005-0.005c5.137-5.139,11.967-7.968,19.233-7.968c7.265,0,14.096,2.83,19.233,7.968  C243.665,336.847,243.665,354.109,233.059,364.718z M420.83,283.424c-1.706-9.245-6.119-18.084-13.253-25.22  c-9.084-9.086-21.164-14.091-34.012-14.091c-12.849,0-24.928,5.005-34.012,14.091c-10.768,10.769-15.34,25.415-13.743,39.487  c-1.811-0.205-3.641-0.321-5.491-0.321c-1.849,0-3.68,0.116-5.492,0.321c1.597-14.072-2.976-28.717-13.742-39.487  c-9.084-9.086-21.164-14.091-34.012-14.091c-12.849,0-24.928,5.005-34.012,14.091c-10.768,10.769-15.34,25.415-13.744,39.487  c-1.811-0.205-3.641-0.321-5.491-0.321s-3.68,0.116-5.492,0.321c1.597-14.072-2.976-28.717-13.742-39.487  c-9.084-9.086-21.164-14.091-34.012-14.091c-12.849,0-24.928,5.005-34.013,14.091h-0.001c-7.134,7.136-11.546,15.975-13.252,25.221  l-38.536-38.544L239.473,80.152c0.295-0.237,0.582-0.489,0.856-0.764l4.603-4.603L437.18,267.072L420.83,283.424z M452.001,252.34  L259.706,60.008l27.752-27.758l3.99,24.403c0.724,4.428,4.196,7.9,8.625,8.625l37.097,6.071l6.07,37.105  c0.724,4.428,4.196,7.9,8.625,8.625l37.018,6.057l6.056,37.026c0.724,4.428,4.196,7.9,8.625,8.625l37.098,6.071l6.07,37.105  c0.724,4.428,4.196,7.9,8.625,8.625l24.401,3.993L452.001,252.34z"/>
<g>
</g>
<g>
</g>
<g>
</g>
<g>
</g>
<g>
</g>
<g>
</g>
<g>
</g>
<g>
</g>
<g>
</g>
<g>
</g>
<g>
</g>
<g>
</g>
<g>
</g>
<g>
</g>
<g>
</g>
</svg>
