<?xml version="1.0" encoding="iso-8859-1"?>
<!-- Generator: Adobe Illustrator 19.0.0, SVG Export Plug-In . SVG Version: 6.00 Build 0)  -->
<svg xmlns="http://www.w3.org/2000/svg" xmlns:xlink="http://www.w3.org/1999/xlink" version="1.1" id="Layer_1" x="0px" y="0px" viewBox="0 0 512 512" style="enable-background:new 0 0 512 512;" xml:space="preserve">
<rect x="163.985" y="45.726" transform="matrix(-0.7071 -0.7071 0.7071 -0.7071 255.9983 618.0365)" style="fill:#BF4F28;" width="184.028" height="420.546"/>
<polygon style="fill:#FF7DBE;" points="248.781,313.494 279.426,282.851 384.731,177.544 334.456,127.268 127.266,334.456   177.543,384.733 201.581,360.694 "/>
<g>
	<polygon style="fill:#4D1907;" points="371.414,10.457 392.178,54.758 436.479,75.521 457.242,119.822 501.543,140.586    469.75,172.378 339.622,42.249  "/>
	<polygon style="fill:#4D1907;" points="140.585,501.544 119.822,457.244 75.521,436.48 54.757,392.179 10.456,371.416    42.249,339.623 172.378,469.752  "/>
</g>
<path d="M511.843,138.779c-0.589-3.356-2.776-6.215-5.861-7.662l-40.876-19.158l-19.159-40.876c-1.037-2.213-2.817-3.992-5.03-5.03  l-40.876-19.159L380.882,6.02c-1.446-3.086-4.306-5.273-7.662-5.861c-3.359-0.591-6.79,0.496-9.199,2.905L3.062,364.021  c-2.409,2.41-3.493,5.843-2.905,9.199s2.776,6.215,5.861,7.662l40.876,19.158l19.159,40.876c1.037,2.213,2.817,3.992,5.03,5.03  l40.876,19.159l19.158,40.876c1.446,3.086,4.306,5.273,7.662,5.861c0.602,0.106,1.206,0.157,1.807,0.157  c2.748,0,5.415-1.085,7.394-3.063l360.959-360.959C511.347,145.57,512.431,142.137,511.843,138.779z M143.728,483.613  l-14.439-30.807c-1.037-2.213-2.817-3.992-5.03-5.03l-40.876-19.159l-19.159-40.876c-1.037-2.214-2.817-3.992-5.03-5.03  l-30.807-14.439l13.862-13.862L157.59,469.752L143.728,483.613z M172.378,454.963L57.036,339.623L339.621,57.038l115.342,115.342  L172.378,454.963z M469.751,157.591L354.409,42.249l13.862-13.862l14.439,30.807c1.037,2.213,2.817,3.992,5.03,5.03l40.876,19.159  l19.159,40.876c1.037,2.214,2.817,3.992,5.031,5.03l30.807,14.439L469.751,157.591z"/>
<path d="M224.766,347.967c-2.676,0-5.353-1.021-7.394-3.063c-4.083-4.083-4.083-10.704,0-14.788l0.097-0.097  c4.083-4.083,10.704-4.083,14.788,0c4.083,4.083,4.083,10.704,0,14.788l-0.097,0.097  C230.118,346.946,227.441,347.967,224.766,347.967z"/>
<path d="M177.543,395.189c-2.676,0-5.351-1.021-7.394-3.063l-50.277-50.276c-1.961-1.961-3.063-4.621-3.063-7.394  s1.102-5.433,3.063-7.394l207.188-207.189c1.961-1.961,4.621-3.063,7.394-3.063s5.433,1.102,7.394,3.063l50.276,50.277  c4.083,4.083,4.083,10.704,0,14.787L256.175,320.887c-4.082,4.083-10.703,4.084-14.787,0c-4.083-4.083-4.083-10.704,0-14.787  l128.556-128.555l-35.488-35.488L142.054,334.457l35.488,35.488l16.644-16.644c4.082-4.083,10.704-4.083,14.787,0  s4.083,10.704,0,14.788l-24.038,24.038C182.895,394.169,180.219,395.189,177.543,395.189z"/>
<g>
</g>
<g>
</g>
<g>
</g>
<g>
</g>
<g>
</g>
<g>
</g>
<g>
</g>
<g>
</g>
<g>
</g>
<g>
</g>
<g>
</g>
<g>
</g>
<g>
</g>
<g>
</g>
<g>
</g>
</svg>
