<?xml version="1.0" encoding="iso-8859-1"?>
<!-- Generator: Adobe Illustrator 19.0.0, SVG Export Plug-In . SVG Version: 6.00 Build 0)  -->
<svg xmlns="http://www.w3.org/2000/svg" xmlns:xlink="http://www.w3.org/1999/xlink" version="1.1" id="Layer_1" x="0px" y="0px" viewBox="0 0 512 512" style="enable-background:new 0 0 512 512;" xml:space="preserve">
<polygon style="fill:#BF4F28;" points="327.497,196.404 358.955,196.404 435.2,10.449 376.686,10.449 321.959,130.351 "/>
<g>
	<polygon style="fill:#4D1907;" points="339.836,92.867 383.813,136.845 400.219,94.751 357.641,52.174  "/>
	<polygon style="fill:#4D1907;" points="417.533,53.536 434.544,12.049 432.945,10.449 376.686,10.449 375.983,11.986  "/>
</g>
<g>
	<path style="fill:#3FD0FC;" d="M137.421,501.551h206.856c-26.155-27.057-62.824-43.886-103.428-43.886   S163.577,474.494,137.421,501.551z"/>
	<path style="fill:#3FD0FC;" d="M404.898,196.404c0,90.601-73.448,164.049-164.049,164.049S76.8,287.005,76.8,196.404H404.898z"/>
</g>
<circle style="fill:#FF3939;" cx="221.111" cy="55.334" r="21.953"/>
<path style="fill:#FF7DBE;" d="M340.228,196.404c0-65.787-53.331-119.118-119.118-119.118s-119.118,53.332-119.118,119.118H340.228z  "/>
<path d="M207.275,333.284c-0.886,0-1.786-0.113-2.682-0.351c-38.534-10.209-71.123-36.461-89.413-72.026  c-2.639-5.133-0.619-11.431,4.514-14.071c5.134-2.64,11.431-0.618,14.071,4.514c15.589,30.314,43.355,52.686,76.18,61.381  c5.578,1.477,8.903,7.198,7.424,12.777C216.129,330.189,211.9,333.284,207.275,333.284z"/>
<path d="M240.849,337.633h-0.137c-5.771,0-10.449-4.678-10.449-10.449c0-5.771,4.678-10.449,10.449-10.449h0.137  c5.771,0,10.449,4.678,10.449,10.449C251.298,332.955,246.62,337.633,240.849,337.633z"/>
<path d="M443.878,4.628C441.937,1.736,438.683,0,435.2,0h-58.514c-4.092,0-7.806,2.389-9.505,6.111L319.018,111.63  c-17.743-20.464-41.782-35.327-69.071-41.553c2.272-4.426,3.563-9.434,3.563-14.742c0-17.866-14.535-32.4-32.4-32.4  s-32.4,14.535-32.4,32.4c0,5.309,1.291,10.318,3.564,14.746c-54.315,12.394-95.749,59.012-100.308,115.876H76.8  c-5.771,0-10.449,4.678-10.449,10.449c0,92.71,72.678,168.752,164.049,174.176v76.991c-38.22,2.527-73.585,18.883-100.492,46.717  c-2.915,3.016-3.744,7.481-2.107,11.342s5.425,6.369,9.619,6.369h206.856c4.194,0,7.982-2.508,9.619-6.369s0.808-8.327-2.107-11.342  c-26.907-27.834-62.271-44.191-100.492-46.717V370.58c91.371-5.424,164.049-81.467,164.049-174.176  c0-5.771-4.678-10.449-10.449-10.449h-30.366l70.335-171.542C446.189,11.19,445.818,7.521,443.878,4.628z M342.563,110.373  l28.632,28.633l-19.25,46.949h-1.692c-1.59-19.83-7.665-38.411-17.206-54.734L342.563,110.373z M221.11,43.831  c6.343,0,11.502,5.16,11.502,11.502s-5.16,11.502-11.502,11.502c-6.343,0-11.502-5.16-11.502-11.502S214.767,43.831,221.11,43.831z   M221.11,87.735c56.395,0,102.889,43.185,108.165,98.22h-1.777H112.945C118.221,130.918,164.714,87.735,221.11,87.735z   M165.902,491.102c21.907-14.958,47.756-22.988,74.947-22.988s53.04,8.03,74.947,22.988H165.902z M394.098,206.853  c-5.387,79.844-72.063,143.151-153.249,143.151S92.988,286.697,87.6,206.853H394.098z M379.79,118.045l-27.965-27.965l9.071-19.873  l27.31,27.31L379.79,118.045z M396.801,76.557l-26.643-26.643l9.071-19.873l25.989,25.989L396.801,76.557z M413.812,35.069  l-14.171-14.171h19.982L413.812,35.069z"/>
<g>
</g>
<g>
</g>
<g>
</g>
<g>
</g>
<g>
</g>
<g>
</g>
<g>
</g>
<g>
</g>
<g>
</g>
<g>
</g>
<g>
</g>
<g>
</g>
<g>
</g>
<g>
</g>
<g>
</g>
</svg>
