<?xml version="1.0" encoding="iso-8859-1"?>
<!-- Generator: Adobe Illustrator 19.0.0, SVG Export Plug-In . SVG Version: 6.00 Build 0)  -->
<svg xmlns="http://www.w3.org/2000/svg" xmlns:xlink="http://www.w3.org/1999/xlink" version="1.1" id="Layer_1" x="0px" y="0px" viewBox="0 0 512 512" style="enable-background:new 0 0 512 512;" xml:space="preserve">
<path style="fill:#BF4F28;" d="M353.183,73.146H158.817c-17.313,0-31.347-14.037-31.347-31.35l0,0  c0-17.313,14.034-31.347,31.347-31.347l194.365,0.006c17.313,0,31.347,14.034,31.347,31.347l0,0  C384.53,59.114,370.495,73.146,353.183,73.146z"/>
<path style="fill:#871B00;" d="M353.183,135.84H158.817c-17.313,0-31.347-14.037-31.347-31.35l0,0  c0-17.313,14.034-31.347,31.347-31.347l194.365,0.006c17.313,0,31.347,14.034,31.347,31.347l0,0  C384.53,121.808,370.495,135.84,353.183,135.84z"/>
<path style="fill:#BF4F28;" d="M353.183,198.534H158.817c-17.313,0-31.347-14.037-31.347-31.35l0,0  c0-17.313,14.034-31.347,31.347-31.347l194.365,0.006c17.313,0,31.347,14.034,31.347,31.347l0,0  C384.53,184.502,370.495,198.534,353.183,198.534z"/>
<path style="fill:#871B00;" d="M353.183,261.228H158.817c-17.313,0-31.347-14.037-31.347-31.35l0,0  c0-17.313,14.034-31.347,31.347-31.347l194.365,0.006c17.313,0,31.347,14.034,31.347,31.347l0,0  C384.53,247.196,370.495,261.228,353.183,261.228z"/>
<path style="fill:#BF4F28;" d="M353.183,323.921H158.817c-17.313,0-31.347-14.037-31.347-31.35l0,0  c0-17.313,14.034-31.347,31.347-31.347l194.365,0.006c17.313,0,31.347,14.034,31.347,31.347l0,0  C384.53,309.89,370.495,323.921,353.183,323.921z"/>
<path style="fill:#FFDF9F;" d="M274.808,323.918v159.005c0,10.245-8.464,18.627-18.808,18.627l0,0  c-10.344,0-18.808-8.382-18.808-18.627V323.918H274.808z"/>
<path d="M218.131,146.286h-0.137c-5.771,0-10.449-4.678-10.449-10.449s4.678-10.449,10.449-10.449h0.137  c5.771,0,10.449,4.678,10.449,10.449S223.902,146.286,218.131,146.286z"/>
<path d="M294.006,271.673h-0.137c-5.771,0-10.449-4.678-10.449-10.449c0-5.771,4.678-10.449,10.449-10.449h0.137  c5.771,0,10.449,4.678,10.449,10.449C304.455,266.995,299.777,271.673,294.006,271.673z"/>
<path d="M394.978,104.526c0-12.487-5.502-23.705-14.199-31.375c8.697-7.664,14.199-18.873,14.199-31.348  c0-23.046-18.75-41.796-41.796-41.796L158.818,0c-23.046,0-41.796,18.75-41.796,41.796c0,12.473,5.498,23.681,14.191,31.346  c-8.693,7.659-14.191,18.856-14.191,31.319c0,12.482,5.508,23.697,14.212,31.362c-8.705,7.665-14.212,18.879-14.212,31.362  c0,12.474,5.5,23.683,14.195,31.347c-8.695,7.664-14.195,18.873-14.195,31.347c0,12.474,5.5,23.683,14.195,31.347  c-8.695,7.664-14.195,18.873-14.195,31.347c0,23.046,18.75,41.796,41.796,41.796l67.925,0.002v148.554  C226.743,498.957,239.868,512,256,512s29.257-13.043,29.257-29.076V334.372l67.925,0.002c23.046,0,41.796-18.75,41.796-41.796  c0-12.474-5.5-23.683-14.195-31.347c8.695-7.664,14.195-18.873,14.195-31.347s-5.5-23.683-14.195-31.347  c8.695-7.664,14.195-18.873,14.195-31.347c0-12.467-5.493-23.668-14.177-31.332C389.486,128.193,394.978,116.992,394.978,104.526z   M137.92,41.796c0-11.523,9.375-20.898,20.898-20.898l194.365,0.006c11.523,0,20.898,9.375,20.898,20.898  c0,11.521-9.375,20.895-20.898,20.895H158.818C147.295,62.697,137.92,53.321,137.92,41.796z M264.359,482.924  c0,4.51-3.75,8.178-8.359,8.178c-4.609,0-8.359-3.669-8.359-8.178V334.37h16.718V482.924z M374.08,229.884  c0,11.523-9.375,20.898-20.898,20.898h-21.188c-5.771,0-10.449,4.678-10.449,10.449s4.678,10.449,10.449,10.449h21.188  c11.523,0,20.898,9.375,20.898,20.898s-9.375,20.898-20.898,20.898l-194.364-0.006c-11.523,0-20.898-9.375-20.898-20.898  c0-11.523,9.375-20.898,20.898-20.898H256c5.771,0,10.449-4.678,10.449-10.449c0-5.771-4.678-10.449-10.449-10.449h-97.182  c-11.523,0-20.898-9.375-20.898-20.898c0-11.523,9.375-20.898,20.898-20.898l194.365,0.006  C364.705,208.986,374.08,218.361,374.08,229.884z M353.182,125.394c-0.2,0-0.395,0.019-0.591,0.03l-96.586-0.037  c-0.001,0-0.002,0-0.004,0c-5.769,0-10.447,4.676-10.449,10.445c-0.002,5.771,4.675,10.451,10.445,10.453l97.186,0.037  c0.133,0,0.263-0.008,0.396-0.01c11.339,0.214,20.502,9.489,20.502,20.878c0,11.523-9.375,20.898-20.898,20.898l-194.364-0.006  c-11.523,0-20.898-9.375-20.898-20.898s9.375-20.898,20.898-20.898c0.202,0,0.398-0.019,0.596-0.03h20.593  c5.771,0,10.449-4.678,10.449-10.449c0-5.771-4.678-10.449-10.449-10.449h-21.188c-11.523,0-20.898-9.375-20.898-20.898  c0-11.505,9.375-20.865,20.898-20.865h194.365c11.523,0,20.898,9.389,20.898,20.931c0,11.389-9.164,20.665-20.5,20.878  C353.447,125.402,353.316,125.394,353.182,125.394z"/>
<g>
</g>
<g>
</g>
<g>
</g>
<g>
</g>
<g>
</g>
<g>
</g>
<g>
</g>
<g>
</g>
<g>
</g>
<g>
</g>
<g>
</g>
<g>
</g>
<g>
</g>
<g>
</g>
<g>
</g>
</svg>
