<?xml version="1.0" encoding="iso-8859-1"?>
<!-- Generator: Adobe Illustrator 19.0.0, SVG Export Plug-In . SVG Version: 6.00 Build 0)  -->
<svg version="1.1" id="Layer_1" xmlns="http://www.w3.org/2000/svg" xmlns:xlink="http://www.w3.org/1999/xlink" x="0px" y="0px"
	 viewBox="0 0 512 512" style="enable-background:new 0 0 512 512;" xml:space="preserve">
<path style="fill:#E6DCD2;" d="M350.063,251.724c0,0,94.228,43.586,102.614,85.511c8.551,42.756-25.653,76.96-59.858,76.96
	s-94.063-51.307-128.267-128.267v-34.205H350.063z"/>
<path style="fill:#CFC1B4;" d="M396.084,277.378H264.551v-25.653h85.512C350.063,251.724,372.273,262.011,396.084,277.378z"/>
<path style="fill:#E6DCD2;" d="M478.33,97.804c13.913,0,25.653,8.551,25.653,25.653c0,54.661-47.45,96.381-74.948,115.969
	c-11.403,8.124-25.137,12.299-39.138,12.299H264.551C264.551,251.724,375.716,97.804,478.33,97.804z"/>
<circle style="fill:#594759;" cx="427.205" cy="347.209" r="8.73"/>
<path style="fill:#FF6E64;" d="M392.818,414.196c-15.005,0-34.947-9.882-55.495-27.464c3.351-15.838,12.739-23.843,12.739-23.843
	l18.342,10.41c3.376-6.675,7.311-10.41,7.311-10.41c7.629,5.086,12.948,11.449,16.714,17.878l8.939-17.878
	c0,0,25.831,8.794,35.503,30.893C425.211,406.437,409.044,414.196,392.818,414.196z"/>
<path style="fill:#E6DCD2;" d="M161.937,251.724c0,0-94.228,43.586-102.614,85.511c-8.551,42.756,25.653,76.96,59.858,76.96
	s94.063-51.307,128.267-128.267v-34.205H161.937z"/>
<path style="fill:#CFC1B4;" d="M115.916,277.378h131.533v-25.653h-85.511C161.937,251.724,139.727,262.011,115.916,277.378z"/>
<path style="fill:#E6DCD2;" d="M33.67,97.804c-13.913,0-25.653,8.551-25.653,25.653c0,54.661,47.45,96.381,74.948,115.969
	c11.403,8.124,25.137,12.299,39.138,12.299h125.347C247.449,251.724,136.284,97.804,33.67,97.804z"/>
<circle style="fill:#594759;" cx="84.795" cy="347.209" r="8.73"/>
<path style="fill:#463246;" d="M256,285.929L256,285.929c-9.446,0-17.102-7.656-17.102-17.102v-17.102
	c0-9.446,7.656-17.102,17.102-17.102l0,0c9.446,0,17.102,7.656,17.102,17.102v17.102C273.102,278.273,265.446,285.929,256,285.929z"
	/>
<path style="fill:#FF6E64;" d="M119.182,414.196c15.005,0,34.947-9.882,55.495-27.464c-3.351-15.838-12.739-23.843-12.739-23.843
	l-18.342,10.41c-3.376-6.675-7.311-10.41-7.311-10.41c-7.629,5.086-12.948,11.449-16.714,17.878l-8.939-17.878
	c0,0-25.831,8.794-35.503,30.893C86.789,406.437,102.956,414.196,119.182,414.196z"/>
<path d="M433.686,245.956C462.935,225.121,512,181.503,512,123.457c0-19.825-13.845-33.67-33.67-33.67
	c-44.671,0-93.994,25.191-146.599,74.873c-29.314,27.686-51.054,55.03-60.299,67.267c-2.207-1.724-4.708-3.087-7.416-4.002v-7.141
	c33.563-35.028,50.189-84.121,50.895-86.24c1.399-4.199-0.869-8.735-5.068-10.137c-4.198-1.402-8.738,0.867-10.142,5.063
	c-0.156,0.466-15.007,44.205-43.703,76.37c-28.697-32.165-43.547-75.904-43.703-76.37c-1.401-4.199-5.94-6.467-10.138-5.067
	c-4.201,1.4-6.47,5.941-5.071,10.141c0.707,2.12,17.332,51.213,50.895,86.24v7.141c-2.708,0.914-5.208,2.277-7.416,4.002
	c-9.246-12.237-30.984-39.58-60.299-67.267C127.664,114.978,78.341,89.787,33.67,89.787C13.845,89.787,0,103.632,0,123.457
	c0,58.046,49.065,101.664,78.314,122.498c12.66,9.018,27.802,13.786,43.788,13.786h7.366c-6.275,3.605-13.126,7.747-20.089,12.314
	c-34.516,22.637-54.002,44.038-57.916,63.61c-4.376,21.878,0.916,43.321,14.9,60.38c13.433,16.386,33.178,26.169,52.818,26.169
	c19.315,0,44.709-13.665,69.669-37.491c22.814-21.778,43.462-50.226,59.132-81.247v50.863c0,4.427,3.589,8.017,8.017,8.017
	c4.427,0,8.017-3.589,8.017-8.017v-50.863c15.671,31.02,36.318,59.469,59.132,81.247c24.961,23.827,50.355,37.491,69.669,37.491
	c19.64,0,39.385-9.783,52.818-26.169c13.984-17.058,19.276-38.503,14.9-60.38c-3.914-19.571-23.4-40.973-57.916-63.61
	c-6.963-4.566-13.813-8.707-20.089-12.314h7.366C405.885,259.741,421.026,254.974,433.686,245.956z M122.102,243.708
	c-12.632,0-24.558-3.739-34.487-10.811c-26.733-19.044-71.582-58.584-71.582-109.44c0-16.365,13.499-17.637,17.637-17.637
	c87.809,0,178.212,114.599,195.671,137.887H122.102z M103.344,403.362c-6.569-2.331-12.824-6.039-18.292-10.922
	c5.322-10.895,15.236-16.808,21.584-19.614l3.872,7.743C106.191,389.167,104.227,397.502,103.344,403.362z M139.501,400.756
	c-7.542,3.531-14.458,5.424-20.32,5.424c-0.018,0-0.035-0.001-0.053-0.001c1.073-7.536,4.548-21.534,15.822-32.048
	C138.278,379.527,142.008,388.747,139.501,400.756z M156.33,390.857c-0.222-5.537-1.319-10.49-2.827-14.787l6.496-3.247
	c1.925,2.618,4.187,6.443,5.502,11.124C162.412,386.442,159.35,388.747,156.33,390.857z M178.349,372.565
	c-4.415-9.605-10.703-15.325-11.066-15.65c-2.45-2.192-5.99-2.667-8.931-1.196l-12.383,6.191c-2.21-2.965-3.959-4.641-4.2-4.867
	c-2.717-2.549-6.832-2.891-9.932-0.824c-4.231,2.821-7.834,5.975-10.928,9.3l-3.107-6.216c-1.667-3.335-5.413-5.078-9.039-4.211
	c-1.04,0.249-22.161,5.535-34.641,24.22c-7.336-12.024-9.812-26.131-6.937-40.505c6.091-30.453,70.258-66.65,96.537-79.067h67.159
	v9.086c0,6.954,2.842,13.256,7.425,17.81C223.125,319.504,201.97,349.856,178.349,372.565z M265.086,268.827
	c0,5.01-4.076,9.086-9.086,9.086c-5.01,0-9.086-4.076-9.086-9.086v-17.102c0-5.01,4.076-9.086,9.086-9.086
	c5.01,0,9.086,4.076,9.086,9.086V268.827z M355.67,390.857c-3.02-2.11-6.082-4.413-9.169-6.91c1.316-4.669,3.581-8.498,5.508-11.121
	l6.487,3.244C356.989,380.367,355.893,385.32,355.67,390.857z M392.818,406.18c-5.862,0-12.779-1.893-20.32-5.424
	c-2.502-11.994,1.22-21.21,4.549-26.613c11.156,10.458,14.678,24.477,15.791,32.037C392.832,406.18,392.825,406.18,392.818,406.18z
	 M408.656,403.362c-0.883-5.86-2.848-14.195-7.164-22.792l3.89-7.778c6.339,2.768,16.219,8.642,21.569,19.646
	C421.482,397.322,415.228,401.032,408.656,403.362z M444.816,338.808c2.874,14.373,0.399,28.482-6.937,40.505
	c-12.479-18.685-33.601-23.97-34.641-24.22c-3.626-0.868-7.371,0.877-9.039,4.211l-3.107,6.216c-3.094-3.325-6.698-6.481-10.928-9.3
	c-3.1-2.067-7.216-1.724-9.932,0.824c-0.239,0.224-1.989,1.901-4.2,4.867l-12.383-6.191c-2.939-1.47-6.481-0.996-8.931,1.196
	c-0.363,0.325-6.652,6.045-11.066,15.65c-23.62-22.709-44.776-53.061-59.956-85.928c4.582-4.552,7.425-10.855,7.425-17.81v-9.086
	h67.161C374.555,272.146,438.718,308.32,444.816,338.808z M282.656,243.708C300.1,220.42,390.441,105.82,478.33,105.82
	c4.138,0,17.637,1.272,17.637,17.637c0,50.856-44.849,90.395-71.583,109.44c-9.928,7.072-21.854,10.811-34.486,10.811H282.656z"/>
<g>
</g>
<g>
</g>
<g>
</g>
<g>
</g>
<g>
</g>
<g>
</g>
<g>
</g>
<g>
</g>
<g>
</g>
<g>
</g>
<g>
</g>
<g>
</g>
<g>
</g>
<g>
</g>
<g>
</g>
</svg>
