<?xml version="1.0" encoding="iso-8859-1"?>
<!-- Generator: Adobe Illustrator 19.0.0, SVG Export Plug-In . SVG Version: 6.00 Build 0)  -->
<svg version="1.1" id="Layer_1" xmlns="http://www.w3.org/2000/svg" xmlns:xlink="http://www.w3.org/1999/xlink" x="0px" y="0px"
	 viewBox="0 0 512.005 512.005" style="enable-background:new 0 0 512.005 512.005;" xml:space="preserve">
<path style="fill:#FF9B46;" d="M7.693,105.718c0,25.764,17.452,45.674,24.671,60.114c17.175,34.35,8.588,85.876,34.35,85.876
	c17.175,0,180.34-17.175,180.34-17.175v-8.588c0,0-120.226-137.402-214.69-137.402C15.189,88.543,7.693,95.481,7.693,105.718"/>
<path style="fill:#58413C;" d="M39.443,185.574c18.688-19.17,65.624-47.456,129.126-33.618
	c-40.819-32.5-91.401-63.413-136.205-63.413c-17.175,0-24.671,6.938-24.671,17.174c0,25.764,17.452,45.674,24.671,60.114
	C35.443,171.99,37.673,178.707,39.443,185.574z"/>
<g>
	<path style="fill:#D28446;" d="M186.462,166.799c17.654,28.016,7.993,65.587-11.58,75.161c38.412-3.873,72.172-7.426,72.172-7.426
		v-8.588C247.054,225.946,222.293,197.682,186.462,166.799z"/>
	<path style="fill:#D28446;" d="M247.054,234.533v-8.588c0,0-22.718-25.952-56.145-55.294
		c-5.441,28.932-22.103,56.386-34.027,73.112C202.088,239.265,247.054,234.533,247.054,234.533z"/>
</g>
<path style="fill:#695046;" d="M7.789,106.899c0.534,25.178,17.469,44.72,24.576,58.932c3.079,6.158,5.308,12.876,7.078,19.742
	c6.095-6.253,15.245-13.459,26.947-19.873C51.795,143.318,22.929,123.72,7.789,106.899z"/>
<path style="fill:#D28446;" d="M75.302,191.595c0-33.453-46.786-61.668-67.514-84.695c0.534,25.178,17.469,44.72,24.576,58.932
	c17.175,34.35,8.588,85.876,34.35,85.876c2.49,0,8.118-0.369,15.807-0.987C75.305,238.289,75.302,236.618,75.302,191.595z"/>
<path style="fill:#FF9B46;" d="M186.941,234.533l-97.763,67.682c-7.702,5.333-9.71,15.854-4.515,23.648l7.814,11.721l1.943,21.92
	c0.346,3.902,2.831,7.289,6.449,8.788l8.784,3.642l3.711,16.08c0.994,4.31,4.578,7.537,8.968,8.076l13.084,1.607l10.371,16.707
	c1.596,2.572,4.223,4.331,7.208,4.828l14.757,2.459c6.267,1.044,12.462-2.216,15.149-7.974l64.871-133.386v-45.801h-60.829V234.533z
	"/>
<path style="fill:#D28446;" d="M185.675,408.013l62.095-127.679v-45.801h-60.828l-47.399,32.814
	c22.599,8.445,45.27,22.908,38.812,61.649C172.599,363.532,170.787,394.122,185.675,408.013z"/>
<path style="fill:#FF9B46;" d="M504.307,107.292c0,25.764-17.452,45.674-24.671,60.114c-17.175,34.35-8.588,85.876-34.35,85.876
	c-17.175,0-180.34-17.175-180.34-17.175v-8.588c0,0,120.226-137.402,214.69-137.402C496.811,90.118,504.307,97.055,504.307,107.292"
	/>
<path style="fill:#58413C;" d="M472.557,187.148c-18.688-19.17-65.624-47.456-129.126-33.618
	c40.818-32.499,91.401-63.412,136.205-63.412c17.175,0,24.671,6.938,24.671,17.174c0,25.764-17.452,45.674-24.671,60.114
	C476.557,173.564,474.327,180.281,472.557,187.148z"/>
<g>
	<path style="fill:#D28446;" d="M325.538,168.373c-17.654,28.016-7.993,65.587,11.58,75.161
		c-38.412-3.873-72.172-7.426-72.172-7.426v-8.588C264.946,227.519,289.707,199.256,325.538,168.373z"/>
	<path style="fill:#D28446;" d="M264.946,236.107v-8.588c0,0,22.718-25.952,56.145-55.294c5.441,28.932,22.103,56.386,34.027,73.112
		C309.911,240.84,264.946,236.107,264.946,236.107z"/>
</g>
<path style="fill:#695046;" d="M504.21,108.473c-0.534,25.178-17.469,44.72-24.576,58.932c-3.079,6.158-5.308,12.876-7.078,19.742
	c-6.095-6.253-15.245-13.459-26.947-19.873C460.205,144.893,489.071,125.294,504.21,108.473z"/>
<path style="fill:#D28446;" d="M436.697,193.169c0-33.453,46.786-61.668,67.514-84.695c-0.534,25.178-17.469,44.72-24.576,58.932
	c-17.175,34.35-8.588,85.876-34.35,85.876c-2.49,0-8.118-0.369-15.807-0.986C436.695,239.863,436.697,238.193,436.697,193.169z"/>
<path style="fill:#FF9B46;" d="M325.059,236.107l97.763,67.682c7.702,5.333,9.71,15.854,4.515,23.648l-7.814,11.721l-1.943,21.92
	c-0.346,3.902-2.831,7.289-6.449,8.788l-8.784,3.642l-3.711,16.08c-0.994,4.31-4.578,7.537-8.968,8.076l-13.084,1.607
	l-10.371,16.707c-1.596,2.572-4.223,4.331-7.208,4.828l-14.757,2.459c-6.267,1.044-12.462-2.216-15.149-7.974L264.23,281.907
	v-45.801h60.829V236.107z"/>
<path style="fill:#D28446;" d="M326.324,409.587L264.23,281.908v-45.801h60.828l47.399,32.814
	c-22.599,8.445-45.27,22.909-38.812,61.649C339.401,365.105,341.213,395.696,326.324,409.587z"/>
<path style="fill:#463246;" d="M255.642,337.584L255.642,337.584c-9.486,0-17.175-7.689-17.175-17.175V200.183
	c0-9.486,7.689-17.175,17.175-17.175l0,0c9.486,0,17.175,7.689,17.175,17.175v120.226
	C272.817,329.894,265.128,337.584,255.642,337.584z"/>
<path style="fill:#5A464B;" d="M255.642,286.059L255.642,286.059c-9.486,0-17.175-7.689-17.175-17.175v-34.35
	c0-9.486,7.689-17.175,17.175-17.175l0,0c9.486,0,17.175,7.689,17.175,17.175v34.35
	C272.817,278.369,265.128,286.059,255.642,286.059z"/>
<path d="M115.313,194.301c-12.253,3.501-20.133,12.128-22.186,24.292c-0.74,4.384,2.215,8.538,6.599,9.279
	c0.454,0.076,0.905,0.113,1.349,0.113c3.857,0,7.265-2.781,7.93-6.711c1.02-6.038,4.43-9.689,10.733-11.49
	c4.274-1.222,6.751-5.677,5.529-9.953C124.045,195.555,119.588,193.078,115.313,194.301z"/>
<path d="M136.634,337.316c-2.224-1.16-3.579-6.466-3.275-8.48c0.662-4.397-2.366-8.498-6.763-9.16
	c-4.396-0.658-8.498,2.366-9.16,6.763c-1.071,7.114,1.924,20.029,11.753,25.155c1.189,0.62,2.461,0.915,3.715,0.915
	c2.905,0,5.71-1.577,7.145-4.33C142.105,344.233,140.577,339.372,136.634,337.316z"/>
<path d="M479.277,81.28c-41.069,0-89.365,22.274-143.546,66.204c-23.413,18.983-42.618,37.784-54.711,50.329
	c-0.359-2.862-1.197-5.576-2.435-8.059c0.225-0.205,0.442-0.424,0.647-0.658l60.113-68.701c2.928-3.347,2.589-8.432-0.758-11.36
	c-3.346-2.927-8.432-2.589-11.36,0.758l-60.017,68.59c-3.38-1.685-7.187-2.639-11.213-2.639s-7.833,0.953-11.213,2.639
	l-60.017-68.59c-2.928-3.346-8.014-3.685-11.36-0.758c-3.346,2.928-3.685,8.014-0.758,11.36l60.113,68.701
	c0.205,0.235,0.422,0.453,0.647,0.658c-1.238,2.483-2.076,5.197-2.435,8.059c-12.092-12.545-31.298-31.346-54.71-50.329
	C122.088,103.554,73.792,81.28,32.722,81.28C2.359,81.28,0,100.587,0,106.505c0,21.717,11.044,39.626,19.107,52.702
	c2.469,4.004,4.802,7.786,6.415,11.013c6.329,12.658,8.997,28.666,11.351,42.791c3.894,23.37,7.922,47.536,30.2,47.536
	c8.653,0,47.806-5.783,86.842-11.906l-68.961,47.743c-11.237,7.779-14.212,23.36-6.631,34.734l6.675,10.012l1.762,19.873
	c0.612,6.912,4.974,12.858,11.385,15.517l4.955,2.055l2.778,12.042c1.749,7.579,8.111,13.308,15.831,14.257l9.258,1.137
	l8.337,13.432c2.818,4.54,7.456,7.646,12.725,8.524l14.758,2.46c1.212,0.202,2.424,0.301,3.625,0.301
	c8.503,0,16.464-4.926,20.143-12.812l41.475-88.874c3.306,10.082,12.8,17.386,23.972,17.386c11.172,0,20.666-7.304,23.972-17.386
	l41.475,88.874c3.68,7.886,11.638,12.812,20.143,12.812c1.201,0,2.413-0.099,3.625-0.301l14.756-2.46
	c5.27-0.878,9.908-3.985,12.726-8.524l8.337-13.432l9.258-1.137c7.72-0.948,14.082-6.678,15.831-14.255l2.778-12.042l4.955-2.055
	c6.411-2.658,10.773-8.604,11.384-15.515l1.762-19.874l6.675-10.012c7.582-11.373,4.606-26.954-6.631-34.734l-68.961-47.743
	c39.036,6.123,78.189,11.906,86.842,11.906c22.277,0,26.305-24.165,30.2-47.536c2.354-14.124,5.023-30.133,11.351-42.791
	c1.613-3.227,3.946-7.009,6.415-11.013c8.064-13.076,19.107-30.985,19.107-52.702C512,100.587,509.641,81.28,479.277,81.28z
	 M246.875,235.32c0-5.031,4.093-9.124,9.124-9.124s9.124,4.093,9.124,9.124v34.35c0,5.031-4.093,9.124-9.124,9.124
	s-9.124-4.093-9.124-9.124V235.32z M255.999,191.845c5.031,0,9.124,4.093,9.124,9.124v10.839c-2.832-1.102-5.907-1.714-9.124-1.714
	c-3.217,0-6.293,0.612-9.124,1.714V200.97C246.875,195.938,250.968,191.845,255.999,191.845z M16.102,106.505
	c0-2.256,0-9.123,16.62-9.123c37.306,0,77.995,21.598,112.881,46.911c-47.158-4.507-82.688,15.349-100.401,31.772
	c-1.464-4.476-3.186-8.86-5.278-13.046c-1.934-3.868-4.449-7.946-7.112-12.263C24.98,138.054,16.102,123.657,16.102,106.505z
	 M52.756,210.363c-0.85-5.1-1.743-10.429-2.825-15.815c5.207-6.961,18.343-18.363,38.074-26.271
	c11.613-4.654,27.73-8.88,47.362-8.412c-3.509,2.335-5.559,4.22-5.814,4.458c-3.244,3.041-3.408,8.137-0.367,11.38
	c1.585,1.691,3.727,2.545,5.875,2.545c1.973,0,3.951-0.721,5.505-2.177c0.141-0.132,14.249-13.095,33.444-9.473
	c27.516,23.211,48.287,45.292,55.741,53.481c-61.862,10.251-151.059,24.365-162.676,24.365
	C59.287,244.444,56.616,233.53,52.756,210.363z M175.962,411.102c-1.154,2.472-3.838,3.889-6.53,3.437l-14.758-2.46
	c-0.7-0.117-1.316-0.529-1.691-1.132l-10.37-16.707c-1.286-2.071-3.44-3.448-5.859-3.745l-13.083-1.606
	c-1.026-0.127-1.872-0.888-2.104-1.896l-3.711-16.08c-0.585-2.534-2.358-4.63-4.762-5.627l-8.783-3.641
	c-0.852-0.354-1.432-1.143-1.514-2.063l-1.943-21.92c-0.119-1.342-0.573-2.634-1.32-3.755l-7.814-11.72
	c-2.743-4.113-1.667-9.75,2.398-12.564l96.541-66.836c16.503-2.665,30.88-5.029,40.115-6.557v57.418L175.962,411.102z
	 M255.999,330.32c-5.031,0-9.124-4.093-9.124-9.124v-28.015c2.832,1.102,5.907,1.714,9.124,1.714c3.217,0,6.293-0.612,9.124-1.714
	v28.014C265.124,326.227,261.031,330.32,255.999,330.32z M417.881,309.621c4.065,2.814,5.141,8.45,2.398,12.564l-7.814,11.72
	c-0.748,1.121-1.202,2.413-1.32,3.755l-1.943,21.92c-0.082,0.919-0.661,1.709-1.514,2.062l-8.784,3.642
	c-2.402,0.996-4.177,3.092-4.762,5.627l-3.711,16.08c-0.232,1.007-1.078,1.769-2.104,1.895l-13.084,1.607
	c-2.42,0.297-4.574,1.675-5.859,3.745l-10.371,16.707c-0.375,0.603-0.991,1.015-1.692,1.132l-14.757,2.46
	c-2.695,0.448-5.376-0.965-6.53-3.437l-54.813-117.456v-57.418c9.235,1.528,23.612,3.891,40.115,6.557L417.881,309.621z
	 M459.244,210.363c-3.861,23.167-6.532,34.081-14.318,34.081c-11.617,0-100.814-14.113-162.676-24.365
	c7.454-8.189,28.226-30.27,55.741-53.482c18.897-3.566,32.815,8.899,33.469,9.497c1.55,1.441,3.517,2.153,5.479,2.153
	c2.147,0,4.291-0.854,5.875-2.545c3.041-3.243,2.877-8.339-0.367-11.38c-0.254-0.238-2.304-2.123-5.813-4.458
	c19.631-0.468,35.749,3.757,47.362,8.412c19.731,7.908,32.867,19.309,38.074,26.271
	C460.988,199.935,460.094,205.263,459.244,210.363z M479.187,150.756c-2.662,4.317-5.177,8.395-7.111,12.263
	c-2.093,4.185-3.814,8.57-5.279,13.046c-17.712-16.424-53.242-36.28-100.401-31.772c34.886-25.313,75.575-46.911,112.881-46.911
	c16.62,0,16.62,6.867,16.62,9.123C495.898,123.657,487.02,138.054,479.187,150.756z"/>
<path d="M396.687,194.301c-4.273-1.218-8.731,1.254-9.953,5.529c-1.222,4.276,1.254,8.731,5.529,9.953
	c6.303,1.801,9.714,5.452,10.733,11.49c0.664,3.931,4.072,6.711,7.93,6.711c0.445,0,0.896-0.036,1.349-0.113
	c4.384-0.741,7.338-4.895,6.599-9.279C416.819,206.429,408.939,197.802,396.687,194.301z"/>
<path d="M379.095,352.506c1.254,0,2.527-0.294,3.715-0.915c9.83-5.126,12.824-18.04,11.753-25.155
	c-0.662-4.397-4.758-7.421-9.16-6.763c-4.397,0.662-7.425,4.764-6.763,9.16c0.304,2.014-1.051,7.321-3.275,8.48
	c-3.943,2.056-5.472,6.918-3.416,10.861C373.385,350.931,376.191,352.506,379.095,352.506z"/>
<path d="M156.984,365.476h-0.011c-4.446,0-8.046,3.605-8.046,8.051s3.61,8.051,8.056,8.051s8.051-3.605,8.051-8.051
	S161.431,365.476,156.984,365.476z"/>
<path d="M355.036,381.577c4.446,0,8.051-3.605,8.051-8.051s-3.605-8.051-8.051-8.051h-0.011c-4.446,0-8.046,3.605-8.046,8.051
	S350.59,381.577,355.036,381.577z"/>
<g>
</g>
<g>
</g>
<g>
</g>
<g>
</g>
<g>
</g>
<g>
</g>
<g>
</g>
<g>
</g>
<g>
</g>
<g>
</g>
<g>
</g>
<g>
</g>
<g>
</g>
<g>
</g>
<g>
</g>
</svg>
