<?xml version="1.0" encoding="iso-8859-1"?>
<!-- Generator: Adobe Illustrator 19.0.0, SVG Export Plug-In . SVG Version: 6.00 Build 0)  -->
<svg version="1.1" id="Layer_1" xmlns="http://www.w3.org/2000/svg" xmlns:xlink="http://www.w3.org/1999/xlink" x="0px" y="0px"
	 viewBox="0 0 511.998 511.998" style="enable-background:new 0 0 511.998 511.998;" xml:space="preserve">
<path style="fill:#5A464B;" d="M401.37,290.204c0,0,34.205,25.653,17.102,51.307c-23.717,35.575-94.063,51.307-119.716,42.756
	c-18.14-6.047-42.756-76.96-42.756-76.96v-25.653L401.37,290.204z"/>
<g>
	<path style="fill:#463246;" d="M390.463,366.04c-30.807,17.763-73.048,24.447-91.707,18.227
		c-18.14-6.047-42.756-76.96-42.756-76.96v-17.102C356.397,290.204,383.446,337.349,390.463,366.04z"/>
	<path style="fill:#463246;" d="M469.779,153.386c25.653,0,34.165,11.899,34.205,25.655c0.035,12.318-9.105,25.187-16.124,34.204
		c-26.631,34.205-69.387,76.96-86.49,76.96s-136.818,0-136.818,0V256C264.551,256,409.921,153.386,469.779,153.386z"/>
</g>
<path style="fill:#FF643C;" d="M372.51,330.288c0,0-26.99-13.54-48.991-12.471l17.993,32.245c0,0-15.143-14.252-45.072-26.544
	l5.79,34.293c-23.516-21.111-35.603-23.294-35.603-23.294C260.315,319.69,256,307.307,256,307.307v-17.102h34.205
	C346.322,290.204,372.51,330.288,372.51,330.288z"/>
<g>
	
		<ellipse transform="matrix(-0.4099 0.9121 -0.9121 -0.4099 807.8328 -160.3902)" style="fill:#AEA1A1;" cx="455.798" cy="181.114" rx="7.25" ry="11.081"/>
	<circle style="fill:#AEA1A1;" cx="473.948" cy="195.681" r="5.808"/>
</g>
<path style="fill:#E6DCD2;" d="M374.496,188.014c4.633,12.847,7.635,24.517,7.635,24.517c37.411,7.482,23.159,39.906,23.159,39.906
	c-12.113,3.92-34.917-3.563-37.411-23.516c0,0-21.091-5.735-31.655-19.198C348.439,202.417,361.42,194.993,374.496,188.014z"/>
<path style="fill:#5A464B;" d="M110.631,290.204c0,0-34.205,25.653-17.102,51.307c23.717,35.575,94.063,51.307,119.716,42.756
	c18.14-6.047,42.756-76.96,42.756-76.96v-25.653L110.631,290.204z"/>
<g>
	<path style="fill:#463246;" d="M121.538,366.04c30.807,17.763,73.048,24.447,91.707,18.227c18.14-6.047,42.756-76.96,42.756-76.96
		v-17.102C155.603,290.204,128.555,337.349,121.538,366.04z"/>
	<path style="fill:#463246;" d="M42.221,153.386c-25.653,0-34.165,11.899-34.205,25.655c-0.035,12.318,9.105,25.187,16.124,34.204
		c26.631,34.205,69.387,76.96,86.49,76.96s136.818,0,136.818,0V256C247.449,256,102.079,153.386,42.221,153.386z"/>
</g>
<path style="fill:#FF643C;" d="M139.491,330.288c0,0,26.99-13.54,48.991-12.471l-17.993,32.245c0,0,15.143-14.252,45.072-26.544
	l-5.79,34.293c23.516-21.111,35.603-23.294,35.603-23.294C251.685,319.69,256,307.307,256,307.307v-17.102h-34.205
	C165.679,290.204,139.491,330.288,139.491,330.288z"/>
<path style="fill:#463246;" d="M256,256L256,256c-9.406,0-17.102-7.696-17.102-17.102l0,0c0-9.406,7.696-17.102,17.102-17.102l0,0
	c9.406,0,17.102,7.696,17.102,17.102l0,0C273.102,248.304,265.406,256,256,256z"/>
<path style="fill:#5A464B;" d="M256,307.307L256,307.307c-9.446,0-17.102-7.656-17.102-17.102v-25.653
	c0-9.446,7.656-17.102,17.102-17.102l0,0c9.446,0,17.102,7.656,17.102,17.102v25.653C273.102,299.649,265.446,307.307,256,307.307z"
	/>
<g>
	
		<ellipse transform="matrix(-0.4099 -0.9121 0.9121 -0.4099 -85.9229 306.6076)" style="fill:#AEA1A1;" cx="56.217" cy="181.097" rx="7.25" ry="11.081"/>
	<circle style="fill:#AEA1A1;" cx="38.048" cy="195.681" r="5.808"/>
</g>
<path style="fill:#E6DCD2;" d="M137.506,188.014c-4.633,12.847-7.635,24.517-7.635,24.517
	c-37.411,7.482-23.159,39.906-23.159,39.906c12.113,3.92,34.916-3.563,37.411-23.516c0,0,21.091-5.735,31.655-19.198
	C163.562,202.417,150.581,194.993,137.506,188.014z"/>
<path d="M501.779,155.034c-7.295-6.413-18.061-9.665-32.001-9.665c-48.316,0-145.964,61.227-188.935,89.822
	c-0.819-5.509-3.432-10.438-7.225-14.176c24.554-56.57,48.866-97.296,49.114-97.711c2.277-3.797,1.045-8.721-2.751-10.998
	c-3.797-2.278-8.72-1.046-10.998,2.749c-0.252,0.421-24.887,41.669-49.793,98.931c-1.046-0.134-2.109-0.21-3.191-0.21
	s-2.145,0.077-3.191,0.21c-24.905-57.263-49.54-98.51-49.793-98.931c-2.278-3.797-7.201-5.028-10.998-2.749
	c-3.797,2.277-5.028,7.201-2.751,10.998c0.248,0.415,24.56,41.141,49.114,97.711c-3.792,3.738-6.406,8.667-7.225,14.176
	c-42.969-28.596-140.617-89.822-188.933-89.822c-13.939,0-24.705,3.252-32.001,9.665C3.563,160.888,0.028,169.181,0,179.017
	c-0.042,14.284,8.983,27.807,17.815,39.151c14.136,18.155,31.966,37.693,47.696,52.264c13.326,12.344,22.971,19.196,29.911,23.01
	c-11.602,13.013-21.508,33.1-8.565,52.516c6.77,10.157,24.017,29.008,63.444,41.141c15.896,4.891,31.987,7.444,45.361,7.444
	c7.834,0,14.735-0.875,20.117-2.67c6.194-2.065,16.241-8.857,32.204-43.435v44.38c0,4.427,3.589,8.017,8.017,8.017
	c4.427,0,8.017-3.589,8.017-8.017v-44.38c15.964,34.579,26.01,41.369,32.204,43.435c5.383,1.795,12.282,2.67,20.117,2.67
	c13.373,0,29.467-2.553,45.361-7.444c39.427-12.133,56.674-30.983,63.444-41.141c12.958-19.437,3.016-39.547-8.602-52.559
	c26.503-14.335,63.345-56.864,77.644-75.231c8.832-11.344,17.857-24.868,17.815-39.151
	C511.972,169.181,508.438,160.888,501.779,155.034z M370.901,199.056c1.76,4.691,2.884,10.641,3.25,14.264
	c0.347,3.51,2.947,6.38,6.406,7.073c8.973,1.795,14.876,5.271,17.546,10.333c2.632,4.99,1.934,10.917,1.027,14.69
	c-4.207,0.184-9.668-0.994-14.443-4.034c-3.555-2.263-7.977-6.434-8.856-13.454c-0.448-3.584-3.263-6.429-6.838-6.945
	c-0.145-0.021-12.437-1.876-20.571-9.168c0.148-0.087,0.293-0.172,0.44-0.259C356.479,207.098,363.823,202.938,370.901,199.056z
	 M290.205,298.221c24.766,0,43.115,8.306,55.532,16.994l-15.434-3.921c-2.953-0.75-6.077,0.238-8.061,2.553
	c-1.983,2.313-2.484,5.551-1.291,8.354l3.526,8.291l-21.597-12.958c-2.477-1.486-5.561-1.524-8.074-0.102
	c-2.513,1.423-4.067,4.087-4.067,6.976v18.171l-17.764-13.323c-2.155-5.127-4.307-10.571-6.417-16.269
	c6.201-2.885,11.032-8.226,13.241-14.768H290.205z M217.194,317.432c-2.514-1.424-5.598-1.384-8.074,0.102l-21.597,12.958
	l3.526-8.291c1.193-2.804,0.692-6.041-1.291-8.354c-1.983-2.314-5.106-3.304-8.061-2.553l-15.432,3.92
	c12.418-8.689,30.766-16.993,55.529-16.993h10.405c2.209,6.542,7.041,11.883,13.241,14.768c-2.11,5.697-4.262,11.141-6.417,16.269
	l-17.763,13.324v-18.171C221.261,321.521,219.708,318.855,217.194,317.432z M265.086,273.102v17.102c0,5.01-4.076,9.086-9.086,9.086
	c-5.01,0-9.086-4.076-9.086-9.086v-17.102c0-5.01,4.076-9.086,9.086-9.086C261.01,264.017,265.086,268.092,265.086,273.102z
	 M265.086,238.898c0,5.01-4.076,9.086-9.086,9.086c-5.01,0-9.086-4.076-9.086-9.086s4.076-9.086,9.086-9.086
	C261.01,229.812,265.086,233.888,265.086,238.898z M137.848,213.329c0.368-3.637,1.496-9.609,3.264-14.306
	c7.601,4.177,15.138,8.478,22.471,12.785c-8.133,7.297-20.428,9.153-20.552,9.171c-3.598,0.494-6.413,3.345-6.863,6.948
	c-0.878,7.02-5.3,11.191-8.856,13.454c-4.768,3.035-10.214,4.203-14.424,4.035c-0.894-3.773-1.592-9.694,0.971-14.619
	c2.653-5.101,8.569-8.601,17.583-10.404C134.895,219.702,137.493,216.831,137.848,213.329z M30.467,208.319
	c-6.734-8.649-14.46-19.792-14.433-29.256c0.013-4.367,0.051-17.66,26.188-17.66c20.54,0,52.376,13.173,84.683,30.008
	c-2.172,5.068-3.462,10.593-4.189,14.629c-11.018,3.247-18.77,9.071-23.08,17.359c-7.74,14.88-0.572,31.561-0.263,32.265
	c0.92,2.095,2.694,3.696,4.871,4.402c2.944,0.952,6.17,1.415,9.511,1.415c7.435,0,15.44-2.291,22.167-6.572
	c7.38-4.697,12.542-11.395,14.931-19.233c6.916-1.813,18.691-6.093,26.874-15.416c25.924,15.747,47.771,30.392,58.322,37.607
	c-3.238,4.23-5.167,9.511-5.167,15.237v9.086H110.631c-0.904,0-9.546-0.66-34.224-23.518
	C61.276,244.654,44.101,225.83,30.467,208.319z M210.71,376.661c-22.079,7.358-88.545-6.648-110.511-39.597
	c-1.892-2.837-7.648-11.471,1.946-26.091c3.835-5.844,8.703-10.454,11.355-12.753h49.531c-19.8,12.046-29.574,26.644-30.252,27.682
	c-1.806,2.765-1.733,6.357,0.189,9.045c1.921,2.688,5.292,3.923,8.497,3.109l28.497-7.239l-6.851,16.106
	c-1.359,3.196-0.506,6.904,2.114,9.184c2.62,2.279,6.41,2.615,9.388,0.827l30.613-18.368v20.045c0,3.037,1.716,5.813,4.432,7.17
	c1.135,0.568,2.361,0.847,3.584,0.847c1.704,0,3.397-0.542,4.811-1.603l5.495-4.122C218.177,370.049,213.592,375.701,210.71,376.661
	z M411.802,337.065c-21.966,32.949-88.434,46.958-110.511,39.597c-2.883-0.961-7.467-6.613-12.841-15.757l5.495,4.122
	c1.414,1.061,3.107,1.603,4.811,1.603c1.222,0,2.45-0.279,3.584-0.847c2.716-1.357,4.432-4.133,4.432-7.17v-20.045l30.614,18.369
	c2.977,1.786,6.768,1.453,9.388-0.827c2.62-2.28,3.473-5.989,2.114-9.184l-6.851-16.106l28.497,7.239
	c3.206,0.813,6.576-0.421,8.497-3.109c1.921-2.688,1.996-6.28,0.189-9.045c-0.678-1.038-10.452-15.636-30.252-27.682h49.529
	c2.612,2.266,7.372,6.772,11.166,12.463C419.526,325.478,413.712,334.198,411.802,337.065z M481.533,208.319
	c-13.634,17.512-30.809,36.334-45.94,50.35c-24.678,22.858-33.32,23.518-34.224,23.518H281.119v-9.086
	c0-5.727-1.93-11.01-5.169-15.239c10.553-7.223,32.425-21.895,58.322-37.606c8.183,9.324,19.959,13.605,26.876,15.418
	c2.389,7.838,7.552,14.537,14.931,19.233c6.727,4.281,14.73,6.572,22.167,6.572c3.34,0,6.568-0.463,9.511-1.415
	c2.177-0.704,3.95-2.307,4.871-4.402c0.309-0.703,7.478-17.384-0.263-32.265c-4.311-8.288-12.061-14.112-23.08-17.359
	c-0.725-4.023-2.01-9.526-4.17-14.581c37.99-19.745,66.907-30.056,84.663-30.056c26.137,0,26.175,13.293,26.188,17.66
	C495.995,188.528,488.268,199.67,481.533,208.319z"/>
<g>
</g>
<g>
</g>
<g>
</g>
<g>
</g>
<g>
</g>
<g>
</g>
<g>
</g>
<g>
</g>
<g>
</g>
<g>
</g>
<g>
</g>
<g>
</g>
<g>
</g>
<g>
</g>
<g>
</g>
</svg>
