<?xml version="1.0" encoding="iso-8859-1"?>
<!-- Generator: Adobe Illustrator 19.0.0, SVG Export Plug-In . SVG Version: 6.00 Build 0)  -->
<svg version="1.1" id="Layer_1" xmlns="http://www.w3.org/2000/svg" xmlns:xlink="http://www.w3.org/1999/xlink" x="0px" y="0px"
	 viewBox="0 0 511.998 511.998" style="enable-background:new 0 0 511.998 511.998;" xml:space="preserve">
<g>
	<path style="fill:#58413C;" d="M256,320.133c0,25.653,42.756,76.96,59.858,76.96s94.063-51.307,102.614-76.96
		c9.749-29.249-17.102-42.756-17.102-42.756H256V320.133z"/>
	<path style="fill:#58413C;" d="M452.676,132.008c26.252-6.486,51.307,8.551,51.307,34.205S444.392,277.378,403.24,277.378
		c-17.102,0-138.689,0-138.689,0v-25.653C264.551,251.724,407.248,143.232,452.676,132.008z"/>
</g>
<path style="fill:#E6DCD2;" d="M361.82,184.384c0,0,6.242,2.872,23.159,3.385c23.516,0.713,29.226,15.269,30.286,26.545
	c0.869,9.236,7.323,17.794,14.719,25.099l-2.189-1.906c-13.229-9.23-35.391,1.765-49.406-10.188
	c-12.115-10.333-5.879-29.395-17.459-41.331L361.82,184.384z"/>
<path style="fill:#91786E;" d="M420.186,303.031H256v-25.653h145.37C401.37,277.378,417.576,285.606,420.186,303.031z"/>
<path style="fill:#FF823C;" d="M262.114,341.186c-3.748-7.751-6.114-15.102-6.114-21.053v-17.102c46.006,0,111.165,0,111.165,0
	S319.31,374.784,262.114,341.186z"/>
<g>
	<path style="fill:#58413C;" d="M256,320.133c0,25.653-42.756,76.96-59.858,76.96s-94.063-51.307-102.614-76.96
		c-9.749-29.249,17.102-42.756,17.102-42.756H256V320.133z"/>
	<path style="fill:#58413C;" d="M59.324,132.008c-26.252-6.486-51.307,8.551-51.307,34.205S67.608,277.378,108.76,277.378
		c17.102,0,138.689,0,138.689,0v-25.653C247.449,251.724,104.752,143.232,59.324,132.008z"/>
</g>
<path style="fill:#E6DCD2;" d="M150.18,184.384c0,0-6.242,2.872-23.159,3.385c-23.516,0.713-29.226,15.269-30.286,26.545
	c-0.869,9.236-7.323,17.794-14.719,25.099l2.189-1.906c13.229-9.23,35.391,1.765,49.406-10.188
	c12.115-10.333,5.879-29.395,17.459-41.331L150.18,184.384z"/>
<path style="fill:#91786E;" d="M91.814,303.031H256v-25.653H110.63C110.63,277.378,94.424,285.606,91.814,303.031z"/>
<path style="fill:#FF823C;" d="M249.886,341.186c3.748-7.751,6.114-15.102,6.114-21.053v-17.102c-46.006,0-111.165,0-111.165,0
	S192.691,374.784,249.886,341.186z"/>
<path style="fill:#5A464B;" d="M256,311.582L256,311.582c-9.446,0-17.102-7.656-17.102-17.102v-42.756
	c0-9.446,7.656-17.102,17.102-17.102l0,0c9.446,0,17.102,7.656,17.102,17.102v42.756C273.102,303.926,265.446,311.582,256,311.582z"
	/>
<path d="M495.791,132.624c-11.943-9.325-28.787-12.462-45.059-8.393c-31.727,7.931-149.089,89.179-176.623,108.44l49.118-114.607
	c1.744-4.07-0.141-8.782-4.21-10.526c-4.068-1.744-8.783,0.14-10.526,4.21l-49.313,115.065c-1.041-0.133-2.099-0.207-3.176-0.207
	c-1.076,0-2.135,0.076-3.176,0.207l-49.313-115.065c-1.744-4.07-6.457-5.955-10.526-4.21s-5.955,6.457-4.21,10.526l49.118,114.607
	c-27.536-19.26-144.899-100.509-176.625-108.44c-16.273-4.069-33.118-0.931-45.059,8.393C5.756,140.785,0,152.714,0,166.213
	c0,21.699,32.693,62.374,39.248,70.309c10.986,13.298,22.106,24.791,32.156,33.233c7.723,6.487,14.495,10.912,20.456,13.359
	c-7.023,9.247-11.584,22.618-5.938,39.556c2.055,6.167,11.144,23.587,51.046,52.088c4.349,3.107,42.963,30.353,59.173,30.353
	c6.093,0,13.166-3.34,21.623-10.212c6.83-5.55,14.085-13.038,20.979-21.657c3.556-4.446,6.608-8.644,9.24-12.593v36.445
	c0,4.427,3.589,8.017,8.017,8.017c4.427,0,8.017-3.589,8.017-8.017v-36.445c2.631,3.948,5.682,8.147,9.24,12.593
	c6.894,8.618,14.149,16.107,20.979,21.657c8.458,6.872,15.531,10.212,21.623,10.212c16.211,0,54.824-27.246,59.173-30.353
	c39.902-28.501,48.991-45.922,51.046-52.088c5.646-16.939,1.085-30.309-5.938-39.556c5.961-2.446,12.734-6.871,20.456-13.359
	c10.051-8.442,21.171-19.934,32.156-33.233c6.553-7.933,39.248-48.61,39.248-70.309C512,152.714,506.244,140.785,495.791,132.624z
	 M281.119,269.361v-17.637c0-1.413-0.123-2.796-0.348-4.146c17.97-12.629,47.274-32.77,77.072-52.281
	c1.91,3.622,2.735,8.035,3.645,12.937c1.571,8.467,3.351,18.063,11.699,25.183c9.749,8.314,21.579,8.151,32.017,8.009
	c7.163-0.099,13.928-0.191,18.004,2.654c0.031,0.021,0.064,0.035,0.095,0.056c3.598,3.643,7.401,6.95,10.967,9.901
	c-11.237,10.123-19.956,15.323-24.348,15.323H281.119V269.361z M102.079,269.361c-4.392,0-13.111-5.2-24.348-15.323
	c3.566-2.951,7.369-6.258,10.967-9.901c0.031-0.021,0.064-0.034,0.095-0.056c4.077-2.844,10.844-2.752,18.004-2.654
	c10.435,0.143,22.268,0.306,32.017-8.009c8.348-7.12,10.128-16.716,11.699-25.183c0.91-4.902,1.735-9.314,3.645-12.937
	c29.798,19.512,59.101,39.652,77.072,52.281c-0.226,1.35-0.348,2.733-0.348,4.146v17.637H102.079V269.361z M102.049,225.364
	c1.384-3.279,2.329-6.714,2.667-10.3c1.198-12.725,8.362-18.852,22.547-19.283c3.704-0.112,6.929-0.337,9.762-0.62
	c-1.025,3.441-1.671,6.882-2.277,10.147c-1.436,7.736-2.51,12.642-6.34,15.909c-5.157,4.398-12.681,4.298-21.392,4.176
	C105.395,225.374,103.733,225.352,102.049,225.364z M247.904,321.588c-0.309,3.775-1.777,8.548-4.177,13.884
	c-11.141,5.991-22.627,7.957-34.248,5.841c-20.422-3.719-37.656-19.03-47.897-30.265h17.458
	C207.456,311.048,239.804,319.373,247.904,321.588z M264.096,321.587c8.089-2.215,40.392-10.539,68.865-10.539h17.491
	c-10.203,11.219-27.388,26.5-47.867,30.254c-11.643,2.136-23.15,0.173-34.311-5.83C265.872,330.135,264.405,325.362,264.096,321.587
	z M404.982,225.395c-8.713,0.122-16.234,0.222-21.392-4.177c-3.83-3.267-4.904-8.173-6.34-15.908
	c-0.606-3.265-1.252-6.707-2.277-10.147c2.835,0.283,6.058,0.508,9.762,0.62c14.185,0.43,21.349,6.558,22.547,19.283
	c0.338,3.586,1.283,7.02,2.666,10.299C408.267,225.351,406.605,225.373,404.982,225.395z M265.086,251.724v42.756
	c0,5.01-4.076,9.086-9.086,9.086c-5.01,0-9.086-4.076-9.086-9.086v-42.756c0-5.01,4.076-9.086,9.086-9.086
	C261.01,242.639,265.086,246.714,265.086,251.724z M51.608,226.31c-23.106-27.972-35.575-51.84-35.575-60.097
	c0-10.835,5.461-17.374,10.043-20.951c8.08-6.31,19.78-8.357,31.304-5.476c12.049,3.012,40.81,19.748,72.486,39.84
	c-0.986,0.051-2.004,0.097-3.087,0.13c-22.206,0.673-36.066,12.996-38.024,33.806c-0.996,10.587-13.324,21.63-22.566,29.209
	C61.557,237.925,56.668,232.435,51.608,226.31z M196.142,389.077c-4.838,0-24.855-9.51-49.854-27.367
	c-24.279-17.342-42.003-34.657-45.154-44.112c-6.325-18.974,6.765-29.175,11.621-32.204h118.127v9.086
	c0,2.341,0.329,4.606,0.931,6.758c-14.568-3.048-34.2-6.223-52.772-6.223h-34.205c-2.957,0-5.674,1.627-7.069,4.234
	s-1.242,5.77,0.399,8.229c1.149,1.724,28.607,42.308,68.361,49.595c4.075,0.747,8.125,1.119,12.144,1.119
	c4.132,0,8.232-0.408,12.294-1.194c-1.505,2.081-3.087,4.163-4.739,6.228C211.61,381.494,199.42,389.077,196.142,389.077z
	 M410.867,317.599c-3.151,9.455-20.875,26.769-45.154,44.112c-24.999,17.857-45.015,27.367-49.854,27.367
	c-3.278,0-15.468-7.583-30.083-25.851c-1.652-2.065-3.233-4.147-4.738-6.227c4.063,0.787,8.161,1.194,12.293,1.194
	c4.018,0,8.07-0.373,12.144-1.119c39.754-7.287,67.211-47.87,68.361-49.595c1.64-2.46,1.793-5.622,0.399-8.229
	c-1.395-2.606-4.112-4.234-7.069-4.234H332.96c-18.572,0-38.203,3.175-52.772,6.223c0.602-2.152,0.931-4.417,0.931-6.758v-9.086
	h118.126C404.101,288.421,417.191,298.623,410.867,317.599z M460.392,226.31c-5.06,6.125-9.948,11.615-14.579,16.46
	c-9.243-7.578-21.57-18.621-22.566-29.209c-1.958-20.811-15.818-33.134-38.024-33.806c-1.083-0.033-2.101-0.078-3.087-0.13
	c31.675-20.093,60.437-36.828,72.486-39.84c11.519-2.88,23.223-0.834,31.304,5.476c4.581,3.578,10.043,10.116,10.043,20.951
	C495.967,174.47,483.498,198.338,460.392,226.31z"/>
<g>
</g>
<g>
</g>
<g>
</g>
<g>
</g>
<g>
</g>
<g>
</g>
<g>
</g>
<g>
</g>
<g>
</g>
<g>
</g>
<g>
</g>
<g>
</g>
<g>
</g>
<g>
</g>
<g>
</g>
</svg>
