<?xml version="1.0" encoding="iso-8859-1"?>
<!-- Generator: Adobe Illustrator 19.0.0, SVG Export Plug-In . SVG Version: 6.00 Build 0)  -->
<svg version="1.1" id="Layer_1" xmlns="http://www.w3.org/2000/svg" xmlns:xlink="http://www.w3.org/1999/xlink" x="0px" y="0px"
	 viewBox="0 0 512 512" style="enable-background:new 0 0 512 512;" xml:space="preserve">
<path style="fill:#463246;" d="M161.937,231.875C33.67,308.835,71.616,347.85,71.616,347.85
	c-12.827,31.532,10.867,43.29,10.867,43.29c0.534,29.929,28.683,32.067,28.683,32.067c11.223,25.297,41.509,16.389,41.509,16.389
	c11.59,12.626,27.269,12.627,38.374,10.41c8.094-1.616,14.873-7.066,18.276-14.586l38.123-92.38V231.875H161.937z"/>
<path style="fill:#564046;" d="M198.936,446.8c4.473-2.654,8.186-6.512,10.389-11.379l38.124-92.38v-71.972l-32.405,58.328
	c-6.813,12.263-10.775,25.906-11.591,39.911L198.936,446.8z"/>
<path style="fill:#E68746;" d="M71.616,347.85c-12.827,31.532,10.867,43.29,10.867,43.29c0.534,29.929,28.683,32.067,28.683,32.067
	c11.223,25.297,41.509,16.389,41.509,16.389c11.59,12.626,27.269,12.627,38.374,10.41c8.094-1.616,14.873-7.066,18.276-14.586
	l2.559-6.202c-16.347-91.24-59.42-163.629-72.05-183.39C38.258,313.549,71.616,347.85,71.616,347.85z"/>
<path style="fill:#463246;" d="M42.221,60.852c-27.72,0-32.975,33.697-33.972,46.473c-0.237,3.039,0.687,6.016,2.431,8.516
	c22.99,32.966,22.99,65.647,22.99,90.38c0,18.229,4.857,29.171,9.395,35.417c3.389,4.666,8.878,7.286,14.638,7.024l189.746-8.236
	v-8.551C187.591,120.71,76.426,60.852,42.221,60.852z"/>
<path style="fill:#564046;" d="M87.115,182.706c11.402-28.504-19.775-64.045-41.152-91.123
	c-9.572-12.124-18.438-28.058-3.036-30.663c-0.213-0.004-0.498-0.067-0.705-0.067c-27.72,0-32.975,33.696-33.972,46.473
	c-0.237,3.039,0.687,6.016,2.431,8.516c22.99,32.966,22.99,65.647,22.99,90.38c0,18.229,4.857,29.171,9.395,35.417
	c3.389,4.666,8.878,7.286,14.638,7.024l41.934-1.82C76.426,246.483,68.453,229.361,87.115,182.706z"/>
<path style="fill:#D2B9D7;" d="M139.834,245.828c-14.124,9.417-25.558,18.163-34.918,26.284
	c-2.613,11.882-3.453,24.312-2.355,33.445c8.314,69.108,60.038,108.623,91.856,94.491c4.149-1.843,6.888-5.423,8.495-10.265
	C183.3,317.6,150.578,262.639,139.834,245.828z"/>
<path style="fill:#463246;" d="M350.259,231.875c128.267,76.96,90.322,115.975,90.322,115.975
	c12.827,31.532-10.867,43.29-10.867,43.29c-0.534,29.929-28.682,32.067-28.682,32.067c-11.223,25.297-41.509,16.389-41.509,16.389
	c-11.59,12.626-27.269,12.627-38.374,10.41c-8.094-1.616-14.873-7.066-18.276-14.586l-38.124-92.38V231.875L350.259,231.875
	L350.259,231.875z"/>
<path style="fill:#564046;" d="M313.261,446.8c-4.473-2.654-8.186-6.512-10.389-11.379l-38.124-92.38v-71.972l32.405,58.327
	c6.813,12.263,10.776,25.906,11.591,39.911L313.261,446.8z"/>
<path style="fill:#E68746;" d="M440.581,347.85c12.827,31.532-10.867,43.29-10.867,43.29c-0.534,29.929-28.682,32.067-28.682,32.067
	c-11.223,25.297-41.509,16.389-41.509,16.389c-11.59,12.626-27.269,12.627-38.374,10.41c-8.094-1.616-14.873-7.066-18.276-14.586
	l-2.559-6.202c16.347-91.24,59.42-163.629,72.05-183.39C473.939,313.549,440.581,347.85,440.581,347.85z"/>
<path style="fill:#463246;" d="M469.975,60.852c27.72,0,32.975,33.697,33.972,46.473c0.237,3.039-0.687,6.016-2.431,8.516
	c-22.99,32.967-22.99,65.647-22.99,90.38c0,18.229-4.857,29.171-9.395,35.417c-3.389,4.666-8.878,7.286-14.638,7.024l-189.746-8.236
	v-8.551C324.606,120.71,435.771,60.852,469.975,60.852z"/>
<path style="fill:#564046;" d="M425.082,182.706c-11.402-28.504,19.775-64.045,41.152-91.123
	c9.572-12.124,18.438-28.058,3.036-30.663c0.213-0.004,0.498-0.067,0.705-0.067c27.72,0,32.975,33.696,33.972,46.473
	c0.237,3.039-0.687,6.016-2.431,8.516c-22.989,32.967-22.989,65.648-22.989,90.38c0,18.229-4.857,29.171-9.395,35.417
	c-3.389,4.666-8.878,7.286-14.638,7.024l-41.934-1.82C435.771,246.483,443.744,229.361,425.082,182.706z"/>
<path style="fill:#D2B9D7;" d="M372.363,245.828c14.124,9.417,25.558,18.163,34.918,26.284c2.613,11.882,3.453,24.312,2.355,33.445
	c-8.314,69.108-60.038,108.623-91.856,94.491c-4.149-1.843-6.888-5.423-8.494-10.265C328.896,317.6,361.618,262.639,372.363,245.828
	z"/>
<path style="fill:#463246;" d="M256,368.693L256,368.693c-9.446,0-17.102-7.656-17.102-17.102V231.875
	c0-9.446,7.656-17.102,17.102-17.102l0,0c9.446,0,17.102,7.656,17.102,17.102v119.716C273.102,361.036,265.446,368.693,256,368.693z
	"/>
<path d="M108.105,322.699c3.131-3.131,3.131-8.207,0-11.338c-3.132-3.131-8.207-3.13-11.338,0l-4.989,4.989
	c-3.131,3.131-3.131,8.207,0,11.338c1.566,1.565,3.617,2.348,5.669,2.348c2.051,0,4.103-0.782,5.668-2.347L108.105,322.699z"/>
<path d="M118.437,345.566c-3.131-3.131-8.207-3.131-11.337,0l-4.989,4.988c-3.131,3.131-3.131,8.207,0,11.337
	c1.565,1.565,3.617,2.348,5.668,2.348c2.051,0,4.103-0.782,5.668-2.348l4.989-4.988
	C121.567,353.773,121.567,348.697,118.437,345.566z"/>
<path d="M154.131,390.459l-4.989,4.989c-3.131,3.131-3.131,8.207,0,11.337c1.565,1.565,3.617,2.348,5.668,2.348
	s4.103-0.782,5.668-2.348l4.989-4.989c3.131-3.131,3.131-8.207,0-11.337C162.338,387.33,157.261,387.33,154.131,390.459z"/>
<path d="M125.983,370.863l-4.989,4.989c-3.131,3.131-3.131,8.207,0,11.337c1.565,1.565,3.617,2.348,5.668,2.348
	c2.051,0,4.103-0.782,5.668-2.348l4.989-4.989c3.131-3.131,3.131-8.207,0-11.337C134.19,367.733,129.114,367.733,125.983,370.863z"
	/>
<path d="M507.313,83.97c-6.692-20.078-20.022-31.135-37.534-31.135c-21.819,0-58.473,16.11-93.377,41.042
	c-28.962,20.686-68.955,56.069-101.483,110.094c10.925-46.262,39.042-95.848,39.349-96.387c2.195-3.844,0.859-8.74-2.984-10.936
	c-3.844-2.196-8.739-0.86-10.936,2.983c-1.366,2.39-32.239,56.814-42.474,107.203c-0.619-0.046-1.243-0.077-1.874-0.077
	s-1.254,0.031-1.874,0.077c-10.234-50.39-41.108-104.812-42.474-107.203c-2.197-3.843-7.092-5.18-10.936-2.983
	c-3.844,2.196-5.18,7.092-2.984,10.936c0.308,0.54,28.424,50.126,39.349,96.387c-32.527-54.024-72.521-89.407-101.483-110.094
	c-34.905-24.933-71.558-41.042-93.377-41.042c-17.512,0-30.842,11.058-37.534,31.135C0.053,97.871,0,111.582,0,112.159
	c0,1.735,0.562,3.423,1.603,4.81c24.05,32.067,24.05,63.776,24.05,89.253c0,20.737,5.942,33.268,10.926,40.129
	c4.748,6.534,12.281,10.347,20.329,10.347c0.385,0,0.772-0.009,1.159-0.027l57.535-2.616c-34.089,22.881-53.245,45.65-57.045,67.889
	c-2.178,12.749,1.298,21.943,4.122,26.952c-8.123,24.242,2.541,39.893,12.053,46.854c2.346,22.775,19.219,32.198,31.163,34.76
	c10.707,18.511,31.316,20.181,44.307,17.876c8.1,7.138,18.233,10.778,29.883,10.778c4.005,0,8.19-0.43,12.533-1.297
	c10.564-2.108,19.539-9.264,24.011-19.143l29.072-64.234c3.146,1.421,6.63,2.218,10.3,2.218c3.67,0,7.155-0.797,10.3-2.218
	l29.072,64.234c4.471,9.878,13.447,17.034,24.011,19.142c4.343,0.867,8.527,1.297,12.533,1.297c11.648,0,21.784-3.642,29.883-10.778
	c12.991,2.306,33.601,0.633,44.307-17.876c11.944-2.562,28.816-11.986,31.163-34.76c9.511-6.961,20.175-22.611,12.053-46.854
	c2.824-5.009,6.3-14.203,4.122-26.952c-3.8-22.238-22.956-45.008-57.045-67.889l57.536,2.616c0.387,0.018,0.773,0.027,1.159,0.027
	c8.048,0,15.581-3.813,20.329-10.347c4.983-6.86,10.925-19.392,10.925-40.128c0-25.477,0-57.186,24.05-89.253
	c1.041-1.387,1.603-3.075,1.603-4.81C512,111.582,511.947,97.871,507.313,83.97z M278.543,362.656
	c1.646-3.341,2.576-7.096,2.576-11.066V248.815l74.754,3.398c-12.112,19.423-44.329,75.739-60.24,148.206L278.543,362.656z
	 M216.365,400.42c-15.91-72.468-48.128-128.783-60.24-148.206l74.755-3.399V351.59c0,3.97,0.929,7.725,2.576,11.066L216.365,400.42z
	 M57.341,240.654c-3.074,0.142-5.992-1.254-7.79-3.727c-3.588-4.938-7.864-14.274-7.864-30.705c0-25.829-0.001-61.001-25.558-96.558
	c0.236-4.101,1.053-12.621,3.87-20.925c6.743-19.87,18.394-19.87,22.222-19.87c14.824,0,47.454,11.909,84.059,38.056
	c30.161,21.542,72.839,59.751,105.195,119.538c-0.385,1.744-0.594,3.554-0.594,5.413v0.89L57.341,240.654z M189.48,442.145
	c-13.226,2.641-23.623-0.042-30.901-7.97c-2.05-2.234-5.22-3.11-8.135-2.279c-0.967,0.276-23.757,6.528-31.951-11.941
	c-1.197-2.697-3.722-4.515-6.665-4.738c-2.142-0.195-20.943-2.525-21.33-24.221c-0.053-2.993-1.689-5.666-4.371-6.997
	c-1.734-0.913-16.66-9.594-7.086-33.129c1.147-2.82,0.599-6.046-1.417-8.328c-0.052-0.06-5.208-6.508-3.262-17.9
	c2.485-14.542,16.179-37.719,66.037-67.263c9.901,15.525,50.817,83.621,64.483,168.412l-2.861,6.324
	C199.676,437.296,194.988,441.046,189.48,442.145z M246.914,351.591V231.875c0-5.01,4.076-9.086,9.086-9.086
	c5.01,0,9.086,4.076,9.086,9.086v119.716c0,5.01-4.076,9.086-9.086,9.086C250.99,360.677,246.914,356.601,246.914,351.591z
	 M437.53,324.048c2.145,11.322-2.635,17.824-3.198,18.541c-2.126,2.279-2.551,5.387-1.374,8.282
	c9.574,23.535-5.352,32.217-7.004,33.089c-2.682,1.331-4.398,4.045-4.452,7.038c-0.387,21.696-19.188,24.027-21.273,24.216
	c-2.943,0.223-5.524,2.046-6.721,4.743c-8.193,18.467-30.985,12.215-31.919,11.95c-2.932-0.86-6.1,0.018-8.167,2.27
	c-7.278,7.927-17.673,10.609-30.901,7.97c-5.508-1.099-10.196-4.849-12.541-10.029l-2.861-6.323
	c13.644-84.653,54.582-152.86,64.485-168.41C420.923,286.611,434.793,309.604,437.53,324.048z M470.313,206.222
	c0,16.432-4.276,25.767-7.863,30.705c-1.798,2.475-4.704,3.869-7.79,3.728l-173.541-7.89v-0.89c0-1.859-0.21-3.668-0.594-5.413
	c32.356-59.786,75.034-97.994,105.195-119.538c36.605-26.147,69.234-38.056,84.059-38.056c3.829,0,15.48,0,22.222,19.87
	c2.818,8.305,3.634,16.829,3.87,20.925C470.314,145.22,470.313,180.393,470.313,206.222z"/>
<path d="M408.884,327.688c1.566,1.565,3.617,2.347,5.668,2.347c2.051,0,4.103-0.782,5.669-2.348c3.131-3.131,3.13-8.207,0-11.338
	l-4.988-4.989c-3.132-3.131-8.207-3.13-11.338,0c-3.131,3.131-3.13,8.207,0,11.338L408.884,327.688z"/>
<path d="M398.551,361.891c1.565,1.565,3.617,2.348,5.668,2.348s4.103-0.782,5.668-2.348c3.131-3.131,3.131-8.207,0-11.337
	l-4.989-4.988c-3.131-3.131-8.207-3.131-11.337,0c-3.131,3.131-3.131,8.207,0,11.337L398.551,361.891z"/>
<path d="M357.869,390.459c-3.131-3.131-8.207-3.131-11.337,0c-3.131,3.131-3.131,8.207,0,11.337l4.989,4.989
	c1.565,1.565,3.617,2.348,5.668,2.348c2.051,0,4.103-0.782,5.668-2.348c3.131-3.131,3.131-8.207,0-11.337L357.869,390.459z"/>
<path d="M374.679,382.2l4.989,4.989c1.565,1.565,3.617,2.348,5.668,2.348s4.103-0.782,5.668-2.348c3.131-3.131,3.131-8.207,0-11.337
	l-4.989-4.989c-3.131-3.131-8.207-3.131-11.337,0C371.548,373.994,371.548,379.07,374.679,382.2z"/>
<g>
</g>
<g>
</g>
<g>
</g>
<g>
</g>
<g>
</g>
<g>
</g>
<g>
</g>
<g>
</g>
<g>
</g>
<g>
</g>
<g>
</g>
<g>
</g>
<g>
</g>
<g>
</g>
<g>
</g>
</svg>
