<?xml version="1.0" encoding="iso-8859-1"?>
<!-- Generator: Adobe Illustrator 19.0.0, SVG Export Plug-In . SVG Version: 6.00 Build 0)  -->
<svg version="1.1" id="Layer_1" xmlns="http://www.w3.org/2000/svg" xmlns:xlink="http://www.w3.org/1999/xlink" x="0px" y="0px"
	 viewBox="0 0 512 512" style="enable-background:new 0 0 512 512;" xml:space="preserve">
<path style="fill:#6B5B6B;" d="M392.818,251.718c0,0,42.756,34.205,42.756,68.409c0,51.307-112.068,96.771-119.716,119.716
	c-8.551,25.653-25.653,17.102-25.653,17.102s-3.315-23.73-17.102-51.307C256,371.434,256,320.127,256,320.127V217.513
	L392.818,251.718z"/>
<path style="fill:#7E707E;" d="M315.432,232.371l77.387,19.347c0,0,42.756,34.205,42.756,68.409
	c0,21.715-20.088,42.373-43.825,60.729c8.551-13.698,16.745-40.064,12.114-61.442C399.435,298.975,382.129,258.131,315.432,232.371z
	"/>
<path style="fill:#4B78AA;" d="M264.551,226.064c8.551,59.858,29.573,62.709,73.754,98.694
	c23.448,19.099,14.543,35.837,9.976,61.283c-2.494,13.896,1.434,24.309-5.09,28.832c-14.307,9.917-25.136,18.376-27.333,24.968
	c-8.551,25.653-25.653,17.102-25.653,17.102s-3.315-23.73-17.102-51.307C256,371.433,256,320.126,256,320.126v-95.487
	L264.551,226.064z"/>
<path style="fill:#5A8CB9;" d="M503.983,63.593c0,34.205-21.876,68.619-25.653,102.614c-3.563,32.067-8.551,68.409-51.307,85.511
	s-162.472-25.653-162.472-25.653L256,208.962C298.756,55.041,503.983,37.939,503.983,63.593z"/>
<path style="fill:#4B78AA;" d="M256,208.962c2.447-8.808,5.484-17.114,8.926-25.044c4.969-11.655,56.632-40.871,144.994-34.458
	c63.34,4.597,72.551-56.74,29.795-69.032c-11.022-3.169-17.088-12.169-18.93-19.051c45.996-11.819,83.198-8.702,83.198,2.216
	c0,34.205-21.876,68.619-25.653,102.614c-3.563,32.067-8.551,68.409-51.307,85.511s-162.472-25.653-162.472-25.653L256,208.962z"/>
<g>
	<path style="fill:#463246;" d="M259.457,198.116c51.299-35.012,126.639-34.83,152.602-23.359
		c25.756,11.381,23.516,42.756,55.255,39.932c-7.044,15.183-18.969,28.499-40.291,37.029
		c-42.756,17.102-162.472-25.653-162.472-25.653L256,208.962C257.033,205.245,258.24,201.675,259.457,198.116z"/>
	<path style="fill:#463246;" d="M369.232,80.229c66.145-31.937,134.751-31.469,134.751-16.636c0,16.849-5.311,33.749-11.151,50.625
		C468.354,83.189,431.56,70.458,369.232,80.229z"/>
</g>
<path style="fill:#6B5B6B;" d="M119.182,251.718c0,0-42.756,34.205-42.756,68.409c0,51.307,112.068,96.771,119.716,119.716
	c8.551,25.653,25.653,17.102,25.653,17.102s3.315-23.73,17.102-51.307C256,371.434,256,320.127,256,320.127V217.513L119.182,251.718
	z"/>
<path style="fill:#7E707E;" d="M196.568,232.371l-77.387,19.347c0,0-42.756,34.205-42.756,68.409
	c0,21.715,20.088,42.373,43.825,60.729c-8.551-13.698-16.745-40.064-12.114-61.442C112.565,298.975,129.871,258.131,196.568,232.371
	z"/>
<path style="fill:#4B78AA;" d="M247.449,226.064c-8.551,59.858-29.573,62.709-73.754,98.694
	c-23.448,19.099-14.543,35.837-9.976,61.283c2.494,13.896-1.434,24.309,5.09,28.832c14.307,9.917,25.135,18.376,27.333,24.968
	c8.551,25.653,25.653,17.102,25.653,17.102s3.315-23.73,17.102-51.307C256,371.433,256,320.126,256,320.126v-95.487L247.449,226.064
	z"/>
<path style="fill:#5A8CB9;" d="M8.017,63.593c0,34.205,21.876,68.619,25.653,102.614c3.563,32.067,8.551,68.409,51.307,85.511
	s162.472-25.653,162.472-25.653L256,208.962C213.244,55.041,8.017,37.939,8.017,63.593z"/>
<path style="fill:#4B78AA;" d="M256,208.962c-2.447-8.808-5.484-17.114-8.926-25.044c-4.969-11.655-56.632-40.871-144.994-34.458
	c-63.34,4.597-72.551-56.74-29.795-69.032c11.022-3.169,17.088-12.169,18.93-19.051C45.218,49.558,8.017,52.675,8.017,63.593
	c0,34.205,21.876,68.619,25.653,102.614c3.563,32.067,8.551,68.409,51.307,85.511s162.472-25.653,162.472-25.653L256,208.962z"/>
<path style="fill:#463246;" d="M252.543,198.116c-51.299-35.012-126.639-34.83-152.602-23.359
	c-25.756,11.381-23.516,42.756-55.255,39.932c7.044,15.183,18.969,28.499,40.291,37.029
	c42.756,17.102,162.472-25.653,162.472-25.653L256,208.962C254.967,205.245,253.76,201.675,252.543,198.116z"/>
<path style="fill:#6B5B6B;" d="M256,354.332L256,354.332c-9.446,0-17.102-7.656-17.102-17.102V217.513
	c0-9.446,7.656-17.102,17.102-17.102l0,0c9.446,0,17.102,7.656,17.102,17.102v119.716C273.102,346.674,265.445,354.332,256,354.332z
	"/>
<g>
	<path style="fill:#463246;" d="M142.768,80.229C76.623,48.291,8.017,48.76,8.017,63.593c0,16.849,5.311,33.749,11.151,50.625
		C43.646,83.189,80.44,70.458,142.768,80.229z"/>
	<path style="fill:#463246;" d="M256,285.922L256,285.922c-9.446,0-17.102-7.656-17.102-17.102v-51.307
		c0-9.446,7.656-17.102,17.102-17.102l0,0c9.446,0,17.102,7.656,17.102,17.102v51.307C273.102,278.265,265.446,285.922,256,285.922z
		"/>
</g>
<path d="M491.125,46.921c-24.617-4.216-73.549,1.763-122.818,24.855c-28.789,13.493-63.923,35.889-90.814,71.706
	c9.573-30.972,23.021-66.02,36.229-83.63c2.656-3.541,1.938-8.567-1.603-11.223s-8.566-1.938-11.223,1.603
	c-17.962,23.95-35.207,73.733-44.894,110.043c-9.686-36.308-26.932-86.093-44.894-110.043c-2.657-3.541-7.681-4.26-11.223-1.603
	c-3.541,2.656-4.26,7.682-1.603,11.223c13.207,17.61,26.656,52.658,36.229,83.63c-26.891-35.816-62.026-58.213-90.814-71.706
	C94.425,48.684,45.491,42.704,20.875,46.921C3.621,49.878,0,57.619,0,63.593c0,20.12,6.91,39.888,13.594,59.007
	c5.401,15.451,10.503,30.043,12.108,44.493c3.413,30.717,8.087,72.786,56.296,92.07c4.451,1.78,9.642,3.026,15.522,3.771
	c-12.815,12.811-29.112,33.718-29.112,57.193c0,36.555,45.88,67.534,82.746,92.425c15.776,10.652,35.408,23.908,37.381,29.826
	c3.806,11.419,9.776,18.882,17.742,22.182c3.18,1.317,6.23,1.771,8.925,1.771c5.514,0,9.548-1.902,10.177-2.216
	c2.7-1.35,4.413-4.128,4.432-7.147c0.001-0.235,0.32-23.729,15.755-46.884c5.62-8.43,8.773-16.847,10.432-24.564
	c1.659,7.717,4.812,16.135,10.432,24.564c15.436,23.155,15.754,46.65,15.755,46.86c0,3.037,1.716,5.813,4.432,7.17
	c0.629,0.314,4.661,2.216,10.177,2.216c2.696,0,5.746-0.454,8.925-1.771c7.966-3.3,13.935-10.764,17.742-22.183
	c1.972-5.918,21.606-19.174,37.381-29.825c36.866-24.892,82.746-55.87,82.746-92.425c0-23.475-16.297-44.383-29.112-57.195
	c5.879-0.745,11.073-1.99,15.522-3.77c48.209-19.284,52.884-61.352,56.296-92.07c1.605-14.449,6.707-29.042,12.108-44.493
	C505.09,103.48,512,83.711,512,63.593C512,57.619,508.379,49.878,491.125,46.921z M495.955,64.942
	c-0.175,9.663-2.206,19.407-5.095,29.368c-0.733-0.637-1.493-1.27-2.3-1.895c-11.569-8.958-29.97-16.179-50.486-19.81
	c-6.417-1.136-12.96-1.907-19.577-2.337c4.153-1.152,8.323-2.206,12.501-3.149C468.165,58.73,491.071,61.905,495.955,64.942z
	 M265.086,251.646c0,0.02,0,0.041,0,0.06v17.114c0,5.01-4.076,9.086-9.086,9.086c-5.01,0-9.086-4.076-9.086-9.086v-17.114
	c0-0.02,0-0.041,0-0.06v-34.133c0-5.01,4.076-9.086,9.086-9.086c5.01,0,9.086,4.076,9.086,9.086V251.646z M265.086,337.229
	c0,5.01-4.076,9.086-9.086,9.086c-5.01,0-9.086-4.076-9.086-9.086v-44.998c2.82,1.099,5.882,1.708,9.086,1.708
	s6.266-0.609,9.086-1.708V337.229z M81.002,67.118c4.177,0.943,8.348,1.997,12.501,3.149c-6.615,0.43-13.159,1.201-19.576,2.338
	c-20.516,3.631-38.917,10.851-50.486,19.81c-0.807,0.625-1.567,1.258-2.3,1.895c-2.889-9.961-4.92-19.705-5.095-29.368
	C20.929,61.905,43.835,58.73,81.002,67.118z M28.73,117.308c-0.605-1.731-1.205-3.45-1.799-5.164
	c0.545-1.398,2.259-3.904,6.327-7.054c16.092-12.46,59.048-26.633,111.62-14.833c11.14,5.68,21.721,12.045,31.435,18.995
	c27.617,19.755,48.636,43.837,62.73,71.792c-26.541-12.826-54.805-17.418-71.423-19.058c-28.697-2.832-57.145-0.516-69.185,5.632
	c-12.997,6.637-20.17,16.446-26.5,25.101c-7.173,9.81-11.798,15.539-20.815,16.683c-5.406-12.732-7.654-27.637-9.482-44.08
	C39.832,149.066,34.187,132.921,28.73,117.308z M59.559,223.915c12.173-3.804,19.099-13.229,25.318-21.733
	c5.786-7.911,11.25-15.384,20.849-20.285c6.752-3.448,29.93-6.954,60.319-3.955c27.805,2.744,53.126,10.138,72.922,21.132
	c-4.967,4.592-8.085,11.157-8.085,18.439v2.997c-33.703,12.371-111.948,36.155-142.926,23.764
	C75.109,239.136,66.069,232.246,59.559,223.915z M84.443,320.127c0-27.088,31.026-52.323,36.683-56.698
	c16.368-1.019,36.016-4.469,58.848-10.361c21.012-5.423,39.71-11.62,50.907-15.553v13.36c-5.274,25.298-18.46,34.857-36.65,48.023
	c-8.993,6.51-19.184,13.887-29.412,24.113c-18.426,18.426-14.546,37.827-11.428,53.417c1.381,6.907,2.698,13.533,2.253,19.81
	C124.251,374.981,84.443,346.871,84.443,320.127z M232.228,401.191c-13.052,19.578-16.871,39.101-17.988,49.041
	c-0.634-0.083-1.302-0.253-1.977-0.551c-3.366-1.484-6.311-5.762-8.515-12.375c-3.031-9.094-14.265-17.96-33.577-31.218
	c3.189-11.554,0.943-22.81-1.056-32.808c-2.969-14.849-5.316-26.577,7.043-38.936c9.324-9.324,18.552-16.003,27.476-22.463
	c9.863-7.139,19.437-14.077,27.248-23.631v48.977c0,7.631,3.425,14.473,8.812,19.083c0.043,0.172,0.082,0.344,0.138,0.514
	C240.123,357.735,246.813,379.314,232.228,401.191z M308.253,437.308c-2.204,6.612-5.148,10.891-8.515,12.375
	c-0.676,0.297-1.344,0.468-1.977,0.55c-1.116-9.94-4.935-29.463-17.988-49.041c-14.552-21.829-7.925-43.359-7.605-44.358
	c0.058-0.174,0.099-0.35,0.144-0.525c5.385-4.61,8.808-11.451,8.808-19.08v-48.977c7.811,9.554,17.386,16.493,27.248,23.631
	c8.924,6.459,18.151,13.139,27.476,22.463c12.359,12.359,10.012,24.086,7.043,38.935c-2,9.998-4.245,21.254-1.056,32.808
	C322.518,419.348,311.284,428.214,308.253,437.308z M356.354,396.235c-0.445-6.277,0.872-12.903,2.253-19.81
	c3.118-15.59,6.998-34.991-11.428-53.417c-10.226-10.226-20.419-17.604-29.412-24.113c-18.19-13.167-31.376-22.726-36.65-48.023
	v-13.36c11.197,3.935,29.895,10.131,50.907,15.553c22.845,5.896,42.499,9.346,58.873,10.362
	c11.031,8.306,36.659,32.681,36.659,56.697C427.557,346.871,387.749,374.981,356.354,396.235z M424.045,244.274
	c-30.958,12.383-109.214-11.398-142.926-23.766v-2.996c0-7.282-3.118-13.848-8.085-18.439
	c19.796-10.994,45.117-18.387,72.922-21.132c30.389-2.999,53.567,0.508,60.319,3.955c9.599,4.901,15.063,12.374,20.849,20.285
	c6.219,8.504,13.144,17.929,25.318,21.733C445.931,232.246,436.891,239.136,424.045,244.274z M470.362,165.32
	c-1.827,16.443-4.076,31.35-9.482,44.08c-9.016-1.145-13.641-6.873-20.815-16.683c-6.329-8.655-13.502-18.464-26.5-25.101
	c-12.04-6.148-40.491-8.464-69.185-5.632c-16.618,1.641-44.883,6.233-71.423,19.058c14.094-27.955,35.113-52.037,62.73-71.792
	c9.714-6.949,20.295-13.314,31.435-18.995c52.572-11.8,95.527,2.373,111.62,14.834c4.067,3.15,5.782,5.656,6.327,7.054
	c-0.594,1.713-1.194,3.432-1.799,5.164C477.813,132.921,472.168,149.066,470.362,165.32z"/>
<g>
</g>
<g>
</g>
<g>
</g>
<g>
</g>
<g>
</g>
<g>
</g>
<g>
</g>
<g>
</g>
<g>
</g>
<g>
</g>
<g>
</g>
<g>
</g>
<g>
</g>
<g>
</g>
<g>
</g>
</svg>
