<?xml version="1.0" encoding="iso-8859-1"?>
<!-- Generator: Adobe Illustrator 19.0.0, SVG Export Plug-In . SVG Version: 6.00 Build 0)  -->
<svg version="1.1" id="Layer_1" xmlns="http://www.w3.org/2000/svg" xmlns:xlink="http://www.w3.org/1999/xlink" x="0px" y="0px"
	 viewBox="0 0 512 512" style="enable-background:new 0 0 512 512;" xml:space="preserve">
<path style="fill:#E6DCD2;" d="M477.735,95.969c13.071-0.027,24.662,9.396,25.938,22.405c0.95,9.679-0.555,22.371-8.245,37.753
	c-25.656,51.312-8.552,68.415-42.76,94.071c-18.341,13.756-51.475,10.274-88.773,4.111c85.667,56.657,78.151,103.543,58.842,132.72
	c-24.052,36.346-71.265,34.921-96.921,15.679c-27.007-20.255-61.29-135.406-61.29-135.406v-25.656
	C264.525,241.646,332.941,96.263,477.735,95.969z"/>
<path style="fill:#C2B5AF;" d="M264.525,241.646c0,0,68.728-146.047,214.201-145.676c12.55,0.032,23.554,9.446,24.897,21.924
	c1.048,9.737-0.377,22.595-8.196,38.232c-8.123,16.245-11.951,29.048-14.487,39.792l-11.169-5.584
	c7.122-28.488-56.935-45.003-132.885,14.463c-2.516,1.97-0.793,5.974,2.387,5.661c60.726-5.976,100.901,6.215,132.536,18.337
	c-2.403,4.775-5.786,9.42-10.737,14.213c-35.004-13.072-78.67-24.397-148.961-11.609c-3.746,0.681-7.241,2.555-9.851,5.327
	c-2.111,2.242-4.224,4.542-6.339,6.927C285.234,242.454,274.682,241.646,264.525,241.646z"/>
<path style="fill:#8B7A7A;" d="M503.624,117.894c1.048,9.737-0.377,22.595-8.196,38.232c-26.286,52.573-7.685,69.235-45.378,95.979
	c-0.278-0.198-7.26,7.911-7.537,7.713c22.449-28.863,8.908-50.599,20.132-86.944c5.155-16.694,5.839-31.939,4.989-42.047
	c-1.14-13.586-17.722-30.85-29.397-30.822c-0.332,0.001-0.671,0.045-1.004,0.048c13.074-2.622,26.88-4.12,41.494-4.082
	C491.277,96.001,502.281,105.416,503.624,117.894z"/>
<path style="fill:#C2B5AF;" d="M264.525,250.277v17.025c0,0,1.078,3.608,2.966,9.577c41.007,30.988,67.403,80.845,83.317,121.733
	c-9.094,0.156-19.341-0.63-31.054-2.674c-0.263-0.046-0.495-0.075-0.758-0.12c2.305,2.848,4.587,5.219,6.817,6.891
	c25.656,19.242,72.869,20.668,96.921-15.679c14.407-21.769,22.225-53.399-10.3-91.586c0.987,6.776,2.257,15.685,2.784,25.413
	c-27.785-24.713-60.04-48.376-94.251-63.333C320.969,257.522,278.943,243.519,264.525,250.277z M283.212,264.862
	c47.497,11.518,94.119,46.2,131.172,80.994c-3.163,22.562-14.219,44.038-44.471,50.708
	C354.026,353.959,326.889,300.215,283.212,264.862z"/>
<path style="fill:#E6DCD2;" d="M34.212,95.969c-13.071-0.027-24.662,9.396-25.938,22.405c-0.95,9.679,0.555,22.371,8.245,37.753
	c25.656,51.312,8.552,68.415,42.76,94.071c18.341,13.756,51.475,10.274,88.773,4.111c-85.667,56.657-78.151,103.543-58.842,132.72
	c24.052,36.346,71.265,34.921,96.921,15.679c27.007-20.255,61.29-135.406,61.29-135.406v-25.656
	C247.421,241.646,179.006,96.263,34.212,95.969z"/>
<path style="fill:#C2B5AF;" d="M247.421,241.646c0,0-68.728-146.047-214.201-145.676c-12.55,0.032-23.555,9.446-24.897,21.924
	c-1.048,9.737,0.377,22.595,8.196,38.232c8.123,16.245,11.951,29.048,14.487,39.792l11.169-5.584
	c-7.122-28.488,56.934-45.003,132.885,14.463c2.516,1.97,0.793,5.974-2.387,5.661c-60.726-5.976-100.901,6.215-132.536,18.337
	c2.403,4.775,5.786,9.42,10.737,14.213c35.004-13.072,78.67-24.397,148.961-11.609c3.746,0.681,7.241,2.555,9.851,5.327
	c2.111,2.242,4.224,4.542,6.339,6.927C226.713,242.454,237.265,241.646,247.421,241.646z"/>
<path style="fill:#8B7A7A;" d="M8.323,117.894c-1.048,9.737,0.377,22.595,8.196,38.232c26.287,52.573,7.685,69.235,45.378,95.979
	c0.278-0.198,7.26,7.911,7.537,7.713c-22.449-28.863-8.908-50.599-20.132-86.944c-5.155-16.694-5.839-31.939-4.989-42.047
	c1.14-13.586,17.722-30.85,29.397-30.822c0.332,0.001,0.671,0.045,1.004,0.048c-13.074-2.622-26.88-4.12-41.494-4.082
	C20.67,96.001,9.665,105.416,8.323,117.894z"/>
<path style="fill:#C2B5AF;" d="M190.978,257.522c-34.211,14.957-66.466,38.621-94.251,63.333c0.526-9.729,1.797-18.637,2.784-25.413
	c-32.525,38.186-24.705,69.817-10.3,91.586c24.052,36.346,71.265,34.921,96.921,15.679c2.23-1.672,4.512-4.043,6.817-6.891
	c-0.263,0.045-0.495,0.074-0.758,0.12c-11.713,2.045-21.96,2.831-31.054,2.674c15.915-40.889,42.311-90.745,83.317-121.733
	c1.89-5.969,2.966-9.577,2.966-9.577v-17.025C233.004,243.519,190.978,257.522,190.978,257.522z M142.033,396.563
	c-30.252-6.668-41.308-28.144-44.471-50.708c37.052-34.795,83.674-69.476,131.172-80.994
	C185.058,300.215,157.921,353.959,142.033,396.563z"/>
<path style="fill:#5A464B;" d="M255.973,267.302L255.973,267.302c-9.447,0-17.104-7.657-17.104-17.104l0,0
	c0-9.447,7.657-17.104,17.104-17.104l0,0c9.447,0,17.104,7.657,17.104,17.104l0,0C273.077,259.643,265.42,267.302,255.973,267.302z"
	/>
<path d="M116.26,133.353c-3.131-3.131-8.208-3.131-11.338,0c-3.131,3.131-3.131,8.208,0,11.338l0.686,0.686l-7.155,3.578
	c-2.305,1.152-3.916,3.343-4.328,5.887c-0.413,2.543,0.423,5.131,2.245,6.953l8.552,8.552c1.565,1.565,3.617,2.349,5.669,2.349
	c2.051,0,4.104-0.783,5.669-2.349c3.131-3.131,3.131-8.208,0-11.338l-0.686-0.686l7.155-3.578c2.305-1.152,3.916-3.343,4.328-5.887
	c0.413-2.543-0.423-5.131-2.245-6.953L116.26,133.353z"/>
<path d="M82.052,170.347c3.131-3.131,3.131-8.208,0-11.338c-3.131-3.131-8.208-3.131-11.338,0l-8.552,8.552
	c-3.131,3.131-3.131,8.208,0,11.338c1.565,1.565,3.617,2.349,5.669,2.349c2.051,0,4.104-0.783,5.669-2.349L82.052,170.347z"/>
<path d="M100.894,187.266c-1.241-2.996-4.165-4.949-7.407-4.949h-8.552c-4.428,0-8.017,3.59-8.017,8.017
	c0,1.5,0.412,2.902,1.128,4.103l-7.331,7.331c-3.131,3.131-3.131,8.208,0,11.338c1.565,1.565,3.617,2.349,5.669,2.349
	s4.104-0.783,5.669-2.349l17.104-17.104C101.449,193.71,102.134,190.262,100.894,187.266z"/>
<path d="M104.921,210.32l-17.104,17.104c-3.131,3.131-3.131,8.208,0,11.338c1.565,1.565,3.617,2.349,5.669,2.349
	s4.104-0.783,5.669-2.349l17.104-17.104c3.131-3.131,3.131-8.208,0-11.338C113.129,207.19,108.052,207.19,104.921,210.32z"/>
<path d="M161.367,224.542c0-4.428-3.59-8.017-8.017-8.017h-8.552c-4.428,0-8.017,3.59-8.017,8.017c0,4.428,3.59,8.017,8.017,8.017
	h8.552C157.778,232.559,161.367,228.97,161.367,224.542z"/>
<path d="M152.01,376.517h-0.086c-4.428,0-7.975,3.59-7.975,8.017s3.632,8.017,8.06,8.017s8.017-3.59,8.017-8.017
	S156.438,376.517,152.01,376.517z"/>
<path d="M118.43,361.194h-0.086c-4.428,0-7.975,3.59-7.975,8.017s3.632,8.017,8.06,8.017s8.017-3.59,8.017-8.017
	S122.858,361.194,118.43,361.194z"/>
<path d="M511.706,117.591c-1.674-17.072-16.648-30.096-34.126-29.637c-57.016,1.481-113.147,26.381-162.325,72.009
	c-18.176,16.863-32.203,33.515-41.87,46.251l15.851-47.554c1.4-4.2-0.87-8.741-5.071-10.142c-4.2-1.399-8.741,0.87-10.142,5.071
	l-18.05,54.149l-18.05-54.149c-1.4-4.201-5.943-6.472-10.142-5.071c-4.201,1.4-6.471,5.941-5.071,10.142l15.81,47.431
	c-9.664-12.72-23.658-29.318-41.775-46.127c-49.178-45.629-105.31-70.53-162.325-72.009c-17.452-0.462-32.45,12.564-34.124,29.636
	c-1.307,13.319,1.739,27.49,9.054,42.12c10.263,20.527,13.288,34.912,15.955,47.605c3.824,18.188,6.843,32.553,29.165,49.294
	c10.982,8.237,24.973,11.191,41.179,11.191c7.102,0,14.63-0.568,22.515-1.507c-27.168,22.343-43.277,45.14-47.983,68.015
	c-4.009,19.483,0.145,38.709,12.345,57.144c11.316,17.101,27.962,27.985,48.135,31.476c4.378,0.757,8.844,1.127,13.323,1.127
	c16.997,0,34.14-5.32,46.961-14.935c21.477-16.109,45.232-81.156,57.013-116.871v69.122c0,4.428,3.59,8.017,8.017,8.017
	s8.017-3.59,8.017-8.017V292.09c11.762,35.68,35.556,100.899,57.066,117.032c12.821,9.616,29.963,14.935,46.961,14.935
	c4.477,0,8.947-0.37,13.323-1.127c20.173-3.491,36.818-14.376,48.135-31.476c12.199-18.435,16.352-37.661,12.345-57.144
	c-4.706-22.873-20.814-45.672-47.982-68.014c7.885,0.94,15.412,1.507,22.514,1.507c16.204,0,30.199-2.956,41.179-11.191
	c22.322-16.741,25.342-31.107,29.165-49.294c2.668-12.693,5.692-27.08,15.955-47.605
	C509.966,145.082,513.013,130.91,511.706,117.591z M246.887,250.198c0-5.005,4.068-9.076,9.069-9.085
	c0.005,0,0.011,0.001,0.016,0.001h0.001h0.001c0.005,0,0.011-0.001,0.016-0.001c5.003,0.01,9.069,4.081,9.069,9.085
	c0,5.01-4.076,9.086-9.086,9.086C250.963,259.284,246.887,255.208,246.887,250.198z M64.089,243.784
	c-2.656-1.993-4.951-3.9-6.952-5.763l7.81-7.81c3.131-3.131,3.131-8.208,0-11.338c-3.131-3.131-8.208-3.131-11.338,0l-6.365,6.365
	c-2.297-4.567-3.657-9.421-4.944-15.139l14.095-14.095c3.131-3.131,3.131-8.208,0-11.338c-3.131-3.132-8.208-3.131-11.338,0
	l-6.862,6.863c-1.403-5.653-3.201-11.879-5.753-18.831h1.181c4.428,0,8.017-3.59,8.017-8.017c0-4.428-3.59-8.017-8.017-8.017h-7.927
	c-0.639-1.349-1.308-2.723-2.006-4.12c-5.943-11.886-8.445-23.117-7.437-33.384c0.83-8.456,8.544-15.179,17.307-15.179
	c0.148,0,0.296,0.001,0.445,0.005c4.705,0.122,9.33,0.431,13.889,0.877l-2.836,2.836c-2.441,2.441-3.046,6.168-1.502,9.254
	l2.751,5.501h-4.132c-4.428,0-8.017,3.59-8.017,8.017s3.59,8.017,8.017,8.017H59.28c2.778,0,5.359-1.439,6.82-3.802
	c1.461-2.364,1.594-5.315,0.351-7.8l-5.968-11.935l7.137-7.137c50.901,10.255,91.287,38.987,117.879,63.589
	c0.192,0.177,0.378,0.355,0.569,0.532l-9.226,9.226l-20.955-6.985c-2.881-0.959-6.058-0.211-8.205,1.937l-8.552,8.552
	c-3.131,3.131-3.131,8.208,0,11.338c3.131,3.131,8.208,3.131,11.338,0l5.049-5.048l20.955,6.985
	c0.831,0.277,1.686,0.412,2.535,0.412c2.093,0,4.142-0.82,5.67-2.349l12.866-12.866c20.998,21.507,34.769,41.306,40.266,49.737
	c-0.241,0.252-0.477,0.51-0.708,0.772c-26.544,0.214-53.555,5.172-79.698,9.98C118.781,250.729,82.298,257.441,64.089,243.784z
	 M181.322,396.294c-12.783,9.587-31.146,13.739-47.928,10.836c-10.957-1.896-26.356-7.69-37.497-24.526
	c-9.76-14.748-13.128-29.909-10.01-45.063c5.155-25.058,27.67-50.884,66.908-76.768c2.484-0.453,4.985-0.912,7.51-1.376
	c23.321-4.29,47.352-8.698,70.558-9.567c-0.002,0.123-0.01,0.246-0.01,0.369c0,7.165,3.02,13.635,7.849,18.216
	c-2.61,8.464-9.934,31.618-19.288,56.138C199.343,377.168,186.933,392.085,181.322,396.294z M426.114,337.54
	c3.118,15.154-0.25,30.316-10.01,45.063c-11.141,16.836-26.541,22.629-37.497,24.526c-16.784,2.902-35.145-1.249-47.928-10.836
	c-19.715-14.786-47.15-94.293-57.4-127.911c4.809-4.579,7.816-11.035,7.816-18.185c0-0.124-0.007-0.247-0.01-0.371
	c23.223,0.865,47.272,5.277,70.611,9.57c2.525,0.465,5.025,0.924,7.51,1.377C398.444,286.657,420.959,312.481,426.114,337.54z
	 M488.31,152.541c-0.699,1.397-1.367,2.771-2.007,4.12h-7.927c-4.428,0-8.017,3.59-8.017,8.017s3.59,8.017,8.017,8.017h1.181
	c-2.553,6.954-4.351,13.18-5.753,18.831l-6.862-6.863c-3.131-3.131-8.208-3.131-11.338,0c-3.131,3.131-3.131,8.207,0,11.338
	l14.095,14.095c-1.287,5.719-2.646,10.572-4.944,15.139l-6.365-6.365c-3.131-3.131-8.208-3.131-11.338,0
	c-3.131,3.131-3.131,8.208,0,11.338l7.81,7.81c-2.001,1.863-4.295,3.77-6.952,5.763c-18.21,13.656-54.692,6.945-93.313-0.157
	c-26.159-4.812-53.189-9.774-79.751-9.981c-0.221-0.252-0.448-0.499-0.679-0.742c5.467-8.4,19.213-28.191,40.289-49.768
	l12.867,12.867c1.529,1.529,3.577,2.349,5.67,2.349c0.848,0,1.704-0.135,2.535-0.412l20.955-6.985l5.049,5.048
	c3.131,3.131,8.208,3.131,11.338,0c3.131-3.131,3.131-8.208,0-11.338l-8.552-8.552c-2.148-2.148-5.324-2.896-8.204-1.937
	l-20.955,6.985l-9.228-9.228c0.077-0.072,0.151-0.143,0.228-0.214c26.657-24.733,67.156-53.62,118.221-63.906l7.137,7.137
	l-5.968,11.935c-1.243,2.485-1.111,5.437,0.351,7.8c1.461,2.364,4.042,3.802,6.82,3.802h17.104c4.428,0,8.017-3.59,8.017-8.017
	c0-4.428-3.59-8.017-8.017-8.017h-4.132l2.751-5.501c1.544-3.086,0.939-6.815-1.502-9.254l-2.836-2.836
	c4.56-0.446,9.185-0.755,13.89-0.877c8.895-0.257,16.907,6.573,17.752,15.173C496.755,129.423,494.252,140.655,488.31,152.541z"/>
<path d="M395.74,159.008c-3.131,3.131-3.131,8.208,0,11.338c1.565,1.565,3.617,2.349,5.669,2.349c2.051,0,4.104-0.783,5.669-2.349
	l8.552-8.552c1.823-1.823,2.658-4.41,2.245-6.953c-0.413-2.544-2.024-4.735-4.328-5.887l-7.155-3.578l0.686-0.686
	c3.131-3.131,3.131-8.208,0-11.338c-3.131-3.131-8.208-3.131-11.338,0l-8.552,8.552c-1.823,1.823-2.658,4.41-2.245,6.953
	c0.413,2.544,2.024,4.735,4.328,5.887l7.155,3.578L395.74,159.008z"/>
<path d="M441.286,159.008c-3.131-3.131-8.208-3.131-11.338,0c-3.131,3.131-3.131,8.208,0,11.338l8.552,8.552
	c1.565,1.565,3.617,2.349,5.669,2.349c2.051,0,4.104-0.783,5.669-2.349c3.131-3.131,3.131-8.208,0-11.338L441.286,159.008z"/>
<path d="M433.955,194.437c0.716-1.2,1.128-2.604,1.128-4.103c0-4.428-3.59-8.017-8.017-8.017h-8.552
	c-3.243,0-6.166,1.953-7.407,4.949c-1.241,2.996-0.555,6.444,1.738,8.737l17.104,17.104c1.565,1.565,3.617,2.349,5.669,2.349
	c2.051,0,4.104-0.782,5.669-2.349c3.131-3.131,3.131-8.208,0-11.338L433.955,194.437z"/>
<path d="M407.078,210.32c-3.131-3.131-8.208-3.131-11.338,0c-3.131,3.131-3.131,8.208,0,11.338l17.104,17.104
	c1.565,1.565,3.617,2.349,5.669,2.349s4.104-0.783,5.669-2.349c3.131-3.131,3.131-8.208,0-11.338L407.078,210.32z"/>
<path d="M367.202,216.525h-8.552c-4.428,0-8.017,3.59-8.017,8.017c0,4.428,3.59,8.017,8.017,8.017h8.552
	c4.428,0,8.017-3.59,8.017-8.017C375.219,220.114,371.629,216.525,367.202,216.525z"/>
<path d="M359.99,392.552h0.086c4.428,0,7.975-3.59,7.975-8.017s-3.632-8.017-8.06-8.017s-8.017,3.59-8.017,8.017
	S355.561,392.552,359.99,392.552z"/>
<path d="M393.57,377.229h0.085c4.428,0,7.975-3.59,7.975-8.017s-3.632-8.017-8.06-8.017c-4.428,0-8.017,3.59-8.017,8.017
	S389.143,377.229,393.57,377.229z"/>
<path d="M118.608,335.717c0-4.428-3.59-8.017-8.017-8.017h-0.086c-4.428,0-7.975,3.59-7.975,8.017c0,4.428,3.632,8.017,8.06,8.017
	C115.018,343.735,118.608,340.145,118.608,335.717z"/>
<path d="M132.412,299.906h-0.086c-4.428,0-7.975,3.59-7.975,8.017s3.632,8.017,8.06,8.017s8.017-3.59,8.017-8.017
	S136.84,299.906,132.412,299.906z"/>
<path d="M178.379,353.711h-0.086c-4.428,0-7.975,3.59-7.975,8.017s3.632,8.017,8.06,8.017c4.428,0,8.017-3.59,8.017-8.017
	S182.807,353.711,178.379,353.711z"/>
<path d="M333.792,353.711h-0.086c-4.428,0-7.975,3.59-7.975,8.017s3.632,8.017,8.06,8.017s8.017-3.59,8.017-8.017
	S338.22,353.711,333.792,353.711z"/>
<path d="M401.495,343.735c4.428,0,8.017-3.59,8.017-8.017c0-4.428-3.59-8.017-8.017-8.017h-0.086c-4.428,0-7.975,3.59-7.975,8.017
	C393.435,340.145,397.067,343.735,401.495,343.735z"/>
<path d="M379.673,315.941c4.428,0,8.017-3.59,8.017-8.017s-3.59-8.017-8.017-8.017h-0.086c-4.428,0-7.975,3.59-7.975,8.017
	S375.246,315.941,379.673,315.941z"/>
<g>
</g>
<g>
</g>
<g>
</g>
<g>
</g>
<g>
</g>
<g>
</g>
<g>
</g>
<g>
</g>
<g>
</g>
<g>
</g>
<g>
</g>
<g>
</g>
<g>
</g>
<g>
</g>
<g>
</g>
</svg>
