<?xml version="1.0" encoding="iso-8859-1"?>
<!-- Generator: Adobe Illustrator 19.0.0, SVG Export Plug-In . SVG Version: 6.00 Build 0)  -->
<svg version="1.1" id="Layer_1" xmlns="http://www.w3.org/2000/svg" xmlns:xlink="http://www.w3.org/1999/xlink" x="0px" y="0px"
	 viewBox="0 0 512.001 512.001" style="enable-background:new 0 0 512.001 512.001;" xml:space="preserve">
<g>
	<path style="fill:#463246;" d="M232.027,204.889C216.835,158.059,170.333,67.67,36.031,54.837
		C19.248,53.233,5.517,68.177,8.406,84.789l21.335,122.679c4.275,24.576,25.604,42.516,50.549,42.516h158.608
		C238.898,234.691,236.746,219.437,232.027,204.889z"/>
	<path style="fill:#463246;" d="M110.631,249.984c-42.756,0-59.858,34.205-59.858,59.858c0,75.809,39.768,119.805,65.065,140.12
		c11.228,9.017,27.007,9.7,39.218,2.068l40.159-25.1c6.159-3.849,10.933-9.559,13.629-16.302l27.607-69.017
		c1.616-4.04,2.447-8.351,2.447-12.703v-78.924H110.631V249.984z"/>
</g>
<path style="fill:#73BEFF;" d="M232.027,204.889c-10.441-32.182-35.668-84.933-94.012-118.951l-1.328-0.036
	c-76.96-8.551-34.608,164.082-34.608,164.082h36.558c-6.749,0-12.888,3.949-15.614,10.123
	c-5.062,11.461-12.393,29.987-12.393,41.183c0,25.213,23.231,69.012,35.446,90.297c3.232,5.633,11.271,5.734,14.635,0.178
	c14.585-24.086,48.076-78.986,73.946-118.278c2.768-4.204,4.24-9.085,4.24-14.118v-9.386
	C238.898,234.691,236.746,219.437,232.027,204.889z"/>
<path style="fill:#463246;" d="M256,309.842L256,309.842c-9.446,0-17.102-7.656-17.102-17.102v-59.858
	c0-9.446,7.656-17.102,17.102-17.102l0,0c9.446,0,17.102,7.656,17.102,17.102v59.858C273.102,302.185,265.446,309.842,256,309.842z"
	/>
<circle style="fill:#C7C1C7;" cx="42.221" cy="88.227" r="12.114"/>
<circle style="fill:#DCEFFF;" cx="127.733" cy="138.817" r="17.102"/>
<g>
	<circle style="fill:#C7C1C7;" cx="43.825" cy="126.525" r="8.907"/>
	<circle style="fill:#C7C1C7;" cx="47.48" cy="161.895" r="7.467"/>
	<circle style="fill:#C7C1C7;" cx="52.287" cy="196.27" r="6.068"/>
</g>
<path style="fill:#64A0F0;" d="M232.027,204.889c-10.441-32.182-35.668-84.933-94.012-118.951l-1.328-0.036
	c-8.739-0.971-15.871,0.491-21.768,3.674c15.221,8.233,66.703,44.247,81.223,160.408h-57.494c-6.765,0-12.894,3.954-15.625,10.144
	c-0.932,2.111-1.941,4.46-2.966,6.958h47.864c10.531,0,18.633,9.442,16.929,19.832c-7.029,42.887-20.509,83.607-29.87,108.692
	c2.283-0.409,4.432-1.696,5.805-3.963c14.621-24.146,48.04-78.924,73.868-118.15c2.768-4.205,4.246-9.093,4.246-14.128v-9.384
	C238.898,234.691,236.746,219.437,232.027,204.889z"/>
<g>
	<path style="fill:#463246;" d="M279.976,204.889c15.192-46.831,61.694-137.22,195.996-150.052
		c16.784-1.603,30.515,13.341,27.626,29.953l-21.335,122.679c-4.275,24.576-25.604,42.516-50.549,42.516H273.106
		C273.106,234.691,275.257,219.437,279.976,204.889z"/>
	<path style="fill:#463246;" d="M401.373,249.984c42.756,0,59.858,34.205,59.858,59.858c0,75.809-39.768,119.805-65.065,140.12
		c-11.228,9.017-27.007,9.7-39.218,2.068l-40.159-25.1c-6.159-3.849-10.933-9.559-13.629-16.302l-27.607-69.017
		c-1.616-4.04-2.447-8.351-2.447-12.703v-78.924h128.267V249.984z"/>
</g>
<path style="fill:#73BEFF;" d="M279.976,204.889c10.441-32.182,35.668-84.933,94.012-118.951l1.328-0.036
	c76.96-8.551,34.608,164.082,34.608,164.082h-36.558c6.749,0,12.888,3.949,15.614,10.123c5.062,11.461,12.393,29.987,12.393,41.183
	c0,25.213-23.231,69.012-35.446,90.297c-3.232,5.633-11.272,5.734-14.635,0.178c-14.585-24.086-48.076-78.986-73.946-118.278
	c-2.768-4.204-4.24-9.085-4.24-14.118v-9.386C273.106,234.691,275.258,219.437,279.976,204.889z"/>
<circle style="fill:#C7C1C7;" cx="469.779" cy="88.227" r="12.114"/>
<circle style="fill:#DCEFFF;" cx="384.267" cy="138.817" r="17.102"/>
<g>
	<circle style="fill:#C7C1C7;" cx="468.175" cy="126.525" r="8.907"/>
	<circle style="fill:#C7C1C7;" cx="464.531" cy="161.895" r="7.467"/>
	<circle style="fill:#C7C1C7;" cx="459.721" cy="196.27" r="6.068"/>
</g>
<path style="fill:#64A0F0;" d="M279.976,204.889c10.441-32.182,35.668-84.933,94.012-118.951l1.328-0.036
	c8.739-0.971,15.871,0.491,21.768,3.674c-15.221,8.233-66.703,44.247-81.223,160.408h57.494c6.765,0,12.895,3.954,15.625,10.144
	c0.932,2.111,1.941,4.46,2.966,6.958h-47.864c-10.531,0-18.633,9.442-16.929,19.832c7.029,42.887,20.509,83.607,29.87,108.692
	c-2.283-0.409-4.432-1.696-5.805-3.963c-14.621-24.146-48.04-78.924-73.868-118.15c-2.768-4.205-4.246-9.093-4.246-14.128v-9.384
	C273.106,234.691,275.258,219.437,279.976,204.889z"/>
<path d="M503.055,57.606c-7.283-7.855-17.619-11.759-28.347-10.721c-42.788,4.155-80.451,16.43-111.945,36.486
	c-25.295,16.108-46.634,37.208-63.425,62.712c-16.543,25.13-25.314,49.356-29.813,65.629c-1.381-0.886-2.854-1.641-4.402-2.246
	c9.049-52.228,31.207-82.57,31.502-82.969c2.648-3.541,1.927-8.559-1.611-11.213c-3.541-2.656-8.567-1.938-11.223,1.603
	c-0.853,1.137-16.677,22.592-27.791,60.816c-11.114-38.223-26.938-59.678-27.791-60.816c-2.653-3.537-7.665-4.253-11.207-1.607
	c-3.542,2.647-4.268,7.667-1.628,11.215c0.062,0.082,6.213,8.414,13.286,23.677c5.956,12.852,13.694,33.197,18.217,59.293
	c-1.548,0.605-3.02,1.36-4.401,2.246c-4.499-16.273-13.269-40.5-29.813-65.629c-16.791-25.504-38.131-46.604-63.425-62.712
	C117.745,63.315,80.082,51.04,37.294,46.885C26.561,45.841,16.23,49.751,8.947,57.606C1.774,65.341-1.302,75.742,0.508,86.143
	l21.335,122.679c4.18,24.035,22.335,42.51,45.274,47.695c-3.464,2.852-6.328,5.838-8.653,8.679
	c-9.982,12.201-15.708,28.467-15.708,44.626c0,79.794,42.642,125.956,68.061,146.371c7.507,6.03,16.704,9.087,25.981,9.087
	c7.76,0,15.577-2.14,22.507-6.471l40.159-25.1c7.654-4.784,13.472-11.742,16.824-20.123l27.607-69.017
	c2.004-5.01,3.02-10.285,3.02-15.68v-12.757c2.82,1.098,5.882,1.707,9.086,1.707c3.203,0,6.266-0.609,9.086-1.707v12.757
	c0,5.395,1.015,10.67,3.02,15.681l27.607,69.017c3.352,8.38,9.17,15.339,16.824,20.123l40.159,25.1
	c6.93,4.331,14.746,6.471,22.507,6.471c9.277,0,18.473-3.058,25.981-9.087c25.418-20.416,68.061-66.578,68.061-146.372
	c0-16.16-5.725-32.425-15.707-44.625c-2.325-2.841-5.188-5.828-8.653-8.679c22.94-5.185,41.094-23.66,45.274-47.695l21.335-122.679
	C513.302,75.742,510.227,65.341,503.055,57.606z M312.729,154.9c15.54-23.603,35.27-43.119,58.646-58.005
	c1.641-1.044,3.306-2.059,4.983-3.058c10.19-1.096,17.945,1.555,23.697,8.106c11.742,13.372,15.936,42.517,12.129,84.285
	c-2.171,23.823-6.46,45.533-8.667,55.719H281.119v-8.523C281.763,229.078,287.736,192.863,312.729,154.9z M393.353,301.272
	c0,21.876-20.987,63.052-34.61,86.754c-17.486-30.273-60.819-104.309-77.624-124.05v-5.993h98.113
	C384.524,269.3,393.353,290.447,393.353,301.272z M132.771,257.982h98.111v5.993c-16.805,19.74-60.139,93.779-77.625,124.053
	c-13.623-23.693-34.609-64.858-34.609-86.756C118.647,290.467,127.478,269.308,132.771,257.982z M198.899,154.336
	c25.209,38.021,31.33,74.754,31.982,79.099v8.514H108.444c-7.831-35.239-19.379-113.939,3.498-140
	c5.752-6.552,13.504-9.204,23.689-8.112c1.555,0.927,3.104,1.861,4.627,2.826C163.606,111.458,183.335,130.862,198.899,154.336z
	 M37.639,206.075L16.304,83.396c-0.944-5.429,0.66-10.855,4.398-14.888c3.851-4.154,9.33-6.219,15.041-5.664
	c27.962,2.715,53.523,9.086,76.366,18.98c-4.545,2.278-8.627,5.457-12.216,9.546c-14.943,17.023-20.335,49.495-16.026,96.513
	c2.053,22.399,5.811,42.584,8.212,54.066H80.29C59.191,241.949,41.254,226.862,37.639,206.075z M230.881,328.889
	c0,3.346-0.63,6.619-1.873,9.726l-27.607,69.017c-2.079,5.198-5.688,9.514-10.436,12.481l-40.159,25.1
	c-9.438,5.897-21.472,5.287-29.949-1.521c-23.18-18.616-62.067-60.764-62.067-133.869c0-12.337,4.517-25.225,12.084-34.472
	c9.43-11.525,22.806-17.368,39.757-17.368h4.534c-5.325,12.155-12.551,30.923-12.551,43.289c0,36.089,42.179,103.989,43.974,106.863
	c1.467,2.346,4.037,3.768,6.797,3.768c0.052,0,0.106,0,0.158-0.001c2.82-0.056,5.403-1.588,6.802-4.037
	c14.725-25.769,49.557-85.384,70.534-116.735v37.76H230.881z M256,301.807c-5.01,0-9.086-4.076-9.086-9.086V267.07
	c0-0.001,0-0.003,0-0.005v-34.202c0-5.005,4.067-9.076,9.07-9.085c0.002,0,0.003,0,0.005,0c0.003,0,0.006-0.001,0.01-0.001
	c0.003,0,0.006,0.001,0.01,0.001c0.002,0,0.003,0,0.005,0c5.002,0.009,9.07,4.08,9.07,9.085v34.202c0,0.001,0,0.003,0,0.005v25.651
	C265.086,297.731,261.01,301.807,256,301.807z M453.211,309.823c0,73.106-38.887,115.253-62.067,133.87
	c-8.477,6.808-20.513,7.418-29.949,1.521l-40.159-25.1c-4.748-2.967-8.357-7.283-10.436-12.481l-27.606-69.016
	c-1.243-3.107-1.873-6.38-1.873-9.726V291.13c20.977,31.351,55.809,90.965,70.534,116.735c1.399,2.449,3.983,3.982,6.802,4.037
	c0.053,0.001,0.106,0.001,0.158,0.001c2.76,0,5.331-1.422,6.797-3.768c1.796-2.873,43.974-70.774,43.974-106.863
	c0-12.366-7.225-31.133-12.551-43.29h4.534c16.952,0,30.329,5.844,39.758,17.368C448.694,284.598,453.211,297.485,453.211,309.823z
	 M495.696,83.396l-21.335,122.679c-3.615,20.787-21.552,35.873-42.65,35.873h-11.79c2.402-11.482,6.16-31.667,8.212-54.066
	c4.309-47.017-1.083-79.489-16.026-96.513c-3.591-4.091-7.675-7.271-12.222-9.547c22.844-9.896,48.406-16.263,76.37-18.978
	c5.71-0.552,11.189,1.511,15.041,5.664C495.038,72.542,496.641,77.967,495.696,83.396z"/>
<g>
</g>
<g>
</g>
<g>
</g>
<g>
</g>
<g>
</g>
<g>
</g>
<g>
</g>
<g>
</g>
<g>
</g>
<g>
</g>
<g>
</g>
<g>
</g>
<g>
</g>
<g>
</g>
<g>
</g>
</svg>
