<?xml version="1.0" encoding="iso-8859-1"?>
<!-- Generator: Adobe Illustrator 19.0.0, SVG Export Plug-In . SVG Version: 6.00 Build 0)  -->
<svg version="1.1" id="Layer_1" xmlns="http://www.w3.org/2000/svg" xmlns:xlink="http://www.w3.org/1999/xlink" x="0px" y="0px"
	 viewBox="0 0 512 512" style="enable-background:new 0 0 512 512;" xml:space="preserve">
<path style="fill:#694B50;" d="M384.267,262.517c8.551,0,94.063,25.653,76.96,68.409c0,0,5.879,32.601-17.102,42.756
	c0,0,1.603,40.083-34.205,42.756c0,0-51.307,34.205-76.96-8.551c-15.862-26.438-68.409-119.716-68.409-119.716v-25.653
	L384.267,262.517L384.267,262.517z"/>
<path style="fill:#5A464B;" d="M444.125,373.682c0,0,1.603,40.083-34.205,42.756c0,0-17.21,11.393-36.671,12.752L264.551,262.517
	h51.307l129.141,110.692C444.694,373.357,444.441,373.542,444.125,373.682z"/>
<path style="fill:#825C5A;" d="M444.125,91.493c25.653-17.102,59.858-8.551,59.858,17.102c0,19.721-25.268,100.083-36.954,136.197
	c-3.426,10.587-13.27,17.724-24.398,17.724H256v-17.102C256,245.415,428.216,102.1,444.125,91.493z"/>
<path style="fill:#694B50;" d="M256,254.944l247.54-140.884c-3.283,26.072-25.694,97.309-36.51,130.733
	c-3.426,10.587-13.269,17.724-24.396,17.724H256V254.944z"/>
<path style="fill:#FF9B46;" d="M437.138,96.713c3.231-2.508,5.681-4.348,6.987-5.219c25.653-17.102,59.858-8.551,59.858,17.102
	c0,13.665-12.13,56.432-23.469,93.434C442.615,194.831,470.574,121.163,437.138,96.713z"/>
<path style="fill:#E6DCD2;" d="M365.99,154.401c7.403-6.087,14.663-12.045,21.622-17.738c10.906,2.111,73.045,19.115,22.083,125.855
	h-52.393C407.432,183.082,378.86,158.831,365.99,154.401z"/>
<path style="fill:#D8CCC0;" d="M385.352,181.325l36.584-20.821c10.457,17.88,13.172,48.786-12.24,102.013h-52.393
	C381.9,223.541,387.5,197.907,385.352,181.325z"/>
<path style="fill:#E6DCD2;" d="M332.96,407.886c-2.99-4.983-7.283-12.343-12.282-21.002
	c37.887-58.745,32.797-114.769,31.552-124.368h32.037c1.338,0,4.565,0.63,8.986,1.853c2.091,15.921,6.703,84.37-55.231,150.617
	C336.248,412.897,334.554,410.543,332.96,407.886z"/>
<path style="fill:#D8CCC0;" d="M352.637,397.581l-20.355-31.211c13.643-27.59,18.662-53.298,20.221-72.443l36.084,30.928
	C383.058,346.586,372.375,371.859,352.637,397.581z"/>
<path style="fill:#694B50;" d="M127.733,262.517c-8.551,0-94.063,25.653-76.96,68.409c0,0-5.879,32.601,17.102,42.756
	c0,0-1.603,40.083,34.205,42.756c0,0,51.307,34.205,76.96-8.551c15.862-26.438,68.409-119.716,68.409-119.716v-25.653
	L127.733,262.517L127.733,262.517z"/>
<path style="fill:#5A464B;" d="M67.875,373.682c0,0-1.603,40.083,34.205,42.756c0,0,17.21,11.393,36.671,12.752l108.699-166.673
	h-51.307L67,373.208C67.306,373.357,67.559,373.542,67.875,373.682z"/>
<path style="fill:#825C5A;" d="M67.875,91.493C42.221,74.391,8.017,82.942,8.017,108.595c0,19.721,25.268,100.083,36.954,136.197
	c3.426,10.587,13.27,17.724,24.397,17.724H256v-17.102C256,245.415,83.784,102.1,67.875,91.493z"/>
<path style="fill:#694B50;" d="M256,254.944L8.46,114.059c3.283,26.072,25.694,97.309,36.51,130.733
	c3.426,10.587,13.269,17.724,24.396,17.724H256V254.944z"/>
<path style="fill:#FF9B46;" d="M74.862,96.713c-3.231-2.508-5.681-4.348-6.987-5.219C42.221,74.392,8.017,82.943,8.017,108.596
	c0,13.665,12.13,56.432,23.469,93.434C69.385,194.831,41.426,121.163,74.862,96.713z"/>
<path style="fill:#463246;" d="M267.204,241.139c3.586-3.135,5.898-7.69,5.898-12.827c0-9.446-7.658-17.102-17.102-17.102
	s-17.102,7.656-17.102,17.102c0,5.137,2.312,9.692,5.898,12.827c-3.586,3.135-5.898,7.689-5.898,12.827v34.205
	c0,9.445,7.658,17.102,17.102,17.102s17.102-7.658,17.102-17.102v-34.205C273.102,248.828,270.79,244.273,267.204,241.139z"/>
<path style="fill:#E6DCD2;" d="M146.01,154.401c-7.403-6.087-14.663-12.045-21.622-17.738
	c-10.906,2.111-73.045,19.115-22.083,125.855h52.393C104.568,183.082,133.139,158.831,146.01,154.401z"/>
<path style="fill:#D8CCC0;" d="M126.648,181.325l-36.583-20.821c-10.457,17.88-13.172,48.786,12.24,102.013h52.393
	C130.1,223.541,124.5,197.907,126.648,181.325z"/>
<path style="fill:#E6DCD2;" d="M179.04,407.886c2.99-4.983,7.283-12.343,12.282-21.002
	c-37.887-58.745-32.797-114.769-31.552-124.368h-32.037c-1.338,0-4.565,0.63-8.986,1.853c-2.091,15.921-6.703,84.37,55.231,150.617
	C175.752,412.897,177.446,410.543,179.04,407.886z"/>
<path style="fill:#D8CCC0;" d="M159.363,397.581l20.355-31.211c-13.643-27.59-18.662-53.298-20.221-72.443l-36.084,30.928
	C128.942,346.586,139.625,371.859,159.363,397.581z"/>
<path d="M474.657,247.261C488.603,204.163,512,128.839,512,108.596c0-12.4-6.388-22.93-17.524-28.89
	c-15.635-8.368-37.656-6.311-54.797,5.118c-13.965,9.31-128.864,102.513-162.569,129.899c-0.648-1.003-1.364-1.955-2.143-2.853
	c32.081-35.628,47.911-90.111,48.6-92.52c1.216-4.257-1.248-8.694-5.506-9.911c-4.254-1.215-8.694,1.248-9.911,5.506
	c-0.163,0.568-16.271,56.038-47.421,88.701c-1.533-0.293-3.112-0.452-4.729-0.452c-1.616,0-3.196,0.159-4.728,0.452
	c-31.041-32.554-47.211-87.97-47.421-88.701c-1.217-4.257-5.653-6.723-9.911-5.506c-4.256,1.216-6.722,5.653-5.506,9.911
	c0.688,2.409,16.52,56.893,48.6,92.52c-0.779,0.898-1.495,1.85-2.143,2.853c-33.706-27.386-148.605-120.589-162.57-129.9
	c-17.142-11.428-39.163-13.485-54.797-5.117C6.388,85.666,0,96.196,0,108.596c0,20.243,23.397,95.567,37.343,138.665
	c4.504,13.92,17.374,23.272,32.025,23.272h12.061c-13.295,6.946-26.181,16.085-33.777,27.304
	c-7.271,10.738-9.014,22.44-5.096,33.975c-0.404,3.434-0.909,10.288,0.221,17.864c1.956,13.135,7.879,23.018,17.236,28.888
	c0.332,4.51,1.308,11.393,4.077,18.428c6.286,15.974,18.483,25.361,35.347,27.248c5.645,3.41,23.497,13.161,43.036,13.161
	c3.835,0,7.74-0.376,11.625-1.25c13.294-2.99,23.998-11.112,31.816-24.141c13.031-21.719,44.19-81.099,55.744-103.236
	c1.929,1.347,4.054,2.427,6.325,3.195v53.16c0,4.427,3.589,8.017,8.017,8.017c4.427,0,8.017-3.589,8.017-8.017v-53.16
	c2.27-0.767,4.396-1.848,6.325-3.195c11.555,22.137,42.713,81.518,55.744,103.236c7.818,13.029,18.522,21.151,31.816,24.141
	c3.888,0.874,7.788,1.25,11.625,1.25c19.536,0,37.391-9.751,43.036-13.16c16.864-1.888,29.061-11.275,35.347-27.248
	c2.765-7.028,3.742-13.904,4.076-18.415c19.895-12.374,18.419-38.77,17.461-46.777c3.914-11.531,2.169-23.228-5.1-33.964
	c-7.596-11.219-20.482-20.358-33.777-27.304h12.061C457.283,270.534,470.153,261.181,474.657,247.261z M459.402,242.324
	c-2.357,7.282-9.096,12.176-16.77,12.176h-22.201c17.289-41.415,19.658-73.941,6.994-96.783
	c-6.922-12.485-16.957-19.468-25.254-23.336c12.998-10.382,24.338-19.372,32.682-25.872c12.091,6.246,14.277,21.851,16.118,44.464
	c1.604,19.707,3.419,41.822,20.939,49.801C468.125,215.059,463.949,228.274,459.402,242.324z M383.983,307.91
	c-3.957,23.242-15.229,57.901-46.275,92.248c-2.01-3.451-4.334-7.56-6.879-12.135c32.857-49.736,34.119-97.743,32.906-117.488
	h20.439c0.419,0.029,0.971,0.106,1.61,0.218C386.426,278.203,386.793,291.412,383.983,307.91z M280.519,293.609
	c0.388-1.753,0.6-3.57,0.6-5.439v-17.637h66.518c1.038,15.796,0.645,57.41-25.63,101.408
	C304.579,339.827,283.285,298.926,280.519,293.609z M256,297.256c-5.01,0-9.086-4.076-9.086-9.086v-25.653
	c0-5.01,4.076-9.086,9.086-9.086c5.01,0,9.086,4.076,9.086,9.086v25.653C265.086,293.18,261.01,297.256,256,297.256z
	 M189.994,371.939c-26.146-43.83-26.611-85.563-25.611-101.406h66.498v17.637c0,1.867,0.212,3.686,0.6,5.439
	C228.715,298.925,207.422,339.824,189.994,371.939z M174.292,400.157c-31.047-34.348-42.317-69.007-46.275-92.248
	c-2.809-16.497-2.442-29.707-1.801-37.158c0.639-0.112,1.191-0.189,1.61-0.218h20.439c-1.213,19.746,0.049,67.754,32.906,117.488
	C178.626,392.597,176.301,396.706,174.292,400.157z M98.48,165.703c7.637-13.974,20.808-18.374,25.988-19.604
	c2.744,2.201,5.53,4.438,8.354,6.707c-4.398,3.473-8.547,8.468-11.378,15.265c-8.565,20.561-2.515,49.599,17.968,86.428h-30.385
	C91.678,215.487,88.017,184.848,98.48,165.703z M231.219,232.399c0.819,4.982,3.108,9.474,6.407,13.015
	c-2.405,2.582-4.271,5.67-5.425,9.086h-74.285c-13.057-22.013-30.823-58.291-21.67-80.262c2.783-6.682,7.174-9.633,9.734-10.846
	C175.881,187.474,207.901,213.432,231.219,232.399z M366.02,163.392c2.56,1.213,6.951,4.163,9.734,10.846
	c9.152,21.971-8.613,58.249-21.67,80.262H279.8c-1.153-3.415-3.02-6.503-5.425-9.086c3.299-3.541,5.588-8.033,6.407-13.015
	C304.099,213.432,336.119,187.474,366.02,163.392z M372.587,254.5c20.482-36.83,26.533-65.866,17.968-86.428
	c-2.832-6.797-6.98-11.793-11.378-15.265c2.825-2.269,5.612-4.508,8.356-6.708c5.092,1.209,18.2,5.561,25.869,19.393
	c10.608,19.132,6.987,49.845-10.429,89.009h-30.385V254.5z M486.91,93.842c4.131,2.21,9.057,6.565,9.057,14.754
	c0,9.264-6.963,37.381-19.268,78.427c-6.748-5.01-8.272-17.241-9.747-35.352c-1.517-18.635-3.348-41.113-18.541-53.398
	c0.051-0.034,0.113-0.078,0.161-0.11C460.741,90.052,476.507,88.276,486.91,93.842z M265.086,228.312
	c0,5.01-4.076,9.086-9.086,9.086c-5.01,0-9.086-4.076-9.086-9.086s4.076-9.086,9.086-9.086
	C261.01,219.227,265.086,223.302,265.086,228.312z M25.09,93.842c10.405-5.567,26.17-3.791,38.338,4.322
	c0.048,0.032,0.11,0.076,0.161,0.11c-15.193,12.285-17.024,34.763-18.541,53.398c-1.474,18.11-2.999,30.341-9.747,35.352
	c-12.305-41.047-19.268-69.163-19.268-78.427C16.033,100.407,20.958,96.053,25.09,93.842z M52.598,242.324
	c-4.547-14.051-8.723-27.266-12.507-39.551c17.519-7.979,19.334-30.094,20.939-49.801c1.841-22.612,4.027-38.218,16.118-44.464
	c8.345,6.5,19.686,15.489,32.682,25.871c-8.298,3.868-18.333,10.851-25.254,23.336c-12.664,22.842-10.296,55.369,6.994,96.783
	H69.369C61.693,254.5,54.954,249.607,52.598,242.324z M150.64,420.496c-20.533,4.653-43.892-10.582-44.114-10.728
	c-1.148-0.765-2.474-1.222-3.85-1.324c-11.535-0.862-19.225-6.396-23.507-16.922c-3.531-8.678-3.286-17.459-3.284-17.519
	c0.131-3.289-1.759-6.324-4.77-7.653c-16.87-7.454-12.495-33.758-12.453-34c0.267-1.479,0.112-3.005-0.446-4.401
	c-2.818-7.044-2.138-13.478,2.139-20.245c9.353-14.8,32.646-26.087,49.487-32.165c-0.347,8.503-0.079,20.288,2.233,34.251
	c4.322,26.098,16.933,65.224,52.462,103.468C160.508,416.903,155.907,419.301,150.64,420.496z M451.646,307.703
	c4.277,6.768,4.956,13.201,2.139,20.245c-0.553,1.381-0.705,2.913-0.45,4.378c0.046,0.265,4.422,26.568-12.448,34.023
	c-2.991,1.322-4.878,4.357-4.772,7.625c0.003,0.088,0.248,8.869-3.283,17.547c-4.282,10.525-11.972,16.06-23.507,16.922
	c-1.376,0.103-2.702,0.558-3.85,1.324c-0.058,0.038-5.998,3.931-14.461,7.176c-7.667,2.938-19.024,5.943-29.594,3.566
	c-5.291-1.19-9.912-3.593-13.955-7.252c35.529-38.244,48.141-77.37,52.462-103.468c2.312-13.963,2.58-25.747,2.233-34.251
	C419,281.616,442.292,292.903,451.646,307.703z"/>
<g>
</g>
<g>
</g>
<g>
</g>
<g>
</g>
<g>
</g>
<g>
</g>
<g>
</g>
<g>
</g>
<g>
</g>
<g>
</g>
<g>
</g>
<g>
</g>
<g>
</g>
<g>
</g>
<g>
</g>
</svg>
