<?xml version="1.0" encoding="iso-8859-1"?>
<!-- Generator: Adobe Illustrator 19.0.0, SVG Export Plug-In . SVG Version: 6.00 Build 0)  -->
<svg version="1.1" id="Layer_1" xmlns="http://www.w3.org/2000/svg" xmlns:xlink="http://www.w3.org/1999/xlink" x="0px" y="0px"
	 viewBox="0 0 512 512" style="enable-background:new 0 0 512 512;" xml:space="preserve">
<path style="fill:#8F664D;" d="M50.772,50.83c-25.653,0-42.756,17.102-42.756,42.756c0,42.756,59.858,162.472,102.614,162.472
	c29.395,0,37.946,0,37.946,0L256,247.506C256,247.506,128.206,50.83,50.772,50.83z"/>
<path style="fill:#7C5546;" d="M136.697,256.057c-31.818-84.338-41.724-169.47-43.778-190.546
	C78.024,56.389,63.691,50.83,50.772,50.83c-25.653,0-42.756,17.102-42.756,42.756c0,42.756,59.858,162.472,102.614,162.472
	C122.426,256.057,130.82,256.057,136.697,256.057z"/>
<path style="fill:#6F463C;" d="M26.722,114.963c0-24.05,12.92-38.48,36.839-38.48c40.802,0,105.462,62.457,153.998,116.787
	C173.681,135.053,101.448,50.83,50.772,50.83c-25.653,0-42.756,17.102-42.756,42.756c0,32.298,34.158,108.481,69.297,143.832
	C50.002,200.685,26.722,141.579,26.722,114.963z"/>
<path style="fill:#7C5546;" d="M59.324,350.12c-8.081,15.736-7.482,32.423,3.563,45.962c21.229,26.023,12.114,32.78,22.091,48.1
	c11.312,17.371,50.534,23.579,94.063,8.551C223.933,437.235,256,281.711,256,281.711v-42.756
	C119.182,221.853,66.093,336.937,59.324,350.12z"/>
<path style="fill:#507387;" d="M247.449,264.608c-37.3-10.657-74.587,8.567-97.404,24.573c17.994,39.439,41.42,76.85,72.071,104.957
	c20.94-49.741,33.883-112.427,33.883-112.427v-13.348C253.374,266.813,250.567,265.5,247.449,264.608z"/>
<path style="fill:#A07855;" d="M220.877,397.076C242.544,346.899,256,281.711,256,281.711v-34.205
	C256,247.506,197.784,289.181,220.877,397.076z"/>
<path style="fill:#32465F;" d="M179.04,452.734c16.387-5.657,31.051-29.992,43.085-58.588
	c-37.781-34.641-64.734-83.36-83.848-132.674c-51.511,30.593-74.643,80.256-78.953,88.649c-8.081,15.736-7.482,32.423,3.563,45.962
	c21.229,26.023,12.114,32.78,22.091,48.1C96.288,461.554,135.511,467.761,179.04,452.734z"/>
<g>
	<circle style="fill:#507387;" cx="113.57" cy="334.885" r="8.551"/>
	<circle style="fill:#507387;" cx="164.075" cy="410.509" r="8.551"/>
	<circle style="fill:#507387;" cx="137.086" cy="371.494" r="8.551"/>
	<circle style="fill:#507387;" cx="133.259" cy="292.578" r="6.592"/>
	<circle style="fill:#507387;" cx="162.386" cy="346.557" r="6.592"/>
	<circle style="fill:#507387;" cx="199.349" cy="394.39" r="6.592"/>
	<circle style="fill:#507387;" cx="180.023" cy="371.858" r="6.592"/>
	<circle style="fill:#507387;" cx="146.257" cy="321.973" r="6.592"/>
	<circle style="fill:#507387;" cx="125.862" cy="436.163" r="8.551"/>
	<circle style="fill:#507387;" cx="83.641" cy="367.486" r="8.551"/>
	<circle style="fill:#507387;" cx="111.967" cy="398.751" r="8.551"/>
</g>
<path style="fill:#8F664D;" d="M461.228,50.83c25.653,0,42.756,17.102,42.756,42.756c0,42.756-59.858,162.472-102.614,162.472
	c-29.395,0-37.946,0-37.946,0L256,247.506C256,247.506,383.794,50.83,461.228,50.83z"/>
<path style="fill:#7C5546;" d="M375.303,256.057c31.819-84.338,41.724-169.47,43.778-190.546
	c14.895-9.122,29.228-14.681,42.146-14.681c25.653,0,42.756,17.102,42.756,42.756c0,42.756-59.858,162.472-102.614,162.472
	C389.574,256.057,381.18,256.057,375.303,256.057z"/>
<path style="fill:#6F463C;" d="M485.278,114.963c0-24.05-12.919-38.48-36.839-38.48c-40.802,0-105.462,62.457-153.998,116.787
	C338.319,135.054,410.553,50.83,461.229,50.83c25.653,0,42.756,17.102,42.756,42.756c0,32.298-34.158,108.481-69.297,143.832
	C461.998,200.685,485.278,141.579,485.278,114.963z"/>
<path style="fill:#7C5546;" d="M452.676,350.12c8.081,15.736,7.482,32.423-3.563,45.962c-21.229,26.023-12.114,32.78-22.091,48.1
	c-11.312,17.371-50.534,23.579-94.063,8.551C288.067,437.235,256,281.711,256,281.711v-42.756
	C392.818,221.853,445.907,336.937,452.676,350.12z"/>
<path style="fill:#507387;" d="M264.551,264.608c37.3-10.657,74.587,8.567,97.404,24.573c-17.994,39.439-41.42,76.85-72.071,104.957
	c-20.94-49.741-33.883-112.427-33.883-112.427v-13.348C258.626,266.813,261.433,265.5,264.551,264.608z"/>
<path style="fill:#A07855;" d="M291.123,397.076C269.456,346.899,256,281.711,256,281.711v-34.205
	C256,247.506,314.216,289.181,291.123,397.076z"/>
<path style="fill:#32465F;" d="M332.96,452.734c-16.387-5.657-31.051-29.992-43.085-58.588
	c37.781-34.641,64.734-83.36,83.848-132.674c51.511,30.593,74.643,80.256,78.953,88.649c8.081,15.736,7.482,32.423-3.563,45.962
	c-21.229,26.023-12.114,32.78-22.091,48.1C415.712,461.554,376.489,467.761,332.96,452.734z"/>
<g>
	<circle style="fill:#507387;" cx="398.43" cy="334.885" r="8.551"/>
	<circle style="fill:#507387;" cx="347.925" cy="410.509" r="8.551"/>
	<circle style="fill:#507387;" cx="374.914" cy="371.494" r="8.551"/>
	<circle style="fill:#507387;" cx="378.741" cy="292.578" r="6.592"/>
	<circle style="fill:#507387;" cx="349.614" cy="346.557" r="6.592"/>
	<circle style="fill:#507387;" cx="312.651" cy="394.39" r="6.592"/>
	<circle style="fill:#507387;" cx="331.977" cy="371.858" r="6.592"/>
	<circle style="fill:#507387;" cx="365.743" cy="321.973" r="6.592"/>
	<circle style="fill:#507387;" cx="386.138" cy="436.163" r="8.551"/>
	<circle style="fill:#507387;" cx="428.359" cy="367.486" r="8.551"/>
	<circle style="fill:#507387;" cx="400.033" cy="398.751" r="8.551"/>
</g>
<path style="fill:#5A464B;" d="M256,273.159L256,273.159c-9.446,0-17.102-7.656-17.102-17.102v-25.653
	c0-9.446,7.656-17.102,17.102-17.102l0,0c9.446,0,17.102,7.656,17.102,17.102v25.653C273.102,265.503,265.446,273.159,256,273.159z"
	/>
<path d="M475.658,194.854C497.056,157.689,512,116.046,512,93.585c0-29.894-20.879-50.772-50.772-50.772
	c-34.608,0-78.098,31.181-129.263,92.676c-25.351,30.47-46.464,61.226-57.47,77.937c-2.512-2.734-5.62-4.907-9.117-6.319
	c9.951-45.227,39.33-82.474,39.641-82.865c2.762-3.457,2.201-8.499-1.255-11.264c-3.457-2.766-8.503-2.205-11.268,1.252
	c-1.159,1.448-23.198,29.327-36.496,67.391c-13.298-38.063-35.338-65.942-36.496-67.391c-2.766-3.459-7.813-4.019-11.268-1.252
	c-3.457,2.765-4.018,7.81-1.252,11.268c0.312,0.39,29.676,37.518,39.639,82.861c-3.496,1.412-6.606,3.586-9.118,6.319
	c-11.007-16.712-32.119-47.467-57.47-77.937C128.87,73.994,85.38,42.813,50.772,42.813C20.879,42.813,0,63.692,0,93.585
	c0,22.461,14.944,64.105,36.342,101.269c14.883,25.851,44.327,69.219,74.288,69.219h10.572c-6.457,4.671-12.742,9.825-18.85,15.462
	c-13.74,12.678-33.55,34.494-49.906,66.425l-0.254,0.496c-9.853,19.188-8.219,39.123,4.483,54.692
	c11.564,14.176,13.058,21.565,14.502,28.71c1.074,5.317,2.293,11.341,7.081,18.696c8.787,13.496,28.8,20.632,53.207,20.632
	c15.537,0,32.856-2.892,50.19-8.877c21.394-7.386,41.119-38.907,60.303-96.363c2.274-6.809,4.392-13.575,6.35-20.132
	c0.973,3.332,4.045,5.769,7.692,5.769s6.719-2.437,7.692-5.769c1.958,6.558,4.077,13.323,6.35,20.132
	c19.183,57.456,38.909,88.977,60.303,96.363c17.337,5.986,34.65,8.877,50.19,8.877c24.403,0,44.42-7.137,53.206-20.631
	c4.79-7.355,6.008-13.38,7.083-18.697c1.445-7.146,2.938-14.535,14.502-28.71c12.702-15.57,14.336-35.504,4.483-54.692l-0.254-0.496
	c-16.355-31.931-36.166-53.747-49.906-66.425c-6.109-5.637-12.394-10.79-18.85-15.462h10.572
	C431.331,264.074,460.773,220.706,475.658,194.854z M495.967,93.585c0,19.621-14.385,58.846-34.205,93.27
	c-21.73,37.74-44.871,61.186-60.392,61.186h-13.225c5.694-16.278,10.917-33.452,15.635-51.443
	c16.598-63.291,21.776-117.45,22.572-126.68c12.892-7.323,24.585-11.072,34.877-11.072
	C482.331,58.846,495.967,72.482,495.967,93.585z M344.29,145.744c23.463-28.201,45.236-49.798,64.788-64.412
	c-2.389,21.011-8.265,63.375-20.807,111.198c-4.517,17.223-10.181,36.141-17.192,55.51h-6.902
	c-25.114-12.307-52.408-18.19-81.652-17.547C290.21,218.465,314.183,181.929,344.29,145.744z M256,265.143
	c-5.01,0-9.086-4.076-9.086-9.086v-25.653c0-5.005,4.067-9.076,9.07-9.085c0.002,0,0.004,0,0.005,0c0.003,0,0.006-0.001,0.01-0.001
	s0.006,0.001,0.01,0.001c0.002,0,0.003,0,0.005,0c5.002,0.009,9.07,4.08,9.07,9.085v25.653
	C265.086,261.067,261.01,265.143,256,265.143z M167.6,145.612c30.13,36.195,54.173,72.83,61.873,84.881
	c-29.241-0.646-56.536,5.239-81.651,17.548h-6.9c-6.977-19.275-12.619-38.098-17.123-55.239
	c-12.577-47.881-18.477-90.397-20.874-111.465C122.447,95.927,144.18,117.478,167.6,145.612z M50.238,186.855
	c-19.819-34.424-34.205-73.648-34.205-93.27c0-21.103,13.636-34.739,34.739-34.739c10.291,0,21.985,3.75,34.877,11.073
	c0.796,9.232,5.974,63.39,22.571,126.679c4.718,17.991,9.942,35.164,15.635,51.443H110.63
	C95.109,248.04,71.968,224.595,50.238,186.855z M176.423,445.156c-19.294,6.66-39.046,9.318-55.613,7.483
	c-14.009-1.551-24.892-6.348-29.115-12.832c-3.117-4.786-3.823-8.284-4.803-13.124c-1.659-8.207-3.724-18.421-17.794-35.67
	c-8.613-10.557-9.552-23.78-2.643-37.233l0.262-0.512c15.28-29.832,33.726-50.156,46.509-61.951
	c6.678-6.162,13.586-11.694,20.715-16.591c4.357,10.676,8.935,20.889,13.726,30.603c18.599,37.707,40.503,68.042,65.143,90.287
	C196.582,432.664,183.56,442.691,176.423,445.156z M226.751,358.871c-2.538,7.599-5.023,14.534-7.451,20.871
	c-31.578-30.252-54.726-72.081-71.457-113.602c25.259-13.942,53.04-20.494,83.038-19.561v9.477c0,11.048,7.172,20.446,17.102,23.8
	v1.018C246.795,286.466,239.043,322.054,226.751,358.871z M264.017,280.875v-1.018c9.93-3.354,17.102-12.752,17.102-23.8v-9.478
	c29.997-0.936,57.779,5.618,83.038,19.561c-16.735,41.533-39.883,83.354-71.457,113.602c-2.415-6.301-4.886-13.193-7.407-20.74
	C272.989,322.18,265.21,286.481,264.017,280.875z M445.283,353.27l0.262,0.512c6.908,13.453,5.969,26.675-2.643,37.233
	c-14.07,17.248-16.135,27.462-17.794,35.669c-0.979,4.84-1.686,8.337-4.803,13.124c-4.222,6.483-15.106,11.28-29.115,12.831
	c-16.568,1.834-36.32-0.823-55.613-7.483c-7.135-2.463-20.157-12.489-36.385-49.539c24.64-22.245,46.544-52.579,65.143-90.286
	c4.792-9.714,9.37-19.927,13.726-30.603c7.13,4.899,14.037,10.429,20.715,16.592C411.557,303.114,430.003,323.438,445.283,353.27z"
	/>
<g>
</g>
<g>
</g>
<g>
</g>
<g>
</g>
<g>
</g>
<g>
</g>
<g>
</g>
<g>
</g>
<g>
</g>
<g>
</g>
<g>
</g>
<g>
</g>
<g>
</g>
<g>
</g>
<g>
</g>
</svg>
