<?xml version="1.0" encoding="iso-8859-1"?>
<!-- Generator: Adobe Illustrator 19.0.0, SVG Export Plug-In . SVG Version: 6.00 Build 0)  -->
<svg version="1.1" id="Layer_1" xmlns="http://www.w3.org/2000/svg" xmlns:xlink="http://www.w3.org/1999/xlink" x="0px" y="0px"
	 viewBox="0 0 511.999 511.999" style="enable-background:new 0 0 511.999 511.999;" xml:space="preserve">
<path style="fill:#D7E1E1;" d="M420.075,269.183c26.901,17.994,29.916,67.768,11.223,86.046
	c-24.05,23.516-31.711,52.733-31.711,52.733c-19.953,1.782-27.079,21.022-27.079,21.022c-15.677-7.126-33.493,2.495-33.493,2.495
	l-31.11-20.098c-5.954-3.846-10.565-9.447-13.198-16.027l-47.259-126.704v-34.205L420.075,269.183z"/>
<path style="fill:#C8D2D2;" d="M452.676,80.523c34.205,0,51.307,25.653,51.307,42.756c0,0-34.205,34.205-34.205,94.063
	c0,34.205-17.102,51.307-42.756,51.307c-17.102,0-153.921-25.653-153.921-25.653l-8.551-8.551
	C298.756,157.483,409.074,80.523,452.676,80.523z"/>
<path style="fill:#B9C3C3;" d="M447.534,172.485c-37.856-2.844-119.797,25.271-180.249,64.693l-2.734-2.734
	c34.205-76.96,144.523-153.921,188.125-153.921c34.205,0,51.307,25.653,51.307,42.756c0,0-19.577,19.63-29.104,55.117
	C467.19,175.419,458.099,173.279,447.534,172.485z"/>
<path style="fill:#9B9A9C;" d="M445.754,106.584c-41.18,0-136.729,60.273-180.017,129.046l-1.186-1.186
	c34.205-76.96,144.523-153.921,188.125-153.921c34.205,0,51.307,25.653,51.307,42.756c0,0-2.487,2.555-6.033,7.234
	C491.009,116.741,471.469,106.584,445.754,106.584z"/>
<path style="fill:#D7E1E1;" d="M91.925,269.183c-26.901,17.994-29.916,67.768-11.223,86.046
	c24.05,23.516,31.711,52.733,31.711,52.733c19.953,1.782,27.079,21.022,27.079,21.022c15.677-7.126,33.493,2.495,33.493,2.495
	l31.11-20.098c5.954-3.846,10.565-9.447,13.198-16.027l47.259-126.704v-34.205L91.925,269.183z"/>
<path style="fill:#C8D2D2;" d="M59.324,80.523c-34.205,0-51.307,25.653-51.307,42.756c0,0,34.205,34.205,34.205,94.063
	c0,34.205,17.102,51.307,42.756,51.307c17.102,0,153.921-25.653,153.921-25.653l8.551-8.551
	C213.244,157.483,102.926,80.523,59.324,80.523z"/>
<path style="fill:#B9C3C3;" d="M64.466,172.485c37.856-2.844,119.797,25.271,180.249,64.693l2.734-2.734
	C213.244,157.483,102.926,80.523,59.324,80.523c-34.205,0-51.307,25.653-51.307,42.756c0,0,19.577,19.63,29.104,55.117
	C44.81,175.419,53.901,173.279,64.466,172.485z"/>
<path style="fill:#9B9A9C;" d="M59.731,106.584c41.18,0,143.243,60.273,186.532,129.046l1.186-1.186
	C213.244,157.483,102.926,80.523,59.324,80.523c-34.205,0-51.307,25.653-51.307,42.756c0,0,2.487,2.555,6.033,7.234
	C20.991,116.741,34.016,106.584,59.731,106.584z"/>
<path style="fill:#7D7175;" d="M256,246.284L256,246.284c-10.353,0-18.746-8.393-18.746-18.746l0,0
	c0-10.353,8.393-18.746,18.746-18.746l0,0c10.353,0,18.746,8.393,18.746,18.746l0,0C274.746,237.891,266.353,246.284,256,246.284z"
	/>
<path style="fill:#B9C3C3;" d="M256,277.199L256,277.199c-9.446,0-17.102-7.656-17.102-17.102v-8.551
	c0-9.446,7.656-17.102,17.102-17.102l0,0c9.446,0,17.102,7.656,17.102,17.102v8.551C273.102,269.543,265.445,277.199,256,277.199z"
	/>
<path d="M452.676,72.506c-23.647,0-61.26,17.419-98.161,45.458c-34.911,26.527-63.746,58.526-81.219,89.738
	c-2.116-2.014-4.58-3.664-7.295-4.846c8.186-26.035,21.074-39.451,21.34-39.723c3.112-3.133,3.105-8.194-0.019-11.317
	c-3.131-3.131-8.207-3.131-11.337,0c-0.577,0.577-11.036,11.224-19.985,31.95c-8.949-20.726-19.408-31.373-19.985-31.95
	c-3.121-3.121-8.168-3.119-11.304-0.012c-3.134,3.109-3.153,8.179-0.057,11.326c0.143,0.144,13.117,13.564,21.343,39.727
	c-2.714,1.183-5.178,2.833-7.295,4.846c-17.473-31.212-46.308-63.211-81.219-89.738c-36.9-28.039-74.514-45.458-98.161-45.458
	C20.616,72.506,0,101.993,0,123.279c0,2.111,0.848,4.153,2.333,5.653c0.317,0.323,31.871,32.863,31.871,88.409
	c0,18.616,4.623,33.339,13.741,43.759c6.716,7.675,15.646,12.619,26.195,14.59c-7.068,9.881-11.707,22.624-13,36.599
	c-1.862,20.111,3.355,38.306,13.955,48.671c22.062,21.572,29.492,48.775,29.56,49.033c0.857,3.27,3.675,5.651,7.042,5.952
	c14.501,1.294,20.064,15.277,20.274,15.822c0.774,2.088,2.38,3.76,4.435,4.615c2.055,0.856,4.374,0.82,6.401-0.103
	c11.765-5.347,26.249,2.187,26.366,2.249c1.192,0.643,2.501,0.963,3.808,0.963c1.517,0,3.03-0.43,4.35-1.283l31.11-20.097
	c7.39-4.774,13.023-11.615,16.291-19.784L256,320.162l31.266,78.166c3.268,8.17,8.901,15.009,16.291,19.784l31.11,20.097
	c1.314,0.849,2.827,1.274,4.344,1.274c1.3,0,2.604-0.312,3.786-0.938c0.144-0.077,14.629-7.613,26.394-2.265
	c2.027,0.921,4.335,0.983,6.391,0.127c2.054-0.856,3.652-2.502,4.425-4.59c0.23-0.595,5.792-14.578,20.293-15.872
	c3.367-0.3,6.185-2.682,7.042-5.952c0.071-0.27,7.354-27.321,29.56-49.033c10.6-10.365,15.817-28.56,13.955-48.671
	c-1.293-13.975-5.932-26.718-13-36.599c10.549-1.971,19.48-6.916,26.195-14.59c9.118-10.421,13.741-25.144,13.741-43.759
	c0-55.546,31.554-88.088,31.856-88.394c1.504-1.503,2.348-3.542,2.348-5.668C512,101.993,491.384,72.506,452.676,72.506z
	 M255.981,216.808c0.004,0,0.009,0.001,0.013,0.001c0.002,0,0.004,0,0.006,0c0.002,0,0.004,0,0.006,0
	c0.004,0,0.009-0.001,0.013-0.001c5.001,0.011,9.066,4.081,9.066,9.085c0,0.727-0.095,1.443-0.263,2.138
	c-2.747-1.034-5.719-1.603-8.823-1.603s-6.077,0.57-8.823,1.603c-0.167-0.693-0.263-1.408-0.263-2.138
	C246.914,220.89,250.979,216.819,255.981,216.808z M246.914,251.546c0-5.01,4.076-9.086,9.086-9.086c5.01,0,9.086,4.076,9.086,9.086
	v8.551c0,5.01-4.076,9.086-9.086,9.086c-5.01,0-9.086-4.076-9.086-9.086V251.546z M50.238,217.341
	c0-53.391-25.618-87.287-33.99-96.937c1.781-12.491,14.767-31.865,43.075-31.865c20.008,0,54.731,16.561,88.461,42.191
	c37.916,28.81,68.141,64.115,83.176,97.082c0.213,2.837,0.897,5.577,2.014,8.134c-54.783,10.229-136.317,24.684-147.997,24.684
	C62.575,260.632,50.238,245.258,50.238,217.341z M209.847,392.374c-2.027,5.067-5.522,9.31-10.105,12.271l-27.46,17.739
	c-6.013-2.377-17.221-5.657-28.841-3.109c-4.053-6.424-11.847-15.414-24.868-18.434c-3.418-9.881-12.757-32.268-32.268-51.344
	c-6.968-6.813-10.579-20.837-9.2-35.729c1.547-16.707,8.752-30.884,19.275-37.922c0.126-0.084,0.242-0.178,0.361-0.269
	c31.078-3.969,106.122-17.729,134.138-22.932v7.452c0,12.765,9.572,23.328,21.914,24.907L209.847,392.374z M425.694,349.497
	c-19.51,19.077-28.849,41.463-32.268,51.344c-13.022,3.019-20.815,12.009-24.868,18.434c-11.621-2.545-22.828,0.733-28.841,3.11
	l-27.46-17.74c-4.583-2.961-8.078-7.204-10.105-12.271l-37.518-93.795l7.36-18.4c0.133-0.331,0.233-0.666,0.319-1.003
	c5.384-4.61,8.807-11.45,8.807-19.078v-7.452c28.016,5.202,103.058,18.963,134.138,22.932c0.12,0.09,0.235,0.185,0.361,0.269
	c10.523,7.039,17.729,21.215,19.275,37.922C436.272,328.66,432.661,342.684,425.694,349.497z M461.762,217.341
	c0,27.916-12.337,43.29-34.739,43.29c-11.683,0-93.244-14.461-148.027-24.69c1.119-2.561,1.817-5.295,2.035-8.11
	c15.033-32.972,45.261-68.285,83.185-97.1c33.73-25.63,68.453-42.191,88.461-42.191c28.309,0,41.295,19.374,43.075,31.865
	C487.38,130.054,461.762,163.951,461.762,217.341z"/>
<path d="M183.504,381.061h-0.011c-4.427,0-8.011,3.589-8.011,8.017c0,4.427,3.595,8.017,8.022,8.017s8.017-3.589,8.017-8.017
	C191.521,384.65,187.932,381.061,183.504,381.061z"/>
<path d="M149.111,380.705H149.1c-4.427,0-8.011,3.589-8.011,8.017c0,4.427,3.595,8.017,8.022,8.017s8.017-3.589,8.017-8.017
	C157.127,384.294,153.538,380.705,149.111,380.705z"/>
<path d="M125.25,355.763h-0.011c-4.427,0-8.011,3.589-8.011,8.017c0,4.427,3.595,8.017,8.022,8.017c4.427,0,8.017-3.589,8.017-8.017
	C133.266,359.352,129.677,355.763,125.25,355.763z"/>
<path d="M109.294,325.834h-0.011c-4.427,0-8.011,3.589-8.011,8.017c0,4.427,3.595,8.017,8.022,8.017s8.017-3.589,8.017-8.017
	C117.311,329.423,113.722,325.834,109.294,325.834z"/>
<path d="M110.898,300.982c0-4.427-3.589-8.017-8.017-8.017h-0.011c-4.427,0-8.011,3.589-8.011,8.017s3.595,8.017,8.022,8.017
	S110.898,305.411,110.898,300.982z"/>
<path d="M409.119,292.966h-0.011c-4.427,0-8.011,3.589-8.011,8.017s3.595,8.017,8.022,8.017c4.427,0,8.017-3.589,8.017-8.017
	S413.546,292.966,409.119,292.966z"/>
<path d="M402.706,325.834h-0.011c-4.427,0-8.011,3.589-8.011,8.017c0,4.427,3.595,8.017,8.022,8.017
	c4.427,0,8.017-3.589,8.017-8.017C410.722,329.423,407.133,325.834,402.706,325.834z"/>
<path d="M386.761,355.763h-0.011c-4.427,0-8.011,3.589-8.011,8.017c0,4.427,3.595,8.017,8.022,8.017
	c4.427,0,8.017-3.589,8.017-8.017C394.778,359.352,391.189,355.763,386.761,355.763z"/>
<path d="M362.889,380.705h-0.011c-4.427,0-8.011,3.589-8.011,8.017c0,4.427,3.595,8.017,8.022,8.017
	c4.427,0,8.017-3.589,8.017-8.017C370.906,384.294,367.317,380.705,362.889,380.705z"/>
<path d="M328.517,381.061h-0.011c-4.427,0-8.011,3.589-8.011,8.017c0,4.427,3.595,8.017,8.022,8.017s8.017-3.589,8.017-8.017
	C336.534,384.65,332.944,381.061,328.517,381.061z"/>
<g>
</g>
<g>
</g>
<g>
</g>
<g>
</g>
<g>
</g>
<g>
</g>
<g>
</g>
<g>
</g>
<g>
</g>
<g>
</g>
<g>
</g>
<g>
</g>
<g>
</g>
<g>
</g>
<g>
</g>
</svg>
