<?xml version="1.0" encoding="iso-8859-1"?>
<!-- Generator: Adobe Illustrator 19.0.0, SVG Export Plug-In . SVG Version: 6.00 Build 0)  -->
<svg version="1.1" id="Layer_1" xmlns="http://www.w3.org/2000/svg" xmlns:xlink="http://www.w3.org/1999/xlink" x="0px" y="0px"
	 viewBox="0 0 512 512" style="enable-background:new 0 0 512 512;" xml:space="preserve">
<g>
	<path style="fill:#C89673;" d="M247.449,315.452c0,17.101-8.551,94.057-59.854,102.607
		c-43.006,7.168-119.708-34.202-111.158-94.057s76.955-76.955,76.955-76.955h94.057V315.452z"/>
	<path style="fill:#C89673;" d="M42.234,93.136c-26.457,0-33.761,12.004-34.202,25.652c-0.414,12.817,6.638,35.103,8.551,42.753
		c8.551,34.202,25.652,85.506,51.304,94.057s145.36-8.551,179.562-8.551v-17.101C247.449,229.946,119.189,93.136,42.234,93.136z"/>
</g>
<path style="fill:#58413C;" d="M119.189,366.755c-33.134-28.858-30.996-65.198-20.096-88.114
	c-10.899,11.269-19.9,26.066-22.657,45.361c-8.551,59.854,68.151,101.224,111.158,94.057c20.4-3.4,33.962-17.66,42.993-34.629
	C205.836,400.329,151.255,394.683,119.189,366.755z"/>
<path style="fill:#A57B62;" d="M230.705,247.783c6.706-0.462,12.414-0.736,16.744-0.736v-17.101c0,0-128.259-136.81-205.214-136.81
	c-26.457,0-33.762,12.004-34.202,25.652c-0.082,2.556,0.189,5.543,0.601,8.66C43.443,123.554,114.43,136.65,230.705,247.783z"/>
<path style="fill:#58413C;" d="M41.945,164.095c-1.844-7.935-8.644-31.055-8.245-44.35c0.351-11.669,5.383-22.063,21.365-25.396
	c-4.398-0.746-8.701-1.213-12.831-1.213c-26.457,0-33.761,12.004-34.202,25.652c-0.414,12.817,6.638,35.103,8.551,42.753
	c8.551,34.202,25.652,85.506,51.304,94.057c3.73,1.243,9.493,1.931,16.649,2.221C63.611,242.611,49.398,196.163,41.945,164.095z"/>
<g>
	<path style="fill:#C89673;" d="M264.551,315.452c0,17.101,8.551,94.057,59.854,102.607c43.006,7.168,119.708-34.202,111.158-94.057
		s-76.955-76.955-76.955-76.955h-94.057V315.452L264.551,315.452z"/>
	<path style="fill:#C89673;" d="M469.765,93.136c26.457,0,33.761,12.004,34.202,25.652c0.414,12.817-6.638,35.103-8.551,42.753
		c-8.551,34.202-25.652,85.506-51.304,94.057c-25.652,8.551-145.36-8.551-179.562-8.551v-17.101
		C264.551,229.946,392.81,93.136,469.765,93.136z"/>
</g>
<path style="fill:#58413C;" d="M392.81,366.755c33.134-28.858,30.996-65.198,20.096-88.114c10.899,11.269,19.9,26.066,22.657,45.361
	c8.551,59.854-68.151,101.224-111.158,94.057c-20.4-3.4-33.962-17.66-42.993-34.629C306.163,400.329,360.744,394.683,392.81,366.755
	z"/>
<path style="fill:#A57B62;" d="M281.295,247.783c-6.706-0.462-12.414-0.736-16.744-0.736v-17.101c0,0,128.259-136.81,205.214-136.81
	c26.457,0,33.762,12.004,34.202,25.652c0.082,2.556-0.189,5.543-0.601,8.66C468.556,123.554,397.569,136.65,281.295,247.783z"/>
<path style="fill:#58413C;" d="M470.053,164.095c1.844-7.935,8.644-31.055,8.245-44.35c-0.351-11.669-5.383-22.063-21.365-25.396
	c4.398-0.746,8.701-1.213,12.831-1.213c26.457,0,33.761,12.004,34.202,25.652c0.414,12.817-6.638,35.103-8.551,42.753
	c-8.551,34.202-25.652,85.506-51.304,94.057c-3.73,1.243-9.493,1.931-16.649,2.221C448.388,242.611,462.601,196.163,470.053,164.095
	z"/>
<path style="fill:#5A464B;" d="M255.999,366.779L255.999,366.779c-9.445,0-17.101-7.656-17.101-17.101V265.62
	c0-9.445,7.656-17.101,17.101-17.101l0,0c9.445,0,17.101,7.656,17.101,17.101v84.058C273.1,359.122,265.444,366.779,255.999,366.779
	z"/>
<path style="fill:#463246;" d="M256,306.901L256,306.901c-9.445,0-17.101-7.656-17.101-17.101v-51.304
	c0-9.445,7.656-17.101,17.101-17.101l0,0c9.445,0,17.101,7.656,17.101,17.101V289.8C273.101,299.244,265.444,306.901,256,306.901z"
	/>
<path d="M511.979,118.53c-0.322-9.964-3.677-17.911-9.971-23.622c-7.159-6.494-18.006-9.787-32.243-9.787
	c-76.06,0-189.178,115.807-203.279,130.561c-0.33-0.153-0.663-0.298-1-0.437c4.428-13.843,18.634-44.835,38.935-65.136
	c3.131-3.131,3.131-8.206,0-11.336c-3.131-3.132-8.206-3.132-11.336,0c-16.313,16.313-29.31,38.967-37.085,56.795
	c-7.775-17.828-20.77-40.482-37.085-56.795c-3.131-3.132-8.206-3.132-11.336,0c-3.131,3.131-3.131,8.205,0,11.336
	c20.302,20.302,34.508,51.294,38.936,65.136c-0.338,0.138-0.67,0.284-1,0.437C231.413,200.928,118.294,85.121,42.235,85.121
	c-14.237,0-25.084,3.293-32.243,9.787c-6.294,5.711-9.649,13.657-9.971,23.622c-0.377,11.675,4.451,29.144,7.335,39.581
	c0.601,2.175,1.111,4.013,1.45,5.375c18.229,72.915,40.811,94.472,56.545,99.717c5.967,1.989,15.063,2.826,26.875,2.826
	c3.305,0,6.847-0.073,10.567-0.198c-14.583,11.572-29.743,29.734-34.263,56.854c-4.041,24.246,4.343,47.582,24.245,67.483
	c22.157,22.157,56.57,36.71,84.579,36.71c4.002,0,7.873-0.297,11.558-0.912c24.666-4.112,42.398-22.716,51.281-53.802
	c0.235-0.824,0.461-1.648,0.68-2.473c4.211,3.186,9.451,5.081,15.126,5.081c5.675,0,10.916-1.894,15.126-5.081
	c0.219,0.825,0.445,1.649,0.68,2.473c8.882,31.087,26.614,49.691,51.281,53.802c3.687,0.615,7.554,0.912,11.558,0.912
	c28.01-0.002,62.424-14.554,84.579-36.71c19.903-19.902,28.285-43.237,24.245-67.483c-4.52-27.12-19.68-45.283-34.263-56.854
	c3.72,0.124,7.262,0.197,10.566,0.197c11.808,0,20.909-0.837,26.875-2.826c15.734-5.245,38.317-26.802,56.545-99.717
	c0.34-1.361,0.85-3.2,1.45-5.375C507.529,147.674,512.355,130.206,511.979,118.53z M246.915,238.497c0-4.96,3.996-8.997,8.939-9.078
	c0.049,0,0.097,0.007,0.146,0.007c0.05,0,0.098-0.006,0.147-0.007c4.941,0.08,8.938,4.118,8.938,9.078v51.304
	c0,5.011-4.075,9.085-9.085,9.085c-5.01,0-9.085-4.075-9.085-9.085V238.497z M70.421,247.994
	c-16.368-5.455-33.588-38.501-46.062-88.395c-0.376-1.505-0.92-3.476-1.551-5.758c-2.468-8.931-7.062-25.556-6.765-34.793
	c0.286-8.848,3.621-17.894,26.19-17.894c29.583,0,72.135,21.721,123.056,62.815c34.656,27.968,62.369,56.289,68.552,62.714
	c-0.624,1.166-1.155,2.388-1.591,3.653c-30.97-27.18-114.084-96.551-170.971-110.774c-4.29-1.072-8.647,1.537-9.721,5.833
	s1.537,8.647,5.833,9.721c51.322,12.83,129.387,77.036,161.501,104.898c-11.154,0.855-24.588,2.183-39.182,3.624
	C139.879,247.574,85.327,252.963,70.421,247.994z M181.288,259.593c18.979-1.875,37.105-3.665,49.595-4.292v60.152
	c0,8.463,0,30.942-6.104,52.308c-0.916,3.208-1.929,6.236-3.034,9.088c-0.031,0.047-0.066,0.091-0.096,0.139
	c-3.412,5.553-11.097,9.337-21.638,10.658c-20.385,2.557-52.622-4.693-75.237-26.643c-28.88-28.03-19.897-69.242-17.625-77.797
	c14.527-13.696,30.501-19.127,31.612-19.492c0.19-0.062,0.372-0.137,0.554-0.211C152.118,262.433,166.154,261.088,181.288,259.593z
	 M186.277,410.154c-24.438,4.072-60.531-9.685-82.166-31.321c-11.217-11.217-23.751-29.605-19.767-53.511
	c0.805-4.83,2.03-9.316,3.573-13.484c0.6,18.75,6.212,41.766,25.69,60.672c23.074,22.395,54.018,31.665,78.05,31.665
	c3.622,0,7.088-0.211,10.346-0.619c0.239-0.03,0.469-0.071,0.706-0.103C197.832,406.897,192.354,409.141,186.277,410.154z
	 M265.085,349.655c0,5.011-4.075,9.085-9.085,9.085c-5.01,0-9.085-4.075-9.085-9.085v-36.444c2.82,1.098,5.882,1.707,9.085,1.707
	c3.203,0,6.265-0.609,9.085-1.707V349.655z M407.887,378.833c-21.636,21.635-57.727,35.391-82.166,31.321
	c-6.076-1.013-11.555-3.257-16.432-6.702c0.237,0.032,0.467,0.073,0.707,0.103c3.259,0.408,6.722,0.619,10.346,0.619
	c24.03-0.001,54.978-9.271,78.05-31.665c19.457-18.884,25.078-41.869,25.688-60.61c1.548,4.155,2.775,8.62,3.574,13.422
	C431.639,349.228,419.105,367.616,407.887,378.833z M373.239,263.716c0.278,0.09,16.756,5.604,31.681,19.722
	c2.392,8.998,11.091,49.629-17.694,77.566c-22.614,21.948-54.855,29.195-75.237,26.643c-10.542-1.32-18.227-5.106-21.638-10.658
	c-0.03-0.048-0.065-0.092-0.096-0.139c-1.105-2.853-2.118-5.881-3.034-9.088c-6.104-21.366-6.104-43.845-6.104-52.308V255.3
	c12.489,0.627,30.615,2.418,49.595,4.292c15.136,1.495,29.171,2.84,41.975,3.912C372.867,263.579,373.049,263.654,373.239,263.716z
	 M489.191,153.841c-0.631,2.282-1.176,4.253-1.551,5.757c-12.473,49.895-29.693,82.94-46.062,88.396
	c-14.907,4.969-69.458-0.42-109.29-4.355c-14.595-1.442-28.03-2.769-39.184-3.624c32.107-27.859,110.157-92.06,161.504-104.897
	c4.296-1.074,6.907-5.426,5.833-9.721c-1.074-4.295-5.429-6.906-9.721-5.833c-56.887,14.222-140.001,83.594-170.971,110.774
	c-0.436-1.267-0.967-2.488-1.591-3.653c6.182-6.427,33.896-34.746,68.552-62.714c50.921-41.094,93.473-62.815,123.056-62.815
	c22.569,0,25.904,9.047,26.19,17.894C496.252,128.286,491.659,144.91,489.191,153.841z"/>
<g>
</g>
<g>
</g>
<g>
</g>
<g>
</g>
<g>
</g>
<g>
</g>
<g>
</g>
<g>
</g>
<g>
</g>
<g>
</g>
<g>
</g>
<g>
</g>
<g>
</g>
<g>
</g>
<g>
</g>
</svg>
