<?xml version="1.0" encoding="iso-8859-1"?>
<!-- Generator: Adobe Illustrator 19.0.0, SVG Export Plug-In . SVG Version: 6.00 Build 0)  -->
<svg version="1.1" id="Layer_1" xmlns="http://www.w3.org/2000/svg" xmlns:xlink="http://www.w3.org/1999/xlink" x="0px" y="0px"
	 viewBox="0 0 511.999 511.999" style="enable-background:new 0 0 511.999 511.999;" xml:space="preserve">
<path style="fill:#FFD77D;" d="M435.55,251.724H76.423c-25.652,17.101-42.753,50.217-42.753,76.956
	c0,25.652,17.101,85.507,94.057,85.507c94.057,0,128.26-102.608,128.26-102.608s34.203,102.608,128.26,102.608
	c76.956,0,94.057-59.855,94.057-85.507C478.304,301.941,461.202,268.825,435.55,251.724z"/>
<path style="fill:#FFC855;" d="M503.956,123.464c0,0-8.551-25.652-59.855-25.652c-76.956,0-153.912,94.057-188.115,136.811
	C221.784,191.869,144.828,97.812,67.872,97.812c-51.304,0-59.855,25.652-59.855,25.652s17.101,8.551,17.101,34.203
	c0,17.101-10.709,61.432,8.551,85.507c34.203,42.753,222.317,17.101,222.317,17.101s188.115,25.652,222.317-17.101
	c19.26-24.074,8.551-68.405,8.551-85.507C486.854,132.014,503.956,123.464,503.956,123.464z"/>
<g>
	<circle style="fill:#FF9B37;" cx="119.175" cy="320.126" r="17.101"/>
	<circle style="fill:#FF9B37;" cx="392.796" cy="320.126" r="17.101"/>
</g>
<path style="fill:#5A464B;" d="M255.987,294.477L255.987,294.477c-9.445,0-17.101-7.656-17.101-17.101v-34.203
	c0-9.445,7.656-17.101,17.101-17.101l0,0c9.445,0,17.101,7.656,17.101,17.101v34.203
	C273.088,286.821,265.432,294.477,255.987,294.477z"/>
<path d="M119.176,295.011c-13.85,0-25.118,11.268-25.118,25.118s11.268,25.118,25.118,25.118s25.118-11.268,25.118-25.118
	S133.026,295.011,119.176,295.011z M119.176,329.214c-5.01,0-9.085-4.075-9.085-9.085c0-5.01,4.075-9.085,9.085-9.085
	c5.01,0,9.085,4.075,9.085,9.085C128.261,325.139,124.185,329.214,119.176,329.214z"/>
<path d="M511.561,120.93c-0.3-0.9-3.226-9.011-13.483-16.704c-12.766-9.575-30.927-14.429-53.976-14.429
	c-35.168,0-72.53,16.836-111.049,50.042c-25.85,22.284-47.971,48.123-64.589,68.566c11.707-37.366,35.55-61.772,35.949-62.175
	c3.125-3.131,3.123-8.202-0.005-11.332c-3.131-3.131-8.207-3.131-11.336,0c-1.178,1.178-23.631,23.981-37.085,60.355
	c-13.454-36.373-35.907-59.177-37.085-60.355c-3.126-3.127-8.193-3.127-11.325-0.004c-3.132,3.123-3.138,8.197-0.019,11.333
	c0.279,0.281,24.214,24.716,35.951,62.178c-16.617-20.443-38.738-46.282-64.589-68.566c-38.517-33.205-75.879-50.043-111.048-50.043
	c-23.049,0-41.21,4.855-53.976,14.429C3.638,111.918,0.713,120.03,0.412,120.93c-1.261,3.785,0.452,7.921,4.02,9.705
	c0.127,0.064,12.67,6.898,12.67,27.033c0,3.372-0.504,8.303-1.09,14.01c-2.251,21.978-5.653,55.192,11.397,76.504
	c5.446,6.807,13.782,12.367,24.944,16.677c-16.874,19.407-26.702,42.595-26.702,63.822c0,15.143,5.206,38.134,19.818,57.242
	c12.656,16.551,37.201,36.28,82.255,36.28c40.995,0,77.541-18.792,105.686-54.345c5.735-7.245,10.559-14.466,14.557-21.162v7.635
	c0,4.427,3.589,8.016,8.016,8.016s8.016-3.589,8.016-8.016v-7.635c3.997,6.695,8.822,13.917,14.557,21.162
	c28.146,35.553,64.691,54.345,105.686,54.345c45.053,0,69.598-19.73,82.255-36.28c14.612-19.108,19.818-42.098,19.818-57.242
	c0-21.227-9.827-44.416-26.702-63.823c11.164-4.31,19.5-9.87,24.945-16.676c17.05-21.311,13.648-54.525,11.397-76.504
	c-0.585-5.708-1.09-10.638-1.09-14.01c0-19.551,11.698-26.489,12.715-27.054C511.248,128.882,512.844,124.779,511.561,120.93z
	 M444.101,105.828c30.865,0,44.016,9.612,49.223,15.628c-5.274,4.911-11.875,13.67-13.87,27.613
	c-12.788-0.905-38.101-1.586-71.873,7.256c-45.081,11.802-89.035,36.266-130.806,72.766c-0.661-0.972-1.387-1.895-2.174-2.764
	C308.402,184.202,373.734,105.828,444.101,105.828z M255.987,286.461c-5.01,0-9.085-4.075-9.085-9.085v-34.203
	c0-5.004,4.067-9.075,9.069-9.084c0.002,0,0.004,0,0.005,0c0.003,0,0.006-0.001,0.01-0.001c0.003,0,0.006,0.001,0.01,0.001
	c0.002,0,0.004,0,0.005,0c5.002,0.009,9.069,4.08,9.069,9.084v34.203C265.072,282.385,260.996,286.461,255.987,286.461z
	 M67.872,105.828c70.367,0,135.699,78.374,169.5,120.5c-0.787,0.869-1.513,1.792-2.174,2.764
	c-41.77-36.501-85.725-60.964-130.806-72.766c-33.771-8.841-59.085-8.162-71.873-7.256c-1.996-13.943-8.597-22.702-13.87-27.613
	C23.856,115.44,37.007,105.828,67.872,105.828z M39.929,238.166c-12.951-16.189-9.952-45.476-7.967-64.856
	c0.3-2.93,0.578-5.662,0.79-8.181c11.587-0.865,35.422-1.713,67.58,6.706c44.881,11.751,88.783,36.941,130.537,74.876v5.917
	c-8.533,1.23-45.057,6.195-84.41,7.113C89.943,261.059,52.115,253.399,39.929,238.166z M220.542,358.286
	c-25.306,31.774-56.533,47.885-92.815,47.885c-30.914,0-54.303-10.089-69.519-29.987c-12.181-15.93-16.522-34.983-16.522-47.503
	c0-27.307,19.118-49.874,27.782-58.693c17.175,3.947,38.732,5.935,64.606,5.935c4.142,0,8.398-0.05,12.76-0.153
	c37.271-0.87,72.128-5.298,84.036-6.951v8.556c0,11.047,7.172,20.445,17.101,23.799v9.017
	C246.067,315.35,237.497,336.998,220.542,358.286z M470.288,328.68c0,12.52-4.341,31.574-16.522,47.503
	c-15.216,19.897-38.606,29.987-69.519,29.987c-36.283,0-67.51-16.111-92.815-47.885c-16.963-21.299-25.53-42.951-27.428-48.096
	v-9.016c9.929-3.354,17.101-12.751,17.101-23.799v-8.556c11.908,1.652,46.765,6.081,84.036,6.951
	c4.366,0.102,8.615,0.153,12.76,0.153c25.871,0,47.428-1.989,64.605-5.936C451.168,278.805,470.288,301.373,470.288,328.68z
	 M472.045,238.166c-12.175,15.218-49.952,22.877-106.378,21.58c-39.37-0.909-76.013-5.886-84.563-7.117v-5.916
	c41.754-37.935,85.655-63.126,130.537-74.876c32.157-8.418,55.993-7.569,67.58-6.706c0.212,2.518,0.49,5.251,0.79,8.18
	C481.996,192.69,484.996,221.977,472.045,238.166z"/>
<path d="M367.68,320.129c0,13.85,11.268,25.118,25.118,25.118s25.118-11.268,25.118-25.118s-11.268-25.118-25.118-25.118
	S367.68,306.279,367.68,320.129z M392.797,311.044c5.01,0,9.085,4.075,9.085,9.085c0,5.01-4.075,9.085-9.085,9.085
	c-5.01,0-9.085-4.075-9.085-9.085C383.712,315.119,387.788,311.044,392.797,311.044z"/>
<g>
</g>
<g>
</g>
<g>
</g>
<g>
</g>
<g>
</g>
<g>
</g>
<g>
</g>
<g>
</g>
<g>
</g>
<g>
</g>
<g>
</g>
<g>
</g>
<g>
</g>
<g>
</g>
<g>
</g>
</svg>
