<?xml version="1.0" encoding="iso-8859-1"?>
<!-- Generator: Adobe Illustrator 19.0.0, SVG Export Plug-In . SVG Version: 6.00 Build 0)  -->
<svg version="1.1" id="Layer_1" xmlns="http://www.w3.org/2000/svg" xmlns:xlink="http://www.w3.org/1999/xlink" x="0px" y="0px"
	 viewBox="0 0 512 512" style="enable-background:new 0 0 512 512;" xml:space="preserve">
<path style="fill:#463246;" d="M264.551,296.841c0,0,51.307,111.165,94.063,111.165s94.063-25.653,94.063-94.063
	c0-42.756-51.307-68.409-51.307-68.409H264.551V296.841"/>
<path style="fill:#594759;" d="M330.823,363.647c17.051,36.327,57.493,40.062,71.148,35.094
	c-13.935,6.333-29.105,9.265-43.356,9.265c-42.756,0-94.063-111.165-94.063-111.165v-12.116
	C288.067,296.841,306.238,311.271,330.823,363.647z"/>
<path style="fill:#FF413C;" d="M358.614,245.534c25.925,20.74,41.537,56.319,43.08,74.383c0.648,7.588-8.318,11.894-14.146,6.993
	c-56.081-47.171-122.997-47.171-122.997-47.171v-34.205L358.614,245.534L358.614,245.534z"/>
<path style="fill:#C53C3C;" d="M381.64,271.188H264.551v-25.653h94.063C367.616,252.735,375.281,261.762,381.64,271.188z"/>
<path style="fill:#463246;" d="M427.023,108.716c34.205-8.551,76.96-8.551,76.96,25.653c0,24.771-17.938,76.449-27.834,103.071
	c-3.734,10.044-13.307,16.645-24.022,16.645H264.551v-25.653C264.551,228.432,348.322,128.391,427.023,108.716z"/>
<g>
	<path style="fill:#FF413C;" d="M264.551,228.432c0,0,15.785-18.84,40.07-41.772c67.56,11.038,96.749,67.426,96.749,67.426H264.551
		V228.432z"/>
	<path style="fill:#FF413C;" d="M327.144,166.528c11.244-9.488,23.487-18.942,36.291-27.503
		c44.96,7.044,93.816,27.225,124.032,66.246c-4.029,12.178-8.098,23.508-11.318,32.17c-3.734,10.044-13.306,16.645-24.022,16.645
		h-0.589c-1.355-2.856-2.856-5.738-4.563-8.551C423.976,207.631,394.655,168.972,327.144,166.528z"/>
</g>
<path style="fill:#463246;" d="M247.449,296.841c0,0-51.307,111.165-94.063,111.165s-94.063-25.653-94.063-94.063
	c0-42.756,51.307-68.409,51.307-68.409h136.818V296.841"/>
<path style="fill:#594759;" d="M181.177,363.647c-17.051,36.327-57.493,40.062-71.148,35.094
	c13.935,6.333,29.105,9.265,43.356,9.265c42.756,0,94.063-111.165,94.063-111.165v-12.116
	C223.933,296.841,205.762,311.271,181.177,363.647z"/>
<path style="fill:#FF413C;" d="M153.386,245.534c-25.925,20.74-41.537,56.319-43.08,74.383c-0.648,7.588,8.318,11.894,14.146,6.993
	c56.081-47.171,122.997-47.171,122.997-47.171v-34.205L153.386,245.534L153.386,245.534z"/>
<path style="fill:#C53C3C;" d="M130.36,271.188h117.089v-25.653h-94.063C144.384,252.735,136.719,261.762,130.36,271.188z"/>
<path style="fill:#463246;" d="M84.977,108.716c-34.205-8.551-76.96-8.551-76.96,25.653c0,24.771,17.938,76.449,27.834,103.071
	c3.734,10.044,13.307,16.645,24.022,16.645h187.576v-25.653C247.449,228.432,163.678,128.391,84.977,108.716z"/>
<path style="fill:#FF413C;" d="M247.449,228.432c0,0-15.785-18.84-40.07-41.772c-67.56,11.038-96.749,67.426-96.749,67.426h136.818
	V228.432z"/>
<path style="fill:#463246;" d="M256,305.392L256,305.392c-9.446,0-17.102-7.656-17.102-17.102v-59.858
	c0-9.446,7.656-17.102,17.102-17.102l0,0c9.446,0,17.102,7.656,17.102,17.102v59.858C273.102,297.735,265.446,305.392,256,305.392z"
	/>
<path style="fill:#FF413C;" d="M184.856,166.528c-11.244-9.488-23.487-18.942-36.291-27.503
	c-44.96,7.044-93.816,27.225-124.032,66.246c4.029,12.178,8.098,23.508,11.319,32.17c3.734,10.044,13.306,16.645,24.022,16.645
	h0.589c1.355-2.856,2.856-5.738,4.563-8.551C88.024,207.631,117.345,168.972,184.856,166.528z"/>
<path d="M499.041,106.027c-20.646-16.12-58.603-8.928-73.962-5.088c-69.583,17.395-134.909,87.178-153.203,108.044
	c-1.923-1.572-4.083-2.862-6.417-3.815c10.559-43.453,46.481-72.787,46.856-73.09c3.457-2.765,4.018-7.81,1.252-11.268
	c-2.766-3.458-7.813-4.019-11.268-1.252c-1.507,1.205-30.763,24.974-46.299,62.931c-15.536-37.957-44.792-61.725-46.299-62.931
	c-3.453-2.764-8.49-2.204-11.258,1.247c-2.767,3.45-2.213,8.494,1.235,11.266c0.383,0.308,36.305,29.644,46.864,73.096
	c-2.333,0.952-4.494,2.243-6.417,3.815c-18.294-20.866-83.621-90.648-153.203-108.044c-15.36-3.841-53.316-11.032-73.962,5.088
	C4.481,112.646,0,122.447,0,134.369c0,25.781,17.753,77.394,28.336,105.865c4.861,13.08,17.535,21.867,31.537,21.867h15.285
	c-11.938,10.751-23.851,27.558-23.851,51.841c0,33.326,11.729,60.599,33.918,78.874c18.171,14.965,42.377,23.206,68.161,23.206
	c20.482,0,43.902-18.4,69.606-54.69c10.64-15.02,19.404-29.886,24.991-39.927v52.396c0,4.427,3.589,8.017,8.017,8.017
	c4.427,0,8.017-3.589,8.017-8.017v-52.396c5.587,10.04,14.351,24.906,24.991,39.927c25.705,36.29,49.124,54.69,69.606,54.69
	c25.783,0,49.99-8.241,68.161-23.206c22.19-18.274,33.918-45.548,33.918-78.874c0-24.283-11.913-41.09-23.851-51.841h15.261
	c0.01,0,0.019,0.002,0.029,0.002c0.059,0,0.118-0.007,0.176-0.01c13.929-0.076,26.516-8.838,31.356-21.86
	C494.246,211.764,512,160.15,512,134.369C512,122.447,507.519,112.646,499.041,106.027z M414.196,213.3
	c11.291,11.865,19.502,24.182,24.562,32.769h-40.905c-7.108-13.803-30.593-52.601-75.338-65.337c1.604-1.447,3.243-2.904,4.914-4.37
	C359.293,173.856,388.471,186.271,414.196,213.3z M393.707,320.6c0.011,0.121,0.004,0.166,0.004,0.161
	c-0.027,0.042-0.183,0.173-0.424,0.211c-0.214,0.031-0.37-0.021-0.578-0.197c-45.999-38.691-93.138-46.868-111.589-48.592v-10.081
	h83.165C385.987,280.587,392.287,303.986,393.707,320.6z M119.292,320.775c-0.208,0.176-0.368,0.228-0.577,0.197
	c-0.243-0.037-0.399-0.169-0.417-0.193c-0.004-0.014-0.012-0.073-0.003-0.178c1.418-16.614,7.718-40.013,29.421-58.498h83.165
	v10.081C212.43,273.907,165.29,282.084,119.292,320.775z M73.243,246.069c5.06-8.587,13.269-20.903,24.562-32.769
	c25.717-27.023,54.889-39.438,86.74-36.941c1.674,1.468,3.316,2.928,4.922,4.377c-44.734,12.741-68.214,51.531-75.321,65.333
	L73.243,246.069L73.243,246.069z M246.914,288.29v-59.858c0-5.005,4.067-9.076,9.07-9.085c0.002,0,0.004,0,0.005,0
	c0.003,0,0.006-0.001,0.01-0.001s0.006,0.001,0.01,0.001c0.002,0,0.003,0,0.005,0c5.002,0.009,9.07,4.08,9.07,9.085v59.858
	c0,5.01-4.076,9.086-9.086,9.086C250.988,297.376,246.914,293.3,246.914,288.29z M308.412,193.966
	c37.859,6.403,60.838,35.706,70.952,52.103h-98.245v-17.637c0-1.719-0.174-3.398-0.506-5.022
	C284.048,219.39,294.027,207.998,308.412,193.966z M231.386,223.41c-0.33,1.623-0.505,3.302-0.505,5.021v17.637h-98.245
	c10.113-16.395,33.087-45.693,70.937-52.101C217.962,207.999,227.949,219.391,231.386,223.41z M22.825,118.664
	c10.307-8.047,33.377-8.878,60.208-2.172c15.759,3.94,31.452,10.961,46.427,19.598c-26.009,5.803-70.689,20.652-100.407,57.136
	c-8.41-26.691-13.02-47.299-13.02-58.856C16.033,127.37,18.256,122.233,22.825,118.664z M43.365,234.648
	c-2.941-7.912-5.664-15.525-8.168-22.808c33.693-50.186,101.437-61.332,114.294-63.02c5.507,3.813,10.86,7.768,16.02,11.785
	c-28.994,2.946-56.194,17.201-79.669,42.009c-16.014,16.924-26.143,34.286-30.62,42.816
	C49.848,243.952,45.351,239.992,43.365,234.648z M209.909,352.066c-21.89,30.904-41.964,47.924-56.523,47.924
	c-21.754,0-42.882-7.125-57.968-19.55c-18.631-15.343-28.078-37.716-28.078-66.496c0-33.188,29.663-48.735,36.41-51.841h21.459
	c-16.195,19.387-21.511,40.98-22.89,57.135c-0.572,6.702,2.783,12.788,8.756,15.885c2.442,1.267,5.086,1.888,7.715,1.887
	c3.873,0,7.712-1.347,10.821-3.963c41.119-34.586,83.909-42.764,101.27-44.694c0.016,6.844,2.786,13.052,7.255,17.578
	C233.817,314.085,223.309,333.148,209.909,352.066z M444.66,313.944c0,28.781-9.447,51.153-28.078,66.496
	c-15.086,12.425-36.215,19.55-57.968,19.55c-26.528,0-65.027-55.998-84.776-94.035c4.484-4.528,7.263-10.747,7.279-17.604
	c17.361,1.93,60.151,10.109,101.27,44.694c3.11,2.617,6.949,3.963,10.823,3.963c2.628,0,5.274-0.621,7.715-1.887
	c5.973-3.097,9.329-9.184,8.756-15.886c-1.379-16.153-6.696-37.747-22.89-57.133h6.003c0.01,0,0.019,0.002,0.029,0.002
	c0.014,0,0.028-0.002,0.042-0.002h15.365C414.8,265.17,444.66,280.933,444.66,313.944z M468.635,234.649
	c-1.986,5.344-6.483,9.305-11.857,10.78c-4.477-8.53-14.606-25.892-30.62-42.816c-23.481-24.815-50.686-39.071-79.69-42.012
	c5.16-4.017,10.513-7.972,16.021-11.785c12.802,1.679,80.604,12.81,114.315,63.023C474.299,219.123,471.576,226.736,468.635,234.649
	z M482.946,193.227c-29.723-36.49-74.412-51.339-100.42-57.139c14.974-8.632,30.671-15.653,46.441-19.596
	c26.831-6.707,49.9-5.876,60.208,2.172c4.571,3.569,6.792,8.706,6.792,15.704C495.967,145.927,491.356,166.535,482.946,193.227z"/>
<g>
</g>
<g>
</g>
<g>
</g>
<g>
</g>
<g>
</g>
<g>
</g>
<g>
</g>
<g>
</g>
<g>
</g>
<g>
</g>
<g>
</g>
<g>
</g>
<g>
</g>
<g>
</g>
<g>
</g>
</svg>
