<?xml version="1.0" encoding="iso-8859-1"?>
<!-- Generator: Adobe Illustrator 19.0.0, SVG Export Plug-In . SVG Version: 6.00 Build 0)  -->
<svg version="1.1" id="Layer_1" xmlns="http://www.w3.org/2000/svg" xmlns:xlink="http://www.w3.org/1999/xlink" x="0px" y="0px"
	 viewBox="0 0 512 512" style="enable-background:new 0 0 512 512;" xml:space="preserve">
<path style="fill:#463246;" d="M121.319,250.062c0,0-59.054,24.057-73.754,67.697c-17.102,50.772,20.843,115.44,55.582,133.612
	c38.137,19.949,82.305,13.361,101.545-6.413C221.559,427.622,256,316.69,256,316.69v-68.409L121.319,250.062z"/>
<path style="fill:#87CDD7;" d="M125.895,250.001c-17.436,18.907-49.311,61.753-34.505,109.978
	c17.686,57.605,80.25,74.568,123.16,69.023c3.773-7.644,7.814-17.092,11.847-27.288c-17.914-2.527-81.562-8.065-98.664-76.474
	c-10.576-42.3,17.102-68.409,26.106-75.609L125.895,250.001z"/>
<path style="fill:#6EB4C8;" d="M91.39,359.979c5.894,19.197,16.832,33.792,30.306,44.633
	c-12.666-65.97-1.264-106.491,11.332-129.478c2.866-5.591,6.196-10.347,9.46-14.265c6.348-7.883,11.35-11.237,11.35-11.237
	l-27.943,0.37C108.461,268.908,76.584,311.753,91.39,359.979z"/>
<path style="fill:#5A464B;" d="M65.024,335.216c-0.957-19.275,6.432-40.916,18.632-63.107
	c-14.748,11.22-29.662,26.561-36.091,45.649c-17.102,50.772,20.843,115.44,55.582,133.612c29.552,15.457,62.674,14.937,85.064,4.739
	C133.15,451.674,69.181,418.976,65.024,335.216z"/>
<g>
	<circle style="fill:#908490;" cx="65.769" cy="346.889" r="7.157"/>
	<circle style="fill:#908490;" cx="70.045" cy="315.442" r="7.157"/>
	<circle style="fill:#908490;" cx="73.219" cy="381.895" r="7.157"/>
	<circle style="fill:#908490;" cx="120.283" cy="433.555" r="7.157"/>
	<circle style="fill:#908490;" cx="93.175" cy="411.824" r="7.157"/>
	<circle style="fill:#908490;" cx="154.455" cy="442.458" r="7.157"/>
</g>
<path style="fill:#463246;" d="M67.875,51.604C34.427,40.454,8.017,60.155,8.017,94.359c0,68.409,34.205,162.472,59.858,162.472
	c17.102,0,171.023-8.551,171.023-8.551v-8.551C213.244,162.769,119.182,68.706,67.875,51.604z"/>
<g>
	<circle style="fill:#908490;" cx="108.578" cy="115.206" r="16.924"/>
	<circle style="fill:#908490;" cx="139.042" cy="145.669" r="11.061"/>
	<circle style="fill:#908490;" cx="79.355" cy="134.008" r="12.403"/>
	<circle style="fill:#908490;" cx="81.492" cy="173.557" r="12.403"/>
	<circle style="fill:#908490;" cx="167.741" cy="162.665" r="8.217"/>
	<circle style="fill:#908490;" cx="49.351" cy="189.847" r="7.157"/>
	<circle style="fill:#908490;" cx="36.877" cy="147.091" r="7.157"/>
	<circle style="fill:#908490;" cx="30.463" cy="99.44" r="7.157"/>
	<circle style="fill:#908490;" cx="70.379" cy="232.239" r="7.157"/>
	<circle style="fill:#908490;" cx="93.25" cy="213.811" r="12.403"/>
</g>
<path style="fill:#463246;" d="M390.681,250.062c0,0,59.054,24.057,73.754,67.697c17.102,50.772-20.843,115.44-55.582,133.612
	c-38.137,19.949-82.305,13.361-101.545-6.413C290.441,427.622,256,316.69,256,316.69v-68.409L390.681,250.062z"/>
<path style="fill:#87CDD7;" d="M386.105,250.001c17.436,18.907,49.311,61.753,34.505,109.978
	c-17.686,57.605-80.25,74.568-123.16,69.023c-3.773-7.644-7.814-17.092-11.847-27.288c17.914-2.527,81.562-8.065,98.664-76.474
	c10.576-42.3-17.102-68.409-26.106-75.609L386.105,250.001z"/>
<path style="fill:#6EB4C8;" d="M420.61,359.979c-5.894,19.197-16.832,33.792-30.306,44.633
	c12.666-65.97,1.264-106.491-11.332-129.478c-2.866-5.591-6.196-10.347-9.46-14.265c-6.348-7.883-11.35-11.237-11.35-11.237
	l27.943,0.37C403.539,268.908,435.416,311.753,420.61,359.979z"/>
<path style="fill:#5A464B;" d="M446.976,335.216c0.957-19.275-6.432-40.916-18.632-63.107c14.748,11.22,29.662,26.561,36.091,45.649
	c17.102,50.772-20.843,115.44-55.582,133.612c-29.552,15.457-62.673,14.937-85.064,4.739
	C378.85,451.674,442.819,418.976,446.976,335.216z"/>
<g>
	<circle style="fill:#908490;" cx="446.231" cy="346.889" r="7.157"/>
	<circle style="fill:#908490;" cx="441.955" cy="315.442" r="7.157"/>
	<circle style="fill:#908490;" cx="438.781" cy="381.895" r="7.157"/>
	<circle style="fill:#908490;" cx="391.717" cy="433.555" r="7.157"/>
	<circle style="fill:#908490;" cx="418.825" cy="411.824" r="7.157"/>
	<circle style="fill:#908490;" cx="357.545" cy="442.458" r="7.157"/>
</g>
<path style="fill:#463246;" d="M444.125,51.604c33.448-11.15,59.858,8.551,59.858,42.756c0,68.409-34.205,162.472-59.858,162.472
	c-17.102,0-171.023-8.551-171.023-8.551v-8.551C298.756,162.769,392.818,68.706,444.125,51.604z"/>
<g>
	<circle style="fill:#908490;" cx="403.422" cy="115.206" r="16.924"/>
	<circle style="fill:#908490;" cx="372.958" cy="145.669" r="11.061"/>
	<circle style="fill:#908490;" cx="432.645" cy="134.008" r="12.403"/>
	<circle style="fill:#908490;" cx="430.508" cy="173.557" r="12.403"/>
	<circle style="fill:#908490;" cx="344.259" cy="162.665" r="8.217"/>
	<circle style="fill:#908490;" cx="462.649" cy="189.847" r="7.157"/>
	<circle style="fill:#908490;" cx="475.123" cy="147.091" r="7.157"/>
	<circle style="fill:#908490;" cx="481.537" cy="99.44" r="7.157"/>
	<circle style="fill:#908490;" cx="441.624" cy="232.239" r="7.157"/>
	<circle style="fill:#908490;" cx="418.75" cy="213.811" r="12.403"/>
</g>
<path style="fill:#463246;" d="M256,308.138L256,308.138c-9.446,0-17.102-7.656-17.102-17.102v-51.307
	c0-9.446,7.656-17.102,17.102-17.102l0,0c9.446,0,17.102,7.656,17.102,17.102v51.307C273.102,300.482,265.446,308.138,256,308.138z"
	/>
<path d="M491.201,204.009C504.225,168.489,512,127.499,512,94.359c0-19.319-7.38-35.278-20.78-44.936
	c-13.439-9.687-31.065-11.612-49.63-5.426c-50.985,16.995-136.829,101.932-169.567,176.402c-2.269-1.884-4.875-3.373-7.712-4.371
	c2.927-34.841,27.343-94.68,57.216-124.553c3.131-3.131,3.131-8.207,0-11.337c-3.131-3.131-8.207-3.131-11.337,0
	c-23.607,23.607-43.63,63.233-54.19,97.934c-10.56-34.702-30.583-74.328-54.19-97.934c-3.131-3.131-8.207-3.131-11.337,0
	c-3.131,3.131-3.131,8.207,0,11.337c29.872,29.872,54.289,89.711,57.216,124.553c-2.837,0.997-5.443,2.486-7.712,4.371
	C207.239,145.93,121.395,60.994,70.41,43.998c-18.563-6.188-36.19-4.261-49.63,5.426C7.38,59.082,0,75.04,0,94.359
	c0,33.14,7.775,74.13,20.799,109.649c18.437,50.284,35.777,60.839,47.076,60.839c2.144,0,6.34-0.128,12.05-0.355
	c-15.31,10.975-32.165,27.577-39.956,50.706c-8.437,25.045-5.348,55.235,8.698,85.01c12.247,25.966,31.7,48.29,50.767,58.263
	c17.488,9.149,35.704,13.089,52.567,13.089c24.454,0,46.06-8.291,58.439-21.016c10.47-10.762,25.926-50.776,37.545-84.05v10.051
	c0,4.427,3.589,8.017,8.017,8.017c4.427,0,8.017-3.589,8.017-8.017v-10.051c11.619,33.275,27.074,73.289,37.545,84.05
	c12.381,12.725,33.982,21.016,58.439,21.016c16.861,0,35.081-3.942,52.567-13.089c19.066-9.973,38.519-32.298,50.767-58.263
	c14.045-29.775,17.133-59.966,8.698-85.01c-7.791-23.129-24.647-39.731-39.956-50.706c5.711,0.226,9.907,0.355,12.05,0.355
	C455.425,264.848,472.763,254.293,491.201,204.009z M444.125,248.814c-12.151,0-96.232-4.482-141.641-6.952
	c10.79-5.106,24.44-10.929,39.753-16.016c33.643-11.174,82.452-20.99,124.189-4.47C456.671,241.005,448.089,248.814,444.125,248.814
	z M412.946,357.627c-7.321,23.847-24.254,41.112-50.328,51.317c-20.96,8.202-43.168,10.33-60.549,11.175
	c-1.953-4.269-4.003-9.04-6.11-14.18c19.626-5.824,91.123-30.354,96.282-79.868c2.96-28.413-8.109-50.794-17.612-64.319
	c1.976,0.102,3.945,0.202,5.895,0.301C381.088,262.458,430.982,298.88,412.946,357.627z M264.017,315.47v-0.635
	c9.93-3.354,17.102-12.752,17.102-23.8v-34.284c13.838,0.762,42.379,2.324,71.869,3.875c5.607,5.717,26.842,29.834,23.306,63.783
	c-2.386,22.902-25.83,39.824-45.076,49.987c-17.328,9.15-34.524,14.613-41.181,16.557
	C280.59,366.266,270.792,337.209,264.017,315.47z M221.963,390.953c-6.66-1.944-23.854-7.407-41.181-16.557
	c-34.871-18.412-43.759-37.345-45.076-49.987c-3.512-33.717,17.712-58.011,23.321-63.784c29.484-1.55,58.018-3.112,71.854-3.874
	v34.284c0,11.048,7.172,20.446,17.102,23.8v0.635C241.208,337.209,231.41,366.266,221.963,390.953z M209.931,420.119
	c-17.38-0.845-39.589-2.974-60.549-11.175c-26.074-10.204-43.007-27.47-50.328-51.317c-7.5-24.428-4.454-47.808,9.052-69.49
	c10.331-16.582,23.219-25.974,23.37-26.083c1.95-0.099,3.919-0.2,5.895-0.301c-9.504,13.525-20.572,35.906-17.612,64.319
	c5.157,49.513,76.655,74.043,96.282,79.868C213.934,411.079,211.884,415.849,209.931,420.119z M493.202,77.781
	c1.815,4.906,2.764,10.488,2.764,16.579c0,7.941-0.51,16.482-1.463,25.35c-12.013-1.972-41.557-5.595-71.489,0.119
	c7.845-6.781,15.284-12.417,22.014-17.047C467.092,87.603,485.317,80.449,493.202,77.781z M397.516,144.929
	c0.224-0.088,0.449-0.177,0.669-0.286c33.92-16.96,79.965-11.324,94.171-9.014c-1.681,10.504-3.909,21.226-6.623,31.792
	c-14.931-6.61-51.35-18.651-100.82-7.465C389.111,154.608,393.324,149.605,397.516,144.929z M369.859,180.834
	c57.169-19.268,99.256-3.441,111.458,2.238c-1.616,5.248-3.333,10.412-5.168,15.417c-1.061,2.895-2.122,5.63-3.178,8.242
	c-0.073-0.031-0.14-0.068-0.214-0.098c-32.39-12.957-72.747-13.379-117.587-1.392C359.929,196.539,364.845,188.41,369.859,180.834z
	 M446.661,59.209c13.543-4.515,26.039-3.37,35.185,3.222c0.71,0.512,1.386,1.062,2.046,1.631
	c-10.029,3.729-27.08,11.254-47.227,25.014c-28.988,19.799-70.273,56.939-102.332,121.432c-0.204,0.41-0.36,0.831-0.488,1.255
	c-20.78,7.138-38.19,15.308-49.743,21.273C312.503,161.905,398.317,75.323,446.661,59.209z M256,230.643
	c5.01,0,9.086,4.076,9.086,9.086v0.117c0,0.014,0,0.028,0,0.042v51.149c0,5.01-4.076,9.086-9.086,9.086
	c-5.01,0-9.086-4.076-9.086-9.086v-51.149c0-0.014,0-0.028,0-0.042v-0.117C246.914,234.719,250.99,230.643,256,230.643z
	 M49.667,56.494c4.954,0,10.23,0.901,15.673,2.715C113.683,75.323,199.497,161.905,227.9,233.035
	c-11.553-5.965-28.962-14.135-49.743-21.273c-0.128-0.424-0.284-0.844-0.488-1.255c-32.059-64.494-73.344-101.633-102.333-121.432
	c-20.147-13.76-37.197-21.285-47.227-25.014c0.66-0.569,1.336-1.119,2.046-1.631C35.625,58.487,42.292,56.494,49.667,56.494z
	 M39.03,206.731c-1.056-2.612-2.116-5.348-3.178-8.242c-1.837-5.012-3.556-10.183-5.175-15.439
	c12.112-5.706,53.953-21.606,111.464-2.216c5.013,7.576,9.93,15.706,14.689,24.407c-44.839-11.988-85.196-11.564-117.587,1.392
	C39.171,206.662,39.102,206.699,39.03,206.731z M16.033,94.359c0-6.091,0.948-11.672,2.764-16.579
	c7.886,2.668,26.111,9.822,48.174,24.999c6.729,4.629,14.169,10.267,22.014,17.047c-29.93-5.712-59.475-2.09-71.489-0.118
	C16.543,110.842,16.033,102.3,16.033,94.359z M19.644,135.627c14.206-2.31,60.249-7.946,94.171,9.014
	c0.22,0.11,0.445,0.199,0.669,0.286c4.191,4.676,8.405,9.679,12.602,15.025c-49.471-11.187-85.889,0.855-100.82,7.465
	C23.553,156.853,21.325,146.131,19.644,135.627z M45.572,221.377c41.737-16.521,90.546-6.705,124.189,4.47
	c15.314,5.087,28.963,10.909,39.753,16.016c-45.409,2.47-129.489,6.952-141.64,6.952C63.911,248.814,55.329,241.005,45.572,221.377z
	 M106.864,444.267c-31.253-16.349-67.536-76.939-51.701-123.949c8.489-25.201,30.934-41.721,46.129-50.4
	c-2.169,2.799-4.346,5.86-6.444,9.186c-16.14,25.575-19.985,54.355-11.121,83.229c8.83,28.76,28.953,49.464,59.813,61.542
	c20.15,7.885,40.896,10.649,58.223,11.829c-1.01,1.54-1.953,2.777-2.814,3.663C182.49,456.279,142.606,462.962,106.864,444.267z
	 M456.838,320.317c15.835,47.01-20.447,107.601-51.701,123.949c-35.742,18.695-75.626,12.013-92.083-4.9
	c-0.863-0.886-1.804-2.123-2.814-3.663c17.327-1.18,38.073-3.944,58.223-11.829c30.859-12.076,50.983-32.782,59.813-61.542
	c8.864-28.874,5.02-57.654-11.121-83.229c-2.098-3.325-4.276-6.386-6.443-9.185C425.907,278.598,448.348,295.118,456.838,320.317z"
	/>
<g>
</g>
<g>
</g>
<g>
</g>
<g>
</g>
<g>
</g>
<g>
</g>
<g>
</g>
<g>
</g>
<g>
</g>
<g>
</g>
<g>
</g>
<g>
</g>
<g>
</g>
<g>
</g>
<g>
</g>
</svg>
