<?xml version="1.0" encoding="iso-8859-1"?>
<!-- Generator: Adobe Illustrator 19.0.0, SVG Export Plug-In . SVG Version: 6.00 Build 0)  -->
<svg version="1.1" id="Layer_1" xmlns="http://www.w3.org/2000/svg" xmlns:xlink="http://www.w3.org/1999/xlink" x="0px" y="0px"
	 viewBox="0 0 511.997 511.997" style="enable-background:new 0 0 511.997 511.997;" xml:space="preserve">
<path style="fill:#58413C;" d="M481.079,42.141c13.698,0.014,24.281,12.161,22.649,25.762l-20.422,170.185
	c-1.388,11.569-11.203,20.276-22.855,20.276H273.298l0,0c0-13.555,2.018-27.023,6.221-39.908
	C296.338,166.883,350.543,42.009,481.079,42.141z"/>
<path style="fill:#73C8EB;" d="M415.747,53.838l23.985,17.989c3.673,2.754,4.555,7.898,2.008,11.717l-8.826,13.239
	c-2.287,3.43-1.835,7.997,1.08,10.913l15.919,15.919c2.915,2.915,3.367,7.482,1.08,10.914l-10.165,15.249
	c-1.937,2.905-1.937,6.69,0,9.595l11.315,16.974c1.722,2.583,1.927,5.889,0.539,8.665l-4.801,9.605
	c-1.026,2.051-1.195,4.427-0.47,6.602l5.25,15.751c1.451,4.352,1.112,9.102-0.938,13.206l-14.093,28.188h-164.33
	c0-13.555,2.018-27.023,6.221-39.909C293.2,176.504,331.626,86.057,415.747,53.838z"/>
<path style="fill:#58413C;" d="M446.276,258.364c20.013,0,35.961,16.459,35.611,36.468c-0.852,48.542-10.53,132.426-64.123,168.316
	c-12.516,8.381-28.785,8.738-42.258,2.001l-52.071-26.035c-9.973-4.987-17.635-13.633-21.386-24.135l-37.4-104.721v-51.894
	L446.276,258.364L446.276,258.364z"/>
<path style="fill:#73C8EB;" d="M445.349,289.248c0.591,2.364,0.158,4.867-1.194,6.895l-12.83,19.244
	c-1.481,2.221-1.853,5-1.009,7.533l5.621,16.863c1.036,3.108,0.227,6.534-2.09,8.851l-18.704,18.704
	c-2.148,2.148-3.012,5.266-2.275,8.213l5.363,21.455c1.159,4.634-1.658,9.33-6.293,10.488l-17.815,4.454
	c-4.635,1.159-7.452,5.854-6.293,10.489l4.609,18.435c1.096,4.384-1.369,8.874-5.655,10.303l-23.008,8.111l-40.341-20.171
	c-9.973-4.986-17.635-13.633-21.386-24.134l-37.4-104.721v-51.894h172.488L445.349,289.248z"/>
<path style="fill:#91DCFF;" d="M444.959,294.128l-171.661-35.763h163.839l8.212,30.883
	C445.761,290.895,445.506,292.553,444.959,294.128z"/>
<path style="fill:#6AAACA;" d="M388.581,425.434L264.649,269.909v-11.545h12.919l121.417,152.368l-4.861,1.215
	c-4.635,1.159-7.452,5.854-6.293,10.489L388.581,425.434z"/>
<path style="fill:#695046;" d="M319.146,392.297c4.011,8.69,9.205,16.784,15.434,24.052l41.357,48.25
	c-0.239,0.307-0.19,0.244-0.43,0.551l-52.071-26.037c-9.973-4.987-17.636-13.634-21.387-24.135l-37.4-104.72v-49.157l8.649-2.736
	v19.398c0,10.012,2.173,19.904,6.369,28.996L319.146,392.297z"/>
<path style="fill:#6AAACA;" d="M328.69,122.188c-8.554,32.031-4.145,54.708,6.926,70.827c29.755-48.639,69.427-77.675,96.057-93.012
	c-0.508,2.733,0.253,5.626,2.32,7.693l7.06,7.061c-25.487,14.709-64.859,43.379-93.187,91.628c2.107,1.755,4.316,3.38,6.6,4.905
	c34.224-12.797,75.571-26.359,98.304-33.66c1.052,2.344,1.081,5.04-0.089,7.382l-4.801,9.605c-0.479,0.959-0.732,1.995-0.834,3.041
	c-21.22,6.907-47.394,15.676-71.319,24.271c28.312,10.448,59.804,10.488,70.549,10.488h4.324l-12.973,25.947h-164.33
	c0-13.555,2.018-27.023,6.221-39.909C287.102,195.203,302.336,157.065,328.69,122.188z"/>
<path style="fill:#58413C;" d="M30.921,42.141C17.223,42.155,6.64,54.302,8.271,67.903l20.422,170.185
	c1.388,11.569,11.203,20.276,22.855,20.276h187.152l0,0c0-13.555-2.018-27.023-6.221-39.908
	C215.662,166.883,161.456,42.009,30.921,42.141z"/>
<path style="fill:#73C8EB;" d="M96.253,53.838L72.269,71.827c-3.673,2.754-4.555,7.898-2.008,11.717l8.826,13.239
	c2.287,3.43,1.835,7.997-1.08,10.913l-15.919,15.919c-2.915,2.915-3.367,7.482-1.08,10.914l10.165,15.249
	c1.937,2.905,1.937,6.69,0,9.595l-11.315,16.974c-1.722,2.583-1.927,5.889-0.539,8.665l4.801,9.605
	c1.026,2.051,1.195,4.427,0.47,6.602l-5.25,15.751c-1.451,4.352-1.112,9.102,0.938,13.206l14.093,28.188h164.33
	c0-13.555-2.018-27.023-6.221-39.909C218.8,176.504,180.373,86.057,96.253,53.838z"/>
<path style="fill:#58413C;" d="M65.723,258.364c-20.013,0-35.961,16.459-35.611,36.468c0.852,48.542,10.53,132.426,64.123,168.316
	c12.516,8.381,28.785,8.738,42.258,2.001l52.071-26.035c9.973-4.987,17.635-13.633,21.386-24.135l37.4-104.721v-51.894
	L65.723,258.364L65.723,258.364z"/>
<path style="fill:#73C8EB;" d="M66.651,289.248c-0.591,2.364-0.158,4.867,1.194,6.895l12.83,19.244c1.481,2.221,1.853,5,1.009,7.533
	l-5.621,16.863c-1.036,3.108-0.227,6.534,2.09,8.851l18.704,18.704c2.148,2.148,3.012,5.266,2.275,8.213l-5.363,21.455
	c-1.159,4.634,1.658,9.33,6.293,10.488l17.815,4.454c4.635,1.159,7.452,5.854,6.293,10.489l-4.609,18.435
	c-1.096,4.384,1.369,8.874,5.655,10.303l23.008,8.111l40.341-20.171c9.973-4.986,17.635-13.633,21.386-24.134l37.4-104.721v-51.894
	H74.864L66.651,289.248z"/>
<path style="fill:#91DCFF;" d="M67.041,294.128l171.661-35.763H74.864l-8.212,30.883C66.239,290.895,66.494,292.553,67.041,294.128z
	"/>
<path style="fill:#6AAACA;" d="M123.418,425.434l123.933-155.524v-11.545h-12.919L113.014,410.733l4.861,1.215
	c4.635,1.159,7.452,5.854,6.293,10.489L123.418,425.434z"/>
<path style="fill:#695046;" d="M192.854,392.297c-4.011,8.69-9.205,16.784-15.434,24.052l-41.357,48.25
	c0.239,0.307,0.19,0.244,0.43,0.551l52.071-26.037c9.973-4.987,17.636-13.634,21.387-24.135l37.4-104.72v-49.157l-8.649-2.736
	v19.398c0,10.012-2.173,19.904-6.369,28.996L192.854,392.297z"/>
<path style="fill:#58413C;" d="M256,318.907L256,318.907c-9.554,0-17.298-7.744-17.298-17.298v-60.543
	c0-9.554,7.744-17.298,17.298-17.298l0,0c9.554,0,17.298,7.744,17.298,17.298v60.543C273.298,311.163,265.554,318.907,256,318.907z"
	/>
<path style="fill:#6AAACA;" d="M183.31,122.188c8.554,32.031,4.145,54.708-6.926,70.827c-29.755-48.639-69.427-77.675-96.057-93.012
	c0.508,2.733-0.253,5.626-2.32,7.693l-7.06,7.061c25.487,14.709,64.859,43.379,93.187,91.628c-2.107,1.755-4.316,3.38-6.6,4.905
	c-34.224-12.797-75.571-26.359-98.304-33.66c-1.052,2.344-1.081,5.04,0.089,7.382l4.801,9.605c0.479,0.959,0.732,1.995,0.834,3.041
	c21.22,6.907,47.394,15.676,71.319,24.271c-28.312,10.448-59.804,10.488-70.549,10.488h-4.324l12.973,25.947h164.33
	c0-13.555-2.018-27.023-6.221-39.909C224.898,195.203,209.664,157.065,183.31,122.188z"/>
<path d="M504.157,44.503c-5.903-6.654-14.391-10.471-23.285-10.471c-39.147,0-74.925,10.896-106.338,32.383
	c-24.948,17.065-47.128,40.78-65.925,70.485c-17.707,27.983-28.965,55.732-35.543,75.17c2.229-44.208,16.168-79.819,16.409-80.428
	c1.664-4.158-0.359-8.877-4.517-10.54c-4.158-1.666-8.877,0.359-10.54,4.517c-0.692,1.731-16.142,40.935-17.736,90.059
	c-0.227-0.006-0.454-0.017-0.683-0.017s-0.455,0.011-0.683,0.017c-1.594-49.124-17.043-88.327-17.736-90.059
	c-1.662-4.155-6.375-6.178-10.534-4.516c-4.157,1.66-6.182,6.376-4.524,10.534c0.154,0.386,14.173,36.083,16.41,80.432
	c-6.578-19.438-17.836-47.186-35.543-75.169c-18.797-29.705-40.977-53.419-65.925-70.485
	C106.052,44.928,70.275,34.032,31.127,34.032c-8.895,0-17.382,3.816-23.285,10.471c-5.903,6.653-8.68,15.535-7.621,24.366
	l20.422,170.185c1.194,9.944,7.009,18.327,15.132,23.114c-0.394,0.372-0.788,0.745-1.17,1.133
	c-8.335,8.484-12.811,19.731-12.602,31.674c0.858,48.963,10.798,136.794,67.718,174.911c8.013,5.366,17.435,8.079,27.029,8.079
	c7.905,0,15.926-1.843,23.366-5.563l52.612-26.306c11.488-5.744,20.354-15.509,24.964-27.497l35.295-91.768
	c0.988,0.117,1.99,0.184,3.009,0.184c1.018,0,2.022-0.067,3.009-0.184l35.295,91.768c4.611,11.987,13.476,21.753,24.964,27.497
	l52.612,26.306c7.44,3.72,15.46,5.563,23.366,5.563c9.593,0,19.017-2.714,27.03-8.079c56.919-38.117,66.858-125.948,67.718-174.911
	c0.21-11.942-4.266-23.191-12.602-31.673c-0.382-0.388-0.776-0.761-1.17-1.133c8.124-4.787,13.939-13.17,15.132-23.114
	l20.422-170.185C512.838,60.037,510.06,51.156,504.157,44.503z M322.557,145.187c17.61-27.733,38.248-49.78,61.34-65.528
	c9.762-6.658,20.003-12.167,30.663-16.575l20.307,15.23c0.229,0.172,0.284,0.494,0.125,0.732l-8.826,13.238
	c-4.416,6.623-3.536,15.516,2.093,21.146l15.919,15.919c0.182,0.182,0.21,0.468,0.068,0.682l-10.166,15.249
	c-3.764,5.647-3.764,12.944,0,18.591l11.315,16.974c0.108,0.161,0.12,0.369,0.035,0.542l-4.802,9.605
	c-2.001,4.003-2.324,8.547-0.909,12.793l6.383,19.15c0.045,0.137,0.036,0.284-0.029,0.413l-13.455,26.909H281.406v-9
	C282.954,234.74,294.347,189.612,322.557,145.187z M437.483,291.216c0.037,0.147,0.01,0.304-0.075,0.43l-12.829,19.243
	c-2.89,4.333-3.602,9.653-1.956,14.595l5.621,16.863c0.066,0.196,0.015,0.408-0.131,0.554l-18.704,18.704
	c-4.139,4.139-5.827,10.236-4.408,15.913l5.363,21.455c0.072,0.29-0.105,0.584-0.394,0.655l-17.815,4.453
	c-4.343,1.085-8.002,3.797-10.305,7.636c-2.303,3.839-2.973,8.343-1.888,12.686l4.609,18.435c0.068,0.272-0.088,0.555-0.354,0.643
	l-11.665,3.889l-31.851-36.96c-5.742-6.663-10.527-14.08-14.223-22.047l-45.075-97.141v-24.75h149.89L437.483,291.216z
	 M139.444,447.369l-11.665-3.889c-0.267-0.089-0.422-0.371-0.354-0.644l4.609-18.434c1.085-4.343,0.415-8.848-1.888-12.686
	c-2.303-3.838-5.962-6.551-10.305-7.636l-17.814-4.453c-0.29-0.072-0.466-0.366-0.394-0.656l5.363-21.454
	c1.42-5.677-0.269-11.776-4.408-15.913L83.886,342.9c-0.146-0.146-0.196-0.358-0.131-0.554l5.621-16.863
	c1.647-4.942,0.934-10.262-1.955-14.594l-12.829-19.243c-0.084-0.126-0.112-0.283-0.075-0.431l6.185-24.742h149.89v24.749
	l-45.075,97.141c-3.696,7.967-8.481,15.384-14.223,22.047L139.444,447.369z M189.443,145.187
	c28.21,44.424,39.602,89.552,41.151,96.069v8.999H79.383l-13.455-26.909c-0.065-0.13-0.076-0.276-0.029-0.413l6.383-19.15
	c1.415-4.246,1.092-8.788-0.909-12.793l-4.801-9.604c-0.086-0.174-0.074-0.382,0.034-0.542l11.315-16.972
	c3.764-5.647,3.764-12.944,0-18.591l-10.167-15.25c-0.142-0.213-0.114-0.499,0.068-0.681l15.919-15.919
	c5.629-5.629,6.509-14.523,2.094-21.144l-8.826-13.239c-0.159-0.239-0.104-0.56,0.125-0.732l20.307-15.232
	c10.66,4.408,20.9,9.917,30.663,16.575C151.195,95.407,171.834,117.455,189.443,145.187z M16.322,66.937
	c-0.516-4.293,0.782-8.438,3.65-11.672c2.869-3.235,6.831-5.015,11.154-5.015c16.645,0,32.604,2.175,47.81,6.441l-11.533,8.65
	c-7.112,5.333-8.819,15.304-3.889,22.701l8.827,13.24c0.142,0.213,0.114,0.499-0.068,0.681l-15.919,15.919
	c-5.629,5.629-6.509,14.523-2.094,21.145l10.166,15.25c0.121,0.182,0.121,0.417,0,0.599L53.11,171.851
	c-3.327,4.99-3.727,11.423-1.044,16.789l4.801,9.604c0.065,0.13,0.076,0.276,0.029,0.413l-6.383,19.15
	c-1.415,4.246-1.092,8.788,0.909,12.793l9.828,19.657h-9.703c-7.542,0-13.905-5.647-14.804-13.134L16.322,66.937z M98.747,456.411
	c-50.792-34.013-59.724-115.923-60.526-161.72c-0.133-7.558,2.692-14.669,7.954-20.023c4.781-4.865,11.048-7.712,17.798-8.133
	l-5.187,20.747c-1.143,4.57-0.299,9.439,2.314,13.36l12.83,19.245c0.093,0.139,0.116,0.31,0.063,0.47l-5.621,16.863
	c-2.02,6.061-0.469,12.632,4.049,17.148l18.704,18.704c0.133,0.134,0.187,0.33,0.142,0.514l-5.363,21.454
	c-1.085,4.343-0.415,8.848,1.888,12.686c2.303,3.838,5.962,6.55,10.305,7.636l17.814,4.453c0.29,0.072,0.466,0.367,0.394,0.656
	l-4.609,18.434c-2.111,8.442,2.703,17.21,10.958,19.962l4.193,1.398C117.147,463.138,106.825,461.821,98.747,456.411z
	 M202.559,412.778c-3.155,8.202-9.221,14.884-17.081,18.814l-19.483,9.741l17.551-20.366c6.718-7.795,12.318-16.475,16.644-25.798
	l36.028-77.644c0.651,0.808,1.35,1.574,2.094,2.295L202.559,412.778z M246.81,301.609v-60.543c0-5.067,4.122-9.189,9.189-9.189
	c5.067,0,9.189,4.122,9.189,9.189v60.543c0,5.067-4.122,9.189-9.189,9.189C250.933,310.798,246.81,306.676,246.81,301.609z
	 M309.44,412.778l-35.753-92.957c0.744-0.722,1.443-1.488,2.094-2.295l36.028,77.644c4.326,9.322,9.926,18.002,16.644,25.798
	l17.551,20.366l-19.483-9.741C318.661,427.662,312.595,420.98,309.44,412.778z M413.254,456.411
	c-8.079,5.41-18.402,6.728-28.098,3.853l4.194-1.398c8.255-2.751,13.069-11.52,10.958-19.962l-4.609-18.435
	c-0.072-0.29,0.105-0.584,0.394-0.655l17.815-4.453c4.343-1.085,8.002-3.797,10.305-7.636s2.973-8.343,1.888-12.686l-5.363-21.455
	c-0.045-0.183,0.009-0.379,0.142-0.512l18.704-18.704c4.517-4.517,6.068-11.087,4.049-17.148l-5.621-16.863
	c-0.053-0.159-0.03-0.331,0.063-0.471l12.83-19.244c2.613-3.92,3.456-8.789,2.314-13.358l-5.187-20.748
	c6.75,0.422,13.018,3.267,17.798,8.133c5.262,5.355,8.087,12.466,7.954,20.023C472.977,340.489,464.045,422.398,413.254,456.411z
	 M495.677,66.937l-20.422,170.185c-0.898,7.488-7.263,13.135-14.804,13.135h-9.703l9.83-19.658
	c2.001-4.003,2.324-8.547,0.909-12.793l-6.383-19.15c-0.045-0.137-0.036-0.284,0.029-0.413l4.802-9.605
	c2.681-5.365,2.281-11.798-1.045-16.789l-11.315-16.974c-0.121-0.182-0.121-0.417,0-0.599l10.166-15.248
	c4.416-6.623,3.536-15.516-2.093-21.146l-15.919-15.919c-0.182-0.182-0.21-0.468-0.068-0.682l8.827-13.239
	c4.93-7.396,3.222-17.367-3.889-22.701l-11.533-8.65c15.205-4.266,31.165-6.441,47.81-6.441c4.323,0,8.285,1.781,11.154,5.015
	C494.895,58.499,496.193,62.644,495.677,66.937z"/>
<g>
</g>
<g>
</g>
<g>
</g>
<g>
</g>
<g>
</g>
<g>
</g>
<g>
</g>
<g>
</g>
<g>
</g>
<g>
</g>
<g>
</g>
<g>
</g>
<g>
</g>
<g>
</g>
<g>
</g>
</svg>
