<?xml version="1.0" encoding="iso-8859-1"?>
<!-- Generator: Adobe Illustrator 19.0.0, SVG Export Plug-In . SVG Version: 6.00 Build 0)  -->
<svg version="1.1" id="Layer_1" xmlns="http://www.w3.org/2000/svg" xmlns:xlink="http://www.w3.org/1999/xlink" x="0px" y="0px"
	 viewBox="0 0 512 512" style="enable-background:new 0 0 512 512;" xml:space="preserve">
<path style="fill:#463246;" d="M392.818,273.103c0,0,31.062,26.531,25.653,42.756c-8.551,25.653-76.96,51.307-102.614,51.307
	s-51.307-68.409-51.307-68.409v-17.102L392.818,273.103z"/>
<path style="fill:#5A464B;" d="M450.776,161.938c53.207,0,53.207,25.653,53.207,34.205c0,25.653-70.942,85.511-106.415,85.511
	c-17.736,0-133.018,0-133.018,0v-17.102C264.551,264.552,370.966,161.938,450.776,161.938z"/>
<path style="fill:#463246;" d="M119.182,273.103c0,0-31.062,26.531-25.653,42.756c8.551,25.653,76.96,51.307,102.614,51.307
	s51.307-68.409,51.307-68.409v-17.102L119.182,273.103z"/>
<g>
	<path style="fill:#5A464B;" d="M61.224,161.938c-53.207,0-53.207,25.653-53.207,34.205c0,25.653,70.942,85.511,106.415,85.511
		c17.736,0,133.018,0,133.018,0v-17.102C247.449,264.552,141.034,161.938,61.224,161.938z"/>
	<path style="fill:#5A464B;" d="M256,298.757L256,298.757c-9.446,0-17.102-7.656-17.102-17.102v-17.102
		c0-9.446,7.656-17.102,17.102-17.102l0,0c9.446,0,17.102,7.656,17.102,17.102v17.102C273.102,291.1,265.446,298.757,256,298.757z"
		/>
</g>
<path d="M503.656,170.617c-9.495-11.078-26.647-16.695-50.98-16.695c-33.647,0-75.152,17.778-123.362,52.841
	c-23.226,16.892-42.168,33.61-52.741,43.404c-2.57-3.663-6.089-6.61-10.2-8.482l31.437-94.313c1.4-4.201-0.87-8.74-5.071-10.141
	c-4.2-1.4-8.74,0.87-10.141,5.071L256,222.099l-26.599-79.797c-1.401-4.201-5.941-6.47-10.141-5.071
	c-4.201,1.4-6.47,5.94-5.071,10.141l31.437,94.313c-4.111,1.873-7.631,4.819-10.2,8.482c-10.573-9.793-29.515-26.513-52.741-43.404
	c-48.21-35.062-89.715-52.841-123.362-52.841c-24.332,0-41.485,5.617-50.98,16.695C0,180.351,0,191.417,0,196.143
	c0,21.69,31.616,50.248,41.305,58.483c7.749,6.587,30.846,25.103,53.133,32.209c-0.258,0.327-0.516,0.653-0.772,0.99
	c-10.299,13.567-9.895,24.112-7.743,30.568c5.803,17.41,29.963,31.388,49.21,40.049c22.249,10.012,46.767,16.74,61.01,16.74
	c13.944,0,27.768-12.525,42.261-38.291c3.729-6.629,6.973-13.215,9.58-18.876v40.599c0,4.427,3.589,8.017,8.017,8.017
	c4.427,0,8.017-3.589,8.017-8.017v-40.599c2.607,5.661,5.852,12.246,9.581,18.876c14.493,25.766,28.317,38.291,42.261,38.291
	c14.242,0,38.76-6.727,61.01-16.74c34.868-15.69,46.006-30.44,49.21-40.049c2.152-6.457,2.556-17.001-7.743-30.568
	c-0.255-0.337-0.513-0.663-0.772-0.99c22.286-7.106,45.383-25.622,53.133-32.209c9.687-8.236,41.303-36.793,41.303-58.483
	C512,191.417,512,180.351,503.656,170.617z M495.967,196.143c0,2.472-1.191,5.965-3.538,10.206
	c-20.295-7.872-34.749-24.213-39.931-36.389c0.059,0,0.119-0.003,0.177-0.003C495.967,169.955,495.967,188.306,495.967,196.143z
	 M401.37,273.638H281.119v-0.076c32.907-9.974,67.912-20.051,73.901-20.914c5.229,0.824,31.951,9.086,59.872,18.172
	C409.771,272.655,405.184,273.638,401.37,273.638z M110.63,273.638c-3.815,0-8.402-0.982-13.523-2.818
	c27.921-9.087,54.642-17.348,59.872-18.172c5.988,0.863,40.994,10.939,73.901,20.914v0.076H110.63z M246.914,281.655v-17.102
	c0-5.005,4.067-9.076,9.068-9.085c0.005,0,0.011,0.001,0.016,0.001H256h0.001c0.005,0,0.011-0.001,0.016-0.001
	c5.002,0.01,9.068,4.081,9.068,9.085v17.102c0,5.01-4.076,9.086-9.086,9.086C250.99,290.74,246.914,286.664,246.914,281.655z
	 M59.324,169.955c0.059,0,0.119,0.003,0.177,0.003c-5.182,12.177-19.636,28.517-39.931,36.389c-2.347-4.24-3.538-7.733-3.538-10.206
	C16.033,188.306,16.033,169.955,59.324,169.955z M28.908,219.668c18.452-8.527,40.821-26.279,47.137-48.121
	c17.927,3.236,36.849,11.15,55.118,21.177c-27.923,15.074-68.409,27.686-68.863,27.827c-4.23,1.309-6.597,5.799-5.289,10.027
	c1.065,3.441,4.233,5.65,7.655,5.65c0.785,0,1.582-0.115,2.371-0.36c2.109-0.652,50.83-15.827,80.041-33.808
	c26.122,16.264,49.754,35.437,65.635,49.305c-24.891-7.381-51.034-14.783-55.763-14.783c-6.615,0-52.623,14.908-80.302,24.079
	c-8.065-4.939-16.569-11.121-24.959-18.251C42.26,234.395,34.644,226.618,28.908,219.668z M196.142,359.149
	c-11.803,0-34.694-6.447-54.43-15.327c-22.068-9.931-37.618-21.617-40.577-30.498c-0.267-0.802-0.395-1.645-0.412-2.516
	c6.506,6.719,17.448,14.635,35.153,19.225c30.567,7.925,63.485,10.129,81.306,10.73
	C209.869,351.494,202.315,359.149,196.142,359.149z M226.702,324.932c-11.911-0.134-51.603-1.294-86.803-10.42
	c-20.03-5.193-28.521-14.955-31.487-19.441c1.747-2.06,3.564-3.911,5.192-5.4H232.2c1.29,3.82,3.473,7.23,6.302,9.981
	C235.323,307.644,231.232,316.518,226.702,324.932z M273.499,299.651c2.829-2.751,5.011-6.161,6.301-9.98h118.61
	c1.63,1.483,3.447,3.325,5.193,5.378c-2.952,4.475-11.439,14.262-31.502,19.464c-35.133,9.108-74.856,10.28-86.791,10.417
	C280.778,316.516,276.682,307.641,273.499,299.651z M410.867,313.324c-2.961,8.88-18.509,20.567-40.577,30.498
	c-19.736,8.881-42.627,15.327-54.43,15.327c-6.161,0-13.712-7.655-21.025-18.387c17.826-0.602,50.734-2.807,81.293-10.73
	c17.71-4.591,28.653-12.51,35.159-19.232C411.265,311.674,411.135,312.52,410.867,313.324z M460.312,242.411
	c-8.389,7.131-16.894,13.312-24.959,18.251c-27.68-9.172-73.686-24.079-80.302-24.079c-4.729,0-30.872,7.402-55.763,14.783
	c15.882-13.868,39.515-33.042,65.635-49.305c29.211,17.981,77.932,33.156,80.041,33.808c0.789,0.245,1.586,0.36,2.371,0.36
	c3.423,0,6.592-2.209,7.656-5.65c1.308-4.23-1.06-8.719-5.29-10.027c-0.454-0.14-40.925-12.741-68.862-27.827
	c18.268-10.028,37.19-17.942,55.117-21.177c6.316,21.842,28.685,39.594,47.137,48.121
	C477.356,226.618,469.74,234.395,460.312,242.411z"/>
<g>
</g>
<g>
</g>
<g>
</g>
<g>
</g>
<g>
</g>
<g>
</g>
<g>
</g>
<g>
</g>
<g>
</g>
<g>
</g>
<g>
</g>
<g>
</g>
<g>
</g>
<g>
</g>
<g>
</g>
</svg>
