<?xml version="1.0" encoding="iso-8859-1"?>
<!-- Generator: Adobe Illustrator 19.0.0, SVG Export Plug-In . SVG Version: 6.00 Build 0)  -->
<svg version="1.1" id="Layer_1" xmlns="http://www.w3.org/2000/svg" xmlns:xlink="http://www.w3.org/1999/xlink" x="0px" y="0px"
	 viewBox="0 0 512 512" style="enable-background:new 0 0 512 512;" xml:space="preserve">
<path style="fill:#58413C;" d="M265.976,311.818c0,0,49.882,159.621,118.291,125.416c0,0,34.205,8.551,42.756-25.653
	c0,0,25.653,0,25.653-34.205c0,0,25.653-8.551,17.102-42.756c0,0,37.055-34.205-77.673-94.776l-127.554,0.713L265.976,311.818z"/>
<path style="fill:#695046;" d="M300.327,388.759c-21.531-35.98-34.35-76.941-34.35-76.941l-1.426-71.26l127.555-0.713
	c21.681,11.447,37.928,21.949,50.041,31.459c-19.286,43.882-74.983,13.82-74.983,63.317
	C367.165,375.712,328.795,389.339,300.327,388.759z"/>
<path style="fill:#A5907D;" d="M375.716,240.558v-0.621l16.39-0.092c21.681,11.447,37.928,21.949,50.041,31.459
	c-10.109,23-30.186,25.706-47.037,30.181C402.932,283.492,401.185,259.659,375.716,240.558z"/>
<path style="fill:#58413C;" d="M246.024,311.818c0,0-49.882,159.621-118.291,125.416c0,0-34.205,8.551-42.756-25.653
	c0,0-25.653,0-25.653-34.205c0,0-25.653-8.551-17.102-42.756c0,0-37.055-34.205,77.673-94.776l127.554,0.713L246.024,311.818z"/>
<path style="fill:#695046;" d="M211.673,388.759c21.531-35.98,34.35-76.941,34.35-76.941l1.426-71.26l-127.555-0.713
	c-21.681,11.447-37.928,21.949-50.041,31.459c19.286,43.882,74.983,13.82,74.983,63.317
	C144.835,375.712,183.205,389.339,211.673,388.759z"/>
<path style="fill:#A5907D;" d="M136.284,240.558v-0.621l-16.39-0.092c-21.681,11.447-37.928,21.949-50.041,31.459
	c10.109,23,30.186,25.706,47.037,30.181C109.068,283.492,110.815,259.659,136.284,240.558z"/>
<path style="fill:#58413C;" d="M42.221,69.535c-12.465,0-34.205,8.551-34.205,42.756s0,102.614,25.653,119.716
	s85.511,17.102,128.267,17.102s85.511-8.551,85.511-8.551v-8.551C247.449,232.007,170.489,69.535,42.221,69.535z"/>
<path style="fill:#695046;" d="M20.455,214.55c3.403,7.601,7.683,13.768,13.215,17.456c25.653,17.102,85.511,17.102,128.267,17.102
	s85.511-8.551,85.511-8.551v-8.551c0,0-25.649-54.035-71.934-99.785C131.36,98.751,79.623,87.894,68.409,94.654
	c-8.828,5.321,2.672,13.361,22.981,64.668C108.036,201.375,56.834,222.223,20.455,214.55z"/>
<g>
	<circle style="fill:#E1D0B4;" cx="46.315" cy="131.709" r="8.195"/>
	<circle style="fill:#E1D0B4;" cx="34.386" cy="114.158" r="5.7"/>
	<circle style="fill:#E1D0B4;" cx="27.613" cy="99.108" r="4.989"/>
	<path style="fill:#E1D0B4;" d="M153.386,189.251c-29.514-31.975-69.06-40.153-101.335-73.05l3.532,4.997
		c30.106,120.518,140.426,125.506,140.426,125.506C162.294,232.362,169.792,207.022,153.386,189.251z"/>
</g>
<path style="fill:#58413C;" d="M469.779,69.535c12.465,0,34.205,8.551,34.205,42.756s0,102.614-25.653,119.716
	s-85.511,17.102-128.267,17.102s-85.512-8.551-85.512-8.551v-8.551C264.551,232.007,341.511,69.535,469.779,69.535z"/>
<path style="fill:#695046;" d="M491.545,214.55c-3.403,7.601-7.683,13.768-13.215,17.456
	c-25.653,17.102-85.511,17.102-128.267,17.102s-85.512-8.551-85.512-8.551v-8.551c0,0,25.649-54.035,71.934-99.785
	c44.155-33.47,95.892-44.327,107.105-37.567c8.828,5.321-2.672,13.361-22.981,64.668
	C403.964,201.375,455.166,222.223,491.545,214.55z"/>
<g>
	<circle style="fill:#E1D0B4;" cx="465.685" cy="131.709" r="8.195"/>
	<circle style="fill:#E1D0B4;" cx="477.614" cy="114.158" r="5.7"/>
	<circle style="fill:#E1D0B4;" cx="484.391" cy="99.108" r="4.989"/>
	<path style="fill:#E1D0B4;" d="M358.614,189.251c29.514-31.975,69.06-40.153,101.335-73.05l-3.532,4.997
		c-30.106,120.518-140.426,125.506-140.426,125.506C349.706,232.362,342.208,207.022,358.614,189.251z"/>
</g>
<path style="fill:#58413C;" d="M256,343.171L256,343.171c-9.446,0-17.102-7.656-17.102-17.102v-94.063
	c0-9.446,7.656-17.102,17.102-17.102l0,0c9.446,0,17.102,7.656,17.102,17.102v94.063C273.102,335.514,265.446,343.171,256,343.171z"
	/>
<path d="M512,112.29c0-40.079-26.54-50.772-42.221-50.772c-30.709,0-60.627,8.466-88.918,25.163
	c-22.388,13.212-43.784,31.576-63.595,54.583c-24.295,28.213-40.035,56.133-47.137,69.987c-1.665-1.137-3.474-2.08-5.393-2.794
	c3.298-17.496,17.777-51.484,39.689-73.396c3.131-3.131,3.131-8.206,0-11.337s-8.207-3.131-11.337,0
	c-16.474,16.474-29.376,39.148-37.087,58.731c-7.711-19.584-20.613-42.258-37.087-58.731c-3.131-3.131-8.207-3.131-11.337,0
	c-3.131,3.131-3.131,8.207,0,11.337c21.911,21.912,36.39,55.9,39.689,73.396c-1.919,0.714-3.727,1.656-5.393,2.794
	c-7.102-13.854-22.842-41.773-47.137-69.987c-19.811-23.007-41.207-41.372-63.595-54.583c-28.294-16.697-58.211-25.163-88.92-25.163
	C26.54,61.518,0,72.211,0,112.29c0,37.361,0,106.904,29.224,126.386c12.867,8.578,32.882,13.164,55.069,15.621
	c-33.408,19.827-51.919,39.686-55.085,59.2c-1.758,10.832,1.629,18.665,4.39,22.992C28.645,362.114,41,376.58,51.49,382.575
	c1.894,26.206,18.094,33.864,27.25,36.1c6.234,17.705,19.02,24.148,29.082,26.385c7.849,1.744,14.953,1.139,18.84,0.537
	c7.267,3.257,14.547,4.886,21.793,4.886c6.902,0,13.773-1.478,20.569-4.437c36.301-15.801,60.942-71.282,71.612-100.124
	c4.251,3.298,9.58,5.268,15.364,5.268s11.113-1.97,15.364-5.268c10.67,28.842,35.312,84.324,71.612,100.124
	c6.797,2.959,13.667,4.437,20.569,4.437c7.245,0,14.525-1.629,21.793-4.886c3.889,0.603,10.993,1.208,18.84-0.537
	c10.063-2.236,22.849-8.678,29.082-26.385c9.156-2.237,25.356-9.895,27.25-36.1c10.489-5.995,22.844-20.462,17.892-46.086
	c2.761-4.327,6.148-12.16,4.39-22.992c-3.166-19.514-21.676-39.373-55.085-59.2c22.186-2.455,42.201-7.042,55.069-15.621
	C512,219.195,512,149.651,512,112.29z M329.685,151.413c18.649-21.599,38.675-38.771,59.521-51.04
	c25.73-15.143,52.84-22.822,80.573-22.822c2.899,0,5.462,0.421,7.755,1.143c-19.612,36.622-45.411,51.463-72.671,67.134
	c-17.888,10.283-36.384,20.916-52.141,37.985c-7.17,7.769-10.312,16.341-13.348,24.632c-4.513,12.32-8.427,22.977-25.932,30.622
	c-14.334-1.54-25.776-3.615-32.322-4.953v-2.108c0-1.881-0.215-3.713-0.608-5.477C281.804,223.693,298.724,187.271,329.685,151.413z
	 M345.901,232.484c4.039-6.272,6.397-12.71,8.528-18.525c2.724-7.435,5.077-13.856,10.075-19.272
	c14.092-15.266,30.732-24.831,48.349-34.959c9.525-5.476,19.157-11.013,28.576-17.529c-13.76,35.728-37.106,62.419-69.623,79.524
	C362.647,226.541,353.781,230.002,345.901,232.484z M122.794,100.373c20.846,12.27,40.872,29.442,59.521,51.04
	c30.962,35.858,47.88,72.28,49.174,75.116c-0.394,1.764-0.608,3.596-0.608,5.477v2.111c-6.539,1.339-17.969,3.415-32.313,4.954
	c-17.514-7.646-21.429-18.305-25.943-30.627c-3.037-8.29-6.178-16.863-13.348-24.632c-15.757-17.069-34.253-27.703-52.141-37.985
	c-27.259-15.67-53.058-30.512-72.671-67.134c2.293-0.723,4.856-1.143,7.755-1.143C69.955,77.551,97.064,85.23,122.794,100.373z
	 M140.194,221.724C107.676,204.619,84.33,177.927,70.57,142.2c9.42,6.517,19.051,12.053,28.576,17.529
	c17.618,10.128,34.257,19.693,48.349,34.959c4.999,5.415,7.352,11.837,10.075,19.272c2.13,5.815,4.488,12.252,8.528,18.525
	C158.219,230.001,149.352,226.54,140.194,221.724z M16.033,112.29c0-2.113,0.26-13.981,5.812-23.264
	c7.918,14.178,16.734,25.353,26.079,34.586c16.347,64.832,55.477,97.039,85.461,112.644c3.382,1.759,6.716,3.344,9.985,4.785
	c-38.125-0.285-85.061-2.246-105.253-15.705C16.033,210.614,16.033,141.712,16.033,112.29z M162.626,431.343
	c-10.34,4.501-20.582,4.083-31.308-1.281c-1.686-0.843-3.657-1.055-5.491-0.617c-2.715,0.65-26.717,5.611-33.073-19.811
	c-0.912-3.645-3.889-6.18-7.675-6.071c-0.046-0.001-4.661-0.161-8.994-3.285c-5.803-4.183-8.746-11.888-8.746-22.903
	c0-3.451-2.208-6.515-5.481-7.605c-0.76-0.253-18.534-6.511-11.86-33.206c0.705-2.822,0.062-5.577-2.053-7.561
	c-0.534-0.616-4.32-5.325-2.829-13.409c4.355-23.633,44.821-47.146,68.791-59.158c16.611,0.686,33.234,0.69,48.032,0.69
	c29.934,0,55.538-4.039,68.944-6.645v74.395c-1.475,4.763-7.931,24.794-18.542,46.509
	C196.777,403.227,179.586,423.961,162.626,431.343z M256,335.155c-5.01,0-9.086-4.076-9.086-9.086v-0.095c0-0.016,0-0.033,0-0.049
	v-93.918c0-5.011,4.076-9.086,9.086-9.086c5.01,0,9.086,4.076,9.086,9.086v93.918c0,0.016,0,0.033,0,0.049v0.095
	C265.086,331.079,261.01,335.155,256,335.155z M466.884,315.593c1.49,8.084-2.296,12.795-2.829,13.409
	c-2.115,1.984-2.759,4.739-2.053,7.561c6.45,25.799-10.044,32.551-11.86,33.206c-3.274,1.091-5.481,4.155-5.481,7.605
	c0,11.015-2.943,18.721-8.747,22.904c-4.332,3.122-8.948,3.283-8.89,3.284c-3.766-0.102-6.866,2.426-7.777,6.072
	c-6.355,25.42-30.357,20.461-33.034,19.82c-1.856-0.464-3.817-0.248-5.529,0.607c-10.722,5.362-20.959,5.782-31.296,1.285
	c-16.924-7.361-34.083-28.022-49.619-59.751c-10.647-21.742-17.163-41.94-18.647-46.723V250.48
	c13.406,2.606,39.009,6.645,68.944,6.645c14.798,0,31.421-0.004,48.032-0.69C422.063,268.447,462.529,291.96,466.884,315.593z
	 M473.883,225.336c-20.19,13.461-67.126,15.42-105.253,15.705c3.269-1.442,6.603-3.026,9.985-4.785
	c29.985-15.605,69.115-47.813,85.461-112.644c9.345-9.233,18.16-20.408,26.079-34.586c5.551,9.284,5.812,21.151,5.812,23.264
	C495.967,141.712,495.967,210.614,473.883,225.336z"/>
<g>
</g>
<g>
</g>
<g>
</g>
<g>
</g>
<g>
</g>
<g>
</g>
<g>
</g>
<g>
</g>
<g>
</g>
<g>
</g>
<g>
</g>
<g>
</g>
<g>
</g>
<g>
</g>
<g>
</g>
</svg>
