<?xml version="1.0" encoding="iso-8859-1"?>
<!-- Generator: Adobe Illustrator 19.0.0, SVG Export Plug-In . SVG Version: 6.00 Build 0)  -->
<svg version="1.1" id="Layer_1" xmlns="http://www.w3.org/2000/svg" xmlns:xlink="http://www.w3.org/1999/xlink" x="0px" y="0px"
	 viewBox="0 0 512 512" style="enable-background:new 0 0 512 512;" xml:space="preserve">
<path style="fill:#FF9B46;" d="M388.592,238.572c55.532,14.349,49.119,71.712,49.119,71.712c-17.459,5.344-9.62,32.423-9.62,32.423
	c-19.952,4.632-9.62,45.962-9.62,45.962c-14.964-9.62-32.332-6.701-40.975,4.632c-6.041,7.923-4.133,18.929,0.583,29.573h-27.415
	c-5.719,0-11.058-2.858-14.23-7.616l-80.434-120.651v-76.96L388.592,238.572z"/>
<path style="fill:#E17837;" d="M437.711,310.285c-17.459,5.344-9.62,32.423-9.62,32.423c-19.952,4.632-9.62,45.962-9.62,45.962
	c-14.964-9.62-32.332-6.701-40.975,4.632c-6.041,7.923-4.133,18.929,0.583,29.573h-27.415c-5.719,0-11.058-2.858-14.23-7.616
	l-3.991-5.988c11.705-20.294,18.04-43.69,12.566-69.613c-11.322-53.617-12.042-87.97-3.699-108.547l47.283,7.462
	C444.125,252.921,437.711,310.285,437.711,310.285z"/>
<path style="fill:#695046;" d="M437.711,310.285c-17.459,5.344-9.62,32.423-9.62,32.423c-19.952,4.632-9.62,45.962-9.62,45.962
	c-14.595-9.382-31.414-6.772-40.256,3.872c7.087-13.185,22.985-49.872,6.052-89.382c-13.749-32.082-3.772-54.541,3.052-64.787
	l1.273,0.201C444.125,252.921,437.711,310.285,437.711,310.285z"/>
<g>
	<path style="fill:#FFDE9B;" d="M255.999,258.309c8.582,4.547,15.499,9.576,15.499,9.576s60.392,76.247,31.423,97.105
		l-46.922-70.383L255.999,258.309L255.999,258.309z"/>
	<path style="fill:#FFDE9B;" d="M350.3,224.939c-34.442,7.317-42.637,49.716-94.299,21.402v-33.876
		c0.314,0.106,0.643,0.207,1.111,0.271L350.3,224.939z"/>
</g>
<path style="fill:#FFC864;" d="M488.117,54.93c9.321-0.327,16.889,7.84,15.755,17.099c-1.413,11.53-5.638,28.849-16.992,51.557
	c-17.102,34.204-17.102,59.858-17.102,94.062c0,17.102-8.551,25.653-25.653,25.653c-25.653,0-171.022-17.102-171.022-17.102v-25.653
	C273.102,200.545,367.357,59.161,488.117,54.93z"/>
<path style="fill:#FF9B46;" d="M358.536,109.377c35.78-28.339,80.489-52.727,129.581-54.447c9.321-0.327,16.889,7.84,15.755,17.099
	c-1.413,11.53-5.638,28.849-16.992,51.557c-17.102,34.204-17.102,59.858-17.102,94.062c0,17.102-8.551,25.653-25.653,25.653
	c-9.537,0-35.624-2.364-64.63-5.335C371.535,158.859,316.392,166.875,358.536,109.377z"/>
<g>
	<circle style="fill:#E17837;" cx="409.833" cy="300.934" r="7.215"/>
	<circle style="fill:#E17837;" cx="402.789" cy="276.521" r="8.907"/>
	<path style="fill:#E17837;" d="M378.81,94.504c19.899-13.467,41.923-25.001,65.464-32.106c11.34,9.841,16.351,34.179,7.14,56.888
		c-27.05,66.693,4.431,78.298-9.14,123.967c-6.687-0.148-18.815-1.076-33.797-2.454l-0.009-0.423
		c-1.105-31.008-23.258-52.119-12.071-88.005c-19.538-12.397-24.348-38.407-17.591-57.866
		C378.808,94.505,378.809,94.505,378.81,94.504z"/>
</g>
<path style="fill:#695046;" d="M451.415,119.287c9.214-22.718,4.196-47.067-7.153-56.901c-0.001,0,0,0-0.002,0
	c14.118-4.262,28.78-6.929,43.855-7.458c9.321-0.327,16.889,7.84,15.754,17.099c-1.412,11.53-5.637,28.849-16.992,51.557
	c-17.102,34.204-17.102,59.858-17.102,94.062c0,17.102-8.551,25.653-25.653,25.653c-0.541,0-1.208-0.018-1.852-0.033
	C455.855,197.587,424.363,185.987,451.415,119.287z"/>
<path style="fill:#FF9B46;" d="M123.407,238.572c-55.532,14.349-49.119,71.712-49.119,71.712c17.459,5.344,9.62,32.423,9.62,32.423
	c19.952,4.632,9.62,45.962,9.62,45.962c14.964-9.62,32.332-6.701,40.975,4.632c6.041,7.923,4.133,18.929-0.583,29.573h27.415
	c5.719,0,11.058-2.858,14.23-7.616l80.434-120.651v-76.96L123.407,238.572z"/>
<path style="fill:#E17837;" d="M74.289,310.285c17.459,5.344,9.62,32.423,9.62,32.423c19.952,4.632,9.62,45.962,9.62,45.962
	c14.964-9.62,32.332-6.701,40.975,4.632c6.041,7.923,4.133,18.929-0.583,29.573h27.415c5.719,0,11.058-2.858,14.23-7.616
	l3.991-5.988c-11.705-20.294-18.04-43.69-12.566-69.613c11.322-53.617,12.042-87.97,3.699-108.547l-47.283,7.462
	C67.875,252.921,74.289,310.285,74.289,310.285z"/>
<path style="fill:#695046;" d="M74.289,310.285c17.459,5.344,9.62,32.423,9.62,32.423c19.952,4.632,9.62,45.962,9.62,45.962
	c14.595-9.382,31.414-6.772,40.256,3.872c-7.087-13.185-22.985-49.872-6.052-89.382c13.749-32.082,3.772-54.541-3.052-64.787
	l-1.273,0.201C67.875,252.921,74.289,310.285,74.289,310.285z"/>
<g>
	<path style="fill:#FFDE9B;" d="M255.999,258.309c-8.582,4.547-15.499,9.576-15.499,9.576s-60.392,76.247-31.423,97.105
		l46.922-70.383V258.309z"/>
	<path style="fill:#FFDE9B;" d="M161.7,224.939c34.442,7.317,42.637,49.716,94.299,21.402v-33.876
		c-0.314,0.106-0.643,0.207-1.111,0.271L161.7,224.939z"/>
</g>
<path style="fill:#FFC864;" d="M23.883,54.93c-9.321-0.327-16.889,7.84-15.755,17.099c1.413,11.53,5.638,28.849,16.992,51.557
	c17.102,34.204,17.102,59.858,17.102,94.062c0,17.102,8.551,25.653,25.653,25.653c25.653,0,171.022-17.102,171.022-17.102v-25.653
	C238.897,200.545,144.642,59.161,23.883,54.93z"/>
<path style="fill:#FF9B46;" d="M153.464,109.377C117.684,81.037,72.974,56.65,23.883,54.93c-9.321-0.327-16.889,7.84-15.755,17.099
	c1.413,11.53,5.638,28.849,16.992,51.557c17.102,34.204,17.102,59.858,17.102,94.062c0,17.102,8.551,25.653,25.653,25.653
	c9.537,0,35.624-2.364,64.63-5.335C140.465,158.859,195.607,166.875,153.464,109.377z"/>
<circle style="fill:#6F463C;" cx="255.998" cy="191.993" r="17.102"/>
<path style="fill:#9B6450;" d="M255.999,294.607L255.999,294.607c-14.168,0-25.653-11.485-25.653-25.653v-42.755
	c0-14.168,11.485-25.653,25.653-25.653l0,0c14.168,0,25.653,11.485,25.653,25.653v42.755
	C281.653,283.122,270.168,294.607,255.999,294.607z"/>
<g>
	<circle style="fill:#E17837;" cx="102.164" cy="300.934" r="7.215"/>
	<circle style="fill:#E17837;" cx="109.208" cy="276.521" r="8.907"/>
	<path style="fill:#E17837;" d="M133.189,94.504c-19.899-13.467-41.923-25.001-65.464-32.106
		c-11.34,9.841-16.351,34.179-7.14,56.888c27.05,66.693-4.431,78.298,9.14,123.967c6.687-0.148,18.815-1.076,33.797-2.454
		l0.009-0.423c1.105-31.008,23.258-52.119,12.071-88.005c19.538-12.397,24.348-38.407,17.591-57.866
		C133.191,94.505,133.19,94.505,133.189,94.504z"/>
</g>
<path style="fill:#695046;" d="M60.584,119.287c-9.214-22.718-4.196-47.067,7.153-56.901c0.001,0,0,0,0.002,0
	c-14.118-4.262-28.78-6.929-43.855-7.458c-9.321-0.327-16.889,7.84-15.754,17.099c1.412,11.53,5.637,28.849,16.992,51.557
	c17.102,34.204,17.102,59.858,17.102,94.062c0,17.102,8.551,25.653,25.653,25.653c0.541,0,1.208-0.018,1.852-0.033
	C56.145,197.587,87.637,185.987,60.584,119.287z"/>
<path d="M505.861,54.509c-4.64-5.062-11.21-7.82-18.026-7.59c-28.782,1.009-58.406,9.584-88.05,25.485
	c-23.445,12.577-46.967,29.75-69.914,51.045c-23.246,21.572-41.006,42.77-51.75,56.66c-1.154-2.141-2.611-4.096-4.312-5.808
	l32.116-64.232c1.981-3.96,0.375-8.776-3.585-10.755c-3.96-1.982-8.776-0.375-10.755,3.585l-32.111,64.223
	c-1.136-0.158-2.295-0.246-3.474-0.246c-1.179,0-2.338,0.088-3.474,0.246l-32.111-64.223c-1.98-3.96-6.795-5.566-10.755-3.585
	c-3.96,1.98-5.566,6.795-3.585,10.755l32.116,64.232c-1.701,1.712-3.157,3.667-4.312,5.808
	c-10.744-13.889-28.503-35.086-51.75-56.66c-22.947-21.294-46.469-38.468-69.914-51.045C82.57,56.501,52.946,47.926,24.164,46.918
	c-6.808-0.23-13.386,2.528-18.026,7.59c-4.617,5.034-6.791,11.776-5.968,18.494c2.004,16.357,7.986,34.582,17.779,54.167
	c16.256,32.512,16.256,56.825,16.256,90.477c0,21.398,12.272,33.67,33.67,33.67c4.113,0,10.919-0.418,19.468-1.121
	c-8.913,8.77-14.01,18.817-16.92,27.494c-5.836,17.406-4.173,32.85-4.099,33.499c0.36,3.171,2.566,5.828,5.619,6.762
	c9.385,2.873,4.316,22.353,4.266,22.528c-0.612,2.114-0.328,4.387,0.786,6.285c1.114,1.898,2.959,3.255,5.102,3.753
	c1.507,0.35,2.54,1.135,3.454,2.627c4.424,7.219,2.471,24.435,0.202,33.582c-0.797,3.19,0.433,6.543,3.105,8.458
	c2.671,1.917,6.242,2.006,9.008,0.23c10.777-6.927,23.786-5.744,30.264,2.75c8.984,11.779-11.856,41.091-23.358,53.445
	c-3.021,3.237-2.846,8.31,0.391,11.33c1.545,1.442,3.509,2.156,5.468,2.156c2.144,0,4.283-0.855,5.862-2.547
	c2.402-2.573,14.474-15.885,22.498-31.657h22.346c8.417,0,16.231-4.181,20.9-11.185l65.747-98.621v7.727
	c0,4.427,3.589,8.017,8.017,8.017c4.427,0,8.017-3.589,8.017-8.017v-7.727l65.747,98.621c4.67,7.003,12.482,11.185,20.9,11.185
	h22.346c8.024,15.773,20.097,29.084,22.498,31.657c1.579,1.692,3.716,2.546,5.86,2.546c1.958,0,3.921-0.713,5.466-2.154
	c3.237-3.017,3.415-8.089,0.399-11.329c-11.502-12.352-32.346-41.668-23.362-53.449c6.479-8.494,19.49-9.678,30.264-2.75
	c2.765,1.778,6.336,1.687,9.008-0.23c2.672-1.915,3.903-5.269,3.105-8.458c-1.925-7.701-4.409-26.04,0.199-33.575
	c0.915-1.496,1.949-2.284,3.458-2.634c2.137-0.496,3.973-1.857,5.088-3.745c1.115-1.889,1.403-4.163,0.805-6.273
	c-0.056-0.196-5.124-19.675,4.261-22.548c3.052-0.934,5.259-3.589,5.619-6.762c0.074-0.649,1.737-16.093-4.099-33.499
	c-2.909-8.677-8.007-18.724-16.92-27.494c8.549,0.703,15.355,1.121,19.468,1.121c21.398,0,33.67-12.272,33.67-33.67
	c0-33.652,0-57.965,16.256-90.477c9.793-19.586,15.775-37.811,17.779-54.167C512.652,66.285,510.478,59.543,505.861,54.509z
	 M442.135,117.672c-17.079,38.652-12.848,59.633-9.115,78.143c2.498,12.393,4.669,23.224-0.056,38.95
	c-5.592-0.39-12.476-0.984-20.197-1.719c-0.929-11.564-4.66-21.555-8.283-31.237c-7.956-21.266-14.828-39.63,9.71-72.347
	c19.379-25.838,17.636-43.421,13.925-52.679c3.196-1.32,6.33-2.523,9.401-3.62C445.375,79.915,450.588,98.544,442.135,117.672z
	 M341.038,134.959c26.124-24.201,50.536-40.588,72.512-51.536c0.465,1.353,0.864,3.149,0.926,5.428
	c0.161,5.95-1.981,16.157-13.107,30.992c-29.803,39.737-20.291,65.157-11.9,87.586c3.019,8.067,5.891,15.764,7.002,23.992
	c-39.509-4.092-90.117-10.254-107.58-12.406c-1.289-5.907-4.127-11.239-8.073-15.545
	C285.74,196.409,307.874,165.682,341.038,134.959z M255.999,286.591c-9.725,0-17.637-7.912-17.637-17.637v-42.755
	c0-9.725,7.912-17.637,17.637-17.637s17.637,7.912,17.637,17.637v42.755C273.636,278.679,265.725,286.591,255.999,286.591z
	 M265.085,191.994c0,0.588-0.075,1.166-0.186,1.737c-2.837-0.779-5.819-1.202-8.9-1.202c-3.082,0-6.065,0.424-8.903,1.204
	c-0.109-0.568-0.183-1.144-0.183-1.738c0-5.01,4.076-9.086,9.086-9.086S265.085,186.984,265.085,191.994z M170.962,134.959
	c33.163,30.723,55.298,61.449,60.22,68.512c-3.946,4.305-6.784,9.638-8.073,15.545c-17.463,2.151-68.071,8.313-107.58,12.406
	c1.112-8.228,3.984-15.925,7.002-23.992c8.392-22.428,17.903-47.849-11.9-87.586c-11.126-14.836-13.268-25.043-13.107-30.992
	c0.062-2.271,0.459-4.063,0.921-5.415C127.066,97.759,151.965,117.361,170.962,134.959z M79.035,234.767
	c-4.724-15.727-2.554-26.558-0.056-38.95c3.733-18.511,7.963-39.491-9.115-78.143c-8.459-19.145-3.232-37.789,4.634-44.526
	c3.163,1.135,6.293,2.344,9.386,3.627c-3.713,9.254-5.466,26.841,13.92,52.69c24.537,32.716,17.665,51.082,9.71,72.347
	c-3.622,9.682-7.354,19.673-8.283,31.237C91.511,233.782,84.628,234.376,79.035,234.767z M50.239,217.647
	c0-34.499,0-61.751-17.949-97.647C21.115,97.649,17.31,81.046,16.086,71.053c-0.345-2.815,1.024-4.786,1.872-5.71
	c1.468-1.6,3.521-2.481,5.646-2.401c11.686,0.409,23.12,2.214,34.217,5.064c-9.572,14.181-11.197,36.741-2.622,56.148
	c15.021,33.995,11.484,51.533,8.064,68.494c-2.485,12.322-5.036,25.01-0.813,42.239C53.766,233.511,50.239,228.333,50.239,217.647z
	 M103.779,375.824c0.951-9.831,0.74-22.393-4.547-31.038c-1.657-2.711-3.737-4.941-6.166-6.639
	c1.649-11.139,0.477-26.171-10.977-33.114c0.001-4.887,0.54-13.311,3.536-22.245c5.752-17.152,17.789-28.718,35.799-34.441
	c2.052,3.572,11.359,22.397-1.07,51.68c-12.827,30.221-8.962,57.207-3.051,75.148C112.904,374.63,108.331,374.831,103.779,375.824z
	 M168.896,410.811c-1.689,2.533-4.515,4.046-7.56,4.046h-16.24c2.181-9.254,1.664-18.427-3.962-26.061
	c0-0.001-0.001-0.002-0.001-0.002c-1.028-1.523-24.984-37.824-6.02-82.504c12.412-29.242,6.848-50.939,2.55-61.107
	c33.172-3.636,68.412-7.914,84.667-9.914v33.685c0,13.889,8.454,25.838,20.485,30.978L168.896,410.811z M350.663,414.857
	c-3.045,0-5.871-1.512-7.56-4.046l-73.919-110.879c12.031-5.14,20.485-17.089,20.485-30.978v-33.685
	c16.255,2,51.495,6.277,84.667,9.914c-4.298,10.168-9.862,31.866,2.55,61.107c18.964,44.679-4.991,80.98-6.007,82.484
	c-0.003,0.004-0.005,0.01-0.009,0.014c-5.632,7.635-6.149,16.81-3.968,26.069H350.663z M418.934,338.146
	c-2.428,1.698-4.509,3.929-6.166,6.639c-5.287,8.645-5.498,21.208-4.547,31.038c-4.551-0.994-9.125-1.194-13.525-0.65
	c5.912-17.942,9.777-44.928-3.051-75.148c-12.427-29.276-3.126-48.099-1.072-51.675c36.256,11.569,39.459,44.635,39.378,56.656
	C418.461,311.939,417.282,326.994,418.934,338.146z M495.914,71.053c-1.225,9.993-5.03,26.596-16.205,48.946
	c-17.949,35.896-17.949,63.148-17.949,97.647c0,10.686-3.526,15.864-12.21,17.239c4.221-17.229,1.671-29.917-0.813-42.239
	c-3.42-16.961-6.956-34.499,8.064-68.494c8.569-19.394,6.951-41.938-2.604-56.12c12.931-3.326,24.416-4.748,34.2-5.091
	c2.115-0.086,4.178,0.801,5.646,2.401C494.89,66.266,496.26,68.237,495.914,71.053z"/>
<g>
</g>
<g>
</g>
<g>
</g>
<g>
</g>
<g>
</g>
<g>
</g>
<g>
</g>
<g>
</g>
<g>
</g>
<g>
</g>
<g>
</g>
<g>
</g>
<g>
</g>
<g>
</g>
<g>
</g>
</svg>
