<?xml version="1.0" encoding="iso-8859-1"?>
<!-- Generator: Adobe Illustrator 19.0.0, SVG Export Plug-In . SVG Version: 6.00 Build 0)  -->
<svg version="1.1" id="Layer_1" xmlns="http://www.w3.org/2000/svg" xmlns:xlink="http://www.w3.org/1999/xlink" x="0px" y="0px"
	 viewBox="0 0 512.003 512.003" style="enable-background:new 0 0 512.003 512.003;" xml:space="preserve">
<path style="fill:#6EB4F0;" d="M358.624,245.869c0,0,76.962,34.206,85.514,68.411c8.551,34.206-25.654,72.152-25.654,72.152
	c-4.81,29.395-25.654,39.016-25.654,39.016c-9.264,23.16-34.206,17.103-34.206,17.103c-17.103,8.551-31.511-1.639-42.757-17.103
	c-14.252-19.598-23.982-10.807-35.097-26.367c-8.907-12.471-24.764-55.405-24.764-83.732c0-17.103,0-69.48,0-69.48H358.624z"/>
<path style="fill:#78C8FF;" d="M273.11,245.869h85.514c0,0,76.962,34.206,85.514,68.411c8.551,34.206-25.654,72.152-25.654,72.152
	S324.418,348.485,273.11,245.869z"/>
<path style="fill:#6B829B;" d="M280.771,399.081c-8.907-12.471-24.764-55.405-24.764-83.732c0-17.103,0-69.48,0-69.48h17.103
	c1.069,70.014,42.757,179.579,42.757,179.579C301.615,405.851,291.884,414.641,280.771,399.081z"/>
<path style="fill:#6EB4F0;" d="M476.449,66.29c16.98,0,27.534,8.173,27.534,25.653c0,8.552-3.469,20.28-10.432,34.207
	C467.897,177.458,485,237.317,459.346,254.42c-25.654,17.103-186.236-8.551-186.236-8.551v-17.103
	C273.11,228.766,339.359,66.29,476.449,66.29z"/>
<path style="fill:#5F9BEB;" d="M476.449,66.29c16.98,0,27.534,8.173,27.534,25.653c0,3.084-0.611,6.711-1.515,10.574
	c-49.052,36.87-141.222,102.222-229.359,143.352v-17.103C273.11,228.766,339.359,66.29,476.449,66.29z"/>
<path style="fill:#6EB4F0;" d="M153.376,245.869c0,0-76.962,34.206-85.514,68.411s25.654,72.152,25.654,72.152
	c4.81,29.395,25.654,39.016,25.654,39.016c9.264,23.16,34.206,17.103,34.206,17.103c17.103,8.551,31.511-1.639,42.757-17.103
	c14.253-19.598,23.982-10.807,35.097-26.367c8.907-12.471,24.764-55.405,24.764-83.732c0-17.103,0-69.48,0-69.48H153.376z"/>
<path style="fill:#78C8FF;" d="M238.89,245.869h-85.514c0,0-76.962,34.206-85.514,68.411s25.654,72.152,25.654,72.152
	S187.582,348.485,238.89,245.869z"/>
<path style="fill:#6B829B;" d="M231.23,399.081c8.907-12.471,24.764-55.405,24.764-83.732c0-17.103,0-69.48,0-69.48h-17.103
	c-1.069,70.014-42.757,179.579-42.757,179.579C210.386,405.851,220.116,414.641,231.23,399.081z"/>
<path style="fill:#6EB4F0;" d="M35.551,66.29c-16.979,0-27.534,8.173-27.534,25.653c0,8.552,3.469,20.28,10.432,34.207
	C44.103,177.458,27,237.317,52.654,254.42s186.236-8.551,186.236-8.551v-17.103C238.89,228.766,172.641,66.29,35.551,66.29z"/>
<path style="fill:#5F9BEB;" d="M35.551,66.29c-16.979,0-27.534,8.173-27.534,25.653c0,3.084,0.611,6.711,1.515,10.574
	c49.052,36.87,141.222,102.222,229.359,143.352v-17.103C238.89,228.766,172.641,66.29,35.551,66.29z"/>
<g>
	<path style="fill:#5A464B;" d="M255.993,280.074L255.993,280.074c-9.446,0-17.103-7.657-17.103-17.103v-34.206
		c0-9.446,7.657-17.103,17.103-17.103l0,0c9.446,0,17.103,7.657,17.103,17.103v34.206
		C273.096,272.418,265.439,280.074,255.993,280.074z"/>
	<path style="fill:#5A464B;" d="M35.551,66.29c-16.98,0-27.534,8.173-27.534,25.653c0,8.552,3.468,20.28,10.432,34.207
		c0.893,1.783,1.617,3.597,2.408,5.399c6.79-25.746,24.045-55.471,67.247-56.787C71.904,69.452,54.424,66.29,35.551,66.29z"/>
	<path style="fill:#5A464B;" d="M476.435,66.29c16.98,0,27.534,8.173,27.534,25.653c0,8.552-3.468,20.28-10.432,34.207
		c-0.893,1.783-1.617,3.597-2.408,5.399c-6.79-25.746-24.045-55.471-67.247-56.787C440.082,69.452,457.563,66.29,476.435,66.29z"/>
</g>
<path d="M476.449,58.273c-32.738,0-64.269,8.923-93.719,26.522c-23.335,13.944-45.381,33.329-65.529,57.614
	c-21.661,26.108-36.299,51.971-44.282,67.812c-2.127-1.943-4.59-3.524-7.288-4.65c9.213-35.122,30.025-56.437,30.249-56.663
	c3.118-3.132,3.115-8.199-0.012-11.326c-3.131-3.131-8.207-3.131-11.337,0c-0.874,0.874-17.199,17.453-28.537,46.001
	c-11.337-28.548-27.663-45.127-28.537-46.001c-3.131-3.131-8.207-3.131-11.337,0c-3.131,3.131-3.131,8.207,0,11.337
	c0.223,0.223,20.999,21.329,30.24,56.65c-2.696,1.123-5.155,2.702-7.283,4.642c-7.984-15.841-22.622-41.701-44.278-67.804
	c-20.148-24.286-42.196-43.67-65.529-57.614C99.821,67.195,68.289,58.272,35.551,58.272C13.291,58.273,0,70.859,0,91.943
	c0,10.11,3.795,22.825,11.278,37.792c11.71,23.42,14.025,49.052,16.068,71.665c2.361,26.142,4.402,48.718,20.861,59.691
	c5.171,3.448,15.428,7.246,44.371,7.246c0.795,0,1.614-0.004,2.438-0.011c-14.714,10.362-30.244,25.262-34.93,44.009
	c-8.466,33.861,18.906,69.291,25.928,77.669c4.892,25.156,20.385,37.108,26.901,41.119c9.169,19.049,28.224,21.468,39.455,19.78
	c4.008,1.678,8.554,2.827,13.488,2.827c10.906,0,23.707-5.62,36.761-23.569c6.139-8.441,10.746-10.232,16.081-12.304
	c5.533-2.151,12.419-4.826,19.056-14.118c5.581-7.813,12.793-24.39,18.247-42.624c5.455,18.234,12.667,34.812,18.247,42.624
	c6.637,9.291,13.523,11.968,19.056,14.118c5.335,2.073,9.942,3.863,16.081,12.305c13.055,17.949,25.854,23.569,36.761,23.569
	c4.933,0,9.48-1.149,13.488-2.827c11.229,1.687,30.286-0.731,39.455-19.78c6.515-4.012,22.008-15.964,26.901-41.119
	c7.022-8.378,34.394-43.807,25.928-77.669c-4.686-18.747-20.217-33.648-34.93-44.009c0.824,0.005,1.642,0.011,2.438,0.011
	c28.937,0,39.2-3.799,44.371-7.246c16.459-10.972,18.499-33.549,20.861-59.691c2.043-22.614,4.359-48.246,16.068-71.665
	c7.484-14.967,11.278-27.682,11.278-37.792C512,70.859,498.71,58.273,476.449,58.273z M495.966,91.943
	c0,5.422-1.842,12.73-5.263,21.122c-4.178-10.17-10.94-20.782-21.041-28.856c-4.399-3.516-9.151-6.341-14.224-8.514
	c6.938-0.915,13.944-1.389,21.011-1.389C485.536,74.307,495.966,76.312,495.966,91.943z M255.993,272.057
	c-5.01,0-9.086-4.076-9.086-9.086V228.89c0-0.021,0-0.042,0-0.063v-0.061c0-5.004,4.065-9.074,9.066-9.085c0.004,0,0.007,0,0.012,0
	c0.002,0,0.005,0,0.009,0c0.003,0,0.005,0,0.009,0c0.004,0,0.009,0,0.012,0c5,0.011,9.066,4.081,9.066,9.085v34.206
	C265.079,267.982,261.003,272.057,255.993,272.057z M35.551,74.307c7.067,0,14.072,0.474,21.012,1.389
	c-5.074,2.174-9.827,4.998-14.225,8.514c-10.1,8.074-16.861,18.686-21.041,28.856c-3.422-8.392-5.263-15.7-5.263-21.122
	C16.034,83.731,18.252,74.307,35.551,74.307z M57.101,247.75c-10.075-6.717-11.794-25.751-13.785-47.793
	c-1.686-18.655-3.71-41.035-11.513-62.847c0.311-8.565,5.5-28.349,20.547-40.376c12.45-9.952,29.131-12.677,49.579-8.11
	c6.394,2.854,12.705,6.113,18.914,9.814c21.737,12.954,42.376,31.082,61.344,53.88c22.945,27.579,37.901,55.462,44.818,69.73
	c-46.105-25.116-94.089-59.284-94.622-59.664c-3.601-2.573-8.609-1.738-11.183,1.864c-2.573,3.603-1.739,8.609,1.864,11.183
	c0.568,0.405,53.954,38.426,102.954,64.28c-15.007,2.203-42.649,6.035-71.479,8.876C76.786,256.251,60.302,249.885,57.101,247.75z
	 M156.962,435.38c-1.695-0.848-3.585-1.081-5.427-0.632c-1.875,0.429-18.516,3.732-24.92-12.278
	c-0.761-1.903-2.158-3.412-4.019-4.271c-0.698-0.338-17.157-8.563-21.167-33.062c-0.248-1.517-0.928-2.931-1.957-4.074
	c-0.079-0.088-7.997-8.93-14.946-21.711c-6.146-11.305-12.677-27.964-8.886-43.13c3.786-15.145,18.314-27.741,29.834-35.64
	c11.108-7.617,21.684-12.46,24.775-13.812c7.862-0.569,16.467-1.303,25.93-2.236c30.791-3.037,60.238-7.189,74.694-9.336v7.692
	c-0.997,64.282-37.849,149.721-41.722,158.523C184.291,428.066,172.566,443.182,156.962,435.38z M224.706,394.421
	c-3.473,4.861-6.389,6.344-10.434,7.951c10.726-27.952,26.19-73.799,31.097-116.644c0.844,0.395,1.715,0.744,2.607,1.045v28.577
	C247.976,342.21,232.671,383.269,224.706,394.421z M287.294,394.421c-7.966-11.152-23.27-52.212-23.27-79.072v-28.582
	c0.891-0.301,1.763-0.65,2.607-1.046c4.906,42.847,20.372,88.697,31.097,116.65C293.683,400.765,290.767,399.283,287.294,394.421z
	 M436.36,316.224c7.4,29.602-23.524,64.498-23.832,64.841c-1.029,1.142-1.709,2.556-1.957,4.074
	c-4.008,24.499-20.468,32.723-21.103,33.031c-1.861,0.859-3.322,2.399-4.083,4.301c-6.404,16.009-23.044,12.708-24.871,12.29
	c-1.842-0.447-3.782-0.228-5.477,0.62c-15.601,7.802-27.328-7.315-32.19-13.963c-3.873-8.802-40.742-94.279-41.723-158.567
	c-0.001-0.065-0.01-0.127-0.013-0.192v-7.459c14.451,2.146,43.906,6.3,74.708,9.338c9.474,0.934,18.085,1.67,25.953,2.237
	C395.767,272.704,430.289,291.946,436.36,316.224z M468.684,199.957c-1.991,22.041-3.711,41.075-13.785,47.793
	c-3.201,2.134-19.686,8.5-97.437,0.837c-28.831-2.841-56.473-6.673-71.479-8.876c48.999-25.855,102.387-63.875,102.954-64.28
	c3.603-2.574,4.437-7.58,1.864-11.183c-2.573-3.603-7.581-4.437-11.183-1.864c-0.533,0.381-48.517,34.548-94.622,59.664
	c6.918-14.268,21.872-42.15,44.818-69.73c18.968-22.799,39.608-40.927,61.344-53.88c6.209-3.7,12.519-6.959,18.914-9.814
	c20.447-4.566,37.128-1.842,49.579,8.11c15.048,12.028,20.236,31.811,20.547,40.376C472.395,158.924,470.37,181.303,468.684,199.957
	z"/>
<g>
</g>
<g>
</g>
<g>
</g>
<g>
</g>
<g>
</g>
<g>
</g>
<g>
</g>
<g>
</g>
<g>
</g>
<g>
</g>
<g>
</g>
<g>
</g>
<g>
</g>
<g>
</g>
<g>
</g>
</svg>
