<?xml version="1.0" encoding="iso-8859-1"?>
<!-- Generator: Adobe Illustrator 19.0.0, SVG Export Plug-In . SVG Version: 6.00 Build 0)  -->
<svg version="1.1" id="Layer_1" xmlns="http://www.w3.org/2000/svg" xmlns:xlink="http://www.w3.org/1999/xlink" x="0px" y="0px"
	 viewBox="0 0 512.001 512.001" style="enable-background:new 0 0 512.001 512.001;" xml:space="preserve">
<path style="fill:#FFD26E;" d="M110.639,239.897H256v42.753c0,0-68.405,136.811-85.507,145.362
	c-17.101,8.551-111.159-32.097-111.159-102.608C59.335,282.65,110.639,239.897,110.639,239.897z"/>
<path style="fill:#FFC355;" d="M95.562,327.644c42.895-48.803,119.231-68.153,160.439-75.323c0-5.123,0-12.424,0-12.424H110.639
	c0,0-51.304,42.753-51.304,85.507c0,14.395,3.963,27.52,10.348,39.262C76.716,351.86,85.21,339.42,95.562,327.644z"/>
<path style="fill:#463246;" d="M29.416,82.986C14.773,83.095,4.524,97.434,9.154,111.326l37.009,111.031
	c3.492,10.475,13.294,17.541,24.336,17.541h176.949v-17.101C168.464,107.354,73.519,82.66,29.416,82.986z"/>
<path style="fill:#FF823C;" d="M247.45,239.897v-17.101C185.27,131.918,113.219,97.295,63.848,86.827
	c-11.029,5.57-16.32,18.777-16.629,25.878c-0.725,16.677,16.906,84.968,28.326,127.191H247.45V239.897z"/>
<path style="fill:#FF9B46;" d="M247.45,231.984c-72.041-30.054-140.35-36.658-183.713-37.07c4.043,15.96,8.231,31.751,11.81,44.982
	H247.45V231.984z"/>
<g>
	<circle style="fill:#6B5B6B;" cx="73.408" cy="126.604" r="7.303"/>
	<circle style="fill:#6B5B6B;" cx="78.132" cy="155.932" r="6.235"/>
	<circle style="fill:#6B5B6B;" cx="84.812" cy="184.556" r="5.523"/>
	<circle style="fill:#6B5B6B;" cx="91.845" cy="212.816" r="4.898"/>
</g>
<path style="fill:#FFD26E;" d="M401.362,239.897H256v42.753c0,0,68.405,136.811,85.507,145.362
	c17.101,8.551,111.159-32.097,111.159-102.608C452.666,282.65,401.362,239.897,401.362,239.897z"/>
<path style="fill:#FFC355;" d="M416.439,327.644C373.544,278.841,297.208,259.491,256,252.321c0-5.123,0-12.424,0-12.424h145.362
	c0,0,51.304,42.753,51.304,85.507c0,14.395-3.963,27.52-10.348,39.262C435.285,351.86,426.791,339.42,416.439,327.644z"/>
<path style="fill:#463246;" d="M482.585,82.986c14.643,0.109,24.892,14.447,20.262,28.339l-37.01,111.031
	c-3.492,10.475-13.294,17.541-24.336,17.541h-176.95v-17.101C343.538,107.354,438.481,82.66,482.585,82.986z"/>
<path style="fill:#FF823C;" d="M264.551,239.897v-17.101C326.73,131.918,398.782,97.295,448.152,86.827
	c11.029,5.57,16.32,18.777,16.629,25.878c0.725,16.677-16.906,84.968-28.326,127.191H264.551V239.897z"/>
<path style="fill:#FF9B46;" d="M264.551,231.984c72.041-30.054,140.35-36.658,183.712-37.07c-4.043,15.96-8.231,31.751-11.81,44.982
	H264.551V231.984z"/>
<g>
	<circle style="fill:#6B5B6B;" cx="438.597" cy="126.604" r="7.303"/>
	<circle style="fill:#6B5B6B;" cx="433.873" cy="155.932" r="6.235"/>
	<circle style="fill:#6B5B6B;" cx="427.192" cy="184.556" r="5.523"/>
	<circle style="fill:#6B5B6B;" cx="420.16" cy="212.816" r="4.898"/>
</g>
<circle style="fill:#695046;" cx="255.997" cy="214.248" r="17.101"/>
<path style="fill:#B49646;" d="M256,282.65L256,282.65c-9.445,0-17.101-7.656-17.101-17.101v-25.652
	c0-9.445,7.656-17.101,17.101-17.101l0,0c9.445,0,17.101,7.656,17.101,17.101v25.652C273.102,274.993,265.446,282.65,256,282.65z"/>
<path d="M506.462,87.321c-5.563-7.778-14.244-12.28-23.817-12.35c-22.062-0.16-56.449,3.706-95.294,23.057
	c-41.226,20.539-78.987,54.068-112.407,99.75c-0.712-0.818-1.474-1.589-2.284-2.31c0.258-3.399,1.245-11.6,5.028-21.951
	c6.636-18.163,18.287-34,34.626-47.07c3.457-2.765,4.018-7.81,1.252-11.268c-2.766-3.458-7.812-4.019-11.268-1.252
	c-34.488,27.59-42.986,60.365-45.079,75.23c-0.404-0.019-0.809-0.031-1.217-0.031c-0.408,0-0.814,0.012-1.217,0.031
	c-2.093-14.866-10.591-47.64-45.079-75.23c-3.457-2.766-8.503-2.205-11.268,1.252c-2.765,3.457-2.205,8.502,1.252,11.268
	c16.339,13.071,27.99,28.908,34.626,47.07c3.785,10.356,4.77,18.556,5.028,21.952c-0.81,0.719-1.572,1.491-2.283,2.309
	C158.589,90.531,73.786,74.653,29.357,74.97c-9.574,0.071-18.255,4.572-23.818,12.35c-5.564,7.78-7.018,17.454-3.99,26.539
	l37.009,111.032c4.591,13.769,17.426,23.021,31.941,23.021h20.158c-16.062,16.909-39.34,46.72-39.34,77.491
	c0,49.935,42.241,81.432,60.402,92.656c21.993,13.592,40.563,18.974,52.463,18.974c4.16,0,7.505-0.658,9.895-1.853
	c6.397-3.198,17.652-15.111,52.619-79.219c7.742-14.192,15.174-28.285,21.287-40.047v35.14c0,4.427,3.589,8.016,8.016,8.016
	s8.016-3.589,8.016-8.016v-35.138c6.113,11.763,13.545,25.855,21.287,40.047c34.967,64.108,46.222,76.021,52.619,79.219
	c2.39,1.196,5.734,1.853,9.895,1.853c11.899,0,30.471-5.383,52.463-18.974c18.162-11.224,60.402-42.721,60.402-92.656
	c0-30.771-23.277-60.582-39.34-77.491h20.158c14.515,0,27.35-9.252,31.941-23.022l37.009-111.032
	C513.48,104.775,512.026,95.101,506.462,87.321z M438.841,96.162c4.343-0.636,7.902,0.102,10.808,2.271
	c4.61,3.443,6.924,9.923,7.123,14.486c0.779,17.917-18.076,87.275-27.255,118.96h-154.66c-0.158-0.181-0.319-0.359-0.482-0.534
	c3.597-3.862,5.994-8.851,6.594-14.374C336.077,137.248,394.547,106.794,438.841,96.162z M265.085,248.448v17.101
	c0,5.01-4.075,9.085-9.085,9.085c-5.01,0-9.085-4.075-9.085-9.085v-17.101c0-5.01,4.075-9.085,9.085-9.085
	C261.01,239.362,265.085,243.438,265.085,248.448z M265.085,214.245c0,5.01-4.075,9.085-9.085,9.085
	c-5.01,0-9.085-4.075-9.085-9.085s4.075-9.085,9.085-9.085C261.01,205.16,265.085,209.235,265.085,214.245z M231.031,216.955
	c0.596,5.53,2.996,10.526,6.596,14.391c-0.164,0.175-0.324,0.354-0.482,0.534H82.484c-9.179-31.687-28.033-101.043-27.254-118.96
	c0.2-4.59,2.503-11.089,7.089-14.514c3.42-2.555,7.783-3.241,13.282-1.87c0.381,0.095,0.635,0.184,1.114,0.302
	C150.472,115.809,203.27,176.844,231.031,216.955z M53.769,219.822L16.76,108.79c-1.386-4.16-0.724-8.586,1.821-12.143
	c2.542-3.555,6.513-5.611,10.895-5.645c0.457-0.003,0.91-0.005,1.365-0.005c5.345,0,10.599,0.246,15.771,0.693
	c-4.989,6.617-7.143,14.638-7.4,20.533c-0.92,21.168,18.344,90.907,26.383,118.951C60.122,229.592,55.639,225.428,53.769,219.822z
	 M166.891,420.846c-3.89,1.526-25.202-2.005-50.975-19.139c-42.256-28.09-48.565-59.864-48.565-76.304
	c0-33.771,36.972-69.112,46.301-77.491h117.244c-0.004,0.178-0.014,0.355-0.014,0.534v17.101c0,9.677,5.505,18.088,13.543,22.281
	C205.195,365.527,174.487,416.14,166.891,420.846z M444.65,325.404c0,16.44-6.309,48.214-48.566,76.304
	c-25.773,17.133-47.082,20.665-50.975,19.139c-7.595-4.706-38.304-55.32-77.534-133.017c8.039-4.193,13.543-12.604,13.543-22.281
	v-17.101c0-0.18-0.01-0.356-0.014-0.534h117.244C407.684,256.297,444.65,291.635,444.65,325.404z M495.241,108.79l-37.01,111.031
	c-1.869,5.607-6.352,9.771-11.824,11.353c8.039-28.044,27.302-97.782,26.382-118.952c-0.255-5.87-2.409-13.864-7.401-20.478
	c6.24-0.576,11.983-0.78,17.138-0.743c4.381,0.032,8.352,2.09,10.895,5.645C495.965,100.204,496.627,104.63,495.241,108.79z"/>
<g>
</g>
<g>
</g>
<g>
</g>
<g>
</g>
<g>
</g>
<g>
</g>
<g>
</g>
<g>
</g>
<g>
</g>
<g>
</g>
<g>
</g>
<g>
</g>
<g>
</g>
<g>
</g>
<g>
</g>
</svg>
