<?xml version="1.0" encoding="iso-8859-1"?>
<!-- Generator: Adobe Illustrator 19.0.0, SVG Export Plug-In . SVG Version: 6.00 Build 0)  -->
<svg version="1.1" id="Layer_1" xmlns="http://www.w3.org/2000/svg" xmlns:xlink="http://www.w3.org/1999/xlink" x="0px" y="0px"
	 viewBox="0 0 512 512" style="enable-background:new 0 0 512 512;" xml:space="preserve">
<path style="fill:#D7D7E1;" d="M428.092,244.475c0,0,52.615,52.162,50.238,79.098c-1.069,12.114-10.598,21.661-8.908,33.492
	c2.138,14.965-9.264,15.677-14.609,28.504c-3.573,8.576,4.276,21.022-12.827,30.285c-17.102,9.264-9.62,30.642-28.86,32.424
	c-25.547,2.365-18.171,21.022-39.549,19.24c-30.784-2.565-37.768,6.769-47.031,1.425c-12.422-7.167-44.894-102.614-44.894-102.614
	l-25.653-68.409V229.51L428.092,244.475z"/>
<path style="fill:#B47D5F;" d="M401.904,321.969c-6.042,42.805-34.426,81.787-102.509,92.856
	c-9.649-24.714-17.741-48.497-17.741-48.497L256,297.919V229.51l119.988,10.433C389.394,259.892,406.165,291.787,401.904,321.969z"
	/>
<path style="fill:#986953;" d="M256,250.711c12.827,23.337,29.82,53.438,43.112,64.668c20.665,17.458,46.675,9.264,51.307-12.827
	c4.579-21.839,38.836-20.665,49.632-10.715c2.331,9.902,3.269,20.108,1.853,30.133c-6.042,42.805-34.426,81.787-102.509,92.856
	c-9.649-24.714-17.741-48.497-17.741-48.497L256,297.92V250.711z"/>
<path style="fill:#D7D7E1;" d="M478.33,41.385c25.653,0,25.653,34.205,25.653,68.409c0,59.858-17.102,136.818-25.653,145.37
	S256,246.612,256,246.612V229.51C315.858,67.038,444.125,41.385,478.33,41.385z"/>
<path style="fill:#CBB8B4;" d="M334.226,107.065c-9.491,72.227,36.475,122.048,77.385,149.467
	C346.059,253.815,256,246.612,256,246.612V229.51C276.312,174.377,304.507,135.034,334.226,107.065z"/>
<path style="fill:#B47D5F;" d="M348.97,253.184c-48.906-3.048-92.97-6.57-92.97-6.57v-17.102
	c16.126-43.772,37.235-77.54,60.116-103.624C304.212,187.711,321.216,221.79,348.97,253.184z"/>
<path style="fill:#7C5546;" d="M478.33,41.385c25.653,0,25.653,34.205,25.653,68.409c0,58.814-16.492,133.98-25.18,144.704
	c1.535-32.456,5.477-141.353-9.025-170.357c-5.326-10.654-44.661-18.898-68.08-22.93C435.434,45.575,464.536,41.385,478.33,41.385z"
	/>
<g>
	<circle style="fill:#986953;" cx="442.736" cy="96.841" r="10.471"/>
	<circle style="fill:#986953;" cx="449.748" cy="129.998" r="9.771"/>
	<circle style="fill:#986953;" cx="453.916" cy="163.166" r="8.827"/>
	<circle style="fill:#986953;" cx="455.616" cy="196.334" r="7.718"/>
	<circle style="fill:#986953;" cx="456.482" cy="229.491" r="7.022"/>
</g>
<path style="fill:#7C5546;" d="M312.067,445.131c22.764-20.815,56.167-12.531,56.167-12.531
	c9.086-16.568,33.136-16.033,33.136-16.033c3.564-20.309,21.735-29.573,21.735-29.573c-1.248-21.022,16.745-33.136,16.745-33.136
	s-4.633-18.527,4.81-30.285c21.344-26.579,2.004-58.744,2.004-58.744l0,0c14.893,17.598,33.087,42.646,31.666,58.744
	c-1.069,12.114-10.597,21.661-8.908,33.492c2.138,14.965-9.263,15.677-14.608,28.504c-3.574,8.576,4.276,21.022-12.827,30.285
	c-17.102,9.264-9.62,30.642-28.86,32.424c-25.547,2.365-18.171,21.022-39.549,19.24c-30.785-2.565-37.768,6.769-47.031,1.425
	C322.966,466.877,317.72,457.462,312.067,445.131L312.067,445.131z"/>
<path style="fill:#D7D7E1;" d="M83.908,244.475c0,0-52.615,52.162-50.238,79.098c1.069,12.114,10.598,21.661,8.908,33.492
	c-2.138,14.965,9.264,15.677,14.609,28.504c3.573,8.576-4.276,21.022,12.827,30.285c17.102,9.264,9.62,30.642,28.86,32.424
	c25.547,2.365,18.171,21.022,39.549,19.24c30.784-2.565,37.768,6.769,47.031,1.425c12.422-7.167,44.894-102.614,44.894-102.614
	l25.653-68.409V229.51L83.908,244.475z"/>
<path style="fill:#B47D5F;" d="M110.096,321.969c6.042,42.805,34.426,81.787,102.509,92.856
	c9.649-24.714,17.741-48.497,17.741-48.497L256,297.919V229.51l-119.988,10.433C122.606,259.892,105.835,291.787,110.096,321.969z"
	/>
<path style="fill:#986953;" d="M256,250.711c-12.827,23.337-29.82,53.438-43.112,64.668c-20.665,17.458-46.675,9.264-51.307-12.827
	c-4.579-21.839-38.836-20.665-49.632-10.715c-2.331,9.902-3.269,20.108-1.853,30.133c6.042,42.805,34.426,81.787,102.509,92.856
	c9.649-24.714,17.742-48.497,17.742-48.497L256,297.92V250.711z"/>
<path style="fill:#D7D7E1;" d="M33.67,41.385c-25.653,0-25.653,34.205-25.653,68.409c0,59.858,17.102,136.818,25.653,145.37
	S256,246.612,256,246.612V229.51C196.142,67.038,67.875,41.385,33.67,41.385z"/>
<path style="fill:#CBB8B4;" d="M177.774,107.065c9.491,72.227-36.475,122.048-77.385,149.467
	C165.941,253.815,256,246.612,256,246.612V229.51C235.688,174.377,207.493,135.034,177.774,107.065z"/>
<path style="fill:#B47D5F;" d="M163.03,253.184c48.906-3.048,92.97-6.57,92.97-6.57v-17.102
	c-16.126-43.772-37.235-77.54-60.116-103.624C207.788,187.711,190.784,221.79,163.03,253.184z"/>
<path style="fill:#58413C;" d="M256,280.817L256,280.817c-9.446,0-17.102-7.656-17.102-17.102v-17.102
	c0-9.446,7.656-17.102,17.102-17.102l0,0c9.446,0,17.102,7.656,17.102,17.102v17.102C273.102,273.161,265.446,280.817,256,280.817z"
	/>
<path style="fill:#7C5546;" d="M33.67,41.385c-25.653,0-25.653,34.205-25.653,68.409c0,58.814,16.492,133.98,25.18,144.704
	c-1.535-32.456-5.477-141.353,9.025-170.357c5.326-10.654,44.661-18.898,68.08-22.93C76.566,45.575,47.464,41.385,33.67,41.385z"/>
<g>
	<circle style="fill:#986953;" cx="69.26" cy="96.841" r="10.471"/>
	<circle style="fill:#986953;" cx="62.252" cy="129.998" r="9.771"/>
	<circle style="fill:#986953;" cx="58.084" cy="163.166" r="8.827"/>
	<circle style="fill:#986953;" cx="56.384" cy="196.334" r="7.718"/>
	<circle style="fill:#986953;" cx="55.523" cy="229.491" r="7.022"/>
</g>
<path style="fill:#7C5546;" d="M199.933,445.131c-22.764-20.815-56.167-12.531-56.167-12.531
	c-9.086-16.568-33.136-16.033-33.136-16.033c-3.564-20.309-21.735-29.573-21.735-29.573c1.248-21.022-16.745-33.136-16.745-33.136
	s4.633-18.527-4.81-30.285c-21.344-26.579-2.004-58.744-2.004-58.744l0,0c-14.893,17.598-33.087,42.646-31.666,58.744
	c1.069,12.114,10.597,21.661,8.908,33.492c-2.138,14.965,9.263,15.677,14.608,28.504c3.574,8.576-4.276,21.022,12.827,30.285
	c17.102,9.264,9.62,30.642,28.86,32.424c25.547,2.365,18.171,21.022,39.549,19.24c30.785-2.565,37.768,6.769,47.031,1.425
	C189.034,466.877,194.28,457.462,199.933,445.131L199.933,445.131z"/>
<path d="M502.236,203.234c6.205-32.268,9.764-66.325,9.764-93.439c0-17.301,0-35.191-3.446-48.976
	c-3.131-12.523-10.916-27.45-30.224-27.45c-5.061,0-51.032,0.963-105.719,34.308c-25.243,15.392-47.986,35.167-67.596,58.774
	c-11.112,13.377-21.231,28.042-30.323,43.864c3.808-16.863,8.616-34.52,14.405-48.992c1.645-4.111-0.355-8.777-4.466-10.421
	c-4.111-1.646-8.777,0.355-10.421,4.466c-7.866,19.665-13.917,44.274-18.211,65.523c-4.293-21.25-10.344-45.858-18.211-65.523
	c-1.644-4.11-6.306-6.112-10.421-4.466c-4.111,1.644-6.11,6.31-4.466,10.421c5.789,14.472,10.596,32.13,14.405,48.992
	c-9.093-15.822-19.211-30.487-30.323-43.864c-19.611-23.608-42.354-43.382-67.596-58.774C84.702,34.331,38.731,33.368,33.67,33.368
	c-19.308,0-27.093,14.927-30.224,27.45C0,74.603,0,92.493,0,109.794c0,27.114,3.559,61.172,9.764,93.439
	c3.501,18.2,10.524,49.885,18.237,57.599c2.222,2.223,4.626,4.622,28.643,4.756c-14.078,14.833-32.736,38.567-30.961,58.69
	c0.585,6.625,3.078,12.348,5.278,17.396c2.31,5.301,4.304,9.879,3.679,14.258c-1.848,12.938,4.069,19.104,8.824,24.06
	c2.572,2.68,4.792,4.994,6.32,8.661c0.503,1.208,0.5,3.492,0.497,5.91c-0.01,7.371-0.026,19.708,15.912,28.341
	c5.033,2.727,6.829,6.815,9.343,13.263c3.073,7.882,7.282,18.676,22.596,20.094c9.606,0.889,12.449,4.238,16.049,8.48
	c4.297,5.061,10.177,12.002,24.904,10.767c15.005-1.25,23.848,0.523,30.304,1.818c3.301,0.662,6.512,1.306,9.759,1.306
	c3.351,0,6.74-0.685,10.308-2.744c3.332-1.922,7.511-5.982,15.472-22.525c4.327-8.992,9.405-20.934,15.094-35.497
	c9.275-23.743,17.232-46.965,17.871-48.835l10.185-27.163c0.577,3.861,3.897,6.825,7.918,6.825c4.021,0,7.341-2.964,7.918-6.825
	l10.185,27.163c0.639,1.871,8.596,25.091,17.871,48.835c5.689,14.564,10.767,26.506,15.094,35.497
	c7.961,16.543,12.141,20.602,15.472,22.525c3.569,2.059,6.957,2.744,10.308,2.744c3.247,0,6.458-0.645,9.759-1.306
	c6.456-1.294,15.298-3.069,30.305-1.818c14.72,1.227,20.608-5.706,24.904-10.767c3.6-4.241,6.443-7.59,16.049-8.48
	c15.315-1.418,19.523-12.212,22.596-20.094c2.514-6.448,4.31-10.536,9.343-13.263c15.937-8.632,15.921-20.97,15.912-28.341
	c-0.003-2.418-0.006-4.702,0.497-5.91c1.529-3.667,3.749-5.982,6.32-8.661c4.754-4.955,10.672-11.122,8.824-24.06
	c-0.625-4.379,1.369-8.957,3.679-14.258c2.2-5.048,4.693-10.771,5.278-17.396c1.775-20.123-16.882-43.858-30.961-58.69
	c24.011-0.133,26.421-2.532,28.643-4.756C491.712,253.119,498.735,221.434,502.236,203.234z M492.999,64.707
	c2.967,11.87,2.967,28.756,2.967,45.087c0,23.083-2.717,51.613-7.512,79.568c0.019-2.567,0.03-5.161,0.03-7.774
	c0-51.732-3.881-85.724-11.535-101.033c-5.607-11.215-23.673-18.405-36.774-22.839c-1.175-0.398-2.34-0.779-3.491-1.149
	c18.085-5.328,32.941-7.166,41.646-7.166C483.962,49.402,489.637,51.256,492.999,64.707z M380.959,81.366
	c10.1-6.158,20.072-11.207,29.625-15.333c22.547,4.951,48.537,14.719,52.024,21.693c12.798,25.597,10.25,121.599,7.953,161.311
	c-22.612,2.512-120.035-3.861-190.571-9.878c-2.098-6.738-6.964-12.266-13.261-15.253
	C291.851,160.224,330.242,112.29,380.959,81.366z M431.166,350.6c-5.697,5.171-15.219,16.102-16.079,31.958
	c-5.759,4.017-15.635,12.583-20.072,26.381c-8.105,0.95-21.873,4.168-30.562,14.95c-10.008-1.259-31.84-2.417-49.598,7.692
	c-1.352-3.182-2.742-6.531-4.156-10.013c27.063-2.317,50.637-12.338,68.6-29.311c19.358-18.291,30.982-43.269,33.616-72.234
	c2.144-23.589-8.546-43.935-17.52-56.521c14.528,0.813,26.583,1.361,36.606,1.69c2.036,1.816,4.186,3.83,6.387,5.996
	c1.567,2.72,4.39,8.204,6.1,14.983c3.16,12.529,1.114,23.424-6.08,32.381C429.977,329.053,430.245,343.104,431.166,350.6z
	 M256,272.8c-5.01,0-9.086-4.076-9.086-9.086v-17.102c0-5.007,4.07-9.079,9.075-9.086l0,0h0.002c0.003,0,0.005,0,0.009,0
	c0.003,0,0.005,0,0.009,0h0.002l0,0c5.006,0.005,9.075,4.079,9.075,9.086v17.102C265.086,268.725,261.01,272.8,256,272.8z
	 M245.27,223.906c-6.297,2.988-11.162,8.515-13.261,15.253c-70.534,6.016-167.957,12.386-190.571,9.877
	c-2.299-39.707-4.85-135.705,7.953-161.31c3.48-6.961,29.473-16.731,52.025-21.693c9.553,4.125,19.525,9.174,29.624,15.332
	C181.758,112.29,220.149,160.224,245.27,223.906z M99.083,320.023c2.634,28.965,14.257,53.943,33.616,72.234
	c17.964,16.973,41.537,26.994,68.601,29.311c-1.414,3.482-2.804,6.831-4.156,10.013c-17.759-10.11-39.592-8.952-49.598-7.692
	c-8.688-10.782-22.456-13.999-30.562-14.95c-4.436-13.798-14.312-22.364-20.072-26.381c-0.862-15.856-10.383-26.788-16.079-31.958
	c0.922-7.497,1.19-21.547-7.243-32.046c-14.839-18.479-3.89-40.708-0.021-47.324c2.216-2.183,4.379-4.209,6.428-6.037
	c10.023-0.329,22.078-0.875,36.606-1.69C107.63,276.088,96.939,296.435,99.083,320.023z M19.001,64.707
	c3.363-13.451,9.039-15.305,14.669-15.305c8.705,0,23.562,1.838,41.646,7.166c-1.151,0.369-2.316,0.751-3.491,1.149
	c-13.101,4.433-31.167,11.624-36.774,22.839c-9.868,19.736-11.889,67.583-11.608,108.212c-4.732-27.764-7.41-56.054-7.41-78.973
	C16.033,93.464,16.033,76.577,19.001,64.707z M181.285,462.089c-1.572,0.843-3.078,0.652-8.74-0.484
	c-6.978-1.399-17.522-3.515-34.788-2.076c-6.51,0.544-7.824-1.011-11.351-5.165c-4.505-5.307-10.676-12.577-26.794-14.069
	c-4.983-0.462-6.103-2.174-9.136-9.952c-2.611-6.7-6.189-15.874-16.645-21.537c-7.528-4.077-7.524-7.681-7.514-14.222
	c0.004-3.712,0.011-7.921-1.731-12.099c-2.682-6.436-6.49-10.406-9.552-13.595c-3.938-4.103-5.264-5.487-4.52-10.691
	c1.269-8.881-1.984-16.345-4.854-22.93c-1.877-4.308-3.65-8.376-4.005-12.4c-0.572-6.474,2.924-14.755,8.353-23.282
	c0.418,9.372,3.394,19.434,11.08,29.005c5.629,7.009,4.273,19.232,3.284,23.321c-0.819,3.274,0.5,6.709,3.3,8.594
	c0.142,0.095,14.185,9.746,13.22,26.01c-0.187,3.147,1.53,6.132,4.322,7.597c0.146,0.077,14.721,7.887,17.519,23.836
	c0.681,3.879,4.093,6.694,8.046,6.63c0.211,0.004,19.364-0.15,25.957,11.873c1.698,3.098,5.229,4.717,8.68,3.99
	c7.832-1.647,30.155-3.495,45.147,5.879C186.633,454.605,183.374,460.317,181.285,462.089z M222.841,363.514
	c-0.029,0.077-0.057,0.155-0.083,0.233c-4.735,13.918-10.038,28.551-15.278,42.17c-51.679-2.456-87.795-36.38-92.428-87.346
	c-2.591-28.497,19.739-52.63,23.403-56.378c0.516-0.033,1.025-0.064,1.547-0.098c37.363-2.385,74.493-5.391,90.879-6.759v8.378
	c0,11.048,7.172,20.446,17.102,23.8v8.952L222.841,363.514z M289.243,363.747c-0.026-0.078-0.055-0.156-0.083-0.233l-25.143-67.048
	v-8.952c9.93-3.354,17.102-12.752,17.102-23.8v-8.378c16.386,1.367,53.516,4.374,90.879,6.759c0.523,0.033,1.034,0.065,1.551,0.098
	c3.645,3.702,26.006,27.696,23.399,56.378c-4.634,50.966-40.749,84.888-92.428,87.346
	C299.281,392.298,293.978,377.665,289.243,363.747z M470.344,322.868c-0.355,4.024-2.128,8.093-4.005,12.4
	c-2.87,6.585-6.123,14.048-4.854,22.93c0.744,5.206-0.583,6.588-4.52,10.691c-3.06,3.19-6.87,7.159-9.552,13.595
	c-1.741,4.178-1.736,8.387-1.731,12.099c0.009,6.541,0.014,10.144-7.514,14.222c-10.456,5.663-14.032,14.837-16.645,21.537
	c-3.032,7.778-4.154,9.491-9.136,9.952c-16.119,1.492-22.29,8.762-26.794,14.069c-3.525,4.153-4.845,5.704-11.35,5.165
	c-17.269-1.438-27.813,0.677-34.789,2.076c-5.662,1.136-7.168,1.326-8.74,0.484c-2.089-1.77-5.348-7.483-9.28-15.765
	c17.947-11.31,44.874-5.934,45.148-5.878c3.456,0.727,6.982-0.893,8.68-3.99c6.593-12.024,25.761-11.882,25.928-11.873
	c3.994,0.11,7.39-2.728,8.074-6.629c2.798-15.948,17.373-23.759,17.48-23.816c2.838-1.447,4.55-4.437,4.362-7.617
	c-0.951-16.033,12.677-25.635,13.22-26.01c2.799-1.884,4.12-5.321,3.3-8.594c-0.951-3.805-2.39-16.257,3.284-23.322
	c7.686-9.572,10.661-19.632,11.08-29.005C467.42,308.113,470.915,316.394,470.344,322.868z"/>
<g>
</g>
<g>
</g>
<g>
</g>
<g>
</g>
<g>
</g>
<g>
</g>
<g>
</g>
<g>
</g>
<g>
</g>
<g>
</g>
<g>
</g>
<g>
</g>
<g>
</g>
<g>
</g>
<g>
</g>
</svg>
