<?xml version="1.0" encoding="iso-8859-1"?>
<!-- Generator: Adobe Illustrator 19.0.0, SVG Export Plug-In . SVG Version: 6.00 Build 0)  -->
<svg version="1.1" id="Layer_1" xmlns="http://www.w3.org/2000/svg" xmlns:xlink="http://www.w3.org/1999/xlink" x="0px" y="0px"
	 viewBox="0 0 512.001 512.001" style="enable-background:new 0 0 512.001 512.001;" xml:space="preserve">
<path style="fill:#E6DCD2;" d="M273.104,217.52c0,0,107.839,34.421,111.164,59.858c0,17.102-12.827,53.67-8.994,65.703
	c2.589,8.125,9.192,18.135,19.49,29.058c-16.823,14.897-27.144,40.114-27.599,42.056l-51.307-34.204
	c-11.265-39.479-42.755-76.96-42.755-76.96C273.396,289.587,273.104,217.52,273.104,217.52z"/>
<path style="fill:#CFC1B4;" d="M290.46,223.459c1.505,22.376,10.674,76.571,33.95,130.878c8.811,20.559,15.563,34.958,20.685,45.144
	l-29.236-19.491c-11.265-39.479-42.755-76.96-42.755-76.96c0.292-13.443,0-85.511,0-85.511S280.054,219.74,290.46,223.459z"/>
<path style="fill:#E6DCD2;" d="M315.859,140.56c34.204-34.204,85.511-76.96,102.613-76.96h16.841c4.869,0,8.775,4.047,8.545,8.909
	c-1.285,27.141-8.729,109.685-51.871,154.792c-4.342,4.54-10.722,6.453-16.805,4.888c-18.363-4.721-60.919-14.669-93.528-14.669
	v-8.551C281.655,191.867,281.655,174.764,315.859,140.56z"/>
<path style="fill:#FF413C;" d="M315.859,379.991c-1.995-6.992-4.643-13.908-7.62-20.577l78.944,20.594
	c-12.287,14.557-19.634,32.558-20.017,34.187L315.859,379.991z"/>
<path style="fill:#E6DCD2;" d="M238.9,217.52c0,0-107.839,34.421-111.164,59.858c0,17.102,12.827,53.67,8.994,65.703
	c-2.589,8.125-9.192,18.135-19.49,29.058c16.823,14.897,27.144,40.114,27.599,42.056l51.307-34.204
	c11.265-39.479,42.755-76.96,42.755-76.96C238.607,289.587,238.9,217.52,238.9,217.52z"/>
<path style="fill:#CFC1B4;" d="M221.542,223.459c-1.505,22.376-10.674,76.571-33.95,130.878
	c-8.811,20.559-15.563,34.958-20.685,45.144l29.236-19.491c11.265-39.479,42.755-76.96,42.755-76.96
	c-0.292-13.443,0-85.511,0-85.511S231.95,219.74,221.542,223.459z"/>
<path style="fill:#E6DCD2;" d="M196.144,140.56C161.94,106.356,110.633,63.6,93.531,63.6H76.69c-4.869,0-8.774,4.047-8.545,8.909
	c1.285,27.141,8.729,109.685,51.871,154.792c4.342,4.54,10.722,6.453,16.805,4.888c18.363-4.721,60.919-14.669,93.528-14.669v-8.551
	C230.348,191.867,230.348,174.764,196.144,140.56z"/>
<path style="fill:#463246;" d="M256.002,328.684L256.002,328.684c-9.446,0-17.102-7.656-17.102-17.102V174.764
	c0-9.446,7.656-17.102,17.102-17.102l0,0c9.446,0,17.102,7.656,17.102,17.102v136.818
	C273.104,321.027,265.446,328.684,256.002,328.684z"/>
<path style="fill:#5A464B;" d="M256.002,260.275L256.002,260.275c-14.168,0-25.653-11.485-25.653-25.653v-25.653
	c0-14.168,11.485-25.653,25.653-25.653l0,0c14.168,0,25.653,11.485,25.653,25.653v25.653
	C281.655,248.79,270.17,260.275,256.002,260.275z"/>
<path style="fill:#FF413C;" d="M196.144,379.991c1.995-6.992,4.643-13.908,7.62-20.577l-78.944,20.594
	c12.287,14.557,19.634,32.558,20.017,34.187L196.144,379.991z"/>
<path d="M507.239,441.073c-73.646-32.731-115.861-73.653-123.917-97.822c-2.649-7.947,0.221-19.231,3.258-31.178
	c2.673-10.515,5.704-22.433,5.704-34.695c0-8.824-5.47-22.975-51.666-44.826c13.637,2.697,25.422,5.565,32.567,7.402
	c2.05,0.527,4.133,0.785,6.204,0.783c6.825,0,13.51-2.792,18.39-7.895c19.485-20.372,34.16-49.888,43.617-87.731
	c7.569-30.282,9.808-58.248,10.469-72.224c0.212-4.482-1.444-8.917-4.545-12.167c-3.115-3.265-7.491-5.138-12.007-5.138h-16.841
	c-28.642,0-107.489,78.515-108.281,79.308c-15.126,15.126-23.982,27.254-29.178,37.588c-0.53-5.848-3.072-11.12-6.927-15.124
	l48.648-81.08c2.278-3.797,1.046-8.721-2.749-10.999c-3.798-2.279-8.721-1.046-10.999,2.749l-49.147,81.912
	c-1.251-0.192-2.532-0.293-3.836-0.293c-1.304,0-2.586,0.1-3.836,0.293l-49.147-81.912c-2.278-3.797-7.203-5.028-10.999-2.749
	c-3.797,2.278-5.028,7.202-2.749,10.999l48.648,81.08c-3.855,4.003-6.397,9.276-6.927,15.124
	c-5.197-10.335-14.053-22.463-29.178-37.588c-0.793-0.793-79.64-79.308-108.281-79.308H76.69c-4.517,0-8.893,1.873-12.007,5.138
	c-3.101,3.25-4.757,7.685-4.545,12.167c0.662,13.976,2.901,41.942,10.469,72.224c9.458,37.842,24.132,67.359,43.617,87.731
	c4.882,5.103,11.565,7.895,18.39,7.895c2.07,0,4.154-0.257,6.204-0.783c7.143-1.836,18.929-4.705,32.567-7.402
	c-46.196,21.851-51.666,36.002-51.666,44.826c0,12.263,3.03,24.181,5.704,34.695c3.038,11.947,5.907,23.231,3.258,31.178
	c-8.056,24.17-50.271,65.091-123.917,97.822c-4.046,1.798-5.868,6.535-4.07,10.581c1.328,2.988,4.258,4.763,7.329,4.763
	c1.088,0,2.193-0.222,3.252-0.693c47.588-21.15,82.717-45.713,105.129-68.09c3.228,2,14.499,10.11,20.827,29.095
	c0.816,2.445,2.756,4.348,5.215,5.117c0.783,0.245,1.588,0.365,2.39,0.365c1.713,0,3.405-0.549,4.81-1.603
	c0.336-0.252,33.825-25.319,50.082-33.448c1.902-0.95,3.348-2.618,4.02-4.635c0.138-0.413,11.744-34.837,29.56-60.183
	c4.038,8.481,12.691,14.358,22.692,14.358c10.001,0,18.652-5.876,22.69-14.354c17.792,25.328,29.424,59.767,29.562,60.179
	c0.672,2.017,2.119,3.684,4.02,4.635c16.257,8.129,49.746,33.195,50.082,33.448c1.405,1.054,3.097,1.603,4.81,1.603
	c0.801,0,1.607-0.12,2.39-0.365c2.46-0.769,4.4-2.672,5.215-5.117c6.341-19.022,17.645-27.127,20.804-29.085
	c4.112,4.103,8.585,8.233,13.43,12.35c24.14,20.519,55.858,39.791,91.723,55.731c1.058,0.47,2.163,0.693,3.252,0.693
	c3.071,0,6.002-1.775,7.329-4.763C513.106,447.609,511.285,442.871,507.239,441.073z M376.251,277.378
	c0,10.257-2.649,20.672-5.21,30.744c-3.633,14.291-7.066,27.79-2.93,40.199c2.007,6.021,5.514,12.537,10.314,19.329l-47.33-13.214
	c4.27-2.169,8.145-5.101,11.593-8.812c11.574-12.455,17.745-33.11,18.341-61.389c0.18-8.497-0.183-16.364-0.672-22.696
	C375.99,271.81,376.251,277.069,376.251,277.378z M281.121,299.807v-42.796c5.313-5.955,8.551-13.799,8.551-22.389v-5.771
	c9.726,3.549,24.889,9.363,39.95,16.265c5.076,2.327,9.599,4.527,13.63,6.6c2.651,19.149,4.835,64.546-12.308,82.994
	c-5.508,5.928-12.676,8.618-21.867,8.195C301.95,328.329,292.438,311.973,281.121,299.807z M202.927,342.905
	c-9.188,0.422-16.351-2.264-21.858-8.184c-17.113-18.4-14.952-63.835-12.315-83.005c4.003-2.059,8.49-4.242,13.522-6.55
	c15.079-6.917,30.3-12.753,40.055-16.313v5.77c0,8.59,3.238,16.434,8.551,22.389v42.796
	C219.564,311.973,210.052,328.328,202.927,342.905z M238.365,234.622v-25.653c0-9.725,7.912-17.637,17.637-17.637
	c9.725,0,17.637,7.912,17.637,17.637v25.653c0,9.725-7.912,17.637-17.637,17.637C246.277,252.259,238.365,244.347,238.365,234.622z
	 M418.473,71.617h16.841c0.06,0,0.243,0,0.405,0.171c0.14,0.148,0.134,0.285,0.131,0.343c-1.14,24.115-8.095,106.176-49.657,149.629
	c-2.36,2.467-5.815,3.489-9.015,2.665c-3.152-0.81-7.188-1.816-11.87-2.919c-20.093-40.719-23.597-81.171-24.203-94.025
	c12.663-11.651,25.767-22.856,37.395-31.901C408.447,72.289,417.535,71.617,418.473,71.617z M321.528,146.228
	c1.522-1.522,3.076-3.053,4.644-4.588c1.92,17.585,6.859,45.93,19.528,75.582c-17.201-3.458-37.639-6.749-56.029-7.54v-0.714
	C289.672,193.086,289.672,178.084,321.528,146.228z M265.087,174.764c0,0.588-0.075,1.166-0.186,1.737
	c-2.837-0.779-5.819-1.202-8.9-1.202c-3.081,0-6.063,0.424-8.9,1.202c-0.111-0.571-0.186-1.149-0.186-1.737
	c0-5.01,4.076-9.086,9.086-9.086C261.012,165.679,265.087,169.754,265.087,174.764z M222.332,208.969v0.714
	c-18.39,0.791-38.828,4.082-56.029,7.54c12.67-29.652,17.608-57.997,19.527-75.582c1.568,1.534,3.122,3.066,4.644,4.588
	C222.332,178.084,222.332,193.086,222.332,208.969z M134.825,224.425c-3.203,0.824-6.655-0.198-9.015-2.665
	C84.248,178.307,77.293,96.246,76.153,72.131c-0.003-0.059-0.01-0.197,0.131-0.343c0.162-0.171,0.345-0.171,0.405-0.171h16.841
	c0.937,0,10.024,0.672,39.972,23.964c11.628,9.044,24.732,20.249,37.395,31.901c-0.606,12.853-4.11,53.305-24.203,94.025
	C142.012,222.609,137.977,223.615,134.825,224.425z M140.962,308.122c-2.561-10.072-5.21-20.487-5.21-30.744
	c0-0.309,0.262-5.568,15.894-15.839c-0.49,6.332-0.852,14.198-0.672,22.696c0.596,28.28,6.767,48.935,18.341,61.389
	c3.449,3.712,7.323,6.644,11.592,8.813l-47.368,13.223c4.933-6.971,8.405-13.497,10.352-19.338
	C148.028,335.912,144.595,322.413,140.962,308.122z M189.617,374.36c-12.481,6.792-30.692,19.63-41.236,27.277
	c-3.743-7.745-8.142-13.661-12.23-18.06l55.841-15.589C190.989,370.588,190.192,372.753,189.617,374.36z M256.002,320.667
	c-5.01,0-9.086-4.076-9.086-9.086v-8.549c0-0.001,0-0.003,0-0.005v-35.992c2.892,0.812,5.938,1.256,9.086,1.256
	c3.148,0,6.193-0.444,9.086-1.256v35.992c0,0.001,0,0.003,0,0.005v8.549C265.087,316.592,261.012,320.667,256.002,320.667z
	 M363.62,401.637c-10.544-7.647-28.753-20.485-41.236-27.277c-0.575-1.607-1.371-3.772-2.376-6.373l55.841,15.589
	C371.763,387.975,367.365,393.893,363.62,401.637z"/>
<g>
</g>
<g>
</g>
<g>
</g>
<g>
</g>
<g>
</g>
<g>
</g>
<g>
</g>
<g>
</g>
<g>
</g>
<g>
</g>
<g>
</g>
<g>
</g>
<g>
</g>
<g>
</g>
<g>
</g>
</svg>
