<svg id="Filled" height="512" viewBox="0 0 512 512" width="512" xmlns="http://www.w3.org/2000/svg"><g fill="#ab6647"><path d="m80 120h360v32h-360z"/><path d="m80 232h352v32h-352z"/><path d="m88 344h336v32h-336z"/></g><path d="m80 24a24 24 0 0 1 24 24v392a0 0 0 0 1 0 0h-48a0 0 0 0 1 0 0v-392a24 24 0 0 1 24-24z" fill="#93573d"/><path d="m408 24h48a0 0 0 0 1 0 0v392a24 24 0 0 1 -24 24 24 24 0 0 1 -24-24v-392a0 0 0 0 1 0 0z" fill="#93573d" transform="matrix(-1 0 0 -1 864 464)"/><rect fill="#ce3536" height="64" rx="16" width="32" x="376" y="328"/><rect fill="#e74444" height="64" rx="16" width="32" x="344" y="328"/><rect fill="#ce3536" height="64" rx="16" width="32" x="312" y="328"/><rect fill="#e74444" height="64" rx="16" width="32" x="280" y="328"/><rect fill="#e74444" height="64" rx="16" width="32" x="104" y="328"/><rect fill="#3ba673" height="64" rx="16" width="32" x="376" y="216"/><rect fill="#379a6b" height="64" rx="16" width="32" x="344" y="216"/><rect fill="#3ba673" height="64" rx="16" width="32" x="248" y="216"/><rect fill="#379a6b" height="64" rx="16" width="32" x="136" y="216"/><rect fill="#3ba673" height="64" rx="16" width="32" x="104" y="216"/><rect fill="#3a98e4" height="64" rx="16" width="32" x="376" y="104"/><rect fill="#3385c8" height="64" rx="16" width="32" x="344" y="104"/><rect fill="#3a98e4" height="64" rx="16" width="32" x="168" y="104"/><rect fill="#3385c8" height="64" rx="16" width="32" x="136" y="104"/><rect fill="#3a98e4" height="64" rx="16" width="32" x="104" y="104"/><path d="m40 424h432a16 16 0 0 1 16 16v48a0 0 0 0 1 0 0h-464a0 0 0 0 1 0 0v-48a16 16 0 0 1 16-16z" fill="#ab6647"/><path d="m24 496h464a8 8 0 0 0 8-8v-48a24.028 24.028 0 0 0 -24-24h-8v-368a32 32 0 0 0 -64 0v49.376a23.943 23.943 0 0 0 -24 4.755 23.977 23.977 0 0 0 -38.624 9.869h-130.752a23.977 23.977 0 0 0 -38.624-9.869 23.943 23.943 0 0 0 -32 0 23.943 23.943 0 0 0 -24-4.755v-49.376a32 32 0 0 0 -64 0v368h-8a24.028 24.028 0 0 0 -24 24v48a8 8 0 0 0 8 8zm392-448a16 16 0 0 1 32 0v368h-32zm-280 121.869a23.943 23.943 0 0 0 32 0 23.977 23.977 0 0 0 38.624-9.869h130.752a23.977 23.977 0 0 0 38.624 9.869 23.943 23.943 0 0 0 24 4.755v34.752a23.943 23.943 0 0 0 -24 4.755 23.977 23.977 0 0 0 -38.624 9.869h-50.752a24 24 0 0 0 -45.248 0h-66.752a23.977 23.977 0 0 0 -38.624-9.869 23.943 23.943 0 0 0 -24-4.755v-34.752a23.943 23.943 0 0 0 24-4.755zm200-25.869h-128v-16h128zm16 200a8 8 0 0 1 16 0v32a8 8 0 0 1 -16 0zm8-24a23.9 23.9 0 0 0 -16 6.131 23.943 23.943 0 0 0 -32 0 23.977 23.977 0 0 0 -38.624 9.869h-130.752a23.985 23.985 0 0 0 -30.624-14.624v-34.752a23.943 23.943 0 0 0 24-4.755 23.977 23.977 0 0 0 38.624-9.869h66.752a24 24 0 0 0 45.248 0h50.752a23.977 23.977 0 0 0 38.624 9.869 23.943 23.943 0 0 0 24 4.755v34.752a23.943 23.943 0 0 0 -24 4.755 23.9 23.9 0 0 0 -16-6.131zm-40 24a8 8 0 0 1 16 0v32a8 8 0 0 1 -16 0zm-16 32a8 8 0 0 1 -16 0v-32a8 8 0 0 1 16 0zm-32-8h-128v-16h128zm-160-24a8 8 0 0 1 16 0v32a8 8 0 0 1 -16 0zm0-112a8 8 0 0 1 16 0v32a8 8 0 0 1 -16 0zm32 0a8 8 0 0 1 16 0v32a8 8 0 0 1 -16 0zm32 8h64v16h-64zm80 24v-32a8 8 0 0 1 16 0v32a8 8 0 0 1 -16 0zm32-24h48v16h-48zm80 24a8 8 0 0 1 -16 0v-32a8 8 0 0 1 16 0zm32 0a8 8 0 0 1 -16 0v-32a8 8 0 0 1 16 0zm-16 80a8 8 0 0 1 16 0v32a8 8 0 0 1 -16 0zm-272 54.624a23.985 23.985 0 0 0 30.624-14.624h130.752a23.977 23.977 0 0 0 38.624 9.869 23.943 23.943 0 0 0 32 0 23.943 23.943 0 0 0 32 0 23.943 23.943 0 0 0 24 4.755v17.376h-288zm280-286.624a8.009 8.009 0 0 1 8 8v32a8 8 0 0 1 -16 0v-32a8.009 8.009 0 0 1 8-8zm-40 8a8 8 0 0 1 16 0v32a8 8 0 0 1 -16 0zm-168-8a8.009 8.009 0 0 1 8 8v32a8 8 0 0 1 -16 0v-32a8.009 8.009 0 0 1 8-8zm-32 0a8.009 8.009 0 0 1 8 8v32a8 8 0 0 1 -16 0v-32a8.009 8.009 0 0 1 8-8zm-32 0a8.009 8.009 0 0 1 8 8v32a8 8 0 0 1 -16 0v-32a8.009 8.009 0 0 1 8-8zm-56-64a16 16 0 0 1 32 0v368h-32zm-32 392a8.009 8.009 0 0 1 8-8h432a8.009 8.009 0 0 1 8 8v40h-448z"/></svg>