<?xml version="1.0" encoding="iso-8859-1"?>
<!-- Generator: Adobe Illustrator 21.0.0, SVG Export Plug-In . SVG Version: 6.00 Build 0)  -->
<svg version="1.1" id="Capa_1" xmlns="http://www.w3.org/2000/svg" xmlns:xlink="http://www.w3.org/1999/xlink" x="0px" y="0px"
	 viewBox="0 0 593.282 593.282" style="enable-background:new 0 0 593.282 593.282;" xml:space="preserve">
<g>
	<g>
		<g id="filled_outline_1_">
			<path style="fill:#C3C9D1;" d="M583.394,340.201c0-13.903-9.661-25.936-23.227-28.952l-65.765-14.615l-31.078-73.735
				c-5.231-9.413-15.158-15.257-25.926-15.257h-71.54V415.29h217.537V340.201z"/>
			<rect x="9.888" y="128.537" style="fill:#C3C9D1;" width="355.969" height="286.753"/>
			<polygon style="fill:#4394CC;" points="454.849,306.522 405.409,306.522 405.409,247.194 435.073,247.194 			"/>
			<path style="fill:#697B8C;" d="M561.868,412.818c-7.159-26.006-34.054-41.273-60.05-34.114
				c-26.006,7.159-41.273,34.054-34.114,60.05c7.159,25.996,34.054,41.273,60.05,34.114c21.408-5.893,36.141-25.491,35.864-47.69
				C563.559,421.006,562.975,416.853,561.868,412.818z"/>
			<path style="fill:#697B8C;" d="M186.122,412.818c-7.159-26.006-34.054-41.273-60.05-34.114
				c-26.006,7.159-41.273,34.054-34.114,60.05c7.159,26.006,34.054,41.273,60.05,34.114c21.408-5.893,36.141-25.491,35.864-47.69
				C187.813,421.006,187.23,416.853,186.122,412.818z"/>
			<path style="fill:#C3C9D1;" d="M147.974,422.706c-1.434-5.27-6.862-8.385-12.133-6.951c-3.382,0.92-6.032,3.56-6.951,6.951
				c-0.218,0.811-0.336,1.641-0.346,2.472c0,5.458,4.43,9.888,9.888,9.888s9.888-4.43,9.888-9.888
				C148.311,424.348,148.192,423.517,147.974,422.706z"/>
			<path style="fill:#C3C9D1;" d="M523.72,422.706c-1.434-5.27-6.862-8.385-12.133-6.951c-3.382,0.92-6.032,3.56-6.951,6.951
				c-0.218,0.811-0.336,1.641-0.346,2.472c0,5.458,4.43,9.888,9.888,9.888c5.458,0,9.888-4.43,9.888-9.888
				C524.056,424.348,523.937,423.517,523.72,422.706z"/>
			<rect x="365.857" y="207.642" style="fill:#B7BDC4;" width="29.664" height="207.649"/>
			<rect x="9.888" y="296.634" style="fill:#DD381A;" width="355.969" height="39.552"/>
			<polygon style="fill:#3E89BD;" points="405.409,296.634 405.409,306.522 454.849,306.522 440.017,262.026 			"/>
			<path d="M562.303,301.578l-60.772-13.497l-29.091-69.038c-0.138-0.336-0.297-0.672-0.475-0.989
				c-6.991-12.538-20.221-20.31-34.578-20.3h-61.642v-19.776h19.776v-19.776h-19.776v-29.664c0-5.458-4.43-9.888-9.888-9.888H9.888
				c-5.458,0-9.888,4.43-9.888,9.888V415.29c0,5.458,4.43,9.888,9.888,9.888h79.104c0,27.301,22.139,49.44,49.44,49.44
				s49.44-22.139,49.44-49.44h276.865c0,27.301,22.139,49.44,49.44,49.44c27.301,0,49.44-22.139,49.44-49.44h19.776
				c5.458,0,9.888-4.43,9.888-9.888v-75.09C593.371,321.631,580.457,305.523,562.303,301.578z M138.432,454.842
				c-16.384,0-29.664-13.28-29.664-29.664c0-16.384,13.28-29.664,29.664-29.664c3.283,0,6.546,0.554,9.651,1.632
				c9.354,3.283,16.464,11.025,18.936,20.626l0,0c4.351,15.524-4.697,31.632-20.221,35.992
				C144.079,454.526,141.26,454.892,138.432,454.842z M355.969,207.642v197.761H183.601l-0.129-0.257
				c-0.247-0.544-0.574-0.989-0.831-1.582c-0.85-1.78-1.81-3.52-2.858-5.191c-0.504-0.771-1.078-1.463-1.612-2.205
				c-0.989-1.325-1.978-2.63-3.036-3.856c-0.662-0.742-1.365-1.424-2.067-2.126c-1.098-1.088-2.225-2.136-3.421-3.125
				c-0.781-0.643-1.582-1.256-2.413-1.859c-1.236-0.9-2.512-1.721-3.837-2.502c-0.87-0.524-1.73-0.989-2.64-1.493
				c-1.394-0.712-2.838-1.325-4.301-1.908c-0.91-0.356-1.8-0.742-2.729-1.048c-1.641-0.524-3.322-0.959-5.013-1.295
				c-0.831-0.178-1.622-0.415-2.462-0.554c-5.181-0.88-10.462-0.88-15.643,0c-0.831,0.129-1.632,0.376-2.462,0.554
				c-1.691,0.346-3.362,0.781-5.013,1.295c-0.929,0.306-1.819,0.692-2.719,1.048c-1.473,0.583-2.966,1.196-4.311,1.908
				c-0.91,0.465-1.77,0.989-2.64,1.483c-1.325,0.791-2.601,1.622-3.846,2.521c-0.821,0.593-1.612,1.196-2.393,1.839
				c-1.206,0.989-2.343,2.057-3.441,3.154c-0.702,0.692-1.394,1.365-2.047,2.096c-1.098,1.266-2.126,2.581-3.075,3.955
				c-0.524,0.722-1.088,1.404-1.572,2.156c-1.098,1.721-2.086,3.5-2.966,5.34c-0.237,0.484-0.534,0.939-0.751,1.434
				c0,0.089-0.099,0.178-0.138,0.267H19.776V138.425h336.193V207.642z M514.178,454.842c-16.384,0-29.664-13.28-29.664-29.664
				c0-16.384,13.28-29.664,29.664-29.664c3.283,0,6.546,0.554,9.651,1.632c9.354,3.283,16.464,11.025,18.936,20.626l0,0
				c4.351,15.524-4.697,31.632-20.221,35.992C519.824,454.526,517.006,454.892,514.178,454.842z M573.506,405.402h-14.16
				c0-0.089-0.089-0.168-0.129-0.257c-0.247-0.544-0.573-0.989-0.831-1.582c-0.85-1.78-1.81-3.52-2.858-5.191
				c-0.504-0.771-1.078-1.463-1.612-2.205c-0.989-1.325-1.978-2.63-3.036-3.856c-0.663-0.742-1.365-1.424-2.067-2.126
				c-1.098-1.088-2.225-2.136-3.421-3.125c-0.781-0.643-1.582-1.256-2.413-1.859c-1.236-0.9-2.512-1.721-3.837-2.502
				c-0.87-0.524-1.73-0.989-2.64-1.493c-1.394-0.712-2.838-1.325-4.301-1.908c-0.91-0.356-1.8-0.742-2.729-1.048
				c-1.641-0.524-3.322-0.959-5.013-1.295c-0.831-0.178-1.622-0.415-2.462-0.554c-5.181-0.88-10.462-0.88-15.643,0
				c-0.831,0.129-1.632,0.376-2.462,0.554c-1.691,0.346-3.362,0.781-5.013,1.295c-0.93,0.306-1.819,0.692-2.719,1.048
				c-1.473,0.583-2.917,1.196-4.311,1.908c-0.91,0.465-1.77,0.989-2.64,1.483c-1.325,0.791-2.601,1.622-3.846,2.521
				c-0.821,0.593-1.612,1.196-2.393,1.839c-1.206,0.989-2.343,2.057-3.441,3.154c-0.702,0.692-1.394,1.365-2.047,2.096
				c-1.098,1.266-2.126,2.581-3.075,3.955c-0.524,0.722-1.088,1.404-1.572,2.156c-1.098,1.721-2.086,3.5-2.966,5.34
				c-0.237,0.484-0.534,0.939-0.751,1.434c0,0.089-0.099,0.178-0.138,0.267h-93.234V217.53h61.642c7.011,0,13.497,3.708,17.057,9.75
				l30.841,73.171c1.236,2.937,3.807,5.102,6.922,5.814l65.755,14.605c7.634,1.651,13.556,7.663,15.099,15.317h-29.219v19.776
				h29.664V405.402z"/>
			<rect x="39.552" y="158.201" width="29.664" height="19.776"/>
			<rect x="88.992" y="158.201" width="29.664" height="19.776"/>
			<rect x="257.089" y="158.201" width="29.664" height="19.776"/>
			<rect x="306.529" y="158.201" width="29.664" height="19.776"/>
			<polygon points="43.972,265.932 69.216,253.305 69.216,276.858 88.992,276.858 88.992,253.305 114.236,265.932 123.076,248.232 
				101.214,237.306 123.076,226.379 114.236,208.68 88.992,221.307 88.992,197.754 69.216,197.754 69.216,221.307 43.972,208.68 
				35.132,226.379 56.995,237.306 35.132,248.232 			"/>
			<path d="M444.447,244.069c-1.345-4.034-5.122-6.763-9.374-6.763h-29.664c-5.458,0-9.888,4.43-9.888,9.888v59.328
				c0,5.458,4.43,9.888,9.888,9.888h49.44c5.458,0,9.888-4.43,9.878-9.898c0-1.058-0.168-2.116-0.504-3.115L444.447,244.069z
				 M415.297,296.634v-39.552h12.647l13.181,39.552H415.297z"/>
			<rect x="395.521" y="336.186" width="39.552" height="19.776"/>
			<path d="M39.552,375.738H98.88v-79.104H39.552V375.738z M59.328,316.41h19.776v39.552H59.328V316.41z"/>
			<path d="M336.193,296.634H168.097v79.104h168.097V296.634z M217.537,355.962h-29.664V316.41h29.664V355.962z M266.977,355.962
				h-29.664V316.41h29.664V355.962z M316.417,355.962h-29.664V316.41h29.664V355.962z"/>
		</g>
	</g>
</g>
<g>
</g>
<g>
</g>
<g>
</g>
<g>
</g>
<g>
</g>
<g>
</g>
<g>
</g>
<g>
</g>
<g>
</g>
<g>
</g>
<g>
</g>
<g>
</g>
<g>
</g>
<g>
</g>
<g>
</g>
</svg>
