<svg height="512" viewBox="0 0 60 60" width="512" xmlns="http://www.w3.org/2000/svg"><g id="004---Buterfly" fill="none"><g id="Icons" transform="translate(1 7)"><path id="Shape" d="m25 42.17c-.0927712 5.4563453-4.5428662 9.8307886-10 9.83h-12c-.55228475 0-1-.4477153-1-1v-8c0-5.5228475 4.4771525-10 10-10h11.72c.33 3.28.76 6.42 1.28 9.17z" fill="#3f51b5"/><path id="Shape" d="m23.72 33h-13.72c-5.5228475 0-10-4.4771525-10-10v-19c0-.55228475.44771525-1 1-1h10c2.8642886.00466816 5.6576126.89154854 8 2.54.2496987 2.38220042 2.1537373 4.25268766 4.54 4.46-.99 6.17-.45 16.71.18 23z" fill="#02a9f4"/><path id="Shape" d="m56 43v8c0 .5522847-.4477153 1-1 1h-12c-5.4456761.0010892-9.8910866-4.355413-10-9.8.51-2.75.94-5.91 1.27-9.2h11.73c5.5228475 0 10 4.4771525 10 10z" fill="#283593"/><path id="Shape" d="m53 43v8c0 .5522847-.4477153 1-1 1h-9c-5.4456761.0010892-9.8910866-4.355413-10-9.8.51-2.75.94-5.91 1.27-9.2h8.73c5.5228475 0 10 4.4771525 10 10z" fill="#3f51b5"/><path id="Shape" d="m58 4v19c0 5.5228475-4.4771525 10-10 10h-13.72c.62-6.27 1.16-16.86.18-23 2.3862627-.20731234 4.2903013-2.07779958 4.54-4.46 2.3423874-1.64845146 5.1357114-2.53533184 8-2.54h10c.5522847 0 1 .44771525 1 1z" fill="#0377bc"/><path id="Shape" d="m55 4v19c0 5.5228475-4.4771525 10-10 10h-10.72c.62-6.27 1.16-16.86.18-23 2.3862627-.20731234 4.2903013-2.07779958 4.54-4.46 2.3423874-1.64845146 5.1357114-2.53533184 8-2.54h7c.5522847 0 1 .44771525 1 1z" fill="#02a9f4"/><g fill="#ffdc00"><circle id="Oval" cx="12" cy="43" r="5"/><circle id="Oval" cx="14" cy="15" r="5"/><circle id="Oval" cx="46" cy="43" r="5"/><circle id="Oval" cx="44" cy="15" r="5"/></g><path id="Shape" d="m27.5 50.72c-3.89-6.67-5.35-32-4-40.75l5.5-4.97 5.46 5c1.99 12.49-1.92 49.33-6.96 40.72z" fill="#fec108"/><path id="Shape" d="m27.5 50.72c-3.57-6.13-5.51-31-4-40.75l4-3.6 4 3.6c1.5 9.52-.37 34.52-4 40.75z" fill="#ffdc00"/><circle id="Oval" cx="24" cy="5" fill="#f5f5f5" r="5"/><path id="Shape" d="m39 5c.0095192 1.94115487-1.1053548 3.71238838-2.8597077 4.54330278-1.7543529.83091442-3.831087.57132262-5.326927-.66586588-1.4958401-1.23718851-2.1404143-3.22835305-1.6533653-5.1074369.6303402-2.43191563 2.9673556-4.01848011 5.4602338-3.70687033 2.4928782.31160977 4.3674465 2.42462221 4.3797662 4.93687033z" fill="#cfd8dc"/><path id="Shape" d="m36 5c.0045063 2.18739016-1.4133569 4.1237862-3.5 4.78-2.0915959-.649612-3.516971-2.58484725-3.516971-4.775s1.4253751-4.12538799 3.516971-4.775c2.0831174.6551101 3.5001328 2.58629965 3.5 4.77z" fill="#f5f5f5"/></g><g id="Layer_10" fill="#000" transform="translate(0 -1)"><circle id="Oval" cx="26" cy="13" r="1"/><circle id="Oval" cx="34" cy="13" r="1"/><path id="Shape" d="m7.57 41.45c-3.4377213 1.9512945-5.56412117 5.5970968-5.57 9.55v9c0 .5522847.44771525 1 1 1h13c4.2544408-.0245785 8.1183559-2.4852005 9.94-6.33 1.06 3.77 2.35 6.33 4.06 6.33s3-2.56 4.06-6.33c1.8216441 3.8447995 5.6855592 6.3054215 9.94 6.33h13c.5522847 0 1-.4477153 1-1v-9c-.0058788-3.9529032-2.1322787-7.5987055-5.57-9.55 4.5159971-1.482063 7.5693261-5.6970283 7.57-10.45v-20c0-.5522847-.4477153-1-1-1h-11c-2.4870966.0004671-4.9346222.6226611-7.12 1.81-.4857465-2.40046308-2.3816969-4.26474842-4.79-4.71.2777832-2.45931775 2.440571-4.26531164 4.91-4.1 4.62 0 3.71 4 2 4-.5522847 0-1 .44771525-1 1s.4477153 1 1 1c4.32 0 5.33-8-2-8-3.5734861-.17910771-6.642627 2.5135873-6.93 6.08-1.6626742.26068376-3.1394246 1.20769077-4.07 2.61-.9305754-1.40230923-2.4073258-2.34931624-4.07-2.61-.287373-3.5664127-3.3565139-6.25910771-6.93-6.08-7.32 0-6.33 8-2 8 .5522847 0 1-.44771525 1-1s-.4477153-1-1-1c-1.71 0-2.63-4 2-4 2.4745678-.1811963 4.6469302 1.63279262 4.91 4.1-2.4083031.44525158-4.3042535 2.30953692-4.79 4.71-2.1853778-1.1873389-4.6329034-1.8095329-7.12-1.81h-11c-.55228475 0-1 .4477153-1 1v20c.00067394 4.7529717 3.05400286 8.967937 7.57 10.45zm22.43 17.55c-1.94-.56-5-15.43-5-32-.0326119-2.6726531.1043297-5.3446839.41-8 1.8656369-.1322598 3.5628895-1.126946 4.59-2.69 1.0271105 1.563054 2.7243631 2.5577402 4.59 2.69.77 6 .54 19.56-1.52 30.87-.07.13-1.5 8.68-3.07 9.13zm28-47.0000146v19.0000146c0 4.9705627-4.0294373 9-9 9h-3c-.5522847 0-1 .4477153-1 1s.4477153 1 1 1h1c4.9705627 0 9 4.0294373 9 9v8h-12c-4.813575-.0262019-8.766296-3.8120302-9-8.62 1.5-8.17 2.64-23.21 1.57-31.6 2.2023872-.6007947 3.8730269-2.3993487 4.31-4.64 2.110621-1.3993207 4.5876484-2.1438205 7.12-2.14zm-23-2.9999854c2.209139 0 4 1.790861 4 4s-1.790861 4-4 4-4-1.790861-4-4 1.790861-4 4-4zm-10 0c2.209139 0 4 1.790861 4 4s-1.790861 4-4 4-4-1.790861-4-4 1.790861-4 4-4zm-23 2.9999966 10 .0000034c2.5289466-.0018506 5.0022166.7425654 7.11 2.14.4369731 2.2406513 2.1076128 4.0392053 4.31 4.64-1.07 8.39.07 23.43 1.57 31.6-.2334857 4.8041356-4.180297 8.5885086-8.99 8.62h-12v-8c0-4.9705627 4.02943725-9 9-9h1c.5522847 0 1-.4477153 1-1s-.4477153-1-1-1h-3c-4.97056275 0-9-4.0294373-9-9z"/><path id="Shape" d="m5 17c.55228475 0 1-.4477153 1-1v-1c0-.5522847-.44771525-1-1-1s-1 .4477153-1 1v1c0 .5522847.44771525 1 1 1z"/><path id="Shape" d="m11 38c.5522847 0 1-.4477153 1-1s-.4477153-1-1-1c-2.76142375 0-5-2.2385763-5-5v-11c0-.5522847-.44771525-1-1-1s-1 .4477153-1 1v11c0 3.8659932 3.13400675 7 7 7z"/><path id="Shape" d="m13 45c-3.3137085 0-6 2.6862915-6 6s2.6862915 6 6 6 6-2.6862915 6-6-2.6862915-6-6-6zm0 10c-2.209139 0-4-1.790861-4-4s1.790861-4 4-4 4 1.790861 4 4-1.790861 4-4 4z"/><path id="Shape" d="m15 29c3.3137085 0 6-2.6862915 6-6s-2.6862915-6-6-6-6 2.6862915-6 6 2.6862915 6 6 6zm0-10c2.209139 0 4 1.790861 4 4s-1.790861 4-4 4-4-1.790861-4-4 1.790861-4 4-4z"/><path id="Shape" d="m55 17c.5522847 0 1-.4477153 1-1v-1c0-.5522847-.4477153-1-1-1s-1 .4477153-1 1v1c0 .5522847.4477153 1 1 1z"/><path id="Shape" d="m48 37c0 .5522847.4477153 1 1 1 3.8659932 0 7-3.1340068 7-7v-11c0-.5522847-.4477153-1-1-1s-1 .4477153-1 1v11c0 2.7614237-2.2385763 5-5 5-.5522847 0-1 .4477153-1 1z"/><path id="Shape" d="m41 51c0 3.3137085 2.6862915 6 6 6s6-2.6862915 6-6-2.6862915-6-6-6-6 2.6862915-6 6zm6-4c2.209139 0 4 1.790861 4 4s-1.790861 4-4 4-4-1.790861-4-4 1.790861-4 4-4z"/><path id="Shape" d="m39 23c0 3.3137085 2.6862915 6 6 6s6-2.6862915 6-6-2.6862915-6-6-6-6 2.6862915-6 6zm10 0c0 2.209139-1.790861 4-4 4s-4-1.790861-4-4 1.790861-4 4-4 4 1.790861 4 4z"/><path id="Shape" d="m27.55 26.45c1.5515949.7307697 3.3484051.7307697 4.9 0 .490313-.2495756.6869243-.8483464.44-1.34-.2459531-.4940809-.8456857-.6954836-1.34-.45-.9908032.436097-2.1191968.436097-3.11 0-.4909683-.2255152-1.0722858-.0202733-1.3128266.4635108-.2405407.4837842-.0533137 1.0711515.4228266 1.3264892z"/><path id="Shape" d="m31.55 28.66c-.9908032.436097-2.1191968.436097-3.11 0-.4909683-.2255152-1.0722858-.0202733-1.3128266.4635108-.2405407.4837842-.0533137 1.0711515.4228266 1.3264892 1.5515949.7307697 3.3484051.7307697 4.9 0 .490313-.2495756.6869243-.8483464.44-1.34-.2459531-.4940809-.8456857-.6954836-1.34-.45z"/><path id="Shape" d="m31.55 32.66c-.9908032.436097-2.1191968.436097-3.11 0-.4909683-.2255152-1.0722858-.0202733-1.3128266.4635108-.2405407.4837842-.0533137 1.0711515.4228266 1.3264892 1.5515949.7307697 3.3484051.7307697 4.9 0 .490313-.2495756.6869243-.8483464.44-1.34-.2459531-.4940809-.8456857-.6954836-1.34-.45z"/><path id="Shape" d="m31.55 36.66c-.9908032.436097-2.1191968.436097-3.11 0-.4909683-.2255152-1.0722858-.0202733-1.3128266.4635108-.2405407.4837842-.0533137 1.0711515.4228266 1.3264892 1.5515949.7307697 3.3484051.7307697 4.9 0 .490313-.2495756.6869243-.8483464.44-1.34-.2459531-.4940809-.8456857-.6954836-1.34-.45z"/></g></g></svg>