<svg height="512" viewBox="0 0 48 48" width="512" xmlns="http://www.w3.org/2000/svg"><g id="Line"><path d="m37.063 21 .479-1.325c.706-1.956.048-4.161-1.568-5.262-.176-1.986-1.238-3.791-2.916-4.91l-.198-.131-.25-.876c-2.787-9.081-15.513-8.398-17.47.876-1.777 1.107-2.936 2.974-3.114 5.042-1.617 1.099-2.276 3.306-1.568 5.262l.479 1.324-.479 1.324c-.704 1.945-.056 4.138 1.542 5.244.014 2.927 1.544 5.574 4.037 7.045.29 3.042 3.661 4.946 6.487 3.932 0 0 1.476-.492 1.476-.492l1.476.492c2.946 1.007 6.173-.917 6.487-3.932 2.493-1.472 4.022-4.119 4.037-7.045 1.597-1.104 2.246-3.298 1.543-5.244z" fill="#92b77e"/><path d="m29.515 21.857c1.116-.676.097-2.384-1.029-1.715 0 0-3.485 2.091-3.485 2.091v-5.668l4.515-2.709c.474-.284.627-.898.343-1.372-.284-.473-.898-.627-1.372-.343l-3.487 2.093v-3.234c0-.552-.448-1-1-1s-1 .448-1 1v3.234l-3.485-2.091c-1.122-.665-2.15 1.034-1.029 1.715 0 0 4.515 2.709 4.515 2.709v5.668l-3.485-2.091c-.475-.286-1.088-.131-1.372.343s-.131 1.088.343 1.372l4.513 2.707v5.668l-3.485-2.091c-1.122-.671-2.149 1.039-1.029 1.715 0 0 4.515 2.709 4.515 2.709v12.433c.018 1.298 1.976 1.327 2 0v-12.434l4.515-2.709c1.117-.681.097-2.381-1.029-1.715 0 0-3.485 2.091-3.485 2.091v-5.668z" fill="#609c48"/><path d="m35.975 14.414c-.178-2.068-1.338-3.935-3.114-5.042 0 0-.25-.876-.25-.876-2.509-8.59-14.709-8.599-17.22 0 0 0-.25.876-.25.876l-.198.132c-1.678 1.119-2.74 2.923-2.916 4.91-1.617 1.099-2.276 3.306-1.568 5.262l.478 1.324-.479 1.324c-.704 1.945-.056 4.138 1.542 5.244.014 2.927 1.544 5.574 4.037 7.045.312 3.268 4.057 5.077 6.963 3.773v6.613c.018 1.3 1.977 1.326 2 0v-6.613l.476.159c2.946 1.007 6.173-.917 6.487-3.932 2.493-1.472 4.022-4.119 4.037-7.045 1.597-1.104 2.246-3.298 1.543-5.244l-.48-1.324.479-1.325c.707-1.955.049-4.161-1.567-5.261zm-.915 6.926.603 1.664c.402 1.113.055 2.349-.823 2.936-.43.214-.859.527-.84 1.06.157 2.546-1.137 4.971-3.447 6.105-.763.346-.443 1.279-.727 1.906-.507 1.416-2.171 2.153-3.717 1.637l-1.109-.369v-3.713l4.515-2.709c1.117-.682.097-2.38-1.029-1.715 0 0-3.485 2.091-3.485 2.091v-5.668l4.515-2.709c1.116-.677.097-2.383-1.029-1.715 0 0-3.485 2.091-3.485 2.091v-5.668l4.515-2.709c1.115-.672.098-2.386-1.029-1.715 0 0-3.485 2.091-3.485 2.091v-3.231c-.004-1.301-1.994-1.313-2 0v3.234l-3.485-2.091c-1.121-.666-2.15 1.034-1.029 1.715 0 0 4.515 2.709 4.515 2.709v5.668l-3.485-2.091c-.475-.286-1.088-.131-1.372.343s-.131 1.088.343 1.372l4.51 2.707v5.668l-3.485-2.091c-1.122-.672-2.149 1.04-1.029 1.715 0 0 4.515 2.709 4.515 2.709v3.713l-1.108.37c-1.54.515-3.209-.22-3.717-1.637-.284-.626.035-1.56-.727-1.906-2.312-1.137-3.607-3.56-3.449-6.107.024-.534-.413-.844-.837-1.059-.881-.588-1.228-1.823-.825-2.937.117-.493.853-1.846.602-2.345 0 0-.602-1.665-.602-1.665-.443-1.232.018-2.582 1.107-3.1.341-.168.555-.515.555-.894-.022-1.774 1.037-3.314 2.555-4.168.472-.256.589-1.341.758-1.788 2.405-7.379 12.436-6.362 13.725 1.231.091.414.586.678.911.893 1.284.856 2.051 2.289 2.051 3.832 0 .379.214.725.553.895 1.091.518 1.551 1.87 1.109 3.101-.118.495-.853 1.842-.602 2.344z"/></g></svg>