<svg id="svg8" height="512" viewBox="0 0 111 111" width="512" xmlns="http://www.w3.org/2000/svg" xmlns:svg="http://www.w3.org/2000/svg"><g id="layer1"><g id="g906"><path id="path1029-3-3-3-4-8" d="m49.072681 3.7625c-1.189704-3.39765808 3.683408-5.9982523 5.755909-.8907242 4.263527 10.5070782 5.016178 21.8443292 4.244988 27.9410522l-5.423314.342751c-.317109-9.914455-.94899-17.03034-4.577583-27.393079z" fill="#1a1c20"/><path id="path945-0-6-9-9-2-3-7-7" d="m43.564428 17.615504c-16.710058 0-15.10577 24.434377 0 24.434373 15.105772.000004 16.710078-24.434374 0-24.434373z" fill="#9f81cf"/><path id="path945-0-6-9-9-2-3-7-2" d="m67.390702 17.615504c-16.710061 0-15.105772 24.434377 0 24.434373 15.105768.000004 16.710074-24.434374 0-24.434373z" fill="#916fc8"/><path id="path945-0-6-9-9-2-3-7-7-4" d="m55.526377 40.060299c-16.71006 0-15.10577 24.434376 0 24.434372 15.105771.000004 16.710077-24.434372 0-24.434372z" fill="#916fc8"/><path id="path945-0-6-9-9-2-3-7-2-3" d="m79.352652 40.060299c-16.710062 0-15.105771 24.434376 0 24.434376 15.105776 0 16.710083-24.434376 0-24.434376z" fill="#845ec2"/><path id="path1291" d="m88.033203 46.996094a4.4891052 4.4891052 0 0 0 -4.378906 4.236328c-.116449 2.064603-.576431 3.480353-1.128906 4.246094-.552476.76574-1.165849 1.306034-3.277344 1.603515a4.4891052 4.4891052 0 0 0 -3.818359 5.072266 4.4891052 4.4891052 0 0 0 5.070312 3.818359c3.938638-.5549 7.312502-2.478277 9.306641-5.242187 1.994138-2.76391 2.640418-5.943191 2.8125-8.994141a4.4891052 4.4891052 0 0 0 -4.230469-4.734375 4.4891052 4.4891052 0 0 0 -.355469-.0059z" fill="#6940aa" font-variant-ligatures="normal" font-variant-position="normal" font-variant-caps="normal" font-variant-numeric="normal" font-variant-alternates="normal" font-variant-east-asian="normal" font-feature-settings="normal" font-variation-settings="normal" text-indent="0" text-align="start" text-decoration-line="none" text-decoration-style="solid" text-decoration-color="#000000" text-transform="none" text-orientation="mixed" white-space="normal" shape-padding="0" shape-margin="0" inline-size="0" isolation="auto" mix-blend-mode="normal" solid-color="#000000" solid-opacity="1" vector-effect="none"/><path id="path945-0-6-9-9-2-3-7-2-9-7" d="m31.647336 40.060299c-16.710061 0-15.105772 24.434376 0 24.434376s16.710075-24.434376 0-24.434376z" fill="#9f81cf"/><path id="path945-0-6-9-9-2-3-7-7-9" d="m44.533095 62.10151c-16.71006 0-15.10577 24.434383 0 24.434375 15.10577.000008 16.710076-24.43438 0-24.434375z" fill="#916fc8"/><path id="path945-0-6-9-9-2-3-7-2-36" d="m68.359368 62.10151c-16.710059 0-15.105772 24.434383 0 24.434375 15.105767.000008 16.710074-24.43438 0-24.434375z" fill="#845ec2"/><path id="path1295" d="m76.292969 69.066406a4.4891052 4.4891052 0 0 0 -4.378907 4.236328c-.116449 2.064603-.57643 3.480354-1.128906 4.246094-.552475.765741-1.165848 1.306034-3.277344 1.603516a4.4891052 4.4891052 0 0 0 -3.820312 5.072265 4.4891052 4.4891052 0 0 0 5.072266 3.81836c3.938637-.554902 7.312501-2.478278 9.30664-5.242188 1.994139-2.763909 2.638465-5.94319 2.810547-8.99414a4.4891052 4.4891052 0 0 0 -4.228515-4.734375 4.4891052 4.4891052 0 0 0 -.355469-.0059z" fill="#6940aa" font-variant-ligatures="normal" font-variant-position="normal" font-variant-caps="normal" font-variant-numeric="normal" font-variant-alternates="normal" font-variant-east-asian="normal" font-feature-settings="normal" font-variation-settings="normal" text-indent="0" text-align="start" text-decoration-line="none" text-decoration-style="solid" text-decoration-color="#000000" text-transform="none" text-orientation="mixed" white-space="normal" shape-padding="0" shape-margin="0" inline-size="0" isolation="auto" mix-blend-mode="normal" solid-color="#000000" solid-opacity="1" vector-effect="none"/><path id="path945-0-6-9-9-2-3-7-7-4-8" d="m56.495042 84.071207c-16.710058 0-15.10577 24.434423 0 24.434423 15.105772 0 16.710078-24.434423 0-24.434423z" fill="#845ec2"/><g fill="#1a1c20"><path id="path1299" d="m43.564453 15.121094c-4.785418 0-8.635435 1.850963-11.068359 4.689453-2.432925 2.83849-3.473479 6.508774-3.355469 10.103515.11801 3.594742 1.384621 7.184993 3.828125 9.964844 2.443504 2.779852 6.146796 4.666017 10.595703 4.666016 4.448907.000001 8.152198-1.886165 10.595703-4.666016s3.710114-6.370102 3.828125-9.964844c.118012-3.594741-.922543-7.265025-3.355469-10.103515-2.432925-2.83849-6.282937-4.689454-11.068359-4.689453zm0 4.988281c3.569619 0 5.785376 1.20431 7.279297 2.947266 1.493921 1.742955 2.24073 4.179506 2.158203 6.693359-.08253 2.513853-1.004279 5.034344-2.587891 6.835938-1.583611 1.801593-3.745629 2.96875-6.849609 2.96875s-5.265999-1.167157-6.849609-2.96875c-1.58361-1.801594-2.505365-4.322085-2.587891-6.835938-.08253-2.513853.664282-4.950404 2.158203-6.693359 1.493921-1.742956 3.709684-2.947266 7.279297-2.947266z" font-variant-ligatures="normal" font-variant-position="normal" font-variant-caps="normal" font-variant-numeric="normal" font-variant-alternates="normal" font-variant-east-asian="normal" font-feature-settings="normal" font-variation-settings="normal" text-indent="0" text-align="start" text-decoration-line="none" text-decoration-style="solid" text-decoration-color="#000000" text-transform="none" text-orientation="mixed" white-space="normal" shape-padding="0" shape-margin="0" inline-size="0" isolation="auto" mix-blend-mode="normal" solid-color="#000000" solid-opacity="1" vector-effect="none"/><path id="path1303" d="m67.390625 15.121094c-4.785416 0-8.635436 1.850963-11.068359 4.689453-2.432924 2.83849-3.473479 6.508775-3.355469 10.103515.11801 3.594741 1.384622 7.184993 3.828125 9.964844 2.443502 2.779852 6.146798 4.666017 10.595703 4.666016 4.448907.000001 8.152198-1.886165 10.595703-4.666016s3.710114-6.370102 3.828125-9.964844c.118011-3.594741-.922543-7.265025-3.355469-10.103515-2.432925-2.83849-6.282937-4.689454-11.068359-4.689453zm0 4.988281c3.569618 0 5.785375 1.20431 7.279297 2.947266 1.493921 1.742955 2.24073 4.179506 2.158203 6.693359-.08253 2.513853-1.004279 5.034344-2.587891 6.835938-1.583611 1.801593-3.745629 2.96875-6.849609 2.96875-3.103978 0-5.266-1.167157-6.849609-2.96875-1.583609-1.801594-2.505365-4.322085-2.587891-6.835938-.08253-2.513853.664283-4.950404 2.158203-6.693359 1.49392-1.742956 3.709686-2.947266 7.279297-2.947266z" font-variant-ligatures="normal" font-variant-position="normal" font-variant-caps="normal" font-variant-numeric="normal" font-variant-alternates="normal" font-variant-east-asian="normal" font-feature-settings="normal" font-variation-settings="normal" text-indent="0" text-align="start" text-decoration-line="none" text-decoration-style="solid" text-decoration-color="#000000" text-transform="none" text-orientation="mixed" white-space="normal" shape-padding="0" shape-margin="0" inline-size="0" isolation="auto" mix-blend-mode="normal" solid-color="#000000" solid-opacity="1" vector-effect="none"/><path id="path1307" d="m55.527344 37.566406c-4.785418 0-8.635436 1.84901-11.06836 4.6875s-3.475432 6.510728-3.357422 10.105469c.118011 3.594741 1.384622 7.184993 3.828126 9.964844 2.443503 2.77985 6.14875 4.664065 10.597656 4.664062 4.448907.000003 8.152198-1.884212 10.595703-4.664062 2.443505-2.779851 3.710114-6.370103 3.828125-9.964844s-.924496-7.266979-3.357422-10.105469-6.280984-4.6875-11.066406-4.6875zm0 4.988282c3.569618 0 5.785375 1.20431 7.279297 2.947265 1.493921 1.742956 2.24073 4.179507 2.158203 6.693359-.08253 2.513853-1.006233 5.032392-2.589844 6.833985s-3.743676 2.970705-6.847656 2.970703c-3.103977.000002-5.266-1.16911-6.84961-2.970703-1.583609-1.801593-2.507317-4.320132-2.589843-6.833985-.08253-2.513852.664282-4.950403 2.158203-6.693359 1.49392-1.742955 3.711636-2.947265 7.28125-2.947265z" font-variant-ligatures="normal" font-variant-position="normal" font-variant-caps="normal" font-variant-numeric="normal" font-variant-alternates="normal" font-variant-east-asian="normal" font-feature-settings="normal" font-variation-settings="normal" text-indent="0" text-align="start" text-decoration-line="none" text-decoration-style="solid" text-decoration-color="#000000" text-transform="none" text-orientation="mixed" white-space="normal" shape-padding="0" shape-margin="0" inline-size="0" isolation="auto" mix-blend-mode="normal" solid-color="#000000" solid-opacity="1" vector-effect="none"/><path id="path1311" d="m79.353516 37.566406c-4.785418 0-8.635435 1.84901-11.06836 4.6875-2.432924 2.83849-3.475432 6.510728-3.357422 10.105469s1.384622 7.184992 3.828125 9.964844c2.443504 2.779852 6.148749 4.664062 10.597657 4.664062 4.448906 0 8.152198-1.884211 10.595703-4.664062 2.443504-2.779852 3.710113-6.370102 3.828125-9.964844.118011-3.594742-.924497-7.266978-3.357422-10.105469-2.432925-2.83849-6.280985-4.6875-11.066406-4.6875zm0 4.988282c3.569617 0 5.785375 1.20431 7.279296 2.947265 1.493922 1.742956 2.240731 4.179507 2.158204 6.693359-.08253 2.513853-1.006233 5.03239-2.589844 6.833985-1.583611 1.801594-3.743678 2.970703-6.847656 2.970703-3.103981 0-5.266-1.169109-6.84961-2.970703s-2.507317-4.320131-2.589844-6.833985c-.08253-2.513853.664283-4.950403 2.158204-6.693359s3.711636-2.947265 7.28125-2.947265z" font-variant-ligatures="normal" font-variant-position="normal" font-variant-caps="normal" font-variant-numeric="normal" font-variant-alternates="normal" font-variant-east-asian="normal" font-feature-settings="normal" font-variation-settings="normal" text-indent="0" text-align="start" text-decoration-line="none" text-decoration-style="solid" text-decoration-color="#000000" text-transform="none" text-orientation="mixed" white-space="normal" shape-padding="0" shape-margin="0" inline-size="0" isolation="auto" mix-blend-mode="normal" solid-color="#000000" solid-opacity="1" vector-effect="none"/><path id="path1315" d="m31.646484 37.566406c-4.785418 0-8.633481 1.84901-11.066406 4.6875s-3.475432 6.510727-3.357422 10.105469 1.384621 7.184992 3.828125 9.964844 6.146796 4.664062 10.595703 4.664062c4.448906 0 8.154153-1.884211 10.597657-4.664062 2.443503-2.779852 3.710113-6.370103 3.828125-9.964844.118011-3.594741-.924498-7.266978-3.357422-10.105469-2.432925-2.83849-6.28294-4.6875-11.06836-4.6875zm0 4.988282c3.569617 0 5.78733 1.20431 7.28125 2.947265 1.493921 1.742956 2.24073 4.179506 2.158204 6.693359-.08253 2.513854-1.006234 5.032391-2.589844 6.833985-1.583611 1.801594-3.745632 2.970703-6.84961 2.970703-3.10398 0-5.264046-1.169109-6.847656-2.970703s-2.507318-4.320132-2.589844-6.833985c-.08253-2.513852.664282-4.950403 2.158204-6.693359 1.493921-1.742956 3.709682-2.947265 7.279296-2.947265z" font-variant-ligatures="normal" font-variant-position="normal" font-variant-caps="normal" font-variant-numeric="normal" font-variant-alternates="normal" font-variant-east-asian="normal" font-feature-settings="normal" font-variation-settings="normal" text-indent="0" text-align="start" text-decoration-line="none" text-decoration-style="solid" text-decoration-color="#000000" text-transform="none" text-orientation="mixed" white-space="normal" shape-padding="0" shape-margin="0" inline-size="0" isolation="auto" mix-blend-mode="normal" solid-color="#000000" solid-opacity="1" vector-effect="none"/><path id="path1319" d="m44.533203 59.607422c-4.785418 0-8.635435 1.850962-11.068359 4.689453-2.432925 2.838491-3.473479 6.508774-3.355469 10.103516s1.384621 7.184992 3.828125 9.964843c2.443504 2.779852 6.146795 4.664066 10.595703 4.664063 4.448905.000003 8.152199-1.884211 10.595703-4.664063 2.443504-2.779851 3.710114-6.370101 3.828125-9.964843.118012-3.594742-.922544-7.265025-3.355469-10.103516-2.432924-2.838491-6.282939-4.689453-11.068359-4.689453zm0 4.988281c3.569616 0 5.785376 1.20431 7.279297 2.947266s2.24073 4.179505 2.158203 6.693359c-.08253 2.513854-1.00428 5.032391-2.587891 6.833984-1.58361 1.801594-3.745632 2.970705-6.849609 2.970704-3.10398.000001-5.265999-1.16911-6.849609-2.970704-1.58361-1.801593-2.505365-4.32013-2.587891-6.833984-.08253-2.513854.664282-4.950403 2.158203-6.693359 1.493921-1.742957 3.709684-2.947266 7.279297-2.947266z" font-variant-ligatures="normal" font-variant-position="normal" font-variant-caps="normal" font-variant-numeric="normal" font-variant-alternates="normal" font-variant-east-asian="normal" font-feature-settings="normal" font-variation-settings="normal" text-indent="0" text-align="start" text-decoration-line="none" text-decoration-style="solid" text-decoration-color="#000000" text-transform="none" text-orientation="mixed" white-space="normal" shape-padding="0" shape-margin="0" inline-size="0" isolation="auto" mix-blend-mode="normal" solid-color="#000000" solid-opacity="1" vector-effect="none"/><path id="path1323" d="m68.359375 59.607422c-4.785416 0-8.635436 1.850962-11.068359 4.689453-2.432924 2.838491-3.473479 6.508774-3.355469 10.103516.11801 3.594741 1.384622 7.184992 3.828125 9.964843 2.443502 2.779852 6.146797 4.664066 10.595703 4.664063 4.448906.000003 8.152199-1.884211 10.595703-4.664063 2.443504-2.779851 3.710114-6.370101 3.828125-9.964843s-.922544-7.265025-3.355469-10.103516c-2.432924-2.838491-6.282939-4.689453-11.068359-4.689453zm0 4.988281c3.569616 0 5.785376 1.20431 7.279297 2.947266s2.24073 4.179505 2.158203 6.693359c-.08253 2.513854-1.00428 5.032391-2.587891 6.833984-1.58361 1.801594-3.745632 2.970705-6.849609 2.970704-3.103977.000001-5.266-1.16911-6.849609-2.970704-1.583609-1.801593-2.505365-4.32013-2.587891-6.833984-.08253-2.513854.664283-4.950403 2.158203-6.693359 1.49392-1.742957 3.709686-2.947266 7.279297-2.947266z" font-variant-ligatures="normal" font-variant-position="normal" font-variant-caps="normal" font-variant-numeric="normal" font-variant-alternates="normal" font-variant-east-asian="normal" font-feature-settings="normal" font-variation-settings="normal" text-indent="0" text-align="start" text-decoration-line="none" text-decoration-style="solid" text-decoration-color="#000000" text-transform="none" text-orientation="mixed" white-space="normal" shape-padding="0" shape-margin="0" inline-size="0" isolation="auto" mix-blend-mode="normal" solid-color="#000000" solid-opacity="1" vector-effect="none"/></g><path id="path1327" d="m64.199219 91.539062a4.4891052 4.4891052 0 0 0 -4.378907 4.234376c-.116449 2.064617-.576431 3.482306-1.128906 4.248042-.552475.76574-1.165844 1.30604-3.277344 1.60352a4.4891052 4.4891052 0 0 0 -3.818359 5.07227 4.4891052 4.4891052 0 0 0 5.070313 3.81835c3.938634-.5549 7.312501-2.47827 9.30664-5.24218s2.640419-5.943182 2.8125-8.994143a4.4891052 4.4891052 0 0 0 -4.228515-4.734375 4.4891052 4.4891052 0 0 0 -.357422-.0059z" fill="#6940aa" font-variant-ligatures="normal" font-variant-position="normal" font-variant-caps="normal" font-variant-numeric="normal" font-variant-alternates="normal" font-variant-east-asian="normal" font-feature-settings="normal" font-variation-settings="normal" text-indent="0" text-align="start" text-decoration-line="none" text-decoration-style="solid" text-decoration-color="#000000" text-transform="none" text-orientation="mixed" white-space="normal" shape-padding="0" shape-margin="0" inline-size="0" isolation="auto" mix-blend-mode="normal" solid-color="#000000" solid-opacity="1" vector-effect="none"/><path id="path1331" d="m56.494141 81.576172c-4.785419 0-8.633483 1.850959-11.066407 4.689453s-3.475431 6.510723-3.357422 10.105469c.11801 3.594745 1.384622 7.183036 3.828126 9.962886 2.443503 2.77986 6.146794 4.66602 10.595703 4.66602 4.448908 0 8.154151-1.88616 10.597656-4.66602 2.443504-2.77985 3.710114-6.36814 3.828125-9.962886s-.924497-7.266975-3.357422-10.105469-6.282937-4.689453-11.068359-4.689453zm0 4.990234c3.569617 0 5.787328 1.202354 7.28125 2.945313s2.24073 4.181453 2.158203 6.695312c-.08253 2.513859-1.006232 5.032389-2.589844 6.833989-1.583612 1.80159-3.745631 2.9707-6.849609 2.9707-3.103979 0-5.264046-1.16911-6.847657-2.9707-1.58361-1.8016-2.507317-4.32013-2.589843-6.833989-.08253-2.513859.664281-4.952353 2.158203-6.695312 1.493921-1.74296 3.709684-2.945313 7.279297-2.945313z" fill="#1a1c20" font-variant-ligatures="normal" font-variant-position="normal" font-variant-caps="normal" font-variant-numeric="normal" font-variant-alternates="normal" font-variant-east-asian="normal" font-feature-settings="normal" font-variation-settings="normal" text-indent="0" text-align="start" text-decoration-line="none" text-decoration-style="solid" text-decoration-color="#000000" text-transform="none" text-orientation="mixed" white-space="normal" shape-padding="0" shape-margin="0" inline-size="0" isolation="auto" mix-blend-mode="normal" solid-color="#000000" solid-opacity="1" vector-effect="none"/><path id="path1335" d="m40.144531 21.576172a2.244545 2.244545 0 0 0 -.96875.238281c-3.402528 1.705151-4.434456 5.317772-4.216797 8.111328a2.244545 2.244545 0 0 0 2.41211 2.0625 2.244545 2.244545 0 0 0 2.064453-2.412109c-.126781-1.627175.192749-2.968617 1.751953-3.75a2.244545 2.244545 0 0 0 1.001953-3.011719 2.244545 2.244545 0 0 0 -2.044922-1.238281z" fill="#fff" font-variant-ligatures="normal" font-variant-position="normal" font-variant-caps="normal" font-variant-numeric="normal" font-variant-alternates="normal" font-variant-east-asian="normal" font-feature-settings="normal" font-variation-settings="normal" text-indent="0" text-align="start" text-decoration-line="none" text-decoration-style="solid" text-decoration-color="#000000" text-transform="none" text-orientation="mixed" white-space="normal" shape-padding="0" shape-margin="0" inline-size="0" isolation="auto" mix-blend-mode="normal" solid-color="#000000" solid-opacity="1" vector-effect="none"/><path id="path1339" d="m29.425781 43.314453a2.244545 2.244545 0 0 0 -.617187.09961c-3.459885 1.064936-5.51764 4.236899-5.791016 7.507813a2.244545 2.244545 0 0 0 2.048828 2.423828 2.244545 2.244545 0 0 0 2.423828-2.050781c.145734-1.743688 1.051985-3.101469 2.638672-3.589844a2.244545 2.244545 0 0 0 1.484375-2.80664 2.244545 2.244545 0 0 0 -2.1875-1.583986z" fill="#fff" font-variant-ligatures="normal" font-variant-position="normal" font-variant-caps="normal" font-variant-numeric="normal" font-variant-alternates="normal" font-variant-east-asian="normal" font-feature-settings="normal" font-variation-settings="normal" text-indent="0" text-align="start" text-decoration-line="none" text-decoration-style="solid" text-decoration-color="#000000" text-transform="none" text-orientation="mixed" white-space="normal" shape-padding="0" shape-margin="0" inline-size="0" isolation="auto" mix-blend-mode="normal" solid-color="#000000" solid-opacity="1" vector-effect="none"/><path id="path1343" d="m67.318359 20.789062c-3.125132-.237907-6.393527 1.294423-7.693359 4.527344a2.244545 2.244545 0 0 0 1.246094 2.919922 2.244545 2.244545 0 0 0 2.917968-1.246094c.307021-.763615 2.201238-1.801792 3.189454-1.726562a2.244545 2.244545 0 0 0 2.408203-2.066406 2.244545 2.244545 0 0 0 -2.06836-2.408204z" fill="#fff" font-variant-ligatures="normal" font-variant-position="normal" font-variant-caps="normal" font-variant-numeric="normal" font-variant-alternates="normal" font-variant-east-asian="normal" font-feature-settings="normal" font-variation-settings="normal" text-indent="0" text-align="start" text-decoration-line="none" text-decoration-style="solid" text-decoration-color="#000000" text-transform="none" text-orientation="mixed" white-space="normal" shape-padding="0" shape-margin="0" inline-size="0" isolation="auto" mix-blend-mode="normal" solid-color="#000000" solid-opacity="1" vector-effect="none"/><path id="path1347" d="m44.097656 65.496094c-3.292406-.250642-6.192665 1.787126-7.396484 4.78125a2.244545 2.244545 0 0 0 1.246094 2.919922 2.244545 2.244545 0 0 0 2.919922-1.244141c.40303-1.002412 2.069685-2.042965 2.890624-1.980469a2.244545 2.244545 0 0 0 2.408204-2.068359 2.244545 2.244545 0 0 0 -2.06836-2.408203z" fill="#fff" font-variant-ligatures="normal" font-variant-position="normal" font-variant-caps="normal" font-variant-numeric="normal" font-variant-alternates="normal" font-variant-east-asian="normal" font-feature-settings="normal" font-variation-settings="normal" text-indent="0" text-align="start" text-decoration-line="none" text-decoration-style="solid" text-decoration-color="#000000" text-transform="none" text-orientation="mixed" white-space="normal" shape-padding="0" shape-margin="0" inline-size="0" isolation="auto" mix-blend-mode="normal" solid-color="#000000" solid-opacity="1" vector-effect="none"/><path id="path1351" d="m54.205078 43.451172a2.244545 2.244545 0 0 0 -.375.0293c-3.77665.608291-6.021466 3.809597-6.83789 6.916015a2.244545 2.244545 0 0 0 1.599609 2.742188 2.244545 2.244545 0 0 0 2.740234-1.601563c.518858-1.974203 1.605926-3.366486 3.210938-3.625a2.244545 2.244545 0 0 0 1.859375-2.572265 2.244545 2.244545 0 0 0 -2.197266-1.888672z" fill="#fff" font-variant-ligatures="normal" font-variant-position="normal" font-variant-caps="normal" font-variant-numeric="normal" font-variant-alternates="normal" font-variant-east-asian="normal" font-feature-settings="normal" font-variation-settings="normal" text-indent="0" text-align="start" text-decoration-line="none" text-decoration-style="solid" text-decoration-color="#000000" text-transform="none" text-orientation="mixed" white-space="normal" shape-padding="0" shape-margin="0" inline-size="0" isolation="auto" mix-blend-mode="normal" solid-color="#000000" solid-opacity="1" vector-effect="none"/></g></g></svg>