<svg id="computer" height="512" viewBox="0 0 48 48" width="512" xmlns="http://www.w3.org/2000/svg"><path d="m47 3v29h-46v-29a2 2 0 0 1 2-2h42a2 2 0 0 1 2 2z" fill="#7c7d7d"/><path d="m47 3v27h-40a4 4 0 0 1 -4-4v-25h42a2 2 0 0 1 2 2z" fill="#919191"/><path d="m47 32v4a2 2 0 0 1 -2 2h-42a2 2 0 0 1 -2-2v-4z" fill="#7c7d7d"/><path d="m47 32v4h-42a2 2 0 0 1 -2-2v-2z" fill="#919191"/><path d="m5 5h38v23h-38z" fill="#dad7e5"/><path d="m43 5v21h-15a21 21 0 0 1 -21-21z" fill="#edebf2"/><path d="m24 36a1 1 0 1 1 .71-1.71 1 1 0 0 1 -.71 1.71z" fill="#747575"/><path d="m17 43h14a2 2 0 0 1 2 2v2a0 0 0 0 1 0 0h-18a0 0 0 0 1 0 0v-2a2 2 0 0 1 2-2z" fill="#7c7d7d"/><path d="m28 38.17c0-.24.59-.17-4-.17s-4-.08-4 .17a6.84 6.84 0 0 1 -2 4.83h12a6.84 6.84 0 0 1 -2-4.83z" fill="#7c7d7d"/><path d="m33 45h-14a2 2 0 0 1 -2-2c0-.1-.8 0 14 0a2 2 0 0 1 2 2z" fill="#919191"/><path d="m28.62 41h-3.62a3 3 0 0 1 -3-3h6a6.68 6.68 0 0 0 .62 3z" fill="#919191"/><path d="m45 0h-42a3 3 0 0 0 -3 3v33a3 3 0 0 0 3 3h15.93a5.9 5.9 0 0 1 -1.37 3h-.56a3 3 0 0 0 -3 3v2a1 1 0 0 0 1 1h18a1 1 0 0 0 1-1v-2a3 3 0 0 0 -3-3h-.56a5.9 5.9 0 0 1 -1.37-3h15.93a3 3 0 0 0 3-3v-33a3 3 0 0 0 -3-3zm-42 2h42a1 1 0 0 1 1 1v28h-44v-28a1 1 0 0 1 1-1zm29 43v1h-16v-1a1 1 0 0 1 1-1h14a1 1 0 0 1 1 1zm-4-3h-8a8.12 8.12 0 0 0 1-3h6a8.12 8.12 0 0 0 1 3zm17-5h-42a1 1 0 0 1 -1-1v-3h44v3a1 1 0 0 1 -1 1z"/><path d="m5 29h38a1 1 0 0 0 1-1v-23a1 1 0 0 0 -1-1h-38a1 1 0 0 0 -1 1v23a1 1 0 0 0 1 1zm1-23h36v21h-36z"/><path d="m24.71 34.29a1 1 0 1 0 -.71 1.71 1 1 0 0 0 .71-1.71z"/></svg>