<svg id="Layer_1" enable-background="new 0 0 512.033 512.033" height="512" viewBox="0 0 512.033 512.033" width="512" xmlns="http://www.w3.org/2000/svg"><g><path d="m256.016 16.017h80v64h-80z" fill="#f79caf"/><path d="m360.016 320.017h112v176h-112z" fill="#e2e0e0"/><path d="m424.016 320.017h48v176h-48z" fill="#cecccc"/><path d="m40.016 320.017h112v176h-112z" fill="#e2e0e0"/><path d="m104.016 320.017h48v176h-48z" fill="#cecccc"/><path d="m16.016 320.017 64-128h352l64 128c-8.113 0-466.084 0-480 0z" fill="#acebe2"/><path d="m360.016 233.897v262.12h-208v-262.12l104-97.88z" fill="#e2e0e0"/><circle cx="256.016" cy="280.017" fill="#f3d4b7" r="32"/><path d="m216.016 400.017h80v96h-80z" fill="#b59f89"/><path d="m360.016 233.897v262.12h-48v-262.12l-80-75.29 24-22.59z" fill="#cecccc"/><path d="m496.016 320.017h-48l-64-128h48z" fill="#98d7ce"/><path d="m208.016 280.017c0 26.467 21.533 48 48 48s48-21.533 48-48-21.533-48-48-48-48 21.532-48 48zm64 0c0 8.822-7.178 16-16 16s-16-7.178-16-16 7.178-16 16-16 16 7.177 16 16z"/><path d="m496.016 480.017h-8v-144h8c11.873 0 19.627-12.522 14.311-23.155l-64-128c-2.71-5.421-8.25-8.845-14.311-8.845h-110.154l-49.845-46.913c0-6.581 0 17.039 0-33.087h64c8.836 0 16-7.164 16-16v-64c0-8.836-7.164-16-16-16h-80c-8.836 0-16 7.164-16 16v113.087l-49.845 46.913h-110.156c-6.061 0-11.601 3.424-14.311 8.845l-64 128c-5.308 10.618 2.421 23.155 14.311 23.155h8v144h-8c-8.836 0-16 7.164-16 16s7.164 16 16 16h480c8.836 0 16-7.164 16-16s-7.163-16-16-16zm-224-448h48v32h-48zm-136 448h-80v-144h80zm-27.651-205.035c6.057 6.436 16.183 6.741 22.617.686l5.034-4.738v33.087h-94.111l48-96h66.266l-47.12 44.349c-6.436 6.056-6.742 16.182-.686 22.616zm171.651 205.035h-48v-64h48zm64 0h-32v-80c0-8.836-7.164-16-16-16h-80c-8.836 0-16 7.164-16 16v80h-32c0-19.339 0-230.259 0-239.204l88-82.823 88 82.823zm112 0h-80v-144h80zm-80-176v-33.087l5.034 4.738c6.434 6.055 16.56 5.75 22.617-.686 6.056-6.435 5.75-16.561-.686-22.617l-47.12-44.349h66.266l48 96h-94.111z"/><path d="m408.016 400.017h16c8.836 0 16-7.164 16-16s-7.164-16-16-16h-16c-8.836 0-16 7.164-16 16s7.164 16 16 16z"/><path d="m408.016 456.017h16c8.836 0 16-7.164 16-16s-7.164-16-16-16h-16c-8.836 0-16 7.164-16 16s7.164 16 16 16z"/><path d="m87.016 400.017h16c8.836 0 16-7.164 16-16s-7.164-16-16-16h-16c-8.836 0-16 7.164-16 16s7.164 16 16 16z"/><path d="m87.016 456.017h16c8.836 0 16-7.164 16-16s-7.164-16-16-16h-16c-8.836 0-16 7.164-16 16s7.164 16 16 16z"/></g></svg>