<svg height="512" viewBox="0 0 48 48" width="512" xmlns="http://www.w3.org/2000/svg"><g id="correction_fluid" data-name="correction fluid"><path d="m8.06 42.82-3.59 3.59a2 2 0 0 1 -3.2-2.41c.17-.33 0-.16 3.91-4z" fill="#dad7e5"/><path d="m7.06 41.82-2.59 2.59a2 2 0 0 1 -3.2-.41c.17-.33 0-.16 3.91-4z" fill="#edebf2"/><path d="m13.8 41.38-1.44 1.44a3 3 0 0 1 -4.3 0l-2.88-2.88a3 3 0 0 1 -.5-3.65 11.54 11.54 0 0 1 1.94-2.09z" fill="#dad7e5"/><path d="m12.3 39.88a3 3 0 0 1 -4.24-.06c-2.66-2.66-3.08-3-3.38-3.53a11.54 11.54 0 0 1 1.94-2.09z" fill="#edebf2"/><path d="m46.11 14.81-2.11 2.19-13-12.95 2.16-2.16a3 3 0 0 1 4.28 0c9.38 9.38 8.85 8.79 9.13 9.28a3 3 0 0 1 -.46 3.64z" fill="#6fabe6"/><path d="m46.6 11.17a3.06 3.06 0 0 1 -4.81.64l-9.26-9.26.66-.66a3 3 0 0 1 4.28 0c9.38 9.38 8.85 8.79 9.13 9.28z" fill="#82bcf4"/><path d="m44 17-23 23-12.94-13 23-23z" fill="#db5669"/><path d="m42.45 15.47-18.64 18.64a4 4 0 0 1 -5.66 0l-8.59-8.59 21.44-21.47z" fill="#f26674"/><path d="m21 39.94-2.17 2.17a3 3 0 0 1 -4.28 0l-8.66-8.64a3 3 0 0 1 -.49-3.64c.28-.49.45-.6 2.66-2.81z" fill="#6fabe6"/><path d="m19.48 38.44a4 4 0 0 1 -5.62 0c-8.65-8.65-8.18-8.12-8.46-8.61.28-.49.45-.6 2.66-2.81z" fill="#82bcf4"/><path d="m33.18 19.13-10 10.05a3.05 3.05 0 0 1 -4.81-3.66c.28-.49-.39.24 10.55-10.7a3 3 0 0 1 4.31 4.31z" fill="#6fabe6"/><path d="m33.68 15.48c-.28.49.39-.24-10.55 10.7a3 3 0 0 1 -4.81-.66c.28-.49-.39.24 10.55-10.7a3 3 0 0 1 4.81.66z" fill="#82bcf4"/><path d="m46.82 9.82-8.64-8.64a4 4 0 0 0 -5.69 0l-27.31 27.3a4 4 0 0 0 0 5.72l-.73.73a4 4 0 0 0 -.61 4.92l-3 3a3 3 0 0 0 4.28 4.28l3-3a4 4 0 0 0 2.06.58c1.84 0 2.73-1.05 3.59-1.92a4 4 0 0 0 2.9 1.21c2.23 0 .45 1.22 30.15-28.49a4 4 0 0 0 0-5.69zm-25.82 28.71-11.53-11.53 21.53-21.53 11.53 11.53zm-17.24 7.17a1 1 0 0 1 -1.46-1.46l2.88-2.88 1.46 1.46zm7.9-3.59a2.05 2.05 0 0 1 -2.9 0l-2.87-2.87a2.05 2.05 0 0 1 0-2.9l.73-.72 5.76 5.76zm6.44-.71a2 2 0 0 1 -2.86 0l-8.64-8.64a2 2 0 0 1 0-2.86l1.46-1.46 11.5 11.5zm27.31-27.3-1.41 1.46-11.56-11.51c3.56-3.54 2.38-3.41 12.97 7.18a2 2 0 0 1 0 2.87z"/><path d="m33.89 14.11a4.06 4.06 0 0 0 -5.72 0l-10 10.05a4.05 4.05 0 0 0 2.83 6.91c2.24 0 2.06-.39 12.91-11.24a4.06 4.06 0 0 0 -.02-5.72zm-1.42 4.31-10 10a2 2 0 0 1 -2.89-2.89l10-10a2 2 0 0 1 2.89 2.89z"/></g></svg>