<svg id="svg4938" height="512" viewBox="0 0 16.933333 16.933334" width="512" xmlns="http://www.w3.org/2000/svg" xmlns:svg="http://www.w3.org/2000/svg"><g id="layer1" transform="translate(0 -280.067)"><path id="path4550" d="m10.539503 282.68562c-.8767595.00098-1.7138296.3658-2.3112295 1.00717-.0948.10182-.0946.25967.0005028.36122.45593.48683.71028 1.12825.71159 1.79524-.000688.43132-.1074299.85612-.3105701 1.23662-.094.17629.0338.38919.2335702.38912h4.2333396c.0978.00004.18756-.0538.23357-.14004.24414-.45729.37198-.96732.37259-1.48596.000027-1.74407-1.419293-3.1634-3.163363-3.16337z" font-variant-ligatures="normal" font-variant-position="normal" font-variant-caps="normal" font-variant-numeric="normal" font-variant-alternates="normal" font-feature-settings="normal" text-indent="0" text-align="start" text-decoration-line="none" text-decoration-style="solid" text-decoration-color="#000000" text-transform="none" text-orientation="mixed" white-space="normal" shape-padding="0" isolation="auto" mix-blend-mode="normal" solid-color="#000000" solid-opacity="1" vector-effect="none"/><path id="path4006" d="m8.7734634 283.94191c.48407-.44767 1.1021501-.72622 1.7662996-.72709v-.00003h.000503c1.45759.00026 2.63345 1.17629 2.63343 2.63394-.000529.38105-.0969.7523-.25631 1.09709h-3.6705724c.1317599-.35222.2222799-.71828.2227299-1.09707-.001-.70105-.2710802-1.35689-.6960801-1.90684z" fill="#ff75a0" font-variant-ligatures="normal" font-variant-position="normal" font-variant-caps="normal" font-variant-numeric="normal" font-variant-alternates="normal" font-feature-settings="normal" text-indent="0" text-align="start" text-decoration-line="none" text-decoration-style="solid" text-decoration-color="#000000" text-transform="none" text-orientation="mixed" white-space="normal" shape-padding="0" isolation="auto" mix-blend-mode="normal" solid-color="#000000" solid-opacity="1" vector-effect="none"/><path id="path4554" d="m4.1904035 289.06236a.26460982.26460982 0 0 0 -.26171.31055l1.05859 6.08398c.045.25867.1512599.50495.3281199.69531.17687.19037.4344.31836.7265702.31836h4.7617194c.29217 0 .55164-.12799.72851-.31836.17688-.19036.28121-.43662.32617-.69531l1.0586-6.08398a.26460982.26460982 0 0 0 -.25977-.31055z" font-variant-ligatures="normal" font-variant-position="normal" font-variant-caps="normal" font-variant-numeric="normal" font-variant-alternates="normal" font-feature-settings="normal" text-indent="0" text-align="start" text-decoration-line="none" text-decoration-style="solid" text-decoration-color="#000000" text-transform="none" text-orientation="mixed" white-space="normal" shape-padding="0" isolation="auto" mix-blend-mode="normal" solid-color="#000000" solid-opacity="1" vector-effect="none"/><path id="path4286" d="m4.5048634 289.59166h7.8359396l-1.00391 5.77539c-.0303.17456-.10212.32563-.19336.42383-.0912.0982-.19228.15039-.33984.15039h-4.7617194c-.14756 0-.2486102-.0522-.3398502-.15039-.0912-.0982-.163-.24926-.1933599-.42383z" fill="#b67162" font-variant-ligatures="normal" font-variant-position="normal" font-variant-caps="normal" font-variant-numeric="normal" font-variant-alternates="normal" font-feature-settings="normal" text-indent="0" text-align="start" text-decoration-line="none" text-decoration-style="solid" text-decoration-color="#000000" text-transform="none" text-orientation="mixed" white-space="normal" shape-padding="0" isolation="auto" mix-blend-mode="normal" solid-color="#000000" solid-opacity="1" vector-effect="none"/><path id="path4558" d="m2.8661935 286.94517a.26460982.26460982 0 0 0 -.26368.26563v1.32226c0 .58175.4768601 1.0586 1.0586 1.0586h9.5253895c.58173 0 1.05664-.47685 1.05664-1.0586v-1.32226a.26460982.26460982 0 0 0 -.26367-.26563z" font-variant-ligatures="normal" font-variant-position="normal" font-variant-caps="normal" font-variant-numeric="normal" font-variant-alternates="normal" font-feature-settings="normal" text-indent="0" text-align="start" text-decoration-line="none" text-decoration-style="solid" text-decoration-color="#000000" text-transform="none" text-orientation="mixed" white-space="normal" shape-padding="0" isolation="auto" mix-blend-mode="normal" solid-color="#000000" solid-opacity="1" vector-effect="none"/><path id="path4288" d="m3.1318135 287.47447h10.5820295v1.05859c0 .29773-.22962.5293-.52734.5293h-9.5253895c-.29773 0-.5293-.23157-.5293-.5293z" fill="#e2bcb7" font-variant-ligatures="normal" font-variant-position="normal" font-variant-caps="normal" font-variant-numeric="normal" font-variant-alternates="normal" font-feature-settings="normal" text-indent="0" text-align="start" text-decoration-line="none" text-decoration-style="solid" text-decoration-color="#000000" text-transform="none" text-orientation="mixed" white-space="normal" shape-padding="0" isolation="auto" mix-blend-mode="normal" solid-color="#000000" solid-opacity="1" vector-effect="none"/><path id="path4562" d="m6.3056435 282.68541c-1.74371.00005-3.16205 1.42035-3.16211 3.16406.0008467.5185.1285899 1.02907.3730501 1.48633a.26460982.26460982 0 0 0 .23437.13867h5.1113299a.26460982.26460982 0 0 0 .23437-.13867c.24417-.45733.37246-.9679.37305-1.48633-.00005-1.74371-1.42036-3.16401-3.16406-3.16406z" font-variant-ligatures="normal" font-variant-position="normal" font-variant-caps="normal" font-variant-numeric="normal" font-variant-alternates="normal" font-feature-settings="normal" text-indent="0" text-align="start" text-decoration-line="none" text-decoration-style="solid" text-decoration-color="#000000" text-transform="none" text-orientation="mixed" white-space="normal" shape-padding="0" isolation="auto" mix-blend-mode="normal" solid-color="#000000" solid-opacity="1" vector-effect="none"/><path id="path4290" d="m6.3056435 283.2147c1.4577299.00005 2.6347198 1.17703 2.6347601 2.63477-.0007144.38204-.1150001.75024-.27539 1.0957h-4.7167901c-.1608799-.346-.2747701-.71491-.27539-1.09765.00101-1.45683 1.17573-2.63277 2.63281-2.63282z" fill="#95e1d3" font-variant-ligatures="normal" font-variant-position="normal" font-variant-caps="normal" font-variant-numeric="normal" font-variant-alternates="normal" font-feature-settings="normal" text-indent="0" text-align="start" text-decoration-line="none" text-decoration-style="solid" text-decoration-color="#000000" text-transform="none" text-orientation="mixed" white-space="normal" shape-padding="0" isolation="auto" mix-blend-mode="normal" solid-color="#000000" solid-opacity="1" vector-effect="none"/><path id="path4294" d="m11.852513 292.60338-3.6015596 3.41797.3652401.38281 3.6015595-3.41797z" font-variant-ligatures="normal" font-variant-position="normal" font-variant-caps="normal" font-variant-numeric="normal" font-variant-alternates="normal" font-feature-settings="normal" text-indent="0" text-align="start" text-decoration-line="none" text-decoration-style="solid" text-decoration-color="#000000" text-transform="none" text-orientation="mixed" white-space="normal" shape-padding="0" isolation="auto" mix-blend-mode="normal" solid-color="#000000" solid-opacity="1" vector-effect="none"/><path id="path4296" d="m11.622043 289.15025-6.4960895 6.16406.3632801.38477 6.4960994-6.16406z" font-variant-ligatures="normal" font-variant-position="normal" font-variant-caps="normal" font-variant-numeric="normal" font-variant-alternates="normal" font-feature-settings="normal" text-indent="0" text-align="start" text-decoration-line="none" text-decoration-style="solid" text-decoration-color="#000000" text-transform="none" text-orientation="mixed" white-space="normal" shape-padding="0" isolation="auto" mix-blend-mode="normal" solid-color="#000000" solid-opacity="1" vector-effect="none"/><path id="path4298" d="m7.4931436 289.15806-2.9570302 2.89844.37109.37891 2.9570299-2.89844z" font-variant-ligatures="normal" font-variant-position="normal" font-variant-caps="normal" font-variant-numeric="normal" font-variant-alternates="normal" font-feature-settings="normal" text-indent="0" text-align="start" text-decoration-line="none" text-decoration-style="solid" text-decoration-color="#000000" text-transform="none" text-orientation="mixed" white-space="normal" shape-padding="0" isolation="auto" mix-blend-mode="normal" solid-color="#000000" solid-opacity="1" vector-effect="none"/><path id="path4300" d="m4.9775135 292.23619-.38476.36523 3.59765 3.79102.38477-.36524z" font-variant-ligatures="normal" font-variant-position="normal" font-variant-caps="normal" font-variant-numeric="normal" font-variant-alternates="normal" font-feature-settings="normal" text-indent="0" text-align="start" text-decoration-line="none" text-decoration-style="solid" text-decoration-color="#000000" text-transform="none" text-orientation="mixed" white-space="normal" shape-padding="0" isolation="auto" mix-blend-mode="normal" solid-color="#000000" solid-opacity="1" vector-effect="none"/><path id="path4302" d="m5.7294734 289.16002-.3828198.36523 5.9726594 6.29492.38477-.36328z" font-variant-ligatures="normal" font-variant-position="normal" font-variant-caps="normal" font-variant-numeric="normal" font-variant-alternates="normal" font-feature-settings="normal" text-indent="0" text-align="start" text-decoration-line="none" text-decoration-style="solid" text-decoration-color="#000000" text-transform="none" text-orientation="mixed" white-space="normal" shape-padding="0" isolation="auto" mix-blend-mode="normal" solid-color="#000000" solid-opacity="1" vector-effect="none"/><path id="path4304" d="m9.3857235 289.17564-.3828201.36524 2.9101596 3.05468.38281-.36523z" font-variant-ligatures="normal" font-variant-position="normal" font-variant-caps="normal" font-variant-numeric="normal" font-variant-alternates="normal" font-feature-settings="normal" text-indent="0" text-align="start" text-decoration-line="none" text-decoration-style="solid" text-decoration-color="#000000" text-transform="none" text-orientation="mixed" white-space="normal" shape-padding="0" isolation="auto" mix-blend-mode="normal" solid-color="#000000" solid-opacity="1" vector-effect="none"/><path id="path4580" d="m8.2282434 284.05349c.1046699.11257.2829002.11257.3875701 0 .4975-.53412 1.19401-.83774 1.9239195-.83871.21215.001.42314.0279.6289.0796.19374.0488.3696-.12649.32143-.32039-.34792-1.40974-1.6144495-2.40307-3.0664796-2.40502-.0003175 0-.0006614 0-.00101 0h-.0000101c-1.45278.002-2.7199299.99598-3.0675101 2.40657-.0472.1935.1282401.3678.3214301.31936.20569-.052.4172601-.0788.62992-.0801.72956.002 1.42489.3052 1.9218299.83871z" font-variant-ligatures="normal" font-variant-position="normal" font-variant-caps="normal" font-variant-numeric="normal" font-variant-alternates="normal" font-feature-settings="normal" text-indent="0" text-align="start" text-decoration-line="none" text-decoration-style="solid" text-decoration-color="#000000" text-transform="none" text-orientation="mixed" white-space="normal" shape-padding="0" isolation="auto" mix-blend-mode="normal" solid-color="#000000" solid-opacity="1" vector-effect="none"/><path id="path4578" d="m6.0336736 282.72024c.4067998-.95918 1.31948-1.62056 2.3884797-1.62213l.0004234.00001h.00101c1.0684098.002 1.9800303.66307 2.3869303 1.62161-.0925-.0196-.17881-.0337-.27075-.0341-.7907705.00088-1.5389203.30985-2.1181901.83767-.57868-.52728-1.3261501-.83622-2.11611-.83767-.0924.0005-.1819801.0107-.27178.0346z" fill="#fce38a" font-variant-ligatures="normal" font-variant-position="normal" font-variant-caps="normal" font-variant-numeric="normal" font-variant-alternates="normal" font-feature-settings="normal" text-indent="0" text-align="start" text-decoration-line="none" text-decoration-style="solid" text-decoration-color="#000000" text-transform="none" text-orientation="mixed" white-space="normal" shape-padding="0" isolation="auto" mix-blend-mode="normal" solid-color="#000000" solid-opacity="1" vector-effect="none"/><path id="path4308" d="m3.1318135 288.00377v.52929h10.5820295v-.52929z" font-variant-ligatures="normal" font-variant-position="normal" font-variant-caps="normal" font-variant-numeric="normal" font-variant-alternates="normal" font-feature-settings="normal" text-indent="0" text-align="start" text-decoration-line="none" text-decoration-style="solid" text-decoration-color="#000000" text-transform="none" text-orientation="mixed" white-space="normal" shape-padding="0" isolation="auto" mix-blend-mode="normal" solid-color="#000000" solid-opacity="1" vector-effect="none"/></g></svg>