<svg height="512" viewBox="0 0 60 59" width="512" xmlns="http://www.w3.org/2000/svg"><g id="013---Spider" fill="none"><g id="Icons"><path id="Shape" d="m51 16c-.0117505 1.8370569-.2741721 3.6639155-.78 5.43l-9.22 5.57h-22l-9.22-5.57c-.57475236-1.9771614-.83790906-4.031808-.78-6.09l.74-4.11c2.34-6.73 9.76-9.89 18.76-10.23 8.67-.35 18.9 2 21.74 10.2.83 4.64.76 4.07.76 4.8z" fill="#283593"/><path id="Shape" d="m48 16c-.0117505 1.8370569-.2741721 3.6639155-.78 5.43l-9.22 5.57h-19l-9.22-5.57c-.57475236-1.9771614-.83790906-4.031808-.78-6.09l.74-4.11c2.34-6.73 9.76-9.89 18.76-10.23 9 .31 16.42 3.47 18.74 10.2.83 4.64.76 4.07.76 4.8z" fill="#3f51b5"/><g fill="#02a9f4"><path id="Shape" d="m17 31.74c-1.8.28-.11 0-8.31 1.28-.75262417.1177495-1.37300372.6528269-1.6 1.38l-5 16c-.33137081 1.0548639.25513617 2.1786291 1.31000002 2.5099999 1.05486385.3313709 2.1786291-.2551361 2.50999998-1.3099999l4.63-14.81 6.47-1z"/><path id="Shape" d="m17.41 29.18-6.1-3.66-6.9 6.89c-.48877976.5707523-1.25623679.8193639-1.98683794.6436203-.73060116-.1757436-1.30103871-.7461812-1.47678233-1.4767824-.17574362-.7306011.07286795-1.4980581.64362027-1.9868379l8-8c.6486131-.64707 1.6539589-.7706781 2.44-.3l7.25 4.35z"/><path id="Shape" d="m24.22 22.4-10.81-10.81c-.4254436-.4341489-1.0252392-.6512528-1.63-.59-2.6.27-.78.09-9 1-.71453119.0785984-1.33285349.5324242-1.62205085 1.1905256-.28919737.6581014-.20533384 1.4204971.22 2 .42533384.579503 1.12751966.8880728 1.84205085.8094744l8-.9 9.27 9.27z"/><path id="Shape" d="m43 31.74c1.8.28.11 0 8.31 1.28.756426.1142295 1.3814257.6499435 1.61 1.38l5 16c.3313708 1.0548639-.2551362 2.1786291-1.31 2.5099999-1.0548639.3313709-2.1786291-.2551361-2.51-1.3099999l-4.64-14.81-6.46-.99z"/><path id="Shape" d="m40.72 25.64 7.28-4.35c.7073637-.4207336 1.6002485-.3651763 2.25.14.11.06-.43-.41 8.19 8.16.5707523.4887798.8193639 1.2562368.6436203 1.9868379-.1757436.7306012-.7461812 1.3010388-1.4767824 1.4767824-.7306011.1757436-1.4980581-.072868-1.9868379-.6436203l-6.9-6.89-6.1 3.66z"/><path id="Shape" d="m39.46 24.36 9.27-9.27c2.82.31 1.06.13 8.05.9.7145312.0785984 1.416717-.2299715 1.8420508-.8094744s.5091974-1.3418986.22-2c-.2891973-.6581014-.9075196-1.1119272-1.6220508-1.1905256-8.3-.92-6.36-.72-9-1-.6031725-.0638342-1.2027243.1495033-1.63.58l-10.81 10.83z"/></g><ellipse id="Oval" cx="30" cy="8" fill="#f44335" rx="7" ry="3"/><ellipse id="Oval" cx="30" cy="13" fill="#f44335" rx="3" ry="2"/><path id="Shape" d="m43 32v4l-3.59 11c-.41 0-18.41 0-18.81 0l-3.6-11c0-4 0-4.12 0-4.26.114861-4.3505601 3.0302999-8.1272868 7.21-9.34 1.79-.51 2.43-.4 8.79-.4 5.5228475 0 10 4.4771525 10 10z" fill="#283593"/><path id="Shape" d="m40 32v4l-3.59 11c-.41 0-15.41 0-15.81 0l-3.6-11c0-4 0-4.12 0-4.26.114861-4.3505601 3.0302999-8.1272868 7.21-9.34 1.72-.51 2.79-.4 5.79-.4 5.5228475 0 10 4.4771525 10 10z" fill="#3f51b5"/><path id="Shape" d="m20 57c-.9811743.0151221-1.8283906-.6838313-2-1.65l-3-17c-.1196973-.6789957.1187751-1.3717667.6310485-1.8332193.5122734-.4614527 1.2261055-.6265115 1.8889515-.4367807l7 2.92c1.0631481.3037566 1.6787565 1.4118519 1.3749999 2.475s-1.4118518 1.6787566-2.4749999 1.375l-3.89-1.85 2.47 13.65c.1045665.5878883-.059014 1.1917492-.4460156 1.6464761-.3870016.4547268-.9569403.712751-1.5539844.7035239z" fill="#02a9f4"/><path id="Shape" d="m40 57c.9811743.0151221 1.8283906-.6838313 2-1.65l3-17c.1196973-.6789957-.1187751-1.3717667-.6310485-1.8332193-.5122734-.4614527-1.2261055-.6265115-1.8889515-.4367807l-7 2.92c-1.0631481.3037566-1.6787565 1.4118519-1.3749999 2.475s1.4118518 1.6787566 2.4749999 1.375l3.9-1.85-2.48 13.65c-.1045665.5878883.059014 1.1917492.4460156 1.6464761.3870016.4547268.9569403.712751 1.5539844.7035239z" fill="#02a9f4"/><circle id="Oval" cx="27" cy="33" fill="#f44335" r="3"/><circle id="Oval" cx="33" cy="33" fill="#f44335" r="3"/><circle id="Oval" cx="23" cy="30" fill="#f44335" r="2"/><circle id="Oval" cx="37" cy="30" fill="#f44335" r="2"/></g><g id="Layer_10" fill="#000" transform="translate(-1)"><path id="Shape" d="m52.33 21.1c.4001196-1.5159393.624924-3.0727937.67-4.64l4.69.52c1.6568542.182254 3.147746-1.0131458 3.33-2.67s-1.0131458-3.147746-2.67-3.33l-6.39-.71c-2.64-6.52-10.21-10.27-20.96-10.27s-18.32 3.75-20.94 10.31l-6.39.69c-1.65685421.182254-2.85225389 1.6731458-2.66999992 3.33.18225396 1.6568542 1.6731457 2.8522539 3.32999992 2.67l4.67-.54c.03853947 1.5664323.25663157 3.1232744.65 4.64l-7.76 7.78c-.57609777.5538529-.89810887 1.3208906-.89 2.12-.00298302 1.2143869.72644658 2.3107885 1.84768151 2.7772397 1.12123494.4664513 2.41308418.2109333 3.27231849-.6472397l6.34-6.34 4.82 2.89c-.0909585.3955704-.1577487.7963118-.2 1.2l-7.54 1.12c-1.12893626.1766242-2.05950558.9792403-2.4 2.07l-5 16c-.36438129 1.0337906-.13593647 2.1840152.59584607 3.0000979.73178254.8160828 1.85039428 1.1680934 2.91764292.9181394 1.06724865-.249954 1.91321547-1.0620771 2.20651101-2.1182373l4.45-14.22 2.8-.43c-.24.94-.34-.27 2.94 18.27.1068176 1.1188364.8300521 2.0841166 1.8738253 2.5009406 1.0437732.4168241 2.2329778.215264 3.0811054-.5222212.8481275-.7374852 1.212893-1.8871722.9450693-2.9787194l-1.16-6.49h3.26c.15 1.44.66 4 2.5 4.9.3211808.1932607.7234705.1906728 1.0421383-.0067041.3186678-.1973768.5001928-.5563928.4702434-.9300368s-.2663431-.6991617-.6123817-.8432591c-.83-.42-1.23-1.93-1.38-3.12h5.86c-.15 1.19-.55 2.69-1.38 3.11-.4101627.2101126-.6236218.6733224-.51688 1.1216381.1067419.4483157.5060402.7656308.96688.7683619.1568771.0018772.3116796-.0359634.45-.11 1.84-.89 2.35-3.45 2.49-4.89h3.27l-1.16 6.48c-.1967428 1.5926118.8946393 3.0580429 2.4768674 3.3257634s3.0949694-.7570806 3.4331326-2.3257634c3.25-18.45 3.17-17.31 2.93-18.27l2.8.43 4.45 14.26c.2932955 1.0561602 1.1392624 1.8682833 2.206511 2.1182373 1.0672487.249954 2.1858604-.1020566 2.9176429-.9181394.7317826-.8160827.9602274-1.9663073.5958461-3.0000979l-5-16c-.3324537-1.1053359-1.2695714-1.9219115-2.41-2.1l-7.54-1.16c-.0373345-.4036856-.1008009-.8045263-.19-1.2l4.82-2.89 6.34 6.34c.7478823.8026127 1.8742222 1.1329967 2.9371556.8615422 1.0629335-.2714546 1.892932-1.1014531 2.1643866-2.1643866.2714545-1.0629334-.0589295-2.1892733-.8615422-2.9371556zm-1.8-1.05c-.7132487-.1274583-1.4485273.0075204-2.07.38l-6.55 3.93 8.21-8.2.89.1c-.0313076 1.2763235-.1921324 2.5461696-.48 3.79zm8.47-5.94c-.0276201.2658829-.1605424.5096394-.3690959.676858-.2085534.1672185-.4753749.2439772-.7409041.213142l-8-.9c-.3016763-.0360818-.6033951.0669441-.82.28l-8.7 8.62c-.5616-.3925525-1.1612898-.7275747-1.79-1l9.73-9.73c.2101838-.2109631.5034553-.317274.8-.29l9 1c.2698182.0273458.5169585.1631078.6847616.3761612s.2418766.4851247.2052384.7538388zm-28-12.11c9.29 0 16 2.91 18.63 8.05h-.31c-.9030821-.09418818-1.8002323.2256974-2.44.87l-10.42 10.39c-1.75-.41-2-.31-8.46-.31-.8291159.0095164-1.6544444.1135212-2.46.31l-10.42-10.43c-.6402246-.6508418-1.5419759-.9747362-2.45-.88h-.3c2.68-5.09 9.34-8 18.63-8zm-26.89 13c-.55228475.0607513-1.04924868-.3377153-1.11-.89s.33771525-1.0492487.89-1.11l9-1c.3048605-.0309155.6070667.0796478.82.3l9.71 9.7c-.6287102.2724253-1.2284.6074475-1.79 1l-8.63-8.62c-.2166049-.2130559-.5183237-.3160818-.82-.28zm7.79 1.14 8.21 8.2-6.55-3.93c-.6214727-.3724796-1.3567513-.5074583-2.07-.38-.2912349-1.2434842-.4554108-2.5133347-.49-3.79zm-.3 8.67-6.9 6.89c-.39003745.3877236-1.01996255.3877236-1.41 0-.38114288-.3888435-.38114288-1.0111565 0-1.4 9-9 7.84-7.88 8.1-8.09.3259226-.2471901.7695339-.2709549 1.12-.06l6.31 3.78c-.3679681.5593222-.682679 1.151916-.94 1.77l-5.07-3c-.3819289-.2406452-.8777273-.1955727-1.21.11zm-.21 11c-.3763121.0588747-.6865019.3264134-.8.69l-4.59 14.8c-.11971852.3863768-.46041494.662578-.86319859.6997917s-.78831804-.1718901-.97680141-.5297917c-.15625827-.2240425-.21406831-.5022533-.16-.77l5-16c.11778795-.3823637.45214552-.657717.85-.7l7.15-1.09v2zm10.43 19.76c-.232758.3285497-.639859.4854569-1.0329137.3981114-.3930546-.0873454-.6953854-.4019041-.7670863-.7981114l-3-17c-.0499838-.2897167.0300538-.5867504.2188339-.8121306.18878-.2253803.4671736-.3562696.7611661-.3578694.24 0-.29-.19 7.16 2.92.3002938.0634789.5588684.2528574.71.52.1875864.3420406.1591465.761942-.0728481 1.0755644-.2319947.3136223-.6251878.4637064-1.0071519.3844356l-3.79-1.8c-.3382018-.1589878-.7368318-.1161315-1.0335103.1111116s-.4418924.6009481-.3764897.9688884l2.41 13.65c.0399531.2607529-.0247441.5267304-.18.74zm.61-9.57-.58-3.26 2.18 1c.797088.290523 1.6814212.2174376 2.42-.2 1.0517395-.5814296 1.6550136-1.7343871 1.533063-2.929939-.1219507-1.195552-.9455898-2.2029591-2.093063-2.560061l-6.89-2.87c0-3.33 0-3.24 0-3.42.1060826-3.9135412 2.7299373-7.3095934 6.49-8.4 1.67-.49 2.33-.36 8.5-.36 3.9935208.0031406 7.5073778 2.6375155 8.63 6.47.48 1.58.37 2.71.37 5.71l-6.89 2.88c-1.5878186.4749649-2.4899648 2.1471813-2.0149999 3.735.4749648 1.5878186 2.1471813 2.4899648 3.7349999 2.015.12 0 0 0 2.32-1.08l-.58 3.27zm22.57-7.83-3 17c-.0463079.261292-.1945721.493464-.4121427.6453883-.2175705.1519242-.4866048.2111417-.7478573.1646117-.264745-.0393387-.5026707-.1831653-.6605425-.3992994-.1578719-.216134-.222512-.4865344-.1794575-.7507006l2.44-13.65c.0654027-.3679403-.0798112-.7416453-.3764897-.9688884s-.6953085-.2700994-1.0335103-.1111116l-3.84 1.8c-.3819641.0792708-.7751572-.0708133-1.0071519-.3844356-.2319946-.3136224-.2604345-.7335238-.0728481-1.0755644.22-.4-.2-.14 7.64-3.41.3310458-.0911994.6857318-.0061695.9394435.2252155.2537116.231385.370962.5767611.3105565.9147845zm8-3.47 5 16c.0777926.2569978.0489629.5344833-.08.77-.157674.4209791-.5768807.685004-1.024667.6453563-.4477862-.0396477-.8140804-.3732223-.895333-.8153563l-4.59-14.81c-.1134981-.3635866-.4236879-.6311253-.8-.69l-5.61-.86v-2l7.14 1.06c.4016317.0384751.7407976.3145404.86.7zm5.75-3c-.3900375.3877236-1.0199625.3877236-1.41 0l-6.9-6.89c-.3243066-.323535-.8269794-.385339-1.22-.15l-5.07 3c-.257321-.618084-.5720319-1.2106778-.94-1.77l6.31-3.78c.3504661-.2109549.7940774-.1871901 1.12.06.16.13.71.74 8.11 8.09.1904178.1938634.2937415.4568714.2861961.7285054-.0075454.2716341-.12531.5285007-.3261961.7114946z"/><path id="Shape" d="m38 33c1.5517254.0081448 2.8535796-1.1683963 3.0019935-2.7130293.1484138-1.5446331-.9055983-2.9475343-2.4304854-3.2350014-1.524887-.2874672-3.0173426.6353815-3.4415081 2.1280307-1.4927747-.4610545-3.1167199.0107939-4.13 1.2-1.0147654-1.1869067-2.6372034-1.6583173-4.13-1.2-.4241655-1.4926492-1.9166211-2.4154979-3.4415081-2.1280307-1.5248871.2874671-2.5788992 1.6903683-2.4304854 3.2350014.1484139 1.544633 1.4502681 2.7211741 3.0019935 2.7130293.0106411 1.6588761 1.0441196 3.1390285 2.5977702 3.7205377 1.5536505.5815092 3.3050025.1436791 4.4022298-1.1005377 1.0972273 1.2442168 2.8485793 1.6820469 4.4022298 1.1005377 1.5536506-.5815092 2.5871291-2.0616616 2.5977702-3.7205377zm0-4c.5522847 0 1 .4477153 1 1s-.4477153 1-1 1-1-.4477153-1-1 .4477153-1 1-1zm-15 1c0-.5522847.4477153-1 1-1s1 .4477153 1 1-.4477153 1-1 1-1-.4477153-1-1zm5 5c-1.1045695 0-2-.8954305-2-2s.8954305-2 2-2 2 .8954305 2 2-.8954305 2-2 2zm6 0c-1.1045695 0-2-.8954305-2-2s.8954305-2 2-2 2 .8954305 2 2-.8954305 2-2 2z"/><path id="Shape" d="m27.46 11.62c-1.46 2.09.61 4.38 3.54 4.38s4.94-2.33 3.54-4.38c7.26-1.62 5.46-7.62-3.54-7.62-4 0-8 1.37-8 4 0 1.82 1.94 3 4.46 3.62zm5.54 1.38c0 .41-.78 1-2 1s-2-.59-2-1 .78-1 2-1 2 .59 2 1zm-2-7c3.72 0 6 1.29 6 2s-2.28 2-6 2-6-1.29-6-2 2.28-2 6-2z"/></g></g></svg>