<svg height="512" viewBox="0 0 48 48" width="512" xmlns="http://www.w3.org/2000/svg"><g id="Line"><path d="m32.726 15.312c-.189-.199-.452-.312-.726-.312h-10c-.552 0-1 .448-1 1v7.109c0 6.802-2.3 13.504-6.476 18.874-1.274 1.552-.057 4.077 1.965 4.017 9.735-.014 15.591-12.033 16.016-20.565 0 0 .494-9.382.494-9.382.014-.274-.085-.542-.273-.741z" fill="#609c48"/><path d="m28 8.019v-5.019c-.004-1.302-1.995-1.312-2 0v5.019c-2.732.099-5.052 2.544-5 5.284v2.697c.296 2.082 3.452.523 4.084-.596 0 0 1.022 2.043 1.022 2.043.169.339.515.553.894.553s.725-.214.895-.553l1.021-2.043c.636 1.123 3.786 2.676 4.084.596v-2.697c.051-2.742-2.267-5.185-5-5.284z" fill="#92b77e"/><path d="m33 13.303c.051-2.741-2.267-5.185-5-5.284v-5.019c-.019-1.304-1.977-1.323-2 0v5.019c-2.732.099-5.052 2.544-5 5.284v9.807c0 6.802-2.3 13.504-6.476 18.874-.338.433-.524.976-.524 1.527.467 5.066 8.954 1.345 10.897-.994 4.567-4.567 7.269-10.634 7.608-17.082.099-2.027.604-10.27.495-12.132zm-10 0c-.033-1.776 1.525-3.338 3.303-3.303 1.568-.077 3.213-.004 4.143 1.471.666.866.557 2.193.555 3.221-.313-.214-.558-.527-.684-.906l-.367-1.103c-.245-.83-1.492-.916-1.844-.131 0 0-1.105 2.211-1.105 2.211l-1.105-2.211c-.361-.787-1.598-.697-1.843.131 0 0-.368 1.103-.368 1.103-.126.378-.37.692-.684.906v-1.389zm.482 27.801c-1.868 1.867-4.351 2.896-6.993 2.896-.396.008-.638-.482-.386-.79 4.447-5.717 6.897-12.856 6.897-20.101v-6.248c.843-.231 1.581-.745 2.084-1.458l1.021 2.043c.17.34.516.554.895.554s.725-.214.895-.553l1.021-2.043c.494.699 1.214 1.206 2.038 1.443l-.447 8.483c-.313 5.954-2.808 11.556-7.025 15.774z"/></g></svg>