<svg height="512" viewBox="0 0 64 64" width="512" xmlns="http://www.w3.org/2000/svg"><g id="_18-Picnic" data-name="18-Picnic"><path d="m36 1h6v4h-6z" fill="#9196aa"/><path d="m36 5h6v3h-6z" fill="#cdd2e1"/><path d="m42 14c0 2.83 2.51 3.16 3.97 5.24a4.092 4.092 0 0 0 -.87 1.82 10.024 10.024 0 0 0 -7.46 2.22l-4.89-4.88c1.44-1.4 3.25-1.99 3.25-4.4v-6h6z" fill="#aeabd6"/><path d="m45.283 18.44a4.1 4.1 0 0 0 -.183.62 10.024 10.024 0 0 0 -7.46 2.22l-3.8-3.8a12.928 12.928 0 0 0 -1.086.916l4.89 4.88a10.024 10.024 0 0 1 7.46-2.22 4.092 4.092 0 0 1 .87-1.82 5.791 5.791 0 0 0 -.691-.796z" fill="#988fc4"/><path d="m24.77 40.93a1.756 1.756 0 0 1 -.65 2.39l-14.7 8.73-6.66 3.95-1.76-3.13 8.09-4.8 13.14-7.81a1.806 1.806 0 0 1 .94-.26 1.839 1.839 0 0 1 1.6.93z" fill="#ffe4c2"/><path d="m63 52.87-1.76 3.13-6.66-3.95-14.7-8.73a1.756 1.756 0 0 1 -.65-2.39 1.839 1.839 0 0 1 1.6-.93 1.806 1.806 0 0 1 .94.26l13.14 7.81z" fill="#ffe4c2"/><path d="m54 35h-8l-4-4h8z" fill="#d6995c"/><path d="m31.36 31h2.64l4 4h-8l-4-4z" fill="#d6995c"/><path d="m12.65 31h5.35l4 4h-8l-4-4z" fill="#d6995c"/><g fill="#9e6f46"><path d="m56 31a2.006 2.006 0 0 1 2 2 2.015 2.015 0 0 1 -2 2h-2l-4-4z"/><path d="m46 35h-8l-4-4h8z"/><path d="m30 35h-8l-4-4h8z"/><path d="m14 35h-6a2.006 2.006 0 0 1 -2-2 2.015 2.015 0 0 1 2-2h2z"/></g><path d="m10 59h44v4h-44z" fill="#f2d1a5"/><path d="m56 35-1.09 13.07-13.14-7.81a1.806 1.806 0 0 0 -.94-.26 1.839 1.839 0 0 0 -1.6.93 1.756 1.756 0 0 0 .65 2.39l14.7 8.73-.58 6.95h-44l-.58-6.95 14.7-8.73a1.756 1.756 0 0 0 .65-2.39 1.839 1.839 0 0 0 -1.6-.93 1.806 1.806 0 0 0 -.94.26l-13.14 7.81-1.09-13.07z" fill="#e3a76f"/><path d="m14 37h8 8 8 8 8 1.833l.167-2h-2-8-8-8-8-8-6l.167 2z" fill="#c48958"/><path d="m24.77 42.93c-.026-.047-.066-.082-.1-.126a1.807 1.807 0 0 1 -.554.516l-14.696 8.73.159 1.906 14.541-8.636a1.756 1.756 0 0 0 .65-2.39z" fill="#c48958"/><path d="m39.326 42.8c-.03.044-.07.079-.1.126a1.756 1.756 0 0 0 .65 2.39l14.541 8.636.159-1.906-14.7-8.73a1.807 1.807 0 0 1 -.55-.516z" fill="#c48958"/><path d="m53 17s0 3.95-1.32 6.01a3.759 3.759 0 0 1 -.7.83c-1.6 1.5-4.05 1.46-5.17.35a3.457 3.457 0 0 1 -.71-3.13 4.367 4.367 0 0 1 1.89-2.74c2.06-1.32 6.01-1.32 6.01-1.32z" fill="#bed264"/><path d="m51.68 21.01a3.759 3.759 0 0 1 -.7.83c-1.6 1.5-4.05 1.46-5.17.35a2.757 2.757 0 0 1 -.675-1.262c-.01.044-.026.088-.035.132a3.457 3.457 0 0 0 .71 3.13c1.12 1.11 3.57 1.15 5.17-.35a3.759 3.759 0 0 0 .7-.83c1.32-2.06 1.32-6.01 1.32-6.01h-.137a10.151 10.151 0 0 1 -1.183 4.01z" fill="#aac864"/><path d="m54 31h-20a10.006 10.006 0 0 1 11.1-9.94 3.457 3.457 0 0 0 .71 3.13c1.12 1.11 3.57 1.15 5.17-.35a10 10 0 0 1 3.02 7.16z" fill="#ffb13b"/><path d="m51.97 24.983a10.271 10.271 0 0 0 -.99-1.143 4.232 4.232 0 0 1 -.845.6 3.336 3.336 0 0 0 1.835.543z" fill="#ffa426"/><path d="m41.64 23.28a10.031 10.031 0 0 1 3.418-1.83c.016-.131.014-.259.042-.39a10 10 0 0 0 -11.1 9.94h4a10.015 10.015 0 0 1 3.64-7.72z" fill="#ffa426"/><path d="m32.75 18.4 4.89 4.88a10.015 10.015 0 0 0 -3.64 7.72h-2.64l-11.13-11.12a6.62 6.62 0 0 1 11.06-2.94z" fill="#e3b79d"/><path d="m33.36 29-11.13-11.12a6.456 6.456 0 0 1 .837-1.843 6.63 6.63 0 0 0 -2.837 3.843l11.13 11.12h2.64a9.92 9.92 0 0 1 .213-2z" fill="#cfa388"/><path d="m31.36 31h-18.71l-6.71-6.71a6.611 6.611 0 0 1 9.35-9.35l4.94 4.94z" fill="#a37862"/><path d="m9.94 14.94a6.562 6.562 0 0 1 2.675-1.628 6.612 6.612 0 0 0 -6.675 10.978l6.71 6.71h4l-6.71-6.71a6.6 6.6 0 0 1 0-9.35z" fill="#966857"/><path d="m56 36h-48a3 3 0 0 1 0-6h48a3 3 0 0 1 0 6zm-48-4a1 1 0 0 0 0 2h48a1 1 0 0 0 0-2z"/><path d="m54 64h-44a1 1 0 0 1 -1-1v-4a1 1 0 0 1 1-1h44a1 1 0 0 1 1 1v4a1 1 0 0 1 -1 1zm-43-2h42v-2h-42z"/><path d="m8.71 52.038h1.999v6.974h-1.999z" transform="matrix(.997 -.083 .083 .997 -4.585 1)"/><path d="m7.545 34.977h1.999v13.116h-1.999z" transform="matrix(.997 -.083 .083 .997 -3.422 .854)"/><path d="m50.803 54.525h6.974v1.999h-6.974z" transform="matrix(.083 -.997 .997 .083 -5.552 105.016)"/><path d="m48.897 40.536h13.116v1.999h-13.116z" transform="matrix(.083 -.997 .997 .083 9.458 93.349)"/><path d="m61.24 57a1 1 0 0 1 -.511-.141l-21.361-12.683a2.759 2.759 0 0 1 -1.014-3.739 2.793 2.793 0 0 1 1.729-1.337 2.822 2.822 0 0 1 2.2.3l21.228 12.605a1 1 0 0 1 .361 1.349l-1.76 3.135a1 1 0 0 1 -.613.477 1.035 1.035 0 0 1 -.259.034zm-20.414-16a.9.9 0 0 0 -.224.029.811.811 0 0 0 -.5.386.77.77 0 0 0 .291 1.042l20.48 12.16.78-1.39-20.396-12.109a.847.847 0 0 0 -.431-.118z"/><path d="m2.76 57a1.035 1.035 0 0 1 -.259-.034 1 1 0 0 1 -.613-.477l-1.76-3.135a1 1 0 0 1 .361-1.349l21.233-12.605a2.823 2.823 0 0 1 2.2-.3 2.793 2.793 0 0 1 1.729 1.339 2.759 2.759 0 0 1 -1.014 3.739l-21.366 12.681a1 1 0 0 1 -.511.141zm-.41-3.773.78 1.39 20.48-12.16a.77.77 0 0 0 .291-1.042.811.811 0 0 0 -.5-.386.848.848 0 0 0 -.655.089z"/><path d="m13 54h4v2h-4z"/><path d="m19 54h4v2h-4z"/><path d="m25 54h4v2h-4z"/><path d="m31 54h4v2h-4z"/><path d="m37 54h4v2h-4z"/><path d="m43 54h4v2h-4z"/><path d="m49 38h4v2h-4z"/><path d="m11 38h4v2h-4z"/><path d="m37 50h4v2h-4z"/><path d="m31 50h4v2h-4z"/><path d="m25 50h4v2h-4z"/><path d="m19 50h4v2h-4z"/><path d="m25 46h4v2h-4z"/><path d="m31 46h4v2h-4z"/><path d="m31 42h4v2h-4z"/><path d="m31 38h4v2h-4z"/><path d="m37 46h4v2h-4z"/><path d="m35 31h-2a11.006 11.006 0 0 1 12.21-10.934l-.221 1.988a9 9 0 0 0 -9.989 8.946z"/><path d="m55 31h-2a8.959 8.959 0 0 0 -2.719-6.446l1.4-1.429a10.942 10.942 0 0 1 3.319 7.875z"/><path d="m11 30.172h2v5.657h-2z" transform="matrix(.707 -.707 .707 .707 -19.82 18.151)"/><path d="m19 30.172h2v5.657h-2z" transform="matrix(.707 -.707 .707 .707 -17.477 23.808)"/><path d="m27 30.172h2v5.657h-2z" transform="matrix(.707 -.707 .707 .707 -15.134 29.464)"/><path d="m35 30.172h2v5.657h-2z" transform="matrix(.707 -.707 .707 .707 -12.79 35.121)"/><path d="m43 30.172h2v5.657h-2z" transform="matrix(.707 -.707 .707 .707 -10.447 40.778)"/><path d="m51 30.172h2v5.657h-2z" transform="matrix(.707 -.707 .707 .707 -8.104 46.435)"/><path d="m48.053 26a4.158 4.158 0 0 1 -2.947-1.106 4.311 4.311 0 0 1 -1.076-3.506 5.3 5.3 0 0 1 2.417-3.907c2.285-1.464 6.38-1.481 6.553-1.481a1 1 0 0 1 1 1c0 .173-.017 4.268-1.481 6.554a5.306 5.306 0 0 1 -4.466 2.446zm3.9-7.954a10.832 10.832 0 0 0 -4.428 1.119 3.3 3.3 0 0 0 -1.506 2.435 2.351 2.351 0 0 0 .5 1.876 2.355 2.355 0 0 0 1.877.5 3.3 3.3 0 0 0 2.437-1.506 10.816 10.816 0 0 0 1.12-4.424z"/><path d="m37 27h2v2h-2z"/><path d="m41 27h2v2h-2z"/><path d="m39 25h2v2h-2z"/><path d="m30.653 31.708-16.07-16.061a5.612 5.612 0 1 0 -7.937 7.935l6.711 6.711-1.414 1.414-6.71-6.707a7.611 7.611 0 1 1 10.767-10.766l16.067 16.058z"/><path d="m7.757 20h8.485v2h-8.485z" transform="matrix(.707 -.707 .707 .707 -11.335 14.636)"/><path d="m11.757 24h8.485v2h-8.485z" transform="matrix(.707 -.707 .707 .707 -12.991 18.636)"/><path d="m16.964 27.5h7.071v2h-7.071z" transform="matrix(.707 -.707 .707 .707 -14.148 22.843)"/><path d="m36.933 23.987-6.35-6.34a5.6 5.6 0 0 0 -7.934 0 5.5 5.5 0 0 0 -1.449 2.491l-1.931-.516a7.609 7.609 0 0 1 12.731-3.388l6.349 6.338z"/><path d="m26.172 21h5.657v2h-5.657z" transform="matrix(.707 -.707 .707 .707 -7.062 26.95)"/><path d="m29.172 24h5.657v2h-5.657z" transform="matrix(.707 -.707 .707 .707 -8.305 29.95)"/><path d="m42 6h-6a1 1 0 0 1 -1-1v-4a1 1 0 0 1 1-1h6a1 1 0 0 1 1 1v4a1 1 0 0 1 -1 1zm-5-2h4v-2h-4z"/><path d="m42 9h-6a1 1 0 0 1 -1-1v-3h2v2h4v-2h2v3a1 1 0 0 1 -1 1z"/><path d="m33.447 19.117-1.394-1.434a14.122 14.122 0 0 1 1.215-1.024c1.138-.887 1.732-1.407 1.732-2.659v-6h2v6c0 2.288-1.33 3.323-2.5 4.237a12.69 12.69 0 0 0 -1.053.88z"/><path d="m45.151 19.815a7.545 7.545 0 0 0 -1.645-1.574c-1.175-.918-2.506-1.958-2.506-4.241v-6h2v6c0 1.25.6 1.773 1.737 2.665a9.381 9.381 0 0 1 2.051 2z"/><path d="m19 13h2v2h-2z"/><path d="m21 11h-2v-1a3 3 0 0 1 3-3h5a1 1 0 0 0 0-2h-21v-2h21a3 3 0 0 1 0 6h-5a1 1 0 0 0 -1 1z"/></g></svg>