<?xml version="1.0" encoding="iso-8859-1"?>
<!-- Generator: Adobe Illustrator 19.0.0, SVG Export Plug-In . SVG Version: 6.00 Build 0)  -->
<svg xmlns="http://www.w3.org/2000/svg" xmlns:xlink="http://www.w3.org/1999/xlink" version="1.1" id="Layer_1" x="0px" y="0px" viewBox="0 0 512 512" style="enable-background:new 0 0 512 512;" xml:space="preserve">
<g>
	<path style="fill:#9AE523;" d="M329.926,176.585c5.234-4.897,10.016-10.593,13.803-17.192c19.024-33.151,5.748-76.465,5.639-76.826   l0.007-0.009l-0.012,0.004v-0.017l-0.007,0.007c-0.19,0.05-41.809,1.735-65.354,45.437l-4.666,48.596H329.926z"/>
	<path style="fill:#9AE523;" d="M227.784,127.989c-23.545-43.702-65.164-45.387-65.354-45.437l-0.007-0.007v0.017l-0.011-0.004   l0.007,0.009c-0.108,0.362-13.385,43.676,5.639,76.826c3.786,6.598,8.569,12.294,13.803,17.192h59.076L227.784,127.989z"/>
</g>
<circle style="fill:#FF5764;" cx="255.956" cy="144.194" r="32.392"/>
<path style="fill:#FFDF9F;" d="M382.007,176.585H129.994c-4.597,0-8.655,3.005-9.995,7.403L55.382,396.011h401.237l-64.617-212.023  C390.662,179.59,386.605,176.585,382.007,176.585z"/>
<path style="fill:#BF4F28;" d="M129.994,176.585c-4.597,0-8.655,3.005-9.994,7.403l-11.119,36.482h294.24l-11.119-36.482  c-1.341-4.398-5.398-7.403-9.994-7.403L129.994,176.585L129.994,176.585z"/>
<path d="M335.96,230.919h-0.138c-5.77,0-10.449-4.678-10.449-10.449s4.679-10.449,10.449-10.449h0.138  c5.77,0,10.449,4.678,10.449,10.449S341.73,230.919,335.96,230.919z"/>
<path d="M470.744,439.897H41.257c-4.161,0-7.927-2.469-9.584-6.286L0.868,362.689c-2.299-5.292,0.127-11.448,5.421-13.747  c5.293-2.298,11.448,0.127,13.747,5.421l28.074,64.636h415.782l28.074-64.636c2.3-5.292,8.455-7.719,13.747-5.421  c5.292,2.3,7.72,8.454,5.421,13.747l-30.804,70.922C478.671,437.427,474.905,439.897,470.744,439.897z"/>
<path d="M466.614,392.965l-64.616-212.022c-2.699-8.856-10.732-14.807-19.991-14.807h-30.142c0.31-0.513,0.629-1.023,0.926-1.541  c20.134-35.082,8.571-78.293,6.693-84.669c-1.283-4.91-6.071-8.265-11.129-7.775c-5.069,0.381-40.737,4.262-65.77,38.522  c-7.317-5.825-16.57-9.318-26.629-9.318c-10.095,0-19.377,3.517-26.707,9.38c-25.03-34.308-60.739-38.201-65.848-38.586  c-5.015-0.471-9.784,2.855-11.08,7.722c-1.849,6.257-13.502,49.565,6.676,84.725c0.298,0.518,0.615,1.029,0.927,1.543h-29.929  c-9.259,0-17.292,5.951-19.99,14.806L45.387,392.965c-0.965,3.167-0.372,6.604,1.598,9.265c1.97,2.661,5.085,4.23,8.397,4.23  h401.237c3.311,0,6.426-1.569,8.397-4.23C466.986,399.57,467.579,396.132,466.614,392.965z M341.386,94.441  c2.474,13.359,5.019,39.297-6.72,59.752c-2.395,4.171-5.433,8.173-9.041,11.943h-18.858l14.53-19.319  c3.468-4.612,2.542-11.163-2.07-14.632c-4.61-3.468-11.161-2.542-14.632,2.069l-5.854,7.783c-0.238-4.772-1.27-9.336-2.951-13.576  C310.044,105.333,329.988,97.247,341.386,94.441z M255.955,122.251c12.099,0,21.943,9.843,21.943,21.943  c0,12.1-9.844,21.943-21.943,21.943c-12.099,0-21.943-9.843-21.943-21.943C234.012,132.094,243.856,122.251,255.955,122.251z   M177.12,154.193c-11.736-20.453-9.198-46.376-6.721-59.751c11.42,2.812,31.416,10.925,45.671,34.146  c-1.67,4.252-2.685,8.828-2.906,13.611l-5.974-7.943c-3.468-4.611-10.018-5.538-14.632-2.07c-4.612,3.468-5.539,10.019-2.07,14.631  l14.53,19.319h-18.858C182.553,162.365,179.513,158.363,177.12,154.193z M69.49,385.562l47.141-154.682  c0.251,0.018,0.5,0.039,0.757,0.039h184.631c5.77,0,10.449-4.678,10.449-10.449s-4.679-10.449-10.449-10.449h-179.03l7.006-22.988  h252.014l60.503,198.529H69.49z"/>
<g>
</g>
<g>
</g>
<g>
</g>
<g>
</g>
<g>
</g>
<g>
</g>
<g>
</g>
<g>
</g>
<g>
</g>
<g>
</g>
<g>
</g>
<g>
</g>
<g>
</g>
<g>
</g>
<g>
</g>
</svg>
