<?xml version="1.0" encoding="iso-8859-1"?>
<!-- Generator: Adobe Illustrator 21.0.0, SVG Export Plug-In . SVG Version: 6.00 Build 0)  -->
<svg version="1.1" id="Capa_1" xmlns="http://www.w3.org/2000/svg" xmlns:xlink="http://www.w3.org/1999/xlink" x="0px" y="0px"
	 viewBox="0 0 593.549 593.549" style="enable-background:new 0 0 593.549 593.549;" xml:space="preserve">
<g>
	<g>
		<g id="filled_outline_20_">
			<path style="fill:#634129;" d="M346.348,128.678c-21.843,0-39.552,17.709-39.552,39.552l59.328,19.776l9.888-59.328H346.348z"/>
			<path style="fill:#754C30;" d="M571.795,310.618c-11.203-14.941-28.784-23.731-47.463-23.731h-98.88l-42.934-85.858
				c-10.046-20.102-30.594-32.799-53.059-32.799h-200.47c-24.038,0-45.702,14.506-54.859,36.734l-24.423,62.146l-15.821,11.866
				c-14.941,11.203-23.731,28.784-23.731,47.463v88.992h573.506v-69.216C583.661,333.37,579.498,320.882,571.795,310.618z"/>
			<path style="fill:#4EABEC;" d="M225.289,284.484l2.403,2.403h197.761L385.9,207.782H73.023l-23.316,59.328h133.637
				C199.076,267.111,214.165,273.36,225.289,284.484z"/>
			<rect x="10.155" y="375.879" style="fill:#634129;" width="573.506" height="39.552"/>
			<circle style="fill:#697B8C;" cx="99.147" cy="415.431" r="49.44"/>
			<circle style="fill:#D0D7DF;" cx="99.147" cy="415.431" r="19.776"/>
			<circle style="fill:#697B8C;" cx="494.669" cy="415.431" r="49.44"/>
			<circle style="fill:#D0D7DF;" cx="494.669" cy="415.431" r="19.776"/>
			<path style="fill:#4394CC;" d="M364.008,207.782l-144.672,71.57c2.086,1.582,4.074,3.293,5.933,5.132l2.423,2.403h197.761
				L385.9,207.782C385.9,207.782,364.008,207.782,364.008,207.782z"/>
			<path d="M524.333,276.999h-92.77l-40.195-80.39c-3.748-7.406-8.8-14.09-14.911-19.717l9.245-46.276
				c1.068-5.359-2.403-10.56-7.762-11.638c-0.633-0.129-1.285-0.188-1.928-0.188h-29.664c-23.484,0.03-43.725,16.553-48.451,39.552
				H128.989c-28.122-0.049-53.465,16.958-64.065,43.003L41.53,260.881l-13.576,10.185c-17.383,13.102-27.637,33.6-27.686,55.373
				v48.105c-0.129,0.435-0.218,0.88-0.267,1.335v39.552c0,5.458,4.43,9.888,9.888,9.888h30.821
				c5.429,32.275,35.992,54.038,68.267,48.61c24.908-4.193,44.417-23.702,48.61-48.61H436.23
				c5.429,32.275,35.992,54.038,68.267,48.61c24.908-4.193,44.417-23.702,48.61-48.61h30.554c5.458,0,9.888-4.43,9.888-9.888
				v-69.216C593.549,307.988,562.56,276.999,524.333,276.999z M379.789,217.67l29.664,59.328H296.908V217.67H379.789z
				 M346.348,138.566h17.601l-5.251,26.272c-9.156-4.272-19.133-6.487-29.239-6.496h-10.956
				C322.676,146.526,333.82,138.616,346.348,138.566z M128.989,178.118h200.47c15.534-0.03,30.168,7.307,39.443,19.776H89.556
				C98.841,185.435,113.455,178.108,128.989,178.118z M277.132,217.67v59.328h-45.347c-12.914-12.716-30.327-19.826-48.451-19.776
				h-14.97V217.67H277.132z M79.757,217.67h68.831v39.552H64.213L79.757,217.67z M40.373,405.543h-20.33v-19.776h27.499
				C43.972,391.858,41.54,398.562,40.373,405.543z M99.147,454.983c-21.754,0.089-39.463-17.482-39.552-39.236
				c-0.03-7.554,2.116-14.961,6.18-21.338c0.415-0.633,0.811-1.276,1.256-1.889c0.979-1.355,2.037-2.64,3.184-3.856
				c7.564-7.94,17.976-12.538,28.932-12.785c21.843,0,39.552,17.709,39.552,39.552C138.699,437.274,120.99,454.983,99.147,454.983z
				 M442.994,386.38c-1.483,2.64-2.759,5.399-3.807,8.237c-0.188,0.484-0.366,0.989-0.534,1.454c-1.009,2.887-1.78,5.844-2.324,8.85
				c0,0.218-0.129,0.405-0.168,0.623H157.655c0-0.218-0.129-0.405-0.168-0.623c-0.544-3.006-1.315-5.962-2.324-8.85
				c-0.168-0.494-0.346-0.989-0.534-1.454c-1.048-2.838-2.324-5.597-3.807-8.237c-0.119-0.208-0.218-0.415-0.336-0.613H443.33
				C443.251,385.965,443.112,386.172,442.994,386.38z M494.669,454.983c-21.843,0-39.552-17.709-39.552-39.552
				c0-21.843,17.709-39.552,39.552-39.552c8.434,0.02,16.642,2.769,23.385,7.831l0.099,0.099c2.334,1.74,4.469,3.728,6.378,5.933
				c0.297,0.336,0.573,0.682,0.85,0.989c1.463,1.829,2.769,3.777,3.886,5.834c0.346,0.643,0.722,1.256,0.989,1.918
				c0.9,1.938,1.641,3.955,2.215,6.012c0.208,0.742,0.514,1.454,0.682,2.205c4.964,21.131-8.158,42.281-29.288,47.245
				C500.849,454.647,497.764,454.993,494.669,454.983z M573.773,405.543h-20.597c0-0.227-0.129-0.435-0.168-0.653
				c-0.544-2.996-1.325-5.943-2.324-8.82c-0.079-0.237-0.109-0.504-0.198-0.742c-0.089-0.237-0.227-0.445-0.316-0.682l0,0
				c-1.048-2.838-2.324-5.597-3.807-8.237c-0.119-0.208-0.218-0.415-0.336-0.613h27.746V405.543z M573.773,365.991h-46.375
				c-0.613-0.405-1.246-0.751-1.869-1.137l-1.285-0.781c-2.591-1.493-5.29-2.788-8.079-3.876l-1.463-0.544
				c-2.897-1.048-5.874-1.869-8.899-2.462c-0.396-0.079-0.791-0.119-1.187-0.188c-6.585-1.196-13.329-1.196-19.914,0
				c-0.396,0.069-0.791,0.109-1.187,0.188c-3.026,0.593-6.002,1.414-8.899,2.462l-1.463,0.544c-2.788,1.088-5.488,2.383-8.079,3.876
				l-1.285,0.781c-0.623,0.386-1.256,0.732-1.869,1.137H131.877c-0.613-0.405-1.246-0.751-1.869-1.137l-1.285-0.781
				c-2.591-1.493-5.29-2.788-8.079-3.876l-1.463-0.544c-2.897-1.048-5.873-1.869-8.899-2.462c-0.396-0.079-0.791-0.119-1.187-0.188
				c-6.585-1.196-13.329-1.196-19.914,0c-0.396,0.069-0.791,0.109-1.187,0.188c-3.026,0.593-6.002,1.414-8.899,2.462l-1.463,0.544
				c-2.788,1.088-5.488,2.383-8.079,3.876l-1.285,0.781c-0.623,0.386-1.256,0.732-1.869,1.137H20.043v-39.552
				c0.04-15.554,7.357-30.188,19.776-39.552L53,276.999h130.344c13.121-0.04,25.699,5.181,34.954,14.476l2.403,2.403
				c1.849,1.859,4.37,2.897,6.991,2.897h296.641c15.554,0.04,30.188,7.357,39.552,19.776l0,0c6.398,8.563,9.868,18.965,9.888,29.664
				V365.991z"/>
			<rect x="465.005" y="316.551" width="29.664" height="19.776"/>
			<circle cx="99.147" cy="415.431" r="19.776"/>
			<circle cx="494.669" cy="415.431" r="19.776"/>
			<rect x="296.908" y="316.551" width="39.552" height="19.776"/>
			<rect x="237.58" y="316.551" width="39.552" height="19.776"/>
		</g>
	</g>
</g>
<g>
</g>
<g>
</g>
<g>
</g>
<g>
</g>
<g>
</g>
<g>
</g>
<g>
</g>
<g>
</g>
<g>
</g>
<g>
</g>
<g>
</g>
<g>
</g>
<g>
</g>
<g>
</g>
<g>
</g>
</svg>
