<?xml version="1.0" encoding="iso-8859-1"?>
<!-- Generator: Adobe Illustrator 19.0.0, SVG Export Plug-In . SVG Version: 6.00 Build 0)  -->
<svg xmlns="http://www.w3.org/2000/svg" xmlns:xlink="http://www.w3.org/1999/xlink" version="1.1" id="Layer_1" x="0px" y="0px" viewBox="0 0 512 512" style="enable-background:new 0 0 512 512;" xml:space="preserve">
<path style="fill:#FFA30C;" d="M160.914,105.535h190.171c83.1,0,150.465,67.366,150.465,150.465s-67.366,150.465-150.465,150.465  H160.914V105.535z"/>
<circle style="fill:#FFDF9F;" cx="160.914" cy="256" r="150.465"/>
<path d="M389.303,156.038h-0.137c-5.771,0-10.449-4.678-10.449-10.449s4.678-10.449,10.449-10.449h0.137  c5.771,0,10.449,4.678,10.449,10.449S395.074,156.038,389.303,156.038z"/>
<path d="M311.012,374.712h-0.137c-5.771,0-10.449-4.678-10.449-10.449c0-5.771,4.678-10.449,10.449-10.449h0.137  c5.771,0,10.449,4.678,10.449,10.449C321.461,370.034,316.783,374.712,311.012,374.712z"/>
<path d="M351.086,95.086H160.914C72.186,95.086,0,167.271,0,256s72.186,160.914,160.914,160.914h190.171  C439.814,416.914,512,344.729,512,256S439.814,95.086,351.086,95.086z M99.889,382.001c8.94,1.712,18.012,2.57,27.085,2.57  c36.61,0,73.22-13.935,101.092-41.806c45.408-45.409,45.408-119.293,0-164.701c-17.992-17.992-41.914-27.901-67.358-27.901  c-25.445,0-49.366,9.909-67.358,27.901c-30.528,30.528-30.528,80.2,0,110.729c25.237,25.237,66.301,25.237,91.538,0  c21.005-21.005,21.005-55.181,0-76.187c-17.619-17.618-46.286-17.618-63.905,0c-7.222,7.223-11.2,16.826-11.2,27.04  c0,10.214,3.978,19.816,11.2,27.039c4.08,4.08,10.697,4.08,14.777,0s4.08-10.697,0-14.777c-3.276-3.275-5.079-7.63-5.079-12.262  c0-4.632,1.805-8.987,5.079-12.262c9.471-9.47,24.88-9.471,34.35,0c12.856,12.856,12.856,33.775,0,46.632  c-17.089,17.089-44.895,17.088-61.983,0c-22.38-22.38-22.38-58.795,0-81.175c14.046-14.046,32.719-21.78,52.581-21.78  s38.536,7.734,52.58,21.78c37.26,37.26,37.26,97.887,0,135.146c-47.433,47.433-124.509,47.588-172.143,0.473  C28.3,307.309,20.898,282.503,20.898,256c0-77.205,62.811-140.016,140.016-140.016S300.931,178.795,300.931,256  S238.12,396.016,160.914,396.016C139.051,396.016,118.344,390.976,99.889,382.001z M240.139,396.016  c48.737-27.686,81.689-80.072,81.689-140.016c0-37.747-13.074-72.49-34.919-99.962h68.452c5.771,0,10.449-4.678,10.449-10.449  s-4.678-10.449-10.449-10.449h-88.359c-8.256-7.255-17.246-13.693-26.863-19.156h110.946c77.205,0,140.016,62.811,140.016,140.016  c0,38.028-15.246,72.556-39.937,97.814H344.816c-5.771,0-10.449,4.678-10.449,10.449c0,5.771,4.678,10.449,10.449,10.449h80.427  c-21.519,13.491-46.941,21.304-74.157,21.304H240.139z"/>
<g>
</g>
<g>
</g>
<g>
</g>
<g>
</g>
<g>
</g>
<g>
</g>
<g>
</g>
<g>
</g>
<g>
</g>
<g>
</g>
<g>
</g>
<g>
</g>
<g>
</g>
<g>
</g>
<g>
</g>
</svg>
