<svg height="512" viewBox="0 0 48 48" width="512" xmlns="http://www.w3.org/2000/svg"><g id="Line"><path d="m24 2c-1.654 0-3 1.346-3 3v2c0 .553.448 1 1 1h4c.553 0 1-.447 1-1v-2c0-1.654-1.346-3-3-3z" fill="#92b77e"/><path d="m33.121 29.004c-.845-1.799-3.366-2.353-4.887-1.072 0 0-1.234.988-1.234.988v-15.432l3.338-2.604c3.104-2.78-.784-7.49-4.104-4.953 0 0-2.234 1.788-2.234 1.788-1.33-.98-3.049-2.982-4.933-2.418-2.546.491-3.423 3.966-1.368 5.613 0 0 3.301 2.573 3.301 2.573v5.432l-1.234-.987c-3.308-2.536-7.214 2.164-4.102 4.952 0 0 5.337 4.575 5.337 4.575v15.541c.098 3.942 5.895 3.967 6 0v-5.54l5.338-4.575c1.12-.962 1.442-2.558.782-3.881z" fill="#609c48"/><path d="m30.932 27.302c-1.553-.424-2.837.687-3.932 1.618v-15.432l3.338-2.604c1.121-.962 1.443-2.558.783-3.881-.708-1.49-2.623-2.193-4.121-1.512v-.491c0-1.654-1.346-3-3-3s-3 1.346-3 3v.491c-3.347-1.426-6.108 3.049-3.301 5.424 0 0 3.301 2.573 3.301 2.573v5.432l-1.234-.987c-3.308-2.536-7.214 2.165-4.102 4.952 0 0 5.337 4.575 5.337 4.575v15.54c.098 3.941 5.894 3.968 6 0v-5.54l5.338-4.575c2.008-1.617 1.126-5.112-1.407-5.583zm-6.932-23.302c.551 0 1 .448 1 1v1.919l-1 .8-1-.8v-1.919c0-.552.449-1 1-1zm7.036 27.367-5.687 4.874c-.221.19-.349.467-.349.759v6c-.019 1.298-1.975 1.327-2 0v-16c0-.292-.127-.569-.349-.759l-5.686-4.874c-1.183-1.018.325-2.851 1.551-1.873 0 0 2.859 2.287 2.859 2.287.619.528 1.652.031 1.625-.781v-8c0-.309-.142-.6-.385-.789l-3.65-2.844c-1.184-1.011.325-2.853 1.551-1.873 4.326 3.348 2.679 3.294 6.968-.001 1.221-.956 2.713.81 1.587 1.844 0 0-3.686 2.874-3.686 2.874-.242.189-.385.48-.385.789v18c-.026.811 1.006 1.312 1.625.781 0 0 2.859-2.288 2.859-2.288 1.218-.977 2.74.856 1.552 1.874z"/></g></svg>