<svg height="512" viewBox="0 0 60 60" width="512" xmlns="http://www.w3.org/2000/svg"><g id="026---Spider" fill="none"><g id="Icons" transform="translate(15 16)"><path id="Shape" d="m22 27.12c1.6493978 2.9654065 1.2485987 6.6487498-1 9.19h-12c-2.24859872-2.5412502-2.64939777-6.2245935-1-9.19z" fill="#3f51b5"/><path id="Shape" d="m22 27.12h-3c1.6493978 2.9654065 1.2485987 6.6487498-1 9.19h3c2.2485987-2.5412502 2.6493978-6.2245935 1-9.19z" fill="#283593"/><circle id="Oval" cx="12" cy="36" fill="#f5f5f5" r="3"/><circle id="Oval" cx="18" cy="36" fill="#f5f5f5" r="3"/><path id="Shape" d="m29 15c-.0003171 7.5369898-5.9673652 13.7210359-13.4995378 13.990463-7.53217253.269427-13.9258137-5.4724753-14.46463974-12.9901798-.53882603-7.51770448 4.97057343-14.11274858 12.46417754-14.9202832 3.9513603-.42581116 7.8974912.84781308 10.8543626 3.50327438s4.6458046 6.44248822 4.6456374 10.41672562z" fill="#283593"/><ellipse id="Oval" cx="13.5" cy="15" fill="#3f51b5" rx="12.5" ry="13.92"/><g fill="#f44335"><ellipse id="Oval" cx="15" cy="21" rx="5" ry="3"/><ellipse id="Oval" cx="15" cy="16" rx="3" ry="2"/></g></g><g id="Layer_10" fill="#000"><path id="Shape" d="m30 41c6.16 0 8.09-5.25 3.35-7.34 1.7-1.95-.06-4.66-3.35-4.66s-5 2.74-3.35 4.66c-4.79 2.12-2.74 7.34 3.35 7.34zm-2-9c0-.41.78-1 2-1s2 .59 2 1-.78 1-2 1-2-.59-2-1zm2 3c2.29 0 4 1.06 4 2s-1.71 2-4 2-4-1.06-4-2 1.71-2 4-2z"/><path id="Shape" d="m11.07 44.07c-.3148947-.0231723-.6003485-.1937031-.77-.46l-8.46-13.15c-.29870986-.4632328-.91593266-.5974116-1.38-.3-.46323277.2987099-.59741164.9159327-.3 1.38l8.45 13.15c.51529638.8004962 1.37995205 1.3088989 2.33 1.37l10.06.68c-.0049455.0865961-.0049455.1734039 0 .26v.36l-9.25 3.3c-.3430421.1237437-.7262468.0509348-1-.19l-7.09-6.22c-.41691499-.335802-1.02433498-.2837133-1.37799067.1181682-.3536557.4018815-.32809334 1.0109946.05799067 1.3818318l7.12 6.25c.5535394.4832842 1.2652035.7465999 2 .74.73 0 .33.07 9.89-3.35 0 .15.09.29.13.43l-5.32 7.32c-.274478.3758331-.771943.512636-1.2.33l-5.57-2.39c-.33164775-.1560074-.72206695-.1180873-1.01749425.0988257-.2954273.2169129-.44852216.5780598-.39898944.9412058.04953272.3631461.29375567.6700992.63648369.7999685 5.91 2.53 5.89 2.62 6.72 2.62.9584307-.0030339 1.8577227-.4638282 2.42-1.24l4.68-6.45c.1962177.3054072.4099067.5992296.64.88.1044464.5568704.3260035 1.0851989.65 1.55-.5039328 1.1740376-.7494843 2.4427204-.72 3.72 0 .5522847.4477153 1 1 1s1-.4477153 1-1c-.015054-.8057041.0962978-1.6087873.33-2.38 1.604326.7556164 3.5157662.3463144 4.67-1 1.1504993 1.3525803 3.0665152 1.7628621 4.67 1 .2337022.7712127.345054 1.5742959.33 2.38 0 .5522847.4477153 1 1 1s1-.4477153 1-1c.0294843-1.2772796-.2160672-2.5459624-.72-3.72.3239965-.4648011.5455536-.9931296.65-1.55.2300933-.2807704.4437823-.5745928.64-.88l4.68 6.45c.5622773.7761718 1.4615693 1.2369661 2.42 1.24.84 0 .71 0 6.72-2.62.342728-.1298693.586951-.4368224.6364837-.7999685.0495327-.363146-.1035621-.7242929-.3989895-.9412058-.2954273-.216913-.6858464-.2548331-1.0174942-.0988257l-5.54 2.37c-.428057.182636-.925522.0458331-1.2-.33l-5.32-7.32c0-.14.09-.28.13-.43 9.72 3.48 9.17 3.35 9.89 3.35.7347965.0065999 1.4464606-.2567158 2-.74l7.12-6.23c.2863409-.2306318.4230275-.5997925.3559299-.9612895-.0670975-.3614969-.3271558-.6570177-.6771882-.7695321-.3500324-.1125143-.7335758-.0238727-.9987417.2308216l-7.11 6.22c-.2737532.2409348-.6569579.3137437-1 .19l-9.26-3.3c0-.12 0-.24 0-.36.0049455-.0865961.0049455-.1734039 0-.26l10.08-.68c.9464399-.0641856 1.8067605-.5722197 2.32-1.37l8.46-13.15c.2634624-.4618613.1194165-1.0491348-.3278566-1.3366675s-1.041346-.1747642-1.3521434.2566675l-8.48 13.15c-.1696515.2662969-.4551053.4368277-.77.46l-10.22.68c-.0715833-.2680603-.1583909-.5318216-.26-.79l13.34-8.63c.7189077-.4681004 1.2030247-1.2215758 1.33-2.07l2.88-19.11c.0828427-.5522847-.2977153-1.0671573-.85-1.15s-1.0671573.2977153-1.15.85l-2.86 19.15c-.0415344.2822311-.2016287.5332881-.44.69l-7.88 5.1c2.713501-4.4777463 2.8958383-10.0463433.4810728-14.6920088-2.4147654-4.6456655-7.0771447-7.6960326-12.3010728-8.0479912v-8.05c0-.55228475-.4477153-1-1-1s-1 .44771525-1 1v8.05c-5.2112719.3592233-9.8603695 3.4036556-12.2728795 8.0368178s-2.2409544 10.1877319.4528795 14.6631822l-7.88-5.1c-.22912391-.1476453-.38804957-.3824219-.44-.65l-2.86-19.15c-.08284272-.5522847-.59771525-.9328427-1.15-.85-.55228474.0828427-.9328427.5977153-.85 1.15l2.88 19.11c.12697525.8484242.61109228 1.6018996 1.33 2.07l13.34 8.67c-.1016091.2581784-.1884167.5219397-.26.79zm25.45.42c.6749137 1.7432853.6245028 3.6841022-.14 5.39-.6744418-1.0629957-1.8099616-1.7464599-3.0650142-1.8448183-1.2550527-.0983583-2.4831814.399867-3.3149858 1.3448183-.8318044-.9449513-2.0599331-1.4431766-3.3149858-1.3448183-1.2550526.0983584-2.3905724.7818226-3.0650142 1.8448183-.7757671-1.7033178-.8262967-3.6487065-.14-5.39 4.1131319 2.0150414 8.9268681 2.0150414 13.04 0zm-9.52 9.51c-1.1045695 0-2-.8954305-2-2s.8954305-2 2-2 2 .8954305 2 2-.8954305 2-2 2zm4-2c0-1.1045695.8954305-2 2-2s2 .8954305 2 2-.8954305 2-2 2-2-.8954305-2-2zm-1-34c7.1797017 0 13 5.8202983 13 13s-5.8202983 13-13 13-13-5.8202983-13-13 5.8202983-13 13-13z"/><path id="Shape" d="m30 5c.5522847 0 1-.44771525 1-1v-3c0-.55228475-.4477153-1-1-1s-1 .44771525-1 1v3c0 .55228475.4477153 1 1 1z"/></g></g></svg>