<svg height="512" viewBox="0 0 64 64" width="512" xmlns="http://www.w3.org/2000/svg"><g id="_27-Bird" data-name="27-Bird"><path d="m9.586 29.586h2.828v2.828h-2.828z" fill="#966857" transform="matrix(.707 -.707 .707 .707 -18.698 16.858)"/><path d="m21.586 29.586h2.828v2.828h-2.828z" fill="#966857" transform="matrix(.707 -.707 .707 .707 -15.184 25.343)"/><path d="m17 35h-12v-7a6 6 0 0 1 6-6 6.009 6.009 0 0 1 6 6zm-6-2 2-2-2-2-2 2z" fill="#ffb13b"/><path d="m12 32-1 1-1-1-1 1 2 2 2-2z" fill="#ff9500"/><path d="m15.24 23.76a5.944 5.944 0 0 0 -4.24-1.76 6 6 0 0 0 -6 6v2a6 6 0 0 1 6-6 6.009 6.009 0 0 1 6 6v-2a5.944 5.944 0 0 0 -1.76-4.24z" fill="#ff9500"/><path d="m29 35h-12v-7a6 6 0 0 1 6-6 6.009 6.009 0 0 1 6 6zm-6-2 2-2-2-2-2 2z" fill="#f5cd62"/><path d="m24 32-1 1-1-1-1 1 2 2 2-2z" fill="#ffc247"/><path d="m27.24 23.76a5.944 5.944 0 0 0 -4.24-1.76 6 6 0 0 0 -6 6v2a6 6 0 0 1 6-6 6.009 6.009 0 0 1 6 6v-2a5.944 5.944 0 0 0 -1.76-4.24z" fill="#ffc247"/><path d="m49 39v8a4 4 0 0 1 -4 4h-40a4 4 0 0 1 -4-4v-8a4 4 0 0 1 4-4h40a4 4 0 0 1 4 4z" fill="#e3a76f"/><path d="m45 35h-40a4 4 0 0 0 -4 4v2a4 4 0 0 1 4-4h40a4 4 0 0 1 4 4v-2a4 4 0 0 0 -4-4z" fill="#f2bb88"/><path d="m45 47h-40a4 4 0 0 1 -4-4v4a4 4 0 0 0 4 4h40a4 4 0 0 0 4-4v-4a4 4 0 0 1 -4 4z" fill="#c48958"/><path d="m46 30-.02.06a32.529 32.529 0 0 0 9.02.94l-9-9z" fill="#806e9c"/><path d="m43 28s0 1.18 2.98 2.06l.02-.06v-8l-3-3z" fill="#988fc4"/><path d="m33 22 3 1s1 0 1-2-1-2-1-2z" fill="#636978"/><path d="m36 23s1 0 1-2-1-2-1-2l-3 3zm1-10a6.009 6.009 0 0 1 6 6v9s0 1.18 2.98 2.06a32.529 32.529 0 0 0 9.02.94l8 8h-5l-4-4h-11a12 12 0 0 1 -12-12v-4a6 6 0 0 1 6-6z" fill="#d1d1e8"/><path d="m43 33h11l4 4h3l2 2h-5l-4-4h-11a12 12 0 0 1 -12-12v-2a12 12 0 0 0 12 12z" fill="#bfbfde"/><path d="m45 52h-40a5.006 5.006 0 0 1 -5-5v-8a5.006 5.006 0 0 1 5-5h40a5.006 5.006 0 0 1 5 5v8a5.006 5.006 0 0 1 -5 5zm-40-16a3 3 0 0 0 -3 3v8a3 3 0 0 0 3 3h40a3 3 0 0 0 3-3v-8a3 3 0 0 0 -3-3z"/><path d="m5 38h2v2h-2z"/><path d="m9 38h15v2h-15z"/><path d="m15 42h2v2h-2z"/><path d="m19 42h15v2h-15z"/><path d="m42 46h2v2h-2z"/><path d="m25 46h15v2h-15z"/><path d="m35 38h8v2h-8z"/><path d="m7 46h9v2h-9z"/><path d="m63 40h-5a1 1 0 0 1 -.707-.293l-3.707-3.707h-10.586a13.015 13.015 0 0 1 -13-13v-4a7 7 0 0 1 13.987-.427l19.72 19.72a1 1 0 0 1 -.707 1.707zm-4.586-2h2.172l-18.293-18.293a1 1 0 0 1 -.293-.707 5 5 0 0 0 -10 0v4a11.013 11.013 0 0 0 11 11h11a1 1 0 0 1 .707.293z"/><path d="m55 32c-12.063 0-13-3.062-13-4v-9h2v8.879c.163.258 1.676 2.121 11 2.121z"/><path d="m45 22h2v8h-2z"/><path d="m36 24a1 1 0 0 1 -.316-.052l-3-1a1 1 0 0 1 -.391-1.655l3-3a1 1 0 0 1 .707-.293c.082 0 2 .034 2 3s-1.918 3-2 3zm-1.149-2.438 1.021.341a2.459 2.459 0 0 0 .128-.903 3.616 3.616 0 0 0 -.037-.549z"/><path d="m33 16h2v2h-2z"/><path d="m37 16h2v2h-2z"/><path d="m18 35h-2v-7a5 5 0 0 0 -10 0v7h-2v-7a7 7 0 0 1 14 0z"/><path d="m11 34a1 1 0 0 1 -.707-.293l-2-2a1 1 0 0 1 0-1.414l2-2a1 1 0 0 1 1.414 0l2 2a1 1 0 0 1 0 1.414l-2 2a1 1 0 0 1 -.707.293zm-.586-3 .586.586.586-.586-.586-.586z"/><path d="m12 26h2v2h-2z"/><path d="m8 26h2v2h-2z"/><path d="m30 35h-2v-7a5 5 0 0 0 -10 0v7h-2v-7a7 7 0 0 1 14 0z"/><path d="m23 34a1 1 0 0 1 -.707-.293l-2-2a1 1 0 0 1 0-1.414l2-2a1 1 0 0 1 1.414 0l2 2a1 1 0 0 1 0 1.414l-2 2a1 1 0 0 1 -.707.293zm-.586-3 .586.586.586-.586-.586-.586z"/><path d="m24 26h2v2h-2z"/><path d="m20 26h2v2h-2z"/><path d="m49 15h6v2h-6z"/><path d="m50 18.172h2v5.657h-2z" transform="matrix(.707 -.707 .707 .707 .088 42.213)"/><path d="m48.172 10h5.657v2h-5.657z" transform="matrix(.707 -.707 .707 .707 7.159 39.284)"/><path d="m5 50h47v2h-47z"/><path d="m54 50h2v2h-2z"/><path d="m58 50h5v2h-5z"/></g></svg>