<svg height="512" viewBox="0 0 48 48" width="512" xmlns="http://www.w3.org/2000/svg"><g id="Line"><path d="m28.556 7.169c-1.676-1.028-2.991-2.609-3.607-4.485-.137-.409-.518-.684-.949-.684s-.813.275-.948.684c-.617 1.875-1.931 3.457-3.607 4.485-.278.185-.445.497-.445.831v7c0 .553.447 1 1 1h8c.553 0 1-.447 1-1v-7c0-.334-.167-.646-.444-.831z" fill="#609c48"/><path d="m32.197 9.229-2.35-3.76c-.197-.316-.548-.5-.925-.467-.371.028-.695.261-.842.604l-2.739 6.394h-2.682l-2.74-6.394c-.282-.729-1.384-.817-1.767-.137 0 0-2.35 3.76-2.35 3.76-1.833 2.934-2.802 6.312-2.802 9.771 0 .553.447 1 1 1h20c.553 0 1-.447 1-1 0-3.459-.969-6.837-2.803-9.771z" fill="#92b77e"/><path d="m26.502 12.72c-2.862-2.273-2.128-2.295-5.004.001-2.223 1.779-3.498 4.432-3.498 7.279v8.88c0 .553.447 1 1 1h10c.553 0 1-.447 1-1v-8.88c0-2.847-1.275-5.5-3.498-7.28z" fill="#a9ca95"/><path d="m30.707 31.293c-.391-.391-1.023-.391-1.414 0-.391-.391-11.609-.391-12 0s-.391 1.023 0 1.414c2.391 2.391 3.707 5.569 3.707 8.95v3.343c0 .553.447 1 1 1h4c.553 0 1-.447 1-1v-3.343c0-3.381 1.316-6.56 3.707-8.95.391-.391.391-1.023 0-1.414z" fill="#ffecae"/><path d="m39.924 18.617c-.154-.374-.52-.617-.924-.617h-3.891c-4.755-.043-9.281 2.932-11.109 7.32-1.828-4.389-6.355-7.363-11.109-7.32h-3.891c-.86-.028-1.342 1.116-.707 1.707 1.53 1.339 2.77 3.112 2.707 5.222 0 4.45 3.621 8.071 8.071 8.071 2.457-.005 7.401.003 9.857 0 4.451 0 8.072-3.621 8.072-8.071 0-1.621.632-3.146 1.778-4.293.42-.489 1.562-1.217 1.146-2.019z" fill="#609c48"/><path d="m39 18s-3.986.007-4.035.008c-.167-3.11-1.11-6.126-2.768-8.778l-2.35-3.76c-.389-.677-1.482-.595-1.767.137 0 0-.394.919-.394.919-1.257-.989-2.231-2.319-2.739-3.842-.135-.409-.516-.684-.947-.684s-.813.275-.948.684c-.508 1.523-1.481 2.852-2.739 3.842l-.394-.919c-.282-.727-1.384-.818-1.767-.137 0 0-2.35 3.76-2.35 3.76-1.658 2.652-2.601 5.668-2.768 8.778-.048-.001-4.034-.008-4.034-.008-.86-.029-1.342 1.117-.707 1.707 0 0 .929.929.929.929 1.146 1.146 1.778 2.672 1.778 4.293 0 3.877 2.749 7.122 6.398 7.895 2.321 2.377 3.602 5.505 3.602 8.833v3.343c0 .553.447 1 1 1h4c.553 0 1-.447 1-1v-3.343c0-3.328 1.281-6.457 3.602-8.834 3.649-.773 6.398-4.018 6.398-7.894 0-1.621.632-3.146 1.778-4.293l.929-.929c.628-.59.16-1.736-.707-1.707zm-8.498-7.71c1.493 2.389 2.335 5.111 2.47 7.916-1.048.188-2.064.501-3.019.951-.206-2.296-1.247-4.409-2.941-5.98l2.154-5.025zm-7.754 3.992 1.252-1.002c2.287 1.575 4.056 3.768 4.056 6.999 0 0-1.262.917-2.14 1.949-.796.936-1.437 1.98-1.916 3.092-.479-1.112-1.137-2.141-1.915-3.091-.72-.879-2.141-1.95-2.141-1.95.086-2.574 1.058-4.599 2.804-5.997zm1.252-8.917c.73 1.207 1.713 2.251 2.871 3.066l-1.463 3.414c-.557-.448-1.298-1.235-2.033-.626 0 0-.782.626-.782.626l-1.463-3.414c1.157-.815 2.14-1.859 2.87-3.066zm-6.502 4.925 1.336-2.138 2.154 5.025c-1.694 1.57-2.736 3.684-2.941 5.979-.955-.45-1.971-.763-3.019-.951.135-2.804.977-5.526 2.47-7.915zm-4.498 14.639c0-1.807-.59-3.522-1.678-4.929 3.454-.249 6.985.795 9.244 3.531 1.796 2.054 2.575 4.768 2.434 7.469h-3.929c-3.347 0-6.071-2.724-6.071-6.071zm12 16.728v2.343h-2c.215-3.872-.441-7.908-2.848-11 1.918.002 5.778-.002 7.695 0-1.839 2.498-2.847 5.497-2.847 8.657zm10-16.728c0 3.347-2.724 6.071-6.071 6.071h-3.929c-.4-6.742 5.051-11.616 11.678-11-1.088 1.406-1.678 3.122-1.678 4.929z"/></g></svg>