<svg id="Filled" height="512" viewBox="0 0 512 512" width="512" xmlns="http://www.w3.org/2000/svg"><path d="m312 160h-120l136 288h120z" fill="#ce3536"/><path d="m488 416v32h-56l-136-288h-64l9.15-32h78.85l136 288z" fill="#e74444"/><path d="m360 416v32h-56l-136-288h-64l9.14-32h78.86l1.68 3.56 134.32 284.44z" fill="#e74444"/><path d="m488 408h-26.931l-132.55-280.695 5.842-20.448a40 40 0 0 0 -29.784-50.035l-9.412-2.092a40.047 40.047 0 0 0 -47.139 28.058l-19.775 69.212h-16.071l-11.661-24.695 5.842-20.448a40 40 0 0 0 -29.784-50.035l-9.676-2.15a40.116 40.116 0 0 0 -47.038 27.715l-103.563 363.43a8 8 0 1 0 15.4 4.366l11.957-42.183h111.451l-10.8 37.8a8 8 0 1 0 15.384 4.4l51.455-180.092 85.619 181.31a8 8 0 0 0 7.234 4.582h184a8 8 0 0 0 8-8v-32a8 8 0 0 0 -8-8zm-224.589-320.816a24.018 24.018 0 0 1 28.282-16.834l9.413 2.091a24 24 0 0 1 17.87 30.021l-5.011 17.538h-59.93zm-128.2-.264a24.071 24.071 0 0 1 28.219-16.629l9.676 2.15a24 24 0 0 1 17.87 30.022l-5.01 17.537h-60.531zm-59.799 209.08 9.073-32h111.766l-9.143 32zm107.125 16-9.143 32h-111.594l9.073-32zm-93.516-64 9.073-32h87.5l15.111 32zm13.61-48 9.073-32h51.227l15.111 32zm-54.438 192 9.073-32h111.557l-9.143 32zm303.807 48h-42.931l-133.835-283.416a8 8 0 0 0 -7.234-4.584h-51.76l4.537-16h66.154l133.835 283.416a8 8 0 0 0 7.234 4.584h24zm16 0v-24a8 8 0 0 0 -8-8h-26.931l-113.333-240h71.195l128.444 272zm112 0h-42.931l-133.835-283.416a8 8 0 0 0 -7.234-4.584h-51.108l4.571-16h65.468l133.835 283.416a8 8 0 0 0 7.234 4.584h24z"/></svg>