<svg height="512" viewBox="0 0 64 64" width="512" xmlns="http://www.w3.org/2000/svg"><g id="_28-Bird" data-name="28-Bird"><path d="m18 30 .02.06a32.529 32.529 0 0 1 -9.02.94l9-9z" fill="#806e9c"/><path d="m21 28s0 1.18-2.98 2.06l-.02-.06v-8l3-3z" fill="#988fc4"/><path d="m31 22-3 1s-1 0-1-2 1-2 1-2z" fill="#636978"/><path d="m31 22-3-3s-1 0-1 2 1 2 1 2zm2-3v4a12 12 0 0 1 -12 12h-11l-4 4h-5l8-8a32.529 32.529 0 0 0 9.02-.94c2.98-.88 2.98-2.06 2.98-2.06v-9a6.009 6.009 0 0 1 6-6 6 6 0 0 1 6 6z" fill="#d1d1e8"/><path d="m21 33h-11l-4 4h-3l-2 2h5l4-4h11a12 12 0 0 0 12-12v-2a12 12 0 0 1 -12 12z" fill="#bfbfde"/><rect fill="#35343a" height="0" transform="matrix(.09 -.996 .996 .09 2.782 90.046)" width="1.004" x="50.181" y="43.5"/><circle cx="47" cy="11" fill="#f5cd62" r="4"/><path d="m44.33 20.98c-.81-.21-.85-2.25-1.56-2.66s-2.5.56-3.08-.01.4-2.37-.01-3.08-2.45-.75-2.66-1.56c-.21-.77 1.53-1.83 1.53-2.67s-1.74-1.9-1.53-2.67c.21-.81 2.25-.85 2.66-1.56s-.56-2.5.01-3.08 2.37.4 3.08-.01.75-2.45 1.56-2.66c.77-.21 1.83 1.53 2.67 1.53s1.9-1.74 2.67-1.53c.81.21.85 2.25 1.56 2.66s2.5-.56 3.08.01-.4 2.37.01 3.08 2.45.75 2.66 1.56c.21.77-1.53 1.83-1.53 2.67s1.74 1.9 1.53 2.67c-.21.81-2.25.85-2.66 1.56s.56 2.5-.01 3.08-2.37-.4-3.08.01-.75 2.45-1.56 2.66c-.77.21-1.83-1.53-2.67-1.53s-1.9 1.74-2.67 1.53zm2.67-5.98a4 4 0 1 0 -4-4 4 4 0 0 0 4 4z" fill="#ffa8ad"/><path d="m51.99 25.32c-2.28 1.46-2.46 4.47-1.24 5.8l.25-.12 7-7s-3.95 0-6.01 1.32z" fill="#98ba5c"/><path d="m36 24 7 7 .25.12c1.22-1.33 1.04-4.34-1.24-5.8-2.06-1.32-6.01-1.32-6.01-1.32z" fill="#98ba5c"/><path d="m43 31-7-7s0 3.95 1.32 6.01c1.49 2.32 4.57 2.47 5.87 1.18a.435.435 0 0 0 .06-.07z" fill="#bed264"/><path d="m58 24-7 7-.25.12a.435.435 0 0 0 .06.07c1.3 1.29 4.38 1.14 5.87-1.18 1.32-2.06 1.32-6.01 1.32-6.01z" fill="#bed264"/><path d="m11 35v6h2 46 2v-6h-14-17-8-8z" fill="#c48958"/><path d="m55 39a2 2 0 0 0 2-2v-2h4v6h-50v-2z" fill="#b27a49"/><path d="m13 41 .36 4h45.28l.36-4z" fill="#f2bb88"/><path d="m59 41-.36 4h-4l.36-4z" fill="#e3a76f"/><path d="m13.36 45 1.64 18h42l1.64-18z" fill="#fff2de"/><path d="m53 59 1.276-14h4.364l-1.64 18h-42l-.364-4z" fill="#ffe4c2"/><path d="m6 40h-5a1 1 0 0 1 -.707-1.707l19.72-19.72a7 7 0 0 1 13.987.427v4a13.015 13.015 0 0 1 -13 13h-10.586l-3.707 3.707a1 1 0 0 1 -.707.293zm-2.586-2h2.172l3.707-3.707a1 1 0 0 1 .707-.293h11a11.013 11.013 0 0 0 11-11v-4a5 5 0 0 0 -10 0 1 1 0 0 1 -.293.707z"/><path d="m9 32v-2c9.324 0 10.837-1.863 11-2.121v-8.879h2v9c0 .938-.938 4-13 4z"/><path d="m17 22h2v8h-2z"/><path d="m28 24c-.082 0-2-.034-2-3s1.918-3 2-3a1 1 0 0 1 .707.293l3 3a1 1 0 0 1 -.391 1.655l-3 1a1 1 0 0 1 -.316.052zm.037-3.549a3.616 3.616 0 0 0 -.037.549 2.436 2.436 0 0 0 .128.9l1.02-.341z"/><path d="m29 16h2v2h-2z"/><path d="m25 16h2v2h-2z"/><path d="m61 42h-50a1 1 0 0 1 -1-1v-6a1 1 0 0 1 1-1h50a1 1 0 0 1 1 1v6a1 1 0 0 1 -1 1zm-49-2h48v-4h-48z"/><path d="m57 64h-42a1 1 0 0 1 -1-.909l-2-22 2-.182 1.913 21.091h40.174l1.913-21.091 2 .182-2 22a1 1 0 0 1 -1 .909z"/><path d="m13 44h46v2h-46z"/><path d="m52 58h2v2h-2z"/><path d="m18 58h32v2h-32z"/><path d="m46 19h2v16h-2z"/><path d="m40.947 33a5.307 5.307 0 0 1 -4.466-2.447c-1.464-2.285-1.481-6.38-1.481-6.553a1 1 0 0 1 1-1c.173 0 4.268.017 6.553 1.481a5.293 5.293 0 0 1 2.417 3.907 4.311 4.311 0 0 1 -1.076 3.506 4.153 4.153 0 0 1 -2.947 1.106zm-2.782-3.525a3.3 3.3 0 0 0 2.435 1.506 2.339 2.339 0 0 0 1.876-.5 2.35 2.35 0 0 0 .5-1.876 3.3 3.3 0 0 0 -1.506-2.438 10.778 10.778 0 0 0 -4.429-1.119 10.809 10.809 0 0 0 1.119 4.429z"/><path d="m46.553 33.9-4-2a1 1 0 0 1 -.26-.188l-7-7 1.414-1.414 6.886 6.885 3.854 1.917z"/><path d="m53.053 33a4.153 4.153 0 0 1 -2.947-1.106 4.311 4.311 0 0 1 -1.076-3.506 5.293 5.293 0 0 1 2.417-3.907c2.285-1.464 6.38-1.481 6.553-1.481a1 1 0 0 1 1 1c0 .173-.017 4.268-1.481 6.553a5.307 5.307 0 0 1 -4.466 2.447zm3.9-7.954a10.809 10.809 0 0 0 -4.429 1.119 3.3 3.3 0 0 0 -1.505 2.435 2.35 2.35 0 0 0 .5 1.876 2.339 2.339 0 0 0 1.876.5 3.3 3.3 0 0 0 2.438-1.506 10.778 10.778 0 0 0 1.121-4.424z"/><path d="m47.447 33.9-.894-1.79 3.854-1.927 6.886-6.885 1.414 1.414-7 7a1 1 0 0 1 -.26.188z"/><path d="m49.535 22a3.129 3.129 0 0 1 -1.9-1.011 5.848 5.848 0 0 0 -.637-.51 5.848 5.848 0 0 0 -.637.51c-.612.536-1.373 1.205-2.3.957-.943-.251-1.274-1.229-1.54-2.015a6.156 6.156 0 0 0 -.274-.716 6.218 6.218 0 0 0 -.773.12 2.632 2.632 0 0 1 -2.494-.325 2.636 2.636 0 0 1 -.323-2.492 6.2 6.2 0 0 0 .121-.773 6.228 6.228 0 0 0 -.716-.273c-.786-.266-1.763-.6-2.015-1.541-.247-.922.421-1.684.957-2.3a5.848 5.848 0 0 0 .51-.637 5.848 5.848 0 0 0 -.51-.637c-.536-.612-1.2-1.374-.957-2.3.251-.943 1.229-1.274 2.015-1.54a6.156 6.156 0 0 0 .716-.274 6.218 6.218 0 0 0 -.12-.773 2.633 2.633 0 0 1 .325-2.494 2.636 2.636 0 0 1 2.492-.323 6.2 6.2 0 0 0 .773.121 6.228 6.228 0 0 0 .273-.716c.266-.786.6-1.763 1.541-2.015.92-.25 1.683.421 2.3.957a5.848 5.848 0 0 0 .637.51 5.848 5.848 0 0 0 .637-.51c.612-.535 1.377-1.2 2.3-.957.943.251 1.274 1.229 1.54 2.015a6.156 6.156 0 0 0 .274.716 6.218 6.218 0 0 0 .773-.12 2.632 2.632 0 0 1 2.494.325 2.636 2.636 0 0 1 .323 2.492 6.2 6.2 0 0 0 -.121.773 6.228 6.228 0 0 0 .716.273c.786.266 1.763.6 2.015 1.541.247.922-.421 1.684-.957 2.3a5.848 5.848 0 0 0 -.51.637 5.848 5.848 0 0 0 .51.637c.536.612 1.2 1.374.957 2.3-.251.943-1.229 1.274-2.015 1.54a6.156 6.156 0 0 0 -.716.274 6.218 6.218 0 0 0 .12.773 2.633 2.633 0 0 1 -.325 2.494 2.631 2.631 0 0 1 -2.492.323 6.2 6.2 0 0 0 -.773-.121 6.228 6.228 0 0 0 -.273.716c-.266.786-.6 1.763-1.541 2.015a1.511 1.511 0 0 1 -.4.054zm-7.254-4.783a1.94 1.94 0 0 1 .993.239 3.1 3.1 0 0 1 1.147 1.834c.053.157.127.377.2.554.144-.113.307-.256.425-.359a3.157 3.157 0 0 1 1.954-1.031 3.157 3.157 0 0 1 1.955 1.033c.118.1.281.246.424.358.072-.176.146-.4.2-.553a3.09 3.09 0 0 1 1.147-1.834 3.128 3.128 0 0 1 2.182-.082c.16.031.383.076.569.1-.026-.185-.07-.409-.1-.568a3.114 3.114 0 0 1 .082-2.183 3.1 3.1 0 0 1 1.834-1.147c.157-.053.377-.127.554-.2-.113-.144-.256-.307-.359-.425a3.157 3.157 0 0 1 -1.034-1.953 3.157 3.157 0 0 1 1.033-1.955c.1-.118.246-.281.358-.424-.176-.072-.4-.146-.553-.2a3.09 3.09 0 0 1 -1.834-1.147 3.112 3.112 0 0 1 -.082-2.182c.031-.16.076-.383.1-.569-.185.026-.409.07-.568.1a3.114 3.114 0 0 1 -2.183-.082 3.1 3.1 0 0 1 -1.147-1.834c-.053-.157-.127-.377-.2-.554-.144.113-.307.256-.425.359a3.157 3.157 0 0 1 -1.953 1.034 3.157 3.157 0 0 1 -1.955-1.033c-.118-.1-.281-.246-.424-.358-.072.176-.146.4-.2.553a3.09 3.09 0 0 1 -1.147 1.834 3.123 3.123 0 0 1 -2.182.082c-.16-.031-.383-.076-.569-.1.026.185.07.409.1.568a3.114 3.114 0 0 1 -.082 2.183 3.1 3.1 0 0 1 -1.834 1.147c-.157.053-.377.127-.554.2.113.144.256.307.359.425a3.157 3.157 0 0 1 1.034 1.953 3.157 3.157 0 0 1 -1.033 1.955c-.1.118-.246.281-.358.424.176.072.4.146.553.2a3.09 3.09 0 0 1 1.834 1.147 3.112 3.112 0 0 1 .082 2.182c-.031.16-.076.383-.1.569.185-.026.409-.07.568-.1a6.206 6.206 0 0 1 1.189-.158z"/><path d="m47 16a5 5 0 1 1 5-5 5.006 5.006 0 0 1 -5 5zm0-8a3 3 0 1 0 3 3 3 3 0 0 0 -3-3z"/></g></svg>