<?xml version="1.0" encoding="iso-8859-1"?>
<!-- Generator: Adobe Illustrator 19.0.0, SVG Export Plug-In . SVG Version: 6.00 Build 0)  -->
<svg xmlns="http://www.w3.org/2000/svg" xmlns:xlink="http://www.w3.org/1999/xlink" version="1.1" id="Layer_1" x="0px" y="0px" viewBox="0 0 512 512" style="enable-background:new 0 0 512 512;" xml:space="preserve">
<circle style="fill:#FFFFFF;" cx="295.732" cy="216.295" r="205.826"/>
<g>
	<path style="fill:#FF7DBE;" d="M118.045,114.273c35.76,60.839,101.896,101.676,177.569,101.676l-0.064,0.27   c-53.115,53.115-128.035,71.131-195.943,54.051c0,0-12.818-35.469-8.15-79.376C96.122,146.987,118.045,114.273,118.045,114.273z"/>
	<path style="fill:#FF7DBE;" d="M241.886,18.763c-17.732,68.306,0.156,143.948,53.664,197.456l-0.435-0.768   c0-74.69,39.783-140.087,99.315-176.159c0,0-25.935-22.887-79.583-27.946S241.886,18.763,241.886,18.763z"/>
	<path style="fill:#FF7DBE;" d="M472.468,315.907c-35.923-60.171-101.682-100.47-176.855-100.47l-0.064,0.077   c52.814-52.814,127.187-70.926,194.789-54.338c0,0,15.946,45.252,9.028,85.185C492.45,286.294,472.468,315.907,472.468,315.907z"/>
	<path style="fill:#FF7DBE;" d="M195.281,392.722c60.096-35.941,100.333-101.658,100.333-176.773l0.299-0.093   c53.154,53.154,71.158,128.149,54.012,196.098c0,0-35.731,16.169-84.517,7.943C216.622,411.67,195.281,392.722,195.281,392.722z"/>
</g>
<path style="fill:#FFDF9F;" d="M164.423,374.156L42.44,496.139c-7.244,7.244-19.154,7.186-26.469-0.127l0,0  c-7.314-7.314-7.371-19.225-0.127-26.469l121.983-121.983L164.423,374.156z"/>
<path d="M295.726,0.018c-119.254,0-216.274,97.02-216.274,216.274c0,49.092,16.452,94.407,44.118,130.747L8.457,462.153  c-5.491,5.49-8.494,12.823-8.457,20.647c0.038,7.786,3.086,15.102,8.583,20.598c5.497,5.498,12.812,8.545,20.598,8.583  c0.049,0,0.097,0,0.145,0c7.769,0,15.045-3,20.501-8.456l115.11-115.11c36.347,27.685,81.677,44.15,130.788,44.15  C414.98,432.566,512,335.546,512,216.292S414.98,0.018,295.726,0.018z M478.813,148.09c-31.217-5.494-63.476-4.109-94.13,4.141  c-27.973,7.529-54.161,20.723-76.954,38.589c3.801-29.384,14.215-57.468,30.674-82.35c3.184-4.812,1.863-11.295-2.949-14.478  c-4.812-3.184-11.296-1.863-14.478,2.949c-18.652,28.196-30.287,60.101-34.243,93.455c-35.711-46.174-49.263-106.805-35.877-164.275  c14.414-3.401,29.435-5.208,44.872-5.208C379.48,20.915,451.083,73.89,478.813,148.09z M228.142,32.97  c-5.409,30.731-4.175,62.457,3.754,92.718c7.54,28.782,21.05,55.685,39.483,79.01c-29.891-3.858-58.421-14.546-83.596-31.463  c-4.788-3.219-11.281-1.944-14.499,2.844c-3.219,4.789-1.945,11.281,2.844,14.499c28.013,18.825,59.773,30.684,93.038,34.902  c-46.058,35.323-106.491,48.741-163.668,35.439c-3.363-14.339-5.148-29.277-5.148-44.628  C100.348,132.306,153.618,60.532,228.142,32.97z M35.052,488.75c-1.517,1.517-3.538,2.311-5.769,2.335  c-2.242-0.01-4.345-0.885-5.922-2.463c-1.578-1.578-2.452-3.681-2.464-5.923c-0.01-2.203,0.819-4.252,2.336-5.769l113.833-113.833  c3.787,4.09,7.729,8.033,11.819,11.822L35.052,488.75z M112.312,283.634c12.455,2.191,25.072,3.309,37.693,3.309  c18.787,0,37.577-2.428,55.807-7.278c28.487-7.579,55.126-21.021,78.241-39.293c-3.895,29.765-14.567,58.174-31.42,83.253  c-3.219,4.789-1.945,11.281,2.844,14.499c1.789,1.202,3.814,1.777,5.817,1.777c3.363,0,6.665-1.62,8.681-4.621  c18.886-28.104,30.76-59.978,34.942-93.357c35.634,46.258,49.119,107.084,35.557,164.57c-14.376,3.382-29.357,5.178-44.75,5.178  C211.649,411.67,139.808,358.285,112.312,283.634z M363.235,399.643c5.56-31.143,4.282-63.333-3.856-93.967  c-7.465-28.099-20.629-54.405-38.509-77.306c29.281,3.831,57.265,14.229,82.066,30.636c1.774,1.174,3.775,1.735,5.755,1.735  c3.389,0,6.714-1.647,8.724-4.685c3.184-4.812,1.863-11.295-2.949-14.478c-28.327-18.739-60.395-30.394-93.916-34.299  c46.473-36.631,106.544-50.168,165.207-36.432c3.489,14.589,5.348,29.804,5.348,45.447  C491.104,300.306,437.8,372.101,363.235,399.643z"/>
<path d="M343.134,84.397c2.006,1.806,4.511,2.699,7.006,2.699c2.838,0,5.662-1.157,7.717-3.439c0.031-0.033,0.09-0.098,0.12-0.132  c3.859-4.289,3.545-10.931-0.744-14.79c-4.289-3.861-10.863-3.548-14.723,0.741c-0.031,0.033-0.09,0.098-0.12,0.132  C338.531,73.894,338.845,80.536,343.134,84.397z"/>
<path d="M233.023,348.272l7.571,7.201l-7.579-7.191c-3.971,4.186-3.798,10.799,0.389,14.771c2.022,1.917,4.608,2.868,7.189,2.868  c2.766,0,5.527-1.092,7.581-3.257c0.03-0.032,0.117-0.124,0.146-0.157c3.918-4.236,3.682-10.869-0.554-14.787  C243.53,343.801,236.941,344.037,233.023,348.272z"/>
<path d="M148.743,168.774c0.032,0.03,0.124,0.117,0.157,0.146c2.007,1.857,4.546,2.774,7.079,2.774c2.809,0,5.612-1.129,7.672-3.355  c3.915-4.227,3.657-10.833-0.558-14.756c-4.187-3.939-10.776-3.756-14.738,0.419C144.383,158.19,144.557,164.803,148.743,168.774z"/>
<path d="M441.984,263.098c-4.236-3.918-10.825-3.683-14.743,0.553l7.571,7.201l-7.579-7.191c-3.971,4.186-3.798,10.799,0.389,14.771  c2.022,1.917,4.608,2.868,7.189,2.868c2.766,0,5.527-1.092,7.581-3.257c0.03-0.032,0.117-0.124,0.146-0.157  C446.456,273.649,446.22,267.017,441.984,263.098z"/>
<g>
</g>
<g>
</g>
<g>
</g>
<g>
</g>
<g>
</g>
<g>
</g>
<g>
</g>
<g>
</g>
<g>
</g>
<g>
</g>
<g>
</g>
<g>
</g>
<g>
</g>
<g>
</g>
<g>
</g>
</svg>
