<svg height="512" viewBox="0 0 60 58" width="512" xmlns="http://www.w3.org/2000/svg"><g id="030---Caterpillar" fill="none"><g id="Icons" transform="translate(0 1)"><path id="Shape" d="m9 56c-1.1045695 0-2-.8954305-2-2v-6h4v6c0 1.1045695-.8954305 2-2 2z" fill="#008a00"/><path id="Shape" d="m19 48.07v5.93c0 1.1045695-.8954305 2-2 2s-2-.8954305-2-2v-5z" fill="#008a00"/><path id="Shape" d="m52 56c1.1045695 0 2-.8954305 2-2v-6h-4v6c0 1.1045695.8954305 2 2 2z" fill="#007900"/><path id="Shape" d="m46 49v5c0 1.1045695-.8954305 2-2 2s-2-.8954305-2-2v-5.58z" fill="#008a00"/><path id="Shape" d="m59 43c0 3.3137085-2.6862915 6-6 6h-7c-7.7319865 0-14-6.2680135-14-14v-21c-.0053205-.829438-.5220598-1.5695143-1.2988851-1.8602689s-1.6525013-.0718395-2.2011149.5502689c-.3192922.3620202-.496881.827303-.5 1.31v21c0 7.7319865-6.2680135 14-14 14h-7c-2.71830767.0030266-5.09904414-1.8218341-5.80236886-4.4475798-.70332472-2.6257456.44649907-5.3962922 2.80236886-6.7524202 9.08-.74 9.81-.8 10-.8 1.1045695 0 2-.8954305 2-2v-21c0-7.7319865 6.2680135-14 14-14s14 6.2680135 14 14v21c0 1.1045695.8954305 2 2 2h7c3.3137085 0 6 2.6862915 6 6z" fill="#549414"/><path id="Shape" d="m56 43c0 3.3137085-2.6862915 6-6 6h-4c-7.7319865 0-14-6.2680135-14-14v-21c-.0053205-.829438-.5220598-1.5695143-1.2988851-1.8602689s-1.6525013-.0718395-2.2011149.5502689c-.5486136-.6221084-1.4242896-.8410235-2.2011149-.5502689s-1.2935646 1.0308309-1.2988851 1.8602689v21c0 7.7319865-6.2680135 14-14 14h-4c-2.71830767.0030266-5.09904414-1.8218341-5.80236886-4.4475798-.70332472-2.6257456.44649907-5.3962922 2.80236886-6.7524202 6.92-.56 9.75-.8 10-.8 1.1045695 0 2-.8954305 2-2v-21c.0042508-7.14435974 5.3873162-13.1394309 12.49-13.91 7.1106099.76109278 12.5046441 6.75877583 12.51 13.91v21c0 1.1045695.8954305 2 2 2h7c3.3137085 0 6 2.6862915 6 6z" fill="#60a917"/><circle id="Oval" cx="9" cy="38" fill="#f5f5f5" r="5"/></g><g id="Layer_10" fill="#000"><path id="Shape" d="m53 37h-7c-.5522847 0-1-.4477153-1-1v-21c-.0423743-3.9935226-1.6385235-7.81352008-4.45-10.65l-.11-.1c-4.3230823-4.19038738-10.7327331-5.38991617-16.2785894-3.04644312-5.5458562 2.34347306-9.153137 7.77578545-9.1614106 13.79644312v21c-.0046777.3183185-.1606401.6153897-.42.8-1.0066674-2.5445637-3.60747-4.0856351-6.32282946-3.7465095-2.71535951.3391256-4.85725227 2.4725197-5.20717054 5.1865095-2.36199818 1.6341372-3.48607997 4.5453051-2.83524821 7.3427786.65083176 2.7974734 2.94449061 4.9135045 5.78524821 5.3372214v4.08c0 1.6568542 1.34314575 3 3 3 1.6568542 0 3-1.3431458 3-3v-4h2v4c0 1.6568542 1.3431458 3 3 3s3-1.3431458 3-3v-5.26c5.4638313-2.3846106 8.9969286-7.7784724 9-13.74v-21c0-.5522847.4477153-1 1-1s1 .4477153 1 1v21c.0093712 6.3486193 4.0144554 12.0037982 10 14.12v4.88c0 1.6568542 1.3431458 3 3 3s3-1.3431458 3-3v-4h2v4c0 1.6568542 1.3431458 3 3 3s3-1.3431458 3-3v-4.29c3.3338932-.990706 5.4347787-4.2789069 4.9327287-7.7204601-.5020501-3.4415531-3.4547504-5.9925423-6.9327287-5.9895399zm-44-2c2.209139 0 4 1.790861 4 4s-1.790861 4-4 4-4-1.790861-4-4 1.790861-4 4-4zm1 20c0 .5522847-.44771525 1-1 1s-1-.4477153-1-1v-4h2zm8 0c0 .5522847-.4477153 1-1 1s-1-.4477153-1-1v-4.15c.6753254-.0903727 1.3435881-.2273666 2-.41zm26 1c-.5522847 0-1-.4477153-1-1v-4.3c.659819.1412755 1.3277694.2414681 2 .3v4c0 .5522847-.4477153 1-1 1zm9-1c0 .5522847-.4477153 1-1 1s-1-.4477153-1-1v-4h2zm0-6h-7c-7.1797017 0-13-5.8202983-13-13v-21c0-1.6568542-1.3431458-3-3-3s-3 1.3431458-3 3v21c0 3.4478144-1.3696389 6.7544152-3.8076118 9.1923882-2.437973 2.4379729-5.7445738 3.8076118-9.1923882 3.8076118h-7c-1.95854516-.005903-3.73330844-1.1547732-4.54051895-2.9392466-.80721051-1.7844733-.49821851-3.8759349.79051895-5.3507534.8567819 2.8921857 3.72759175 4.698659 6.70573487 4.2196215 2.97814313-.4790375 5.13765673-3.0946437 5.04426513-6.1096215 1.1957287-.4227483 1.9964356-1.5517451 2-2.82v-2.51c2.4710825.8690415 5.1954452.6435268 7.49-.62.4804877-.2761424.6461424-.8895123.37-1.37s-.8895123-.6461424-1.37-.37c-2.019376 1.0703621-4.4172922 1.1587646-6.51.24v-5.88c2.4710825.8690415 5.1954452.6435268 7.49-.62.3108211-.1786328.5027321-.5095174.5034421-.8680127.00071-.3584954-.1898889-.6901375-.5-.87-.3101111-.1798626-.692621-.1806201-1.0034421-.0019873-2.019376 1.0703621-4.4172922 1.1587646-6.51.24v-5.88c2.4710825.8690415 5.1954452.6435268 7.49-.62.3108211-.1786328.5027321-.5095174.5034421-.8680127.00071-.3584954-.1898889-.6901375-.5-.87-.3101111-.1798626-.692621-.1806201-1.0034421-.0019873-2.019376 1.0703621-4.4172922 1.1587646-6.51.24-.0741327-2.9379561.8494133-5.81434351 2.62-8.16.9884235 2.16669116 2.7818293 3.863253 5 4.73.5191477.1932997 1.0967003-.0708523 1.29-.59s-.0708523-1.0967003-.59-1.29c-2.0138083-.79885846-3.5726028-2.44547233-4.26-4.5 2.0402831-1.93549774 4.6555744-3.15362668 7.45-3.47-.8801844 2.43173446-.6950394 5.12178297.51 7.41.1732384.32534717.5114063.5290165.88.53.3536572.0009667.6815233-.18493868.8622694-.48892087.1807462-.3039822.187488-.68082637.0177306-.99107913-1.0206076-2.06243404-1.0279937-4.48137176-.02-6.55 2.6883803.13449647 5.2665077 1.11047684 7.37 2.79-2.0331373 1.43292646-3.4592746 3.57213229-4 6-.0678805.3572656.0599943.7236064.3354552.9610254.2754608.237419.6566587.3098466 1 .19s.5966643-.4137598.6645448-.7710254c.4988088-2.05826852 1.7934202-3.83476301 3.6-4.94 2.2854574 2.53608646 3.4815772 5.8694173 3.33 9.28-2.4717408-.8638986-5.1939502-.6385621-7.49.62-.3108211.1786328-.5027321.5095174-.5034421.8680127-.00071.3584954.1898889.6901375.5.87.3101111.1798626.692621.1806201 1.0034421.0019873 2.013957-1.0639578 4.402961-1.1523031 6.49-.24v5.88c-2.4717408-.8638986-5.1939502-.6385621-7.49.62-.3108211.1786328-.5027321.5095174-.5034421.8680127-.00071.3584954.1898889.6901375.5.87.3101111.1798626.692621.1806201 1.0034421.0019873 2.013957-1.0639578 4.402961-1.1523031 6.49-.24v5.88c-2.4717408-.8638986-5.1939502-.6385621-7.49.62-.3108211.1786328-.5027322.5095174-.5034422.8680127-.00071.3584954.189889.6901375.5.8700001.3101111.1798625.6926211.18062 1.0034422.0019872 2.013957-1.0639578 4.402961-1.1523031 6.49-.24v2.37c0 1.6568542 1.3431458 3 3 3h7c2.7614237 0 5 2.2385763 5 5s-2.2385763 5-5 5z"/><circle id="Oval" cx="8" cy="39" r="1"/></g></g></svg>