<?xml version="1.0" encoding="iso-8859-1"?>
<!-- Generator: Adobe Illustrator 21.0.0, SVG Export Plug-In . SVG Version: 6.00 Build 0)  -->
<svg version="1.1" id="Capa_1" xmlns="http://www.w3.org/2000/svg" xmlns:xlink="http://www.w3.org/1999/xlink" x="0px" y="0px"
	 viewBox="0 0 593.282 593.282" style="enable-background:new 0 0 593.282 593.282;" xml:space="preserve">
<g>
	<g>
		<g id="filled_outline_31_">
			<path style="fill:#69CCD7;" d="M463.749,178.883c-5.626-6.754-13.952-10.659-22.742-10.669h-98.821
				c-9.928-0.01-19.212,4.944-24.72,13.21l-30.712,46.118H504.29L463.749,178.883z"/>
			<path style="fill:#61BDC7;" d="M463.749,178.883c-3.54-4.163-8.177-7.258-13.379-8.949l-102.875,57.608H504.29L463.749,178.883z"
				/>
			<path style="fill:#DD381A;" d="M533.954,227.542H286.753l-61.78,7.723c-9.898,1.236-17.324,9.651-17.324,19.628v51.754H553.73
				v-59.328C553.73,236.391,544.88,227.542,533.954,227.542z"/>
			<rect x="207.649" y="276.982" style="fill:#D03418;" width="346.081" height="29.664"/>
			<polygon style="fill:#A4B0BF;" points="568.799,336.31 9.888,336.31 9.888,375.862 583.394,375.862 583.394,356.086 			"/>
			<rect x="168.097" y="336.31" style="fill:#C3C9D1;" width="108.768" height="59.328"/>
			<polygon style="fill:#69CCD7;" points="104.813,197.878 59.328,197.878 9.888,276.982 9.888,277.585 88.992,276.982 			"/>
			<polygon style="fill:#4394CC;" points="104.813,197.878 88.992,276.982 9.888,277.585 9.888,336.31 168.097,336.31 
				168.097,197.878 			"/>
			<path style="fill:#697B8C;" d="M128.05,375.862c-2.581-24.305-24.374-41.915-48.669-39.335
				c-20.745,2.205-37.13,18.59-39.335,39.335c-0.257,1.641-0.425,3.293-0.494,4.944c0,24.572,19.924,44.496,44.496,44.496
				s44.496-19.924,44.496-44.496C128.475,379.145,128.307,377.494,128.05,375.862z"/>
			<path style="fill:#C3C9D1;" d="M84.048,395.638c-8.187,0-14.832-6.645-14.832-14.832s6.645-14.832,14.832-14.832
				s14.832,6.645,14.832,14.832S92.236,395.638,84.048,395.638z"/>
			<path style="fill:#697B8C;" d="M493.907,375.862c-2.581-24.305-24.374-41.915-48.669-39.335
				c-20.745,2.205-37.13,18.59-39.335,39.335c-0.257,1.641-0.425,3.293-0.494,4.944c0,24.572,19.924,44.496,44.496,44.496
				c24.572,0,44.496-19.924,44.496-44.496C494.332,379.145,494.164,377.494,493.907,375.862z"/>
			<path style="fill:#C3C9D1;" d="M449.905,395.638c-8.187,0-14.832-6.645-14.832-14.832s6.645-14.832,14.832-14.832
				c8.187,0,14.832,6.645,14.832,14.832S458.093,395.638,449.905,395.638z"/>
			<polygon style="fill:#61BDC7;" points="20.953,259.272 9.888,276.982 9.888,277.585 88.992,276.982 99.355,225.188 			"/>
			<path style="fill:#576573;" d="M314.598,296.758c-5.626-15.218-22.515-23-37.743-17.373c-15.228,5.626-23,22.515-17.373,37.743
				c5.626,15.218,22.515,23,37.743,17.373c11.638-4.301,19.321-15.445,19.193-27.855
				C316.377,303.264,315.764,299.922,314.598,296.758z"/>
			<path style="fill:#576573;" d="M502.47,296.758c-5.626-15.218-22.515-23-37.743-17.373c-15.218,5.626-23,22.515-17.373,37.743
				c5.626,15.218,22.515,23,37.743,17.373c11.638-4.301,19.321-15.445,19.193-27.855C504.25,303.264,503.637,299.922,502.47,296.758
				z"/>
			<circle cx="84.048" cy="380.806" r="14.832"/>
			<path d="M576.759,330.437c-1.859-2.512-4.786-4.005-7.91-4.015h-60.119c3.54-5.992,5.419-12.815,5.448-19.776h39.552
				c5.458,0,9.888-4.43,9.888-9.888v-49.44c0-16.384-13.28-29.664-29.664-29.664h-25.037l-37.575-45.109
				c-7.495-9.008-18.609-14.219-30.336-14.219h-98.88c-13.23-0.01-25.58,6.595-32.907,17.611l-28.23,42.35l-57.291,7.169
				c-14.822,1.879-25.936,14.486-25.936,29.437v41.866c0,5.458,4.43,9.888,9.888,9.888h39.552c0.04,6.961,1.938,13.794,5.498,19.776
				h-74.714V197.878c0-5.458-4.43-9.888-9.888-9.888H59.328c-3.411,0-6.576,1.76-8.385,4.647l-49.44,79.104
				C0.514,273.531,0,275.538,0,277.585v98.277c0,5.458,4.43,9.888,9.888,9.888h20.023c2.858,29.901,29.417,51.813,59.318,48.956
				c25.936-2.482,46.474-23.019,48.956-48.956h20.023v9.888c0,5.458,4.43,9.888,9.888,9.888h108.768c5.458,0,9.888-4.43,9.888-9.888
				v-9.888h109.016c2.858,29.901,29.417,51.813,59.318,48.956c25.936-2.482,46.474-23.019,48.956-48.956h79.351
				c5.458,0,9.888-4.43,9.888-9.888v-19.776c-0.01-2.116-0.702-4.183-1.978-5.874L576.759,330.437z M64.806,207.766H92.75
				l-11.866,59.388l-53.395,0.405L64.806,207.766z M41.886,346.772c-1.987,2.482-3.757,5.122-5.29,7.91
				c-0.148,0.277-0.356,0.514-0.504,0.791c-1.632,3.164-2.957,6.467-3.955,9.888c-0.059,0.198-0.168,0.356-0.218,0.554H19.776
				v-19.717h22.485C42.113,346.376,42.024,346.594,41.886,346.772z M84.048,415.414c-19.114,0-34.608-15.495-34.608-34.608
				c0.03-0.732,0.099-1.454,0.218-2.175l0.218-1.671c1.978-18.876,18.886-32.571,37.762-30.584
				c16.137,1.691,28.893,14.446,30.584,30.584l0.218,1.671c0.119,0.722,0.188,1.444,0.218,2.175
				C118.656,399.92,103.162,415.414,84.048,415.414z M158.209,365.974h-22.05c0-0.198-0.158-0.356-0.218-0.554
				c-0.989-3.421-2.314-6.724-3.955-9.888c-0.148-0.267-0.346-0.494-0.494-0.761c-1.523-2.818-3.303-5.488-5.3-7.99
				c-0.138-0.178-0.227-0.396-0.376-0.573h32.393V365.974z M158.209,326.422H19.776v-39.028l68.445-0.524h0.85
				c4.667-0.04,8.682-3.332,9.611-7.91l14.239-71.194h45.287V326.422z M405.409,178.102h35.597c5.864,0,11.431,2.61,15.188,7.119
				l26.984,32.433h-77.769V178.102z M405.409,237.43h128.544c5.458,0,9.888,4.43,9.888,9.888v39.552h-35.093
				c-0.771-1.295-1.602-2.551-2.512-3.757c-0.119-0.148-0.208-0.326-0.326-0.475c-1.147-1.493-2.403-2.897-3.748-4.212
				c-0.396-0.386-0.831-0.722-1.246-1.098c-0.989-0.88-1.978-1.74-3.036-2.521c-0.554-0.405-1.137-0.771-1.711-1.147
				c-0.989-0.653-1.978-1.276-3.055-1.839c-0.633-0.336-1.276-0.663-1.978-0.989c-1.068-0.504-2.165-0.989-3.283-1.355
				c-0.663-0.237-1.325-0.485-1.978-0.692c-1.216-0.366-2.472-0.643-3.728-0.9c-0.603-0.119-1.196-0.277-1.81-0.366
				c-3.797-0.603-7.673-0.603-11.47,0c-0.613,0.089-1.196,0.247-1.8,0.366c-1.266,0.257-2.521,0.534-3.748,0.9
				c-0.672,0.208-1.325,0.455-1.978,0.692c-1.117,0.405-2.205,0.85-3.283,1.345c-0.653,0.307-1.295,0.633-1.978,0.989
				c-1.048,0.564-2.067,1.187-3.065,1.839c-0.564,0.386-1.147,0.742-1.691,1.147c-1.058,0.791-2.086,1.632-3.055,2.531
				c-0.405,0.366-0.84,0.702-1.236,1.088c-1.345,1.315-2.601,2.719-3.748,4.212c-0.129,0.168-0.227,0.356-0.356,0.524
				c-0.89,1.187-1.721,2.432-2.482,3.708h-35.043V237.43z M325.722,186.912c3.659-5.488,9.809-8.79,16.404-8.81h43.507v39.552
				h-80.409L325.722,186.912z M252.629,286.87h-35.093v-31.978c0-4.993,3.708-9.196,8.662-9.819l61.167-7.643h98.267v49.44h-64.757
				c-0.771-1.295-1.602-2.551-2.512-3.757c-0.119-0.148-0.208-0.326-0.326-0.475c-1.147-1.493-2.403-2.897-3.748-4.212
				c-0.396-0.386-0.831-0.722-1.246-1.098c-0.989-0.88-1.978-1.74-3.036-2.521c-0.554-0.405-1.137-0.771-1.711-1.147
				c-0.989-0.653-1.978-1.276-3.055-1.839c-0.633-0.336-1.276-0.663-1.978-0.989c-1.068-0.504-2.165-0.989-3.283-1.355
				c-0.662-0.237-1.325-0.485-1.978-0.692c-1.216-0.366-2.472-0.643-3.728-0.9c-0.603-0.119-1.196-0.277-1.81-0.366
				c-3.797-0.603-7.673-0.603-11.47,0c-0.613,0.089-1.196,0.247-1.8,0.366c-1.266,0.257-2.521,0.534-3.748,0.9
				c-0.672,0.208-1.325,0.455-1.978,0.692c-1.117,0.405-2.205,0.85-3.283,1.345c-0.653,0.307-1.295,0.633-1.978,0.989
				c-1.048,0.564-2.067,1.187-3.065,1.839c-0.564,0.386-1.147,0.742-1.691,1.147c-1.058,0.791-2.086,1.632-3.055,2.531
				c-0.405,0.366-0.84,0.702-1.236,1.088c-1.345,1.315-2.601,2.719-3.748,4.212c-0.129,0.168-0.227,0.356-0.356,0.524
				C254.182,284.348,253.371,285.584,252.629,286.87z M266.977,375.862v9.888h-88.992v-39.552h88.992V375.862z M266.977,306.646
				c0-10.926,8.85-19.776,19.776-19.776s19.776,8.85,19.776,19.776s-8.85,19.776-19.776,19.776
				C275.866,326.323,267.066,317.523,266.977,306.646z M407.743,346.772c-1.987,2.482-3.757,5.122-5.29,7.91
				c-0.148,0.277-0.356,0.514-0.504,0.791c-1.632,3.164-2.957,6.467-3.955,9.888c-0.059,0.198-0.168,0.356-0.218,0.554H286.753
				v-19.717h121.366C407.97,346.376,407.881,346.594,407.743,346.772z M320.807,326.422c3.56-5.982,5.458-12.815,5.498-19.776
				h108.768c0.04,6.961,1.938,13.794,5.498,19.776H320.807z M449.905,415.414c-19.114,0-34.608-15.495-34.608-34.608
				c0.03-0.732,0.099-1.454,0.218-2.175l0.218-1.671c1.978-18.876,18.886-32.571,37.762-30.584
				c16.137,1.691,28.893,14.446,30.584,30.584l0.218,1.671c0.119,0.722,0.188,1.444,0.218,2.175
				C484.514,399.92,469.019,415.414,449.905,415.414z M474.626,326.422c-10.768-0.158-19.371-9.008-19.222-19.776
				c0.158-10.768,9.008-19.371,19.776-19.222c10.551,0.148,19.064,8.672,19.222,19.222
				C494.402,317.562,485.552,326.422,474.626,326.422z M573.506,365.974h-71.49c-0.049-0.198-0.158-0.356-0.218-0.554
				c-0.989-3.421-2.314-6.724-3.955-9.888c-0.148-0.267-0.346-0.494-0.494-0.761c-1.523-2.818-3.303-5.488-5.3-7.99
				c-0.138-0.178-0.227-0.396-0.376-0.573h72.113l9.72,13.131V365.974z"/>
			<circle cx="449.905" cy="380.806" r="14.832"/>
		</g>
	</g>
</g>
<g>
</g>
<g>
</g>
<g>
</g>
<g>
</g>
<g>
</g>
<g>
</g>
<g>
</g>
<g>
</g>
<g>
</g>
<g>
</g>
<g>
</g>
<g>
</g>
<g>
</g>
<g>
</g>
<g>
</g>
</svg>
