<?xml version="1.0" encoding="iso-8859-1"?>
<!-- Generator: Adobe Illustrator 21.0.0, SVG Export Plug-In . SVG Version: 6.00 Build 0)  -->
<svg version="1.1" id="Capa_1" xmlns="http://www.w3.org/2000/svg" xmlns:xlink="http://www.w3.org/1999/xlink" x="0px" y="0px"
	 viewBox="0 0 593.282 593.282" style="enable-background:new 0 0 593.282 593.282;" xml:space="preserve">
<g>
	<g>
		<g id="filled_outline_33_">
			<path style="fill:#4394CC;" d="M0,217.537h421.774c27.756,0,54.641,9.73,75.97,27.499l66.25,55.225
				c12.291,10.234,19.39,25.402,19.4,41.391l0,0c0,29.753-24.117,53.87-53.87,53.87l0,0H0"/>
			<rect x="266.977" y="257.089" style="fill:#69CCD7;" width="39.552" height="59.328"/>
			<rect x="148.32" y="257.089" style="fill:#69CCD7;" width="39.552" height="59.328"/>
			<rect x="69.216" y="257.089" style="fill:#69CCD7;" width="39.552" height="59.328"/>
			<rect y="257.089" style="fill:#69CCD7;" width="29.664" height="59.328"/>
			<path style="fill:#697B8C;" d="M417.117,395.521c-1.177,3.164-1.79,6.516-1.819,9.888c0,16.384,13.28,29.664,29.664,29.664
				s29.664-13.28,29.664-29.664c-0.03-3.372-0.643-6.724-1.819-9.888H417.117z"/>
			<path style="fill:#697B8C;" d="M120.476,395.521c-1.177,3.164-1.79,6.516-1.819,9.888c0,16.384,13.28,29.664,29.664,29.664
				s29.664-13.28,29.664-29.664c-0.03-3.372-0.643-6.724-1.819-9.888H120.476z"/>
			<path style="fill:#697B8C;" d="M61.148,395.521c-1.177,3.164-1.79,6.516-1.819,9.888c0,16.384,13.28,29.664,29.664,29.664
				s29.664-13.28,29.664-29.664c-0.03-3.372-0.643-6.724-1.819-9.888H61.148z"/>
			<path style="fill:#69CCD7;" d="M564.013,300.26L512.2,257.089h-87.015c-5.458,0-9.888,4.43-9.888,9.888
				c0,2.314,0.811,4.548,2.294,6.328l29.99,35.992c3.757,4.509,9.315,7.109,15.178,7.119h114.266
				C573.783,310.237,569.363,304.749,564.013,300.26z"/>
			<path d="M266.977,326.305h39.552c5.458,0,9.888-4.43,9.888-9.888v-59.328c0-5.458-4.43-9.888-9.888-9.888h-39.552
				c-5.458,0-9.888,4.43-9.888,9.888v59.328C257.089,321.875,261.519,326.305,266.977,326.305z M276.865,266.977h19.776v39.552
				h-19.776V266.977z"/>
			<path d="M187.873,326.305c5.458,0,9.888-4.43,9.888-9.888v-59.328c0-5.458-4.43-9.888-9.888-9.888H148.32
				c-5.458,0-9.888,4.43-9.888,9.888v59.328c0,5.458,4.43,9.888,9.888,9.888H187.873z M158.209,266.977h19.776v39.552h-19.776
				V266.977z"/>
			<path d="M108.768,326.305c5.458,0,9.888-4.43,9.888-9.888v-59.328c0-5.458-4.43-9.888-9.888-9.888H69.216
				c-5.458,0-9.888,4.43-9.888,9.888v59.328c0,5.458,4.43,9.888,9.888,9.888H108.768z M79.104,266.977H98.88v39.552H79.104V266.977z
				"/>
			<path d="M39.552,316.417v-59.328c0-5.458-4.43-9.888-9.888-9.888H0v19.776h19.776v39.552H0v19.776h29.664
				C35.122,326.305,39.552,321.875,39.552,316.417z"/>
			<rect x="375.745" y="306.529" width="39.552" height="19.776"/>
			<rect x="474.626" y="346.081" width="19.776" height="19.776"/>
			<rect x="533.954" y="346.081" width="19.776" height="19.776"/>
			<rect y="464.738" width="593.282" height="19.776"/>
			<path d="M257.089,108.768H0v19.776h237.313l-14.832,19.776H0v19.776h297.946l-26.371,39.552H0v19.776h217.537v118.656H0v19.776
				h217.537v19.776H0v19.776h49.44c0.04,6.961,1.938,13.794,5.498,19.776H0v19.776h593.282v-19.776H479.016
				c3.56-5.982,5.458-12.815,5.498-19.776h45.01c35.211-0.01,63.748-28.567,63.738-63.778c-0.01-18.906-8.405-36.843-22.92-48.946
				l-66.25-55.225c-23.118-19.242-52.238-29.793-82.318-29.812H295.336l26.371-39.552h271.575V148.32H405.409l14.832-19.776h173.041
				v-19.776H257.089z M88.992,425.185c-10.926,0-19.776-8.85-19.776-19.776h39.552C108.768,416.336,99.919,425.185,88.992,425.185z
				 M148.32,425.185c-10.926,0-19.776-8.85-19.776-19.776h39.552C168.097,416.336,159.247,425.185,148.32,425.185z M237.313,365.857
				h98.88v19.776h-98.88V365.857z M182.375,425.185c3.56-5.982,5.458-12.815,5.498-19.776h217.537
				c0.04,6.961,1.938,13.794,5.498,19.776H182.375z M444.961,425.185c-10.926,0-19.776-8.85-19.776-19.776h39.552
				C464.738,416.336,455.888,425.185,444.961,425.185z M508.621,266.977l47.463,39.552H462.76c-2.937,0-5.725-1.305-7.604-3.56
				l-29.971-35.992H508.621z M355.969,365.857h98.88v-19.776h-98.88V227.425h65.805c22.367,0.02,44.19,6.932,62.502,19.776h-59.091
				c-10.926,0-19.776,8.86-19.766,19.786c0,4.618,1.622,9.097,4.578,12.647l30.02,35.992c5.616,6.763,13.952,10.679,22.742,10.679
				h107.78c8.771,22.337-2.225,47.552-24.562,56.322c-5.231,2.057-10.808,3.075-16.414,3.006H355.969V365.857z M336.193,227.425
				v118.656h-98.88V227.425H336.193z M380.689,148.32H247.201l14.832-19.776h133.488L380.689,148.32z"/>
		</g>
	</g>
</g>
<g>
</g>
<g>
</g>
<g>
</g>
<g>
</g>
<g>
</g>
<g>
</g>
<g>
</g>
<g>
</g>
<g>
</g>
<g>
</g>
<g>
</g>
<g>
</g>
<g>
</g>
<g>
</g>
<g>
</g>
</svg>
