<?xml version="1.0" encoding="iso-8859-1"?>
<!-- Generator: Adobe Illustrator 19.0.0, SVG Export Plug-In . SVG Version: 6.00 Build 0)  -->
<svg xmlns="http://www.w3.org/2000/svg" xmlns:xlink="http://www.w3.org/1999/xlink" version="1.1" id="Layer_1" x="0px" y="0px" viewBox="0 0 512 512" style="enable-background:new 0 0 512 512;" xml:space="preserve">
<g>
	<path style="fill:#FF8899;" d="M96.396,214.116c17.624,71.778,82.39,125.03,159.604,125.03s141.98-53.252,159.602-125.03   L96.396,214.116L96.396,214.116z"/>
	<path style="fill:#FF8899;" d="M415.602,135.48C397.98,63.702,333.214,10.449,256,10.449S114.02,63.702,96.396,135.48H415.602z"/>
</g>
<path style="fill:#FF5764;" d="M332.143,134.821h76.374c22.096,0,40.007,17.899,40.007,39.977l0,0  c0,22.079-17.911,39.979-40.007,39.979H103.484c-22.096,0-40.007-17.9-40.007-39.979l0,0c0-22.078,17.91-39.977,40.007-39.977  h152.979H332.143z"/>
<path style="fill:#FFDF9F;" d="M274.808,340.637v142.287c0,10.245-8.464,18.627-18.808,18.627l0,0  c-10.344,0-18.808-8.382-18.808-18.627V340.637H274.808z"/>
<path d="M458.972,174.798c0-22.365-14.651-41.365-34.86-47.948c-9.951-34.865-30.891-66.277-59.464-88.982  C333.472,13.095,295.902,0,256,0c-39.903,0-77.472,13.095-108.648,37.867c-28.574,22.705-49.516,54.117-59.467,88.984  c-20.208,6.583-34.857,25.582-34.857,47.947s14.648,41.366,34.857,47.949c9.952,34.866,30.893,66.278,59.467,88.982  c23.428,18.616,50.466,30.635,79.391,35.461v135.733C226.743,498.957,239.868,512,256,512s29.257-13.043,29.257-29.076V347.19  c28.925-4.825,55.964-16.845,79.39-35.461c28.574-22.705,49.515-54.116,59.465-88.981  C444.322,216.165,458.972,197.164,458.972,174.798z M264.359,482.924c0,4.51-3.75,8.178-8.359,8.178  c-4.609,0-8.359-3.669-8.359-8.178V349.397c2.774,0.129,5.56,0.2,8.359,0.2s5.585-0.071,8.359-0.2V482.924z M256,328.699  c-66.298,0-124.223-41.894-145.447-103.473h290.89C380.223,286.804,322.299,328.699,256,328.699z M408.516,204.327H103.484  c-16.298,0-29.558-13.247-29.558-29.53c0-16.282,13.26-29.527,29.558-29.527h152.979c5.771,0,10.449-4.678,10.449-10.449  s-4.678-10.449-10.449-10.449h-145.91C131.777,62.793,189.703,20.898,256,20.898c66.298,0,124.223,41.894,145.445,103.474h-69.301  c-5.771,0-10.449,4.678-10.449,10.449c0,5.771,4.678,10.449,10.449,10.449h76.373c16.298,0,29.558,13.246,29.558,29.527  C438.074,191.08,424.815,204.327,408.516,204.327z"/>
<path d="M294.425,145.27h-0.44c-5.771,0-10.449-4.678-10.449-10.449s4.678-10.449,10.449-10.449h0.44  c5.771,0,10.449,4.678,10.449,10.449C304.874,140.592,300.196,145.27,294.425,145.27z"/>
<path d="M222.426,311.978c-0.886,0-1.786-0.113-2.682-0.351c-29.226-7.742-55.707-25.135-74.565-48.974  c-3.58-4.526-2.814-11.098,1.713-14.678c4.528-3.581,11.098-2.813,14.678,1.713c16.076,20.322,38.637,35.144,63.526,41.738  c5.579,1.477,8.904,7.198,7.425,12.776C231.28,308.883,227.051,311.978,222.426,311.978z"/>
<path d="M256,316.327h-0.137c-5.771,0-10.449-4.678-10.449-10.449c0-5.771,4.678-10.449,10.449-10.449H256  c5.771,0,10.449,4.678,10.449,10.449C266.449,311.649,261.771,316.327,256,316.327z"/>
<path d="M364.681,112.165c-3.366,0-6.67-1.623-8.686-4.628c-16.35-24.363-40.887-41.896-69.091-49.367  c-5.578-1.477-8.902-7.198-7.424-12.777c1.478-5.578,7.194-8.904,12.777-7.424c33.113,8.772,61.911,29.343,81.091,57.924  c3.215,4.792,1.937,11.283-2.854,14.499C368.707,111.59,366.683,112.165,364.681,112.165z"/>
<path d="M256.136,54.168H256c-5.771,0-10.449-4.678-10.449-10.449S250.229,33.27,256,33.27h0.137  c5.771,0,10.449,4.678,10.449,10.449S261.907,54.168,256.136,54.168z"/>
<g>
</g>
<g>
</g>
<g>
</g>
<g>
</g>
<g>
</g>
<g>
</g>
<g>
</g>
<g>
</g>
<g>
</g>
<g>
</g>
<g>
</g>
<g>
</g>
<g>
</g>
<g>
</g>
<g>
</g>
</svg>
