<svg height="512" viewBox="0 0 60 58" width="512" xmlns="http://www.w3.org/2000/svg"><g id="040---Spider" fill="none"><g id="Icons" transform="translate(15 6)"><path id="Shape" d="m23 15h-16c-5.14-5.27.13-15 8-15s13.07 9.77 8 15z" fill="#283593"/><path id="Shape" d="m20 15h-13c-4.76-4.88-.59-13.71 6.45-14.87 7.15 1.17 11.25 10.02 6.55 14.87z" fill="#3f51b5"/><circle id="Oval" cx="10" cy="6" fill="#f5f5f5" r="3"/><circle id="Oval" cx="20" cy="6" fill="#f5f5f5" r="3"/><path id="Shape" d="m30 28.83c0 10.5-6.72 22.17-15 22.17-8.74 0-15-12.4-15-22.17 0-10.01 6.25-15.83 15-15.83 8.28 0 15 5.34 15 15.83z" fill="#283593"/><path id="Shape" d="m27 28.83c0 9.86-5.92 20.74-13.5 22-7.58-1.3-13.5-12.18-13.5-22s5.91-15.14 13.47-15.77h.06c7.56.63 13.47 5.94 13.47 15.77z" fill="#3f51b5"/><g fill="#f5f5f5"><ellipse id="Oval" cx="15" cy="25" rx="7" ry="5"/><ellipse id="Oval" cx="15" cy="33" rx="5" ry="3"/></g></g><g id="Layer_10" fill="#000" transform="translate(0 -1)"><path id="Shape" d="m51.26 30.06c.7706241-.0631426 1.4871115-.4213863 2-1l6.46-7.38c.2546943-.2651659.3433359-.6487093.2308216-.9987417-.1125144-.3500324-.4080352-.6100907-.7695321-.6771882-.361497-.0670976-.7306577.069589-.9612895.3559299l-6.46 7.39c-.1768279.1935169-.4190898.3146478-.68.34l-6.38.49c-.6141001-1.6153751-1.5002346-3.1136866-2.62-4.43l8.74-5.83c.6873562-.4602957 1.154139-1.1839899 1.29-2l1.89-10.14c.0643078-.3572656-.0668682-.72170046-.3441154-.95602547-.2772472-.234325-.658445-.30294062-1-.18-.341555.12294061-.5915768.41875986-.6558846.77602547l-1.83 10.18c-.0469982.2695651-.202405.5080964-.43.66l-9.06 6c-.3840155-.3343548-.7881017-.6449335-1.21-.93 3-4.16 1.4-10-2.73-13.31.51-2.28-.22-4.9-3.11-7.21-.2078446-.1666477-.473593-.24347345-.7382977-.21343603-.2647047.03003741-.5064822.16445474-.6717023.37343603-.3403569.43136993-.2689082 1.05654608.16 1.4 1.72 1.38 2.55 2.87 2.5 4.44-3.0513068-1.6355899-6.7186932-1.6355899-9.77 0 0-1.27.49-2.83 2.51-4.45.4289082-.34345392.5003569-.96863007.16-1.4-.3434539-.42890818-.9686301-.50035688-1.4-.16-3.38 2.71-3.52 5.48-3.12 7.23-4.13 3.29-5.69 9.16-2.73 13.31-.4218983.2850665-.8259845.5956452-1.21.93l-9.06-6c-.2298868-.1541934-.38557565-.3967784-.43-.67l-1.83-10.18c-.09941125-.55228475-.62771525-.91941125-1.18-.82s-.91941125.62771525-.82 1.18l1.86 10.16c.13586101.8160101.60264378 1.5397043 1.29 2l8.74 5.83c-1.1197654 1.3163134-2.0058999 2.8146249-2.62 4.43l-6.38-.49c-.26091022-.0253522-.50317212-.1464831-.68-.34l-6.46-7.43c-.37083717-.386084-.97995032-.4116464-1.38183179-.0579907-.40188147.3536557-.45397016.9610757-.11816821 1.3779907l6.46 7.34c.51288854.5786137 1.22937592.9368574 2 1l5.9.45c-.2490206.9849494-.419555 1.9880927-.51 3l-5.39.41c-.77062408.0631426-1.48711146.4213863-2 1l-6.46 7.48c-.25905569.2948776-.32164814.7140403-.16003926 1.0717346.16160887.3576943.51753143.5877689.91003926.5882654.28722715-.0003637.56043016-.1242157.75-.34l6.46-7.39c.17682788-.1935169.41908978-.3146478.68-.34l5.11-.39c-.0200348 2.1699927.2149085 4.3348272.7 6.45l-5.55 3.71c-.68735622.4602957-1.15413899 1.1839899-1.29 2l-1.86 10.12c-.09941124.5522847.26771526 1.0805887.82 1.18.55228475.0994112 1.08058873-.2677153 1.18-.82l1.83-10.18c.04699823-.2695651.202405-.5080964.43-.66l5-3.33c2.4 8 8 15 14.75 15s12.35-7 14.75-15l5 3.33c.2253399.1495981.3804699.3840969.43.65l1.81 10.19c.0643078.3572656.3143296.6530849.6558846.7760255s.7227528.054325 1-.18.4084232-.5987599.3441154-.9560255l-1.86-10.16c-.135861-.8160101-.6026438-1.5397043-1.29-2l-5.56-3.66c.4850915-2.1151728.7200348-4.2800073.7-6.45l5.12.39c.2609102.0253522.5031721.1464831.68.34l6.46 7.39c.191389.212076.4643407.3321747.75.33.3925078-.0004965.7484304-.2305711.9100393-.5882654.1616088-.3576943.0990164-.776857-.1600393-1.0717346l-6.46-7.34c-.5128885-.5786137-1.2293759-.9368574-2-1l-5.38-.41c-.0985457-1.0115321-.2723607-2.0143107-.52-3zm-14.26-17.06c0 1.1045695-.8954305 2-2 2s-2-.8954305-2-2 .8954305-2 2-2 2 .8954305 2 2zm-12-2c1.1045695 0 2 .8954305 2 2s-.8954305 2-2 2-2-.8954305-2-2 .8954305-2 2-2zm-3.64 3.63c.7646122 1.7264737 2.632402 2.6831205 4.4802289 2.2946891s3.1723605-2.0161361 3.1771316-3.9043417c.004771-1.8882056-1.3115201-3.52258298-3.1573605-3.9203474 2.565651-1.46479099 5.714349-1.46479099 8.28 0-1.8458404.39776442-3.1621315 2.0321418-3.1573605 3.9203474.0047711 1.8882056 1.3293047 3.5159103 3.1771316 3.9043417s3.7156167-.5682154 4.4802289-2.2946891c.7256783 2.0519827.3846645 4.3304042-.91 6.08-4.898805-2.2905628-10.561195-2.2905628-15.46 0-1.2946645-1.7495958-1.6356783-4.0280173-.91-6.08zm8.64 42.37c-10.89 0-19.29-23.15-10-32.26.0668104-.0489916.1272737-.1060958.18-.17 5.09-4.77 14.5-4.77 19.58 0 .0527263.0639042.1131896.1210084.18.17 9.32 9.08.97 32.26-9.94 32.26z"/><path id="Shape" d="m30 26c-4.41 0-8 2.69-8 6 0 2.16 1.53 4 3.82 5.11-3.75 2.4-1.4 6.89 4.18 6.89s7.91-4.5 4.18-6.89c2.29-1.06 3.82-2.95 3.82-5.11 0-3.31-3.59-6-8-6zm4 14c0 .94-1.71 2-4 2s-4-1.06-4-2 1.71-2 4-2 4 1.06 4 2zm-4-4c-3.25 0-6-1.83-6-4s2.75-4 6-4 6 1.83 6 4-2.75 4-6 4z"/></g></g></svg>