<?xml version="1.0" encoding="iso-8859-1"?>
<!-- Generator: Adobe Illustrator 19.0.0, SVG Export Plug-In . SVG Version: 6.00 Build 0)  -->
<svg xmlns="http://www.w3.org/2000/svg" xmlns:xlink="http://www.w3.org/1999/xlink" version="1.1" id="Layer_1" x="0px" y="0px" viewBox="0 0 511.999 511.999" style="enable-background:new 0 0 511.999 511.999;" xml:space="preserve">
<path style="fill:#BF4F28;" d="M118.822,393.157L118.822,393.157c-24.065-24.065-24.065-63.444,0-87.509L395.953,28.516  c24.065-24.065,63.444-24.065,87.51,0l0,0c24.065,24.065,24.065,63.444,0,87.51L206.331,393.157  C182.267,417.222,142.887,417.222,118.822,393.157z"/>
<polygon style="fill:#FF7DBE;" points="274.499,149.971 274.499,324.99 310.022,289.466 310.022,114.447 "/>
<path style="fill:#0092E0;" d="M168.624,410.911c12.851-1.245,25.378-6.473,35.524-15.68v-174.91l-35.524,35.524V410.911z"/>
<path style="fill:#9AE523;" d="M395.953,28.516l-15.581,15.581v175.019l35.524-35.524V15.196  C408.632,18.202,401.833,22.636,395.953,28.516z"/>
<path d="M204.15,331.459c-5.769,0-10.448-4.678-10.448-10.448v-0.137c0-5.771,4.679-10.448,10.448-10.448  s10.448,4.678,10.448,10.448v0.137C214.598,326.782,209.92,331.459,204.15,331.459z"/>
<path d="M310.023,230.489c-5.769,0-10.448-4.678-10.448-10.448v-0.137c0-5.771,4.679-10.448,10.448-10.448  s10.448,4.678,10.448,10.448v0.137C320.472,225.812,315.793,230.489,310.023,230.489z"/>
<path d="M310.022,299.501c-5.769,0-10.448-4.678-10.448-10.448v-36.249c0-5.771,4.679-10.448,10.448-10.448  s10.448,4.678,10.448,10.448v36.249C320.471,294.823,315.792,299.501,310.022,299.501z"/>
<path d="M415.897,130.203c-5.769,0-10.448-4.678-10.448-10.448v-0.137c0-5.771,4.679-10.448,10.448-10.448  s10.448,4.678,10.448,10.448v0.137C426.345,125.525,421.666,130.203,415.897,130.203z"/>
<path d="M490.851,21.128C477.238,7.516,459.075,0.02,439.708,0.02c-19.368,0-37.531,7.497-51.143,21.108L111.434,298.259  c-13.612,13.613-21.108,31.775-21.108,51.143c0,15.819,5.006,30.83,14.255,43.219L3.06,494.142c-4.08,4.08-4.08,10.696,0,14.777  c2.041,2.041,4.714,3.06,7.388,3.06s5.347-1.02,7.388-3.06l101.52-101.521c12.388,9.25,27.4,14.255,43.22,14.255  c19.367,0,37.53-7.497,51.143-21.108L490.85,123.414C519.049,95.213,519.049,49.329,490.851,21.128z M204.148,343.325  c-5.769,0-10.448,4.678-10.448,10.448v36.562c-4.444,3.382-9.375,5.984-14.627,7.743V260.174l14.627-14.627v41.526  c0,5.771,4.679,10.448,10.448,10.448s10.448-4.678,10.448-10.448V224.65l49.454-49.454v145.466l-49.454,49.454v-16.343  C214.596,348.003,209.918,343.325,204.148,343.325z M284.919,154.327l14.655-14.656v46.432c0,5.771,4.679,10.448,10.448,10.448  s10.448-4.678,10.448-10.448v-66.348c0-0.314-0.02-0.625-0.047-0.933l49.5-49.5v145.466l-84.977,84.977v-144.89  C284.947,154.69,284.929,154.51,284.919,154.327z M126.21,313.036l31.966-31.966v119.492c-12.117-1.009-23.337-6.164-31.966-14.794  v-0.001c-9.666-9.665-14.989-22.581-14.989-36.367C111.221,335.617,116.545,322.702,126.21,313.036z M476.075,108.638  l-49.731,49.731v-5.851c0-5.771-4.679-10.448-10.448-10.448s-10.448,4.678-10.448,10.448v26.747l-14.627,14.627V48.425  l12.521-12.521c0.684-0.684,1.39-1.342,2.106-1.982v51.895c0,5.771,4.679,10.448,10.448,10.448s10.448-4.678,10.448-10.448V22.656  c4.302-1.14,8.783-1.741,13.364-1.741c13.785,0,26.701,5.323,36.367,14.989C496.127,55.957,496.127,88.585,476.075,108.638z"/>
<g>
</g>
<g>
</g>
<g>
</g>
<g>
</g>
<g>
</g>
<g>
</g>
<g>
</g>
<g>
</g>
<g>
</g>
<g>
</g>
<g>
</g>
<g>
</g>
<g>
</g>
<g>
</g>
<g>
</g>
</svg>
