<?xml version="1.0" encoding="iso-8859-1"?>
<!-- Generator: Adobe Illustrator 19.0.0, SVG Export Plug-In . SVG Version: 6.00 Build 0)  -->
<svg xmlns="http://www.w3.org/2000/svg" xmlns:xlink="http://www.w3.org/1999/xlink" version="1.1" id="Layer_1" x="0px" y="0px" viewBox="0 0 512 512" style="enable-background:new 0 0 512 512;" xml:space="preserve">
<circle style="fill:#F777F1;" cx="413.78" cy="98.22" r="87.771"/>
<circle style="fill:#3FD0FC;" cx="289.615" cy="222.386" r="87.771"/>
<circle style="fill:#9AE523;" cx="165.45" cy="346.551" r="87.771"/>
<path d="M366.103,114.9c-5.171,0-9.664-3.837-10.349-9.103c-2.361-18.169,3.706-36.01,16.648-48.953  c8.984-8.984,20.362-14.698,32.904-16.525c5.708-0.83,11.014,3.122,11.846,8.834c0.832,5.71-3.123,11.014-8.834,11.846  c-8.053,1.173-15.363,4.846-21.138,10.622c-8.321,8.321-12.221,19.796-10.703,31.482c0.744,5.723-3.292,10.965-9.014,11.709  C367.007,114.872,366.553,114.9,366.103,114.9z"/>
<path d="M379.793,142.658c-2.674,0-5.349-1.02-7.388-3.061l-0.097-0.097c-4.08-4.08-4.08-10.697,0-14.778  c4.08-4.08,10.697-4.08,14.778,0l0.097,0.097c4.08,4.08,4.08,10.697,0,14.778C385.141,141.638,382.466,142.658,379.793,142.658z"/>
<path d="M241.938,239.065c-5.171,0-9.664-3.837-10.349-9.103c-2.361-18.169,3.706-36.011,16.648-48.953  c8.985-8.984,20.363-14.698,32.905-16.525c5.706-0.834,11.014,3.123,11.846,8.834c0.832,5.71-3.123,11.014-8.834,11.846  c-8.053,1.173-15.363,4.846-21.139,10.623c-8.319,8.319-12.22,19.795-10.702,31.482c0.744,5.723-3.292,10.965-9.014,11.709  C242.841,239.037,242.387,239.065,241.938,239.065z"/>
<path d="M117.773,363.232c-5.171,0-9.664-3.837-10.349-9.103c-2.361-18.169,3.706-36.011,16.648-48.953  c8.984-8.984,20.362-14.698,32.905-16.524c5.705-0.835,11.014,3.123,11.846,8.834s-3.123,11.014-8.834,11.846  c-8.054,1.173-15.363,4.846-21.139,10.622c-8.321,8.321-12.221,19.795-10.703,31.482c0.744,5.723-3.292,10.965-9.014,11.709  C118.676,363.202,118.221,363.232,117.773,363.232z"/>
<path d="M131.462,390.989c-2.674,0-5.349-1.02-7.388-3.06l-0.097-0.097c-4.08-4.08-4.08-10.697,0-14.778  c4.08-4.08,10.697-4.08,14.778,0l0.097,0.097c4.08,4.08,4.08,10.697,0,14.778C136.81,389.97,134.136,390.989,131.462,390.989z"/>
<path d="M413.78,0c-54.159,0-98.22,44.061-98.22,98.22c0,10.807,1.76,21.21,4.999,30.944c-9.733-3.239-20.136-4.999-30.944-4.999  c-54.159,0-98.22,44.061-98.22,98.22c0,10.807,1.76,21.21,4.999,30.944c-9.733-3.239-20.136-4.999-30.944-4.999  c-54.159,0-98.22,44.061-98.22,98.22c0,23.323,8.177,44.77,21.807,61.635L3.061,494.163c-4.08,4.08-4.08,10.697,0,14.778  C5.102,510.98,7.775,512,10.449,512s5.349-1.02,7.388-3.06l85.975-85.975c16.866,13.631,38.312,21.807,61.635,21.807  c54.159,0,98.22-44.061,98.22-98.22c0-10.807-1.76-21.21-4.999-30.944c9.733,3.239,20.136,4.999,30.944,4.999  c54.159,0,98.22-44.061,98.22-98.22c0-10.807-1.76-21.21-4.999-30.944c9.733,3.239,20.136,4.999,30.944,4.999  c54.159,0,98.22-44.061,98.22-98.22S467.939,0,413.78,0z M165.45,423.874c-21.202,0-40.433-8.583-54.416-22.451  c-0.074-0.078-0.14-0.163-0.216-0.239c-0.077-0.077-0.161-0.142-0.239-0.216c-13.868-13.983-22.451-33.214-22.451-54.416  c0-42.636,34.686-77.322,77.322-77.322s77.322,34.686,77.322,77.322S208.084,423.874,165.45,423.874z M289.615,299.708  c-42.636,0-77.322-34.686-77.322-77.322s34.686-77.322,77.322-77.322s77.322,34.686,77.322,77.322S332.251,299.708,289.615,299.708z   M413.78,175.543c-42.636,0-77.322-34.686-77.322-77.322s34.686-77.322,77.322-77.322s77.322,34.686,77.322,77.322  S456.416,175.543,413.78,175.543z"/>
<path d="M255.627,266.824c-2.674,0-5.349-1.02-7.388-3.06l-0.097-0.097c-4.08-4.08-4.08-10.697,0-14.778  c4.08-4.08,10.697-4.08,14.778,0l0.097,0.097c4.08,4.08,4.08,10.697,0,14.778C260.975,265.803,258.301,266.824,255.627,266.824z"/>
<g>
</g>
<g>
</g>
<g>
</g>
<g>
</g>
<g>
</g>
<g>
</g>
<g>
</g>
<g>
</g>
<g>
</g>
<g>
</g>
<g>
</g>
<g>
</g>
<g>
</g>
<g>
</g>
<g>
</g>
</svg>
