<?xml version="1.0" encoding="iso-8859-1"?>
<!-- Generator: Adobe Illustrator 19.0.0, SVG Export Plug-In . SVG Version: 6.00 Build 0)  -->
<svg version="1.1" id="Layer_1" xmlns="http://www.w3.org/2000/svg" xmlns:xlink="http://www.w3.org/1999/xlink" x="0px" y="0px"
	 viewBox="0 0 512 512" style="enable-background:new 0 0 512 512;" xml:space="preserve">
<path style="fill:#A18D8C;" d="M503.983,97.971c0,68.409-34.205,136.818-51.307,145.37S256,260.443,256,260.443v-42.756
	C332.96,115.073,503.983,46.664,503.983,97.971z"/>
<path style="fill:#8C6E69;" d="M503.983,97.971c0,5.262-0.264,10.514-0.646,15.748C356.162,141.387,256,234.79,256,234.79v-17.102
	C332.96,115.073,503.983,46.664,503.983,97.971z"/>
<path style="fill:#C8C8CD;" d="M452.676,192.034c0,17.102-20.578,47.765-34.85,57.251c-57.107,6.168-161.827,11.158-161.827,11.158
	v-20.321C317.038,191.353,452.676,167.649,452.676,192.034z"/>
<path style="fill:#FFA541;" d="M264.551,234.79c153.921-34.205,196.676,76.96,196.676,119.716c0,25.653-17.102,76.96-85.511,76.96
	C290.205,431.466,256,320.301,256,286.096V234.79H264.551z"/>
<path style="fill:#FF413C;" d="M379.196,239.144C324.362,286.413,256,259.199,256,259.199V234.79h8.551
	C313.13,223.995,350.613,227.7,379.196,239.144z"/>
<ellipse transform="matrix(0.1463 0.9892 -0.9892 0.1463 499.3745 -358.206)" style="fill:#A18D8C;" cx="457.227" cy="110.228" rx="12.826" ry="29.928"/>
<path style="fill:#CD8C3C;" d="M358.614,403.7c68.409,0,85.511-51.307,85.511-76.96c0-12.16-3.476-29.855-11.965-48.164
	c21.153,26.65,29.068,57.582,29.068,75.93c0,25.653-17.102,76.96-85.511,76.96c-48.42,0-80.375-35.642-99-72.772
	C295.801,384.02,322.655,403.7,358.614,403.7z"/>
<path style="fill:#A18D8C;" d="M8.017,97.971c0,68.409,34.205,136.818,51.307,145.37S256,260.443,256,260.443v-42.756
	C179.04,115.073,8.017,46.664,8.017,97.971z"/>
<path style="fill:#8C6E69;" d="M8.017,97.971c0,5.262,0.264,10.514,0.646,15.748C155.838,141.387,256,234.79,256,234.79v-17.102
	C179.04,115.073,8.017,46.664,8.017,97.971z"/>
<path style="fill:#C8C8CD;" d="M59.324,192.034c0,17.102,20.578,47.765,34.85,57.251c57.107,6.168,161.827,11.158,161.827,11.158
	v-20.321C194.962,191.353,59.324,167.649,59.324,192.034z"/>
<path style="fill:#FFA541;" d="M247.449,234.79C93.528,200.585,50.772,311.75,50.772,354.506c0,25.653,17.102,76.96,85.511,76.96
	c85.511,0,119.716-111.165,119.716-145.37V234.79H247.449z"/>
<path style="fill:#FF413C;" d="M132.804,239.144C187.639,286.413,256,259.199,256,259.199V234.79h-8.551
	C198.87,223.995,161.387,227.7,132.804,239.144z"/>
<path style="fill:#A07869;" d="M256,286.096L256,286.096c-9.446,0-17.102-7.656-17.102-17.102V234.79
	c0-9.446,7.656-17.102,17.102-17.102l0,0c9.446,0,17.102,7.656,17.102,17.102v34.205C273.102,278.44,265.446,286.096,256,286.096z"
	/>
<ellipse transform="matrix(0.1463 -0.9892 0.9892 0.1463 -62.2359 148.264)" style="fill:#A18D8C;" cx="54.784" cy="110.191" rx="12.826" ry="29.928"/>
<path style="fill:#CD8C3C;" d="M153.386,403.7c-68.409,0-85.511-51.307-85.511-76.96c0-12.16,3.476-29.855,11.965-48.164
	c-21.153,26.65-29.067,57.582-29.067,75.93c0,25.653,17.102,76.96,85.511,76.96c48.42,0,80.375-35.642,99-72.772
	C216.199,384.02,189.345,403.7,153.386,403.7z"/>
<path d="M492.186,196.081c7.4-18.499,19.814-55.844,19.814-98.109c0-11.316-6.091-19.579-17.15-23.266
	c-26.24-8.746-76.66,10.19-115.097,30.827c-39.594,21.258-76.162,48.561-104.583,77.683c12.139-35.652,22.078-55.75,22.206-56.008
	c1.979-3.96,0.373-8.773-3.586-10.753c-3.96-1.982-8.776-0.374-10.755,3.585c-0.604,1.208-12.878,25.976-27.034,70.031
	c-14.156-44.054-26.431-68.822-27.034-70.031c-1.981-3.96-6.794-5.567-10.755-3.585c-3.96,1.98-5.566,6.795-3.585,10.755
	c0.128,0.258,10.053,20.291,22.211,56.011c-28.422-29.124-64.991-56.429-104.588-77.688C93.81,84.896,43.39,65.962,17.15,74.707
	C6.091,78.393,0,86.656,0,97.971c0,42.265,12.414,79.61,19.814,98.109c8.815,22.037,22.882,47.909,35.924,54.43
	c8.97,4.485,20.532,7.068,30.193,8.546c-31.792,28.828-43.176,69.102-43.176,95.449c0,6.929,1.36,31.234,18.86,53.108
	c11.631,14.539,34.026,31.869,74.669,31.869c27.622,0,67.184-11.06,98.799-63.75c10.462-17.437,17.042-34.646,20.917-46.947
	c3.875,12.301,10.455,29.51,20.917,46.947c31.615,52.69,71.177,63.75,98.799,63.75c40.643,0,63.039-17.33,74.669-31.869
	c17.5-21.873,18.86-46.179,18.86-53.108c0-26.348-11.384-66.621-43.176-95.449c9.661-1.478,21.223-4.061,30.193-8.546
	C469.305,243.989,483.372,218.118,492.186,196.081z M488.368,156.433c-14.894-1.398-53.45-4.369-93.813-2.217
	c9.478-4.238,18.412-7.872,26.549-10.949c34.92-13.198,61.78-18.974,73.489-20.941C493.283,134.191,491.104,145.649,488.368,156.433
	z M354.173,174.619c47.907-8.247,107.33-4.401,129.687-2.474c-3.497,10.92-7.461,20.881-11.491,29.534
	c-14.213-3.556-74.305-17.517-136.399-16.145C342.085,181.667,348.166,178.029,354.173,174.619z M387.336,119.659
	c50.717-27.23,87.999-34.556,102.443-29.743c5.135,1.712,6.188,4.458,6.188,8.055c0,2.652-0.057,5.291-0.154,7.919
	c-26.937,3.531-137.285,29.403-224.809,108.765c-0.509-0.379-1.035-0.735-1.571-1.076
	C298.124,178.641,340.465,144.825,387.336,119.659z M256,278.08c-5.01,0-9.086-4.076-9.086-9.086V234.79
	c0-5.003,4.066-9.075,9.067-9.085c0.004,0,0.01,0.001,0.014,0.001c0.001,0,0.003,0,0.004,0c0.001,0,0.003,0,0.004,0
	c0.004,0,0.01-0.001,0.014-0.001c5.001,0.01,9.067,4.081,9.067,9.085v34.205C265.086,274.004,261.01,278.08,256,278.08z
	 M150.948,243.255c23.011-5.449,49.713-5.993,79.933-1.596v13.062C218.051,258.582,182.452,266.091,150.948,243.255z
	 M281.119,241.659c30.229-4.399,56.939-3.852,79.955,1.602c-14.897,10.874-32.341,16.197-52.041,15.827
	c-12.135-0.23-22.237-2.662-27.914-4.372V241.659z M22.221,89.917c14.448-4.814,51.727,2.514,102.443,29.743
	c46.871,25.165,89.212,58.982,117.904,93.92c-0.537,0.341-1.064,0.697-1.571,1.076c-87.524-79.363-197.872-105.236-224.81-108.766
	c-0.097-2.627-0.154-5.268-0.154-7.919C16.033,94.375,17.085,91.628,22.221,89.917z M28.14,172.144
	c22.347-1.928,81.739-5.777,129.688,2.477c6.006,3.409,12.089,7.047,18.204,10.916c-62.094-1.372-122.186,12.587-136.4,16.143
	C35.602,193.026,31.637,183.064,28.14,172.144z M17.407,122.327c11.709,1.967,38.569,7.743,73.489,20.941
	c8.139,3.076,17.071,6.711,26.549,10.949c-40.362-2.152-78.919,0.818-93.813,2.217C20.896,145.649,18.717,134.191,17.407,122.327z
	 M47.2,216.359c21.304-5.014,91.46-19.763,154.547-13.189c9.102,6.766,18.136,14.088,26.962,21.999
	c-50.411-6.629-91.958,0.009-123.931,19.753c-8.085-0.374-29.473-2.553-41.871-8.751C59.241,234.337,53.463,227.264,47.2,216.359z
	 M221.335,367.484c-15.319,25.532-42.51,55.966-85.051,55.966c-27.517,0-48.426-8.698-62.15-25.851
	c-11.314-14.144-15.345-31.535-15.345-43.094c0-23.773,10.648-60.556,40.661-85.98c9.716-8.232,20.78-14.753,33.138-19.58
	c18.844,17.184,42.381,26.193,68.516,26.193c0.935,0,1.875-0.012,2.818-0.035c10.923-0.268,20.336-2.042,27.073-3.77
	c0.917,9.882,7.581,18.118,16.608,21.331C245.894,309.39,238.224,339.334,221.335,367.484z M453.211,354.506
	c0,11.559-4.031,28.949-15.345,43.092c-13.722,17.154-34.633,25.851-62.15,25.851c-42.541,0-69.731-30.435-85.051-55.966
	c-16.89-28.15-24.559-58.094-26.268-74.818c9.029-3.213,15.691-11.449,16.608-21.331c6.736,1.728,16.15,3.503,27.073,3.77
	c0.944,0.024,1.88,0.035,2.818,0.035c26.132,0,49.673-9.011,68.515-26.192c12.359,4.826,23.423,11.347,33.139,19.579
	C442.563,293.95,453.211,330.732,453.211,354.506z M449.091,236.171c-13.98,6.99-37.636,8.523-41.876,8.747
	c-31.971-19.742-73.516-26.379-123.924-19.75c8.826-7.911,17.86-15.233,26.962-21.998c63.089-6.573,133.243,8.175,154.547,13.189
	C458.537,227.264,452.759,234.337,449.091,236.171z"/>
<g>
</g>
<g>
</g>
<g>
</g>
<g>
</g>
<g>
</g>
<g>
</g>
<g>
</g>
<g>
</g>
<g>
</g>
<g>
</g>
<g>
</g>
<g>
</g>
<g>
</g>
<g>
</g>
<g>
</g>
</svg>
