<?xml version="1.0" encoding="iso-8859-1"?>
<!-- Generator: Adobe Illustrator 19.0.0, SVG Export Plug-In . SVG Version: 6.00 Build 0)  -->
<svg version="1.1" id="Layer_1" xmlns="http://www.w3.org/2000/svg" xmlns:xlink="http://www.w3.org/1999/xlink" x="0px" y="0px"
	 viewBox="0 0 512 512" style="enable-background:new 0 0 512 512;" xml:space="preserve">
<path style="fill:#E6DCD2;" d="M391.75,233.93c0,0,60.927,52.376,60.927,95.132s-76.96,119.716-128.267,111.165
	C282.235,433.197,256,311.959,256,311.959v-76.96L391.75,233.93z"/>
<path style="fill:#CFC1B4;" d="M425.187,269.204H256V243.55h146.04C408.43,249.833,416.927,258.801,425.187,269.204z"/>
<path style="fill:#E6DCD2;" d="M480.764,71.155c12.889-0.113,23.26,10.591,23.221,23.479c-0.097,31.446-3.533,89.434-25.341,126.986
	c-7.864,13.541-22.278,21.932-37.936,21.932H264.551v-25.653C264.551,217.897,324.409,72.527,480.764,71.155z"/>
<path style="fill:#CFC1B4;" d="M462.02,223.444c-85.234-17.84-142.419-18.909-197.467,3.47v-9.017c0,0,10.596-25.617,34.386-55.434
	C360.424,179.221,426.991,207.618,462.02,223.444z"/>
<path style="fill:#5A464B;" d="M480.764,71.155c12.889-0.113,23.26,10.591,23.221,23.479c-0.097,31.446-3.533,89.434-25.341,126.986
	c-1.488,2.562-3.276,4.873-5.197,7.044c-30.032-13.902-105.525-47.4-174.508-66.201C331.838,121.23,390.023,71.951,480.764,71.155z"
	/>
<path style="fill:#E6DCD2;" d="M478.317,96.847c-0.205,24.457-2.624,67.158-15.524,98.837
	c-29.541-13.088-72.592-31.058-117.028-45.796C383.496,115.715,428.052,97.883,478.317,96.847"/>
<path style="fill:#8C6E69;" d="M367.845,431.615c47.884-55.368,57.353-126.696,58.991-160.337
	c13.542,17.468,25.842,38.578,25.842,57.783C452.677,360.697,410.544,411.022,367.845,431.615z"/>
<path style="fill:#FF9B46;" d="M298.938,162.463c13.081-16.394,30.235-34.02,51.767-49.404
	c18.232,13.942,39.687,39.126,42.453,81.335C363.729,182.865,330.669,171.111,298.938,162.463z"/>
<path style="fill:#E6DCD2;" d="M120.251,233.93c0,0-60.927,52.376-60.927,95.132s76.96,119.716,128.267,111.165
	C229.765,433.197,256,311.959,256,311.959v-76.96L120.251,233.93z"/>
<path style="fill:#CFC1B4;" d="M86.815,269.204H256V243.55H109.96C103.572,249.833,95.073,258.801,86.815,269.204z"/>
<path style="fill:#E6DCD2;" d="M31.237,71.155c-12.889-0.113-23.26,10.59-23.221,23.478c0.097,31.446,3.533,89.434,25.341,126.986
	c7.864,13.541,22.278,21.932,37.936,21.932h176.155v-25.653C247.449,217.897,187.591,72.527,31.237,71.155z"/>
<path style="fill:#CFC1B4;" d="M49.982,223.444c85.234-17.84,142.419-18.909,197.467,3.47v-9.017c0,0-10.596-25.617-34.386-55.434
	C151.578,179.221,85.009,207.618,49.982,223.444z"/>
<path style="fill:#5A464B;" d="M31.237,71.155c-12.889-0.113-23.26,10.59-23.221,23.478c0.097,31.446,3.533,89.434,25.341,126.986
	c1.488,2.562,3.276,4.873,5.197,7.044c30.032-13.902,105.525-47.4,174.508-66.201C180.162,121.23,121.977,71.951,31.237,71.155z"/>
<path style="fill:#E6DCD2;" d="M33.684,96.847c50.264,1.038,94.822,18.868,132.552,53.042
	c-44.436,14.738-87.488,32.708-117.028,45.796C36.308,164.003,33.889,121.304,33.684,96.847"/>
<circle style="fill:#735F4B;" cx="256" cy="200.791" r="17.102"/>
<path style="fill:#7D6E5F;" d="M256,286.306L256,286.306c-9.446,0-17.102-7.656-17.102-17.102v-34.205
	c0-9.446,7.656-17.102,17.102-17.102l0,0c9.446,0,17.102,7.656,17.102,17.102v34.205C273.102,278.649,265.446,286.306,256,286.306z"
	/>
<path style="fill:#8C6E69;" d="M144.155,431.615C96.271,376.248,86.803,304.92,85.164,271.278
	c-13.541,17.469-25.841,38.58-25.841,57.783C59.324,360.697,101.456,411.022,144.155,431.615z"/>
<path style="fill:#FF9B46;" d="M213.063,162.463c-13.081-16.394-30.235-34.02-51.767-49.404
	c-18.232,13.942-39.687,39.126-42.453,81.335C148.272,182.865,181.333,171.111,213.063,162.463z"/>
<path d="M480.88,63.139c-78.226-1.148-132.566,35.409-164.35,66.281c-20.889,20.291-34.881,40.545-42.787,53.611
	c-2.432-2.429-5.361-4.357-8.614-5.632c1.902-6.666,6.309-16.435,13.648-27.853c10.125-15.748,22.144-28.923,32.978-36.145
	c3.684-2.455,4.68-7.433,2.223-11.116c-2.455-3.683-7.433-4.679-11.116-2.223c-18.533,12.354-36.777,36.54-46.86,57.235
	c-10.082-20.695-28.328-44.881-46.86-57.235c-3.683-2.455-8.661-1.461-11.116,2.223c-2.456,3.683-1.461,8.661,2.223,11.116
	c20.726,13.818,41.748,46.744,46.664,63.983c-3.27,1.274-6.212,3.208-8.653,5.647c-7.906-13.066-21.897-33.322-42.787-53.611
	C163.686,98.548,109.388,61.989,31.12,63.139C13.908,63.391-0.052,77.531,0,94.659c0.099,32.097,3.664,91.793,26.425,130.988
	c9.285,15.989,26.479,25.922,44.869,25.922h19.354c-16.063,16.909-39.342,46.721-39.342,77.495c0,12.569,5.517,27.745,15.951,43.887
	c9.526,14.734,22.879,29.715,37.599,42.185c25.753,21.816,52.397,33.754,74.689,33.754c3.216,0,6.343-0.249,9.362-0.753
	c20.506-3.417,39.413-27.586,56.197-71.834c0.998-2.632,1.955-5.25,2.877-7.846v3.363c0,4.427,3.589,8.017,8.017,8.017
	c4.427,0,8.017-3.589,8.017-8.017v-3.363c0.922,2.595,1.879,5.215,2.877,7.846c16.785,44.248,35.691,68.417,56.197,71.834
	c3.021,0.503,6.144,0.753,9.362,0.753c22.291-0.001,48.938-11.938,74.689-33.754c14.72-12.471,28.073-27.452,37.599-42.185
	c10.436-16.142,15.951-31.317,15.951-43.887c0-30.772-23.278-60.585-39.342-77.495h19.354c18.39,0,35.583-9.932,44.869-25.922
	c22.761-39.194,26.326-98.891,26.425-130.988C512.053,77.531,498.093,63.391,480.88,63.139z M471.709,217.593
	c-0.144,0.249-0.307,0.485-0.457,0.73c-7.266-3.236-35.22-15.497-70.498-28.625c-0.038-0.726-0.095-1.596-0.177-2.587
	c39.452,4.02,68.593,10.633,79.292,13.292C477.502,206.481,474.803,212.267,471.709,217.593z M495.086,121.438
	c-36.056-0.418-64.917,3.135-83.08,6.278c-15.035,2.602-25.275,5.31-29.987,6.674c-1.043-1.494-2.146-2.979-3.307-4.449
	c49.779-20.981,99.991-23.549,117.069-23.771C495.646,110.935,495.427,116.054,495.086,121.438z M390.306,148.745
	c13.985-3.675,50.941-11.773,103.451-11.289c-0.498,4.8-1.108,9.709-1.836,14.656c-11.198-1.039-53.999-4.366-99.919,0.418
	C391.469,151.275,390.904,150.012,390.306,148.745z M397.943,170.74c-0.202-0.858-0.421-1.735-0.653-2.625
	c41.084-3.889,79.832-1.182,91.861-0.145c-1.183,5.794-2.568,11.549-4.176,17.175C474.452,182.46,442.486,174.983,397.943,170.74z
	 M480.646,79.17c6.896,0.102,12.731,4.707,14.651,10.941c-19.314,0.197-74.041,3.086-128.401,27.486
	c-1.636-1.412-3.35-2.789-5.147-4.125c9.203-6.061,18.74-11.347,28.562-15.825C418.235,84.917,448.624,78.71,480.646,79.17z
	 M328.119,140.516c6.365-6.154,12.972-11.863,19.785-17.133c26.576,17.092,34.014,45.884,36.092,60.224
	c-23.902-8.478-49.971-16.792-74.679-22.787C314.78,154.242,321.04,147.36,328.119,140.516z M256,278.29
	c-5.01,0-9.086-4.076-9.086-9.086V235c0-5.01,4.076-9.086,9.086-9.086c5.01,0,9.086,4.076,9.086,9.086v34.205
	C265.086,274.214,261.01,278.29,256,278.29z M246.915,200.794c0-5.01,4.076-9.086,9.086-9.086c5.01,0,9.086,4.076,9.086,9.086
	s-4.076,9.086-9.086,9.086C250.99,209.88,246.915,205.804,246.915,200.794z M202.683,160.82
	c-24.71,5.994-50.778,14.308-74.679,22.787c2.078-14.34,9.516-43.132,36.092-60.224c6.814,5.271,13.42,10.98,19.785,17.133
	C190.96,147.36,197.221,154.242,202.683,160.82z M40.749,218.324c-0.151-0.245-0.312-0.481-0.457-0.73
	c-3.093-5.327-5.792-11.113-8.16-17.191c10.68-2.657,39.767-9.264,79.293-13.291c-0.082,0.991-0.139,1.861-0.177,2.587
	C75.967,202.826,48.014,215.088,40.749,218.324z M119.999,152.53c-45.919-4.783-88.721-1.456-99.919-0.418
	c-0.728-4.947-1.338-9.855-1.836-14.656c52.359-0.483,89.427,7.623,103.448,11.295C121.095,150.017,120.532,151.277,119.999,152.53z
	 M129.981,134.389c-4.711-1.364-14.952-4.074-29.987-6.674c-18.163-3.141-47.024-6.701-83.08-6.279
	c-0.341-5.386-0.56-10.506-0.696-15.272c17.056,0.208,67.194,2.747,117.071,23.776C132.127,131.41,131.024,132.895,129.981,134.389z
	 M22.85,167.969c12.028-1.037,50.777-3.743,91.861,0.145c-0.232,0.89-0.45,1.767-0.653,2.625
	c-44.544,4.242-76.51,11.719-87.031,14.404C25.417,179.519,24.033,173.763,22.85,167.969z M31.355,79.17
	c32.017-0.456,62.411,5.746,90.336,18.477c9.822,4.478,19.359,9.764,28.562,15.825c-1.798,1.335-3.511,2.712-5.147,4.125
	C90.746,93.197,36.018,90.306,16.704,90.11C18.625,83.878,24.459,79.271,31.355,79.17z M53.009,230.444
	c23.463-10.227,97.881-41.545,160.472-55.688c9.909,13.715,15.651,24.465,17.492,28.096c0.472,5.79,2.912,11.029,6.654,15.046
	c-4.18,4.488-6.745,10.5-6.745,17.102v0.534H110.6c-0.007,0-0.015,0-0.022,0H71.294C64.772,235.534,58.471,233.709,53.009,230.444z
	 M67.34,329.063c0-12.025,4.688-24.249,11.146-35.385c2.042,14.274,5.736,34.494,12.219,55.787
	c6.075,19.95,13.381,37.01,21.878,51.157C86.211,377.423,67.34,347.728,67.34,329.063z M230.115,370.615
	c-19.165,50.526-35.695,60.348-43.842,61.705c-4.407,0.735-9.222,0.699-14.334-0.045c-0.188-0.077-0.377-0.154-0.574-0.217
	c-35.432-11.39-55.034-53.593-65.239-86.992c-9.964-32.611-13.138-63.472-13.806-71.12c8.791-10.753,17.442-18.894,21.323-22.378
	h117.237v17.637c0,11.048,7.172,20.446,17.102,23.8v18.073C246.861,316.05,240.543,343.124,230.115,370.615z M399.417,400.622
	c8.496-14.147,15.803-31.208,21.878-51.157c6.483-21.291,10.178-41.512,12.22-55.787c6.458,11.136,11.145,23.36,11.145,35.385
	C444.66,347.728,425.791,377.423,399.417,400.622z M419.681,273.947c-0.662,7.613-3.802,38.262-13.724,70.846
	c-18.487,60.712-45.726,80.966-65.322,87.264c-0.195,0.062-0.379,0.139-0.565,0.214c-5.114,0.745-9.933,0.782-14.341,0.048
	c-8.134-1.356-24.639-11.155-43.782-61.547c-10.445-27.498-16.801-54.706-17.929-59.696v-18.074
	c9.93-3.354,17.102-12.752,17.102-23.8v-17.637h117.237C402.238,255.054,410.889,263.195,419.681,273.947z M281.119,235.534V235
	c0-6.603-2.564-12.614-6.745-17.102c3.741-4.017,6.181-9.256,6.654-15.046c1.842-3.631,7.584-14.381,17.492-28.096
	c62.561,14.137,137.002,45.46,160.472,55.688c-5.463,3.264-11.763,5.089-18.286,5.089H281.119V235.534z"/>
<g>
</g>
<g>
</g>
<g>
</g>
<g>
</g>
<g>
</g>
<g>
</g>
<g>
</g>
<g>
</g>
<g>
</g>
<g>
</g>
<g>
</g>
<g>
</g>
<g>
</g>
<g>
</g>
<g>
</g>
</svg>
