<?xml version="1.0" encoding="iso-8859-1"?>
<!-- Generator: Adobe Illustrator 19.0.0, SVG Export Plug-In . SVG Version: 6.00 Build 0)  -->
<svg version="1.1" id="Layer_1" xmlns="http://www.w3.org/2000/svg" xmlns:xlink="http://www.w3.org/1999/xlink" x="0px" y="0px"
	 viewBox="0 0 512 512" style="enable-background:new 0 0 512 512;" xml:space="preserve">
<path style="fill:#465564;" d="M247.449,292.663V249.91H153.39c-33.352,6.671-54.563,23.749-62.278,30.937
	c-1.792,1.671-2.631,4.253-1.854,6.577c3.973,11.884-4.281,22.808-10.034,28.631c-2.443,2.473-2.48,6.301-0.305,9.014
	c10.711,13.354,7.916,33.498,5.598,43.485c-0.781,3.367,0.589,6.822,3.449,8.765c12.612,8.566,14.011,25.93,13.569,36.417
	c-0.172,4.077,3.619,6.973,7.632,6.235c15.624-2.877,27.218,3.293,32.502,6.992c2.085,1.459,4.813,1.315,7.009,0.03
	c15.355-8.983,32.676-8.307,41.541-7.132c3.946,0.523,7.778-1.379,9.922-4.732C224.396,377.194,247.449,292.663,247.449,292.663z"/>
<path style="fill:#466E78;" d="M144.051,252.218c-27.936,7.681-45.978,22.143-52.939,28.628c-1.792,1.671-2.63,4.253-1.853,6.577
	c3.973,11.884-4.282,22.808-10.034,28.631c-2.443,2.473-2.48,6.302-0.304,9.014c10.71,13.354,7.915,33.498,5.596,43.485
	c-0.781,3.367,0.589,6.822,3.449,8.765c12.613,8.566,14.011,25.93,13.569,36.417c-0.171,4.077,3.62,6.973,7.633,6.235
	c15.623-2.877,27.218,3.294,32.501,6.992c2.085,1.459,4.814,1.315,7.011,0.03c15.356-8.983,32.676-8.307,41.541-7.132
	c3.945,0.524,7.778-1.379,9.922-4.732c10.14-15.858,20.063-39.857,28.186-62.424C118.481,347.512,139.354,266.818,144.051,252.218z"
	/>
<path style="fill:#464355;" d="M8.486,104.547c-2.939,20.575,8.551,42.754,25.652,68.406c16.726,25.089,25.403,45.885,29.824,59.507
	c3.399,10.476,13.288,17.45,24.3,17.45h150.635l8.551-17.101C136.289,70.344,14.534,62.22,8.486,104.547z"/>
<g>
	<path style="fill:#463246;" d="M215.333,371.523c-9.962-3.123-27.814-1.929-43.205,6.246c-5.211-3.207-13.995-7.19-25.402-7.19
		c-1.796,0-3.658,0.092-5.587,0.309c-0.142-15.599-5.553-27.765-15.439-34.621c2.38-10.421,4.326-28.408-5.545-42.035
		c9.653-10.221,12.977-21.427,9.436-31.548c-0.236-0.83-0.682-2.744-1.213-5.139c-5.862,2.417-11.208,5.029-15.825,7.688
		c0.465,1.683,0.776,2.75,0.797,2.811c2.063,5.887-3.474,12.417-6.965,15.79c-5.394,5.235-5.77,13.578-0.869,19.414
		c7.423,8.851,4.785,23.983,3.307,30.061c-1.562,6.396,1.161,13.135,6.781,16.775c7.983,5.186,8.684,17.21,8.384,23.915
		c-0.184,4.133,1.503,8.075,4.634,10.822c3.298,2.898,7.866,4.183,12.3,3.365c11.072-1.929,19.272,2.129,23.155,4.726
		c2.346,1.579,5.068,2.363,7.832,2.363c2.521,0,5.086-0.651,7.449-1.971c11.849-6.621,25.435-7.148,30.854-5.469
		c1.282,0.401,2.527,0.575,3.783,0.81c2.381-5.3,4.701-10.822,6.941-16.429C219.188,372.312,217.299,372.138,215.333,371.523z"/>
	<path style="fill:#463246;" d="M55.759,83.521c-11.785,9.235-18.769,31.133-2.381,54.515
		c26.292,37.514,37.752,84.197,39.789,111.872h145.731l8.551-17.101C177.119,130.016,102.583,89.057,55.759,83.521z"/>
</g>
<path style="fill:#465564;" d="M264.55,292.663V249.91h94.058c33.352,6.671,54.563,23.749,62.278,30.937
	c1.792,1.671,2.632,4.253,1.854,6.577c-3.973,11.884,4.281,22.808,10.034,28.631c2.443,2.473,2.48,6.301,0.305,9.014
	c-10.711,13.354-7.916,33.498-5.598,43.485c0.781,3.367-0.589,6.822-3.449,8.765c-12.612,8.566-14.011,25.93-13.569,36.417
	c0.172,4.077-3.619,6.973-7.632,6.235c-15.624-2.877-27.218,3.293-32.502,6.992c-2.085,1.459-4.813,1.315-7.009,0.03
	c-15.355-8.983-32.676-8.307-41.541-7.132c-3.946,0.523-7.778-1.379-9.922-4.732C287.604,377.194,264.55,292.663,264.55,292.663z"/>
<path style="fill:#466E78;" d="M367.949,252.218c27.936,7.681,45.978,22.143,52.939,28.628c1.792,1.671,2.63,4.253,1.853,6.577
	c-3.973,11.884,4.282,22.808,10.034,28.631c2.443,2.473,2.48,6.302,0.304,9.014c-10.71,13.354-7.915,33.498-5.596,43.485
	c0.781,3.367-0.589,6.822-3.449,8.765c-12.613,8.566-14.011,25.93-13.569,36.417c0.171,4.077-3.62,6.973-7.633,6.235
	c-15.623-2.877-27.218,3.294-32.501,6.992c-2.085,1.459-4.814,1.315-7.011,0.03c-15.356-8.983-32.676-8.307-41.541-7.132
	c-3.945,0.524-7.778-1.379-9.922-4.732c-10.14-15.858-20.063-39.857-28.186-62.424C393.519,347.512,372.644,266.818,367.949,252.218
	z"/>
<path style="fill:#464355;" d="M503.512,104.547c2.939,20.575-8.551,42.754-25.652,68.406
	c-16.726,25.089-25.403,45.885-29.824,59.507c-3.399,10.476-13.288,17.45-24.3,17.45H273.101l-8.551-17.101
	C375.711,70.344,497.466,62.22,503.512,104.547z"/>
<g>
	<path style="fill:#463246;" d="M296.666,371.523c9.962-3.123,27.814-1.929,43.205,6.246c5.211-3.207,13.995-7.19,25.402-7.19
		c1.796,0,3.658,0.092,5.587,0.309c0.142-15.599,5.553-27.765,15.439-34.621c-2.38-10.421-4.326-28.408,5.545-42.035
		c-9.653-10.221-12.977-21.427-9.436-31.548c0.236-0.83,0.682-2.744,1.213-5.139c5.862,2.417,11.208,5.029,15.825,7.688
		c-0.465,1.683-0.776,2.75-0.797,2.811c-2.063,5.887,3.474,12.417,6.965,15.79c5.394,5.235,5.77,13.578,0.869,19.414
		c-7.423,8.851-4.785,23.983-3.307,30.061c1.562,6.396-1.161,13.135-6.781,16.775c-7.983,5.186-8.684,17.21-8.384,23.915
		c0.184,4.133-1.503,8.075-4.635,10.822c-3.298,2.898-7.866,4.183-12.3,3.365c-11.072-1.929-19.272,2.129-23.155,4.726
		c-2.346,1.579-5.068,2.363-7.832,2.363c-2.521,0-5.086-0.651-7.449-1.971c-11.849-6.621-25.435-7.148-30.854-5.469
		c-1.282,0.401-2.527,0.575-3.783,0.81c-2.381-5.3-4.701-10.822-6.941-16.429C292.811,372.312,294.701,372.138,296.666,371.523z"/>
	<path style="fill:#463246;" d="M456.239,83.521c11.785,9.235,18.769,31.133,2.381,54.515
		c-26.292,37.514-37.752,84.197-39.789,111.872H273.101l-8.551-17.101C334.881,130.016,409.417,89.057,456.239,83.521z"/>
</g>
<path style="fill:#464355;" d="M255.999,301.214L255.999,301.214c-9.445,0-17.101-7.656-17.101-17.101v-51.304
	c0-9.445,7.656-17.101,17.101-17.101l0,0c9.445,0,17.101,7.656,17.101,17.101v51.304
	C273.101,293.558,265.445,301.214,255.999,301.214z"/>
<path d="M511.448,103.414c-1.914-13.397-11.891-23.27-27.372-27.088c-23.89-5.893-57.936,2.666-93.411,23.478
	c-36.252,21.269-72.681,54.385-106.447,96.586l38.674-70.903c2.121-3.886,0.688-8.756-3.199-10.875
	c-3.888-2.123-8.756-0.688-10.875,3.199l-49.172,90.148c-1.191-0.174-2.408-0.267-3.646-0.267c-1.238,0-2.455,0.094-3.646,0.267
	l-49.172-90.148c-2.12-3.886-6.989-5.32-10.875-3.199c-3.886,2.12-5.32,6.989-3.199,10.875l38.674,70.903
	c-33.765-42.201-70.195-75.317-106.447-96.586c-35.473-20.814-69.52-29.369-93.41-23.479C12.442,80.144,2.465,90.017,0.551,103.414
	c-3.281,22.972,8.387,46.19,26.919,73.986c16.423,24.634,24.763,44.884,28.868,57.535c4.462,13.753,17.292,22.992,31.925,22.992
	h20.899c-17.409,9.909-26.704,20.169-27.319,20.861c-2.221,2.499-2.658,6.115-1.097,9.07c6.619,12.53-11.069,26.039-11.229,26.16
	c-1.997,1.482-3.192,3.806-3.236,6.292c-0.045,2.485,1.066,4.851,3.007,6.404c16.658,13.327,6.087,44.969,5.983,45.273
	c-1.4,4.044,0.624,8.476,4.598,10.065c18.475,7.39,12.968,38.516,12.914,38.813c-0.537,2.846,0.503,5.76,2.72,7.623
	c2.217,1.864,5.267,2.387,7.978,1.367c21.214-7.973,35.238,4.871,35.778,5.377c1.543,1.496,3.557,2.262,5.583,2.262
	c1.625,0,3.255-0.492,4.657-1.493c19.015-13.582,44.402-7.372,44.633-7.314c3.147,0.818,6.475-0.348,8.425-2.95
	c18.171-24.229,35.903-71.907,45.426-100.053v35.388c0,4.427,3.589,8.016,8.016,8.016c4.427,0,8.016-3.589,8.016-8.016v-35.388
	c9.522,28.146,27.254,75.824,45.426,100.053c1.941,2.587,5.268,3.748,8.402,2.956c0.255-0.064,25.643-6.273,44.656,7.308
	c1.402,1.002,3.033,1.493,4.657,1.493c2.025,0,4.04-0.765,5.583-2.262c0.14-0.136,14.24-13.472,35.778-5.377
	c2.714,1.021,5.762,0.496,7.978-1.367c2.217-1.863,3.257-4.778,2.72-7.623c-0.059-0.313-5.391-31.49,12.914-38.813
	c3.974-1.589,5.998-6.021,4.598-10.065c-0.11-0.317-10.513-32.075,5.983-45.273c1.935-1.548,3.034-3.91,2.997-6.387
	c-0.036-2.477-1.227-4.806-3.207-6.294c-0.18-0.135-17.868-13.645-11.248-26.175c1.562-2.956,1.124-6.571-1.097-9.07
	c-0.615-0.692-9.909-10.951-27.319-20.861h20.899c14.634,0,27.463-9.24,31.925-22.992c4.105-12.65,12.447-32.9,28.868-57.535
	C503.061,149.604,514.73,126.384,511.448,103.414z M410.484,241.893H297.76c47.273-30.21,101.649-38.581,121.815-40.731
	C414.511,217.268,411.571,231.68,410.484,241.893z M425.777,321.415c-5.295,7.232-7.572,15.725-8.232,23.881
	c-13.002-14.362-31.248-32.133-50.815-48.086c-19.589-15.971-36.142-26.717-50-33.843
	C362.321,276.308,408.811,308.785,425.777,321.415z M425.38,184.537c-10.154,0.639-65.299,5.324-118.768,33.612
	c16.319-14.816,34.899-28.636,54.485-40.393c28.663-17.204,57.553-28.938,84.479-34.434
	C437.314,156.723,430.626,170.895,425.38,184.537z M398.778,113.632c17.903-10.505,35.487-17.655,50.925-20.978
	c0.143,0.031,0.283,0.067,0.43,0.091c3.363,0.54,7.772,3.044,10.06,8.453c2.716,6.419,1.583,14.731-3.118,23.948
	c-57.862,7.385-116.309,41.528-157.981,78.328C338.551,154.815,374.337,127.972,398.778,113.632z M265.084,232.808v51.304
	c0,5.01-4.075,9.085-9.085,9.085c-5.01,0-9.085-4.075-9.085-9.085v-51.304c0-5.01,4.076-9.085,9.085-9.085
	C261.009,223.723,265.084,227.798,265.084,232.808z M94.46,345.362c-0.653-8.176-2.928-16.694-8.236-23.945
	c16.886-12.563,63.591-45.192,109.291-58.109C157.712,282.787,117.323,320.163,94.46,345.362z M101.515,241.893
	c-1.088-10.215-4.027-24.63-9.094-40.74c20.148,2.131,74.489,10.461,121.828,40.74H101.515z M66.423,143.321
	c26.926,5.497,55.816,17.23,84.479,34.434c19.588,11.756,38.166,25.576,54.485,40.393C151.919,189.86,96.774,185.176,86.62,184.536
	C81.374,170.895,74.685,156.723,66.423,143.321z M212.906,203.476c-41.672-36.8-100.12-70.942-157.981-78.328
	c-4.701-9.219-5.833-17.53-3.118-23.948c2.288-5.41,6.697-7.914,10.06-8.453c0.146-0.024,0.288-0.061,0.431-0.092
	c15.438,3.323,33.021,10.475,50.924,20.979C137.662,127.972,173.448,154.815,212.906,203.476z M71.588,229.985
	c-4.416-13.61-13.341-35.324-30.778-61.479c-14.269-21.405-27.099-43.83-24.386-62.825c1.225-8.572,9.018-12.23,15.34-13.789
	c2.343-0.577,4.845-0.964,7.482-1.176c-0.83,1.345-1.577,2.754-2.203,4.236c-3.324,7.859-6.475,24.503,9.773,47.686
	c23.831,34.003,35.871,77.041,38.569,99.024C78.962,240.631,73.604,236.198,71.588,229.985z M154.228,257.926h8.702
	c-10.796,4.575-22.061,10.114-33.773,16.627c-11.518,6.403-21.999,12.936-30.881,18.819c-0.033-2.462-0.375-4.893-1.046-7.269
	C104.642,279.341,124.042,264.146,154.228,257.926z M93.514,371.424c17.851-24.338,81.35-86.768,127.328-101.696
	c-46.079,34.51-90.645,94.664-112.586,126.605C105.995,385.339,100.984,376.903,93.514,371.424z M117.525,411.196
	c18.212-27.042,59.327-84.447,102.846-120.689l-77.905,127.48C136.765,414.709,128.212,411.26,117.525,411.196z M192.585,412.091
	c-6.115-0.914-16.572-1.74-28.064,0.55l70.304-115.044c1.104,1.728,2.413,3.311,3.894,4.718
	C233.912,317.693,213.335,381.272,192.585,412.091z M319.415,412.091c-20.74-30.807-41.326-94.397-46.136-109.774
	c1.48-1.407,2.79-2.99,3.894-4.717l70.304,115.043C335.987,410.351,325.531,411.176,319.415,412.091z M369.533,417.985
	l-77.936-127.53c19.504,16.211,40.553,38.366,62.86,66.194c17.105,21.338,31.222,41.464,40.025,54.545
	C383.789,411.257,375.235,414.708,369.533,417.985z M403.752,396.295c-22.156-32.338-66.324-91.931-112.415-126.448
	c17.983,5.927,40.435,19.547,65.262,39.789c27.304,22.261,51.695,47.861,61.886,61.789
	C411.023,376.898,406.016,385.321,403.752,396.295z M414.764,286.125c-0.667,2.367-1.007,4.791-1.041,7.244
	c-8.784-5.817-19.129-12.266-30.507-18.607c-11.846-6.602-23.234-12.212-34.145-16.834h8.7
	C387.762,264.109,407.305,279.365,414.764,286.125z M471.19,168.506c-17.437,26.155-26.362,47.869-30.778,61.479
	c-2.016,6.213-7.374,10.646-13.796,11.677c2.698-21.983,14.738-65.021,38.569-99.024c16.247-23.183,13.096-39.827,9.773-47.686
	c-0.626-1.482-1.373-2.891-2.203-4.236c2.637,0.212,5.139,0.597,7.482,1.176c6.322,1.559,14.115,5.217,15.34,13.789
	C497.18,116.907,495.336,132.288,471.19,168.506z"/>
<g>
</g>
<g>
</g>
<g>
</g>
<g>
</g>
<g>
</g>
<g>
</g>
<g>
</g>
<g>
</g>
<g>
</g>
<g>
</g>
<g>
</g>
<g>
</g>
<g>
</g>
<g>
</g>
<g>
</g>
</svg>
