<?xml version="1.0" encoding="iso-8859-1"?>
<!-- Generator: Adobe Illustrator 19.0.0, SVG Export Plug-In . SVG Version: 6.00 Build 0)  -->
<svg version="1.1" id="Layer_1" xmlns="http://www.w3.org/2000/svg" xmlns:xlink="http://www.w3.org/1999/xlink" x="0px" y="0px"
	 viewBox="0 0 511.996 511.996" style="enable-background:new 0 0 511.996 511.996;" xml:space="preserve">
<path style="fill:#FF9B46;" d="M60.035,307.304c0,0,26.812-43.023,57.008-64.134l130.405-14.965v68.409
	c0,25.119-35.273,111.698-53.445,125.595c0,0-14.609-11.223-29.929,6.948c0,0-12.827-28.148-35.986-8.551
	c0,0,9.976-39.193-27.435-15.322c0,0,13.54-48.813-21.022-36.698c0,0,17.815-35.986-16.033-30.642
	C63.599,337.946,88.897,306.591,60.035,307.304z"/>
<path style="fill:#FFB464;" d="M247.449,296.615v-17.102L143.059,413.73c13.641-0.689,21.017,15.428,21.017,15.428
	c15.322-18.171,29.929-6.948,29.929-6.948C212.175,408.314,247.449,321.734,247.449,296.615z"/>
<g>
	<circle style="fill:#946449;" cx="180.29" cy="364.041" r="7.141"/>
	<circle style="fill:#946449;" cx="136.733" cy="318.613" r="7.141"/>
	<circle style="fill:#946449;" cx="136.818" cy="285.125" r="7.141"/>
	<circle style="fill:#946449;" cx="153.921" cy="347.569" r="7.141"/>
</g>
<g>
	<path style="fill:#5A464B;" d="M164.075,429.158c15.322-18.171,29.929-6.948,29.929-6.948c5.014-3.834,11.338-13.303,17.856-25.388
		c-136.825-22.104-98.042-129.162-86.727-154.58l-8.089,0.929c-30.196,21.111-57.008,64.134-57.008,64.134
		c28.86-0.713,3.564,30.642,3.564,30.642c33.848-5.344,16.033,30.642,16.033,30.642c34.562-12.114,21.021,36.699,21.021,36.699
		c37.411-23.873,27.436,15.32,27.436,15.32C151.248,401.011,164.075,429.158,164.075,429.158z"/>
	<path style="fill:#5A464B;" d="M42.221,82.837c51.307,0,171.023,85.511,205.228,136.818v17.102c0,0-124.526,18.973-175.833,18.973
		c0,0-2.78-16.681-17.525-23.259c-3.094-1.381-5.333-4.28-5.365-7.668c-0.06-6.29-1.566-16.011-9.648-20.386
		c-2.889-1.564-4.794-4.345-4.784-7.63c0.015-5.374-1.467-13.381-9.198-18.982c-2.109-1.527-3.309-3.976-3.379-6.579
		c-0.127-4.727-1.819-12.37-10.319-18.029c-2.224-1.481-3.38-4.136-3.38-6.808v-29.348C8.017,99.939,16.568,82.837,42.221,82.837z"
		/>
</g>
<path style="fill:#E17837;" d="M72.79,255.717c19.36-25.044,93.824-108.346,174.659-27.511v8.551
	C247.449,236.757,124.772,255.444,72.79,255.717z"/>
<path style="fill:#E6DCD2;" d="M154.486,134.26c-11.408-7.924-23.016-15.378-34.415-22.012C50.72,120.728,67.34,185.45,67.34,185.45
	S94.913,138.614,154.486,134.26z"/>
<path style="fill:#FF9B46;" d="M451.965,307.304c0,0-26.812-43.023-57.008-64.134l-130.405-14.965v68.409
	c0,25.119,35.273,111.698,53.445,125.595c0,0,14.609-11.223,29.929,6.948c0,0,12.827-28.148,35.986-8.551
	c0,0-9.976-39.193,27.435-15.322c0,0-13.54-48.813,21.022-36.698c0,0-17.815-35.986,16.033-30.642
	C448.401,337.946,423.103,306.591,451.965,307.304z"/>
<path style="fill:#FFB464;" d="M264.551,296.615v-17.102l104.39,134.217c-13.641-0.689-21.017,15.428-21.017,15.428
	c-15.322-18.171-29.929-6.948-29.929-6.948C299.825,408.314,264.551,321.734,264.551,296.615z"/>
<g>
	<circle style="fill:#946449;" cx="331.71" cy="364.041" r="7.141"/>
	<circle style="fill:#946449;" cx="375.267" cy="318.613" r="7.141"/>
	<circle style="fill:#946449;" cx="375.182" cy="285.125" r="7.141"/>
	<circle style="fill:#946449;" cx="358.079" cy="347.569" r="7.141"/>
</g>
<g>
	<path style="fill:#5A464B;" d="M347.925,429.158c-15.322-18.171-29.929-6.948-29.929-6.948
		c-5.014-3.834-11.338-13.303-17.856-25.388c136.825-22.104,98.042-129.162,86.727-154.58l8.089,0.929
		c30.196,21.111,57.008,64.134,57.008,64.134c-28.86-0.713-3.564,30.642-3.564,30.642c-33.848-5.344-16.033,30.642-16.033,30.642
		c-34.562-12.114-21.021,36.699-21.021,36.699c-37.411-23.873-27.436,15.32-27.436,15.32
		C360.752,401.011,347.925,429.158,347.925,429.158z"/>
	<path style="fill:#5A464B;" d="M469.779,82.837c-51.307,0-171.023,85.511-205.228,136.818v17.102
		c0,0,124.526,18.973,175.833,18.973c0,0,2.78-16.681,17.524-23.259c3.094-1.381,5.333-4.28,5.365-7.668
		c0.06-6.29,1.566-16.011,9.648-20.386c2.889-1.564,4.794-4.345,4.784-7.63c-0.015-5.374,1.467-13.381,9.198-18.982
		c2.109-1.527,3.309-3.976,3.379-6.579c0.127-4.727,1.819-12.37,10.319-18.029c2.224-1.481,3.38-4.136,3.38-6.808v-29.348
		C503.983,99.939,495.432,82.837,469.779,82.837z"/>
</g>
<path style="fill:#E17837;" d="M439.211,255.717c-19.36-25.044-93.824-108.346-174.659-27.511v8.551
	C264.551,236.757,387.228,255.444,439.211,255.717z"/>
<path style="fill:#E6DCD2;" d="M357.514,134.26c11.408-7.924,23.016-15.378,34.415-22.012c69.351,8.48,52.731,73.202,52.731,73.202
	S417.087,138.614,357.514,134.26z"/>
<circle style="fill:#463246;" cx="256" cy="219.655" r="17.102"/>
<path style="fill:#5A464B;" d="M256,228.206L256,228.206c-9.446,0-17.102,7.656-17.102,17.102v68.409
	c0,9.446,7.656,17.102,17.102,17.102l0,0c9.446,0,17.102-7.656,17.102-17.102v-68.409C273.102,235.863,265.446,228.206,256,228.206z
	"/>
<path d="M469.779,74.82c-51.065,0-153.28,68.639-195.415,121.092c16.543-65.839,45.805-89.169,46.335-89.583
	c3.514-2.663,4.221-7.668,1.572-11.2c-2.656-3.541-7.68-4.26-11.223-1.603c-1.454,1.09-34.924,26.92-52.885,101.11
	c-0.714-0.061-1.434-0.099-2.163-0.099c-0.729,0-1.449,0.038-2.163,0.099c-17.961-74.19-51.431-100.02-52.885-101.11
	c-3.527-2.646-8.512-1.933-11.177,1.581c-2.666,3.512-1.976,8.533,1.52,11.219c0.308,0.236,29.743,23.499,46.349,89.619
	c-18.881-23.452-50.644-51.163-86.224-74.883C130.565,107.157,78.178,74.82,42.221,74.82C11.091,74.82,0,96.63,0,117.041v34.205
	c0,3.037,1.716,5.813,4.432,7.17c10.437,5.218,9.481,13.539,9.133,15.345c-0.971,3.667,0.828,7.273,4.229,8.972
	c10.755,5.378,8.406,16.605,8.12,17.796c-0.561,2.154-0.203,4.443,0.991,6.322c1.194,1.878,3.115,3.177,5.303,3.583
	c10.728,1.992,8.35,18.229,8.249,18.886c-0.687,4.213,2.047,8.224,6.218,9.126c14.063,3.041,16.929,18.018,17.035,18.601
	c0.645,3.866,3.988,6.699,7.908,6.699c4.754,0,10.035-0.157,15.703-0.443c-17.907,17.86-32.917,38.131-33.737,39.246
	c-1.815,2.464-2.069,5.745-0.655,8.459c1.414,2.714,4.277,4.38,7.307,4.31c3.522-0.083,5.1,0.45,5.625,0.694
	c0.359,2.79-3.705,10.927-8.499,16.9c-2.082,2.58-2.36,6.176-0.701,9.047c1.66,2.87,4.914,4.424,8.191,3.906
	c6.528-1.029,9.819-0.077,10.653,1.053c2.002,2.711,0.034,11.807-3.054,18.113c-1.446,2.921-0.98,6.426,1.18,8.868
	c2.16,2.441,5.582,3.334,8.657,2.254c5.058-1.772,8.841-1.967,10.378-0.532c4.012,3.744,2.702,18.655,0.266,27.522
	c-0.887,3.199,0.29,6.614,2.959,8.589c2.669,1.974,6.28,2.098,9.078,0.312c10.78-6.878,14.843-6.515,15.47-6.397
	c1.068,1.45,1.229,7.585-0.115,12.983c-0.86,3.379,0.562,6.925,3.518,8.775c2.958,1.848,6.768,1.574,9.43-0.677
	c4.716-3.99,8.899-5.622,12.44-4.847c5.579,1.22,9.897,8.094,11.073,10.602c1.139,2.501,3.481,4.245,6.204,4.618
	c0.364,0.05,0.729,0.075,1.091,0.075c2.344,0,4.593-1.029,6.128-2.85c9.292-11.021,16.777-7.242,18.959-5.723
	c2.872,2.343,6.761,2.232,9.71-0.025c13.474-10.303,26.747-40.786,31.828-53.413c4.811-11.956,9.821-26.506,12.975-39.572
	c3.644,2.061,7.846,3.243,12.322,3.243s8.678-1.182,12.322-3.243c3.154,13.065,8.164,27.616,12.975,39.572
	c5.082,12.627,18.354,43.11,31.828,53.413c2.88,2.202,6.878,2.199,9.754-0.011c0.018-0.014,2.122-1.431,5.101-1.717
	c4.61-0.45,9.26,2.073,13.814,7.476c1.535,1.82,3.784,2.85,6.128,2.85c0.362,0,0.727-0.025,1.091-0.075
	c2.722-0.374,5.064-2.116,6.204-4.618c0.87-1.91,5.294-9.308,11.029-10.593c3.549-0.797,7.751,0.832,12.484,4.838
	c2.656,2.247,6.456,2.516,9.409,0.678c2.954-1.837,4.384-5.381,3.542-8.755c-1.35-5.417-1.188-11.552-0.121-13.002
	c0.627-0.12,4.688-0.482,15.47,6.397c2.796,1.784,6.401,1.657,9.07-0.312c2.669-1.969,3.849-5.382,2.97-8.58
	c-2.439-8.876-3.749-23.787,0.264-27.531c1.537-1.435,5.322-1.241,10.378,0.532c3.07,1.075,6.482,0.182,8.642-2.249
	c2.16-2.432,2.633-5.936,1.203-8.858c-3.096-6.321-5.063-15.418-3.061-18.128c0.834-1.13,4.126-2.082,10.653-1.053
	c3.278,0.519,6.521-1.037,8.182-3.9c1.661-2.865,1.386-6.46-0.686-9.044c-4.8-5.98-8.864-14.118-8.505-16.908
	c0.525-0.244,2.097-0.776,5.625-0.693c3.048,0.076,5.894-1.597,7.307-4.31c1.413-2.713,1.16-5.995-0.655-8.459
	c-0.821-1.114-15.83-21.385-33.737-39.246c5.667,0.285,10.949,0.443,15.703,0.443c3.92,0,7.263-2.833,7.908-6.699
	c0.026-0.155,2.745-15.512,17.035-18.601c4.145-0.896,6.87-4.901,6.223-9.093c-0.107-0.69-2.485-16.927,8.243-18.919
	c2.188-0.406,4.109-1.705,5.303-3.583c1.194-1.879,1.552-4.169,0.991-6.322c-0.129-0.496-3.042-12.215,8.12-17.796
	c3.399-1.7,5.199-5.305,4.229-8.972c-0.348-1.806-1.303-10.127,9.133-15.345c2.716-1.357,4.432-4.133,4.432-7.17v-34.205
	C512,96.63,500.909,74.82,469.779,74.82z M389.721,121.632c19.431,1.884,33.251,8.433,41.058,19.504
	c5.329,7.557,7.239,16.315,7.674,23.887c-12.136-12.88-32.561-29.763-60.375-36.223C382.003,126.3,385.887,123.911,389.721,121.632z
	 M279.065,229.592c0.876-2.027,1.491-4.19,1.806-6.45c20.434-20.841,42.05-30.421,64.273-28.485
	c37.084,3.236,67.651,37.24,79.672,52.595C376.865,244.752,298.832,232.725,279.065,229.592z M265.086,219.655
	c0,5.01-4.076,9.086-9.086,9.086c-5.01,0-9.086-4.076-9.086-9.086s4.076-9.086,9.086-9.086
	C261.01,210.569,265.086,214.645,265.086,219.655z M87.185,247.254c12.02-15.354,42.586-49.359,79.671-52.595
	c22.224-1.938,43.839,7.642,64.273,28.484c0.315,2.26,0.93,4.423,1.806,6.45C213.168,232.725,135.136,244.752,87.185,247.254z
	 M133.923,128.799c-27.814,6.459-48.238,23.342-60.374,36.223c0.434-7.572,2.344-16.329,7.673-23.886
	c7.807-11.072,21.628-17.62,41.059-19.504C126.113,123.911,129.997,126.3,133.923,128.799z M56.746,224.867
	c-0.018-2.511-0.229-5.486-0.857-8.577c-1.842-9.067-6.556-15.682-13.545-19.22c0.05-8.125-2.691-18.639-12.58-25.782
	c-0.158-7.464-3.243-17.535-13.732-24.631v-29.617c0.001-11.947,4.544-26.188,26.189-26.188c14.062,0,34.553,6.717,58.241,18.733
	c-14.162,4.376-25.032,11.875-32.433,22.436c-16.779,23.942-8.771,54.26-8.422,55.539c0.836,3.06,3.396,5.34,6.532,5.815
	c0.402,0.061,0.804,0.091,1.202,0.091c2.711,0,5.273-1.377,6.759-3.708c0.295-0.463,29.634-45.594,79.806-47.539
	c20.062,14.191,38.356,29.352,52.978,43.757c-13.409-6.089-27.271-8.537-41.489-7.286c-44.979,3.961-79.66,43.872-92.132,60.288
	C69.821,233.633,64.601,228.162,56.746,224.867z M192.617,412.448c-6.998-2.617-17.009-3.096-27.09,4.335
	c-3.652-4.341-9.036-8.919-16.267-10.54c-4.031-0.903-8.094-0.794-12.166,0.317c-0.625-5.245-2.578-10.551-7.272-13.944
	c-5.588-4.042-12.46-3.518-18.65-1.529c0.643-9.451-0.481-20.559-7.551-27.173c-2.567-2.402-6.467-4.713-12.157-5.169
	c1.443-6.893,1.573-15.046-3.039-21.321c-2.542-3.458-6.038-5.805-10.459-7.031c3.349-6.798,5.574-14.937,2.252-21.671
	c-1.093-2.217-2.95-4.627-6.104-6.458c7.538-9.367,19.719-23.673,32.157-34.853c-4.731,19.901-8.949,55.125,9.037,85.622
	c15.447,26.192,43.709,42.948,84.07,49.894C196.987,406.812,194.705,410.037,192.617,412.448z M215.828,369.18
	c-2.715,6.747-5.534,13.074-8.336,18.803c-38.379-5.563-64.724-20.022-78.326-43.013c-19.263-32.56-7.807-73.756-4.205-84.694
	c41.959-4.298,88.695-11.407,107.203-14.323c-0.827,2.488-1.282,5.145-1.282,7.907v59.858
	C230.881,324.517,224.831,346.805,215.828,369.18z M256,322.803c-5.01,0-9.086-4.076-9.086-9.086V253.86
	c0-5.01,4.076-9.086,9.086-9.086c5.01,0,9.086,4.076,9.086,9.086v59.858C265.086,318.728,261.01,322.803,256,322.803z
	 M281.119,313.718V253.86c0-2.762-0.454-5.418-1.282-7.907c18.508,2.916,65.243,10.025,107.203,14.323
	c3.603,10.938,15.059,52.133-4.205,84.694c-13.602,22.991-39.948,37.451-78.326,43.013c-2.803-5.729-5.621-12.056-8.336-18.803
	C287.169,346.805,281.119,324.517,281.119,313.718z M437.886,302.267c-3.152,1.831-5.01,4.241-6.102,6.457
	c-3.322,6.734-1.097,14.873,2.252,21.671c-4.42,1.225-7.916,3.572-10.459,7.03c-4.612,6.275-4.482,14.428-3.039,21.321
	c-5.689,0.457-9.589,2.767-12.156,5.169c-7.071,6.614-8.194,17.722-7.551,27.173c-6.19-1.988-13.063-2.512-18.65,1.529
	c-4.694,3.394-6.645,8.699-7.272,13.944c-4.072-1.113-8.135-1.221-12.166-0.317c-7.231,1.622-12.615,6.2-16.267,10.539
	c-10.083-7.432-20.093-6.953-27.091-4.334c-2.089-2.411-4.371-5.637-6.76-9.523c40.361-6.946,68.623-23.703,84.071-49.894
	c17.985-30.496,13.768-65.719,9.037-85.619C418.159,278.586,430.344,292.897,437.886,302.267z M495.967,146.657
	c-10.489,7.095-13.573,17.166-13.732,24.631c-9.888,7.142-12.63,17.657-12.58,25.782c-6.99,3.538-11.703,10.153-13.545,19.22
	c-0.627,3.092-0.839,6.066-0.857,8.577c-7.853,3.295-13.075,8.766-16.517,14.113c-12.471-16.417-47.153-56.326-92.132-60.288
	c-14.219-1.25-28.082,1.198-41.493,7.29c14.621-14.407,32.918-29.569,52.982-43.762c49.949,1.949,79.517,47.088,79.807,47.539
	c1.486,2.332,4.049,3.708,6.759,3.708c0.399,0,0.802-0.03,1.203-0.091c3.136-0.475,5.697-2.755,6.532-5.815
	c0.35-1.278,8.357-31.598-8.422-55.539c-7.401-10.561-18.272-18.059-32.433-22.436c23.689-12.015,44.179-18.732,58.242-18.732
	c21.645,0,26.188,14.241,26.188,26.188V146.657z"/>
<g>
</g>
<g>
</g>
<g>
</g>
<g>
</g>
<g>
</g>
<g>
</g>
<g>
</g>
<g>
</g>
<g>
</g>
<g>
</g>
<g>
</g>
<g>
</g>
<g>
</g>
<g>
</g>
<g>
</g>
</svg>
