<?xml version="1.0" encoding="iso-8859-1"?>
<!-- Generator: Adobe Illustrator 19.0.0, SVG Export Plug-In . SVG Version: 6.00 Build 0)  -->
<svg version="1.1" id="Layer_1" xmlns="http://www.w3.org/2000/svg" xmlns:xlink="http://www.w3.org/1999/xlink" x="0px" y="0px"
	 viewBox="0 0 512 512" style="enable-background:new 0 0 512 512;" xml:space="preserve">
<path style="fill:#463246;" d="M461.228,52.685c25.239-9.708,42.756,0,42.756,17.102s-18.57,184.583-42.756,196.676
	c-17.102,8.551-42.756,8.551-42.756,8.551s42.756,24.266,42.756,51.307c0,34.205-59.858,111.165-59.858,111.165l-4.653,13.96
	c-2.328,6.983-8.863,11.694-16.225,11.694h-31.97c-4.769,0-9.274-1.982-12.536-5.461c-15.212-16.224-57.505-78.193-71.435-182.664
	v-25.653C264.551,249.361,350.063,95.44,461.228,52.685z"/>
<path style="fill:#618CA9;" d="M412.733,78.848L412.733,78.848c13.136,2.939,38.136,15.024,31.217,67.583
	c-15.596,118.475-96.624,193.009-156.096,224.081c-9.697-26.336-18.324-58.149-23.303-95.497v-25.653
	C264.551,249.361,326.148,138.537,412.733,78.848z"/>
<path style="fill:#73C8EB;" d="M377.944,106.515c12.78,5.607,28.653,20.559,21.757,60.523
	c-13.727,79.55-69.482,144.945-118.996,181.998c-6.677-21.69-12.448-46.241-16.153-74.022v-25.653
	C264.551,249.361,310.124,167.429,377.944,106.515z"/>
<g>
	<circle style="fill:#594759;" cx="429.161" cy="330.245" r="6.948"/>
	<circle style="fill:#594759;" cx="397.094" cy="390.809" r="6.948"/>
	<circle style="fill:#594759;" cx="349.079" cy="426.178" r="6.948"/>
	<circle style="fill:#594759;" cx="415.618" cy="363.199" r="6.948"/>
	<circle style="fill:#594759;" cx="375" cy="413.704" r="6.948"/>
</g>
<g>
	<path style="fill:#463246;" d="M362.775,120.793c12.213,17.389,38.595,17.402,38.595,17.402
		c-51.307,25.653-17.102,68.409-17.102,68.409s-68.542,27.425-119.716,57.716v-14.96
		C264.551,249.361,303.421,179.47,362.775,120.793z"/>
	<path style="fill:#463246;" d="M50.772,52.685c-25.239-9.708-42.756,0-42.756,17.102s18.57,184.583,42.756,196.676
		c17.102,8.551,42.756,8.551,42.756,8.551s-42.756,24.266-42.756,51.307c0,34.205,59.858,111.165,59.858,111.165l4.653,13.96
		c2.328,6.983,8.863,11.694,16.225,11.694h31.97c4.769,0,9.274-1.982,12.536-5.461c15.212-16.224,57.505-78.193,71.435-182.664
		v-25.653C247.449,249.361,161.937,95.44,50.772,52.685z"/>
</g>
<path style="fill:#618CA9;" d="M99.267,78.848L99.267,78.848c-13.136,2.939-38.136,15.024-31.217,67.583
	c15.596,118.475,96.624,193.009,156.096,224.081c9.697-26.336,18.324-58.149,23.303-95.497v-25.653
	C247.449,249.361,185.852,138.537,99.267,78.848z"/>
<path style="fill:#73C8EB;" d="M134.056,106.515c-12.78,5.607-28.653,20.559-21.757,60.523
	c13.727,79.55,69.482,144.945,118.996,181.998c6.677-21.69,12.448-46.241,16.153-74.022v-25.653
	C247.449,249.361,201.876,167.429,134.056,106.515z"/>
<g>
	<circle style="fill:#594759;" cx="82.839" cy="330.245" r="6.948"/>
	<circle style="fill:#594759;" cx="114.906" cy="390.809" r="6.948"/>
	<circle style="fill:#594759;" cx="162.921" cy="426.178" r="6.948"/>
	<circle style="fill:#594759;" cx="96.382" cy="363.199" r="6.948"/>
	<circle style="fill:#594759;" cx="137" cy="413.704" r="6.948"/>
</g>
<g>
	<path style="fill:#463246;" d="M149.225,120.793c-12.213,17.389-38.595,17.402-38.595,17.402
		c51.307,25.653,17.102,68.409,17.102,68.409s68.542,27.425,119.716,57.716v-14.96C247.449,249.361,208.579,179.47,149.225,120.793z
		"/>
	<path style="fill:#463246;" d="M256,283.566L256,283.566c9.446,0,17.102-7.656,17.102-17.102v-17.102
		c0-9.446-7.656-17.102-17.102-17.102l0,0c-9.446,0-17.102,7.656-17.102,17.102v17.102C238.898,275.908,246.554,283.566,256,283.566
		z"/>
</g>
<path d="M500.111,46.524c-10.313-7.082-25.535-7.565-41.762-1.322c-59.109,22.734-108.294,73.776-139.147,112.59
	c-24.293,30.562-41.06,57.992-48.635,71.125c-1.735-1.24-3.632-2.265-5.656-3.036c3.31-13.216,15.518-32.368,30.962-47.812
	c3.131-3.131,3.131-8.206,0-11.337c-3.131-3.131-8.207-3.131-11.337,0c-10.719,10.719-21.49,24.604-28.536,38.297
	c-7.045-13.694-17.817-27.579-28.536-38.297c-3.131-3.131-8.207-3.131-11.337,0c-3.131,3.131-3.131,8.206,0,11.337
	c15.443,15.443,27.651,34.596,30.962,47.812c-2.023,0.771-3.92,1.796-5.656,3.036c-7.575-13.133-24.343-40.563-48.635-71.125
	c-30.853-38.814-80.038-89.855-139.147-112.59c-16.228-6.242-31.449-5.76-41.762,1.322C4.222,51.79,0,60.051,0,69.787
	c0,9.545,4.837,56.52,12.419,101.548c13.84,82.183,25.851,97.84,34.768,102.298c7.353,3.677,15.969,5.915,23.766,7.279
	c-13.122,10.672-28.197,26.95-28.197,45.409c0,34.649,51.412,102.94,60.7,114.994l4.222,12.666
	c3.425,10.273,13.002,17.175,23.83,17.175h31.97c6.92,0,13.62-2.914,18.384-7.994c17.046-18.179,57.637-70.811,72.556-171.635
	c0.524,0.032,1.05,0.055,1.582,0.055s1.058-0.022,1.582-0.055c14.921,100.824,55.512,153.457,72.557,171.635
	c4.764,5.08,11.465,7.994,18.384,7.994h31.97c10.829,0,20.405-6.902,23.83-17.176l4.222-12.665
	c9.289-12.055,60.7-80.346,60.7-114.994c0-18.459-15.076-34.737-28.197-45.409c7.795-1.363,16.412-3.602,23.766-7.279
	c8.918-4.458,20.928-20.115,34.768-102.298C507.163,126.307,512,79.332,512,69.787C512,60.051,507.778,51.79,500.111,46.524z
	 M331.944,167.53c9.137-11.482,19.936-24.074,32.132-36.626c4.658,5.569,10.796,9.113,16.746,11.368
	c-7.786,6.977-12.724,15.101-14.743,24.292c-3.073,13.994,1.555,27.061,5.917,35.486c-17.501,5.788-54.981,19.531-91.279,41.533
	C284.011,237.558,302.556,204.46,331.944,167.53z M180.056,167.53c29.388,36.93,47.932,70.029,51.228,76.053
	c-36.3-22.002-73.778-35.745-91.279-41.533c4.362-8.425,8.99-21.492,5.917-35.486c-2.019-9.19-6.957-17.315-14.743-24.292
	c5.951-2.254,12.088-5.798,16.746-11.368C160.12,143.456,170.919,156.048,180.056,167.53z M170.166,452.194
	c-1.77,1.889-4.145,2.928-6.688,2.928h-31.97c-3.917,0-7.381-2.497-8.62-6.212l-4.653-13.96c-0.288-0.863-0.719-1.67-1.277-2.387
	c-0.148-0.189-14.9-19.207-29.493-42.138c-18.493-29.057-28.676-51.824-28.676-64.104c0-10.917,10.045-22.128,18.473-29.612
	c9.946-8.831,20.127-14.668,20.223-14.723c3.163-1.796,4.718-5.495,3.792-9.013c-0.926-3.518-4.107-5.971-7.744-5.976
	c-0.238,0-24.013-0.123-39.174-7.704c-0.488-0.257-12.115-7.258-26.177-90.9c-7.559-44.966-12.149-90.563-12.149-98.608
	c0-4.418,1.66-7.798,4.933-10.045c5.805-3.986,15.872-3.827,26.929,0.425c11.595,4.459,22.806,10.121,33.566,16.606
	c-13.504,8.284-28.253,27.364-21.509,71.193c9.895,64.317,41.205,115.404,65.729,146.934c27.279,35.074,60.871,64.869,90.336,80.22
	C205.536,402.27,190.783,430.207,170.166,452.194z M221.506,359.881c-31.648-17.095-63.469-49.494-83.17-74.825
	c-23.357-30.031-53.167-78.614-62.538-139.529c-2.391-15.546-4.9-51.639,21.586-58.365c14.007,9.863,27.09,20.947,39.057,32.36
	c-2.739,3.898-7.35,6.833-13.774,8.726c-6.356,1.873-12.006,1.929-12.038,1.929c-3.719,0-6.948,2.557-7.802,6.175
	c-0.854,3.618,0.891,7.349,4.217,9.012c13.232,6.616,21.037,14.876,23.196,24.55c3.537,15.847-8.661,31.544-8.768,31.68
	c-1.676,2.095-2.193,4.889-1.378,7.446c0.816,2.556,2.855,4.534,5.434,5.271c0.573,0.164,56.465,16.346,105.351,47.93v4.22
	c0,7.372,3.193,14.012,8.269,18.612C237.099,299.588,232.104,328.283,221.506,359.881z M246.914,266.463v-17.102
	c0-5.01,4.076-9.086,9.086-9.086c5.01,0,9.086,4.076,9.086,9.086v17.102c0,5.01-4.076,9.086-9.086,9.086
	C250.99,275.549,246.914,271.473,246.914,266.463z M281.119,266.463v-4.22c48.812-31.535,104.779-47.767,105.352-47.93
	c2.57-0.735,4.595-2.714,5.416-5.257c0.821-2.543,0.312-5.34-1.344-7.437c-0.124-0.156-12.322-15.854-8.785-31.701
	c2.159-9.675,9.963-17.934,23.196-24.55c3.318-1.659,5.052-5.375,4.21-8.988c-0.841-3.612-4.063-6.176-7.772-6.199
	c-0.057,0-5.707-0.057-12.062-1.929c-6.424-1.893-11.035-4.828-13.774-8.726c11.967-11.414,25.051-22.498,39.057-32.36
	c26.486,6.725,23.979,42.818,21.586,58.365c-9.372,60.915-39.181,109.499-62.538,139.529c-29.464,37.883-61.518,63.018-83.172,74.82
	c-10.596-31.598-15.591-60.289-17.642-74.802C277.926,280.475,281.119,273.835,281.119,266.463z M483.816,168.394
	c-14.062,83.641-25.689,90.642-26.174,90.899c-15.164,7.582-38.939,7.705-39.171,7.705c-3.637,0-6.815,2.45-7.747,5.965
	c-0.931,3.517,0.624,7.219,3.785,9.019c0.102,0.059,10.284,5.895,20.229,14.726c8.427,7.483,18.473,18.695,18.473,29.612
	c0,25.783-41.99,85.435-58.169,106.244c-0.558,0.717-0.99,1.524-1.277,2.386l-4.653,13.959c-1.239,3.717-4.702,6.213-8.62,6.213
	h-31.97c-2.543,0-4.918-1.04-6.688-2.928c-20.618-21.987-35.371-49.925-45.852-77.074c29.465-15.351,63.057-45.147,90.336-80.22
	c24.524-31.53,55.835-82.617,65.729-146.934c6.744-43.83-8.006-62.909-21.509-71.193c10.761-6.485,21.971-12.147,33.566-16.606
	c11.057-4.253,21.123-4.412,26.929-0.425c3.273,2.249,4.933,5.629,4.933,10.045C495.967,77.831,491.377,123.428,483.816,168.394z"/>
<g>
</g>
<g>
</g>
<g>
</g>
<g>
</g>
<g>
</g>
<g>
</g>
<g>
</g>
<g>
</g>
<g>
</g>
<g>
</g>
<g>
</g>
<g>
</g>
<g>
</g>
<g>
</g>
<g>
</g>
</svg>
