<?xml version="1.0" encoding="iso-8859-1"?>
<!-- Generator: Adobe Illustrator 19.0.0, SVG Export Plug-In . SVG Version: 6.00 Build 0)  -->
<svg version="1.1" id="Layer_1" xmlns="http://www.w3.org/2000/svg" xmlns:xlink="http://www.w3.org/1999/xlink" x="0px" y="0px"
	 viewBox="0 0 511.997 511.997" style="enable-background:new 0 0 511.997 511.997;" xml:space="preserve">
<path style="fill:#594759;" d="M349.873,253.15c0,0,85.339,8.534,85.339,68.271c0,60.619-69.109,89.342-98.236,98.756
	c-7.375,2.384-15.392-0.574-19.553-7.113l-61.421-91.643V253.15H349.873z"/>
<g>
	<path style="fill:#6B5B6B;" d="M256.001,261.683h17.068c30.112,30.112,20.428,86.79,41.147,146.597l-58.215-86.86V261.683z"/>
	<path style="fill:#6B5B6B;" d="M307.204,253.15h42.669c0,0,85.339,8.534,85.339,68.271c0,12.378-2.987,23.359-7.821,33.185
		l-0.713,0.95C426.678,278.751,307.204,253.15,307.204,253.15z"/>
</g>
<path style="fill:#73D2E1;" d="M346.317,273.061l28.802,15.289c7.431,72.114-50.136,129.786-50.136,129.786
	C292.98,332.443,346.317,273.061,346.317,273.061z"/>
<path style="fill:#463246;" d="M497.676,107.555c4.265,1.028,6.919,5.295,6.209,9.624c-1.832,11.184-8.938,33.564-15.994,52.109
	c-9.288,24.412-15.229,53.558-16.464,71.198c-0.58,8.29-6.961,14.909-15.23,15.742c-24.505,2.472-121.43,5.454-183.13,5.454
	l-8.534-42.669C264.535,219.014,388.856,81.318,497.676,107.555z"/>
<path style="fill:#594759;" d="M499.571,134.386c-2.982,12.049-6.032,20.062-11.679,34.902
	c-9.288,24.412-15.229,53.558-16.464,71.198c-0.58,8.29-6.961,14.909-15.23,15.742c-14.508,1.464-54.42,3.101-97.355,4.198
	C363.553,247.093,406.224,135.544,499.571,134.386z"/>
<g>
	<circle style="fill:#639AAB;" cx="410.99" cy="158.259" r="10.519"/>
	<circle style="fill:#639AAB;" cx="393.88" cy="142.738" r="6.045"/>
</g>
<path style="fill:#73D2E1;" d="M364.654,246.032c7.641-17.282,22.471-45.78,45.512-69.687h23.446c9.601,0,11.472,7.853,8.267,11.467
	c-11.534,13.005-24.047,33.674-25.374,70.721c-16.747,0.7-36.683,1.356-57.36,1.885C360.532,256.56,362.375,251.64,364.654,246.032z
	"/>
<path style="fill:#594759;" d="M162.129,253.15c0,0-85.338,8.534-85.338,68.271c0,60.619,69.109,89.342,98.236,98.756
	c7.375,2.384,15.392-0.574,19.553-7.113l61.421-91.643V253.15H162.129z"/>
<g>
	<path style="fill:#6B5B6B;" d="M256.001,261.683h-17.068c-30.112,30.112-20.428,86.79-41.147,146.597l58.215-86.86V261.683z"/>
	<path style="fill:#6B5B6B;" d="M204.798,253.15h-42.669c0,0-85.338,8.534-85.338,68.271c0,12.378,2.987,23.359,7.821,33.185
		l0.713,0.95C85.323,278.751,204.798,253.15,204.798,253.15z"/>
</g>
<path style="fill:#73D2E1;" d="M165.684,273.061l-28.802,15.289c-7.431,72.114,50.136,129.786,50.136,129.786
	C219.02,332.443,165.684,273.061,165.684,273.061z"/>
<path style="fill:#463246;" d="M14.324,107.555c-4.265,1.028-6.919,5.295-6.209,9.624c1.832,11.184,8.938,33.564,15.993,52.109
	c9.288,24.412,15.229,53.558,16.464,71.198c0.58,8.29,6.961,14.909,15.23,15.742c24.505,2.472,121.43,5.454,183.13,5.454
	l8.534-42.669C247.467,219.014,123.146,81.318,14.324,107.555z"/>
<path style="fill:#594759;" d="M12.43,134.386c2.982,12.049,6.032,20.062,11.679,34.902c9.288,24.412,15.229,53.558,16.464,71.198
	c0.58,8.29,6.961,14.909,15.23,15.742c14.508,1.464,54.42,3.101,97.355,4.198C148.448,247.093,105.777,135.544,12.43,134.386z"/>
<path style="fill:#463246;" d="M256.001,193.413c-9.426,0-17.068,7.641-17.068,17.068v30.047h34.135V210.48
	C273.069,201.054,265.426,193.413,256.001,193.413z"/>
<path style="fill:#594759;" d="M256.001,329.954L256.001,329.954c-14.14,0-25.602-11.462-25.602-25.602V253.15
	c0-14.14,11.462-25.602,25.602-25.602l0,0c14.14,0,25.602,11.462,25.602,25.602v51.203
	C281.602,318.492,270.139,329.954,256.001,329.954z"/>
<g>
	<circle style="fill:#639AAB;" cx="101.009" cy="158.259" r="10.519"/>
	<circle style="fill:#639AAB;" cx="118.13" cy="142.738" r="6.045"/>
</g>
<path style="fill:#73D2E1;" d="M147.347,246.032c-7.641-17.282-22.471-45.78-45.512-69.687H78.389
	c-9.601,0-11.472,7.853-8.267,11.467c11.533,13.005,24.047,33.674,25.374,70.721c16.747,0.7,36.683,1.356,57.36,1.885
	C151.469,256.56,149.625,251.64,147.347,246.032z"/>
<path d="M499.552,99.778c-26.269-6.333-54.98-4.593-85.33,5.176c-23.873,7.684-48.825,20.339-74.163,37.615
	c-29.255,19.946-51.987,41.18-63.861,53.084c-0.738-1.003-1.547-1.95-2.423-2.831l49.119-98.237
	c1.977-3.952,0.374-8.758-3.578-10.733c-3.95-1.975-8.757-0.374-10.733,3.578l-49.114,98.229c-1.134-0.158-2.29-0.245-3.467-0.245
	c-1.177,0-2.333,0.087-3.467,0.245L203.42,87.429c-1.977-3.952-6.78-5.554-10.733-3.578c-3.952,1.977-5.554,6.781-3.578,10.733
	l49.119,98.237c-0.876,0.881-1.684,1.828-2.423,2.831c-11.874-11.904-34.606-33.137-63.861-53.084
	c-25.338-17.276-50.291-29.931-74.163-37.615c-30.347-9.768-59.059-11.51-85.33-5.176c-8.25,1.988-13.622,10.2-12.231,18.694
	c2.079,12.694,9.964,36.715,16.412,53.661c9.375,24.641,14.846,52.995,15.96,68.912c0.853,12.186,10.278,21.92,22.408,23.144
	c8.188,0.826,23.743,1.727,43.226,2.557c-19.308,11.809-29.438,30.518-29.438,54.674c0,28.829,13.911,54.044,41.348,74.944
	c21.197,16.147,45.649,26.002,62.428,31.424c2.516,0.813,5.088,1.204,7.63,1.204c8.375,0,16.43-4.245,21.133-11.635l46.671-73.34
	v20.072c0,4.418,3.582,8,8,8s8-3.582,8-8v-20.072l46.671,73.34c4.703,7.39,12.758,11.635,21.133,11.635
	c2.542,0,5.114-0.392,7.63-1.204c16.78-5.423,41.231-15.278,62.428-31.424c27.436-20.9,41.348-46.115,41.348-74.944
	c0-24.156-10.13-42.867-29.438-54.674c19.484-0.83,35.039-1.731,43.226-2.557c12.131-1.224,21.554-10.956,22.408-23.144
	c1.116-15.917,6.586-44.27,15.96-68.912c6.447-16.946,14.333-40.967,16.412-53.661C513.173,109.978,507.801,101.767,499.552,99.778z
	 M349.071,155.789c37.485-25.557,93.368-53.322,146.73-40.457c0.058,0.014,0.241,0.243,0.19,0.554
	c-0.419,2.56-1.18,5.913-2.204,9.809c-40.662,0.436-78.284,23.708-108.865,67.396c-17.048,24.355-27.412,48.451-31.747,59.635
	c-21.704,0.525-44.102,0.877-64.545,0.945c-1.328-5.407-3.966-10.303-7.561-14.332v-25.721
	C288.285,205.965,314.082,179.645,349.071,155.789z M370.665,252.262c6.623-15.644,20.35-43.885,41.493-67.917h21.303
	c-9.692,12.378-22.694,34.82-23.289,66.547C398.153,251.388,384.725,251.857,370.665,252.262z M367.866,291.761
	c2.385,28.623-4.775,56.753-21.319,83.669c-6.227,10.13-12.737,18.258-17.859,24.003c-8.049-38.937-2.791-67.698,3.501-85.604
	c6.001-17.079,13.943-27.493,17.043-31.143C355.233,285.339,361.56,288.368,367.866,291.761z M144.15,291.754
	c6.304-3.392,12.629-6.42,18.628-9.071c6.581,7.703,35.19,46.125,20.541,116.745C167.925,382.114,139.913,343.034,144.15,291.754z
	 M101.829,250.891c-0.595-31.726-13.597-54.169-23.289-66.547h21.446c4.7,5.372,9.292,11.241,13.771,17.617
	c13.396,19.072,22.553,38.354,27.593,50.301C127.285,251.857,113.851,251.388,101.829,250.891z M178.192,276.339
	c9.495-3.627,16.672-5.879,19.236-6.655h24.97v34.669c0,11.376,5.687,21.441,14.361,27.524l-35.067,55.104
	C209.82,326.899,188.693,290.328,178.192,276.339z M238.4,304.353v-42.669c0-9.705,7.896-17.601,17.601-17.601
	c9.705,0,17.601,7.896,17.601,17.601v42.669c0,9.705-7.896,17.601-17.601,17.601C246.296,321.954,238.4,314.058,238.4,304.353z
	 M289.603,304.353v-34.669h24.97c2.564,0.777,9.741,3.028,19.236,6.655c-10.502,13.989-31.628,50.56-23.502,110.641l-35.067-55.104
	C283.915,325.794,289.603,315.728,289.603,304.353z M265.068,210.48v18.854c-2.887-0.811-5.926-1.253-9.067-1.253
	c-3.142,0-6.181,0.443-9.067,1.253V210.48c0-5,4.067-9.067,9.067-9.067C261.001,201.413,265.068,205.481,265.068,210.48z
	 M16.2,115.333c53.266-12.843,109.043,14.811,146.455,40.269c35.062,23.86,61.033,50.341,68.277,58.017v25.719
	c-3.595,4.028-6.233,8.924-7.561,14.332c-20.443-0.067-42.84-0.42-64.545-0.945c-4.336-11.184-14.7-35.28-31.747-59.635
	c-30.581-43.688-68.204-66.96-108.865-67.396c-1.024-3.896-1.785-7.248-2.204-9.809C15.959,115.575,16.142,115.347,16.2,115.333z
	 M48.553,239.927c-1.195-17.053-7.014-47.322-16.967-73.483c-3.123-8.211-6.091-16.728-8.602-24.572
	c21.72,1.36,42.111,10.227,60.972,26.473H73.403c-5.382,0-10.108,3.034-12.334,7.917c-2.244,4.925-1.424,10.534,2.142,14.637
	c9.985,11.485,21.819,30.971,22.602,59.272c-12.91-0.635-23.134-1.29-29.208-1.902C52.248,247.829,48.861,244.321,48.553,239.927z
	 M113.73,276.657c15.348-6.833,31.188-6.973,31.331-6.973h7.512c-24.798,11.395-54.02,28.9-67.773,52.237
	c-0.001-0.167-0.01-0.332-0.01-0.5C84.791,300.268,94.528,285.207,113.73,276.657z M93.198,354.004
	c-2.765-21.22,14.965-39.258,34.515-52.4c-0.089,28.24,8.224,56.548,24.412,82.697c6.937,11.206,14.112,20.099,19.753,26.369
	C148.888,402.589,110.176,384.975,93.198,354.004z M340.123,410.671c5.641-6.27,12.816-15.163,19.753-26.369
	c16.189-26.151,24.502-54.462,24.412-82.705c30.941,20.743,36.186,39.557,34.523,52.392
	C401.837,384.97,363.116,402.587,340.123,410.671z M427.211,321.42c0,0.167-0.009,0.333-0.01,0.5
	c-13.753-23.337-42.974-40.841-67.773-52.237h7.512c0.155,0,15.572,0.078,30.929,6.796
	C417.339,284.998,427.211,300.118,427.211,321.42z M463.448,239.927c-0.308,4.394-3.694,7.901-8.052,8.342
	c-6.074,0.612-16.299,1.267-29.208,1.902c0.783-28.301,12.617-47.786,22.602-59.272c3.566-4.103,4.386-9.712,2.142-14.637
	c-2.225-4.883-6.952-7.917-12.334-7.917h-10.325c16.75-14.358,36.962-24.929,60.74-26.457c-2.51,7.84-5.476,16.352-8.597,24.557
	C470.462,192.605,464.643,222.875,463.448,239.927z"/>
<g>
</g>
<g>
</g>
<g>
</g>
<g>
</g>
<g>
</g>
<g>
</g>
<g>
</g>
<g>
</g>
<g>
</g>
<g>
</g>
<g>
</g>
<g>
</g>
<g>
</g>
<g>
</g>
<g>
</g>
</svg>
