<?xml version="1.0" encoding="iso-8859-1"?>
<!-- Generator: Adobe Illustrator 19.0.0, SVG Export Plug-In . SVG Version: 6.00 Build 0)  -->
<svg version="1.1" id="Layer_1" xmlns="http://www.w3.org/2000/svg" xmlns:xlink="http://www.w3.org/1999/xlink" x="0px" y="0px"
	 viewBox="0 0 512 512" style="enable-background:new 0 0 512 512;" xml:space="preserve">
<g>
	<path style="fill:#E6DCD2;" d="M461.581,73.512c25.653,0,42.756,17.102,42.756,42.756c0,34.205-51.307,145.37-94.063,145.37
		c-34.205,0-136.818,0-136.818,0v-25.653C273.456,235.984,367.519,73.512,461.581,73.512z"/>
	<path style="fill:#E6DCD2;" d="M349.71,261.637c17.102,0,102.614,51.307,111.165,102.614c7.168,43.009-41.337,91.006-94.063,68.409
		c-59.858-25.653-102.614-128.267-102.614-153.921v-17.102H349.71L349.71,261.637z"/>
</g>
<path style="fill:#CFC1B4;" d="M265.272,287.291c-0.635-3.31-1.073-6.312-1.073-8.551v-17.102h85.511
	c7.558,0,28.477,10.041,50.209,25.653H265.272z"/>
<path style="fill:#F59A90;" d="M408.089,293.397c24.732,19.275,48.486,45.057,52.785,70.854
	c7.168,43.009-41.337,91.006-94.063,68.409c-20.233-8.671-38.437-26.204-53.773-46.517
	C300.539,307.799,367.49,279.953,408.089,293.397z"/>
<path style="fill:#FF6E64;" d="M371.622,347.683c22.992-26.5,64,5.621,79.813-7.585c4.64,7.923,8.085,16.025,9.44,24.153
	c6.954,41.725-38.508,87.944-89.37,70.047C373.169,417.643,345.152,378.191,371.622,347.683z"/>
<circle style="fill:#5A464B;" cx="435.927" cy="355.696" r="17.102"/>
<g>
	<path style="fill:#E6DCD2;" d="M50.419,73.512c-25.653,0-42.756,17.102-42.756,42.756c0,34.205,51.307,145.37,94.063,145.37
		c34.205,0,136.818,0,136.818,0v-25.653C238.544,235.984,144.481,73.512,50.419,73.512z"/>
	<path style="fill:#E6DCD2;" d="M162.29,261.637c-17.102,0-102.614,51.307-111.165,102.614
		c-7.168,43.009,41.337,91.006,94.063,68.409c59.858-25.653,102.614-128.267,102.614-153.921v-17.102H162.29L162.29,261.637z"/>
</g>
<path style="fill:#CFC1B4;" d="M246.728,287.291c0.635-3.31,1.073-6.312,1.073-8.551v-17.102H162.29
	c-7.558,0-28.477,10.041-50.209,25.653H246.728z"/>
<path style="fill:#F59A90;" d="M103.911,293.397c-24.732,19.275-48.486,45.057-52.785,70.854
	c-7.168,43.009,41.337,91.006,94.063,68.409c20.233-8.671,38.437-26.204,53.773-46.517
	C211.461,307.799,144.51,279.953,103.911,293.397z"/>
<path style="fill:#FF6E64;" d="M140.378,347.683c-22.992-26.5-64,5.621-79.813-7.585c-4.64,7.923-8.085,16.025-9.44,24.153
	c-6.954,41.725,38.508,87.944,89.37,70.047C138.831,417.643,166.848,378.191,140.378,347.683z"/>
<path style="fill:#463246;" d="M255.647,287.291L255.647,287.291c-9.446,0-17.102-7.656-17.102-17.102v-17.102
	c0-9.446,7.656-17.102,17.102-17.102l0,0c9.446,0,17.102,7.656,17.102,17.102v17.102
	C272.75,279.633,265.092,287.291,255.647,287.291z"/>
<circle style="fill:#5A464B;" cx="76.073" cy="355.696" r="17.102"/>
<path d="M448.359,249.366c10.549-10.678,21.476-25.768,31.601-43.635c18.565-32.762,32.04-70.387,32.04-89.463
	c0-29.894-20.879-50.772-50.772-50.772c-41.443,0-87.409,28.88-136.618,85.839c-26.906,31.142-47.066,61.897-55.931,76.132
	l37.376-82.227c1.832-4.031,0.05-8.783-3.981-10.615c-4.031-1.833-8.783-0.049-10.615,3.981L256,216.61l-35.457-78.007
	c-1.832-4.031-6.588-5.813-10.615-3.981c-4.031,1.832-5.813,6.585-3.981,10.615l37.376,82.227
	c-8.865-14.234-29.025-44.989-55.931-76.132c-49.211-56.958-95.176-85.838-136.62-85.838C20.879,65.495,0,86.374,0,116.268
	c0,19.077,13.474,56.702,32.04,89.463c10.126,17.868,21.053,32.957,31.601,43.635c13.297,13.462,26.23,20.287,38.438,20.287h21.672
	c-8.348,5.093-17.11,11.137-25.543,17.737c-18.361,14.371-49.969,43.293-55.343,75.543c-4.014,24.086,7.212,50.499,28.6,67.288
	c13.74,10.785,29.592,16.285,45.895,16.284c10.172,0,20.52-2.141,30.633-6.476c27.723-11.881,52.716-36.362,74.286-72.76
	c11.159-18.83,19.763-38.263,25.705-54.712v51.694c0,4.427,3.589,8.017,8.017,8.017c4.427,0,8.017-3.589,8.017-8.017v-51.694
	c5.942,16.449,14.546,35.882,25.705,54.712c21.569,36.399,46.563,60.879,74.286,72.76c10.116,4.335,20.461,6.476,30.633,6.476
	c16.301,0,32.157-5.499,45.895-16.284c21.389-16.79,32.614-43.201,28.6-67.288c-5.374-32.25-36.982-61.172-55.342-75.542
	c-8.434-6.6-17.196-12.644-25.543-17.737h21.669C422.13,269.654,435.062,262.828,448.359,249.366z M246.914,270.189v-17.102
	c0-5.003,4.065-9.074,9.065-9.085c0.005,0,0.011,0.001,0.015,0.001c0.001,0,0.003,0,0.004,0c0.001,0,0.003,0,0.004,0
	c0.005,0,0.011-0.001,0.015-0.001c5,0.011,9.065,4.081,9.065,9.085v17.102c0,5.01-4.076,9.086-9.086,9.086
	C250.988,279.274,246.914,275.198,246.914,270.189z M102.079,253.621c-15.325,0-36.293-20.857-56.09-55.793
	c-18.751-33.091-29.956-67.455-29.956-81.56c0-21.103,13.636-34.739,34.739-34.739c83.615,0,172.559,143.718,182.667,160.525
	c-1.636,3.333-2.559,7.076-2.559,11.032v0.534H102.079z M76.426,346.614c5.01,0,9.086,4.076,9.086,9.086s-4.076,9.086-9.086,9.086
	s-9.086-4.076-9.086-9.086S71.416,346.614,76.426,346.614z M208.486,359.096c-19.52,32.94-42.622,55.83-66.808,66.197
	c-20.772,8.902-42.754,6.101-60.311-7.683c-14.651-11.5-23.29-28.45-23.278-44.77c4.588,4.905,11.109,7.979,18.338,7.979
	c13.851,0,25.119-11.268,25.119-25.119s-11.268-25.119-25.119-25.119c-0.027,0-0.053,0.002-0.081,0.002
	c7.301-9.127,17.497-19.416,31.744-30.566c25.473-19.935,48.596-30.363,53.849-30.363h68.944v0.534
	c0,7.223,3.068,13.737,7.964,18.324C234.022,306.312,223.807,333.239,208.486,359.096z M444.66,355.7
	c0,5.01-4.076,9.086-9.086,9.086s-9.086-4.076-9.086-9.086s4.076-9.086,9.086-9.086S444.66,350.69,444.66,355.7z M403.911,300.017
	c14.246,11.15,24.442,21.439,31.744,30.566c-0.027,0-0.053-0.002-0.081-0.002c-13.851,0-25.119,11.268-25.119,25.119
	s11.268,25.119,25.119,25.119c7.23,0,13.751-3.074,18.338-7.979c0.013,16.32-8.627,33.269-23.278,44.77
	c-17.558,13.784-39.542,16.585-60.311,7.683c-24.186-10.365-47.288-33.255-66.808-66.197c-15.322-25.855-25.537-52.783-30.36-70.583
	c4.896-4.587,7.964-11.102,7.964-18.324v-0.534h68.944C355.315,269.654,378.439,280.082,403.911,300.017z M281.119,253.621v-0.534
	c0-3.957-0.922-7.702-2.56-11.035c4.755-7.93,27.088-44.247,58.182-80.235c31.644-36.627,78.928-80.287,124.487-80.287
	c21.103,0,34.739,13.636,34.739,34.739c0,14.105-11.205,48.469-29.956,81.56c-19.797,34.936-40.765,55.793-56.09,55.793
	L281.119,253.621L281.119,253.621z"/>
<g>
</g>
<g>
</g>
<g>
</g>
<g>
</g>
<g>
</g>
<g>
</g>
<g>
</g>
<g>
</g>
<g>
</g>
<g>
</g>
<g>
</g>
<g>
</g>
<g>
</g>
<g>
</g>
<g>
</g>
</svg>
