<?xml version="1.0" encoding="iso-8859-1"?>
<!-- Generator: Adobe Illustrator 19.0.0, SVG Export Plug-In . SVG Version: 6.00 Build 0)  -->
<svg version="1.1" id="Layer_1" xmlns="http://www.w3.org/2000/svg" xmlns:xlink="http://www.w3.org/1999/xlink" x="0px" y="0px"
	 viewBox="0 0 512 512" style="enable-background:new 0 0 512 512;" xml:space="preserve">
<path style="fill:#463246;" d="M109.823,270.431c0,0-33.404,19.775-33.404,41.154c0,42.758,76.964,76.964,111.17,76.964
	S256,303.033,256,303.033v-32.603L109.823,270.431L109.823,270.431z"/>
<path style="fill:#5A464B;" d="M79.302,300.31c27.821-6.445,102.296-22.601,176.698-29.452v-0.427H109.823
	C109.823,270.431,87.388,283.735,79.302,300.31z"/>
<path style="fill:#463246;" d="M402.177,270.431c0,0,33.404,19.775,33.404,41.154c0,42.758-76.964,76.964-111.17,76.964
	S256,303.033,256,303.033v-32.603L402.177,270.431L402.177,270.431z"/>
<path style="fill:#5A464B;" d="M432.697,300.31c-27.821-6.445-102.296-22.601-176.698-29.452v-0.427h146.177
	C402.177,270.431,424.612,283.735,432.697,300.31z"/>
<path style="fill:#415D73;" d="M354.718,306.691l-60.435-36.261h-76.567l-60.435,36.261c-12.142,7.29-16.084,23.049-8.794,35.2
	c4.81,8.017,13.303,12.451,22.022,12.451c4.493,0,9.044-1.178,13.178-3.658l69.89-41.934c1.568-3.583,2.422-5.718,2.422-5.718
	s0.854,2.135,2.422,5.718l69.89,41.934c4.134,2.48,8.685,3.658,13.178,3.658c8.718,0,17.212-4.434,22.022-12.451
	C370.802,329.741,366.86,313.983,354.718,306.691z"/>
<path style="fill:#463246;" d="M256,277.379l-166.705-7.938c-8.122-0.387-15.558-4.571-20.081-11.328
	c-14.938-22.315-48.672-73.247-58.001-91.904c-8.552-17.103,0-42.758,25.655-42.758S179.036,174.761,256,277.379"/>
<path style="fill:#E6DCD2;" d="M142.84,240.93l47.476-33.088c-7.394-6.331-14.822-12.336-22.219-17.954l-43.793,18.102
	c-11.32,4.852-15.109,19.023-7.719,28.876C122.779,245.128,134.437,246.931,142.84,240.93z"/>
<path style="fill:#463246;" d="M256,277.379l166.705-7.938c8.122-0.387,15.558-4.571,20.081-11.328
	c14.938-22.315,48.672-73.247,58.001-91.904c8.551-17.103,0-42.758-25.655-42.758C449.478,123.452,332.963,174.761,256,277.379"/>
<path style="fill:#E6DCD2;" d="M369.16,240.93l-47.476-33.088c7.394-6.331,14.822-12.336,22.219-17.954l43.793,18.102
	c11.32,4.852,15.109,19.023,7.719,28.876C389.22,245.128,377.563,246.931,369.16,240.93z"/>
<path d="M506.373,131.989c-6.597-10.675-17.692-16.555-31.241-16.555c-19.464,0-62.276,19.952-94.508,39.66
	c-32.193,19.686-76.995,52.227-116.607,99.336v-8.769l92.656-134.772c2.509-3.649,1.584-8.64-2.064-11.148
	c-3.649-2.509-8.64-1.583-11.148,2.064L256,229.021l-87.461-127.214c-2.508-3.648-7.5-4.573-11.148-2.064s-4.573,7.5-2.064,11.148
	l92.656,134.772v8.769c-39.614-47.109-84.414-79.651-116.607-99.336c-32.232-19.708-75.044-39.66-94.508-39.66
	c-13.549,0-24.643,5.879-31.241,16.555c-6.88,11.132-7.502,25.971-1.584,37.805c9.242,18.485,40.625,66.063,58.509,92.778
	c5.623,8.398,14.842,13.833,24.883,14.761c-12.625,11.6-19.034,23.122-19.034,34.251c0,21.813,16.584,43.624,46.697,61.418
	c23.851,14.094,52.982,23.563,72.49,23.563c17.198,0,35.335-15.695,53.908-46.65c2.31-3.85,4.478-7.687,6.487-11.402v67.138
	c0,4.428,3.589,8.017,8.017,8.017c4.428,0,8.017-3.589,8.017-8.017v-67.138c2.01,3.716,4.177,7.552,6.487,11.402
	c18.573,30.954,36.709,46.65,53.908,46.65c19.508,0,48.64-9.469,72.49-23.563c30.112-17.794,46.697-39.605,46.697-61.418
	c0-13.424-9.493-25.528-18.951-34.257c10.008-0.95,19.194-6.379,24.8-14.755c17.883-26.716,49.266-74.292,58.509-92.778
	C513.875,157.96,513.253,143.121,506.373,131.989z M346.908,199.233l37.63,16.127c3.12,1.337,5.412,3.985,6.289,7.265
	c0.877,3.279,0.212,6.717-1.826,9.433c-3.552,4.738-10.361,5.793-15.182,2.35l-38.549-27.535c3.513-2.868,6.995-5.632,10.437-8.287
	C346.086,198.828,346.482,199.05,346.908,199.233z M166.29,198.584c3.442,2.655,6.926,5.42,10.437,8.287l-38.549,27.535
	c-4.819,3.443-11.629,2.388-15.182-2.35c-2.036-2.716-2.702-6.154-1.826-9.433c0.877-3.279,3.168-5.927,6.289-7.265l37.63-16.127
	C165.517,199.05,165.914,198.828,166.29,198.584z M75.876,253.654c-14.229-21.255-48.314-72.672-57.493-91.029
	c-3.434-6.87-3.081-15.794,0.883-22.205c2.523-4.082,7.625-8.95,17.601-8.95c5.539,0,21.878,4.171,46.096,15.556l-34.735,11.579
	c-4.201,1.4-6.47,5.94-5.071,10.141c1.12,3.36,4.248,5.484,7.604,5.484c0.84,0,1.695-0.134,2.537-0.414l49.752-16.584
	c6.306,3.433,12.966,7.265,19.96,11.541c8.673,5.303,18.297,11.578,28.487,18.841l-30.353,13.008
	c-7.672,3.288-13.307,9.799-15.462,17.861c-2.156,8.063-0.52,16.517,4.488,23.194c5.268,7.024,13.446,10.755,21.709,10.754
	c5.44,0,10.917-1.618,15.62-4.977l41.857-29.899c16.635,14.59,33.568,31.541,49.515,50.982l-149.196-7.104
	C84.119,261.168,78.96,258.26,75.876,253.654z M227.653,341.823c-15.003,24.962-29.231,38.708-40.065,38.708
	c-16.623,0-43.077-8.773-64.334-21.333c-24.67-14.577-38.818-31.932-38.818-47.614c0-12.633,18.673-27.311,27.522-33.039
	l117.212,5.581l-62.81,37.685c-3.797,2.278-5.028,7.203-2.749,10.999c1.503,2.506,4.158,3.893,6.882,3.893
	c1.404,0,2.826-0.369,4.118-1.144l73.373-44.024v9.908C245.889,306.457,238.2,324.273,227.653,341.823z M388.745,359.199
	c-21.256,12.56-47.711,21.333-64.334,21.333c-20.62,0-47.678-47.885-60.395-79.058v-9.936l73.373,44.024
	c1.291,0.775,2.714,1.144,4.118,1.144c2.724,0,5.379-1.387,6.882-3.893c2.278-3.797,1.047-8.721-2.749-10.999l-62.81-37.685
	l117.22-5.582c8.854,5.71,27.514,20.349,27.514,33.039C427.564,327.266,413.416,344.622,388.745,359.199z M493.616,162.624
	c-9.179,18.357-43.264,69.774-57.493,91.029c-3.084,4.607-8.243,7.515-13.801,7.78l-149.196,7.104
	c15.947-19.441,32.881-36.393,49.515-50.982l41.857,29.899c4.704,3.36,10.18,4.977,15.62,4.977c8.262,0,16.441-3.731,21.709-10.754
	c5.008-6.678,6.643-15.131,4.488-23.194c-2.155-8.063-7.791-14.573-15.462-17.861l-30.352-13.008
	c10.19-7.263,19.814-13.537,28.487-18.841c6.994-4.277,13.655-8.108,19.96-11.541l49.752,16.584c0.841,0.28,1.695,0.414,2.537,0.414
	c3.357,0,6.484-2.125,7.604-5.484c1.4-4.201-0.87-8.741-5.071-10.141l-34.735-11.579c24.219-11.385,40.557-15.556,46.096-15.556
	c9.976,0,15.078,4.867,17.601,8.95C496.697,146.831,497.051,155.754,493.616,162.624z"/>
<g>
</g>
<g>
</g>
<g>
</g>
<g>
</g>
<g>
</g>
<g>
</g>
<g>
</g>
<g>
</g>
<g>
</g>
<g>
</g>
<g>
</g>
<g>
</g>
<g>
</g>
<g>
</g>
<g>
</g>
</svg>
