<?xml version="1.0" encoding="iso-8859-1"?>
<!-- Generator: Adobe Illustrator 19.0.0, SVG Export Plug-In . SVG Version: 6.00 Build 0)  -->
<svg version="1.1" id="Layer_1" xmlns="http://www.w3.org/2000/svg" xmlns:xlink="http://www.w3.org/1999/xlink" x="0px" y="0px"
	 viewBox="0 0 512 512" style="enable-background:new 0 0 512 512;" xml:space="preserve">
<g>
	<path style="fill:#FFDC50;" d="M256.002,268.289c0,0-25.637,42.728-25.637,102.548c0,0-12.919,25.837-16.293,60.665
		c-0.551,5.694-7.518,8.059-11.595,4.046c-11.459-11.277-32.889-28.767-68.251-45.483c-59.626-28.187-79.414-67.567-74.774-104.684
		c3.205-25.637,25.637-51.274,25.637-51.274l170.913-8.546L256.002,268.289z"/>
	<path style="fill:#FFDC50;" d="M15.154,69.434c-4.899,1.064-7.888,6.072-6.975,11.003c6.055,32.752,28.055,147.126,41.144,153.671
		c17.091,8.546,146.86,8.546,206.68-8.546v-34.183C256.002,191.378,162,37.556,15.154,69.434z"/>
</g>
<path style="fill:#FFBE46;" d="M85.089,234.106c0,0-22.432,25.637-25.637,51.274c-2.062,16.489,0.734,33.421,9.665,49.622
	c22.757-23.025,83.983-79.377,163.662-108.281L85.089,234.106z"/>
<g>
	<path style="fill:#FFDC50;" d="M256.002,268.289c0,0,25.637,42.728,25.637,102.548c0,0,12.919,25.837,16.293,60.665
		c0.551,5.694,7.518,8.059,11.595,4.046c11.459-11.277,32.889-28.767,68.251-45.483c59.626-28.187,79.415-67.567,74.774-104.684
		c-3.205-25.637-25.637-51.274-25.637-51.274l-170.913-8.546L256.002,268.289z"/>
	<path style="fill:#FFDC50;" d="M496.851,69.434c4.899,1.064,7.888,6.072,6.975,11.001c-6.055,32.752-28.055,147.126-41.144,153.671
		c-17.091,8.546-146.86,8.546-206.68-8.546v-34.183C256.002,191.378,350.004,37.556,496.851,69.434z"/>
</g>
<path style="fill:#FFBE46;" d="M426.915,234.106c0,0,22.432,25.637,25.637,51.274c2.062,16.489-0.734,33.421-9.665,49.622
	c-22.757-23.025-83.983-79.377-163.662-108.281L426.915,234.106z"/>
<path style="fill:#B49F77;" d="M256.002,268.289L256.002,268.289c-9.44,0-17.091-7.652-17.091-17.091v-51.274
	c0-9.44,7.652-17.091,17.091-17.091l0,0c9.44,0,17.091,7.652,17.091,17.091v51.274C273.093,260.637,265.442,268.289,256.002,268.289
	z"/>
<path d="M498.753,61.652c-33.528-8.197-67.6-7.076-101.271,3.332c-26.721,8.259-53.2,22.352-78.701,41.888
	c-24.336,18.642-42.96,38.49-54.768,52.535v-0.698c16.018-41.428,47.208-62.875,47.716-63.219c3.674-2.456,4.665-7.425,2.212-11.104
	c-2.455-3.682-7.428-4.676-11.109-2.222c-1.296,0.863-28.184,19.098-46.83,55.301c-18.647-36.202-45.534-54.437-46.83-55.301
	c-3.681-2.454-8.656-1.46-11.109,2.222c-2.455,3.681-1.46,8.656,2.222,11.109c0.317,0.212,31.553,21.419,47.706,63.212v0.699
	c-11.807-14.046-30.431-33.892-54.768-52.535c-25.501-19.535-51.98-33.628-78.701-41.888C80.849,54.576,46.777,53.455,13.249,61.652
	c-8.956,2.19-14.645,11.081-12.951,20.24c3.393,18.351,10.244,54.06,18.014,87.043c4.472,18.979,8.609,34.289,12.298,45.508
	c6.294,19.137,10.599,24.566,15.127,26.829c3.618,1.808,10.303,3.267,19.178,4.342c-4.77,8.029-11.272,21.627-13.415,38.773
	c-3.325,26.6,2.556,76.643,79.299,112.921c29.101,13.756,48.183,27.976,59.066,37.483c11.772,10.281,16.744,17.41,16.775,17.454
	c1.519,2.238,4.025,3.513,6.63,3.513c0.783,0,1.576-0.115,2.352-0.354c3.363-1.034,5.658-4.14,5.658-7.658
	c0-40.191,16.087-73.009,16.245-73.328c0.557-1.113,0.846-2.338,0.846-3.583c0-24.374,4.483-45.893,9.614-62.555v19.827
	c0,4.424,3.587,8.012,8.012,8.012s8.012-3.587,8.012-8.012v-19.93c5.13,16.645,9.614,38.178,9.614,62.658
	c0,1.238,0.291,2.466,0.842,3.575c0.162,0.327,16.25,33.145,16.25,73.336c0,3.507,2.289,6.593,5.637,7.636
	c0.783,0.244,1.582,0.361,2.372,0.361c2.59,0,5.088-1.262,6.613-3.473c0.049-0.071,5.022-7.199,16.793-17.48
	c10.884-9.507,29.966-23.727,59.066-37.483c76.744-36.278,82.626-86.321,79.3-112.921c-2.143-17.146-8.646-30.744-13.415-38.774
	c8.875-1.076,15.561-2.533,19.178-4.341c4.528-2.265,8.833-7.693,15.127-26.829c3.69-11.217,7.828-26.528,12.298-45.508
	c7.769-32.983,14.622-68.693,18.014-87.043C513.398,72.732,507.709,63.842,498.753,61.652z M328.883,119.318
	c23.958-18.296,48.711-31.451,73.573-39.101c30.781-9.47,61.9-10.479,92.493-3.002c0.7,0.172,1.148,0.962,1.001,1.764
	c-2.942,15.913-5.796,30.535-8.537,43.871c-10.787-1.829-39.085-5.716-74.96-3.564c-33.751,2.023-79.487,9.987-121.89,34.566
	C300.86,143.042,313.761,130.865,328.883,119.318z M256.002,260.277c-5.007,0-9.08-4.073-9.08-9.08v-51.274
	c0-5.007,4.073-9.08,9.08-9.08c0.001,0,0.003,0,0.004,0c5.005,0.002,9.076,4.074,9.076,9.08v51.274
	C265.082,256.204,261.009,260.277,256.002,260.277z M17.057,77.217c30.592-7.48,61.71-6.47,92.493,3.001
	c24.86,7.649,49.614,20.804,73.573,39.101c15.122,11.548,28.022,23.724,38.321,34.537c-42.402-24.579-88.139-32.544-121.89-34.566
	c-35.874-2.154-64.173,1.734-74.96,3.564c-2.741-13.338-5.595-27.959-8.537-43.872C15.908,78.178,16.356,77.388,17.057,77.217z
	 M27.895,138.558c10.504-1.719,37.619-5.306,71.155-3.247c37.013,2.27,89.279,12.074,133.678,45.121
	c-52.888-13.112-101.68-7.127-133.845,0.455c-27.597,6.505-47.545,15.055-55.988,19.027
	C38.632,185.263,33.547,164.834,27.895,138.558z M47.814,215.333c13.043-6.325,92.946-42.151,183.319-18.784
	c-0.15,1.105-0.234,2.23-0.234,3.376v19.498c-60.525,15.371-162.595,14.07-177.511,7.74
	C51.955,225.562,50.075,221.624,47.814,215.333z M67.402,286.374c2.859-22.868,15.25-38.533,15.36-38.67
	c0.151-0.185,0.286-0.376,0.417-0.569c8.1,0.434,17.073,0.658,26.594,0.658c19.934,0,42.265-0.98,63.992-3.052
	c-22.705,13.104-42.139,27.956-56.908,40.637c-20.742,17.81-35.501,33.885-42.609,42.076
	C67.966,314.574,65.602,300.772,67.402,286.374z M222.361,369.013c-2.961,6.414-12.708,29.301-16.001,59.126
	c-12.388-11.838-34.128-28.971-68.71-45.319c-24.239-11.458-42.569-25.392-54.514-41.078c8.802-10.554,68.641-79.572,147.763-105.41
	v14.864c0,9.614,5.435,17.978,13.391,22.194C236.663,289.255,222.733,324.261,222.361,369.013z M374.353,382.821
	c-34.581,16.348-56.322,33.481-68.709,45.319c-3.292-29.825-13.041-52.713-16.001-59.126c-0.371-44.753-14.302-79.759-21.929-95.622
	c7.956-4.215,13.391-12.58,13.391-22.194v-14.863c79.004,25.811,138.939,94.848,147.762,105.41
	C416.922,357.43,398.592,371.363,374.353,382.821z M429.228,247.685c0.125,0.156,12.516,15.821,15.375,38.688
	c1.8,14.397-0.565,28.201-6.846,41.079c-7.108-8.191-21.866-24.265-42.609-42.076c-14.769-12.681-34.202-27.532-56.905-40.636
	c21.726,2.072,44.056,3.051,63.991,3.051c9.521,0,18.495-0.224,26.597-0.658C428.955,247.321,429.085,247.507,429.228,247.685z
	 M281.105,219.422v-19.498c0-1.144-0.084-2.269-0.233-3.373c50.46-13.039,97.317-7.38,128.077-0.184
	c28.842,6.748,49.206,16.032,55.242,18.965c-2.261,6.294-4.142,10.231-5.575,11.83C443.701,233.491,341.631,234.793,281.105,219.422
	z M469.11,199.915c-8.443-3.972-28.391-12.522-55.988-19.027c-32.164-7.582-80.957-13.567-133.846-0.455
	c44.399-33.047,96.664-42.851,133.678-45.121c33.531-2.06,60.648,1.528,71.155,3.247
	C478.457,164.834,473.373,185.264,469.11,199.915z"/>
<g>
</g>
<g>
</g>
<g>
</g>
<g>
</g>
<g>
</g>
<g>
</g>
<g>
</g>
<g>
</g>
<g>
</g>
<g>
</g>
<g>
</g>
<g>
</g>
<g>
</g>
<g>
</g>
<g>
</g>
</svg>
