<?xml version="1.0" encoding="iso-8859-1"?>
<!-- Generator: Adobe Illustrator 19.0.0, SVG Export Plug-In . SVG Version: 6.00 Build 0)  -->
<svg version="1.1" id="Layer_1" xmlns="http://www.w3.org/2000/svg" xmlns:xlink="http://www.w3.org/1999/xlink" x="0px" y="0px"
	 viewBox="0 0 512.002 512.002" style="enable-background:new 0 0 512.002 512.002;" xml:space="preserve">
<path style="fill:#EBCDB4;" d="M119.183,256.001c-59.858,51.307-45.995,104.664-34.205,119.716
	c16.746,21.378,17.102,42.756,17.102,42.756c16.207-17.003,46.279-3.659,60.528,3.878c5.37,2.84,11.211,4.673,17.285,4.673h24.8
	c9.446,0,17.102-7.656,17.102-17.102v-16.37c0-4.381,0.673-8.737,1.997-12.913l23.657-56.228v-85.511L119.183,256.001"/>
<path style="fill:#463246;" d="M101.012,336.167c13.361,29.395,76.831,71.387,119.249,80.764c0.967-2.144,1.536-4.505,1.536-7.011
	v-16.37c0-4.381,0.673-8.737,1.997-12.914l23.657-56.228v-85.511l-126.467,16.862C93.53,276.844,97.144,327.656,101.012,336.167z"/>
<path style="fill:#5A464B;" d="M221.262,243.174c1.871-0.49,3.603-0.986,5.259-1.485l-105.538,14.072
	c-27.453,21.083-23.839,71.895-19.971,80.406C98.34,321.203,117.045,270.431,221.262,243.174z"/>
<path style="fill:#EBCDB4;" d="M33.672,84.978c-9.017,0-20.408,39.89-24.287,54.542c-0.812,3.069,0.591,6.221,3.394,7.711
	c5.515,2.933,14.164,8.068,16.619,12.569c1.833,3.361-2.62,52.815-3.927,66.855c-0.218,2.341,0.617,4.656,2.279,6.318l31.576,31.578
	c8.551,8.551,188.125-17.102,188.125-17.102v-25.653C153.388,119.182,42.223,84.978,33.672,84.978z"/>
<path style="fill:#463246;" d="M67.876,266.186c37.151,1.603,179.574-18.737,179.574-18.737v-25.653
	C187.592,144.836,95.453,105.745,56.529,91.594c-4.312,11.154-8.568,26.208-10.592,33.678c-0.725,2.675,0.202,5.514,2.399,7.204
	c6.514,5.011,19.54,16.635,19.54,29.462C67.876,169.138,67.876,243.022,67.876,266.186z"/>
<g>
	<circle style="fill:#99807D;" cx="87.811" cy="135.354" r="9.481"/>
	<circle style="fill:#99807D;" cx="117.997" cy="153.386" r="7.576"/>
</g>
<path style="fill:#EBCDB4;" d="M392.82,256.001c59.858,51.307,45.995,104.664,34.205,119.716
	c-16.746,21.378-17.102,42.756-17.102,42.756c-16.207-17.003-46.279-3.659-60.528,3.878c-5.37,2.84-11.211,4.673-17.285,4.673
	H307.31c-9.446,0-17.102-7.656-17.102-17.102v-16.37c0-4.381-0.673-8.737-1.997-12.913l-23.657-56.228v-85.511L392.82,256.001"/>
<path style="fill:#463246;" d="M410.991,336.167c-13.361,29.395-76.831,71.387-119.249,80.764c-0.967-2.144-1.536-4.505-1.536-7.011
	v-16.37c0-4.381-0.673-8.737-1.997-12.914l-23.657-56.228v-85.511l126.467,16.862C418.474,276.844,414.86,327.656,410.991,336.167z"
	/>
<path style="fill:#5A464B;" d="M290.741,243.174c-1.871-0.49-3.603-0.986-5.259-1.485l105.538,14.072
	c27.453,21.084,23.839,71.896,19.971,80.407C413.664,321.203,394.958,270.431,290.741,243.174z"/>
<path style="fill:#EBCDB4;" d="M478.332,84.978c9.017,0,20.407,39.89,24.287,54.542c0.812,3.069-0.591,6.221-3.394,7.711
	c-5.516,2.933-14.164,8.068-16.619,12.569c-1.833,3.361,2.62,52.815,3.927,66.855c0.218,2.341-0.617,4.656-2.279,6.318
	l-31.578,31.578c-8.551,8.551-188.125-17.102-188.125-17.102v-25.653C358.616,119.182,469.78,84.978,478.332,84.978z"/>
<path style="fill:#463246;" d="M444.127,266.186c-37.151,1.603-179.574-18.737-179.574-18.737v-25.653
	c59.858-76.96,151.997-116.051,190.921-130.202c4.312,11.154,8.568,26.208,10.592,33.678c0.725,2.675-0.202,5.514-2.399,7.204
	c-6.514,5.011-19.54,16.635-19.54,29.462C444.127,169.138,444.127,243.022,444.127,266.186z"/>
<g>
	<circle style="fill:#99807D;" cx="424.191" cy="135.354" r="9.481"/>
	<circle style="fill:#99807D;" cx="394.006" cy="153.386" r="7.576"/>
</g>
<path style="fill:#5A464B;" d="M256.001,341.512L256.001,341.512c-9.446,0-17.102-7.656-17.102-17.102v-85.511
	c0-9.446,7.656-17.102,17.102-17.102l0,0c9.446,0,17.102,7.656,17.102,17.102v85.511
	C273.103,333.854,265.447,341.512,256.001,341.512z"/>
<circle style="fill:#463246;" cx="256.001" cy="204.693" r="17.102"/>
<path d="M511.773,142.934c-0.153-0.624-3.791-15.47-8.874-30.583c-8.565-25.468-15.453-35.39-24.567-35.39
	c-7.321,0-44.428,12.687-83.678,31.808c-34.832,16.969-82.379,44.333-118.491,80.96c-0.524-0.703-1.084-1.377-1.676-2.021
	l47.786-63.716c2.656-3.541,1.938-8.567-1.603-11.223c-3.541-2.655-8.567-1.938-11.223,1.603l-49.179,65.572
	c-1.387-0.238-2.811-0.37-4.266-0.37c-1.455,0-2.879,0.131-4.266,0.37l-49.179-65.572c-2.657-3.542-7.681-4.26-11.223-1.603
	c-3.541,2.656-4.26,7.682-1.603,11.223l47.786,63.716c-0.592,0.645-1.152,1.318-1.676,2.021
	c-36.111-36.626-83.658-63.99-118.491-80.96c-39.25-19.121-76.357-31.808-83.678-31.808c-9.114,0-16.002,9.923-24.567,35.39
	c-5.083,15.114-8.722,29.959-8.874,30.583c-0.907,3.718,0.943,7.56,4.413,9.173c7.195,3.342,14.798,8.166,17.155,10.786
	c0.394,7.4-1.974,38.814-4.657,66.685c-0.23,2.383,0.618,4.744,2.311,6.437l34.205,34.205c2.34,2.34,5.4,4.1,18.299,4.1
	c4.565,0,10.384-0.224,17.817-0.717c-48.262,53.296-18.211,97.986-11.106,107.057c14.729,18.803,15.393,37.794,15.397,37.946
	c0.055,3.253,2.069,6.15,5.1,7.334c3.03,1.184,6.475,0.419,8.72-1.937c13.152-13.798,42.703,0.865,51.446,5.686
	c6.346,3.501,13.456,5.351,20.564,5.351h24.799c13.851,0,25.119-11.268,25.119-25.119v-16.37c0-3.565,0.546-7.095,1.623-10.492
	l11.742-37.061c3.756,2.239,8.141,3.532,12.823,3.532c4.683,0,9.066-1.291,12.823-3.532l11.743,37.062
	c1.076,3.397,1.623,6.927,1.623,10.492v16.37c0,13.851,11.268,25.119,25.119,25.119h24.799c7.108,0,14.219-1.85,20.564-5.35
	c8.744-4.823,38.295-19.485,51.447-5.687c2.245,2.354,5.689,3.119,8.72,1.937c3.03-1.183,5.045-4.081,5.1-7.334
	c0.003-0.187,0.484-18.907,15.397-37.946c7.105-9.071,37.156-53.761-11.106-107.057c7.434,0.493,13.252,0.717,17.817,0.717
	c12.896,0,15.96-1.76,18.299-4.1l34.204-34.205c1.693-1.692,2.541-4.053,2.311-6.437c-2.683-27.87-5.052-59.283-4.657-66.684
	c2.359-2.623,9.96-7.445,17.15-10.786C510.83,150.499,512.68,146.655,511.773,142.934z M399.645,124.176
	c20.212-9.942,37.937-17.29,51.491-22.355c3.257,8.591,5.818,18.703,7.187,24.617c-7.794,6.025-22.214,19.354-22.214,35.5v96.363
	c-27.806-0.816-93.415-8.666-154.989-17.763v-1.64c0-6.603-2.564-12.614-6.745-17.102c3.461-3.715,5.808-8.477,6.515-13.752
	C315.459,170.05,364.389,141.519,399.645,124.176z M265.088,204.694c0,5.01-4.076,9.086-9.086,9.086
	c-5.01,0-9.086-4.076-9.086-9.086s4.076-9.086,9.086-9.086C261.012,195.608,265.088,199.684,265.088,204.694z M231.113,208.043
	c0.707,5.276,3.054,10.037,6.515,13.752c-4.18,4.488-6.745,10.5-6.745,17.102v1.64c-61.572,9.097-127.183,16.949-154.989,17.764
	v-96.364c0-16.146-14.419-29.476-22.214-35.5c1.369-5.913,3.93-16.025,7.187-24.617c13.554,5.064,31.28,12.413,51.491,22.355
	C147.614,141.519,196.544,170.05,231.113,208.043z M33.461,227.35c6.216-65.445,4.269-69.013,2.974-71.388
	c-3.325-6.097-12.469-11.853-19.06-15.4c5.734-21.763,13.28-42.089,17.577-47.25c2.086,0.5,5.773,1.553,10.788,3.19
	c-5.333,14.21-8.717,30.966-8.884,31.797c-0.643,3.216,0.75,6.508,3.498,8.298c5.06,3.294,19.505,15.021,19.505,25.341v91.811
	L33.461,227.35z M167.075,415.65c-28.751-15.859-47.411-15.404-59.024-10.68c-2.241-9.074-6.934-21.654-16.76-34.197
	c-7.938-10.133-28.556-44.377,11.421-87.556c-6.248,16.94-12.411,39.019-8.276,52.151c5.369,17.055,28.261,38.563,47.896,53.005
	c10.696,7.868,35.489,24.622,59.969,30.633h-22.404C175.488,419.007,171.055,417.846,167.075,415.65z M231.257,330.54
	l-15.105,47.676c-1.573,4.966-2.372,10.126-2.372,15.335v11.3c-37.673-4.391-97.137-52.331-104.052-74.298
	c-3.379-10.735,6.764-40.746,15.593-60.168c8.556-0.917,17.883-1.99,27.969-3.221c31.435-3.833,62.606-8.258,77.593-10.436v67.68
	c0,1.887,0.216,3.723,0.612,5.492C231.409,330.11,231.326,330.321,231.257,330.54z M256.002,333.495
	c-5.01,0-9.086-4.076-9.086-9.086v-85.511c0-5.01,4.076-9.086,9.086-9.086c5.01,0,9.086,4.076,9.086,9.086v85.511
	C265.088,329.419,261.012,333.495,256.002,333.495z M280.746,330.54c-0.069-0.219-0.152-0.429-0.238-0.637
	c0.397-1.769,0.612-3.605,0.612-5.492v-67.68c14.988,2.176,46.159,6.601,77.593,10.436c10.087,1.23,19.413,2.303,27.969,3.221
	c8.828,19.422,18.972,49.434,15.593,60.168c-6.916,21.968-66.38,69.907-104.052,74.298v-11.3c0-5.211-0.798-10.37-2.371-15.335
	L280.746,330.54z M420.713,370.773c-9.825,12.543-14.519,25.122-16.76,34.196c-11.613-4.721-30.276-5.176-59.025,10.681
	c-3.981,2.195-8.413,3.356-12.82,3.356h-22.404c24.48-6.011,49.273-22.766,59.969-30.633c19.633-14.442,42.527-35.95,47.896-53.005
	c4.134-13.132-2.029-35.211-8.276-52.151C449.271,326.396,428.651,360.639,420.713,370.773z M475.57,155.961
	c-1.296,2.375-3.242,5.943,2.974,71.388l-26.399,26.399v-91.811c0-10.32,14.445-22.046,19.493-25.334
	c2.763-1.785,4.156-5.078,3.51-8.305c-0.167-0.832-3.551-17.588-8.884-31.797c5.021-1.639,8.709-2.691,10.795-3.192
	c4.338,5.151,11.774,25.181,17.573,47.251C488.039,144.108,478.895,149.864,475.57,155.961z"/>
<g>
</g>
<g>
</g>
<g>
</g>
<g>
</g>
<g>
</g>
<g>
</g>
<g>
</g>
<g>
</g>
<g>
</g>
<g>
</g>
<g>
</g>
<g>
</g>
<g>
</g>
<g>
</g>
<g>
</g>
</svg>
