<?xml version="1.0" encoding="iso-8859-1"?>
<!-- Generator: Adobe Illustrator 19.0.0, SVG Export Plug-In . SVG Version: 6.00 Build 0)  -->
<svg version="1.1" id="Layer_1" xmlns="http://www.w3.org/2000/svg" xmlns:xlink="http://www.w3.org/1999/xlink" x="0px" y="0px"
	 viewBox="0 0 512 512" style="enable-background:new 0 0 512 512;" xml:space="preserve">
<path style="fill:#463246;" d="M256,237.935l17.102-8.551c0,0,142.52-96.913,180.286-100.476
	c25.894-2.442,50.595,15.677,50.595,40.618c0,23.543-36.461,59.24-59.191,79.206c-10.928,9.599-24.935,14.857-39.482,14.857h-21.043
	c0,0,40.01,26.934,47.388,45.962c6.768,17.458-10.334,71.26-80.524,71.26c-57.81,0-95.132-91.569-95.132-91.569v-25.653V237.935z"/>
<g>
	<circle style="fill:#C2B5AF;" cx="452.089" cy="155.128" r="7.969"/>
	<circle style="fill:#C2B5AF;" cx="468.036" cy="169.409" r="5.72"/>
	<circle style="fill:#C2B5AF;" cx="473.509" cy="187.419" r="4.718"/>
</g>
<path style="fill:#FF9B46;" d="M256,237.935l17.102-8.551c0,0,12.993-8.831,32.117-21.229l1.553-0.416
	c44.002-11.847,85.511-8.818,85.511-8.818l-37.53,27.246c1.819-0.306,3.294-0.49,4.203-0.49c32.082,0,85.836,23.055,85.836,23.055
	c-10.928,9.599-24.935,14.857-39.482,14.857h-21.044c0,0,13.168,8.879,25.791,20.033c1.003,4.571,5.67,29.907-9.509,48.32
	c-21.644,26.256-68.206,25.261-105.826,18.893C270.238,324.128,256,289.242,256,289.242v-25.653V237.935z"/>
<path style="fill:#463246;" d="M256,237.935l-17.102-8.551c0,0-142.52-96.913-180.286-100.476
	c-25.894-2.442-50.595,15.677-50.595,40.618c0,23.543,36.461,59.24,59.191,79.206c10.928,9.599,24.935,14.857,39.482,14.857h21.043
	c0,0-40.01,26.934-47.388,45.962c-6.768,17.458,10.334,71.26,80.524,71.26c57.81,0,95.132-91.569,95.132-91.569v-25.653V237.935z"/>
<g>
	<circle style="fill:#C2B5AF;" cx="59.911" cy="155.128" r="7.969"/>
	<circle style="fill:#C2B5AF;" cx="43.964" cy="169.409" r="5.72"/>
	<circle style="fill:#C2B5AF;" cx="38.491" cy="187.419" r="4.718"/>
</g>
<path style="fill:#FF9B46;" d="M256,237.935l-17.102-8.551c0,0-12.993-8.831-32.117-21.229l-1.553-0.416
	c-44.002-11.847-85.511-8.818-85.511-8.818l37.53,27.246c-1.819-0.306-3.294-0.49-4.203-0.49c-32.082,0-85.836,23.055-85.836,23.055
	c10.928,9.599,24.935,14.857,39.482,14.857h21.044c0,0-13.168,8.879-25.791,20.033c-1.003,4.571-5.67,29.907,9.509,48.32
	c21.644,26.256,68.206,25.261,105.826,18.893C241.762,324.128,256,289.242,256,289.242v-25.653V237.935z"/>
<path style="fill:#4E3946;" d="M256,297.793L256,297.793c-9.446,0-17.102-7.656-17.102-17.102v-8.551
	c0-9.446,7.656-17.102,17.102-17.102l0,0c9.446,0,17.102,7.656,17.102,17.102v8.551C273.102,290.137,265.445,297.793,256,297.793z"
	/>
<circle style="fill:#463246;" cx="256" cy="237.935" r="17.102"/>
<path d="M203.792,307.224c-39.095,11.859-65.007-3.445-66.154-4.142c-3.756-2.313-8.679-1.158-11.012,2.592
	c-2.339,3.759-1.186,8.703,2.574,11.042c0.965,0.601,18.126,11.01,45.474,11.01c9.994,0,21.349-1.391,33.771-5.157
	c4.237-1.285,6.63-5.761,5.344-9.998C212.505,308.333,208.03,305.942,203.792,307.224z"/>
<path d="M496.394,135.213c-11.479-10.447-27.839-15.783-43.758-14.286c-35.484,3.348-148.191,77.712-178.064,97.789l31.354-62.708
	c1.981-3.96,0.375-8.776-3.585-10.755c-3.96-1.982-8.776-0.374-10.755,3.585l-32.112,64.224c-1.136-0.158-2.295-0.246-3.474-0.246
	s-2.338,0.088-3.474,0.246l-32.112-64.223c-1.98-3.961-6.795-5.567-10.755-3.585c-3.96,1.98-5.566,6.795-3.585,10.755l31.354,62.708
	c-29.872-20.078-142.58-94.441-178.064-97.789c-15.921-1.501-32.28,3.838-43.758,14.286C5.542,144.372,0,156.557,0,169.526
	c0,25.491,33.67,60.418,61.917,85.229c0.103,0.091,0.211,0.174,0.314,0.264c0.002,0.001,0.003,0.003,0.005,0.004
	c11.576,10.043,26.189,15.847,41.481,16.515c-12.193,9.974-26.297,23.383-30.846,35.114c-4.654,12.003-0.606,31.041,9.842,46.299
	c21.377,31.215,58.142,35.875,78.155,35.875c26.379,0,51.122-15.544,71.553-44.951c6.685-9.622,11.858-19.184,15.562-26.887v66.315
	c0,4.427,3.589,8.017,8.017,8.017c4.427,0,8.017-3.589,8.017-8.017V316.99c3.704,7.702,8.877,17.265,15.562,26.887
	c20.431,29.407,45.174,44.951,71.553,44.951c20.013,0,56.779-4.66,78.155-35.875c10.448-15.258,14.496-34.297,9.842-46.299
	c-4.549-11.732-18.653-25.14-30.846-35.114c15.431-0.673,30.175-6.57,41.8-16.783C478.33,229.944,512,195.017,512,169.526
	C512,156.557,506.458,144.372,496.394,135.213z M308.857,215.48c21.868-5.887,43.272-7.976,58.846-8.621l-16.277,11.817
	c-15.103,2.926-46.126,11.898-70.579,22.937c0.177-1.201,0.271-2.429,0.271-3.678c0-1.386-0.118-2.746-0.335-4.071
	c7.49-5.058,16.982-11.354,27.691-18.301C308.602,215.535,308.73,215.514,308.857,215.48z M288.861,255.572
	c24.812-11.043,55.638-19.47,66.631-21.435c0.381-0.035,0.758-0.1,1.133-0.191c1.02-0.159,1.825-0.25,2.331-0.252
	c20.392,0,50.94,10.215,68.634,16.851c-6.9,3.282-14.5,5.026-22.279,5.026h-116.45V255.572z M127.72,255.572h-21.032
	c-7.78,0-15.381-1.745-22.282-5.027c17.684-6.636,48.22-16.85,68.637-16.85c0.508,0.002,1.312,0.093,2.331,0.252
	c0.376,0.091,0.754,0.155,1.134,0.191c10.994,1.965,41.819,10.392,66.631,21.435C223.139,255.572,127.732,255.572,127.72,255.572z
	 M203.524,215.562c10.71,6.948,20.202,13.244,27.693,18.302c-0.217,1.326-0.335,2.685-0.335,4.071c0,1.25,0.095,2.477,0.271,3.678
	c-24.453-11.038-55.475-20.012-70.579-22.937l-16.277-11.817c15.574,0.645,36.979,2.734,58.846,8.621
	C203.27,215.514,203.397,215.535,203.524,215.562z M246.914,280.691v-8.551c0-5.01,4.076-9.086,9.086-9.086
	c5.01,0,9.086,4.076,9.086,9.086v8.551c0,5.01-4.076,9.086-9.086,9.086C250.99,289.777,246.914,285.701,246.914,280.691z
	 M265.086,237.935c0,5.01-4.076,9.086-9.086,9.086c-5.01,0-9.086-4.076-9.086-9.086c0-5.01,4.076-9.086,9.086-9.086
	C261.01,228.85,265.086,232.925,265.086,237.935z M16.033,169.526c0-8.398,3.68-16.373,10.364-22.455
	c8.197-7.46,19.958-11.266,31.461-10.181c18.045,1.703,65.981,28.815,109.291,55.611c-26.865-3.034-46.815-1.663-48.016-1.576
	c-3.357,0.245-6.204,2.561-7.126,5.799s0.276,6.706,3,8.685l19.359,14.054c-25.456,4.35-54.368,15.406-65.586,19.943
	C35.67,209.721,16.033,183.768,16.033,169.526z M95.943,343.893c-8.947-13.064-10.136-26.252-8.124-31.444
	c0.914-2.357,2.603-5.022,4.826-7.853c0.694,10.282,3.687,22.546,12.334,33.035c15.697,19.041,42.424,24.965,69.601,24.964
	c6.366,0,12.75-0.339,19.028-0.897c-9.502,6.696-20.425,11.095-32.74,11.095C121.598,372.794,103.334,354.687,95.943,343.893z
	 M213.082,343.008c-27.725,4.702-75.8,8.605-95.731-15.574c-12.013-14.573-8.586-35.484-7.686-39.909
	c7.004-6.032,14.466-11.702,20.549-15.919h41.176c-5.26,2.269-10.244,4.738-14.909,7.432c-3.834,2.214-5.148,7.118-2.934,10.952
	c1.486,2.572,4.179,4.009,6.95,4.009c1.36,0,2.74-0.347,4.002-1.075c17.352-10.02,39.662-16.837,66.383-20.328v8.098
	c0,7.062,2.934,13.449,7.642,18.016C235.386,306.546,226.822,325.999,213.082,343.008z M273.482,298.704
	c4.705-4.567,7.637-10.953,7.637-18.013v-8.098c26.72,3.491,49.03,10.308,66.383,20.328c1.263,0.729,2.641,1.075,4.002,1.075
	c2.77,0,5.465-1.438,6.95-4.009c2.214-3.834,0.9-8.737-2.934-10.952c-4.665-2.694-9.649-5.163-14.909-7.432h41.176
	c6.084,4.216,13.545,9.887,20.549,15.918c0.9,4.42,4.329,25.334-7.686,39.909c-19.917,24.161-67.931,20.281-95.667,15.584
	C285.225,326.005,276.63,306.54,273.482,298.704z M424.181,312.449c2.013,5.192,0.824,18.38-8.124,31.444
	c-17.22,25.147-48.069,28.902-64.926,28.902c-12.281,0-23.184-4.396-32.678-11.089c6.258,0.554,12.62,0.89,18.965,0.89
	c27.173-0.001,53.906-5.924,69.601-24.964c8.646-10.489,11.64-22.754,12.334-33.035
	C421.578,307.428,423.267,310.092,424.181,312.449z M443.221,239.406c-11.218-4.537-40.131-15.593-65.586-19.943l19.359-14.054
	c2.724-1.977,3.922-5.447,3-8.685s-3.769-5.554-7.126-5.799c-1.2-0.087-21.153-1.458-48.02,1.577
	c43.309-26.797,91.245-53.91,109.294-55.612c11.501-1.081,23.263,2.72,31.461,10.181c6.684,6.082,10.364,14.057,10.364,22.455
	C495.967,183.768,476.33,209.721,443.221,239.406z"/>
<path d="M303.555,322.567c12.425,3.768,23.775,5.157,33.771,5.157c27.343,0,44.509-10.409,45.474-11.01
	c3.76-2.339,4.912-7.282,2.574-11.042c-2.339-3.759-7.282-4.912-11.042-2.574c-0.262,0.161-26.589,16.114-66.124,4.124
	c-4.234-1.285-8.714,1.108-9.998,5.344C296.925,316.804,299.318,321.282,303.555,322.567z"/>
<g>
</g>
<g>
</g>
<g>
</g>
<g>
</g>
<g>
</g>
<g>
</g>
<g>
</g>
<g>
</g>
<g>
</g>
<g>
</g>
<g>
</g>
<g>
</g>
<g>
</g>
<g>
</g>
<g>
</g>
</svg>
