<?xml version="1.0" encoding="iso-8859-1"?>
<!-- Generator: Adobe Illustrator 19.0.0, SVG Export Plug-In . SVG Version: 6.00 Build 0)  -->
<svg version="1.1" id="Layer_1" xmlns="http://www.w3.org/2000/svg" xmlns:xlink="http://www.w3.org/1999/xlink" x="0px" y="0px"
	 viewBox="0 0 512 512" style="enable-background:new 0 0 512 512;" xml:space="preserve">
<path style="fill:#B4735A;" d="M379.992,258.431c0,0,55.582,22.804,55.582,74.111c0,68.409-76.38,100.621-102.614,94.063
	C298.756,418.053,256,306.888,256,306.888V247.03L379.992,258.431z"/>
<g>
	<path style="fill:#AA644B;" d="M341.511,315.439c8.551,42.756-42.756,42.756-85.511-42.756v-25.653
		C256,247.029,332.96,272.683,341.511,315.439z"/>
	<path style="fill:#AA644B;" d="M478.33,84.557c17.102,0,25.653,10.393,25.653,25.653c0,25.656-25.653,59.858-34.205,111.165
		c-4.218,25.304-17.102,42.756-42.756,42.756c-17.102,0-162.472-8.551-162.472-8.551v-17.102
		C264.551,238.478,367.165,84.557,478.33,84.557z"/>
</g>
<path style="fill:#9B5541;" d="M478.33,84.557c17.102,0,25.653,10.393,25.653,25.653c0,24.449-23.262,56.694-32.855,104.071
	c-2.201-3.631-4.204-7.706-6.339-12.146c-35.63-74.11-200.24,53.445-200.24,53.445v-17.102
	C264.551,238.478,367.165,84.557,478.33,84.557z"/>
<path style="fill:#594759;" d="M304.913,187.515C344.935,142.697,409.997,84.557,478.33,84.557
	c17.102,0,25.653,10.393,25.653,25.653c0,25.656-25.653,59.858-34.205,111.165c-0.041,0.241-0.11,0.452-0.152,0.69
	C466.437,181.64,410.233,128.918,304.913,187.515z"/>
<path style="fill:#463246;" d="M313.387,178.259c40.381-43.164,101.23-93.701,164.944-93.701c17.102,0,25.653,10.393,25.653,25.653
	c0,16.651-10.8,36.942-20.723,63.132C481.002,144.683,421.946,100.858,313.387,178.259z"/>
<g>
	<path style="fill:#594759;" d="M305.615,403.074c17.191,12.841,52.999,6.427,78.652-19.226
		c28.161-28.161,40.618-80.167,28.1-103.317c12.208,12.044,23.207,29.194,23.207,52.01c0,68.409-76.38,100.621-102.614,94.063
		C324.121,424.393,314.711,415.302,305.615,403.074z"/>
	<circle style="fill:#594759;" cx="362.889" cy="331.828" r="9.976"/>
	<circle style="fill:#594759;" cx="346.856" cy="295.838" r="7.141"/>
</g>
<path style="fill:#B4735A;" d="M132.008,258.431c0,0-55.582,22.804-55.582,74.111c0,68.409,76.38,100.621,102.614,94.063
	C213.244,418.053,256,306.888,256,306.888V247.03L132.008,258.431z"/>
<g>
	<path style="fill:#AA644B;" d="M170.489,315.439c-8.551,42.756,42.756,42.756,85.511-42.756v-25.653
		C256,247.029,179.04,272.683,170.489,315.439z"/>
	<path style="fill:#AA644B;" d="M33.67,84.557c-17.102,0-25.653,10.393-25.653,25.653c0,25.656,25.653,59.858,34.205,111.165
		c4.218,25.304,17.102,42.756,42.756,42.756c17.102,0,162.472-8.551,162.472-8.551v-17.102
		C247.449,238.478,144.835,84.557,33.67,84.557z"/>
</g>
<path style="fill:#9B5541;" d="M33.67,84.557c-17.102,0-25.653,10.393-25.653,25.653c0,24.449,23.262,56.694,32.855,104.071
	c2.201-3.631,4.204-7.706,6.339-12.146c35.63-74.11,200.24,53.445,200.24,53.445v-17.102
	C247.449,238.478,144.835,84.557,33.67,84.557z"/>
<path style="fill:#594759;" d="M207.087,187.515C167.065,142.697,102.005,84.557,33.67,84.557
	c-17.102,0-25.653,10.393-25.653,25.653c0,25.656,25.653,59.858,34.205,111.165c0.041,0.241,0.11,0.452,0.152,0.69
	C45.563,181.64,101.767,128.918,207.087,187.515z"/>
<path style="fill:#463246;" d="M198.613,178.259C158.233,135.095,97.385,84.557,33.67,84.557c-17.102,0-25.653,10.393-25.653,25.653
	c0,16.651,10.8,36.942,20.723,63.132C30.998,144.683,90.054,100.858,198.613,178.259z"/>
<g>
	<path style="fill:#594759;" d="M206.385,403.074c-17.191,12.841-52.999,6.427-78.652-19.226
		c-28.161-28.161-40.618-80.167-28.1-103.317c-12.209,12.044-23.207,29.193-23.207,52.01c0,68.409,76.38,100.621,102.614,94.063
		C187.879,424.393,197.289,415.302,206.385,403.074z"/>
	<circle style="fill:#594759;" cx="149.111" cy="331.828" r="9.976"/>
	<circle style="fill:#594759;" cx="165.144" cy="295.838" r="7.141"/>
</g>
<path style="fill:#463246;" d="M256,298.336L256,298.336c-9.446,0-17.102-7.656-17.102-17.102v-42.756
	c0-9.446,7.656-17.102,17.102-17.102l0,0c9.446,0,17.102,7.656,17.102,17.102v42.756C273.102,290.68,265.446,298.336,256,298.336z"
	/>
<path d="M478.33,76.541c-26.738,0-54.619,7.984-82.867,23.728c-22.246,12.399-44.794,29.633-67.02,51.222
	c-28.22,27.413-48.47,54.52-57.248,67.003c-1.289-0.982-2.674-1.843-4.141-2.564c4.982-10.431,16.09-30.615,37.961-57.954
	c2.765-3.458,2.205-8.503-1.252-11.268c-3.457-2.766-8.503-2.205-11.268,1.252c-18.805,23.506-30.06,42.014-36.496,54.226
	c-6.435-12.212-17.691-30.721-36.496-54.226c-2.766-3.457-7.813-4.018-11.268-1.252c-3.458,2.765-4.018,7.81-1.252,11.268
	c21.872,27.339,32.98,47.523,37.961,57.954c-1.467,0.721-2.852,1.582-4.141,2.564c-8.778-12.483-29.028-39.589-57.248-67.003
	c-22.224-21.59-44.774-38.823-67.02-51.222C88.29,84.524,60.409,76.541,33.67,76.541C12.902,76.541,0,89.442,0,110.211
	c0,13.854,6.268,29.053,13.525,46.651c7.723,18.728,16.476,39.953,20.789,65.832c5.316,31.89,23.308,49.454,50.663,49.454
	c2.41,0,7.081-0.162,13.345-0.443c-0.106,0.088-0.212,0.173-0.317,0.262c-19.362,16.199-29.596,37.144-29.596,60.573
	c0,30.213,14.213,57.949,40.022,78.099c19.454,15.189,44.568,24.82,62.896,24.82c3.493,0,6.744-0.351,9.657-1.079
	c16.746-4.187,35.22-26.152,56.479-67.152c3.827-7.38,7.364-14.657,10.52-21.427v38.046c0,4.427,3.589,8.017,8.017,8.017
	c4.427,0,8.017-3.589,8.017-8.017v-38.046c3.156,6.77,6.693,14.047,10.52,21.427c21.259,41,39.734,62.965,56.479,67.152
	c2.915,0.729,6.163,1.079,9.657,1.079c18.327,0,43.443-9.632,62.896-24.82c25.808-20.151,40.021-47.886,40.021-78.099
	c0-23.429-10.234-44.375-29.596-60.573c-0.106-0.089-0.212-0.174-0.317-0.262c6.264,0.28,10.935,0.443,13.345,0.443
	c27.355,0,45.348-17.564,50.663-49.456c4.313-25.879,13.066-47.104,20.789-65.832c7.257-17.597,13.525-32.796,13.525-46.65
	C512,89.442,499.098,76.541,478.33,76.541z M384.987,125.608c0.021-0.003,0.043-0.004,0.064-0.007
	c49.112-8.182,86.574,28.432,89.938,46.72c0.009,0.046,0.022,0.09,0.031,0.136c-1.992,5.352-3.947,10.981-5.773,16.882
	c-4.985-7.879-11.937-15.075-20.451-20.817c-15.907-10.728-36.304-15.96-58.989-15.113c-16.146,0.599-33.331,4.207-51.362,10.734
	c0.468-0.459,0.929-0.916,1.401-1.376C355.734,147.358,370.825,135.181,384.987,125.608z M256,290.319
	c-5.01,0-9.086-4.076-9.086-9.086v-42.756c0-5.005,4.066-9.076,9.068-9.086c0.005,0,0.011,0.001,0.016,0.001
	c0.005,0,0.011-0.001,0.016-0.001c5.002,0.009,9.071,4.08,9.071,9.086v42.756C265.086,286.244,261.01,290.319,256,290.319z
	 M173.556,164.144c-18.032-6.527-35.218-10.135-51.362-10.734c-22.685-0.843-43.082,4.385-58.989,15.113
	c-8.514,5.742-15.466,12.938-20.451,20.817c-1.826-5.901-3.78-11.53-5.772-16.882c0.01-0.046,0.022-0.09,0.031-0.136
	c3.363-18.283,40.807-54.883,89.895-46.727c17.187,11.62,32.54,24.85,45.248,37.174
	C172.627,163.228,173.088,163.686,173.556,164.144z M33.67,92.574c22.857,0,45.041,6.692,65.538,16.807
	c-15.133,2.073-29.86,7.515-43.126,16.158c-11.399,7.427-20.965,16.828-27.257,26.372c-0.159-0.386-0.322-0.781-0.479-1.163
	c-6.608-16.022-12.314-29.86-12.314-40.538C16.033,98.509,21.967,92.574,33.67,92.574z M50.174,220.308
	c-1.577-15.276,9.886-30.326,21.996-38.492c13.071-8.815,30.162-13.096,49.43-12.383c23.986,0.889,50.866,9.266,79.898,24.898
	c0.082,0.045,0.167,0.078,0.25,0.119c16.323,19.178,26.935,34.623,29.699,38.745c-0.367,1.705-0.564,3.472-0.564,5.285v9.568
	c-28.842,1.783-131.535,8.069-145.904,8.069C65.64,256.115,54.255,244.399,50.174,220.308z M223.17,359.965
	c-8.487,16.356-29.965,54.834-46.074,58.861c-11.707,2.928-37.512-4.204-58.798-20.823c-15.446-12.059-33.856-33.204-33.856-65.462
	c0-18.636,7.898-34.772,23.473-47.959c10.528-8.913,21.281-13.523,23.993-14.605c35.462-1.962,80.36-4.714,98.972-5.866v17.124
	c0,11.047,7.172,20.445,17.102,23.799v0.34C245.654,311.269,235.923,335.386,223.17,359.965z M427.557,332.541
	c0,32.258-18.411,53.403-33.855,65.462c-21.286,16.619-47.092,23.749-58.798,20.823c-16.108-4.028-37.588-42.506-46.074-58.861
	c-12.753-24.579-22.484-48.697-24.813-54.592v-0.34c9.93-3.354,17.102-12.752,17.102-23.799v-17.124
	c18.613,1.152,63.515,3.904,98.977,5.866C385.87,272.27,427.557,290.319,427.557,332.541z M427.023,256.115
	c-14.369,0-117.062-6.286-145.904-8.069v-9.568c0-1.813-0.198-3.58-0.564-5.285c2.764-4.123,13.375-19.566,29.699-38.745
	c0.083-0.042,0.168-0.075,0.25-0.119c29.03-15.631,55.912-24.008,79.898-24.898c19.267-0.714,36.358,3.567,49.43,12.383
	c12.11,8.167,23.572,23.217,21.996,38.492C457.745,244.399,446.36,256.115,427.023,256.115z M483.653,150.75
	c-0.157,0.382-0.32,0.777-0.479,1.163c-6.292-9.545-15.858-18.946-27.257-26.372c-13.269-8.645-27.999-14.089-43.137-16.161
	c26.652-13.089,48.899-16.805,65.55-16.805c11.703,0,17.637,5.933,17.637,17.637C495.967,120.889,490.261,134.727,483.653,150.75z"
	/>
<g>
</g>
<g>
</g>
<g>
</g>
<g>
</g>
<g>
</g>
<g>
</g>
<g>
</g>
<g>
</g>
<g>
</g>
<g>
</g>
<g>
</g>
<g>
</g>
<g>
</g>
<g>
</g>
<g>
</g>
</svg>
