<?xml version="1.0" encoding="iso-8859-1"?>
<!-- Generator: Adobe Illustrator 19.0.0, SVG Export Plug-In . SVG Version: 6.00 Build 0)  -->
<svg version="1.1" id="Layer_1" xmlns="http://www.w3.org/2000/svg" xmlns:xlink="http://www.w3.org/1999/xlink" x="0px" y="0px"
	 viewBox="0 0 512 512" style="enable-background:new 0 0 512 512;" xml:space="preserve">
<path style="fill:#FFB441;" d="M256,290.205c0,85.512,42.756,145.37,76.96,145.37c51.307,0,136.818-76.96,136.818-119.716
	c0-25.653-42.756-68.409-42.756-68.409H256V290.205z"/>
<path style="fill:#FFCD73;" d="M288.819,405.864C270.232,380.171,256,339.497,256,290.205v-42.756h94.069
	C315.698,273.802,262.04,329.456,288.819,405.864z"/>
<path style="fill:#E6DCD2;" d="M461.228,76.426c25.653,0,42.756,8.551,42.756,34.205c0,34.205-17.102,145.37-51.307,145.37
	s-188.125,0-188.125,0L256,204.693C256,204.693,341.511,76.426,461.228,76.426z"/>
<path style="fill:#CFC1B4;" d="M461.228,76.426c25.653,0,42.756,8.551,42.756,34.205c0,6.756-0.679,16.542-2.013,27.855
	l-27.382,2.074c-5.459-24.318-144.519-19.525-213.141,96.82L256,204.693C256,204.693,341.511,76.426,461.228,76.426z"/>
<path style="fill:#463246;" d="M469.779,119.182c-13.497-43.549-77.583-24.845-113.054-10.631
	c30.01-18.419,65.414-32.125,104.503-32.125c25.653,0,42.756,8.551,42.756,34.205c0,34.205-17.102,145.37-51.307,145.37
	c-0.391,0-0.875,0-1.298,0C458.728,232.218,480.855,154.917,469.779,119.182z"/>
<path style="fill:#FFB441;" d="M256,290.205c0,85.512-42.756,145.37-76.96,145.37c-51.307,0-136.818-76.96-136.818-119.716
	c0-25.653,42.756-68.409,42.756-68.409H256V290.205z"/>
<path style="fill:#FFCD73;" d="M223.181,405.864C241.767,380.171,256,339.497,256,290.205v-42.756h-94.069
	C196.302,273.802,249.96,329.456,223.181,405.864z"/>
<path style="fill:#E6DCD2;" d="M50.772,76.426c-25.653,0-42.756,8.551-42.756,34.205C8.017,144.835,25.119,256,59.324,256
	s188.125,0,188.125,0L256,204.693C256,204.693,170.489,76.426,50.772,76.426z"/>
<path style="fill:#CFC1B4;" d="M50.772,76.426c-25.653,0-42.756,8.551-42.756,34.205c0,6.756,0.679,16.542,2.013,27.855
	l27.382,2.074c5.46-24.318,144.519-19.525,213.142,96.82l5.448-32.687C256,204.693,170.489,76.426,50.772,76.426z"/>
<path style="fill:#6B5B6B;" d="M256,290.205L256,290.205c-9.446,0-17.102-7.656-17.102-17.102v-59.858
	c0-9.446,7.656-17.102,17.102-17.102l0,0c9.446,0,17.102,7.656,17.102,17.102v59.858C273.102,282.548,265.446,290.205,256,290.205z"
	/>
<path style="fill:#463246;" d="M42.221,119.182c13.497-43.549,77.583-24.845,113.054-10.631
	c-30.01-18.419-65.414-32.125-104.503-32.125c-25.653,0-42.756,8.551-42.756,34.205C8.017,144.835,25.119,256,59.324,256
	c0.391,0,0.875,0,1.298,0C53.272,232.218,31.145,154.917,42.221,119.182z"/>
<path d="M498.903,198.208C507.41,166.306,512,129.275,512,110.63c0-14.896-5.086-26.082-15.115-33.246
	c-8.455-6.039-20.119-8.976-35.657-8.976c-50.92,0-102.274,21.384-148.511,61.841c-14.228,12.449-25.885,24.835-34.748,35.202
	c6.28-35.414,11.479-61.469,11.545-61.801c0.868-4.342-1.948-8.565-6.289-9.433c-4.346-0.867-8.564,1.948-9.433,6.289
	c-0.082,0.409-7.939,39.783-16.036,87.687c-0.581-0.041-1.165-0.068-1.757-0.068s-1.176,0.028-1.757,0.068
	c-8.097-47.902-15.953-87.276-16.036-87.687c-0.869-4.342-5.093-7.155-9.433-6.289c-4.342,0.869-7.157,5.092-6.289,9.433
	c0.067,0.332,5.265,26.388,11.545,61.801c-8.862-10.367-20.52-22.752-34.748-35.202c-46.235-40.457-97.589-61.841-148.509-61.841
	C8.809,68.409,0,91.369,0,110.63c0,18.645,4.59,55.675,13.097,87.578c11.494,43.103,26.798,65.217,45.492,65.782
	c-10.702,13.223-24.385,33.68-24.385,51.868c0,26.548,26.796,59.712,51.874,81.896c32.445,28.701,67.196,45.836,92.961,45.836
	c20.174,0,41.942-16.672,58.232-44.595c7.958-13.641,14.242-29.23,18.728-46.034c4.487,16.804,10.771,32.393,18.728,46.034
	c16.29,27.924,38.058,44.595,58.232,44.595c25.765,0,60.515-17.135,92.961-45.836c25.078-22.185,51.874-55.348,51.874-81.897
	c0-18.188-13.683-38.645-24.385-51.868C472.105,263.425,487.408,241.31,498.903,198.208z M495.967,110.63
	c0,15.098-3.896,50.969-12.556,83.445c-5.741,21.526-11.958,35.535-17.708,43.867c7.464-30.514,19.285-87.927,11.895-120.534
	c-4.149-18.306-18.215-27.568-34.028-32.023c5.772-0.607,11.656-0.944,17.659-0.944C479.271,84.443,495.967,87.615,495.967,110.63z
	 M323.61,142.024c16.94-14.78,39.644-31.155,66.806-42.653c0.035-0.005,0.071-0.006,0.106-0.013
	c0.171-0.03,17.285-2.903,35.016-1.066c21.259,2.205,33.513,9.83,36.421,22.661c7.91,34.897-9.849,106.26-15.397,127.029H281.119
	v-34.739c0-6.63-2.587-12.664-6.798-17.158C280.918,186.823,298.087,164.292,323.61,142.024z M265.086,213.244v59.858
	c0,5.01-4.076,9.086-9.086,9.086c-5.01,0-9.086-4.076-9.086-9.086v-59.858c0-5.01,4.076-9.086,9.086-9.086
	C261.01,204.159,265.086,208.234,265.086,213.244z M237.679,196.086c-4.211,4.494-6.798,10.528-6.798,17.158v34.739H65.433
	c-2.302-8.599-6.699-25.866-10.477-45.617c-6.998-36.576-8.698-64.728-4.916-81.412c2.908-12.832,15.162-20.455,36.421-22.661
	c17.73-1.838,34.846,1.036,35.011,1.065c0.037,0.006,0.074,0.007,0.111,0.014c27.162,11.498,49.866,27.874,66.807,42.653
	C213.913,164.292,231.082,186.823,237.679,196.086z M28.59,194.076c-8.66-32.476-12.556-68.347-12.556-83.445
	c0-13.602,4.208-26.188,34.739-26.188c6.003,0,11.888,0.337,17.659,0.943c-15.813,4.456-29.88,13.718-34.029,32.024
	c-7.391,32.606,4.431,90.02,11.895,120.534C40.546,229.612,34.33,215.603,28.59,194.076z M223.421,390.917
	c-13.183,22.601-30.19,36.641-44.382,36.641c-21.633,0-53.183-16.022-82.338-41.813c-28.225-24.968-46.464-52.4-46.464-69.886
	c0-16.874,19.612-41.223,29.591-51.841h151.052v9.086c0,11.012,7.126,20.385,17.006,23.767
	C246.924,332.186,238.326,365.366,223.421,390.917z M415.298,385.744c-29.155,25.791-60.705,41.813-82.338,41.813
	c-14.192,0-31.199-14.04-44.382-36.641c-14.905-25.551-23.503-58.73-24.466-94.048c9.881-3.382,17.006-12.755,17.006-23.767v-9.086
	h151.056c9.978,10.6,29.587,34.921,29.587,51.841C461.762,333.344,443.525,360.776,415.298,385.744z"/>
<g>
</g>
<g>
</g>
<g>
</g>
<g>
</g>
<g>
</g>
<g>
</g>
<g>
</g>
<g>
</g>
<g>
</g>
<g>
</g>
<g>
</g>
<g>
</g>
<g>
</g>
<g>
</g>
<g>
</g>
</svg>
