<?xml version="1.0" encoding="iso-8859-1"?>
<!-- Generator: Adobe Illustrator 19.0.0, SVG Export Plug-In . SVG Version: 6.00 Build 0)  -->
<svg version="1.1" id="Layer_1" xmlns="http://www.w3.org/2000/svg" xmlns:xlink="http://www.w3.org/1999/xlink" x="0px" y="0px"
	 viewBox="0 0 512 512" style="enable-background:new 0 0 512 512;" xml:space="preserve">
<path style="fill:#695046;" d="M264.551,294.4c0,0,31.232,116.817,59.858,128.267c42.756,17.102,145.37-59.858,136.818-102.614
	s-66.984-68.409-66.984-68.409l-129.692-17.102V294.4z"/>
<g>
	<path style="fill:#58413C;" d="M437.422,371.229c-21.163,22.63-52.548,43.26-79.326,50.81
		c-13.624-35.713-43.311-101.138-93.545-153.729v-33.767l121.605,16.036C418.472,277.298,444.125,311.502,437.422,371.229z"/>
	<path style="fill:#58413C;" d="M435.574,89.172c34.572-6.915,68.409,0,68.409,51.307c0,34.587-10.682,75.046-18.171,101.545
		c-4.632,16.389-25.961,24.368-38.48,22.803l-182.781-21.734V217.44C290.205,183.235,392.818,97.724,435.574,89.172z"/>
</g>
<line style="fill:none;stroke:#464646;stroke-width:16;stroke-linecap:round;stroke-linejoin:round;stroke-miterlimit:10;" x1="358.614" y1="371.366" x2="358.528" y2="371.366"/>
<path style="fill:#73C8EB;" d="M324.409,311.502c8.551-42.756,94.063-9.398,94.063,34.205c0,0.134,0,0.268-0.001,0.404
	c-0.192,32.945-21.866,62.393-52.88,73.509c-7.017,2.515-13.824,4.242-20.175,5l-3.904-1.952
	C341.511,422.667,315.858,354.258,324.409,311.502z"/>
<path style="fill:#618CA9;" d="M322.801,336.764c-0.343-8.887,0.058-17.502,1.609-25.261c8.551-42.756,94.063-9.398,94.063,34.205
	C402.756,329.991,351.005,307.206,322.801,336.764z"/>
<path style="fill:#FF8C41;" d="M313.517,168.559c20.365-17.683,43.723-35.986,65.604-50.683
	c51.366,29.574,95.669,61.047,111.082,108.059c-1.511,5.714-3.008,11.199-4.39,16.088c-3.63,12.844-17.48,20.435-29.341,22.403
	c-3.051-8.285-9.235-18.224-20.897-29.886C419.091,218.059,368.576,190.163,313.517,168.559z"/>
<path style="fill:#695046;" d="M247.449,294.4c0,0-31.232,116.817-59.858,128.267c-42.756,17.102-145.37-59.858-136.818-102.614
	s66.984-68.409,66.984-68.409l129.692-17.102V294.4z"/>
<g>
	<path style="fill:#58413C;" d="M74.578,371.229c21.163,22.63,52.548,43.26,79.326,50.81
		c13.624-35.713,43.311-101.138,93.545-153.729v-33.767l-121.605,16.036C93.528,277.298,67.875,311.502,74.578,371.229z"/>
	<path style="fill:#58413C;" d="M76.426,89.172c-34.572-6.915-68.409,0-68.409,51.307c0,34.587,10.683,75.046,18.171,101.545
		c4.632,16.389,25.961,24.368,38.48,22.803l182.781-21.734V217.44C221.795,183.235,119.182,97.724,76.426,89.172z"/>
</g>
<line style="fill:none;stroke:#464646;stroke-width:16;stroke-linecap:round;stroke-linejoin:round;stroke-miterlimit:10;" x1="153.386" y1="371.366" x2="153.472" y2="371.366"/>
<path style="fill:#73C8EB;" d="M187.591,311.502c-8.551-42.756-94.063-9.398-94.063,34.205c0,0.134,0,0.268,0.001,0.404
	c0.192,32.945,21.866,62.393,52.88,73.509c7.017,2.515,13.824,4.242,20.175,5l3.904-1.952
	C170.489,422.667,196.142,354.258,187.591,311.502z"/>
<path style="fill:#618CA9;" d="M189.2,336.764c0.343-8.887-0.058-17.502-1.609-25.261c-8.551-42.756-94.063-9.398-94.063,34.205
	C109.244,329.991,160.995,307.206,189.2,336.764z"/>
<path style="fill:#463246;" d="M256,311.502L256,311.502c-9.446,0-17.102-7.656-17.102-17.102v-85.415
	c0-9.446,7.656-17.102,17.102-17.102l0,0c9.446,0,17.102,7.656,17.102,17.102V294.4C273.102,303.845,265.446,311.502,256,311.502z"
	/>
<path style="fill:#FF8C41;" d="M198.483,168.559c-20.365-17.683-43.723-35.986-65.604-50.683
	c-51.365,29.575-95.669,61.048-111.082,108.06c1.511,5.714,3.008,11.199,4.39,16.088c3.63,12.844,17.48,20.435,29.341,22.403
	c3.051-8.285,9.235-18.224,20.897-29.886C92.909,218.059,143.424,190.163,198.483,168.559z"/>
<path d="M153.472,363.344h-0.086c-4.427,0-7.974,3.589-7.974,8.017c0,4.427,3.632,8.017,8.059,8.017s8.017-3.589,8.017-8.017
	C161.488,366.933,157.899,363.344,153.472,363.344z"/>
<path d="M492.97,90.323c-13.538-11.097-33.377-14.13-58.968-9.011c-27.209,5.442-70.692,36.774-94.192,54.967
	c-26.379,20.422-50.452,41.873-64.22,56.915c-0.567-0.707-1.167-1.384-1.806-2.026c24.294-50.309,32.531-98.592,32.879-100.677
	c0.728-4.366-2.221-8.494-6.588-9.223c-4.365-0.729-8.497,2.22-9.228,6.585c-0.081,0.488-8.216,48.003-31.413,96.159
	c-1.124-0.155-2.27-0.241-3.435-0.241c-1.165,0-2.312,0.087-3.435,0.241c-23.16-48.08-31.306-95.522-31.413-96.156
	c-0.728-4.366-4.857-7.32-9.226-6.59c-4.367,0.728-7.318,4.858-6.59,9.226c0.347,2.085,8.585,50.368,32.879,100.677
	c-0.638,0.641-1.239,1.319-1.806,2.026c-13.768-15.043-37.841-36.492-64.22-56.915c-23.499-18.193-66.983-49.525-94.192-54.967
	c-25.59-5.118-45.431-2.085-58.968,9.011C6.403,100.675,0,117.549,0,140.479c0,35.978,12.259,84.056,19.567,109.511
	c4.193,14.605,17.36,24.301,32.227,24.301c1.416,0,2.849-0.088,4.289-0.268l13.279-1.66c-11.255,10.493-22.342,25.567-26.452,46.117
	c-4.152,20.757,12.137,48.761,43.573,74.909c16.658,13.856,35.516,25.315,53.102,32.263c12.534,4.953,24.008,7.448,33.987,7.448
	c6.298,0,12-0.994,16.994-2.992c19.248-7.699,32.666-45.665,41.086-73.554c4.578-15.167,8.266-29.857,10.852-40.986
	c1.698,1.086,3.534,1.973,5.477,2.628v61.712c0,4.427,3.589,8.017,8.017,8.017c4.427,0,8.017-3.589,8.017-8.017v-61.711
	c1.942-0.656,3.779-1.542,5.477-2.628c2.588,11.129,6.274,25.819,10.852,40.986c8.419,27.888,21.839,65.855,41.086,73.554
	c4.995,1.999,10.696,2.992,16.994,2.992c9.978,0,21.454-2.496,33.987-7.448c17.585-6.95,36.444-18.407,53.102-32.263
	c31.436-26.148,47.725-54.152,43.573-74.909c-4.11-20.549-15.196-35.624-26.452-46.117l13.279,1.66
	c1.442,0.181,2.872,0.268,4.289,0.268c14.867,0,28.035-9.697,32.227-24.301C499.741,224.535,512,176.457,512,140.479
	C512,117.549,505.597,100.675,492.97,90.323z M437.146,97.033c20.654-4.131,36.016-2.217,45.659,5.689
	c8.733,7.159,13.161,19.863,13.161,37.758c0,18.495-3.511,40.655-7.851,60.992c-8.487-16.295-23.734-33.462-45.676-51.36
	c-17.981-14.667-36.215-26.334-47.399-33.044C411.701,106.667,426.694,99.124,437.146,97.033z M313.148,179.118
	c99.939,35.819,123.958,65.334,129.712,77.116l-161.742-20.218V211.44C286.796,203.793,298.45,192.136,313.148,179.118z
	 M230.881,211.44v24.576L69.139,256.234c5.754-11.782,29.774-41.298,129.712-77.116C213.55,192.136,225.204,203.793,230.881,211.44z
	 M29.195,102.722c9.642-7.906,25.004-9.819,45.659-5.689c10.452,2.091,25.445,9.634,42.105,20.034
	c-11.183,6.708-29.418,18.376-47.399,33.044c-21.942,17.899-37.189,35.065-45.676,51.36c-4.339-20.338-7.85-42.497-7.85-60.992
	C16.033,122.585,20.462,109.881,29.195,102.722z M34.978,245.567c-0.814-2.837-1.694-5.973-2.61-9.335
	c-0.001-0.006-0.001-0.014-0.002-0.02c-6.5-40.52,66.555-90.819,99.559-109.354c17.816,12.143,36.504,26.49,52.984,40.273
	C130.193,187.4,91.44,208.405,69.63,229.644c-13.2,12.856-17,22.901-18.003,28.592C43.929,258.143,37.147,253.122,34.978,245.567z
	 M125.769,401.174c-3.774-4.121-24.224-27.738-24.224-55.467c0-18.308,24.226-42.819,54.312-45.798
	c9.506-0.94,21.356,0.579,23.873,13.166c6.907,34.534-10.419,88.554-15.434,103.079C152.953,414.175,139.515,408.95,125.769,401.174
	z M184.613,415.223c-1.073,0.43-2.221,0.776-3.429,1.052c2.402-7.306,5.79-18.401,8.861-31.3
	c7.363-30.922,9.182-56.171,5.408-75.045c-3.691-18.452-19.081-28.163-41.175-25.976c-15.231,1.508-32.148,8.721-45.255,19.296
	c-15.161,12.231-23.511,27.309-23.511,42.457c0,11.319,2.639,21.886,6.33,31.148c-22.994-20.422-35.912-41.711-33.207-55.229
	c6.948-34.741,39.954-51.067,45.585-53.619l126.662-15.832v41.438c-0.94,4.688-6.374,31.161-14.61,58.421
	C200.159,405.362,187.967,413.883,184.613,415.223z M256,303.486c-5.01,0-9.086-4.076-9.086-9.086v-0.066c0-0.013,0-0.026,0-0.038
	v-85.352c0-0.011,0-0.02,0-0.03v-0.025c0-5.01,4.076-9.086,9.086-9.086c5.01,0,9.086,4.076,9.086,9.086v0.025c0,0.011,0,0.02,0,0.03
	v85.352c0,0.013,0,0.026,0,0.038v0.066C265.086,299.41,261.01,303.486,256,303.486z M347.705,416.153
	c-5.015-14.524-22.341-68.545-15.434-103.079c2.517-12.586,14.372-14.107,23.873-13.166c30.085,2.979,54.312,27.49,54.312,45.798
	c0,27.747-20.476,51.376-24.223,55.467C372.485,408.95,359.047,414.175,347.705,416.153z M453.367,321.626
	c2.703,13.517-10.213,34.806-33.207,55.229c3.691-9.263,6.33-19.829,6.33-31.148c0-15.147-8.35-30.226-23.51-42.458
	c-13.107-10.573-30.024-17.787-45.255-19.296c-22.093-2.188-37.485,7.523-41.175,25.976c-3.774,18.873-1.956,44.123,5.408,75.045
	c3.071,12.9,6.459,23.995,8.861,31.3c-1.208-0.276-2.356-0.622-3.429-1.052c-3.353-1.341-15.545-9.862-31.657-63.19
	c-8.236-27.26-13.671-53.733-14.61-58.421v-41.438l126.676,15.835C413.466,270.551,446.382,286.7,453.367,321.626z M460.374,258.236
	c-1.004-5.69-4.804-15.736-18.003-28.592c-21.81-21.24-60.564-42.246-115.279-62.514c16.481-13.782,35.169-28.131,52.986-40.274
	c33.006,18.52,106.064,68.791,99.558,109.355c-0.001,0.007-0.001,0.014-0.002,0.021c-0.916,3.362-1.796,6.498-2.61,9.335
	C474.853,253.122,468.068,258.142,460.374,258.236z"/>
<path d="M358.528,363.344c-4.427,0-8.017,3.589-8.017,8.017c0,4.427,3.589,8.017,8.017,8.017h0.086c4.427,0,7.974-3.589,7.974-8.017
	C366.588,366.933,362.956,363.344,358.528,363.344z"/>
<g>
</g>
<g>
</g>
<g>
</g>
<g>
</g>
<g>
</g>
<g>
</g>
<g>
</g>
<g>
</g>
<g>
</g>
<g>
</g>
<g>
</g>
<g>
</g>
<g>
</g>
<g>
</g>
<g>
</g>
</svg>
