<?xml version="1.0" encoding="iso-8859-1"?>
<!-- Generator: Adobe Illustrator 19.0.0, SVG Export Plug-In . SVG Version: 6.00 Build 0)  -->
<svg version="1.1" id="Layer_1" xmlns="http://www.w3.org/2000/svg" xmlns:xlink="http://www.w3.org/1999/xlink" x="0px" y="0px"
	 viewBox="0 0 511.998 511.998" style="enable-background:new 0 0 511.998 511.998;" xml:space="preserve">
<path style="fill:#8F664D;" d="M392.818,251.794c17.102,0,65.559,2.138,76.96,34.205c9.059,25.478,0,80.523-68.409,148.932v4.989
	c0,4.722-3.829,8.551-8.551,8.551h-19.95c-3.365,0-6.392-1.923-7.77-4.994c-4.951-11.04-19.362-38.517-49.241-63.415
	c-40.62-33.851-42.756-59.858-42.756-59.858v-68.409L392.818,251.794L392.818,251.794z"/>
<path style="fill:#A07855;" d="M416.66,254.309l10.363,57.343c0,0-16.148,70.915-34.918,67.696
	c-74.823-12.827-49.169-85.511-119.003-110.452c-7.188-2.567-12.093-5.729-15.813-8.084L256,251.793h128.267
	C390.814,251.794,403.215,252.124,416.66,254.309z"/>
<path style="fill:#7C5546;" d="M469.779,285.998c9.059,25.478,0,80.523-68.409,148.932v4.989c0,4.722-3.829,8.551-8.551,8.551
	h-19.95c-3.365,0-6.392-1.923-7.77-4.994c-2.665-5.943-8.199-16.707-17.285-29.211h2.249c44.359-3.741,14.965-55.582,34.205-68.409
	c30.667-20.445,41.687-60.927,8.551-94.063C409.921,251.794,458.378,253.932,469.779,285.998z"/>
<g>
	<circle style="fill:#A07855;" cx="437.712" cy="287.072" r="6.769"/>
	<circle style="fill:#A07855;" cx="423.282" cy="353.61" r="6.413"/>
	<circle style="fill:#A07855;" cx="437.712" cy="321.982" r="8.551"/>
	<circle style="fill:#A07855;" cx="407.783" cy="381.487" r="5.612"/>
	<circle style="fill:#A07855;" cx="393" cy="410.165" r="5.612"/>
</g>
<path style="fill:#6F463C;" d="M264.551,251.794c0,0,170.31,0,187.412,0s33.314-10.154,34.918-51.307
	c1.664-42.724,17.102-85.511,17.102-102.614s-7.151-31.198-25.653-34.205C449.826,59.037,307.307,157.731,264.551,251.794z"/>
<path style="fill:#7C5546;" d="M353.947,140.128c91.712-8.791,97.076,71.279,84.258,111.666c-44.768,0-173.654,0-173.654,0
	C282.278,212.795,317.159,173.024,353.947,140.128z"/>
<path style="fill:#A07855;" d="M465.614,182.316c0.245,13.54,4.712,45.249-22.558,48.456c-27.27,3.207-51.231,5.024-59.611-14.234
	c-8.38-19.258-9.071-41.236,4.385-50.968c16.54-11.965,44.642-25.653,63.778-20.309
	C459.836,147.559,465.156,157.002,465.614,182.316z"/>
<path style="fill:#8F664D;" d="M119.182,251.794c-17.102,0-65.56,2.138-76.96,34.205c-9.059,25.478,0,80.523,68.409,148.932v4.989
	c0,4.722,3.829,8.551,8.551,8.551h19.95c3.365,0,6.392-1.923,7.77-4.994c4.951-11.04,19.362-38.517,49.241-63.415
	c40.62-33.851,42.756-59.858,42.756-59.858v-68.409L119.182,251.794L119.182,251.794z"/>
<path style="fill:#A07855;" d="M95.34,254.309l-10.363,57.343c0,0,16.148,70.915,34.918,67.696
	c74.823-12.827,49.169-85.511,119.003-110.452c7.188-2.567,12.093-5.729,15.813-8.084l1.289-9.019H127.733
	C121.186,251.794,108.785,252.124,95.34,254.309z"/>
<path style="fill:#7C5546;" d="M42.221,285.998c-9.059,25.478,0,80.523,68.409,148.932v4.989c0,4.722,3.829,8.551,8.551,8.551h19.95
	c3.365,0,6.392-1.923,7.77-4.994c2.665-5.943,8.199-16.707,17.285-29.211h-2.249c-44.359-3.741-14.965-55.582-34.205-68.409
	c-30.667-20.445-41.687-60.927-8.551-94.063C102.079,251.794,53.622,253.932,42.221,285.998z"/>
<path style="fill:#5A464B;" d="M256,337.305L256,337.305c-9.446,0-17.102-7.656-17.102-17.102v-51.307
	c0-9.446,7.656-17.102,17.102-17.102l0,0c9.446,0,17.102,7.656,17.102,17.102v51.307C273.102,329.649,265.446,337.305,256,337.305z"
	/>
<g>
	<circle style="fill:#A07855;" cx="74.288" cy="287.072" r="6.769"/>
	<circle style="fill:#A07855;" cx="88.718" cy="353.61" r="6.413"/>
	<circle style="fill:#A07855;" cx="74.288" cy="321.982" r="8.551"/>
	<circle style="fill:#A07855;" cx="104.217" cy="381.487" r="5.612"/>
	<circle style="fill:#A07855;" cx="119" cy="410.165" r="5.612"/>
</g>
<path style="fill:#6F463C;" d="M247.449,251.794c0,0-170.31,0-187.412,0s-33.314-10.154-34.918-51.307
	C23.455,157.763,8.017,114.975,8.017,97.873s7.151-31.198,25.653-34.205C62.174,59.037,204.693,157.731,247.449,251.794z"/>
<path style="fill:#7C5546;" d="M158.053,140.128c-91.712-8.791-97.076,71.279-84.258,111.666c44.768,0,173.654,0,173.654,0
	C229.722,212.795,194.841,173.024,158.053,140.128z"/>
<path style="fill:#A07855;" d="M46.386,182.316c-0.245,13.54-4.712,45.251,22.558,48.457s51.231,5.024,59.611-14.234
	c8.38-19.258,9.071-41.236-4.385-50.968c-16.54-11.965-44.642-25.653-63.778-20.309C52.164,147.559,46.844,157.002,46.386,182.316z"
	/>
<path d="M479.616,55.757c-20.065-3.26-68.632,27.143-107.858,58.721c-46.346,37.309-83.758,78.782-105.394,116.384l22.658-52.869
	c1.744-4.069-0.141-8.782-4.21-10.526c-4.069-1.743-8.782,0.141-10.526,4.21L256,214.341l-18.284-42.665
	c-1.744-4.07-6.457-5.954-10.526-4.21c-4.069,1.744-5.955,6.457-4.21,10.526l22.658,52.869
	c-21.635-37.603-59.049-79.076-105.394-116.384c-21.647-17.427-44.11-32.909-63.249-43.595c-20.599-11.5-35.608-16.589-44.61-15.125
	C11.804,59.1,0,74.452,0,97.873c0,7.916,2.635,19.423,5.971,33.991c4.537,19.813,10.184,44.47,11.137,68.935
	c0.98,25.163,8.3,54.835,36.672,58.604c-11.335,7.764-16.637,16.948-19.113,23.909c-5.942,16.711-4.091,39.404,5.213,63.9
	c11.217,29.531,32.316,60.141,62.734,91.023v1.685c0,9.136,7.432,16.568,16.568,16.568h19.95c6.514,0,12.436-3.819,15.084-9.73
	c4.59-10.236,18.364-36.625,47.058-60.537c21.819-18.183,33.209-34.52,39.159-46.324c4.283,3.393,9.691,5.427,15.566,5.427
	c5.876,0,11.283-2.033,15.566-5.427c5.949,11.804,17.341,28.142,39.159,46.324c28.694,23.912,42.468,50.301,47.058,60.536
	c2.65,5.912,8.571,9.731,15.085,9.731h19.951c9.136,0,16.568-7.432,16.568-16.568v-1.685c30.419-30.881,51.517-61.491,62.732-91.022
	c9.304-24.496,11.155-47.188,5.213-63.9c-2.475-6.961-7.777-16.145-19.113-23.91c28.372-3.769,35.693-33.441,36.672-58.604
	c0.953-24.465,6.6-49.122,11.137-68.935c3.336-14.568,5.971-26.075,5.971-33.991C512,74.452,500.196,59.1,479.616,55.757z
	 M356.584,148.496c31.174-3.973,53.529,2.831,66.445,20.243c16.131,21.747,13.991,55.601,7.118,75.038H277.493
	C293.779,213.609,321.516,180.248,356.584,148.496z M234.507,243.777H81.855c-6.873-19.438-9.013-53.292,7.118-75.038
	c12.915-17.411,35.271-24.216,66.445-20.243C190.484,180.248,218.221,213.609,234.507,243.777z M33.129,200.175
	c-1.011-25.96-6.843-51.427-11.529-71.891c-2.986-13.043-5.567-24.308-5.567-30.411c0-15.405,6.366-24.251,18.923-26.292
	c0.117-0.019,0.376-0.051,0.809-0.051c2.622,0,11.584,1.163,33.411,13.35c18.376,10.26,40.043,25.206,61.01,42.084
	c1.859,1.496,3.696,3.001,5.524,4.51c-21.393,0.668-44.369,7.155-59.618,27.711c-18.379,24.777-17.839,60.692-11.042,84.591h-5.017
	C49.215,243.777,34.652,239.258,33.129,200.175z M139.131,440.454h-19.95c-0.295,0-0.534-0.239-0.534-0.534v-4.987
	c0-2.126-0.844-4.165-2.348-5.668c-29.646-29.646-50.888-59.987-61.429-87.743c-11.133-29.311-7.272-46.714-5.095-52.835
	c2.717-7.642,13.086-24.198,51.94-28.053C91.577,276.406,90.2,291.264,91.258,301.96c1.969,19.879,13.642,38.31,32.027,50.567
	c4.062,2.707,4.034,12.315,4.007,21.604c-0.045,15.855-0.099,38.836,23.122,46.085c-5.37,8.531-8.866,15.602-10.83,19.981
	C139.51,440.368,139.357,440.454,139.131,440.454z M191.01,373.902c-12.825,10.688-22.928,21.866-30.737,32.114
	c-15.427-2.09-17.006-11.193-16.947-31.839c0.037-12.894,0.079-27.507-11.146-34.991c-14.372-9.582-23.472-23.726-24.965-38.806
	c-1.401-14.152,3.912-28.12,15.386-40.57h109.989c-1.098,2.82-1.707,5.882-1.707,9.086v50.797c-0.19,1.208-1.259,6.738-5.838,15.165
	C220.204,343.766,210.371,357.768,191.01,373.902z M265.086,320.203c0,5.011-4.076,9.086-9.086,9.086
	c-5.01,0-9.086-4.076-9.086-9.086v-51.307c0-5.01,4.076-9.086,9.086-9.086c5.01,0,9.086,4.076,9.086,9.086V320.203z M320.99,373.902
	c-19.361-16.134-29.194-30.136-34.033-39.042c-4.579-8.427-5.648-13.959-5.838-15.165v-50.797c0-3.203-0.609-6.266-1.707-9.086
	h109.989c11.474,12.449,16.787,26.418,15.386,40.57c-1.493,15.079-10.593,29.224-24.965,38.806
	c-11.226,7.484-11.184,22.098-11.146,34.991c0.059,20.645-1.52,29.749-16.946,31.839C343.918,395.768,333.815,384.59,320.99,373.902
	z M457.13,341.519c-10.541,27.756-31.784,58.098-61.429,87.743c-1.504,1.503-2.348,3.542-2.348,5.668v4.989
	c0,0.295-0.239,0.534-0.534,0.534h-19.95c-0.226,0-0.378-0.087-0.455-0.258c-1.964-4.378-5.46-11.449-10.83-19.98
	c23.223-7.249,23.168-30.229,23.122-46.085c-0.027-9.29-0.055-18.897,4.007-21.604c18.386-12.257,30.059-30.688,32.027-50.567
	c1.059-10.696-0.32-25.554-10.456-41.329c38.852,3.855,49.221,20.412,51.94,28.053C464.402,294.806,468.263,312.209,457.13,341.519z
	 M490.4,128.284c-4.686,20.464-10.518,45.93-11.529,71.891c-1.523,39.082-16.086,43.602-26.906,43.602h-5.017
	c6.797-23.898,7.337-59.814-11.042-84.591c-15.248-20.555-38.225-27.044-59.616-27.712c1.828-1.508,3.665-3.012,5.524-4.509
	c20.967-16.879,42.634-31.824,61.01-42.084c25.428-14.197,33.401-13.432,34.222-13.299c12.555,2.041,18.922,10.887,18.922,26.292
	C495.967,103.977,493.386,115.242,490.4,128.284z"/>
<g>
</g>
<g>
</g>
<g>
</g>
<g>
</g>
<g>
</g>
<g>
</g>
<g>
</g>
<g>
</g>
<g>
</g>
<g>
</g>
<g>
</g>
<g>
</g>
<g>
</g>
<g>
</g>
<g>
</g>
</svg>
