<?xml version="1.0" encoding="iso-8859-1"?>
<!-- Generator: Adobe Illustrator 19.0.0, SVG Export Plug-In . SVG Version: 6.00 Build 0)  -->
<svg version="1.1" id="Layer_1" xmlns="http://www.w3.org/2000/svg" xmlns:xlink="http://www.w3.org/1999/xlink" x="0px" y="0px"
	 viewBox="0 0 512 512" style="enable-background:new 0 0 512 512;" xml:space="preserve">
<g>
	<path style="fill:#D7D7DC;" d="M179.04,250.893c-51.307,17.102-85.511,59.858-85.511,85.511s34.205,51.307,68.409,42.756
		C204.238,368.585,256,250.893,256,250.893L179.04,250.893L179.04,250.893z"/>
	<path style="fill:#D7D7DC;" d="M256,250.893c0,0-119.716-119.716-196.676-119.716c-34.205,0-51.307,8.551-51.307,25.653
		c0,25.653,17.102,25.653,51.307,59.858c25.653,25.653,42.756,34.205,76.96,34.205S256,250.893,256,250.893z"/>
</g>
<g>
	<path style="fill:#BEBEC5;" d="M59.324,131.177c-34.205,0-51.307,8.551-51.307,25.653c0,17.039,7.592,22.798,22.682,34.742
		c73.244-30.552,207.155,59.32,207.155,59.32c10.981,0,18.147,0,18.147,0S136.284,131.177,59.324,131.177z"/>
	<path style="fill:#BEBEC5;" d="M243.699,276.547C251.336,261.48,256,250.893,256,250.893h-76.96
		c-17.998,6-33.827,15.186-46.878,25.653H243.699z"/>
	<path style="fill:#BEBEC5;" d="M185.956,363.741c-62.191-3.699-75.308-36.929-76.879-63.784
		c-9.944,13.062-15.549,26.137-15.549,36.449c0,25.653,34.205,51.307,68.409,42.756C169.75,377.208,177.885,371.584,185.956,363.741
		z"/>
</g>
<g>
	<path style="fill:#D7D7DC;" d="M332.96,250.893c51.307,17.102,85.512,59.858,85.512,85.511s-34.205,51.307-68.409,42.756
		C307.762,368.585,256,250.893,256,250.893L332.96,250.893L332.96,250.893z"/>
	<path style="fill:#D7D7DC;" d="M256,250.893c0,0,119.716-119.716,196.676-119.716c34.205,0,51.307,8.551,51.307,25.653
		c0,25.653-17.102,25.653-51.307,59.858c-25.653,25.653-42.756,34.205-76.96,34.205S256,250.893,256,250.893z"/>
</g>
<g>
	<path style="fill:#BEBEC5;" d="M452.676,131.177c34.205,0,51.307,8.551,51.307,25.653c0,17.039-7.592,22.798-22.682,34.742
		c-73.244-30.552-207.155,59.32-207.155,59.32c-10.981,0-18.147,0-18.147,0S375.716,131.177,452.676,131.177z"/>
	<path style="fill:#BEBEC5;" d="M268.301,276.547C260.664,261.48,256,250.893,256,250.893h76.96
		c17.998,6,33.827,15.186,46.878,25.653H268.301z"/>
	<path style="fill:#BEBEC5;" d="M326.044,363.741c62.191-3.699,75.308-36.929,76.879-63.784
		c9.944,13.062,15.549,26.137,15.549,36.449c0,25.653-34.205,51.307-68.409,42.756C342.25,377.208,334.115,371.584,326.044,363.741z
		"/>
</g>
<path d="M67.875,157.365h-8.551c-4.427,0-8.017,3.589-8.017,8.017c0,4.427,3.589,8.017,8.017,8.017h8.551
	c4.427,0,8.017-3.589,8.017-8.017C75.891,160.955,72.302,157.365,67.875,157.365z"/>
<path d="M102.165,157.365h-0.086c-4.427,0-7.974,3.589-7.974,8.017c0,4.427,3.632,8.017,8.059,8.017s8.017-3.589,8.017-8.017
	C110.182,160.955,106.592,157.365,102.165,157.365z"/>
<path d="M102.079,183.019h-8.551c-4.427,0-8.017,3.589-8.017,8.017c0,4.427,3.589,8.017,8.017,8.017h8.551
	c4.427,0,8.017-3.589,8.017-8.017C110.096,186.608,106.507,183.019,102.079,183.019z"/>
<path d="M136.369,183.019h-0.086c-4.427,0-7.974,3.589-7.974,8.017c0,4.427,3.632,8.017,8.059,8.017s8.017-3.589,8.017-8.017
	C144.386,186.608,140.797,183.019,136.369,183.019z"/>
<path d="M93.528,208.672c-4.427,0-8.017,3.589-8.017,8.017s3.589,8.017,8.017,8.017h0.086c4.427,0,7.974-3.589,7.974-8.017
	S97.956,208.672,93.528,208.672z"/>
<path d="M127.818,208.672h-0.086c-4.427,0-7.974,3.589-7.974,8.017s3.632,8.017,8.059,8.017c4.427,0,8.017-3.589,8.017-8.017
	S132.246,208.672,127.818,208.672z"/>
<path d="M162.023,208.672h-0.086c-4.427,0-7.974,3.589-7.974,8.017s3.632,8.017,8.059,8.017s8.017-3.589,8.017-8.017
	S166.45,208.672,162.023,208.672z"/>
<path d="M144.921,345.49h-0.086c-4.427,0-7.974,3.589-7.974,8.017c0,4.427,3.632,8.017,8.059,8.017s8.017-3.589,8.017-8.017
	C152.937,349.08,149.348,345.49,144.921,345.49z"/>
<path d="M170.574,319.837h-0.086c-4.427,0-7.974,3.589-7.974,8.017c0,4.427,3.632,8.017,8.059,8.017s8.017-3.589,8.017-8.017
	C178.591,323.426,175.001,319.837,170.574,319.837z"/>
<path d="M153.386,294.184h-0.086c-4.427,0-7.974,3.589-7.974,8.017c0,4.427,3.632,8.017,8.059,8.017
	c4.427,0,8.017-3.589,8.017-8.017C161.403,297.773,157.814,294.184,153.386,294.184z"/>
<path d="M196.142,294.184h-0.086c-4.427,0-7.974,3.589-7.974,8.017c0,4.427,3.632,8.017,8.059,8.017s8.017-3.589,8.017-8.017
	C204.159,297.773,200.569,294.184,196.142,294.184z"/>
<path d="M127.733,319.837h-0.086c-4.427,0-7.974,3.589-7.974,8.017c0,4.427,3.632,8.017,8.059,8.017
	c4.427,0,8.017-3.589,8.017-8.017C135.749,323.426,132.16,319.837,127.733,319.837z"/>
<path d="M494.742,130.421c-9.77-4.885-23.53-7.26-42.065-7.26c-58.586,0-138.208,63.787-177.898,99.2
	c13.791-23.011,28.139-33.01,28.448-33.221c3.665-2.462,4.652-7.426,2.201-11.102c-2.455-3.684-7.434-4.68-11.116-2.223
	c-0.982,0.655-21.306,14.489-38.309,47.27c-17.003-32.781-37.326-46.614-38.309-47.27c-3.684-2.455-8.661-1.461-11.116,2.223
	c-2.456,3.683-1.461,8.661,2.223,11.116c0.184,0.123,14.583,9.929,28.5,33.274c-39.663-35.399-119.349-99.267-177.974-99.267
	c-18.536,0-32.296,2.375-42.065,7.26C2.994,137.553,0,148.719,0,156.831c0,20.673,9.958,28.553,25.03,40.48
	c7.637,6.042,17.141,13.563,28.624,25.046c28.012,28.012,47.318,36.553,82.629,36.553h6.953
	c-11.895,7.334-22.799,16.148-32.054,26.063c-16.313,17.48-25.671,36.226-25.671,51.432c0,13.75,7.604,27.574,20.864,37.926
	c12.123,9.465,27.04,14.508,41.923,14.508c5.24,0,10.475-0.625,15.583-1.903c19.697-4.923,42.523-29.077,67.846-71.788
	c6.117-10.318,11.619-20.429,16.256-29.366v67.723c0,4.427,3.589,8.017,8.017,8.017c4.427,0,8.017-3.589,8.017-8.017v-67.723
	c4.638,8.937,10.138,19.047,16.256,29.366c25.322,42.711,48.148,66.865,67.846,71.788c5.109,1.277,10.343,1.903,15.583,1.903
	c14.882,0,29.801-5.043,41.923-14.508c13.26-10.352,20.864-24.176,20.864-37.926c0-15.206-9.357-33.952-25.672-51.432
	c-9.253-9.914-20.159-18.728-32.054-26.063h6.953c35.311,0,54.617-8.54,82.629-36.553c11.483-11.483,20.988-19.004,28.624-25.046
	C502.042,185.384,512,177.504,512,156.831C512,148.719,509.006,137.553,494.742,130.421z M64.992,211.02
	c-4.544-4.544-8.775-8.485-12.707-11.968h7.039c4.427,0,8.017-3.589,8.017-8.017c0-4.427-3.589-8.017-8.017-8.017h-8.551
	c-4.404,0-7.975,3.552-8.013,7.946c-2.776-2.267-5.368-4.319-7.779-6.227c-5.903-4.671-10.157-8.051-13.133-11.339h3.273
	c4.427,0,8.017-3.589,8.017-8.017c0-4.427-3.589-8.017-8.017-8.017h-8.551c-0.176,0-0.347,0.015-0.521,0.027
	c-0.002-0.191-0.014-0.366-0.014-0.561c0-11.703,14.565-17.637,43.29-17.637c57.55,0,142.849,72.718,176.559,103.683h-99.598
	C105.326,242.877,90.001,236.029,64.992,211.02z M217.936,306.973c-22.409,37.797-42.987,60.671-57.943,64.41
	c-14.866,3.717-31.22,0.094-43.751-9.69c-9.203-7.185-14.697-16.639-14.697-25.289c0-10.861,8.185-26.376,21.36-40.493
	c15.326-16.42,35.707-29.52,57.499-37.002h63.044C238.081,270.144,228.963,288.374,217.936,306.973z M389.095,295.912
	c13.175,14.117,21.36,29.633,21.36,40.493c0,8.65-5.494,18.104-14.697,25.289c-12.531,9.784-28.885,13.406-43.751,9.69
	c-14.938-3.735-35.488-26.564-57.867-64.284c-11.049-18.622-20.202-36.922-25.586-48.189h63.042
	C353.388,266.393,373.77,279.492,389.095,295.912z M477.019,184.738c-2.41,1.908-5.003,3.96-7.779,6.227
	c-0.038-4.394-3.61-7.946-8.013-7.946h-8.551c-4.427,0-8.017,3.589-8.017,8.017s3.589,8.017,8.017,8.017h7.039
	c-3.934,3.484-8.164,7.425-12.707,11.968c-25.009,25.009-40.334,31.856-71.292,31.856h-99.598
	c33.71-30.965,119.008-103.683,176.559-103.683c28.725,0,43.29,5.933,43.29,17.637c0,0.196-0.012,0.37-0.014,0.561
	c-0.173-0.011-0.345-0.027-0.521-0.027h-8.551c-4.427,0-8.017,3.589-8.017,8.017s3.589,8.017,8.017,8.017h3.272
	C487.177,176.688,482.924,180.066,477.019,184.738z"/>
<path d="M452.676,157.365h-8.551c-4.427,0-8.017,3.589-8.017,8.017c0,4.427,3.589,8.017,8.017,8.017h8.551
	c4.427,0,8.017-3.589,8.017-8.017C460.693,160.955,457.104,157.365,452.676,157.365z"/>
<path d="M409.835,173.399h0.086c4.427,0,7.974-3.589,7.974-8.017c0-4.427-3.632-8.017-8.059-8.017c-4.427,0-8.017,3.589-8.017,8.017
	C401.818,169.809,405.408,173.399,409.835,173.399z"/>
<path d="M418.472,183.019h-8.551c-4.427,0-8.017,3.589-8.017,8.017c0,4.427,3.589,8.017,8.017,8.017h8.551
	c4.427,0,8.017-3.589,8.017-8.017C426.489,186.608,422.899,183.019,418.472,183.019z"/>
<path d="M383.69,191.035c0-4.427-3.632-8.017-8.059-8.017s-8.017,3.589-8.017,8.017c0,4.427,3.589,8.017,8.017,8.017h0.086
	C380.143,199.052,383.69,195.463,383.69,191.035z"/>
<path d="M418.472,208.672h-0.086c-4.427,0-7.974,3.589-7.974,8.017s3.632,8.017,8.059,8.017c4.427,0,8.017-3.589,8.017-8.017
	S422.899,208.672,418.472,208.672z"/>
<path d="M384.182,208.672c-4.427,0-8.017,3.589-8.017,8.017s3.589,8.017,8.017,8.017h0.086c4.427,0,7.974-3.589,7.974-8.017
	S388.609,208.672,384.182,208.672z"/>
<path d="M349.977,208.672c-4.427,0-8.017,3.589-8.017,8.017s3.589,8.017,8.017,8.017h0.086c4.427,0,7.974-3.589,7.974-8.017
	S354.405,208.672,349.977,208.672z"/>
<path d="M359.063,353.507c0,4.427,3.589,8.017,8.017,8.017h0.086c4.427,0,7.974-3.589,7.974-8.017c0-4.427-3.632-8.017-8.059-8.017
	S359.063,349.08,359.063,353.507z"/>
<path d="M341.426,335.87h0.085c4.427,0,7.974-3.589,7.974-8.017c0-4.427-3.632-8.017-8.059-8.017c-4.427,0-8.017,3.589-8.017,8.017
	C333.409,332.281,336.999,335.87,341.426,335.87z"/>
<path d="M358.614,310.217h0.085c4.427,0,7.974-3.589,7.974-8.017c0-4.427-3.632-8.017-8.059-8.017c-4.427,0-8.017,3.589-8.017,8.017
	C350.597,306.628,354.186,310.217,358.614,310.217z"/>
<path d="M315.858,310.217h0.086c4.427,0,7.974-3.589,7.974-8.017c0-4.427-3.632-8.017-8.059-8.017c-4.427,0-8.017,3.589-8.017,8.017
	C307.841,306.628,311.431,310.217,315.858,310.217z"/>
<path d="M384.267,335.87h0.085c4.427,0,7.974-3.589,7.974-8.017c0-4.427-3.632-8.017-8.059-8.017c-4.427,0-8.017,3.589-8.017,8.017
	C376.25,332.281,379.84,335.87,384.267,335.87z"/>
<g>
</g>
<g>
</g>
<g>
</g>
<g>
</g>
<g>
</g>
<g>
</g>
<g>
</g>
<g>
</g>
<g>
</g>
<g>
</g>
<g>
</g>
<g>
</g>
<g>
</g>
<g>
</g>
<g>
</g>
</svg>
