<?xml version="1.0" encoding="iso-8859-1"?>
<!-- Generator: Adobe Illustrator 19.0.0, SVG Export Plug-In . SVG Version: 6.00 Build 0)  -->
<svg version="1.1" id="Layer_1" xmlns="http://www.w3.org/2000/svg" xmlns:xlink="http://www.w3.org/1999/xlink" x="0px" y="0px"
	 viewBox="0 0 512 512" style="enable-background:new 0 0 512 512;" xml:space="preserve">
<path style="fill:#463246;" d="M392.809,247.448H273.096v85.509c0,17.102,0,42.755,25.653,68.407
	c17.102,17.102,34.204,42.755,25.653,68.407c0,0,162.467-17.102,153.916-145.366C474.858,272.509,392.809,247.448,392.809,247.448z"
	/>
<circle style="fill:#51627D;" cx="358.604" cy="350.063" r="59.856"/>
<path style="fill:#463246;" d="M444.114,42.226c51.305,0,59.856,42.755,59.856,42.755s-17.102,8.551-17.102,34.204
	c0,22.034,6.308,75.611-8.168,111.964c-3.911,9.82-13.363,16.301-23.933,16.301H264.545l0,0
	C264.545,247.448,315.851,42.226,444.114,42.226z"/>
<g>
	<circle style="fill:#64B4DC;" cx="461.215" cy="67.883" r="17.102"/>
	<path style="fill:#64B4DC;" d="M358.844,247.448c2.521-37.982-8.79-68.407-8.79-68.407l34.204-34.204
		c0,0,68.407,42.755,51.305,102.611h-34.204H358.844z"/>
</g>
<path style="fill:#564046;" d="M392.809,247.448c0,0,82.049,25.06,85.509,76.958c1.53,22.946-2.48,42.279-9.987,58.649
	c-19.493-44.184-66.286-94.891-143.318-135.607L392.809,247.448L392.809,247.448z"/>
<path style="fill:#64B4DC;" d="M358.844,247.448h42.515c0,0,35.251,95.412-8.551,128.264c-34.204,25.653-81.899-14.87-51.305-68.407
	C352.914,287.337,357.581,266.463,358.844,247.448z"/>
<path style="fill:#78C8E6;" d="M414.499,310.421c-16.158-15.331-35.449-30.417-57.988-44.686c1.16-6.216,1.939-12.349,2.333-18.287
	h33.964c0,0,3.861,1.21,9.76,3.504C405.519,259.818,413.001,284.473,414.499,310.421z"/>
<path style="fill:#463246;" d="M119.18,247.448h119.713v85.509c0,17.102,0,42.755-25.653,68.407
	c-17.102,17.102-34.204,42.755-25.653,68.407c0,0-162.467-17.102-153.916-145.366C37.129,272.509,119.18,247.448,119.18,247.448z"/>
<circle style="fill:#51627D;" cx="153.382" cy="350.063" r="59.856"/>
<path style="fill:#463246;" d="M67.873,42.226c-51.305,0-59.856,42.755-59.856,42.755s17.102,8.551,17.102,34.204
	c0,22.034-6.308,75.611,8.168,111.964c3.911,9.82,13.363,16.301,23.933,16.301h190.223l0,0
	C247.443,247.448,196.138,42.226,67.873,42.226z"/>
<circle style="fill:#64B4DC;" cx="50.771" cy="67.883" r="17.102"/>
<path style="fill:#463246;" d="M255.993,350.06L255.993,350.06c-9.446,0-17.102-7.656-17.102-17.102V230.347
	c0-9.446,7.656-17.102,17.102-17.102l0,0c9.446,0,17.102,7.656,17.102,17.102v102.611
	C273.095,342.403,265.439,350.06,255.993,350.06z"/>
<path style="fill:#564046;" d="M255.994,350.059L255.994,350.059c-9.446,0-17.102-7.656-17.102-17.102v-76.958
	c0-9.446,7.656-17.102,17.102-17.102l0,0c9.446,0,17.102,7.656,17.102,17.102v76.958
	C273.096,342.403,265.439,350.059,255.994,350.059z"/>
<path style="fill:#64B4DC;" d="M153.144,247.448c-2.521-37.982,8.79-68.407,8.79-68.407l-34.204-34.204
	c0,0-68.407,42.755-51.305,102.611h34.204H153.144z"/>
<path style="fill:#564046;" d="M119.18,247.448c0,0-82.049,25.06-85.509,76.958c-1.53,22.946,2.48,42.279,9.987,58.649
	c19.493-44.184,66.286-94.891,143.318-135.607L119.18,247.448L119.18,247.448z"/>
<path style="fill:#64B4DC;" d="M153.144,247.448h-42.515c0,0-35.251,95.412,8.551,128.264c34.204,25.653,81.899-14.87,51.305-68.407
	C159.074,287.337,154.406,266.463,153.144,247.448z"/>
<path style="fill:#78C8E6;" d="M97.488,310.421c16.158-15.331,35.449-30.417,57.988-44.686c-1.16-6.216-1.939-12.349-2.333-18.287
	h-33.964c0,0-3.861,1.21-9.76,3.504C106.469,259.818,98.987,284.473,97.488,310.421z"/>
<path d="M511.831,83.409c-0.103-0.514-2.632-12.74-12.29-24.813c-8.899-11.125-25.74-24.386-55.427-24.386
	c-31.122,0-60.004,10.48-85.841,31.151c-20.302,16.241-38.719,38.772-54.738,66.965c-12.768,22.47-21.913,44.769-28.057,62.244
	c3.784-22.459,11.14-58.856,21.888-80.352c1.981-3.96,0.375-8.775-3.585-10.755c-3.959-1.98-8.774-0.375-10.755,3.585
	c-14.433,28.867-22.789,79.658-25.482,98.232c-0.514-0.031-1.03-0.052-1.552-0.052s-1.038,0.021-1.552,0.052
	c-2.692-18.574-11.049-69.366-25.482-98.232c-1.98-3.96-6.795-5.567-10.755-3.585c-3.96,1.98-5.566,6.795-3.585,10.755
	c10.748,21.497,18.104,57.894,21.888,80.352c-6.144-17.476-15.289-39.775-28.057-62.244c-16.019-28.193-34.436-50.725-54.738-66.965
	c-25.837-20.67-54.718-31.151-85.84-31.151c-29.687,0-46.528,13.261-55.427,24.386C2.788,70.668,0.259,82.894,0.156,83.409
	c-0.709,3.544,1.042,7.126,4.275,8.742c0.127,0.064,12.67,6.898,12.67,27.034c0,4.169-0.242,9.647-0.521,15.989
	c-1.195,27.142-3.001,68.157,9.257,98.939c5.166,12.971,17.483,21.352,31.381,21.352h23.433
	c-24.523,13.504-52.82,35.969-54.981,68.408c-3.725,55.883,23.277,100.3,78.088,128.447c40.416,20.754,81.269,25.244,82.988,25.425
	c0.281,0.029,0.561,0.044,0.84,0.044c2.413,0,4.717-1.09,6.248-2.995c1.707-2.125,2.218-4.971,1.356-7.557
	c-7.937-23.81,11.452-47.94,23.716-60.204c17.809-17.809,24.285-35.953,26.644-51.24c3.182,1.461,6.717,2.282,10.443,2.282
	c3.726,0,7.26-0.821,10.443-2.282c2.36,15.287,8.835,33.431,26.644,51.24c12.264,12.264,31.653,36.394,23.716,60.204
	c-0.861,2.586-0.351,5.432,1.356,7.557c1.531,1.905,3.834,2.995,6.248,2.995c0.279,0,0.559-0.015,0.84-0.044
	c1.719-0.181,42.572-4.671,82.988-25.425c54.811-28.146,81.813-72.563,78.088-128.447c-2.162-32.438-30.459-54.903-54.981-68.408
	h23.433c13.897,0,26.215-8.381,31.381-21.352c12.259-30.782,10.452-71.798,9.257-98.939c-0.279-6.343-0.521-11.821-0.521-15.989
	c0-19.552,11.699-26.49,12.715-27.055C510.924,90.559,512.553,87.02,511.831,83.409z M470.302,67.879
	c0,5.01-4.076,9.085-9.085,9.085c-5.01,0-9.085-4.076-9.085-9.085c0-5.01,4.076-9.085,9.085-9.085
	C466.226,58.793,470.302,62.869,470.302,67.879z M265.08,230.346v10.792c-2.82-1.098-5.882-1.707-9.085-1.707
	c-3.203,0-6.266,0.609-9.085,1.707v-10.792c0-5.01,4.076-9.085,9.085-9.085S265.08,225.336,265.08,230.346z M59.858,67.879
	c0,5.01-4.076,9.085-9.085,9.085s-9.085-4.076-9.085-9.085c0-5.01,4.076-9.085,9.085-9.085S59.858,62.869,59.858,67.879z
	 M40.735,228.182c-10.985-27.584-9.269-66.53-8.135-92.302c0.288-6.532,0.535-12.173,0.535-16.696
	c0-20.382-9.372-31.879-15.758-37.347c1.326-3.44,3.676-8.336,7.588-13.226c0.223-0.279,0.462-0.539,0.69-0.811
	c0,0.027-0.002,0.052-0.002,0.079c0,13.85,11.268,25.118,25.118,25.118S75.89,81.729,75.89,67.879c0-6.859-2.766-13.082-7.238-17.62
	c27.038,0.175,52.238,9.418,74.905,27.507c18.688,14.914,35.772,35.83,50.779,62.169c23.997,42.121,34.969,84.907,36.54,91.354
	v8.142h-70.047c-0.6-32.189,8.463-57.18,8.612-57.577c1.104-2.944,0.385-6.26-1.837-8.484l-34.204-34.204
	c-2.64-2.64-6.751-3.107-9.917-1.13c-0.743,0.465-18.39,11.599-34.005,30.561c-18.661,22.66-26.491,46.947-22.969,70.832h-9.287
	C49.928,239.433,43.456,235.016,40.735,228.182z M106.405,300.487c2.129-18.061,6.7-34.54,9.469-43.412
	c2.042-0.752,3.61-1.29,4.568-1.609h25.221c2.03,17.946,7.226,37.206,17.861,55.817c15.278,26.738,8.039,47.402-2.803,56.973
	c-10.639,9.392-25.057,9.801-36.734,1.044C104.475,354.664,103.656,323.801,106.405,300.487z M82.768,239.433
	c-7.665-41.284,29.946-73.658,44.05-84.17l25.942,25.942c-2.942,9.511-8.617,31.488-8.137,58.227H82.768z M207.57,395.696
	c-12.966,12.966-32.379,37.215-30.106,64.402c-14.343-2.636-40.685-8.846-66.381-22.042C61.71,412.702,38.355,374.644,41.669,324.94
	c1.909-28.639,32.431-48.695,55.176-59.747c-8.19,31.482-17.598,90.591,17.525,116.933c8.457,6.343,18.082,9.493,27.61,9.493
	c10.463,0,20.808-3.8,29.353-11.344c15.356-13.556,26.171-41.842,6.112-76.947c-9.008-15.765-13.579-32.274-15.5-47.863h68.93
	v77.493C230.876,349.599,230.876,372.392,207.57,395.696z M255.994,342.042c-5.01,0-9.085-4.076-9.085-9.085V264.55
	c0-5.01,4.076-9.085,9.085-9.085s9.085,4.076,9.085,9.085v68.407C265.08,337.967,261.004,342.042,255.994,342.042z M470.319,324.94
	c3.305,49.575-19.926,87.569-69.045,112.927c-25.741,13.289-52.316,19.562-66.751,22.223c2.267-27.183-17.141-51.428-30.107-64.393
	c-23.304-23.304-23.304-46.097-23.304-62.739v-77.493h68.968c-1.93,15.569-6.515,32.071-15.538,47.863
	c-20.059,35.105-9.245,63.391,6.112,76.947c8.547,7.545,18.889,11.345,29.353,11.344c9.527,0,19.154-3.151,27.61-9.493
	c35.135-26.352,25.708-85.491,17.517-116.965C437.879,276.189,468.405,296.23,470.319,324.94z M359.227,181.205l25.952-25.952
	c14.121,10.483,51.753,42.775,44.042,84.179h-61.856C367.844,212.693,362.17,190.716,359.227,181.205z M391.55,255.465
	c0.96,0.317,2.527,0.853,4.566,1.602c2.753,8.807,7.285,25.136,9.435,43.144c2.795,23.417,2.019,54.411-17.551,69.088
	c-11.675,8.757-26.094,8.348-36.734-1.044c-17.347-15.314-12.351-40.261-2.803-56.973c10.635-18.611,15.831-37.871,17.861-55.817
	L391.55,255.465z M478.853,119.184c0,4.521,0.248,10.163,0.535,16.696c1.135,25.771,2.851,64.718-8.135,92.302
	c-2.721,6.834-9.193,11.251-16.485,11.251h-9.287c3.522-23.885-4.308-48.172-22.969-70.832
	c-15.615-18.962-33.262-30.097-34.005-30.561c-3.165-1.978-7.277-1.509-9.917,1.13l-34.204,34.204
	c-2.223,2.223-2.942,5.54-1.837,8.484c0.151,0.401,9.27,25.361,8.659,57.577h-70.094v-8.142c1.571-6.446,12.543-49.233,36.54-91.354
	c15.007-26.339,32.091-47.256,50.779-62.169c22.667-18.089,47.867-27.332,74.905-27.507c-4.472,4.537-7.238,10.76-7.238,17.62
	c0,13.85,11.268,25.118,25.118,25.118c13.85,0,25.118-11.268,25.118-25.118c0-0.044-0.003-0.087-0.003-0.13
	c4.38,5.177,6.921,10.426,8.307,14.066C488.251,87.272,478.853,98.773,478.853,119.184z"/>
<g>
</g>
<g>
</g>
<g>
</g>
<g>
</g>
<g>
</g>
<g>
</g>
<g>
</g>
<g>
</g>
<g>
</g>
<g>
</g>
<g>
</g>
<g>
</g>
<g>
</g>
<g>
</g>
<g>
</g>
</svg>
