<?xml version="1.0" encoding="iso-8859-1"?>
<!-- Generator: Adobe Illustrator 19.0.0, SVG Export Plug-In . SVG Version: 6.00 Build 0)  -->
<svg version="1.1" id="Layer_1" xmlns="http://www.w3.org/2000/svg" xmlns:xlink="http://www.w3.org/1999/xlink" x="0px" y="0px"
	 viewBox="0 0 512 512" style="enable-background:new 0 0 512 512;" xml:space="preserve">
<path style="fill:#FF9B46;" d="M402.082,228.805c63.405,24.154,80.244,83.616,83.907,101.202c0.638,3.062-0.338,6.104-2.324,8.521
	c-9.355,11.388-11.4,24.388-11.764,31.401c-0.155,2.986-1.508,5.848-3.998,7.505c-14.248,9.481-17.682,24.359-18.394,33.165
	c-0.331,4.1-3.185,7.545-7.166,8.582c-17.04,4.439-26.109,15.87-30.018,22.333c-1.593,2.633-4.374,4.384-7.45,4.385
	c-16.199,0.004-27.65,7.831-33.423,12.97c-2.694,2.398-6.428,3.257-9.809,2c-11.922-4.433-25.932-5.681-32.876-6.033
	c-3.207-0.162-6.051-1.925-7.761-4.643c-18.762-29.806-56.456-157.965-56.456-157.965v-68.409L402.082,228.805z"/>
<path style="fill:#FFB464;" d="M323.295,225.948l78.787,2.857c59.511,22.671,77.997,76.438,83.072,97.498
	C468.371,293.221,422.684,248.881,323.295,225.948z"/>
<path style="fill:#E6823B;" d="M307.494,421.213c-19.181-48.208-42.943-128.987-42.943-128.987v-68.409l14.275,0.517
	c52.686,21.559,116.566,54.804,131.094,93.545C432.157,377.175,351.626,417.17,307.494,421.213z"/>
<path style="fill:#FF9B46;" d="M478.33,52.794c15.297,7.648,25.653,25.653,25.653,68.409c0,39.387-11.107,75.071-18.705,94.872
	c-3.786,9.868-13.321,16.293-23.891,16.293H264.551v-25.653C315.858,69.897,444.125,35.692,478.33,52.794z"/>
<path style="fill:#E6823B;" d="M264.551,232.368c0,0,61.591-15.881,148.042-21.912c22.981-1.603,27.793-89.911,16.568-100.476
	c-9.086-8.551-105.82-20.843-164.61,105.286V232.368z"/>
<path style="fill:#5A464B;" d="M441.987,84.861c-17.637,0-24.05-20.309-40.309-24.121c33.418-13.375,62.776-14.884,76.651-7.946
	c10.337,5.168,18.404,15.102,22.557,34.174C474.589,68.828,453.745,84.861,441.987,84.861z"/>
<path style="fill:#FF9B46;" d="M109.918,228.805c-63.405,24.154-80.244,83.616-83.907,101.202c-0.638,3.062,0.338,6.104,2.324,8.521
	c9.355,11.388,11.4,24.388,11.764,31.401c0.155,2.986,1.508,5.848,3.998,7.505c14.248,9.481,17.682,24.359,18.394,33.165
	c0.331,4.1,3.185,7.545,7.166,8.582c17.04,4.439,26.109,15.87,30.018,22.333c1.592,2.633,4.374,4.384,7.45,4.385
	c16.199,0.004,27.65,7.831,33.423,12.97c2.694,2.398,6.428,3.257,9.809,2c11.922-4.433,25.932-5.681,32.876-6.033
	c3.207-0.162,6.051-1.925,7.761-4.643c18.762-29.806,56.456-157.965,56.456-157.965v-68.409L109.918,228.805z"/>
<path style="fill:#FFB464;" d="M188.705,225.948l-78.787,2.857c-59.511,22.671-77.997,76.438-83.072,97.498
	C43.629,293.221,89.316,248.881,188.705,225.948z"/>
<path style="fill:#E6823B;" d="M204.506,421.213c19.181-48.208,42.943-128.987,42.943-128.987v-68.409l-14.275,0.517
	c-52.686,21.559-116.566,54.804-131.094,93.545C79.843,377.175,160.374,417.17,204.506,421.213z"/>
<path style="fill:#FF9B46;" d="M33.67,52.794C18.373,60.442,8.017,78.448,8.017,121.204c0,39.387,11.107,75.071,18.705,94.872
	c3.786,9.868,13.321,16.293,23.891,16.293h196.837v-25.653C196.142,69.897,67.875,35.692,33.67,52.794z"/>
<path style="fill:#E6823B;" d="M247.449,232.368c0,0-61.591-15.881-148.042-21.912c-22.981-1.603-27.793-89.911-16.568-100.476
	c9.086-8.551,105.82-20.843,164.61,105.286V232.368z"/>
<circle style="fill:#BE7D3C;" cx="256" cy="215.265" r="17.102"/>
<path style="fill:#FF9B46;" d="M256,343.533L256,343.533c-9.446,0-17.102-7.656-17.102-17.102V240.92
	c0-9.446,7.656-17.102,17.102-17.102l0,0c9.446,0,17.102,7.656,17.102,17.102v85.511C273.102,335.876,265.446,343.533,256,343.533z"
	/>
<path style="fill:#5A464B;" d="M70.013,84.861c17.637,0,24.05-20.309,40.309-24.121C76.904,47.365,47.545,45.856,33.67,52.794
	c-10.337,5.168-18.404,15.102-22.557,34.174C37.411,68.828,58.255,84.861,70.013,84.861z"/>
<path d="M107.94,369.1l-18.706,20.309c-2.999,3.257-2.791,8.329,0.466,11.328c1.54,1.419,3.488,2.12,5.429,2.12
	c2.162,0,4.318-0.87,5.899-2.586l18.706-20.309c2.999-3.257,2.791-8.329-0.466-11.328S110.939,365.843,107.94,369.1z"/>
<path d="M96.025,345.657c-2.369-3.741-7.323-4.854-11.062-2.483L68.93,353.329c-3.741,2.369-4.853,7.322-2.483,11.062
	c1.526,2.409,4.124,3.728,6.78,3.728c1.467,0,2.951-0.402,4.281-1.245l16.033-10.154C97.282,354.351,98.394,349.397,96.025,345.657z
	"/>
<path d="M76.051,315.775c-2.049-3.925-6.89-5.449-10.816-3.399l-12.292,6.413c-3.925,2.048-5.447,6.89-3.399,10.816
	c1.43,2.741,4.223,4.31,7.115,4.31c1.248,0,2.517-0.293,3.702-0.911l12.292-6.413C76.578,324.542,78.099,319.7,76.051,315.775z"/>
<path d="M143.485,392.296c-4.062-1.762-8.783,0.1-10.547,4.16l-8.818,20.309c-1.764,4.062,0.099,8.783,4.16,10.547
	c1.04,0.451,2.123,0.666,3.189,0.666c3.097,0,6.046-1.804,7.357-4.826l8.818-20.309C149.409,398.781,147.547,394.06,143.485,392.296
	z"/>
<path d="M172.595,406.219c-4.342-0.868-8.564,1.948-9.433,6.289l-2.672,13.361c-0.868,4.342,1.948,8.565,6.289,9.433
	c0.531,0.106,1.059,0.157,1.581,0.157c3.743,0,7.09-2.635,7.853-6.447l2.672-13.361
	C179.753,411.311,176.937,407.088,172.595,406.219z"/>
<path d="M481.292,289.848c-9.761-20.499-23.307-37.215-39.915-49.463h20.011c13.846,0,26.455-8.615,31.376-21.438
	C499.948,200.223,512,162.625,512,121.204c0-41.301-9.559-65.317-30.085-75.579c-16.938-8.47-49.351-5.778-82.578,6.856
	c-25.882,9.84-84.173,38.354-124.062,105.723c6.899-19.971,13.447-33.208,13.55-33.417c1.979-3.96,0.373-8.773-3.586-10.753
	c-3.96-1.982-8.776-0.374-10.755,3.585c-0.534,1.069-10.07,20.313-18.483,47.943c-8.413-27.629-17.949-46.874-18.483-47.943
	c-1.98-3.96-6.794-5.567-10.755-3.585c-3.96,1.98-5.566,6.795-3.585,10.755c0.104,0.208,6.659,13.435,13.565,33.441
	c-39.89-67.388-98.193-95.909-124.078-105.75c-33.228-12.633-65.642-15.325-82.578-6.856C9.559,55.886,0,79.903,0,121.204
	c0,41.422,12.052,79.019,19.236,97.744c4.92,12.822,17.529,21.438,31.376,21.438h20.01c-16.607,12.25-30.152,28.964-39.915,49.463
	c-11.141,23.397-13.463,43.408-13.557,44.248c-0.268,2.42,0.577,4.832,2.299,6.553c14.097,14.097,12.663,33.517,12.65,33.672
	c-0.301,3.244,1.39,6.348,4.279,7.853c20.327,10.586,18.274,33.83,18.181,34.776c-0.475,4.353,2.631,8.282,6.975,8.824
	c24.573,3.072,32.761,22.516,33.078,23.292c1.308,3.341,4.671,5.409,8.248,5.057c22.327-2.188,35.158,13.44,35.664,14.069
	c1.562,1.992,3.912,3.072,6.313,3.072c1.212,0,2.438-0.275,3.582-0.847c15.164-7.582,38.939-7.705,39.171-7.705
	c2.126,0,4.165-0.844,5.668-2.348c14.2-14.2,36.969-80.74,47.685-113.841c4.199,3.153,9.413,5.025,15.055,5.025
	c5.643,0,10.857-1.872,15.055-5.025c10.716,33.103,33.484,99.641,47.685,113.841c1.503,1.504,3.542,2.348,5.668,2.348
	c0.237,0,23.938,0.089,39.171,7.705c1.131,0.565,2.345,0.837,3.551,0.837c2.391,0,4.744-1.069,6.315-3.025
	c0.536-0.667,13.371-16.293,35.694-14.106c3.58,0.354,6.94-1.716,8.248-5.057c0.018-0.047,2.069-4.963,6.958-10.224
	c6.839-7.359,15.627-11.757,26.12-13.068c4.314-0.539,7.407-4.458,6.979-8.785c-0.097-0.984-2.151-24.229,18.177-34.815
	c2.89-1.505,4.581-4.609,4.279-7.853c-0.018-0.192-1.624-19.397,12.65-33.672c1.722-1.722,2.568-4.133,2.299-6.553
	C494.756,333.257,492.434,313.245,481.292,289.848z M474.745,59.965c3.825,1.912,8.176,5.027,11.941,11.341
	c-12.021-1.83-26.713-0.286-38.378,4.317c-8.642,3.411-14.019-1.081-22.776-9.314c-1.433-1.348-2.934-2.759-4.515-4.134
	C446.435,55.009,466.088,55.636,474.745,59.965z M400.157,69.401c3.801-0.87,7.508,2.116,14.391,8.589
	c8.912,8.381,21.121,19.859,39.645,12.548c17.483-6.9,36.011-3.358,39.163-0.48c0.73,3.617,1.333,7.661,1.773,12.204h-23.183
	c-4.427,0-8.017,3.589-8.017,8.017c0,4.427,3.589,8.017,8.017,8.017h23.842c0.051,0,0.102-0.006,0.153-0.007
	c0.012,0.963,0.025,1.922,0.025,2.917c0,3.899-0.12,7.762-0.332,11.579h-19.798c-4.427,0-8.017,3.589-8.017,8.017
	c0,4.427,3.589,8.017,8.017,8.017h18.326c-0.63,4.971-1.399,9.812-2.268,14.49h-22.114c-4.427,0-8.017,3.589-8.017,8.017
	s3.589,8.017,8.017,8.017h18.634c-1.281,5.166-2.635,10.019-3.991,14.49h-23.194c-4.427,0-8.017,3.589-8.017,8.017
	s3.589,8.017,8.017,8.017h17.823c-0.432,1.173-0.853,2.291-1.256,3.341c-2.559,6.668-9.152,11.149-16.406,11.149H279.412
	c1.098-2.82,1.707-5.882,1.707-9.086c0-7.023-2.9-13.377-7.561-17.94C307.438,116.348,369.952,81.849,400.157,69.401z
	 M246.914,215.266c0-5.003,4.065-9.074,9.065-9.085c0.004,0,0.009,0,0.012,0c0.003,0,0.005,0,0.009,0c0.003,0,0.005,0,0.009,0
	c0.004,0,0.009,0,0.012,0c5,0.011,9.065,4.081,9.065,9.085c0,5.01-4.076,9.086-9.086,9.086
	C250.99,224.352,246.914,220.276,246.914,215.266z M37.255,59.965c8.658-4.328,28.31-4.955,53.728,2.209
	c-1.58,1.377-3.082,2.788-4.515,4.134c-8.756,8.234-14.134,12.726-22.776,9.313c-11.665-4.604-26.356-6.147-38.376-4.317
	C29.079,64.992,33.431,61.877,37.255,59.965z M34.206,213.204c-0.403-1.051-0.824-2.169-1.256-3.341h17.823
	c4.427,0,8.017-3.589,8.017-8.017s-3.589-8.017-8.017-8.017H27.579c-1.356-4.471-2.71-9.324-3.991-14.49h18.634
	c4.427,0,8.017-3.589,8.017-8.017s-3.589-8.017-8.017-8.017H20.106c-0.869-4.676-1.638-9.518-2.268-14.49h18.327
	c4.427,0,8.017-3.589,8.017-8.017s-3.589-8.017-8.017-8.017H16.367c-0.214-3.817-0.333-7.68-0.333-11.579
	c0-0.995,0.013-1.954,0.025-2.917c0.051,0.001,0.102,0.007,0.154,0.007h23.842c4.427,0,8.017-3.589,8.017-8.017
	c0-4.427-3.589-8.017-8.017-8.017H16.869c0.44-4.543,1.043-8.586,1.773-12.204c3.153-2.877,21.678-6.42,39.163,0.479
	c18.525,7.312,30.733-4.165,39.645-12.547c6.883-6.472,10.596-9.46,14.391-8.589c30.206,12.448,92.72,46.946,126.6,127.925
	c-4.661,4.563-7.561,10.918-7.561,17.94c0,3.203,0.609,6.266,1.707,9.086H50.612C43.358,224.352,36.765,219.871,34.206,213.204z
	 M183.806,446.78c-7.203,0.311-23.305,1.594-37.063,6.889c-6.549-6.072-20.184-15.873-39.904-15.789
	c-4.581-7.775-15.443-21.759-36.266-26.741c-0.618-10.359-4.396-28.96-22.428-40.648c-0.297-8.171-2.543-24.265-14.512-38.119
	c1.13-6.337,4.272-20.495,11.776-36.102c13.052-27.145,32.644-45.927,58.218-55.886h128.962c-1.098,2.82-1.707,5.882-1.707,9.086
	v75.75C218.474,365.378,195.787,430.439,183.806,446.78z M256,335.517c-5.008,0-9.081-4.071-9.086-9.078c0-0.025,0-0.049,0-0.074
	V249.47c0-5.01,4.076-9.086,9.086-9.086c5.01,0,9.086,4.076,9.086,9.086v76.895c0,0.025,0,0.049,0,0.074
	C265.081,331.445,261.008,335.517,256,335.517z M463.855,370.492c-18.031,11.688-21.81,30.288-22.428,40.648
	c-20.823,4.981-31.685,18.964-36.267,26.741c-19.69-0.083-33.355,9.718-39.904,15.789c-13.758-5.295-29.86-6.578-37.063-6.889
	c-11.981-16.342-34.668-81.402-47.075-121.559v-75.75c0-3.203-0.609-6.266-1.707-9.086h128.962
	c25.574,9.959,45.166,28.741,58.218,55.886c7.506,15.61,10.647,29.772,11.776,36.102
	C466.399,346.226,464.152,362.321,463.855,370.492z"/>
<path d="M404.06,369.1c-3-3.257-8.071-3.465-11.328-0.466c-3.257,2.999-3.465,8.071-0.466,11.328l18.706,20.309
	c1.581,1.716,3.737,2.586,5.899,2.586c1.941,0,3.889-0.701,5.429-2.12c3.257-2.999,3.465-8.071,0.466-11.328L404.06,369.1z"/>
<path d="M443.07,353.329l-16.033-10.154c-3.741-2.37-8.693-1.256-11.062,2.483c-2.369,3.74-1.257,8.693,2.483,11.062l16.033,10.154
	c1.331,0.843,2.814,1.245,4.281,1.245c2.656,0,5.255-1.319,6.78-3.728C447.922,360.651,446.81,355.697,443.07,353.329z"/>
<path d="M459.057,318.789l-12.292-6.413c-3.926-2.049-8.768-0.526-10.816,3.399c-2.048,3.925-0.526,8.768,3.399,10.816l12.292,6.413
	c1.184,0.618,2.452,0.911,3.702,0.911c2.891,0,5.684-1.569,7.115-4.31C464.504,325.68,462.983,320.837,459.057,318.789z"/>
<path d="M379.061,396.458c-1.763-4.061-6.483-5.923-10.547-4.16c-4.061,1.764-5.924,6.485-4.16,10.547l8.818,20.309
	c1.312,3.022,4.261,4.826,7.357,4.826c1.066,0,2.148-0.214,3.189-0.666c4.061-1.764,5.924-6.485,4.16-10.547L379.061,396.458z"/>
<path d="M348.838,412.508c-0.869-4.342-5.092-7.153-9.433-6.289c-4.342,0.869-7.157,5.092-6.289,9.433l2.672,13.361
	c0.762,3.811,4.11,6.447,7.853,6.447c0.521,0,1.05-0.051,1.581-0.157c4.342-0.869,7.157-5.092,6.289-9.433L348.838,412.508z"/>
<g>
</g>
<g>
</g>
<g>
</g>
<g>
</g>
<g>
</g>
<g>
</g>
<g>
</g>
<g>
</g>
<g>
</g>
<g>
</g>
<g>
</g>
<g>
</g>
<g>
</g>
<g>
</g>
<g>
</g>
</svg>
