<?xml version="1.0" encoding="iso-8859-1"?>
<!-- Generator: Adobe Illustrator 19.0.0, SVG Export Plug-In . SVG Version: 6.00 Build 0)  -->
<svg version="1.1" id="Layer_1" xmlns="http://www.w3.org/2000/svg" xmlns:xlink="http://www.w3.org/1999/xlink" x="0px" y="0px"
	 viewBox="0 0 512 512" style="enable-background:new 0 0 512 512;" xml:space="preserve">
<path style="fill:#AACDFF;" d="M469.779,51.26c8.551,0,34.205,0,34.205,25.653s0,76.96,0,94.063
	c0,56.117-51.307,96.735-145.37,88.184L256,247.936v-8.551C256,239.385,375.328,51.26,469.779,51.26z"/>
<path style="fill:#A0B9FF;" d="M256,239.385c0,0,119.328-188.125,213.779-188.125c8.551,0,34.205,0,34.205,25.653s0,76.96,0,94.063
	c0,2.781-0.223,5.491-0.475,8.191c-0.001-21.02-87.888-110.804-211.878,28.863c-14.515,16.35-26.225,27.212-35.631,33.717
	L256,239.385L256,239.385z"/>
<path style="fill:#B4DCFF;" d="M469.779,307.794c42.756,51.307-28.326,114.372-56.651,128.802c0,0-15.499,43.29-56.651,13.896
	C323.596,427.006,264.551,324.897,256,273.59v-25.653C256,247.936,427.023,256.487,469.779,307.794z"/>
<path style="fill:#AACDFF;" d="M458.432,398.841c-15.142,17.932-33.769,31.879-45.305,37.755c0,0-15.499,43.29-56.651,13.896
	C323.596,427.006,264.551,324.897,256,273.59v-25.653C256,247.936,357.676,376.627,458.432,398.841z"/>
<path style="fill:#E1DCD2;" d="M256,256.487c51.307,102.614,102.614,162.472,145.453,196.984c-8.936,7.833-23.403,12.43-44.977-2.98
	C323.596,427.006,264.551,324.897,256,273.59V256.487z"/>
<path style="fill:#564046;" d="M321.314,410.757c65.896,4.045,91.815,25.839,91.815,25.839s-15.499,43.29-56.651,13.896
	C346.462,443.339,334.015,428.839,321.314,410.757z"/>
<path style="fill:#B4DCFF;" d="M320.545,231.886c-6.341-1.5-6.585-10.468-0.285-12.129c33.978-8.961,99.651-23.333,133.122-10.992
	C481.549,219.149,416.998,254.701,320.545,231.886z"/>
<path style="fill:#AACDFF;" d="M42.221,51.26c-8.551,0-34.205,0-34.205,25.653s0,76.96,0,94.063
	c0,56.117,51.307,96.735,145.37,88.184L256,247.936v-8.551C256,239.385,136.672,51.26,42.221,51.26z"/>
<path style="fill:#A0B9FF;" d="M256,239.385c0,0-119.328-188.125-213.779-188.125c-8.551,0-34.205,0-34.205,25.653s0,76.96,0,94.063
	c0,2.781,0.223,5.491,0.475,8.191c0.001-21.02,87.888-110.804,211.878,28.863c14.514,16.35,26.225,27.212,35.63,33.717V239.385z"/>
<path style="fill:#B4DCFF;" d="M42.221,307.794c-42.756,51.307,28.326,114.372,56.651,128.802c0,0,15.499,43.29,56.651,13.896
	C188.404,427.006,247.449,324.897,256,273.59v-25.653C256,247.936,84.977,256.487,42.221,307.794z"/>
<path style="fill:#AACDFF;" d="M53.568,398.841c15.142,17.932,33.768,31.879,45.305,37.755c0,0,15.499,43.29,56.651,13.896
	C188.404,427.006,247.449,324.897,256,273.59v-25.653C256,247.936,154.324,376.627,53.568,398.841z"/>
<path style="fill:#E1DCD2;" d="M256,256.487c-51.307,102.614-102.614,162.472-145.453,196.984c8.936,7.833,23.403,12.43,44.977-2.98
	C188.404,427.006,247.449,324.897,256,273.59V256.487z"/>
<path style="fill:#463246;" d="M256,273.59L256,273.59c-9.446,0-17.102-7.656-17.102-17.102v-17.102
	c0-9.446,7.656-17.102,17.102-17.102l0,0c9.446,0,17.102,7.656,17.102,17.102v17.102C273.102,265.932,265.446,273.59,256,273.59z"/>
<path style="fill:#564046;" d="M190.686,410.757c-65.896,4.045-91.815,25.839-91.815,25.839s15.499,43.29,56.651,13.896
	C165.538,443.339,177.985,428.839,190.686,410.757z"/>
<path style="fill:#B4DCFF;" d="M191.455,231.886c6.341-1.5,6.585-10.468,0.285-12.129c-33.978-8.961-99.651-23.333-133.122-10.992
	C30.451,219.149,95.002,254.701,191.455,231.886z"/>
<g>
	<path style="fill:#58413C;" d="M82.189,61.033C68.646,54.906,55.198,51.26,42.22,51.26c-8.551,0-34.205,0-34.205,25.653
		c0,7.303,0,16.708,0,26.788C26.365,78.062,57.68,64.834,82.189,61.033z"/>
	<path style="fill:#58413C;" d="M429.811,61.033c13.543-6.127,26.992-9.773,39.969-9.773c8.551,0,34.205,0,34.205,25.653
		c0,7.303,0,16.708,0,26.788C485.635,78.062,454.32,64.834,429.811,61.033z"/>
</g>
<path d="M512,170.976V76.913c0-14.043-6.66-24.632-18.754-29.816c-8.995-3.854-18.77-3.854-23.468-3.854
	c-15.485,0-31.758,4.329-48.748,12.927c-0.096,0.047-0.195,0.091-0.29,0.142c-28.626,14.56-59.287,41.246-91.663,79.851
	c-28.221,33.649-49.681,66.872-59.184,82.309c-1.226-0.818-2.528-1.529-3.893-2.123c8.186-26.035,21.074-39.451,21.34-39.723
	c3.112-3.133,3.105-8.194-0.019-11.317c-3.131-3.131-8.207-3.131-11.337,0c-0.577,0.577-11.036,11.224-19.985,31.95
	c-8.949-20.726-19.408-31.373-19.985-31.95c-3.121-3.121-8.168-3.119-11.304-0.012c-3.134,3.109-3.153,8.179-0.057,11.326
	c0.143,0.144,13.117,13.564,21.343,39.727c-1.364,0.594-2.667,1.305-3.892,2.123c-9.502-15.438-30.963-48.66-59.184-82.309
	C150.547,97.56,119.885,70.874,91.26,56.313c-0.094-0.051-0.192-0.095-0.29-0.142c-16.991-8.598-33.264-12.927-48.749-12.927
	c-4.698,0-14.473,0-23.468,3.854C6.66,52.281,0,62.869,0,76.913v94.063c0,25.735,9.832,48.315,28.433,65.302
	c17.085,15.603,40.288,25.627,68.482,29.813c-25.283,8.94-47.727,20.823-60.852,36.572c-13.23,15.876-17.877,33.971-13.81,53.78
	c8.225,40.072,49.898,74.404,70.354,85.887c2.9,6.212,10.888,20.114,25.955,24.83c3.403,1.066,6.903,1.597,10.495,1.597
	c9.759,0,20.186-3.927,31.128-11.742c16.512-11.794,39.563-41.911,61.661-80.563c14.744-25.789,26.624-51.176,34.155-72.567
	c7.531,21.391,19.411,46.778,34.155,72.567c22.098,38.651,45.149,68.768,61.661,80.563c10.942,7.816,21.368,11.742,31.128,11.742
	c3.591,0,7.093-0.532,10.495-1.597c15.068-4.717,23.055-18.618,25.955-24.83c20.455-11.483,62.128-45.815,70.353-85.887
	c4.066-19.81-0.58-37.904-13.81-53.78c-13.125-15.75-35.57-27.633-60.854-36.573c28.194-4.186,51.4-14.21,68.484-29.811
	C502.168,219.291,512,196.711,512,170.976z M495.967,76.913v7.694c-6.632-7.432-14.326-12.873-21.253-16.74
	c-5.694-3.179-11.462-5.637-17.063-7.521c4.062-0.696,8.109-1.07,12.128-1.07C488.38,59.277,495.967,64.386,495.967,76.913z
	 M256,265.573c-5.01,0-9.086-4.076-9.086-9.086v-17.102c0-5.002,4.065-9.074,9.066-9.085c0.004,0,0.009,0.001,0.013,0.001
	c0.002,0,0.004,0,0.006,0c0.002,0,0.004,0,0.006,0c0.004,0,0.009-0.001,0.013-0.001c5.001,0.011,9.066,4.081,9.066,9.085v17.102
	C265.086,261.497,261.01,265.573,256,265.573z M42.221,59.277c4.019,0,8.066,0.374,12.128,1.07
	c-5.601,1.883-11.369,4.342-17.063,7.521c-6.926,3.866-14.62,9.307-21.253,16.739v-7.694C16.033,64.386,23.62,59.277,42.221,59.277z
	 M152.66,251.176c-49.343,4.482-89.624-5.011-113.416-26.738c-15.185-13.867-23.211-32.353-23.211-53.462v-49.82
	c2.835-20.622,17.344-32.744,29.069-39.289c14.26-7.961,29.977-11.003,39.999-10.602c31.775,16.596,62.392,47.629,85.394,75.033
	c31.531,37.567,55.015,75.618,61.354,86.196c-0.626,2.192-0.969,4.502-0.969,6.893v1.067c-13.85,1.069-44.515,3.987-78.123,10.72
	C152.725,251.175,152.693,251.173,152.66,251.176z M150.865,443.968c-10.624,7.589-19.855,10.251-27.437,7.914
	c-7.041-2.17-11.788-8.305-14.439-12.811c8.461-5.487,28.936-16.059,65.675-20.143C165.835,430.32,157.587,439.167,150.865,443.968z
	 M187.079,401.803c-51.102,3.077-78.621,18.157-88.895,25.244c-20.017-11.895-53.701-42.041-60.227-73.83
	c-3.078-15.002,0.33-28.181,10.422-40.292c16.27-19.523,54.158-35.567,109.569-46.397c30.842-6.029,59.295-8.855,72.934-9.973
	c0.029,10.487,6.517,19.478,15.688,23.207C238.427,314.249,212.176,365.056,187.079,401.803z M388.65,451.859
	c-7.596,2.377-16.854-0.277-27.514-7.891c-6.72-4.799-14.962-13.64-23.787-25.024c23.435,2.638,40.032,7.922,50.438,12.3
	c6.942,2.92,11.942,5.758,15.205,7.86C400.342,443.59,395.624,449.676,388.65,451.859z M463.62,312.926
	c10.092,12.111,13.501,25.29,10.422,40.292c-6.525,31.789-40.21,61.935-60.227,73.83c-10.272-7.088-37.793-22.168-88.895-25.244
	c-25.099-36.749-51.35-87.554-59.492-122.041c9.17-3.728,15.659-12.72,15.688-23.207c13.639,1.117,42.091,3.944,72.934,9.973
	C409.462,277.359,447.351,293.404,463.62,312.926z M472.756,224.438c-23.793,21.728-64.074,31.225-113.416,26.738
	c-0.032-0.003-0.064-0.001-0.096-0.004c-33.609-6.733-64.275-9.651-78.124-10.72v-1.067c0-2.391-0.343-4.702-0.97-6.894
	c6.324-10.554,29.716-48.47,61.213-86.026c23.039-27.471,53.71-58.581,85.535-75.202c10.027-0.402,25.74,2.64,40,10.602
	c11.725,6.546,26.234,18.667,29.069,39.289v49.82C495.967,192.084,487.94,210.571,472.756,224.438z"/>
<g>
</g>
<g>
</g>
<g>
</g>
<g>
</g>
<g>
</g>
<g>
</g>
<g>
</g>
<g>
</g>
<g>
</g>
<g>
</g>
<g>
</g>
<g>
</g>
<g>
</g>
<g>
</g>
<g>
</g>
</svg>
