<svg height="512" viewBox="0 0 64 64" width="512" xmlns="http://www.w3.org/2000/svg"><g id="Layer_2" data-name="Layer 2"><path d="m32 64a131.0951 131.0951 0 0 0 -14.6087-17.3913 131.0951 131.0951 0 0 0 -17.3913-14.6087 131.0951 131.0951 0 0 0 17.3913-14.6087 131.0951 131.0951 0 0 0 14.6087-17.3913 131.0951 131.0951 0 0 0 14.6087 17.3913 131.0951 131.0951 0 0 0 17.3913 14.6087 131.0919 131.0919 0 0 0 -32 32z" fill="#da0037"/><path d="m64 32a131.2126 131.2126 0 0 0 -32 32 131.3146 131.3146 0 0 0 -14.61-17.39c-2.95-2.95-5.88-5.59-8.7-7.95 12.3 6.19 30.81 2.58 49.6-10.9 1.98 1.55 3.89 2.96 5.71 4.24z" opacity=".2"/></g></svg>