<svg id="Layer_1" data-name="Layer 1" xmlns="http://www.w3.org/2000/svg" viewBox="0 0 129.14 29.74" width="129.14" height="29.74"><defs><style>.cls-1{fill:#ef6100;}.cls-2{fill:#ffa161;}.cls-3{fill:#ff822e;}.cls-4{fill:none;stroke:#b14700;stroke-miterlimit:10;stroke-width:0.53px;}</style></defs><title>10x10-cubes-1</title><path class="cls-1" d="M0.41,0.52l26.05,19s0.08,9.92,0,10S0.27,8.28.27,8.28Z"/><rect class="cls-2" x="26.46" y="19.47" width="102.41" height="9.75"/><polygon class="cls-3" points="0.27 0.28 98.28 0.14 128.96 19.47 26.94 19.47 0.27 0.28"/><rect class="cls-4" x="26.46" y="19.47" width="102.42" height="10"/><path class="cls-4" d="M26.36,29.53L0.27,8.28V0.52s26.58,19.19,26.2,19"/><polyline class="cls-4" points="128.96 19.43 98.37 0.28 0.03 0.28"/><polyline class="cls-4" points="90 0.28 118.6 19.47 118.6 29.49"/><polyline class="cls-4" points="80.8 0.28 108.4 19.47 108.4 29.49"/><polyline class="cls-4" points="70.47 0.28 98.07 19.47 98.07 29.49"/><polyline class="cls-4" points="60.27 0.28 87.87 19.47 87.87 29.49"/><polyline class="cls-4" points="50.1 0.28 77.7 19.47 77.7 29.49"/><polyline class="cls-4" points="39.91 0.28 67.5 19.47 67.5 29.49"/><polyline class="cls-4" points="29.57 0.28 57.17 19.47 57.17 29.49"/><polyline class="cls-4" points="19.37 0.28 46.97 19.47 46.97 29.49"/><polyline class="cls-4" points="8.71 0.32 36.42 19.47 36.42 29.49"/><polyline class="cls-4" points="1.75 9.48 1.75 1.84 100.84 1.74"/><polyline class="cls-4" points="3.78 10.98 3.78 3.33 103 3.23"/><polyline class="cls-4" points="6.31 13.15 6.34 4.91 106 5.07"/><polyline class="cls-4" points="8.84 15.14 8.84 6.92 108.7 6.82"/><polyline class="cls-4" points="11.41 17.25 11.41 8.74 111.72 8.64"/><polyline class="cls-4" points="14.22 19.62 14.22 10.63 114.75 10.53"/><polyline class="cls-4" points="17.02 21.99 17.02 12.6 117.72 12.5"/><polyline class="cls-4" points="19.94 24.35 19.94 14.73 121.16 14.63"/><polyline class="cls-4" points="22.9 26.71 22.9 16.81 124.72 16.71"/></svg>