<svg id="Layer_1" data-name="Layer 1" xmlns="http://www.w3.org/2000/svg" viewBox="0 0 131.53 119.05" width="131.53" height="119.05"><defs><style>.cls-1{fill:#2266d2;}.cls-2{fill:#6aa7ef;}.cls-3{fill:#3a7fef;}.cls-4{fill:none;stroke:#004bc4;stroke-miterlimit:10;stroke-width:0.53px;}</style></defs><title>10x10x10-cubes</title><polygon class="cls-1" points="0.31 0.28 0.31 95.6 30.27 118.58 30.27 18.12 0.31 0.28"/><rect class="cls-2" x="30.16" y="18.27" width="101.2" height="100.31"/><polygon class="cls-3" points="0.98 0.52 97.95 0.19 131.43 18.33 30.63 18.33 0.98 0.52"/><polyline class="cls-4" points="40.21 18.47 30.15 18.47 30.15 28.38"/><rect class="cls-4" x="30.26" y="18.47" width="101" height="100.31"/><polyline class="cls-4" points="131.36 18.41 98.19 0.27 0.94 0.42 30.26 18.47"/><polyline class="cls-4" points="30.26 118.78 0.28 95.4 0.28 0.19"/><polyline class="cls-4" points="0.31 8.51 30.26 28.49 131.22 28.49"/><polyline class="cls-4" points="0.24 18.49 30.26 38.52 131.22 38.52"/><polyline class="cls-4" points="0.24 28.52 30.26 48.56 131.22 48.56"/><polyline class="cls-4" points="0.24 38.56 30.26 58.59 131.22 58.59"/><polyline class="cls-4" points="0.24 48.59 30.26 68.62 131.22 68.62"/><polyline class="cls-4" points="0.31 58.67 30.26 78.65 131.22 78.65"/><polyline class="cls-4" points="0.31 68.42 30.26 88.69 131.22 88.69"/><polyline class="cls-4" points="0.28 78.11 30.26 98.72 131.22 98.72"/><polyline class="cls-4" points="0.28 86.36 30.26 108.75 131.22 108.75"/><polyline class="cls-4" points="27.08 116.15 26.29 16.03 127.28 16.2"/><polyline class="cls-4" points="23.65 113.49 22.73 13.86 123.04 13.95"/><polyline class="cls-4" points="20.12 110.76 19.37 11.8 119.48 12.01"/><polyline class="cls-4" points="17.2 108.61 16.28 9.96 115.81 9.96"/><polyline class="cls-4" points="13.91 106.05 13.2 7.97 112.42 8.05"/><polyline class="cls-4" points="11.01 103.73 10.37 6.13 108.91 6.13"/><polyline class="cls-4" points="8.05 101.42 7.47 4.51 105.81 4.51"/><polyline class="cls-4" points="5.14 99.34 4.73 2.88 102.97 2.88"/><polyline class="cls-4" points="2.74 96.99 2.35 1.67 100.28 1.41"/><polyline class="cls-4" points="9.58 0.4 40.51 18.59 40.51 118.8"/><polyline class="cls-4" points="19.71 0.4 50.64 18.59 50.64 118.8"/><polyline class="cls-4" points="29.83 0.28 60.78 18.59 60.78 118.8"/><polyline class="cls-4" points="39.96 0.28 70.91 18.59 70.91 118.8"/><polyline class="cls-4" points="50.09 0.28 81.04 18.59 81.04 118.8"/><polyline class="cls-4" points="60.24 0.27 91.18 18.59 91.18 118.8"/><polyline class="cls-4" points="70.37 0.27 101.31 18.59 101.31 118.8"/><polyline class="cls-4" points="80.28 0.25 111.44 18.59 111.44 118.8"/><polyline class="cls-4" points="89.5 0.28 121.58 18.59 121.58 118.8"/></svg>