<svg id="Layer_1" data-name="Layer 1" xmlns="http://www.w3.org/2000/svg" viewBox="0 0 13.91 104.8" width="13.91" height="104.8"><defs><style>.cls-1{fill:#198019;}.cls-2{fill:#2cb764;}.cls-3{fill:#00933b;}.cls-4{fill:none;stroke:#006600;stroke-miterlimit:10;stroke-width:0.53px;}</style></defs><title>vertical-10-cube</title><polygon class="cls-1" points="0.27 0.48 3.17 2.28 3.17 104.53 0.27 102.6 0.27 0.48"/><rect class="cls-2" x="3.17" y="2.28" width="10.47" height="102.25"/><polygon class="cls-3" points="13.79 2.4 3.45 2.4 0.27 0.36 10.61 0.36 13.79 2.4"/><rect class="cls-4" x="3.17" y="2.28" width="10.47" height="102.25"/><line class="cls-4" x1="3.17" y1="104.53" x2="3.17" y2="2.28"/><polyline class="cls-4" points="3.17 2.28 0.27 0.48 0.27 102.6 3.07 104.53"/><line class="cls-4" x1="3.17" y1="12.72" x2="13.65" y2="12.72"/><line class="cls-4" x1="3.17" y1="22.88" x2="13.65" y2="22.88"/><line class="cls-4" x1="3.17" y1="33.05" x2="13.65" y2="33.05"/><line class="cls-4" x1="3.17" y1="43.21" x2="13.65" y2="43.21"/><line class="cls-4" x1="3.17" y1="53.38" x2="13.65" y2="53.38"/><line class="cls-4" x1="3.17" y1="63.54" x2="13.65" y2="63.54"/><line class="cls-4" x1="3.17" y1="73.71" x2="13.65" y2="73.71"/><line class="cls-4" x1="3.17" y1="83.87" x2="13.65" y2="83.87"/><line class="cls-4" x1="3.17" y1="94.04" x2="13.65" y2="94.04"/><line class="cls-4" x1="0.18" y1="92.01" x2="3.17" y2="94.04"/><line class="cls-4" x1="0.18" y1="81.88" x2="3.17" y2="83.91"/><line class="cls-4" x1="0.18" y1="71.68" x2="3.17" y2="73.71"/><line class="cls-4" x1="0.18" y1="61.55" x2="3.17" y2="63.58"/><line class="cls-4" x1="0.18" y1="51.28" x2="3.17" y2="53.31"/><line class="cls-4" x1="0.18" y1="41.15" x2="3.17" y2="43.19"/><line class="cls-4" x1="0.18" y1="31.14" x2="3.17" y2="33.17"/><line class="cls-4" x1="0.18" y1="21.01" x2="3.17" y2="23.04"/><line class="cls-4" x1="0.18" y1="10.33" x2="3.17" y2="12.36"/><polyline class="cls-4" points="0 0.27 10.46 0.27 13.74 2.24"/></svg>