<svg id="Layer_3" height="512" viewBox="0 0 64 64" width="512" xmlns="http://www.w3.org/2000/svg" data-name="Layer 3"><path d="m55.923 38a8.8 8.8 0 0 0 3.935-.929 3.874 3.874 0 0 0 2.142-3.471 3.874 3.874 0 0 0 -1.135-2.74l-3.744-3.744a7.242 7.242 0 0 0 -5.121-2.116h-38l-7-10h-4l1 10-.288.144a3.1 3.1 0 0 0 -1.712 2.77 3.589 3.589 0 0 0 .6 1.99 18.12 18.12 0 0 0 3.056 3.51l3.819 2.6a18.175 18.175 0 0 0 8.255 1.986z" fill="#f89b1c"/><path d="m17.73 38h38.193a8.786 8.786 0 0 0 3.754-.852 3.865 3.865 0 0 0 -.812-4.283l-3.744-3.744a7.242 7.242 0 0 0 -5.121-2.121h-38l-5.968-8.525a3.455 3.455 0 0 0 -2.832-1.475l.8 8-.195.1a3.18 3.18 0 0 0 -1.8 2.6 3.582 3.582 0 0 0 .595 2.2 18.12 18.12 0 0 0 3.056 3.51l3.819 2.6a18.175 18.175 0 0 0 8.255 1.99z" fill="#fdb716"/><g fill="#ed8213"><path d="m29 35h14l-19 14h-5z"/><path d="m38.143 25-8.143-6h-5l4.286 6"/><path d="m7 31 7 1-9 8h-3z"/></g><path d="m53 31a2 2 0 0 0 2 2h6.94a3.861 3.861 0 0 0 -1.075-2.135l-1.865-1.865h-4a2 2 0 0 0 -2 2z" fill="#62c1ea"/><path d="m58.865 32.865-3.744-3.744c-.042-.042-.089-.079-.132-.12a2 2 0 0 0 .011 3.999h3.976c-.04-.043-.069-.093-.111-.135z" fill="#86ddfa"/><rect fill="#62c1ea" height="4" rx="1" width="3" x="17" y="28"/><path d="m19 30v-2h-1a1 1 0 0 0 -1 1v2h1a1 1 0 0 0 1-1z" fill="#86ddfa"/><rect fill="#62c1ea" height="4" rx="1" width="3" x="22" y="28"/><path d="m24 30v-2h-1a1 1 0 0 0 -1 1v2h1a1 1 0 0 0 1-1z" fill="#86ddfa"/><rect fill="#62c1ea" height="4" rx="1" width="3" x="27" y="28"/><path d="m29 30v-2h-1a1 1 0 0 0 -1 1v2h1a1 1 0 0 0 1-1z" fill="#86ddfa"/><rect fill="#62c1ea" height="4" rx="1" width="3" x="32" y="28"/><path d="m34 30v-2h-1a1 1 0 0 0 -1 1v2h1a1 1 0 0 0 1-1z" fill="#86ddfa"/><rect fill="#62c1ea" height="4" rx="1" width="3" x="37" y="28"/><path d="m39 30v-2h-1a1 1 0 0 0 -1 1v2h1a1 1 0 0 0 1-1z" fill="#86ddfa"/><rect fill="#62c1ea" height="4" rx="1" width="3" x="42" y="28"/><path d="m44 30v-2h-1a1 1 0 0 0 -1 1v2h1a1 1 0 0 0 1-1z" fill="#86ddfa"/><rect fill="#62c1ea" height="4" rx="1" width="3" x="47" y="28"/><path d="m49 30v-2h-1a1 1 0 0 0 -1 1v2h1a1 1 0 0 0 1-1z" fill="#86ddfa"/><path d="m24 49 17.643-13h-7.643a7.772 7.772 0 0 0 -6.325 3.255l-6.961 9.745z" fill="#f89b1c"/><path d="m3.556 40h1.444l8.169-7.262-2.82-.4a3.445 3.445 0 0 0 -3.5 1.738z" fill="#f89b1c"/><path d="m57.828 26.414a8.187 8.187 0 0 0 -5.828-2.414h-13.528l-7.879-5.8a1 1 0 0 0 -.593-.2h-5a1 1 0 0 0 -.814 1.581l3.156 4.419h-12.821l-6.7-9.573a1 1 0 0 0 -.821-.427h-4a1 1 0 0 0 -1 1.1l.933 9.332a4.071 4.071 0 0 0 -1.933 3.482 4.568 4.568 0 0 0 .771 2.544 19.109 19.109 0 0 0 2.637 3.149l-3.282 5.907a1 1 0 0 0 .874 1.486h3a1.006 1.006 0 0 0 .665-.252l3.984-3.542a19.292 19.292 0 0 0 8.081 1.794h7.184l-6.728 9.419a1 1 0 0 0 .814 1.581h5a1 1 0 0 0 .593-.2l14.664-10.8h16.666a9.838 9.838 0 0 0 4.382-1.035 4.874 4.874 0 0 0 1.267-7.807zm2.682 5.586h-5.51a1 1 0 0 1 0-2h3.586l1.572 1.572a2.911 2.911 0 0 1 .352.428zm-33.567-12h2.728l5.429 4h-5.3zm-22.323 19h-.92l3.84-6.913 4.184.6zm19.051 9h-2.728l8.572-12h10.442zm35.74-11.823a7.845 7.845 0 0 1 -3.488.823h-13.951l1.621-1.2a1 1 0 0 0 -.593-1.8h-14a1 1 0 0 0 -.814.419l-1.844 2.581h-8.612a17.268 17.268 0 0 1 -6.43-1.259l3.368-2.993a1 1 0 0 0 -.523-1.738l-7-1a.992.992 0 0 0 -1.016.5l-.711 1.279a17.119 17.119 0 0 1 -1.98-2.444 2.573 2.573 0 0 1 -.438-1.431 2.083 2.083 0 0 1 1.159-1.875l.288-.144a1 1 0 0 0 .553-.995l-.895-8.9h2.374l6.7 9.573a1 1 0 0 0 .821.427h38a6.2 6.2 0 0 1 4.414 1.828l.172.172h-1.586a3 3 0 0 0 0 6h5.973a2.859 2.859 0 0 1 -1.562 2.177z"/><rect height="4" rx="1" width="3" x="17" y="28"/><rect height="4" rx="1" width="3" x="22" y="28"/><rect height="4" rx="1" width="3" x="27" y="28"/><rect height="4" rx="1" width="3" x="32" y="28"/><rect height="4" rx="1" width="3" x="37" y="28"/><rect height="4" rx="1" width="3" x="42" y="28"/><rect height="4" rx="1" width="3" x="47" y="28"/></svg>