<svg height="512" viewBox="0 0 48 48" width="512" xmlns="http://www.w3.org/2000/svg"><g id="Clock"><path d="m23 13v-3a1 1 0 0 1 2 0v3a1 1 0 0 1 -2 0z" fill="#374f68"/><path d="m26 11h-4a1 1 0 0 1 0-2h4a1 1 0 0 1 0 2z" fill="#374f68"/><path d="m33.2 9.65c-.4 0-.41-.06-2-1.25s-1.2-2.55-1.2-4.4a2 2 0 0 0 -2-2h-8a2 2 0 0 0 -2 2c0 3.4.27 3.3-2.6 5.45a1 1 0 0 1 -1.2-1.6c2.12-1.59 1.8-.92 1.8-3.85a4 4 0 0 1 4-4h8a4 4 0 0 1 4 4c0 2.9-.34 2.24 1.8 3.85a1 1 0 0 1 -.6 1.8z" fill="#2c435e"/><path d="m38.86 10.27a1 1 0 0 1 -.86-1.57l1.15-1.64a1 1 0 0 1 1.68 1.14c-1.12 1.61-1.28 2.07-1.97 2.07z" fill="#374f68"/><path d="m9.14 10.27c-.65 0-.73-.3-2-2.07a1 1 0 0 1 1.67-1.14l1.19 1.64a1 1 0 0 1 -.86 1.57z" fill="#374f68"/><path d="m33.87 17.4a1 1 0 0 1 -.82-1.57l2.13-3a1 1 0 0 1 1.64 1.17c-2.26 3.17-2.26 3.4-2.95 3.4z" fill="#2c435e"/><path d="m14.13 17.4c-.69 0-.7-.25-3-3.45a1 1 0 0 1 1.64-1.16l2.13 3a1 1 0 0 1 -.77 1.61z" fill="#2c435e"/><path d="m40 29a16 16 0 0 1 -16 16c-14.72 0-21.81-18.61-10.27-28.27 10.27-8.64 26.27-1.34 26.27 12.27z" fill="#db5669"/><path d="m40 29a15.9 15.9 0 0 1 -3.75 10.29c-7.1 5.33-15 4.49-20.38.1a16 16 0 0 1 -2.14-22.66c10.27-8.64 26.27-1.34 26.27 12.27z" fill="#f26674"/><path d="m36 29a12 12 0 1 1 -13-12 12 12 0 0 1 13 12z" fill="#dad7e5"/><path d="m36 29c0 3.61-1.86 7-2.92 7.67a12 12 0 0 1 -16.75-16.75c.67-1.06 4.01-2.92 7.67-2.92a12 12 0 0 1 12 12z" fill="#edebf2"/><path d="m17.2 43.48-1.75 2.79a1.54 1.54 0 0 1 -2.77-1.27l1.19-3.58a15.54 15.54 0 0 0 3.33 2.06z" fill="#374f68"/><path d="m17.2 43.48-1.53 2.44a1.53 1.53 0 0 1 -1-2l.53-1.6a14.87 14.87 0 0 0 2 1.16z" fill="#425b72"/><path d="m33.86 47c-1.14 0-1.37-.83-3.06-3.52a15.64 15.64 0 0 0 3.33-2.09l1.19 3.61a1.54 1.54 0 0 1 -1.46 2z" fill="#374f68"/><path d="m35.31 44.93a1.52 1.52 0 0 1 -1.76-.66l-1.07-1.7a13.74 13.74 0 0 0 1.65-1.18z" fill="#425b72"/><path d="m35.43 8.82h4a3 3 0 0 1 3 3v2a0 0 0 0 1 0 0h-10a0 0 0 0 1 0 0v-2a3 3 0 0 1 3-3z" fill="#374f68" transform="matrix(.819 .574 -.574 .819 13.26 -19.42)"/><path d="m16.1 10.5-8.19 5.73-1.15-1.63a3 3 0 0 1 .74-4.18l3.28-2.3a3 3 0 0 1 3.89.38 19.61 19.61 0 0 1 1.43 2z" fill="#374f68"/><path d="m14.67 8.5-5.13 3.59a2 2 0 0 1 -2.78-.49c-.41-.58.81-1.23 4-3.48a3 3 0 0 1 3.91.38z" fill="#425b72"/><path d="m33.33 8.5 5.13 3.59a2 2 0 0 0 2.78-.49c.41-.58-.81-1.23-4-3.48a3 3 0 0 0 -3.91.38z" fill="#425b72"/><path d="m25 17v2a1 1 0 0 1 -2 0v-2a13.35 13.35 0 0 1 2 0z" fill="#919191"/><path d="m16.22 22.64-1.38-1.39a11.73 11.73 0 0 1 1.42-1.4l1.38 1.37a1 1 0 0 1 -1.42 1.42z" fill="#7c7d7d"/><path d="m14 30h-2a13.35 13.35 0 0 1 0-2h2a1 1 0 0 1 0 2z" fill="#7c7d7d"/><path d="m17.64 36.78-1.39 1.38a11.74 11.74 0 0 1 -1.41-1.41l1.38-1.39a1 1 0 0 1 1.42 1.42z" fill="#7c7d7d"/><path d="m25 39v2a13.35 13.35 0 0 1 -2 0v-2a1 1 0 0 1 2 0z" fill="#7c7d7d"/><path d="m33.15 36.74a11.73 11.73 0 0 1 -1.4 1.42l-1.39-1.38a1 1 0 0 1 1.42-1.42z" fill="#7c7d7d"/><g fill="#919191"><path d="m36 30h-2a1 1 0 0 1 0-2h2a13.35 13.35 0 0 1 0 2z"/><path d="m33.16 21.25c-1.53 1.54-1.56 1.68-2.09 1.68a1 1 0 0 1 -.71-1.71l1.39-1.38a11.74 11.74 0 0 1 1.41 1.41z"/><path d="m23 28v-5a1 1 0 0 1 2 0v5a1 1 0 0 1 -2 0z"/><path d="m28 30h-3a1 1 0 0 1 0-2h3a1 1 0 0 1 0 2z"/><path d="m16.22 22.64-1-1a9.89 9.89 0 0 1 1.07-1.75l1.31 1.3a1 1 0 0 1 -1.38 1.45z"/><path d="m14.36 29.93a11.26 11.26 0 0 1 -.31-1.93 1 1 0 0 1 .31 1.93z"/><path d="m17.9 35.84a8.61 8.61 0 0 1 -.74-.74 1 1 0 0 1 .74.74z"/><path d="m25 39a11.14 11.14 0 0 1 -1.92-.31 1 1 0 0 1 1.92.31z"/><path d="m33.08 36.67a9.89 9.89 0 0 1 -1.75 1.07l-1-1a1 1 0 0 1 1.42-1.42z"/></g><path d="m26 29a2 2 0 1 1 -2.82-1.82 2 2 0 0 1 2.82 1.82z" fill="#374f68"/><path d="m25.82 29.82a2 2 0 0 1 -2.64-2.64 2 2 0 0 1 2.64 2.64z" fill="#425b72"/><path d="m42.05 15.17a4 4 0 0 0 -1-5.57l-.8-.6.58-.83a1 1 0 0 0 -1.64-1.14l-.58.82c-1.06-.75-2-1.55-3.8-1.24a4.06 4.06 0 0 0 -1.66.72c-1.35-.98-1.15-.48-1.15-3.33a4 4 0 0 0 -4-4h-8a4 4 0 0 0 -4 4c0 2.72.24 2.32-1.15 3.36a4 4 0 0 0 -4.65-.06l-.81.58-.58-.82a1 1 0 0 0 -1.64 1.14l.58.8-.82.58a4 4 0 0 0 -1 5.57c2.07 2.85 1.27 2.85 5.83-.39l1 1.49a16.91 16.91 0 0 0 -.08 25.43l-1 3a2.54 2.54 0 0 0 2.46 3.32c1.76 0 2.27-1.38 3.45-3.26a16.93 16.93 0 0 0 12.82 0c1.17 1.86 1.7 3.26 3.45 3.26a2.54 2.54 0 0 0 2.41-3.35l-1-3a16.91 16.91 0 0 0 -.08-25.43l1-1.49c4.63 3.27 3.87 3.27 5.86.44zm-6.9-6.56c1.18-.2 1.7.47 4.77 2.63a2 2 0 0 1 .5 2.78l-.58.82-6.55-4.59.57-.82a2.06 2.06 0 0 1 1.29-.82zm-27 6.23-.57-.84a2 2 0 0 1 .49-2.78c3.5-2.45 3.59-2.66 4.42-2.66 1.21 0 1.64.85 2.22 1.67zm6.45 30.91a.54.54 0 0 1 -.9 0c-.21-.29-.12-.32.69-2.76a16.18 16.18 0 0 0 1.39.86zm19.77-.46a.54.54 0 0 1 -.51.71c-.4 0-.37-.11-1.64-2.13a16.18 16.18 0 0 0 1.39-.87zm4.63-16.29a15 15 0 1 1 -15-15 15 15 0 0 1 15 15zm-5.37-14a16.93 16.93 0 0 0 -8.63-2.95v-1.05h1a1 1 0 0 0 0-2h-4a1 1 0 0 0 0 2h1v1.05a16.93 16.93 0 0 0 -8.63 2.95l-1-1.38c4.29-3 4.35-2.52 2.78-4.75 2.1-1.56 1.85-1.94 1.85-4.87a2 2 0 0 1 2-2h8a2 2 0 0 1 2 2c0 2.92-.22 3.34 1.82 4.86l-.74 1.06a1 1 0 0 0 .24 1.4l3.28 2.3z"/><path d="m33.19 19.81a13 13 0 1 0 0 18.38 13 13 0 0 0 0-18.38zm.81 10.19h1a11 11 0 0 1 -2.5 6l-.67-.67a1 1 0 0 0 -1.42 1.42l.67.67a11 11 0 0 1 -6.08 2.58v-1a1 1 0 0 0 -2 0v1a11 11 0 0 1 -6-2.5l.67-.67a1 1 0 0 0 -1.42-1.42l-.67.67a11 11 0 0 1 -2.5-6h.92a1 1 0 0 0 0-2h-.95a11 11 0 0 1 2.5-6c.61.61.85 1 1.38 1a1 1 0 0 0 .71-1.71l-.64-.82a11 11 0 0 1 6-2.5v.95a1 1 0 0 0 2 0v-.95a11 11 0 0 1 6 2.5l-.67.67a1 1 0 0 0 .71 1.71c.5 0 .65-.24 1.38-1a11 11 0 0 1 2.58 6.07h-1a1 1 0 0 0 0 2z"/><path d="m28 28h-2.28c-.91-1.56-.72 1.16-.72-5a1 1 0 0 0 -2 0v4.28a2 2 0 1 0 2.72 2.72h2.28a1 1 0 0 0 0-2z"/></g></svg>