<svg id="Layer_3" height="512" viewBox="0 0 64 64" width="512" xmlns="http://www.w3.org/2000/svg" data-name="Layer 3"><path d="m26.183 11a5.993 5.993 0 0 1 11.817 0h4.04a10 10 0 0 0 -19.9 0z" fill="#f5b95b"/><path d="m56.149 51.134-2.817-32.394a3 3 0 0 0 -2.989-2.74h-3.25v9a6 6 0 0 1 -6 6h-18a6 6 0 0 1 -6-6v-9h-3.249a3 3 0 0 0 -2.989 2.74l-2.817 32.394a10 10 0 0 0 9.962 10.866h28.186a10 10 0 0 0 9.963-10.866z" fill="#4472b0"/><path d="m56.149 51.134-2.817-32.394a3 3 0 0 0 -2.989-2.74h-3.25v9a6 6 0 0 1 -6 6h-18a6 6 0 0 1 -6-6v-9h-3.249a2.991 2.991 0 0 0 -.844.134v7.937a35.929 35.929 0 0 0 35.929 35.929h3.248a9.983 9.983 0 0 0 3.972-8.866z" fill="#668cbe"/><path d="m32.093 46-16-4.183v8.183a6 6 0 0 0 6 6h20a6 6 0 0 0 6-6v-8.183z" fill="#c7e2fb"/><path d="m19.093 11h26a2 2 0 0 1 2 2v12a6 6 0 0 1 -6 6h-18a6 6 0 0 1 -6-6v-12a2 2 0 0 1 2-2z" fill="#c7e2fb"/><path d="m45.093 11h-24.093a17.069 17.069 0 0 0 17.071 17h8.213a5.96 5.96 0 0 0 .809-3v-12a2 2 0 0 0 -2-2z" fill="#ebf7fe"/><path d="m18.093 36h28a3.179 3.179 0 0 1 3 3.333v2.223l-17 4.444-17-4.444v-2.223a3.18 3.18 0 0 1 3-3.333z" fill="#f5b95b"/><path d="m32.093 46-14.093-3.686a36.069 36.069 0 0 0 14.46 13.686h9.633a6 6 0 0 0 6-6l-.076-8.163z" fill="#ebf7fe"/><path d="m49.093 41.556v-2.223a3.179 3.179 0 0 0 -3-3.333h-28a2.93 2.93 0 0 0 -2.493 1.485 35.878 35.878 0 0 0 2.378 4.824l14.115 3.691z" fill="#f9d18f"/><path d="m35.093 49v-29h-6v29l3 3z" fill="#3f86c5"/><path d="m27 42h10v4h-10z" fill="#f5b95b"/><path d="m27 24h10v4h-10z" fill="#f5b95b"/><path d="m57.051 51.047-2.817-32.394a3.976 3.976 0 0 0 -3.984-3.653h-2.25v-2a3 3 0 0 0 -3-3h-2.187a11 11 0 0 0 -21.626 0h-2.187a3 3 0 0 0 -3 3v2h-2.25a3.976 3.976 0 0 0 -3.984 3.653l-2.817 32.394a11 11 0 0 0 10.958 11.953h28.186a11 11 0 0 0 10.958-11.953zm-25.051-48.047a8.958 8.958 0 0 1 8.77 7h-2.07a6.994 6.994 0 0 0 -13.4 0h-2.07a8.958 8.958 0 0 1 8.77-7zm4.567 7h-9.134a4.976 4.976 0 0 1 9.134 0zm-18.567 3a1 1 0 0 1 1-1h26a1 1 0 0 1 1 1v12a5.006 5.006 0 0 1 -5 5h-5v-1h1a1 1 0 0 0 1-1v-4a1 1 0 0 0 -1-1h-1v-3a1 1 0 0 0 -1-1h-6a1 1 0 0 0 -1 1v3h-1a1 1 0 0 0 -1 1v4a1 1 0 0 0 1 1h1v1h-5a5.006 5.006 0 0 1 -5-5zm16 10h-4v-2h4zm2 2v2h-8v-2zm-2 4v12h-4v-12zm-4 18h4v1.586l-2 2-2-2zm-2-2v-2h8v2zm0-4h-1a1 1 0 0 0 -1 1v1.4l-10-2.617v-1.45a2.188 2.188 0 0 1 2-2.333h10zm-11 2.112 9 2.353v.535a1 1 0 0 0 1 1h1v2a1 1 0 0 0 .293.707l3 3a1 1 0 0 0 1.414 0l3-3a1 1 0 0 0 .293-.707v-2h1a1 1 0 0 0 1-1v-.535l9-2.353v6.888a5.006 5.006 0 0 1 -5 5h-20a5.006 5.006 0 0 1 -5-5zm31-2.329-10 2.617v-1.4a1 1 0 0 0 -1-1h-1v-4h10a2.188 2.188 0 0 1 2 2.333zm4.727 17.3a8.9 8.9 0 0 1 -6.634 2.917h-28.186a9 9 0 0 1 -8.966-9.779l2.817-32.394a1.989 1.989 0 0 1 1.992-1.827h2.25v8a7.008 7.008 0 0 0 7 7h5v3h-10a4.18 4.18 0 0 0 -4 4.333v2.223a1 1 0 0 0 .747.967l.253.067v7.41a7.008 7.008 0 0 0 7 7h20a7.008 7.008 0 0 0 7-7v-7.41l.253-.067a1 1 0 0 0 .747-.967v-2.223a4.18 4.18 0 0 0 -4-4.333h-10v-3h5a7.008 7.008 0 0 0 7-7v-8h2.25a1.989 1.989 0 0 1 1.992 1.827l2.817 32.394a8.9 8.9 0 0 1 -2.332 6.861z"/></svg>