<?xml version="1.0" encoding="iso-8859-1"?>
<!-- Generator: Adobe Illustrator 19.0.0, SVG Export Plug-In . SVG Version: 6.00 Build 0)  -->
<svg xmlns="http://www.w3.org/2000/svg" xmlns:xlink="http://www.w3.org/1999/xlink" version="1.1" id="Layer_1" x="0px" y="0px" viewBox="0 0 511.99 511.99" style="enable-background:new 0 0 511.99 511.99;" xml:space="preserve">
<path style="fill:#FFFFFF;" d="M379.286,41.325c-29.393,14.347-56.944,32.191-82.055,53.14c-2.644-0.171-5.374-0.256-8.103-0.341  c-5.885-5.544-11.941-10.918-18.168-16.036v-0.085c-18.552-15.626-38.511-29.504-59.622-41.454  c-0.094-0.102-0.213-0.188-0.341-0.256c-10.065-5.715-20.386-11.003-30.963-15.865c1.194-0.426,2.388-0.768,3.582-1.109  c54.479-16.658,113.043-14.04,165.816,7.421C359.71,30.893,369.69,35.764,379.286,41.325z"/>
<path style="fill:#CFD8DC;" d="M418.095,392.319c0,17.853-1.169,35.697-3.497,53.396c-27.167,22.74-58.906,39.381-93.058,48.79  c0,0.085-0.085,0-0.085,0c-55.016,14.961-113.504,10.534-165.646-12.539c-4.256-23.96-6.397-48.252-6.397-72.587  c-0.136-110.954,44.917-217.173,124.789-294.187c6.141-5.971,12.453-11.686,18.936-17.23  C373.11,174.993,418.232,281.281,418.095,392.319z"/>
<path style="fill:#FFFFFF;" d="M418.095,363.745c0,17.87-1.322,35.722-3.949,53.396c-22.8,16.752-47.919,30.093-74.575,39.577  c0,0.085-0.094,0-0.094,0c-24.199,5.834-49.003,8.751-73.901,8.7c-38.742,0.136-77.151-7.071-113.205-21.239  c-4.802-23.9-7.216-48.21-7.225-72.587c0-115.491,54.052-219.809,140.952-294.187C367.702,151.187,418.095,252.263,418.095,363.745z  "/>
<path d="M297.231,102.994c-0.179,0-0.367,0-0.546-0.017c-2.431-0.162-4.947-0.239-7.463-0.316c-2.09-0.068-4.444-0.904-5.954-2.337  c-31.483-29.777-67.418-54.044-106.791-72.144c-3.199-1.467-5.16-4.751-4.956-8.257c0.205-3.514,2.55-6.534,5.894-7.608  c68.51-22.092,143.639-14.21,206.11,21.614c2.738,1.578,4.393,4.529,4.282,7.685c-0.102,3.156-1.945,5.996-4.785,7.387  c-28.736,14.023-55.767,31.526-80.332,52.022C301.154,102.295,299.218,102.994,297.231,102.994z M292.616,85.705  c0.589,0.017,1.169,0.043,1.74,0.068c20.667-16.957,42.955-31.901,66.48-44.567C312.183,17.51,256.723,11.019,204.01,22.747  C236.184,39.721,265.901,60.832,292.616,85.705z"/>
<path id="SVGCleanerId_0" d="M293.136,106.491c-2.184,0-4.367-0.836-6.03-2.499c-1.228-1.228-2.371-2.38-3.6-3.455  c-2.712-2.371-3.642-6.193-2.32-9.545s4.606-5.578,8.214-5.399c3.062,0.102,5.766,0.188,8.376,0.358  c3.548,0.23,6.576,2.636,7.617,6.039c1.032,3.403-0.162,7.097-2.985,9.246c-1.22,0.93-2.363,1.945-3.429,2.943  C297.333,105.724,295.235,106.491,293.136,106.491z"/>
<path style="fill:#2E7D32;" d="M281.195,86.873c-33.82,1.331-67.324,7.122-99.626,17.23  c-58.897,13.383-114.067,39.757-161.466,77.193c24.241-76.281,83.795-136.184,159.931-160.869c5.8,2.644,11.43,5.459,17.059,8.359  c21.017,10.807,41.002,23.516,59.707,37.957C265.244,73.055,273.348,79.794,281.195,86.873z"/>
<path style="fill:#4CAF50;" d="M281.195,86.873c-33.82,1.331-67.324,7.122-99.626,17.23c-42.179,9.587-82.55,25.853-119.586,48.192  C92.297,97.45,139.756,54.068,197.093,28.786c21.017,10.807,41.002,23.516,59.707,37.957  C265.244,73.055,273.348,79.794,281.195,86.873z"/>
<path d="M20.103,189.826c-1.689,0-3.386-0.503-4.853-1.51c-3.079-2.132-4.41-6.03-3.275-9.596  C36.949,99.958,98.789,37.742,177.406,12.307c2.039-0.648,4.248-0.52,6.184,0.367c41.062,18.876,78.541,44.192,111.397,75.248  c2.593,2.448,3.378,6.252,1.979,9.545c-1.39,3.275-4.649,5.314-8.257,5.177c-5.382-0.264-10.679-0.264-16.343-0.333  c-89.246,0-176.93,30.408-246.993,85.68C23.847,189.212,21.971,189.826,20.103,189.826z M179.504,29.58  C116.65,50.887,65.634,97.476,38.45,157.285c67.034-45.531,146.769-70.822,227.989-71.999  C240.022,63.007,210.876,44.319,179.504,29.58z"/>
<path style="fill:#0377BC;" d="M479.424,149.481c-10.833-6.312-21.921-12.112-33.351-17.4  c-46.759-21.913-97.28-34.682-148.842-37.616c21.316-17.75,44.38-33.3,68.834-46.401c4.35-2.303,8.786-4.606,13.221-6.738  C422.829,66.419,457.75,104.129,479.424,149.481z"/>
<path style="fill:#02A9F4;" d="M446.073,132.08c-46.759-21.913-97.28-34.681-148.842-37.616c21.316-17.75,44.38-33.3,68.834-46.401  C399.015,69.328,426.446,98.124,446.073,132.08z"/>
<path d="M479.424,158.01c-1.484,0-2.968-0.384-4.307-1.169c-54.121-31.628-115.798-50.257-178.38-53.865  c-3.489-0.205-6.517-2.516-7.608-5.843c-1.1-3.327-0.06-6.977,2.636-9.229c25.623-21.375,53.813-39.629,83.778-54.257  c2.559-1.237,5.536-1.126,8.001,0.281c45.25,26.075,81.066,64.757,103.584,111.866c1.612,3.378,0.836,7.421-1.928,9.954  C483.578,157.243,481.513,158.01,479.424,158.01z M319.45,87.786c48.056,5.34,95.174,19.123,138.538,40.499  c-19.9-31.517-46.811-57.874-79.061-77.261C358.081,61.489,338.156,73.806,319.45,87.786z"/>
<path d="M256.536,511.99c-35.125,0-70.549-7.31-104.19-22.228c-2.593-1.151-4.444-3.514-4.939-6.303  c-4.333-24.378-6.525-49.301-6.534-74.08c-0.128-122.588,53.361-238.472,146.727-317.908c3.344-2.84,8.299-2.687,11.447,0.358  c81.211,78.225,127.706,187.754,127.569,300.508c0,18.185-1.203,36.515-3.574,54.504c-0.273,2.115-1.339,4.06-2.994,5.433  C372.94,491.613,315.16,511.99,256.536,511.99z M163.435,475.961c81.757,34.477,174.209,21.316,243.129-34.681  c1.987-16.181,3.002-32.634,3.002-48.96v-0.009c0.128-105.537-42.35-208.132-116.779-282.74  c-85.919,76.008-134.956,184.82-134.845,299.8C157.942,431.624,159.792,454.006,163.435,475.961z"/>
<path style="fill:#C52828;" d="M149.838,391.381c-0.256,5.971-0.426,11.941-0.426,17.998c0,10.662,0.426,21.324,1.279,31.816  c1.006,13.673,2.712,27.278,5.118,40.772c-8.854-3.907-17.452-8.351-25.76-13.306C31.106,410.036-14.434,290.996,20.103,181.296  c7.591-5.971,15.353-11.686,23.371-17.145c3.156-2.132,6.312-4.265,9.553-6.312c52.56-33.607,112.165-54.649,174.175-61.499  c10.236-1.109,20.556-1.962,31.048-2.303h0.768c4.691-0.171,9.383-0.256,14.074-0.256c5.374,0,10.747,0.085,16.036,0.341  c0.418,0.35,0.819,0.716,1.194,1.109c0.938,0.853,1.877,1.791,2.815,2.729c-76.212,64.834-125.932,155.419-139.715,254.524  c-0.094,0.273-0.154,0.563-0.171,0.853C151.544,365.878,150.35,378.501,149.838,391.381z"/>
<g>
	<path style="fill:#F44335;" d="M293.136,97.962c-76.212,64.834-125.932,155.419-139.715,254.524   c-0.094,0.273-0.154,0.563-0.171,0.853c-1.962,10.662-3.412,21.495-4.435,32.498c-0.512,5.971-1.024,11.941-1.279,17.998   c-0.597,10.662-0.682,21.324-0.426,31.816C77.081,386.818,37.239,305.275,41.768,220.021c1.1-21.119,4.887-42.017,11.259-62.181   c0.512-1.45,0.938-2.985,1.45-4.435c52.508-31.858,111.568-51.374,172.725-57.063c15.08-1.459,30.229-2.056,45.378-1.791   l0.768,0.085c4.691,0,9.383,0.171,14.074,0.426c0.938,0.085,1.962,0.085,2.9,0.171C291.26,96.085,292.198,97.023,293.136,97.962z"/>
	<path style="fill:#F44335;" d="M149.838,391.381c0.759,17.708,2.695,35.347,5.8,52.798c-1.706-1.024-3.327-1.962-4.947-2.985   c-0.853-10.491-1.279-21.154-1.279-31.816C149.412,403.323,149.583,397.352,149.838,391.381z"/>
</g>
<path d="M155.809,490.496c-1.177,0-2.354-0.239-3.463-0.734C33.153,436.836-27.194,303.134,11.965,178.737  c0.512-1.629,1.51-3.071,2.849-4.137c73.048-57.635,164.494-89.348,257.544-89.348c5.749-0.026,11.506,0.077,17.17,0.35  c1.928,0.094,3.753,0.836,5.203,2.107c1.51,1.314,2.926,2.721,4.435,4.231c1.68,1.68,2.593,3.992,2.491,6.372  c-0.094,2.38-1.186,4.615-2.994,6.158c-89.561,76.195-140.85,187.328-140.73,304.909v0.009c0,23.772,2.115,47.698,6.261,71.095  c0.554,3.105-0.657,6.261-3.139,8.206C159.537,489.873,157.677,490.496,155.809,490.496z M27.464,186.363  C-5.947,296.626,43.986,414.164,144.849,467.184c-2.636-19.141-3.966-38.52-3.966-57.797l0,0  c-0.119-117.12,48.687-228.125,134.478-307.067c-0.989-0.009-1.953-0.009-2.985,0C184,102.312,97.176,132.123,27.464,186.363z"/>
<path style="fill:#FDD834;" d="M503.392,255.845c0.06,73.338-32.472,142.906-88.794,189.87c1.859-13.972,2.943-28.045,3.241-42.136  c0.171-3.753,0.256-7.506,0.256-11.259c0.136-111.039-44.985-217.327-124.959-294.358c1.279-1.194,2.644-2.388,4.094-3.497  c64.211,3.77,126.631,22.621,182.193,55.016C495.246,182.704,503.435,219.048,503.392,255.845z"/>
<path style="fill:#FFEB3A;" d="M417.84,403.579c0.171-3.753,0.256-7.506,0.256-11.259c0.136-111.039-44.985-217.327-124.959-294.358  c1.279-1.194,2.644-2.388,4.094-3.497c33.104,1.894,65.849,7.856,97.494,17.742c19.371,7.634,38.136,16.727,56.125,27.21  C492.201,226.384,479.321,329.456,417.84,403.579z"/>
<path d="M414.598,454.245c-1.407,0-2.823-0.35-4.111-1.058c-3.071-1.689-4.802-5.109-4.342-8.589  c2.277-17.247,3.42-34.835,3.42-52.278c0.136-108.147-44.465-213.19-122.341-288.216c-1.68-1.621-2.636-3.864-2.619-6.201  c0.017-2.337,0.989-4.563,2.687-6.167c1.484-1.39,3.062-2.772,4.751-4.052c1.621-1.245,3.6-1.885,5.672-1.74  c65.252,3.762,129.574,23.184,186.014,56.168c1.476,0.861,2.661,2.149,3.395,3.702c16.257,34.153,24.83,72.203,24.787,110.032  c0.06,76.093-33.428,147.691-91.864,196.412C418.488,453.562,416.543,454.245,414.598,454.245z M311.262,104.086  c73.636,77.185,115.483,181.263,115.355,288.234c0,10.628-0.409,21.324-1.228,31.961c44.439-44.559,69.508-104.804,69.465-168.435  c0-0.009,0-0.009,0-0.017c0.043-34.434-7.574-69.056-22.024-100.317C423.486,127.116,367.958,109.468,311.262,104.086z"/>
<g>
	<path id="SVGCleanerId_0_1_" d="M293.136,106.491c-2.184,0-4.367-0.836-6.03-2.499c-1.228-1.228-2.371-2.38-3.6-3.455   c-2.712-2.371-3.642-6.193-2.32-9.545s4.606-5.578,8.214-5.399c3.062,0.102,5.766,0.188,8.376,0.358   c3.548,0.23,6.576,2.636,7.617,6.039c1.032,3.403-0.162,7.097-2.985,9.246c-1.22,0.93-2.363,1.945-3.429,2.943   C297.333,105.724,295.235,106.491,293.136,106.491z"/>
</g>
<path d="M264.605,426.438c-2.303,0-4.521-0.938-6.056-2.474c-1.621-1.621-2.474-3.838-2.474-6.056c0-2.218,0.853-4.444,2.474-6.056  c3.156-3.156,8.871-3.156,12.027,0c1.612,1.612,2.559,3.838,2.559,6.056c0,2.218-0.938,4.435-2.559,6.056  C269.04,425.491,266.814,426.438,264.605,426.438z"/>
<path d="M298.638,426.438c-2.218,0-4.444-0.938-5.971-2.474c-1.621-1.621-2.559-3.838-2.559-6.056c0-2.218,0.93-4.444,2.559-6.056  c3.156-3.156,8.956-3.156,12.027,0c1.612,1.612,2.559,3.838,2.559,6.056c0,2.218-0.938,4.435-2.559,6.056  C303.159,425.491,300.932,426.438,298.638,426.438z"/>
<path d="M213.427,460.557c-2.303,0-4.521-0.938-6.056-2.474c-1.621-1.621-2.559-3.838-2.559-6.056s0.938-4.444,2.559-6.056  c3.156-3.156,8.871-3.156,12.027,0c1.621,1.612,2.559,3.838,2.559,6.056s-0.938,4.435-2.559,6.056  C217.862,459.61,215.645,460.557,213.427,460.557z"/>
<path d="M247.46,460.557c-2.218,0-4.435-0.938-5.971-2.559c-1.621-1.544-2.559-3.753-2.559-5.971c0-2.218,0.938-4.444,2.559-6.056  c3.071-3.156,8.871-3.156,12.027,0c1.621,1.612,2.559,3.838,2.559,6.056s-0.938,4.435-2.559,6.056  C251.895,459.61,249.763,460.557,247.46,460.557z"/>
<path d="M281.579,460.557c-2.218,0-4.444-0.938-5.971-2.474c-1.621-1.621-2.559-3.838-2.559-6.056s0.93-4.444,2.559-6.056  c3.071-3.156,8.956-3.156,12.027,0c1.612,1.612,2.474,3.838,2.474,6.056s-0.862,4.435-2.474,6.056  C286.099,459.61,283.873,460.557,281.579,460.557z"/>
<path d="M315.697,460.557c-2.218,0-4.444-0.938-5.971-2.559c-1.621-1.544-2.474-3.676-2.474-5.971c0-2.218,0.853-4.444,2.474-6.056  c3.071-3.156,8.871-3.156,12.027,0c1.612,1.612,2.474,3.838,2.474,6.056s-0.862,4.435-2.474,6.056  C320.218,459.61,317.992,460.557,315.697,460.557z"/>
<path d="M349.901,460.557c-2.303,0-4.521-0.938-6.056-2.474c-1.621-1.621-2.474-3.753-2.474-6.056c0-2.218,0.853-4.444,2.474-6.056  c3.071-3.156,8.871-3.156,12.027,0c1.612,1.612,2.474,3.838,2.474,6.056s-0.862,4.435-2.474,6.056  C354.336,459.61,352.11,460.557,349.901,460.557z"/>
<path d="M349.901,392.319c-2.303,0-4.521-0.938-6.056-2.474c-1.621-1.621-2.474-3.753-2.474-6.056c0-2.312,0.853-4.521,2.474-6.056  c3.156-3.156,8.871-3.156,12.027,0c1.612,1.612,2.474,3.745,2.474,6.056c0,2.218-0.862,4.435-2.474,6.056  C354.336,391.373,352.11,392.319,349.901,392.319z"/>
<path d="M383.934,392.319c-2.218,0-4.444-0.938-5.971-2.474c-1.621-1.621-2.559-3.838-2.559-6.056s0.93-4.444,2.559-6.056  c3.156-3.156,8.871-3.156,12.027,0c1.612,1.612,2.559,3.838,2.559,6.056s-0.938,4.435-2.559,6.056  C388.361,391.373,386.229,392.319,383.934,392.319z"/>
<path d="M332.756,426.438c-2.218,0-4.444-0.938-5.971-2.474c-1.621-1.621-2.559-3.838-2.559-6.056c0-2.218,0.93-4.444,2.559-6.056  c3.071-3.156,8.871-3.156,12.027,0c1.612,1.612,2.474,3.838,2.474,6.056c0,2.218-0.862,4.435-2.474,6.056  C337.277,425.491,335.051,426.438,332.756,426.438z"/>
<path d="M366.875,426.438c-2.218,0-4.444-0.938-5.971-2.474c-1.621-1.621-2.559-3.838-2.559-6.056c0-2.218,0.93-4.444,2.559-6.056  c3.071-3.156,8.871-3.156,12.027,0c1.612,1.612,2.474,3.838,2.474,6.056c0,2.218-0.862,4.435-2.474,6.056  C371.396,425.491,369.169,426.438,366.875,426.438z"/>
<g>
</g>
<g>
</g>
<g>
</g>
<g>
</g>
<g>
</g>
<g>
</g>
<g>
</g>
<g>
</g>
<g>
</g>
<g>
</g>
<g>
</g>
<g>
</g>
<g>
</g>
<g>
</g>
<g>
</g>
</svg>
