<?xml version="1.0" encoding="UTF-8"?>
<svg xmlns="http://www.w3.org/2000/svg" viewBox="0 0 64 64" width="512" height="512"><g id="Artboard_01" data-name="Artboard 01"><circle cx="32.003" cy="32.009" r="30" style="fill:#ccc"/><path d="M32,2.009A29.981,29.981,0,0,0,6.353,16.442a30,30,0,0,0,55.3,20.134A30.022,30.022,0,0,0,32,2.009Z" style="fill:#f2f2f2"/><path d="M51.073,21.477,61.4,26.02l.006-.011a30,30,0,0,0-11.4-18V19.78L42.1,25.432,33,19.645V8.431L41.47,3.542a30.017,30.017,0,0,0-18.937,0L31,8.431V19.645L21.912,25.43,14,19.78V8.008a30,30,0,0,0-11.4,18l.006.011,10.328-4.543L21,27.238V37.78l-8.069,5.763L2.866,39.154A30.018,30.018,0,0,0,14,56.009V45.238l7.975-5.7L31,44.463V55.586l-8.468,4.889a29.983,29.983,0,0,0,18.935,0L33,55.586V44.463l9.027-4.924,7.979,5.7V56.009A30.023,30.023,0,0,0,61.146,39.154L51.077,43.543,43,37.775V27.242Z" style="fill:#393a3a"/><path d="M14.79,42.217l-1.856,1.326L2.866,39.154A30.018,30.018,0,0,0,14,56.009V45.238l2.284-1.632C15.774,43.158,15.271,42.7,14.79,42.217Z" style="fill:#2b2c2c"/><path d="M31,55.586l-8.468,4.889a29.983,29.983,0,0,0,18.935,0L33,55.586V50.858c-.675-.067-1.34-.162-2-.273Z" style="fill:#2b2c2c"/><path d="M50.009,47.531v8.478A30.023,30.023,0,0,0,61.146,39.154l-1.92.837A30.117,30.117,0,0,1,50.009,47.531Z" style="fill:#2b2c2c"/><path d="M32,1A31,31,0,1,0,63,32,31.036,31.036,0,0,0,32,1ZM59.949,24.283,51,20.347V10.119A29.045,29.045,0,0,1,59.949,24.283Zm.323,14.148L50.119,42.857,44,38.486V26.515l6.118-4.37,10.39,4.569a28.712,28.712,0,0,1-.236,11.717ZM3,32a28.96,28.96,0,0,1,.492-5.286l10.39-4.569L20,26.515V38.486l-6.119,4.371L3.728,38.431A28.951,28.951,0,0,1,3,32ZM49,20.485l-6.032,4.309L33,18.451V9.578L41.569,4.63A28.931,28.931,0,0,1,49,8.527ZM32,43.86,22,38.406V26.549l10-6.363,10,6.363V38.406ZM31,18.451l-9.968,6.343L15,20.485V8.527a28.931,28.931,0,0,1,7.431-3.9L31,9.578ZM15,44.514l6.071-4.336L31,45.593v8.829L22.431,59.37A28.931,28.931,0,0,1,15,55.473Zm18,1.079,9.929-5.415L49,44.514V55.473a28.931,28.931,0,0,1-7.431,3.9L33,54.422Zm5.931-41.75L32,7.845l-6.931-4a28.914,28.914,0,0,1,13.862,0ZM13,10.119V20.347L4.051,24.283A29.045,29.045,0,0,1,13,10.119ZM4.406,40.909,13,44.655v9.226A29.071,29.071,0,0,1,4.406,40.909ZM25.069,60.157l6.931-4,6.931,4a28.914,28.914,0,0,1-13.862,0ZM51,53.881V44.655l8.594-3.746A29.071,29.071,0,0,1,51,53.881Z"/></g></svg>
