<?xml version="1.0" encoding="iso-8859-1"?>
<!-- Generator: Adobe Illustrator 19.0.0, SVG Export Plug-In . SVG Version: 6.00 Build 0)  -->
<svg xmlns="http://www.w3.org/2000/svg" xmlns:xlink="http://www.w3.org/1999/xlink" version="1.1" id="Layer_1" x="0px" y="0px" viewBox="0 0 434.559 434.559" style="enable-background:new 0 0 434.559 434.559;" xml:space="preserve" width="512" height="512">
<g>
	<circle style="fill:#8BDC65;" cx="217.28" cy="217.279" r="209.779"/>
	<circle style="fill:#77BD57;" cx="305.913" cy="43.768" r="8.633"/>
	<circle style="fill:#77BD57;" cx="391.396" cy="286.118" r="8.633"/>
	<circle style="fill:#77BD57;" cx="314.546" cy="273.279" r="8.633"/>
	<circle style="fill:#77BD57;" cx="359.28" cy="306.799" r="8.633"/>
	<circle style="fill:#77BD57;" cx="261.895" cy="116.172" r="8.633"/>
	<circle style="fill:#77BD57;" cx="212.28" cy="43.768" r="8.633"/>
	<g>
		<path style="fill:#F9EBCB;" d="M235.995,362.28c-79.954,0-145.001-65.047-145.001-145.001S156.041,72.278,235.995,72.278    c45.163,0,75.537,7.107,104.91,13.979c17.677,4.136,34.374,8.043,53.914,10.383l-1.784,14.894    c-20.365-2.439-38.25-6.624-55.547-10.671c-28.545-6.679-58.061-13.585-101.493-13.585c-71.683,0-130.001,58.318-130.001,130.001    S164.312,347.28,235.995,347.28c43.431,0,72.948-6.906,101.493-13.585c17.297-4.047,35.183-8.232,55.547-10.671l1.784,14.894    c-19.541,2.34-36.237,6.247-53.914,10.383C311.532,355.173,281.157,362.28,235.995,362.28z"/>
		<path d="M217.28,434.559c-58.038,0-112.601-22.601-153.64-63.64C22.601,329.88,0,275.317,0,217.279S22.601,104.678,63.64,63.64    C104.678,22.601,159.242,0,217.28,0s112.601,22.601,153.64,63.64c41.039,41.038,63.64,95.602,63.64,153.64    s-22.601,112.601-63.64,153.64C329.881,411.958,275.317,434.559,217.28,434.559z M217.28,15C105.742,15,15,105.742,15,217.279    c0,111.538,90.742,202.28,202.279,202.28s202.279-90.742,202.279-202.28C419.559,105.742,328.817,15,217.28,15z"/>
	</g>
</g>















</svg>
