<svg id="svg8" height="512" viewBox="0 0 111 111" width="512" xmlns="http://www.w3.org/2000/svg" xmlns:dc="http://purl.org/dc/elements/1.1/" xmlns:cc="http://creativecommons.org/ns#" xmlns:rdf="http://www.w3.org/1999/02/22-rdf-syntax-ns#" xmlns:svg="http://www.w3.org/2000/svg" xmlns:sodipodi="http://sodipodi.sourceforge.net/DTD/sodipodi-0.dtd" xmlns:inkscape="http://www.inkscape.org/namespaces/inkscape" inkscape:version="1.0 (4035a4fb49, 2020-05-01)" sodipodi:docname="banana.svg"><g id="layer1" inkscape:groupmode="layer" inkscape:label="Layer 1"><g id="g864" transform="matrix(1.164 0 0 1.164 -4.193 -4.897)"><path id="path850-4-3-8" d="m96.068786 86.600613c1.465962 4.113052-.822529 6.819563-4.608788 8.964955-32.72541 4.806942-99.7845171-32.437298-82.6471039-65.013307 2.1842909-4.966431 7.6528909-10.210271 14.3684929-12.687559.743273-.586299 4.161781 1.278011 4.535634 2.335089 7.626187 37.324232 26.35868 36.153967 68.351765 66.400822z" fill="#fad600" sodipodi:nodetypes="cccccc"/><path id="path857" d="m63.916016 82.509766a4.7750001 4.7750001 0 0 0 -4.341797 2.833984 4.7750001 4.7750001 0 0 0 2.419922 6.304688c5.011277 2.230878 11.125765 4.212765 17.304687 4.707031 6.178922.494265 12.919464-.550621 17.523438-5.548828a4.7750001 4.7750001 0 0 0 -.277344-6.746094 4.7750001 4.7750001 0 0 0 -6.746094.277344c-1.834973 1.992099-5.15552 2.864788-9.740234 2.498047-4.584714-.366742-9.937736-2.023714-14.179688-3.91211a4.7750001 4.7750001 0 0 0 -1.96289-.414062z" fill="#c7ab00" font-variant-ligatures="normal" font-variant-position="normal" font-variant-caps="normal" font-variant-numeric="normal" font-variant-alternates="normal" font-variant-east-asian="normal" font-feature-settings="normal" font-variation-settings="normal" text-indent="0" text-align="start" text-decoration-line="none" text-decoration-style="solid" text-decoration-color="#000000" text-transform="none" text-orientation="mixed" white-space="normal" shape-padding="0" shape-margin="0" inline-size="0" isolation="auto" mix-blend-mode="normal" solid-color="#000000" solid-opacity="1" vector-effect="none"/><path id="path847-0" d="m26.751895 16.210006c-.630102-.332611-1.268832-.612755-1.990328-.795024-.721484-.182273-1.704591-.62935-3.125497.491456l.681019-.382666c-7.359558 2.714838-13.216011 8.222481-15.7665556 13.987629-4.6151735 8.876371-3.4917016 18.347409 1.1563634 26.818602 4.6689302 8.50922 12.7443092 16.264373 22.3244342 22.808129 19.160253 13.087501 44.270302 21.469588 61.79224 18.895836a2.4954969 2.4954969 0 0 0 .866707-.298011c2.09709-1.188267 3.985449-2.603283 5.192375-4.645619 1.20696-2.042315 1.465002-4.720827.536056-7.327178a2.4954969 2.4954969 0 0 0 -.891346-1.186717c-21.151709-15.235191-36.461041-22.606445-47.025146-30.5195-10.564104-7.913055-16.609557-16.091941-20.341416-34.35643a2.4954969 2.4954969 0 0 0 -.09203-.332802c-.415162-1.173896-.983927-1.543382-1.53509-1.993676-.551178-.450291-1.151706-.831383-1.781787-1.164029zm-1.38451 4.886424c3.913139 18.785103 11.018761 28.622418 22.14297 36.955017 11.058871 8.283663 25.913422 15.439487 46.328781 30.049797.239298 1.020421.168901 1.736056-.252936 2.449899-.469113.794527-1.522494 1.698338-2.963492 2.574215-15.238486 2.018891-39.68717-5.752725-57.776527-18.108755-9.13315-6.238443-16.657686-13.601027-20.765116-21.086889-4.1074164-7.485865-4.9407986-14.838866-1.059842-22.216066a2.4954969 2.4954969 0 0 0 .07505-.157398c1.797091-4.086031 6.741738-8.926559 12.665761-11.210742.182676.06401.387925.133667.66062.277712.364201.192258.734574.437271.952781.615448.149815.122408.0516-.02217-.0081-.142234zm-1.65828-.772464c-.1938.0039-.240681-.08861-.169012-.07056.02704.0064.126524.0563.169012.07056z" fill="#1a1c20" font-variant-ligatures="normal" font-variant-position="normal" font-variant-caps="normal" font-variant-numeric="normal" font-variant-alternates="normal" font-variant-east-asian="normal" font-feature-settings="normal" font-variation-settings="normal" text-indent="0" text-align="start" text-decoration-line="none" text-decoration-style="solid" text-decoration-color="#000000" text-transform="none" text-orientation="mixed" white-space="normal" shape-padding="0" shape-margin="0" inline-size="0" isolation="auto" mix-blend-mode="normal" solid-color="#000000" solid-opacity="1" vector-effect="none"/><path id="path851-3" d="m21.452597 23.540923a2.3875629 2.3875629 0 0 0 -2.455592.046c-4.811186 3.014199-8.058189 7.541128-9.2763325 12.547414a2.3875629 2.3875629 0 0 0 1.7564395 2.883779 2.3875629 2.3875629 0 0 0 2.882805-1.754751c.914995-3.760426 3.358383-7.239527 7.171596-9.628494a2.3875629 2.3875629 0 0 0 .755033-3.292197 2.3875629 2.3875629 0 0 0 -.833949-.80175z" fill="#fff" font-variant-ligatures="normal" font-variant-position="normal" font-variant-caps="normal" font-variant-numeric="normal" font-variant-alternates="normal" font-variant-east-asian="normal" font-feature-settings="normal" font-variation-settings="normal" text-indent="0" text-align="start" text-decoration-line="none" text-decoration-style="solid" text-decoration-color="#000000" text-transform="none" text-orientation="mixed" white-space="normal" shape-padding="0" shape-margin="0" inline-size="0" isolation="auto" mix-blend-mode="normal" solid-color="#000000" solid-opacity="1" vector-effect="none"/><path id="path1029-3-3-3-4-2-8-9" d="m36.751084 8.9220341c2.063315-1.5196225-.5595-5.0350039-4.003206-3.0217728-4.052551 2.3691746-7.904234 7.5038617-9.432535 11.4848107l3.943384 2.550123c2.964316-5.424097 4.451183-7.300339 9.492357-11.0131609z" fill="#1a1c20" sodipodi:nodetypes="ssccs"/></g></g></svg>