<svg height="512" viewBox="0 0 60 60" width="512" xmlns="http://www.w3.org/2000/svg"><g id="006---Bee" fill="none"><g id="Icons" transform="translate(1 2)"><path id="Shape" d="m39.06 13.45h-20.12c-1.92-1.67-.55-4.83 1-6.82l6.67-4.33c1.5687552-.39578388 3.2112448-.39578388 4.78 0l6.61 4.33c1.61 2 3 5.16 1.06 6.82z" fill="#283593"/><path id="Shape" d="m36.06 13.45h-17.12c-1.92-1.67-.55-4.83 1-6.82l6.67-4.33c.2922406-.080117.5895941-.1402559.89-.18.3004059.0397441.5977594.099883.89.18l6.61 4.33c1.61 2 3 5.16 1.06 6.82z" fill="#3f51b5"/><path id="Shape" d="m27 4c.004123 2.13473642-1.66881 3.89651772-3.8009047 4.00276796-2.1320946.10625023-3.9718964-1.48047839-4.1800305-3.60504817-.2081341-2.12456979 1.2887561-4.03817845 3.4009352-4.34771979 1.1484755-.16830989 2.3134254.17056482 3.19242.92864968.8789946.75808485 1.3853382 1.86060956 1.38758 3.02135032z" fill="#f5f5f5"/><path id="Shape" d="m39 4c-.0464445 1.42906239-.8517567 2.72479264-2.1125833 3.3991017s-2.785618.62475334-4-.13c-1.2143821-.75475334-1.9338613-2.10003932-1.8874167-3.5291017.1043064-1.53134956 1.0756814-2.86796157 2.5-3.44 1.231661-.49823456 2.630331-.35239625 3.732715.38920749 1.1023839.74160374 1.7645959 1.98217699 1.767285 3.31079251z" fill="#cfd8dc"/><path id="Shape" d="m33.5 7.7c-1.5004686-.61635537-2.4801316-2.07787176-2.4801316-3.7s.979663-3.08364463 2.4801316-3.7c1.5004686.61635537 2.4801316 2.07787176 2.4801316 3.7s-.979663 3.08364463-2.4801316 3.7z" fill="#f5f5f5"/><path id="Shape" d="m43 34.34c0 9.85-6.69 21-15.5 19.54-7.03-1.17-12.5-10.32-12.5-19.54-.0208966-2.1397653.2482178-4.272497.8-6.34h26.4c.5517822 2.067503.8208966 4.2002347.8 6.34z" fill="#fec108"/><path id="Shape" d="m40 34.34c-.0149366 4.8704911-1.4806113 9.6261007-4.21 13.66-2.2 3.11-5.08 5.31-8.29 5.84-3.78-.63-7.11-3.56-9.37-7.57-3.0921206-5.5654471-3.9263271-12.1066282-2.33-18.27h23.4c.5517822 2.067503.8208966 4.2002347.8 6.34z" fill="#ffdc00"/><path id="Shape" d="m42.94 36c-.2441659 3.6316319-1.2928056 7.1635322-3.07 10.34-1.2895306.7128126-2.6591111 1.2700439-4.08 1.66 1.9698342-2.8799999 3.2840425-6.156987 3.85-9.6 1.2126935-.6323075 2.3248127-1.4411215 3.3-2.4z" fill="#283593"/><path id="Shape" d="m39.64 38.44c-.5715645 3.4290867-1.8855463 6.6918572-3.85 9.56-5.59 1.67-12.59 1.2-17.66-1.73-1.7694569-3.1545034-2.8179216-6.6619082-3.07-10.27 5.07 5.35 16.75 6.79 24.58 2.44z" fill="#3f51b5"/><path id="Shape" d="m43.45 26.72c-5.75 8.43-23.35 8.27-28.91 0l4.67-3c6.1642192 3.061125 13.4057808 3.061125 19.57 0z" fill="#3f51b5"/><path id="Shape" d="m38.78 23.7c-6.1620217 3.0704763-13.4079783 3.0704763-19.57 0l-1.66-9.38c.19 0 3.88-3.32 11.45-3.32 4.0628751-.0746508 8.0536455 1.0790129 11.45 3.31z" fill="#ffdc00"/><path id="Shape" d="m26 16.11v1.12c-.0015031 1.5692591-.9204705 2.992681-2.35 3.64-4.58 2-7.76 7.05-14.65 7.13-6.32.07-8.77-5.53-9-11.8-.00108426-1.070356.84072771-1.9518345 1.91-2 7.76752936-.3987145 15.5553517-.0638984 23.26 1 .4528073.076749.7951244.4520605.83.91z" fill="#02a9f4"/><path id="Shape" d="m58 16.2c-.0572285 2.1166897-.4556845 4.210272-1.18 6.2-1.56 4-4.58 6.07-9.32 5.48-5.88-.72-8.92-5.16-13.15-7-1.4328307-.6488124-2.3524252-2.0771187-2.35-3.65v-1.12c-.006376-.4953928.3509422-.9207716.84-1 3.09-.62 13.29-1.46 23.26-1 1.1011114.0539445 1.95093.9887451 1.9 2.09z" fill="#0377bc"/><path id="Shape" d="m55 16.2c-.0572285 2.1166897-.4556845 4.210272-1.18 6.2-1 2.62-2.89 5-6.32 5.48-5.88-.72-8.92-5.16-13.15-7-1.4328307-.6488124-2.3524252-2.0771187-2.35-3.65v-1.12c0-.5522847.4477153-1 1-1 5.0192333-.7108206 10.0807627-1.0816653 15.15-1.11 1.58 0 3.23.07 4.94.15 1.088923.0486821 1.9383379.9603578 1.91 2.05z" fill="#02a9f4"/></g><g id="Layer_10" fill="#000" transform="translate(0 -1)"><path id="Shape" d="m9.88 32c1.8333259.0007981 3.6485149-.3629195 5.34-1.07.18.23.38.46.59.69-.2246721.7304197-.3984222 1.4755403-.52 2.23l-4.39 3.9c-.54987.4808087-.90543394 1.1457132-1 1.87l-.86 6.92-2.75 2.75c-.39212214.3921222-.39212212 1.0278778.00000004 1.42.39212215.3921221 1.02787778.3921221 1.41999996 0l1.75-1.71.54 2.24c.0857437.3572656.3555731.6416489.7078461.7460254.3522729.1043765.7334708.0128891 1-.24.2665292-.252889.3778976-.6287598.2921539-.9860254l-1-3.82c1-7.67.82-7.34 1.21-7.69l2.79-2.48c-.0450402.7359782-.0450402 1.4740218 0 2.21.63 9.85 6.77 18.22 13.94 19v2.02c0 .5522847.4477153 1 1 1s1-.4477153 1-1v-2.07c7.17-.73 13.31-9.11 13.94-19 .0403639-.7327779.0403639-1.4672221 0-2.2l2.79 2.48c.39.35.26 0 1.21 7.69l-.88 3.86c-.1087346.5260968.2176311 1.0441035.7391219 1.1731322.5214908.1290286 1.051749-.1770299 1.2008781-.6931322l.6-2.24 1.75 1.75c.3921222.3921222 1.0278778.3921222 1.42 0s.3921222-1.0278778 0-1.42l-2.71-2.79-.86-6.92c-.0945661-.7242868-.45013-1.3891913-1-1.87l-4.39-3.9c-.1225765-.7575475-.2963072-1.5059259-.52-2.24.2-.22.4-.44.59-.68 1.6753319.7026331 3.4732952 1.0663043 5.29 1.07 8.48 0 9.74-8.92 9.89-12.77.0342999-1.6268351-1.2345593-2.9844257-2.86-3.06-4.5934586-.242868-9.1965414-.242868-13.79 0l3.29-4.39c.34-.45.32-.52 2.21-5.25l2.86-2.85c.2536586-.25365856.3527236-.62337399.2598781-.96987806-.0928455-.34650406-.363496-.61715454-.71-.71000002-.3465041-.09284548-.7162195.00621949-.9698781.25987808l-1.75 1.74-.54-2.24c-.1325483-.55228475-.6877153-.89254834-1.24-.76s-.8925483.68771525-.76 1.24l1 3.69c-.5841801 1.5939755-1.2517684 3.15613198-2 4.68l-3 4.11c.0352224-1.8510429-.5726547-3.6570034-1.72-5.11.4754669-.78722721.7246015-1.69034011.72-2.61-.0036561-2.19179799-1.4343682-4.12570257-3.529196-4.77044147s-4.3653557.15001076-5.600804 1.96044147c-1.2369623-.21998256-2.5030377-.21998256-3.74 0-1.5828179-2.0820853-4.5027926-2.59255604-6.6981237-1.17096773-2.195331 1.42158832-2.9241674 4.29484958-1.6718763 6.59096773-1.1616892 1.4475898-1.7838828 3.2540724-1.76 5.11-3.38-4.5-3.14-4.16-3.21-4.34l-1.74-4.45.95-3.69c.1325483-.55228475-.2077153-1.10745165-.76-1.23999999-.5522847-.13254833-1.1074517.20771525-1.24.75999999l-.54 2.24-1.75-1.71c-.39212217-.39212216-1.02787782-.39212216-1.41999999.00000001s-.39212217 1.02787782-.00000001 1.41999999l2.86 2.85 1.85 4.57c.22.54.21.44 3.68 5.07-4.5967938-.2428854-9.20320616-.2428854-13.8 0-1.62150529.0648174-2.89752298 1.4072943-2.88 3.03.14 3.85 1.4 12.77 9.88 12.77zm32.65 1.12c.4273311 1.7729153.5857674 3.5999894.47 5.42-6 5.92-19.61 6-25.9 0-.1310254-1.8208156.010535-3.6509903.42-5.43 6.79 5.24 18.35 5.13 25.01.01zm-2.4 15.45c-6.3647413 3.239933-13.8952587 3.239933-20.26 0-1.2282032-2.2450684-2.076332-4.6779479-2.51-7.2 6.9 4.84 18.38 4.84 25.28 0-.433668 2.5220521-1.2817968 4.9549316-2.51 7.2zm-18.13 3.12c5.1893274 1.7527486 10.8106726 1.7527486 16 0-4.88 5.74-11.12 5.74-16 0zm-4.94-21.69c1.1300044-.6523516 2.2187344-1.3737187 3.26-2.16 6.1362357 2.8451921 13.2137643 2.8451921 19.35 0 1.0413387.786178 2.1300622 1.5075408 3.26 2.16-5.81 6.66-20.06 6.62-25.87 0zm18.94-26c1.6568542 0 3 1.34314575 3 3s-1.3431458 3-3 3-3-1.34314575-3-3 1.3431458-3 3-3zm-4.91 2.07c-.3530611 1.98363181.5189648 3.9853684 2.2120004 5.0776494s3.8762537 1.0616697 5.5379996-.0776494c.71 1.1 1.56 2.92.95 4.09-6.1966719-2.9351428-13.3833281-2.9351428-19.58 0-.61-1.17.24-3 .95-4.09 1.6617459 1.1393191 3.844964 1.1699304 5.5379996.0776494s2.5650615-3.09401759 2.2120004-5.0776494c.7238771-.09004612 1.4561229-.09004612 2.18 0zm-7.09-2.07c1.6568542 0 3 1.34314575 3 3s-1.3431458 3-3 3-3-1.34314575-3-3 1.3431458-3 3-3zm-21 14.16c7.9727077-.4496312 15.9704718-.0877717 23.87 1.08.5522847.0994113 1.0805887-.2677153 1.18-.82s-.2677153-1.0805887-.82-1.18c-.05 0-2-.34-5.24-.67 5.1613463-2.1345511 10.9586537-2.1345511 16.12 0-3.28.33-5.2.66-5.25.67-.3572656.0625215-.6540378.3108926-.7785254.6515544-.1244876.3406619-.057778.7218597.175 1 .232778.2781404.5962598.4109671.9535254.3484456 7.8731843-1.1624263 15.843876-1.5242736 23.79-1.08.5522847 0 1 .4477153 1 1-.16 4.08-1.39 10.94-8 10.84-7.64-.08-10.5-6.79-16.85-7.83-.3572656-.0571625-.7178884.0806161-.9460254.3614359-.228137.2808199-.2891286.6620177-.16 1 .1291286.3379824.4287598.5814016.7860254.6385641 1.8285332.3897131 3.5407131 1.2012863 5 2.37-5.0269043 1.9899016-10.6230957 1.9899016-15.65 0 1.4592869-1.1687137 3.1714668-1.9802869 5-2.37.3572656-.0571625.6568968-.3005817.7860254-.6385641.1291286-.3379823.068137-.7191801-.16-1-.228137-.2808198-.5887598-.4185984-.9460254-.3614359-6.39 1.04-9.26 7.75-16.86 7.83-5.71.08-7.78-5.12-8-10.84 0-.5522847.44771525-1 1-1z"/><circle id="Oval" cx="25" cy="7" r="1"/><circle id="Oval" cx="35" cy="7" r="1"/></g></g></svg>