<svg height="512" viewBox="0 0 61 60" width="512" xmlns="http://www.w3.org/2000/svg"><g id="038---Beetle" fill="none"><g id="Icons" transform="translate(1 1)"><g fill="#9d27b0"><circle id="Oval" cx="10" cy="4" r="2"/><circle id="Oval" cx="2" cy="20" r="2"/><circle id="Oval" cx="2" cy="36" r="2"/><circle id="Oval" cx="2" cy="50" r="2"/><circle id="Oval" cx="48" cy="4" r="2"/><circle id="Oval" cx="56" cy="20" r="2"/><circle id="Oval" cx="56" cy="36" r="2"/><circle id="Oval" cx="56" cy="50" r="2"/></g><path id="Shape" d="m38 12.54c-.6076793-.352507-1.2974804-.5387533-2-.54h-14c-.7025196.0012467-1.3923207.187493-2 .54 0-3.32-.27-5.26 1.11-7.61h15.78c1.37 2.33 1.11 4.15 1.11 7.61z" fill="#283593"/><path id="Shape" d="m35 12h-13c-.7025196.0012467-1.3923207.187493-2 .54 0-3.37-.22-5.3.93-7.61h13.14c1.14 2.31.93 4.19.93 7.07z" fill="#3f51b5"/><path id="Shape" d="m29 4c.004123 2.13473642-1.66881 3.89651772-3.8009047 4.00276796-2.1320946.10625023-3.9718964-1.48047839-4.1800305-3.60504817-.2081341-2.12456979 1.2887561-4.03817845 3.4009352-4.34771979 1.1484755-.16830989 2.3134254.17056482 3.19242.92864968.8789946.75808485 1.3853382 1.86060956 1.38758 3.02135032z" fill="#f5f5f5"/><path id="Shape" d="m37 4c.0059784 1.97417264-1.4292293 3.65746989-3.3795159 3.96369793-1.9502866.30622805-3.8323223-.85620577-4.4316718-2.73720908-.5993496-1.8810033.2632521-3.91796895 2.0311877-4.79648885 1.2379776-.61517398 2.7058474-.54751976 3.8819899.17892117 1.1761424.72644094 1.8938238 2.00868598 1.8980101 3.39107883z" fill="#f5f5f5"/><path id="Shape" d="m40 16v.58c-2-.78-1.39-.58-19-.58-1.0277165.0015036-2.0457824.1983296-3 .58v-.58c0-2.209139 1.790861-4 4-4h14c2.209139 0 4 1.790861 4 4z" fill="#283593"/><path id="Shape" d="m37 16c0 .1.44 0-16 0-1.0279764-.001208-2.0465519.1957166-3 .58v-.58c-.1381459-2.0490421 1.3933653-3.8298692 3.44-4h12.1c.9912479.0664476 1.9147336.5266315 2.5646737 1.2780073.64994.7513758.9723284 1.7315088.8953263 2.7219927z" fill="#3f51b5"/><path id="Shape" d="m37.76 53.27c-1.9343732 2.9549946-5.2281743 4.7356038-8.76 4.7356038s-6.8256268-1.7806092-8.76-4.7356038c5.3745639-2.7271666 8.7606665-8.2431124 8.76-14.27-.0006665 6.0268876 3.3854361 11.5428334 8.76 14.27z" fill="#673ab7"/><path id="Shape" d="m37 16h-16c-4.418278 0-8 3.581722-8 8v31c8.836556 0 16-7.163444 16-16 0 8.836556 7.163444 16 16 16v-31c0-4.418278-3.581722-8-8-8z" fill="#955ba5"/><path id="Shape" d="m45 24v31c-8.836556 0-16-7.163444-16-16v-23h8c4.418278 0 8 3.581722 8 8z" fill="#6a1b9a"/><path id="Shape" d="m42 24v30.72c-7.5449346-1.4402178-13.0018081-8.0388372-13-15.72l-.0000004-23h5.0000004c4.418278 0 8 3.581722 8 8z" fill="#9d27b0"/><path id="Shape" d="m29 16v23c0 8.836556-7.163444 16-16 16v-31c0-4.418278 3.581722-8 8-8z" fill="#9d27b0"/></g><g id="Layer_10" fill="#000" transform="translate(-1)"><circle id="Oval" cx="28" cy="5" r="1"/><circle id="Oval" cx="34" cy="5" r="1"/><path id="Shape" d="m19 27c.5522847 0 1-.4477153 1-1v-1c0-.5522847-.4477153-1-1-1s-1 .4477153-1 1v1c0 .5522847.4477153 1 1 1z"/><path id="Shape" d="m19 52c.5522847 0 1-.4477153 1-1v-21c0-.5522847-.4477153-1-1-1s-1 .4477153-1 1v21c0 .5522847.4477153 1 1 1z"/><path id="Shape" d="m53.14 27.28 3.57-3.58c1.3183337.631332 2.8997763.2206301 3.7443209-.9724031.8445446-1.1930333.7063251-2.8210788-.3272569-3.8546609-1.0335821-1.033582-2.6616276-1.1718015-3.8546609-.3272569-1.1930332.8445446-1.6037351 2.4259872-.9724031 3.7443209l-3.58 3.57c-.34.34-.58.3-3.72.92v-1.78c.0005407-2.2831507-.8724707-4.4799911-2.44-6.14l3.65-3.65c.4836036-.484331.7870564-1.1194647.86-1.8l.61-5.5c1.4206491-.3362502 2.3929886-1.64635619 2.3033697-3.10350289-.0896188-1.45714669-1.2151737-2.63822592-2.6663207-2.79785208-1.4511469-.15962617-2.80652.74855099-3.2107357 2.15137588-.4042158 1.40282488.2600969 2.89296262 1.5736867 3.52997909l-.61 5.5c-.06.47.13.18-4.05 4.36-.3187627-.2233385-.6529307-.4238393-1-.6-.0203517-1.5596696-.7674044-3.0204906-2.02-3.95 0-3 .22-4.81-1.08-7.25.0056777-.02636446.0056777-.05363554 0-.08 1.847879-.82477019 3.0494574-2.6466439 3.08-4.67 0-.55228475-.4477153-1-1-1s-1 .44771525-1 1c-.0003049.97445957-.4738864 1.88806167-1.27 2.45-.5836532-1.76242825-2.0957835-3.05636173-3.92725-3.3605572-1.8314664-.30419546-3.6806952.43143669-4.80275 1.9105572-1.1175172-1.48020354-2.9625639-2.22021393-4.7931876-1.92244924-1.8306238.29776469-3.3460251 1.58437715-3.9368124 3.34244924-.7875244-.55579835-1.260023-1.45614992-1.27-2.42 0-.55228475-.4477153-1-1-1s-1 .44771525-1 1c.0248895 2.02466075 1.2227782 3.85075812 3.07 4.68-.0056777.02636446-.0056777.05363554 0 .08-1.29 2.44-1.07 4.16-1.07 7.24-1.2590292.9442719-2 2.4262135-2 4-.3470693.1761607-.6812373.3766615-1 .6-4-4-4-3.88-4.05-4.36l-.61-5.5c1.3135898-.63701647 1.9779025-2.12715421 1.5736867-3.52997909-.4042157-1.40282489-1.7595888-2.31100205-3.2107357-2.15137588-1.451147.15962616-2.57670186 1.34070539-2.66632073 2.79785208-.08961887 1.4571467.88272064 2.76725269 2.30336973 3.10350289l.61 5.5c.0729436.6805353.3763964 1.315669.86 1.8l3.65 3.65c-1.5630138 1.6443346-2.4424202 3.8214015-2.46 6.09v1.78c-3.38-.67-3.42-.62-3.72-.92l-3.58-3.57c.63133198-1.3183337.22063006-2.8997763-.97240315-3.7443209s-2.82107873-.7063251-3.85466081.3272569c-1.03358207 1.0335821-1.17180156 2.6616276-.32725696 3.8546609.8445446 1.1930332 2.42598722 1.6037351 3.74432092.9724031l3.57 3.58c.41980965.4157586.95134079.7006315 1.53.82l3.61.72v7.56l-4.46 2.23c-.30940108.1786328-.69059892.1786328-1 0l-1.63-1c.30396512-1.4284611-.46489653-2.8682614-1.82106675-3.4102006-1.35617021-.5419393-2.90555295-.0285327-3.66974915 1.2160154-.76419619 1.2445481-.5211344 2.8585785.57569754 3.8228686 1.09683194.9642902 2.72870034.9986224 3.86511836.0813166 1.53.91 2.12 1.41 3.19 1.41s1.47-.38 4.92-2.1v7l-3.97 4.85c-.22819295.2696324-.58170777.3988744-.93.34l-2.07-.34c-.25607792-1.4355715-1.50736041-2.4790802-2.96558069-2.4731498-1.45822028.0059303-2.70097395 1.0595818-2.94536712 2.4971887s.58036782 2.8427358 1.95471071 3.3302019 2.90016013-.0839356 3.6162371-1.3542408c.8541177.1851833 1.7192232.3154502 2.59.39.8887981-.0015194 1.7311697-.3970678 2.3-1.08l2.5-3v7.21c0 .5522847.4477153 1 1 1 2.3938128.0004479 4.7600478-.5109862 6.94-1.5 2.1472088 2.8386425 5.5007308 4.5068256 9.06 4.5068256s6.9127912-1.6681831 9.06-4.5068256c2.1645972.9820721 4.5130476 1.4933458 6.89 1.5.5522847 0 1-.4477153 1-1v-7.24l2.5 3c.5688303.6829322 1.4112019 1.0784806 2.3 1.08.8713206-.0698865 1.7367359-.2002 2.59-.39.716077 1.2703052 2.2418942 1.8417069 3.6162371 1.3542408s2.1991039-1.892595 1.9547107-3.3302019-1.4871468-2.4912584-2.9453671-2.4971887c-1.4582203-.0059304-2.7095028 1.0375783-2.9655807 2.4731498l-2.05.37c-.3450052.0551673-.6937867-.0737302-.92-.34l-4-4.84v-7c3.67 1.83 4 2.1 4.92 2.1s1.6-.46 3.19-1.41c1.1140967.9482671 2.7497267.954617 3.8711525.0150287s1.4015589-2.5510631.6630093-3.813983c-.7385496-1.2629198-2.2803676-1.8089262-3.6491216-1.292269-1.3687539.5166572-2.1652166 1.9452835-1.8850402 3.3812233l-1.64 1c-.3094011.1786328-.6905989.1786328-1 0l-4.55-2.24v-7.56c3.64-.73 4.28-.69 5.14-1.54zm4.86-7.28c.4526117-.0018977.8500661.300449.969032.7371503s-.0702222.8988609-.4612587 1.1267893c-.3910366.2279283-.8864122.1647891-1.2077733-.1539396-.2871614-.2848091-.3744903-.714552-.2212679-1.0888524s.5168238-.6194518.9212679-.6211476zm-8-16c.5522847 0 1 .44771525 1 1s-.4477153 1-1 1-1-.44771525-1-1 .4477153-1 1-1zm-38 0c.5522847 0 1 .44771525 1 1s-.4477153 1-1 1-1-.44771525-1-1 .4477153-1 1-1zm-9 17c-.00189773-.4526117.30044902-.8500661.73715032-.969032s.89886086.0702222 1.12678923.4612587c.22792838.3910366.16478912.8864122-.15393955 1.2077733-.28480911.2871614-.71455196.3744903-1.08885236.2212679s-.61945187-.5168238-.62114764-.9212679zm1 17c-.55228475 0-1-.4477153-1-1s.44771525-1 1-1 1 .4477153 1 1-.44771525 1-1 1zm0 14c-.55228475 0-1-.4477153-1-1s.44771525-1 1-1 1 .4477153 1 1-.44771525 1-1 1zm54-2c.5522847 0 1 .4477153 1 1s-.4477153 1-1 1-1-.4477153-1-1 .4477153-1 1-1zm0-14c.5522847 0 1 .4477153 1 1s-.4477153 1-1 1-1-.4477153-1-1 .4477153-1 1-1zm-12 19c-7.8913826-.5272455-14.0175938-7.0910432-14-15l-.0000378-22h7.0000378c3.8659932 0 7 3.1340068 7 7zm-11-53c1.6568542 0 3 1.34314575 3 3s-1.3431458 3-3 3-3-1.34314575-3-3 1.3431458-3 3-3zm-8 0c1.6568542 0 3 1.34314575 3 3s-1.3431458 3-3 3-3-1.34314575-3-3 1.3431458-3 3-3zm4 6c.9064154 1.20707658 2.3096429 1.94004697 3.8181745 1.99440847 1.5085316.05436153 2.9608775-.57570534 3.9518255-1.71440847.2572761 1.25938257.3347133 2.5488792.23 3.83-.3293328-.0667559-.664031-.1035727-1-.11-15.36 0-14.23-.05-15 .11-.0935184-1.2911819-.0161837-2.58905944.23-3.86.9865487 1.14214026 2.4362079 1.777555 3.9446532 1.7290207 1.5084453-.04853427 2.9142594-.77582393 3.8253468-1.9790207zm-7 6h14c1.3482454.0006141 2.530468.900576 2.89 2.2-1.34-.28-.77-.2-17.89-.2-.6352931-.000226-1.2688246.0668144-1.89.2.359532-1.299424 1.5417546-2.1993859 2.89-2.2zm-1 4h7.0000378l-.0000378 22c.0175938 7.9089568-6.1086174 14.4727545-14 15v-30c0-3.8659932 3.1340068-7 7-7zm.74 36.56c3.3689295-2.0327606 5.9332424-5.1657435 7.26-8.87 1.3267576 3.7042565 3.8910705 6.8372394 7.26 8.87-1.7815293 2.1776346-4.4464721 3.4405724-7.26 3.4405724s-5.4784707-1.2629378-7.26-3.4405724z"/></g></g></svg>