<?xml version="1.0" encoding="iso-8859-1"?>
<!-- Generator: Adobe Illustrator 19.0.0, SVG Export Plug-In . SVG Version: 6.00 Build 0)  -->
<svg xmlns="http://www.w3.org/2000/svg" xmlns:xlink="http://www.w3.org/1999/xlink" version="1.1" id="Layer_1" x="0px" y="0px" viewBox="0 0 454.91 454.91" style="enable-background:new 0 0 454.91 454.91;" xml:space="preserve" width="512" height="512">
<g>
	<polygon style="fill:#C3C6C8;" points="321.228,101.727 310.678,197.727 331.799,197.727 342.35,101.727  "/>
	<g>
		<polygon style="fill:#C3C6C8;" points="148.305,120.281 158.855,197.727 137.732,197.727 127.182,120.281   "/>
	</g>
	<path style="fill:#454F58;" d="M83.178,371.738c-41.729,0-75.678-33.949-75.678-75.678s33.949-75.678,75.678-75.678   c41.729,0,75.678,33.949,75.678,75.678S124.906,371.738,83.178,371.738z M83.178,245.383c-27.943,0-50.678,22.734-50.678,50.678   c0,27.943,22.734,50.678,50.678,50.678c27.943,0,50.678-22.734,50.678-50.678C133.855,268.117,111.121,245.383,83.178,245.383z"/>
	<path style="fill:#454F58;" d="M371.732,371.738c-41.728,0-75.678-33.949-75.678-75.678s33.949-75.678,75.678-75.678   c41.729,0,75.678,33.949,75.678,75.678S413.461,371.738,371.732,371.738z M371.732,245.383c-27.943,0-50.678,22.734-50.678,50.678   c0,27.943,22.734,50.678,50.678,50.678c27.943,0,50.678-22.734,50.678-50.678C422.41,268.117,399.676,245.383,371.732,245.383z"/>
	<path style="fill:#8BDC65;" d="M385.596,290.332l-42.555-103c-0.976-2.363-2.49-4.342-4.34-5.859   c-2.797-3.359-6.984-5.412-11.523-5.412H141.203c-5.377,0-10.342,2.877-13.016,7.543L66.52,291.258   c-2.66,4.643-2.645,10.35,0.037,14.977c2.684,4.629,7.629,7.478,12.979,7.478h123.338c3.66,0,7.133-1.336,9.818-3.662l0.002,0.002   l109.434-94.775l35.742,86.51c2.391,5.785,7.978,9.277,13.869,9.277c1.908,0,3.85-0.367,5.723-1.141   C385.117,306.76,388.76,297.988,385.596,290.332z M105.414,283.713l35.789-62.476l35.789,62.476H105.414z M206.83,275.443   l-39.746-69.383h119.861L206.83,275.443z"/>
	<path style="fill:#454F58;" d="M189.178,115.605c0-10.633-8.748-17.604-19.252-19.252c-20.23-3.176-40.248-9.746-60.748-9.746   c-14.359,0-26,11.641-26,26c0,14.359,11.641,26,26,26c12,0,58.666,0.502,69.129-5.664l-0.006-0.023   C184.732,129.803,189.178,123.232,189.178,115.605z"/>
	<path style="fill:#454F58;" d="M300.055,120.281c-10.248,0-18.555-8.307-18.555-18.555c0-10.248,8.307-18.555,18.555-18.555h32.674   c10.248,0,18.555,8.307,18.555,18.555c0,10.248-8.307,18.555-18.555,18.555H300.055z"/>
	<circle style="fill:#C3C6C8;" cx="202.455" cy="296.061" r="31.214"/>
	<path d="M371.732,212.883c-3.268,0-6.535,0.215-9.773,0.596l-11.986-29.011c-1.319-3.193-3.376-6.06-5.97-8.331   c-0.646-0.73-1.339-1.404-2.063-2.037l5.6-50.956c6.786-4.708,11.242-12.55,11.242-21.417c0-14.366-11.689-26.055-26.055-26.055   h-32.674C285.689,75.672,274,87.36,274,101.727s11.689,26.055,26.055,26.055h10.766l-4.482,40.779H162.452l-3.263-23.95   c14.165-1.334,19.778-3.351,22.925-5.205c0.024-0.015,0.05-0.029,0.074-0.045c8.956-4.618,14.489-13.657,14.489-23.755   c0-13.545-10.283-24.259-25.589-26.661c-6.674-1.048-13.543-2.523-20.185-3.95c-13.473-2.895-27.403-5.887-41.726-5.887   c-18.472,0-33.5,15.028-33.5,33.5c0,18.472,15.028,33.5,33.5,33.5l6.885,0.01c0.003,0-0.001,0,0.002,0   c2.454,0,4.791-0.012,7.063-0.029l3.765,27.634c-2.064,1.7-3.846,3.769-5.213,6.154l-20.086,35.064   c-6.021-1.366-12.191-2.058-18.416-2.058C37.313,212.883,0,250.196,0,296.061c0,45.864,37.313,83.178,83.178,83.178   c18.773,0,37.192-6.459,51.862-18.189c12.87-10.289,22.446-24.275,27.41-39.837h10.611c7.107,8.292,17.643,13.562,29.394,13.562   c13.795,0,25.921-7.259,32.779-18.152h9.888c4.143,0,7.5-3.357,7.5-7.5s-3.357-7.5-7.5-7.5h-4.358   c0.263-1.817,0.405-3.673,0.405-5.561c0-0.246-0.014-0.488-0.019-0.733l78.019-67.567l1.205,2.917   c-20.022,15.746-31.82,39.784-31.82,65.383c0,45.864,37.314,83.178,83.178,83.178c45.864,0,83.178-37.314,83.178-83.178   C454.91,250.196,417.597,212.883,371.732,212.883z M300.055,112.781c-6.096,0-11.055-4.959-11.055-11.055   s4.959-11.055,11.055-11.055h32.674c6.096,0,11.055,4.959,11.055,11.055s-4.959,11.055-11.055,11.055H300.055z M331.941,127.781   l-4.483,40.787c-0.094-0.002-0.186-0.008-0.28-0.008h-5.75l4.482-40.779H331.941z M116.063,131.117l-6.885-0.01   c-10.201,0-18.5-8.299-18.5-18.5c0-10.201,8.299-18.5,18.5-18.5c12.73,0,25.284,2.697,38.576,5.552   c6.844,1.471,13.921,2.991,21.009,4.104c5.958,0.936,12.915,4.598,12.915,11.843c0,4.529-2.548,8.578-6.648,10.565   c-0.295,0.143-0.576,0.304-0.845,0.479C171.665,127.895,160.787,131.117,116.063,131.117z M147.313,168.561h-5.984l-3.099-22.751   c2.082-0.064,4.066-0.137,5.954-0.218L147.313,168.561z M83.178,364.238C45.584,364.238,15,333.654,15,296.061   c0-37.594,30.584-68.178,68.178-68.178c3.543,0,7.062,0.279,10.532,0.819l-5.39,9.409c-1.709-0.15-3.426-0.229-5.142-0.229   C51.099,237.883,25,263.982,25,296.061s26.099,58.178,58.178,58.178c22.387,0,42.833-13.076,52.443-33.025h10.933   C136.393,346.959,111.556,364.238,83.178,364.238z M60.068,309.996c4.011,6.919,11.471,11.217,19.467,11.217h38.708   c-8.002,11.09-21.021,18.025-35.065,18.025C59.369,339.238,40,319.869,40,296.061c0-22.662,17.553-41.288,39.774-43.031   l-19.763,34.5C56.036,294.468,56.058,303.076,60.068,309.996z M225.504,301.622h-20.382c-4.143,0-7.5,3.357-7.5,7.5   s3.357,7.5,7.5,7.5h9.124c-3.476,2.001-7.5,3.152-11.791,3.152c-13.076,0-23.714-10.638-23.714-23.714   c0-13.076,10.638-23.714,23.714-23.714c13.076,0,23.714,10.638,23.714,23.714C226.169,297.977,225.935,299.837,225.504,301.622z    M180.024,213.561h86.805l-52.657,45.604c-2.871-0.914-5.888-1.494-9.004-1.712L180.024,213.561z M317.217,209.608l-80.053,69.329   c-2.254-4.55-5.377-8.594-9.15-11.918l63.842-55.29c2.367-2.05,3.211-5.355,2.117-8.289c-1.094-2.935-3.895-4.88-7.027-4.88   H167.084c-2.675,0-5.148,1.425-6.489,3.739c-1.341,2.314-1.349,5.168-0.018,7.489l28.59,49.908   c-4.783,1.753-9.127,4.428-12.816,7.804l-28.639-49.992c-1.336-2.333-3.819-3.772-6.508-3.772c-2.688,0-5.172,1.439-6.508,3.772   l-35.789,62.477c-1.33,2.32-1.322,5.174,0.018,7.488c1.342,2.314,3.815,3.739,6.489,3.739h58.642   c-0.2,1.59-0.314,3.205-0.314,4.848c0,3.513,0.48,6.914,1.36,10.152H79.535c-2.666,0-5.152-1.434-6.489-3.739   c-1.337-2.306-1.344-5.175-0.019-7.488l61.667-107.653c1.334-2.326,3.827-3.772,6.509-3.772h185.975   c2.225,0,4.325,0.988,5.76,2.711c0.303,0.364,0.64,0.698,1.007,0.999c0.96,0.788,1.688,1.773,2.165,2.926l42.555,103   c0.766,1.852,0.764,3.89-0.005,5.74c-0.769,1.851-2.211,3.291-4.061,4.055c-0.921,0.381-1.883,0.573-2.86,0.573   c-3.049,0-5.773-1.822-6.938-4.642l-35.742-86.51c-0.921-2.228-2.856-3.878-5.202-4.434   C321.508,207.424,319.04,208.029,317.217,209.608z M164.053,276.213h-0.109c-0.025-0.107-0.049-0.216-0.075-0.322L164.053,276.213z    M148.404,276.213h-10.537c-2.25-6.182-5.547-11.949-9.744-17.054l5.256-9.176C140.299,257.516,145.436,266.483,148.404,276.213z    M141.124,236.463l0.079-0.138l0.27,0.47C141.358,236.683,141.239,236.574,141.124,236.463z M121.489,276.213h-3.136l1.574-2.748   C120.482,274.362,121.002,275.278,121.489,276.213z M392.527,287.468l-14.071-34.059c20.626,3.239,36.454,21.13,36.454,42.651   c0,23.809-19.369,43.178-43.178,43.178c-23.809,0-43.178-19.369-43.178-43.178c0-9.262,2.965-18.117,8.324-25.437l14.059,34.027   c3.493,8.452,11.657,13.913,20.801,13.913c2.951,0,5.84-0.575,8.587-1.709c5.555-2.296,9.883-6.616,12.188-12.167   C394.817,299.138,394.822,293.022,392.527,287.468z M371.732,364.238c-37.594,0-68.178-30.584-68.178-68.178   c0-19.543,8.399-37.98,22.823-50.853l4.088,9.895c-10.804,10.868-16.911,25.495-16.911,40.958   c0,32.079,26.099,58.178,58.178,58.178s58.178-26.099,58.178-58.178c0-31.975-25.931-58-57.865-58.17l-4.088-9.895   c1.257-0.068,2.516-0.113,3.775-0.113c37.594,0,68.178,30.584,68.178,68.178C439.91,333.654,409.326,364.238,371.732,364.238z"/>
</g>















</svg>
