<?xml version="1.0" encoding="iso-8859-1"?>
<!-- Generator: Adobe Illustrator 19.0.0, SVG Export Plug-In . SVG Version: 6.00 Build 0)  -->
<svg xmlns="http://www.w3.org/2000/svg" xmlns:xlink="http://www.w3.org/1999/xlink" version="1.1" id="Layer_1" x="0px" y="0px" viewBox="0 0 512 512" style="enable-background:new 0 0 512 512;" xml:space="preserve">
<path style="fill:#558B30;" d="M503.467,298.667v51.2c-0.102,23.68-5.581,47.027-16.043,68.267  c-25.899,52.284-79.215,85.35-137.557,85.333H162.133c-58.359,0.068-111.693-33.015-137.557-85.333  c-10.462-21.239-15.94-44.587-16.043-68.267c0.026-9.412,7.654-17.041,17.067-17.067h263.936c5.7,0.017,11.025-2.833,14.165-7.595  l24.064-36.011c3.14-4.762,8.465-7.612,14.165-7.595H486.4C495.812,281.626,503.441,289.254,503.467,298.667z"/>
<path style="fill:#8BC34A;" d="M469.333,298.667v51.2c-0.102,23.68-5.581,47.027-16.043,68.267  c-25.899,52.284-79.215,85.35-137.557,85.333h-153.6c-58.359,0.068-111.693-33.015-137.557-85.333  c-10.462-21.239-15.94-44.587-16.043-68.267c0.026-9.412,7.654-17.041,17.067-17.067h229.803c5.7,0.017,11.025-2.833,14.165-7.595  l24.064-36.011c3.14-4.762,8.465-7.612,14.165-7.595h144.469C461.679,281.626,469.308,289.254,469.333,298.667z"/>
<path style="fill:#E91E63;" d="M352.341,281.6h-10.411c-5.7-0.017-11.025,2.833-14.165,7.595l-24.064,36.011  c-3.14,4.762-8.465,7.612-14.165,7.595H110.933V170.667c0.026-9.412,7.654-17.041,17.067-17.067h110.507  c29.116-0.051,56.858,12.373,76.203,34.133c10.411,11.477,18.031,25.199,22.272,40.107l12.885,45.141L352.341,281.6z"/>
<path style="fill:#AD1457;" d="M386.475,281.6h-34.133l-2.475-8.619l-12.885-45.141c-4.241-14.908-11.861-28.629-22.272-40.107  c-19.345-21.76-47.087-34.185-76.203-34.133h34.133c29.116-0.051,56.858,12.373,76.203,34.133  c10.411,11.477,18.031,25.199,22.272,40.107L384,272.981L386.475,281.6z"/>
<path d="M161.946,512c-61.986,0-117.538-34.5-145.015-90.086C5.956,399.633,0.102,374.733,0,349.901  c0.043-14.123,11.52-25.6,25.583-25.634h263.953c0.009,0,0.017,0,0.026,0c2.859,0,5.47-1.399,7.014-3.746l24.098-36.07  c4.685-7.117,12.621-11.383,21.205-11.383c0.026,0,0.051,0,0.077,0H486.4c14.089,0.034,25.566,11.511,25.6,25.574  c0,0.009,0,0.017,0,0.026v51.2c-0.111,24.866-5.956,49.766-16.913,72.03C467.55,477.483,411.921,512,349.909,512  c-0.017,0-0.026,0-0.043,0H162.133C162.074,512,162.005,512,161.946,512z M25.6,341.333c-4.676,0.009-8.525,3.849-8.533,8.559  c0.094,22.204,5.333,44.518,15.164,64.478c24.567,49.698,74.266,80.563,129.724,80.563c0.06,0,0.111,0,0.171,0h187.742  c0.017,0,0.034,0,0.043,0c55.484,0,105.242-30.874,129.869-80.589c9.813-19.934,15.07-42.249,15.155-64.512v-51.14  c-0.009-4.71-3.849-8.55-8.559-8.559H341.931c-2.765,0.23-5.487,1.391-7.04,3.746l-24.098,36.07  c-4.702,7.142-12.595,11.247-21.282,11.383H25.6z"/>
<path id="SVGCleanerId_0" d="M375.424,460.8c-6.571,0-13.244-1.092-19.772-3.388c-17.126-6.033-30.404-19.311-36.446-36.437  c-4.617-12.817-4.617-26.999,0.026-39.868c5.274-14.976,16.102-27.042,30.473-33.92c14.37-6.903,30.566-7.757,45.585-2.466  c17.126,6.033,30.404,19.311,36.446,36.437c2.304,6.366,3.482,13.09,3.465,19.908c0.017,6.818-1.161,13.542-3.49,19.977  C423.1,445.466,400.017,460.8,375.424,460.8z M375.433,358.383c-6.281,0-12.535,1.408-18.364,4.198  c-10.257,4.907-17.988,13.525-21.768,24.252c-3.319,9.199-3.319,19.268-0.026,28.407c4.335,12.279,13.815,21.769,26.044,26.069  c10.735,3.772,22.281,3.149,32.546-1.758c10.257-4.907,17.988-13.525,21.769-24.252c1.681-4.634,2.517-9.395,2.5-14.208  c0-0.017,0-0.034,0-0.051c0.017-4.813-0.819-9.574-2.475-14.131c-4.335-12.297-13.815-21.786-26.044-26.086  C384.981,359.194,380.203,358.383,375.433,358.383z"/>
<path id="SVGCleanerId_1" d="M359.492,415.454c-3.413,0-6.639-2.065-7.962-5.444c-1.109-2.859-1.664-5.871-1.664-8.943  c-0.026-2.773,0.461-5.589,1.434-8.294c3.379-10.249,13.124-17.289,24.158-17.306h0.009c4.71,0,8.525,3.814,8.533,8.525  c0.009,4.71-3.806,8.533-8.525,8.542c-3.669,0-6.903,2.338-8.047,5.828c-0.358,1.007-0.503,1.818-0.495,2.637  c0,1.033,0.179,1.954,0.521,2.833c1.698,4.395-0.478,9.344-4.864,11.051C361.566,415.266,360.525,415.454,359.492,415.454z"/>
<path style="fill:#1566C0;" d="M426.667,401.067c0.017,5.82-0.998,11.597-2.987,17.067c-7.185,20.471-26.522,34.159-48.213,34.133  c-4.318-0.017-8.619-0.555-12.8-1.621c-16.495-4.241-29.781-16.444-35.413-32.512c-3.985-11.034-3.985-23.1,0-34.133  c5.632-16.068,18.918-28.271,35.413-32.512c4.181-1.067,8.482-1.604,12.8-1.621c21.692-0.026,41.028,13.662,48.213,34.133  C425.668,389.47,426.684,395.247,426.667,401.067z"/>
<path style="fill:#2296F3;" d="M401.067,401.067c0.017,5.82-0.998,11.597-2.987,17.067c-5.632,16.068-18.918,28.271-35.413,32.512  c-16.495-4.241-29.781-16.444-35.413-32.512c-3.985-11.034-3.985-23.1,0-34.133c5.632-16.068,18.918-28.271,35.413-32.512  c16.495,4.241,29.781,16.444,35.413,32.512C400.068,389.47,401.084,395.247,401.067,401.067z"/>
<g>
	<path id="SVGCleanerId_0_1_" d="M375.424,460.8c-6.571,0-13.244-1.092-19.772-3.388c-17.126-6.033-30.404-19.311-36.446-36.437   c-4.617-12.817-4.617-26.999,0.026-39.868c5.274-14.976,16.102-27.042,30.473-33.92c14.37-6.903,30.566-7.757,45.585-2.466   c17.126,6.033,30.404,19.311,36.446,36.437c2.304,6.366,3.482,13.09,3.465,19.908c0.017,6.818-1.161,13.542-3.49,19.977   C423.1,445.466,400.017,460.8,375.424,460.8z M375.433,358.383c-6.281,0-12.535,1.408-18.364,4.198   c-10.257,4.907-17.988,13.525-21.768,24.252c-3.319,9.199-3.319,19.268-0.026,28.407c4.335,12.279,13.815,21.769,26.044,26.069   c10.735,3.772,22.281,3.149,32.546-1.758c10.257-4.907,17.988-13.525,21.769-24.252c1.681-4.634,2.517-9.395,2.5-14.208   c0-0.017,0-0.034,0-0.051c0.017-4.813-0.819-9.574-2.475-14.131c-4.335-12.297-13.815-21.786-26.044-26.086   C384.981,359.194,380.203,358.383,375.433,358.383z"/>
</g>
<g>
	<path id="SVGCleanerId_1_1_" d="M359.492,415.454c-3.413,0-6.639-2.065-7.962-5.444c-1.109-2.859-1.664-5.871-1.664-8.943   c-0.026-2.773,0.461-5.589,1.434-8.294c3.379-10.249,13.124-17.289,24.158-17.306h0.009c4.71,0,8.525,3.814,8.533,8.525   c0.009,4.71-3.806,8.533-8.525,8.542c-3.669,0-6.903,2.338-8.047,5.828c-0.358,1.007-0.503,1.818-0.495,2.637   c0,1.033,0.179,1.954,0.521,2.833c1.698,4.395-0.478,9.344-4.864,11.051C361.566,415.266,360.525,415.454,359.492,415.454z"/>
</g>
<path style="fill:#E91E63;" d="M327.253,384c-3.985,11.034-3.985,23.1,0,34.133H24.576C19.14,407.305,15.07,395.836,12.459,384  H327.253z"/>
<path style="fill:#AD1457;" d="M499.541,384c-2.611,11.836-6.682,23.305-12.117,34.133H423.68c3.985-11.034,3.985-23.1,0-34.133  H499.541z"/>
<path style="fill:#E91E63;" d="M460.8,384c-2.611,11.836-6.682,23.305-12.117,34.133H423.68c3.985-11.034,3.985-23.1,0-34.133H460.8  z"/>
<path d="M327.253,426.667H24.576c-3.226,0-6.178-1.826-7.629-4.71c-5.751-11.46-10.069-23.612-12.826-36.122  c-0.555-2.526,0.06-5.163,1.681-7.177c1.621-2.014,4.07-3.192,6.656-3.192h314.795c2.782,0,5.385,1.348,6.98,3.627  s1.98,5.18,1.041,7.799c-3.294,9.139-3.294,19.209,0,28.348c0.939,2.62,0.555,5.521-1.041,7.799  C332.638,425.318,330.035,426.667,327.253,426.667z M29.952,409.6h286.413c-0.828-5.658-0.828-11.409,0-17.067H23.501  C25.276,398.362,27.426,404.062,29.952,409.6z"/>
<path d="M487.424,426.667H423.68c-2.782,0-5.385-1.348-6.98-3.627s-1.98-5.18-1.041-7.799c3.294-9.139,3.294-19.209,0-28.348  c-0.939-2.62-0.555-5.521,1.041-7.799s4.198-3.627,6.98-3.627h75.861c2.586,0,5.035,1.178,6.647,3.191  c1.621,2.005,2.244,4.651,1.681,7.177c-2.756,12.501-7.066,24.653-12.826,36.122C493.611,424.841,490.65,426.667,487.424,426.667z   M434.569,409.6h47.479c2.526-5.538,4.676-11.247,6.443-17.067h-53.922C435.388,398.191,435.388,403.942,434.569,409.6z"/>
<path d="M289.587,341.333c-0.026,0-0.051,0-0.077,0H110.933c-4.71,0-8.533-3.814-8.533-8.533V170.667  c0.043-14.08,11.52-25.557,25.574-25.6H272.64c0.06,0,0.128,0,0.188,0c31.454,0,61.466,13.474,82.381,36.992  c11.179,12.305,19.524,27.349,24.107,43.443l15.351,53.734c0.742,2.577,0.222,5.35-1.382,7.492c-1.613,2.15-4.13,3.405-6.81,3.405  h-44.544c-2.765,0.23-5.487,1.391-7.04,3.746l-24.098,36.07C306.099,337.067,298.155,341.333,289.587,341.333z M119.467,324.267  h170.069c0.009,0,0.017,0,0.026,0c2.85,0,5.47-1.408,7.014-3.755l24.098-36.062c4.685-7.117,12.621-11.383,21.205-11.383  c0.026,0,0.051,0,0.077,0h33.195l-12.245-42.88c-3.866-13.585-10.906-26.283-20.386-36.71c-17.732-19.951-43.11-31.343-69.7-31.343  c-0.06,0-0.111,0-0.162,0H128c-4.676,0.009-8.525,3.857-8.533,8.559V324.267z"/>
<path style="fill:#1566C0;" d="M153.6,187.733h51.2c4.71,0,8.533,3.823,8.533,8.533v76.8c0,4.71-3.823,8.533-8.533,8.533h-51.2  c-4.71,0-8.533-3.823-8.533-8.533v-76.8C145.067,191.556,148.89,187.733,153.6,187.733z"/>
<path style="fill:#2296F3;" d="M153.6,187.733h25.6c4.71,0,8.533,3.823,8.533,8.533v76.8c0,4.71-3.823,8.533-8.533,8.533h-25.6  c-4.71,0-8.533-3.823-8.533-8.533v-76.8C145.067,191.556,148.89,187.733,153.6,187.733z"/>
<path d="M204.8,290.133h-51.2c-9.412,0-17.067-7.654-17.067-17.067v-76.8c0-9.412,7.654-17.067,17.067-17.067h51.2  c9.412,0,17.067,7.654,17.067,17.067v76.8C221.867,282.479,214.212,290.133,204.8,290.133z M153.6,196.267h-0.009l0.009,76.8h51.2  v-76.8H153.6z"/>
<path style="fill:#1566C0;" d="M384,272.981v8.619H256c-4.71-0.017-8.516-3.823-8.533-8.533v-76.8  c0.017-4.71,3.823-8.516,8.533-8.533h92.843c10.411,11.477,18.031,25.199,22.272,40.107L384,272.981z"/>
<path style="fill:#2296F3;" d="M349.867,272.981v8.619H256c-4.71-0.017-8.516-3.823-8.533-8.533v-76.8  c0.017-4.71,3.823-8.516,8.533-8.533h58.709c10.411,11.477,18.031,25.199,22.272,40.107L349.867,272.981z"/>
<path d="M384,290.133H256c-9.412,0-17.067-7.654-17.067-17.067v-76.8c0-9.412,7.654-17.067,17.067-17.067h92.843  c2.406,0,4.702,1.015,6.315,2.799c11.23,12.373,19.584,27.418,24.166,43.511l12.885,45.133c0.213,0.759,0.324,1.545,0.324,2.338  v8.619C392.533,286.319,388.719,290.133,384,290.133z M256,196.267v76.8h119.151l-12.245-42.88  c-3.524-12.399-9.702-24.047-17.954-33.92H256z"/>
<path d="M281.6,238.933c-2.185,0-4.369-0.836-6.033-2.5c-3.337-3.337-3.337-8.73,0-12.066l8.533-8.533  c3.337-3.337,8.73-3.337,12.066,0c3.337,3.337,3.337,8.73,0,12.066l-8.533,8.533C285.969,238.097,283.785,238.933,281.6,238.933z"/>
<path d="M307.2,256c-2.185,0-4.369-0.836-6.033-2.5c-3.337-3.337-3.337-8.73,0-12.066l25.6-25.6c3.337-3.337,8.73-3.337,12.066,0  c3.337,3.337,3.337,8.73,0,12.066l-25.6,25.6C311.569,255.164,309.385,256,307.2,256z"/>
<path style="fill:#558B30;" d="M170.667,119.467h51.2c9.429,0,17.067,7.637,17.067,17.067V153.6l0,0H153.6l0,0v-17.067  C153.6,127.104,161.237,119.467,170.667,119.467z"/>
<path style="fill:#8BC34A;" d="M170.667,119.467h17.067c9.429,0,17.067,7.637,17.067,17.067V153.6l0,0h-51.2l0,0v-17.067  C153.6,127.104,161.237,119.467,170.667,119.467z"/>
<path d="M238.933,162.133H153.6c-4.71,0-8.533-3.823-8.533-8.533v-17.067c0-14.114,11.486-25.6,25.6-25.6h51.2  c14.114,0,25.6,11.486,25.6,25.6V153.6C247.467,158.31,243.644,162.133,238.933,162.133z M162.133,145.067H230.4v-8.533  c0-4.702-3.831-8.533-8.533-8.533h-51.2c-4.702,0-8.533,3.831-8.533,8.533V145.067z"/>
<path d="M196.267,128c-4.71,0-8.533-3.823-8.533-8.533V8.533c0-4.71,3.823-8.533,8.533-8.533s8.533,3.823,8.533,8.533v110.933  C204.8,124.177,200.977,128,196.267,128z"/>
<path style="fill:#AD1457;" d="M196.267,25.6v42.667l-17.067-7.68l-16.128-7.339c-5.7-2.586-12.211-2.705-18.005-0.341  c-0.324,0.077-0.64,0.188-0.939,0.341l-33.195,15.019V25.6l33.195-15.019c0.299-0.154,0.614-0.265,0.939-0.341  c5.794-2.364,12.305-2.244,18.005,0.341L196.267,25.6z"/>
<path style="fill:#E91E63;" d="M179.2,25.6v42.667l-33.195-15.019c-0.299-0.154-0.614-0.265-0.939-0.341  c-5.794-2.364-12.305-2.244-18.005,0.341l-16.128,7.339V25.6l33.195-15.019c0.299-0.154,0.614-0.265,0.939-0.341  c0.324,0.077,0.64,0.188,0.939,0.341L179.2,25.6z"/>
<path d="M196.267,76.8c-1.178,0-2.372-0.247-3.516-0.759L159.59,61.047c-3.814-1.741-8.158-1.741-11.947-0.017l-33.195,15.01  c-2.628,1.195-5.7,0.964-8.141-0.606c-2.441-1.57-3.908-4.267-3.908-7.168V25.6c0-3.354,1.963-6.4,5.018-7.774l33.161-14.993  c8.269-3.772,17.783-3.772,26.086,0.017l33.126,14.976c4.292,1.946,6.204,6.997,4.258,11.29s-6.997,6.212-11.29,4.258  l-33.161-14.993c-3.814-1.741-8.158-1.741-11.947-0.017l-28.186,12.74V55.04l21.111-9.549c8.269-3.772,17.783-3.772,26.086,0.017  l33.126,14.976c4.292,1.946,6.204,6.997,4.258,11.29C202.615,74.94,199.509,76.8,196.267,76.8z"/>
<g>
</g>
<g>
</g>
<g>
</g>
<g>
</g>
<g>
</g>
<g>
</g>
<g>
</g>
<g>
</g>
<g>
</g>
<g>
</g>
<g>
</g>
<g>
</g>
<g>
</g>
<g>
</g>
<g>
</g>
</svg>
