<svg id="Layer_1" enable-background="new 0 0 512 512" height="512" viewBox="0 0 512 512" width="512" xmlns="http://www.w3.org/2000/svg"><g><path d="m448 16v400h-344c-22.079 0-40 17.919-40 40v-400c0-22.09 17.91-40 40-40z" fill="#f79caf"/><path d="m400 16h48v400h-48z" fill="#e3889b"/><path d="m192 88h192v112h-192z" fill="#e2e0e0"/><path d="m448 416v80h-344c-35.66 0-53.297-43.263-28.28-68.28 7.24-7.24 17.24-11.72 28.28-11.72z" fill="#e2e0e0"/><path d="m400 416h48v80h-48z" fill="#cecccc"/><path d="m128 16v400h-24c-22.079 0-40 17.919-40 40v-400c0-22.09 17.91-40 40-40z" fill="#b59f89"/><path d="m448 0h-344c-30.878 0-56 25.122-56 56v400c0 30.878 25.122 56 56 56h344c8.837 0 16-7.164 16-16 0-14.529 0-204.281 0-480 0-8.836-7.163-16-16-16zm-16 400h-288v-368h288zm-352-344c0-13.233 10.767-24 24-24h8v368c-8.864 0-19.266-.709-32 5.375zm352 424h-328c-13.233 0-24-10.767-24-24 0-13.254 10.745-24 24-24h328z"/><path d="m192 216h192c8.837 0 16-7.164 16-16v-112c0-8.836-7.163-16-16-16h-192c-8.836 0-16 7.164-16 16v112c0 8.836 7.164 16 16 16zm16-112h160v80h-160z"/><path d="m376 320h-176c-8.836 0-16 7.164-16 16s7.164 16 16 16h176c8.837 0 16-7.164 16-16s-7.163-16-16-16z"/></g></svg>