<svg height="512" viewBox="0 0 48 48" width="512" xmlns="http://www.w3.org/2000/svg"><g id="Brief_Case" data-name="Brief Case"><path d="m31 10v-3a2 2 0 0 0 -2-2h-10a2 2 0 0 0 -2 2v3a1 1 0 0 1 -2 0v-3a4 4 0 0 1 4-4h10a4 4 0 0 1 4 4v3a1 1 0 0 1 -2 0z" fill="#425b72"/><path d="m45 23.29c0 19.06.06 17.94-.13 18.58a3 3 0 0 1 -2.87 2.13h-36a3 3 0 0 1 -3-3v-17.71z" fill="#a87e6b"/><path d="m45 23.29c0 19.06.06 17.94-.13 18.58-.69.2-28 .13-27.87.13a12 12 0 0 1 -12-12v-6.71z" fill="#be927c"/><path d="m47 13c0 4.7.37 7-1.44 9.56a8 8 0 0 1 -6.56 3.44h-30a8 8 0 0 1 -8-8v-5a3 3 0 0 1 3-3h40a3 3 0 0 1 3 3z" fill="#a87e6b"/><path d="m47 13c0 4.7.37 7-1.44 9.56a7.87 7.87 0 0 1 -4.56 1.44h-30a8 8 0 0 1 -8-8c0-5.32 0-5.27.13-5.87.64-.19-2.13-.13 40.87-.13a3 3 0 0 1 3 3z" fill="#be927c"/><path d="m27 23v9l-3 2-3-2v-9z" fill="#fc6"/><path d="m27 23v9l-1.25.83-2.75-1.83v-8z" fill="#ffde76"/><rect fill="#fc6" height="4" rx="1" width="10" x="19" y="19"/><path d="m29 20v1h-7a1 1 0 0 1 -1-1v-1h7a1 1 0 0 1 1 1z" fill="#ffde76"/><path d="m28 30h-8a1 1 0 0 1 0-2h8a1 1 0 0 1 0 2z" fill="#a07765"/><path d="m48 13a4 4 0 0 0 -4-4h-11v-2a4 4 0 0 0 -4-4h-10a4 4 0 0 0 -4 4v2h-11a4 4 0 0 0 -4 4c0 4.57-.49 7.57 2 10.64v17.36a4 4 0 0 0 4 4h36a4 4 0 0 0 4-4v-17.36c2.43-3 2-5.54 2-10.64zm-31-6a2 2 0 0 1 2-2h10a2 2 0 0 1 2 2v2h-14zm25 36h-36a2 2 0 0 1 -2-2v-15.52c2.88 1.93 4.36 1.52 16 1.52v1a1 1 0 0 0 0 2c0 2-.13 2.45.45 2.83 3.25 2.17 3.14 2.17 3.55 2.17s.27 0 3.55-2.17c.57-.37.45-.73.45-2.83a1 1 0 0 0 0-2v-1c11.21 0 13 .49 16-1.52v15.52a2 2 0 0 1 -2 2zm-22-21v-2h8v2zm6 2v4h-4v-4zm-4 6h4v1.46l-2 1.34-2-1.34zm24-12a7 7 0 0 1 -7 7h-11v-1a2 2 0 0 0 2-2v-2a2 2 0 0 0 -2-2h-8a2 2 0 0 0 -2 2v2a2 2 0 0 0 2 2v1h-11a7 7 0 0 1 -7-7v-5a2 2 0 0 1 2-2h40a2 2 0 0 1 2 2z"/></g></svg>