<svg id="Layer_3" height="512" viewBox="0 0 64 64" width="512" xmlns="http://www.w3.org/2000/svg" data-name="Layer 3"><path d="m2 15v47h60v-47a3 3 0 0 0 -3-3h-54a3 3 0 0 0 -3 3z" fill="#976949"/><path d="m6 34.375a24.625 24.625 0 0 0 24.625 24.625h31.375v-44a3 3 0 0 0 -3-3h-53z" fill="#c18e5c"/><path d="m56 36h-48a6 6 0 0 1 -6-6v-15a3 3 0 0 1 3-3h54a3 3 0 0 1 3 3v15a6 6 0 0 1 -6 6z" fill="#a44b2f"/><path d="m56 36h-48a6 6 0 0 1 -6-6v-15a3 3 0 0 1 3-3h54a3 3 0 0 1 3 3v15a6 6 0 0 1 -6 6z" fill="#a44b2f"/><path d="m5 12h54a3 3 0 0 1 3 3v15a6 6 0 0 1 -6 6h-48a6 6 0 0 1 -6-6v-15a3 3 0 0 1 3-3z" fill="#c18e5c"/><path d="m59 12h-53v22.375q0 .648.034 1.289a5.981 5.981 0 0 0 1.966.336h48a6 6 0 0 0 6-6v-15a3 3 0 0 0 -3-3z" fill="#d2ad88"/><g fill="#f5b95b"><path d="m14 48h6v14h-6z"/><path d="m44 48h6v14h-6z"/><path d="m44 12h6v30h-6z"/><path d="m14 12h6v30h-6z"/><path d="m12 42h10v6h-10z"/><path d="m42 42h10v6h-10z"/></g><path d="m44 6h-24l.621-2.485a2 2 0 0 1 1.941-1.515h18.876a2 2 0 0 1 1.941 1.515z" fill="#976949"/><path d="m20 12 4-6h-4l-4 6z" fill="#f5b95b"/><path d="m44 12-4-6h4l4 6z" fill="#f5b95b"/><path d="m17.679 47h4.321v-5h-9v.321a4.679 4.679 0 0 0 4.679 4.679z" fill="#f9d18f"/><path d="m47.679 47h4.321v-5h-9v.321a4.679 4.679 0 0 0 4.679 4.679z" fill="#f9d18f"/><path d="m44 48h6v11h-6z" fill="#f9d18f"/><path d="m14 52.538a24.688 24.688 0 0 0 6 4.062v-8.6h-6z" fill="#f9d18f"/><path d="m59 11h-10.465l-3.607-5.41-.579-2.319a3 3 0 0 0 -2.911-2.271h-18.876a3 3 0 0 0 -2.911 2.272l-.579 2.318-3.607 5.41h-10.465a4 4 0 0 0 -4 4v47a1 1 0 0 0 1 1h60a1 1 0 0 0 1-1v-47a4 4 0 0 0 -4-4zm-10 2v28h-4v-28zm-2.868-2h-1.6l-2.664-4h1.6zm-3.132 2v22h-22v-22zm-21.132-2 2.667-4h14.93l2.667 4zm-.277-7.242a1 1 0 0 1 .971-.758h18.876a1 1 0 0 1 .971.757l.311 1.243h-21.44zm-1.056 3.242h1.6l-2.667 4h-1.6zm-5.535 6h4v28h-4zm-12 2a2 2 0 0 1 2-2h8v22h-5a5.006 5.006 0 0 1 -5-5zm10 46h-10v-26.111a6.973 6.973 0 0 0 5 2.111h5v4h-1a1 1 0 0 0 -1 1v6a1 1 0 0 0 1 1h1zm0-18h3v2h2v-2h3v4h-8zm6 18h-4v-12h4zm24 0h-22v-12h1a1 1 0 0 0 1-1v-6a1 1 0 0 0 -1-1h-1v-4h22v4h-1a1 1 0 0 0 -1 1v6a1 1 0 0 0 1 1h1zm0-18h3v2h2v-2h3v4h-8zm6 18h-4v-12h4zm12 0h-10v-12h1a1 1 0 0 0 1-1v-6a1 1 0 0 0 -1-1h-1v-4h5a6.973 6.973 0 0 0 5-2.111zm0-31a5.006 5.006 0 0 1 -5 5h-5v-22h8a2 2 0 0 1 2 2z"/><path d="m16 21h2v2h-2z"/><path d="m16 31h2v2h-2z"/><path d="m46 21h2v2h-2z"/><path d="m46 31h2v2h-2z"/></svg>