<svg id="Layer_3" height="512" viewBox="0 0 64 64" width="512" xmlns="http://www.w3.org/2000/svg" data-name="Layer 3"><path d="m58.118 23.245a2.03 2.03 0 0 1 .882 1.679v4.051a2.013 2.013 0 0 1 -2 2.025h-50a2.013 2.013 0 0 1 -2-2.025v-4.051a2.025 2.025 0 0 1 1.314-1.9z" fill="#e58b41"/><path d="m56 23.236-49.686-.215a2.025 2.025 0 0 0 -1.314 1.903v4.051l.025.025h48.975a2 2 0 0 0 2-2z" fill="#f3a748"/><path d="m7.542 19.369-.649.738a3.048 3.048 0 0 0 -.893 2.156 3.049 3.049 0 0 0 1.494 2.623l.453.268a6.056 6.056 0 0 0 3.088.846 6.053 6.053 0 0 0 3.175-.9l.33-.2a6.053 6.053 0 0 1 3.175-.9h.625a6.056 6.056 0 0 1 3.088.846l.519.308a6.056 6.056 0 0 0 3.088.846 6.053 6.053 0 0 0 3.175-.9l.33-.2a6.053 6.053 0 0 1 3.175-.9h.625a6.056 6.056 0 0 1 3.088.846l.519.308a6.056 6.056 0 0 0 3.088.846 6.053 6.053 0 0 0 3.175-.9l.33-.2a6.053 6.053 0 0 1 3.175-.9h.625a6.056 6.056 0 0 1 3.088.846l.519.308a6.056 6.056 0 0 0 3.088.846 6.053 6.053 0 0 0 3.175-.9l.323-.2a3.082 3.082 0 0 0 1.467-2.623 3.083 3.083 0 0 0 -.9-2.18l-.7-.67z" fill="#4d8c28"/><path d="m56 22v-2.573l-48.458-.058-.649.738a3 3 0 0 0 -.793 2.893h48.9a1 1 0 0 0 1-1z" fill="#559b2d"/><path d="m23 2h18a16 16 0 0 1 16 16 2 2 0 0 1 -2 2h-46a2 2 0 0 1 -2-2 16 16 0 0 1 16-16z" fill="#bf8958"/><path d="m54.116 16a15.949 15.949 0 0 0 -5.548-12.1 15.929 15.929 0 0 0 -7.568-1.9h-18a16 16 0 0 0 -16 16h45.116a2 2 0 0 0 2-2z" fill="#e1ac79"/><path d="m7 46v4.446a11.784 11.784 0 0 0 12 11.554h26a11.784 11.784 0 0 0 12-11.554v-4.446z" fill="#bf8958"/><path d="m54 48.446v-2.446h-47v4.446a11.315 11.315 0 0 0 3.754 8.379 12.31 12.31 0 0 0 5.246 1.175h26a11.784 11.784 0 0 0 12-11.554z" fill="#e1ac79"/><g fill="#af7a4f"><path d="m11 51h42v2h-42z"/><path d="m13 55h2v2h-2z"/><path d="m17 55h2v2h-2z"/><path d="m11.245 15h41.755v2h-41.755z"/></g><path d="m46 37h11a2 2 0 0 1 2 2v2a2 2 0 0 1 -2 2h-50a2 2 0 0 1 -2-2v-2a2 2 0 0 1 2-2h24.268" fill="#e58b41"/><path d="m56 39v-2h-49a2 2 0 0 0 -2 2v2h49a2 2 0 0 0 2-2z" fill="#f3a748"/><path d="m9 31h45v6h-45z" fill="#ad7347"/><path d="m51 34v-3h-42v4h41a1 1 0 0 0 1-1z" fill="#bf8958"/><path d="m48 11h2v2h-2z" fill="#af7a4f"/><path d="m44 11h2v2h-2z" fill="#af7a4f"/><path d="m7 43-.107.107a3.048 3.048 0 0 0 -.893 2.156 3.049 3.049 0 0 0 1.494 2.623l.453.268a6.056 6.056 0 0 0 3.088.846 6.053 6.053 0 0 0 3.175-.9l.33-.2a6.053 6.053 0 0 1 3.175-.9h.625a6.056 6.056 0 0 1 3.088.846l.519.308a6.056 6.056 0 0 0 3.088.846 6.053 6.053 0 0 0 3.175-.9l.33-.2a6.053 6.053 0 0 1 3.175-.9h.625a6.056 6.056 0 0 1 3.088.846l.519.308a6.056 6.056 0 0 0 3.088.846 6.053 6.053 0 0 0 3.175-.9l.33-.2a6.053 6.053 0 0 1 3.175-.9h.625a6.056 6.056 0 0 1 3.088.846l.519.308a6.056 6.056 0 0 0 3.088.846 6.053 6.053 0 0 0 3.175-.9l.323-.2a3.082 3.082 0 0 0 1.467-2.623 3.083 3.083 0 0 0 -.9-2.18l-.1-.097z" fill="#4d8c28"/><path d="m56 43h-49l-.107.107a3 3 0 0 0 -.793 2.893h48.9a1 1 0 0 0 1-1z" fill="#559b2d"/><path d="m27.762 33.787 9.419 8.6a2.546 2.546 0 0 0 1.693.613 2.547 2.547 0 0 0 1.694-.614l12.432-11.386h-22z" fill="#ccc"/><path d="m37.181 42.386a2.273 2.273 0 0 0 .193.141 2.289 2.289 0 0 0 .194-.141l12.432-11.386h-19l-3.238 2.787z" fill="#f2f2f2"/><path d="m15 31 6.341 5.436a2.579 2.579 0 0 0 1.659.564 2.579 2.579 0 0 0 1.659-.564l6.341-5.436z" fill="#ccc"/><path d="m27.833 31h-12.833l5.816 4.985c.062 0 .122.015.184.015a2.579 2.579 0 0 0 1.659-.564z" fill="#f2f2f2"/><path d="m57 32a3.016 3.016 0 0 0 3-3.025v-4.051a3.223 3.223 0 0 0 -1.03-2.185 4.183 4.183 0 0 0 .03-.462 4.069 4.069 0 0 0 -1.21-2.9l-.092-.088a2.965 2.965 0 0 0 .302-1.289 17.019 17.019 0 0 0 -17-17h-18a17.019 17.019 0 0 0 -17 17 2.971 2.971 0 0 0 .3 1.276l-.109.124a4.019 4.019 0 0 0 -1.191 2.863c0 .133.013.264.026.395a3.041 3.041 0 0 0 -1.026 2.266v4.051a3.016 3.016 0 0 0 3 3.025h1v4h-1a3 3 0 0 0 -3 3v2a2.992 2.992 0 0 0 1.4 2.53 4.013 4.013 0 0 0 -.4 1.733 4.062 4.062 0 0 0 1.076 2.737h-.076v2.445a12.8 12.8 0 0 0 13 12.555h26a12.8 12.8 0 0 0 13-12.555v-2.445h-.052a4.106 4.106 0 0 0 1.052-2.723 4.053 4.053 0 0 0 -.406-1.745 2.994 2.994 0 0 0 1.406-2.532v-2a3 3 0 0 0 -3-3h-2v-4zm-11 4v.055l-6.1 5.588a1.729 1.729 0 0 1 -2.043.005l-8.58-7.854 2.092-1.794h19.059l-4.368 4zm10.551 8a2.062 2.062 0 0 1 .449 1.277 2.1 2.1 0 0 1 -.991 1.775l-.322.2a5.143 5.143 0 0 1 -5.231.043l-.518-.307a7.056 7.056 0 0 0 -3.598-.988h-.625a7.062 7.062 0 0 0 -3.7 1.048l-.327.2a5.143 5.143 0 0 1 -5.231.043l-.518-.307a7.056 7.056 0 0 0 -3.599-.984h-.625a7.062 7.062 0 0 0 -3.7 1.048l-.327.2a5.143 5.143 0 0 1 -5.231.043l-.518-.307a7.056 7.056 0 0 0 -3.599-.984h-.625a7.062 7.062 0 0 0 -3.7 1.048l-.327.2a5.143 5.143 0 0 1 -5.231.043l-.457-.266a2.057 2.057 0 0 1 -1-1.762 2.029 2.029 0 0 1 .447-1.263zm-32.543-8.324a1.824 1.824 0 0 1 -2.016 0l-4.292-3.676h10.6zm3.739-.571.978.9h-2.025zm28.643-14.305a2.071 2.071 0 0 1 .61 1.477 2.1 2.1 0 0 1 -.991 1.775l-.322.2a5.141 5.141 0 0 1 -5.231.043l-.518-.307a7.056 7.056 0 0 0 -3.598-.988h-.625a7.062 7.062 0 0 0 -3.7 1.048l-.327.2a5.141 5.141 0 0 1 -5.231.043l-.518-.307a7.056 7.056 0 0 0 -3.599-.984h-.625a7.062 7.062 0 0 0 -3.7 1.048l-.327.2a5.141 5.141 0 0 1 -5.231.043l-.518-.307a7.056 7.056 0 0 0 -3.599-.984h-.625a7.062 7.062 0 0 0 -3.7 1.048l-.327.2a5.141 5.141 0 0 1 -5.231.043l-.457-.266a2.057 2.057 0 0 1 -1-1.762 2.084 2.084 0 0 1 .644-1.5l.063-.073a2.957 2.957 0 0 0 1.293.31h46a2.972 2.972 0 0 0 1.283-.3zm-33.39-17.8h18a15.017 15.017 0 0 1 15 15 1 1 0 0 1 -1 1h-46a1 1 0 0 1 -1-1 15.017 15.017 0 0 1 15-15zm-17 25.975v-4.051-.01a4 4 0 0 0 .983.832l.452.268a7.175 7.175 0 0 0 7.3-.062l.327-.2a5.072 5.072 0 0 1 2.653-.752h.625a5.055 5.055 0 0 1 2.579.707l.518.307a7.175 7.175 0 0 0 7.3-.062l.327-.2a5.072 5.072 0 0 1 2.651-.752h.625a5.055 5.055 0 0 1 2.579.707l.518.307a7.175 7.175 0 0 0 7.3-.062l.327-.2a5.072 5.072 0 0 1 2.651-.752h.625a5.055 5.055 0 0 1 2.579.707l.518.307a7.058 7.058 0 0 0 7.3-.061l.323-.2a4.04 4.04 0 0 0 .94-.815v4.037a1.014 1.014 0 0 1 -1 1.025h-50a1.014 1.014 0 0 1 -1-1.025zm4 3.025h4.63l4.67 4h-9.3zm-4 7a1 1 0 0 1 1-1h23.91l4.369 4h-28.279a1 1 0 0 1 -1-1zm39 22h-26a10.8 10.8 0 0 1 -11-10.555v-1.145a7.18 7.18 0 0 0 6.736-.343l.327-.2a5.072 5.072 0 0 1 2.652-.757h.625a5.055 5.055 0 0 1 2.579.707l.518.307a7.175 7.175 0 0 0 7.3-.062l.327-.2a5.072 5.072 0 0 1 2.651-.752h.625a5.055 5.055 0 0 1 2.579.707l.518.307a7.175 7.175 0 0 0 7.3-.062l.327-.2a5.072 5.072 0 0 1 2.651-.752h.625a5.055 5.055 0 0 1 2.579.707l.518.307a7.014 7.014 0 0 0 6.563.323v1.108a10.8 10.8 0 0 1 -11 10.555zm13-22v2a1 1 0 0 1 -1 1h-14.531l4.368-4h10.163a1 1 0 0 1 1 1zm-8.979-3 3.979-3.644v3.644z"/><path d="m11 51h42v2h-42z"/><path d="m13 55h2v2h-2z"/><path d="m17 55h2v2h-2z"/><path d="m11 15h42v2h-42z"/><path d="m48 11h2v2h-2z"/><path d="m44 11h2v2h-2z"/></svg>