<?xml version="1.0" encoding="iso-8859-1"?>
<!-- Generator: Adobe Illustrator 19.0.0, SVG Export Plug-In . SVG Version: 6.00 Build 0)  -->
<svg version="1.1" id="Layer_1" xmlns="http://www.w3.org/2000/svg" xmlns:xlink="http://www.w3.org/1999/xlink" x="0px" y="0px"
	 viewBox="0 0 512 512" style="enable-background:new 0 0 512 512;" xml:space="preserve">
<path style="fill:#463246;" d="M256,339.524l-47.304,81.094c-7.924,13.582-24.022,19.923-39.144,15.608
	c-37.573-10.72-101.677-38.755-101.677-105.253c0-51.307,76.96-76.96,76.96-76.96H256V339.524z"/>
<g>
	<path style="fill:#594759;" d="M68.208,327.368c41.412-24.913,105.33-39.151,187.792-39.151v-34.205H144.835
		C144.835,254.012,71.752,278.512,68.208,327.368z"/>
	<path style="fill:#594759;" d="M193.454,434.326c6.2-2.852,11.603-7.472,15.241-13.709L256,339.524v-76.96
		C161.279,306.281,184.506,405.817,193.454,434.326z"/>
</g>
<path style="fill:#463246;" d="M25.475,91.023c-9.601-0.212-17.458,7.505-17.458,17.108v26.165c0,42.756,8.551,42.756,8.551,85.511
	c0,24.172,8.199,37.411,15.327,44.354c4.807,4.681,11.355,7.016,18.062,6.845c56.764-1.444,197.492-16.994,197.492-16.994V236.91
	C179.964,115.438,66.647,91.929,25.475,91.023z"/>
<path style="fill:#FF413C;" d="M162.07,140.217c-53.813-10.953-150.98,56.062-134.292,119.178c1.37,1.811,2.759,3.445,4.116,4.766
	c4.807,4.681,11.355,7.016,18.061,6.845c56.765-1.444,197.493-16.994,197.493-16.994V236.91
	C223.108,193.096,192.801,162.078,162.07,140.217z"/>
<path style="fill:#C53C3C;" d="M108.109,148.412c-7.95,3.315-15.861,7.407-23.468,12.163c53.262,12.35,97.837,33.833,129.515,52.89
	c-68.595-17.391-134.808-11.323-178.822-3.007c-3.405,6.299-6.047,12.781-7.639,19.376c48.261-10.326,136.267-20.655,219.754,13.094
	v-6.018c-8.522-15.339-17.806-29.022-27.551-41.38C191.025,178.714,153.09,160.741,108.109,148.412z"/>
<path style="fill:#594759;" d="M56.818,128.25c-3.34-3.34-8.752-3.34-12.092,0c-15.278,15.28-25.431,32.894-32.191,50.031
	c2.053,10.297,4.032,20.964,4.032,41.528c0,4.391,0.346,8.305,0.832,12.004c2.389-23.931,10.784-62.834,39.419-91.468
	C60.158,137.002,60.158,131.591,56.818,128.25z"/>
<ellipse transform="matrix(-0.1111 -0.9938 0.9938 -0.1111 -206.2355 565.1135)" style="fill:#4C4E70;" cx="149.611" cy="374.789" rx="24.691" ry="12.097"/>
<path style="fill:#463246;" d="M256,339.524l47.304,81.094c7.924,13.582,24.022,19.923,39.144,15.608
	c37.572-10.72,101.677-38.755,101.677-105.253c0-51.307-76.96-76.96-76.96-76.96H256V339.524z"/>
<g>
	<path style="fill:#594759;" d="M443.792,327.368C402.38,302.455,338.462,288.217,256,288.217v-34.205h111.165
		C367.165,254.012,440.248,278.512,443.792,327.368z"/>
	<path style="fill:#594759;" d="M318.546,434.326c-6.2-2.852-11.603-7.472-15.241-13.709L256,339.524v-76.96
		C350.721,306.281,327.494,405.817,318.546,434.326z"/>
</g>
<path style="fill:#463246;" d="M486.525,91.023c9.601-0.212,17.458,7.505,17.458,17.108v26.165c0,42.756-8.551,42.756-8.551,85.511
	c0,24.172-8.199,37.411-15.327,44.354c-4.807,4.681-11.355,7.016-18.062,6.845c-56.764-1.444-197.492-16.994-197.492-16.994V236.91
	C332.036,115.438,445.353,91.929,486.525,91.023z"/>
<path style="fill:#FF413C;" d="M349.93,140.217c53.813-10.953,150.98,56.062,134.292,119.178c-1.37,1.811-2.759,3.445-4.116,4.766
	c-4.807,4.681-11.355,7.016-18.061,6.845c-56.765-1.444-197.493-16.994-197.493-16.994V236.91
	C288.892,193.096,319.199,162.078,349.93,140.217z"/>
<path style="fill:#C53C3C;" d="M403.891,148.412c7.95,3.315,15.861,7.407,23.468,12.163c-53.262,12.35-97.837,33.833-129.515,52.89
	c68.595-17.391,134.808-11.323,178.822-3.007c3.405,6.299,6.047,12.781,7.639,19.376c-48.261-10.326-136.267-20.655-219.754,13.094
	v-6.018c8.522-15.339,17.806-29.022,27.551-41.38C320.975,178.714,358.91,160.741,403.891,148.412z"/>
<path style="fill:#594759;" d="M455.182,128.25c3.34-3.34,8.752-3.34,12.092,0c15.278,15.28,25.432,32.894,32.191,50.031
	c-2.053,10.297-4.032,20.964-4.032,41.528c0,4.391-0.346,8.305-0.832,12.004c-2.389-23.931-10.784-62.834-39.419-91.468
	C451.842,137.002,451.842,131.591,455.182,128.25z"/>
<ellipse transform="matrix(-0.1111 0.9938 -0.9938 -0.1111 775.1539 56.2825)" style="fill:#4C4E70;" cx="362.406" cy="374.804" rx="24.691" ry="12.097"/>
<path style="fill:#463246;" d="M256,339.524L256,339.524c-9.446,0-17.102-7.656-17.102-17.102v-94.063
	c0-9.446,7.656-17.102,17.102-17.102l0,0c9.446,0,17.102,7.656,17.102,17.102v94.063C273.102,331.867,265.446,339.524,256,339.524z"
	/>
<path style="fill:#594759;" d="M256,245.461L256,245.461c-9.446,0-17.102-7.656-17.102-17.102l0,0
	c0-9.446,7.656-17.102,17.102-17.102l0,0c9.446,0,17.102,7.656,17.102,17.102l0,0C273.102,237.804,265.445,245.461,256,245.461z"/>
<path d="M504.445,90.151c-4.862-4.757-11.302-7.294-18.096-7.143c-41.508,0.916-142.921,15.502-212.3,127.907
	c-1.993-2.062-4.334-3.785-6.93-5.071l56.084-128.191c1.774-4.056-0.075-8.783-4.131-10.557c-4.059-1.774-8.783,0.075-10.557,4.131
	L256,191.256L203.486,71.225c-1.774-4.055-6.5-5.908-10.557-4.131c-4.055,1.774-5.906,6.501-4.131,10.557l56.084,128.191
	c-2.595,1.287-4.936,3.009-6.93,5.071C168.572,98.509,67.16,83.923,25.652,83.008c-6.821-0.149-13.235,2.387-18.097,7.143
	C2.683,94.917,0,101.302,0,108.131v26.165c0,22.172,2.252,33.435,4.432,44.328c2.119,10.594,4.12,20.6,4.12,41.183
	c0,27.116,9.652,42.21,17.75,50.096c6.064,5.907,14.182,9.129,22.946,9.129c0.304,0,0.609-0.004,0.914-0.012
	c11.185-0.284,25.17-1.101,40.443-2.231c-20.152,14.25-30.746,32.83-30.746,54.182c0,0.029,0.001,0.057,0.001,0.086
	c0,0.012,0,0.023,0,0.035c0.034,31.689,13.403,58.494,39.741,79.67c22.054,17.731,49.016,27.825,67.752,33.171
	c3.897,1.113,7.841,1.647,11.736,1.647c14.786,0,28.829-7.721,36.532-20.925l32.363-55.479v13.102c0,4.427,3.589,8.017,8.017,8.017
	c4.427,0,8.017-3.589,8.017-8.017v-13.102l32.363,55.479c7.704,13.205,21.744,20.925,36.532,20.925c3.894,0,7.84-0.536,11.735-1.647
	c18.736-5.346,45.697-15.44,67.752-33.171c26.338-21.176,39.707-47.979,39.741-79.67c0-0.012,0-0.023,0-0.035
	c0-0.029,0.001-0.057,0.001-0.086c0-21.353-10.594-39.932-30.745-54.182c15.272,1.13,29.258,1.946,40.443,2.231
	c0.306,0.007,0.61,0.012,0.914,0.012c8.764,0,16.882-3.223,22.946-9.129c8.098-7.887,17.75-22.981,17.75-50.096
	c0-20.584,2.001-30.59,4.12-41.183c2.178-10.893,4.432-22.156,4.432-44.328v-26.165C512,101.302,509.317,94.917,504.445,90.151z
	 M255.978,219.275c0.006,0,0.013,0.001,0.018,0.001c0.001,0,0.003,0,0.004,0c0.001,0,0.003,0,0.004,0
	c0.006,0,0.013-0.001,0.018-0.001c4.999,0.012,9.063,4.082,9.063,9.085c0,5.01-4.076,9.086-9.086,9.086
	c-5.01,0-9.086-4.076-9.086-9.086C246.914,223.357,250.978,219.287,255.978,219.275z M256,331.507c-5.01,0-9.086-4.076-9.086-9.086
	v-70.651c2.82,1.098,5.882,1.707,9.086,1.707s6.266-0.609,9.086-1.707v70.651C265.086,327.431,261.01,331.507,256,331.507z
	 M16.033,108.131c0-2.48,0.971-4.795,2.733-6.518c1.753-1.715,4.072-2.624,6.532-2.575c23.252,0.512,66.606,5.634,111.672,32.363
	c-26.805,2.453-57.149,16.974-79.788,36.337c-15.342,13.123-26.354,27.357-32.778,41.792c-0.574-15.654-2.438-24.983-4.251-34.049
	c-2.12-10.594-4.121-20.6-4.121-41.184V108.131z M49.753,262.994c-4.324,0.105-8.297-1.234-11.354-3.777
	c-17.055-35.767,17.95-69.668,29.205-79.295c16.275-13.92,36.478-24.795,55.43-29.835c19.042-5.063,35.014-3.88,44.99,3.327
	c22.329,18.674,44.033,43.665,62.857,77.062v16.393C202.752,250.085,98.015,261.765,49.753,262.994z M138.493,272.704
	c38.405-3.618,75.692-7.783,92.388-9.693v3.665c-5.477,3.925-10.571,8.207-15.26,12.84c-73.865,5.704-115.232,22.053-135.953,33.615
	C92.53,284.359,134.112,273.746,138.493,272.704z M171.752,428.516c-35.093-10.012-93.484-35.442-95.781-93.963
	c8.621-6.805,42.419-28.981,125.003-37.612c-14.236,20.509-22.573,45.686-24.498,74.563c-1.757,26.358,2.243,48.536,4.349,57.975
	C177.834,429.674,174.769,429.377,171.752,428.516z M201.771,416.578c-1.56,2.674-3.548,4.978-5.829,6.877
	c-1.954-9.582-4.948-28.719-3.47-50.886c2.419-36.286,15.327-64.949,38.409-85.426v35.278c0,9.453,5.251,17.701,12.988,21.987
	L201.771,416.578z M310.229,416.578l-42.098-72.17c7.737-4.286,12.988-12.533,12.988-21.987v-35.277
	c22.977,20.385,35.874,48.891,38.376,84.955c1.546,22.269-1.479,41.668-3.445,51.35C313.773,421.55,311.788,419.249,310.229,416.578
	z M340.248,428.516c-3.017,0.86-6.081,1.157-9.072,0.959c2.108-9.439,6.107-31.617,4.349-57.973
	c-1.925-28.875-10.261-54.049-24.494-74.557c81.753,8.599,116.176,30.851,124.996,37.662
	C433.695,393.09,375.329,418.507,340.248,428.516z M432.362,313.146c-20.711-11.561-62.082-27.925-135.984-33.631
	c-4.688-4.633-9.783-8.915-15.26-12.84v-3.665c16.697,1.91,53.987,6.076,92.395,9.694
	C377.939,273.747,419.544,284.279,432.362,313.146z M462.247,262.994c-48.257-1.228-152.999-12.908-181.128-16.125v-16.393
	c18.823-33.397,40.528-58.388,62.856-77.062c9.976-7.208,25.947-8.391,44.99-3.327c18.952,5.04,39.156,15.915,55.43,29.835
	c11.255,9.626,46.26,43.527,29.205,79.295C470.542,261.76,466.557,263.103,462.247,262.994z M495.967,134.296
	c0,20.584-2.001,30.59-4.12,41.183c-1.813,9.065-3.676,18.395-4.251,34.049c-6.424-14.434-17.436-28.669-32.778-41.792
	c-22.638-19.363-52.983-33.883-79.788-36.337c45.066-26.728,88.419-31.85,111.671-32.362c2.484-0.052,4.78,0.86,6.532,2.575
	c1.762,1.724,2.733,4.039,2.733,6.518V134.296z"/>
<g>
</g>
<g>
</g>
<g>
</g>
<g>
</g>
<g>
</g>
<g>
</g>
<g>
</g>
<g>
</g>
<g>
</g>
<g>
</g>
<g>
</g>
<g>
</g>
<g>
</g>
<g>
</g>
<g>
</g>
</svg>
