<?xml version="1.0" encoding="iso-8859-1"?>
<!-- Generator: Adobe Illustrator 19.0.0, SVG Export Plug-In . SVG Version: 6.00 Build 0)  -->
<svg version="1.1" id="Layer_1" xmlns="http://www.w3.org/2000/svg" xmlns:xlink="http://www.w3.org/1999/xlink" x="0px" y="0px"
	 viewBox="0 0 511.999 511.999" style="enable-background:new 0 0 511.999 511.999;" xml:space="preserve">
<path style="fill:#8F664D;" d="M255.999,273.84v-34.206H153.382c-72.99,21.897-86.276,64.82-88.602,76.923
	c-0.385,2.003,0.272,3.954,1.498,5.584c6.189,8.227,5.663,17.421,4.708,22.425c-0.398,2.084,0.386,4.31,2.157,5.477
	c10.684,7.04,10.503,20.143,9.813,25.976c-0.227,1.913,0.62,3.686,2.038,4.989c9.025,8.288,10.266,20.477,9.829,28.846
	c-0.206,3.949,3.669,6.937,7.463,5.827c15.613-4.568,21.644,4.243,23.974,11.731c1.153,3.707,5.368,5.427,8.626,3.317
	c6.987-4.525,18.299-9.519,30.352-5.361c2.898,0.999,6.027-0.338,7.293-3.13c2.249-4.961,6.615-12.268,14.343-17.635
	c33.375-23.176,25.833-46.32,52.021-70.905C256.53,317.146,255.999,273.84,255.999,273.84z"/>
<path style="fill:#A0D2D7;" d="M191.506,357.93c10.333,3.92,27.808,2.453,33.436-6.935c3.415-5.696,7.733-11.455,13.953-17.294
	c17.634-16.554,17.103-59.86,17.103-59.86v-34.206h-61.484c-6.979,0-13.255,4.317-15.859,10.793
	C155.383,308.321,162.365,346.876,191.506,357.93z"/>
<path style="fill:#6A4C49;" d="M153.381,239.635c-72.99,21.897-86.275,64.82-88.602,76.923c-0.385,2.003,0.272,3.954,1.498,5.584
	c6.189,8.227,5.663,17.421,4.708,22.425c-0.398,2.084,0.386,4.31,2.158,5.477c10.684,7.04,10.503,20.143,9.814,25.976
	c-0.227,1.913,0.62,3.686,2.038,4.989c9.026,8.288,10.266,20.476,9.829,28.846c-0.206,3.949,3.669,6.937,7.463,5.827
	c15.613-4.568,21.644,4.244,23.974,11.733c1.153,3.706,5.367,5.427,8.626,3.317c6.986-4.525,18.299-9.519,30.352-5.361
	c2.898,0.999,6.027-0.338,7.293-3.13c2.249-4.961,6.615-12.268,14.343-17.635c14.007-9.727,20.782-19.449,25.893-29.274
	c-85.041,11.28-85.041-84.389-52.103-135.697L153.381,239.635L153.381,239.635z"/>
<path style="fill:#8F664D;" d="M17.707,75.739c-7.013,0.214-11.594,7.382-8.935,13.875c5.729,13.99,15.803,34.042,20.601,47.404
	c9.696,26.999,11.548,58.177,14.689,87.254c1.454,13.46,13.092,23.45,26.617,22.862l185.318-7.5v-8.551
	C153.381,94.261,51.435,74.713,17.707,75.739z"/>
<path style="fill:#6A4C49;" d="M17.707,75.739c-7.013,0.214-11.594,7.382-8.934,13.875c5.729,13.99,15.803,34.042,20.601,47.404
	c9.696,26.999,11.548,58.177,14.688,87.254c1.455,13.46,13.092,23.45,26.618,22.862l35.458-1.434
	c1.96-17.153,3.981-41.516,4.403-71.544c0.083-5.844,5.879-9.852,11.397-7.924c21.289,7.442,70.084,27.912,124.505,73.79
	l9.554-0.387v-8.551C153.381,94.261,51.435,74.713,17.707,75.739z"/>
<g>
	<path style="fill:#463246;" d="M55.424,80.513c-16.218-3.959-29.167-5.035-37.717-4.775c-7.013,0.214-11.594,7.382-8.935,13.875
		c5.729,13.99,15.803,34.042,20.601,47.404c9.696,26.999,11.548,58.177,14.689,87.254c1.454,13.46,13.092,23.45,26.617,22.862
		l14.098-0.571C83.255,166.074,64.383,105.029,55.424,80.513z"/>
	<path style="fill:#463246;" d="M204.388,388.439c-16.16,5.194-51.154,11.352-76.661-20.533
		c-38.165-47.706-6.526-108.275-0.851-118.263c-49.691,22.984-60.013,56.33-62.077,66.852c-0.398,2.027,0.243,4.004,1.484,5.656
		c6.183,8.224,5.656,17.414,4.701,22.415c-0.398,2.084,0.386,4.31,2.157,5.477c10.684,7.04,10.503,20.143,9.813,25.976
		c-0.227,1.913,0.62,3.686,2.038,4.989c9.025,8.288,10.266,20.477,9.829,28.846c-0.206,3.949,3.669,6.937,7.463,5.827
		c15.613-4.568,21.644,4.243,23.974,11.731c1.153,3.707,5.368,5.427,8.626,3.317c6.986-4.525,18.299-9.519,30.352-5.361
		c2.898,0.999,6.027-0.338,7.293-3.13c2.249-4.961,6.615-12.268,14.343-17.635C194.628,399.221,200.115,393.839,204.388,388.439z"/>
</g>
<path style="fill:#A0D2D7;" d="M145.976,188.823c-5.634-2.18-11.226,3.184-9.316,8.916l12.894,38.686
	c0.999,2.998,2.918,5.439,5.273,7.305l82.385-3.334C201.533,212.625,165.198,196.257,145.976,188.823z"/>
<path style="fill:#8F664D;" d="M256,273.84v-34.206h102.617c72.99,21.897,86.276,64.82,88.602,76.923
	c0.385,2.003-0.271,3.954-1.498,5.584c-6.189,8.227-5.663,17.421-4.708,22.425c0.398,2.084-0.386,4.31-2.157,5.477
	c-10.684,7.04-10.503,20.143-9.813,25.976c0.227,1.913-0.619,3.686-2.038,4.989c-9.025,8.288-10.266,20.477-9.829,28.846
	c0.206,3.949-3.669,6.937-7.463,5.827c-15.613-4.568-21.644,4.243-23.974,11.731c-1.153,3.707-5.368,5.427-8.626,3.317
	c-6.987-4.525-18.299-9.519-30.352-5.361c-2.898,0.999-6.027-0.338-7.293-3.13c-2.249-4.961-6.615-12.268-14.343-17.635
	c-33.375-23.176-25.833-46.32-52.021-70.905C255.469,317.146,256,273.84,256,273.84z"/>
<path style="fill:#A0D2D7;" d="M320.492,357.93c-10.333,3.92-27.808,2.453-33.436-6.935c-3.415-5.696-7.733-11.455-13.953-17.294
	C255.469,317.146,256,273.84,256,273.84v-34.206h61.484c6.979,0,13.255,4.317,15.859,10.793
	C356.615,308.321,349.634,346.876,320.492,357.93z"/>
<path style="fill:#6A4C49;" d="M358.617,239.635c72.99,21.897,86.275,64.82,88.602,76.923c0.385,2.003-0.271,3.954-1.498,5.584
	c-6.189,8.227-5.663,17.421-4.708,22.425c0.398,2.084-0.386,4.31-2.158,5.477c-10.684,7.04-10.503,20.143-9.814,25.976
	c0.227,1.913-0.62,3.686-2.038,4.989c-9.026,8.288-10.266,20.476-9.829,28.846c0.206,3.949-3.669,6.937-7.463,5.827
	c-15.613-4.568-21.644,4.244-23.974,11.733c-1.153,3.706-5.367,5.427-8.626,3.317c-6.987-4.525-18.299-9.519-30.352-5.361
	c-2.898,0.999-6.027-0.338-7.293-3.13c-2.249-4.961-6.615-12.268-14.343-17.635c-14.007-9.727-20.782-19.449-25.893-29.274
	c85.041,11.28,85.041-84.389,52.103-135.697L358.617,239.635L358.617,239.635z"/>
<path style="fill:#8F664D;" d="M494.292,75.739c7.013,0.214,11.594,7.382,8.935,13.875c-5.729,13.99-15.803,34.042-20.601,47.404
	c-9.696,26.999-11.548,58.177-14.689,87.254c-1.454,13.46-13.092,23.45-26.617,22.862l-185.318-7.5v-8.551
	C358.617,94.261,460.563,74.713,494.292,75.739z"/>
<path style="fill:#6A4C49;" d="M494.292,75.739c7.013,0.214,11.594,7.382,8.934,13.875c-5.729,13.99-15.803,34.042-20.601,47.404
	c-9.696,26.999-11.548,58.177-14.688,87.254c-1.455,13.46-13.092,23.45-26.618,22.862l-35.458-1.434
	c-1.96-17.153-3.981-41.516-4.403-71.544c-0.083-5.844-5.879-9.852-11.397-7.924c-21.289,7.442-70.084,27.912-124.505,73.79
	L256,239.635v-8.551C358.617,94.261,460.563,74.713,494.292,75.739z"/>
<g>
	<path style="fill:#463246;" d="M456.575,80.513c16.218-3.959,29.167-5.035,37.717-4.775c7.013,0.214,11.594,7.382,8.935,13.875
		c-5.729,13.99-15.803,34.042-20.601,47.404c-9.696,26.999-11.548,58.177-14.689,87.254c-1.454,13.46-13.092,23.45-26.617,22.862
		l-14.098-0.571C428.743,166.074,447.616,105.029,456.575,80.513z"/>
	<path style="fill:#463246;" d="M307.61,388.439c16.16,5.194,51.154,11.352,76.661-20.533
		c38.165-47.706,6.526-108.275,0.851-118.263c49.691,22.984,60.013,56.33,62.077,66.852c0.398,2.027-0.243,4.004-1.484,5.656
		c-6.183,8.224-5.656,17.414-4.701,22.415c0.398,2.084-0.386,4.31-2.157,5.477c-10.684,7.04-10.503,20.143-9.813,25.976
		c0.227,1.913-0.619,3.686-2.038,4.989c-9.025,8.288-10.266,20.477-9.829,28.846c0.206,3.949-3.669,6.937-7.463,5.827
		c-15.613-4.568-21.644,4.243-23.974,11.731c-1.153,3.707-5.368,5.427-8.626,3.317c-6.987-4.525-18.299-9.519-30.352-5.361
		c-2.898,0.999-6.027-0.338-7.293-3.13c-2.249-4.961-6.615-12.268-14.343-17.635C317.37,399.221,311.884,393.839,307.61,388.439z"/>
</g>
<path style="fill:#A0D2D7;" d="M366.023,188.823c5.634-2.18,11.226,3.184,9.316,8.916l-12.894,38.686
	c-0.999,2.998-2.918,5.439-5.273,7.305l-82.385-3.334C310.465,212.625,346.8,196.257,366.023,188.823z"/>
<circle style="fill:#5A464B;" cx="255.997" cy="213.977" r="12.827"/>
<path style="fill:#73B4B4;" d="M255.999,273.84L255.999,273.84c-9.446,0-17.103-7.657-17.103-17.103v-17.103
	c0-9.446,7.657-17.103,17.103-17.103l0,0c9.446,0,17.103,7.657,17.103,17.103v17.103C273.102,266.184,265.444,273.84,255.999,273.84
	z"/>
<path d="M509.082,75.915c-3.212-4.948-8.651-8.009-14.547-8.189c-19.243-0.584-50.316,2.665-89.045,21.476
	c-44.368,21.551-88.041,58.195-129.959,109.008c-0.404-0.499-0.827-0.98-1.268-1.447l31.165-46.746
	c2.456-3.684,1.461-8.662-2.223-11.117c-3.685-2.455-8.661-1.461-11.117,2.223l-32.045,48.069c-1.317-0.214-2.667-0.33-4.044-0.33
	c-1.376,0-2.725,0.115-4.042,0.329l-32.045-48.069c-2.455-3.685-7.434-4.68-11.117-2.223c-3.685,2.455-4.68,7.433-2.223,11.117
	l31.163,46.745c-0.44,0.466-0.864,0.948-1.268,1.447c-41.918-50.813-85.59-87.456-129.958-109.007
	C67.782,70.392,36.712,67.146,17.464,67.726c-5.897,0.18-11.335,3.241-14.547,8.189C-0.315,80.893-0.9,87.15,1.355,92.653
	c2.439,5.956,5.539,12.749,8.821,19.942c4.406,9.653,8.961,19.635,11.653,27.134c7.873,21.919,10.411,47.28,12.867,71.806
	c0.458,4.566,0.912,9.107,1.397,13.598c1.848,17.108,16.403,30.042,33.472,30.042c0.49,0,0.98-0.011,1.473-0.032l34.237-1.526
	c-48.832,28.063-49.014,64.43-48.987,66.301c0.028,2.005,0.807,3.927,2.183,5.386c8.062,8.55,4.18,19.762,4.034,20.172
	c-1.488,3.939,0.325,8.357,4.15,10.116c11.542,5.309,8.162,20.884,8.022,21.501c-0.75,3.151,0.469,6.443,3.091,8.346
	c13.435,9.748,8.049,31.542,8,31.734c-0.802,3.045,0.253,6.278,2.698,8.263s5.825,2.356,8.64,0.948
	c7.845-3.923,14.006-4.959,17.35-2.917c4.202,2.565,5.226,10.362,5.254,12.85c0,3.23,1.951,6.135,4.931,7.383
	c0.996,0.418,2.045,0.62,3.085,0.62c2.073,0,4.114-0.803,5.647-2.312c0.689-0.678,17.06-16.505,33.121-7.288
	c2.164,1.242,4.789,1.381,7.091,0.418s4.031-2.967,4.665-5.381c0.03-0.114,3.141-11.581,13.197-18.566
	c20.241-14.056,26.805-28.2,33.154-41.878c4.734-10.202,9.207-19.839,19.782-29.766c5.068-4.758,8.823-11.125,11.617-18.034
	c2.794,6.907,6.549,13.276,11.617,18.034c10.575,9.927,15.047,19.564,19.782,29.766c6.348,13.678,12.913,27.822,33.154,41.878
	c10.058,6.984,13.167,18.451,13.185,18.52c0.609,2.437,2.326,4.449,4.637,5.432c2.313,0.983,4.952,0.827,7.13-0.423
	c16.063-9.217,32.431,6.61,33.098,7.267c1.534,1.534,3.584,2.348,5.671,2.348c1.033,0,2.075-0.2,3.067-0.61
	c2.996-1.241,4.949-4.165,4.949-7.407c0-1.906,0.93-10.178,5.225-12.832c3.34-2.062,9.509-1.033,17.379,2.9
	c2.816,1.409,6.195,1.039,8.64-0.948c2.445-1.985,3.5-5.217,2.698-8.263c-0.058-0.218-5.572-21.887,8-31.734
	c2.622-1.903,3.842-5.195,3.091-8.346c-0.039-0.16-3.687-16.116,8.022-21.501c3.825-1.759,5.638-6.178,4.15-10.116
	c-0.043-0.113-4.191-11.447,4.034-20.172c1.376-1.459,2.155-3.381,2.183-5.386c0.027-1.872-0.155-38.239-48.987-66.302l34.246,1.526
	c0.493,0.022,0.981,0.032,1.471,0.032c17.06,0,31.617-12.936,33.465-30.042c0.485-4.491,0.94-9.031,1.397-13.598
	c2.455-24.527,4.994-49.887,12.867-71.806c2.694-7.499,7.248-17.481,11.653-27.134c3.282-7.193,6.383-13.986,8.821-19.941
	C512.898,87.15,512.314,80.893,509.082,75.915z M275.329,231.71c45.754-44.688,88.276-72.082,116.301-87.339
	c16.981-9.244,30.754-15.23,39.884-18.797c-6.28,27.761-12.364,66.467-12.496,112.541L275.329,231.71z M255.998,265.825
	c-5.01,0-9.086-4.076-9.086-9.086v-8.551c0-5.01,4.076-9.086,9.086-9.086c5.01,0,9.086,4.076,9.086,9.086v8.551
	C265.084,261.749,261.008,265.825,255.998,265.825z M92.98,238.115c-0.131-46.074-6.216-84.781-12.496-112.542
	c9.13,3.567,22.903,9.552,39.884,18.797c28.024,15.257,70.546,42.651,116.301,87.339L92.98,238.115z M412.495,103.624
	c9.924-4.82,19.268-8.532,27.97-11.374c-1.279,4.032-2.738,8.901-4.278,14.549c-12.204,3.983-56.367,20.232-112.801,62.502
	C352.634,140.217,382.458,118.214,412.495,103.624z M265.084,213.982c0,5.01-4.076,9.086-9.086,9.086
	c-5.01,0-9.086-4.076-9.086-9.086s4.076-9.086,9.086-9.086C261.008,204.896,265.084,208.971,265.084,213.982z M188.614,169.303
	C132.179,127.032,88.017,110.783,75.813,106.8c-1.541-5.648-2.998-10.517-4.278-14.549c8.701,2.841,18.046,6.554,27.97,11.373
	C129.54,118.214,159.364,140.217,188.614,169.303z M70.333,239.125c-9.289,0.389-17.304-6.5-18.299-15.714
	c-0.481-4.449-0.931-8.948-1.384-13.473c-2.552-25.492-5.191-51.852-13.73-75.629c-2.919-8.128-7.616-18.419-12.157-28.371
	c-3.215-7.044-6.251-13.698-8.571-19.361c-0.363-0.888-0.048-1.591,0.173-1.93c0.255-0.393,0.738-0.868,1.586-0.893
	c8.943-0.271,20.741,0.394,34.93,3.441c4.664,12.923,23.94,71.216,24.068,151.637L70.333,239.125z M166.072,417.191
	c-12.998-3.832-24.902,0.51-33.049,5.261c-1.844-4.631-4.933-9.408-10.109-12.606c-5.569-3.442-12.266-4.305-20.002-2.594
	c0.005-1.19-0.022-2.424-0.096-3.69c-0.669-11.509-4.699-21.023-11.726-27.823c0.882-9.415-1.034-23.014-11.969-31.283
	c1.006-6.741,0.924-17.499-6.54-27.276c0.609-4.067,2.643-12.497,9.42-22.274c5.913-8.532,14.18-16.303,24.537-23.16
	c-1.537,6.656-3.039,14.797-3.895,23.784c-2.998,31.485,3.51,58.245,18.824,77.386c16.887,21.108,39.45,27.485,55.946,29.032
	C171.946,406.966,168.339,412.633,166.072,417.191z M233.408,327.855c-12.838,12.052-18.424,24.088-23.352,34.707
	c-3.82,8.232-7.311,15.743-13.737,23.133c-2.746,0.429-39.639,5.571-62.332-22.796c-28.355-35.445-11.031-92.299-7.794-101.939
	c7.702-3.507,16.125-6.642,25.216-9.369c0.032-0.01,0.062-0.024,0.095-0.033l79.379-3.538c0,0.057-0.004,0.112-0.004,0.169v8.551
	c0,10.993,7.101,20.352,16.954,23.749C247.132,294.331,243.825,318.077,233.408,327.855z M278.591,327.857
	c-10.381-9.746-13.703-33.514-14.417-47.372c9.848-3.4,16.945-12.758,16.945-23.746v-8.551c0-0.057-0.004-0.112-0.004-0.169
	l79.381,3.538c0.032,0.011,0.063,0.025,0.095,0.034c9.092,2.728,17.516,5.864,25.219,9.371c3.248,9.615,20.648,66.38-7.797,101.937
	c-22.828,28.534-59.367,23.277-62.332,22.796c-6.425-7.388-9.916-14.9-13.737-23.133
	C297.014,351.944,291.428,339.908,278.591,327.857z M429.997,294.905c6.791,9.798,8.819,18.242,9.425,22.269
	c-7.468,9.779-7.55,20.539-6.544,27.281c-10.935,8.269-12.851,21.868-11.969,31.283c-7.027,6.801-11.057,16.314-11.726,27.823
	c-0.074,1.266-0.103,2.499-0.096,3.69c-7.736-1.711-14.433-0.847-20.002,2.594c-5.176,3.199-8.265,7.975-10.109,12.606
	c-8.147-4.749-20.055-9.093-33.049-5.26c-2.267-4.559-5.874-10.226-11.34-15.245c16.497-1.548,39.061-7.925,55.946-29.032
	c25.818-32.273,20.661-76.688,14.979-101.137C415.843,278.627,424.093,286.386,429.997,294.905z M495.807,86.576
	c-2.32,5.663-5.355,12.316-8.571,19.361c-4.542,9.953-9.238,20.243-12.157,28.371c-8.54,23.777-11.179,50.137-13.73,75.629
	c-0.453,4.526-0.903,9.024-1.384,13.473c-0.996,9.214-9.011,16.134-18.29,15.714l-6.625-0.295
	c0.129-80.232,19.411-138.683,24.072-151.637c14.188-3.046,25.986-3.711,34.926-3.44c0.849,0.026,1.332,0.5,1.586,0.893
	C495.854,84.986,496.171,85.688,495.807,86.576z"/>
<g>
</g>
<g>
</g>
<g>
</g>
<g>
</g>
<g>
</g>
<g>
</g>
<g>
</g>
<g>
</g>
<g>
</g>
<g>
</g>
<g>
</g>
<g>
</g>
<g>
</g>
<g>
</g>
<g>
</g>
</svg>
