<?xml version="1.0" encoding="iso-8859-1"?>
<!-- Generator: Adobe Illustrator 19.0.0, SVG Export Plug-In . SVG Version: 6.00 Build 0)  -->
<svg xmlns="http://www.w3.org/2000/svg" xmlns:xlink="http://www.w3.org/1999/xlink" version="1.1" id="Layer_1" x="0px" y="0px" viewBox="0 0 512 512" style="enable-background:new 0 0 512 512;" xml:space="preserve">
<path style="fill:#FFFFFF;" d="M150.763,501.553c-13.367,0-26.735-5.1-36.934-15.299c-20.398-20.398-20.398-53.471,0-73.869  l173.962-173.962c28.199-28.199,28.199-74.083,0-102.282c-24.678-24.678-63.393-28.263-92.055-8.526  c-23.76,16.36-56.284,10.36-72.643-13.398c-16.359-23.76-10.362-56.283,13.398-72.643C206.655-6.739,301.353,1.966,361.658,62.275  c33.391,33.39,51.78,77.786,51.781,125.009c0,47.223-18.39,91.618-51.78,125.01L187.698,486.256  C177.498,496.453,164.13,501.553,150.763,501.553z"/>
<g>
	<path style="fill:#FF5764;" d="M302.999,216.018c-3.513,8.139-8.569,15.766-15.209,22.407l-26.63,26.63   c21.157-8.619,44.065-11.612,66.435-8.98c11.617,1.367,23.089,4.252,34.096,8.653c0.067,0.027,0.134,0.053,0.201,0.08   c9.067,3.643,17.817,8.316,26.07,14.02c13.18-21.696,21.481-45.976,24.345-71.472C376.646,194.694,336.706,197.584,302.999,216.018   z"/>
	<path style="fill:#FF5764;" d="M170.227,136.66c8.86-0.692,17.662-3.641,25.508-9.044c13.622-9.38,29.515-13.481,45.091-12.565   c4.628-26.132,17.028-51.157,37.217-71.347c7.87-7.87,16.477-14.557,25.597-20.062c-23.887-9.779-49.571-14.167-75.154-13.003   c-6.979,4.722-13.615,10.171-19.795,16.351C178.725,56.959,165.909,97.576,170.227,136.66z"/>
	<path style="fill:#FF5764;" d="M366.085,66.879c-21.572,5.979-41.943,17.439-58.901,34.398   c-9.482,9.482-17.244,20.032-23.293,31.261c1.332,1.151,2.639,2.343,3.9,3.604c11.343,11.343,18.114,25.548,20.332,40.312   c1.669-1.866,3.378-3.71,5.171-5.501c25.284-25.284,58.15-38.361,91.28-39.238C396.684,107.798,383.661,85.741,366.085,66.879z"/>
	<path style="fill:#FF5764;" d="M281.099,392.853l56.395-56.395c-41.861-25.717-93.619-28.974-137.982-9.755l-56.424,56.424   C187.457,363.893,239.228,367.131,281.099,392.853z"/>
	<path style="fill:#FF5764;" d="M235.094,438.858c-39.733-24.451-88.399-28.652-131.199-12.592   c-5.215,10.601-6.618,22.595-4.208,33.949c31.835-2.995,64.44,4.168,92.57,21.479L235.094,438.858z"/>
</g>
<path d="M369.045,54.888c-63.868-63.87-164.163-73.09-238.479-21.918c-28.466,19.601-35.678,58.705-16.078,87.172  c19.601,28.466,58.706,35.678,87.171,16.077c24.514-16.878,57.629-13.804,78.744,7.309c24.126,24.126,24.126,63.382,0,87.51  l-173.961,173.96c-24.439,24.439-24.439,64.203,0.001,88.643C118.282,505.481,134.022,512,150.764,512s32.481-6.52,44.322-18.358  L369.046,319.68c35.365-35.365,54.84-82.384,54.84-132.396C423.886,137.27,404.409,90.251,369.045,54.888z M131.697,108.294  c-13.067-18.978-8.258-45.049,10.718-58.115c16.444-11.323,34.32-19.315,52.772-24.058c-24.348,27.513-37.182,62.929-36.164,99.627  C148.316,123.9,138.33,117.927,131.697,108.294z M189.812,119.011c-3.146,2.167-6.49,3.832-9.936,5.032  c-0.624-33.525,12.258-65.721,36.204-89.666c4.909-4.909,10.237-9.41,15.86-13.412c41.166-1.138,82.397,12.996,114.756,41.584  c-17.449,7.238-33.444,17.884-46.9,31.341c-7.152,7.153-13.502,14.997-18.979,23.402c-8.478-5.361-17.745-9.067-27.328-11.063  c3.213-11.948,8.174-23.271,14.818-33.764c3.086-4.874,1.636-11.328-3.238-14.414c-4.875-3.087-11.329-1.637-14.415,3.238  c-8.476,13.387-14.614,27.924-18.307,43.3C217.509,105.347,202.762,110.094,189.812,119.011z M297.043,130.718  c4.967-7.957,10.833-15.36,17.527-22.054c13.567-13.568,30.142-23.797,48.213-29.841c26.016,30.16,40.21,68.219,40.211,108.459  c0,2.114-0.051,4.22-0.13,6.322c-27.797-7.003-57.237-5.579-84.143,3.977c0.725-5.832,0.842-11.723,0.33-17.574  c0.557-0.584,1.098-1.139,1.629-1.668c9.615-9.615,20.608-17.512,32.672-23.47c5.172-2.555,7.295-8.82,4.74-13.993  c-2.553-5.172-8.816-7.296-13.993-4.74c-11.038,5.452-21.29,12.305-30.614,20.397C309.769,147.209,304.28,138.439,297.043,130.718z   M206.514,335.093c36.736-14.95,78.421-13.387,113.756,3.817l-40.897,40.897c-30.834-16.786-66.249-22.809-100.517-17.672  l26.711-26.711C205.884,335.328,206.2,335.22,206.514,335.093z M233.379,425.799c-30.833-16.837-66.049-22.945-100.382-17.807  l16.023-16.023c37.083-15.467,79.098-14.105,114.858,3.331L233.379,425.799z M190.538,468.641  c-25.008-13.662-52.961-20.324-81.538-19.449c0.015-4.956,0.913-9.905,2.675-14.602c35.134-11.944,73.227-9.445,106.206,6.71  L190.538,468.641z M121.217,478.869c-2.704-2.704-4.949-5.693-6.756-8.867c20.85,0.074,41.217,4.774,59.902,13.806  c-6.898,4.741-15.05,7.299-23.599,7.299C139.603,491.107,129.109,486.76,121.217,478.869z M354.272,304.907l-18.506,18.507  c-30.746-16.727-66.239-22.775-100.52-17.669l31.797-31.798c0.073-0.026,0.146-0.045,0.218-0.073  c18.695-7.207,39.136-9.774,59.112-7.422c5.726,0.671,10.922-3.423,11.597-9.154c0.675-5.731-3.424-10.922-9.154-11.597  c-11.139-1.31-22.402-1.296-33.509-0.024c6.595-6.624,11.816-14.103,15.701-22.075c27.609-14.124,59.914-17.272,89.747-8.944  C395.153,248.683,379.14,280.04,354.272,304.907z"/>
<path d="M278.01,54.183c2.714,0,5.422-1.05,7.464-3.135c0.046-0.046,0.094-0.096,0.135-0.139c3.979-4.178,3.817-10.79-0.36-14.769  c-4.143-3.946-10.678-3.82-14.666,0.253c-0.046,0.046-0.094,0.096-0.135,0.139c-3.979,4.178-3.817,10.79,0.36,14.769  C272.83,53.227,275.422,54.183,278.01,54.183z"/>
<path d="M378.058,145.512c0.751,0,1.513-0.081,2.276-0.251c0.061-0.014,0.202-0.046,0.262-0.061  c5.609-1.35,9.061-6.992,7.712-12.602c-1.344-5.583-6.941-9.033-12.523-7.729c-5.621,1.26-9.164,6.834-7.913,12.46  C368.951,142.198,373.269,145.512,378.058,145.512z"/>
<path d="M365.738,255.096l-0.218-0.087c-5.361-2.112-11.419,0.522-13.537,5.886c-2.118,5.362,0.517,11.431,5.878,13.553l0.139,0.055  c1.273,0.512,2.586,0.753,3.876,0.753c4.133,0,8.035-2.483,9.677-6.559C373.705,263.347,371.086,257.254,365.738,255.096z"/>
<g>
</g>
<g>
</g>
<g>
</g>
<g>
</g>
<g>
</g>
<g>
</g>
<g>
</g>
<g>
</g>
<g>
</g>
<g>
</g>
<g>
</g>
<g>
</g>
<g>
</g>
<g>
</g>
<g>
</g>
</svg>
