<?xml version="1.0" encoding="iso-8859-1"?>
<!-- Generator: Adobe Illustrator 19.0.0, SVG Export Plug-In . SVG Version: 6.00 Build 0)  -->
<svg xmlns="http://www.w3.org/2000/svg" xmlns:xlink="http://www.w3.org/1999/xlink" version="1.1" id="Layer_1" x="0px" y="0px" viewBox="0 0 512 512" style="enable-background:new 0 0 512 512;" xml:space="preserve">
<path style="fill:#3FD0FC;" d="M99.292,281.657l181.645-181.646c28.581-28.581,74.92-28.581,103.5,0l27.551,27.551  c28.581,28.581,28.581,74.92,0,103.5L230.344,412.708c-28.581,28.581-74.92,28.581-103.5,0l-27.551-27.551  C70.712,356.576,70.712,310.237,99.292,281.657z"/>
<path style="fill:#BA40CC;" d="M205.858,175.09h94.91c16.781,0,27.269-18.166,18.879-32.699l-29.211-50.595L205.858,175.09z"/>
<path style="fill:#FF7DBE;" d="M306.863,336.189h-94.91c-16.781,0-27.269,18.166-18.879,32.699l29.211,50.595L306.863,336.189z"/>
<g>
	<path style="fill:#0092E0;" d="M134.175,420.04l-22.178,81.511c-11.037-11.037-4.194-23.926-15.506-35.247   c-11.322-11.312-24.21-4.468-35.247-15.506c-11.041-11.041-3.811-23.554-15.513-35.256c-11.701-11.701-23.365-3.623-35.256-15.513   l-0.025-0.025l81.511-22.178L134.175,420.04z"/>
	<path style="fill:#0092E0;" d="M377.826,91.96l22.179-81.511c11.037,11.037,4.194,23.926,15.506,35.247   c11.322,11.312,24.21,4.468,35.247,15.506c11.041,11.041,3.811,23.554,15.513,35.256c11.701,11.701,23.365,3.623,35.256,15.513   l0.025,0.025l-81.511,22.178L377.826,91.96z"/>
</g>
<circle style="fill:#FF5764;" cx="329.903" cy="244.971" r="48.568"/>
<circle style="fill:#9AE523;" cx="189.884" cy="259.6" r="48.568"/>
<path d="M224.032,303.405c-2.674,0-5.349-1.02-7.389-3.061c-4.08-4.08-4.08-10.697,0-14.778l0.097-0.097  c4.08-4.08,10.697-4.08,14.778,0c4.08,4.08,4.08,10.697,0,14.778l-0.097,0.097C229.38,302.385,226.706,303.405,224.032,303.405z"/>
<path d="M295.918,221.435c-2.674,0-5.349-1.02-7.389-3.061c-4.08-4.08-4.08-10.697,0-14.778l0.097-0.097  c4.08-4.08,10.697-4.08,14.778,0c4.08,4.08,4.08,10.697,0,14.778l-0.097,0.097C301.267,220.415,298.592,221.435,295.918,221.435z"/>
<path d="M508.897,104.564c-8.364-8.353-17.114-9.74-23.504-10.752c-5.61-0.889-8.452-1.462-11.733-4.743  c-3.435-3.435-4.125-6.659-5.142-12.532c-1.154-6.657-2.589-14.942-10.371-22.725c-7.8-7.8-16.198-9.311-22.945-10.525  c-5.864-1.055-9.075-1.757-12.299-4.977c-3.227-3.23-3.928-6.441-4.983-12.304c-1.214-6.748-2.724-15.145-10.525-22.945  c-2.634-2.634-6.474-3.667-10.074-2.709c-3.601,0.957-6.42,3.76-7.398,7.355l-18.957,69.672  c-11.697-6.035-24.736-9.251-38.277-9.251c-22.339,0-43.342,8.699-59.139,24.496L91.904,274.268  c-26.19,26.19-31.326,65.563-15.447,96.947l-68.75,18.706c-3.577,0.974-6.358,3.782-7.329,7.359s0.04,7.415,2.634,10.062  c0.024,0.025,0.049,0.05,0.074,0.075c8.369,8.369,17.127,9.756,23.522,10.77c5.61,0.889,8.452,1.462,11.733,4.744  c3.435,3.434,4.125,6.658,5.142,12.531c1.154,6.657,2.589,14.942,10.37,22.725c7.8,7.8,16.198,9.311,22.945,10.525  c5.864,1.055,9.075,1.755,12.299,4.977c3.227,3.23,3.928,6.441,4.983,12.305c1.214,6.748,2.724,15.145,10.525,22.945  c1.985,1.985,4.654,3.061,7.39,3.061c0.894,0,1.797-0.115,2.684-0.351c3.601-0.957,6.42-3.76,7.398-7.355l18.706-68.749  c11.845,5.994,24.823,9.01,37.808,9.01c21.418,0,42.834-8.152,59.138-24.456l76.517-76.518c0.001-0.001,0.002-0.002,0.003-0.002  l105.124-105.124c15.797-15.797,24.496-36.799,24.496-59.139c0-13.54-3.215-26.581-9.251-38.277l69.671-18.957  c3.613-0.983,6.412-3.837,7.356-7.462C512.588,111.018,511.53,107.183,508.897,104.564z M287.727,108.001l22.872,39.616  c2.957,5.122,0.984,9.644,0,11.35c-0.985,1.706-3.915,5.675-9.83,5.675h-69.684L287.727,108.001z M110.356,467.78  c-1.498-2.953-3.558-5.943-6.48-8.868c-8.01-8.003-16.53-9.536-23.376-10.768c-0.539-0.097-1.047-0.19-1.542-0.283l16.764-16.764  c4.08-4.08,4.08-10.697,0-14.778c-4.08-4.08-10.697-4.08-14.778,0l-16.675,16.675c-0.063-0.355-0.127-0.72-0.193-1.099  c-1.131-6.527-2.679-15.464-10.956-23.741c-2.952-2.952-5.962-5.022-8.901-6.509l44.758-12.179c0.945,1.045,1.92,2.072,2.927,3.079  l27.551,27.551c1.007,1.007,2.034,1.981,3.079,2.927L110.356,467.78z M224.995,403.279l-22.872-39.616  c-2.957-5.122-0.984-9.644,0-11.35c0.985-1.706,3.915-5.675,9.83-5.675h69.684L224.995,403.279z M404.6,223.674l-16.419,16.419  c-1.106-13.319-6.729-26.328-16.896-36.496c-12.942-12.942-30.782-19.012-48.954-16.649c-5.723,0.744-9.758,5.986-9.015,11.709  c0.743,5.724,5.985,9.764,11.709,9.015c11.685-1.518,23.163,2.381,31.482,10.702c14.668,14.668,14.668,38.532,0,53.2  c-14.667,14.668-38.532,14.668-53.2,0c-8.528-8.528-12.391-20.269-10.6-32.215c0.856-5.707-3.077-11.028-8.785-11.884  c-5.709-0.857-11.028,3.077-11.884,8.785c-2.743,18.298,3.421,37.024,16.49,50.091c10.168,10.167,23.178,15.791,36.496,16.896  l-22.492,22.492h-90.581c-11.658,0-22.099,6.028-27.929,16.124c-5.83,10.096-5.83,22.151,0,32.248l24.298,42.084  c-23.755,12.769-54.062,9.15-74.09-10.878l-27.551-27.55c-24.462-24.462-24.462-64.263,0-88.723l25.191-25.191  c1.125,13.282,6.747,26.253,16.889,36.394c11.105,11.105,25.819,17.15,41.251,17.149c2.552,0,5.124-0.165,7.703-0.501  c5.723-0.744,9.758-5.986,9.015-11.709c-0.743-5.723-5.985-9.764-11.709-9.015c-11.687,1.52-23.163-2.382-31.482-10.703  c-14.668-14.666-14.668-38.532,0-53.2c14.668-14.668,38.533-14.668,53.2,0c8.528,8.528,12.391,20.269,10.6,32.216  c-0.856,5.707,3.077,11.028,8.785,11.884c5.715,0.857,11.028-3.077,11.884-8.785c2.743-18.298-3.421-37.024-16.49-50.092  c-10.142-10.141-23.112-15.764-36.393-16.889l15.065-15.065h90.582c11.658,0,22.099-6.028,27.929-16.124  c5.83-10.096,5.83-22.151,0-32.248l-23.999-41.567c8.587-4.289,18.111-6.575,27.989-6.575c16.757,0,32.512,6.526,44.362,18.375  l27.551,27.551c11.849,11.849,18.375,27.604,18.375,44.361C422.975,196.071,416.449,211.825,404.6,223.674z M421.913,122.835  c-0.827-0.901-1.666-1.792-2.535-2.661l-27.551-27.55c-0.869-0.869-1.761-1.708-2.661-2.535l12.48-45.869  c1.498,2.953,3.558,5.944,6.48,8.868c8.01,8.003,16.53,9.536,23.375,10.768c0.564,0.101,1.096,0.2,1.611,0.297l-18.54,18.54  c-4.08,4.08-4.08,10.697,0,14.777c2.041,2.041,4.715,3.061,7.389,3.061s5.349-1.021,7.389-3.061l18.395-18.396  c0.06,0.333,0.119,0.677,0.181,1.032c1.131,6.526,2.679,15.463,10.956,23.741c2.952,2.952,5.962,5.022,8.901,6.509L421.913,122.835z  "/>
<g>
</g>
<g>
</g>
<g>
</g>
<g>
</g>
<g>
</g>
<g>
</g>
<g>
</g>
<g>
</g>
<g>
</g>
<g>
</g>
<g>
</g>
<g>
</g>
<g>
</g>
<g>
</g>
<g>
</g>
</svg>
