<?xml version="1.0" encoding="iso-8859-1"?>
<!-- Generator: Adobe Illustrator 19.0.0, SVG Export Plug-In . SVG Version: 6.00 Build 0)  -->
<svg xmlns="http://www.w3.org/2000/svg" xmlns:xlink="http://www.w3.org/1999/xlink" version="1.1" id="Layer_1" x="0px" y="0px" viewBox="0 0 459.681 459.681" style="enable-background:new 0 0 459.681 459.681;" xml:space="preserve" width="512" height="512">
<g>
	<g>
		<path style="fill:#00B3E3;" d="M329.857,258.535c0-69.675-56.484-126.159-126.163-126.159h-70.033    C63.984,132.376,7.5,188.861,7.5,258.535v38.19h322.357V258.535z"/>
		<path style="fill:#0071CE;" d="M329.857,273.22c8.738,3.262,90.115,19.477,106.016,20.293    c15.902,0.815,21.922,13.331,10.082,22.258c-39.748,29.978-126.205,37.247-195.52-19.045L329.857,273.22z"/>
		<path style="fill:#FFC843;" d="M307.13,186.295c-11.42,5.819-19.244,17.679-19.244,31.374c0,19.438,15.758,35.199,35.199,35.199    c2.262,0,4.471-0.222,6.611-0.631C328.495,227.778,320.323,205.151,307.13,186.295z"/>
	</g>
	<g>
		<path style="fill:#0071CE;" d="M70.542,304.226L70.542,304.226c-4.142,0-7.5-3.357-7.5-7.5c0-48.768,9.576-89.268,28.462-120.378    c13.037-21.475,30.551-38.473,52.056-50.52c3.613-2.024,8.185-0.736,10.208,2.877c2.025,3.614,0.736,8.185-2.878,10.209    c-19.22,10.768-34.887,25.981-46.565,45.218c-17.44,28.729-26.284,66.61-26.284,112.594    C78.042,300.867,74.684,304.226,70.542,304.226z"/>
		<path style="fill:#0071CE;" d="M239.972,304.226c-4.143,0-7.5-3.357-7.5-7.5c0-78.982-17.427-133.739-50.398-158.351    c-3.319-2.477-4.001-7.177-1.524-10.496c2.478-3.318,7.178-4.002,10.497-1.523c15.582,11.63,28.157,28.79,37.378,51.001    c12.64,30.445,19.048,70.607,19.048,119.369C247.472,300.868,244.114,304.226,239.972,304.226z"/>
		<path style="fill:#0071CE;" d="M35.129,278.908H7.5c-4.142,0-7.5-3.357-7.5-7.5c0-4.142,3.358-7.5,7.5-7.5h27.629    c4.142,0,7.5,3.358,7.5,7.5C42.629,275.551,39.271,278.908,35.129,278.908z"/>
		<path d="M458.944,300.594c-2.575-8.402-11.269-13.985-22.688-14.571c-14.367-0.738-79.527-13.664-98.9-18.469v-9.018    c0-73.7-59.961-133.659-133.663-133.659h-12.321c-5.143-6.943-13.391-11.447-22.694-11.447s-17.553,4.504-22.696,11.447h-12.322    C59.96,124.876,0,184.835,0,258.535v38.19c0,4.143,3.358,7.5,7.5,7.5h240.316c34.326,27.115,76.384,42.026,118.746,42.026    c32.686,0,63.269-8.928,83.907-24.493C458.079,316.022,461.247,308.11,458.944,300.594z M304.958,196.741    c8.854,14.456,14.696,30.944,16.659,48.589c-14.594-0.766-26.231-12.879-26.231-27.66    C295.386,209.486,298.944,201.929,304.958,196.741z M15,289.226v-30.69c0-65.429,53.231-118.659,118.661-118.659h70.033    c37.412,0,70.829,17.408,92.594,44.543c-9.973,8.005-15.902,20.111-15.902,33.25c0,23.3,18.763,42.289,41.971,42.681v7.269    l-73.008,21.607H15z M441.439,309.783c-18.091,13.645-45.382,21.47-74.876,21.47c-35.072,0-69.958-11.126-99.675-31.574    l62.929-18.625c17.11,4.801,90.935,19.193,105.672,19.95c5.842,0.3,8.69,2.604,9.114,3.986    C444.967,306.177,443.725,308.059,441.439,309.783z"/>
	</g>
</g>















</svg>
