<?xml version="1.0" encoding="UTF-8"?>
<svg xmlns="http://www.w3.org/2000/svg" viewBox="0 0 64 64" width="512" height="512"><g id="Layer_16" data-name="Layer 16"><path d="M62,39.15a9.528,9.528,0,0,1-.69,3.57C60.73,44.16,60,46,60,46H4s-.73-1.84-1.31-3.28A9.528,9.528,0,0,1,2,39.15a9.645,9.645,0,0,1,4.28-8.01L8,30V28.16A4.388,4.388,0,0,1,11,24l3.27-.82a73.189,73.189,0,0,1,35.46,0L53,24a4.388,4.388,0,0,1,3,4.16V30l1.72,1.14a9.662,9.662,0,0,1,3.14,3.47A9.555,9.555,0,0,1,62,39.15Z" style="fill:#b2c1c5"/><path d="M62,39.15a9.555,9.555,0,0,0-1.14-4.54,9.662,9.662,0,0,0-3.14-3.47L56,30V28.16A4.388,4.388,0,0,0,53,24l-3.27-.82A73.019,73.019,0,0,0,34,21.031,73.019,73.019,0,0,0,18.27,23.18L15,24a4.388,4.388,0,0,0-3,4.16V30l-1.72,1.14A9.645,9.645,0,0,0,6,39.15a9.528,9.528,0,0,0,.69,3.57C7.27,44.16,8,46,8,46H60s.73-1.84,1.31-3.28A9.528,9.528,0,0,0,62,39.15Z" style="fill:#cddbdf"/><path d="M53,15.3V24l-3.27-.82a73.189,73.189,0,0,0-35.46,0L11,24V15.3A10.3,10.3,0,0,1,21.3,5H42.7A10.3,10.3,0,0,1,53,15.3Z" style="fill:#b2c1c5"/><path d="M50.686,8.919A10.3,10.3,0,0,0,44.7,7H23.3A10.3,10.3,0,0,0,13,17.3v6.2l1.269-.317a73.1,73.1,0,0,1,35.462,0L53,24V15.3a10.287,10.287,0,0,0-2.111-6.218C50.819,9.03,50.758,8.97,50.686,8.919Z" style="fill:#cddbdf"/><path d="M49,16.7A7.7,7.7,0,0,0,41.3,9H22.7A7.7,7.7,0,0,0,15,16.7V23h.051a72.817,72.817,0,0,1,33.9,0H49Z" style="fill:#68b7e9"/><path d="M49,16.7a7.7,7.7,0,0,0-1.79-4.924c-.035-.029-.065-.062-.1-.09A7.7,7.7,0,0,0,42.3,10H23.7A7.7,7.7,0,0,0,16,17.7v5.076A72.848,72.848,0,0,1,48.949,23H49Z" style="fill:#7ccbf5"/><path d="M53,24a16.975,16.975,0,0,0-9.41,10.22,10.548,10.548,0,0,1-6.3,6.55l-1.42.53a11.048,11.048,0,0,1-7.74,0l-1.42-.53a10.548,10.548,0,0,1-6.3-6.55A16.975,16.975,0,0,0,11,24l3.27-.82a73.189,73.189,0,0,1,35.46,0Z" style="fill:#738993"/><path d="M43.59,34.22A16.975,16.975,0,0,1,53,24l-3.27-.82a73.189,73.189,0,0,0-35.46,0l-.6.151a16.954,16.954,0,0,1,8.74,9.889,10.548,10.548,0,0,0,6.3,6.55l1.42.53a11.048,11.048,0,0,0,7.74,0l1.363-.509A10.546,10.546,0,0,0,43.59,34.22Z" style="fill:#92a8ae"/><path d="M16,50v6a3,3,0,0,1-3,3H9a3,3,0,0,1-3-3V50" style="fill:#313e44"/><path d="M13,51H6v5a3,3,0,0,0,3,3h4a2.965,2.965,0,0,0,1.554-.446A2.965,2.965,0,0,0,15,57V53A2,2,0,0,0,13,51Z" style="fill:#43525b"/><circle cx="11" cy="39" r="3" style="fill:#d8b42f"/><rect x="2" y="46" width="60" height="4" rx="2" style="fill:#43525b"/><path d="M60,46H5a2,2,0,0,0,2,2H62A2,2,0,0,0,60,46Z" style="fill:#576b76"/><circle cx="53" cy="39" r="3" style="fill:#d8b42f"/><path d="M32,21c-.334,0-.667.011-1,.015V41.954c.332.03.666.046,1,.046s.668-.016,1-.046V21.015C32.667,21.011,32.334,21,32,21Z" style="fill:#738993"/><path d="M11,36a2.965,2.965,0,0,0-1.554.446A2.965,2.965,0,0,0,9,38a3,3,0,0,0,3,3,2.965,2.965,0,0,0,1.554-.446A2.965,2.965,0,0,0,14,39,3,3,0,0,0,11,36Z" style="fill:#f9d647"/><path d="M53,36a2.965,2.965,0,0,0-1.554.446A2.965,2.965,0,0,0,51,38a3,3,0,0,0,3,3,2.965,2.965,0,0,0,1.554-.446A2.965,2.965,0,0,0,56,39,3,3,0,0,0,53,36Z" style="fill:#f9d647"/><path d="M48,50v6a3,3,0,0,0,3,3h4a3,3,0,0,0,3-3V50" style="fill:#313e44"/><path d="M51,51h7v5a3,3,0,0,1-3,3H51a2.965,2.965,0,0,1-1.554-.446A2.965,2.965,0,0,1,49,57V53A2,2,0,0,1,51,51Z" style="fill:#43525b"/><path d="M11,43a4,4,0,1,0-4-4A4,4,0,0,0,11,43Zm0-6a2,2,0,1,1-2,2A2,2,0,0,1,11,37Z"/><path d="M63,39.147a10.6,10.6,0,0,0-4.729-8.835L57,29.465v-1.3a5.375,5.375,0,0,0-3-4.821V15.3A11.3,11.3,0,0,0,42.7,4H21.3A11.3,11.3,0,0,0,10,15.3v8.04a5.375,5.375,0,0,0-3,4.821v1.3l-1.271.847A10.621,10.621,0,0,0,1.758,43.089l.9,2.244A2.991,2.991,0,0,0,4,51H5v5a4,4,0,0,0,4,4h4a4,4,0,0,0,4-4V51H47v5a4,4,0,0,0,4,4h4a4,4,0,0,0,4-4V51h1a2.991,2.991,0,0,0,1.344-5.667l.9-2.245A10.576,10.576,0,0,0,63,39.147Zm-15-17.4a73.977,73.977,0,0,0-32,0V16.7A6.7,6.7,0,0,1,22.7,10H41.3A6.7,6.7,0,0,1,48,16.7Zm-33.489,2.4A72.1,72.1,0,0,1,31,22.025V40.943a9.949,9.949,0,0,1-2.521-.582l-1.415-.53a9.513,9.513,0,0,1-5.707-5.923,17.955,17.955,0,0,0-7.595-9.568ZM33,22.025a72.1,72.1,0,0,1,16.489,2.128l.749.187a17.955,17.955,0,0,0-7.595,9.568,9.513,9.513,0,0,1-5.707,5.923l-1.414.53A9.966,9.966,0,0,1,33,40.943ZM12,15.3A9.3,9.3,0,0,1,21.3,6H42.7A9.3,9.3,0,0,1,52,15.3v7.418l-2-.5V16.7A8.7,8.7,0,0,0,41.3,8H22.7A8.7,8.7,0,0,0,14,16.7v5.517l-2,.5ZM6.839,31.976l1.716-1.144A1,1,0,0,0,9,30V28.162A3.375,3.375,0,0,1,10.967,25.1a15.962,15.962,0,0,1,8.493,9.444,11.5,11.5,0,0,0,6.9,7.163l1.415.53a12.027,12.027,0,0,0,8.447,0l1.414-.53a11.5,11.5,0,0,0,6.9-7.163A15.962,15.962,0,0,1,53.033,25.1,3.375,3.375,0,0,1,55,28.162V30a1,1,0,0,0,.445.832l1.716,1.144a8.618,8.618,0,0,1,3.224,10.369L59.323,45H4.677L3.615,42.346a8.62,8.62,0,0,1,3.224-10.37ZM15,56a2,2,0,0,1-2,2H9a2,2,0,0,1-2-2V51h8Zm42,0a2,2,0,0,1-2,2H51a2,2,0,0,1-2-2V51h8Zm3-7H4a1,1,0,0,1,0-2H60a1,1,0,0,1,0,2Z"/><path d="M53,43a4,4,0,1,0-4-4A4,4,0,0,0,53,43Zm0-6a2,2,0,1,1-2,2A2,2,0,0,1,53,37Z"/></g></svg>
