<?xml version="1.0" encoding="iso-8859-1"?>
<!-- Generator: Adobe Illustrator 21.0.0, SVG Export Plug-In . SVG Version: 6.00 Build 0)  -->
<svg version="1.1" id="Capa_1" xmlns="http://www.w3.org/2000/svg" xmlns:xlink="http://www.w3.org/1999/xlink" x="0px" y="0px"
	 viewBox="0 0 613.057 613.057" style="enable-background:new 0 0 613.057 613.057;" xml:space="preserve">
<g>
	<g>
		<g id="filled_outline_7_">
			<path style="fill:#69CCD7;" d="M433.185,246.063l-61.513-37.149c-29.555-20.152-64.49-30.93-100.265-30.93H227.9
				c-36.072,0.03-72.074,3.135-107.621,9.285l18.154,30.267L433.185,246.063z"/>
			<path style="fill:#4394CC;" d="M529.247,255.052l-96.062-8.988l-294.752-28.527l-18.154-30.267
				c-10.066,1.74-20.112,3.619-30.099,5.834l-20.963,4.657v19.776l-48.966,24.483c-6.338,3.184-10.353,9.661-10.363,16.76v69.651
				c0.01,4.964,1.978,9.73,5.488,13.25l34.064,34.064c0-32.769,26.559-59.328,59.328-59.328s59.328,26.559,59.328,59.328H454.85
				c0-32.769,26.559-59.328,59.328-59.328s59.328,26.559,59.328,59.328h19.776l9.888-50.192
				C597.999,287.682,567.316,258.423,529.247,255.052z"/>
			<path style="fill:#3E89BD;" d="M141.537,326.305c16.592,10.976,26.569,29.545,26.559,49.44H454.85
				c-0.01-19.895,9.967-38.464,26.559-49.44H141.537z"/>
			<path style="fill:#3E89BD;" d="M9.888,326.305v2.126c0.01,4.964,1.978,9.73,5.488,13.25l34.064,34.064
				C49.43,355.85,59.407,337.28,76,326.305H9.888z"/>
			<path style="fill:#3E89BD;" d="M546.947,326.305c16.592,10.976,26.569,29.545,26.559,49.44h19.776l9.74-49.44H546.947z"/>
			<circle style="fill:#697B8C;" cx="108.769" cy="375.745" r="59.328"/>
			<circle style="fill:#697B8C;" cx="514.178" cy="375.745" r="59.328"/>
			<circle style="fill:#D0D7DF;" cx="108.769" cy="375.745" r="19.776"/>
			<circle style="fill:#D0D7DF;" cx="514.178" cy="375.745" r="19.776"/>
			<path d="M108.769,444.961c34.381-0.04,63.511-25.303,68.425-59.328h268.559c5.429,37.792,40.462,64.025,78.254,58.596
				c30.376-4.361,54.236-28.22,58.596-58.596h10.679c4.727,0,8.79-3.342,9.7-7.98l9.888-50.192c0.227-1.147,0.247-2.334,0.059-3.49
				c-5.824-42.37-40.205-75.07-82.812-78.748l-94.203-9.038l-58.676-35.458c-31.167-21.299-68.049-32.67-105.802-32.631h-43.507
				c-36.635,0.04-73.201,3.204-109.302,9.433l0,0c-11.717,1.978-21.417,3.886-30.554,5.933l-20.963,4.657
				c-4.539,0.989-7.772,5.003-7.782,9.641v13.665l-43.507,21.754c-9.73,4.815-15.86,14.743-15.821,25.6v69.651
				c-0.02,7.594,2.996,14.882,8.385,20.241l31.385,31.385C42.044,416.503,72.252,444.922,108.769,444.961z M108.769,425.185
				c-27.301,0-49.44-22.139-49.44-49.44s22.139-49.44,49.44-49.44s49.44,22.139,49.44,49.44
				C158.179,403.036,136.06,425.155,108.769,425.185z M514.178,425.185c-27.301,0-49.44-22.139-49.44-49.44
				s22.139-49.44,49.44-49.44c27.301,0,49.44,22.139,49.44,49.44C563.588,403.036,541.469,425.155,514.178,425.185z M528.338,264.89
				h0.089c12.123,0.989,23.781,5.112,33.827,11.974h-8.523v19.776h27.687c5.814,8.701,9.789,18.5,11.688,28.794l-7.95,40.422h-2.462
				c-0.109-0.761-0.297-1.503-0.435-2.254c-0.168-0.939-0.326-1.869-0.534-2.788c-0.277-1.266-0.613-2.512-0.989-3.748
				c-0.247-0.86-0.465-1.73-0.742-2.581c-0.425-1.305-0.91-2.571-1.414-3.846c-0.287-0.732-0.544-1.483-0.86-2.215
				c-0.633-1.473-1.345-2.897-2.076-4.311c-0.257-0.484-0.465-0.989-0.732-1.473c-1.028-1.889-2.146-3.718-3.342-5.488
				c-0.208-0.326-0.455-0.613-0.682-0.93c-0.989-1.434-1.978-2.838-3.135-4.193c-0.455-0.564-0.989-1.088-1.444-1.641
				c-0.92-1.058-1.839-2.106-2.818-3.095c-0.583-0.593-1.196-1.147-1.8-1.721c-0.939-0.89-1.889-1.78-2.877-2.62
				c-0.672-0.564-1.355-1.098-2.047-1.632c-0.989-0.781-1.978-1.533-2.966-2.254c-0.742-0.524-1.493-0.989-2.255-1.503
				c-1.038-0.672-2.086-1.315-3.164-1.978c-0.801-0.455-1.602-0.89-2.413-1.315c-1.098-0.574-2.225-1.107-3.352-1.622
				c-0.84-0.376-1.671-0.751-2.521-1.098c-1.177-0.475-2.373-0.9-3.579-1.305c-0.85-0.297-1.691-0.603-2.561-0.86
				c-1.276-0.376-2.571-0.682-3.866-0.989c-0.841-0.198-1.671-0.415-2.521-0.583c-1.454-0.287-2.966-0.484-4.41-0.682
				c-0.732-0.089-1.444-0.227-2.185-0.297c-2.245-0.178-4.509-0.306-6.793-0.306s-4.548,0.129-6.773,0.346
				c-0.742,0.069-1.454,0.208-2.185,0.297c-1.483,0.198-2.966,0.396-4.41,0.682c-0.85,0.168-1.681,0.386-2.512,0.583
				c-1.305,0.307-2.601,0.623-3.876,0.989c-0.87,0.257-1.711,0.564-2.561,0.86c-1.206,0.405-2.403,0.831-3.579,1.305
				c-0.85,0.346-1.681,0.722-2.521,1.098c-1.127,0.514-2.254,1.048-3.352,1.622c-0.811,0.425-1.612,0.86-2.413,1.315
				c-1.078,0.613-2.126,1.256-3.174,1.978c-0.751,0.484-1.503,0.989-2.245,1.493c-0.989,0.722-1.978,1.483-2.966,2.264
				c-0.692,0.534-1.374,1.068-2.047,1.632c-0.989,0.84-1.978,1.73-2.877,2.62c-0.603,0.573-1.216,1.127-1.8,1.721
				c-0.989,0.989-1.898,2.037-2.818,3.095c-0.475,0.554-0.989,1.078-1.444,1.641c-1.117,1.365-2.165,2.788-3.174,4.232
				c-0.208,0.306-0.435,0.583-0.643,0.88c-1.196,1.78-2.304,3.609-3.342,5.498c-0.267,0.475-0.475,0.989-0.732,1.473
				c-0.732,1.414-1.444,2.838-2.076,4.311c-0.316,0.732-0.573,1.483-0.86,2.215c-0.504,1.276-0.989,2.541-1.414,3.846
				c-0.277,0.85-0.494,1.711-0.742,2.571c-0.346,1.246-0.682,2.492-0.989,3.767c-0.198,0.91-0.356,1.839-0.524,2.769
				c-0.138,0.751-0.326,1.493-0.435,2.264H285.389l-4.46-29.664h144.257v-19.816H277.973l-11.49-76.553l165.793,16.038
				L528.338,264.89z M271.397,187.872c33.975-0.01,67.159,10.274,95.162,29.506l23.87,14.417l-126.982-12.192l-4.766-31.731H271.397
				z M227.89,187.872h10.778l4.469,29.783l-98.772-9.483l-8.079-13.448C166.614,190.196,197.237,187.902,227.89,187.872
				L227.89,187.872z M19.776,276.865h39.552v-19.776H20.014c0.494-2.69,2.215-4.993,4.657-6.22l48.966-24.433
				c3.372-1.681,5.488-5.132,5.468-8.899v-11.866l13.22-2.966c7.04-1.562,14.456-3.036,22.97-4.568l14.664,24.443
				c1.612,2.68,4.4,4.44,7.515,4.746l108.739,10.57l11.757,78.521h-70.096v19.776h73.053l4.46,29.664h-88.102
				c-0.109-0.761-0.297-1.503-0.435-2.254c-0.168-0.939-0.326-1.869-0.534-2.788c-0.277-1.266-0.613-2.512-0.989-3.748
				c-0.247-0.86-0.465-1.73-0.742-2.581c-0.425-1.305-0.91-2.571-1.414-3.846c-0.287-0.732-0.544-1.483-0.86-2.215
				c-0.633-1.473-1.345-2.897-2.076-4.311c-0.257-0.484-0.465-0.989-0.732-1.473c-1.028-1.889-2.146-3.718-3.342-5.488
				c-0.208-0.326-0.455-0.613-0.682-0.93c-0.989-1.434-1.978-2.838-3.135-4.193c-0.455-0.564-0.989-1.088-1.444-1.641
				c-0.92-1.058-1.839-2.106-2.818-3.095c-0.583-0.593-1.196-1.147-1.8-1.721c-0.989-0.89-1.889-1.78-2.877-2.62
				c-0.672-0.564-1.355-1.098-2.047-1.632c-0.989-0.781-1.978-1.533-2.966-2.254c-0.742-0.524-1.493-0.989-2.254-1.503
				c-0.989-0.672-2.086-1.315-3.164-1.978c-0.801-0.455-1.602-0.89-2.413-1.315c-1.098-0.574-2.225-1.107-3.352-1.622
				c-0.84-0.376-1.671-0.751-2.521-1.098c-1.177-0.475-2.373-0.9-3.579-1.305c-0.85-0.297-1.691-0.603-2.561-0.86
				c-1.276-0.376-2.571-0.682-3.866-0.989c-0.84-0.198-1.671-0.415-2.521-0.583c-1.454-0.287-2.966-0.484-4.41-0.682
				c-0.732-0.089-1.444-0.227-2.185-0.297c-2.245-0.178-4.509-0.306-6.793-0.306c-3.411,0.02-6.823,0.307-10.195,0.84
				c-0.672,0.099-1.355,0.188-2.027,0.307c-3.164,0.564-6.289,1.345-9.344,2.343c-0.554,0.178-1.088,0.396-1.632,0.593
				c-2.798,0.999-5.527,2.165-8.168,3.51c-0.356,0.188-0.742,0.336-1.098,0.534c-0.989,0.544-1.978,1.167-2.966,1.76H19.776V276.865
				z M52.051,336.193c-1.79,2.561-3.401,5.241-4.825,8.019c-0.287,0.564-0.554,1.137-0.831,1.721
				c-1.424,2.907-2.64,5.913-3.629,8.998v0.109L23.87,336.193H52.051z"/>
			<rect x="435.074" y="276.865" width="19.776" height="19.776"/>
			<rect x="138.433" y="257.088" width="39.552" height="19.776"/>
			<rect x="296.641" y="266.977" width="39.552" height="19.776"/>
			<path d="M108.769,346.081c-16.384,0-29.664,13.28-29.664,29.664s13.28,29.664,29.664,29.664s29.664-13.28,29.664-29.664
				S125.153,346.081,108.769,346.081z M108.769,385.633c-5.458,0-9.888-4.43-9.888-9.888c0-5.458,4.43-9.888,9.888-9.888
				c5.458,0,9.888,4.43,9.888,9.888C118.657,381.203,114.227,385.633,108.769,385.633z"/>
			<path d="M514.178,346.081c-16.384,0-29.664,13.28-29.664,29.664s13.28,29.664,29.664,29.664c16.385,0,29.664-13.28,29.664-29.664
				S530.562,346.081,514.178,346.081z M514.178,385.633c-5.458,0-9.888-4.43-9.888-9.888c0-5.458,4.43-9.888,9.888-9.888
				c5.458,0,9.888,4.43,9.888,9.888C524.066,381.203,519.636,385.633,514.178,385.633z"/>
		</g>
	</g>
</g>
<g>
</g>
<g>
</g>
<g>
</g>
<g>
</g>
<g>
</g>
<g>
</g>
<g>
</g>
<g>
</g>
<g>
</g>
<g>
</g>
<g>
</g>
<g>
</g>
<g>
</g>
<g>
</g>
<g>
</g>
</svg>
