<?xml version="1.0" encoding="iso-8859-1"?>
<!-- Generator: Adobe Illustrator 19.0.0, SVG Export Plug-In . SVG Version: 6.00 Build 0)  -->
<svg xmlns="http://www.w3.org/2000/svg" xmlns:xlink="http://www.w3.org/1999/xlink" version="1.1" id="Layer_1" x="0px" y="0px" viewBox="0 0 511.992 511.992" style="enable-background:new 0 0 511.992 511.992;" xml:space="preserve">
<path style="fill:#FDD834;" d="M375.439,29.956c0.034,11.748-9.453,21.295-21.201,21.329c-0.043,0-0.085,0-0.128,0H153.617  c0,0-42.658,0-42.658,85.316v127.974h-51.19V136.601c0-136.506,93.848-127.974,93.848-127.974H354.11  C365.884,8.626,375.43,18.173,375.439,29.956z"/>
<path style="fill:#FFEB3A;" d="M349.844,21.424c0.034,11.748-9.453,21.295-21.201,21.329c-0.043,0-0.085,0-0.128,0H128.022  c0,0-42.658,0-42.658,85.316v127.974H59.769V136.601c0-136.506,93.848-127.974,93.848-127.974h191.962  C348.334,12.321,349.827,16.808,349.844,21.424z"/>
<g>
	<circle style="fill:#37474F;" cx="401.068" cy="443.722" r="59.721"/>
	<circle style="fill:#37474F;" cx="93.929" cy="443.722" r="59.721"/>
</g>
<path d="M401.034,511.992c-37.633,0-68.253-30.62-68.253-68.253s30.62-68.253,68.253-68.253s68.253,30.62,68.253,68.253  S438.667,511.992,401.034,511.992z M401.034,392.55c-28.231,0-51.19,22.959-51.19,51.19c0,28.231,22.959,51.19,51.19,51.19  s51.19-22.959,51.19-51.19C452.224,415.508,429.265,392.55,401.034,392.55z"/>
<g>
	<circle style="fill:#424242;" cx="401.068" cy="443.722" r="25.595"/>
	<circle style="fill:#424242;" cx="93.929" cy="443.722" r="25.595"/>
</g>
<path d="M401.034,477.866c-18.821,0-34.126-15.306-34.126-34.127c0-18.821,15.306-34.126,34.126-34.126s34.126,15.306,34.126,34.126  C435.16,462.56,419.855,477.866,401.034,477.866z M401.034,426.676c-9.41,0-17.063,7.653-17.063,17.063  c0,9.41,7.653,17.063,17.063,17.063s17.063-7.653,17.063-17.063C418.097,434.329,410.444,426.676,401.034,426.676z"/>
<path d="M93.895,511.992c-37.633,0-68.253-30.62-68.253-68.253s30.62-68.253,68.253-68.253s68.253,30.62,68.253,68.253  S131.528,511.992,93.895,511.992z M93.895,392.55c-28.231,0-51.19,22.959-51.19,51.19c0,28.231,22.959,51.19,51.19,51.19  s51.19-22.959,51.19-51.19C145.085,415.508,122.126,392.55,93.895,392.55z"/>
<path d="M93.895,477.866c-18.821,0-34.127-15.306-34.127-34.127c0-18.821,15.306-34.126,34.127-34.126s34.127,15.306,34.127,34.126  C128.022,462.56,112.716,477.866,93.895,477.866z M93.895,426.676c-9.41,0-17.063,7.653-17.063,17.063  c0,9.41,7.653,17.063,17.063,17.063s17.063-7.653,17.063-17.063C110.959,434.329,103.306,426.676,93.895,426.676z"/>
<path style="fill:#C52828;" d="M476.198,270.547c-0.938-0.538-1.911-1.015-2.901-1.45c-6.629-2.986-13.804-4.522-21.073-4.522  h-102.38v8.532c-0.026,28.265-22.924,51.164-51.19,51.19H162.148c-28.248,0.026-51.164-22.848-51.19-51.096c0-0.034,0-0.06,0-0.094  v-8.532h-51.19c-28.265,0.026-51.164,22.924-51.19,51.19v51.19c0.026,9.41,7.653,17.038,17.063,17.063h68.253  c23.078-0.06,44.1,13.25,53.92,34.126c3.848,7.977,5.836,16.731,5.802,25.595h187.696c-0.026-32.958,26.678-59.696,59.636-59.721  c0.026,0,0.06,0,0.085,0h85.316c9.41-0.026,17.038-7.653,17.063-17.063v-51.19C503.422,296.808,492.954,279.403,476.198,270.547z"/>
<path style="fill:#F44335;" d="M477.819,290.17v51.19c-0.026,9.41-7.653,17.038-17.063,17.063h-85.316  c-32.958-0.026-59.696,26.678-59.721,59.636c0,0.026,0,0.06,0,0.085H147.815c-9.82-20.877-30.842-34.186-53.92-34.126H25.642  c-9.41-0.026-17.038-7.653-17.063-17.063v-51.19c0.026-28.265,22.924-51.164,51.19-51.19h51.19v8.532  c-0.026,28.248,22.848,51.164,51.096,51.19c0.034,0,0.06,0,0.094,0h136.506c28.265-0.026,51.164-22.924,51.19-51.19v-8.532h102.38  c7.269,0,14.444,1.536,21.073,4.522C476.291,275.718,477.827,282.901,477.819,290.17z"/>
<path d="M341.313,452.271H153.617c-4.709,0-8.532-3.814-8.532-8.532c-0.017-28.265-22.959-51.19-51.147-51.19  c-0.009,0-0.026,0-0.034,0H25.642C11.557,392.498,0.09,381.023,0.047,366.98v-51.215v-0.009  c0.026-32.898,26.815-59.696,59.721-59.713h51.19c4.709,0,8.532,3.822,8.532,8.532v8.532c0.017,23.496,19.162,42.641,42.667,42.658  h136.497c23.496-0.017,42.641-19.162,42.658-42.667v-8.523c0-4.709,3.814-8.532,8.532-8.532h102.38  c32.906,0.017,59.704,26.815,59.721,59.713v51.198c-0.034,14.069-11.509,25.544-25.561,25.595h-85.35  c-28.282,0.026-51.215,22.976-51.19,51.181c0,2.269-0.896,4.445-2.5,6.04C345.74,451.367,343.582,452.271,341.313,452.271z   M161.619,435.208h171.682c4.189-33.598,32.915-59.696,67.639-59.721h85.41c4.684-0.017,8.523-3.856,8.532-8.557v-51.164  c-0.017-23.505-19.154-42.641-42.667-42.658h-93.839c-0.026,32.898-26.823,59.696-59.713,59.721H162.148  c-32.906-0.026-59.696-26.823-59.721-59.713v-0.009H59.769c-23.505,0.017-42.641,19.153-42.658,42.667v51.181  c0.009,4.675,3.856,8.515,8.557,8.532h68.227c0.017,0,0.034,0,0.051,0C128.679,375.486,157.43,401.585,161.619,435.208z"/>
<polygon style="fill:#FDD834;" points="426.629,264.575 349.844,264.575 327.321,76.879 324.249,51.285 349.844,51.285 "/>
<polygon style="fill:#FFEB3A;" points="394.891,264.575 349.844,264.575 327.321,76.879 "/>
<path d="M426.629,273.107h-76.785c-4.317,0-7.96-3.225-8.472-7.516L315.777,52.3c-0.29-2.423,0.478-4.854,2.09-6.68  c1.612-1.826,3.942-2.867,6.382-2.867h25.595c3.6,0,6.808,2.261,8.02,5.639l76.785,213.291c0.938,2.619,0.555,5.52-1.041,7.798  C432.012,271.759,429.402,273.107,426.629,273.107z M357.412,256.044h57.077L343.846,59.816h-9.982L357.412,256.044z"/>
<path style="fill:#37474F;" d="M426.629,256.044c-0.009,2.85,0.171,5.699,0.512,8.532h25.083c8.361-0.017,16.594,2.031,23.974,5.972  c1.118-4.752,1.664-9.624,1.621-14.504c0-23.547-11.432-42.658-25.595-42.658S426.629,232.496,426.629,256.044z"/>
<path d="M476.198,279.07c-1.382,0-2.764-0.333-4.018-0.998c-6.092-3.251-12.951-4.965-19.853-4.965c-0.026,0-0.06,0-0.085,0h-25.1  c-4.317,0-7.96-3.225-8.472-7.508c-0.384-3.208-0.572-6.433-0.563-9.59c0.009-28.692,14.999-51.164,34.126-51.164  c19.136,0,34.127,22.489,34.127,51.19c0.051,5.511-0.572,11.066-1.86,16.466c-0.606,2.577-2.372,4.727-4.795,5.81  C478.586,278.823,477.383,279.07,476.198,279.07z M452.343,256.044c5.725,0,11.432,0.845,16.91,2.474  c0.026-0.802,0.043-1.604,0.034-2.406c0-19.606-9.009-34.195-17.063-34.195s-17.063,14.589-17.063,34.127l0,0h17.063  C452.266,256.044,452.3,256.044,452.343,256.044z"/>
<path d="M460.755,358.423c-23.522,0-42.658-15.306-42.658-34.126c0-18.821,19.136-34.127,42.658-34.127  c4.718,0,8.532,3.814,8.532,8.532v51.19C469.287,354.609,465.473,358.423,460.755,358.423z M452.224,308.249  c-9.828,2.397-17.063,8.779-17.063,16.048c0,7.269,7.235,13.651,17.063,16.048V308.249z"/>
<path d="M128.022,401.081c-4.709,0-8.532-3.814-8.532-8.532v-76.785c0-4.718,3.822-8.532,8.532-8.532  c4.709,0,8.532,3.814,8.532,8.532v76.785C136.553,397.268,132.731,401.081,128.022,401.081z"/>
<path d="M315.718,452.271c-4.718,0-8.532-3.814-8.532-8.532V324.297c0-4.718,3.814-8.532,8.532-8.532  c4.718,0,8.532,3.814,8.532,8.532v119.443C324.249,448.457,320.436,452.271,315.718,452.271z"/>
<path d="M64.035,358.423c-16.466,0-29.861-13.395-29.861-29.861s13.395-29.861,29.861-29.861s29.861,13.395,29.861,29.861  S80.501,358.423,64.035,358.423z M64.035,315.765c-7.056,0-12.797,5.742-12.797,12.797c0,7.056,5.742,12.797,12.797,12.797  s12.797-5.742,12.797-12.797C76.832,321.507,71.09,315.765,64.035,315.765z"/>
<path d="M179.212,375.486h-17.063c-4.709,0-8.532-3.814-8.532-8.532c0-4.718,3.822-8.532,8.532-8.532h17.063  c4.709,0,8.532,3.814,8.532,8.532C187.743,371.673,183.921,375.486,179.212,375.486z"/>
<path d="M110.959,273.107h-51.19c-4.709,0-8.532-3.814-8.532-8.532V136.601c0-51.574,12.968-89.574,38.546-112.925  c28.973-26.457,63.168-23.641,64.61-23.547l199.725-0.034c16.466,0,29.861,13.395,29.861,29.861s-13.395,29.861-29.861,29.861  h-4.266c-4.718,0-8.532-3.822-8.532-8.532s3.814-8.532,8.532-8.532h4.266c7.056,0,12.797-5.742,12.797-12.797  s-5.742-12.797-12.797-12.797H153.625c-1.041-0.06-29.272-2.124-52.555,19.324C79.332,56.497,68.309,90.18,68.309,136.601v119.443  h34.127V136.601c0-92.781,49.1-93.848,51.19-93.848h170.633c4.718,0,8.532,3.822,8.532,8.532s-3.814,8.532-8.532,8.532H153.625  c-1.246,0.051-34.127,2.184-34.127,76.785v127.974C119.49,269.293,115.668,273.107,110.959,273.107z"/>
<path style="fill:#37474F;" d="M315.718,315.765h-34.127l0,0v-85.316c0-4.709,3.822-8.532,8.532-8.532l0,0  c14.137,0,25.595,11.458,25.595,25.595V315.765L315.718,315.765z"/>
<path d="M315.718,324.297h-34.127c-4.718,0-8.532-3.814-8.532-8.532v-85.316c0-9.41,7.653-17.063,17.063-17.063  c18.821,0,34.126,15.306,34.126,34.127v68.253C324.249,320.483,320.436,324.297,315.718,324.297z M290.123,307.233h17.063v-59.721  c0-9.41-7.653-17.063-17.063-17.063V307.233z"/>
<g>
</g>
<g>
</g>
<g>
</g>
<g>
</g>
<g>
</g>
<g>
</g>
<g>
</g>
<g>
</g>
<g>
</g>
<g>
</g>
<g>
</g>
<g>
</g>
<g>
</g>
<g>
</g>
<g>
</g>
</svg>
