<?xml version="1.0" encoding="iso-8859-1"?>
<!-- Generator: Adobe Illustrator 19.0.0, SVG Export Plug-In . SVG Version: 6.00 Build 0)  -->
<svg xmlns="http://www.w3.org/2000/svg" xmlns:xlink="http://www.w3.org/1999/xlink" version="1.1" id="Layer_1" x="0px" y="0px" viewBox="0 0 511.992 511.992" style="enable-background:new 0 0 511.992 511.992;" xml:space="preserve">
<path style="fill:#C52828;" d="M503.467,311.506c0.009,27.887-13.15,54.144-35.499,70.827c-1.502,1.118-3.328,1.715-5.205,1.707  h-21.504c-4.028,6.426-9.037,12.186-14.848,17.067c-9.327,7.91-20.514,13.321-32.512,15.701h-0.085  c-4.642,0.896-9.353,1.348-14.08,1.365c-25.02-0.017-48.265-12.911-61.525-34.133H185.259c-4.028,6.426-9.037,12.186-14.848,17.067  c-9.327,7.91-20.514,13.321-32.512,15.701h-0.085c-4.642,0.896-9.353,1.348-14.08,1.365c-28.954-0.009-55.134-17.254-66.56-43.861  c-20.915,5.291-42.155-7.364-47.454-28.279c-0.734-2.918-1.135-5.914-1.186-8.926c-0.009-10.428,4.284-20.403,11.861-27.563  c-10.82-39.543,6.758-81.357,42.581-101.291c13.372-35.507,37.931-65.698,69.973-86.016  c83.285-53.393,194.091-29.167,247.492,54.127c9.173,14.302,16.256,29.841,21.052,46.14c50.227-5.769,95.625,30.268,101.393,80.495  C503.211,305.822,503.407,308.664,503.467,311.506z"/>
<path style="fill:#F44335;" d="M469.333,328.572c0.026,20.198-6.903,39.782-19.627,55.467c-4.642,5.751-9.975,10.906-15.872,15.36  c-1.502,1.118-3.328,1.715-5.205,1.707h-21.504c-3.669,5.811-8.124,11.102-13.227,15.701h-0.085  c-4.642,0.896-9.353,1.348-14.08,1.365c-25.02-0.017-48.265-12.911-61.525-34.133H185.259c-4.028,6.426-9.037,12.186-14.848,17.067  h-19.285c-3.669,5.811-8.124,11.102-13.227,15.701h-0.085c-4.642,0.896-9.353,1.348-14.08,1.365  c-28.954-0.009-55.134-17.254-66.56-43.861c-20.915,5.291-42.155-7.364-47.454-28.279c-0.734-2.918-1.135-5.914-1.186-8.926  c-0.009-10.428,4.284-20.403,11.861-27.563c-10.82-39.543,6.758-81.357,42.581-101.291c13.372-35.507,37.931-65.698,69.973-86.016  c20.13-7.458,41.421-11.273,62.891-11.264c79.548-0.452,149.658,52.113,171.52,128.597c50.227-5.769,95.625,30.268,101.393,80.495  C469.077,322.889,469.274,325.731,469.333,328.572z"/>
<path d="M123.605,426.731c-14.967,0-29.679-4.173-42.701-12.288c-12.169-7.586-21.965-18.082-28.629-30.626  c-10.078,1.015-20.19-1.195-29.056-6.485c-10.923-6.511-18.654-16.887-21.777-29.21c-0.896-3.558-1.382-7.219-1.442-10.88  c-0.009-11.119,3.951-21.828,10.999-30.165c-9.088-41.003,8.977-83.106,45.133-104.73c18.372-45.355,53.035-81.135,97.894-100.975  c45.79-20.258,96.717-21.444,143.403-3.379c51.84,20.053,92.587,62.925,110.165,115.465c51.814-2.261,97.732,36.113,103.765,88.559  c0.358,3.089,0.563,6.204,0.631,9.31c0,0.06,0,0.119,0,0.179c-0.017,30.404-14.558,59.435-38.886,77.653  c-2.995,2.21-6.63,3.405-10.308,3.405c-0.026,0-0.051,0-0.077,0h-16.905c-24.602,34.705-72.439,44.629-108.988,21.854  c-9.062-5.649-16.99-13.15-23.185-21.854H189.824c-11.469,16.205-28.262,27.52-47.77,32.034  C135.936,426.031,129.749,426.731,123.605,426.731z M57.182,365.769c3.345,0,6.468,1.971,7.834,5.163  c5.171,12.041,13.79,22.076,24.917,29.013c14.49,9.037,31.633,11.887,48.273,8.021s30.771-13.969,39.808-28.459  c1.562-2.5,4.292-4.019,7.245-4.019h132.949c2.944,0,5.683,1.519,7.245,4.019c5.137,8.226,12.194,15.283,20.42,20.42  c29.943,18.679,69.478,9.515,88.149-20.42c1.562-2.5,4.301-4.019,7.245-4.019h21.513c20.139-15.002,32.119-38.886,32.162-63.915  c-0.06-2.543-0.222-5.086-0.521-7.62c-5.222-45.474-46.413-78.268-91.947-72.994c-4.156,0.478-8.004-2.091-9.165-6.076  c-14.788-50.509-52.932-91.998-102.016-110.993c-42.445-16.418-88.747-15.326-130.347,3.072  c-41.617,18.398-73.583,51.908-90.001,94.345c-0.717,1.86-2.065,3.405-3.806,4.378c-32.495,18.091-48.324,55.757-38.519,91.605  c0.836,3.029-0.077,6.281-2.364,8.448c-5.845,5.53-9.199,13.312-9.19,21.359c0.034,2.219,0.35,4.557,0.93,6.844  c1.997,7.902,6.955,14.558,13.961,18.731s15.215,5.393,23.117,3.362C55.782,365.854,56.482,365.769,57.182,365.769z"/>
<path style="fill:#00838F;" d="M365.483,221.906H332.8c0,0-1.28-1.877-3.669-4.693c-19.883-48.469-64.589-82.261-116.651-88.149  c5.803-0.683,11.648-1.024,17.493-1.024C290.381,127.74,344.525,165.244,365.483,221.906z"/>
<g>
	<path style="fill:#00BCD4;" d="M329.131,217.212c-9.455-12.177-23.62-19.772-38.997-20.907v25.6H94.293l0.683-1.707   c19.2-49.809,64.401-84.89,117.419-91.136h0.085C264.542,134.951,309.248,168.734,329.131,217.212z"/>
	<path style="fill:#00BCD4;" d="M330.923,221.906H298.24c-2.406-3.405-5.12-6.571-8.107-9.472v-16.128   c15.377,1.135,29.542,8.73,38.997,20.907C329.728,218.748,330.325,220.37,330.923,221.906z"/>
</g>
<path d="M365.483,230.439H332.8c-2.85,0-5.513-1.425-7.1-3.797c-0.119-0.171-10.982-16.009-27.034-20.582v15.846  c0,4.71-3.814,8.533-8.533,8.533H94.293c-2.833,0-5.478-1.408-7.066-3.746c-1.587-2.338-1.911-5.325-0.862-7.953l0.683-1.707  c14.882-38.093,43.75-68.173,81.271-84.625s79.206-17.306,117.367-2.398c40.491,15.812,72.482,48.213,87.774,88.892  c0.99,2.62,0.623,5.555-0.964,7.859C370.91,229.065,368.282,230.439,365.483,230.439z M337.05,213.372h15.488  c-14.916-30.711-40.994-54.938-73.062-67.465c-33.911-13.252-70.963-12.476-104.303,2.133c-30.029,13.158-53.82,36.13-67.925,65.331  H281.6v-17.067c0-4.71,3.814-8.533,8.533-8.533C313.711,187.772,330.615,205.394,337.05,213.372z"/>
<g>
	<path style="fill:#37474F;" d="M196.267,345.639c-0.026,40.047-32.486,72.508-72.533,72.533   c-5.751,0.017-11.486-0.666-17.067-2.048c-38.929-9.421-62.848-48.606-53.436-87.535c6.391-26.419,27.017-47.044,53.436-53.436   c5.581-1.382,11.315-2.065,17.067-2.048C163.78,273.131,196.241,305.592,196.267,345.639z"/>
	<path style="fill:#37474F;" d="M452.267,345.639c-0.026,40.047-32.486,72.508-72.533,72.533   c-5.751,0.017-11.486-0.666-17.067-2.048c-38.929-9.421-62.848-48.606-53.436-87.535c6.391-26.419,27.017-47.044,53.436-53.436   c5.581-1.382,11.315-2.065,17.067-2.048C419.78,273.131,452.241,305.592,452.267,345.639z"/>
</g>
<g>
	<path style="fill:#607D8B;" d="M162.133,345.639c-0.017,33.476-22.938,62.592-55.467,70.485   c-38.929-9.421-62.848-48.606-53.436-87.535c6.391-26.419,27.017-47.044,53.436-53.436   C139.196,283.038,162.116,312.163,162.133,345.639z"/>
	<path style="fill:#607D8B;" d="M418.133,345.639c-0.017,33.476-22.938,62.592-55.467,70.485   c-38.929-9.421-62.848-48.606-53.436-87.535c6.391-26.419,27.017-47.044,53.436-53.436   C395.196,283.038,418.116,312.163,418.133,345.639z"/>
</g>
<path d="M123.733,426.706c-44.698,0-81.067-36.369-81.067-81.067s36.369-81.067,81.067-81.067s81.067,36.369,81.067,81.067  S168.431,426.706,123.733,426.706z M123.733,281.639c-35.294,0-64,28.706-64,64s28.706,64,64,64s64-28.706,64-64  S159.027,281.639,123.733,281.639z"/>
<g>
	<circle style="fill:#424242;" cx="123.733" cy="345.639" r="38.4"/>
	<circle style="fill:#424242;" cx="379.733" cy="345.639" r="38.4"/>
</g>
<path d="M123.733,392.572c-25.882,0-46.933-21.06-46.933-46.933s21.052-46.933,46.933-46.933s46.933,21.06,46.933,46.933  S149.615,392.572,123.733,392.572z M123.733,315.772c-16.469,0-29.867,13.397-29.867,29.867s13.397,29.867,29.867,29.867  s29.867-13.397,29.867-29.867S140.203,315.772,123.733,315.772z"/>
<path d="M379.733,426.706c-44.698,0-81.067-36.369-81.067-81.067s36.369-81.067,81.067-81.067s81.067,36.369,81.067,81.067  S424.431,426.706,379.733,426.706z M379.733,281.639c-35.294,0-64,28.706-64,64s28.706,64,64,64s64-28.706,64-64  S415.027,281.639,379.733,281.639z"/>
<path d="M379.733,392.572c-25.873,0-46.933-21.06-46.933-46.933s21.06-46.933,46.933-46.933s46.933,21.06,46.933,46.933  S405.606,392.572,379.733,392.572z M379.733,315.772c-16.469,0-29.867,13.397-29.867,29.867s13.397,29.867,29.867,29.867  s29.867-13.397,29.867-29.867S396.203,315.772,379.733,315.772z"/>
<path d="M179.2,230.439c-4.71,0-8.533-3.823-8.533-8.533v-76.8c0-4.71,3.823-8.533,8.533-8.533s8.533,3.823,8.533,8.533v76.8  C187.733,226.616,183.91,230.439,179.2,230.439z"/>
<path d="M230.4,324.306c-4.71,0-8.533-3.814-8.533-8.533c0-51.738-50.27-59.511-52.412-59.819c-4.659-0.666-7.902-4.983-7.236-9.651  c0.666-4.668,4.958-7.902,9.651-7.236c23.194,3.302,67.063,23.603,67.063,76.706C238.933,320.491,235.11,324.306,230.4,324.306z"/>
<path style="fill:#424242;" d="M332.8,221.906v8.533c0,4.71-3.823,8.533-8.533,8.533h-25.6c-4.71,0-8.533-3.823-8.533-8.533v-34.133  C315.733,196.305,332.8,221.906,332.8,221.906z"/>
<path d="M324.267,247.506h-25.6c-9.412,0-17.067-7.654-17.067-17.067v-34.133c0-4.71,3.814-8.533,8.533-8.533  c29.824,0,48.964,28.203,49.766,29.397c0.93,1.399,1.434,3.055,1.434,4.736v8.533C341.333,239.851,333.679,247.506,324.267,247.506z   M298.667,206.059v24.38h25.6v-5.717C320.802,220.318,311.347,209.669,298.667,206.059z"/>
<g>
</g>
<g>
</g>
<g>
</g>
<g>
</g>
<g>
</g>
<g>
</g>
<g>
</g>
<g>
</g>
<g>
</g>
<g>
</g>
<g>
</g>
<g>
</g>
<g>
</g>
<g>
</g>
<g>
</g>
</svg>
