<?xml version="1.0" encoding="iso-8859-1"?>
<!-- Generator: Adobe Illustrator 21.0.0, SVG Export Plug-In . SVG Version: 6.00 Build 0)  -->
<svg version="1.1" id="Capa_1" xmlns="http://www.w3.org/2000/svg" xmlns:xlink="http://www.w3.org/1999/xlink" x="0px" y="0px"
	 viewBox="0 0 593.282 593.282" style="enable-background:new 0 0 593.282 593.282;" xml:space="preserve">
<g>
	<g>
		<g id="filled_outline_25_">
			<path style="fill:#67AB73;" d="M148.32,247.201l-83.326,5.933c-31.058,2.215-55.116,28.062-55.106,59.2v73.3h573.506v-85.887
				c-0.03-19.381-7.179-38.079-20.093-52.545H148.32z"/>
			<rect x="9.888" y="346.082" style="fill:#61A16C;" width="573.506" height="39.552"/>
			<path style="fill:#4EABEC;" d="M560.226,243.81l-75.713-67.871l-2.877-2.581c-10.897-9.759-25.007-15.158-39.641-15.148H246.558
				c-18.303,0-35.577,8.454-46.82,22.901l-51.418,66.092h414.981C562.283,246.064,561.314,244.897,560.226,243.81z"/>
			<path style="fill:#4394CC;" d="M484.514,175.938l-2.877-2.581c-9.502-8.425-21.467-13.557-34.124-14.644l-202.784,88.488h318.573
				c-0.989-1.137-1.978-2.304-3.075-3.392L484.514,175.938z"/>
			<path style="fill:#C3C9D1;" d="M39.552,316.417c0-10.926-8.85-19.776-19.776-19.776h-7.742
				c-1.414,5.112-2.136,10.392-2.146,15.692v23.86h9.888C30.702,336.194,39.552,327.344,39.552,316.417z"/>
			<circle style="fill:#697B8C;" cx="98.88" cy="385.634" r="59.328"/>
			<circle style="fill:#C3C9D1;" cx="98.88" cy="385.634" r="19.776"/>
			<circle style="fill:#697B8C;" cx="484.514" cy="385.634" r="59.328"/>
			<circle style="fill:#C3C9D1;" cx="484.514" cy="385.634" r="19.776"/>
			<path style="fill:#C3C9D1;" d="M497.833,187.873l-13.319-11.935l-2.877-2.581c-10.897-9.759-25.007-15.158-39.641-15.148H246.558
				c-18.303,0-35.577,8.454-46.82,22.901l-5.27,6.763H497.833z"/>
			<path d="M566.822,236.453l-78.58-70.462c-12.696-11.381-29.15-17.67-46.197-17.67H246.558
				c-21.378-0.079-41.569,9.789-54.641,26.698l-48.699,62.611l-78.946,5.616C28.092,245.965,0.099,276.055,0,312.334v73.3
				c0,5.458,4.43,9.888,9.888,9.888h30.554c5.429,32.275,35.992,54.038,68.267,48.61c24.908-4.193,44.417-23.702,48.61-48.61
				h268.757c5.429,32.275,35.992,54.038,68.267,48.61c24.908-4.193,44.417-23.702,48.61-48.61h40.442
				c5.458,0,9.888-4.43,9.888-9.888v-85.897c0.069-23.613-9.324-46.266-26.065-62.918L566.822,236.453z M19.776,316.417v-4.084
				c0.069-1.908,0.257-3.807,0.554-5.696c5.419,0.702,9.235,5.666,8.533,11.085c-0.603,4.657-4.4,8.237-9.087,8.583V316.417z
				 M98.88,425.186c-21.843,0-39.552-17.709-39.552-39.552c0-21.843,17.709-39.552,39.552-39.552s39.552,17.709,39.552,39.552
				C138.432,407.476,120.723,425.186,98.88,425.186z M138.432,341.533c-0.198-0.168-0.386-0.356-0.593-0.534
				s-0.475-0.455-0.732-0.672c-2.314-1.938-4.786-3.698-7.367-5.27l-1.285-0.781c-2.591-1.493-5.29-2.788-8.079-3.876l-1.463-0.544
				c-2.897-1.048-5.873-1.869-8.899-2.462c-0.396-0.079-0.791-0.119-1.187-0.188c-6.585-1.196-13.329-1.196-19.914,0
				c-0.396,0.069-0.791,0.109-1.187,0.188c-3.026,0.593-6.002,1.414-8.899,2.462l-1.463,0.544c-2.788,1.088-5.488,2.383-8.079,3.876
				L68,335.056c-2.581,1.572-5.053,3.332-7.367,5.27c-0.257,0.218-0.485,0.455-0.732,0.672c-2.373,2.047-4.588,4.291-6.605,6.694
				l-0.109,0.129c-1.997,2.432-3.787,5.013-5.379,7.732c-0.198,0.346-0.425,0.672-0.623,0.989c-1.483,2.64-2.759,5.399-3.807,8.237
				c-0.188,0.485-0.366,0.989-0.534,1.454c-1.009,2.887-1.78,5.844-2.324,8.85c0,0.218-0.129,0.405-0.168,0.623H19.776v-29.625
				c16.384-0.158,29.536-13.576,29.367-29.961c-0.138-13.527-9.404-25.254-22.535-28.497c8.168-14.16,22.792-23.365,39.087-24.601
				l72.736-5.201V341.533z M316.417,375.746H158.209V257.089h158.209V375.746z M316.417,237.313H168.542l38.989-50.122
				c9.324-12.093,23.761-19.153,39.028-19.094h69.859V237.313z M494.402,198.077l43.764,39.236h-43.764V198.077z M336.193,168.097
				h105.802c12.014,0,23.613,4.371,32.63,12.311v56.906H336.193V168.097z M438.841,347.822c-1.997,2.432-3.787,5.013-5.379,7.732
				c-0.198,0.346-0.425,0.672-0.623,0.989c-1.483,2.64-2.759,5.399-3.807,8.237c-0.188,0.485-0.366,0.989-0.534,1.454
				c-1.009,2.887-1.78,5.844-2.324,8.85c0,0.218-0.129,0.405-0.168,0.623h-89.813V257.089h138.432v70.106h-0.069
				c-0.396,0.069-0.791,0.109-1.187,0.188c-3.026,0.593-6.002,1.414-8.899,2.462l-1.463,0.544c-2.788,1.088-5.488,2.383-8.079,3.876
				l-1.285,0.781c-2.581,1.572-5.053,3.332-7.367,5.27c-0.257,0.218-0.484,0.455-0.732,0.672c-2.373,2.047-4.588,4.291-6.605,6.694
				L438.841,347.822z M484.514,425.186c-21.843,0-39.552-17.709-39.552-39.552c0-21.843,17.709-39.552,39.552-39.552
				s39.552,17.709,39.552,39.552C524.066,407.476,506.356,425.186,484.514,425.186z M573.506,375.746h-30.485
				c0-0.218-0.129-0.405-0.168-0.623c-0.544-3.006-1.315-5.962-2.324-8.85c-0.168-0.494-0.346-0.989-0.534-1.454
				c-1.048-2.838-2.324-5.597-3.807-8.237c-0.198-0.356-0.425-0.682-0.623-0.989c-1.592-2.719-3.382-5.3-5.379-7.732l-0.109-0.129
				c-2.017-2.403-4.232-4.647-6.605-6.694c-0.247-0.218-0.475-0.455-0.732-0.672c-2.314-1.938-4.786-3.698-7.367-5.27l-1.285-0.781
				c-2.591-1.493-5.29-2.788-8.079-3.876l-1.463-0.544c-2.897-1.048-5.874-1.869-8.899-2.462c-0.396-0.079-0.791-0.119-1.187-0.188
				h-0.059v-70.156h64.351c9.582,12.143,14.783,27.172,14.753,42.647V375.746z"/>
			<rect x="69.216" y="286.753" width="29.664" height="19.776"/>
			<rect x="257.089" y="276.865" width="39.552" height="19.776"/>
			<rect x="415.297" y="276.865" width="39.552" height="19.776"/>
		</g>
	</g>
</g>
<g>
</g>
<g>
</g>
<g>
</g>
<g>
</g>
<g>
</g>
<g>
</g>
<g>
</g>
<g>
</g>
<g>
</g>
<g>
</g>
<g>
</g>
<g>
</g>
<g>
</g>
<g>
</g>
<g>
</g>
</svg>
