<?xml version="1.0" encoding="iso-8859-1"?>
<!-- Generator: Adobe Illustrator 21.0.0, SVG Export Plug-In . SVG Version: 6.00 Build 0)  -->
<svg version="1.1" id="Capa_1" xmlns="http://www.w3.org/2000/svg" xmlns:xlink="http://www.w3.org/1999/xlink" x="0px" y="0px"
	 viewBox="0 0 593.282 593.282" style="enable-background:new 0 0 593.282 593.282;" xml:space="preserve">
<g>
	<g>
		<g id="filled_outline_10_">
			<path style="fill:#69CCD7;" d="M509.679,161.617l-96.567-10.135c-61.771-6.793-124.273,1.048-182.444,22.901
				c-33.441,13.764-64.589,32.551-92.364,55.699l-19.648,16.325l-14.881,8.118l360.963-18.006L509.679,161.617z"/>
			<polygon style="fill:#61BDC7;" points="218.901,248.78 464.738,236.519 509.679,161.617 448.65,155.18 			"/>
			<path style="fill:#67AB73;" d="M543.842,206.855l19.776-39.552l-53.939-5.686l-44.941,74.902l-360.913,18.006l-63.016,24.453
				c-19.064,10.392-30.92,30.376-30.92,52.09v53.771h533.954l39.552-39.552v-88.992L543.842,206.855z"/>
			<path style="fill:#61A16C;" d="M15.682,305.735c-3.787,7.91-5.765,16.562-5.794,25.333v53.771h533.954l39.552-39.552v-39.552
				C583.394,305.735,15.682,305.735,15.682,305.735z"/>
			<polygon style="fill:#DD381A;" points="533.954,305.735 583.394,305.735 583.394,266.183 524.066,266.183 			"/>
			<circle style="fill:#697B8C;" cx="108.768" cy="384.84" r="59.328"/>
			<circle style="fill:#C3C9D1;" cx="108.768" cy="384.84" r="29.664"/>
			<circle style="fill:#697B8C;" cx="484.514" cy="384.84" r="59.328"/>
			<circle style="fill:#C3C9D1;" cx="484.514" cy="384.84" r="29.664"/>
			<path d="M9.888,394.728h30.455c5.429,37.792,40.462,64.025,78.254,58.596c30.376-4.361,54.236-28.22,58.596-58.596h238.895
				c5.369,37.802,40.363,64.094,78.155,58.725c32.532-4.618,57.311-31.503,59.289-64.302l36.872-36.872
				c1.849-1.859,2.877-4.37,2.877-6.991v-88.992c0-2.245-0.761-4.43-2.165-6.18l-35.597-44.496l16.998-33.896
				c2.442-4.885,0.455-10.827-4.43-13.26c-1.058-0.524-2.205-0.86-3.382-0.989l-53.939-5.686l-96.616-10.195
				c-63.402-7.03-127.575,1.058-187.25,23.593c-34.361,14.15-66.378,33.451-94.925,57.242L113.07,238.19l-13.487,7.357
				l-62.354,24.226c-0.396,0.148-0.781,0.326-1.157,0.534C13.833,282.429,0,305.735,0,331.068v53.771
				C0,390.298,4.43,394.728,9.888,394.728z M108.768,434.28c-27.301,0-49.44-22.139-49.44-49.44s22.139-49.44,49.44-49.44
				s49.44,22.139,49.44,49.44C158.179,412.131,136.059,434.25,108.768,434.28z M484.514,434.28c-27.301,0-49.44-22.139-49.44-49.44
				s22.139-49.44,49.44-49.44s49.44,22.139,49.44,49.44C533.924,412.131,511.805,434.25,484.514,434.28z M573.506,295.847h-31.83
				l-4.944-19.776h36.774V295.847z M514.909,172.108l33.481,3.53l-13.398,26.797c-1.721,3.451-1.285,7.584,1.127,10.6l34.608,43.26
				h-46.662c-5.458,0-9.888,4.43-9.888,9.888c0,0.801,0.099,1.612,0.297,2.393l9.888,39.552c1.098,4.4,5.053,7.495,9.591,7.495
				h39.552v25.57l-22.94,22.93c0-0.099-0.089-0.198-0.119-0.297c-0.979-2.986-2.156-5.903-3.53-8.731
				c-0.297-0.613-0.574-1.236-0.89-1.849c-1.424-2.759-3.026-5.419-4.806-7.96c-0.356-0.514-0.751-0.989-1.117-1.493
				c-1.721-2.334-3.579-4.558-5.587-6.655c-0.267-0.287-0.514-0.603-0.801-0.88c-2.205-2.215-4.568-4.281-7.05-6.18
				c-0.573-0.435-1.137-0.86-1.711-1.276c-2.541-1.859-5.201-3.54-7.97-5.033c-0.366-0.198-0.761-0.356-1.137-0.544
				c-2.63-1.335-5.349-2.502-8.128-3.49c-0.554-0.198-1.088-0.425-1.641-0.613c-3.055-0.989-6.18-1.77-9.344-2.334
				c-0.672-0.119-1.355-0.208-1.978-0.307c-3.392-0.544-6.813-0.831-10.244-0.86c-2.284,0-4.548,0.129-6.773,0.346
				c-0.742,0.069-1.463,0.208-2.195,0.307c-1.483,0.188-2.966,0.386-4.4,0.672c-0.86,0.168-1.691,0.396-2.541,0.593
				c-1.285,0.307-2.571,0.613-3.837,0.989c-0.88,0.257-1.73,0.564-2.591,0.86c-1.196,0.415-2.393,0.831-3.56,1.305
				c-0.85,0.346-1.691,0.722-2.531,1.107c-1.127,0.504-2.235,0.989-3.332,1.602c-0.821,0.435-1.632,0.87-2.432,1.335
				c-1.068,0.603-2.106,1.246-3.135,1.908c-0.781,0.494-1.543,0.989-2.294,1.523c-0.989,0.712-1.978,1.454-2.966,2.215
				c-0.712,0.554-1.424,1.098-2.106,1.681c-0.989,0.821-1.889,1.691-2.808,2.561c-0.633,0.583-1.266,1.157-1.869,1.77
				c-0.989,0.989-1.839,1.978-2.739,2.966c-0.504,0.583-0.989,1.137-1.513,1.73c-1.048,1.285-2.027,2.62-2.966,3.955
				c-0.267,0.396-0.573,0.751-0.84,1.147c-1.187,1.76-2.294,3.579-3.312,5.448c-0.297,0.534-0.534,1.098-0.811,1.641
				c-0.702,1.365-1.394,2.739-1.978,4.153c-0.316,0.751-0.583,1.523-0.89,2.294c-0.484,1.246-0.989,2.492-1.384,3.777
				c-0.277,0.85-0.504,1.73-0.742,2.601c-0.346,1.236-0.682,2.462-0.989,3.718c-0.208,0.929-0.366,1.859-0.534,2.808
				c-0.138,0.751-0.326,1.483-0.435,2.245H309.308l4.944-19.776h71.382v-19.707h-66.438l20.686-82.753l125.351-6.239
				c3.293-0.168,6.279-1.958,7.98-4.786L514.909,172.108z M363.227,159.254c2.314,0,4.618-0.148,6.922-0.148
				c14.001-0.01,27.993,0.712,41.925,2.165l81.151,8.563l-34.252,57.074l-114.078,5.656L363.227,159.254z M144.632,237.627
				c27.004-22.505,57.281-40.768,89.793-54.147c34.598-13.477,71.125-21.368,108.205-23.375l-18.372,73.518l-185.895,9.275
				L144.632,237.627z M19.776,331.068c-0.02-17.887,9.631-34.381,25.234-43.132l60.792-23.622l213.394-10.64l-20.389,81.725H187.873
				v19.776h105.99l-4.944,19.776H177.283c-0.109-0.761-0.297-1.493-0.435-2.245c-0.168-0.989-0.326-1.879-0.534-2.808
				c-0.277-1.256-0.613-2.482-0.989-3.718c-0.237-0.87-0.465-1.75-0.742-2.601c-0.415-1.285-0.9-2.531-1.384-3.777
				c-0.307-0.771-0.574-1.543-0.89-2.294c-0.613-1.414-1.305-2.788-1.978-4.153c-0.277-0.544-0.514-1.107-0.811-1.641
				c-1.018-1.869-2.116-3.678-3.312-5.448c-0.267-0.396-0.574-0.751-0.84-1.147c-0.989-1.355-1.978-2.69-2.966-3.955
				c-0.485-0.593-0.989-1.147-1.513-1.73c-0.9-0.989-1.79-2.047-2.739-2.966c-0.603-0.613-1.236-1.187-1.869-1.77
				c-0.92-0.87-1.839-1.74-2.808-2.561c-0.682-0.583-1.394-1.127-2.106-1.681c-0.989-0.761-1.978-1.503-2.966-2.215
				c-0.751-0.524-1.513-0.989-2.294-1.523c-0.989-0.663-2.067-1.305-3.135-1.908c-0.801-0.465-1.612-0.9-2.432-1.335
				c-1.098-0.564-2.205-1.098-3.332-1.602c-0.84-0.386-1.681-0.761-2.531-1.107c-1.167-0.475-2.363-0.89-3.56-1.305
				c-0.86-0.297-1.711-0.603-2.591-0.86c-1.266-0.376-2.551-0.682-3.837-0.989c-0.85-0.198-1.681-0.425-2.541-0.593
				c-1.444-0.287-2.917-0.484-4.4-0.672c-0.732-0.099-1.454-0.237-2.195-0.307c-2.235-0.287-4.499-0.415-6.783-0.415
				s-4.548,0.129-6.773,0.346c-0.742,0.069-1.463,0.208-2.195,0.307c-1.483,0.188-2.966,0.386-4.4,0.672
				c-0.86,0.168-1.691,0.396-2.541,0.593c-1.285,0.307-2.571,0.613-3.837,0.989c-0.88,0.257-1.73,0.564-2.591,0.86
				c-1.196,0.415-2.393,0.831-3.56,1.305c-0.85,0.346-1.691,0.722-2.531,1.107c-1.127,0.504-2.235,0.989-3.332,1.602
				c-0.821,0.435-1.632,0.87-2.432,1.335c-1.068,0.603-2.106,1.246-3.135,1.908c-0.781,0.494-1.543,0.989-2.294,1.523
				c-0.989,0.712-1.978,1.454-2.966,2.215c-0.712,0.554-1.424,1.098-2.106,1.681c-0.989,0.821-1.889,1.691-2.808,2.561
				c-0.287,0.257-0.583,0.504-0.85,0.771h-40.64V331.068z M19.776,355.176h26.53c-0.376,0.781-0.761,1.543-1.107,2.334
				c-0.346,0.791-0.583,1.523-0.89,2.294c-0.485,1.246-0.989,2.492-1.384,3.777c-0.277,0.85-0.504,1.73-0.742,2.601
				c-0.346,1.236-0.682,2.462-0.989,3.718c-0.208,0.93-0.366,1.859-0.534,2.808c-0.138,0.751-0.326,1.483-0.435,2.245H19.776
				V355.176z"/>
			<rect x="237.313" y="266.183" width="49.44" height="19.776"/>
			<rect x="395.521" y="266.183" width="59.328" height="19.776"/>
		</g>
	</g>
</g>
<g>
</g>
<g>
</g>
<g>
</g>
<g>
</g>
<g>
</g>
<g>
</g>
<g>
</g>
<g>
</g>
<g>
</g>
<g>
</g>
<g>
</g>
<g>
</g>
<g>
</g>
<g>
</g>
<g>
</g>
</svg>
