<?xml version="1.0" encoding="iso-8859-1"?>
<!-- Generator: Adobe Illustrator 19.0.0, SVG Export Plug-In . SVG Version: 6.00 Build 0)  -->
<svg xmlns="http://www.w3.org/2000/svg" xmlns:xlink="http://www.w3.org/1999/xlink" version="1.1" id="Layer_1" x="0px" y="0px" viewBox="0 0 511.992 511.992" style="enable-background:new 0 0 511.992 511.992;" xml:space="preserve">
<g>
	<path style="fill:#37474F;" d="M170.667,290.129c0.009,4.301-0.418,8.585-1.28,12.8c-6.11,29.79-32.316,51.174-62.72,51.2   c-4.301,0.026-8.602-0.427-12.8-1.365c-25.131-5.094-44.783-24.713-49.92-49.835c-0.862-4.215-1.289-8.508-1.28-12.8   c0.017-30.379,21.359-56.576,51.115-62.72h0.171c4.181-0.862,8.448-1.289,12.715-1.28   C142.012,226.138,170.65,254.784,170.667,290.129z"/>
	<path style="fill:#37474F;" d="M477.867,302.929c-0.026,28.271-22.929,51.174-51.2,51.2c-4.318-0.017-8.619-0.555-12.8-1.621   c-27.358-7.04-43.827-34.927-36.787-62.285c4.642-18.048,18.739-32.137,36.787-36.787c4.173-1.135,8.474-1.707,12.8-1.707   C454.938,251.746,477.841,274.658,477.867,302.929z"/>
</g>
<g>
	<path style="fill:#607D8B;" d="M145.067,290.129c0.009,4.301-0.418,8.585-1.28,12.8c-5.137,25.122-24.789,44.74-49.92,49.835   c-25.131-5.094-44.783-24.713-49.92-49.835c-0.862-4.215-1.289-8.508-1.28-12.8c0.017-30.379,21.359-56.576,51.115-62.72h0.171   C123.708,233.553,145.05,259.742,145.067,290.129z"/>
	<path style="fill:#607D8B;" d="M452.267,302.929c-0.051,23.33-15.829,43.691-38.4,49.579c-27.358-7.04-43.827-34.927-36.787-62.285   c4.642-18.048,18.739-32.137,36.787-36.787C436.446,259.255,452.233,279.607,452.267,302.929z"/>
</g>
<path d="M106.684,362.662c-4.804,0-9.66-0.478-14.541-1.476c-28.527-5.828-50.722-28.032-56.559-56.55  c-0.973-4.77-1.459-9.66-1.451-14.524c0-39.979,32.538-72.516,72.533-72.516s72.525,32.529,72.533,72.516l0,0  c0.009,4.864-0.478,9.762-1.451,14.524C170.735,338.948,140.425,362.662,106.684,362.662z M106.667,234.662  c-30.583,0-55.467,24.883-55.467,55.467c-0.009,3.738,0.367,7.458,1.109,11.093c4.454,21.82,21.436,38.793,43.255,43.255  c29.909,6.084,59.341-13.295,65.459-43.255c0.742-3.635,1.118-7.356,1.109-11.076c0-0.017,0-0.017,0-0.017  C162.133,259.546,137.25,234.662,106.667,234.662z"/>
<g>
	<path style="fill:#9E9E9E;" d="M106.667,319.996c-14.182-0.043-26.394-10.018-29.278-23.902c-0.401-1.971-0.597-3.968-0.589-5.965   c0-16.495,13.372-29.867,29.867-29.867s29.867,13.372,29.867,29.867c0.009,1.946-0.179,3.891-0.555,5.803   C133.146,309.884,120.909,319.927,106.667,319.996z"/>
	<circle style="fill:#9E9E9E;" cx="426.667" cy="302.929" r="17.067"/>
</g>
<path d="M106.641,328.529c-18.116-0.051-33.929-12.971-37.606-30.703c-0.521-2.543-0.777-5.146-0.768-7.731  c0-21.146,17.229-38.366,38.4-38.366s38.4,17.22,38.4,38.4c0.017,2.466-0.23,5.009-0.725,7.484  c-3.618,17.843-19.447,30.839-37.641,30.916C106.684,328.529,106.667,328.529,106.641,328.529z M106.667,268.796  c-11.759,0-21.333,9.566-21.333,21.333c0,1.459,0.137,2.876,0.418,4.25c2.048,9.847,10.846,17.041,20.915,17.084  c10.129-0.06,18.935-7.296,20.949-17.229c0.265-1.323,0.393-2.688,0.384-4.053C128,278.362,118.426,268.796,106.667,268.796z"/>
<path d="M426.667,362.662c-32.93,0-59.733-26.803-59.733-59.733s26.803-59.733,59.733-59.733s59.733,26.803,59.733,59.733  S459.597,362.662,426.667,362.662z M426.667,260.262c-23.526,0-42.667,19.14-42.667,42.667s19.14,42.667,42.667,42.667  s42.667-19.14,42.667-42.667S450.193,260.262,426.667,260.262z"/>
<path d="M426.667,328.529c-14.114,0-25.6-11.486-25.6-25.6c0-14.114,11.486-25.6,25.6-25.6s25.6,11.486,25.6,25.6  C452.267,317.043,440.781,328.529,426.667,328.529z M426.667,294.396c-4.71,0-8.533,3.823-8.533,8.533s3.823,8.533,8.533,8.533  s8.533-3.823,8.533-8.533S431.377,294.396,426.667,294.396z"/>
<path style="fill:#1566C0;" d="M315.733,226.129v-41.131c-0.026-4.702,3.772-8.542,8.482-8.559c0.811,0,1.621,0.111,2.406,0.333  c12.638,3.738,31.778,15.053,31.778,49.357"/>
<path d="M358.4,234.662c-4.719,0-8.533-3.823-8.533-8.533c0-27.759-13.961-37.709-25.668-41.173l0.068,41.173  c0,4.71-3.814,8.533-8.533,8.533c-4.719,0-8.533-3.823-8.533-8.533v-41.131c-0.026-4.514,1.732-8.806,4.941-12.049  c3.2-3.234,7.484-5.026,12.032-5.052c1.553,0.06,3.226,0.213,4.804,0.666c14.217,4.207,37.956,17.246,37.956,57.566  C366.933,230.839,363.119,234.662,358.4,234.662z"/>
<path style="fill:#37474F;" d="M162.133,174.929v17.067H93.867v-17.067c0.026-9.412,7.654-17.041,17.067-17.067h34.133  C154.479,157.888,162.108,165.508,162.133,174.929z"/>
<path d="M162.133,200.529H93.867c-4.71,0-8.533-3.823-8.533-8.533v-17.067c0.043-14.08,11.52-25.557,25.574-25.6h34.159  c14.08,0.043,25.557,11.52,25.6,25.574c0,0.009,0,0.017,0,0.026v17.067C170.667,196.706,166.844,200.529,162.133,200.529z   M102.4,183.462h51.2v-8.508c-0.009-4.702-3.857-8.542-8.559-8.559h-34.108c-4.676,0.009-8.525,3.857-8.533,8.559V183.462z"/>
<path style="fill:#C52828;" d="M8.533,290.129c-0.017,2.167,0.094,4.335,0.341,6.485c-0.247-0.717-0.358-1.468-0.341-2.219V290.129z  "/>
<path style="fill:#F44335;" d="M8.875,296.614c-0.247-0.717-0.358-1.468-0.341-2.219v-4.267  C8.516,292.288,8.627,294.455,8.875,296.614z"/>
<path style="fill:#C52828;" d="M452.267,226.129H315.733c-12.629,26.189-39.194,42.795-68.267,42.667c-2.85,0-5.7-0.171-8.533-0.512  c-0.256,0-0.427-0.085-0.683-0.085c-2.56-0.341-5.103-0.853-7.595-1.536c-30.285-7.646-51.49-34.901-51.456-66.133  c0-2.85,0.171-5.7,0.512-8.533H102.4c-51.814-0.034-93.841,41.941-93.867,93.756c0,0.034,0,0.068,0,0.111v4.267  c-0.017,2.167,0.094,4.335,0.341,6.485v0.085c1.024,3.669,4.378,6.221,8.192,6.229h26.88c-0.862-4.215-1.289-8.508-1.28-12.8  c-0.009-28.757,19.209-53.973,46.933-61.611c5.547-1.613,11.29-2.423,17.067-2.389c17.92-0.034,35.029,7.492,47.104,20.736  c0.785,0.811,1.527,1.664,2.219,2.56c1.152,1.365,2.236,2.79,3.243,4.267c9.958,14.336,13.628,32.128,10.155,49.237h206.08  c-0.026-21.692,13.662-41.028,34.133-48.213c5.47-1.988,11.247-3.004,17.067-2.987c28.262,0.043,51.157,22.938,51.2,51.2h17.067  c4.71-0.017,8.516-3.823,8.533-8.533v-17.067C503.441,249.058,480.538,226.146,452.267,226.129z"/>
<path style="fill:#F44335;" d="M418.133,226.129h-102.4c-12.629,26.189-39.194,42.795-68.267,42.667c-2.85,0-5.7-0.171-8.533-0.512  c-0.256,0-0.427-0.085-0.683-0.085c-2.56-0.341-5.103-0.853-7.595-1.536c-5.675,1.382-11.486,2.099-17.323,2.133  c-2.85,0-5.7-0.171-8.533-0.512c-0.256,0-0.427-0.085-0.683-0.085c-14.242-1.937-27.503-8.329-37.888-18.261  c-1.451-1.365-2.816-2.816-4.181-4.352c-10.974-12.442-17.015-28.467-16.981-45.056c0-2.85,0.171-5.7,0.512-8.533H102.4  c-51.814-0.034-93.841,41.941-93.867,93.756c0,0.034,0,0.068,0,0.111v4.267c-0.017,2.167,0.094,4.335,0.341,6.485v0.085  c1.024,3.669,4.378,6.221,8.192,6.229h26.88c-0.862-4.215-1.289-8.508-1.28-12.8c-0.009-28.757,19.209-53.973,46.933-61.611  c5.547-1.613,11.29-2.423,17.067-2.389c17.92-0.034,35.029,7.492,47.104,20.736c0.785,0.811,1.527,1.664,2.219,2.56  c1.152,1.365,2.236,2.79,3.243,4.267c9.958,14.336,13.628,32.128,10.155,49.237h206.08c-0.026-21.692,13.662-41.028,34.133-48.213  c5.47-1.988,11.247-3.004,17.067-2.987c17.067-0.017,33.015,8.508,42.496,22.699C467.635,247.343,445.252,226.155,418.133,226.129z"/>
<path d="M494.933,311.462h-17.067c-4.719,0-8.533-3.814-8.533-8.533c0-23.526-19.14-42.667-42.667-42.667S384,279.403,384,302.929  c0,4.719-3.814,8.533-8.533,8.533h-206.08c-2.56,0-4.983-1.152-6.605-3.132c-1.621-1.98-2.27-4.591-1.758-7.108  c0.742-3.635,1.118-7.356,1.109-11.076c0-30.601-24.883-55.484-55.467-55.484S51.2,259.546,51.2,290.129  c-0.009,3.738,0.367,7.458,1.109,11.093c0.512,2.517-0.137,5.129-1.758,7.108c-1.621,1.98-4.045,3.132-6.605,3.132h-26.88  C7.654,311.462,0,303.808,0,294.396v-8.533c0-56.465,45.935-102.4,102.4-102.4h77.312c2.441,0,4.77,1.05,6.383,2.867  c1.621,1.826,2.381,4.267,2.091,6.682c-0.299,2.492-0.452,4.992-0.452,7.501c0,29.73,22.212,55.185,51.652,59.221  c0.128,0.017,0.256,0.034,0.375,0.051c0.06,0,0.128,0.009,0.188,0.017c2.586,0.316,5.222,0.427,7.799,0.452  c25.566,0,49.203-14.831,60.297-37.845c1.417-2.953,4.412-4.821,7.68-4.821h136.533c32.93,0,59.733,26.795,59.733,59.733v17.067  C512,303.799,504.346,311.462,494.933,311.462z M485.794,294.396h9.139v-17.067c0-23.526-19.14-42.667-42.667-42.667H320.887  c-14.839,26.214-42.957,42.47-73.463,42.667c-3.149,0-6.357-0.188-9.515-0.572l0,0c-0.171-0.017-0.341-0.043-0.503-0.06  c-0.111-0.017-0.213-0.026-0.324-0.043c-37.854-5.188-66.415-37.914-66.415-76.126l0,0H102.4c-47.053,0-85.333,38.281-85.333,85.333  v8.533h17.186c-0.085-1.425-0.119-2.859-0.119-4.284c0-39.979,32.538-72.516,72.533-72.516s72.533,32.538,72.533,72.533  c0,1.417-0.034,2.842-0.119,4.267h188.459c4.147-28.911,29.082-51.2,59.127-51.2S481.638,265.485,485.794,294.396z"/>
<path style="fill:#37474F;" d="M238.251,268.198c-33.826-4.634-59.042-33.527-59.051-67.669h34.133v21.333  C213.308,240.516,222.669,257.933,238.251,268.198z"/>
<path d="M238.251,276.732c-0.384,0-0.768-0.034-1.161-0.085c-37.862-5.18-66.423-37.905-66.423-76.117  c0-2.261,0.896-4.437,2.5-6.033c1.604-1.596,3.772-2.5,6.033-2.5h34.133c4.71,0,8.533,3.823,8.533,8.533v21.333  c-0.017,15.846,7.859,30.498,21.077,39.211c3.328,2.193,4.693,6.4,3.294,10.129C244.975,274.556,241.766,276.732,238.251,276.732z   M188.348,209.062c2.185,15.036,10.061,28.45,21.478,37.777c-3.285-7.782-5.035-16.256-5.026-24.994v-12.783H188.348z"/>
<path d="M332.8,277.329c-4.719,0-8.533-3.814-8.533-8.533v-8.533c0-4.71,3.814-8.533,8.533-8.533s8.533,3.823,8.533,8.533v8.533  C341.333,273.506,337.519,277.329,332.8,277.329z"/>
<g>
</g>
<g>
</g>
<g>
</g>
<g>
</g>
<g>
</g>
<g>
</g>
<g>
</g>
<g>
</g>
<g>
</g>
<g>
</g>
<g>
</g>
<g>
</g>
<g>
</g>
<g>
</g>
<g>
</g>
</svg>
