<svg id="Layer_3" enable-background="new 0 0 64 64" height="512" viewBox="0 0 64 64" width="512" xmlns="http://www.w3.org/2000/svg"><g><g><path d="m19 50h-1c-3.866 0-7-3.134-7-7v-13c0-1.105-.895-2-2-2-1.105 0-2 .895-2 2 0 1.105-.895 2-2 2-1.105 0-2-.895-2-2 0-3.314 2.686-6 6-6 3.314 0 6 2.686 6 6v12c0 2.209 1.791 4 4 4" fill="#f9d18b"/></g><g><path d="m51 60h6.211c.988 0 1.789-.801 1.789-1.789v-.106c0-.678-.383-1.297-.989-1.6l-.022-.011c-.606-.303-.989-.922-.989-1.6 0-.563.265-1.093.716-1.431l1.563-1.173c1.083-.812 1.721-2.087 1.721-3.441v-1.546c0-.849-.251-1.68-.723-2.387-.798-1.197-2.141-1.916-3.58-1.916h-5.697" fill="#f9d18b"/></g><g><path d="m29 60h-6.211c-.988 0-1.789-.801-1.789-1.789v-.106c0-.678.383-1.297.989-1.6l.022-.011c.606-.303.989-.922.989-1.6 0-.563-.265-1.093-.716-1.431l-1.563-1.173c-1.083-.812-1.721-2.087-1.721-3.441v-1.546c0-.849.251-1.68.723-2.387.798-1.197 2.141-1.916 3.58-1.916h5.697" fill="#f5b953"/></g><g><path d="m51 32 .406.406c2.941 2.941 4.594 6.931 4.594 11.092v1.526c0 2.574-.876 5.071-2.484 7.081-.981 1.227-1.516 2.751-1.516 4.322 0 .377.088.748.256 1.085l.488.975c.168.338.256.709.256 1.086 0 1.34-1.087 2.427-2.427 2.427h-5.745c-1.274 0-2.351-.842-2.705-2h-4.247c-.354 1.158-1.431 2-2.705 2h-5.745c-1.339 0-2.426-1.087-2.426-2.427 0-.377.088-.748.256-1.085l.488-.975c.168-.338.256-.709.256-1.086 0-1.571-.535-3.095-1.516-4.322-1.608-2.01-2.484-4.507-2.484-7.081v-1.526c0-4.16 1.653-8.15 4.594-11.092l.406-.406" fill="#f5b953"/></g><g><path d="m53.486 34.998c-.598-.927-1.288-1.8-2.081-2.592l-.405-.406h-22l-.406.406c-2.941 2.941-4.594 6.931-4.594 11.091v1.526c0 2.574.876 5.071 2.484 7.081.411.514.724 1.088.972 1.688.997.133 2.012.208 3.044.208 11.3 0 20.734-8.147 22.986-19.002z" fill="#f9d18b"/></g><g><path d="m51 32h-22l-.406.406c-.201.201-.38.417-.568.627l.788.985c2.058 2.572 4.956 4.336 8.186 4.982h6c3.23-.646 6.128-2.41 8.185-4.982l.788-.985c-.188-.21-.368-.427-.568-.627z" fill="#78b75b"/></g><g><path d="m31 7c-1.926-2.567-4.766-4.294-7.932-4.822l-1.068-.178-1.026 2.052c-.64 1.281-.974 2.694-.974 4.126 0 2.447.972 4.794 2.702 6.524l1.298 1.298" fill="#f9d18b"/></g><g><path d="m49 7c1.926-2.567 4.766-4.294 7.932-4.822l1.068-.178 1.026 2.052c.64 1.281.974 2.694.974 4.126 0 2.447-.972 4.794-2.702 6.524l-1.298 1.298" fill="#f9d18b"/></g><g><ellipse cx="40" cy="20" fill="#f5b953" rx="17" ry="15"/></g><g><path d="m38 5v10c0 1.105.895 2 2 2 1.105 0 2-.895 2-2v-10" fill="#f9d18b"/></g><g><path d="m43 23c0-1.657-1.343-2-3-2s-3 .343-3 2 1.343 4 3 4 3-2.343 3-4z" fill="#e47c6e"/></g><g><circle cx="40" cy="40" fill="#e47c6e" r="3"/></g><g><path d="m40 36c-9.925 0-18-7.178-18-16s8.075-16 18-16 18 7.178 18 16-8.075 16-18 16zm0-30c-8.822 0-16 6.28-16 14s7.178 14 16 14 16-6.28 16-14-7.178-14-16-14z"/></g><g><path d="m23.293 16.707-1.297-1.297c-1.932-1.932-2.996-4.5-2.996-7.232 0-1.58.374-3.161 1.08-4.574l1.026-2.052c.196-.393.627-.611 1.059-.539l1.068.178c3.434.573 6.477 2.423 8.567 5.209l-1.6 1.2c-1.78-2.373-4.372-3.948-7.296-4.436l-.34-.057-.695 1.391c-.569 1.137-.869 2.41-.869 3.68 0 2.197.856 4.263 2.41 5.817l1.297 1.297z"/></g><g><path d="m35.171 63h-5.744c-1.889 0-3.427-1.538-3.427-3.427 0-.528.125-1.058.362-1.532l.487-.975c.099-.198.151-.419.151-.639 0-1.339-.46-2.652-1.297-3.697-1.743-2.18-2.703-4.916-2.703-7.706v-1.526c0-4.457 1.736-8.647 4.887-11.799l.406-.406 1.414 1.414-.406.406c-2.774 2.774-4.301 6.462-4.301 10.385v1.526c0 2.337.804 4.63 2.265 6.457 1.119 1.398 1.735 3.155 1.735 4.946 0 .528-.125 1.058-.362 1.532l-.487.975c-.099.198-.151.419-.151.639 0 .787.64 1.427 1.427 1.427h5.744c1.009 0 1.829-.82 1.829-1.829 0-.488-.19-.947-.536-1.293-1.589-1.588-2.464-3.702-2.464-5.949v-.342c0-.925-.174-1.83-.518-2.689-.885-2.213-2.188-4.19-3.875-5.876l-.314-.314 1.414-1.414.314.314c1.878 1.878 3.331 4.082 4.318 6.548.439 1.096.661 2.251.661 3.431v.342c0 1.713.667 3.324 1.878 4.536.724.723 1.122 1.684 1.122 2.706 0 2.112-1.717 3.829-3.829 3.829z"/></g><g><path d="m50.573 63h-5.744c-2.112 0-3.829-1.717-3.829-3.829 0-1.022.398-1.984 1.122-2.707 1.211-1.211 1.878-2.822 1.878-4.535v-.342c0-1.18.222-2.335.661-3.431.987-2.467 2.439-4.67 4.318-6.548l.314-.314 1.414 1.414-.314.314c-1.686 1.686-2.989 3.663-3.875 5.876-.344.859-.518 1.764-.518 2.689v.342c0 2.248-.875 4.361-2.464 5.95-.346.345-.536.804-.536 1.292 0 1.009.82 1.829 1.829 1.829h5.744c.787 0 1.427-.64 1.427-1.427 0-.22-.052-.441-.151-.639l-.487-.974c-.237-.475-.362-1.004-.362-1.533 0-1.792.616-3.548 1.735-4.947 1.461-1.826 2.265-4.119 2.265-6.456v-1.526c0-3.923-1.527-7.611-4.301-10.385l-.406-.406 1.414-1.414.406.406c3.151 3.151 4.887 7.342 4.887 11.799v1.526c0 2.79-.96 5.526-2.703 7.706-.837 1.045-1.297 2.358-1.297 3.697 0 .22.052.441.151.639l.487.974c.237.475.362 1.004.362 1.533 0 1.889-1.538 3.427-3.427 3.427z"/></g><g><path d="m27 61h-4.211c-1.538 0-2.789-1.251-2.789-2.789v-.105c0-1.063.591-2.019 1.542-2.494.291-.146.458-.417.458-.717 0-.247-.118-.483-.315-.631l-1.563-1.172c-1.329-.998-2.122-2.584-2.122-4.243v-1.546c0-1.05.308-2.067.891-2.941.985-1.479 2.635-2.362 4.412-2.362h.697v2h-.697c-1.107 0-2.134.55-2.748 1.471-.363.544-.555 1.178-.555 1.832v1.546c0 1.034.494 2.021 1.321 2.643l1.563 1.172c.699.524 1.116 1.357 1.116 2.231 0 1.063-.591 2.019-1.542 2.494-.291.145-.458.416-.458.716v.105c0 .436.354.79.789.79h4.211z"/></g><g><path d="m56.707 16.707-1.414-1.414 1.297-1.297c1.554-1.554 2.41-3.62 2.41-5.817 0-1.271-.3-2.543-.869-3.679l-.695-1.391-.339.057c-2.926.486-5.517 2.061-7.297 4.434l-1.6-1.2c2.09-2.786 5.133-4.636 8.568-5.208l1.067-.178c.43-.072.862.146 1.059.539l1.026 2.052c.706 1.412 1.08 2.994 1.08 4.573 0 2.731-1.064 5.3-2.996 7.231z"/></g><g><path d="m57.211 61h-4.211v-2h4.211c.435 0 .789-.354.789-.789v-.105c0-.301-.167-.571-.436-.706-.973-.487-1.564-1.442-1.564-2.505 0-.873.417-1.707 1.115-2.231l1.563-1.173c.828-.621 1.322-1.609 1.322-2.642v-1.546c0-.654-.192-1.288-.555-1.832-.613-.921-1.641-1.471-2.748-1.471h-.697v-2h.697c1.777 0 3.426.883 4.412 2.361.583.875.891 1.892.891 2.942v1.546c0 1.66-.793 3.246-2.121 4.242l-1.563 1.173c-.198.148-.316.383-.316.631 0 .301.167.571.436.706.973.486 1.564 1.441 1.564 2.504v.105c0 1.539-1.251 2.79-2.789 2.79z"/></g><g><path d="m40 18c-1.654 0-3-1.346-3-3v-10h2v10c0 .551.449 1 1 1s1-.449 1-1v-10h2v10c0 1.654-1.346 3-3 3z"/></g><g><path d="m45 6h2v8h-2z"/></g><g><path d="m33 6h2v8h-2z"/></g><g><path d="m36 31c-2.757 0-5-1.794-5-4h2c0 1.084 1.374 2 3 2s3-.916 3-2h2c0 2.206-2.243 4-5 4z"/></g><g><path d="m44 31c-2.757 0-5-1.794-5-4h2c0 1.084 1.374 2 3 2s3-.916 3-2h2c0 2.206-2.243 4-5 4z"/></g><g><path d="m40 28c-2.405 0-4-3.009-4-5s1.346-3 4-3 4 1.009 4 3-1.595 5-4 5zm0-6c-2 0-2 .531-2 1 0 1.239 1.034 3 2 3s2-1.761 2-3c0-.469 0-1-2-1z"/></g><g><path d="m51 19h-2c0-.551-.449-1-1-1s-1 .449-1 1h-2c0-1.654 1.346-3 3-3s3 1.346 3 3z"/></g><g><path d="m35 19h-2c0-.551-.449-1-1-1s-1 .449-1 1h-2c0-1.654 1.346-3 3-3s3 1.346 3 3z"/></g><g><path d="m38 59h4v2h-4z"/></g><g><path d="m40 44c-2.206 0-4-1.794-4-4s1.794-4 4-4 4 1.794 4 4-1.794 4-4 4zm0-6c-1.103 0-2 .897-2 2s.897 2 2 2 2-.897 2-2-.897-2-2-2z"/></g><g><path d="m39 40h2v3h-2z"/></g><g><path d="m43.196 39.98-.393-1.961c2.994-.599 5.694-2.242 7.601-4.625l.814-1.019 1.562 1.249-.814 1.019c-2.2 2.751-5.315 4.647-8.77 5.337z"/></g><g><path d="m36.804 39.98c-3.455-.691-6.569-2.586-8.77-5.337l-.815-1.019 1.562-1.249.814 1.019c1.907 2.384 4.606 4.026 7.601 4.625z"/></g><g><path d="m19 51h-1c-4.411 0-8-3.589-8-8v-13c0-.551-.449-1-1-1s-1 .449-1 1c0 1.654-1.346 3-3 3s-3-1.346-3-3c0-3.86 3.14-7 7-7s7 3.14 7 7v12c0 1.654 1.346 3 3 3v2c-2.757 0-5-2.243-5-5v-12c0-2.757-2.243-5-5-5s-5 2.243-5 5c0 .551.449 1 1 1s1-.449 1-1c0-1.654 1.346-3 3-3s3 1.346 3 3v13c0 3.309 2.691 6 6 6h1z"/></g><g><path d="m50.78 21.5h10.44v2h-10.44z" transform="matrix(.958 -.287 .287 .958 -4.102 17.024)"/></g><g><path d="m51 26h10v2h-10z"/></g><g><path d="m23 17.28h2v10.44h-2z" transform="matrix(.287 -.958 .958 .287 -4.447 39.023)"/></g><g><path d="m19 26h10v2h-10z"/></g><g><path d="m30 59h2v3h-2z"/></g><g><path d="m33 59h2v3h-2z"/></g><g><path d="m45 59h2v3h-2z"/></g><g><path d="m48 59h2v3h-2z"/></g><g><path d="m26.051 10.316c-.527-1.582-1.786-2.84-3.367-3.367l.632-1.897c2.176.725 3.908 2.457 4.633 4.633z"/></g><g><path d="m53.949 10.316-1.897-.632c.725-2.176 2.457-3.908 4.633-4.633l.632 1.897c-1.583.528-2.841 1.786-3.368 3.368z"/></g></g></svg>