<svg enable-background="new 0 0 128 128" height="512" viewBox="0 0 128 128" width="512" xmlns="http://www.w3.org/2000/svg"><g id="Cat"><g id="Tail_3_"><path d="m96 97c-1.5 0-2.9-.7-3.9-1.8-1.8-2.1-1.4-5.3.7-7 7.1-5.8 13-12.4 13.4-14.2.5-2.3 2.5-4 4.9-4 .3 0 .7 0 1 .1 1.3.3 2.4 1 3.2 2.2.7 1.1 1 2.5.7 3.8-1.4 6.7-13.2 16.9-16.8 19.8-.9.7-2 1.1-3.2 1.1z"/><path d="m111.5 73c-1.1-.2-2.1.5-2.4 1.5-.7 3.5-9.2 11.6-14.4 15.9-.9.7-1 2-.3 2.8.4.5 1 .7 1.5.7.4 0 .9-.1 1.3-.5 1.5-1.2 14.5-12.1 15.8-18.1.3-1-.4-2-1.5-2.3z" fill="#999"/></g><g id="Body_4_"><path d="m90.6 76.1-.9-4.6-41 10-.9 5.1-.1-.1c-4.8 4-6.2 30.7 0 30 .8-.1 1.5-.1 2.1-.2 2.1-.2 3.8-1.9 3.8-4.1 0-.8.1-1.7.2-2.8 4.3 2.1 9.7 3.8 15.5 3.4-.1 1.9-.3 3.4-.6 3.7-.8 1 6.7 2.6 8 1 .5-.6 1.4-3.5 2.1-6.7 3.8-1.1 7-2.5 9.6-3.8-.5 2.9-.9 5.7-.7 6.5.6 1.6 6 0 6 0 5.9-8.8 8.2-29.3-3.1-37.4" fill="#999"/><path d="m62 95c14.4 0 27.1-3.4 33.8-11.8-1.2-2.4-2.9-4.5-5.2-6.1l-.9-4.6-41 10-.9 5.1-.1-.1c-1.1.9-2 3-2.7 5.6 5.2 1.3 10.9 1.9 17 1.9z" fill="#808080"/><path d="m99.3 87.8c-1.2-5.4-3.7-9.7-7.4-12.5l-.2 3.7 1.2 1.7c1.9 2.6 2.9 5.5 3.4 7.9.8 3.8.8 7.8.3 11.5-.2 1.5-.5 2.9-.8 4.3-.8 3.2-1.9 5.9-3.2 8-1.4.4-3 .6-3.6.5 0-.8.2-2.6.6-4.7v-.2c1.2-.6 2.3-1.3 2.8-1.5.7-.4 1.4-1.1 1.2-1.9-.3-.8-1.1-1.5-2-.9l-.2.1-.2.1c-.2.1-.5.3-.8.5-1.1.6-2.5 1.4-3.4 1.8-1.8.9-4 1.8-6.4 2.6.3-2.5.2-4.9-.5-6.7-.3-.8-1.2-1.1-2-.8s-1.1 1.2-.8 2c.7 1.6.5 4.2.1 6.6-.2 1.2-.4 2.3-.7 3.3-.5 1.8-.9 3.1-1.2 3.6-.8.4-3.8 0-5.2-.5.1-.5.2-1.1.3-1.9 0-.2 0-.4.1-.6.1-.7.1-1.5.2-2.4.1-2.1.2-4.8.3-8.6 0-.8-.6-1.5-1.5-1.5-.8 0-1.5.7-1.5 1.5-.1 3-.2 6.3-.3 8.9-4.5.1-8.8-1.2-12.4-2.8.3-1.7.9-3.5 1.6-5.5.3-.8-.1-1.6-.9-1.9s-1.6.1-1.9.9c-.7 1.8-1.2 3.6-1.6 5.2-.3 1.1-.5 2.2-.6 3.2-.1.7-.1 1.3-.1 1.9 0 1.4-1 2.5-2.4 2.6-.6 0-1.3.1-2.1.2-.5 0-1-1-1.2-1.4-.8-1.9-1.2-4.7-1.3-7.9-.2-7.4 1.5-16.3 3.6-18.1.6-.5.7-1.5.2-2.1s-1.5-.7-2.1-.2c-.1.1-.2.2-.3.3-4.4 4.4-5.7 22.5-2.9 29.1 1.2 2.8 2.9 3.3 3.9 3.3h.4c.8-.1 1.4-.1 2.1-.2 2.9-.2 5.1-2.6 5.1-5.6 0-.2 0-.4 0-.6 3.6 1.5 7.9 2.7 12.5 2.7h.1c-.1.7-.1 1.2-.2 1.4-.4.7-.4 1.7.6 2.4.9.7 3.7 1.5 6.2 1.5 1.6 0 3-.3 3.7-1.3.5-.7 1.5-3.3 2.2-6.4 2.3-.7 4.5-1.6 6.3-2.4-.3 2.1-.4 3.7-.1 4.4.5 1.3 1.8 1.7 3.4 1.7 1.5 0 3.2-.4 4.5-.8.3-.1.6-.3.8-.6 3.8-6.1 6.5-17 4.3-26.9z"/></g><g id="Head_13_"><g id="Ear_2_"><g><path d="m63.6 26.6s19.1-15.5 29-18.8c12.6-4.2 5 40.9 5 40.9l-15.9.9z" fill="#999"/><path d="m81.8 51.1c-.5 0-.9-.2-1.2-.6l-18.1-23c-.5-.6-.4-1.6.2-2.1.8-.6 19.5-15.7 29.5-19 2.6-.9 4.3 0 5.3.9 7.3 6.3 2.2 38.1 1.6 41.8-.1.7-.7 1.2-1.4 1.2zm-16.1-24.3 16.7 21.3 13.9-.7c2.1-13.1 3.6-34-.8-37.8-.4-.4-1.1-.7-2.4-.3-8.1 2.7-23.1 14.2-27.4 17.5z"/><path d="m71.4 28.4s12.4-10 18.8-12.1c8.1-2.7 3.2 26.5 3.2 26.5l-10.3.6z" fill="#ebebeb"/><path d="m83.1 44.8c-.5 0-.9-.2-1.2-.6l-11.7-14.9c-.5-.6-.4-1.6.2-2.1.5-.4 12.7-10.2 19.2-12.4 1.9-.6 3.2 0 3.9.7 4.9 4.2 1.9 23.6 1.2 27.5-.1.7-.7 1.2-1.4 1.2zm-9.6-16.2 10.3 13.1 8.3-.4c1.4-8.9 2.1-21.4-.4-23.5-.2-.2-.4-.3-1-.1-5 1.6-14 8.4-17.2 10.9z"/></g><g><path d="m58.2 26.6s-19.1-15.5-29-18.8c-12.6-4.2-5 40.9-5 40.9l15.9.9z" fill="#999"/><path d="m40.1 51.1-15.9-.9c-.7 0-1.3-.6-1.4-1.2-.6-3.6-5.7-35.5 1.6-41.8 1-.9 2.8-1.7 5.3-.9 10 3.3 28.7 18.4 29.5 19 .6.5.7 1.4.2 2.1l-18.1 23c-.3.5-.8.7-1.2.7zm-14.6-3.8 13.9.7 16.7-21.3c-4.2-3.2-19.2-14.7-27.4-17.5-1.3-.4-2-.1-2.4.3-4.4 3.8-2.9 24.7-.8 37.8z"/><path d="m50.5 28.4s-12.4-10-18.8-12.1c-8.1-2.7-3.2 26.5-3.2 26.5l10.3.6z" fill="#ebebeb"/><path d="m38.8 44.8c-.1 0-.1 0 0 0l-10.3-.6c-.7 0-1.3-.6-1.4-1.2-.7-3.9-3.7-23.3 1.2-27.5.8-.6 2.1-1.3 3.9-.7 6.6 2.2 18.7 12 19.2 12.4.6.5.7 1.4.2 2.1l-11.7 14.9c-.2.4-.7.6-1.1.6zm-9-3.5 8.3.4 10.3-13.1c-3.2-2.5-12.2-9.3-17.1-11-.6-.2-.9-.1-1 .1-2.6 2.2-1.9 14.7-.5 23.6z"/></g></g><g id="Head_1_"><path d="m22 61c0 20.4 17.5 28 39 28s39-7.6 39-28-7.7-46-39-46-39 25.6-39 46" fill="#999"/><path d="m61 84c-20.8 0-37.8-7.1-38.9-26 0 1-.1 2-.1 3 0 20.4 17.5 28 39 28s39-7.6 39-28c0-1 0-2-.1-3-1.1 18.9-18.1 26-38.9 26z" fill="#808080"/><path d="m61 26c27.9 0 37.1 20.4 38.7 39.3.2-1.4.3-2.8.3-4.3 0-20.4-7.8-46-39-46-31.3 0-39 25.6-39 46 0 1.5.1 2.9.3 4.3 1.6-18.9 10.8-39.3 38.7-39.3z" fill="#b3b3b3" opacity=".8"/><g fill="#ebebeb"><path d="m55 15.3v15.9c0 1.8-1.5 3.2-3.2 3.2-1.8 0-3.2-1.5-3.2-3.2v-14.6c1.9-.6 4.1-1 6.4-1.3z"/><path d="m64.2 15.1v19.1c0 1.8-1.4 3.2-3.2 3.2s-3.2-1.5-3.2-3.2v-19.1c1-.1 2.1-.1 3.2-.1s2.2 0 3.2.1z"/><path d="m73.5 16.6v14.6c0 1.8-1.4 3.2-3.2 3.2s-3.2-1.5-3.2-3.2v-15.9c2.2.3 4.4.7 6.4 1.3z"/></g><path d="m61 64.8c-13.1 0-24.5 6.7-30.2 16.5 6.9 6.3 17.9 8.7 30.2 8.7s23.3-2.4 30.2-8.7c-5.7-9.8-17.1-16.5-30.2-16.5" fill="#ebebeb"/><path d="m33.4 77.6c-.9 1.1-1.6 2.2-2.3 3.4 7.2 5.7 17.9 8 30 8s22.8-2.4 30-8c-.7-1.2-1.5-2.3-2.3-3.4-7.2 4.5-17 6.4-27.8 6.4s-20.6-1.9-27.6-6.4z" fill="#bcbcbc"/><path d="m61 90.5c-26.1 0-40.5-10.5-40.5-29.5 0-14.3 3.9-47.5 40.5-47.5s40.5 33.2 40.5 47.5c0 19-14.4 29.5-40.5 29.5zm0-74c-33.8 0-37.5 31.1-37.5 44.5 0 23.1 23.5 26.5 37.5 26.5s37.5-3.4 37.5-26.5c0-13.4-3.7-44.5-37.5-44.5z"/></g><g id="Nose_2_"><path d="m61 68c-3.8 0-6.9 2-6.9 4.4s3.1 7 6.9 7 6.9-4.5 6.9-7c0-2.4-3.1-4.4-6.9-4.4" fill="#a39095"/><path d="m61 66.5c-4.7 0-8.4 2.6-8.4 5.9 0 2.8 2.6 6.8 6.2 8.1.7.3 1.4.4 2.2.4.5 0 1.1-.1 1.6-.2 3.9-1 6.8-5.3 6.8-8.3 0-3.3-3.7-5.9-8.4-5.9zm.5 11.3c-.2 0-.3 0-.5 0-.3 0-.7 0-1-.2-2.4-.7-4.4-3.8-4.4-5.3 0-1.4 2.2-2.9 5.4-2.9s5.4 1.5 5.4 2.9c0 1.7-2.3 5.1-4.9 5.5z"/></g><g id="Eyes_7_"><circle cx="76.9" cy="63.5" r="3"/><circle cx="45.1" cy="63.5" r="3"/></g><g id="Whisker"><g><g><path d="m82.4 68.5s9.5-2.5 22.2-1.4" fill="#999"/><path d="m82.4 70c-.7 0-1.3-.4-1.4-1.1-.2-.8.3-1.6 1.1-1.8.4-.1 9.9-2.6 22.8-1.5.8.1 1.4.8 1.4 1.6-.1.8-.8 1.4-1.6 1.4-12.3-1.1-21.6 1.3-21.7 1.4-.4 0-.5 0-.6 0z"/></g><g><path d="m82.4 75.7s12.4-.1 20.1.9" fill="#999"/><path d="m102.4 78c-.1 0-.1 0-.2 0-7.4-1-19.7-.8-19.8-.8-.8 0-1.5-.7-1.5-1.5s.7-1.5 1.5-1.5c.5 0 12.6-.1 20.3.9.8.1 1.4.9 1.3 1.7-.2.7-.8 1.2-1.6 1.2z"/></g><g><path d="m81.4 82.1s12.3 1.7 18 3.6" fill="#999"/><path d="m99.4 87.2c-.2 0-.3 0-.5-.1-5.6-1.8-17.6-3.5-17.8-3.5-.8-.1-1.4-.9-1.3-1.7s.9-1.4 1.7-1.3c.5.1 12.4 1.8 18.2 3.6.8.3 1.2 1.1 1 1.9-.1.7-.7 1.1-1.3 1.1z"/></g></g><g><g><path d="m39.6 68.5s-9.5-2.5-22.2-1.4" fill="#999"/><path d="m39.6 70c-.1 0-.3 0-.4-.1-.1 0-9.4-2.5-21.7-1.4-.8.1-1.6-.5-1.6-1.4-.1-.8.5-1.6 1.4-1.6 12.8-1.1 22.4 1.4 22.8 1.5.8.2 1.3 1 1.1 1.8-.3.8-.9 1.2-1.6 1.2z"/></g><g><path d="m39.6 75.7s-12.4-.1-20.1.9" fill="#999"/><path d="m19.6 78c-.7 0-1.4-.5-1.5-1.3s.5-1.6 1.3-1.7c7.7-1 19.8-.9 20.3-.9.8 0 1.5.7 1.5 1.5s-.7 1.5-1.5 1.5c-.1 0-12.4-.1-19.8.8-.2.1-.3.1-.3.1z"/></g><g><path d="m40.6 82.1s-12.3 1.7-18 3.6" fill="#999"/><path d="m22.6 87.2c-.6 0-1.2-.4-1.4-1-.3-.8.2-1.6 1-1.9 5.8-1.9 17.7-3.6 18.2-3.6.8-.1 1.6.5 1.7 1.3s-.5 1.6-1.3 1.7c-.1 0-12.2 1.7-17.8 3.5-.1-.1-.2 0-.4 0z"/></g></g></g><path id="Mouth" d="m68 84.9c-.8.3-1.6.5-2.5.5-2 0-3.7-.9-4.9-2.3-1.2 1.4-2.9 2.3-4.9 2.3-.9 0-1.7-.2-2.5-.5s-1.1-1.2-.8-2 1.2-1.1 2-.8c.4.2.9.3 1.3.3 1.4 0 2.5-.8 3.1-2 .2-.4.3-.9.3-1.4 0-.6.4-1.1.9-1.4.3.1.7.2 1 .2h.5c.4.3.7.7.7 1.3s.2 1.1.4 1.6c.6 1.1 1.7 1.8 3 1.8.5 0 .9-.1 1.3-.3.8-.3 1.6 0 2 .8.2.7-.1 1.6-.9 1.9z"/></g></g></svg>