<svg enable-background="new 0 0 128 128" height="512" viewBox="0 0 128 128" width="512" xmlns="http://www.w3.org/2000/svg"><g id="Caterpillar"><g id="Abdomen"><g><ellipse cx="98.1" cy="93.9" fill="#ffd81a" rx="3.7" ry="5.1" transform="matrix(.779 -.627 .627 .779 -37.201 82.233)"/><path d="m99.4 100c-1.9 0-3.9-1-5.3-2.8-2.3-2.9-2.3-6.6-.1-8.4 1.1-.9 2.7-1.2 4.3-.8 1.5.4 2.8 1.3 3.9 2.6 2.3 2.9 2.3 6.6.1 8.4-.9.7-1.9 1-2.9 1zm-2.6-9.2c-.3 0-.7.1-1 .3-.8.7-.8 2.6.5 4.2s3.2 2.1 4 1.4.8-2.6-.5-4.2c-.6-.8-1.5-1.4-2.3-1.6-.2-.1-.4-.1-.7-.1z"/></g><g><ellipse cx="107.6" cy="90" fill="#ffd81a" rx="3.3" ry="4.6" transform="matrix(.779 -.627 .627 .779 -32.669 87.358)"/><path d="m108.8 95.7c-1.7 0-3.5-.9-4.9-2.6-2.1-2.6-2.1-6.1 0-7.8 1.1-.9 2.5-1.1 4-.7 1.3.4 2.6 1.2 3.6 2.4 1 1.2 1.5 2.6 1.6 4 .1 1.5-.5 2.9-1.6 3.8-.8.6-1.8.9-2.7.9zm-2.3-8.3c-.3 0-.5.1-.8.2-.7.5-.6 2.1.5 3.5s2.7 1.8 3.4 1.2c.4-.3.5-1 .4-1.3 0-.7-.4-1.6-.9-2.3-.6-.7-1.3-1.2-2-1.4-.2.1-.4.1-.6.1z"/></g><g><path d="m117.5 80.6c0 6.1-4 8.1-9 8.1s-9-2-9-8.1c0-4.6 4-8.5 9-8.5s9 4 9 8.5z" fill="#8cc63f"/><path d="m103.5 85c0-4.6 4-8.5 9-8.5 1.6 0 3 .4 4.3 1.1-1.3-3.2-4.6-5.5-8.4-5.5-5 0-9 3.9-9 8.5 0 4.1 1.8 6.3 4.4 7.4-.1-.8-.3-1.8-.3-3z" fill="#acdc57"/><path d="m108.5 90.3c-6.8 0-10.5-3.4-10.5-9.6 0-5.5 4.7-10 10.5-10s10.5 4.5 10.5 10c0 6.1-3.9 9.6-10.5 9.6zm0-16.6c-4.1 0-7.5 3.2-7.5 7 0 2.8.8 6.6 7.5 6.6 5 0 7.5-2.2 7.5-6.6 0-3.8-3.5-7-7.5-7z"/></g><g><path d="m110.5 82.6c0 7.9-5.2 10.6-11.7 10.6s-11.7-2.6-11.7-10.6c0-6 5.2-11 11.7-11s11.7 5 11.7 11z" fill="#8cc63f"/><path d="m91.5 88.6c0-6 5.2-11 11.7-11 2.6 0 5 .8 6.9 2.2-1.3-4.6-5.9-8.2-11.3-8.2-6.5 0-11.7 5.1-11.7 11 0 4.7 1.8 7.6 4.7 9.1-.2-1-.3-2-.3-3.1z" fill="#acdc57"/><path d="m98.8 94.7c-8.5 0-13.2-4.3-13.2-12.1 0-6.9 5.9-12.5 13.2-12.5s13.2 5.6 13.2 12.5c0 7.8-4.7 12.1-13.2 12.1zm0-21.6c-5.5 0-10.2 4.4-10.2 9.5 0 6.1 3.3 9.1 10.2 9.1s10.2-3 10.2-9.1c0-5.2-4.7-9.5-10.2-9.5z"/></g><g><path d="m102.9 82.9c0 10-6.6 13.3-14.7 13.3s-14.7-3.2-14.7-13.3c0-7.5 6.6-13.9 14.7-13.9s14.7 6.4 14.7 13.9z" fill="#8cc63f"/><path d="m75.1 90c0-7.5 6.6-13.9 14.7-13.9 5.7 0 10.6 3.1 13 7.5 0-.3 0-.5 0-.8 0-7.5-6.6-13.9-14.7-13.9s-14.7 6.4-14.7 13.9c0 3 .6 5.4 1.6 7.3.1 0 .1 0 .1-.1z" fill="#acdc57"/><path d="m88.2 97.7c-10.5 0-16.2-5.3-16.2-14.8 0-8.5 7.3-15.4 16.2-15.4s16.2 6.9 16.2 15.4c0 9.5-5.8 14.8-16.2 14.8zm0-27.2c-7.2 0-13.2 5.7-13.2 12.4 0 7.9 4.3 11.8 13.2 11.8 8.7 0 13.2-4 13.2-11.8 0-6.7-6.1-12.4-13.2-12.4z"/></g><g><ellipse cx="53.9" cy="100.2" fill="#ffd81a" rx="4.9" ry="6.7" transform="matrix(.918 .397 -.397 .918 44.192 -13.157)"/><path d="m52.7 108.1c-.7 0-1.4-.1-2-.4-1.6-.7-2.8-2.2-3.3-4.2-.4-1.8-.2-3.9.6-5.8s2.2-3.5 3.8-4.5c1.7-1 3.7-1.2 5.3-.5s2.8 2.2 3.3 4.2c.4 1.8.2 3.9-.6 5.8-1.5 3.3-4.4 5.4-7.1 5.4zm2.4-12.9c-.7 0-1.3.3-1.7.5-1.1.6-2 1.7-2.6 3.1-.6 1.3-.7 2.8-.5 4 .1.6.5 1.7 1.5 2.1 1.7.7 4.1-.8 5.2-3.4.6-1.3.7-2.8.5-4-.1-.6-.5-1.7-1.5-2.1-.4-.1-.7-.2-.9-.2z"/></g><g><ellipse cx="87.5" cy="96.9" fill="#ffd81a" rx="4.5" ry="6.2" transform="matrix(.779 -.627 .627 .779 -41.438 76.287)"/><path d="m89.1 104c-.5 0-1.1-.1-1.7-.2-1.7-.5-3.3-1.5-4.5-3.1-1.2-1.5-1.9-3.3-2-5.1-.1-1.9.6-3.6 1.9-4.6s3.1-1.4 4.9-.9c1.7.5 3.3 1.5 4.5 3.1 2.7 3.3 2.7 7.6.1 9.7-.9.7-2 1.1-3.2 1.1zm-3.1-11.1c-.5 0-1 .1-1.4.4-.8.6-.8 1.6-.8 2.2 0 1.1.5 2.3 1.4 3.3.8 1 1.9 1.8 3 2.1.5.1 1.5.3 2.3-.3 1.3-1 1-3.6-.6-5.5-.8-1-1.9-1.8-3-2.1-.2-.1-.6-.1-.9-.1z"/></g><g><path d="m94.1 85.5c0 11.8-7.7 15.7-17.3 15.7s-17.3-3.8-17.3-15.7c0-8.8 7.7-16.3 17.3-16.3s17.3 7.5 17.3 16.3z" fill="#8cc63f"/><path d="m62.5 92.5c0-8.8 7.7-16.3 17.3-16.3 5.8 0 11 2.8 14.1 7-1.2-7.8-8.4-14-17.1-14-9.6 0-17.3 7.5-17.3 16.3 0 4.7 1.2 8.1 3.3 10.5-.2-1.1-.3-2.2-.3-3.5z" fill="#acdc57"/><path d="m76.8 102.7c-12.3 0-18.8-5.9-18.8-17.2 0-9.8 8.4-17.8 18.8-17.8s18.8 8 18.8 17.8c0 11.1-6.7 17.2-18.8 17.2zm0-32c-8.6 0-15.8 6.8-15.8 14.8 0 9.5 5.2 14.2 15.8 14.2 10.5 0 15.8-4.8 15.8-14.2 0-8-7.2-14.8-15.8-14.8z"/></g><g><ellipse cx="68.2" cy="100.2" fill="#ffd81a" rx="4.9" ry="6.7" transform="matrix(.918 .397 -.397 .918 45.367 -18.834)"/><path d="m67 108.1c-.7 0-1.4-.1-2-.4-3.2-1.4-4.4-5.9-2.6-10.1.8-1.9 2.2-3.5 3.8-4.5 1.7-1 3.7-1.2 5.3-.5s2.8 2.2 3.3 4.2c.4 1.8.2 3.9-.6 5.8-1.6 3.4-4.5 5.5-7.2 5.5zm2.4-12.9c-.7 0-1.3.3-1.7.5-1.1.6-2 1.7-2.6 3.1-1.1 2.6-.6 5.4 1.1 6.1s4.1-.8 5.2-3.4c.6-1.3.7-2.8.5-4-.1-.6-.5-1.7-1.5-2.1-.5-.1-.8-.2-1-.2z"/></g><g><ellipse cx="75.6" cy="99.8" fill="#ffd81a" rx="5.1" ry="7" transform="matrix(.779 -.627 .627 .779 -45.855 69.425)"/><path d="m77.3 107.6c-.6 0-1.2-.1-1.8-.2-1.9-.5-3.7-1.7-5-3.4-1.4-1.7-2.2-3.7-2.3-5.7-.1-2.1.7-3.9 2.1-5.1 1.4-1.1 3.4-1.5 5.4-1 1.9.5 3.7 1.7 5 3.4 2.9 3.6 3 8.5.2 10.7-1 .9-2.2 1.3-3.6 1.3zm-3.5-12.6c-.5 0-1.2.1-1.7.5-.9.7-1 2-1 2.6.1 1.3.6 2.7 1.6 3.9s2.2 2.1 3.5 2.4c.6.2 1.8.3 2.8-.4 1.5-1.2 1.2-4.2-.6-6.5-1-1.2-2.2-2.1-3.5-2.4-.3 0-.6-.1-1.1-.1z"/></g><g><path d="m82.3 86.5c0 12.5-8.2 16.7-18.4 16.7s-18.4-4-18.4-16.7c0-9.4 8.2-17.3 18.4-17.3s18.4 7.9 18.4 17.3z" fill="#8cc63f"/><path d="m75.5 78c0-1.9-.3-3.8-.9-5.5-3-2.1-6.7-3.3-10.7-3.3-10.2 0-18.4 8-18.4 17.3 0 3.5.7 6.3 1.8 8.6 2.5.7 5.3 1 8.2 1 11.1.1 20-4.5 20-18.1z" fill="#5aa319"/><path d="m63.9 104.7c-13 0-19.9-6.3-19.9-18.2 0-10.4 8.9-18.8 19.9-18.8s19.9 8.5 19.9 18.8c0 11.7-7.1 18.2-19.9 18.2zm0-34c-9.2 0-16.9 7.3-16.9 15.8 0 10.2 5.5 15.2 16.9 15.2 11.2 0 16.9-5.1 16.9-15.2 0-8.6-7.8-15.8-16.9-15.8z"/></g><g><ellipse cx="38" cy="89" fill="#ffd81a" rx="5.5" ry="7.5" transform="matrix(.918 .397 -.397 .918 38.426 -7.771)"/><path d="m36.6 97.7c-.8 0-1.5-.1-2.2-.5-3.5-1.5-4.8-6.5-2.9-11 .9-2.1 2.4-3.9 4.2-4.9 1.9-1.1 4-1.3 5.8-.6 1.8.8 3.1 2.4 3.6 4.6.5 2 .2 4.3-.7 6.4-1.6 3.7-4.7 6-7.8 6zm2.7-14.5c-.6 0-1.3.2-2 .6-1.2.7-2.3 2-3 3.5-1.3 3-.7 6.2 1.3 7.1s4.8-.9 6.1-3.9c.7-1.5.9-3.2.5-4.6-.3-1.2-.9-2.1-1.8-2.5-.4-.1-.7-.2-1.1-.2z"/></g><g><ellipse cx="66.5" cy="88.9" fill="#ffd81a" rx="5.5" ry="7.5" transform="matrix(.779 -.627 .627 .779 -41.073 61.321)"/><path d="m68.4 97.2c-.6 0-1.3-.1-2-.3-2-.5-3.9-1.8-5.4-3.6-3.1-3.9-3.2-9-.2-11.4 1.5-1.2 3.6-1.6 5.7-1 2 .5 3.9 1.8 5.4 3.6s2.3 3.9 2.4 6c.1 2.2-.7 4.2-2.2 5.4-1 .9-2.3 1.3-3.7 1.3zm-3.8-13.5c-.7 0-1.4.2-1.9.6-1.7 1.4-1.4 4.6.6 7.2 1.1 1.3 2.4 2.2 3.8 2.6 1.2.3 2.3.2 3.1-.4s1.2-1.6 1.1-2.9c-.1-1.4-.7-3-1.7-4.3-1.1-1.3-2.4-2.2-3.8-2.6-.4-.2-.8-.2-1.2-.2z"/></g><g><path d="m72.5 74c0 13.6-9 18.1-20 18.1s-20-4.4-20-18.1c0-10.2 9-18.9 20-18.9s20 8.7 20 18.9z" fill="#8cc63f"/><path d="m70.2 65.4c-3.3-6-10-10.2-17.7-10.2-11.1 0-20 8.7-20 18.9 0 1.6.1 3 .4 4.4 3.6 1.2 7.8 1.8 12.2 1.8 11.7-.1 21.7-4 25.1-14.9z" fill="#5aa319"/><path d="m52.5 93.7c-14.1 0-21.5-6.8-21.5-19.7 0-11.2 9.6-20.4 21.5-20.4s21.5 9.2 21.5 20.4c0 12.7-7.6 19.7-21.5 19.7zm0-37c-10 0-18.5 8-18.5 17.4 0 11 6.2 16.6 18.5 16.6s18.5-5.6 18.5-16.7c0-9.4-8.5-17.3-18.5-17.3z"/></g></g><g id="Head_17_"><g id="Head_6_"><path d="m69.5 51.2c0 18-11.9 24-26.5 24s-26.5-5.8-26.5-24c0-13.5 11.9-25 26.5-25s26.5 11.4 26.5 25z" fill="#8cc63f"/><path d="m17.6 57.1c0-13 11.4-24 25.4-24s25.4 11 25.4 24c0 1 0 2-.1 3 .8-2.6 1.2-5.5 1.2-8.9 0-13.5-11.9-25-26.5-25s-26.5 11.5-26.5 25c0 3.4.4 6.4 1.2 9-.1-1-.1-2-.1-3.1z" fill="#acdc57"/><path d="m43 70.2c-13.8 0-25.2-5.2-26.4-21.2-.1.7-.1 1.4-.1 2.2 0 18.2 11.9 24 26.5 24s26.5-6 26.5-24c0-.7 0-1.5-.1-2.2-1.2 15.8-12.6 21.2-26.4 21.2z" fill="#5aa319"/><path d="m43 76.7c-18.3 0-28-8.8-28-25.5 0-14.6 12.6-26.5 28-26.5s28 11.9 28 26.5c0 16.4-9.9 25.5-28 25.5zm0-49c-13.6 0-25 10.8-25 23.5 0 14.9 8.4 22.5 25 22.5s25-7.6 25-22.5c0-12.8-11.4-23.5-25-23.5z"/></g><g id="Eyes_1_"><circle cx="54.5" cy="55.2" r="3"/><circle cx="30.5" cy="55.2" r="3"/></g><path id="Mouth_4_" d="m36 61.7c0-.8.7-1.5 1.5-1.5s1.5.7 1.5 1.5c0 2.2 1.8 4 4 4s4-1.8 4-4c0-.8.7-1.5 1.5-1.5s1.5.7 1.5 1.5c0 3.9-3.1 7-7 7s-7-3.2-7-7z"/><g id="Tentacle"><g><path d="m55.4 39.7c2-8 7.3-14.9 14.5-18.9 1.4-.8 2-2.6 1.2-4.1-.8-1.4-2.6-2-4.1-1.2-8.7 4.8-15 13.1-17.5 22.7" fill="#8cc63f"/><path d="m55.4 41.2c-.1 0-.2 0-.4 0-.8-.2-1.3-1-1.1-1.8 2.1-8.4 7.7-15.6 15.3-19.8.7-.4 1-1.3.6-2s-1.3-1-2-.6c-8.3 4.5-14.4 12.4-16.8 21.6-.2.8-1 1.3-1.8 1.1s-1.3-1-1.1-1.8c2.5-10 9.1-18.6 18.2-23.6 2.2-1.2 4.9-.4 6.1 1.7 1.2 2.2.4 4.9-1.7 6.1-6.9 3.8-11.9 10.4-13.8 17.9-.2.7-.8 1.2-1.5 1.2z"/></g><g><path d="m28.6 39.7c-2-8-7.3-14.9-14.5-18.9-1.4-.8-2-2.6-1.2-4.1.8-1.4 2.6-2 4.1-1.2 8.7 4.8 15 13.1 17.5 22.7" fill="#8cc63f"/><path d="m28.6 41.2c-.7 0-1.3-.5-1.5-1.1-1.9-7.6-7-14.1-13.8-17.9-2.2-1.2-3-4-1.7-6.1 1.2-2.2 3.9-3 6.1-1.8 9 5 15.7 13.6 18.2 23.6.2.8-.3 1.6-1.1 1.8s-1.6-.3-1.8-1.1c-2.3-9.2-8.4-17.1-16.7-21.7-.7-.4-1.6-.1-2 .6s-.1 1.6.6 2c7.6 4.2 13.2 11.4 15.3 19.8.2.8-.3 1.6-1.1 1.8-.3.1-.4.1-.5.1z"/></g></g></g></g></svg>