<svg id="Layer_3" height="512" viewBox="0 0 64 64" width="512" xmlns="http://www.w3.org/2000/svg" data-name="Layer 3"><rect fill="#2763bb" height="34" rx="3" width="60" x="2" y="17"/><path d="m46 13h6v4h-6z" fill="#686868"/><path d="m50 51h8v4h-8z" fill="#3079e6"/><path d="m45 9h8a2 2 0 0 1 2 2v2a0 0 0 0 1 0 0h-12a0 0 0 0 1 0 0v-2a2 2 0 0 1 2-2z" fill="#aa2b24"/><path d="m50 53h4a2 2 0 0 0 2-2h-6z" fill="#5994eb"/><path d="m6 51h8v4h-8z" fill="#3079e6"/><path d="m6 53h4a2 2 0 0 0 2-2h-6z" fill="#5994eb"/><path d="m52 9h-7a2 2 0 0 0 -2 2h7a2 2 0 0 0 2-2z" fill="#d24034"/><path d="m46 13v3h3a2 2 0 0 0 2-2v-1z" fill="#868686"/><path d="m12 13h6v4h-6z" fill="#686868"/><path d="m11 9h8a2 2 0 0 1 2 2v2a0 0 0 0 1 0 0h-12a0 0 0 0 1 0 0v-2a2 2 0 0 1 2-2z" fill="#aa2b24"/><path d="m18 9h-7a2 2 0 0 0 -2 2h7a2 2 0 0 0 2-2z" fill="#d24034"/><path d="m12 13v3h3a2 2 0 0 0 2-2v-1z" fill="#868686"/><path d="m6 21h52v26h-52z" fill="#ccc"/><path d="m6 21v23h44a4 4 0 0 0 4-4v-19z" fill="#f2f2f2"/><rect fill="#fff" height="17" rx="3" width="33" x="9" y="24"/><path d="m35 13h-6a2 2 0 0 0 -2 2v2h10v-2a2 2 0 0 0 -2-2z" fill="#3079e6"/><path d="m35 13h-6a2 2 0 0 0 -2 2h6a2 2 0 0 0 2-2z" fill="#5994eb"/><circle cx="44" cy="34" fill="#bce4f8" r="9"/><path d="m44 25a8.989 8.989 0 0 0 -6.695 15h8.695a4 4 0 0 0 4-4v-8.695a8.955 8.955 0 0 0 -6-2.305z" fill="#e4f5fd"/><circle cx="20" cy="34" fill="#bce4f8" r="9"/><path d="m20 25a8.989 8.989 0 0 0 -6.695 15h8.695a4 4 0 0 0 4-4v-8.695a8.955 8.955 0 0 0 -6-2.305z" fill="#e4f5fd"/><path d="m59 16h-6v-2h2a1 1 0 0 0 1-1v-2a3 3 0 0 0 -3-3h-8a3 3 0 0 0 -3 3v2a1 1 0 0 0 1 1h2v2h-7v-1a3 3 0 0 0 -3-3h-6a3 3 0 0 0 -3 3v1h-7v-2h2a1 1 0 0 0 1-1v-2a3 3 0 0 0 -3-3h-8a3 3 0 0 0 -3 3v2a1 1 0 0 0 1 1h2v2h-6a4 4 0 0 0 -4 4v28a4 4 0 0 0 4 4v3a1 1 0 0 0 1 1h8a1 1 0 0 0 1-1v-3h34v3a1 1 0 0 0 1 1h8a1 1 0 0 0 1-1v-3a4 4 0 0 0 4-4v-28a4 4 0 0 0 -4-4zm-15-5a1 1 0 0 1 1-1h8a1 1 0 0 1 1 1v1h-10zm3 3h4v2h-4zm-19 1a1 1 0 0 1 1-1h6a1 1 0 0 1 1 1v1h-8zm-18-4a1 1 0 0 1 1-1h8a1 1 0 0 1 1 1v1h-10zm3 3h4v2h-4zm0 40h-6v-2h6zm44 0h-6v-2h6zm4-6a2 2 0 0 1 -2 2h-54a2 2 0 0 1 -2-2v-28a2 2 0 0 1 2-2h54a2 2 0 0 1 2 2z"/><path d="m58 20h-52a1 1 0 0 0 -1 1v26a1 1 0 0 0 1 1h52a1 1 0 0 0 1-1v-26a1 1 0 0 0 -1-1zm-1 26h-50v-24h50z"/><path d="m20 44a10 10 0 1 0 -10-10 10.011 10.011 0 0 0 10 10zm-7.931-11a7.953 7.953 0 0 1 1.619-3.9l1.6 1.605 1.414-1.414-1.602-1.603a7.953 7.953 0 0 1 3.9-1.619v1.931h2v-1.931a7.953 7.953 0 0 1 3.9 1.619l-1.605 1.605 1.414 1.414 1.603-1.607a7.953 7.953 0 0 1 1.619 3.9h-1.931v2h1.931a7.953 7.953 0 0 1 -1.619 3.9l-1.605-1.605-1.414 1.414 1.605 1.6a7.953 7.953 0 0 1 -3.898 1.622v-1.931h-2v1.931a7.953 7.953 0 0 1 -3.9-1.619l1.605-1.6-1.414-1.414-1.6 1.605a7.953 7.953 0 0 1 -1.622-3.903h1.931v-2z"/><path d="m22.292 37.705 1.414-1.414-2.706-2.705v-3.586h-2v4a1 1 0 0 0 .293.707z"/><path d="m44 44a10 10 0 1 0 -10-10 10.011 10.011 0 0 0 10 10zm-7.931-11a7.953 7.953 0 0 1 1.619-3.9l1.6 1.605 1.414-1.414-1.602-1.603a7.953 7.953 0 0 1 3.9-1.619v1.931h2v-1.931a7.953 7.953 0 0 1 3.9 1.619l-1.605 1.605 1.414 1.414 1.6-1.605a7.953 7.953 0 0 1 1.622 3.898h-1.931v2h1.931a7.953 7.953 0 0 1 -1.619 3.9l-1.6-1.605-1.414 1.414 1.605 1.6a7.953 7.953 0 0 1 -3.903 1.622v-1.931h-2v1.931a7.953 7.953 0 0 1 -3.9-1.619l1.605-1.6-1.414-1.414-1.6 1.605a7.953 7.953 0 0 1 -1.622-3.903h1.931v-2z"/><path d="m46.292 37.705 1.414-1.414-2.706-2.705v-3.586h-2v4a1 1 0 0 0 .293.707z"/></svg>