<svg height="512" viewBox="0 0 48 48" width="512" xmlns="http://www.w3.org/2000/svg"><g id="clipboard"><path d="m6 1h36v46h-36z" fill="#a87e6b"/><path d="m42 1v44h-30a4 4 0 0 1 -4-4v-40z" fill="#be927c"/><path d="m38 5v30l-8 8h-20v-38z" fill="#dad7e5"/><path d="m38 5v30l-6 6h-14a6 6 0 0 1 -6-6v-30z" fill="#edebf2"/><path d="m16 1h16v4h-16z" fill="#fc6"/><path d="m32 1v2h-12a2 2 0 0 1 -2-2z" fill="#ffde76"/><path d="m31 5v2a3 3 0 0 1 -3 3h-8a3 3 0 0 1 -3-3v-2h2v2a1 1 0 0 0 1 1h8a1 1 0 0 0 1-1v-2z" fill="#919191"/><g fill="#c6c3d8"><path d="m38 35-8 8v-8z"/><path d="m33 20h-18a1 1 0 0 1 0-2h18a1 1 0 0 1 0 2z"/><path d="m33 15h-18a1 1 0 0 1 0-2h18a1 1 0 0 1 0 2z"/><path d="m33 25h-18a1 1 0 0 1 0-2h18a1 1 0 0 1 0 2z"/><path d="m33 30h-18a1 1 0 0 1 0-2h18a1 1 0 0 1 0 2z"/><path d="m24 35h-9a1 1 0 0 1 0-2h9a1 1 0 0 1 0 2z"/></g><path d="m42 0h-36a1 1 0 0 0 -1 1v46a1 1 0 0 0 1 1h36a1 1 0 0 0 1-1v-46a1 1 0 0 0 -1-1zm-11 2v2h-14v-2zm6 32h-7a1 1 0 0 0 -1 1v7h-18v-36h6v1a3 3 0 0 0 3 3h8a3 3 0 0 0 3-3v-1h6zm-1.41 2-4.59 4.59v-4.59zm-16.59-30h10v1a1 1 0 0 1 -1 1h-8a1 1 0 0 1 -1-1zm22 40h-34v-44h8v2h-5a1 1 0 0 0 -1 1v38a1 1 0 0 0 1 1c21.34 0 20.1 0 20.38-.08s-.4.51 8.33-8.21c.42-.43.29 1.7.29-30.71a1 1 0 0 0 -1-1h-5v-2h8z"/><path d="m33 18h-18a1 1 0 0 0 0 2h18a1 1 0 0 0 0-2z"/><path d="m15 15h18a1 1 0 0 0 0-2h-18a1 1 0 0 0 0 2z"/><path d="m33 23h-18a1 1 0 0 0 0 2h18a1 1 0 0 0 0-2z"/><path d="m33 28h-18a1 1 0 0 0 0 2h18a1 1 0 0 0 0-2z"/><path d="m24 33h-9a1 1 0 0 0 0 2h9a1 1 0 0 0 0-2z"/></g></svg>