<svg id="Layer_3" height="512" viewBox="0 0 64 64" width="512" xmlns="http://www.w3.org/2000/svg" data-name="Layer 3"><path d="m19 14h26v36h-26z" fill="#3b2824"/><circle cx="32" cy="27" fill="#ccc" r="9"/><path d="m32 18a9 9 0 0 0 -7.482 14h10.482a3 3 0 0 0 3-3v-8.695a8.955 8.955 0 0 0 -6-2.305z" fill="#f2f2f2"/><path d="m23 40h18v10h-18z" fill="#594139"/><path d="m23 40v8h13a3 3 0 0 0 3-3v-5z" fill="#896f65"/><rect fill="#a18c84" height="4" rx="1" width="11" x="25" y="42"/><circle cx="32" cy="45" fill="#f3a845" r="3"/><path d="m32 42a3 3 0 0 0 -3 3 2.962 2.962 0 0 0 .184 1h1.816a2 2 0 0 0 2-2v-1.816a2.962 2.962 0 0 0 -1-.184z" fill="#eecc61"/><g fill="#4b352f"><path d="m17 10h30v4h-30z"/><path d="m44.24 8.784a14.434 14.434 0 0 0 -24.48 0l-.76 1.216h26z"/><path d="m19 54 .76 1.216a14.434 14.434 0 0 0 24.48 0l.76-1.216z"/></g><path d="m17 12h26a2 2 0 0 0 2-2h-28z" fill="#594139"/><path d="m39 8a2 2 0 0 0 2-2v-.843a14.422 14.422 0 0 0 -20.713 2.843z" fill="#594139"/><path d="m17 50h30v4h-30z" fill="#3b2824"/><path d="m17 52h26a2 2 0 0 0 2-2h-28z" fill="#4b352f"/><path d="m47 15a1 1 0 0 0 1-1v-4a1 1 0 0 0 -1-1h-1.446l-.466-.746a15.434 15.434 0 0 0 -26.176 0l-.466.746h-1.446a1 1 0 0 0 -1 1v4a1 1 0 0 0 1 1h1v34h-1a1 1 0 0 0 -1 1v4a1 1 0 0 0 1 1h1.446l.466.746a15.434 15.434 0 0 0 26.176 0l.466-.746h1.446a1 1 0 0 0 1-1v-4a1 1 0 0 0 -1-1h-1v-34zm-15-12a13.341 13.341 0 0 1 11.167 6h-22.334a13.341 13.341 0 0 1 11.167-6zm-14 8h28v2h-28zm14 50a13.341 13.341 0 0 1 -11.167-6h22.334a13.341 13.341 0 0 1 -11.167 6zm14-8h-28v-2h28zm-13-8a1 1 0 1 1 -1-1 1 1 0 0 1 1 1zm-2-2.816a3 3 0 1 0 2 0v-1.184h7v8h-16v-8h7zm13 6.816h-2v-9a1 1 0 0 0 -1-1h-18a1 1 0 0 0 -1 1v9h-2v-34h24z"/><path d="m32 37a10 10 0 1 0 -10-10 10.011 10.011 0 0 0 10 10zm-1-17.931v1.931h2v-1.931a8.008 8.008 0 0 1 6.931 6.931h-1.931v2h1.931a8.008 8.008 0 0 1 -6.931 6.931v-1.931h-2v1.931a8.008 8.008 0 0 1 -6.931-6.931h1.931v-2h-1.931a8.008 8.008 0 0 1 6.931-6.931z"/><path d="m34.293 30.707 1.414-1.414-2.707-2.707v-3.586h-2v4a1 1 0 0 0 .293.707z"/></svg>