<svg id="Layer_3" height="512" viewBox="0 0 64 64" width="512" xmlns="http://www.w3.org/2000/svg" data-name="Layer 3"><path d="m21 16h22v42h-22z" fill="#594139"/><path d="m25 20h14v14h-14z" fill="#ccc"/><path d="m25 20v12h9a3 3 0 0 0 3-3v-9z" fill="#f2f2f2"/><path d="m25 38h14v16h-14z" fill="#896f65"/><path d="m25 38v14h9a3 3 0 0 0 3-3v-11z" fill="#a18c84"/><rect fill="#c7bab5" height="6" rx="2" width="8" x="27" y="41"/><circle cx="32" cy="49" fill="#f3a845" r="3"/><path d="m32 46a3 3 0 0 0 -3 3 2.962 2.962 0 0 0 .184 1h1.816a2 2 0 0 0 2-2v-1.816a2.962 2.962 0 0 0 -1-.184z" fill="#eecc61"/><path d="m19 58h26v4h-26z" fill="#3b2824"/><path d="m19 60h22a2 2 0 0 0 2-2h-24z" fill="#4b352f"/><path d="m19 12h26v4h-26z" fill="#3b2824"/><path d="m42.765 10.825a10.978 10.978 0 0 0 -21.53 0l-.235 1.175h22z" fill="#3b2824"/><path d="m38.581 10.743a6.937 6.937 0 0 0 -13.162 0l-.419 1.257h14z" fill="#594139"/><path d="m19 14h22a2 2 0 0 0 2-2h-24z" fill="#4b352f"/><path d="m45 17a1 1 0 0 0 1-1v-4a1 1 0 0 0 -1-1h-1.181l-.074-.371a11.977 11.977 0 0 0 -23.49 0l-.074.371h-1.181a1 1 0 0 0 -1 1v4a1 1 0 0 0 1 1h1v40h-1a1 1 0 0 0 -1 1v4a1 1 0 0 0 1 1h26a1 1 0 0 0 1-1v-4a1 1 0 0 0 -1-1h-1v-40zm-13-14a10 10 0 0 1 9.779 8h-2.059l-.191-.573a7.936 7.936 0 0 0 -15.058 0l-.191.573h-2.059a10 10 0 0 1 9.779-8zm5.608 8h-11.216a5.931 5.931 0 0 1 11.216 0zm-17.608 2h24v2h-24zm24 48h-24v-2h24zm-2-4h-20v-40h20z"/><path d="m25 35h14a1 1 0 0 0 1-1v-14a1 1 0 0 0 -1-1h-14a1 1 0 0 0 -1 1v14a1 1 0 0 0 1 1zm6-14v2h2v-2h5v5h-2v2h2v5h-5v-2h-2v2h-5v-5h2v-2h-2v-5z"/><path d="m25 55h14a1 1 0 0 0 1-1v-16a1 1 0 0 0 -1-1h-14a1 1 0 0 0 -1 1v16a1 1 0 0 0 1 1zm8-6a1 1 0 1 1 -1-1 1 1 0 0 1 1 1zm-7-10h5v7.184a3 3 0 1 0 2 0v-7.184h5v14h-12z"/><path d="m33.293 29.707 1.414-1.414-1.707-1.707v-2.586h-2v3a1 1 0 0 0 .293.707z"/></svg>