<svg enable-background="new 0 0 128 128" height="512" viewBox="0 0 128 128" width="512" xmlns="http://www.w3.org/2000/svg"><g id="Crab"><g id="Claws"><g><g><path d="m84.4 61.1c.1.5.4.9.7 1.4 1.8 2.1 5.5 2.3 8.4.6.8-.5 18.5-11.5 14.5-32.9-.5-2.6-3.6-4-6.9-3.3-3.3.8-5.6 3.5-5.1 6.1 2.8 15-8.4 22.4-8.9 22.7-2.3 1.3-3.3 3.5-2.7 5.4z" fill="#ff0013"/><path d="m87.1 55.6c.5-.3 11.7-7.6 8.9-22.7-.5-2.6 1.8-5.3 5.1-6.1 2.5-.6 4.9.1 6.1 1.6-.5 0-.9.1-1.4.2-3.3.8-5.6 3.5-5.1 6.1 2.8 15-8.4 22.4-8.9 22.7-2.3 1.4-3.3 3.6-2.7 5.5.1.4.4.9.7 1.3-1.9.1-3.6-.5-4.7-1.7-.4-.4-.6-.9-.7-1.4-.6-1.9.4-4.1 2.7-5.5z" fill="#ff4d4d"/><path d="m109.5 29.8c-.3-1.4-1.1-2.7-2.4-3.5-1.7-1.1-4-1.5-6.3-.9-4.2 1-6.9 4.4-6.3 7.8 1 5.2.2 9.4-1.3 12.6l-.7 1.4c-2.5 4.6-6 6.9-6.3 7.1-2.8 1.7-4.1 4.6-3.4 7.2.2.7.6 1.3 1 1.9 1.6 1.8 4.2 2.6 6.9 2.1 1.2-.2 2.3-.6 3.4-1.3 1-.4 19.6-12 15.4-34.4zm-16.8 31.9c-2.2 1.4-5.2 1.2-6.5-.3-.2-.3-.4-.5-.5-.8-.4-1.3.4-2.8 2.1-3.8.3-.2 4.5-3 7.4-8.4.7 0 1.7.1 2.9.5.4.1.8.3 1.2.6 1 .5 2 1.3 2.9 2.5-3.9 6.3-9.1 9.5-9.5 9.7zm11.2-12.3c-2.6-2.7-5.3-3.6-7.4-3.8 1.3-3.5 1.9-7.8.9-13-.3-1.8 1.5-3.8 4-4.4.1 0 .3-.1.4-.1 1.3-.2 2.6 0 3.5.6.4.3 1 .8 1.1 1.6 1.6 7.8.1 14.2-2.5 19.1z"/></g><g><path d="m91.3 7.7c-.9.2-1.5 1.1-1.2 2l4.4 12.3c.4 1.3-1 2.5-2.2 1.9l-10.7-5.4c-.9-.4-2 .2-2.2 1.2-.5 2.1-.6 4.4-.2 6.7 1.5 9 14.3 18.4 21.9 13.9 7.1-4.2 11.3-12.3 7.4-20.5-3.3-6.8-9-13.5-17.2-12.1z" fill="#ff4d4d"/><path d="m86.4 24.1 10.7 5.4c1.2.5 2.6-.6 2.2-1.9l-4.4-12.3c-.2-.9.3-1.8 1.2-2 7-.5 10.4 6 13.6 12.8.1 5.2-2.8 9.8-7.1 13-2.3 1.4-4.7 2.2-7 2.4-3-.2-3.1-.3-5.9-2.4-3.5-1.5-6.5-9.5-5.6-13.8.3-1.1 1.3-1.6 2.3-1.2z" fill="#ff0013"/><path d="m90 41.3c-6.3-2.9-11.4-9-12.3-14.7-.4-2.4-.3-4.9.2-7.3.2-.9.8-1.7 1.7-2.1.8-.4 1.8-.5 2.7 0l10.6 5.3h.1v-.1l-4.4-12.2v-.1c-.2-.9-.1-1.8.4-2.5s1.2-1.2 2-1.4c7.4-1.2 14.3 3.5 18.8 13s-.7 18.1-8 22.4c-1.1.6-2.2 1-3.5 1.2-2.4.4-5.3-.1-8.3-1.5zm1.5-32.1 4.4 12.2v.1c.3 1.2 0 2.4-1 3.2-.9.8-2.2 1-3.4.5l-10.7-5.3s-.1 0-.1.1c-.4 2-.5 4.1-.2 6.1.8 4.7 5.2 10 10.6 12.5 2 .9 5.9 2.2 9.1.3 6.1-3.6 10.5-10.8 6.8-18.5-2.1-4.8-7.2-12.6-15.5-11.2z"/></g></g><g><g><path d="m43.6 61.1c-.1.5-.4.9-.7 1.4-1.8 2.1-5.5 2.3-8.4.6-.8-.6-18.6-11.6-14.5-33 .5-2.6 3.6-4 6.9-3.3 3.3.8 5.6 3.5 5.1 6.1-2.8 15 8.4 22.4 8.9 22.7 2.3 1.4 3.3 3.6 2.7 5.5z" fill="#ff0013"/><path d="m40.9 55.6c-.5-.3-11.7-7.6-8.9-22.7.5-2.6-1.8-5.3-5.1-6.1-2.5-.6-4.9.1-6.1 1.6.5 0 .9.1 1.4.2 3.3.8 5.6 3.5 5.1 6.1-2.8 15 8.4 22.4 8.9 22.7 2.3 1.4 3.3 3.6 2.7 5.5-.1.4-.4.9-.7 1.3 1.9.1 3.6-.5 4.7-1.7.4-.4.6-.9.7-1.4.6-1.9-.4-4.1-2.7-5.5z" fill="#ff4d4d"/><path d="m41.7 54.3c-.3-.2-3.8-2.5-6.3-7.1l-.7-1.4c-1.4-3.2-2.2-7.4-1.3-12.6.6-3.4-2.1-6.8-6.3-7.8-2.3-.5-4.6-.2-6.3.9-1.3.8-2.2 2.1-2.4 3.5-4.2 22.4 14.4 34 15.2 34.5 1.1.7 2.2 1.1 3.4 1.3 2.7.4 5.3-.3 6.9-2.1.5-.6.8-1.2 1-1.9 1-2.7-.4-5.6-3.2-7.3zm-20.3-24c.1-.8.7-1.3 1.1-1.6.9-.6 2.2-.8 3.5-.6.1 0 .3.1.4.1 2.5.6 4.3 2.6 4 4.4-1 5.2-.4 9.5.9 13-2 .2-4.8 1.1-7.4 3.8-2.4-4.9-3.9-11.3-2.5-19.1zm20.8 30.3c-.1.3-.2.6-.5.8-1.3 1.5-4.2 1.6-6.5.3-.4-.2-5.6-3.5-9.6-9.6 1-1.2 2-1.9 2.9-2.5.4-.2.8-.4 1.2-.6 1.2-.4 2.2-.5 2.9-.5 2.9 5.4 7.1 8.2 7.4 8.4 1.7.9 2.6 2.5 2.2 3.7z"/></g><g><path d="m36.7 7.7c.9.2 1.5 1.1 1.2 2l-4.4 12.3c-.4 1.3 1 2.5 2.2 1.9l10.7-5.4c.9-.4 2 .2 2.2 1.2.5 2.1.6 4.4.2 6.7-1.5 9-14.3 18.4-21.9 13.9-7.1-4.3-11.3-12.3-7.4-20.5 3.3-6.8 9-13.5 17.2-12.1z" fill="#ff4d4d"/><path d="m41.4 24.1-10.7 5.4c-1.2.5-2.6-.6-2.2-1.9l4.4-12.3c.2-.9-.3-1.8-1.2-2-7-.5-10.4 6-13.6 12.8-.1 5.2 2.8 9.8 7.1 13 2.3 1.4 4.7 2.2 7 2.4 3-.2 3.1-.3 5.9-2.4 3.5-1.5 6.5-9.5 5.6-13.8-.3-1.1-1.4-1.6-2.3-1.2z" fill="#ff0013"/><path d="m29.6 42.8c-1.2-.2-2.4-.6-3.5-1.2-7.2-4.3-12.5-12.9-8-22.4 4.6-9.5 11.4-14.2 18.8-13 .8.1 1.6.6 2 1.4.5.7.6 1.7.4 2.5v.1l-4.4 12.2v.1h.1l10.6-5.3c.9-.4 1.9-.4 2.7 0s1.4 1.2 1.7 2.1c.5 2.4.6 4.8.2 7.3-.9 5.7-6 11.8-12.3 14.7-2.9 1.4-5.8 1.9-8.3 1.5zm6.9-33.6c-8.2-1.4-13.3 6.5-15.6 11.3-3.7 7.8.7 14.9 6.8 18.5 3.2 1.9 7 .6 9.1-.3 5.4-2.5 9.8-7.7 10.6-12.5.3-2.1.3-4.1-.2-6.1 0-.1-.1-.1-.1-.1l-10.7 5.3c-1.2.5-2.4.3-3.4-.5-.9-.8-1.3-2-1-3.2v-.1z"/></g></g></g><g id="Legs_2_"><g><g><path d="m10.1 83.8c-.4-.1-.8-.2-1.2-.4-2-1-2.8-3.4-1.8-5.3.3-.5 6.4-12.8 24.6-11.9 2.2.1 3.9 2 3.8 4.2s-2 3.9-4.2 3.8c-12.8-.6-16.9 7.2-17.1 7.5-.8 1.5-2.5 2.3-4.1 2.1z" fill="#ff0013"/><path d="m34 67.1v.4c-.1 2.2-2 3.9-4.2 3.8-12.8-.6-16.9 7.2-17.1 7.5-.8 1.6-2.4 2.4-4.1 2.2-.4-.1-.8-.2-1.2-.4-.3-.1-.5-.3-.8-.5.1 1.4.9 2.7 2.2 3.4.4.2.8.3 1.2.4 1.6.2 3.3-.6 4.1-2.2.2-.3 4.4-8.1 17.1-7.5 2.2.1 4-1.6 4.2-3.8.1-1.3-.5-2.5-1.4-3.3z" fill="#c80004"/><path d="m10.6 85.3c-.2 0-.5 0-.7 0-.6-.1-1.2-.3-1.7-.5-1.3-.6-2.3-1.8-2.8-3.2s-.4-2.9.3-4.2c.3-.6 6.9-13.7 26-12.7 1.5.1 2.8.7 3.8 1.8s1.5 2.5 1.4 3.9c-.1 1.5-.7 2.8-1.8 3.8s-2.5 1.5-3.9 1.4c-11.8-.6-15.6 6.4-15.7 6.7-.9 1.9-2.8 3-4.9 3zm-.3-3c1 .1 2.1-.4 2.5-1.3.2-.4 4.8-9 18.5-8.3 1.4.1 2.5-1 2.6-2.3 0-.7-.2-1.3-.6-1.8s-1-.8-1.7-.8c-17.2-.8-23 10.6-23.2 11.1-.3.5-.4 1.1-.1 1.8.2.6.7 1.1 1.2 1.4.2.1.5.2.8.2z"/></g><g><path d="m16.2 105.7c-.4.1-.8.2-1.3.1-2.2-.1-3.9-2-3.8-4.2 0-.6.8-14.3 17.9-20.7 2.1-.8 4.3.3 5.1 2.3.8 2.1-.3 4.3-2.3 5.1-11.9 4.5-12.7 13.3-12.7 13.7-.1 1.8-1.3 3.2-2.9 3.7z" fill="#ff0013"/><path d="m34.1 83.3c-.5-1.3-1.5-2.2-2.8-2.5.2.2.3.5.4.8.8 2.1-.3 4.3-2.3 5.1-11.9 4.5-12.7 13.3-12.7 13.7-.1 1.7-1.3 3.2-2.9 3.6-.4.1-.8.2-1.3.1-.3 0-.5-.1-.7-.1.7 1 1.8 1.7 3.1 1.8.4 0 .9 0 1.3-.1 1.6-.5 2.8-1.9 2.9-3.6 0-.4.8-9.2 12.7-13.7 2.1-.8 3.1-3.1 2.3-5.1z" fill="#c80004"/><path d="m15.1 107.3c-.1 0-.2 0-.2 0-1.5-.1-2.8-.7-3.8-1.8s-1.5-2.5-1.4-3.9c0-.6.9-15.3 18.8-22 1.4-.5 2.8-.5 4.2.1 1.3.6 2.3 1.7 2.9 3.1 1.1 2.8-.4 6-3.2 7-11.1 4.2-11.7 12.1-11.8 12.4-.1 2.3-1.7 4.3-3.9 4.9-.6.2-1.1.2-1.6.2zm15.3-25.1c-.3 0-.6.1-.9.2-16.1 6.1-16.9 18.8-16.9 19.4 0 .7.2 1.3.6 1.8s1.1.8 1.7.8c.3 0 .5 0 .8-.1 1-.3 1.7-1.2 1.8-2.2 0-.5.9-10.2 13.7-15 .6-.2 1.1-.7 1.4-1.3s.3-1.3.1-1.9-.7-1.1-1.3-1.4c-.3-.2-.6-.3-1-.3z"/></g><g><path d="m30.8 118.8c-.4.2-.8.4-1.2.5-2.1.5-4.3-.9-4.7-3.1-.1-.6-2.9-14 11.9-24.6 1.8-1.3 4.3-.9 5.5.9 1.3 1.8.9 4.3-.9 5.5-10.4 7.4-8.9 16.1-8.8 16.5.4 1.8-.4 3.5-1.8 4.3z" fill="#ff0013"/><path d="m42.3 92.6c-.7-1-1.7-1.5-2.8-1.6l.2.2c1.3 1.8.9 4.3-.9 5.5-10.4 7.4-8.9 16.1-8.8 16.5.4 1.7-.4 3.4-1.8 4.2-.4.2-.8.4-1.2.5s-.9.1-1.3 0c.9 1.1 2.4 1.7 3.9 1.4.4-.1.8-.3 1.2-.5 1.4-.8 2.2-2.5 1.8-4.2-.1-.4-1.6-9.1 8.8-16.5 1.8-1.2 2.2-3.7.9-5.5z" fill="#c80004"/><path d="m28.8 120.9c-1 0-2.1-.3-3-.9-1.2-.8-2.1-2-2.4-3.4-.1-.6-3.1-15 12.5-26.1 1.2-.8 2.6-1.2 4.1-.9 1.4.2 2.7 1 3.6 2.2.8 1.2 1.2 2.6.9 4.1-.2 1.4-1 2.7-2.2 3.5-9.6 6.9-8.2 14.7-8.2 15 .5 2.3-.5 4.6-2.5 5.8-.5.3-1.1.5-1.6.6s-.8.1-1.2.1zm10.3-28.5c-.5 0-1 .2-1.4.5-14 10-11.5 22.5-11.3 23.1.1.6.5 1.2 1.1 1.6s1.2.5 1.9.3c.3-.1.5-.2.7-.3.9-.5 1.4-1.6 1.1-2.6-.1-.4-1.8-10.1 9.4-18 .5-.4.9-1 1-1.6s0-1.3-.4-1.8-1-.9-1.6-1c-.2-.2-.3-.2-.5-.2z"/></g></g><g><g><path d="m117.9 83.8c.4-.1.8-.2 1.2-.4 2-1 2.8-3.4 1.8-5.3-.3-.5-6.4-12.8-24.6-11.9-2.2.1-3.9 2-3.8 4.2s2 3.9 4.2 3.8c12.8-.6 16.9 7.2 17.1 7.5.8 1.5 2.5 2.3 4.1 2.1z" fill="#ff0013"/><path d="m94.1 67.1v.4c.1 2.2 2 3.9 4.2 3.8 12.8-.6 16.9 7.2 17.1 7.5.8 1.6 2.4 2.4 4.1 2.2.4-.1.8-.2 1.2-.4.3-.1.5-.3.8-.5-.1 1.4-.9 2.7-2.2 3.4-.4.2-.8.3-1.2.4-1.6.2-3.3-.6-4.1-2.2-.2-.3-4.4-8.1-17.1-7.5-2.2.1-4-1.6-4.2-3.8-.1-1.3.5-2.5 1.4-3.3z" fill="#c80004"/><path d="m117.4 85.3c-2.1 0-4-1.2-4.9-3.1-.1-.3-3.9-7.2-15.7-6.7-1.4.1-2.9-.4-3.9-1.4-1.1-1-1.7-2.3-1.8-3.8s.4-2.9 1.4-3.9c1-1.1 2.3-1.7 3.8-1.8 19.1-.9 25.8 12.2 26 12.7.6 1.3.7 2.8.3 4.2-.5 1.4-1.5 2.5-2.8 3.2-.5.3-1.1.4-1.7.5-.2.1-.5.1-.7.1zm-19.2-12.7c12.6 0 16.9 8 17 8.3.5 1 1.5 1.5 2.5 1.4.3 0 .5-.1.8-.2.6-.3 1-.8 1.2-1.4s.2-1.3-.1-1.9c-.2-.5-6-11.9-23.2-11.1-.7 0-1.3.3-1.7.8s-.7 1.1-.6 1.8c.1 1.4 1.2 2.4 2.6 2.3z"/></g><g><path d="m111.8 105.7c.4.1.8.2 1.3.1 2.2-.1 3.9-2 3.8-4.2 0-.6-.8-14.3-17.9-20.7-2.1-.8-4.3.3-5.1 2.3-.8 2.1.3 4.3 2.3 5.1 11.9 4.5 12.7 13.3 12.7 13.7.1 1.8 1.3 3.2 2.9 3.7z" fill="#ff0013"/><path d="m94 83.3c.5-1.3 1.5-2.2 2.8-2.5-.2.2-.3.5-.4.8-.8 2.1.3 4.3 2.3 5.1 11.9 4.5 12.7 13.3 12.7 13.7.1 1.7 1.3 3.2 2.9 3.6.4.1.8.2 1.3.1.3 0 .5-.1.7-.1-.7 1-1.8 1.7-3.1 1.8-.4 0-.9 0-1.3-.1-1.6-.5-2.8-1.9-2.9-3.6 0-.4-.8-9.2-12.7-13.7-2.1-.8-3.1-3.1-2.3-5.1z" fill="#c80004"/><path d="m112.9 107.3c-.5 0-1-.1-1.5-.2-2.3-.6-3.8-2.6-4-5 0-.3-.7-8.2-11.8-12.3-2.8-1.1-4.3-4.2-3.2-7 .5-1.4 1.5-2.5 2.9-3.1 1.3-.6 2.8-.6 4.2-.1 17.9 6.8 18.8 21.4 18.8 22 .1 1.5-.4 2.9-1.4 3.9-1 1.1-2.3 1.7-3.8 1.8-.1 0-.1 0-.2 0zm-15.3-25.1c-.3 0-.7.1-1 .2-.6.3-1.1.8-1.3 1.4-.5 1.3.2 2.7 1.4 3.2 12.8 4.8 13.7 14.6 13.7 15 0 1.1.8 2 1.8 2.3.3.1.5.1.8.1.7 0 1.3-.3 1.7-.8s.7-1.1.6-1.8c0-.5-.8-13.3-16.9-19.4-.2-.1-.5-.2-.8-.2z"/></g><g><path d="m97.2 118.8c.4.2.8.4 1.2.5 2.1.5 4.3-.9 4.7-3.1.1-.6 2.9-14-11.9-24.6-1.8-1.3-4.3-.9-5.5.9-1.3 1.8-.9 4.3.9 5.5 10.4 7.4 8.9 16.1 8.8 16.5-.4 1.8.4 3.5 1.8 4.3z" fill="#ff0013"/><path d="m85.7 92.6c.7-1 1.7-1.5 2.8-1.6-.1.1-.1.1-.2.2-1.3 1.8-.9 4.3.9 5.5 10.4 7.4 8.9 16.1 8.8 16.5-.4 1.7.4 3.4 1.8 4.2.4.2.8.4 1.2.5s.9.1 1.3 0c-.9 1.1-2.4 1.7-3.9 1.4-.4-.1-.8-.3-1.2-.5-1.4-.8-2.2-2.5-1.8-4.2.1-.4 1.6-9.1-8.8-16.5-1.7-1.2-2.1-3.7-.9-5.5z" fill="#c80004"/><path d="m99.2 120.9c-.4 0-.8 0-1.2-.1-.6-.1-1.1-.3-1.6-.6-2-1.2-3-3.5-2.5-5.8.1-.3 1.4-8.1-8.2-15-1.2-.8-2-2.1-2.2-3.5s.1-2.9.9-4.1c.9-1.2 2.1-2 3.6-2.2 1.4-.2 2.9.1 4.1.9 15.6 11.1 12.7 25.5 12.5 26.1-.6 2.5-2.9 4.3-5.4 4.3zm-10.3-28.5c-.1 0-.3 0-.4 0-.7.1-1.2.5-1.6 1s-.5 1.2-.4 1.8.5 1.2 1 1.6c11.2 8 9.5 17.6 9.4 18-.2 1.1.2 2.1 1.1 2.7.2.1.5.2.8.3.6.1 1.3 0 1.9-.3.6-.4.9-.9 1.1-1.6.1-.5 2.6-13.1-11.3-23.1-.6-.2-1.1-.4-1.6-.4z"/></g></g></g><g id="Body_22_"><path d="m100.5 70.7c0-12.9-16.3-15.1-36.5-15.1s-36.5 2.2-36.5 15.1 2 31.6 36.5 31.6 36.5-18.7 36.5-31.6z" fill="#ff0013"/><path d="m89.6 67.6c0-9-11.4-10.6-25.6-10.6s-25.6 1.5-25.6 10.6 1.4 22.1 25.6 22.1 25.6-13.1 25.6-22.1z" fill="#ff4d4d"/><path d="m64 96.7c-31 0-35.8-15.2-36.4-27.6-.1.5-.1 1-.1 1.5 0 12.9 2 31.6 36.5 31.6s36.5-18.7 36.5-31.6c0-.5 0-1-.1-1.5-.6 12.5-5.4 27.6-36.4 27.6z" fill="#c80004"/><path d="m64 103.8c-38 0-38-23.2-38-33.1 0-14.6 18.3-16.6 38-16.6s38 2 38 16.6c0 9.9 0 33.1-38 33.1zm0-46.7c-24.9 0-35 3.9-35 13.6 0 15.6 4.2 30.1 35 30.1s35-14.5 35-30.1c0-9.7-10.1-13.6-35-13.6z"/></g><g id="Eyes_19_"><circle cx="76.1" cy="52.3" r="3"/><circle cx="51.9" cy="52.3" r="3"/></g></g></svg>