<?xml version="1.0" encoding="iso-8859-1"?>
<!-- Generator: Adobe Illustrator 19.0.0, SVG Export Plug-In . SVG Version: 6.00 Build 0)  -->
<svg xmlns="http://www.w3.org/2000/svg" xmlns:xlink="http://www.w3.org/1999/xlink" version="1.1" id="Layer_1" x="0px" y="0px" viewBox="0 0 512 512" style="enable-background:new 0 0 512 512;" xml:space="preserve">
<path style="fill:#BF4F28;" d="M469.159,239.795c0-117.724-95.435-213.159-213.159-213.159S42.841,122.071,42.841,239.795H469.159z"/>
<polygon style="fill:#FF8899;" points="501.551,222.37 411.175,485.346 100.825,485.346 10.449,222.37 10.449,222.378   51.402,250.575 51.254,250.575 92.201,222.385 133.153,250.583 174.101,222.392 215.054,250.59 215.054,250.561 256,222.37   296.953,250.568 337.899,222.378 378.852,250.575 378.704,250.575 419.652,222.385 460.605,250.583 501.551,222.392 "/>
<polygon style="fill:#3FD0FC;" points="501.551,222.37 411.175,485.346 100.825,485.346 10.449,222.37 10.449,222.378   51.402,250.575 51.254,250.575 92.201,222.385 133.153,250.583 174.101,222.392 215.054,250.59 215.054,250.561 256,222.37   296.953,250.568 337.899,222.378 378.852,250.575 378.704,250.575 419.652,222.385 460.605,250.583 501.551,222.392 "/>
<g>
	<polygon style="fill:#0092E0;" points="92.201,222.385 152.144,485.361 204.073,485.361 174.101,222.392 133.153,250.583  "/>
	<polygon style="fill:#0092E0;" points="256,485.346 307.928,485.346 335.105,224.301 296.953,250.568 256,222.369 256,222.37  "/>
	<polygon style="fill:#0092E0;" points="419.652,222.385 359.651,485.318 411.175,485.346 501.541,222.399 460.605,250.583  "/>
</g>
<polygon style="fill:#FF5764;" points="501.544,222.392 501.541,222.399 501.551,222.392 "/>
<g>
	<ellipse style="fill:#871B00;" cx="350.041" cy="145.428" rx="35.527" ry="28.927"/>
	<ellipse style="fill:#871B00;" cx="256.136" cy="79.767" rx="35.527" ry="28.927"/>
	<ellipse style="fill:#871B00;" cx="161.573" cy="145.428" rx="35.527" ry="28.927"/>
</g>
<path d="M350.043,184.8c-25.351,0-45.976-17.664-45.976-39.376s20.624-39.376,45.976-39.376s45.975,17.664,45.975,39.376  S375.394,184.8,350.043,184.8z M350.043,126.946c-13.594,0-25.078,8.462-25.078,18.478s11.483,18.478,25.078,18.478  c13.594,0,25.078-8.462,25.078-18.478S363.637,126.946,350.043,126.946z"/>
<path d="M256.133,119.147c-25.351,0-45.976-17.664-45.976-39.376s20.624-39.376,45.976-39.376s45.976,17.664,45.976,39.376  S281.484,119.147,256.133,119.147z M256.133,61.293c-13.594,0-25.078,8.462-25.078,18.478s11.483,18.478,25.078,18.478  s25.078-8.462,25.078-18.478S269.727,61.293,256.133,61.293z"/>
<path d="M161.568,184.8c-25.351,0-45.976-17.664-45.976-39.376s20.624-39.376,45.976-39.376s45.976,17.664,45.976,39.376  S186.92,184.8,161.568,184.8z M161.568,126.946c-13.594,0-25.078,8.462-25.078,18.478s11.483,18.478,25.078,18.478  s25.078-8.462,25.078-18.478S175.163,126.946,161.568,126.946z"/>
<path d="M255.999,285.055c-5.77,0-10.449-4.678-10.449-10.449v-0.137c0-5.771,4.679-10.449,10.449-10.449  s10.449,4.678,10.449,10.449v0.137C266.448,280.377,261.769,285.055,255.999,285.055z"/>
<path d="M105.248,290.116c-4.729,0-9.016-3.234-10.157-8.036l-0.031-0.133c-1.333-5.614,2.137-11.247,7.751-12.582  c5.613-1.332,11.248,2.136,12.582,7.751l0.031,0.133c1.333,5.614-2.137,11.247-7.751,12.582  C106.861,290.023,106.048,290.116,105.248,290.116z"/>
<path d="M503.272,212.064c-2.976-0.499-5.904,0.319-8.146,2.065l-16.003,11.017c-3.483-54.215-26.247-104.704-65.008-143.467  C371.88,39.446,315.727,16.187,256,16.187S140.12,39.446,97.885,81.68c-38.759,38.759-61.521,89.245-65.007,143.454l-16.24-11.181  c-2.209-1.622-5.038-2.366-7.91-1.885C3.691,212.909,0,217.27,0,222.378c0,1.248,0.223,2.467,0.642,3.607l90.302,262.758  c1.45,4.22,5.42,7.053,9.882,7.053h50.918c0.131,0.005,0.261,0.017,0.393,0.017c0.099,0,0.202-0.014,0.301-0.017h206.922  c0.1,0.003,0.202,0.017,0.301,0.017c0.132,0,0.261-0.011,0.393-0.017h51.122c4.463,0,8.431-2.833,9.882-7.053l90.244-262.59  c0.458-1.184,0.7-2.457,0.7-3.761v-0.022C512,217.263,508.309,212.906,503.272,212.064z M256,37.085  c110.694,0,200.935,89.189,202.669,199.479l-33.092-22.786c-3.566-2.457-8.281-2.458-11.851,0l-34.948,24.061l-34.954-24.068  c-3.566-2.457-8.283-2.458-11.851,0l-35.022,24.111l-35.026-24.118c-3.566-2.457-8.281-2.458-11.851,0l-35.043,24.126  l-35.005-24.104c-3.566-2.457-8.281-2.458-11.851,0l-35.022,24.111l-35.027-24.117c-3.567-2.458-8.284-2.457-11.851,0L53.332,236.46  C55.121,126.218,145.341,37.085,256,37.085z M160.476,474.897l-37.535-164.667c-1.283-5.626-6.879-9.15-12.511-7.865  c-5.627,1.283-9.148,6.884-7.865,12.511l36.476,160.022h-30.759L30.637,248.966l13.652,9.401c1.871,1.672,4.33,2.658,6.964,2.658  h0.147c2.634,0,5.093-0.987,6.963-2.658l33.837-23.295l35.027,24.118c3.567,2.458,8.284,2.457,11.851,0l26.61-18.32l26.672,234.028  h-31.885V474.897z M266.449,474.897V308.409c0-5.771-4.679-10.449-10.449-10.449c-5.77,0-10.449,4.678-10.449,10.449v166.487  h-32.156l-26.314-230.881l22.045,15.18c3.195,2.201,7.349,2.434,10.786,0.629c0.518-0.273,1.007-0.585,1.463-0.933L256,235.057  l35.026,24.118c3.566,2.457,8.281,2.458,11.851,0l22.041-15.174l-26.316,230.896H266.449z M403.716,474.897h-30.963l36.476-160.022  c1.283-5.627-2.239-11.227-7.865-12.511c-5.628-1.284-11.227,2.238-12.511,7.865l-37.535,164.667h-31.683l26.674-234.042  l25.431,17.511c1.871,1.672,4.33,2.658,6.964,2.658h0.147c2.634,0,5.093-0.987,6.963-2.658l33.837-23.295l35.026,24.118  c3.566,2.457,8.281,2.458,11.851,0l14.827-10.209L403.716,474.897z"/>
<path d="M406.548,290.116c-0.8,0-1.612-0.092-2.424-0.285c-5.614-1.334-9.084-6.966-7.751-12.582l0.031-0.133  c1.333-5.615,6.967-9.084,12.582-7.751c5.614,1.334,9.084,6.966,7.751,12.582l-0.031,0.133  C415.564,286.881,411.277,290.116,406.548,290.116z"/>
<g>
</g>
<g>
</g>
<g>
</g>
<g>
</g>
<g>
</g>
<g>
</g>
<g>
</g>
<g>
</g>
<g>
</g>
<g>
</g>
<g>
</g>
<g>
</g>
<g>
</g>
<g>
</g>
<g>
</g>
</svg>
