<svg id="fill" height="512" viewBox="0 0 64 64" width="512" xmlns="http://www.w3.org/2000/svg"><path d="m13.707 31.879h2v5.657h-2z" fill="#03b3e2" transform="matrix(.707 -.707 .707 .707 -20.234 20.565)"/><path d="m11.121 35a2.122 2.122 0 0 1 -2.121-2.121v-3.879h3.879a2.122 2.122 0 0 1 2.121 2.121 2.12 2.12 0 0 1 -.621 1.5l-1.758 1.758a2.12 2.12 0 0 1 -1.5.621z" fill="#35d7fd"/><path d="m20 27.983h2v6h-2z" fill="#03b3e2"/><path d="m22.343 29h-2.343a2 2 0 0 1 -1.414-.586 2 2 0 0 1 0-2.828l2.586-2.586 2.585 2.586a2 2 0 0 1 0 2.828 2 2 0 0 1 -1.414.586z" fill="#35d7fd"/><path d="m28 52 7 7h8v-1a3 3 0 0 0 -3-3h-2l-4-4z" fill="#7dd491"/><path d="m36.714 56-4.714-4.714-4 .714 7 7h8v-1a2.977 2.977 0 0 0 -.78-2z" fill="#58a066"/><path d="m42 39h6.765l.001-4h-7.766z" fill="#58a066"/><path d="m29 3h24.99a5.01 5.01 0 0 1 5.01 5.01v16.99a0 0 0 0 1 0 0h-30a0 0 0 0 1 0 0v-22a0 0 0 0 1 0 0z" fill="#c6ec6b"/><circle cx="39" cy="13" fill="#fff" r="5"/><circle cx="41" cy="15" fill="#895e7a" r="2"/><circle cx="41" cy="15" fill="#e94561" r="1"/><path d="m29.243 53h-1.758a20.484 20.484 0 0 1 -14.485-6 14.443 14.443 0 0 1 -9.556-8.817l-.444-1.183a18.949 18.949 0 0 0 8.472 2h1.528a16.716 16.716 0 0 1 13.6-7h2.4v-7h11v7a10.242 10.242 0 0 1 3 7.243 13.757 13.757 0 0 1 -13.757 13.757z" fill="#c6ec6b"/><path d="m40.68 32.75a10.245 10.245 0 0 1 .32 2.493 13.757 13.757 0 0 1 -13.757 13.757h-1.758a20.484 20.484 0 0 1 -14.485-6 14.432 14.432 0 0 1 -7.854-5.611l.3.794a14.443 14.443 0 0 0 9.554 8.817 20.484 20.484 0 0 0 14.485 6h1.758a13.757 13.757 0 0 0 13.757-13.757 10.249 10.249 0 0 0 -2.32-6.493z" fill="#ffe8ae"/><path d="m25 57h-3l-3-3 2-2a4 4 0 0 0 4-4v-3a4 4 0 0 0 -4-4h-1a4 4 0 0 0 -4 4v3l-3 6 7 7h8v-1a3 3 0 0 0 -3-3z" fill="#7dd491"/><path d="m22 60-7-7 3-6v-3a3.979 3.979 0 0 1 1.293-2.929 3.994 3.994 0 0 0 -3.293 3.929v3l-3 6 7 7h8v-1z" fill="#58a066"/><path d="m53 20h2v2h-2z" fill="#58a066"/><path d="m42.765 48h-7.827a1.937 1.937 0 0 1 -1.938-1.938v-4.062a2 2 0 0 1 2-2 2 2 0 0 1 2 2v2h5.766z" fill="#7dd491"/><path d="m36.938 46a1.937 1.937 0 0 1 -1.938-1.938v-4.062a2 2 0 0 0 -2 2v4.062a1.937 1.937 0 0 0 1.938 1.938h7.827v-2z" fill="#58a066"/><g fill="#7dd491"><path d="m24 37h2v2h-2z"/><path d="m26 35h2v2h-2z"/><path d="m22 35h2v2h-2z"/></g><path d="m51 41a4 4 0 1 1 2.666-6.982l-1.332 1.492a2 2 0 1 0 0 2.98l1.332 1.492a3.994 3.994 0 0 1 -2.666 1.018z" fill="#35d7fd"/><path d="m45 50a4 4 0 1 1 2.666-6.982l-1.332 1.492a2 2 0 1 0 0 2.98l1.332 1.492a3.994 3.994 0 0 1 -2.666 1.018z" fill="#35d7fd"/><path d="m59 25h-30v-22h4v9.874a10.125 10.125 0 0 0 10.126 10.126h15.874z" fill="#7dd491"/><path d="m29 8a5 5 0 0 0 5-5h-5z" fill="#ffe8ae"/><path d="m29 3v5a4.952 4.952 0 0 0 2.563-.728z" fill="#ffd257"/><path d="m40 25h-11v7l.568.473a7.742 7.742 0 0 0 10.432-.473z" fill="#7dd491"/><path d="m37 25a4 4 0 1 0 -4 4h24v-4z" fill="#ffe8ae"/><path d="m33 13a6 6 0 1 0 6-6 6.006 6.006 0 0 0 -6 6zm7 2a1 1 0 1 1 1 1 1 1 0 0 1 -1-1zm2.976-2.24a2.986 2.986 0 0 0 -4.216 4.216 3.991 3.991 0 1 1 4.216-4.216z"/><path d="m41 31.6v-1.6h16a1 1 0 0 0 1-1v-3h1a1 1 0 0 0 1-1v-16.989a6.017 6.017 0 0 0 -6.011-6.011h-24.989a1 1 0 0 0 -1 1v28h-1.4a17.661 17.661 0 0 0 -4.6.618v-1.618h.343a3 3 0 0 0 2.122-5.121l-2.586-2.586a1 1 0 0 0 -1.414 0l-2.586 2.586a3 3 0 0 0 2.121 5.121v2.288a17.73 17.73 0 0 0 -4.03 2.268l-1.056-1.056.172-.172a3.121 3.121 0 0 0 -2.207-5.328h-3.879a1 1 0 0 0 -1 1v3.879a3.121 3.121 0 0 0 5.328 2.207l.172-.172.934.934a17.736 17.736 0 0 0 -1.934 2.152h-1.028a18.03 18.03 0 0 1 -8.025-1.9 1 1 0 0 0 -1.384 1.246l.444 1.184a15.508 15.508 0 0 0 9.969 9.353 21.5 21.5 0 0 0 1.717 1.489l-2.088 4.176a1 1 0 0 0 .188 1.154l7 7a1 1 0 0 0 .707.298h8a1 1 0 0 0 1-1v-1a4.006 4.006 0 0 0 -4-4h-2.586l-2-2 .915-.915a21.434 21.434 0 0 0 6.156.915h1.1l5.707 5.707a1 1 0 0 0 .708.293h8a1 1 0 0 0 1-1v-1a4.006 4.006 0 0 0 -4-4h-1.586l-1.921-1.922a14.735 14.735 0 0 0 3.795-3.078h2.094a3.963 3.963 0 0 0 5.284-.018l-1.332-1.492a2 2 0 1 1 0-2.98l1.332-1.492a3.994 3.994 0 0 0 -2.666-1.018 3.943 3.943 0 0 0 -1.317.241 14.734 14.734 0 0 0 .284-2.241h4.415a3.963 3.963 0 0 0 5.284-.018l-1.332-1.492a2 2 0 1 1 0-2.98l1.332-1.492a3.963 3.963 0 0 0 -5.284-.018h-5.682a11.255 11.255 0 0 0 -1.7-2.4zm-21.707-3.89a1 1 0 0 1 0-1.414l1.879-1.879 1.878 1.879a1 1 0 0 1 -.707 1.704h-2.343a1 1 0 0 1 -.707-.293zm-8.172 6.29a1.122 1.122 0 0 1 -1.121-1.121v-2.879h2.879a1.121 1.121 0 0 1 .793 1.914l-1.758 1.758a1.129 1.129 0 0 1 -.793.328zm23.816 13a.939.939 0 0 1 -.937-.938v-4.062a1 1 0 0 1 2 0v2a1 1 0 0 0 1 1h4.142a3.592 3.592 0 0 0 0 2zm23.063-38.989v15.989h-20.1a5.008 5.008 0 0 0 -4.9-4 4.948 4.948 0 0 0 -3 1.026v-12.116a6.008 6.008 0 0 0 4.91-4.91h19.079a4.015 4.015 0 0 1 4.011 4.011zm-25.142-4.011a3.991 3.991 0 0 1 -2.858 2.858v-2.858zm.142 18a3 3 0 0 1 3 3 1 1 0 0 0 1 1h19v2h-23a3 3 0 0 1 0-6zm-14.707 32.707 3 3a1 1 0 0 0 .707.293h3a2 2 0 0 1 2 2h-6.586l-6.2-6.2 2.686-5.353a1 1 0 0 0 .1-.447v-3a3 3 0 0 1 3-3h1a3 3 0 0 1 3 3v3a3 3 0 0 1 -3 3 1 1 0 0 0 -.707.293l-2 2a1 1 0 0 0 0 1.414zm19 1a1 1 0 0 0 .707.293h2a2 2 0 0 1 2 2h-6.586l-4.154-4.154a14.592 14.592 0 0 0 3.312-.86zm-8.051-3.707h-1.757a19.457 19.457 0 0 1 -3.191-.268 4.971 4.971 0 0 0 1.706-3.732v-3a5.006 5.006 0 0 0 -5-5h-1a5.006 5.006 0 0 0 -5 5v2.465c-.447-.373-.882-.761-1.293-1.172a1 1 0 0 0 -.433-.255 13.506 13.506 0 0 1 -8.462-7.184 20.074 20.074 0 0 0 6.66 1.146h1.528a1 1 0 0 0 .813-.419 15.75 15.75 0 0 1 12.787-6.581h2.4a1 1 0 0 0 1-1v-3.026a4.948 4.948 0 0 0 3 1.026h6v2a1 1 0 0 0 .293.707 9.18 9.18 0 0 1 2.707 6.535 12.735 12.735 0 0 1 -.575 3.758h-3.425v-1a3 3 0 0 0 -6 0v4.062a2.94 2.94 0 0 0 2.937 2.938h2.5a12.7 12.7 0 0 1 -8.195 3zm17.9-16a3.592 3.592 0 0 0 0 2h-3.216a11.2 11.2 0 0 0 -.4-2z"/><path d="m53 20h2v2h-2z"/><path d="m24 37h2v2h-2z"/><path d="m26 35h2v2h-2z"/><path d="m22 35h2v2h-2z"/></svg>