<svg enable-background="new 0 0 128 128" height="512" viewBox="0 0 128 128" width="512" xmlns="http://www.w3.org/2000/svg"><g id="Dolphin"><g id="Fin_1"><path d="m67.7 47.7c-.2-.8-1.1-1.2-1.9-1s-1.2 1.1-1 1.9l-14.6-.9c-.2-.5-.8-.9-1.4-.9-.8 0-1.5.7-1.4 1.5.2 7.3-1.5 13.4-3.1 18.5-.6 2-.1 4 1.3 5.3.8.7 1.8 1.1 2.8 1.1.6 0 1.2-.1 1.8-.4 22-9.1 17.6-24.9 17.5-25.1z" fill="#74cbde"/><path d="m48.4 73.3c.6 0 1.2-.1 1.8-.4 22-9.2 17.6-25.1 17.6-25.2-.2-.8-1.1-1.2-1.9-1s-1.2 1.1-1 1.9c.1.5 3.5 13.5-15.9 21.6-.6.2-1 .2-1.4-.2s-.7-1.2-.4-2.2c1.7-5.4 3.5-11.8 3.2-19.5 0-.8-.7-1.5-1.5-1.4-.8 0-1.5.7-1.4 1.5.2 7.3-1.5 13.4-3.1 18.5-.6 2-.1 4 1.3 5.3.6.7 1.6 1.1 2.7 1.1z"/></g><g id="Body_10_"><path d="m104.8 18.9c-10.4-4-18.4-3.6-23.5-2.5-30-18-51.2 10.3-53.3 18.3-1.8 6.6-8 11-8 11-9.5 6-.7 11.3 5 13 5.5 1.6 21.8 7.4 35 6 6-.6 9 3.2 11 11s-13 20-13 20c-9-7.7-15-7.1-18.4-5.3-2 1.1-2.1 3.9-.2 5.2 8.5 5.9 10.8 17.2 11.4 23.5.2 2.3 2.8 3.5 4.7 2.3 11.6-7.5 7.5-19.7 7.5-19.7 35.3 1.8 53.8-42.7 34.5-70.7 2.2-2.9 5.2-5.1 7.8-6.6 2.2-1.3 1.9-4.6-.5-5.5z" fill="#74cbde"/><path d="m18 49.7s11.3-1.4 13-8c2.1-7.9 22.2-34 51.8-17 .5.3 1.1.4 1.7.3 4.3-.8 10.4-1 18 1.2.9-.7 1.9-1.3 2.8-1.8 2.2-1.3 1.9-4.6-.4-5.5-10.4-4-18.4-3.6-23.5-2.5-30.1-18-51.3 10.3-53.4 18.3-1.8 6.6-8 11-8 11-3.3 2.1-4.4 4.1-4.2 5.9.6-.7 1.3-1.3 2.2-1.9z" fill="#b3f4fb"/><path d="m84.5 78.8c.9-9.6-.8-16.4-5-20.2-6.1-5.5-16-3.4-20.8-2.4-9.8 2.1-42-6.9-42.3-7h-.1c-2.4 4.5 4.2 8.1 8.7 9.5 5.5 1.6 21.8 7.4 35 6 6-.6 9 3.2 11 11s-13 20-13 20c-9-7.7-15-7.1-18.4-5.3-2 1.1-2.1 3.9-.2 5.2 8.5 5.9 10.8 17.2 11.4 23.5.2 2.3 2.8 3.5 4.7 2.3 4.7-3 6.8-6.8 7.7-10.3l.5-5.5c-.1-2.3-.6-3.9-.6-3.9 1.3.1 2.6.1 3.8 0 5.5-2.8 16.3-9.7 17.6-22.9z" fill="#f2f2f2"/><path d="m63 60.7c-16 2.6-45-8-45-8l-.6 1.8c1.9 2 5.1 3.5 7.6 4.2 5.5 1.6 21.8 7.4 35 6 6-.6 9 3.2 11 11 1.8 7-10.1 17.5-12.5 19.6l.5 1.4c32.9-15 20-38.7 4-36z" fill="#ccc"/><path d="m63 103.2c-.6 0-1.2-.4-1.4-1-.3-.8.2-1.6.9-1.9.2-.1 17.5-6.2 19-21.7.8-8.6-.5-14.5-4.1-17.7-5-4.5-13.5-2.7-18.1-1.7-10.5 2.2-42.4-6.6-43.7-7-.8-.2-1.3-1.1-1-1.8.2-.8 1.1-1.3 1.8-1 .3.1 32.5 9 42.3 7 4.7-1 14.6-3.1 20.8 2.4 4.3 3.8 6 10.6 5 20.2-1.7 17.5-20.2 24-21 24.3-.2-.2-.3-.1-.5-.1z"/><path d="m106 25.7c1.5-.9 2.4-2.5 2.2-4.3s-1.3-3.3-2.9-3.9c-9.5-3.6-17.1-3.8-22.4-3-.9.1-1.8 0-2.5-.5-9.5-5.2-19-6.5-28.3-3.6-15 4.6-24.2 18.7-25.6 23.8-1.5 5.8-7 9.8-7.4 10.1-3.6 2.3-5.2 4.7-4.8 7.4.6 4.1 5.9 7 10.2 8.3.6.2 1.4.4 2.3.7 6.9 2.2 21.3 6.6 33.3 5.3 4-.4 7.1 1.1 9.4 9.9 1.3 5.3-7.2 13.9-11.5 17.7-9.1-7.4-15.4-6.7-19.1-4.7-1.4.7-2.3 2.1-2.3 3.7-.1 1.6.6 3.1 2 4 8 5.6 10.2 16.3 10.8 22.3.1.8.3 1.6.8 2.3.9 1.4 2.4 2 3.8 2 .8 0 1.7-.3 2.4-.7 9.5-6.2 9.3-15.4 8.6-19.4 16.7 0 31.2-10.3 38-27.4 4.9-12.3 5.4-28.5-2.2-42.2-.9-1.6-.6-3.7.8-4.9 1.5-1.1 3-2.1 4.4-2.9zm-8.5 2.8c-1.2 1.3-1.3 3.2-.4 4.7.1.2.2.3.3.5 8 13 7.6 29 2.8 41-6.6 16.6-20.9 26.3-37.2 25.5-.5 0-1 .2-1.3.6s-.4.9-.2 1.4c.1.5 3.5 11.2-6.9 18-.6.4-1.3.2-1.5.1s-.8-.5-.9-1.2c-.6-6.5-3-18.3-12.1-24.6-.5-.3-.7-.8-.7-1.4 0-.3.1-.9.8-1.2 1.2-.7 2.6-1 4.1-1 3.6 0 7.9 2.1 12.7 6.1.5.5 1.3.5 1.9 0 1.6-1.3 15.7-13 13.5-21.5-1.6-6.1-4.4-13-12.6-12.1-11.4 1.2-25.4-3.1-32.1-5.2-.9-.3-1.7-.5-2.4-.7-3.7-1.1-7.8-3.5-8.1-5.8-.2-1.7 1.8-3.4 3.5-4.5h.1c.3-.2 6.7-4.8 8.6-11.8 1.2-4.5 9.9-17.5 23.5-21.7 8-2.5 16.2-1.6 24.5 2.6.8.4 1.6.9 2.5 1.3.8.5 1.8.6 2.7.4s1.9-.3 3-.4c4.7-.4 11.1.1 18.7 3 .6.2.9.7 1 1.3 0 .6-.2 1.2-.8 1.5-2.2 1-4.8 2.8-7 5.1z"/></g><g id="Fin_2"><path d="m56 52.7s-4.3 14.6 16.7 23.4c2.6 1.1 4.7-1.5 3.9-4.2-1.7-5.3-3.4-11.5-3.2-19" fill="#74cbde"/><path d="m76.2 70.6c-17.6-4-18.8-15.6-18.8-17.9h-1.4s-4.3 14.6 16.7 23.4c2.6 1.1 4.7-1.5 3.9-4.2-.1-.4-.3-.9-.4-1.3z" fill="#b3f4fb"/><path d="m73.9 77.8c-.6 0-1.2-.1-1.8-.4-22-9.2-17.6-25.1-17.6-25.2.2-.8 1.1-1.2 1.9-1s1.2 1.1 1 1.9c-.2.6-3.6 13.5 15.9 21.6.6.2 1 .2 1.4-.2s.7-1.2.4-2.2c-1.7-5.4-3.5-11.8-3.2-19.5 0-.8.7-1.5 1.5-1.4.8 0 1.5.7 1.4 1.5-.2 7.3 1.5 13.4 3.1 18.5.6 2 .1 4-1.3 5.3-.7.7-1.6 1.1-2.7 1.1z"/></g><circle id="Eye_11_" cx="40" cy="46.7" r="3"/></g></svg>