<svg id="Artboard_30" height="512" viewBox="0 0 64 64" width="512" xmlns="http://www.w3.org/2000/svg" data-name="Artboard 30"><path d="m19.908 29.687c-4 1.095-8.145-.716-11.056-4.916l-.852-1.23.739-.152a18.66 18.66 0 0 1 7.891.067h3.278z" fill="#f2b9a1"/><path d="m44.092 29.687c4 1.095 8.145-.716 11.056-4.916l.852-1.23-.739-.152a18.66 18.66 0 0 0 -7.891.067h-3.278z" fill="#f2b9a1"/><path d="m32 54v8h11.164a3.6 3.6 0 0 0 3.342-2.329l.449-1.156a.61.61 0 0 0 -.829-.785l-1.654.851a3.76 3.76 0 0 1 -1.724.419h-6.748l2.422-6.057z" fill="#c64635"/><path d="m32 54v8h-11.164a3.6 3.6 0 0 1 -3.342-2.329l-.449-1.156a.61.61 0 0 1 .829-.785l1.654.851a3.76 3.76 0 0 0 1.724.419h6.748l-2.422-6.057z" fill="#b73329"/><path d="m39.356 36.416c3.988 1.674 6.644 4.668 6.644 8.084 0 5.247-6.268 9.5-14 9.5s-14-4.253-14-9.5c0-3.416 2.656-6.41 6.644-8.084z" fill="#78b22a"/><path d="m32.8 45h.7a2.5 2.5 0 0 1 2.5 2.5 2.5 2.5 0 0 1 -2.5 2.5h-4.5v-5z" fill="#d9d5ca"/><path d="m29 48.889v-3.353a11.938 11.938 0 0 1 -5.024-3.195l-1.554-4.766a8.759 8.759 0 0 0 -4.379 6.207l2.157 1.618a18.008 18.008 0 0 0 8.8 3.489z" fill="#94d531"/><path d="m35.031 48.889v-3.353a11.935 11.935 0 0 0 5.023-3.195l1.554-4.766a8.76 8.76 0 0 1 4.38 6.207l-2.157 1.618a18.008 18.008 0 0 1 -8.8 3.489z" fill="#94d531"/><path d="m39.356 36.416h-14.712a13.981 13.981 0 0 0 -3.309 1.929l.665 4.655 6-2 4 5 4-5 6 2 .665-4.654a13.981 13.981 0 0 0 -3.309-1.93z" fill="#f7f7f4"/><rect fill="#f7f7f4" height="4" rx="2" width="32" x="16" y="20"/><path d="m46 20-13.211-17.6a.984.984 0 0 0 -1.579 0l-13.21 17.6z" fill="#b73329"/><path d="m45 24v.268c0 8.132-5.82 14.732-13 14.732s-13-6.6-13-14.732c0-.09 0-.179 0-.268z" fill="#fbdac2"/><g fill="#393a3a"><path d="m29.128 29.49 1.744-.98a4.483 4.483 0 0 0 -3.872-2.51 4.483 4.483 0 0 0 -3.872 2.51l1.744.98a2.551 2.551 0 0 1 2.128-1.49 2.551 2.551 0 0 1 2.128 1.49z"/><path d="m37 26a4.483 4.483 0 0 0 -3.872 2.51l1.744.98a2.551 2.551 0 0 1 2.128-1.49 2.551 2.551 0 0 1 2.128 1.49l1.744-.98a4.483 4.483 0 0 0 -3.872-2.51z"/><path d="m35.828 33.657a6.094 6.094 0 0 1 -7.656 0l-.547-.438-1.25 1.562.548.438a8.082 8.082 0 0 0 10.155 0l.547-.438-1.25-1.562z"/><path d="m31 31h2v2h-2z"/></g><path d="m32.789 2.4a.984.984 0 0 0 -1.579 0l-5.417 7.215a19.245 19.245 0 0 0 16.131 8.744 19.351 19.351 0 0 0 2.687-.209z" fill="#c64635"/><path d="m7.8 22.562a1 1 0 0 0 -.62 1.548l.852 1.23c2.537 3.66 5.978 5.66 9.548 5.66a9.689 9.689 0 0 0 1.713-.173 15.763 15.763 0 0 0 3.569 5.329c-3.696 1.975-5.862 5.013-5.862 8.344 0 3.966 3.159 7.424 7.807 9.21l1.716 4.29h-5.271a2.771 2.771 0 0 1 -1.266-.308l-1.654-.852a1.582 1.582 0 0 0 -1.792.234 1.618 1.618 0 0 0 -.427 1.8l.449 1.155a4.578 4.578 0 0 0 4.274 2.971h22.328a4.578 4.578 0 0 0 4.274-2.967l.45-1.156a1.619 1.619 0 0 0 -.428-1.8 1.579 1.579 0 0 0 -1.793-.233l-1.653.85a2.759 2.759 0 0 1 -1.266.306h-5.271l1.716-4.29c4.648-1.786 7.807-5.244 7.807-9.21 0-3.331-2.166-6.369-5.862-8.34a15.763 15.763 0 0 0 3.569-5.329 9.689 9.689 0 0 0 1.713.169c3.57 0 7.011-2 9.55-5.664l.852-1.23a1 1 0 0 0 -.62-1.548l-.739-.153a19.607 19.607 0 0 0 -6.48-.239c0-.058.017-.112.017-.17a3 3 0 0 0 -2.459-2.945l-12.955-17.258a1.974 1.974 0 0 0 -1.586-.793 1.98 1.98 0 0 0 -1.589.8l-12.952 17.255a3 3 0 0 0 -2.459 2.945c0 .058.014.112.017.169a19.574 19.574 0 0 0 -6.479.24zm21.2 21.438a.975.975 0 0 0 -.6.223 10.948 10.948 0 0 1 -2.485-1.473l1.743-.581 1.462 1.831zm1 2h.72l.5.624a1 1 0 0 0 1.562 0l.5-.624h.22a1.5 1.5 0 0 1 0 3h-3.502zm5.119-1.584a3.447 3.447 0 0 0 -.419-.191l1.645-2.056 1.743.581a10.92 10.92 0 0 1 -2.969 1.666zm1.2-4.364a1 1 0 0 0 -1.1.323l-3.219 4.025-3.219-4.023a1 1 0 0 0 -1.1-.323l-4.861 1.619-.412-2.886a13.3 13.3 0 0 1 2.146-1.221 12.606 12.606 0 0 0 14.892 0 13.3 13.3 0 0 1 2.146 1.221l-.412 2.886zm-4.319-2.052c-6.4 0-11.632-5.769-11.968-13h23.936c-.336 7.231-5.568 13-11.968 13zm-11.381 2.405.391 2.737a1 1 0 0 0 .464.709.992.992 0 0 0 .842.1l1.411-.47a12.916 12.916 0 0 0 4.273 2.732v1.52a17.029 17.029 0 0 1 -7.2-3.133l-1.673-1.255a6.686 6.686 0 0 1 1.492-2.94zm-2.193 18.9-.083-.213.728.375a4.807 4.807 0 0 0 2.181.533h6.748a1 1 0 0 0 .929-1.371l-1.67-4.175a20.7 20.7 0 0 0 3.741.511v6.035h-10.164a2.591 2.591 0 0 1 -2.41-1.691zm16.746.252a1 1 0 0 0 .828.443h6.748a4.8 4.8 0 0 0 2.182-.53l.727-.374-.083.213a2.591 2.591 0 0 1 -2.41 1.691h-10.164v-6.035a20.7 20.7 0 0 0 3.741-.511l-1.67 4.175a1 1 0 0 0 .101.932zm-3.172-6.557c-6.441 0-11.789-3.082-12.81-7.107l.41.307a19.016 19.016 0 0 0 8.4 3.553v.247a1 1 0 0 0 1 1h4.5a3.479 3.479 0 0 0 2.68-1.277 19.055 19.055 0 0 0 8.22-3.523l.41-.307c-1.021 4.025-6.369 7.107-12.81 7.107zm12.873-9.654-1.673 1.254a17.084 17.084 0 0 1 -6.2 2.914v-.014a3.449 3.449 0 0 0 -.372-1.538 12.929 12.929 0 0 0 3.645-2.484l1.411.47a.988.988 0 0 0 .842-.1 1 1 0 0 0 .464-.709l.391-2.737a6.686 6.686 0 0 1 1.492 2.944zm9.433-19.117c-2.395 3.44-5.669 5.134-8.932 4.693a17.466 17.466 0 0 0 .593-3.922h.033a2.969 2.969 0 0 0 1.785-.6 17.622 17.622 0 0 1 6.521-.171zm-22.317-21.229 12.011 16h-24zm-13.989 18h28a1 1 0 0 1 0 2h-28a1 1 0 0 1 0-2zm-1.785 3.4a2.969 2.969 0 0 0 1.785.6h.033a17.466 17.466 0 0 0 .593 3.922c-3.262.441-6.537-1.255-8.932-4.693a17.665 17.665 0 0 1 6.521.171z"/><path d="m29.128 29.49 1.744-.98a4.483 4.483 0 0 0 -3.872-2.51 4.483 4.483 0 0 0 -3.872 2.51l1.744.98a2.551 2.551 0 0 1 2.128-1.49 2.551 2.551 0 0 1 2.128 1.49z"/><path d="m37 26a4.483 4.483 0 0 0 -3.872 2.51l1.744.98a2.551 2.551 0 0 1 2.128-1.49 2.551 2.551 0 0 1 2.128 1.49l1.744-.98a4.483 4.483 0 0 0 -3.872-2.51z"/><path d="m35.828 33.657a6.1 6.1 0 0 1 -7.656 0l-.547-.438-1.25 1.56.548.44a8.084 8.084 0 0 0 10.155 0l.547-.439-1.25-1.56z"/><path d="m31 31h2v2h-2z"/></svg>