<svg height="512" viewBox="0 0 48 60" width="512" xmlns="http://www.w3.org/2000/svg"><g id="031---Firefly" fill="none"><g id="Icons" transform="translate(1 1)"><path id="Shape" d="m31 10v5.53h-16v-5.53c-.0088783-1.18838497.3395163-2.35202281 1-3.34l7-2.66 7 2.66c.6604837.98797719 1.0088783 2.15161503 1 3.34z" fill="#283593"/><path id="Shape" d="m28 10v5.53h-13c0-5.85-.22-7 .83-8.87l5.67-2.66 5.67 2.66c.5535215 1.02567225.8390174 2.17453515.83 3.34z" fill="#3f51b5"/><circle id="Oval" cx="19" cy="4" fill="#f5f5f5" r="4"/><circle id="Oval" cx="27" cy="4" fill="#f5f5f5" r="4"/><path id="Shape" d="m32.8 52c-1.878304 3.6844245-5.6644215 6.0040016-9.8 6.0040016s-7.921696-2.3195771-9.8-6.0040016c9.15-10.47 9.8-28 9.8-28s.66 17.53 9.8 28z" fill="#673ab7"/><path id="Shape" d="m23 24s-.91 24.53-15.71 32.89c-.1 0-.6.4-2.29 1.11 0 0-15-21 7-37 0 0 2.62 2.62 9.5 3z" fill="#9d27b0"/><path id="Shape" d="m41 58c-.7850008-.3235222-1.5497286-.6941981-2.29-1.11-14.79-8.36-15.71-32.89-15.71-32.89 7.74 0 10.8-2.82 11-3 22 16 7 37 7 37z" fill="#6a1b9a"/><path id="Shape" d="m38.72 56.89c-14.8-8.36-15.72-32.89-15.72-32.89 3.2433313.1266229 6.4689518-.5356588 9.4-1.93 17.17 13.64 8.95 30.41 6.32 34.82z" fill="#9d27b0"/><path id="Shape" d="m34 21s-3 3-11 3c-.52 0-1.02 0-1.5 0-6.88-.35-9.5-3-9.5-3 1.1004234-4.5966535 4.8396401-8.0918371 9.5-8.88 5.59-.89 11.42 3.47 12.5 8.88z" fill="#6a1b9a"/><path id="Shape" d="m31 21s-2.62 2.62-9.5 3c-6.88-.35-9.5-3-9.5-3 1.1004234-4.5966535 4.8396401-8.0918371 9.5-8.88 4.6603599.7881629 8.3995766 4.2833465 9.5 8.88z" fill="#9d27b0"/></g><g id="Layer_10" fill="#000"><path id="Shape" d="m35.89 21.42c-.4969493-1.9748499-1.4919665-3.7892931-2.89-5.27 0-5.27.23-6.42-.83-8.41.3577269-.52508452.6059996-1.11685781.73-1.74 4-.39 5.1-3.35 5.1-5 0-.55228475-.4477153-1-1-1s-1 .44771525-1 1c0 .11 0 2.54-3.12 2.94-.4169193-1.90953512-1.9082683-3.40107335-3.8177505-3.818235s-3.8869767.31654367-5.0622495 1.878235c-1.1709563-1.56148914-3.1434762-2.29888715-5.0516018-1.88846824-1.9081257.41041892-3.4030161 1.89362253-3.8283982 3.79846824-2.97-.35-3.12-2.63-3.12-2.91 0-.55228475-.4477153-1-1-1s-1 .44771525-1 1c0 1.61 1.09 4.57 5.1 5 .1188238.63707729.367296 1.242941.73 1.78-1.07 2-.83 3.15-.83 8.41-1.3951368 1.4812848-2.3867686 3.2958333-2.88 5.27-22.12 16.33-7.12 37.9-6.93 38.12.27046846.374664.76242125.515222 1.19.34 2.8751918-1.2051974 5.4696634-2.992727 7.62-5.25 2.2277144 3.3257655 5.9670726 5.3217442 9.97 5.3217442s7.7422856-1.9959787 9.97-5.3217442c2.1627647 2.2609317 4.7710559 4.0485986 7.66 5.25.4275788.175222.9195315.034664 1.19-.34.21-.22 15.21-21.79-6.9-38.16zm-18.55-12.2c2.1994967 1.3870011 5.0949764.8565979 6.66-1.22 1.5561235 2.0868393 4.4530877 2.6305638 6.66 1.25.48 1.25.34 2 .34 5.16-4.1302532-3.1643407-9.8697468-3.1643407-14 0 0-3.41-.11-4.01.34-5.19zm10.66-7.22c1.6568542 0 3 1.34314575 3 3s-1.3431458 3-3 3-3-1.34314575-3-3 1.3431458-3 3-3zm-8 0c1.6568542 0 3 1.34314575 3 3s-1.3431458 3-3 3-3-1.34314575-3-3 1.3431458-3 3-3zm4 12c4.5678104.2015328 8.5190885 3.2449768 9.88 7.61-4.57 3.2-15.18 3.2-19.76 0 1.3609115-4.3650232 5.3121896-7.4084672 9.88-7.61zm-17.63 43.75c-2.3-3.63-11.61-20.7 6.63-34.48 1.27.88 4.36 2.51 9.94 2.7-.39 4.8-2.84 25.44-16.57 31.78zm9.07-4.63c5-6 7.43-14.1 8.56-20 1.13 5.94 3.53 14 8.57 20-1.8094881 3.0026842-5.0592391 4.8385298-8.565 4.8385298s-6.7555119-1.8358456-8.565-4.8385298zm26.2 4.63c-13.73-6.34-16.18-26.98-16.57-31.75 5.58-.19 8.67-1.82 9.94-2.7 18.2 13.7 8.92 30.82 6.63 34.45z"/><circle id="Oval" cx="21" cy="5" r="1"/><circle id="Oval" cx="27" cy="5" r="1"/></g></g></svg>