<?xml version="1.0" encoding="iso-8859-1"?>
<!-- Generator: Adobe Illustrator 19.0.0, SVG Export Plug-In . SVG Version: 6.00 Build 0)  -->
<svg xmlns="http://www.w3.org/2000/svg" xmlns:xlink="http://www.w3.org/1999/xlink" version="1.1" id="Layer_1" x="0px" y="0px" viewBox="0 0 512 512" style="enable-background:new 0 0 512 512;" xml:space="preserve">
<path style="fill:#C52828;" d="M418.133,247.64l-14.336-71.595c-1.587-7.979-8.593-13.73-16.725-13.739h-71.339  c-9.412,0.026-17.041,7.654-17.067,17.067v34.133h-51.2v-34.133c-0.026-9.412-7.654-17.041-17.067-17.067H59.733  c-9.412,0.026-17.041,7.654-17.067,17.067v25.6c-0.026,4.736-3.883,8.559-8.619,8.533c-4.685,0.026-8.465,3.84-8.448,8.525v0.009  v136.533c-0.017,4.71-3.823,8.516-8.533,8.533s-8.516,3.823-8.533,8.533v34.133c0.017,4.71,3.823,8.516,8.533,8.533h51.285  c-0.085-1.451-0.085-2.816-0.085-4.267c-0.017-10.308,2.193-20.497,6.485-29.867c1.084-2.432,2.313-4.796,3.669-7.083  c20.369-34.449,64.802-45.867,99.251-25.498c12.851,7.595,23.04,18.978,29.175,32.58c4.301,9.37,6.511,19.558,6.485,29.867  c0,1.451,0,2.816-0.085,4.267h37.376c5.376-17.263,16.964-31.915,32.512-41.131c20.233-34.543,64.64-46.148,99.191-25.907  c22.963,13.449,36.71,38.4,35.806,64.99c0,0.683-0.085,1.365-0.085,2.048h51.285v-102.4  C469.333,281.773,418.133,247.64,418.133,247.64z"/>
<path style="fill:#F44335;" d="M443.733,341.506v76.8h-25.685c0-0.683,0.085-1.365,0.085-2.048  c1.348-40.013-29.995-73.54-70.008-74.889c-26.598-0.896-51.541,12.851-64.99,35.806c-15.548,9.216-27.136,23.868-32.512,41.131  h-37.376c0.085-1.451,0.085-2.816,0.085-4.267c0.026-10.308-2.185-20.497-6.485-29.867c-16.452-36.48-59.366-52.71-95.846-36.258  c-13.602,6.135-24.986,16.324-32.58,29.175c-1.357,2.287-2.586,4.651-3.669,7.083c-4.292,9.37-6.502,19.558-6.485,29.867  c0,1.451,0,2.816,0.085,4.267H17.067c-4.71-0.017-8.516-3.823-8.533-8.533V375.64c0.017-4.71,3.823-8.516,8.533-8.533  s8.516-3.823,8.533-8.533V222.04c-0.026-4.685,3.755-8.508,8.439-8.533h0.009c4.736,0.026,8.593-3.797,8.619-8.533v-17.067H204.8  c9.412,0.026,17.041,7.654,17.067,17.067v34.133h51.2v-25.6h25.6v-25.6h62.805c8.132,0.009,15.138,5.76,16.725,13.739l14.336,71.595  C392.533,273.24,443.733,307.373,443.733,341.506z"/>
<rect x="247.467" y="213.506" style="fill:#37474F;" width="51.2" height="204.8"/>
<rect x="247.467" y="213.506" style="fill:#607D8B;" width="25.6" height="204.8"/>
<path d="M477.867,426.84h-68.352v-8.533c0-0.521,0.026-1.033,0.06-1.545c0.589-17.877-5.521-34.167-17.22-46.652  c-11.682-12.484-27.537-19.678-44.621-20.241c-17.203-0.401-33.374,5.564-45.858,17.246s-19.678,27.529-20.241,44.621  c-0.026,0.802-0.034,1.553-0.034,2.304c0,1.28-0.009,2.492,0.068,3.772l0.529,9.028H204.22l0.521-9.028  c0.06-1.28,0.06-2.483,0.06-3.772c0.026-9.037-1.946-18.116-5.7-26.308c-14.515-32.171-52.446-46.532-84.574-32.043  c-14.217,6.409-25.583,17.775-31.991,31.991c-3.831,8.363-5.751,17.212-5.734,26.342c0,1.297,0,2.509,0.068,3.789l0.521,9.028  H17.067C7.654,426.84,0,419.185,0,409.773V375.64c0.026-9.395,7.663-17.033,17.041-17.067l0.026-136.533  c-0.043-9.353,7.561-17.024,16.947-17.067l0.119-25.6c0.043-14.089,11.52-25.566,25.583-25.6H230.4  c14.08,0.034,25.557,11.511,25.6,25.574v25.626h34.133v-25.6c0.034-14.089,11.511-25.566,25.574-25.6h71.364  c12.169,0.009,22.716,8.678,25.088,20.599l13.662,68.233c11.546,8.294,52.045,39.782,52.045,73.301V426.84z M426.607,409.773H460.8  v-93.867c0-24.26-34.219-52.378-47.403-61.158l-2.944-1.954l-15.027-75.059c-0.794-3.985-4.318-6.878-8.363-6.878h-71.33  c-4.685,0.009-8.525,3.849-8.533,8.55v42.65h-68.267V179.39c-0.009-4.676-3.857-8.525-8.55-8.533H59.733  c-4.676,0.009-8.525,3.857-8.533,8.559v25.574c-0.034,9.429-7.697,17.067-17.092,17.067c-0.017,0-0.034,0-0.043,0l0.068,136.516  c0,9.412-7.654,17.067-17.067,17.067v34.133h42.769c0.512-10.095,2.91-19.883,7.151-29.15c8.107-17.971,22.502-32.367,40.516-40.491  c40.713-18.321,88.764-0.179,107.127,40.533c4.164,9.071,6.605,19.064,7.134,29.107h42.871  c2.185-43.981,39.313-78.549,83.669-76.954c21.649,0.717,41.719,9.813,56.516,25.626  C418.065,372.61,425.677,390.624,426.607,409.773z"/>
<g>
	<path style="fill:#424242;" d="M213.333,414.04c0,1.451,0,2.816-0.085,4.267c-2.304,38.332-34.048,68.241-72.448,68.267   c-4.292-0.026-8.567-0.393-12.8-1.109c-32.99-5.948-57.634-33.69-59.648-67.157c-0.085-1.451-0.085-2.816-0.085-4.267   c-0.017-10.308,2.193-20.497,6.485-29.867c9.805-21.777,29.739-37.299,53.248-41.472c4.224-0.785,8.508-1.186,12.8-1.195   c28.493,0,54.34,16.691,66.048,42.667C211.149,393.543,213.359,403.74,213.333,414.04z"/>
	<path style="fill:#424242;" d="M418.133,414.04c0,1.451,0,2.816-0.085,4.267c-2.304,38.332-34.048,68.241-72.448,68.267   c-4.292-0.026-8.567-0.393-12.8-1.109c-32.99-5.948-57.634-33.69-59.648-67.157c-0.085-1.451-0.085-2.816-0.085-4.267   c-0.017-35.115,25.165-65.178,59.733-71.339c4.224-0.785,8.508-1.186,12.8-1.195C385.647,341.541,418.108,373.993,418.133,414.04z"/>
</g>
<g>
	<path style="fill:#9E9E9E;" d="M187.733,414.04c0,1.451,0,2.816-0.085,4.267c-2.014,33.468-26.658,61.21-59.648,67.157   c-32.99-5.948-57.634-33.69-59.648-67.157c-0.085-1.451-0.085-2.816-0.085-4.267c-0.017-10.308,2.193-20.497,6.485-29.867   c9.805-21.777,29.739-37.299,53.248-41.472c23.509,4.173,43.443,19.695,53.248,41.472   C185.549,393.543,187.759,403.74,187.733,414.04z"/>
	<path style="fill:#9E9E9E;" d="M392.533,414.04c0,1.451,0,2.816-0.085,4.267c-2.014,33.468-26.658,61.21-59.648,67.157   c-32.99-5.948-57.634-33.69-59.648-67.157c-0.085-1.451-0.085-2.816-0.085-4.267c-0.017-35.115,25.165-65.178,59.733-71.339   C367.369,348.862,392.55,378.925,392.533,414.04z"/>
</g>
<path d="M140.911,495.115c-1.638,0-3.277-0.051-4.932-0.154c-40.977-2.432-73.711-35.174-76.151-76.151  c-0.094-1.63-0.094-3.149-0.094-4.77c-0.026-11.597,2.415-22.852,7.262-33.417c18.347-40.67,66.389-58.871,107.102-40.482  c18.005,8.115,32.401,22.511,40.533,40.525c4.762,10.368,7.27,21.931,7.236,33.4c0,1.604,0,3.123-0.094,4.736  c-1.289,21.641-10.923,41.472-27.127,55.859C179.678,487.947,160.759,495.115,140.911,495.115z M140.894,350.048  c-24.38,0-47.71,14.012-58.368,37.632c-3.823,8.363-5.743,17.212-5.726,26.342c0,1.297,0,2.509,0.068,3.789  c1.92,32.341,27.776,58.189,60.126,60.117c17.084,0.99,33.527-4.676,46.319-16.034c12.791-11.358,20.395-27.017,21.419-44.1  c0.068-1.263,0.068-2.466,0.068-3.755v-0.026c0.026-9.011-1.946-18.091-5.7-26.283c-6.434-14.268-17.801-25.634-32.017-32.034  C158.575,351.866,149.666,350.048,140.894,350.048z"/>
<g>
	<path style="fill:#37474F;" d="M179.2,414.04v2.304c-1.263,20.284-18.074,36.087-38.4,36.096c-4.361,0.009-8.695-0.742-12.8-2.219   c-14.575-5.111-24.661-18.466-25.6-33.877v-2.304c-0.034-5.393,1.126-10.726,3.413-15.616c4.267-9.609,12.288-17.041,22.187-20.565   c4.105-1.476,8.439-2.227,12.8-2.219c15.044,0.017,28.689,8.823,34.901,22.528C178.039,403.134,179.234,408.561,179.2,414.04z"/>
	<path style="fill:#37474F;" d="M384,414.04v2.304c-1.263,20.284-18.074,36.087-38.4,36.096c-4.361,0.009-8.695-0.742-12.8-2.219   c-14.575-5.111-24.661-18.466-25.6-33.877v-2.304c0.026-16.265,10.274-30.746,25.6-36.181c4.105-1.485,8.439-2.236,12.8-2.219   C366.797,375.674,383.966,392.852,384,414.04z"/>
</g>
<g>
	<path style="fill:#607D8B;" d="M153.6,414.04v2.304c-0.939,15.411-11.025,28.766-25.6,33.877   c-14.575-5.111-24.661-18.466-25.6-33.877v-2.304c-0.034-5.393,1.126-10.726,3.413-15.616c4.267-9.609,12.288-17.041,22.187-20.565   c9.822,3.482,17.801,10.812,22.101,20.309C152.439,403.134,153.634,408.561,153.6,414.04z"/>
	<path style="fill:#607D8B;" d="M358.4,414.04v2.304c-0.939,15.411-11.025,28.766-25.6,33.877   c-14.575-5.111-24.661-18.466-25.6-33.877v-2.304c0.026-16.265,10.274-30.746,25.6-36.181   C348.126,383.294,358.374,397.784,358.4,414.04z"/>
</g>
<path d="M140.817,460.973c-0.017,0-0.026,0-0.034,0c-24.789,0-45.38-19.379-46.874-44.134c-0.043-0.802-0.043-1.545-0.043-2.313  c-0.017-7.049,1.417-13.696,4.164-19.695c5.052-11.349,14.285-20.113,25.967-24.61c11.691-4.463,24.414-4.147,35.857,0.939  c10.513,4.668,18.918,13.022,23.654,23.535c2.773,5.965,4.25,12.698,4.224,19.379c0,1.203,0,1.946-0.034,2.714  C186.18,441.611,165.589,460.973,140.817,460.973z M140.8,443.906L140.8,443.906c0.009,0,0.017,0,0.017,0  c15.778,0,28.877-12.331,29.841-28.075l0.009-1.229c0.017-4.787-0.905-9.003-2.671-12.791c-3.055-6.775-8.388-12.083-15.078-15.053  c-7.287-3.234-15.386-3.456-22.801-0.597c-7.433,2.85-13.303,8.422-16.538,15.693c-1.783,3.9-2.662,7.97-2.654,12.169l0.009,1.843  c0.947,15.71,14.054,28.049,29.841,28.049C140.791,443.906,140.791,443.906,140.8,443.906z"/>
<path d="M345.719,495.115c-1.638,0-3.285-0.051-4.932-0.154c-40.977-2.432-73.719-35.174-76.151-76.151  c-0.094-1.63-0.102-3.149-0.102-4.77c0-44.698,36.369-81.067,81.067-81.067s81.067,36.369,81.067,81.067  c0,1.613-0.009,3.14-0.102,4.762c-1.28,21.641-10.914,41.472-27.127,55.859C384.478,487.947,365.559,495.115,345.719,495.115z   M345.6,350.04c-35.294,0-64,28.706-64,64c0,1.28-0.009,2.492,0.068,3.772c1.929,32.341,27.776,58.189,60.134,60.117  c17.015,0.947,33.527-4.685,46.319-16.034c12.791-11.358,20.403-27.017,21.419-44.1c0.068-1.263,0.06-2.466,0.06-3.755  C409.6,378.746,380.894,350.04,345.6,350.04z"/>
<path d="M345.617,460.973c-0.017,0-0.017,0-0.034,0c-24.789,0-45.38-19.379-46.874-44.134c-0.043-0.802-0.051-1.545-0.043-2.313  c0-26.359,21.06-47.42,46.933-47.42c25.873,0,46.933,21.06,46.933,46.933c0.009,1.246,0.009,1.98-0.034,2.756  C390.972,441.611,370.389,460.973,345.617,460.973z M345.6,443.906L345.6,443.906c0.009,0,0.009,0,0.017,0  c15.77,0,28.877-12.331,29.841-28.083l0.009-1.22c0-17.024-13.397-30.421-29.867-30.421c-16.469,0-29.867,13.397-29.867,29.867  l0.009,1.818c0.947,15.71,14.054,28.049,29.841,28.049C345.591,443.906,345.591,443.906,345.6,443.906z"/>
<path style="fill:#424242;" d="M469.333,350.04L469.333,350.04c18.85,0,34.133,15.283,34.133,34.133v25.6  c0,4.71-3.823,8.533-8.533,8.533h-25.6l0,0V350.04L469.333,350.04z"/>
<path d="M494.933,426.84H460.8v-85.333h8.533c23.526,0,42.667,19.14,42.667,42.667v25.6C512,419.185,504.346,426.84,494.933,426.84z   M477.867,409.773h17.067v-25.6c0-11.127-7.134-20.617-17.067-24.141V409.773z"/>
<path style="fill:#0377BC;" d="M382.379,237.741c0.759,4.642-2.389,9.028-7.031,9.788c-0.469,0.077-0.947,0.111-1.417,0.111h-32.597  c-4.71-0.017-8.516-3.823-8.533-8.533v-34.133c0.017-4.71,3.823-8.516,8.533-8.533h26.88c4.198-0.017,7.782,3.029,8.448,7.168  L382.379,237.741z"/>
<path style="fill:#02A9F4;" d="M356.779,237.741c0.759,4.642-2.389,9.028-7.031,9.788c-0.469,0.077-0.947,0.111-1.417,0.111h-6.997  c-4.71-0.017-8.516-3.823-8.533-8.533v-34.133c0.017-4.71,3.823-8.516,8.533-8.533h1.28c4.198-0.017,7.782,3.029,8.448,7.168  L356.779,237.741z"/>
<path d="M373.922,256.182h-32.589c-9.412,0-17.067-7.654-17.067-17.067v-34.133c0-9.412,7.654-17.067,17.067-17.067h26.906  c8.363,0,15.445,5.99,16.836,14.251l5.683,34.142c1.553,9.276-4.745,18.091-14.02,19.635  C375.774,256.096,374.861,256.182,373.922,256.182z M368.239,204.973h-26.923l0.017,34.133h32.589L368.239,204.973z"/>
<path d="M76.8,256.182c-4.71,0-8.533-3.823-8.533-8.533v-51.2c0-4.71,3.823-8.533,8.533-8.533s8.533,3.823,8.533,8.533v51.2  C85.333,252.359,81.51,256.182,76.8,256.182z"/>
<path d="M110.933,256.182c-4.71,0-8.533-3.823-8.533-8.533v-51.2c0-4.71,3.823-8.533,8.533-8.533c4.71,0,8.533,3.823,8.533,8.533  v51.2C119.467,252.359,115.644,256.182,110.933,256.182z"/>
<path d="M145.067,256.182c-4.71,0-8.533-3.823-8.533-8.533v-51.2c0-4.71,3.823-8.533,8.533-8.533c4.71,0,8.533,3.823,8.533,8.533  v51.2C153.6,252.359,149.777,256.182,145.067,256.182z"/>
<path d="M179.2,256.182c-4.71,0-8.533-3.823-8.533-8.533v-51.2c0-4.71,3.823-8.533,8.533-8.533s8.533,3.823,8.533,8.533v51.2  C187.733,252.359,183.91,256.182,179.2,256.182z"/>
<path d="M213.333,256.182c-4.71,0-8.533-3.823-8.533-8.533v-51.2c0-4.71,3.823-8.533,8.533-8.533s8.533,3.823,8.533,8.533v51.2  C221.867,252.359,218.044,256.182,213.333,256.182z"/>
<rect x="76.8" y="196.44" width="136.533" height="17.067"/>
<rect x="76.8" y="230.573" width="136.533" height="17.067"/>
<rect x="238.933" y="213.506" width="17.067" height="196.267"/>
<rect x="290.133" y="213.506" width="17.067" height="145.067"/>
<path style="fill:#D84315;" d="M375.467,162.306h-51.2l5.803-28.928c0.862-4.309,3.371-8.107,6.997-10.581  c2.825-2.065,6.229-3.174,9.728-3.157h6.144c8.132,0.009,15.138,5.76,16.725,13.739L375.467,162.306z"/>
<path style="fill:#FF5722;" d="M349.867,162.306h-25.6l5.803-28.928c0.862-4.309,3.371-8.107,6.997-10.581  c3.627,2.475,6.135,6.272,6.997,10.581L349.867,162.306z"/>
<path d="M385.877,170.848h-72.021l7.834-39.159c2.372-11.921,12.937-20.574,25.097-20.574h6.153  c12.169,0,22.724,8.653,25.097,20.582L385.877,170.848z M334.677,153.782h30.387l-3.746-18.739  c-0.794-3.977-4.309-6.861-8.363-6.861h-6.161c-4.062,0-7.578,2.884-8.363,6.852L334.677,153.782z"/>
<path style="fill:#424242;" d="M80.649,85.831l340.352-60.015c13.926-2.458,27.204,6.844,29.653,20.762l0,0l1.485,8.405  c0.819,4.642-2.278,9.071-6.921,9.882L88.064,127.84c-11.605,2.048-22.665-5.7-24.713-17.306l0,0  C61.295,98.938,69.043,87.879,80.649,85.831z"/>
<path style="fill:#9E9E9E;" d="M414.379,68.184L76.203,127.832c-11.58,2.039-22.622-5.7-24.653-17.28  c0-0.017-0.009-0.026-0.009-0.043c-0.239-1.229-0.358-2.492-0.341-3.755c0-5.376,2.082-10.539,5.803-14.421l326.571-57.6  c13.926-2.466,27.213,6.818,29.696,20.736l1.451,8.363C415.002,65.291,414.882,66.793,414.379,68.184z"/>
<path style="fill:#424242;" d="M76.8,128.173H128c9.429,0,17.067,7.637,17.067,17.067v17.067l0,0H59.733l0,0V145.24  C59.733,135.819,67.371,128.173,76.8,128.173z"/>
<path d="M84.335,136.706c-14.217,0-26.846-10.206-29.397-24.678c-2.859-16.222,8.004-31.744,24.226-34.603L419.516,17.41  c8.969-1.579,18.031,0.427,25.506,5.658c7.467,5.231,12.45,13.056,14.037,22.042l1.476,8.397c1.63,9.267-4.574,18.133-13.833,19.772  L89.549,136.254C87.799,136.561,86.05,136.706,84.335,136.706z M82.133,94.236c-6.946,1.229-11.605,7.876-10.385,14.831  c1.22,6.946,7.91,11.597,14.831,10.385l357.154-62.985l-1.485-8.405c-0.794-4.489-3.285-8.405-7.014-11.025  c-3.738-2.62-8.294-3.618-12.749-2.825L82.133,94.236z"/>
<path d="M153.6,170.848H51.2v-25.6c0-14.114,11.486-25.6,25.6-25.6H128c14.114,0,25.6,11.486,25.6,25.6V170.848z M68.267,153.782  h68.267v-8.533c0-4.702-3.831-8.533-8.533-8.533H76.8c-4.702,0-8.533,3.831-8.533,8.533V153.782z"/>
<path d="M213.333,324.44c-4.71,0-8.533-3.814-8.533-8.533v-25.6H85.333v25.6c0,4.719-3.823,8.533-8.533,8.533  s-8.533-3.814-8.533-8.533v-34.133c0-4.719,3.823-8.533,8.533-8.533h136.533c4.71,0,8.533,3.814,8.533,8.533v34.133  C221.867,320.625,218.044,324.44,213.333,324.44z"/>
<path d="M110.933,315.906c-4.71,0-8.533-3.814-8.533-8.533v-25.6c0-4.719,3.823-8.533,8.533-8.533c4.71,0,8.533,3.814,8.533,8.533  v25.6C119.467,312.092,115.644,315.906,110.933,315.906z"/>
<path d="M145.067,315.906c-4.71,0-8.533-3.814-8.533-8.533v-25.6c0-4.719,3.823-8.533,8.533-8.533c4.71,0,8.533,3.814,8.533,8.533  v25.6C153.6,312.092,149.777,315.906,145.067,315.906z"/>
<path d="M179.2,315.906c-4.71,0-8.533-3.814-8.533-8.533v-25.6c0-4.719,3.823-8.533,8.533-8.533s8.533,3.814,8.533,8.533v25.6  C187.733,312.092,183.91,315.906,179.2,315.906z"/>
<path d="M298.667,256.182h-51.2c-4.71,0-8.533-3.823-8.533-8.533c0-4.71,3.823-8.533,8.533-8.533h51.2  c4.719,0,8.533,3.823,8.533,8.533C307.2,252.359,303.386,256.182,298.667,256.182z"/>
<path d="M298.667,290.306h-51.2c-4.71,0-8.533-3.814-8.533-8.533c0-4.719,3.823-8.533,8.533-8.533h51.2  c4.719,0,8.533,3.814,8.533,8.533C307.2,286.492,303.386,290.306,298.667,290.306z"/>
<path d="M298.667,324.44h-51.2c-4.71,0-8.533-3.814-8.533-8.533s3.823-8.533,8.533-8.533h51.2c4.719,0,8.533,3.814,8.533,8.533  S303.386,324.44,298.667,324.44z"/>
<path d="M298.667,358.573h-51.2c-4.71,0-8.533-3.814-8.533-8.533c0-4.719,3.823-8.533,8.533-8.533h51.2  c4.719,0,8.533,3.814,8.533,8.533C307.2,354.759,303.386,358.573,298.667,358.573z"/>
<g>
</g>
<g>
</g>
<g>
</g>
<g>
</g>
<g>
</g>
<g>
</g>
<g>
</g>
<g>
</g>
<g>
</g>
<g>
</g>
<g>
</g>
<g>
</g>
<g>
</g>
<g>
</g>
<g>
</g>
</svg>
