<svg id="Layer_3" height="512" viewBox="0 0 64 64" width="512" xmlns="http://www.w3.org/2000/svg" data-name="Layer 3"><path d="m13 12h6v21h-6z" fill="#fce797"/><path d="m35 2h6v31h-6z" fill="#f4a93c"/><path d="m25 2h6v31h-6z" fill="#f4a93c"/><path d="m29 16v-6h6v23h-6v-16.745" fill="#fad85d"/><path d="m25 33v-27h-6v6 21z" fill="#fad85d"/><path d="m45 12h6v21h-6z" fill="#fce797"/><path d="m25 16h6v17h-6z" fill="#fce797"/><path d="m39 7h6v26h-6z" fill="#fad85d"/><path d="m50.053 58 3.934-33.779a2.008 2.008 0 0 0 -2.009-2.221h-9.87a10.109 10.109 0 0 1 -20.216 0h-9.87a2.008 2.008 0 0 0 -2.009 2.221l4.072 33.779z" fill="#e2e7f6"/><path d="m46.351 55 3.849-33h-8.092a10.109 10.109 0 0 1 -20.216 0h-9.87a2.008 2.008 0 0 0 -2.009 2.221l3.71 30.779z" fill="#f7fafd"/><rect fill="#4c506e" height="4" rx="2" width="60" x="2" y="58"/><path d="m52.266 39h-14.15-14.423-11.899l1.206 10h10.692 14.424 12.985z" fill="#b52f28"/><path d="m48.324 39h-10.208-14.423-11.899l1.206 10h10.692 14.424 9.044z" fill="#d23f34"/><circle cx="32" cy="44" fill="#5e87ca" r="8"/><path d="m24 44a7.966 7.966 0 0 0 2.182 5.48 7.99 7.99 0 0 0 8.636-12.96 7.984 7.984 0 0 0 -10.818 7.48z" fill="#78a0d4"/><path d="m59.5 59.5v-1.5h-55.5a2 2 0 0 0 -1.929 1.5z" fill="#787faa"/><path d="m60 57h-8.824l3.805-32.668a2.991 2.991 0 0 0 -.744-2.324 3.03 3.03 0 0 0 -2.237-1.008v-9a1 1 0 0 0 -1-1h-5v-4a1 1 0 0 0 -1-1h-3v-4a1 1 0 0 0 -1-1h-6a1 1 0 0 0 -1 1v7h-2v-7a1 1 0 0 0 -1-1h-6a1 1 0 0 0 -1 1v3h-5a1 1 0 0 0 -1 1v5h-5a1 1 0 0 0 -1 1v9a3.03 3.03 0 0 0 -2.237 1.006 2.994 2.994 0 0 0 -.743 2.334l3.937 32.66h-8.957a3 3 0 0 0 0 6h56a3 3 0 0 0 0-6zm-47.077-17h11.027a8.9 8.9 0 0 0 0 8h-10.063zm12.077 4a7 7 0 1 1 7 7 7.008 7.008 0 0 1 -7-7zm15.05-4h11.093l-.932 8h-10.161a8.9 8.9 0 0 0 0-8zm9.95-27v8h-4v-8zm-6 8h-1.893a1 1 0 0 0 -1 1 8.858 8.858 0 0 1 -1.107 4.3v-18.3h4zm-4-18v3h-1a1 1 0 0 0 -1 1v21.753a9.122 9.122 0 0 1 -2 1.32v-27.073zm-6 27.774a9.156 9.156 0 0 1 -2 .226v-15a1 1 0 0 0 -1-1h-1v-4h4zm-8-13.774h4v13.774a9.111 9.111 0 0 1 -4-2.021zm4-14v6h-1a1 1 0 0 0 -1 1v5h-2v-12zm-10 4h4v19.3a8.858 8.858 0 0 1 -1.107-4.3 1 1 0 0 0 -1-1h-1.893zm-2 6v8h-4v-8zm-6.747 10.341a1.018 1.018 0 0 1 .768-.341h8.917a11.118 11.118 0 0 0 22.124 0h8.917a1.018 1.018 0 0 1 .768.341.979.979 0 0 1 .247.764l-1.618 13.895h-12.687a8.957 8.957 0 0 0 -13.378 0h-12.63l-1.674-13.891a.975.975 0 0 1 .246-.768zm2.875 26.659h11.183a8.957 8.957 0 0 0 13.378 0h11.289l-.815 7h-34.191zm45.872 11h-56a1 1 0 0 1 0-2h56a1 1 0 0 1 0 2z"/></svg>