<svg height="512" viewBox="0 0 64 64" width="512" xmlns="http://www.w3.org/2000/svg"><g id="_24-Gnome" data-name="24-Gnome"><path d="m47.58 43.45a22.946 22.946 0 0 1 2.07 1.88c-1.55 1.51-7.65 8.06-7.65 17.67h-10v-6l5-5 2 2s4.23-5.07 4.91-9h.09a6.1 6.1 0 0 0 3.58-1.55z" fill="#cdd2e1"/><path d="m32 57v6h-10c0-9.61-6.1-16.16-7.65-17.67a22.946 22.946 0 0 1 2.07-1.88 6.1 6.1 0 0 0 3.58 1.55h.09c.68 3.93 4.91 9 4.91 9l2-2z" fill="#e9edf5"/><path d="m22 63h-12v-9c0-3.49 2.37-6.64 4.35-8.67 1.55 1.51 7.65 8.06 7.65 17.67z" fill="#9e6f46"/><path d="m54 54v9h-12c0-9.61 6.1-16.16 7.65-17.67 1.98 2.03 4.35 5.18 4.35 8.67z" fill="#9e6f46"/><path d="m41.01 27.62c-2.27-.58-2.51-1.62-9.01-1.62s-6.74 1.04-9.01 1.62a15.6 15.6 0 0 1 -3.99.38 1.959 1.959 0 0 1 -2-2c0-12 15-25 15-25s15 13 15 25a1.959 1.959 0 0 1 -2 2 15.6 15.6 0 0 1 -3.99-.38z" fill="#ff8257"/><path d="m32 5s12.676 10.994 14.716 22.094a2.034 2.034 0 0 0 .284-1.094c0-12-15-25-15-25s-15 13-15 25a2.034 2.034 0 0 0 .284 1.094c2.04-11.1 14.716-22.094 14.716-22.094z" fill="#ff936b"/><path d="m45 26a15.6 15.6 0 0 1 -3.99-.38c-2.27-.58-2.51-1.62-9.01-1.62s-6.74 1.04-9.01 1.62a15.6 15.6 0 0 1 -3.99.38 2.018 2.018 0 0 1 -1.924-1.42c-.045.474-.076.948-.076 1.42a1.959 1.959 0 0 0 2 2 15.6 15.6 0 0 0 3.99-.38c2.27-.58 2.51-1.62 9.01-1.62s6.74 1.04 9.01 1.62a15.6 15.6 0 0 0 3.99.38 1.959 1.959 0 0 0 2-2c0-.472-.031-.946-.076-1.42a2.018 2.018 0 0 1 -1.924 1.42z" fill="#ff7045"/><path d="m16.42 43.45a15.062 15.062 0 0 1 -2.42-2.45h4a16.539 16.539 0 0 1 1.69-1.84 19.917 19.917 0 0 1 5.93-3.99 10.457 10.457 0 0 0 2.89.79l-.51 2.04h4s-4.96 6.94-11.91 7h-.09a6.1 6.1 0 0 1 -3.58-1.55z" fill="#ffe4c2"/><path d="m20.09 43h-.09a6.1 6.1 0 0 1 -3.58-1.55c-.187-.148-.366-.3-.537-.45h-1.883a15.062 15.062 0 0 0 2.42 2.45 6.1 6.1 0 0 0 3.58 1.55h.09c6.95-.06 11.91-7 11.91-7h-1.742c-2.028 2.055-5.677 4.961-10.168 5z" fill="#f2d1a5"/><path d="m47.58 43.45a6.1 6.1 0 0 1 -3.58 1.55h-.09c-6.95-.06-11.91-7-11.91-7h4l-.51-2.04a10.457 10.457 0 0 0 2.89-.79 19.917 19.917 0 0 1 5.93 3.99 16.539 16.539 0 0 1 1.69 1.84h4a15.062 15.062 0 0 1 -2.42 2.45z" fill="#ffe4c2"/><path d="m47.58 41.45a6.1 6.1 0 0 1 -3.58 1.55h-.09c-4.491-.039-8.14-2.945-10.168-5h-1.742s4.96 6.94 11.91 7h.09a6.1 6.1 0 0 0 3.58-1.55 15.062 15.062 0 0 0 2.42-2.45h-1.883c-.171.151-.35.3-.537.45z" fill="#f2d1a5"/><path d="m43.91 45c-.68 3.93-4.91 9-4.91 9l-2-2-5 5-5-5-2 2s-4.23-5.07-4.91-9c6.95-.06 11.91-7 11.91-7s4.96 6.94 11.91 7z" fill="#f2bb88"/><path d="m32 40s4.69 6.535 11.332 6.96a10.218 10.218 0 0 0 .578-1.96c-6.95-.06-11.91-7-11.91-7s-4.96 6.94-11.91 7a10.218 10.218 0 0 0 .578 1.96c6.642-.425 11.332-6.96 11.332-6.96z" fill="#e3a76f"/><path d="m44.31 39.16a19.917 19.917 0 0 0 -5.93-3.99 14.6 14.6 0 0 0 4.48-3.03 3.7 3.7 0 0 0 2.14.86v2a12.9 12.9 0 0 1 -.35 3c-.1.39-.21.78-.34 1.16z" fill="#f2bb88"/><path d="m19.35 38a12.9 12.9 0 0 1 -.35-3v-2a3.7 3.7 0 0 0 2.14-.86 14.6 14.6 0 0 0 4.48 3.03 19.917 19.917 0 0 0 -5.93 3.99c-.13-.38-.24-.77-.34-1.16z" fill="#f2bb88"/><path d="m19 33v-5a15.6 15.6 0 0 0 3.99-.38 7.264 7.264 0 0 1 -.91 3.41 4.071 4.071 0 0 1 -.94 1.11 3.7 3.7 0 0 1 -2.14.86z" fill="#c48958"/><path d="m42.86 32.14a4.071 4.071 0 0 1 -.94-1.11 7.264 7.264 0 0 1 -.91-3.41 15.6 15.6 0 0 0 3.99.38v5a3.7 3.7 0 0 1 -2.14-.86z" fill="#c48958"/><g fill="#faa68e"><path d="m19 30v5a12.9 12.9 0 0 0 .35 3h-1.35a4 4 0 0 1 -4-4v-2a2.006 2.006 0 0 1 2-2z"/><path d="m50 32v2a4 4 0 0 1 -4 4h-1.35a12.9 12.9 0 0 0 .35-3v-5h3a2.006 2.006 0 0 1 2 2z"/><path d="m25.62 35.17a14.6 14.6 0 0 1 -4.48-3.03 4.071 4.071 0 0 0 .94-1.11l6.92 2.97-.49 1.96a10.457 10.457 0 0 1 -2.89-.79z"/><path d="m35 34 6.92-2.97a4.071 4.071 0 0 0 .94 1.11 14.6 14.6 0 0 1 -4.48 3.03 10.457 10.457 0 0 1 -2.89.79z"/></g><path d="m28.51 35.96a2.373 2.373 0 0 0 -1.367-2.76l-5.063-2.17a7.264 7.264 0 0 0 .91-3.41c2.27-.58 2.51-1.62 9.01-1.62s6.74 1.04 9.01 1.62a7.264 7.264 0 0 0 .91 3.41l-5.063 2.17a2.373 2.373 0 0 0 -1.367 2.76l.51 2.04h-8z" fill="#ffcdbe"/><path d="m45 29a13.144 13.144 0 0 1 -5.893-.979c-1.239-.502-2.519-1.021-7.107-1.021s-5.868.519-7.107 1.021a13.144 13.144 0 0 1 -5.893.979 2.916 2.916 0 0 1 -3-3c0-12.315 14.719-25.213 15.345-25.756a1 1 0 0 1 1.31 0c.626.543 15.345 13.441 15.345 25.756a2.916 2.916 0 0 1 -3 3zm-13-26.649c-2.849 2.649-14 13.654-14 23.649a.918.918 0 0 0 1.012 1 11.189 11.189 0 0 0 5.13-.833c1.35-.547 2.88-1.167 7.858-1.167s6.508.62 7.858 1.167a11.215 11.215 0 0 0 5.142.833.915.915 0 0 0 1-1c0-9.995-11.151-21-14-23.649z"/><path d="m19 34a1 1 0 0 1 -1-1v-5h2v3.718c.878-.454 2-1.638 2-4.718h2c0 6.92-4.95 7-5 7z"/><path d="m45 34c-.05 0-5-.08-5-7h2c0 3.076 1.119 4.26 2 4.716v-3.716h2v5a1 1 0 0 1 -1 1z"/><path d="m45.255 39.485-1.891-.65a11.78 11.78 0 0 0 .636-3.835v-2h2v2a13.773 13.773 0 0 1 -.745 4.485z"/><path d="m18.745 39.485a13.773 13.773 0 0 1 -.745-4.485v-2h2v2a11.78 11.78 0 0 0 .636 3.835z"/><path d="m36 39h-8a1 1 0 0 1 -.97-1.242l1-4 1.94.484-.689 2.758h5.438l-.689-2.758 1.94-.484 1 4a1 1 0 0 1 -.97 1.242z"/><path d="m35 37-.005-2c.036 0 3.672-.081 7.3-3.707l1.414 1.414c-4.246 4.244-8.528 4.293-8.709 4.293z"/><path d="m29 37c-.181 0-4.463-.049-8.707-4.293l1.414-1.414c3.626 3.626 7.262 3.707 7.298 3.707z"/><path d="m20 46c-3.4 0-6.462-3.949-6.8-4.4a1 1 0 0 1 .8-1.6h3.521a21.56 21.56 0 0 1 8.108-5.929l.742 1.858a19.581 19.581 0 0 0 -7.571 5.671 1 1 0 0 1 -.8.4h-1.739c1.065 1 2.471 2 3.739 2 6.411 0 11.14-6.516 11.187-6.581l1.626 1.162c-.213.303-5.383 7.419-12.813 7.419z"/><path d="m44 46c-7.43 0-12.6-7.116-12.813-7.419l1.626-1.163c.047.065 4.797 6.582 11.187 6.582 1.268 0 2.674-1 3.739-2h-1.739a1 1 0 0 1 -.8-.4 19.713 19.713 0 0 0 -7.572-5.672l.742-1.858a21.56 21.56 0 0 1 8.109 5.93h3.521a1 1 0 0 1 .8 1.6c-.338.451-3.4 4.4-6.8 4.4z"/><path d="m26 30h4v2h-4z"/><path d="m34 30h4v2h-4z"/><path d="m46 39h-2v-2h2a3 3 0 0 0 3-3v-2a1 1 0 0 0 -1-1h-3v-2h3a3 3 0 0 1 3 3v2a5.006 5.006 0 0 1 -5 5z"/><path d="m20 39h-2a5.006 5.006 0 0 1 -5-5v-2a3 3 0 0 1 3-3h3v2h-3a1 1 0 0 0 -1 1v2a3 3 0 0 0 3 3h2z"/><path d="m32 58a1 1 0 0 1 -.707-.293l-4.293-4.293-1.293 1.293a.958.958 0 0 1 -.752.292 1.007 1.007 0 0 1 -.724-.358c-.212-.257-5.231-6.329-5.231-10.641h2c0 2.554 2.53 6.438 4.088 8.5l1.2-1.2a1 1 0 0 1 1.414 0l4.298 4.286 4.293-4.293a1 1 0 0 1 1.414 0l1.2 1.2c1.563-2.055 4.093-5.939 4.093-8.493h2c0 4.312-5.019 10.384-5.231 10.641a1.007 1.007 0 0 1 -.724.358.967.967 0 0 1 -.752-.292l-1.293-1.293-4.293 4.293a1 1 0 0 1 -.707.293z"/><path d="m54 64h-44a1 1 0 0 1 -1-1v-9c0-6.44 7.116-11.6 7.419-11.813l1.163 1.626c-.066.047-6.582 4.78-6.582 10.187v8h42v-8c0-5.407-6.516-10.14-6.582-10.187l1.163-1.626c.303.213 7.419 5.373 7.419 11.813v9a1 1 0 0 1 -1 1z"/><path d="m43 63h-2c0-11.323 8-18.454 8.342-18.753l1.317 1.505c-.076.067-7.659 6.854-7.659 17.248z"/><path d="m23 63h-2c0-10.394-7.583-17.181-7.659-17.248l1.317-1.505c.342.299 8.342 7.43 8.342 18.753z"/><path d="m31 57h2v6h-2z"/><path d="m35 58h2v2h-2z"/><path d="m27 58h2v2h-2z"/><path d="m45 25a13.144 13.144 0 0 1 -5.893-.979c-1.239-.502-2.519-1.021-7.107-1.021s-5.868.519-7.107 1.021a13.144 13.144 0 0 1 -5.893.979v-2a11.215 11.215 0 0 0 5.142-.833c1.35-.547 2.88-1.167 7.858-1.167s6.508.62 7.858 1.167a11.215 11.215 0 0 0 5.142.833z"/></g></svg>