<svg height="512" viewBox="0 0 61 60" width="512" xmlns="http://www.w3.org/2000/svg"><g id="023---Grasshopper" fill="none"><g id="Icons" transform="translate(17 2)"><path id="Shape" d="m22 16c-.0630621 3.0999717-.3976755 6.1884533-1 9.23-.52 3-.87 4.46-.87 4.57-2.43 21.55-2.42 21.38-2.42 21.48-.52 4.18-1.84 5.72-4.71 5.72-3.38 0-4.29-2.32-4.72-5.72-3.21-28.49-2-18.5-3.29-26-.6022371-3.0582043-.93352112-6.1635737-.99-9.28-.03927284-2.4489033.17520481-4.8952889.64-7.3l8.36-3.7 8.36 3.7c.4647952 2.4047111.6792728 4.8510967.64 7.3z" fill="#549414"/><path id="Shape" d="m19 16c-.0630621 3.0999717-.3976755 6.1884533-1 9.23-.52 3-.87 4.46-.87 4.57-2.43 21.55-2.42 21.38-2.42 21.48-.43 3.37-1.37 5-3.22 5.54-1.85-.51-2.79-2.17-3.22-5.54 0-.1 0 .23-2.42-21.49-1.41-6.95-2.72-14.11-1.22-21.09l6.86-3 6.86 3c.4681499 2.4043615.685979 4.8507503.65 7.3z" fill="#60a917"/><circle id="Oval" cx="8" cy="5" fill="#f5f5f5" r="5"/><circle id="Oval" cx="18" cy="5" fill="#cfd8dc" r="5"/><path id="Shape" d="m20 5c.0045063 2.18739016-1.4133569 4.1237862-3.5 4.78-2.0915959-.649612-3.516971-2.58484725-3.516971-4.775s1.4253751-4.12538799 3.516971-4.775c2.0831174.6551101 3.5001328 2.58629965 3.5 4.77z" fill="#f5f5f5"/><path id="Shape" d="m7 32.08s-1-4.08-4.07-3.08c-3.07 1-2.06 10.27-1 14.38s3.07 10.27 7.16 8.21-2.09-19.51-2.09-19.51z" fill="#a4c400"/><path id="Shape" d="m24.1 43.38c-1 4.1-3.08 10.26-7.18 8.21-4.12-2.05 2.08-19.51 2.08-19.51.2774453-1.0614469.8659955-2.0156644 1.69-2.74.6824457-.514188 1.5808795-.6425357 2.38-.34 3.08 1 2.06 10.27 1.03 14.38z" fill="#90ac00"/><path id="Shape" d="m16.92 51.59c-4.12-2.05 2.08-19.51 2.08-19.51.2774453-1.0614469.8659955-2.0156644 1.69-2.74 3.22 2.66.67 19.66-3.77 22.25z" fill="#a4c400"/></g><g id="Layer_10" fill="#000" transform="translate(0 -1)"><path id="Shape" d="m8 30c.94127843 1.3168293 2.5833994 1.9365721 4.16 1.57l9-2.08c.09.49.19 1 .28 1.47-.6024116-.1014377-1.2205173-.0533628-1.8.14-4.77 1.56-1.64 15.01-1.64 15.14 1 4.1 2.24 6.69 3.77 8l-3.85 1.76-3.68-1c-.5522847-.1325483-1.1074517.2077153-1.24.76s.2077153 1.1074517.76 1.24l2.28.57-1.75 1.75c-.3921221.3921222-.3921221 1.0278778 0 1.42.3921222.3921221 1.0278778.3921221 1.42 0l2.86-2.87c6.49-2.78 5.67-2.45 5.87-2.45.5 2.89 1.7 5.58 5.56 5.58s5.06-2.69 5.56-5.61c.2 0-.63-.33 5.87 2.45l2.86 2.87c.3921222.3921222 1.0278778.3921222 1.42 0s.3921222-1.0278778 0-1.42l-1.71-1.75 2.24-.54c.5522847-.1325484.8925483-.6877153.7599999-1.24-.1325483-.5522847-.6877152-.8925483-1.2399999-.76l-3.68 1-3.88-1.71c1.53-1.36 2.75-3.95 3.77-8 0-.13 3.16-13.58-1.65-15.19-.5794827-.1933628-1.1975884-.2414377-1.8-.14.09-.49.19-1 .28-1.47l9 2.08c1.5892994.3842822 3.2524765-.2374293 4.2-1.57l3.69-5.17 3.78-1.89c.3460386-.1440974.5824323-.4696151.6123817-.8432591s-.1515756-.73266-.4702434-.9300368c-.3186678-.1973769-.7209575-.1999648-1.0421383-.0067041l-2 1 .43-1.92c.1325483-.5522847-.2077153-1.1074516-.76-1.2399999-.5522847-.1325484-1.1074516.2077152-1.24.7599999l-1 3.81-3.73 5.22c-.4719228.6565463-1.2927401.9643528-2.08.78l-9.11-2.1c.25-1.44.49-3 .65-4.65l7.28-7c.5641116-.5418434.9569818-1.2371889 1.13-2l1.64-7.28 2.75-3.2c.271236-.40889302.2057335-.95417395-.154626-1.2871958-.3603594-.33302184-.9091048-.35539072-1.295374-.0528042l-1.49 1.77-.3-1.92c-.0828427-.55228475-.5977153-.93284271-1.15-.85s-.9328427.59771525-.85 1.15l.62 3.85c-1.76 7.83-1.62 7.77-2.21 8.33l-5.7 5.54c.0864017-2.6360613-.1046489-5.2739005-.57-7.87 1.5930016-1.6549891 2.1012816-4.07422995 1.3089934-6.23036591-.7922882-2.15613597-2.7460652-3.6706757-5.0316384-3.90045354-2.2855733-.22977785-4.5017299.86554173-5.707355 2.82081945-1.2056251-1.95527772-3.4217817-3.0505973-5.707355-2.82081945-2.2855732.22977784-4.2393502 1.74431757-5.0316384 3.90045354-.7922882 2.15613596-.2840082 4.57537681 1.3089934 6.23036591-.4653511 2.5960995-.6564017 5.2339387-.57 7.87l-5.72-5.5c-.59-.57-.4-.3-2.21-8.33l.6-3.89c.0903856-.5438292-.2764031-1.05822793-.82-1.15-.2626171-.04013978-.5304129.02587068-.7442896.18346408-.2138768.15759341-.3562536.39381532-.3957104.65653592l-.3 1.92-1.49-1.76c-.23758161-.27152186-.60197127-.39567012-.9559069-.32567933-.35393564.06999079-.64364601.32348736-.76000002.66500001s-.04167471.71915747.19590692.99067932l2.75 3.2 1.64 7.28c.1730182.7628111.5658884 1.4581566 1.13 2l7.28 7c.16 1.61.4 3.21.65 4.65l-9.12 2.1c-.7872599.1843528-1.6080772-.1234537-2.08-.78l-3.73-5.21-.92-3.81c-.13254834-.5522847-.68771525-.8925483-1.24-.76s-.89254834.6877153-.76 1.24l.47 1.89-2-1c-.48352717-.2013504-1.04049627.0045141-1.2768341.4719378s-.07195864 1.0380149.3768341 1.3080622l3.78 1.89zm12.3 3c.1963814-.0681438.4021858-.1052561.61-.11 1.09 0 1.85 1.43 2.1 2.41v.08c2.75 7.81 4.41 16.82 2.49 17.78-.5420955.3367586-1.2151399.3853673-1.8.13-4.04-1.93-6.31-19.37-3.38-20.29zm9.7 26c-1.88 0-3.05-.68-3.61-4.08 4.45-2.16.2-15.57-1.43-20.21-.240781-.8441942-.6339143-1.6372389-1.16-2.34-1.31-6.5-2.41-12.46-1.44-19 2.7027757 1.327848 5.9711181.4465934 7.64-2.06 1.6658279 2.5102097 4.9348036 3.3959138 7.64 2.07 1 6.53-.13 12.49-1.44 19-.5391783.6967113-.9459155 1.4864593-1.2 2.33-1.64 4.65-5.88 18-1.42 20.21-.53 3.4-1.7 4.08-3.58 4.08zm9.07-26.16c.2078142.0047439.4136186.0418562.61.11 1.74.58 1.64 7.64.35 12.81-1.34 5.36-2.8 7-3.78 7.48-.5848601.2553673-1.2579045.2067586-1.8-.13-1.92-1-.26-10 2.49-17.78v-.08c.28-1 1.06-2.41 2.13-2.41zm-4.07-28.84c2.209139 0 4 1.790861 4 4s-1.790861 4-4 4-4-1.790861-4-4 1.790861-4 4-4zm-10 0c2.209139 0 4 1.790861 4 4s-1.790861 4-4 4-4-1.790861-4-4 1.790861-4 4-4z"/><circle id="Oval" cx="26" cy="8" r="1"/><circle id="Oval" cx="34" cy="8" r="1"/></g></g></svg>