<?xml version="1.0" encoding="iso-8859-1"?>
<!-- Generator: Adobe Illustrator 21.0.0, SVG Export Plug-In . SVG Version: 6.00 Build 0)  -->
<svg version="1.1" id="Capa_1" xmlns="http://www.w3.org/2000/svg" xmlns:xlink="http://www.w3.org/1999/xlink" x="0px" y="0px"
	 viewBox="0 0 593.292 593.292" style="enable-background:new 0 0 593.292 593.292;" xml:space="preserve">
<g>
	<g>
		<g id="filled_outline_16_">
			<polygon style="fill:#C3C9D1;" points="9.888,365.862 29.664,365.862 56.362,305.792 56.362,305.792 9.888,296.646 			"/>
			<path style="fill:#DD381A;" d="M558.16,369.442l-3.411-0.85c-7.07-1.77-13.369-5.814-17.927-11.51l-48.352-60.436
				c-15.02-18.758-37.743-29.674-61.771-29.664H9.888v29.664l46.474,9.146l154.53,30.406l71.312,79.243
				c11.253,12.498,27.281,19.638,44.101,19.638h223.776c18.402,0.01,33.323-14.891,33.333-33.293
				C583.424,386.479,573.011,373.14,558.16,369.442z"/>
			<rect x="286.753" y="128.549" style="fill:#A4B0BF;" width="19.776" height="98.88"/>
			<path style="fill:#C43117;" d="M385.633,266.982H207.649l23.899-39.839c3.57-5.953,10.007-9.601,16.958-9.601h96.27
				c6.951,0,13.388,3.649,16.958,9.601L385.633,266.982z"/>
			<polygon style="fill:#D0D7DF;" points="69.216,266.982 9.888,266.982 9.888,187.877 39.552,187.877 			"/>
			<polygon style="fill:#4394CC;" points="375.745,306.534 415.297,365.862 355.969,365.862 316.417,306.534 			"/>
			<path style="fill:#4394CC;" d="M461.03,364.626l85.917,0.801c-3.896-2.076-7.337-4.914-10.125-8.346l-40.442-50.548h-71.194
				L461.03,364.626z"/>
			<path style="fill:#B7BDC4;" d="M260.985,148.325H29.664c-10.926,0-19.776-8.85-19.776-19.776l0,0
				c0-10.926,8.85-19.776,19.776-19.776h231.321c3.906,0,7.723,1.157,10.976,3.322l24.681,16.454l-24.72,16.454
				C268.678,147.159,264.881,148.315,260.985,148.325z"/>
			<path style="fill:#B7BDC4;" d="M332.297,108.773h231.321c10.926,0,19.776,8.85,19.776,19.776l0,0
				c0,10.926-8.85,19.776-19.776,19.776H332.297c-3.906,0-7.723-1.157-10.976-3.322l-24.681-16.454l24.72-16.454
				C324.604,109.93,328.401,108.773,332.297,108.773z"/>
			<polygon style="fill:#3E89BD;" points="509.491,365.081 435.696,323.571 461.03,364.626 			"/>
			<polygon style="fill:#3E89BD;" points="394.424,365.862 332.9,331.254 355.969,365.862 			"/>
			<path d="M315.824,153.269c4.865,3.233,10.57,4.954,16.414,4.944h231.38c16.384,0,29.664-13.28,29.664-29.664
				s-13.28-29.664-29.664-29.664h-231.38c-5.854-0.02-11.579,1.701-16.454,4.944l-19.143,12.854l-19.183-12.854
				c-4.865-3.233-10.57-4.954-16.414-4.944H29.664C13.28,98.885,0,112.165,0,128.549s13.28,29.664,29.664,29.664h231.38
				c5.854,0.02,11.579-1.701,16.454-4.944l9.255-6.249v60.633h-38.237c-10.412,0.03-20.053,5.498-25.442,14.407l-21.022,35.033
				H76.069l-27.251-72.687c-1.444-3.866-5.142-6.427-9.265-6.417H9.888c-5.458,0-9.888,4.43-9.888,9.888v177.985
				c0,5.458,4.43,9.888,9.888,9.888h19.776c3.748,0,7.179-2.116,8.85-5.468l26.361-52.743l140.875,27.686l69.137,76.83
				c13.131,14.565,31.81,22.891,51.418,22.911v29.664h-17.442c-9.799,0.02-18.758-5.527-23.098-14.308l-17.7,8.84
				c7.693,15.485,23.504,25.264,40.798,25.244H531.62c17.324,0.059,33.184-9.73,40.897-25.244l-17.7-8.84
				c-4.361,8.81-13.369,14.367-23.197,14.308h-17.443v-29.664h35.903c23.86,0.01,43.211-19.331,43.211-43.191
				c0.01-19.835-13.497-37.12-32.739-41.925l-3.392-0.85c-4.974-1.256-9.413-4.094-12.627-8.098l-48.313-60.406
				c-16.849-21.16-42.449-33.461-69.503-33.402H391.23l-21.022-35.043c-5.389-8.909-15.03-14.367-25.442-14.397h-38.237V147.03
				L315.824,153.269z M326.819,120.352c1.602-1.078,3.491-1.671,5.419-1.691h231.38c5.458,0,9.888,4.43,9.888,9.888
				c0,5.458-4.43,9.888-9.888,9.888h-231.38c-1.948,0-3.856-0.574-5.478-1.661l-12.32-8.227L326.819,120.352z M266.502,136.826
				c-1.622,1.058-3.52,1.622-5.458,1.612H29.664c-5.458,0-9.888-4.43-9.888-9.888c0-5.458,4.43-9.888,9.888-9.888h231.38
				c1.948,0,3.856,0.574,5.478,1.661l12.32,8.227L266.502,136.826z M19.776,197.766H32.7l22.248,59.328H19.776V197.766z
				 M23.553,355.974h-3.777V308.67l24.967,4.944L23.553,355.974z M494.402,474.63h-148.32v-29.664h148.32V474.63z M491.623,316.422
				l31.394,39.236l-56.421-0.84l-23.692-38.395H491.623z M385.633,276.87h41.085c18.125-0.049,35.538,7.06,48.451,19.776h-49.984
				c-5.458,0-9.888,4.43-9.888,9.888c0,1.829,0.514,3.629,1.473,5.191l35.844,58.092c1.77,2.877,4.895,4.647,8.266,4.697
				l84.928,1.335l9.957,2.966c10.343,2.877,17.561,12.212,17.739,22.95c-0.02,12.934-10.491,23.405-23.425,23.425H326.305
				c-14.011-0.01-27.37-5.962-36.754-16.365l-71.313-79.243c-1.434-1.592-3.342-2.67-5.438-3.085l-193.024-37.98V276.87
				C19.776,276.87,385.633,276.87,385.633,276.87z M344.766,227.43c3.471,0.01,6.694,1.829,8.494,4.806l14.911,24.859h-143.06
				l14.911-24.859c1.8-2.976,5.023-4.796,8.494-4.806H344.766z"/>
			<path d="M347.742,371.35c1.839,2.749,4.924,4.4,8.227,4.4h59.328c5.458,0,9.888-4.43,9.888-9.888
				c0-1.958-0.573-3.866-1.661-5.488l-39.552-59.328c-1.839-2.749-4.924-4.4-8.227-4.4h-59.328c-5.458,0-9.888,4.43-9.888,9.888
				c0,1.958,0.574,3.866,1.661,5.488L347.742,371.35z M370.455,316.422l26.371,39.552H361.23l-26.371-39.552H370.455z"/>
		</g>
	</g>
</g>
<g>
</g>
<g>
</g>
<g>
</g>
<g>
</g>
<g>
</g>
<g>
</g>
<g>
</g>
<g>
</g>
<g>
</g>
<g>
</g>
<g>
</g>
<g>
</g>
<g>
</g>
<g>
</g>
<g>
</g>
</svg>
