<svg id="svg4938" height="512" viewBox="0 0 16.933333 16.933334" width="512" xmlns="http://www.w3.org/2000/svg" xmlns:svg="http://www.w3.org/2000/svg"><g id="layer1" transform="translate(0 -280.067)"><path id="path6372" d="m4.779984 296.14833c.1799219.19054.4400439.31626.7317388.31626h5.8208352c.292168 0 .550735-.12848.727603-.31884.176866-.19036.281612-.43535.326594-.69402l1.333219-7.66668c.02821-.16178-.09623-.30992-.260451-.31006h-2.639115c-.146119.00002-.264568.11847-.264583.26459l.0016 3.48505c.000127.2999-.23327.5333-.533302.5333-.3000721 0-.5333001-.23327-.5333001-.5333v-1.93683c0-.65503-.535596-1.19062-1.190625-1.19062s-1.1906254.53559-1.1906254 1.19062v.74207c0 .37103-.2904381.66146-.661458.66146-.371025 0-.6614589-.29043-.6614589-.66146v-2.29029c-.0000151-.14614-.1184942-.2646-.264632-.26459h-2.1166802c-.163933-.00007-.2884829.14742-.260966.30903l1.312082 7.66256c.03618.26179.1435902.51121.3235121.70175z" font-variant-ligatures="normal" font-variant-position="normal" font-variant-caps="normal" font-variant-numeric="normal" font-variant-alternates="normal" font-feature-settings="normal" text-indent="0" text-align="start" text-decoration-line="none" text-decoration-style="solid" text-decoration-color="#000000" text-transform="none" text-orientation="mixed" white-space="normal" shape-padding="0" isolation="auto" mix-blend-mode="normal" solid-color="#000000" solid-opacity="1" vector-effect="none"/><path id="path4340" d="m3.7190969 288.00414h1.5384071v2.02572c0 .65503.535596 1.19062 1.190625 1.19062.6550289 0 1.1906249-.53559 1.1906249-1.19062v-.74207c0-.37103.290433-.66146.661458-.66146s.661458.29043.661458.66146v1.93683c0 .58403.478415 1.06247 1.0624671 1.06247.584033 0 1.062717-.47831 1.062468-1.06247l-.0015-3.22048h2.06034l-1.27951 7.35666c-.03036.17457-.102544.32658-.193786.42478-.09124.0982-.191955.14986-.339513.14986h-5.8208341c-.148037 0-.254748-.053-.3467489-.15038-.092-.0974-.1615972-.24528-.185002-.41496a.26460979.26460979 0 0 0 -.00101-.008z" fill="#b67162" font-variant-ligatures="normal" font-variant-position="normal" font-variant-caps="normal" font-variant-numeric="normal" font-variant-alternates="normal" font-feature-settings="normal" text-indent="0" text-align="start" text-decoration-line="none" text-decoration-style="solid" text-decoration-color="#000000" text-transform="none" text-orientation="mixed" white-space="normal" shape-padding="0" isolation="auto" mix-blend-mode="normal" solid-color="#000000" solid-opacity="1" vector-effect="none"/><path id="path6380" d="m2.8761899 286.41666c-.435161 0-.79375.35859-.79375.79375s.358589.79375.79375.79375h2.6458331a.26460979.26460979 0 0 0 .2645828-.26458v-1.05834a.26460979.26460979 0 0 0 -.2645828-.26458h-1.7270251z" font-variant-ligatures="normal" font-variant-position="normal" font-variant-caps="normal" font-variant-numeric="normal" font-variant-alternates="normal" font-feature-settings="normal" text-indent="0" text-align="start" text-decoration-line="none" text-decoration-style="solid" text-decoration-color="#000000" text-transform="none" text-orientation="mixed" white-space="normal" shape-padding="0" isolation="auto" mix-blend-mode="normal" solid-color="#000000" solid-opacity="1" vector-effect="none"/><path id="path6378" d="m10.819892 286.41666a.26460979.26460979 0 0 0 -.264583.26458l.000529 1.05834a.26460979.26460979 0 0 0 .264584.26458h3.168282c.43516 0 .79375-.35859.79375-.79375s-.35859-.79375-.79375-.79375h-.917258z" font-variant-ligatures="normal" font-variant-position="normal" font-variant-caps="normal" font-variant-numeric="normal" font-variant-alternates="normal" font-feature-settings="normal" text-indent="0" text-align="start" text-decoration-line="none" text-decoration-style="solid" text-decoration-color="#000000" text-transform="none" text-orientation="mixed" white-space="normal" shape-padding="0" isolation="auto" mix-blend-mode="normal" solid-color="#000000" solid-opacity="1" vector-effect="none"/><path id="path6376" d="m2.8761899 286.94583h.918808 1.462442v.52916h-2.38125c-.151157 0-.264584-.11343-.264584-.26458 0-.15116.113427-.26458.264584-.26458z" fill="#e4d3cf" font-variant-ligatures="normal" font-variant-position="normal" font-variant-caps="normal" font-variant-numeric="normal" font-variant-alternates="normal" font-feature-settings="normal" text-indent="0" text-align="start" text-decoration-line="none" text-decoration-style="solid" text-decoration-color="#000000" text-transform="none" text-orientation="mixed" white-space="normal" shape-padding="0" isolation="auto" mix-blend-mode="normal" solid-color="#000000" solid-opacity="1" vector-effect="none"/><path id="path4342" d="m11.084476 286.94583h1.986957.917257c.151157 0 .264583.11342.264583.26458 0 .15115-.113426.26458-.264583.26458h-2.903699z" fill="#e4d3cf" font-variant-ligatures="normal" font-variant-position="normal" font-variant-caps="normal" font-variant-numeric="normal" font-variant-alternates="normal" font-feature-settings="normal" text-indent="0" text-align="start" text-decoration-line="none" text-decoration-style="solid" text-decoration-color="#000000" text-transform="none" text-orientation="mixed" white-space="normal" shape-padding="0" isolation="auto" mix-blend-mode="normal" solid-color="#000000" solid-opacity="1" vector-effect="none"/><path id="path6384" d="m3.5371321 286.7417c.0281.11968.1349298.20425.2578658.20413h1.462442v3.08404c0 .65503.5355961 1.19063 1.1906251 1.19063.6550289 0 1.1906249-.5356 1.1906249-1.19063v-.74207c0-.37102.290433-.66146.661458-.66146s.661458.29044.661458.66146v1.93683c0 .58403.478439 1.06247 1.0624671 1.06247.584033 0 1.056518-.48077 1.056268-1.06247l-.0021-4.45502 2.014863-2.67477c.05476-.0726.06842-.1682.03617-.25322-.719688-1.89627-2.550721-3.24579-4.6968331-3.24579-2.7732492 0-5.0270843 2.25383-5.0270843 5.02785.00201.37703.04613.75181.1317755 1.11802z" font-variant-ligatures="normal" font-variant-position="normal" font-variant-caps="normal" font-variant-numeric="normal" font-variant-alternates="normal" font-feature-settings="normal" text-indent="0" text-align="start" text-decoration-line="none" text-decoration-style="solid" text-decoration-color="#000000" text-transform="none" text-orientation="mixed" white-space="normal" shape-padding="0" isolation="auto" mix-blend-mode="normal" solid-color="#000000" solid-opacity="1" vector-effect="none"/><path id="path4344" d="m12.568105 283.91242-1.965772 2.60966c-.03454.0459-.05323.10174-.05323.15916l.0021 4.54339c.000132.30237-.227068.5333-.5271.5333-.3000231 0-.5333011-.23327-.5333011-.5333v-1.93683c0-.65503-.535596-1.19062-1.190625-1.19062s-1.1906248.53559-1.1906248 1.19062v.74207c0 .37103-.2904379.66146-.661458.66146-.371025 0-.6614589-.29043-.6614589-.66146v-3.34863c-.0000151-.14613-.118482-.26458-.264613-.26458h-1.4934581c-.04886-.26254-.09257-.52655-.09405-.79375v-.001-.00053c.0008467-2.48654 2.011177-4.49637 4.4979168-4.49637 1.8761151 0 3.4600361 1.15815 4.1356651 2.78742z" fill="#e4d3cf" font-variant-ligatures="normal" font-variant-position="normal" font-variant-caps="normal" font-variant-numeric="normal" font-variant-alternates="normal" font-feature-settings="normal" text-indent="0" text-align="start" text-decoration-line="none" text-decoration-style="solid" text-decoration-color="#000000" text-transform="none" text-orientation="mixed" white-space="normal" shape-padding="0" isolation="auto" mix-blend-mode="normal" solid-color="#000000" solid-opacity="1" vector-effect="none"/><path id="path6388" d="m14.631006 281.74049c-.30041.0471-.583593.20698-.779297.46679l-3.249999 4.31446a.26460982.26460982 0 0 0 .212889.42382l2.394531-.008a.26460982.26460982 0 0 0 .212891-.10742l2.349609-3.21484c.386723-.52869.270874-1.27734-.257811-1.66407-.26435-.19336-.582403-.25809-.882813-.21093z" font-variant-ligatures="normal" font-variant-position="normal" font-variant-caps="normal" font-variant-numeric="normal" font-variant-alternates="normal" font-feature-settings="normal" text-indent="0" text-align="start" text-decoration-line="none" text-decoration-style="solid" text-decoration-color="#000000" text-transform="none" text-orientation="mixed" white-space="normal" shape-padding="0" isolation="auto" mix-blend-mode="normal" solid-color="#000000" solid-opacity="1" vector-effect="none"/><path id="path4346" d="m15.201318 282.37916c.299461.21905.36358.62437.144531.92383l-2.273437 3.10742-1.726563.004 2.929689-3.88867c.225925-.29993.626334-.36552.92578-.14648z" fill="#9e9d89" font-variant-ligatures="normal" font-variant-position="normal" font-variant-caps="normal" font-variant-numeric="normal" font-variant-alternates="normal" font-feature-settings="normal" text-indent="0" text-align="start" text-decoration-line="none" text-decoration-style="solid" text-decoration-color="#000000" text-transform="none" text-orientation="mixed" white-space="normal" shape-padding="0" isolation="auto" mix-blend-mode="normal" solid-color="#000000" solid-opacity="1" vector-effect="none"/><path id="path4350" d="m8.1642089 281.72096a.26460982.26460982 0 0 0 -.261719.26953v1.05664a.26464856.26464856 0 1 0 .529297 0v-1.05664a.26460982.26460982 0 0 0 -.267578-.26953z" font-variant-ligatures="normal" font-variant-position="normal" font-variant-caps="normal" font-variant-numeric="normal" font-variant-alternates="normal" font-feature-settings="normal" text-indent="0" text-align="start" text-decoration-line="none" text-decoration-style="solid" text-decoration-color="#000000" text-transform="none" text-orientation="mixed" white-space="normal" shape-padding="0" isolation="auto" mix-blend-mode="normal" solid-color="#000000" solid-opacity="1" vector-effect="none"/><path id="path4352" d="m10.271631 282.32252a.26460982.26460982 0 0 0 -.216797.40039l.529296.91601a.2651528.2651528 0 1 0 .458986-.26562l-.529298-.91602a.26460982.26460982 0 0 0 -.242187-.13476z" font-variant-ligatures="normal" font-variant-position="normal" font-variant-caps="normal" font-variant-numeric="normal" font-variant-alternates="normal" font-feature-settings="normal" text-indent="0" text-align="start" text-decoration-line="none" text-decoration-style="solid" text-decoration-color="#000000" text-transform="none" text-orientation="mixed" white-space="normal" shape-padding="0" isolation="auto" mix-blend-mode="normal" solid-color="#000000" solid-opacity="1" vector-effect="none"/><path id="path4354" d="m10.656397 284.56275a.26460982.26460982 0 0 0 -.117188.0371l-.9160161.5293a.2646647.2646647 0 1 0 .263672.45898l.9179681-.52929a.26460982.26460982 0 0 0 -.148436-.4961z" font-variant-ligatures="normal" font-variant-position="normal" font-variant-caps="normal" font-variant-numeric="normal" font-variant-alternates="normal" font-feature-settings="normal" text-indent="0" text-align="start" text-decoration-line="none" text-decoration-style="solid" text-decoration-color="#000000" text-transform="none" text-orientation="mixed" white-space="normal" shape-padding="0" isolation="auto" mix-blend-mode="normal" solid-color="#000000" solid-opacity="1" vector-effect="none"/><path id="path4356" d="m5.8380369 282.71119a.26460982.26460982 0 0 0 -.1132819.49414l.9179689.5293a.26460982.26460982 0 1 0 .2636719-.45703l-.9160158-.5293a.26460982.26460982 0 0 0 -.1523431-.0371z" font-variant-ligatures="normal" font-variant-position="normal" font-variant-caps="normal" font-variant-numeric="normal" font-variant-alternates="normal" font-feature-settings="normal" text-indent="0" text-align="start" text-decoration-line="none" text-decoration-style="solid" text-decoration-color="#000000" text-transform="none" text-orientation="mixed" white-space="normal" shape-padding="0" isolation="auto" mix-blend-mode="normal" solid-color="#000000" solid-opacity="1" vector-effect="none"/><path id="path4358" d="m4.7794429 284.82838a.26460982.26460982 0 0 0 -.1132811.49414l.9179682.52929a.26466464.26466464 0 1 0 .2636718-.45898l-.916015-.52734a.26460982.26460982 0 0 0 -.1523439-.0371z" font-variant-ligatures="normal" font-variant-position="normal" font-variant-caps="normal" font-variant-numeric="normal" font-variant-alternates="normal" font-feature-settings="normal" text-indent="0" text-align="start" text-decoration-line="none" text-decoration-style="solid" text-decoration-color="#000000" text-transform="none" text-orientation="mixed" white-space="normal" shape-padding="0" isolation="auto" mix-blend-mode="normal" solid-color="#000000" solid-opacity="1" vector-effect="none"/><path id="path4360" d="m8.0821769 284.56275a.26460982.26460982 0 0 0 -.117187.0371l-.916016.5293a.2646647.2646647 0 1 0 .263672.45898l.916016-.52929a.26460982.26460982 0 0 0 -.146485-.4961z" font-variant-ligatures="normal" font-variant-position="normal" font-variant-caps="normal" font-variant-numeric="normal" font-variant-alternates="normal" font-feature-settings="normal" text-indent="0" text-align="start" text-decoration-line="none" text-decoration-style="solid" text-decoration-color="#000000" text-transform="none" text-orientation="mixed" white-space="normal" shape-padding="0" isolation="auto" mix-blend-mode="normal" solid-color="#000000" solid-opacity="1" vector-effect="none"/><path id="path4362" d="m7.5079589 286.41431a.26460982.26460982 0 0 0 -.142579.0371l-.9179679.5293a.26515248.26515248 0 1 0 .265625.45898l.9160149-.52929a.26460982.26460982 0 0 0 -.121093-.4961z" font-variant-ligatures="normal" font-variant-position="normal" font-variant-caps="normal" font-variant-numeric="normal" font-variant-alternates="normal" font-feature-settings="normal" text-indent="0" text-align="start" text-decoration-line="none" text-decoration-style="solid" text-decoration-color="#000000" text-transform="none" text-orientation="mixed" white-space="normal" shape-padding="0" isolation="auto" mix-blend-mode="normal" solid-color="#000000" solid-opacity="1" vector-effect="none"/><path id="path4364" d="m8.8185049 286.94361a.26460982.26460982 0 0 0 -.111328.4961l.916016.52929a.2646647.2646647 0 1 0 .263672-.45898l-.916016-.5293a.26460982.26460982 0 0 0 -.152344-.0371z" font-variant-ligatures="normal" font-variant-position="normal" font-variant-caps="normal" font-variant-numeric="normal" font-variant-alternates="normal" font-feature-settings="normal" text-indent="0" text-align="start" text-decoration-line="none" text-decoration-style="solid" text-decoration-color="#000000" text-transform="none" text-orientation="mixed" white-space="normal" shape-padding="0" isolation="auto" mix-blend-mode="normal" solid-color="#000000" solid-opacity="1" vector-effect="none"/></g></svg>