<svg id="svg4938" height="512" viewBox="0 0 16.933333 16.933334" width="512" xmlns="http://www.w3.org/2000/svg" xmlns:svg="http://www.w3.org/2000/svg"><g id="layer1" transform="translate(0 -280.067)"><path id="path4652" d="m7.8845835 292.50143a.26460982.26460982 0 0 0 -.26367.26562v2.91016c0 .43516.3578101.79297.79297.79297.43516 0 .79297-.35781.79297-.79297v-2.91016a.26460982.26460982 0 0 0 -.26368-.26562z" font-variant-ligatures="normal" font-variant-position="normal" font-variant-caps="normal" font-variant-numeric="normal" font-variant-alternates="normal" font-feature-settings="normal" text-indent="0" text-align="start" text-decoration-line="none" text-decoration-style="solid" text-decoration-color="#000000" text-transform="none" text-orientation="mixed" white-space="normal" shape-padding="0" isolation="auto" mix-blend-mode="normal" solid-color="#000000" solid-opacity="1" vector-effect="none"/><path id="path4078" d="m8.1482535 293.03072h.5293v2.64649c0 .15115-.1125098.26367-.26367.26367-.1511599 0-.26563-.11252-.26563-.26367z" fill="#edca9d" font-variant-ligatures="normal" font-variant-position="normal" font-variant-caps="normal" font-variant-numeric="normal" font-variant-alternates="normal" font-feature-settings="normal" text-indent="0" text-align="start" text-decoration-line="none" text-decoration-style="solid" text-decoration-color="#000000" text-transform="none" text-orientation="mixed" white-space="normal" shape-padding="0" isolation="auto" mix-blend-mode="normal" solid-color="#000000" solid-opacity="1" vector-effect="none"/><path id="path4656" d="m5.4930036 284.32531v.66405c0 .25616-.1272101.47621-.3214301.60719-.0382.0258-.0803.048-.1245399.0667-.0874.0368-.18321.0574-.28525.0574-.0763 0-.1521301-.0149-.2325499-.0419-.17135-.0575-.34866.0699-.34881.25063v6.30815c0 .43515.35858.79375.79375.79375h6.8791593c.43517 0 .79375-.3586.79375-.79375v-5.11597c.00012-.0932-.0487-.17952-.12867-.22738-.078-.0466-.14949-.10209-.21291-.16588-.0319-.0321-.0616-.0664-.0889-.1018-.13699-.17773-.21808-.3967-.21808-.64131v-.66404c0-.17341-.0349-.34014-.0987-.49144-.0639-.15152-.15662-.28693-.27026-.40049-.22786-.22769-.54511-.36846-.89194-.36846-.69373 0-1.2603894.56667-1.2603894 1.26039v1.66037c0 .10248-.0206.19862-.0574.28577-.0367.0869-.0901.16561-.1565802.23202-.0992.0991-.2263399.16931-.3694898.19844-.0478.01-.0971.015-.1483101.015-.4098499 0-.7312199-.32138-.7312199-.73122v-2.65617c0-.65799-.5130901-1.21376-1.2099701-1.25005-.7431399-.0387-1.3112599.55617-1.3112599 1.25005z" font-variant-ligatures="normal" font-variant-position="normal" font-variant-caps="normal" font-variant-numeric="normal" font-variant-alternates="normal" font-feature-settings="normal" text-indent="0" text-align="start" text-decoration-line="none" text-decoration-style="solid" text-decoration-color="#000000" text-transform="none" text-orientation="mixed" white-space="normal" shape-padding="0" isolation="auto" mix-blend-mode="normal" solid-color="#000000" solid-opacity="1" vector-effect="none"/><path id="path4322" d="m7.4851235 284.32531v2.65617c0 .69372.56666 1.26039 1.2603901 1.26039.0867 0 .1715799-.009.2537299-.0253.24664-.0502.46726-.17231.6382102-.34313.1136398-.11356.2063398-.24897.2702599-.40049.0638-.1513.0987-.31804.0987-.49145v-1.66036c0-.40984.321369-.73122.731219-.73122.20495 0 .38543.0811.5178.21342.0665.0664.11991.14511.15658.23203.0368.0872.0574.18329.0574.28577v.66404c0 .36282.12245.6986.32763.9648.0413.0536.0861.10392.13332.15141.056.0564.12374.0992.18759.14676v4.98936c0 .15116-.11343.26459-.26459.26459h-6.879159c-.1511599 0-.26459-.11343-.26459-.26459v-5.99705c.018701.00096.0331.009.0522.009.17349 0 .3401402-.0352.4909201-.0987.075-.0316.1467599-.0706.2144599-.11627.33537-.22618.5550101-.61185.5550101-1.04541v-.66404c0-.40967.3219-.73123.73171-.73123.4098301 0 .7312099.32139.7312099.73122z" fill="#b67162" font-variant-ligatures="normal" font-variant-position="normal" font-variant-caps="normal" font-variant-numeric="normal" font-variant-alternates="normal" font-feature-settings="normal" text-indent="0" text-align="start" text-decoration-line="none" text-decoration-style="solid" text-decoration-color="#000000" text-transform="none" text-orientation="mixed" white-space="normal" shape-padding="0" isolation="auto" mix-blend-mode="normal" solid-color="#000000" solid-opacity="1" vector-effect="none"/><path id="path4660" d="m4.9741737 280.59582c-.4351602 0-.79375.35859-.79375.79375v4.53978a.26460979.26460979 0 0 0 .1803498.25063c.11953.0401.2542201.0698.4010101.0698.6937201 0 1.2603899-.56667 1.2603899-1.26039v-.66404c0-.40967.3219-.73122.73173-.73122.4098402 0 .73122.32138.73122.73122v2.65617c0 .69372.56666 1.26039 1.2603901 1.26039.6937298 0 1.2609094-.5665 1.2609094-1.26039v-1.66036c0-.40984.32137-.73123.73122-.73123.40984 0 .73174.32156.73174.73123v.66404c0 .58071.31402 1.08703.77721 1.36374a.26460979.26460979 0 0 0 .40049-.22738v-5.73195c0-.43516-.35859-.79375-.79375-.79375z" font-variant-ligatures="normal" font-variant-position="normal" font-variant-caps="normal" font-variant-numeric="normal" font-variant-alternates="normal" font-feature-settings="normal" text-indent="0" text-align="start" text-decoration-line="none" text-decoration-style="solid" text-decoration-color="#000000" text-transform="none" text-orientation="mixed" white-space="normal" shape-padding="0" isolation="auto" mix-blend-mode="normal" solid-color="#000000" solid-opacity="1" vector-effect="none"/><path id="path4428" d="m11.853333 281.12499c.15115 0 .26459.11343.26459.26458v5.03846c-.0647-.13619-.11938-.27982-.11938-.44287v-.66404c0-.69389-.56718-1.26039-1.2609-1.26039-.69373 0-1.2603895.56667-1.2603895 1.26039v1.66036c0 .40967-.3219001.73122-.7317399.73122-.4098502 0-.73122-.32138-.73122-.73122v-2.65617c0-.69372-.56666-1.26039-1.2603901-1.26039-.69372 0-1.2608999.56651-1.2608999 1.26039v.66405c0 .40983-.3213899.73122-.73122.73122-.0171 0-.0433-.005-.0522-.009v-4.3217c0-.15115.1134401-.26459.2645902-.26459z" fill="#e4d3cf" font-variant-ligatures="normal" font-variant-position="normal" font-variant-caps="normal" font-variant-numeric="normal" font-variant-alternates="normal" font-feature-settings="normal" text-indent="0" text-align="start" text-decoration-line="none" text-decoration-style="solid" text-decoration-color="#000000" text-transform="none" text-orientation="mixed" white-space="normal" shape-padding="0" isolation="auto" mix-blend-mode="normal" solid-color="#000000" solid-opacity="1" vector-effect="none"/></g></svg>