<?xml version="1.0" encoding="iso-8859-1"?>
<!-- Generator: Adobe Illustrator 19.0.0, SVG Export Plug-In . SVG Version: 6.00 Build 0)  -->
<svg xmlns="http://www.w3.org/2000/svg" xmlns:xlink="http://www.w3.org/1999/xlink" version="1.1" id="Layer_1" x="0px" y="0px" viewBox="0 0 512 512" style="enable-background:new 0 0 512 512;" xml:space="preserve">
<polygon style="fill:#F57847;" points="415.279,233.945 256,501.551 89.325,221.518 "/>
<polygon style="fill:#FFA30C;" points="128.61,287.524 383.389,287.524 415.279,233.945 89.325,221.518 "/>
<path style="fill:#EFEEEE;" d="M387.52,121.647c30.665,3.558,54.467,29.617,54.467,61.235c0,34.048-27.601,61.649-61.649,61.649  H275.86L387.52,121.647z"/>
<path style="fill:#FFFFFF;" d="M270.303,244.506c64.633,0,117.029-52.395,117.029-117.029S334.936,10.449,270.303,10.449  c-55.77,0-102.422,39.013-114.171,91.235c-4.536-0.894-9.222-1.374-14.021-1.374c-39.819,0-72.098,32.279-72.098,72.098  s32.279,72.098,72.098,72.098H270.303z"/>
<path d="M270.704,210.024c-0.014,0-0.027,0-0.041,0h-0.267c-5.771-0.022-10.431-4.718-10.409-10.489  c0.022-5.757,4.697-10.409,10.448-10.409c0.014,0,0.027,0,0.041,0l0.268,0.001c5.771,0.022,10.431,4.718,10.409,10.489  C281.13,205.373,276.455,210.024,270.704,210.024z"/>
<path d="M303.239,202.084c-3.791,0-7.448-2.069-9.301-5.673c-2.639-5.131-0.619-11.431,4.514-14.071  c20.663-10.627,33.499-31.649,33.499-54.863c0-5.771,4.678-10.449,10.449-10.449c5.771,0,10.449,4.678,10.449,10.449  c0,31.08-17.181,59.225-44.841,73.448C306.481,201.712,304.848,202.084,303.239,202.084z"/>
<path d="M452.437,182.882c0-33.8-23.351-62.618-55.515-70.165C389.582,49.355,335.601,0,270.303,0  c-29.114,0-57.585,10.073-80.17,28.364c-19.742,15.989-34.325,37.651-41.727,61.74c-2.098-0.161-4.2-0.241-6.296-0.241  c-45.517,0-82.547,37.03-82.547,82.547c0,21.193,8.034,40.541,21.209,55.173L247.02,506.897c1.885,3.164,5.297,5.103,8.98,5.103  c3.683,0,7.095-1.939,8.979-5.104l158.483-266.267C441.04,227.468,452.437,206.481,452.437,182.882z M431.539,182.882  c0,28.232-22.968,51.2-51.2,51.2h-40.22c32.826-21.57,55.14-57.874,57.457-99.432C417.551,141.759,431.539,160.83,431.539,182.882z   M80.461,172.408c0-33.994,27.655-61.649,61.649-61.649c4.003,0,8.039,0.396,12.001,1.177c5.553,1.097,10.972-2.434,12.215-7.958  c10.829-48.141,54.558-83.08,103.977-83.08c58.768,0,106.58,47.811,106.58,106.58s-47.811,106.58-106.58,106.58H142.11  C108.118,234.057,80.461,206.402,80.461,172.408z M147.507,298.841h51.135l-32.055,32.055L147.507,298.841z M177.614,349.424  l8.487-8.487l20.196,20.196l-13.611,13.611L177.614,349.424z M256.131,340.854l20.279,20.279l-20.28,20.28l-20.279-20.28  L256.131,340.854z M243.673,298.841h24.916l-12.457,12.457L243.673,298.841z M270.909,326.076l20.196-20.196l20.279,20.279  l-20.196,20.196L270.909,326.076z M221.073,346.356l-20.196-20.196l20.28-20.28l20.196,20.196L221.073,346.356z M203.712,393.272  l17.361-17.361l20.279,20.28l-22.507,22.507L203.712,393.272z M256,481.121l-26.127-43.895l26.257-26.257l26.093,26.093L256,481.121  z M293.252,418.535l-22.343-22.343l20.28-20.28l17.197,17.197L293.252,418.535z M319.413,374.581l-13.447-13.447l20.196-20.196  l8.323,8.323L319.413,374.581z M345.511,330.733l-31.892-31.892h50.874L345.511,330.733z M376.931,277.943H135.069l-15.572-26.163  c7.192,2.052,14.773,3.175,22.615,3.175l238.227,0.025c3.649,0,7.234-0.278,10.738-0.804L376.931,277.943z"/>
<g>
</g>
<g>
</g>
<g>
</g>
<g>
</g>
<g>
</g>
<g>
</g>
<g>
</g>
<g>
</g>
<g>
</g>
<g>
</g>
<g>
</g>
<g>
</g>
<g>
</g>
<g>
</g>
<g>
</g>
</svg>
