<svg id="svg4938" height="512" viewBox="0 0 16.933333 16.933334" width="512" xmlns="http://www.w3.org/2000/svg" xmlns:svg="http://www.w3.org/2000/svg"><g id="layer1" transform="translate(0 -280.067)"><path id="path5842" d="m7.9223302 293.03034a.26460982.26460982 0 0 0 -.265625.26562v2.38086c.000014.43515.35976.79492.7949221.79492.435161 0 .7929679-.35975.7929679-.79492v-2.38086a.26460982.26460982 0 0 0 -.2636719-.26562z" font-variant-ligatures="normal" font-variant-position="normal" font-variant-caps="normal" font-variant-numeric="normal" font-variant-alternates="normal" font-feature-settings="normal" text-indent="0" text-align="start" text-decoration-line="none" text-decoration-style="solid" text-decoration-color="#000000" text-transform="none" text-orientation="mixed" white-space="normal" shape-padding="0" isolation="auto" mix-blend-mode="normal" solid-color="#000000" solid-opacity="1" vector-effect="none"/><path id="path4106" d="m8.1860012 293.55964h.5292971v2.11718c0 .15116-.112513.26563-.263671.26563-.1511591 0-.26562-.11446-.2656261-.26563z" fill="#ecc99c" font-variant-ligatures="normal" font-variant-position="normal" font-variant-caps="normal" font-variant-numeric="normal" font-variant-alternates="normal" font-feature-settings="normal" text-indent="0" text-align="start" text-decoration-line="none" text-decoration-style="solid" text-decoration-color="#000000" text-transform="none" text-orientation="mixed" white-space="normal" shape-padding="0" isolation="auto" mix-blend-mode="normal" solid-color="#000000" solid-opacity="1" vector-effect="none"/><path id="path5846" d="m8.4516273 280.59674c-1.2038431 0-2.309934.20655-3.1406259.75-.8306911.54345-1.3574252 1.44582-1.357421 2.68946v5.55469a.26460982.26460982 0 0 0 .2636708.26562h8.4667968a.26460982.26460982 0 0 0 .265625-.26562v-5.55469c0-1.24364-.526731-2.14601-1.357422-2.68946-.83069-.54345-1.9367816-.75-3.1406237-.75z" font-variant-ligatures="normal" font-variant-position="normal" font-variant-caps="normal" font-variant-numeric="normal" font-variant-alternates="normal" font-feature-settings="normal" text-indent="0" text-align="start" text-decoration-line="none" text-decoration-style="solid" text-decoration-color="#000000" text-transform="none" text-orientation="mixed" white-space="normal" shape-padding="0" isolation="auto" mix-blend-mode="normal" solid-color="#000000" solid-opacity="1" vector-effect="none"/><path id="path4108" d="m8.4516273 281.12409c1.1414371 0 2.1518927.20828 2.8515617.66601.699669.45774 1.117188 1.14447 1.117188 2.2461v5.29101h-7.9374997v-5.29101c-.000003-1.10163.417517-1.78836 1.1171869-2.2461.69967-.45773 1.7101252-.66601 2.8515631-.66601z" fill="#e2bcb7" font-variant-ligatures="normal" font-variant-position="normal" font-variant-caps="normal" font-variant-numeric="normal" font-variant-alternates="normal" font-feature-settings="normal" text-indent="0" text-align="start" text-decoration-line="none" text-decoration-style="solid" text-decoration-color="#000000" text-transform="none" text-orientation="mixed" white-space="normal" shape-padding="0" isolation="auto" mix-blend-mode="normal" solid-color="#000000" solid-opacity="1" vector-effect="none"/><path id="path5850" d="m8.4516273 280.59674c-1.2038431 0-2.3118731.20656-3.1425791.75-.8307059.54345-1.35553 1.44582-1.3554678 2.68946v1.85156c-.0000042.58174.4768538 1.05859 1.0585929 1.05859.581741 0 1.058594-.47685 1.058594-1.05859v-.5293c0-.29773.2296091-.52929.5273439-.52929.2977351 0 .5292971.23156.5292971.52929-.0000021.88195 0 1.23525 0 2.11719 0 .58174.476853 1.05859 1.0585929 1.05859s1.058594-.47685 1.058594-1.05859v-1.32422c.000001-.29773.231562-.52929.5292972-.52929.2977346 0 .5292966.23156.5292966.52929v.5293c0 .72832.593947 1.32422 1.322266 1.32422.728318 0 1.324217-.5959 1.324218-1.32422 0-.88151 0-1.76302 0-2.64453 0-1.24364-.526731-2.14601-1.357422-2.68946-.83069-.54345-1.9367816-.75-3.1406237-.75z" font-variant-ligatures="normal" font-variant-position="normal" font-variant-caps="normal" font-variant-numeric="normal" font-variant-alternates="normal" font-feature-settings="normal" text-indent="0" text-align="start" text-decoration-line="none" text-decoration-style="solid" text-decoration-color="#000000" text-transform="none" text-orientation="mixed" white-space="normal" shape-padding="0" isolation="auto" mix-blend-mode="normal" solid-color="#000000" solid-opacity="1" vector-effect="none"/><path id="path4110" d="m8.4516273 281.12409c1.1414371 0 2.1518927.20828 2.8515617.66601.699669.45774 1.117188 1.14447 1.117188 2.2461v2.64453c-.000001.44431-.350609.79492-.794922.79492-.444314 0-.792969-.35061-.792969-.79492v-.5293c0-.58174-.476853-1.05859-1.0585936-1.05859-.5817411 0-1.0585922.47685-1.0585941 1.05859v1.32422c0 .29773-.231562.5293-.5292971.5293s-.529296-.23156-.529296-.5293c0-.88194-.0000019-1.23524 0-2.11719 0-.58174-.476853-1.05859-1.058594-1.05859-.5817409 0-1.056641.47685-1.056641 1.05859v.5293c0 .29774-.231561.5293-.5292969.5293-.297734 0-.529299-.23157-.529296-.5293 0-.61719 0-1.23437 0-1.85156-.0000551-1.10163.417504-1.78836 1.1171869-2.2461.699683-.45773 1.7101252-.66601 2.8515631-.66601z" fill="#b67162" font-variant-ligatures="normal" font-variant-position="normal" font-variant-caps="normal" font-variant-numeric="normal" font-variant-alternates="normal" font-feature-settings="normal" text-indent="0" text-align="start" text-decoration-line="none" text-decoration-style="solid" text-decoration-color="#000000" text-transform="none" text-orientation="mixed" white-space="normal" shape-padding="0" isolation="auto" mix-blend-mode="normal" solid-color="#000000" solid-opacity="1" vector-effect="none"/><path id="path5854" d="m4.2172512 289.32721a.26460982.26460982 0 0 0 -.2636708.26368v3.17578c0 .43516.3578119.79297.7929679.79297h7.4082027c.435162 0 .7949-.35783.794922-.79297v-3.17578a.26460982.26460982 0 0 0 -.265625-.26368z" font-variant-ligatures="normal" font-variant-position="normal" font-variant-caps="normal" font-variant-numeric="normal" font-variant-alternates="normal" font-feature-settings="normal" text-indent="0" text-align="start" text-decoration-line="none" text-decoration-style="solid" text-decoration-color="#000000" text-transform="none" text-orientation="mixed" white-space="normal" shape-padding="0" isolation="auto" mix-blend-mode="normal" solid-color="#000000" solid-opacity="1" vector-effect="none"/><path id="path4112" d="m4.4828773 289.85651h7.9374997v2.91016c-.000008.15117-.114467.26367-.265626.26367h-7.4082027c-.151143 0-.263671-.11252-.263671-.26367z" fill="#9e9d89" font-variant-ligatures="normal" font-variant-position="normal" font-variant-caps="normal" font-variant-numeric="normal" font-variant-alternates="normal" font-feature-settings="normal" text-indent="0" text-align="start" text-decoration-line="none" text-decoration-style="solid" text-decoration-color="#000000" text-transform="none" text-orientation="mixed" white-space="normal" shape-padding="0" isolation="auto" mix-blend-mode="normal" solid-color="#000000" solid-opacity="1" vector-effect="none"/></g></svg>