<svg id="svg4938" height="512" viewBox="0 0 16.933333 16.933334" width="512" xmlns="http://www.w3.org/2000/svg" xmlns:svg="http://www.w3.org/2000/svg"><g id="layer1" transform="translate(0 -280.067)"><path id="path5574" d="m8.4426816 280.59635c-1.3021105 0-2.3739744.41958-3.1093753 1.16992-.7354012.75033-1.1250001 1.81717-1.1250001 3.0625v6.34961c0 .92486.7276391 1.58789 1.587891 1.58789h5.2910158c.874899 0 1.587891-.71299 1.587891-1.58789v-6.34961c0-1.24533-.389599-2.31217-1.125-3.0625-.735401-.75034-1.8053134-1.16992-3.1074224-1.16992z" font-variant-ligatures="normal" font-variant-position="normal" font-variant-caps="normal" font-variant-numeric="normal" font-variant-alternates="normal" font-feature-settings="normal" text-indent="0" text-align="start" text-decoration-line="none" text-decoration-style="solid" text-decoration-color="#000000" text-transform="none" text-orientation="mixed" white-space="normal" shape-padding="0" isolation="auto" mix-blend-mode="normal" solid-color="#000000" solid-opacity="1" vector-effect="none"/><path id="path4226" d="m8.4426816 281.12564c1.189737 0 2.1025034.373 2.7285164 1.01172.626012.63873.974609 1.55548.974609 2.69141v6.34961c0 .59089-.4677 1.05859-1.058594 1.05859h-5.2910158c-.6055389 0-1.0585939-.39596-1.0585939-1.05859v-6.34961c0-1.13593.348597-2.05268.9746088-2.69141.6260132-.63872 1.5407331-1.01172 2.7304695-1.01172z" fill="#b67162" font-variant-ligatures="normal" font-variant-position="normal" font-variant-caps="normal" font-variant-numeric="normal" font-variant-alternates="normal" font-feature-settings="normal" text-indent="0" text-align="start" text-decoration-line="none" text-decoration-style="solid" text-decoration-color="#000000" text-transform="none" text-orientation="mixed" white-space="normal" shape-padding="0" isolation="auto" mix-blend-mode="normal" solid-color="#000000" solid-opacity="1" vector-effect="none"/><path id="path5578" d="m7.9128146 292.23697a.26460982.26460982 0 0 0 -.2636725.24024l-.2675779 2.9121c-.03067.33482.09367.63145.3027349.81641.2090675.18497.4829255.26563.7558595.26563.582454 0 1.111428-.47473 1.056641-1.08204l-.263672-2.91015a.26460982.26460982 0 0 0 -.263672-.24219z" font-variant-ligatures="normal" font-variant-position="normal" font-variant-caps="normal" font-variant-numeric="normal" font-variant-alternates="normal" font-feature-settings="normal" text-indent="0" text-align="start" text-decoration-line="none" text-decoration-style="solid" text-decoration-color="#000000" text-transform="none" text-orientation="mixed" white-space="normal" shape-padding="0" isolation="auto" mix-blend-mode="normal" solid-color="#000000" solid-opacity="1" vector-effect="none"/><path id="path4228" d="m8.1536196 292.76627h.576172l.240234 2.66992c.02423.26861-.232271.50586-.529298.50586-.166805 0-.316259-.0532-.406249-.13281-.08999-.0796-.142802-.1787-.125001-.37305z" fill="#edca9d" fill-opacity=".996" font-variant-ligatures="normal" font-variant-position="normal" font-variant-caps="normal" font-variant-numeric="normal" font-variant-alternates="normal" font-feature-settings="normal" text-indent="0" text-align="start" text-decoration-line="none" text-decoration-style="solid" text-decoration-color="#000000" text-transform="none" text-orientation="mixed" white-space="normal" shape-padding="0" isolation="auto" mix-blend-mode="normal" solid-color="#000000" solid-opacity="1" vector-effect="none"/><path id="path4292" d="m7.8020566 281.84244c-1.1198973.43558-1.9053664 1.32016-2.2441415 2.47656-.1098389.34442.41486.49779.5078132.14844.2982748-1.01816.95221-1.75143 1.9277343-2.13086.28438-.10153.204136-.52359-.09766-.51367-.03218.00075-.06395.007-.09375.0195z" font-variant-ligatures="normal" font-variant-position="normal" font-variant-caps="normal" font-variant-numeric="normal" font-variant-alternates="normal" font-feature-settings="normal" text-indent="0" text-align="start" text-decoration-line="none" text-decoration-style="solid" text-decoration-color="#000000" text-transform="none" text-orientation="mixed" white-space="normal" shape-padding="0" isolation="auto" mix-blend-mode="normal" solid-color="#000000" solid-opacity="1" vector-effect="none"/></g></svg>