<svg id="svg4938" height="512" viewBox="0 0 16.933333 16.933334" width="512" xmlns="http://www.w3.org/2000/svg" xmlns:svg="http://www.w3.org/2000/svg"><g id="layer1" transform="translate(0 -280.067)"><path id="path4672" d="m7.8845835 292.76587a.26460982.26460982 0 0 0 -.26367.26562v2.64453c.0001601.43505.3578101.79297.79297.79297.43516 0 .7947599-.35792.79492-.79297l-.00201-2.64453a.26460982.26460982 0 0 0 -.2636801-.26562z" font-variant-ligatures="normal" font-variant-position="normal" font-variant-caps="normal" font-variant-numeric="normal" font-variant-alternates="normal" font-feature-settings="normal" text-indent="0" text-align="start" text-decoration-line="none" text-decoration-style="solid" text-decoration-color="#000000" text-transform="none" text-orientation="mixed" white-space="normal" shape-padding="0" isolation="auto" mix-blend-mode="normal" solid-color="#000000" solid-opacity="1" vector-effect="none"/><path id="path4314" d="m8.1482535 293.29516h.5293l.00201 2.38086c-.00005.15128-.11446.26368-.2656199.26368s-.26362-.1124-.2636801-.26368z" fill="#edca9d" font-variant-ligatures="normal" font-variant-position="normal" font-variant-caps="normal" font-variant-numeric="normal" font-variant-alternates="normal" font-feature-settings="normal" text-indent="0" text-align="start" text-decoration-line="none" text-decoration-style="solid" text-decoration-color="#000000" text-transform="none" text-orientation="mixed" white-space="normal" shape-padding="0" isolation="auto" mix-blend-mode="normal" solid-color="#000000" solid-opacity="1" vector-effect="none"/><path id="path4676" d="m5.7673935 280.59595c-.8748999 0-1.58789.71299-1.58789 1.58789v9.52539c0 .8749.7129901 1.58593 1.58789 1.58593h5.2929695c.8749 0 1.58594-.71103 1.58594-1.58593v-9.52539c0-.8749-.71104-1.58789-1.58594-1.58789z" font-variant-ligatures="normal" font-variant-position="normal" font-variant-caps="normal" font-variant-numeric="normal" font-variant-alternates="normal" font-feature-settings="normal" text-indent="0" text-align="start" text-decoration-line="none" text-decoration-style="solid" text-decoration-color="#000000" text-transform="none" text-orientation="mixed" white-space="normal" shape-padding="0" isolation="auto" mix-blend-mode="normal" solid-color="#000000" solid-opacity="1" vector-effect="none"/><path id="rect4316" d="m5.7673935 281.12524h5.2929695c.59089 0 1.05664.4677 1.05664 1.0586v9.52539c0 .59089-.46575 1.05664-1.05664 1.05664h-5.2929695c-.59089 0-1.05859-.46575-1.05859-1.05664v-9.52539c0-.5909.4677-1.0586 1.05859-1.0586z" fill="#b67162" font-variant-ligatures="normal" font-variant-position="normal" font-variant-caps="normal" font-variant-numeric="normal" font-variant-alternates="normal" font-feature-settings="normal" text-indent="0" text-align="start" text-decoration-line="none" text-decoration-style="solid" text-decoration-color="#000000" text-transform="none" text-orientation="mixed" white-space="normal" shape-padding="0" isolation="auto" mix-blend-mode="normal" solid-color="#000000" solid-opacity="1" vector-effect="none"/><path id="path4680" d="m6.8259935 282.58032c-.4351499 0-.79297.35782-.79297.79297v7.14453c0 .43515.3578201.79297.79297.79297.4351502 0 .79492-.35782.79492-.79297v-7.14453c0-.43515-.3597698-.79297-.79492-.79297z" font-variant-ligatures="normal" font-variant-position="normal" font-variant-caps="normal" font-variant-numeric="normal" font-variant-alternates="normal" font-feature-settings="normal" text-indent="0" text-align="start" text-decoration-line="none" text-decoration-style="solid" text-decoration-color="#000000" text-transform="none" text-orientation="mixed" white-space="normal" shape-padding="0" isolation="auto" mix-blend-mode="normal" solid-color="#000000" solid-opacity="1" vector-effect="none"/><path id="rect4318" d="m6.8259935 283.10962c.15112 0 .26562.1125.26562.26367v7.14453c0 .15116-.1145.26367-.26562.26367-.15113 0-.26368-.11251-.26368-.26367v-7.14453c0-.15117.11255-.26367.26368-.26367z" fill="#e2bcb7" font-variant-ligatures="normal" font-variant-position="normal" font-variant-caps="normal" font-variant-numeric="normal" font-variant-alternates="normal" font-feature-settings="normal" text-indent="0" text-align="start" text-decoration-line="none" text-decoration-style="solid" text-decoration-color="#000000" text-transform="none" text-orientation="mixed" white-space="normal" shape-padding="0" isolation="auto" mix-blend-mode="normal" solid-color="#000000" solid-opacity="1" vector-effect="none"/><path id="path4684" d="m10.001773 282.58032c-.4351497 0-.7949195.35782-.7949195.79297v7.14453c0 .43515.3597698.79297.7949195.79297.43515 0 .79297-.35782.79297-.79297v-7.14453c0-.43515-.35782-.79297-.79297-.79297z" font-variant-ligatures="normal" font-variant-position="normal" font-variant-caps="normal" font-variant-numeric="normal" font-variant-alternates="normal" font-feature-settings="normal" text-indent="0" text-align="start" text-decoration-line="none" text-decoration-style="solid" text-decoration-color="#000000" text-transform="none" text-orientation="mixed" white-space="normal" shape-padding="0" isolation="auto" mix-blend-mode="normal" solid-color="#000000" solid-opacity="1" vector-effect="none"/><path id="rect4320" d="m10.001773 283.10962c.15112 0 .26367.1125.26367.26367v7.14453c0 .15116-.11255.26367-.26367.26367-.1511297 0-.2656297-.11251-.2656297-.26367v-7.14453c0-.15117.1145-.26367.2656297-.26367z" fill="#e2bcb7" font-variant-ligatures="normal" font-variant-position="normal" font-variant-caps="normal" font-variant-numeric="normal" font-variant-alternates="normal" font-feature-settings="normal" text-indent="0" text-align="start" text-decoration-line="none" text-decoration-style="solid" text-decoration-color="#000000" text-transform="none" text-orientation="mixed" white-space="normal" shape-padding="0" isolation="auto" mix-blend-mode="normal" solid-color="#000000" solid-opacity="1" vector-effect="none"/></g></svg>