<svg id="svg4938" height="512" viewBox="0 0 16.933333 16.933334" width="512" xmlns="http://www.w3.org/2000/svg" xmlns:svg="http://www.w3.org/2000/svg"><g id="layer1" transform="translate(0 -280.067)"><path id="path8391" d="m3.92788 287.74009h2.917969c.146934.00055.2661902-.1187.265625-.26563l.00201-1.05664c.0005557-.14693-.1186907-.26619-.265625-.26562h-2.3378999l-.5820791-.00001c-.4320209 0-.7871089.35509-.7871089.79297s.355088.79493.7871089.79493z" font-variant-ligatures="normal" font-variant-position="normal" font-variant-caps="normal" font-variant-numeric="normal" font-variant-alternates="normal" font-feature-settings="normal" text-indent="0" text-align="start" text-decoration-line="none" text-decoration-style="solid" text-decoration-color="#000000" text-transform="none" text-orientation="mixed" white-space="normal" shape-padding="0" isolation="auto" mix-blend-mode="normal" solid-color="#000000" solid-opacity="1" vector-effect="none"/><path id="path8385" d="m6.58413 286.68149-.00201.5293h-2.654286c-.147819 0-.2578121-.11195-.2578121-.26563 0-.15367.1099931-.26367.2578359-.26367z" fill="#edca9d" fill-opacity=".996" font-variant-ligatures="normal" font-variant-position="normal" font-variant-caps="normal" font-variant-numeric="normal" font-variant-alternates="normal" font-feature-settings="normal" text-indent="0" text-align="start" text-decoration-line="none" text-decoration-style="solid" text-decoration-color="#000000" text-transform="none" text-orientation="mixed" white-space="normal" shape-padding="0" isolation="auto" mix-blend-mode="normal" solid-color="#000000" solid-opacity="1" vector-effect="none"/><path id="path8397" d="m8.4376933 296.4784c.983158 0 1.9154127-.62857 2.0957027-1.8125l.65039-4.27539c.02735-.17868-.128523-.33157-.306641-.30078-.109021.0193-.218836.0312-.328124.0312h-4.232422c-.110109 0-.2195658-.0252-.3564689-.0332-.185112-.0108-.3044579.14548-.280297.30272l.6474849 4.28029c.1761091 1.16419 1.1220001 1.80763 2.1103753 1.80763z" font-variant-ligatures="normal" font-variant-position="normal" font-variant-caps="normal" font-variant-numeric="normal" font-variant-alternates="normal" font-feature-settings="normal" text-indent="0" text-align="start" text-decoration-line="none" text-decoration-style="solid" text-decoration-color="#000000" text-transform="none" text-orientation="mixed" white-space="normal" shape-padding="0" isolation="auto" mix-blend-mode="normal" solid-color="#000000" solid-opacity="1" vector-effect="none"/><path id="rect1797-1" d="m6.254052 290.64438c.021389.00064.04086.006.0625.006h4.232421c.02103 0 .03976-.005.06055-.006l-.599609 3.94141c-.1457577.95715-.7964697 1.36328-1.5722667 1.36328-.7700193 0-1.4475283-.4295-1.5898434-1.37209z" fill="#b67162" font-variant-ligatures="normal" font-variant-position="normal" font-variant-caps="normal" font-variant-numeric="normal" font-variant-alternates="normal" font-feature-settings="normal" text-indent="0" text-align="start" text-decoration-line="none" text-decoration-style="solid" text-decoration-color="#000000" text-transform="none" text-orientation="mixed" white-space="normal" shape-padding="0" isolation="auto" mix-blend-mode="normal" solid-color="#000000" solid-opacity="1" vector-effect="none"/><path id="path8401" d="m7.9024901 286.68149c0 .57326-.0000051 1.14549 0 1.71875.0000021.22445-.172035.39844-.396485.39844-.2238979 0-.395636-.17284-.396484-.39749l.00201-.92482c.0005557-.14694-.118691-.26619-.265625-.26563h-2.646494c-.1461701-.00055-.2651069.1175-.265625.26367v.79492c0 1.31464 1.0681761 2.38086 2.3828119 2.38086h4.232422c1.314636 0 2.380859-1.06622 2.380859-2.38086v-.79492c-.000503-.14541-.118263-.26315-.263672-.26367h-1.851562c-.146934-.00055-.266191.11869-.265625.26563.000793.22332-.172035.39453-.396484.39453-.2244457 0-.3964897-.17205-.3964847-.39649.000008-.26459.000002-.52839 0-.79297 0-.50845-.417332-.92578-.925805-.92575-.508473.00002-.9277572.41735-.9277572.9258z" font-variant-ligatures="normal" font-variant-position="normal" font-variant-caps="normal" font-variant-numeric="normal" font-variant-alternates="normal" font-feature-settings="normal" text-indent="0" text-align="start" text-decoration-line="none" text-decoration-style="solid" text-decoration-color="#000000" text-transform="none" text-orientation="mixed" white-space="normal" shape-padding="0" isolation="auto" mix-blend-mode="normal" solid-color="#000000" solid-opacity="1" vector-effect="none"/><path id="rect1800-5" d="m9.2267093 286.68149c.000002.26458.000007.5284 0 .79297-.000012.50846.417331.92578.9257797.92578.40536 0 .692561-.29436.816407-.66015h1.43164v.52929c0 1.03063-.820931 1.85156-1.851563 1.85156h-4.2324208c-1.030631 0-1.8535151-.82093-1.8535151-1.85156v-.52929h2.1191401l-.00201.66015c.000004.50845.41733.92774.9257811.92774.5084508 0 .925786-.41929.925782-.92774-.000005-.57326 0-1.14548 0-1.71875 0-.22444.173993-.39648.398461-.39648.224466 0 .396508.17204.396508.39648z" fill="#e2bcb7" font-variant-ligatures="normal" font-variant-position="normal" font-variant-caps="normal" font-variant-numeric="normal" font-variant-alternates="normal" font-feature-settings="normal" text-indent="0" text-align="start" text-decoration-line="none" text-decoration-style="solid" text-decoration-color="#000000" text-transform="none" text-orientation="mixed" white-space="normal" shape-padding="0" isolation="auto" mix-blend-mode="normal" solid-color="#000000" solid-opacity="1" vector-effect="none"/><path id="path8405" d="m4.259912 286.50576c.03765.10566.1378331.17609.25.17578h2.074218l-.0039 1.71875c.000004.50845.4173281.92773.925781.92773.508453 0 .9257843-.41928.9257823-.92773-.000006-.57326 0-1.14549 0-1.71875 0-.22445.173991-.39649.398437-.39649.224442 0 .396485.17204.396485.39649.000001.26458.000007.52839 0 .79297-.000012.50846.417329.92578.9257807.92578.508454 0 .927772-.41609.92578-.92578l-.002-.79297h1.279297c.111451-.0005.210635-.0708.248047-.17578.169732-.47393.257819-.97316.259765-1.47757.000062-2.44491-1.987712-4.43073-4.4316077-4.43068-2.4438984-.00005-4.4297183 1.98577-4.4296683 4.43068.00169.50427.08845 1.00354.2578129 1.47757z" font-variant-ligatures="normal" font-variant-position="normal" font-variant-caps="normal" font-variant-numeric="normal" font-variant-alternates="normal" font-feature-settings="normal" text-indent="0" text-align="start" text-decoration-line="none" text-decoration-style="solid" text-decoration-color="#000000" text-transform="none" text-orientation="mixed" white-space="normal" shape-padding="0" isolation="auto" mix-blend-mode="normal" solid-color="#000000" solid-opacity="1" vector-effect="none"/><path id="path1807-4" d="m7.111515 286.41777c.0005556-.14617-.1175009-.26511-.2636718-.26562h-2.1210932c-.1120018-.36587-.1940168-.74164-.1953128-1.125-.0000442-2.15793 1.7424639-3.90044 3.9003711-3.90037 2.1579047-.00002 3.9023657 1.74249 3.9023207 3.90041-.0015.38336-.08495.75915-.197264 1.125h-1.328125c-.146171.00053-.264235.11946-.263673.26563l.0039 1.05859c.000873.2232-.172038.39453-.396484.39453-.2244437 0-.3964887-.17204-.3964837-.39648.000008-.26459.000002-.52839 0-.79297 0-.50845-.417333-.92578-.925781-.92578-.50845 0-.9277343.41733-.9277343.92578 0 .57327-.0000058 1.14549 0 1.71875.000001.22445-.1720369.39844-.396485.39844-.223896 0-.395636-.17285-.396484-.39749z" fill="#e4d3cf" font-variant-ligatures="normal" font-variant-position="normal" font-variant-caps="normal" font-variant-numeric="normal" font-variant-alternates="normal" font-feature-settings="normal" text-indent="0" text-align="start" text-decoration-line="none" text-decoration-style="solid" text-decoration-color="#000000" text-transform="none" text-orientation="mixed" white-space="normal" shape-padding="0" isolation="auto" mix-blend-mode="normal" solid-color="#000000" solid-opacity="1" vector-effect="none"/><path id="path1837-8" d="m8.4278803 281.72055a.26460982.26460982 0 0 0 -.2597652.26954v1.05859a.2646486.2646486 0 1 0 .5292972 0v-1.05859a.26460982.26460982 0 0 0 -.269532-.26954z" font-variant-ligatures="normal" font-variant-position="normal" font-variant-caps="normal" font-variant-numeric="normal" font-variant-alternates="normal" font-feature-settings="normal" text-indent="0" text-align="start" text-decoration-line="none" text-decoration-style="solid" text-decoration-color="#000000" text-transform="none" text-orientation="mixed" white-space="normal" shape-padding="0" isolation="auto" mix-blend-mode="normal" solid-color="#000000" solid-opacity="1" vector-effect="none"/><path id="path1839-1" d="m9.7423333 281.98618a.26460982.26460982 0 0 0 -.216796.40039l.5292957.91602a.26466651.26466651 0 1 0 .458984-.26368l-.5292957-.91797a.26460982.26460982 0 0 0 -.242188-.13476z" font-variant-ligatures="normal" font-variant-position="normal" font-variant-caps="normal" font-variant-numeric="normal" font-variant-alternates="normal" font-feature-settings="normal" text-indent="0" text-align="start" text-decoration-line="none" text-decoration-style="solid" text-decoration-color="#000000" text-transform="none" text-orientation="mixed" white-space="normal" shape-padding="0" isolation="auto" mix-blend-mode="normal" solid-color="#000000" solid-opacity="1" vector-effect="none"/><path id="path1841-2" d="m11.062646 284.10532a.26460982.26460982 0 0 0 -.117188.0371l-.916016.5293a.26460982.26460982 0 1 0 .263672.45703l.917968-.5293a.26460982.26460982 0 0 0 -.148436-.49414z" font-variant-ligatures="normal" font-variant-position="normal" font-variant-caps="normal" font-variant-numeric="normal" font-variant-alternates="normal" font-feature-settings="normal" text-indent="0" text-align="start" text-decoration-line="none" text-decoration-style="solid" text-decoration-color="#000000" text-transform="none" text-orientation="mixed" white-space="normal" shape-padding="0" isolation="auto" mix-blend-mode="normal" solid-color="#000000" solid-opacity="1" vector-effect="none"/><path id="path1843-5" d="m6.173974 282.7811a.26460982.26460982 0 0 0 -.1132808.49609l.9160158.5293a.26515259.26515259 0 1 0 .2656242-.45898l-.9179682-.5293a.26460982.26460982 0 0 0 -.150391-.0371z" font-variant-ligatures="normal" font-variant-position="normal" font-variant-caps="normal" font-variant-numeric="normal" font-variant-alternates="normal" font-feature-settings="normal" text-indent="0" text-align="start" text-decoration-line="none" text-decoration-style="solid" text-decoration-color="#000000" text-transform="none" text-orientation="mixed" white-space="normal" shape-padding="0" isolation="auto" mix-blend-mode="normal" solid-color="#000000" solid-opacity="1" vector-effect="none"/><path id="path1845-3" d="m5.5724121 284.36899a.26460982.26460982 0 0 0 -.111329.4961l.916016.52929a.26466452.26466452 0 1 0 .2636719-.45898l-.9160158-.5293a.26460982.26460982 0 0 0 -.1523431-.0371z" font-variant-ligatures="normal" font-variant-position="normal" font-variant-caps="normal" font-variant-numeric="normal" font-variant-alternates="normal" font-feature-settings="normal" text-indent="0" text-align="start" text-decoration-line="none" text-decoration-style="solid" text-decoration-color="#000000" text-transform="none" text-orientation="mixed" white-space="normal" shape-padding="0" isolation="auto" mix-blend-mode="normal" solid-color="#000000" solid-opacity="1" vector-effect="none"/><path id="path1847-7" d="m8.9024903 284.03305a.26460982.26460982 0 0 0 -.144531.0371l-.9160162.5293a.26466496.26466496 0 1 0 .2636721.45898l.9179681-.52929a.26460982.26460982 0 0 0 -.121093-.4961z" font-variant-ligatures="normal" font-variant-position="normal" font-variant-caps="normal" font-variant-numeric="normal" font-variant-alternates="normal" font-feature-settings="normal" text-indent="0" text-align="start" text-decoration-line="none" text-decoration-style="solid" text-decoration-color="#000000" text-transform="none" text-orientation="mixed" white-space="normal" shape-padding="0" isolation="auto" mix-blend-mode="normal" solid-color="#000000" solid-opacity="1" vector-effect="none"/><path id="path8393" d="m8.8302243 285.75571c-.50845 0-.9277342.41733-.9277342.92578 0 .26458-.0000029.52838 0 .79297a.26460982.26460982 0 0 0 .265625.26563h1.3222652a.26460982.26460982 0 0 0 .265625-.26563c.000008-.26459.000002-.52839 0-.79297 0-.50845-.417332-.92578-.925781-.92578z" font-variant-ligatures="normal" font-variant-position="normal" font-variant-caps="normal" font-variant-numeric="normal" font-variant-alternates="normal" font-feature-settings="normal" text-indent="0" text-align="start" text-decoration-line="none" text-decoration-style="solid" text-decoration-color="#000000" text-transform="none" text-orientation="mixed" white-space="normal" shape-padding="0" isolation="auto" mix-blend-mode="normal" solid-color="#000000" solid-opacity="1" vector-effect="none"/><path id="path8389" d="m12.935687 286.15219c-.708982 0-1.417965 0-2.126947 0-.146171.00053-.264235.11946-.263673.26563l.0039 1.05859c.00053.14617.119454.26424.265625.26368h2.121095c.432026 0 .789061-.35705.789061-.79493s-.35704-.79297-.789061-.79297z" font-variant-ligatures="normal" font-variant-position="normal" font-variant-caps="normal" font-variant-numeric="normal" font-variant-alternates="normal" font-feature-settings="normal" text-indent="0" text-align="start" text-decoration-line="none" text-decoration-style="solid" text-decoration-color="#000000" text-transform="none" text-orientation="mixed" white-space="normal" shape-padding="0" isolation="auto" mix-blend-mode="normal" solid-color="#000000" solid-opacity="1" vector-effect="none"/><g fill="#edca9d" fill-opacity=".996"><path id="path8387" d="m8.8302243 286.28501c.224443 0 .396485.17204.396485.39648.000001.17661 0 .3527 0 .5293h-.794922c0-.17661 0-.35269 0-.5293 0-.22444.173993-.39648.398437-.39648z" font-variant-ligatures="normal" font-variant-position="normal" font-variant-caps="normal" font-variant-numeric="normal" font-variant-alternates="normal" font-feature-settings="normal" text-indent="0" text-align="start" text-decoration-line="none" text-decoration-style="solid" text-decoration-color="#000000" text-transform="none" text-orientation="mixed" white-space="normal" shape-padding="0" isolation="auto" mix-blend-mode="normal" solid-color="#000000" solid-opacity="1" vector-effect="none"/><path id="rect8295-9" d="m12.935692 287.21079h-1.859375l-.002-.5293h1.861328c.14782 0 .259766.11.259766.26367 0 .15369-.11193.26563-.259766.26563z" font-variant-ligatures="normal" font-variant-position="normal" font-variant-caps="normal" font-variant-numeric="normal" font-variant-alternates="normal" font-feature-settings="normal" text-indent="0" text-align="start" text-decoration-line="none" text-decoration-style="solid" text-decoration-color="#000000" text-transform="none" text-orientation="mixed" white-space="normal" shape-padding="0" isolation="auto" mix-blend-mode="normal" solid-color="#000000" solid-opacity="1" vector-effect="none"/></g></g></svg>