<svg id="svg4938" height="512" viewBox="0 0 16.933333 16.933334" width="512" xmlns="http://www.w3.org/2000/svg" xmlns:svg="http://www.w3.org/2000/svg"><g id="layer1" transform="translate(0 -280.067)"><path id="path5610" d="m8.4228335 280.59633c-1.8049701 0-3.1738002 1.35837-3.1738301 3.03515v7.01758a.26460982.26460982 0 0 0 .26367.26563h5.8203106a.26460982.26460982 0 0 0 .26563-.26563v-7.01758c0-1.67678-1.37081-3.03515-3.1757805-3.03515z" font-variant-ligatures="normal" font-variant-position="normal" font-variant-caps="normal" font-variant-numeric="normal" font-variant-alternates="normal" font-feature-settings="normal" text-indent="0" text-align="start" text-decoration-line="none" text-decoration-style="solid" text-decoration-color="#000000" text-transform="none" text-orientation="mixed" white-space="normal" shape-padding="0" isolation="auto" mix-blend-mode="normal" solid-color="#000000" solid-opacity="1" vector-effect="none"/><path id="path4022" d="m8.4228335 281.12562c1.5447202 0 2.6464805 1.11308 2.6464805 2.50586v6.75391h-5.2929706l.00201-6.75391c.0000198-1.39278 1.0998099-2.50586 2.64453-2.50586z" fill="#e2bcb7" font-variant-ligatures="normal" font-variant-position="normal" font-variant-caps="normal" font-variant-numeric="normal" font-variant-alternates="normal" font-feature-settings="normal" text-indent="0" text-align="start" text-decoration-line="none" text-decoration-style="solid" text-decoration-color="#000000" text-transform="none" text-orientation="mixed" white-space="normal" shape-padding="0" isolation="auto" mix-blend-mode="normal" solid-color="#000000" solid-opacity="1" vector-effect="none"/><path id="path5614" d="m7.6298635 292.23695v3.43945c0 .43517.3578.79493.79297.79493.4351599 0 .7949202-.35976.7949202-.79493v-3.43945c-.000529-.14617-.11946-.26423-.2656303-.26367h-1.0712802c-.1487299 0-.2511697.12758-.2509797.26367z" font-variant-ligatures="normal" font-variant-position="normal" font-variant-caps="normal" font-variant-numeric="normal" font-variant-alternates="normal" font-feature-settings="normal" text-indent="0" text-align="start" text-decoration-line="none" text-decoration-style="solid" text-decoration-color="#000000" text-transform="none" text-orientation="mixed" white-space="normal" shape-padding="0" isolation="auto" mix-blend-mode="normal" solid-color="#000000" solid-opacity="1" vector-effect="none"/><path id="path4024" d="m8.1591534 292.50258h.5293001v3.17382c0 .15116-.1144702.26563-.26562.26563-.1511602 0-.2636801-.11447-.2636801-.26563z" fill="#ecc99c" font-variant-ligatures="normal" font-variant-position="normal" font-variant-caps="normal" font-variant-numeric="normal" font-variant-alternates="normal" font-feature-settings="normal" text-indent="0" text-align="start" text-decoration-line="none" text-decoration-style="solid" text-decoration-color="#000000" text-transform="none" text-orientation="mixed" white-space="normal" shape-padding="0" isolation="auto" mix-blend-mode="normal" solid-color="#000000" solid-opacity="1" vector-effect="none"/><path id="path5618" d="m5.5126734 290.38539a.26460982.26460982 0 0 0 -.26367.26367v1.05859c0 .43517.3578001.79493.7929701.79493h4.7617205c.43516 0 .79492-.35976.79492-.79493v-1.05859a.26460982.26460982 0 0 0 -.26563-.26367z" font-variant-ligatures="normal" font-variant-position="normal" font-variant-caps="normal" font-variant-numeric="normal" font-variant-alternates="normal" font-feature-settings="normal" text-indent="0" text-align="start" text-decoration-line="none" text-decoration-style="solid" text-decoration-color="#000000" text-transform="none" text-orientation="mixed" white-space="normal" shape-padding="0" isolation="auto" mix-blend-mode="normal" solid-color="#000000" solid-opacity="1" vector-effect="none"/><path id="path4026" d="m5.7763434 290.91469h5.2929706v.79296c0 .15116-.11447.26563-.26562.26563h-4.7617205c-.1511602 0-.2656301-.11447-.2656301-.26563z" fill="#e4d3cf" font-variant-ligatures="normal" font-variant-position="normal" font-variant-caps="normal" font-variant-numeric="normal" font-variant-alternates="normal" font-feature-settings="normal" text-indent="0" text-align="start" text-decoration-line="none" text-decoration-style="solid" text-decoration-color="#000000" text-transform="none" text-orientation="mixed" white-space="normal" shape-padding="0" isolation="auto" mix-blend-mode="normal" solid-color="#000000" solid-opacity="1" vector-effect="none"/><path id="path5622" d="m8.4230933 280.5958c-1.8049701 0-3.1749699 1.35818-3.175 3.03496v2.73782a.26460979.26460979 0 0 0 .1762201.24959c.10521.0372.22424.0631.35295.0631.5817399 0 1.0583299-.47659 1.0583299-1.05833v-.52917c0-.29773.23143-.52916.5291701-.52916.2977301 0 .5291601.23143.5291601.52916v2.11667c0 .58174.4765899 1.05833 1.0583399 1.05833.5817403 0 1.0583306-.47659 1.0583306-1.05833v-1.32292c0-.29773.23143-.52916.52917-.52916.29773 0 .52916.23143.52916.52916h.52917v-2.25671c0-1.67677-1.37002-3.03496-3.1750007-3.03496z" font-variant-ligatures="normal" font-variant-position="normal" font-variant-caps="normal" font-variant-numeric="normal" font-variant-alternates="normal" font-feature-settings="normal" text-indent="0" text-align="start" text-decoration-line="none" text-decoration-style="solid" text-decoration-color="#000000" text-transform="none" text-orientation="mixed" white-space="normal" shape-padding="0" isolation="auto" mix-blend-mode="normal" solid-color="#000000" solid-opacity="1" vector-effect="none"/><path id="path4426" d="m8.4230933 281.12497c1.5447204 0 2.6458307 1.11301 2.6458307 2.50579v1.36219c-.15825-.0945-.33255-.16381-.52916-.16381-.5817503 0-1.0583403.47659-1.0583403 1.05833v1.32292c0 .29773-.23143.52916-.5291603.52916-.2977401 0-.5291701-.23143-.5291701-.52916v-2.11667c0-.58174-.47659-1.05833-1.0583299-1.05833-.58175 0-1.05834.47659-1.05834 1.05833v.52917c0 .29773-.2314299.52916-.52916.52916v-2.52129c.0000201-1.39278 1.1011199-2.50579 2.6458299-2.50579z" fill="#b67162" font-variant-ligatures="normal" font-variant-position="normal" font-variant-caps="normal" font-variant-numeric="normal" font-variant-alternates="normal" font-feature-settings="normal" text-indent="0" text-align="start" text-decoration-line="none" text-decoration-style="solid" text-decoration-color="#000000" text-transform="none" text-orientation="mixed" white-space="normal" shape-padding="0" isolation="auto" mix-blend-mode="normal" solid-color="#000000" solid-opacity="1" vector-effect="none"/></g></svg>