<svg id="svg4938" height="512" viewBox="0 0 16.933333 16.933334" width="512" xmlns="http://www.w3.org/2000/svg" xmlns:svg="http://www.w3.org/2000/svg"><g id="layer1" transform="translate(0 -280.067)"><path id="path6420" d="m5.1402597 284.95727c-.4476038.0266-.770763.14804-.9628905.38672-.1921277.23869-.2156936.53013-.2128906.80664.00297.2914.1903322.53878.4199218.65235.2295895.11357.4923393.14257.7714843.14257h.5507812v1.69532c0 .58106.4755809 1.05664 1.0566406 1.05664.5810578 0 1.0566408-.47558 1.0566408-1.05664v-.63477c0-.29705.2302891-.52734.5273437-.52734.2970554 0 .5292964.23029.5292964.52734v1.64649c0 .52029.42697.94921.947266.94921.5202976 0 .9417016-.43125.9414056-.94921l-.002-2.71485 1.004907.008c.656253.001 1.192406-.53637 1.192406-1.1914 0-.65534-.534565-1.22938-1.207031-1.18946z" font-variant-ligatures="normal" font-variant-position="normal" font-variant-caps="normal" font-variant-numeric="normal" font-variant-alternates="normal" font-feature-settings="normal" text-indent="0" text-align="start" text-decoration-line="none" text-decoration-style="solid" text-decoration-color="#000000" text-transform="none" text-orientation="mixed" white-space="normal" shape-padding="0" isolation="auto" mix-blend-mode="normal" solid-color="#000000" solid-opacity="1" vector-effect="none"/><path id="path4004" d="m11.784791 285.09399c.351783-.0209.646484.28944.646484.66016 0 .37102-.289486.66282-.660156.66211l-1.269532-.01a.26460982.26460982 0 0 0 -.267578.26367l.002 2.98437c.000136.23863-.175816.41797-.4121096.41797-.23629 0-.417969-.18363-.417969-.41992v-1.64648c0-.58106-.477533-1.05664-1.0585935-1.05664-.5810594 0-1.0566406.47558-1.0566406 1.05664v.63477c0 .29705-.2302915.52734-.5273439.52734-.2970562 0-.5273437-.23029-.5273437-.52734v-1.95899a.26460982.26460982 0 0 0 -.2656601-.26539h-.8144531c-.2353429 0-.4326027-.0343-.5371092-.0859-.1045067-.0517-.1238364-.0714-.125-.18555-.00241-.23649.02814-.38481.095703-.46875.067563-.0839.2111152-.16743.5820312-.18945z" fill="#fce38a" font-variant-ligatures="normal" font-variant-position="normal" font-variant-caps="normal" font-variant-numeric="normal" font-variant-alternates="normal" font-feature-settings="normal" text-indent="0" text-align="start" text-decoration-line="none" text-decoration-style="solid" text-decoration-color="#000000" text-transform="none" text-orientation="mixed" white-space="normal" shape-padding="0" isolation="auto" mix-blend-mode="normal" solid-color="#000000" solid-opacity="1" vector-effect="none"/><path id="path6424" d="m7.2906504 288.0061v.63477c0 .29718-.2303708.52929-.5273439.52929-.2969755 0-.5292966-.23232-.5292966-.52929v-.90039c.0005556-.14617-.1175015-.26511-.2636721-.26563h-1.7441405c-.19646.00032-.3240881.20704-.2363282.38281l4.234375 8.4668c.097764.19411.3748923.19411.4726563 0l4.2343746-8.4668c.08815-.17653-.04097-.38396-.238281-.38281h-2.195313c-.146171.00053-.264234.11946-.263672.26563l.002 1.92187c-.00082.23989-.177678.41992-.4140626.41992-.236383 0-.417969-.18158-.417969-.41797v-1.6582c0-.58114-.47571-1.05664-1.0566636-1.05664-.5809541 0-1.0566635.4755-1.0566634 1.05664z" font-variant-ligatures="normal" font-variant-position="normal" font-variant-caps="normal" font-variant-numeric="normal" font-variant-alternates="normal" font-feature-settings="normal" text-indent="0" text-align="start" text-decoration-line="none" text-decoration-style="solid" text-decoration-color="#000000" text-transform="none" text-orientation="mixed" white-space="normal" shape-padding="0" isolation="auto" mix-blend-mode="normal" solid-color="#000000" solid-opacity="1" vector-effect="none"/><path id="path4390" d="m8.347291 287.47876c.2971844 0 .5273434.23037.5273434.52734v1.6582c0 .52021.427061.94727.947266.94727.5202076 0 .9415836-.43057.9433586-.94727l-.002-1.66015h1.501953l-3.8046816 7.61133-3.8046875-7.61133h1.0488279v.63672c0 .58113.4774554 1.05859 1.0585937 1.05859.5811372 0 1.0566408-.47766 1.0566408-1.05859v-.63477c0-.29697.2301586-.52734.5273437-.52734z" fill="#b67162" font-variant-ligatures="normal" font-variant-position="normal" font-variant-caps="normal" font-variant-numeric="normal" font-variant-alternates="normal" font-feature-settings="normal" text-indent="0" text-align="start" text-decoration-line="none" text-decoration-style="solid" text-decoration-color="#000000" text-transform="none" text-orientation="mixed" white-space="normal" shape-padding="0" isolation="auto" mix-blend-mode="normal" solid-color="#000000" solid-opacity="1" vector-effect="none"/><path id="path6428" d="m11.441041 283.0686c-.069-.006-.139478-.005-.212891.004l-5.7812496.6875c-.5775643.0686-.9944373.59812-.9257813 1.17578.021341.17955.093141.33529.1796875.46289a.26460982.26460982 0 0 0 .2617187.11133c.066472-.0113.1328449-.0189.2089846-.0234l6.5410151-.3888a.26460982.26460982 0 0 0 .09961-.0273c.393372-.18992.64636-.61317.591796-1.07227-.06008-.50555-.471594-.88904-.96289-.92969z" font-variant-ligatures="normal" font-variant-position="normal" font-variant-caps="normal" font-variant-numeric="normal" font-variant-alternates="normal" font-feature-settings="normal" text-indent="0" text-align="start" text-decoration-line="none" text-decoration-style="solid" text-decoration-color="#000000" text-transform="none" text-orientation="mixed" white-space="normal" shape-padding="0" isolation="auto" mix-blend-mode="normal" solid-color="#000000" solid-opacity="1" vector-effect="none"/><path id="path4392" d="m11.593383 284.57446c-2.1667326.14228-4.3494717.23776-6.5097643.38867-.01452-.0155-.034233-.055-.037109-.0898-.03514-.29567.1671246-.55274.4628904-.58789l5.7812499-.6875c.03575-.004.07113-.005.107422-.002.245753.0203.449732.20623.480468.46484.02666.22433-.124999.5039-.285157.51367z" fill="#95e1d3" font-variant-ligatures="normal" font-variant-position="normal" font-variant-caps="normal" font-variant-numeric="normal" font-variant-alternates="normal" font-feature-settings="normal" text-indent="0" text-align="start" text-decoration-line="none" text-decoration-style="solid" text-decoration-color="#000000" text-transform="none" text-orientation="mixed" white-space="normal" shape-padding="0" isolation="auto" mix-blend-mode="normal" solid-color="#000000" solid-opacity="1" vector-effect="none"/><path id="path6432" d="m9.9761974 281.66626-3.7050781.77344c-.5691899.1201-.9365239.68465-.8164066 1.2539.036888.17479.1166178.32636.216797.44922a.26460982.26460982 0 0 0 .2363282.0957l4.5644531-.54297a.26460982.26460982 0 0 0 .07813-.0215c.443361-.20007.703628-.69061.599604-1.18359-.05219-.24735-.185495-.47459-.388672-.63672-.203176-.16214-.488285-.24947-.7851556-.1875z" font-variant-ligatures="normal" font-variant-position="normal" font-variant-caps="normal" font-variant-numeric="normal" font-variant-alternates="normal" font-feature-settings="normal" text-indent="0" text-align="start" text-decoration-line="none" text-decoration-style="solid" text-decoration-color="#000000" text-transform="none" text-orientation="mixed" white-space="normal" shape-padding="0" isolation="auto" mix-blend-mode="normal" solid-color="#000000" solid-opacity="1" vector-effect="none"/><path id="path4394" d="m10.083619 282.18384c.143644-.03.250615.005.347656.082.09704.0774.173924.20485.201172.33398.05195.24621-.08007.47423-.292969.57813l-4.3144527.51172c-.017219-.0355-.044429-.0661-.052734-.10547-.061462-.29128.116867-.56548.4082032-.62696z" fill="#eaffd0" font-variant-ligatures="normal" font-variant-position="normal" font-variant-caps="normal" font-variant-numeric="normal" font-variant-alternates="normal" font-feature-settings="normal" text-indent="0" text-align="start" text-decoration-line="none" text-decoration-style="solid" text-decoration-color="#000000" text-transform="none" text-orientation="mixed" white-space="normal" shape-padding="0" isolation="auto" mix-blend-mode="normal" solid-color="#000000" solid-opacity="1" vector-effect="none"/><path id="path6440" d="m3.6988536 286.41626c-.435161 0-.7949221.35976-.7949221.79492s.3597611.79297.7949221.79297h2.2714842a.26460982.26460982 0 0 0 .265625-.26367v-1.0586a.26460982.26460982 0 0 0 -.265625-.26562z" font-variant-ligatures="normal" font-variant-position="normal" font-variant-caps="normal" font-variant-numeric="normal" font-variant-alternates="normal" font-feature-settings="normal" text-indent="0" text-align="start" text-decoration-line="none" text-decoration-style="solid" text-decoration-color="#000000" text-transform="none" text-orientation="mixed" white-space="normal" shape-padding="0" isolation="auto" mix-blend-mode="normal" solid-color="#000000" solid-opacity="1" vector-effect="none"/><path id="path6438" d="m10.499634 286.41626a.26460982.26460982 0 0 0 -.265625.26562l.002 1.0586a.26460982.26460982 0 0 0 .263625.26367h2.722646c.43516 0 .794922-.35781.794922-.79297s-.359762-.79492-.794922-.79492z" font-variant-ligatures="normal" font-variant-position="normal" font-variant-caps="normal" font-variant-numeric="normal" font-variant-alternates="normal" font-feature-settings="normal" text-indent="0" text-align="start" text-decoration-line="none" text-decoration-style="solid" text-decoration-color="#000000" text-transform="none" text-orientation="mixed" white-space="normal" shape-padding="0" isolation="auto" mix-blend-mode="normal" solid-color="#000000" solid-opacity="1" vector-effect="none"/><path id="path6436" d="m3.6988536 286.94555h2.0078123v.5293h-2.0078123c-.1511559 0-.265625-.11251-.265625-.26367s.1144691-.26563.265625-.26563z" fill="#e4d3cf" font-variant-ligatures="normal" font-variant-position="normal" font-variant-caps="normal" font-variant-numeric="normal" font-variant-alternates="normal" font-feature-settings="normal" text-indent="0" text-align="start" text-decoration-line="none" text-decoration-style="solid" text-decoration-color="#000000" text-transform="none" text-orientation="mixed" white-space="normal" shape-padding="0" isolation="auto" mix-blend-mode="normal" solid-color="#000000" solid-opacity="1" vector-effect="none"/><path id="path4396" d="m10.763306 286.94555h2.458985c.151155 0 .265625.11447.265625.26563 0 .15115-.11447.26367-.265625.26367h-2.458985z" fill="#e4d3cf" font-variant-ligatures="normal" font-variant-position="normal" font-variant-caps="normal" font-variant-numeric="normal" font-variant-alternates="normal" font-feature-settings="normal" text-indent="0" text-align="start" text-decoration-line="none" text-decoration-style="solid" text-decoration-color="#000000" text-transform="none" text-orientation="mixed" white-space="normal" shape-padding="0" isolation="auto" mix-blend-mode="normal" solid-color="#000000" solid-opacity="1" vector-effect="none"/><path id="path6444" d="m8.3017956 280.59582c-.7274928 0-1.3229167.59542-1.3229167 1.32317.0004763.24512.069163.48496.1979208.69324.05854.0947.1700771.1426.2790526.11989l1.9466511-.40618c.108008-.0227.1906-.11.207223-.21911.0093-.0614.01439-.12345.01499-.1868 0-.72879-.595424-1.32421-1.3229168-1.32421z" font-variant-ligatures="normal" font-variant-position="normal" font-variant-caps="normal" font-variant-numeric="normal" font-variant-alternates="normal" font-feature-settings="normal" text-indent="0" text-align="start" text-decoration-line="none" text-decoration-style="solid" text-decoration-color="#000000" text-transform="none" text-orientation="mixed" white-space="normal" shape-padding="0" isolation="auto" mix-blend-mode="normal" solid-color="#000000" solid-opacity="1" vector-effect="none"/><path id="path4398" d="m8.3017956 281.12498c.4165278 0 .7305828.32399.7673948.73019l-1.4908649.31109c-.050913-.0635-.070112-.16045-.07028-.24804.0002646-.44127.3524134-.79324.7937501-.79324z" fill="#ff75a0" font-variant-ligatures="normal" font-variant-position="normal" font-variant-caps="normal" font-variant-numeric="normal" font-variant-alternates="normal" font-feature-settings="normal" text-indent="0" text-align="start" text-decoration-line="none" text-decoration-style="solid" text-decoration-color="#000000" text-transform="none" text-orientation="mixed" white-space="normal" shape-padding="0" isolation="auto" mix-blend-mode="normal" solid-color="#000000" solid-opacity="1" vector-effect="none"/></g></svg>