<svg height="512" viewBox="0 0 56 60" width="512" xmlns="http://www.w3.org/2000/svg"><g id="027---Bug" fill="none"><g id="Icons" transform="translate(15)"><path id="Shape" d="m19.53 11.58h-13c-.43459289-2.0505595-.43459289-4.1694405 0-6.22l2.16-3.23c1.28540467-.81293657 2.7910879-1.20769805 4.31-1.13 1.4974171-.10214062 2.9851832.3068188 4.22 1.16l2.17 3.27c.4859885 2.01639232.5337294 4.11358158.14 6.15z" fill="#3f51b5"/><path id="Shape" d="m19.39 5.43-2.17-3.27c-1.7223514-1.0455266-3.7757924-1.40264677-5.75-1 .9859993.09754435 1.9316509.44141766 2.75 1l2.17 3.27c.4859885 2.01639232.5337294 4.11358158.14 6.15h3c.3940408-2.03639216.3462984-4.13364809-.14-6.15z" fill="#283593"/><path id="Shape" d="m10 4c.0005109 1.0275149-.77766804 1.88823906-1.80003437 1.99097278s-1.95623967-.5859528-2.16017684-1.59302616c-.20393717-1.00707337.38842347-2.00482956 1.37021121-2.30794662.60660072-.18728185 1.26609052-.07544481 1.77703422.3013515.5109437.37679632.81265012.97379511.81296578 1.6086485z" fill="#f5f5f5"/><path id="Shape" d="m20 4c.0005109 1.0275149-.777668 1.88823906-1.8000344 1.99097278-1.0223663.10273372-1.9562396-.5859528-2.1601768-1.59302616-.2039372-1.00707337.3884235-2.00482956 1.3702112-2.30794662.6066007-.18728185 1.2660905-.07544481 1.7770342.3013515.5109437.37679632.8126501.97379511.8129658 1.6086485z" fill="#f5f5f5"/><path id="Shape" d="m21.26 49.13c-2.152002 3.749785-4.9481121 7.0908996-8.26 9.87-3.29913775-2.7918073-6.09324308-6.1305264-8.26-9.87l2.73-1.37c3.3872941-1.6926354 5.5279778-5.1533429 5.53-8.94.0020222 3.7866571 2.1427059 7.2473646 5.53 8.94z" fill="#673ab7"/><path id="Shape" d="m26 32c-.0235243 6.0306118-1.6601099 11.9451077-4.74 17.13l-2.34-1.13c-3.6179188-1.6167421-5.939863-5.2173245-5.92-9.18l-.0001264-30.82c5.0001264 0 13.0001264 8 13.0001264 24z" fill="#6a1b9a"/><g fill="#9d27b0"><path id="Shape" d="m23 32c-.0062619 5.5898935-1.4087097 11.0896888-4.08 16-3.6179188-1.6167421-5.939863-5.2173245-5.92-9.18v-30c4.67 2.4 10 10.12 10 23.18z"/><path id="Shape" d="m13 8v30.82c-.0020222 3.7866571-2.1427059 7.2473646-5.53 8.94l-2.73 1.37c-3.07989015-5.1848923-4.7164757-11.0993882-4.74-17.13 0-16 8-24 13-24z"/></g></g><path id="Shape" d="m9.13 37.5-3.93 6.89-3.91 3.9c-.39212214.3921222-.39212212 1.0278778.00000004 1.42.39212215.3921221 1.02787778.3921221 1.41999996 0l2.29-2.3v3.59c0 .5522847.44771525 1 1 1s1-.4477153 1-1v-5.73l3.74-6.56 4.39-2.71c.2053569 2.4099492.6714139 4.7905281 1.39 7.1-5.62 5.62-5.43 5.32-5.51 5.77l-1 5.76-2.81 3.77c-.33137085.4418278-.2418278 1.0686292.2 1.4s1.06862915.2418278 1.4-.2l1.66-2.21.54 2.81c.0714531.3572656.3280774.6492728.6732051.7660254.3451276.1167526.7263255.040513 1-.2s.398248-.6087598.3267949-.9660254l-1-4.8.91-5.5 4.31-4.31c2.3367071 6.0649708 6.1811118 11.4340589 11.17 15.6.3595659.2767981.8604341.2767981 1.22 0 4.9843314-4.1739205 8.8219131-9.5499766 11.15-15.62l4.31 4.31.93 5.52-1 4.8c-.1104569.5522847.2477153 1.089543.8 1.2.5522847.1104569 1.089543-.2477153 1.2-.8l.56-2.81 1.64 2.21c.2143593.2858125.5649147.4355548.9196153.3928204.3547005-.0427344.6596588-.2714532.8-.6000001.1403412-.3285468.0947441-.7070078-.1196153-.9928203l-2.8-3.8-1-5.76c-.08-.46.12-.15-5.51-5.77.7130759-2.3001405 1.1757564-4.67054 1.38-7.07l4.39 2.74 3.74 6.53v5.73c0 .5522847.4477153 1 1 1s1-.4477153 1-1v-3.59l2.29 2.3c.3921222.3921222 1.0278778.3921222 1.42 0s.3921222-1.0278778 0-1.42l-3.91-3.9-3.93-6.89c-.18-.3.1-.07-5.89-3.82.0366956-1.742897-.0367841-3.4863713-.22-5.22 6.14-3.84 5.93-3.65 6.11-4l3.93-6.89 3.91-3.9c.3921221-.3921222.3921221-1.0278778 0-1.42-.3921222-.3921221-1.0278778-.3921221-1.42 0l-2.29 2.34v-3.59c0-.5522847-.4477153-1-1-1s-1 .4477153-1 1v5.73l-3.74 6.56-4.78 3c-.3398463-2.2675414-.9060067-4.4953321-1.69-6.65 6.39-6.39 6.12-6 6.2-6.46l1.01-5.78 2.8-3.8c.3313708-.4418278.2418278-1.06862915-.2-1.4s-1.0686292-.2418278-1.4.2l-1.66 2.21-.54-2.81c-.1104569-.55228475-.6477153-.91045695-1.2-.8s-.9104569.64771525-.8 1.2l1 4.8-.91 5.5-5.09 5.12c-.8689911-1.9389825-2.0105222-3.7438812-3.39-5.36.2951193-1.8450687.2578661-3.72804792-.11-5.56.6944657-1.01694219.6969387-2.35499369.0062369-3.37449602s-1.934279-1.51336822-3.1362369-1.24550398c-2.7436654-1.43512651-6.0163346-1.43512651-8.76 0-1.1776657-.22865572-2.3783231.26626036-3.052784 1.25837052-.6744609.99211017-.6930309 2.29063829-.047216 3.30162948-.3373355 1.84470494-.3373355 3.7352951 0 5.58-1.4234549 1.6219463-2.6056169 3.4406571-3.51 5.4l-5.1-5.1-.9-5.52 1-4.8c.0714531-.35726559-.0531204-.72551241-.3267949-.96602542-.2736745-.24051302-.6548724-.31675259-1-.20000001-.3451277.11675259-.601752.40875983-.6732051.76602543l-.56 2.81-1.64-2.21c-.33137086-.44182778-.95817219-.53137082-1.39999998-.19999998-.4418278.33137084-.53137085.95817218-.20000002 1.39999998l2.85 3.8 1 5.76c.08.45-.2.06 6.2 6.46-.7839933 2.1546679-1.3501537 4.3824586-1.69 6.65l-4.78-3-3.78-6.54v-5.73c0-.5522847-.44771525-1-1-1s-1 .4477153-1 1v3.59l-2.29-2.3c-.39212217-.3921222-1.02787783-.3921222-1.42 0s-.39212217 1.0278778 0 1.42l3.91 3.9 3.93 6.89c.18.31-.13.05 6.11 4-.1892211 1.7198728-.2693813 3.4499989-.24 5.18-6 3.75-5.69 3.51-5.87 3.82zm10.13-17.67c.0270621-.0504116.0472419-.1042244.06-.16 2.68-6.67 7.01-9.67 9.68-9.67 1.56 0 3.69 1 5.72 3.21 4.63 4.94 6.28 12.87 6.28 19.79-.0247524 5.5354544-1.4599221 10.9732676-4.17 15.8l-1.83-.94c-3.0541889-1.4968568-4.9928632-4.5987357-5-8v-25.86c0-.5522847-.4477153-1-1-1s-1 .4477153-1 1v25.82c-.0235365 3.3965209-1.9572613 6.4904805-5 8l-1.86.93c-2.6926407-4.8142385-4.1172534-10.2339608-4.14-15.75-.081812-4.4930781.684935-8.9612455 2.26-13.17zm9.74 38.86c-2.6491808-2.3851722-4.9485175-5.1322568-6.83-8.16 2.26-1.14 5.07-2.27 6.83-6.13 1.0369535 2.2836538 2.8317037 4.1384646 5.08 5.25l1.74.88c-1.8757972 3.0289836-4.1720319 5.7763847-6.82 8.16zm6-53.69c0 .55228475-.4477153 1-1 1s-1-.44771525-1-1 .4477153-1 1-1 1 .44771525 1 1zm-3.53-1.6c-.6455397 1.02775042-.6082423 2.3432044.0944938 3.33272677.702736.98952237 1.9324513 1.45814863 3.1155062 1.18727323.1054246.83570976.1288695 1.67972651.07 2.52-3.86-3.23-7.6-3.24-11.47 0-.0801822-.83808655-.0801822-1.68191345 0-2.52 1.1893609.28560214 2.4330146-.17947236 3.1431364-1.17540164s.7444913-2.32325272.0868636-3.35459836c1.615022-.50681131 3.3470347-.50331935 4.96.01zm-7.47.6c.5522847 0 1 .44771525 1 1s-.4477153 1-1 1-1-.44771525-1-1 .4477153-1 1-1z" fill="#000" transform="translate(-1 -1)"/></g></svg>