<svg id="Layer_3" enable-background="new 0 0 64 64" height="512" viewBox="0 0 64 64" width="512" xmlns="http://www.w3.org/2000/svg"><g><g><path d="m11 30v3c0 1.657 1.343 3 3 3 1.657 0 3-1.343 3-3 0-1.657 1.343-3 3-3 1.657 0 3 1.343 3 3 0 1.657 1.343 3 3 3 1.657 0 3-1.343 3-3 0-1.657 1.343-3 3-3 1.657 0 3 1.343 3 3 0 1.657 1.343 3 3 3 1.657 0 3-1.343 3-3 0-1.657 1.343-3 3-3 1.657 0 3 1.343 3 3 0 1.657 1.343 3 3 3 1.657 0 3-1.343 3-3v-3c0-2.209-1.791-4-4-4h-34c-2.209 0-4 1.791-4 4z" fill="#3d98f7"/></g><g><path d="m35 2h-6c-11.046 0-20 8.954-20 20 0 2.209 1.791 4 4 4h38c2.209 0 4-1.791 4-4 0-11.046-8.954-20-20-20z" fill="#2b74ca"/></g><g><path d="m9.546 17.426c3.908 3.408 9.684 5.574 16.143 5.574 11.77 0 21.311-7.163 21.311-16 0-.346-.04-.684-.069-1.024-3.333-2.486-7.453-3.976-11.931-3.976h-6c-9.469 0-17.383 6.588-19.454 15.426z" fill="#3d98f7"/></g><g><circle cx="32" cy="8" fill="#fff" r="2"/></g><g><circle cx="32" cy="16" fill="#fff" r="2"/></g><g><circle cx="42" cy="16" fill="#fff" r="2"/></g><g><circle cx="22" cy="16" fill="#fff" r="2"/></g><g><path d="m50 37c-2.206 0-4-1.794-4-4 0-1.103-.897-2-2-2s-2 .897-2 2c0 2.206-1.794 4-4 4s-4-1.794-4-4c0-1.103-.897-2-2-2s-2 .897-2 2c0 2.206-1.794 4-4 4s-4-1.794-4-4c0-1.103-.897-2-2-2s-2 .897-2 2c0 2.206-1.794 4-4 4s-4-1.794-4-4v-3c0-2.757 2.243-5 5-5h34c2.757 0 5 2.243 5 5v3c0 2.206-1.794 4-4 4zm-6-8c2.206 0 4 1.794 4 4 0 1.103.897 2 2 2s2-.897 2-2v-3c0-1.654-1.346-3-3-3h-34c-1.654 0-3 1.346-3 3v3c0 1.103.897 2 2 2s2-.897 2-2c0-2.206 1.794-4 4-4s4 1.794 4 4c0 1.103.897 2 2 2s2-.897 2-2c0-2.206 1.794-4 4-4s4 1.794 4 4c0 1.103.897 2 2 2s2-.897 2-2c0-2.206 1.794-4 4-4z"/></g><g><path d="m51 27h-38c-2.757 0-5-2.243-5-5 0-11.58 9.421-21 21-21h6c11.579 0 21 9.42 21 21 0 2.757-2.243 5-5 5zm-22-24c-10.477 0-19 8.523-19 19 0 1.654 1.346 3 3 3h38c1.654 0 3-1.346 3-3 0-10.477-8.523-19-19-19z"/></g><g><path d="m32 11c-1.654 0-3-1.346-3-3s1.346-3 3-3 3 1.346 3 3-1.346 3-3 3zm0-4c-.552 0-1 .449-1 1s.448 1 1 1 1-.449 1-1-.448-1-1-1z"/></g><g><path d="m32 19c-1.654 0-3-1.346-3-3s1.346-3 3-3 3 1.346 3 3-1.346 3-3 3zm0-4c-.552 0-1 .449-1 1s.448 1 1 1 1-.449 1-1-.448-1-1-1z"/></g><g><path d="m42 19c-1.654 0-3-1.346-3-3s1.346-3 3-3 3 1.346 3 3-1.346 3-3 3zm0-4c-.552 0-1 .449-1 1s.448 1 1 1 1-.449 1-1-.448-1-1-1z"/></g><g><path d="m22 19c-1.654 0-3-1.346-3-3s1.346-3 3-3 3 1.346 3 3-1.346 3-3 3zm0-4c-.552 0-1 .449-1 1s.448 1 1 1 1-.449 1-1-.448-1-1-1z"/></g><g><path d="m29 63c-2.206 0-4-1.794-4-4s1.794-4 4-4v2c-1.103 0-2 .897-2 2s.897 2 2 2 2-.897 2-2v-29h2v29c0 2.206-1.794 4-4 4z"/></g><g><path d="m41 59c-2.206 0-4-1.794-4-4v-19h2v19c0 1.103.897 2 2 2s2-.897 2-2-.897-2-2-2v-2c2.206 0 4 1.794 4 4s-1.794 4-4 4z"/></g><g><path d="m23 47c-2.206 0-4-1.794-4-4s1.794-4 4-4v2c-1.103 0-2 .897-2 2s.897 2 2 2 2-.897 2-2v-7h2v7c0 2.206-1.794 4-4 4z"/></g><g><path d="m47 50c-2.206 0-4-1.794-4-4s1.794-4 4-4v2c-1.103 0-2 .897-2 2s.897 2 2 2 2-.897 2-2v-10h2v10c0 2.206-1.794 4-4 4z"/></g><g><path d="m17 57c-2.206 0-4-1.794-4-4v-17h2v17c0 1.103.897 2 2 2s2-.897 2-2-.897-2-2-2v-2c2.206 0 4 1.794 4 4s-1.794 4-4 4z"/></g><g><path d="m13 21h38v2h-38z"/></g></g></svg>