<svg id="Filled" height="512" viewBox="0 0 512 512" width="512" xmlns="http://www.w3.org/2000/svg"><g fill="#f3db70"><path d="m160 368-40-24v48z"/><path d="m160 368 40-24v48z"/><path d="m344 352-40-24v48z"/><path d="m344 352 40-24v48z"/><path d="m256 448-24-40h48z"/><path d="m256 448 24 40h-48z"/></g><path d="m160 24-120 104 120 208 120-208z" fill="#3a98e4"/><path d="m160 24-120 104 120 208 120-208z" fill="#3a98e4"/><path d="m160 24-120 104h120z" fill="#f3db70"/><path d="m160 336v-208h120z" fill="#f3db70"/><path d="m480 264a8 8 0 0 0 -8-8h-48a88.111 88.111 0 0 0 -87.791 82l-28.093-16.86a8 8 0 0 0 -12.116 6.86v48a8 8 0 0 0 12.116 6.86l27.884-16.73v1.87a72.085 72.085 0 0 1 -65.695 71.707l16.555-27.591a8 8 0 0 0 -6.86-12.116h-48a8 8 0 0 0 -6.86 12.116l16.73 27.884h-1.87a72.116 72.116 0 0 1 -70.4-56.908l26.28 15.768a8 8 0 0 0 12.12-6.86v-48a8 8 0 0 0 -12.116-6.86l-27.884 16.73v-15.728l118.93-206.142a8 8 0 0 0 -1.691-10.043l-120-104a8 8 0 0 0 -10.478 0l-120 104a8 8 0 0 0 -1.691 10.043l118.93 206.142v15.728l-27.884-16.73a8 8 0 0 0 -12.116 6.86v48a8 8 0 0 0 12.116 6.86l28.92-17.352a88.139 88.139 0 0 0 86.964 74.492h1.87l-16.73 27.884a8 8 0 0 0 6.86 12.116h48a8 8 0 0 0 6.86-12.116l-16.86-28.093a88.111 88.111 0 0 0 82-87.791v-1.87l27.884 16.73a8 8 0 0 0 12.116-6.86v-48a8 8 0 0 0 -12.116-6.86l-27.591 16.56a72.085 72.085 0 0 1 71.707-65.7h48a8 8 0 0 0 8-8zm-288 94.129v19.742l-16.451-9.871zm-24-238.129v-78.48l90.554 78.48zm98.149 16-98.149 170.125v-170.125zm-114.149-16h-90.554l90.554-78.48zm0 16v170.125l-98.149-170.125zm-24 241.871v-19.742l16.451 9.871zm137.871 38.129-9.871 16.451-9.871-16.451zm-19.742 64 9.871-16.451 9.871 16.451zm65.871-118.129v-19.742l16.451 9.871zm64-19.742v19.742l-16.451-9.871z"/></svg>