<svg height="512" viewBox="0 0 60 60" width="512" xmlns="http://www.w3.org/2000/svg"><g id="007---Ladybird" fill="none"><g id="Icons" transform="translate(8 1)"><path id="Shape" d="m33 15.08h-22c0-3.81-.11-5 .34-6.67l7.07-7.07c1.5059812-.33147861 3.0516152-.44597002 4.59-.34.8743816.00119015 1.7449369.11547154 2.59.34l7.07 7.07c.45 1.69.34 2.59.34 6.67z" fill="#283593"/><path id="Shape" d="m30 15.08h-19c0-3.81-.11-5 .34-6.67l7.07-7.07c1.3632035-.40978485 2.8167965-.40978485 4.18 0l7.07 7.07c.45 1.69.34 2.59.34 6.67z" fill="#3f51b5"/><path id="Shape" d="m44 35c0 13.66-11.25 23.94-23.5 22.94-11.45-.8-20.5-10.77-20.5-22.94s9.05-22.14 20.5-22.94c12.25-1 23.5 9.28 23.5 22.94z" fill="#c81e1e"/><ellipse id="Oval" cx="20.5" cy="35" fill="#f44335" rx="20.5" ry="22.94"/><g fill="#3f51b5"><circle id="Oval" cx="13" cy="45" r="3"/><circle id="Oval" cx="9" cy="34" r="3"/><circle id="Oval" cx="14" cy="23" r="3"/><circle id="Oval" cx="31" cy="45" r="3"/><circle id="Oval" cx="35" cy="34" r="3"/><circle id="Oval" cx="30" cy="23" r="3"/></g><path id="Shape" d="m25 57.78c-1.9889701.2970502-4.0110299.2970502-6 0l3-45.78z" fill="#c81e1e"/><circle id="Oval" cx="15" cy="5" fill="#f5f5f5" r="5"/><path id="Shape" d="m34 5c.0095192 1.94115487-1.1053548 3.71238838-2.8597077 4.54330278-1.7543529.83091442-3.831087.57132262-5.326927-.66586588-1.4958401-1.23718851-2.1404143-3.22835305-1.6533653-5.1074369.6303402-2.43191563 2.9673556-4.01848011 5.4602338-3.70687033 2.4928782.31160977 4.3674465 2.42462221 4.3797662 4.93687033z" fill="#cfd8dc"/><path id="Shape" d="m31 5c.0045063 2.18739016-1.4133569 4.1237862-3.5 4.78-2.0915959-.649612-3.516971-2.58484725-3.516971-4.775s1.4253751-4.12538799 3.516971-4.775c2.0831174.6551101 3.5001328 2.58629965 3.5 4.77z" fill="#f5f5f5"/></g><g id="Layer_10" fill="#000"><path id="Shape" d="m1 37c.32 0 .13.07 3.83-1.8.39-.19.49-.12 2.18.22-.10037192 3.9805284.76424598 7.9262053 2.52 11.5l-2.19.87c-.68562148.2697019-1.24802353.7822709-1.58 1.44l-1.65 3.32c-.20135037.4835272.00451411 1.0404963.47193782 1.2768341.4674237.2363378 1.03801484.0719586 1.30806218-.3768341 1.81-3.62 1.72-3.62 2.19-3.8l2.41-1c4.0072716 6.9864095 11.4459238 11.295171 19.5 11.295171s15.4927284-4.3087615 19.5-11.295171l2.41 1c.47.18.38.18 2.19 3.8.1440974.3460386.4696151.5824323.8432591.6123817s.73266-.1515756.9300368-.4702434c.1973769-.3186678.1999648-.7209575.0067041-1.0421383l-1.65-3.32c-.3319765-.6577291-.8943785-1.1702981-1.58-1.44l-2.19-.87c1.767629-3.5706613 2.6426516-7.5168417 2.55-11.5 1.68-.33 1.79-.41 2.18-.22 3.73 1.88 3.5 1.8 3.82 1.8.4608398-.0027311.8601381-.3200462.96688-.7683619.1067418-.4483157-.1067173-.9115255-.51688-1.1216381l-3.39-1.7c-.5978533-.2945305-1.2755189-.3858222-1.93-.26l-1.27.26c-.4080052-3.9677773-1.7813244-7.7753049-4-11.09 3.24-1.32 3.14-1.32 3.53-1.22l4.41.9c.3572656.0714531.7255124-.0531204.9660254-.3267949s.3167526-.6548724.2-1c-.1167526-.3451277-.4087598-.601752-.7660254-.6732051l-4.42-.88c-1.16-.24-1.63.12-5.11 1.52-1.59811-2.0016847-3.5134992-3.7278997-5.67-5.11 0-3.47.08-4.2-.27-5.85.3240678-.40796093.5899383-.858931.79-1.34.7531657.43686652 1.6093171.66471327 2.48.66.5522847 0 1-.44771525 1-1s-.4477153-1-1-1c-.7452492.00311866-1.4624876-.28377671-2-.8.0234988-.40222249-.0067682-.80578231-.09-1.2 1.0925282.27852233 2.2374718.27852233 3.33 0 .3572656-.08574373.6416489-.35557314.7460254-.70784609.1043766-.35227296.0128891-.73347081-.24-1.00000002-.252889-.26652921-.6287598-.37789764-.9860254-.29215389-1.3742679.39271831-2.8530467.12284118-4-.73-2.0480467-2.57983722-5.792963-3.02619196-8.39-1-.7775099-.17780358-1.5724205-.26836301-2.37-.27-1.4456235-.0933487-2.8972497-.00262206-4.32.27-2.597037-2.02619196-6.3419533-1.57983722-8.39 1-1.1469533.85284118-2.6257321 1.12271831-4 .73-.5522847-.14635546-1.1186445.18271525-1.265.735s.1827153 1.11864454.735 1.265c1.0925282.27852233 2.2374718.27852233 3.33 0-.0774382.39502141-.1076501.79784697-.09 1.2-.5375124.51622329-1.2547508.80311866-2 .8-.5522847 0-1 .44771525-1 1s.4477153 1 1 1c.8706829.00471327 1.7268343-.22313348 2.48-.66.2000617.481069.4659322.93203907.79 1.34-.33 1.52-.27 1.84-.27 5.85-2.1580472 1.3881299-4.0735269 3.1211829-5.67 5.13-3.51-1.41-4-1.75-5.11-1.52l-4.42.86c-.3572656.0714531-.64927284.3280774-.76602542.6732051-.11675259.3451276-.04051302.7263255.2 1s.60875983.398248.96602542.3267949c4.83-1 4.61-1 5-.83l2.94 1.17c-2.21867561 3.3146951-3.59199485 7.1222227-4 11.09-2.73-.55-2-.6-6.59 1.7-.38901983.219568-.58523168.6705172-.48071901 1.1048254.10451268.4343083.48439801.7466244.93071901.7651746zm27.07 20.9 1.93-29.56 1.93 29.56c-1.2833827.1300055-2.5766173.1300055-3.86 0zm22.93-21.9c0 10.73-7.37 19.68-17.08 21.61l-2.85-43.61c11.08.61 19.93 10.24 19.93 22zm-10-30c0 2.209139-1.790861 4-4 4s-4-1.790861-4-4 1.790861-4 4-4 4 1.790861 4 4zm-18-4c2.209139 0 4 1.790861 4 4s-1.790861 4-4 4-4-1.790861-4-4 1.790861-4 4-4zm-2.95 9.22c2.3448325 1.3175927 5.2799974.9137561 7.1818767-.9881233 1.9018794-1.90187927 2.305716-4.83704421.9881233-7.1818767.9246614-.07575077 1.8532127-.09245134 2.78-.05h.78c-1.3964258 2.35790823-1.0178206 5.36232421.9199276 7.3000724 1.9377482 1.9377482 4.9421642 2.3163534 7.3000724.9199276.0635938 1.0557098.0635938 2.1142902 0 3.17-6.2860336-3.1859402-13.7139664-3.1859402-20 0-.0463276-1.0567216-.0296313-2.1152651.05-3.17zm8.88 2.78-2.85 43.61c-9.71-1.93-17.08-10.88-17.08-21.61 0-11.76 8.85-21.39 19.93-22z"/><path id="Shape" d="m21 42c-2.209139 0-4 1.790861-4 4s1.790861 4 4 4 4-1.790861 4-4-1.790861-4-4-4zm0 6c-1.1045695 0-2-.8954305-2-2s.8954305-2 2-2 2 .8954305 2 2-.8954305 2-2 2z"/><path id="Shape" d="m17 39c2.209139 0 4-1.790861 4-4s-1.790861-4-4-4-4 1.790861-4 4 1.790861 4 4 4zm0-6c1.1045695 0 2 .8954305 2 2s-.8954305 2-2 2-2-.8954305-2-2 .8954305-2 2-2z"/><path id="Shape" d="m22 28c2.209139 0 4-1.790861 4-4s-1.790861-4-4-4-4 1.790861-4 4 1.790861 4 4 4zm0-6c1.1045695 0 2 .8954305 2 2s-.8954305 2-2 2-2-.8954305-2-2 .8954305-2 2-2z"/><path id="Shape" d="m39 42c-2.209139 0-4 1.790861-4 4s1.790861 4 4 4 4-1.790861 4-4-1.790861-4-4-4zm0 6c-1.1045695 0-2-.8954305-2-2s.8954305-2 2-2 2 .8954305 2 2-.8954305 2-2 2z"/><path id="Shape" d="m39 35c0 2.209139 1.790861 4 4 4s4-1.790861 4-4-1.790861-4-4-4-4 1.790861-4 4zm4-2c1.1045695 0 2 .8954305 2 2s-.8954305 2-2 2-2-.8954305-2-2 .8954305-2 2-2z"/><path id="Shape" d="m38 28c2.209139 0 4-1.790861 4-4s-1.790861-4-4-4-4 1.790861-4 4 1.790861 4 4 4zm0-6c1.1045695 0 2 .8954305 2 2s-.8954305 2-2 2-2-.8954305-2-2 .8954305-2 2-2z"/><circle id="Oval" cx="24" cy="6" r="1"/><circle id="Oval" cx="36" cy="6" r="1"/></g></g></svg>