<svg id="Layer_3" enable-background="new 0 0 64 64" height="512" viewBox="0 0 64 64" width="512" xmlns="http://www.w3.org/2000/svg"><g><g><path d="m10 19 .576 2.303c.273 1.092.943 2.043 1.88 2.667.964.644 1.544 1.727 1.544 2.886 0 1.314-.742 2.515-1.917 3.102l-2.083 1.042-2.083-1.041c-1.175-.588-1.917-1.789-1.917-3.103 0-1.16.58-2.243 1.545-2.886.937-.624 1.607-1.575 1.88-2.667z" fill="#c18e59"/></g><g><path d="m18 50c-4.702-1.175-8-5.4-8-11.246v-11.754 1.37c0 6.755 2.916 13.182 8 17.63" fill="#efbe9a"/></g><g><path d="m57.277 44.916c-.798-1.197-2.141-1.916-3.58-1.916h-.722c.006.166.025.331.025.497v1.526c0 2.574-.876 5.071-2.484 7.081-.981 1.228-1.516 2.752-1.516 4.323 0 .377.088.748.256 1.085l.488.975c.168.338.256.709.256 1.086 0 .146-.018.288-.043.427h4.254c.988 0 1.789-.801 1.789-1.789v-.106c0-.678-.383-1.297-.989-1.6l-.022-.011c-.606-.303-.989-.922-.989-1.6 0-.563.265-1.093.716-1.431l1.563-1.172c1.083-.813 1.721-2.088 1.721-3.442v-1.546c0-.85-.251-1.68-.723-2.387z" fill="#efbe9a"/></g><g><path d="m18.723 44.916c.798-1.197 2.141-1.916 3.58-1.916h.722c-.006.166-.025.331-.025.497v1.526c0 2.574.876 5.071 2.484 7.081.981 1.228 1.516 2.752 1.516 4.323 0 .377-.088.748-.256 1.085l-.488.975c-.168.338-.256.709-.256 1.086 0 .146.018.288.043.427h-4.254c-.988 0-1.789-.801-1.789-1.789v-.106c0-.678.383-1.297.989-1.6l.022-.011c.606-.303.989-.922.989-1.6 0-.563-.265-1.093-.716-1.431l-1.563-1.172c-1.083-.813-1.721-2.088-1.721-3.442v-1.546c0-.85.251-1.68.723-2.387z" fill="#db9b7c"/></g><g><path d="m48 32 .406.406c2.941 2.941 4.594 6.931 4.594 11.092v1.526c0 2.574-.876 5.071-2.484 7.081-.981 1.227-1.516 2.751-1.516 4.322 0 .377.088.748.256 1.085l.488.975c.168.338.256.709.256 1.086 0 1.34-1.087 2.427-2.427 2.427h-5.745c-1.274 0-2.351-.842-2.705-2h-2.247c-.354 1.158-1.431 2-2.705 2h-5.745c-1.339 0-2.426-1.087-2.426-2.427 0-.377.088-.748.256-1.085l.488-.975c.168-.338.256-.709.256-1.086 0-1.571-.535-3.095-1.516-4.322-1.608-2.01-2.484-4.507-2.484-7.081v-1.526c0-4.16 1.653-8.15 4.594-11.092l.406-.406" fill="#db9b7c"/></g><g><path d="m48 32h-20l-.406.406c-2.941 2.941-4.594 6.931-4.594 11.091v1.526c0 2.574.876 5.071 2.484 7.081.853 1.067 1.345 2.362 1.465 3.714.837.108 1.684.182 2.551.182 10.77 0 19.5-8.507 19.5-19 0-1.589-.222-3.124-.599-4.599z" fill="#efbe9a"/></g><g><path d="m38 38 1.59-1.193c1.586-1.19 3.419-2.009 5.363-2.398 1.334-.267 2.56-.923 3.522-1.885.976-.976 1.524-2.3 1.524-3.68 0-.559-.09-1.115-.267-1.646l-.732-2.198h.764c1.37 0 2.623.774 3.236 2 .662-1.987 1-4.068 1-6.162v-1.838l2 1c0-3.884-1.322-7.652-3.748-10.685l-.252-.315 2-3c-1.987-.662-4.068-1-6.162-1h-1.838l2-3h-1c-3.246 0-6.404 1.053-9 3-2.596-1.947-5.754-3-9-3h-1l2 3h-1.838c-2.094 0-4.175.338-6.162 1l2 3-.252.315c-2.426 3.033-3.748 6.801-3.748 10.685l2-1v1.838c0 2.094.338 4.175 1 6.162.613-1.226 1.866-2 3.236-2h.764l-.733 2.199c-.177.53-.267 1.086-.267 1.645 0 1.38.548 2.704 1.524 3.68.962.962 2.188 1.618 3.522 1.885 1.944.389 3.777 1.208 5.363 2.398z" fill="#976947"/></g><g><path d="m50 12c0-2.442-.451-4.784-1.272-6.964-.297-.014-.593-.036-.89-.036h-1.838l1.61-2.416c-.105-.195-.209-.392-.32-.584h-.29c-3.246 0-6.404 1.053-9 3-2.596-1.947-5.754-3-9-3h-1l2 3h-1.838c-2.094 0-4.175.338-6.162 1l2 3-.252.315c-2.426 3.033-3.748 6.801-3.748 10.685l2-1v1.838c0 2.094.338 4.175 1 6.162.613-1.226 1.866-2 3.236-2h.764l-.733 2.199c-.177.53-.267 1.086-.267 1.645 0 1.38.548 2.704 1.524 3.68.168.168.353.314.536.463 12.167-.279 21.94-9.565 21.94-20.987z" fill="#c18e59"/></g><g><path d="m28 14.829c-1.165-.412-2-1.523-2-2.829 0-1.657 1.343-3 3-3 1.306 0 2.417.835 2.829 2" fill="#db9b7c"/></g><g><path d="m44.171 11c.412-1.165 1.523-2 2.829-2 1.657 0 3 1.343 3 3 0 1.306-.835 2.417-2 2.829" fill="#db9b7c"/></g><g><path d="m49 18c0-3.866-3.134-7-7-7-1.488 0-2.866.468-4 1.26-1.134-.792-2.512-1.26-4-1.26-3.866 0-7 3.134-7 7 0 3.105 2.023 5.734 4.822 6.65-.523.701-.822 1.5-.822 2.35 0 2.761 3.134 5 7 5s7-2.239 7-5c0-.85-.299-1.649-.822-2.35 2.799-.916 4.822-3.545 4.822-6.65z" fill="#efbe9a"/></g><g><path d="m40 25.003c0 1.105-.895 3-2 3s-2-1.895-2-3 .895-1 2-1 2-.105 2 1z" fill="#e0747c"/></g><g><path d="m34.171 63h-5.744c-1.889 0-3.427-1.538-3.427-3.427 0-.528.125-1.058.362-1.532l.487-.975c.099-.198.151-.419.151-.639 0-1.339-.46-2.652-1.297-3.697-1.743-2.18-2.703-4.916-2.703-7.706v-1.526c0-4.457 1.736-8.647 4.887-11.799l.406-.406 1.414 1.414-.406.406c-2.774 2.774-4.301 6.462-4.301 10.385v1.526c0 2.337.804 4.63 2.265 6.457 1.119 1.398 1.735 3.155 1.735 4.946 0 .528-.125 1.058-.362 1.532l-.487.975c-.099.198-.151.419-.151.639 0 .787.64 1.427 1.427 1.427h5.744c1.009 0 1.829-.82 1.829-1.829 0-.488-.19-.947-.536-1.293-1.589-1.588-2.464-3.702-2.464-5.949v-.342c0-.925-.174-1.83-.518-2.689-.885-2.213-2.188-4.19-3.875-5.876l-.314-.314 1.414-1.414.314.314c1.878 1.878 3.331 4.082 4.318 6.548.439 1.096.661 2.251.661 3.431v.342c0 1.713.667 3.324 1.878 4.536.724.723 1.122 1.684 1.122 2.706 0 2.112-1.717 3.829-3.829 3.829z"/></g><g><path d="m47.573 63h-5.744c-2.112 0-3.829-1.717-3.829-3.829 0-1.022.398-1.984 1.122-2.707 1.211-1.211 1.878-2.822 1.878-4.535v-.342c0-1.18.222-2.335.661-3.431.987-2.467 2.439-4.67 4.318-6.548l.314-.314 1.414 1.414-.314.314c-1.686 1.686-2.989 3.663-3.875 5.876-.344.859-.518 1.764-.518 2.689v.342c0 2.248-.875 4.361-2.464 5.95-.346.345-.536.804-.536 1.292 0 1.009.82 1.829 1.829 1.829h5.744c.787 0 1.427-.64 1.427-1.427 0-.22-.052-.441-.151-.639l-.487-.974c-.237-.475-.362-1.004-.362-1.533 0-1.792.616-3.548 1.735-4.947 1.461-1.826 2.265-4.119 2.265-6.456v-1.526c0-3.923-1.527-7.611-4.301-10.385l-.406-.406 1.414-1.414.406.406c3.151 3.151 4.887 7.342 4.887 11.799v1.526c0 2.79-.96 5.526-2.703 7.706-.837 1.045-1.297 2.358-1.297 3.697 0 .22.052.441.151.639l.487.974c.237.475.362 1.004.362 1.533 0 1.889-1.538 3.427-3.427 3.427z"/></g><g><path d="m26 61h-4.211c-1.538 0-2.789-1.251-2.789-2.789v-.105c0-1.063.591-2.019 1.542-2.494.291-.146.458-.417.458-.717 0-.247-.118-.483-.315-.631l-1.563-1.172c-1.329-.998-2.122-2.584-2.122-4.243v-1.546c0-1.05.308-2.067.891-2.941.985-1.479 2.635-2.362 4.412-2.362h.697v2h-.697c-1.107 0-2.134.55-2.748 1.471-.363.544-.555 1.178-.555 1.832v1.546c0 1.034.494 2.021 1.321 2.643l1.563 1.172c.699.524 1.116 1.357 1.116 2.231 0 1.063-.591 2.019-1.542 2.494-.291.145-.458.416-.458.716v.105c0 .436.354.79.789.79h4.211z"/></g><g><path d="m54.211 61h-4.211v-2h4.211c.435 0 .789-.354.789-.789v-.105c0-.301-.167-.571-.436-.706-.973-.487-1.564-1.442-1.564-2.505 0-.873.417-1.707 1.115-2.231l1.563-1.173c.828-.621 1.322-1.609 1.322-2.642v-1.546c0-.654-.192-1.288-.555-1.832-.613-.921-1.641-1.471-2.748-1.471h-.697v-2h.697c1.777 0 3.426.883 4.412 2.361.583.875.891 1.892.891 2.942v1.546c0 1.66-.793 3.246-2.121 4.242l-1.563 1.173c-.198.148-.316.383-.316.631 0 .301.167.571.436.706.973.486 1.564 1.441 1.564 2.504v.105c0 1.539-1.251 2.79-2.789 2.79z"/></g><g><path d="m38 39c-.211 0-.422-.067-.6-.2l-1.59-1.193c-1.458-1.093-3.173-1.859-4.959-2.217-1.532-.306-2.927-1.052-4.033-2.158-1.172-1.172-1.818-2.731-1.818-4.388 0-.667.107-1.327.318-1.961l.267-.802c-.726.184-1.344.673-1.691 1.367-.181.362-.566.573-.965.55-.404-.029-.75-.298-.878-.682-.697-2.093-1.051-4.273-1.051-6.478v-.22l-.553.276c-.31.154-.678.138-.973-.044-.294-.182-.474-.503-.474-.85 0-3.986 1.334-7.897 3.764-11.051l-1.596-2.394c-.173-.259-.215-.584-.114-.879.101-.294.334-.525.63-.624 2.084-.695 4.253-1.049 6.447-1.052l-.963-1.445c-.205-.307-.224-.701-.05-1.026.174-.326.513-.529.882-.529h1c3.193 0 6.361.98 9 2.772 2.639-1.792 5.807-2.772 9-2.772h1c.369 0 .708.203.882.528s.155.72-.05 1.026l-.963 1.446c2.195.003 4.364.357 6.447 1.051.296.099.529.33.63.624.101.295.059.62-.114.879l-1.596 2.394c2.43 3.155 3.764 7.066 3.764 11.052 0 .347-.18.668-.474.851-.295.182-.664.198-.973.044l-.553-.277v.22c0 2.206-.354 4.385-1.051 6.478-.128.384-.474.653-.878.682-.399.023-.784-.188-.965-.55-.347-.693-.965-1.183-1.691-1.367l.267.802c.211.634.318 1.294.318 1.961 0 1.657-.646 3.215-1.817 4.387-1.105 1.106-2.5 1.852-4.033 2.158-1.786.358-3.501 1.125-4.959 2.218l-1.591 1.193c-.178.133-.389.2-.6.2zm-11.764-15h.764c.321 0 .623.154.811.416.188.261.239.596.138.901l-.733 2.199c-.143.429-.216.876-.216 1.328 0 1.123.438 2.179 1.231 2.973.826.825 1.867 1.383 3.011 1.611 2.078.416 4.072 1.307 5.768 2.578l.99.744.99-.743c1.695-1.271 3.689-2.163 5.767-2.579 1.145-.229 2.186-.786 3.011-1.611.794-.794 1.232-1.85 1.232-2.973 0-.452-.073-.899-.216-1.33l-.733-2.198c-.102-.305-.05-.64.138-.901s.49-.415.811-.415h.764c1.028 0 1.995.333 2.779.924.304-1.339.457-2.707.457-4.086v-1.838c0-.347.18-.668.474-.851s.663-.198.973-.044l.466.233c-.32-3.055-1.514-5.989-3.442-8.399l-.252-.315c-.272-.34-.293-.817-.051-1.179l1.247-1.87c-1.495-.382-3.029-.575-4.577-.575h-1.838c-.369 0-.708-.203-.882-.528s-.155-.72.05-1.026l.944-1.417c-2.703.175-5.341 1.143-7.512 2.771-.355.267-.845.267-1.2 0-2.17-1.627-4.809-2.596-7.512-2.771l.944 1.417c.205.307.224.701.05 1.026s-.513.528-.882.528h-1.838c-1.548 0-3.083.193-4.577.575l1.247 1.87c.242.362.221.839-.051 1.179l-.252.315c-1.928 2.41-3.122 5.344-3.442 8.399l.466-.233c.31-.154.678-.138.973.044.294.183.474.504.474.851v1.838c0 1.379.153 2.748.457 4.086.784-.591 1.751-.924 2.779-.924z"/></g><g><path d="m38 33c-4.411 0-8-2.691-8-6 0-.635.133-1.264.39-1.862-2.668-1.344-4.39-4.08-4.39-7.138 0-4.411 3.589-8 8-8 1.415 0 2.785.37 4 1.075 1.215-.705 2.585-1.075 4-1.075 4.411 0 8 3.589 8 8 0 3.058-1.722 5.794-4.39 7.138.257.598.39 1.227.39 1.862 0 3.309-3.589 6-8 6zm-4-21c-3.309 0-6 2.691-6 6 0 2.6 1.661 4.891 4.133 5.7.306.1.545.342.643.648.097.307.04.642-.152.9-.414.555-.624 1.144-.624 1.752 0 2.168 2.748 4 6 4s6-1.832 6-4c0-.608-.21-1.197-.624-1.751-.192-.258-.25-.593-.152-.9.097-.307.336-.548.643-.648 2.472-.81 4.133-3.101 4.133-5.701 0-3.309-2.691-6-6-6-1.23 0-2.416.374-3.428 1.08-.344.24-.801.24-1.145 0-1.011-.706-2.197-1.08-3.427-1.08z"/></g><g><path d="m38 29.002c-1.804 0-3-2.408-3-4 0-.596.179-1.076.531-1.425.593-.589 1.417-.581 2.212-.576l.257.001.256-.001c.797-.001 1.62-.012 2.212.576.353.35.532.829.532 1.425 0 1.593-1.196 4-3 4zm-1-3.982c.009.819.682 1.94 1.003 1.983.315-.043.988-1.164.997-1.983-.188-.022-.503-.021-.728-.019l-.272.001-.272-.001c-.225-.002-.539-.004-.728.019z"/></g><g><path d="m37 28.002h2v3.998h-2z"/></g><g><path d="m36 18h-2c0-.551-.449-1-1-1s-1 .449-1 1h-2c0-1.654 1.346-3 3-3s3 1.346 3 3z"/></g><g><path d="m46 18h-2c0-.551-.449-1-1-1s-1 .449-1 1h-2c0-1.654 1.346-3 3-3s3 1.346 3 3z"/></g><g><path d="m27.667 15.772c-1.595-.564-2.667-2.08-2.667-3.772 0-2.206 1.794-4 4-4 1.692 0 3.208 1.072 3.772 2.667l-1.886.666c-.282-.797-1.039-1.333-1.886-1.333-1.103 0-2 .897-2 2 0 .847.536 1.604 1.333 1.886z"/></g><g><path d="m48.333 15.772-.666-1.886c.797-.282 1.333-1.039 1.333-1.886 0-1.103-.897-2-2-2-.847 0-1.604.536-1.886 1.333l-1.886-.666c.564-1.595 2.08-2.667 3.772-2.667 2.206 0 4 1.794 4 4 0 1.692-1.072 3.208-2.667 3.772z"/></g><g><path d="m17.341 46.752c-5.3-4.638-8.341-11.338-8.341-18.382v-1.37h2v1.37c0 6.468 2.792 12.619 7.659 16.878z"/></g><g><path d="m17.757 50.97c-5.319-1.33-8.757-6.125-8.757-12.216v-11.754h2v11.754c0 5.143 2.843 9.176 7.243 10.276z"/></g><g><path d="m10 32c-.153 0-.307-.035-.447-.105l-2.083-1.042c-1.523-.762-2.47-2.293-2.47-3.997 0-1.497.744-2.887 1.99-3.718.731-.487 1.251-1.225 1.464-2.078l.576-2.303c.111-.445.511-.757.97-.757s.859.312.97.757l.576 2.303c.213.853.733 1.59 1.464 2.078 1.246.831 1.99 2.221 1.99 3.718 0 1.704-.947 3.235-2.47 3.997l-2.083 1.042c-.14.07-.294.105-.447.105zm0-9.371c-.426.874-1.078 1.625-1.901 2.173-.688.459-1.099 1.227-1.099 2.054 0 .941.523 1.787 1.365 2.208l1.635.818 1.635-.818c.842-.42 1.365-1.267 1.365-2.208 0-.827-.411-1.595-1.099-2.054-.823-.548-1.475-1.299-1.901-2.173z"/></g><g><path d="m29 59h2v3h-2z"/></g><g><path d="m32 59h2v3h-2z"/></g><g><path d="m42 59h2v3h-2z"/></g><g><path d="m45 59h2v3h-2z"/></g></g></svg>