<svg enable-background="new 0 0 128 128" height="512" viewBox="0 0 128 128" width="512" xmlns="http://www.w3.org/2000/svg"><g id="Layer_36"><g id="Legs_6_"><g><g><path d="m103.2 87.2c-.1-1.6-1.4-2.9-3.1-2.8-1.6.1-2.9 1.4-2.8 3.1.2 3.8-1.3 4.7-1.8 5-3.3 2-10.8-.4-12.8-1.5-1.4-.8-3.2-.2-4 1.2s-.2 3.2 1.2 4c.5.3 1.5.7 2.8 1.2 4.1 1.5 11.2 3.1 16 .1 2.2-1.4 4.8-4.3 4.5-10.3z" fill="#ff0013"/><path d="m92 100.7c-4 0-7.8-1.2-9.8-1.9-1.2-.4-2.3-.9-3-1.3-1-.6-1.8-1.5-2.2-2.7s-.2-2.3.4-3.4c.6-1 1.5-1.8 2.7-2.2 1.1-.3 2.3-.2 3.4.4 2.2 1.2 8.9 3 11.3 1.5.8-.5 1.1-1.7 1.1-3.7-.1-2.5 1.8-4.5 4.3-4.6 1.2 0 2.3.4 3.2 1.2s1.4 1.9 1.4 3.1c.3 6.7-2.7 10-5.2 11.6-2.4 1.5-5 2-7.6 2zm-10.7-8.6c-.1 0-.3 0-.4.1-.4.1-.7.4-.9.7s-.2.7-.1 1.1.4.7.7.9c.4.2 1.3.6 2.5 1.1 2.3.8 10 3.2 14.7.3 2.7-1.7 4-4.8 3.8-9 0-.4-.2-.8-.5-1-.3-.3-.7-.4-1-.4-.4 0-.8.2-1 .5-.3.3-.4.7-.4 1.1.1 3.2-.7 5.2-2.5 6.4-4.1 2.5-12.4-.4-14.3-1.4-.1-.3-.3-.4-.6-.4z"/></g><g><path d="m97.7 119.7c-.7 1.5-2.5 2-4 1.3s-2-2.5-1.3-4c1.8-3.4.8-4.8.5-5.3-2.1-3.2-10-4.2-12.2-4-1.6.1-3-1.1-3.1-2.8-.1-1.6 1.1-3 2.8-3.1.6 0 1.7 0 3 .1 4.3.4 11.5 1.9 14.6 6.6 1.3 2.1 2.4 5.8-.3 11.2z" fill="#ff0013"/><path d="m95 122.8c-.7 0-1.4-.2-2-.5-2.2-1.1-3.1-3.8-1.9-6 .9-1.7 1.1-3 .6-3.8-1.5-2.4-8.4-3.5-10.9-3.3-1.2.1-2.3-.3-3.2-1.1s-1.4-1.9-1.5-3.1c-.2-2.5 1.7-4.6 4.2-4.7.8-.1 2 0 3.2.1 3.5.3 12 1.6 15.7 7.3 1.6 2.5 3 6.8-.1 12.8-.9 1.4-2.5 2.3-4.1 2.3zm-14-16.7c2.8 0 10.7 1 13.1 4.7 1.2 1.8 1 4-.4 6.8-.2.3-.2.7-.1 1.1s.4.7.7.9c.7.4 1.6.1 2-.6 2.4-4.7 1.5-7.9.3-9.7-3.1-4.7-11.1-5.7-13.5-5.9-1.3-.1-2.3-.1-2.8-.1-.8.1-1.4.7-1.4 1.6 0 .4.2.7.5 1s.7.4 1.1.4c.2-.2.4-.2.5-.2z"/></g><g><path d="m98.6 67.8c-.7-1.5-2.5-2-4-1.3s-2 2.5-1.3 4c1.8 3.4.8 4.8.5 5.3-2.1 3.2-10 4.2-12.2 4-1.6-.1-3 1.1-3.1 2.8-.1 1.6 1.1 3 2.8 3.1.6 0 1.7 0 3-.1 4.3-.4 11.5-1.9 14.6-6.6 1.4-2.1 2.5-5.8-.3-11.2z" fill="#ff0013"/><path d="m82 87.3c-.3 0-.6 0-.8 0-1.2-.1-2.3-.6-3.1-1.5s-1.2-2-1.1-3.2.6-2.3 1.5-3.1 2-1.2 3.2-1.1c2.5.1 9.3-1 10.9-3.4.5-.8.3-2-.6-3.8-1.1-2.2-.3-4.9 1.9-6 1.1-.5 2.3-.6 3.4-.3 1.1.4 2.1 1.1 2.6 2.2 3.1 6 1.8 10.2.1 12.8-3.7 5.6-12.2 7-15.7 7.3-.8 0-1.6.1-2.3.1zm-.5-6c-.4 0-.7.1-1 .4s-.5.6-.5 1 .1.8.4 1.1.6.5 1 .5c.5 0 1.5 0 2.8-.1 2.4-.2 10.4-1.3 13.5-5.9 1.7-2.6 1.6-6-.3-9.7-.2-.3-.5-.6-.9-.7s-.8-.1-1.1.1c-.7.4-1 1.3-.6 2 1.4 2.8 1.6 5 .4 6.8-2.7 3.8-11.5 4.7-13.7 4.5z"/></g></g><g><g><path d="m29 87.2c.1-1.6 1.4-2.9 3.1-2.8 1.6.1 2.9 1.4 2.8 3.1-.2 3.8 1.3 4.7 1.8 5 3.3 2 10.8-.4 12.8-1.5 1.4-.8 3.2-.2 4 1.2s.2 3.2-1.2 4c-.5.3-1.5.7-2.8 1.2-4.1 1.5-11.2 3.1-16 .1-2.1-1.4-4.7-4.3-4.5-10.3z" fill="#ff0013"/><path d="m40.2 100.7c-2.6 0-5.2-.5-7.5-1.9-2.5-1.6-5.5-4.9-5.2-11.6 0-1.2.6-2.3 1.4-3.1.9-.8 2-1.2 3.2-1.2 2.5.1 4.4 2.2 4.3 4.6-.1 2 .3 3.2 1.1 3.7 2.4 1.5 9.1-.4 11.3-1.5 1-.6 2.2-.7 3.4-.4 1.1.3 2.1 1.1 2.7 2.2.6 1 .7 2.3.4 3.4s-1.1 2.1-2.2 2.7c-.7.4-1.8.8-3 1.3-2 .6-5.9 1.8-9.9 1.8zm-8.2-14.8c-.4 0-.7.1-1 .4s-.5.6-.5 1c-.2 4.2 1.2 7.3 3.8 9 4.7 3 12.5.5 14.7-.3 1.2-.4 2.1-.8 2.5-1.1.3-.2.6-.5.7-.9s.1-.8-.1-1.1-.5-.6-.9-.7-.8-.1-1.1.1c-1.9 1-10.3 4-14.3 1.4-1.8-1.1-2.6-3.2-2.5-6.4.2-.7-.5-1.4-1.3-1.4z"/></g><g><path d="m34.6 119.7c.7 1.5 2.5 2 4 1.3s2-2.5 1.3-4c-1.8-3.4-.8-4.8-.5-5.3 2.1-3.2 10-4.2 12.2-4 1.6.1 3-1.1 3.1-2.8.1-1.6-1.1-3-2.8-3.1-.6 0-1.7 0-3 .1-4.3.4-11.5 1.9-14.6 6.6-1.3 2.1-2.5 5.8.3 11.2z" fill="#ff0013"/><path d="m37.2 122.8c-1.6 0-3.2-.9-4-2.4-3.1-6-1.8-10.3-.1-12.8 3.7-5.6 12.2-7 15.7-7.3 1.2-.1 2.4-.1 3.2-.1 2.5.2 4.3 2.3 4.2 4.7-.1 1.2-.6 2.3-1.5 3.1s-2 1.2-3.2 1.1c-2.5-.2-9.3 1-10.9 3.3-.5.8-.3 2 .6 3.8 1.1 2.2.3 4.9-1.9 6-.7.4-1.4.6-2.1.6zm-1.3-3.8c.4.7 1.3 1 2 .6.3-.2.6-.5.7-.9s.1-.8-.1-1.1c-1.4-2.8-1.6-5-.4-6.8 2.6-4 11.5-4.8 13.6-4.7.4 0 .8-.1 1.1-.4s.5-.6.5-1c.1-.8-.6-1.5-1.4-1.6-.5 0-1.5 0-2.8.1-2.4.2-10.4 1.3-13.5 5.9-1.2 2-2.1 5.2.3 9.9z"/></g><g><path d="m33.6 67.8c.7-1.5 2.5-2 4-1.3s2 2.5 1.3 4c-1.8 3.4-.8 4.8-.5 5.3 2.1 3.2 10 4.2 12.2 4 1.6-.1 3 1.1 3.1 2.8.1 1.6-1.1 3-2.8 3.1-.6 0-1.7 0-3-.1-4.3-.4-11.5-1.9-14.6-6.6-1.3-2.1-2.5-5.8.3-11.2z" fill="#ff0013"/><path d="m50.2 87.3c-.7 0-1.5 0-2.4-.1-3.5-.3-12-1.6-15.7-7.3-1.6-2.5-3-6.8.1-12.8.5-1.1 1.5-1.8 2.6-2.2s2.3-.3 3.4.3c1.1.5 1.8 1.5 2.2 2.6s.3 2.3-.3 3.4c-.9 1.7-1.1 3-.6 3.8 1.5 2.4 8.4 3.5 10.9 3.4 1.2-.1 2.3.3 3.2 1.1s1.4 1.9 1.5 3.1-.3 2.3-1.1 3.2-1.9 1.4-3.1 1.5c-.1 0-.4 0-.7 0zm-15.3-18.8c-1.9 3.7-2 7.1-.3 9.7 3.1 4.7 11.1 5.7 13.5 5.9 1.3.1 2.3.1 2.8.1.4 0 .7-.2 1-.5s.4-.7.4-1.1-.2-.7-.5-1-.7-.4-1.1-.4c-2.1.1-11-.7-13.6-4.7-1.2-1.8-1-4 .4-6.8.4-.7.1-1.6-.6-2-.3-.2-.7-.2-1.1-.1-.4.3-.7.5-.9.9z"/></g></g></g><g id="Tail_Fin"><path d="m74.4 105h-18s-12.9 11-5.1 18.1c6.2 5.7 14.1-4.5 14.1-4.5s7.9 10.2 14.1 4.5c7.7-7.1-5.1-18.1-5.1-18.1z" fill="#ff0013"/><path d="m65 116h.7c6.2 0 11.7-.6 15-3-2.1-4.4-6.3-8-6.3-8h-18s-4.2 3.6-6.3 8c3.2 2.3 8.7 3 14.9 3z" fill="#ba0009"/><path d="m55.5 126.3c-1.9 0-3.7-.7-5.2-2.1-2-1.9-3-4.1-3-6.7.1-6.8 7.8-13.4 8.1-13.7.3-.2.6-.4 1-.4h18c.4 0 .7.1 1 .4s8 6.9 8.1 13.7c0 2.6-1 4.8-3 6.7-1.7 1.6-3.7 2.3-5.9 2.1-3.9-.3-7.4-3.5-9.2-5.4-1.8 1.9-5.3 5.1-9.2 5.4-.3 0-.5 0-.7 0zm1.4-19.8c-1.5 1.4-6.6 6.4-6.7 11.1 0 1.7.6 3.1 2 4.4 1.1 1 2.3 1.4 3.6 1.3 3.4-.3 7.2-4.2 8.3-5.6.6-.7 1.8-.7 2.4 0 1.1 1.5 4.9 5.4 8.3 5.6 1.3.1 2.5-.3 3.6-1.3 1.4-1.3 2-2.7 2-4.4-.1-4.2-4.5-9.1-6.6-11.1z"/></g><g id="Body_31_"><g><path d="m65.7 91.4c-.1 0-.6 0-.7 0-10.1 0-18.2 6.5-18.2 12.1 0 7.8 8.2 9.5 18.2 9.5h.7c10.1 0 18.2-1.6 18.2-9.5 0-5.6-8.1-12.1-18.2-12.1z" fill="#ff0013"/><path d="m65.7 91.4c-.1 0-.6 0-.7 0-10.1 0-18.2 6.5-18.2 12.1 0 7.8 8.2 9.5 18.2 9.5h.7c10.1 0 18.2-1.6 18.2-9.5 0-5.6-8.1-12.1-18.2-12.1zm0 20.1c-.1 0-.5 0-.6 0-8.7 0-15.7-1.4-15.7-8.2 0-4.8 7-10.4 15.7-10.4h.6c8.7 0 15.7 5.6 15.7 10.4 0 6.8-7.1 8.2-15.7 8.2z" fill="#ba0009"/><path d="m65.6 96.6c-.1 0-.4 0-.4 0-6.2 0-11.2 4-11.2 7.4 0 4.8 5 5.8 11.2 5.8h.4c6.2 0 11.2-1 11.2-5.8 0-3.4-5-7.4-11.2-7.4z" fill="#f85e28"/><path d="m65.7 114.5h-.7c-9.2 0-19.7-1.2-19.7-11 0-6.3 8.6-13.6 19.7-13.6h.7c11.1 0 19.7 7.3 19.7 13.6 0 9.7-10.5 11-19.7 11zm-.7-21.6c-9 0-16.7 5.8-16.7 10.6 0 5.6 5 8 16.7 8h.7c11.7 0 16.7-2.4 16.7-8 0-4.8-7.7-10.6-16.7-10.6z"/></g><g><path d="m65.8 79.3c-.1 0-.7 0-.8 0-11.3 0-20.5 7.3-20.5 13.6 0 8.8 9.2 9.3 20.6 9.3h.8c11.3 0 20.5-.5 20.5-9.3-.1-6.2-9.3-13.6-20.6-13.6z" fill="#ff0013"/><path d="m65.8 79.3c-.1 0-.7 0-.8 0-11.3 0-20.5 7.3-20.5 13.6 0 8.8 9.2 9.3 20.6 9.3h.8c11.3 0 20.5-.5 20.5-9.3-.1-6.2-9.3-13.6-20.6-13.6zm0 21.5c-.1 0-.6 0-.7 0-9.8 0-17.9-.5-17.9-8.1 0-5.4 8-11.8 17.8-11.8h.7c9.8 0 17.8 6.4 17.8 11.8 0 7.6-7.9 8.1-17.7 8.1z" fill="#ba0009"/><path d="m65.6 86c-.1 0-.4 0-.5 0-6.7 0-12.1 4.3-12.1 8 0 5.2 5.5 5.5 12.2 5.5h.5c6.7 0 12.1-.3 12.1-5.5-.1-3.6-5.5-8-12.2-8z" fill="#f85e28"/><path d="m65.8 103.8h-.8c-9.8 0-22.1 0-22.1-10.8 0-7 9.6-15.1 22-15.1h.8c12.4 0 22 8.1 22 15.1.1 10.8-12.1 10.8-21.9 10.8zm-.8-23c-10.2 0-19 6.7-19 12.1 0 6.7 6.2 7.8 19.1 7.8h.8c13.1 0 19-1.1 19-7.8 0-5.4-8.8-12.1-19-12.1z"/></g><g><path d="m65.7 68.8c-.1 0-.6 0-.8 0-10.8 0-19.6 7-19.6 13 0 8.4 8.8 8.7 19.6 8.7h.8c10.8 0 19.6-.2 19.6-8.7 0-6-8.7-13-19.6-13z" fill="#ff0013"/><path d="m65.7 68.8c-.1 0-.6 0-.8 0-10.8 0-19.6 7-19.6 13 0 8.4 8.8 8.7 19.6 8.7h.8c10.8 0 19.6-.2 19.6-8.7 0-6-8.7-13-19.6-13zm0 20.2c-.1 0-.6 0-.7 0-9.4 0-17-.2-17-7.5 0-5.2 7.6-11.2 17-11.2h.7c9.4 0 17 6.1 17 11.2-.1 7.3-7.6 7.5-17 7.5z" fill="#ba0009"/><path d="m65.6 76.5c-.1 0-.4 0-.4 0-6.2 0-11.2 4-11.2 7.4 0 4.8 5 5 11.2 5h.4c6.2 0 11.2-.1 11.2-5 0-3.4-5-7.4-11.2-7.4z" fill="#f85e28"/><path d="m65.7 92h-.7c-10.4 0-21.1 0-21.1-10.2 0-6.7 9.2-14.5 21.1-14.5h.8c11.9 0 21.1 7.8 21.1 14.5-.1 10.2-10.8 10.2-21.2 10.2zm-.7-21.7c-9.7 0-18.1 6.3-18.1 11.5 0 6.7 6.8 7.2 18.1 7.2h.8c11.3 0 18.1-.5 18.1-7.2 0-5.2-8.4-11.5-18.1-11.5z"/></g></g><g id="Claws_1_"><g id="Claw_1"><path d="m44.1 61.7s-52.1-24.9-24.1-57.4l8.8 23.7s.3-17.1 2.1-18c3.2-1.5 11.5 9.7 8.9 22.9-1.9 10 7 16.7 7 16.7z" fill="#ff0013"/><path d="m44.1 61.7 2.8-12s-2.8-2.1-4.9-5.8c-1.7 4.8-2.7 10-3.2 14.9 3.1 1.8 5.3 2.9 5.3 2.9z" fill="#ba0009"/><path d="m33 16.1c.1-.6 1-.8 1.3-.2 1.3 2.4 3.3 7 2.4 9.6-1.2 3.7-3.7.2-4.2-2.1-.3-1.5.2-5.1.5-7.3z" fill="#f85e28"/><path d="m44.1 63.2c-.2 0-.4 0-.6-.1-1.3-.6-28.5-13.9-32.8-34.2-1.8-8.7.9-17.3 8.1-25.7.3-.4.9-.6 1.4-.5s1 .5 1.1 1l6.2 16.7c.7-10.7 2.2-11.4 2.8-11.7.7-.3 2.2-.7 4.3.9 4 3.1 8.8 12.7 6.8 23.6-1.7 8.9 6.3 15.1 6.4 15.2.5.4.7 1 .6 1.5l-2.8 12c-.1.4-.4.8-.8 1-.3.2-.5.3-.7.3zm-24.6-56c-5.3 7-7.3 14-5.8 21.1 3.3 16.1 23.4 27.9 29.3 31.1l2.2-9.3c-2.3-2-8.5-8.4-6.8-17.5 1.8-9.2-2-17-4.9-20-.8-.8-1.4-1.1-1.7-1.2-.8 1.9-1.3 9.9-1.5 16.6 0 .7-.5 1.3-1.2 1.5-.7.1-1.4-.3-1.7-1z"/><path d="m20.2 15.1c-.4-1.1-2.1-1-2.4.1-1.2 4.8-2.7 13.3 1 17.1 2.7 2.7 4.3 1.7 5.3.1 1.1-1.9 1.1-4.2.3-6.2z" fill="#f85e28"/></g><g id="Claw_2"><path d="m86.7 61.7s52.1-24.9 24.1-57.4l-8.9 23.7s-.3-17.1-2.1-18c-3.2-1.5-11.5 9.7-8.9 22.9 1.9 10-7 16.7-7 16.7z" fill="#ff0013"/><path d="m86.5 61.7-2.8-12s2.8-2.1 4.9-5.8c1.7 4.8 2.7 10 3.2 14.9-3.2 1.8-5.3 2.9-5.3 2.9z" fill="#ba0009"/><path d="m97.5 16.1c-.1-.6-1-.8-1.3-.2-1.3 2.4-3.3 7-2.4 9.6 1.2 3.7 3.7.2 4.2-2.1.4-1.5-.2-5.1-.5-7.3z" fill="#f85e28"/><path d="m110.3 15.1c.4-1.1 2.1-1 2.4.1 1.2 4.8 2.7 13.3-1 17.1-2.7 2.7-4.3 1.7-5.3.1-1.1-1.9-1.1-4.2-.3-6.2z" fill="#f85e28"/><path d="m86.7 63.2c-.2 0-.4 0-.6-.1-.4-.2-.7-.6-.8-1l-2.8-12c-.1-.6.1-1.2.6-1.5.1-.1 8.1-6.3 6.4-15.2-2.1-10.9 2.8-20.5 6.8-23.6 2.1-1.6 3.6-1.3 4.3-.9.7.3 2.1 1 2.7 11.8l6.2-16.7c.2-.5.6-.9 1.1-1s1.1.1 1.4.5c7.2 8.3 9.9 17 8.1 25.7-4.3 20-31.6 33.3-32.8 33.8-.2.1-.4.2-.6.2zm-1.2-13 2.2 9.3c6-3.2 26-15.1 29.4-31.1 1.5-7-.5-14.1-5.8-21.1l-8 21.3c-.3.7-1 1.1-1.7 1s-1.2-.7-1.2-1.5c-.1-6.7-.7-14.7-1.5-16.6-.3.1-.9.4-1.7 1.2-2.9 3-6.7 10.8-4.9 20 1.7 9-4.5 15.5-6.8 17.5z"/></g></g><g id="Head_45_"><g id="Antenna"><g><path d="m23.5 78.5c-.2 0-.3 0-.5 0-1.4-.3-2.2-1.6-2-2.9.3-1.7 7.9-40.8 22.2-52.8 4.4-3.7 8.4-4.8 12-3.4 6.8 2.7 8.4 13.7 8.5 14.9.2 1.4-.8 2.6-2.2 2.8s-2.6-.8-2.8-2.2c-.3-2.4-1.9-9.5-5.4-10.9-2.2-.8-5 .9-6.9 2.6-12.8 10.8-20.3 49.5-20.4 49.9-.2 1.1-1.3 2-2.5 2z" fill="#ff0013"/><path d="m23.5 80c-.3 0-.5 0-.8-.1-1.1-.2-2-.8-2.6-1.7s-.8-1.9-.6-3c.3-1.7 8-41.3 22.7-53.7 4.8-4.1 9.4-5.3 13.5-3.7 7.6 3 9.3 14.8 9.5 16.1.1 1.1-.2 2.1-.8 3-.7.8-1.6 1.4-2.7 1.5-1 .1-2.1-.1-2.9-.8-.9-.7-1.4-1.6-1.5-2.7-.4-2.9-2.1-8.7-4.5-9.7-1.1-.4-3.1.4-5.4 2.4-12.4 10.4-19.9 48.6-20 49-.3 2-2 3.4-3.9 3.4zm28.7-59.8c-2.4 0-5.1 1.2-8 3.6-13.8 11.7-21.3 50.4-21.7 52-.1.3 0 .5.2.8.1.2.4.4.6.4.5.1 1.1-.3 1.2-.8.3-1.6 7.8-39.7 21-50.8 3.3-2.8 6.2-3.7 8.4-2.8 5 2 6.3 12 6.3 12.1 0 .3.2.5.4.7s.5.2.7.2c.3 0 .5-.2.7-.4s.2-.5.2-.7c-.1-.5-1.5-11.3-7.6-13.7-.7-.4-1.5-.6-2.4-.6z"/></g><g><path d="m107.2 78.5h.5c1.4-.3 2.2-1.6 2-2.9-.3-1.7-7.9-40.8-22.2-52.8-4.4-3.7-8.4-4.8-12-3.4-6.9 2.6-8.4 13.6-8.6 14.8-.2 1.4.8 2.6 2.2 2.8s2.6-.8 2.8-2.2c.3-2.4 1.9-9.5 5.4-10.9 2.2-.8 5 .9 6.9 2.6 12.9 10.8 20.4 49.5 20.5 49.9.3 1.2 1.3 2.1 2.5 2.1z" fill="#ff0013"/><path d="m107.2 80c-1.9 0-3.6-1.4-3.9-3.2-.1-.4-7.6-38.6-20-49-2.3-1.9-4.3-2.8-5.4-2.3-2.4.9-4.1 6.8-4.5 9.7-.1 1.1-.7 2-1.5 2.7s-1.9.9-2.9.8-2-.7-2.6-1.5c-.7-.8-.9-1.9-.8-3 .2-1.3 1.8-13.1 9.5-16.1 4.1-1.6 8.7-.4 13.5 3.7 14.7 12.3 22.4 52 22.7 53.7.2 1 0 2.1-.6 3s-1.5 1.5-2.6 1.7c-.4-.2-.7-.2-.9-.2zm-28.7-57.8c1.9 0 4.2 1.1 6.7 3.2 13.2 11.1 20.7 49.1 21 50.8.1.5.6.9 1.2.8.3 0 .5-.2.6-.4.2-.2.2-.5.2-.7-.3-1.6-7.8-40.3-21.7-51.9-3.9-3.3-7.4-4.4-10.5-3.2-6.1 2.4-7.5 13.3-7.6 13.7 0 .3 0 .5.2.7s.4.3.7.4c.3 0 .5 0 .7-.2s.4-.4.4-.7c0-.1 1.3-10.1 6.3-12.1.6-.3 1.2-.4 1.8-.4z"/></g></g><g><path d="m87.3 64.9c0 14.7-9.8 15-22 15s-22-.2-22-15 6-38.3 22-38.3 22 23.6 22 38.3z" fill="#ff0013"/><path d="m65.4 26.5c-16 0-22 23.6-22 38.3s9.8 15 22 15 22-.2 22-15c-.1-14.6-6.1-38.3-22-38.3zm0 49.3c-10.8 0-18.5-.2-18.5-13.3s4.3-34 18.5-34 18.5 21 18.5 34c-.1 13.1-7.8 13.3-18.5 13.3z" fill="#ba0009"/><path d="m76 65.9c0 7.1-4.8 7.2-10.6 7.2s-10.7-.1-10.7-7.2 1.8-18.6 10.6-18.6 10.7 11.4 10.7 18.6z" fill="#f85e28"/><path d="m65.4 81.3c-11.5 0-23.5 0-23.5-16.5 0-15.4 6.4-39.8 23.5-39.8s23.5 24.4 23.5 39.8c-.1 16.5-12 16.5-23.5 16.5zm0-53.3c-14.1 0-20.5 21.5-20.5 36.8 0 12.8 7.4 13.5 20.5 13.5s20.5-.6 20.5-13.5c-.1-15.2-6.4-36.8-20.5-36.8z"/></g><g id="Eyes_26_"><circle cx="72" cy="34" r="3"/><circle cx="59" cy="34" r="3"/></g></g></g></svg>