<?xml version="1.0" encoding="iso-8859-1"?>
<!-- Generator: Adobe Illustrator 19.0.0, SVG Export Plug-In . SVG Version: 6.00 Build 0)  -->
<svg xmlns="http://www.w3.org/2000/svg" xmlns:xlink="http://www.w3.org/1999/xlink" version="1.1" id="Layer_1" x="0px" y="0px" viewBox="0 0 512 512" style="enable-background:new 0 0 512 512;" xml:space="preserve">
<path style="fill:#FFDF9F;" d="M164.423,374.156L42.44,496.139c-7.244,7.244-19.154,7.186-26.469-0.127l0,0  c-7.314-7.314-7.371-19.225-0.127-26.469l121.983-121.983L164.423,374.156z"/>
<circle style="fill:#FF7DBE;" cx="295.732" cy="216.295" r="205.826"/>
<path d="M441.296,192.807c-4.751,0-9.048-3.262-10.168-8.088c-14.686-63.253-70.365-107.43-135.402-107.43  c-5.77,0-10.448-4.678-10.448-10.448c0-5.77,4.678-10.448,10.448-10.448c36.329,0,71.896,12.516,100.15,35.242  c27.826,22.383,47.575,53.762,55.606,88.357c1.305,5.621-2.193,11.235-7.814,12.54C442.874,192.719,442.079,192.807,441.296,192.807  z"/>
<path d="M445.176,226.741c-5.77,0-10.448-4.678-10.448-10.448v-0.137c0-5.77,4.678-10.448,10.448-10.448  c5.77,0,10.448,4.678,10.448,10.448v0.137C455.624,222.062,450.946,226.741,445.176,226.741z"/>
<path d="M295.726,0.018c-119.254,0-216.274,97.02-216.274,216.274c0,49.092,16.452,94.407,44.118,130.747L8.457,462.153  c-5.491,5.49-8.494,12.823-8.457,20.647c0.038,7.786,3.086,15.102,8.583,20.598c5.497,5.498,12.812,8.545,20.598,8.583  c0.049,0,0.097,0,0.145,0c7.769,0,15.045-3,20.501-8.456l115.11-115.11c12.153,9.257,25.31,17.255,39.278,23.806  c0.114,0.057,0.226,0.119,0.341,0.177c0.002-0.005,0.003-0.009,0.005-0.015c27.72,12.939,58.609,20.182,91.164,20.182  C414.98,432.566,512,335.546,512,216.292S414.98,0.018,295.726,0.018z M35.052,488.75c-1.517,1.517-3.558,2.391-5.769,2.335  c-2.242-0.01-4.345-0.885-5.922-2.463c-1.578-1.578-2.452-3.681-2.464-5.923c-0.01-2.203,0.819-4.252,2.336-5.769l113.833-113.833  c3.787,4.09,7.729,8.033,11.819,11.821L35.052,488.75z M295.726,411.67c-29.633,0-57.74-6.643-82.927-18.5  c-73.57-37.79-103.145-128.224-65.89-202.24c14.259-28.331,38.698-49.413,68.815-59.364c30.118-9.95,62.306-7.576,90.637,6.683  c22.167,11.156,38.662,30.277,46.448,53.841s5.928,48.747-5.228,70.915c-17.907,35.578-61.419,49.955-96.998,32.046  c-27.432-13.807-38.518-47.36-24.711-74.792c10.528-20.917,36.111-29.37,57.028-18.842c15.704,7.904,22.051,27.112,14.147,42.816  c-2.594,5.155-0.519,11.435,4.636,14.031c5.156,2.593,11.436,0.519,14.03-4.636c6.339-12.593,7.394-26.902,2.97-40.289  c-4.423-13.387-13.794-24.25-26.388-30.589c-31.211-15.709-69.38-3.096-85.088,28.112c-18.987,37.725-3.742,83.864,33.982,102.851  c45.87,23.09,101.971,4.553,125.058-41.318c13.666-27.152,15.941-58.001,6.405-86.864c-9.536-28.863-29.741-52.284-56.894-65.951  c-33.317-16.768-71.169-19.559-106.587-7.858c-35.416,11.702-64.156,36.494-80.924,69.811  c-16.068,31.924-21.205,66.528-16.841,99.539c-7.15-20.284-11.054-42.084-11.054-64.783c0-107.732,87.646-195.378,195.378-195.378  s195.378,87.646,195.378,195.378S403.459,411.67,295.726,411.67z"/>
<g>
</g>
<g>
</g>
<g>
</g>
<g>
</g>
<g>
</g>
<g>
</g>
<g>
</g>
<g>
</g>
<g>
</g>
<g>
</g>
<g>
</g>
<g>
</g>
<g>
</g>
<g>
</g>
<g>
</g>
</svg>
