<svg id="Layer_3" enable-background="new 0 0 64 64" height="512" viewBox="0 0 64 64" width="512" xmlns="http://www.w3.org/2000/svg"><path d="m44 2h-24c-1.105 0-2 .895-2 2v4c0 1.105.895 2 2 2h24c1.105 0 2-.895 2-2v-4c0-1.105-.895-2-2-2z" fill="#c1c8d1"/><path d="m20 10h24v5h-24z" fill="#c7e2fc"/><path d="m45 14h-26c-4.418 0-8 3.582-8 8v32c0 4.418 3.582 8 8 8h26c4.418 0 8-3.582 8-8v-32c0-4.418-3.582-8-8-8z" fill="#c7e2fc"/><path d="m44.666 14h-25.666c-4.418 0-8 3.582-8 8v30.429c3.592 2.271 7.732 3.571 12.144 3.571 13.727 0 24.856-12.536 24.856-28 0-5.102-1.217-9.881-3.334-14z" fill="#ebf7fe"/><circle cx="45" cy="55" fill="#f5b953" r="3"/><circle cx="46" cy="45" fill="#f5b953" r="3"/><circle cx="38" cy="38" fill="#e47c6e" r="3"/><circle cx="19" cy="55" fill="#e47c6e" r="3"/><circle cx="36" cy="48" fill="#78b75b" r="3"/><circle cx="24" cy="32" fill="#78b75b" r="3"/><circle cx="20" cy="44" fill="#d6759e" r="5"/><circle cx="44" cy="23" fill="#d6759e" r="5"/><path d="m45 63h-26c-4.963 0-9-4.038-9-9v-32c0-4.962 4.037-9 9-9h26c4.963 0 9 4.038 9 9v32c0 4.962-4.037 9-9 9zm-26-48c-3.859 0-7 3.14-7 7v32c0 3.86 3.141 7 7 7h26c3.859 0 7-3.14 7-7v-32c0-3.86-3.141-7-7-7z"/><path d="m44 11h-24c-1.654 0-3-1.346-3-3v-4c0-1.654 1.346-3 3-3h24c1.654 0 3 1.346 3 3v4c0 1.654-1.346 3-3 3zm-24-8c-.552 0-1 .449-1 1v4c0 .551.448 1 1 1h24c.552 0 1-.449 1-1v-4c0-.551-.448-1-1-1z"/><path d="m21 2h2v8h-2z"/><path d="m25 2h2v8h-2z"/><path d="m29 2h2v8h-2z"/><path d="m33 2h2v8h-2z"/><path d="m37 2h2v8h-2z"/><path d="m41 2h2v8h-2z"/><path d="m19 10h2v4h-2z"/><path d="m43 10h2v4h-2z"/><path d="m20 50c-3.309 0-6-2.691-6-6s2.691-6 6-6 6 2.691 6 6-2.691 6-6 6zm0-10c-2.206 0-4 1.794-4 4s1.794 4 4 4 4-1.794 4-4-1.794-4-4-4z"/><path d="m14.343 43h11.314v2h-11.314z" transform="matrix(.707 -.707 .707 .707 -25.255 27.029)"/><path d="m28 44.515h2v16.971h-2z" transform="matrix(.707 -.707 .707 .707 -28.983 36.029)"/><path d="m44 29c-3.309 0-6-2.691-6-6s2.691-6 6-6 6 2.691 6 6-2.691 6-6 6zm0-10c-2.206 0-4 1.794-4 4s1.794 4 4 4 4-1.794 4-4-1.794-4-4-4z"/><path d="m43 17.343h2v11.314h-2z" transform="matrix(.707 -.707 .707 .707 -3.376 37.849)"/><path d="m26.515 31h16.971v2h-16.971z" transform="matrix(.707 -.707 .707 .707 -12.376 34.121)"/><path d="m45 59c-2.206 0-4-1.794-4-4s1.794-4 4-4 4 1.794 4 4-1.794 4-4 4zm0-6c-1.103 0-2 .897-2 2s.897 2 2 2 2-.897 2-2-.897-2-2-2z"/><path d="m46 49c-2.206 0-4-1.794-4-4s1.794-4 4-4 4 1.794 4 4-1.794 4-4 4zm0-6c-1.103 0-2 .897-2 2s.897 2 2 2 2-.897 2-2-.897-2-2-2z"/><path d="m36 52c-2.206 0-4-1.794-4-4s1.794-4 4-4 4 1.794 4 4-1.794 4-4 4zm0-6c-1.103 0-2 .897-2 2s.897 2 2 2 2-.897 2-2-.897-2-2-2z"/><path d="m38 42c-2.206 0-4-1.794-4-4s1.794-4 4-4 4 1.794 4 4-1.794 4-4 4zm0-6c-1.103 0-2 .897-2 2s.897 2 2 2 2-.897 2-2-.897-2-2-2z"/><path d="m24 36c-2.206 0-4-1.794-4-4s1.794-4 4-4 4 1.794 4 4-1.794 4-4 4zm0-6c-1.103 0-2 .897-2 2s.897 2 2 2 2-.897 2-2-.897-2-2-2z"/><path d="m19 59c-2.206 0-4-1.794-4-4s1.794-4 4-4 4 1.794 4 4-1.794 4-4 4zm0-6c-1.103 0-2 .897-2 2s.897 2 2 2 2-.897 2-2-.897-2-2-2z"/></svg>