<svg enable-background="new 0 0 128 128" height="512" viewBox="0 0 128 128" width="512" xmlns="http://www.w3.org/2000/svg"><g id="Monkey"><g id="Tail_10_"><path d="m89.5 112.8c-12.6 0-24.4-16-25.8-17.8-1.1-1.6-.8-3.8.8-4.9s3.8-.8 4.9.8c3 4.1 12.4 14.9 20.1 14.9 2.7 0 5-1.4 7-4.2 4.9-6.8 1.1-19.9-2.7-32.6-4.7-16.1-9.6-32.7 4.3-38 5.6-2.1 11.7-1.2 16.8 2.5 5.5 4 8.9 10.7 8.6 16.8-.1 1.9-1.8 3.4-3.7 3.3s-3.4-1.8-3.3-3.7c.2-3.7-2.1-8.1-5.7-10.7-1.8-1.3-5.6-3.3-10.2-1.6-7.3 2.8-4.9 13 0 29.5 4.2 14.3 8.6 29.2 1.6 38.7-4.3 5.7-9.3 7-12.7 7" fill="#c97f4e"/><path d="m122.5 39.9c-1.6-3-3.9-5.7-6.7-7.7-3.5-2.6-7.5-3.9-11.6-3.9-2.2 0-4.5.4-6.7 1.2-3.7 1.4-6.3 3.6-7.9 6.4s-2.2 6.1-2.2 9.6c0 3.6.6 7.5 1.6 11.5.9 4 2.1 8.2 3.3 12.3 1.2 4.2 2.5 8.4 3.4 12.4s1.5 7.8 1.5 11c0 3.3-.6 6-2 7.9-1 1.3-1.9 2.2-2.9 2.8s-1.9.8-3 .8c-1.6 0-3.4-.6-5.2-1.6-2.8-1.5-5.7-3.9-8.1-6.3s-4.4-4.9-5.5-6.3c-1-1.4-2.5-2.1-4.1-2.1-1 0-2 .3-2.9.9-1.4 1-2.1 2.5-2.1 4.1 0 1 .3 2 .9 2.9.7 1 4 5.5 8.8 9.8 2.4 2.2 5.2 4.3 8.2 5.9s6.4 2.7 9.8 2.7c1.9 0 4.2-.3 6.7-1.5 2.4-1.2 5-3.1 7.2-6.3 2.9-4 3.9-8.7 3.9-13.8 0-8.2-2.7-17.4-5.3-26.3-1.3-4.5-2.5-8.5-3.3-12s-1.3-6.5-1.3-8.8c0-1.9.3-3.4.9-4.5s1.4-1.8 2.8-2.3c1.1-.4 2.1-.6 3.1-.6 1.2 0 2.3.3 3.3.7s1.8.9 2.3 1.3c1.5 1.1 2.8 2.6 3.7 4.2s1.4 3.3 1.4 4.8v.4.3c0 2.6 2.1 4.8 4.7 5h.3c2.6 0 4.8-2.1 5-4.7 0-.3 0-.6 0-.9.5-3.1-.4-6.4-2-9.3zm-.5 10.1c-.1 1.1-.9 1.9-2 1.9h-.1c-1.1-.1-1.9-.9-1.9-2v-.1c0-.2 0-.4 0-.5 0-2.1-.7-4.3-1.8-6.3s-2.7-3.8-4.6-5.2c-.7-.5-1.7-1.2-3-1.7s-2.7-.9-4.4-.9c-1.3 0-2.7.2-4.2.8-1.9.7-3.4 2-4.3 3.7s-1.2 3.7-1.2 5.9c0 2.7.5 5.9 1.3 9.5s2 7.7 3.3 12.2c2.6 8.9 5.2 17.9 5.2 25.4 0 4.6-1 8.7-3.4 12-2 2.8-4.1 4.4-6.1 5.3s-3.9 1.2-5.4 1.2c-2.8 0-5.7-.9-8.5-2.4-4.1-2.2-7.9-5.5-10.8-8.5s-4.8-5.6-5.3-6.3c-.3-.4-.4-.8-.4-1.2 0-.6.3-1.2.8-1.6.4-.3.8-.4 1.2-.4.6 0 1.2.3 1.6.8 1.6 2.2 4.7 5.9 8.5 9.2 1.9 1.7 4 3.2 6.1 4.3s4.4 1.9 6.7 1.9c1.6 0 3.1-.4 4.5-1.3 1.4-.8 2.6-2.1 3.7-3.6 1.9-2.7 2.6-6 2.6-9.7 0-3.6-.7-7.5-1.6-11.7-1-4.1-2.2-8.4-3.4-12.6-1.2-4.1-2.4-8.2-3.3-12.1s-1.5-7.6-1.5-10.9c0-3.2.5-5.9 1.8-8.1s3.2-3.9 6.3-5.1c1.8-.7 3.7-1 5.6-1 3.4 0 6.8 1.1 9.8 3.3 2.4 1.8 4.4 4.1 5.8 6.7s2.2 5.4 2.2 8c.2.6.2.9.2 1.1z"/></g><g id="Body_18_"><path d="m74.7 97.3c-1.1-3.7-4-4-4-4s-6.4-1.2-12.7-1.3c-.2 0-.4 0-.6 0s-.4 0-.6 0c-6.4.1-12.8 1.3-12.8 1.3s-2.9.3-4 4c-2.3 8.1-1.9 23.1 6 23 2.2 0 3.9-2 3.9-6.2 2 .7 4.4 1.2 7.1 1.2 3 0 5.8-.6 7.9-1.5-.1 4.4 1.6 6.5 3.9 6.5 7.9 0 8.3-15 5.9-23z" fill="#c97f4e"/><path d="m74.8 97.3c-1.1-3.7-4-4-4-4s-6.4-1.2-12.8-1.3c-.2 0-.4 0-.6 0s-.4 0-.6 0c-6.3.1-12.8 1.3-12.8 1.3s-2.9.3-4 4c-.3 1-.5 2.1-.7 3.3 4.8 1.1 10.1 1.6 15.7 1.6h.5.5c7 0 13.6-.8 19.3-2.6-.1-.8-.3-1.6-.5-2.3z" fill="#b86538"/><path d="m76.2 96.8c-1.2-4.3-4.6-5-5.2-5.1-.5-.1-6.6-1.2-12.8-1.3h-.2-1.3-.2c-6.2.2-12.2 1.2-12.8 1.3s-4 .8-5.2 5.1c-1.7 5.8-2.3 16.8 1.7 22 1.4 1.9 3.4 2.9 5.7 2.9h.1c1.5 0 2.9-.7 3.9-2 .6-.8 1.2-2 1.4-3.7 1.7.4 3.7.6 5.7.6 2.4 0 4.6-.3 6.5-.8.2 1.8.8 3.1 1.4 3.9.9 1.3 2.3 1.9 3.9 2h.1c2.3 0 4.2-1 5.7-2.9 3.9-5.2 3.3-16.2 1.6-22zm-4.1 20.2c-.9 1.2-2 1.7-3.3 1.7-.6 0-1.1-.3-1.5-.8-.6-.7-1.7-3.2-.1-9.3.2-.8-.3-1.6-1.1-1.8s-1.6.3-1.8 1.1c-.5 1.8-.8 3.5-.9 4.8-1.8.6-4 1-6.4 1-2.1 0-4-.3-5.6-.8-.1-1.5-.4-3.1-.9-5.1-.2-.8-1-1.3-1.8-1.1s-1.3 1-1.1 1.8c.3 1.1.5 2.1.6 3 .2 1.5.3 2.6.2 3.5-.1 1.6-.6 2.5-.9 2.9-.4.5-.9.8-1.5.8-1.4 0-2.4-.5-3.3-1.7-2.9-3.8-3-13.3-1.2-19.4.7-2.6 2.5-2.9 2.7-2.9h.1c.1 0 6.4-1.2 12.5-1.3h.1.9.1c6.1.1 12.5 1.3 12.6 1.3.2 0 2 .3 2.7 2.9 1.9 6.2 1.8 15.6-1.1 19.4z"/></g><g id="Head_24_"><g><path d="m108.3 68.4c0 9.1-3.9 16.4-12.3 16.4-6.8 0-12.3-7.4-12.3-16.4 0-9.1 5.5-16.4 12.3-16.4 8.4-.1 12.3 7.3 12.3 16.4" fill="#c97f4e"/><path d="m106.5 55.9c-1.1-1.7-2.6-3-4.4-4s-3.9-1.5-6.2-1.5c-2 0-3.9.5-5.5 1.5-2.5 1.4-4.6 3.7-6 6.6-1.4 2.8-2.3 6.2-2.3 9.9 0 4.8 1.5 9.3 3.9 12.5 1.2 1.6 2.7 3 4.4 3.9s3.6 1.5 5.5 1.5c2.3 0 4.4-.5 6.2-1.5 2.7-1.4 4.6-3.8 5.8-6.7s1.8-6.2 1.8-9.8c.1-4.7-.9-9.1-3.2-12.4zm-2.5 23.3c-.9 1.3-2 2.3-3.3 3s-2.9 1.1-4.8 1.1c-1.4 0-2.8-.4-4.1-1.1-1.9-1.1-3.6-2.9-4.8-5.3s-1.9-5.3-1.9-8.5c0-4.2 1.3-8 3.3-10.7 1-1.3 2.2-2.4 3.5-3.1s2.6-1.1 4.1-1.1c1.9 0 3.5.4 4.8 1.1 2 1.1 3.5 2.8 4.5 5.2s1.6 5.4 1.6 8.6c-.1 4.3-1.1 8.1-2.9 10.8z"/><path d="m103.5 68.4c0 5.5-2.4 10-7.5 10-4.2 0-7.5-4.5-7.5-10s3.4-10 7.5-10c5.1 0 7.5 4.5 7.5 10" fill="#f9c0a7"/><path d="m102.9 60.5c-.7-1.1-1.7-2-2.9-2.6s-2.5-1-4.1-1c-1.3 0-2.6.4-3.7 1-1.7.9-3 2.4-3.9 4.3-.9 1.8-1.4 4-1.4 6.3 0 3.1.9 5.9 2.5 8 .8 1.1 1.8 1.9 2.9 2.6 1.1.6 2.4 1 3.7 1 1.5 0 2.9-.3 4.1-1 1.8-.9 3-2.5 3.8-4.4.8-1.8 1.1-4 1.1-6.2 0-3.1-.7-5.9-2.1-8zm-2.5 14.1c-.5.7-1.1 1.3-1.8 1.7s-1.6.6-2.6.6c-.8 0-1.5-.2-2.2-.6-1-.6-2-1.6-2.7-3s-1.1-3.1-1.1-4.9c0-2.5.8-4.7 1.9-6.2.6-.8 1.2-1.4 1.9-1.7.7-.4 1.4-.6 2.2-.6 1.1 0 1.9.2 2.6.6 1.1.6 1.9 1.5 2.5 2.9s.9 3.1.9 5c0 2.5-.6 4.8-1.6 6.2z"/></g><g><path d="m5.5 68.4c0 9.1 3.9 16.4 12.3 16.4 6.8 0 12.3-7.4 12.3-16.4 0-9.1-5.5-16.4-12.3-16.4-8.4-.1-12.3 7.3-12.3 16.4" fill="#c97f4e"/><path d="m27.8 55.9c-1.2-1.6-2.7-3-4.4-3.9s-3.6-1.5-5.5-1.5c-2.3 0-4.4.5-6.2 1.5-2.7 1.3-4.7 3.7-5.9 6.6s-1.8 6.2-1.8 9.8c0 4.8 1 9.1 3.3 12.5 1.1 1.7 2.6 3 4.4 4s3.9 1.5 6.2 1.5c2 0 3.9-.5 5.5-1.5 2.5-1.4 4.6-3.7 6-6.6 1.4-2.8 2.3-6.2 2.3-9.9 0-4.9-1.5-9.3-3.9-12.5zm-2.4 23.2c-1 1.3-2.2 2.4-3.5 3.1s-2.6 1.1-4.1 1.1c-1.9 0-3.5-.4-4.8-1.1-2-1.1-3.5-2.8-4.5-5.2s-1.6-5.4-1.6-8.6c0-4.3 1-8.2 2.8-10.8.9-1.3 2-2.3 3.3-3s2.9-1.1 4.8-1.1c1.4 0 2.8.4 4.1 1.1 1.9 1.1 3.6 2.9 4.8 5.3s1.9 5.3 1.9 8.5c.1 4.2-1.2 8-3.2 10.7z"/><path d="m10.3 68.4c0 5.5 2.4 10 7.5 10 4.2 0 7.5-4.5 7.5-10s-3.4-10-7.5-10c-5.1 0-7.5 4.5-7.5 10" fill="#f9c0a7"/><path d="m24.4 60.4c-.8-1.1-1.8-1.9-2.9-2.6-1.1-.6-2.4-1-3.7-1-1.5 0-2.9.3-4.1 1-1.8.9-3 2.5-3.8 4.4-.8 1.8-1.1 4-1.1 6.2 0 3 .6 5.8 2.1 7.9.7 1.1 1.7 2 2.9 2.6s2.5 1 4.1 1c1.3 0 2.6-.4 3.7-1 1.7-.9 3-2.4 3.9-4.3.9-1.8 1.4-4 1.4-6.3 0-3-1-5.8-2.5-7.9zm-2.4 14.2c-.6.8-1.2 1.4-1.9 1.7-.7.4-1.4.6-2.2.6-1.1 0-1.9-.2-2.6-.6-1.1-.6-1.9-1.5-2.5-2.9s-.9-3.1-.9-5c0-2.6.6-4.8 1.6-6.2.5-.7 1.1-1.3 1.8-1.7s1.6-.6 2.6-.6c.8 0 1.5.2 2.2.6 1 .6 2 1.6 2.7 3s1.1 3.1 1.1 4.9c0 2.5-.8 4.7-1.9 6.2z"/></g><g><path d="m95.8 69c0 20.4-17.5 28-39 28s-39-7.6-39-28c0-17.4 5.6-38.5 26.5-44.4 2-.6 4.2-1 6.5-1.3.9-.1 1.8-.2 2.8-.2 1.1-.1 2.1-.1 3.2-.1s2.2 0 3.2.1c.9.1 1.9.1 2.8.2 2.3.3 4.5.7 6.5 1.3 20.9 6 26.5 27.1 26.5 44.4" fill="#c97f4e"/><path d="m87.1 74.3c-1.3-.8-1.9-2.5-1.3-4 1-2.2 1.5-4.6 1.5-7.1 0-5.4-2.4-10.2-6.2-13.5-2.4-2.1-5.4-3.5-8.7-4-.9-.2-1.9-.2-2.8-.2-1.4 0-2.8.2-4.1.5-2.8.7-5.3 2-7.3 3.7-.2.2-.5.4-.7.6-.2-.2-.4-.4-.7-.6-2.1-1.8-4.6-3.1-7.3-3.7-1.3-.3-2.7-.5-4.1-.5-1 0-1.9.1-2.8.2-3.3.5-6.3 2-8.7 4-3.8 3.3-6.2 8.1-6.2 13.5 0 2.5.5 5 1.5 7.1.6 1.5.1 3.1-1.3 4-2.2 1.4-4.6 4.1-6.7 7.7 5.9 10.8 19.8 15 35.9 15h.5.5c16.2 0 30-4.3 35.9-15-2.3-3.6-4.7-6.3-6.9-7.7z" fill="#f9c0a7"/><path d="m56.8 92c-20.8 0-37.8-7.1-38.9-26 0 1-.1 2-.1 3 0 20.4 17.5 28 39 28s39-7.6 39-28c0-1 0-2-.1-3-1 18.9-18 26-38.9 26" fill="#b86538"/><path d="m93.3 81.1c-.5-.8-1-1.6-1.6-2.3-6.4 9.4-19.6 13.2-34.9 13.2-14.8 0-27.7-3.6-34.3-12.5-.5.8-1.1 1.6-1.6 2.5.1.2.2.3.3.5.2.4.4.7.7 1.1.2.3.4.5.5.8.2.3.4.5.6.8.3.4.7.8 1.1 1.2.2.2.4.4.6.6l.8.8c.2.1.3.3.5.4.6.5 1.2 1 1.8 1.4.1.1.2.2.3.2.4.3.8.5 1.2.8l.2.1c7 4.4 16.7 6.3 27.4 6.3 16.6 0 30.7-4.5 36.4-15.9z" fill="#f7ad90"/><path d="m56.8 23c-.6 0-1.2 0-1.8 0-.5 0-1 0-1.4.1-.3 0-.6 0-.9.1-.6 0-1.2.1-1.8.2-2.3.3-4.5.7-6.5 1.3-13.8 3.9-20.9 14.4-24.2 26-.3 1-.5 1.9-.7 2.9-.2 1.1-.5 2.2-.6 3.3-.2 1-.3 2-.4 3-.3 2.4-.5 4.8-.5 7.2 0-.4 0-.7 0-1.1.1 1.5.3 2.9.6 4.3 2.3-18 12-36.3 38.4-36.3s36 18.3 38.4 36.3c.3-1.4.5-2.8.6-4.3 0 1 .1 2 .1 3v1.2c0-.4 0-.8 0-1.1 0-.1 0-.1 0-.1 0-2.8-.2-5.6-.5-8.5-.1-1-.3-2-.4-3-.2-1.1-.4-2.2-.6-3.3-.2-1-.5-1.9-.7-2.9-.7-2.7-1.7-5.3-2.9-7.8-.7-1.4-1.4-2.8-2.2-4.1-4.1-6.5-10.2-11.8-19.1-14.3-2-.6-4.2-1-6.5-1.3-.6-.1-1.2-.1-1.8-.2-.3 0-.6 0-.9-.1-.5 0-1-.1-1.5-.1-.9-.3-1.5-.4-2.2-.4.1 0 .1 0 0 0" fill="#d38f5b"/><path d="m56.8 21.5c-36.5 0-40.5 33.2-40.5 47.5 0 8.7 3 15.6 8.8 20.6 6.8 5.8 17.5 8.9 31.7 8.9s24.8-3.1 31.7-8.9c5.8-4.9 8.8-11.9 8.8-20.6 0-14.2-3.9-47.5-40.5-47.5zm30.3 65.2c-.7.7-1.5 1.3-2.3 1.9-8.1 5.7-19.7 6.9-28 6.9s-19.8-1.2-27.9-6.9c-.8-.6-1.6-1.2-2.4-1.9-4.3-4-7.2-9.6-7.2-17.7 0-13.4 3.7-44.5 37.5-44.5s37.5 31.1 37.5 44.5c0 8.1-2.8 13.8-7.2 17.7z"/><path d="m50.8 26.5s-7.5-7.3-3.1-11.7c2.8-2.8 8.9 3 8.9 3s-4.3-10.3 2.5-10.3c10 0 9.5 13.9 6 19" fill="#d38f5b"/><path d="m51.9 25.4c-.1-.1-1.2-1.2-2.2-2.6-.5-.7-1-1.5-1.3-2.4-.3-.8-.5-1.6-.5-2.3 0-.4.1-.8.2-1.2s.4-.7.7-1.1c.1-.1.2-.2.4-.2.1 0 .3-.1.5-.1.4 0 1.1.2 1.7.5 1 .5 2.1 1.2 2.9 1.8.4.3.7.6 1 .8.1.1.2.2.3.2l.1.1c.5.5 1.3.5 1.9.1s.8-1.2.5-1.8c-.1-.1-.4-1-.7-2-.3-1.1-.6-2.4-.6-3.5 0-.5 0-.9.1-1.2.1-.5.3-.9.6-1.1s.7-.4 1.6-.4c1.3 0 2.3.3 3.1.7 1.2.7 2.1 1.7 2.7 3.2.6 1.4.9 3.2.9 5 0 1.5-.2 3.1-.6 4.5s-.9 2.6-1.4 3.4c-.5.7-.3 1.6.4 2.1s1.6.3 2.1-.4c.8-1.2 1.4-2.7 1.8-4.3s.7-3.4.7-5.2c0-2.8-.6-5.6-2.1-7.9-.7-1.4-1.8-2.4-3.1-3.1s-2.8-1-4.5-1c-.9 0-1.7.2-2.5.5-1.1.5-1.9 1.4-2.3 2.3-.4 1-.5 2-.5 2.9 0 1.7.4 3.3.7 4.6.4 1.3.7 2.1.7 2.1l1.4-.6 1-1.1s-1.1-1-2.6-2c-.7-.5-1.6-1-2.5-1.4s-1.9-.7-3-.7c-.5 0-1 .1-1.6.3-.5.2-1 .5-1.4.9-.6.6-1.1 1.4-1.4 2.1-.3.8-.4 1.5-.4 2.3 0 1.3.3 2.5.8 3.6.7 1.6 1.7 3.1 2.6 4.1.8 1 1.5 1.7 1.5 1.7.6.6 1.5.6 2.1 0 .8-.7.8-1.6.2-2.2z"/></g><g id="Eyes_15_"><circle cx="72.8" cy="74" r="3"/><circle cx="40.9" cy="74" r="3"/></g><path id="Mouth_6_" d="m64.5 90.3c-.8.3-1.6.5-2.5.5-2 0-3.7-.9-4.9-2.3-1.2 1.4-2.9 2.3-4.9 2.3-.9 0-1.7-.2-2.5-.5s-1.1-1.2-.8-2 1.2-1.1 2-.8c.4.2.9.3 1.3.3 1.4 0 2.5-.8 3.1-2 .2-.4.3-.9.3-1.4 0-.6.4-1.1.9-1.4.3.1.7.2 1 .2h.5c.4.3.7.7.7 1.3s.2 1.1.4 1.6c.6 1.1 1.7 1.8 3 1.8.5 0 .9-.1 1.3-.3.8-.3 1.6 0 2 .8.2.6-.1 1.5-.9 1.9z"/><g id="Nose_8_"><ellipse cx="57.1" cy="80" rx="4.4" ry="3.2"/><path d="m61.6 80h-1.5c0 .2 0 .3-.1.5-.2.3-.5.6-1 .8s-1.1.4-1.8.4c-.9 0-1.7-.3-2.2-.7-.3-.2-.4-.4-.5-.6s-.1-.3-.1-.5 0-.3.1-.5c.2-.3.5-.6 1-.8s1.1-.4 1.8-.4c.9 0 1.7.3 2.2.7.3.2.4.4.5.6s.1.3.1.5h1.5 1.5c0-.7-.2-1.4-.6-2-.5-.9-1.3-1.6-2.2-2-.9-.5-2-.7-3.1-.7-1.5 0-2.9.4-4 1.2-.5.4-1 .9-1.4 1.5-.3.6-.6 1.3-.6 2s.2 1.4.6 2c.5.9 1.3 1.6 2.2 2 .9.5 2 .7 3.1.7 1.5 0 2.9-.4 4-1.2.5-.4 1-.9 1.4-1.5.3-.6.6-1.3.6-2z"/></g></g></g></svg>