<?xml version="1.0" encoding="iso-8859-1"?>
<!-- Generator: Adobe Illustrator 21.0.0, SVG Export Plug-In . SVG Version: 6.00 Build 0)  -->
<svg version="1.1" id="Capa_1" xmlns="http://www.w3.org/2000/svg" xmlns:xlink="http://www.w3.org/1999/xlink" x="0px" y="0px"
	 viewBox="0 0 594.137 594.137" style="enable-background:new 0 0 594.137 594.137;" xml:space="preserve">
<g>
	<g>
		<g id="filled_outline_21_">
			<path style="fill:#754C30;" d="M495.175,264.07c-49.153,0-88.992,39.839-88.992,88.992s39.839,88.992,88.992,88.992
				s88.992-39.839,88.992-88.992S544.318,264.07,495.175,264.07z M495.175,402.502c-27.301,0-49.44-22.139-49.44-49.44
				s22.139-49.44,49.44-49.44s49.44,22.139,49.44,49.44S522.476,402.502,495.175,402.502z"/>
			<path style="fill:#C3C9D1;" d="M331.795,333.286h-80.627l-15.762-39.384c-4.46-11.154,0.969-23.81,12.123-28.28
				c2.571-1.028,5.31-1.552,8.079-1.552h33.768c8.909-0.03,16.928,5.389,20.201,13.675L331.795,333.286z"/>
			<polygon style="fill:#B7BDC4;" points="239.302,303.622 251.168,333.286 331.795,333.286 319.929,303.622 			"/>
			<path style="fill:#754C30;" d="M99.653,264.07c-49.153,0-88.992,39.839-88.992,88.992s39.839,88.992,88.992,88.992
				s88.992-39.839,88.992-88.992S148.797,264.07,99.653,264.07z M99.653,402.502c-27.301,0-49.44-22.139-49.44-49.44
				s22.139-49.44,49.44-49.44s49.44,22.139,49.44,49.44S126.954,402.502,99.653,402.502z"/>
			<path style="fill:#D0D7DF;" d="M139.206,224.517h-9.888v-59.328h9.888c16.384,0,29.664,13.28,29.664,29.664l0,0
				C168.87,211.228,155.59,224.517,139.206,224.517z"/>
			<path style="fill:#754C30;" d="M465.511,224.517h-4.143c-10.353,0-20.646,1.671-30.465,4.944l0,0
				c-9.819,3.273-20.112,4.944-30.465,4.944h-73.359l-12.053-39.552h85.413c10.353,0,20.646-1.671,30.465-4.944l0,0
				c9.819-3.273,20.112-4.944,30.465-4.944h4.143c10.926,0,19.776,8.85,19.776,19.776l0,0
				C485.287,215.658,476.427,224.517,465.511,224.517z"/>
			<rect x="346.854" y="333.286" style="fill:#B7BDC4;" width="158.209" height="39.552"/>
			<path style="fill:#4394CC;" d="M330.845,247.112l5.874,19.776c1.246,4.193,5.102,7.07,9.483,7.07h43.982
				c3.748,0,7.169-2.116,8.84-5.468l9.888-19.776c2.442-4.885,0.465-10.827-4.43-13.27c-1.374-0.682-2.877-1.038-4.41-1.038h-59.743
				c-5.458,0-9.888,4.42-9.888,9.888C330.43,245.243,330.569,246.192,330.845,247.112z"/>
			<path style="fill:#4394CC;" d="M327.078,234.405H198.534c-10.926,0-19.776-8.85-19.776-19.776v-9.888
				c0-21.843,17.709-39.552,39.552-39.552h39.552C296.089,165.189,327.078,196.178,327.078,234.405z"/>
			<path style="fill:#3E89BD;" d="M307.46,186.182l-10.501,1.315c-26.223,3.303-48.076,21.655-55.857,46.909h85.976
				C327.088,216.38,320.048,199.066,307.46,186.182z"/>
			<path style="fill:#3E89BD;" d="M402.731,234.761c-11.164,24.275-41.283,33.52-62.66,37.011c1.73,1.404,3.896,2.175,6.131,2.185
				h43.982c3.748,0,7.169-2.116,8.84-5.468l9.888-19.776c2.442-4.885,0.475-10.827-4.41-13.27
				C403.928,235.157,403.345,234.93,402.731,234.761z"/>
			<path style="fill:#C3C9D1;" d="M257.862,323.398h79.104c16.384,0,29.664,13.28,29.664,29.664l0,0
				c0,16.384-13.28,29.664-29.664,29.664h-79.104c-16.384,0-29.664-13.28-29.664-29.664l0,0
				C228.198,336.677,241.477,323.398,257.862,323.398z"/>
			<circle style="fill:#D0D7DF;" cx="257.862" cy="353.062" r="19.776"/>
			<path style="fill:#634129;" d="M167.357,295.385c-5.073,14.308-12.419,27.696-21.754,39.671
				c10.056,25.284-2.294,53.929-27.578,63.976c-19.163,7.624-41.045,2.502-54.829-12.835c-14.021,3.678-28.349,6.081-42.805,7.159
				c22.218,43.814,75.742,61.316,119.556,39.097s61.316-75.742,39.097-119.556C175.86,306.618,171.935,300.734,167.357,295.385
				L167.357,295.385z"/>
			<path style="fill:#634129;" d="M562.878,295.385c-5.073,14.308-12.419,27.696-21.754,39.671
				c10.056,25.284-2.294,53.929-27.578,63.976c-19.163,7.624-41.045,2.502-54.829-12.835c-14.021,3.678-28.349,6.081-42.805,7.159
				c22.218,43.814,75.742,61.316,119.556,39.097s61.316-75.742,39.097-119.556C571.382,306.618,567.456,300.734,562.878,295.385
				L562.878,295.385z"/>
			<path d="M495.175,254.182c-43.23-0.178-81.487,27.924-94.263,69.216h-15.495l38.138-81.725c3.51-0.791,7.001-1.691,10.432-2.828
				c8.83-2.947,18.075-4.45,27.38-4.44h63.471c5.458,0,9.888-4.43,9.888-9.888s-4.43-9.888-9.888-9.888h-13.665l2.739-5.468
				c0.208-0.415,0.386-0.85,0.534-1.295c1.345-4.034,5.122-6.763,9.374-6.763h5.527v-19.776h-5.498
				c-12.489,0-23.632,7.821-27.884,19.559l-0.989,1.918c-0.989-15.564-13.873-27.686-29.466-27.726h-4.143
				c-11.431,0-22.782,1.839-33.619,5.448c-8.81,2.937-18.026,4.44-27.311,4.44h-80.924c-14.98-18.738-37.664-29.654-61.652-29.664
				H218.31c-9.404,0.02-18.609,2.749-26.51,7.851l5.933-13.843l-18.174-7.792l-11.401,26.638
				c-7.416-8.158-17.927-12.825-28.952-12.854h-9.888c-5.458,0-9.888,4.43-9.888,9.888v59.328c0,5.458,4.43,9.888,9.888,9.888h9.888
				c0.198,0,0.376,0,0.574-0.059l-10.462,24.394C77.069,242.148,21.261,271.051,4.679,323.299s12.311,108.047,64.559,124.639
				c52.248,16.592,108.047-12.311,124.639-64.559c14.298-45.02-5.112-93.877-46.405-116.807l18.253-42.578l0,0l53.237,136.9h0.119
				c3.728,18.461,19.954,31.731,38.781,31.721h79.104c9.542-0.04,18.748-3.55,25.887-9.888h38.059
				c16.384,52.09,71.896,81.042,123.986,64.658c52.09-16.384,81.042-71.896,64.658-123.986
				C576.603,282.175,538.375,254.152,495.175,254.182z M139.206,353.062c0,21.843-17.709,39.552-39.552,39.552
				s-39.552-17.709-39.552-39.552c0-21.843,17.709-39.552,39.552-39.552c1.987,0.049,3.975,0.247,5.933,0.603l-15.02,35.053
				l18.174,7.792l15.01-35.033C133.451,329.34,139.166,340.84,139.206,353.062z M178.758,353.062
				c0.138,43.824-35.281,79.46-79.104,79.599s-79.46-35.28-79.599-79.104s35.28-79.46,79.104-79.599
				c7.545-0.02,15.05,1.028,22.298,3.125l-7.91,18.372c-31.869-7.723-63.966,11.856-71.688,43.725s11.856,63.966,43.725,71.688
				s63.966-11.856,71.688-43.725c5.953-24.572-4.301-50.211-25.551-63.896l7.91-18.332
				C163.827,299.083,178.718,325.01,178.758,353.062z M149.499,211.663c-3.085,1.928-6.655,2.957-10.293,2.966v-39.552
				c9.295,0.01,17.324,6.487,19.301,15.564L149.499,211.663z M390.184,264.07H346.3l-5.933-19.776h59.704L390.184,264.07z
				 M400.437,204.741c11.431,0,22.782-1.839,33.619-5.448c8.81-2.937,18.026-4.44,27.311-4.44h4.143c5.458,0,9.888,4.43,9.888,9.888
				s-4.43,9.888-9.888,9.888h-9.888c-0.484,0.059-0.959,0.158-1.424,0.287c-8.988,0.593-17.868,2.334-26.421,5.162
				c-8.81,2.947-18.046,4.44-27.34,4.44h-64.154c-0.85-6.783-2.581-13.438-5.142-19.776
				C331.142,204.741,400.437,204.741,400.437,204.741z M319.702,244.294l9.641,32.482c0.069,0.237,0.227,0.425,0.316,0.653
				l10.936,36.447c-1.216-0.109-2.383-0.366-3.629-0.366h-13.082l-14.308-35.765c-2.274-5.626-6.823-10.026-12.518-12.123
				c0.218-1.167,0.336-2.343,0.356-3.53v-17.798H319.702z M302.585,313.51h-38.029l-10.788-26.955
				c-0.405-1.018,0.089-2.165,1.107-2.571c0.237-0.089,0.485-0.138,0.732-0.138h33.768c0.811,0,1.543,0.494,1.839,1.246
				L302.585,313.51z M188.646,214.629v-9.888c0-16.384,13.28-29.664,29.664-29.664h39.552c19.489,0.059,37.703,9.72,48.669,25.828
				l7.198,23.613H198.534C193.076,224.517,188.646,220.088,188.646,214.629z M211.536,287.168l-16.81-43.26
				c1.256,0.218,2.531,0.346,3.807,0.386h79.104v17.798c0,1.088-0.89,1.978-1.978,1.978l0,0h-20.053
				c-11.253-0.03-20.646,8.563-21.625,19.776h-11.717C218.438,283.875,214.711,285.032,211.536,287.168z M222.265,303.622h17.027
				l4.944,12.439c-4.934,1.819-9.463,4.598-13.319,8.177L222.265,303.622z M257.862,372.838c-10.926,0-19.776-8.85-19.776-19.776
				s8.85-19.776,19.776-19.776c10.926,0,19.776,8.85,19.776,19.776S268.778,372.838,257.862,372.838z M356.277,357.245
				c-0.069,0.297-0.188,0.574-0.277,0.87c-0.831,3.006-2.334,5.784-4.41,8.108c-0.049,0.069-0.099,0.138-0.138,0.208
				c-3.718,4.074-8.968,6.398-14.486,6.407h-45.05c7.327-12.162,7.327-27.39,0-39.552h45.05c5.517,0.01,10.768,2.334,14.486,6.407
				c0.04,0.069,0.089,0.138,0.138,0.208c2.076,2.324,3.579,5.102,4.41,8.108c0.089,0.297,0.208,0.574,0.277,0.87
				C356.9,351.628,356.9,354.486,356.277,357.245z M352.233,283.846h29.852l-18.174,38.939L352.233,283.846z M375.233,362.95
				c0.089-0.346,0.129-0.702,0.208-1.048c0.148-0.643,0.267-1.285,0.376-1.978c0.939-4.568,0.939-9.275,0-13.843
				c-0.099-0.564-0.168-1.117-0.287-1.661h0.059l0.633-1.246h118.953v19.776H375.233z M505.063,323.398H469.07l0,0
				c1.612-1.404,3.332-2.67,5.152-3.787c0.573-0.356,1.167-0.653,1.76-0.989c1.305-0.742,2.66-1.404,4.054-1.978
				c0.692-0.297,1.404-0.564,2.116-0.811c1.434-0.494,2.887-0.91,4.371-1.236c0.672-0.148,1.325-0.336,1.978-0.445
				c2.205-0.405,4.44-0.623,6.674-0.643c21.843,0,39.552,17.709,39.552,39.552c0,21.843-17.709,39.552-39.552,39.552
				c-2.215-0.01-4.43-0.218-6.605-0.613c-0.682-0.109-1.335-0.297-1.978-0.445c-1.483-0.326-2.937-0.742-4.371-1.236
				c-0.712-0.247-1.424-0.514-2.116-0.811c-1.394-0.574-2.749-1.236-4.054-1.978c-0.593-0.326-1.187-0.623-1.76-0.989
				c-1.829-1.127-3.56-2.403-5.181-3.817l0,0h35.953c5.458,0,9.888-4.43,9.888-9.888v-39.552
				C514.951,327.818,510.521,323.398,505.063,323.398z M495.175,432.166c-32.275,0.138-61.345-19.47-73.31-49.44h21.981
				c0.188,0.336,0.435,0.623,0.633,0.989c0.583,0.989,1.226,1.849,1.859,2.769c0.929,1.355,1.869,2.699,2.907,3.955
				c0.722,0.88,1.483,1.721,2.254,2.561c1.068,1.177,2.165,2.314,3.332,3.392c0.84,0.791,1.711,1.543,2.591,2.274
				c1.216,0.989,2.452,1.978,3.738,2.848c0.939,0.663,1.879,1.305,2.858,1.918c1.345,0.831,2.729,1.582,4.143,2.304
				c0.989,0.514,1.978,1.048,2.966,1.503c1.503,0.672,3.055,1.226,4.618,1.76c0.989,0.356,1.978,0.751,3.036,1.048
				c1.75,0.504,3.54,0.85,5.34,1.196c0.9,0.168,1.78,0.415,2.69,0.544c32.423,4.697,62.522-17.779,67.219-50.211
				c4.697-32.423-17.779-62.522-50.211-67.219c-5.646-0.821-11.371-0.821-17.017,0c-0.91,0.129-1.78,0.376-2.68,0.544
				c-1.8,0.336-3.599,0.692-5.359,1.196c-0.989,0.297-1.978,0.692-2.966,1.038c-1.562,0.544-3.115,1.098-4.628,1.77
				c-0.989,0.455-1.978,0.989-2.966,1.503c-1.414,0.722-2.798,1.473-4.143,2.304c-0.989,0.613-1.918,1.256-2.858,1.918
				c-1.315,0.9-2.561,1.849-3.738,2.848c-0.88,0.732-1.75,1.483-2.591,2.274c-1.157,1.078-2.264,2.215-3.332,3.392
				c-0.771,0.84-1.533,1.681-2.254,2.561c-0.989,1.276-1.978,2.62-2.907,3.955c-0.633,0.92-1.276,1.809-1.859,2.769
				c-0.198,0.336-0.445,0.623-0.633,0.989h-22.031c16.375-40.501,62.482-60.07,102.984-43.695s60.07,62.482,43.695,102.984
				C556.461,412.608,527.429,432.176,495.175,432.166z"/>
		</g>
	</g>
</g>
<g>
</g>
<g>
</g>
<g>
</g>
<g>
</g>
<g>
</g>
<g>
</g>
<g>
</g>
<g>
</g>
<g>
</g>
<g>
</g>
<g>
</g>
<g>
</g>
<g>
</g>
<g>
</g>
<g>
</g>
</svg>
