<?xml version="1.0" encoding="UTF-8"?>
<svg xmlns="http://www.w3.org/2000/svg" viewBox="0 0 64 64" width="512" height="512"><g id="Artboard_01" data-name="Artboard 01"><circle cx="12" cy="40" r="10" style="fill:#ccc"/><circle cx="52" cy="40" r="10" style="fill:#ccc"/><circle cx="52" cy="40" r="7.696" style="fill:#f2f2f2"/><circle cx="12" cy="40" r="7.696" style="fill:#f2f2f2"/><path d="M47,18H37l7.617-3.824A1.646,1.646,0,0,1,47,15.649Z" style="fill:#ccc"/><path d="M52.1,36.005,33.087,34.1a6.021,6.021,0,0,0-.984-.1h0c-.034,0-.066-.005-.1-.005a6,6,0,0,0,0,12c.034,0,.066-.005.1-.005h0a6.059,6.059,0,0,0,.988-.1L52,44a4,4,0,0,0,.1-7.995ZM28,40a4,4,0,0,1,3.975-4l.849.084a4,4,0,0,1,0,7.825l-.85.085A4,4,0,0,1,28,40Zm23.9,2.005-15.043,1.5a5.959,5.959,0,0,0,0-7.02L52,38a2,2,0,0,1,2,2A2.033,2.033,0,0,1,51.9,42.005Z" style="fill:#4d4d4d"/><path d="M52.9,39.572,44,20.775V18H42v1.962l-24.789-.918L17.98,15.2,16.02,14.8l-5,25,1.96.392,3.58-17.9L31,40.351V48H29v2h6V48H33V41H52a1,1,0,0,0,.9-1.428ZM18.145,21.08l23.157.858-9.435,16.3ZM33.734,39l9.178-15.851L50.42,39Z" style="fill:#1f5389"/><rect x="29" y="48" width="6" height="2" style="fill:#333"/><path d="M10,20H9a3,3,0,0,1,0-6H21v2H9a1,1,0,0,0,0,2h1Z" style="fill:#3a3a3a"/><path d="M52,29a10.931,10.931,0,0,0-3.78.683L44,20.775V19h3a1,1,0,0,0,1-1V15.649a2.646,2.646,0,0,0-3.832-2.367l-7.616,3.824A1,1,0,0,0,37,19h5v.962l-24.789-.918L17.822,16H21V14H9a3,3,0,0,0,0,6h1V18H9a1,1,0,0,1,0-2h6.781L13.17,29.064a11.02,11.02,0,1,0,1.96.395L16.562,22.3l10.97,13.712A5.983,5.983,0,0,0,31,45.91V48H29v2h6V48H33V45.91c.033-.006.067-.009.1-.016v0l9.106-.914A11,11,0,1,0,52,29ZM45.066,15.07a.645.645,0,0,1,.63.029.638.638,0,0,1,.306.55V17H41.223ZM21,40a9,9,0,1,1-9-9c.261,0,.518.017.773.039L11.022,39.8l1.961.392,1.754-8.768A9.013,9.013,0,0,1,21,40Zm16.91-1a5.959,5.959,0,0,0-1.054-2.511l4.585.458A10.875,10.875,0,0,0,41.053,39Zm-4.843-2.837-1.2,2.07-1.5-1.876A3.965,3.965,0,0,1,32,36,3.924,3.924,0,0,1,33.069,36.163ZM33,43.858V41H35.86A3.993,3.993,0,0,1,33,43.858ZM33.737,39l1.069-1.847A3.991,3.991,0,0,1,35.86,39Zm19.169.572-.737-1.555A2,2,0,0,1,54,40a2.033,2.033,0,0,1-2.1,2.005l-8.431.843A8.929,8.929,0,0,1,43.061,41H52a1,1,0,0,0,.9-1.428ZM50.422,39H43.061a8.958,8.958,0,0,1,.412-1.851l6.374.636Zm-6.039-3.767a9.051,9.051,0,0,1,2.892-2.877L48.85,35.68Zm-2.174-.218-5.828-.583,6.533-11.284,3.5,7.393A11.055,11.055,0,0,0,42.209,35.015ZM41.3,21.938,34.2,34.214l-1.1-.11v0a5.91,5.91,0,0,0-4.012.653L18.147,21.08ZM28,40a3.964,3.964,0,0,1,.81-2.387L31,40.351v3.507A4,4,0,0,1,28,40Zm8.857,3.51A5.967,5.967,0,0,0,37.912,41h3.141a10.933,10.933,0,0,0,.389,2.051ZM52,49a8.993,8.993,0,0,1-7.621-4.236L52,44a4,4,0,0,0,.109-7.995H52.1l-.93-.093L49.081,31.5A9,9,0,1,1,52,49Z"/></g></svg>
