<svg height="512" viewBox="0 0 64 64" width="512" xmlns="http://www.w3.org/2000/svg"><g id="_25-Lamp" data-name="25-Lamp"><path d="m38 7v7h-12v-7z" fill="#2b75ad"/><path d="m38 7v3h-12v-3z" fill="#1f5f8f"/><path d="m42 7h-20s0-6 6-6h8c6 0 6 6 6 6z" fill="#19cffc"/><path d="m32 1h-4c-6 0-6 6-6 6h4s0-6 6-6z" fill="#4ab8f7"/><path d="m44 18h-24s0-4 4-4h16c4 0 4 4 4 4z" fill="#80dbff"/><path d="m28 14h-4c-4 0-4 4-4 4h4s0-4 4-4z" fill="#19cffc"/><path d="m48 25h-32a9.458 9.458 0 0 1 4-7h24a9.458 9.458 0 0 1 4 7z" fill="#19cffc"/><path d="m24 18h-4a9.458 9.458 0 0 0 -4 7h4a9.458 9.458 0 0 1 4-7z" fill="#4ab8f7"/><path d="m15 59h34v4h-34z" fill="#19cffc"/><path d="m15 59h4v4h-4z" fill="#4ab8f7"/><path d="m35 54h9c5 0 5 5 5 5h-34s0-5 5-5z" fill="#80dbff"/><path d="m24 54h-4c-5 0-5 5-5 5h4s0-5 5-5z" fill="#19cffc"/><path d="m35 49v5h-6v-5z" fill="#a37862"/><path d="m36 42a4 4 0 0 1 -8 0c0-4 4-8 4-8s4 4 4 8z" fill="#fa732d"/><path d="m32 44a4 4 0 0 1 -3.893-3.111 6.593 6.593 0 0 0 -.107 1.111 4 4 0 0 0 8 0 6.593 6.593 0 0 0 -.107-1.111 4 4 0 0 1 -3.893 3.111z" fill="#e56022"/><path d="m32 46a4 4 0 0 0 4-4c0-4-4-8-4-8s-4 4-4 8a4 4 0 0 0 4 4zm8 4c0 2-4 4-4 4h-1v-5h-6v5h-1s-4-2-4-4v-21c0-2 4-4 4-4h8s4 2 4 4z" fill="#ffc170"/><path d="m32 48a4 4 0 0 0 4-4 6.593 6.593 0 0 0 -.107-1.111 3.991 3.991 0 0 1 -7.786 0 6.593 6.593 0 0 0 -.107 1.111 4 4 0 0 0 4 4z" fill="#ffac5a"/><path d="m36 25h-8s-4 2-4 4v2c0-2 4-4 4-4h8s4 2 4 4v-2c0-2-4-4-4-4z" fill="#ffac5a"/><path d="m23 25h5s-4 2-4 4v21c0 2 4 4 4 4h-5s-5 0-5-5v-19s0-5 5-5z" fill="#ffcf94"/><path d="m23 27h2.118a13.527 13.527 0 0 1 2.882-2h-5c-5 0-5 5-5 5v2s0-5 5-5z" fill="#ffc170"/><path d="m46 30v19c0 5-5 5-5 5h-5s4-2 4-4v-21c0-2-4-4-4-4h5c5 0 5 5 5 5z" fill="#ffcf94"/><path d="m41 25h-5a13.527 13.527 0 0 1 2.882 2h2.118c5 0 5 5 5 5v-2s0-5-5-5z" fill="#ffc170"/><path d="m49 64h-34a1 1 0 0 1 -1-1v-4a1 1 0 0 1 1-1h34a1 1 0 0 1 1 1v4a1 1 0 0 1 -1 1zm-33-2h32v-2h-32z"/><path d="m48 59a3.85 3.85 0 0 0 -4-4h-24c-3.955 0-4 3.837-4 4h-2a5.785 5.785 0 0 1 6-6h24a5.785 5.785 0 0 1 6 6h-1z"/><path d="m41 55v-2a3.85 3.85 0 0 0 4-4v-19a3.85 3.85 0 0 0 -4-4h-18c-3.955 0-4 3.837-4 4v19c0 3.954 3.837 4 4 4v2a5.785 5.785 0 0 1 -6-6v-19a5.785 5.785 0 0 1 6-6h18a5.785 5.785 0 0 1 6 6v19a5.785 5.785 0 0 1 -6 6z"/><path d="m48 26h-7v-2h5.867a8.8 8.8 0 0 0 -3.209-5h-23.316a8.789 8.789 0 0 0 -3.208 5h5.866v2h-7a1 1 0 0 1 -1-1 10.417 10.417 0 0 1 4.4-7.8 1 1 0 0 1 .6-.2h24a1 1 0 0 1 .6.2 10.417 10.417 0 0 1 4.4 7.8 1 1 0 0 1 -1 1z"/><path d="m43 18.006a2.854 2.854 0 0 0 -3-3.006h-16a2.854 2.854 0 0 0 -3 3.006l-2-.006a4.821 4.821 0 0 1 5-5h16a4.821 4.821 0 0 1 5 5h-1z"/><path d="m39 14h-2v-6h-10v6h-2v-7a1 1 0 0 1 1-1h12a1 1 0 0 1 1 1z"/><path d="m42 8h-4v-2h2.9a4.587 4.587 0 0 0 -4.9-4h-8a4.587 4.587 0 0 0 -4.895 4h2.895v2h-4a1 1 0 0 1 -1-1c0-2.421 1.463-7 7-7h8c5.537 0 7 4.579 7 7a1 1 0 0 1 -1 1z"/><path d="m47.707 56.707-1.414-1.414 5.707-5.707v-31.586c0-4.788-6.225-6.74-7.134-7h-6.866v-2h7a1 1 0 0 1 .243.03c.357.089 8.757 2.27 8.757 8.97v32a1 1 0 0 1 -.293.707z"/><path d="m16.293 56.707-6-6a1 1 0 0 1 -.293-.707v-32c0-6.7 8.4-8.881 8.757-8.97a1 1 0 0 1 .243-.03h7v2h-6.866c-.909.26-7.134 2.212-7.134 7v31.586l5.707 5.707z"/><path d="m36.447 54.9-.9-1.79c1.453-.729 3.453-2.21 3.453-3.11v-21c0-.9-2-2.381-3.448-3.105l.9-1.79c.756.38 4.548 2.403 4.548 4.895v21c0 2.492-3.792 4.515-4.553 4.9z"/><path d="m27.553 54.9c-.761-.385-4.553-2.408-4.553-4.9v-21c0-2.492 3.792-4.515 4.553-4.895l.895 1.79c-1.448.724-3.448 2.205-3.448 3.105v21c0 .9 2 2.381 3.448 3.1z"/><path d="m32 47a5.006 5.006 0 0 1 -5-5c0-4.364 4.118-8.532 4.293-8.707a1 1 0 0 1 1.414 0c.175.175 4.293 4.343 4.293 8.707a5.006 5.006 0 0 1 -5 5zm0-11.5c-1.076 1.287-3 3.944-3 6.5a3 3 0 0 0 6 0c0-2.557-1.924-5.214-3-6.5z"/><path d="m31 41h2v8h-2z"/><path d="m36 54h-2v-4h-4v4h-2v-5a1 1 0 0 1 1-1h6a1 1 0 0 1 1 1z"/><path d="m21 20h2v2h-2z"/><path d="m25 20h2v2h-2z"/><path d="m29 20h2v2h-2z"/><path d="m33 20h2v2h-2z"/><path d="m37 20h2v2h-2z"/><path d="m41 20h2v2h-2z"/></g></svg>