<svg id="Filled" height="512" viewBox="0 0 512 512" width="512" xmlns="http://www.w3.org/2000/svg"><path d="m487 200-151 16h-160l-151-16 79 208h304z" fill="#2e79b5"/><path d="m487.5 200.5-80 207h-303l-80-207 231.5 102.78z" fill="#3a98e4"/><path d="m364.07 255.3-108.07 47.98-108.07-47.98 108.07-151.3z" fill="#3385c8"/><path d="m364.07 255.3-99.23 44.06-8.84 3.92-8.84-3.92-99.23-44.06 100.07-140.1 8-11.2 8 11.2z" fill="#3385c8"/><path d="m493.517 194.207a7.99 7.99 0 0 0 -6.354-2.155v-.008l-147.363 15.512-77.29-108.206a8 8 0 0 0 -13.02 0l-77.29 108.206-147.363-15.512v.008a7.991 7.991 0 0 0 -8.295 10.842l80.5 207.5a8 8 0 0 0 7.458 5.106h303a8 8 0 0 0 7.458-5.106l80.5-207.5a8 8 0 0 0 -1.941-8.687zm-54.945 19.04-71.859 31.99-16.226-22.718zm-190.572 77.714-87.795-39.083 87.795-122.914zm16-162 87.8 122.914-87.8 39.086zm-118.713 116.275-71.859-31.989 88.085 9.272zm258.662 149.3-47.431-32.453a8 8 0 1 0 -9.036 13.2l35.389 24.217h-118.871v-23.5a8 8 0 0 0 -16 0v23.5h-118.871l35.389-24.213a8 8 0 1 0 -9.036-13.2l-47.431 32.453-69.572-179.34 200.937 89.451-51.934 35.533a8 8 0 1 0 9.036 13.2l51.482-35.217v25.833a8 8 0 0 0 16 0v-25.833l51.482 35.225a8 8 0 1 0 9.036-13.2l-51.934-35.533 200.937-89.459z"/></svg>