<svg height="512" viewBox="0 0 48 48" width="512" xmlns="http://www.w3.org/2000/svg"><g id="Line"><path d="m28.924 2.617c-.154-.373-.52-.617-.924-.617h-4c-.314 0-.611.148-.8.4-2.415 3.14-2.647 7.322-1.148 10.916.135.409.517.684.948.684.906-.066 2.371.228 2.764-.354.313-.331.24-.825.152-1.23-.528-3.176.515-6.432 2.791-8.709.286-.286.372-.716.217-1.09z" fill="#609c48"/><path d="m40.419 15c-1.817-1.934-4.28-3-6.935-3-1.476.012-3.237-.082-4.637.408h-9.695c-.892-.271-1.822-.408-2.765-.408h-1.871c-5.338-.121-9.951 4.788-9.497 10.109 0 0 .935 14.969.935 14.969.314 5.003 4.485 8.922 9.497 8.922 1.126-.053 4.681.17 5.707-.218h5.684c1.017.402 4.606.152 5.707.218 5.012 0 9.184-3.919 9.497-8.922l.936-14.969c.164-2.65-.746-5.174-2.563-7.109z" fill="#c64f50"/><path d="m31.871 15c-2.269-2.525-5.536-3.214-8.807-3-5.338-.122-9.953 4.789-9.497 10.109 0 0 .935 14.969.935 14.969.313 5.003 4.485 8.922 9.498 8.922s9.185-3.919 9.497-8.922l.936-14.969c.166-2.649-.745-5.173-2.562-7.109z" fill="#e26667"/><path d="m33.484 12c-1.536.001-3.34-.075-4.791.456-.731.354-1.876-.476-2.816-.408-.392-3.058.641-6.152 2.83-8.341.286-.286.372-.716.217-1.09-.154-.373-.52-.617-.924-.617h-4c-.314 0-.611.148-.8.4-2.075 2.767-2.661 6.378-1.567 9.66l.018.055c-.813-.021-1.644.704-2.344.341-1.448-.529-3.263-.461-4.791-.456-5.338-.121-9.951 4.788-9.497 10.109 0 0 .935 14.969.935 14.969.314 5.003 4.485 8.922 9.497 8.922h4.242c1.177 0 1.768-.352 1.768-.352 2.349.677 4.268.225 5.078 0 .531.28 1.169.334 1.768.352h4.242c5.012 0 9.184-3.919 9.497-8.922l.936-14.969c.452-5.32-4.158-10.231-9.498-10.109zm-8.966-8h1.359c-1.59 2.328-2.309 5.167-2.02 8h-.137c-1.035-2.64-.786-5.646.798-8zm-9.067 40c-3.959 0-7.253-3.095-7.501-7.047l-.935-14.968c-.358-4.202 3.284-8.081 7.501-7.985h1.871c1.422-.049.168.405-.258 1.001-1.817 1.935-2.728 4.459-2.562 7.109l.936 14.969c.176 2.822 1.581 5.298 3.672 6.922h-2.724zm1.048-7.047-.936-14.969c-.359-4.201 3.284-8.081 7.501-7.984h1.871c4.216-.096 7.86 3.782 7.501 7.984 0 0-.935 14.969-.935 14.969-.848 9.325-14.151 9.334-15.002 0zm24.486-14.969-.935 14.969c-.248 3.952-3.542 7.047-7.501 7.047h-2.724c2.091-1.623 3.495-4.1 3.672-6.922l.936-14.969c.166-2.649-.744-5.174-2.562-7.109-.416-.582-1.685-1.058-.258-1h1.871c4.217-.096 7.86 3.783 7.501 7.984z"/></g></svg>