<svg id="fill" height="512" viewBox="0 0 64 64" width="512" xmlns="http://www.w3.org/2000/svg"><rect fill="#bbf9ff" height="39" rx="3.94" width="58" x="3" y="12"/><path d="m57.06 49h-50.12a3.94 3.94 0 0 1 -3.94-3.94v2a3.94 3.94 0 0 0 3.94 3.94h50.12a3.94 3.94 0 0 0 3.94-3.94v-2a3.94 3.94 0 0 1 -3.94 3.94z" fill="#03b3e2"/><path d="m57.06 12h-50.12a3.94 3.94 0 0 0 -3.94 3.94v16.06h58v-16.06a3.94 3.94 0 0 0 -3.94-3.94z" fill="#e94561"/><path d="m3 30h58v2h-58z" fill="#895e7a"/><g fill="#35d7fd"><path d="m11 37h2v12h-2z"/><path d="m19 37h2v12h-2z"/><path d="m27 37h2v12h-2z"/><path d="m35 37h2v12h-2z"/><path d="m43 37h2v12h-2z"/><path d="m51 37h2v12h-2z"/></g><path d="m31 21h2v8h-2z" fill="#895e7a"/><path d="m30 25h4v2h-4z" fill="#ffd257"/><path d="m25 21h2v8h-2z" fill="#895e7a"/><path d="m24 23h4v2h-4z" fill="#ffd257"/><path d="m37 21h2v8h-2z" fill="#895e7a"/><path d="m36 24h4v2h-4z" fill="#ffd257"/><circle cx="51" cy="22" fill="#ffe8ae" r="7"/><circle cx="51" cy="22" fill="#895e7a" r="6"/><path d="m57 22a6 6 0 0 1 -12 0z" fill="#aa889f"/><circle cx="51" cy="22" fill="#ffe8ae" r="2"/><circle cx="51" cy="22" fill="#ffe8ae" r="2"/><path d="m51.82 20.18a1.992 1.992 0 0 1 -2.64 2.64 2 2 0 1 0 2.64-2.64z" fill="#ffd257"/><circle cx="13" cy="22" fill="#ffe8ae" r="7"/><circle cx="13" cy="22" fill="#895e7a" r="6"/><path d="m27 12h10v4h-10z" fill="#58a066"/><path d="m10 32h4v8h-4z" fill="#7dd491"/><path d="m14 39a3 3 0 0 1 -3-3v-4h3z" fill="#c6ec6b"/><path d="m18 32h4v8h-4z" fill="#7dd491"/><path d="m26 32h4v8h-4z" fill="#7dd491"/><path d="m34 32h4v8h-4z" fill="#7dd491"/><path d="m42 32h4v8h-4z" fill="#7dd491"/><path d="m50 32h4v8h-4z" fill="#7dd491"/><path d="m22 39a3 3 0 0 1 -3-3v-4h3z" fill="#c6ec6b"/><path d="m30 39a3 3 0 0 1 -3-3v-4h3z" fill="#c6ec6b"/><path d="m38 39a3 3 0 0 1 -3-3v-4h3z" fill="#c6ec6b"/><path d="m46 39a3 3 0 0 1 -3-3v-4h3z" fill="#c6ec6b"/><path d="m54 39a3 3 0 0 1 -3-3v-4h3z" fill="#c6ec6b"/><path d="m19 22a6 6 0 0 1 -12 0z" fill="#aa889f"/><circle cx="13" cy="22" fill="#ffe8ae" r="2"/><path d="m13.82 20.18a1.992 1.992 0 0 1 -2.64 2.64 2 2 0 1 0 2.64-2.64z" fill="#ffd257"/><path d="m5 36.21v-1.469a.741.741 0 0 1 .741-.741h1.469a.741.741 0 0 1 .524 1.266l-1.468 1.468a.741.741 0 0 1 -1.266-.524z" fill="#fff"/><rect fill="#fff" height="5" rx="1.2" width="3" x="5" y="39"/><path d="m57.06 11h-50.12a4.945 4.945 0 0 0 -4.94 4.94v31.12a4.945 4.945 0 0 0 4.94 4.94h50.12a4.945 4.945 0 0 0 4.94-4.94v-31.12a4.945 4.945 0 0 0 -4.94-4.94zm-29.06 2h8v2h-8zm-21.06 0h19.06v3a1 1 0 0 0 1 1h10a1 1 0 0 0 1-1v-3h19.06a2.943 2.943 0 0 1 2.94 2.94v15.06h-56v-15.06a2.943 2.943 0 0 1 2.94-2.94zm6.06 20v6h-2v-6zm1 8a1 1 0 0 0 1-1v-7h2v7a1 1 0 0 0 1 1h1v9h-6v-9zm5-2v-6h2v6zm2 2h1a1 1 0 0 0 1-1v-7h2v7a1 1 0 0 0 1 1h1v9h-6zm6-2v-6h2v6zm2 2h1a1 1 0 0 0 1-1v-7h2v7a1 1 0 0 0 1 1h1v9h-6zm6-2v-6h2v6zm2 2h1a1 1 0 0 0 1-1v-7h2v7a1 1 0 0 0 1 1h1v9h-6zm6-2v-6h2v6zm2 2h1a1 1 0 0 0 1-1v-7h2v7a1 1 0 0 0 1 1h1v9h-6zm6-2v-6h2v6zm-47 8.06v-14.06h5v7a1 1 0 0 0 1 1h1v9h-4.06a2.943 2.943 0 0 1 -2.94-2.94zm53.06 2.94h-4.06v-9h1a1 1 0 0 0 1-1v-7h5v14.06a2.943 2.943 0 0 1 -2.94 2.94z"/><path d="m31 29h2v-2h1v-2h-1v-4h-2v4h-1v2h1z"/><path d="m25 29h2v-4h1v-2h-1v-2h-2v2h-1v2h1z"/><path d="m37 29h2v-3h1v-2h-1v-3h-2v3h-1v2h1z"/><path d="m51 29a7 7 0 1 0 -7-7 7.008 7.008 0 0 0 7 7zm0-12a5 5 0 1 1 -5 5 5.006 5.006 0 0 1 5-5z"/><path d="m51 25a3 3 0 1 0 -3-3 3 3 0 0 0 3 3zm0-4a1 1 0 1 1 -1 1 1 1 0 0 1 1-1z"/><path d="m13 29a7 7 0 1 0 -7-7 7.008 7.008 0 0 0 7 7zm0-12a5 5 0 1 1 -5 5 5.006 5.006 0 0 1 5-5z"/><path d="m13 25a3 3 0 1 0 -3-3 3 3 0 0 0 3 3zm0-4a1 1 0 1 1 -1 1 1 1 0 0 1 1-1z"/></svg>