<?xml version="1.0" encoding="iso-8859-1"?>
<!-- Generator: Adobe Illustrator 21.0.0, SVG Export Plug-In . SVG Version: 6.00 Build 0)  -->
<svg version="1.1" id="Capa_1" xmlns="http://www.w3.org/2000/svg" xmlns:xlink="http://www.w3.org/1999/xlink" x="0px" y="0px"
	 viewBox="0 0 593.282 593.282" style="enable-background:new 0 0 593.282 593.282;" xml:space="preserve">
<g>
	<g>
		<g id="filled_outline_23_">
			<path style="fill:#DD381A;" d="M553.73,247.201H158.209l-101.155,7.782c-15.455,1.187-27.39,14.071-27.39,29.575v81.299h533.954
				V247.201H553.73z"/>
			<rect x="9.888" y="326.305" style="fill:#C3C9D1;" width="59.328" height="39.552"/>
			<rect x="524.066" y="326.305" style="fill:#C3C9D1;" width="59.328" height="39.552"/>
			<path style="fill:#C43117;" d="M494.402,286.753h-59.328c-16.384,0-29.664,13.28-29.664,29.664v49.44h118.656v-49.44
				C524.066,300.033,510.786,286.753,494.402,286.753z"/>
			<path style="fill:#C43117;" d="M158.209,286.753H98.88c-16.384,0-29.664,13.28-29.664,29.664v49.44h118.656v-49.44
				C187.873,300.033,174.593,286.753,158.209,286.753z"/>
			<circle style="fill:#697B8C;" cx="464.738" cy="365.857" r="49.44"/>
			<circle style="fill:#697B8C;" cx="128.544" cy="365.857" r="49.44"/>
			<circle style="fill:#C3C9D1;" cx="128.544" cy="365.857" r="19.776"/>
			<circle style="fill:#C3C9D1;" cx="464.738" cy="365.857" r="19.776"/>
			<path style="fill:#69CCD7;" d="M378.168,194.963c-1.394-9.74-9.74-16.978-19.578-16.978H231.182
				c-8.672-0.01-16.909,3.777-22.545,10.363l-50.429,58.854h227.425L378.168,194.963z"/>
			<path style="fill:#61BDC7;" d="M378.168,194.963c-1.374-9.394-9.226-16.483-18.708-16.899l-134.635,69.137h160.809
				L378.168,194.963z"/>
			<rect x="227.425" y="276.865" width="39.552" height="19.776"/>
			<path d="M583.394,316.417h-9.888v-69.216c0-5.458-4.43-9.888-9.888-9.888H394.206l-6.249-43.755
				c-2.146-14.575-14.624-25.402-29.358-25.462H231.182c-11.549,0-22.525,5.053-30.03,13.843l-47.789,55.719l-97.071,7.465
				c-20.567,1.671-36.428,18.807-36.517,39.433v31.859H9.888c-5.458,0-9.888,4.43-9.888,9.888v39.552
				c0,5.458,4.43,9.888,9.888,9.888h60.218c5.429,32.275,35.992,54.038,68.267,48.61c24.908-4.193,44.417-23.702,48.61-48.61
				h219.317c5.429,32.275,35.992,54.038,68.267,48.61c24.908-4.193,44.417-23.702,48.61-48.61h60.218
				c5.458,0,9.888-4.43,9.888-9.888v-39.552C593.282,320.847,588.852,316.417,583.394,316.417z M306.529,187.873h52.07
				c4.914,0,9.077,3.619,9.779,8.484l5.854,40.956h-67.703V187.873z M59.328,355.969H19.776v-19.776h39.552V355.969z
				 M59.328,316.417H39.552v-31.859c0.04-10.323,7.98-18.886,18.263-19.717l90.505-6.961v18.985H98.88
				C77.038,276.865,59.328,294.575,59.328,316.417z M128.544,405.41c-21.843,0-39.552-17.709-39.552-39.552
				s17.709-39.552,39.552-39.552s39.552,17.709,39.552,39.552S150.387,405.41,128.544,405.41z M177.985,333.128
				c-1.157-1.76-2.423-3.461-3.767-5.082l-0.109-0.129c-2.017-2.403-4.232-4.647-6.605-6.694c-0.247-0.218-0.475-0.455-0.732-0.672
				c-2.314-1.938-4.786-3.698-7.367-5.27l-1.285-0.781c-2.591-1.493-5.29-2.788-8.079-3.876l-1.463-0.544
				c-2.897-1.048-5.873-1.869-8.899-2.462c-0.396-0.079-0.791-0.119-1.187-0.188c-5.577-1.018-11.282-1.177-16.909-0.455
				c-0.712,0.079-1.404,0.208-2.106,0.316c-1.582,0.247-3.144,0.544-4.687,0.91c-0.761,0.188-1.513,0.376-2.264,0.583
				c-1.543,0.435-3.046,0.939-4.539,1.493c-0.613,0.227-1.246,0.425-1.849,0.672c-2.027,0.831-4.005,1.77-5.933,2.818
				c-0.227,0.129-0.435,0.277-0.663,0.405c-1.691,0.989-3.332,1.978-4.944,3.095c-0.583,0.405-1.127,0.85-1.701,1.276
				c-1.206,0.91-2.393,1.869-3.53,2.877c-0.554,0.494-1.107,0.989-1.651,1.503c-1.167,1.107-2.274,2.264-3.342,3.461
				c-0.396,0.445-0.821,0.87-1.206,1.325c-1.414,1.671-2.729,3.411-3.955,5.221l-0.109,0.168v-16.681
				c0-10.926,8.85-19.776,19.776-19.776h59.328c10.926,0,19.776,8.85,19.776,19.776V333.128z M286.753,316.417h-69.216v19.776
				h69.216v19.776h-88.992v-39.552c-0.069-17.976-12.251-33.649-29.664-38.148v-21.18h118.656V316.417z M286.753,237.313H179.705
				l36.457-42.519c3.757-4.39,9.245-6.922,15.02-6.922h55.571V237.313z M464.738,405.41c-21.843,0-39.552-17.709-39.552-39.552
				s17.709-39.552,39.552-39.552s39.552,17.709,39.552,39.552S486.58,405.41,464.738,405.41z M514.178,326.305v6.793l-0.119-0.168
				c-1.226-1.81-2.541-3.55-3.955-5.221c-0.386-0.455-0.811-0.88-1.206-1.325c-1.068-1.196-2.175-2.353-3.332-3.461
				c-0.544-0.514-1.107-0.989-1.671-1.513c-1.137-0.999-2.304-1.948-3.52-2.868c-0.564-0.425-1.117-0.87-1.701-1.276
				c-1.582-1.107-3.224-2.146-4.944-3.095c-0.227-0.129-0.435-0.277-0.663-0.405c-1.928-1.048-3.906-1.988-5.933-2.818
				c-0.603-0.247-1.236-0.445-1.849-0.672c-1.493-0.554-2.966-1.058-4.539-1.493c-0.751-0.208-1.503-0.405-2.264-0.583
				c-1.543-0.366-3.105-0.662-4.687-0.91c-0.702-0.109-1.394-0.237-2.106-0.316c-5.626-0.722-11.332-0.564-16.909,0.455
				c-0.396,0.069-0.791,0.109-1.187,0.188c-3.026,0.593-6.002,1.414-8.899,2.462l-1.463,0.544c-2.788,1.088-5.488,2.383-8.079,3.876
				l-1.285,0.781c-2.581,1.572-5.053,3.332-7.367,5.27c-0.257,0.218-0.484,0.455-0.732,0.672c-2.373,2.047-4.588,4.291-6.605,6.694
				l-0.109,0.129c-1.345,1.622-2.601,3.322-3.757,5.082v-16.711c0-10.926,8.85-19.776,19.776-19.776h59.328
				c10.926,0,19.776,8.85,19.776,19.776C514.178,316.417,514.178,326.305,514.178,326.305z M494.402,276.865h-59.328
				c-21.843,0-39.552,17.709-39.552,39.552v39.552h-88.992v-19.776h69.216v-19.776h-69.216v-59.328H553.73v59.328h-19.776
				C533.954,294.575,516.244,276.865,494.402,276.865z M573.506,355.969h-39.552v-19.776h39.552V355.969z"/>
		</g>
	</g>
</g>
<g>
</g>
<g>
</g>
<g>
</g>
<g>
</g>
<g>
</g>
<g>
</g>
<g>
</g>
<g>
</g>
<g>
</g>
<g>
</g>
<g>
</g>
<g>
</g>
<g>
</g>
<g>
</g>
<g>
</g>
</svg>
