<svg id="Layer_1" enable-background="new 0 0 512 512" height="512" viewBox="0 0 512 512" width="512" xmlns="http://www.w3.org/2000/svg"><g><g><g><path d="m431.139 188.462c-17.782-20.403-39.284-37.256-63.532-49.715l-225.361 1.119c-20.847 11.009-39.615 25.291-55.672 42.299l-46.078 75.025c-15.432 42.799-16.849 89.294-3.69 133.531l19.978 67.166c8.419 28.306 34.351 46.615 62.447 46.613 6.152 0 12.411-.878 18.609-2.722 34.503-10.263 54.153-46.552 43.891-81.055l-15.231-21.723-4.749-45.443c-12.056-40.533 7.777-83.009 45.551-100.478l14.529-5.208 67.533-.288 15.333 5.496c34.354 15.887 53.869 52.458 48.052 89.44-.579 3.682-1.409 7.368-2.501 11.038l2.252 32.777-22.799 36.419c-8.919 33.885 10.632 68.964 44.46 79.026 6.199 1.844 12.455 2.722 18.609 2.722 28.093 0 54.027-18.31 62.446-46.613l19.978-67.166c13.687-46.014 11.605-94.47-5.617-138.67l-23.327-22.302z" fill="#e9a6c5"/><g><g><g><path d="m162.906 357.44-1.155-3.883c-12.056-40.533 7.777-83.009 45.551-100.478l14.529-5.208 44.803-.191-.27-.097-67.533.288-14.529 5.208c-37.774 17.469-57.607 59.945-45.551 100.478l19.978 67.166c10.263 34.502-9.388 70.792-43.891 81.055-2.353.7-4.715 1.26-7.076 1.686 3.755.676 7.589 1.036 11.468 1.036 6.152 0 12.411-.878 18.609-2.722 34.503-10.263 54.153-46.552 43.891-81.055l-6.079-20.437-9.651-17.536z" fill="#e07fa6"/></g><g><path d="m469.576 252.049c17.223 44.2 19.306 92.658 5.618 138.672l-19.978 67.166c-8.419 28.303-34.353 46.613-62.446 46.613-3.819 0-7.676-.34-11.535-1.037 23.45-4.22 43.724-21.179 50.981-45.576l19.978-67.166c15.863-53.328 10.544-109.937-14.976-159.399-20.67-40.062-52.879-72.1-92.397-92.462l22.785-.113c24.236 12.453 45.729 29.296 63.505 49.685l15.138 41.319z" fill="#e07fa6"/></g></g></g></g><g><g><path d="m365.651 129.355c20.302-10.874 34.124-32.39 34.124-57.156 0-35.732-28.772-64.699-64.264-64.699-23.521 0-44.09 12.722-55.29 31.703l27.201 54.547z" fill="#9d6b6b"/><path d="m355.472 102.004c9.497-6.459 15.741-17.398 15.741-29.805 0-19.851-15.985-35.944-35.702-35.944-11.4 0-21.553 5.379-28.089 13.755v43.74z" fill="#f8e7d5"/><path d="m335.511 7.5c-3.938 0-7.791.365-11.534 1.047 30.018 5.446 52.798 31.862 52.798 63.651 0 20.013-9.029 37.901-23.206 49.769l12.082 7.388c20.302-10.874 34.124-32.39 34.124-57.156 0-35.732-28.772-64.699-64.264-64.699z" fill="#8b5e5e"/><path d="m335.511 36.255c-4.024 0-7.887.683-11.496 1.918 14.071 4.821 24.199 18.228 24.199 34.026 0 10.525-4.504 19.981-11.664 26.555l18.923 3.25c9.497-6.459 15.741-17.398 15.741-29.805-.001-19.851-15.985-35.944-35.703-35.944z" fill="#f2d0b3"/></g><g><path d="m146.348 129.355c-20.302-10.874-34.124-32.39-34.124-57.156 0-35.732 28.772-64.699 64.264-64.699 23.521 0 44.09 12.722 55.29 31.703l-27.2 54.547z" fill="#9d6b6b"/><path d="m156.527 102.004c-9.497-6.459-15.741-17.398-15.741-29.805 0-19.851 15.984-35.944 35.702-35.944 11.4 0 21.553 5.379 28.089 13.755v43.74z" fill="#f8e7d5"/></g><path d="m317.603 236.523c31.124-16.856 51.679-45.924 51.679-78.958 0-53.916-42.843-121.31-114.248-121.31s-114.248 67.395-114.248 121.31c0 33.033 20.555 62.101 51.677 78.957z" fill="#9d6b6b"/><path d="m255.034 36.255c-3.922 0-7.753.215-11.5.608 64.476 6.767 102.747 69.748 102.747 120.702 0 33.037-20.563 62.103-51.691 78.958h23.012c31.124-16.856 51.679-45.924 51.679-78.958.001-53.915-42.842-121.31-114.247-121.31z" fill="#8b5e5e"/><path d="m317.589 236.523c5.635-8.226 8.85-17.678 8.85-27.737 0-25.807-21.104-47.643-50.171-54.925l-42.367-.025c-29.119 7.256-50.272 29.114-50.272 54.95 0 10.059 3.215 19.511 8.85 27.737 17.971 9.731 39.46 15.395 62.555 15.395 23.094 0 44.584-5.665 62.555-15.395z" fill="#f8e7d5"/><path d="m276.268 153.861h-23c29.067 7.281 50.171 29.118 50.171 54.925 0 10.059-3.215 19.511-8.85 27.737-14.949 8.094-32.338 13.362-51.055 14.909 3.783.313 7.617.486 11.5.486 23.094 0 44.584-5.665 62.555-15.395 5.635-8.226 8.85-17.678 8.85-27.737 0-25.807-21.105-47.644-50.171-54.925z" fill="#f2d0b3"/><path d="m276.456 151.275c0 7.94-9.591 21.566-21.422 21.566s-21.421-13.626-21.421-21.566 9.591-14.378 21.421-14.378c11.831.001 21.422 6.438 21.422 14.378z" fill="#365e7d"/></g><path d="m460.218 231.322c-8.036-15.576-17.824-29.932-29.1-42.868-8.908-1.455-18.286 2.097-23.795 9.706-8.345 11.524-5.15 27.511 6.684 35.014l41.285 26.176c3.8 2.409 8.834 1.282 11.243-2.518l3.027-4.775c-2.737-7.027-5.843-13.95-9.344-20.735z" fill="#b9e4ef"/><path d="m390.895 379.523-25.036-7.241c-1.288-.372-2.31-1.355-2.734-2.627l-8.229-24.728c-.386-1.16-1.195-1.971-2.156-2.41-.579 3.682-1.401 7.369-2.493 11.04l-19.978 67.166c-.201.677-.371 1.355-.549 2.034l9.291-3.358c1.261-.456 2.665-.262 3.756.519l21.192 15.169c2.746 1.965 6.553-.071 6.443-3.446l-.85-26.048c-.044-1.34.575-2.616 1.654-3.411l20.976-15.468c2.717-2.003 1.957-6.253-1.287-7.191z" fill="#f4d844"/><path d="m175.651 400.288-12.745-42.848c-4.256-.554-8.685-.007-12.818 1.799-4.058 1.773-7.367 4.484-9.813 7.748-.148-4.076-1.321-8.189-3.644-11.96-6.36-10.323-19.652-14.418-30.721-9.469-12.989 5.808-18.216 21.249-11.72 33.664l22.664 43.312c2.086 3.987 7.009 5.528 10.996 3.442l43.312-22.664c1.639-.856 3.136-1.877 4.489-3.024z" fill="#b9e4ef"/><path d="m117.081 221.463-23.704-10.832c-1.22-.557-2.087-1.679-2.319-2.999l-4.479-25.461c-13.702 14.514-25.436 31.007-34.797 49.152-4.357 8.445-8.111 17.102-11.285 25.912l19.417-3.93c1.314-.266 2.675.132 3.639 1.063l18.74 18.111c2.428 2.346 6.492.89 6.878-2.464l2.977-25.891c.153-1.332.952-2.503 2.136-3.132l23.016-12.226c2.981-1.585 2.852-5.9-.219-7.303z" fill="#f4d844"/><g fill="#93d8e4"><path d="m431.119 188.454c-6.667-1.089-13.596.628-18.971 4.75 9.592 11.672 18.006 24.425 25.07 38.118 3.887 7.534 7.299 15.235 10.245 23.064l7.829 4.964c3.8 2.409 8.834 1.282 11.243-2.518l3.027-4.775c-2.738-7.027-5.844-13.95-9.345-20.735-8.035-15.576-17.822-29.932-29.098-42.868z"/><path d="m175.651 400.288-.401-1.349-12.344-41.499c-4.256-.554-8.685-.007-12.817 1.799-3.125 1.365-5.8 3.29-7.984 5.592l13.818 46.457 15.24-7.975c1.638-.857 3.135-1.878 4.488-3.025z"/></g></g><g><path d="m207.116 122.209c-4.142 0-7.5 3.357-7.5 7.5v8.147c0 4.143 3.358 7.5 7.5 7.5s7.5-3.357 7.5-7.5v-8.147c0-4.143-3.358-7.5-7.5-7.5z"/><path d="m304.884 145.356c4.142 0 7.5-3.357 7.5-7.5v-8.147c0-4.143-3.358-7.5-7.5-7.5s-7.5 3.357-7.5 7.5v8.147c0 4.143 3.357 7.5 7.5 7.5z"/><path d="m466.884 227.884c-20.812-40.337-52.767-72.793-92.555-94.075-.053-.26-.104-.52-.158-.781 20.553-13.218 33.105-36.023 33.105-60.829-.001-39.81-32.194-72.199-71.766-72.199-23.393 0-45.448 11.685-58.798 30.814-7.061-1.359-14.305-2.059-21.678-2.059-6.775 0-13.44.594-19.956 1.743-13.455-19.19-34.985-30.498-58.589-30.498-39.571 0-71.765 32.389-71.765 72.199 0 23.945 11.909 46.326 31.411 59.7-.223 1.028-.436 2.056-.634 3.085-38.775 21.297-69.98 53.347-90.386 92.899-26.412 51.191-31.917 109.781-15.499 164.976l19.977 67.166c9.104 30.604 37.739 51.977 69.636 51.975 7.001 0 13.981-1.021 20.747-3.033 38.412-11.425 60.367-51.971 48.941-90.383l-19.978-67.166c-10.929-36.741 6.399-75.123 41.214-91.395l12.139-4.351c10.422 2.437 21.402 3.745 32.741 3.745 11.76 0 23.134-1.407 33.9-4.022l12.912 4.627c18.867 8.817 32.582 24.134 39.464 42.158l.871 2.372c5.035 14.634 5.626 30.903.878 46.865l-19.978 67.166c-5.535 18.607-3.492 38.257 5.751 55.328 9.244 17.071 24.582 29.52 43.19 35.055 6.767 2.013 13.747 3.033 20.747 3.033 31.897 0 60.532-21.373 69.635-51.975l19.978-67.166c16.42-55.193 10.915-113.783-15.497-164.974zm-5.709 23.395-.974 1.536c-.036.057-.144.227-.405.285-.173.037-.337.01-.488-.085l-41.285-26.176c-3.99-2.529-6.677-6.479-7.568-11.121-.889-4.638.156-9.312 2.942-13.16 3.216-4.44 8.537-7.007 14.037-6.919 10.061 11.896 18.825 24.987 26.118 39.121 2.798 5.422 5.331 10.936 7.623 16.519zm-103.723-161.216c-3.773-6.401-8.037-12.505-12.753-18.17-7.547-9.066-16.021-16.794-25.209-23.107 4.649-3.247 10.194-5.031 16.021-5.031 15.551 0 28.203 12.76 28.203 28.444-.001 6.593-2.261 12.867-6.262 17.864zm-21.942-75.063c31.3 0 56.765 25.659 56.765 57.199 0 18.021-8.347 34.708-22.266 45.432-1.517-4.553-3.274-9.057-5.26-13.473 8.829-8.166 13.964-19.702 13.964-31.958 0-23.955-19.381-43.444-43.203-43.444-11.22 0-21.75 4.295-29.729 11.935-4.349-2.177-8.817-4.075-13.391-5.668 10.695-12.533 26.482-20.023 43.12-20.023zm26.272 142.565c0 22.724-10.787 43.434-28.407 58.929.368-2.552.564-5.126.564-7.709 0-27.196-19.97-50.97-50.266-60.607-1.934-10.749-13.815-18.78-28.639-18.78s-26.705 8.031-28.639 18.779c-30.301 9.634-50.266 33.399-50.266 60.608 0 2.583.195 5.157.563 7.708-17.62-15.495-28.406-36.204-28.406-58.928 0-42.221 29.053-98.828 84.001-111.302.59-.059 1.178-.18 1.752-.383 6.632-1.378 13.629-2.125 20.995-2.125 69.651 0 106.748 66.097 106.748 113.81zm-106.748 7.777c-6.535 0-12.672-7.977-13.74-12.732-.033-.196-.066-.391-.115-.587l-.001-.002c-.037-.259-.065-.513-.065-.745 0-2.738 5.552-6.878 13.921-6.878s13.921 4.14 13.921 6.878c0 4.394-6.73 14.066-13.921 14.066zm-106.748-93.143c0-15.685 12.652-28.444 28.203-28.444 5.398 0 10.586 1.55 15.036 4.383-9.555 6.429-18.35 14.379-26.156 23.755-4.365 5.244-8.347 10.861-11.908 16.744-3.34-4.733-5.175-10.417-5.175-16.438zm-28.562 0c0-31.54 25.464-57.199 56.765-57.199 16.672 0 32.04 7.151 42.72 19.511-4.666 1.55-9.229 3.4-13.667 5.553-7.905-7.239-18.2-11.309-29.053-11.309-23.822 0-43.203 19.489-43.203 43.444 0 11.51 4.643 22.573 12.629 30.658-2.048 4.437-3.866 8.966-5.44 13.55-12.983-10.77-20.751-26.977-20.751-44.208zm-37.824 126.661 1.772 10.072c.661 3.755 3.125 6.941 6.588 8.521l17.39 7.946-16.884 8.969c-3.365 1.787-5.633 5.114-6.069 8.9l-2.184 18.993-13.749-13.287c-2.739-2.646-6.601-3.774-10.338-3.021l-5.85 1.184c1.818-4.17 3.768-8.3 5.871-12.377 6.635-12.861 14.497-24.868 23.453-35.9zm75.405 166.054 9.571 32.178-42.502 22.239c-.317.164-.708.043-.874-.273l-22.664-43.313c-2.19-4.185-2.542-8.949-.993-13.414 1.549-4.461 4.79-7.986 9.128-9.926 7.577-3.388 16.922-.509 21.274 6.556 1.575 2.557 2.428 5.349 2.535 8.299.115 3.177 2.221 5.936 5.255 6.885 3.031.948 6.336-.116 8.243-2.66 1.77-2.363 4.063-4.171 6.814-5.373 1.344-.588 2.761-.987 4.213-1.198zm9.202-86.644c-5.531-13.988-17.141-28.441-39.135-33.65-4.03-.959-8.072 1.539-9.026 5.569-.955 4.03 1.539 8.072 5.569 9.026 29.27 6.933 31.714 34.445 31.899 40.342-5.669 16.32-6.586 33.953-2.631 50.86-2.089.44-4.132 1.091-6.097 1.95-.901.394-1.782.828-2.64 1.3-.435-.877-.912-1.736-1.428-2.573-8.354-13.561-25.623-18.884-40.168-12.382-8.156 3.646-14.256 10.288-17.176 18.699-2.879 8.295-2.196 17.512 1.873 25.289l22.664 43.313c2.791 5.335 8.248 8.391 13.89 8.391 2.442-.001 4.919-.573 7.229-1.781l39.905-20.881 3.308 11.12c9.067 30.483-8.356 62.661-38.84 71.729-5.377 1.6-10.919 2.41-16.471 2.41-25.31.002-48.033-16.962-55.257-41.252l-19.979-67.166c-12.288-41.31-11.392-84.659 2.174-124.845l13.467-2.725 17.444 16.859c2.206 2.132 5.074 3.262 8.015 3.262 1.314 0 2.642-.226 3.932-.688 4.178-1.497 7.088-5.166 7.594-9.574l2.771-24.102 21.425-11.381c3.919-2.081 6.271-6.13 6.139-10.566s-2.722-8.337-6.758-10.182l-22.066-10.084-3.51-19.958c11.568-11.815 24.551-22.216 38.745-31.002-.048 1.327-.08 2.651-.08 3.968 0 39.579 27.126 73.955 66.64 90.806-13.485 7.095-24.95 17.393-33.421 29.899zm31.179-47.48c-4.35-6.882-6.557-14.276-6.557-22.005 0-20.104 15.148-37.908 38.31-45.815 3.666 6.909 10.115 13.483 18.095 16.136v29.678c0 4.143 3.358 7.5 7.5 7.5s7.5-3.357 7.5-7.5v-29.678c7.98-2.654 14.429-9.227 18.095-16.136 23.159 7.909 38.31 25.721 38.31 45.814 0 7.729-2.206 15.124-6.556 22.005-16.575 8.624-36.257 13.628-57.349 13.628-21.092.001-40.773-5.003-57.348-13.627zm156.513 135.791 1.811 5.441c1.203 3.616 4.107 6.407 7.766 7.465l18.367 5.311-15.388 11.348c-3.067 2.262-4.823 5.886-4.698 9.691l.624 19.109-15.546-11.128c-1.884-1.347-4.097-2.07-6.347-2.147zm113.807 22.001-19.979 67.166c-7.224 24.289-29.947 41.252-55.257 41.252-5.551 0-11.093-.81-16.471-2.41-14.767-4.393-26.94-14.272-34.276-27.82-6.419-11.855-8.463-25.277-5.93-38.341l3.773-1.363 19.727 14.119c2.017 1.444 4.365 2.177 6.728 2.177 1.866 0 3.741-.457 5.467-1.381 3.914-2.093 6.255-6.148 6.11-10.584l-.792-24.247 19.526-14.398c3.572-2.634 5.305-6.984 4.523-11.353s-3.915-7.848-8.177-9.08l-23.306-6.74-7.66-23.02c-.33-.992-.792-1.908-1.349-2.751 1.53-13.558.014-27.305-4.472-40.229.098-2.535.653-9.454 3.74-16.913 5.108-12.345 14.58-20.234 28.152-23.449 4.031-.954 6.524-4.996 5.569-9.026s-4.995-6.526-9.026-5.569c-21.993 5.209-33.603 19.662-39.135 33.65-8.655-12.777-20.433-23.252-34.296-30.358 38.94-17.01 65.585-51.122 65.585-90.347 0-1.718-.045-3.445-.125-5.178 14.251 8.599 27.307 18.801 38.967 30.424-5.68 2.179-10.736 5.924-14.375 10.95-5.24 7.236-7.202 16.038-5.524 24.783 1.654 8.622 6.854 16.264 14.267 20.963l41.286 26.176c2.537 1.609 5.415 2.439 8.348 2.438 1.147 0 2.304-.127 3.45-.384 1.285-.288 2.501-.744 3.647-1.322 12.716 39.428 13.3 81.772 1.285 122.165z"/></g></g></svg>