<svg id="fill" height="512" viewBox="0 0 64 64" width="512" xmlns="http://www.w3.org/2000/svg"><path d="m14.565 30.435h4v34h-4z" fill="#aa889f" transform="matrix(.707 .707 -.707 .707 38.393 2.18)"/><path d="m33 33h-12v-18l12-12z" fill="#03b3e2"/><path d="m21 33h12v-6l-12-12z" fill="#35d7fd"/><path d="m31 34v-12h18l12 12z" fill="#f89c5b"/><path d="m31 22v12h6l12-12z" fill="#ffd257"/><path d="m32 31h12v18l-12 12z" fill="#b72c4b"/><path d="m32 31v6l12 12v-18z" fill="#e94561"/><path d="m33 33v12h-18l-12-12z" fill="#7dd491"/><path d="m27 33-12 12h18v-12z" fill="#c6ec6b"/><circle cx="32" cy="32" fill="#aa889f" r="3"/><path d="m32.242 29.024a2.987 2.987 0 0 1 -2.242 4.976c-.083 0-.16-.018-.242-.024a2.991 2.991 0 1 0 2.484-4.952z" fill="#895e7a"/><circle cx="31" cy="31" fill="#fff" r="1"/><path d="m61.924 34.383a1 1 0 0 0 -.217-1.09l-12-12a1 1 0 0 0 -.707-.293h-15v-18a1 1 0 0 0 -1.707-.707l-12 12a1 1 0 0 0 -.293.707v17h-17a1 1 0 0 0 -.707 1.707l11.879 11.879-11.749 11.748a1 1 0 0 0 0 1.415l2.828 2.828a1 1 0 0 0 1.414 0l15.577-15.577h8.758v15a1 1 0 0 0 1.707.707l12-12a1 1 0 0 0 .293-.707v-14h16a1 1 0 0 0 .924-.617zm-18.924 12.203-9-9v-2.142a3.987 3.987 0 0 0 2-3.444l7-.025zm-14.444-12.586a3.987 3.987 0 0 0 3.444 2l.024 8h-14.61l10-10zm3.444-4a2 2 0 1 1 -2 2 2 2 0 0 1 2-2zm3.444 0a3.987 3.987 0 0 0 -3.444-2l-.023-5h14.609l-7 7zm-3.444-9h-.028a1.973 1.973 0 0 0 -1.937 1.621l-7.621-7.621 9.586-9.586zm-10-3.586 8 8v3.142a3.987 3.987 0 0 0 -2 3.444h-6zm2.586 16.586-9.586 9.586-9.586-9.586zm-18.628 25.456-1.414-1.414 12.042-12.042h2.828zm27.042-13.723a1.964 1.964 0 0 0 1-1.7v-3.619l8.586 8.586-9.586 9.586zm12-12.733v-1.029a1.974 1.974 0 0 0 -1.972-1.971h-.614l6.586-6.586 9.586 9.586z"/></svg>