<?xml version="1.0" encoding="iso-8859-1"?>
<!-- Generator: Adobe Illustrator 21.0.0, SVG Export Plug-In . SVG Version: 6.00 Build 0)  -->
<svg version="1.1" id="Capa_1" xmlns="http://www.w3.org/2000/svg" xmlns:xlink="http://www.w3.org/1999/xlink" x="0px" y="0px"
	 viewBox="0 0 593.282 593.282" style="enable-background:new 0 0 593.282 593.282;" xml:space="preserve">
<g>
	<g>
		<g id="filled_outline_24_">
			<path style="fill:#576573;" d="M49.44,326.3l-7.485-29.961c-1.691-6.783-8.563-10.916-15.356-9.226
				c-4.548,1.137-8.098,4.687-9.226,9.226L9.888,326.3v17.798c0,6.546,5.31,11.866,11.866,11.866l0,0h47.463V326.3H49.44z"/>
			<path style="fill:#69CCD7;" d="M442.173,242.351c-17.62-9.799-37.456-14.931-57.618-14.931h-80.667
				c-22.238,0-44.031,6.249-62.888,18.036L190.76,276.86h313.53L442.173,242.351z"/>
			<rect x="207.649" y="276.86" style="fill:#C3C9D1;" width="138.432" height="98.88"/>
			<path style="fill:#697B8C;" d="M190.76,276.86l-93.857,16.612c-11.618,2.067-22.317,7.663-30.653,16.019l0,0
				c-10.768,10.778-16.81,25.402-16.81,40.64v5.834l19.776,19.776h138.432v-98.88H190.76z"/>
			<path style="fill:#C3C9D1;" d="M346.081,276.86v98.88h70.61c-5.715-20.814,6.516-42.331,27.331-48.046
				c3.53-0.969,7.169-1.444,10.827-1.394l24.72-49.44H346.081z"/>
			<path style="fill:#DD381A;" d="M563.618,316.412c0-17.116-12.37-31.721-29.259-34.539l-10.293-1.721v36.259H563.618z"/>
			<path style="fill:#697B8C;" d="M569.551,316.412h-45.485v-36.259l-19.776-3.293h-24.72l-24.72,49.44
				c21.586-0.257,39.295,17.027,39.552,38.613c0.04,3.659-0.425,7.297-1.394,10.827h40.946l38.316-7.663
				c6.467-1.295,11.124-6.981,11.124-13.576v-24.245C583.394,322.602,577.194,316.412,569.551,316.412L569.551,316.412z"/>
			<path style="fill:#4394CC;" d="M365.857,187.868h-19.776v39.552h19.776c10.926,0,19.776-8.85,19.776-19.776
				S376.783,187.868,365.857,187.868z"/>
			<path style="fill:#DD381A;" d="M326.305,187.868c-10.926,0-19.776,8.85-19.776,19.776s8.85,19.776,19.776,19.776h19.776v-39.552
				H326.305z"/>
			<path style="fill:#576573;" d="M139.876,316.412c-26.174,0.326-47.136,21.823-46.8,47.997
				c0.326,26.174,21.823,47.136,47.997,46.8c25.709-0.326,46.474-21.091,46.8-46.8C187.873,337.899,166.386,316.412,139.876,316.412
				z"/>
			<path style="fill:#576573;" d="M454.849,316.412c-26.975,0.336-48.56,22.466-48.224,49.44
				c0.336,26.975,22.466,48.56,49.44,48.224c26.49-0.326,47.898-21.734,48.224-48.224
				C504.29,338.542,482.15,316.412,454.849,316.412z"/>
			<circle style="fill:#C3C9D1;" cx="138.432" cy="365.852" r="19.776"/>
			<circle style="fill:#C3C9D1;" cx="454.849" cy="365.852" r="19.776"/>
			<path style="fill:#61BDC7;" d="M442.173,242.351c-2.531-1.404-5.191-2.502-7.812-3.708L271.921,276.86H504.29L442.173,242.351z"
				/>
			<path d="M21.754,365.852h23.593l16.879,16.879c1.849,1.849,4.371,2.897,6.991,2.897h24.087
				c10.768,24.928,39.71,36.398,64.628,25.63c11.49-4.964,20.656-14.13,25.63-25.63H409.72c10.768,24.928,39.71,36.398,64.628,25.63
				c11.49-4.964,20.656-14.13,25.63-25.63h33.975c0.663,0,1.325-0.069,1.978-0.198l38.316-7.663
				c11.055-2.264,19.005-11.974,19.034-23.257v-24.255c0-11.965-8.899-22.06-20.765-23.553
				c-3.916-17.927-18.372-31.642-36.477-34.608l-28.389-4.736l-60.712-33.649c-16.444-9.038-34.667-14.357-53.395-15.603
				c5.883-15.168-1.641-32.245-16.81-38.128c-3.471-1.355-7.159-2.027-10.877-1.997h-39.552
				c-16.236-0.148-29.516,12.894-29.664,29.13c-0.03,3.619,0.603,7.218,1.879,10.61c-22.248,0.9-43.873,7.574-62.759,19.361
				l-48.619,30.376l-91.919,16.325c-13.596,2.383-26.134,8.909-35.894,18.678c-1.552,1.552-2.966,3.184-4.41,4.875l-3.342-13.398
				c-3.016-12.083-15.267-19.44-27.35-16.414c-8.088,2.017-14.397,8.336-16.414,16.414l-7.485,29.961
				C0.119,324.679,0.01,325.49,0,326.3v17.798C0,356.113,9.74,365.852,21.754,365.852L21.754,365.852z M167.019,373.259
				c-4.351,15.524-20.458,24.592-35.992,20.241c-15.534-4.351-24.592-20.458-20.241-35.992
				c4.351-15.524,20.458-24.592,35.992-20.241c12.775,3.579,21.526,15.317,21.319,28.586
				C168.047,368.354,167.691,370.846,167.019,373.259z M483.436,373.259c-4.351,15.514-20.448,24.562-35.953,20.221
				s-24.562-20.448-20.221-35.953c4.351-15.514,20.448-24.562,35.953-20.221c12.765,3.57,21.506,15.297,21.299,28.547
				C484.474,368.354,484.108,370.846,483.436,373.259L483.436,373.259z M533.954,291.939c7.91,1.701,14.506,7.139,17.69,14.585
				h-17.69V291.939z M485.68,286.748h17.798l10.699,1.78v27.884c0,5.458,4.43,9.888,9.888,9.888h45.485
				c2.185,0,3.955,1.77,3.955,3.955l0,0v24.255c-0.01,1.879-1.335,3.5-3.184,3.866l-37.357,7.475H504.29
				c-0.079-21.536-14.12-40.541-34.687-46.939L485.68,286.748z M355.969,197.756h9.888c5.458,0,9.888,4.43,9.888,9.888
				c0,5.458-4.43,9.888-9.888,9.888h-9.888V197.756z M355.969,237.308h28.586c18.481,0.01,36.655,4.726,52.812,13.685l28.764,15.979
				H355.969V237.308z M355.969,286.748h107.602l-15.158,30.317c-24.542,3.184-42.924,24.038-43.003,48.788h-49.44V286.748z
				 M326.305,197.756h9.888v19.776h-9.888c-5.458,0-9.888-4.43-9.888-9.888C316.417,202.186,320.847,197.756,326.305,197.756z
				 M246.212,253.841c17.294-10.818,37.278-16.543,57.677-16.533h32.304v29.664H225.23L246.212,253.841z M217.537,286.748h118.656
				v79.104H217.537V286.748z M59.328,350.13c0.079-8.385,2.373-16.612,6.645-23.83H98.88v-19.776H88.102
				c3.382-1.513,6.932-2.63,10.57-3.312l93.808-16.622c1.246-0.218,2.442-0.672,3.51-1.345l1.77-1.107v81.715h-9.888
				c0-27.301-22.139-49.44-49.44-49.44s-49.44,22.139-49.44,49.44H73.31l-13.982-13.982V350.13z M19.776,327.517l7.198-28.774
				c0.564-1.483,2.225-2.235,3.708-1.671c0.771,0.297,1.374,0.9,1.671,1.671l7.198,28.774v18.56H21.754
				c-1.088,0-1.978-0.89-1.978-1.978l0,0V327.517z"/>
			<rect x="276.865" y="306.524" width="39.552" height="19.776"/>
		</g>
	</g>
</g>
<g>
</g>
<g>
</g>
<g>
</g>
<g>
</g>
<g>
</g>
<g>
</g>
<g>
</g>
<g>
</g>
<g>
</g>
<g>
</g>
<g>
</g>
<g>
</g>
<g>
</g>
<g>
</g>
<g>
</g>
</svg>
