<svg id="svg4938" height="512" viewBox="0 0 16.933333 16.933334" width="512" xmlns="http://www.w3.org/2000/svg" xmlns:svg="http://www.w3.org/2000/svg"><g id="layer1" transform="translate(0 -280.067)"><path id="path6156" d="m4.7197034 280.60492c-.4351599 0-.79492.35781-.79492.79297v8.72266a.26460982.26460982 0 0 0 .26562.26562h8.4668006a.26460982.26460982 0 0 0 .26367-.26562v-8.72266c0-.43516-.35781-.79297-.79297-.79297z" font-variant-ligatures="normal" font-variant-position="normal" font-variant-caps="normal" font-variant-numeric="normal" font-variant-alternates="normal" font-feature-settings="normal" text-indent="0" text-align="start" text-decoration-line="none" text-decoration-style="solid" text-decoration-color="#000000" text-transform="none" text-orientation="mixed" white-space="normal" shape-padding="0" isolation="auto" mix-blend-mode="normal" solid-color="#000000" solid-opacity="1" vector-effect="none"/><path id="path4114" d="m4.7197034 281.13422h7.4082006c.15115 0 .26368.11252.26368.26367v8.45898h-7.9375006v-8.45898c0-.15115.11448-.26367.26562-.26367z" fill="#f25287" font-variant-ligatures="normal" font-variant-position="normal" font-variant-caps="normal" font-variant-numeric="normal" font-variant-alternates="normal" font-feature-settings="normal" text-indent="0" text-align="start" text-decoration-line="none" text-decoration-style="solid" text-decoration-color="#000000" text-transform="none" text-orientation="mixed" white-space="normal" shape-padding="0" isolation="auto" mix-blend-mode="normal" solid-color="#000000" solid-opacity="1" vector-effect="none"/><path id="path6160" d="m3.9247834 290.12055v2.64648c0 .43516.3597601.79297.79492.79297h7.4082006c.43517 0 .79294-.35783.79297-.79297v-2.64648c-.000503-.14541-.11826-.26316-.26367-.26368h-8.4804706c-.1496999 0-.25214.12759-.25195.26368z" font-variant-ligatures="normal" font-variant-position="normal" font-variant-caps="normal" font-variant-numeric="normal" font-variant-alternates="normal" font-feature-settings="normal" text-indent="0" text-align="start" text-decoration-line="none" text-decoration-style="solid" text-decoration-color="#000000" text-transform="none" text-orientation="mixed" white-space="normal" shape-padding="0" isolation="auto" mix-blend-mode="normal" solid-color="#000000" solid-opacity="1" vector-effect="none"/><path id="path4116" d="m4.4540834 290.38617h7.9375006v2.38086c-.00001.15118-.11252.26367-.26368.26367h-7.4082006c-.15114 0-.26562-.11251-.26562-.26367z" fill="#ddd" font-variant-ligatures="normal" font-variant-position="normal" font-variant-caps="normal" font-variant-numeric="normal" font-variant-alternates="normal" font-feature-settings="normal" text-indent="0" text-align="start" text-decoration-line="none" text-decoration-style="solid" text-decoration-color="#000000" text-transform="none" text-orientation="mixed" white-space="normal" shape-padding="0" isolation="auto" mix-blend-mode="normal" solid-color="#000000" solid-opacity="1" vector-effect="none"/><path id="path4118" d="m8.4189235 281.98578a.26460982.26460982 0 0 0 -.2597701.26758v1.05859a.2646501.2646501 0 1 0 .5293002 0v-1.05859a.26460982.26460982 0 0 0 -.2695301-.26758z" font-variant-ligatures="normal" font-variant-position="normal" font-variant-caps="normal" font-variant-numeric="normal" font-variant-alternates="normal" font-feature-settings="normal" text-indent="0" text-align="start" text-decoration-line="none" text-decoration-style="solid" text-decoration-color="#000000" text-transform="none" text-orientation="mixed" white-space="normal" shape-padding="0" isolation="auto" mix-blend-mode="normal" solid-color="#000000" solid-opacity="1" vector-effect="none"/><path id="path4120" d="m9.7333736 282.25141a.26460982.26460982 0 0 0 -.21679.40039l.5292904.91601a.26515489.26515489 0 1 0 .45899-.26562l-.5293004-.91602a.26460982.26460982 0 0 0 -.24219-.13476z" font-variant-ligatures="normal" font-variant-position="normal" font-variant-caps="normal" font-variant-numeric="normal" font-variant-alternates="normal" font-feature-settings="normal" text-indent="0" text-align="start" text-decoration-line="none" text-decoration-style="solid" text-decoration-color="#000000" text-transform="none" text-orientation="mixed" white-space="normal" shape-padding="0" isolation="auto" mix-blend-mode="normal" solid-color="#000000" solid-opacity="1" vector-effect="none"/><path id="path4122" d="m9.4658036 284.63422a.26460982.26460982 0 0 0 -.11719.0371l-.91602.52929a.26460982.26460982 0 1 0 .26367.45704l.91797-.5293a.26460982.26460982 0 0 0 -.14843-.49414z" font-variant-ligatures="normal" font-variant-position="normal" font-variant-caps="normal" font-variant-numeric="normal" font-variant-alternates="normal" font-feature-settings="normal" text-indent="0" text-align="start" text-decoration-line="none" text-decoration-style="solid" text-decoration-color="#000000" text-transform="none" text-orientation="mixed" white-space="normal" shape-padding="0" isolation="auto" mix-blend-mode="normal" solid-color="#000000" solid-opacity="1" vector-effect="none"/><path id="path4124" d="m6.6786933 282.97601a.26460982.26460982 0 0 0 -.1171898.0371l-.9160201.5293a.26460982.26460982 0 1 0 .26367.45703l.9160201-.52929a.26460982.26460982 0 0 0 -.1464802-.49415z" font-variant-ligatures="normal" font-variant-position="normal" font-variant-caps="normal" font-variant-numeric="normal" font-variant-alternates="normal" font-feature-settings="normal" text-indent="0" text-align="start" text-decoration-line="none" text-decoration-style="solid" text-decoration-color="#000000" text-transform="none" text-orientation="mixed" white-space="normal" shape-padding="0" isolation="auto" mix-blend-mode="normal" solid-color="#000000" solid-opacity="1" vector-effect="none"/><path id="path4126" d="m11.065404 284.89594a.26460982.26460982 0 0 0 -.26171.26953v1.05664a.26464512.26464512 0 1 0 .52929 0v-1.05664a.26460982.26460982 0 0 0 -.26758-.26953z" font-variant-ligatures="normal" font-variant-position="normal" font-variant-caps="normal" font-variant-numeric="normal" font-variant-alternates="normal" font-feature-settings="normal" text-indent="0" text-align="start" text-decoration-line="none" text-decoration-style="solid" text-decoration-color="#000000" text-transform="none" text-orientation="mixed" white-space="normal" shape-padding="0" isolation="auto" mix-blend-mode="normal" solid-color="#000000" solid-opacity="1" vector-effect="none"/><path id="path4128" d="m5.5087634 284.89594a.26460982.26460982 0 0 0 -.25976.26953v1.05664a.26460982.26460982 0 1 0 .52734 0v-1.05664a.26460982.26460982 0 0 0 -.26758-.26953z" font-variant-ligatures="normal" font-variant-position="normal" font-variant-caps="normal" font-variant-numeric="normal" font-variant-alternates="normal" font-feature-settings="normal" text-indent="0" text-align="start" text-decoration-line="none" text-decoration-style="solid" text-decoration-color="#000000" text-transform="none" text-orientation="mixed" white-space="normal" shape-padding="0" isolation="auto" mix-blend-mode="normal" solid-color="#000000" solid-opacity="1" vector-effect="none"/><path id="path4130" d="m7.5693133 284.36859a.26460982.26460982 0 0 0 -.14258.0371l-.91797.5293a.26515399.26515399 0 1 0 .26563.45898l.91601-.52929a.26460982.26460982 0 0 0 -.12109-.4961z" font-variant-ligatures="normal" font-variant-position="normal" font-variant-caps="normal" font-variant-numeric="normal" font-variant-alternates="normal" font-feature-settings="normal" text-indent="0" text-align="start" text-decoration-line="none" text-decoration-style="solid" text-decoration-color="#000000" text-transform="none" text-orientation="mixed" white-space="normal" shape-padding="0" isolation="auto" mix-blend-mode="normal" solid-color="#000000" solid-opacity="1" vector-effect="none"/><path id="path4132" d="m9.7333736 286.55609a.26460982.26460982 0 0 0 -.21679.39844l.5292904.91797a.26515614.26515614 0 1 0 .45899-.26563l-.5293004-.91601a.26460982.26460982 0 0 0 -.24219-.13477z" font-variant-ligatures="normal" font-variant-position="normal" font-variant-caps="normal" font-variant-numeric="normal" font-variant-alternates="normal" font-feature-settings="normal" text-indent="0" text-align="start" text-decoration-line="none" text-decoration-style="solid" text-decoration-color="#000000" text-transform="none" text-orientation="mixed" white-space="normal" shape-padding="0" isolation="auto" mix-blend-mode="normal" solid-color="#000000" solid-opacity="1" vector-effect="none"/><path id="path4134" d="m5.5009534 287.34906a.26460982.26460982 0 0 0 -.2168001.40039l.5293001.91602a.26460982.26460982 0 1 0 .4570301-.26367l-.5292902-.91797a.26460982.26460982 0 0 0 -.2402399-.13477z" font-variant-ligatures="normal" font-variant-position="normal" font-variant-caps="normal" font-variant-numeric="normal" font-variant-alternates="normal" font-feature-settings="normal" text-indent="0" text-align="start" text-decoration-line="none" text-decoration-style="solid" text-decoration-color="#000000" text-transform="none" text-orientation="mixed" white-space="normal" shape-padding="0" isolation="auto" mix-blend-mode="normal" solid-color="#000000" solid-opacity="1" vector-effect="none"/><path id="path4136" d="m7.8075934 286.48578a.26460982.26460982 0 0 0 -.1171901.0371l-.91601.5293a.26466406.26466406 0 1 0 .26367.45898l.91797-.5293a.26460982.26460982 0 0 0 -.1484399-.49608z" font-variant-ligatures="normal" font-variant-position="normal" font-variant-caps="normal" font-variant-numeric="normal" font-variant-alternates="normal" font-feature-settings="normal" text-indent="0" text-align="start" text-decoration-line="none" text-decoration-style="solid" text-decoration-color="#000000" text-transform="none" text-orientation="mixed" white-space="normal" shape-padding="0" isolation="auto" mix-blend-mode="normal" solid-color="#000000" solid-opacity="1" vector-effect="none"/><path id="path4138" d="m11.512674 288.07367a.26460982.26460982 0 0 0 -.11719.0371l-.91797.5293a.26460982.26460982 0 1 0 .26563.45703l.91601-.5293a.26460982.26460982 0 0 0 -.14648-.49414z" font-variant-ligatures="normal" font-variant-position="normal" font-variant-caps="normal" font-variant-numeric="normal" font-variant-alternates="normal" font-feature-settings="normal" text-indent="0" text-align="start" text-decoration-line="none" text-decoration-style="solid" text-decoration-color="#000000" text-transform="none" text-orientation="mixed" white-space="normal" shape-padding="0" isolation="auto" mix-blend-mode="normal" solid-color="#000000" solid-opacity="1" vector-effect="none"/><path id="path4140" d="m8.1454835 287.61273a.26460982.26460982 0 0 0 -.2167901.40039l.5292902.91797a.26515489.26515489 0 1 0 .45899-.26562l-.5293003-.91602a.26460982.26460982 0 0 0 -.2421898-.13672z" font-variant-ligatures="normal" font-variant-position="normal" font-variant-caps="normal" font-variant-numeric="normal" font-variant-alternates="normal" font-feature-settings="normal" text-indent="0" text-align="start" text-decoration-line="none" text-decoration-style="solid" text-decoration-color="#000000" text-transform="none" text-orientation="mixed" white-space="normal" shape-padding="0" isolation="auto" mix-blend-mode="normal" solid-color="#000000" solid-opacity="1" vector-effect="none"/><path id="path4142" d="m11.057594 281.79242a.26460982.26460982 0 0 0 -.21875.40039l.5293.91602a.26466279.26466279 0 1 0 .45898-.26367l-.52929-.91602a.26460982.26460982 0 0 0 -.24024-.13672z" font-variant-ligatures="normal" font-variant-position="normal" font-variant-caps="normal" font-variant-numeric="normal" font-variant-alternates="normal" font-feature-settings="normal" text-indent="0" text-align="start" text-decoration-line="none" text-decoration-style="solid" text-decoration-color="#000000" text-transform="none" text-orientation="mixed" white-space="normal" shape-padding="0" isolation="auto" mix-blend-mode="normal" solid-color="#000000" solid-opacity="1" vector-effect="none"/><path id="path4144" d="m6.2470433 281.6518a.26460982.26460982 0 0 0 -.14453.0371l-.91601.52929a.26515364.26515364 0 1 0 .26562.45899l.91602-.5293a.26460982.26460982 0 0 0 -.1211-.49609z" font-variant-ligatures="normal" font-variant-position="normal" font-variant-caps="normal" font-variant-numeric="normal" font-variant-alternates="normal" font-feature-settings="normal" text-indent="0" text-align="start" text-decoration-line="none" text-decoration-style="solid" text-decoration-color="#000000" text-transform="none" text-orientation="mixed" white-space="normal" shape-padding="0" isolation="auto" mix-blend-mode="normal" solid-color="#000000" solid-opacity="1" vector-effect="none"/><path id="path6192" d="m7.8935335 293.0307a.26460982.26460982 0 0 0 -.2617201.23242l-.2656199 2.11719c-.0371.29669.093.57061.2890599.76563.19601.19501.46799.32422.7675802.32422.29155 0 .56504-.1146.76562-.30665.20059-.19204.32952-.47551.29102-.7832l-.26563-2.11719a.26460982.26460982 0 0 0 -.26172-.23242z" font-variant-ligatures="normal" font-variant-position="normal" font-variant-caps="normal" font-variant-numeric="normal" font-variant-alternates="normal" font-feature-settings="normal" text-indent="0" text-align="start" text-decoration-line="none" text-decoration-style="solid" text-decoration-color="#000000" text-transform="none" text-orientation="mixed" white-space="normal" shape-padding="0" isolation="auto" mix-blend-mode="normal" solid-color="#000000" solid-opacity="1" vector-effect="none"/><path id="path4230" d="m8.1279035 293.56h.5918001l.23438 1.88476c.0161.12865-.0309.24215-.13086.3379-.10001.0958-.25221.1582-.40039.1582-.1401602 0-.2892701-.0671-.3925801-.16992-.1033201-.1028-.1511203-.22659-.13867-.32618z" fill="#ecc99c" font-variant-ligatures="normal" font-variant-position="normal" font-variant-caps="normal" font-variant-numeric="normal" font-variant-alternates="normal" font-feature-settings="normal" text-indent="0" text-align="start" text-decoration-line="none" text-decoration-style="solid" text-decoration-color="#000000" text-transform="none" text-orientation="mixed" white-space="normal" shape-padding="0" isolation="auto" mix-blend-mode="normal" solid-color="#000000" solid-opacity="1" vector-effect="none"/></g></svg>