<svg id="svg4938" height="512" viewBox="0 0 16.933333 16.933334" width="512" xmlns="http://www.w3.org/2000/svg" xmlns:svg="http://www.w3.org/2000/svg"><g id="layer1" transform="translate(0 -280.067)"><path id="path5516" d="m8.4605724 280.59634c-2.2106737 0-3.96875 1.95261-3.96875 3.96875v4.76171c0 2.19412 1.7746387 3.96875 3.96875 3.96875 2.1941116 0 3.9687506-1.77463 3.9687506-3.96875v-4.76171c0-2.19411-1.774639-3.96875-3.9687506-3.96875z" font-variant-ligatures="normal" font-variant-position="normal" font-variant-caps="normal" font-variant-numeric="normal" font-variant-alternates="normal" font-feature-settings="normal" text-indent="0" text-align="start" text-decoration-line="none" text-decoration-style="solid" text-decoration-color="#000000" text-transform="none" text-orientation="mixed" white-space="normal" shape-padding="0" isolation="auto" mix-blend-mode="normal" solid-color="#000000" solid-opacity="1" vector-effect="none"/><path id="path4014" d="m8.4605724 281.12563c1.9101066 0 3.4394536 1.52935 3.4394536 3.43946v4.76171c0 1.91011-1.529347 3.43946-3.4394536 3.43946-1.9101059 0-3.4394532-1.52935-3.4394532-3.43946v-4.76171c0-1.7027 1.5459097-3.43946 3.4394532-3.43946z" fill="#edffa9" font-variant-ligatures="normal" font-variant-position="normal" font-variant-caps="normal" font-variant-numeric="normal" font-variant-alternates="normal" font-feature-settings="normal" text-indent="0" text-align="start" text-decoration-line="none" text-decoration-style="solid" text-decoration-color="#000000" text-transform="none" text-orientation="mixed" white-space="normal" shape-padding="0" isolation="auto" mix-blend-mode="normal" solid-color="#000000" solid-opacity="1" vector-effect="none"/><path id="path5520" d="m7.6666922 292.98937v2.95228c0 .43516.358589.79375.79375.79375.4351614 0 .7937504-.35859.7937504-.79375v-2.95228c.00001-.16093-.14245-.28461-.301791-.262-.165561.0235-.3285659.0393-.4919594.0393-.1633934 0-.3254779-.0236-.5051369-.0406-.1629611-.0154-.2887237.11283-.2886131.26329z" font-variant-ligatures="normal" font-variant-position="normal" font-variant-caps="normal" font-variant-numeric="normal" font-variant-alternates="normal" font-feature-settings="normal" text-indent="0" text-align="start" text-decoration-line="none" text-decoration-style="solid" text-decoration-color="#000000" text-transform="none" text-orientation="mixed" white-space="normal" shape-padding="0" isolation="auto" mix-blend-mode="normal" solid-color="#000000" solid-opacity="1" vector-effect="none"/><path id="path4016" d="m8.1958589 293.27514c.088403.007.1725078.0207.2645833.0207.092075 0 .1761804-.0137.2645834-.0207v2.66651c0 .15115-.1134277.26458-.2645834.26458-.1511556 0-.2645833-.11343-.2645833-.26458z" fill="#edca9d" fill-opacity=".996" font-variant-ligatures="normal" font-variant-position="normal" font-variant-caps="normal" font-variant-numeric="normal" font-variant-alternates="normal" font-feature-settings="normal" text-indent="0" text-align="start" text-decoration-line="none" text-decoration-style="solid" text-decoration-color="#000000" text-transform="none" text-orientation="mixed" white-space="normal" shape-padding="0" isolation="auto" mix-blend-mode="normal" solid-color="#000000" solid-opacity="1" vector-effect="none"/><path id="path5524" d="m6.1401702 281.37973c-.976525.80708-1.6484783 1.79432-1.6484783 3.44939v1.85208c-.000001.58174.4765937 1.05833 1.0583334 1.05833.5817407 0 1.0583333-.47659 1.0583333-1.05833v-.52917c0-.29773.2314311-.52916.529167-.52916.2977353 0 .5291666.23143.5291666.52916-.0000023.88195 0 1.23473 0 2.11667 0 .58174.4765929 1.05833 1.0583334 1.05833.58174 0 1.058333-.47659 1.058333-1.05833v-1.32292c.000001-.29773.2314314-.52916.5291674-.52916s.529167.23143.529167.52916v.52917c0 .72832.594598 1.32292 1.322917 1.32292.146119-.00002.264569-.11847.264583-.26459v-3.96875c0-2.19411-1.774639-3.96875-3.9687508-3.96874-.8756713.00002-1.6662445.31052-2.320272.78394z" font-variant-ligatures="normal" font-variant-position="normal" font-variant-caps="normal" font-variant-numeric="normal" font-variant-alternates="normal" font-feature-settings="normal" text-indent="0" text-align="start" text-decoration-line="none" text-decoration-style="solid" text-decoration-color="#000000" text-transform="none" text-orientation="mixed" white-space="normal" shape-padding="0" isolation="auto" mix-blend-mode="normal" solid-color="#000000" solid-opacity="1" vector-effect="none"/><path id="path4424" d="m8.4604422 281.12498c1.9101068 0 3.4395838 1.52948 3.4395838 3.43958v3.59617c-.295168-.11482-.529166-.34575-.529166-.68575v-.52917c0-.58174-.476593-1.05833-1.058334-1.05833-.5817414 0-1.0583324.47659-1.0583334 1.05833v1.32292c0 .29774-.231433.52917-.529167.52917-.2977356 0-.5291667-.23143-.5291667-.52917 0-.88194-.0000021-1.23472 0-2.11667 0-.58174-.4765929-1.05833-1.0583333-1.05833-.5817405 0-1.0583334.47659-1.0583334 1.05833v.52917c0 .29774-.231431.52917-.5291666.52917-.2977344 0-.5291675-.23144-.5291667-.52917 0-.61736 0-1.23472 0-1.85208 0-1.51513.5416108-2.28241 1.4417725-3.02876.5709722-.41165 1.2491842-.67541 1.9978108-.67541z" fill="#eca3f5" font-variant-ligatures="normal" font-variant-position="normal" font-variant-caps="normal" font-variant-numeric="normal" font-variant-alternates="normal" font-feature-settings="normal" text-indent="0" text-align="start" text-decoration-line="none" text-decoration-style="solid" text-decoration-color="#000000" text-transform="none" text-orientation="mixed" white-space="normal" shape-padding="0" isolation="auto" mix-blend-mode="normal" solid-color="#000000" solid-opacity="1" vector-effect="none"/></g></svg>