<svg id="svg4938" height="512" viewBox="0 0 16.933333 16.933334" width="512" xmlns="http://www.w3.org/2000/svg" xmlns:svg="http://www.w3.org/2000/svg"><g id="layer1" transform="translate(0 -280.067)"><path id="path5924" d="m8.4417714 280.59581c-1.3021101 0-2.3724211.42066-3.1078202 1.17099-.7354009.75034-1.1255129 1.81702-1.1255129 3.06235v3.175a.26460979.26460979 0 0 0 .1178211.22014c2.7219778 1.81087 5.5257699 1.80723 8.2310236 0a.26460979.26460979 0 0 0 .117822-.22014v-3.175c0-1.24533-.390113-2.31201-1.125514-3.06235-.735399-.75033-1.8057097-1.17099-3.1078196-1.17099z" font-variant-ligatures="normal" font-variant-position="normal" font-variant-caps="normal" font-variant-numeric="normal" font-variant-alternates="normal" font-feature-settings="normal" text-indent="0" text-align="start" text-decoration-line="none" text-decoration-style="solid" text-decoration-color="#000000" text-transform="none" text-orientation="mixed" white-space="normal" shape-padding="0" isolation="auto" mix-blend-mode="normal" solid-color="#000000" solid-opacity="1" vector-effect="none"/><path id="path4184" d="m8.4417714 281.12498c1.1897359 0 2.1040536.3731 2.7300656 1.01183.626012.63872.974101 1.55641.974101 2.69234v3.0241c-2.4886287 1.61317-4.9036866 1.6167-7.4083338-.00053v-3.02358c0-1.13593.348089-2.05362.9741011-2.69234.6260121-.63873 1.5403301-1.01183 2.7300661-1.01183z" fill="#ff75a0" font-variant-ligatures="normal" font-variant-position="normal" font-variant-caps="normal" font-variant-numeric="normal" font-variant-alternates="normal" font-feature-settings="normal" text-indent="0" text-align="start" text-decoration-line="none" text-decoration-style="solid" text-decoration-color="#000000" text-transform="none" text-orientation="mixed" white-space="normal" shape-padding="0" isolation="auto" mix-blend-mode="normal" solid-color="#000000" solid-opacity="1" vector-effect="none"/><path id="path5928" d="m7.6497123 293.00142-.265625 2.38281c-.06883.61943.480494 1.08594 1.058594 1.08594.5828199 0 1.124669-.47368 1.056641-1.08594l-.2656249-2.38281c-.015401-.13387-.1289262-.23478-.2636721-.23438h-1.0703121c-.1384459 0-.236374.11028-.2500009.23438z" font-variant-ligatures="normal" font-variant-position="normal" font-variant-caps="normal" font-variant-numeric="normal" font-variant-alternates="normal" font-feature-settings="normal" text-indent="0" text-align="start" text-decoration-line="none" text-decoration-style="solid" text-decoration-color="#000000" text-transform="none" text-orientation="mixed" white-space="normal" shape-padding="0" isolation="auto" mix-blend-mode="normal" solid-color="#000000" solid-opacity="1" vector-effect="none"/><path id="path4186" d="m8.1497121 293.29634h.5839852l.2382808 2.14453c.02909.26183-.2326409.5-.5292968.5-.301375 0-.5621599-.22181-.53125-.5z" fill="#ecc99c" font-variant-ligatures="normal" font-variant-position="normal" font-variant-caps="normal" font-variant-numeric="normal" font-variant-alternates="normal" font-feature-settings="normal" text-indent="0" text-align="start" text-decoration-line="none" text-decoration-style="solid" text-decoration-color="#000000" text-transform="none" text-orientation="mixed" white-space="normal" shape-padding="0" isolation="auto" mix-blend-mode="normal" solid-color="#000000" solid-opacity="1" vector-effect="none"/><path id="path5932" d="m4.2083063 290.64985v1.58789c0 .58174.476853 1.0586 1.0585939 1.0586h6.3496088c.581741 0 1.058594-.47686 1.058594-1.0586v-1.58789c-.000503-.14541-.118264-.26316-.263672-.26367h-7.9511718c-.1496978 0-.2521458.12758-.2519529.26367z" font-variant-ligatures="normal" font-variant-position="normal" font-variant-caps="normal" font-variant-numeric="normal" font-variant-alternates="normal" font-feature-settings="normal" text-indent="0" text-align="start" text-decoration-line="none" text-decoration-style="solid" text-decoration-color="#000000" text-transform="none" text-orientation="mixed" white-space="normal" shape-padding="0" isolation="auto" mix-blend-mode="normal" solid-color="#000000" solid-opacity="1" vector-effect="none"/><path id="path4188" d="m4.7376034 290.91548h7.4082026v1.32226c0 .29774-.231561.5293-.529297.5293h-6.3496088c-.2977369 0-.5292968-.23156-.5292968-.5293z" fill="#95e1d3" font-variant-ligatures="normal" font-variant-position="normal" font-variant-caps="normal" font-variant-numeric="normal" font-variant-alternates="normal" font-feature-settings="normal" text-indent="0" text-align="start" text-decoration-line="none" text-decoration-style="solid" text-decoration-color="#000000" text-transform="none" text-orientation="mixed" white-space="normal" shape-padding="0" isolation="auto" mix-blend-mode="normal" solid-color="#000000" solid-opacity="1" vector-effect="none"/><path id="path5936" d="m4.2083063 288.00337v2.64648c-.0005557.14694.118691.26619.265625.26563h7.9374997c.146171-.00053.264234-.11946.263672-.26563v-2.64648c-.000741-.21131-.236672-.33654-.412109-.21875-2.5696327 1.71663-5.0559177 1.72084-7.6425788 0-.04443-.0298-.09687-.0455-.15039-.0449-.1446448.002-.2612149.11902-.2617189.26367z" font-variant-ligatures="normal" font-variant-position="normal" font-variant-caps="normal" font-variant-numeric="normal" font-variant-alternates="normal" font-feature-settings="normal" text-indent="0" text-align="start" text-decoration-line="none" text-decoration-style="solid" text-decoration-color="#000000" text-transform="none" text-orientation="mixed" white-space="normal" shape-padding="0" isolation="auto" mix-blend-mode="normal" solid-color="#000000" solid-opacity="1" vector-effect="none"/><path id="path4190" d="m4.7376034 288.4272c2.4554439 1.46538 4.9662479 1.46412 7.4082026.002v1.95703h-7.4082026z" fill="#eaffd0" font-variant-ligatures="normal" font-variant-position="normal" font-variant-caps="normal" font-variant-numeric="normal" font-variant-alternates="normal" font-feature-settings="normal" text-indent="0" text-align="start" text-decoration-line="none" text-decoration-style="solid" text-decoration-color="#000000" text-transform="none" text-orientation="mixed" white-space="normal" shape-padding="0" isolation="auto" mix-blend-mode="normal" solid-color="#000000" solid-opacity="1" vector-effect="none"/><path id="path5940" d="m8.1438532 285.78071a.26460982.26460982 0 0 0 -.2167969.16602l-.3984371 1.00195a.26460982.26460982 0 0 0 -.0039.01c-.09946.27867-.08662.55866.03125.7793.1178729.22063.3534788.37304.6152348.37304.263584 0 .500407-.15157.623047-.37304.1226402-.22147.1377892-.5087.025389-.78907l-.4023424-1.00195a.26460982.26460982 0 0 0 -.2734378-.16601z" font-variant-ligatures="normal" font-variant-position="normal" font-variant-caps="normal" font-variant-numeric="normal" font-variant-alternates="normal" font-feature-settings="normal" text-indent="0" text-align="start" text-decoration-line="none" text-decoration-style="solid" text-decoration-color="#000000" text-transform="none" text-orientation="mixed" white-space="normal" shape-padding="0" isolation="auto" mix-blend-mode="normal" solid-color="#000000" solid-opacity="1" vector-effect="none"/><path id="path4192" d="m8.1731532 286.75727.1562502.38868c.06149.15337.04086.26568.00201.33593-.0389.0702-.09075.10157-.160156.10157-.07123 0-.1114509-.0265-.1484381-.0957-.03699-.0692-.05762-.19013 0-.35157z" fill="#f7d9d9" font-variant-ligatures="normal" font-variant-position="normal" font-variant-caps="normal" font-variant-numeric="normal" font-variant-alternates="normal" font-feature-settings="normal" text-indent="0" text-align="start" text-decoration-line="none" text-decoration-style="solid" text-decoration-color="#000000" text-transform="none" text-orientation="mixed" white-space="normal" shape-padding="0" isolation="auto" mix-blend-mode="normal" solid-color="#000000" solid-opacity="1" vector-effect="none"/><path id="path5944" d="m9.8782283 282.40181a.26460982.26460982 0 0 0 -.261719.24414l-.08594 1.07422a.26460982.26460982 0 0 0 -.002.01c-.0132.29559.08228.5581.259765.73437.177487.17627.4470597.25463.6972657.17774.251954-.0774.43416-.29134.486328-.53907.05217-.24772-.01723-.52869-.207031-.76367l-.679677-.83984a.26460982.26460982 0 0 0 -.2070317-.0977z" font-variant-ligatures="normal" font-variant-position="normal" font-variant-caps="normal" font-variant-numeric="normal" font-variant-alternates="normal" font-feature-settings="normal" text-indent="0" text-align="start" text-decoration-line="none" text-decoration-style="solid" text-decoration-color="#000000" text-transform="none" text-orientation="mixed" white-space="normal" shape-padding="0" isolation="auto" mix-blend-mode="normal" solid-color="#000000" solid-opacity="1" vector-effect="none"/><path id="path4194" d="m10.091119 283.34907.261718.32422c.103834.12855.118112.24173.101563.32031-.01655.0786-.0567.12219-.123047.14258-.06809.0209-.116182.008-.171875-.0469-.0554-.055-.108514-.16431-.101563-.33398.000038-.0009-.00004-.001 0-.002z" fill="#f7d9d9" font-variant-ligatures="normal" font-variant-position="normal" font-variant-caps="normal" font-variant-numeric="normal" font-variant-alternates="normal" font-feature-settings="normal" text-indent="0" text-align="start" text-decoration-line="none" text-decoration-style="solid" text-decoration-color="#000000" text-transform="none" text-orientation="mixed" white-space="normal" shape-padding="0" isolation="auto" mix-blend-mode="normal" solid-color="#000000" solid-opacity="1" vector-effect="none"/><path id="path5948" d="m8.1731503 281.65376a.26460982.26460982 0 0 0 -.121094.0312l-.9511721.51172a.26460982.26460982 0 0 0 -.0078.004c-.2554491.14931-.424815.37245-.476563.61719-.05175.24473.03011.51515.230469.68359.2017631.16961.480409.20389.716797.11328.236388-.0906.4329679-.30096.527344-.58789l.3378901-1.02539a.26460982.26460982 0 0 0 -.2558592-.34766z" font-variant-ligatures="normal" font-variant-position="normal" font-variant-caps="normal" font-variant-numeric="normal" font-variant-alternates="normal" font-feature-settings="normal" text-indent="0" text-align="start" text-decoration-line="none" text-decoration-style="solid" text-decoration-color="#000000" text-transform="none" text-orientation="mixed" white-space="normal" shape-padding="0" isolation="auto" mix-blend-mode="normal" solid-color="#000000" solid-opacity="1" vector-effect="none"/><path id="path4196" d="m7.7180722 282.46626-.1289068.39648c-.05163.15697-.1398561.22907-.214843.25782-.07499.0287-.1343732.0193-.1875002-.0254-.05452-.0458-.06897-.0912-.05273-.16797.016039-.0759.08044-.17974.2246099-.26563z" fill="#f7d9d9" font-variant-ligatures="normal" font-variant-position="normal" font-variant-caps="normal" font-variant-numeric="normal" font-variant-alternates="normal" font-feature-settings="normal" text-indent="0" text-align="start" text-decoration-line="none" text-decoration-style="solid" text-decoration-color="#000000" text-transform="none" text-orientation="mixed" white-space="normal" shape-padding="0" isolation="auto" mix-blend-mode="normal" solid-color="#000000" solid-opacity="1" vector-effect="none"/><path id="path5952" d="m6.8430724 284.56392a.26460982.26460982 0 0 0 -.09766.0234l-.982421.44727a.26460982.26460982 0 0 0 -.0098.004c-.2649469.13172-.4494239.34135-.517578.58203-.06815.24068-.0049.51569.1835942.69727.1898488.18285.4670178.23655.7089838.16211.241966-.0744.450918-.27088.5644531-.55078l.40625-1a.26460982.26460982 0 0 0 -.255859-.36524z" font-variant-ligatures="normal" font-variant-position="normal" font-variant-caps="normal" font-variant-numeric="normal" font-variant-alternates="normal" font-feature-settings="normal" text-indent="0" text-align="start" text-decoration-line="none" text-decoration-style="solid" text-decoration-color="#000000" text-transform="none" text-orientation="mixed" white-space="normal" shape-padding="0" isolation="auto" mix-blend-mode="normal" solid-color="#000000" solid-opacity="1" vector-effect="none"/><path id="path4198" d="m6.3586973 285.34321-.15625.38672c-.06211.15313-.1537121.22053-.230469.24414-.07676.0236-.1355561.011-.185547-.0371-.05131-.0494-.0624-.0963-.04102-.17187.021389-.0755.09065-.1776.2441408-.25391z" fill="#f7d9d9" font-variant-ligatures="normal" font-variant-position="normal" font-variant-caps="normal" font-variant-numeric="normal" font-variant-alternates="normal" font-feature-settings="normal" text-indent="0" text-align="start" text-decoration-line="none" text-decoration-style="solid" text-decoration-color="#000000" text-transform="none" text-orientation="mixed" white-space="normal" shape-padding="0" isolation="auto" mix-blend-mode="normal" solid-color="#000000" solid-opacity="1" vector-effect="none"/><path id="path5956" d="m10.380181 285.57759a.26460982.26460982 0 0 0 -.234375.24218l-.08594 1.07618a.26460982.26460982 0 0 0 -.002.01c-.0132.29559.08033.5581.257813.73437.177487.17627.449013.25463.699219.17774.251954-.0774.43416-.29329.486328-.54102.05217-.24772-.01723-.52674-.207031-.76172l-.679688-.83984a.26460982.26460982 0 0 0 -.234375-.0977z" font-variant-ligatures="normal" font-variant-position="normal" font-variant-caps="normal" font-variant-numeric="normal" font-variant-alternates="normal" font-feature-settings="normal" text-indent="0" text-align="start" text-decoration-line="none" text-decoration-style="solid" text-decoration-color="#000000" text-transform="none" text-orientation="mixed" white-space="normal" shape-padding="0" isolation="auto" mix-blend-mode="normal" solid-color="#000000" solid-opacity="1" vector-effect="none"/><path id="path4200" d="m10.620415 286.5229.261719.32422c.103834.12854.118111.24173.101563.32031-.01655.0786-.0567.12414-.123047.14453-.06809.0209-.116182.008-.171875-.0469-.0554-.055-.108514-.16431-.101563-.33398.000038-.0009-.00004-.001 0-.002z" fill="#f7d9d9" font-variant-ligatures="normal" font-variant-position="normal" font-variant-caps="normal" font-variant-numeric="normal" font-variant-alternates="normal" font-feature-settings="normal" text-indent="0" text-align="start" text-decoration-line="none" text-decoration-style="solid" text-decoration-color="#000000" text-transform="none" text-orientation="mixed" white-space="normal" shape-padding="0" isolation="auto" mix-blend-mode="normal" solid-color="#000000" solid-opacity="1" vector-effect="none"/></g></svg>