<svg id="svg4938" height="512" viewBox="0 0 16.933333 16.933334" width="512" xmlns="http://www.w3.org/2000/svg" xmlns:svg="http://www.w3.org/2000/svg"><g id="layer1" transform="translate(0 -280.067)"><path id="path6106" d="m8.43244 280.59582c-1.3021101 0-2.3724212.42066-3.10782 1.17099-.7354011.75034-1.1255142 1.81702-1.1255142 3.06235v.70228a.26460979.26460979 0 0 0 .4190952.21498c.4952659-.35603 1.0876569-.66757 1.4810479-.67593.4791969-.0102.736854.10504 1.0562669.24546.3194132.14042.6998542.30696 1.2769242.30696.6060358 0 1.008335-.28043 1.3327348-.52142.3244012-.24099.5756532-.43921 1.0164752-.46715.425235-.0269 1.010502.1787 1.501199.4222a.26460979.26460979 0 0 0 .382407-.23772c-.0022-1.24252-.393431-2.30666-1.128614-3.05511-.735181-.74844-1.803913-1.16789-3.104202-1.16789z" font-variant-ligatures="normal" font-variant-position="normal" font-variant-caps="normal" font-variant-numeric="normal" font-variant-alternates="normal" font-feature-settings="normal" text-indent="0" text-align="start" text-decoration-line="none" text-decoration-style="solid" text-decoration-color="#000000" text-transform="none" text-orientation="mixed" white-space="normal" shape-padding="0" isolation="auto" mix-blend-mode="normal" solid-color="#000000" solid-opacity="1" vector-effect="none"/><path id="path6104" d="m8.43244 281.12499c1.188058 0 2.101153.37214 2.726965 1.00924.546886.55675.866382 1.33654.943612 2.2779-.432925-.18229-.89471-.33506-1.354438-.30592-.594477.0377-.9806181.33387-1.2991471.5705s-.5646949.41703-1.0169919.41703c-.4812642 0-.7423812-.1206-1.0640172-.262-.3216349-.1414-.7045219-.30266-1.2805428-.29042-.47121.01-.929273.24667-1.359607.51728v-.22944c0-1.13593.348089-2.05362.9741009-2.69234.6260121-.63873 1.5403301-1.01183 2.7300661-1.01183z" fill="#95e1d3" font-variant-ligatures="normal" font-variant-position="normal" font-variant-caps="normal" font-variant-numeric="normal" font-variant-alternates="normal" font-feature-settings="normal" text-indent="0" text-align="start" text-decoration-line="none" text-decoration-style="solid" text-decoration-color="#000000" text-transform="none" text-orientation="mixed" white-space="normal" shape-padding="0" isolation="auto" mix-blend-mode="normal" solid-color="#000000" solid-opacity="1" vector-effect="none"/><path id="path6102" d="m9.4659668 287.31945c-.3333369.23856-.5812309.42013-1.0335279.42013-.4812641 0-.7423809-.12061-1.0640171-.262-.3216349-.1414-.7045219-.30267-1.2805429-.29043-.6245201.0133-1.249852.39498-1.7787019.77515-.06916.0498-.1101302.12978-.110072.21498v2.3306c.000118.21613.245269.34097.42013.21394.500692-.36322 1.107498-.68602 1.5079179-.69453.4792001-.0102.7368519.10504 1.0562669.24546.319413.14042.699855.30696 1.2769242.30696.6060358 0 1.0084649-.28042 1.3327359-.52141.3242691-.241.5751391-.43922 1.0159561-.46716.417649-.0265.99001.17155 1.475363.4098.175932.0865.381563-.0417.381372-.23772v-2.31613c-.000071-.10202-.05878-.19491-.150894-.23875-.462891-.2204-1.019837-.43202-1.653645-.45708-.650103.0374-1.061927.32962-1.3952652.56819z" font-variant-ligatures="normal" font-variant-position="normal" font-variant-caps="normal" font-variant-numeric="normal" font-variant-alternates="normal" font-feature-settings="normal" text-indent="0" text-align="start" text-decoration-line="none" text-decoration-style="solid" text-decoration-color="#000000" text-transform="none" text-orientation="mixed" white-space="normal" shape-padding="0" isolation="auto" mix-blend-mode="normal" solid-color="#000000" solid-opacity="1" vector-effect="none"/><path id="path4202" d="m10.866952 287.28276c.451309.021.878564.16854 1.269691.34313v1.74511c-.434375-.18342-.898878-.33726-1.360641-.30799-.594477.0377-.9802292.33388-1.2986282.57051-.3184028.23663-.5646979.41703-1.016993.41703-.4812628 0-.7423828-.12061-1.064019-.262-.3216349-.1414-.704519-.30266-1.280541-.29043-.4814808.0102-.9495229.25602-1.3875118.53486v-1.70688c.4716518-.32381 1.0053799-.60201 1.3709758-.60978.479197-.0102.7368541.10504 1.056267.24546.3194132.14042.6998541.30696 1.2769242.30696.6060358 0 1.007319-.27965 1.341519-.51883.330959-.23686.605461-.43517 1.092957-.46715z" fill="#fce38a" font-variant-ligatures="normal" font-variant-position="normal" font-variant-caps="normal" font-variant-numeric="normal" font-variant-alternates="normal" font-feature-settings="normal" text-indent="0" text-align="start" text-decoration-line="none" text-decoration-style="solid" text-decoration-color="#000000" text-transform="none" text-orientation="mixed" white-space="normal" shape-padding="0" isolation="auto" mix-blend-mode="normal" solid-color="#000000" solid-opacity="1" vector-effect="none"/><path id="path6110" d="m7.9024899 292.23775a.26460982.26460982 0 0 0 -.2636719.24024l-.2636721 2.91015c-.05511.6062.4607999 1.08204 1.0566411 1.08204.5824648 0 1.1138159-.47456 1.0585929-1.08204l-.265625-2.91015a.26460982.26460982 0 0 0 -.2636721-.24024z" font-variant-ligatures="normal" font-variant-position="normal" font-variant-caps="normal" font-variant-numeric="normal" font-variant-alternates="normal" font-feature-settings="normal" text-indent="0" text-align="start" text-decoration-line="none" text-decoration-style="solid" text-decoration-color="#000000" text-transform="none" text-orientation="mixed" white-space="normal" shape-padding="0" isolation="auto" mix-blend-mode="normal" solid-color="#000000" solid-opacity="1" vector-effect="none"/><path id="path4204" d="m8.144677 292.76705h.5742189l.2441411 2.66992c.0244.26839-.2342391.50391-.53125.50391-.338182 0-.556491-.20478-.5292971-.50391z" fill="#ecc99c" font-variant-ligatures="normal" font-variant-position="normal" font-variant-caps="normal" font-variant-numeric="normal" font-variant-alternates="normal" font-feature-settings="normal" text-indent="0" text-align="start" text-decoration-line="none" text-decoration-style="solid" text-decoration-color="#000000" text-transform="none" text-orientation="mixed" white-space="normal" shape-padding="0" isolation="auto" mix-blend-mode="normal" solid-color="#000000" solid-opacity="1" vector-effect="none"/><path id="path6114" d="m10.748579 284.10621c-.594477.0377-.9806181.33387-1.2991471.5705-.318529.23664-.5646949.41703-1.0169919.41703-.4812642 0-.7423812-.1206-1.0640172-.262-.3216349-.1414-.7045219-.30266-1.2805428-.29042-.6245201.0133-1.249852.39498-1.778702.77515-.06916.0498-.1101301.12977-.1100722.21497v2.64584c-.0001159.21567.2439911.34089.4190952.21497.4952659-.35603 1.0876569-.66757 1.4810479-.67593.4791969-.0102.736854.10504 1.0562669.24546.3194132.14042.6998542.30696 1.2769242.30696.6060358 0 1.008335-.28042 1.3327348-.52141.3244012-.241.5756532-.43922 1.0164752-.46716.426067-.027 1.012611.17081 1.505851.40566.175506.0835.378118-.0444.378271-.23874l-.000529-2.6231c-.000088-.0995-.05599-.19055-.144695-.23564-.528839-.26739-1.164791-.52062-1.771983-.48214z" font-variant-ligatures="normal" font-variant-position="normal" font-variant-caps="normal" font-variant-numeric="normal" font-variant-alternates="normal" font-feature-settings="normal" text-indent="0" text-align="start" text-decoration-line="none" text-decoration-style="solid" text-decoration-color="#000000" text-transform="none" text-orientation="mixed" white-space="normal" shape-padding="0" isolation="auto" mix-blend-mode="normal" solid-color="#000000" solid-opacity="1" vector-effect="none"/><path id="path4206" d="m10.781649 284.63434c.385308-.0244.89654.15072 1.354439.36638l.00053 2.05879c-.443331-.18266-.918615-.33722-1.388028-.30747-.594477.0377-.980618.33387-1.299147.57051-.3185289.23663-.5646949.41703-1.0169919.41703-.4812639 0-.7423809-.12061-1.0640169-.262-.3216351-.1414-.7045222-.30267-1.2805431-.29043-.47121.01-.929273.24668-1.359607.51729v-2.02417c.4716521-.32382 1.0053799-.60201 1.3709761-.60978.479197-.0102.7368541.10504 1.056267.24546s.6998539.30696 1.2769239.30696c.6060361 0 1.008335-.28043 1.3327351-.52142.3244008-.24099.5756538-.43921 1.0164758-.46715z" fill="#eaffd0" font-variant-ligatures="normal" font-variant-position="normal" font-variant-caps="normal" font-variant-numeric="normal" font-variant-alternates="normal" font-feature-settings="normal" text-indent="0" text-align="start" text-decoration-line="none" text-decoration-style="solid" text-decoration-color="#000000" text-transform="none" text-orientation="mixed" white-space="normal" shape-padding="0" isolation="auto" mix-blend-mode="normal" solid-color="#000000" solid-opacity="1" vector-effect="none"/><path id="path6118" d="m11.000757 289.06249c-.07478-.004-.149838-.004-.224791.00053-.594477.0377-.9802292.33388-1.2986282.57051-.3184028.23663-.5646979.41703-1.016993.41703-.4812628 0-.742383-.12061-1.064019-.262-.3216328-.1414-.7045158-.30266-1.280541-.29042-.635603.0135-1.273447.40829-1.8076408.79582a.26460979.26460979 0 0 0 -.1090382.21393v1.46503c0 .43516.3585901.79375.79375.79375h6.8791662c.43516 0 .79375-.35859.79375-.79375v-2.20968a.26460979.26460979 0 0 0 -.147793-.23771c-.456782-.22422-.991639-.43549-1.517222-.46303z" font-variant-ligatures="normal" font-variant-position="normal" font-variant-caps="normal" font-variant-numeric="normal" font-variant-alternates="normal" font-feature-settings="normal" text-indent="0" text-align="start" text-decoration-line="none" text-decoration-style="solid" text-decoration-color="#000000" text-transform="none" text-orientation="mixed" white-space="normal" shape-padding="0" isolation="auto" mix-blend-mode="normal" solid-color="#000000" solid-opacity="1" vector-effect="none"/><path id="path4208" d="m10.972848 289.59062c.352585.0185.774955.17091 1.163754.34934v2.03295c0 .15115-.113428.26458-.264585.26458h-6.8791662c-.1511559 0-.2645828-.11343-.2645828-.26458v-1.31723c.4784508-.33185 1.026038-.62047 1.3988809-.62839.4792001-.0102.7368519.10504 1.056267.24546.3194129.14042.6998549.30696 1.2769241.30696.6060358 0 1.008465-.28042 1.3327359-.52141.3242691-.241.5751391-.43922 1.0159561-.46716.05184-.003.106863-.004.163816-.00053z" fill="#ff75a0" font-variant-ligatures="normal" font-variant-position="normal" font-variant-caps="normal" font-variant-numeric="normal" font-variant-alternates="normal" font-feature-settings="normal" text-indent="0" text-align="start" text-decoration-line="none" text-decoration-style="solid" text-decoration-color="#000000" text-transform="none" text-orientation="mixed" white-space="normal" shape-padding="0" isolation="auto" mix-blend-mode="normal" solid-color="#000000" solid-opacity="1" vector-effect="none"/></g></svg>