<svg id="Layer_3" enable-background="new 0 0 64 64" height="512" viewBox="0 0 64 64" width="512" xmlns="http://www.w3.org/2000/svg"><g><g><path d="m36 10c-10.419 0-19.14 7.245-21.416 16.971-1.672-.144-3.167-1.135-3.926-2.654l-.016-.031c-1.755-3.51-3.934-6.792-6.488-9.772l-2.154-2.514v5l.698 3.143c.866 3.893 1.302 7.869 1.302 11.857s-.436 7.964-1.302 11.857l-.698 3.143v5l2.154-2.513c2.554-2.98 4.733-6.262 6.488-9.772l.016-.031c.759-1.519 2.254-2.51 3.926-2.654 2.276 9.725 10.997 16.97 21.416 16.97 12.15 0 22-9.85 22-22s-9.85-22-22-22z" fill="#2b74ca"/></g><g><path d="m14.584 26.971c-1.672-.144-3.167-1.135-3.926-2.654l-.016-.031c-1.755-3.51-3.934-6.792-6.488-9.772l-2.154-2.514v5l.698 3.143c.866 3.893 1.302 7.869 1.302 11.857 0 .323-.021.644-.026.966 3.781 1.301 8.031 2.034 12.526 2.034 15.74 0 28.5-8.954 28.5-20 0-1.105-.133-2.188-.379-3.245-2.648-1.129-5.561-1.755-8.621-1.755-10.419 0-19.14 7.245-21.416 16.971z" fill="#3d98f7"/></g><g><path d="m57.63 36h-4.13c-5.581 0-11.076 1.374-16 4s-10.419 4-16 4h-3.924c3.924 6.017 10.704 10 18.424 10 10.784 0 19.749-7.761 21.63-18z" fill="#c7e2fc"/></g><g><path d="m47 37v.858c0 2.652-1.054 5.196-2.929 7.071l-1.071 1.071c0-2.561-1.017-5.017-2.828-6.828l-.172-.172" fill="#a8b0bc"/></g><g><circle cx="22" cy="38" fill="#a8b0bc" r="2"/></g><g><path d="m54 32h6c1.105 0 2-.895 2-2 0-1.105-.895-2-2-2h-6" fill="#a8b0bc"/></g><g><path d="m54 36h6c1.105 0 2-.895 2-2 0-1.105-.895-2-2-2h-6" fill="#c1c8d1"/></g><g><circle cx="45" cy="23" fill="#fff" r="5"/></g><g><circle cx="47" cy="21" fill="#4d5d7a" r="2"/></g><g><path d="m15.086 30.09-1.992-.18c1.074-11.921 10.922-20.91 22.906-20.91 11.104 0 20.617 7.915 22.621 18.819l-1.967.361c-1.829-9.954-10.515-17.18-20.654-17.18-10.942 0-19.934 8.207-20.914 19.09z"/></g><g><path d="m36 55c-11.984 0-21.832-8.989-22.906-20.91l1.992-.18c.98 10.883 9.972 19.09 20.914 19.09 10.139 0 18.825-7.226 20.654-17.181l1.967.361c-2.004 10.905-11.517 18.82-22.621 18.82z"/></g><g><path d="m60 33v-2c.552 0 1-.449 1-1s-.448-1-1-1h-6v-2h6c1.654 0 3 1.346 3 3s-1.346 3-3 3z"/></g><g><path d="m21.5 45h-4.5v-2h4.5c5.398 0 10.768-1.342 15.529-3.882 5.05-2.694 10.745-4.118 16.471-4.118h6.5c.552 0 1-.449 1-1s-.448-1-1-1h-6v-2h6c1.654 0 3 1.346 3 3s-1.346 3-3 3h-6.5c-5.398 0-10.768 1.342-15.529 3.882-5.05 2.694-10.745 4.118-16.471 4.118z"/></g><g><path d="m45 29c-3.309 0-6-2.691-6-6s2.691-6 6-6 6 2.691 6 6-2.691 6-6 6zm0-10c-2.206 0-4 1.794-4 4s1.794 4 4 4 4-1.794 4-4-1.794-4-4-4z"/></g><g><path d="m47 24c-1.654 0-3-1.346-3-3s1.346-3 3-3 3 1.346 3 3-1.346 3-3 3zm0-4c-.552 0-1 .449-1 1s.448 1 1 1 1-.449 1-1-.448-1-1-1z"/></g><g><path d="m2 53c-.116 0-.233-.02-.347-.062-.392-.146-.653-.52-.653-.938v-5c0-.073.008-.146.023-.217l.698-3.143c.849-3.815 1.279-7.732 1.279-11.64s-.43-7.825-1.278-11.64l-.698-3.143c-.016-.071-.024-.144-.024-.217v-5c0-.418.261-.792.653-.938.391-.146.832-.031 1.106.287l2.154 2.514c2.604 3.038 4.833 6.394 6.623 9.975.674 1.346 1.994 2.162 3.464 2.162v2c-2.231 0-4.238-1.24-5.236-3.236-1.732-3.467-3.87-6.686-6.368-9.6l-.396-.46v2.187l.675 3.036c.879 3.957 1.325 8.019 1.325 12.073s-.446 8.116-1.325 12.074l-.675 3.036v2.187l.395-.461c2.499-2.914 4.637-6.133 6.354-9.568 1.013-2.028 3.02-3.268 5.251-3.268v2c-1.47 0-2.79.816-3.447 2.13-1.806 3.613-4.034 6.969-6.64 10.007l-2.153 2.514c-.195.226-.474.349-.76.349z"/></g><g><path d="m55.764 21h4.472v2h-4.472z" transform="matrix(.894 -.447 .447 .894 -3.716 28.261)"/></g><g><path d="m53.298 16h6.403v2h-6.403z" transform="matrix(.781 -.625 .625 .781 1.768 39.037)"/></g><g><path d="m50.379 13.5h4.243v2h-4.243z" transform="matrix(.707 -.707 .707 .707 5.124 41.37)"/></g><g><path d="m46.585 9.5h5.831v2h-5.831z" transform="matrix(.515 -.857 .857 .515 15.023 47.538)"/></g><g><path d="m42.919 8.5h3.162v1.999h-3.162z" transform="matrix(.317 -.949 .949 .317 21.403 48.705)"/></g><g><path d="m39 4h2v6h-2z"/></g><g><path d="m13 19.764h2v4.472h-2z" transform="matrix(.447 -.894 .894 .447 -11.938 24.683)"/></g><g><path d="m14.5 13.798h2v6.403h-2z" transform="matrix(.625 -.781 .781 .625 -7.458 18.484)"/></g><g><path d="m18.5 12.379h2v4.243h-2z" transform="matrix(.707 -.707 .707 .707 -4.542 18.036)"/></g><g><path d="m21.5 7.585h2v5.831h-2z" transform="matrix(.858 -.515 .515 .858 -2.196 13.073)"/></g><g><path d="m26.5 7.919h1.999v3.162h-1.999z" transform="matrix(.949 -.316 .316 .949 -1.593 9.184)"/></g><g><path d="m31 4h2v6h-2z"/></g><g><path d="m35 7h2v3h-2z"/></g><g><path d="m57 39.764h2v4.472h-2z" transform="matrix(.447 -.894 .894 .447 -5.504 75.094)"/></g><g><path d="m55.5 43.798h2v6.403h-2z" transform="matrix(.625 -.781 .781 .625 -15.496 61.758)"/></g><g><path d="m51.5 47.379h2v4.243h-2z" transform="matrix(.707 -.707 .707 .707 -19.625 51.621)"/></g><g><path d="m48.5 50.585h2v5.831h-2z" transform="matrix(.858 -.515 .515 .858 -20.471 33.092)"/></g><g><path d="m43.5 52.919h1.999v3.162h-1.999z" transform="matrix(.949 -.316 .316 .949 -14.951 16.869)"/></g><g><path d="m39 54h2v6h-2z"/></g><g><path d="m11.764 41h4.472v2h-4.472z" transform="matrix(.894 -.447 .447 .894 -17.305 10.695)"/></g><g><path d="m12.298 46h6.403v2h-6.403z" transform="matrix(.781 -.625 .625 .781 -25.972 19.995)"/></g><g><path d="m17.379 48.5h4.243v2h-4.243z" transform="matrix(.707 -.707 .707 .707 -29.29 28.287)"/></g><g><path d="m19.585 52.5h5.831v2h-5.831z" transform="matrix(.515 -.857 .857 .515 -34.951 45.258)"/></g><g><path d="m25.919 53.5h3.162v1.999h-3.162z" transform="matrix(.317 -.949 .949 .317 -32.902 63.336)"/></g><g><path d="m31 54h2v6h-2z"/></g><g><path d="m35 54h2v3h-2z"/></g><g><path d="m43 47c-.129 0-.259-.025-.383-.076-.374-.155-.617-.52-.617-.924 0-2.312-.9-4.486-2.535-6.122l-.171-.17 1.412-1.416.172.171c1.481 1.481 2.473 3.322 2.894 5.324 1.441-1.641 2.228-3.725 2.228-5.929v-.858h2v.858c0 2.938-1.145 5.7-3.222 7.778l-1.071 1.071c-.191.191-.447.293-.707.293z"/></g><g><path d="m22 41c-1.654 0-3-1.346-3-3s1.346-3 3-3 3 1.346 3 3-1.346 3-3 3zm0-4c-.552 0-1 .449-1 1s.448 1 1 1 1-.449 1-1-.448-1-1-1z"/></g><g><path d="m17 31h2v2h-2z"/></g><g><path d="m17 27h2v2h-2z"/></g><g><path d="m21 27h2v2h-2z"/></g><g><path d="m21 23h2v2h-2z"/></g><g><path d="m21 19h2v2h-2z"/></g><g><path d="m25 19h2v2h-2z"/></g><g><path d="m25 23h2v2h-2z"/></g><g><path d="m25 15h2v2h-2z"/></g><g><path d="m29 15h2v2h-2z"/></g><g><path d="m33 13h2v2h-2z"/></g><g><path d="m29 19h2v2h-2z"/></g></g></svg>