<svg height="512" viewBox="0 0 48 48" width="512" xmlns="http://www.w3.org/2000/svg"><g id="Line"><path d="m42.414 17.343c-1.285-3.359-5.189-5.157-8.582-3.994h-19.664c-3.392-1.161-7.298.634-8.582 3.994-2.979 7.447-2.522 15.777 1.252 22.854l.953 1.787c.992 1.86 2.919 3.016 5.028 3.016.832 0 1.661-.185 2.415-.537h17.533c2.664 1.292 6.091.162 7.442-2.48 4.483-7.442 5.507-16.54 2.205-24.64z" fill="#e98048"/><path d="m36.341 16.394c-1.212-3.36-5.145-5.233-8.513-4.037h-7.656c-3.367-1.194-7.301.675-8.513 4.037-3.018 8.048-2.544 17.072 1.299 24.759l.882 1.764c.952 1.902 2.863 3.083 4.989 3.083.833 0 1.66-.189 2.41-.548h5.522c.75.359 1.578.548 2.41.548 2.126 0 4.037-1.181 4.988-3.083l.882-1.764c3.844-7.687 4.318-16.711 1.3-24.759z" fill="#f8a358"/><path d="m28.924 2.617c-.155-.373-.52-.617-.924-.617h-4c-.315 0-.611.148-.8.4-2.415 3.14-2.648 7.322-1.149 10.916.136.409.519.684.949.684.905-.066 2.371.228 2.763-.353.315-.331.24-.825.154-1.231-.53-3.176.514-6.432 2.791-8.708.285-.287.371-.717.216-1.091z" fill="#609c48"/><path d="m30.341 16.394c-2.102-5.789-10.579-5.795-12.682 0-3.048 8.129-3.048 17.083 0 25.212.986 2.628 3.534 4.394 6.341 4.394s5.355-1.766 6.341-4.394c3.048-8.129 3.048-17.083 0-25.212z" fill="#e98048"/><path d="m7.791 41.983c1.325 2.579 4.631 3.739 7.274 2.544 1.603 1.532 4.229 1.925 6.232.886.84.371 1.753.587 2.703.587s1.863-.216 2.703-.586c2.002 1.037 4.629.646 6.232-.886 2.643 1.193 5.95.036 7.274-2.544 0 0 .953-1.787.953-1.787 3.774-7.077 4.23-15.407 1.252-22.854-1.055-2.638-3.573-4.343-6.414-4.343-.687 0-1.359.121-2.011.321-1.139-.832-2.525-1.321-3.989-1.321-.935.069-2.171.057-2.819.815-.407-.218-.832-.398-1.278-.53-.48-3.134.558-6.333 2.804-8.578.63-.585.158-1.74-.707-1.707h-4c-.315 0-.611.148-.8.4-2.157 2.863-2.687 6.644-1.453 10.004-.32.114-.63.251-.928.411-.65-.761-1.882-.742-2.819-.815-1.464 0-2.85.489-3.989 1.321-.652-.2-1.324-.321-2.011-.321-2.841 0-5.359 1.705-6.414 4.342-2.979 7.447-2.523 15.777 1.251 22.854zm11.741-1.079c-2.879-7.676-2.879-16.131 0-23.808 1.48-4.078 7.455-4.084 8.936 0 2.879 7.676 2.879 16.131 0 23.807-.695 1.853-2.49 3.097-4.468 3.097s-3.773-1.244-4.468-3.096zm21.025-22.819c2.759 6.898 2.336 14.614-1.16 21.169l-.953 1.787c-.644 1.209-1.894 1.959-3.263 1.959-.335 0-.666-.057-.989-.147l.849-1.699c3.844-7.687 4.317-16.711 1.299-24.759-.047-.506-1.155-1.551-.34-1.395 2.019 0 3.808 1.211 4.557 3.085zm-6.089-.989c2.824 7.529 2.381 15.971-1.215 23.163l-.882 1.764c-.61 1.219-1.836 1.977-3.2 1.977-.118 0-.234-.032-.351-.044.652-.661 1.183-1.45 1.521-2.35 3.048-8.129 3.048-17.083 0-25.212-.321-.857-.822-1.61-1.431-2.252 2.282-.597 4.753.75 5.558 2.954zm-10.938-5.669c-.835-2.503-.462-5.243.988-7.427h1.359c-1.593 2.331-2.312 5.175-2.019 8.011-.044.001-.087.008-.131.01zm-4.44 2.715c-4.925 6.33-4.965 23.541.09 29.814-1.46.219-2.899-.628-3.55-1.933 0 0-.882-1.764-.882-1.764-3.596-7.191-4.039-15.634-1.215-23.163.804-2.203 3.275-3.552 5.557-2.954zm-11.647 3.943c.749-1.874 2.538-3.085 4.557-3.085.815-.154-.293.883-.341 1.394-3.295 8.664-2.349 18.401 2.149 26.459-1.636.495-3.466-.299-4.252-1.811 0 0-.953-1.787-.953-1.787-3.497-6.556-3.919-14.272-1.16-21.17z"/></g></svg>