<svg height="512" viewBox="0 0 48 48" width="512" xmlns="http://www.w3.org/2000/svg"><g id="Line"><path d="m45.555 11.168c-.779-.505-1.839-1.297-2.702-1.614 1.963-1.56 3.147-3.945 3.147-6.554 0-.552-.448-1-1-1-2.609 0-4.994 1.185-6.554 3.147-.316-.861-1.111-1.931-1.614-2.702-.166-.249-.436-.411-.733-.44-.299-.028-.593.076-.806.288-2.681 2.681-3.19 6.822-1.241 10.071.074.109 1.268 1.499 1.577 1.565 2.937 1.472 6.55 1.497 9.228-.572 0 0 .743-.557.743-.557.546-.387.522-1.276-.045-1.632z" fill="#92b77e"/><path d="m37.013 12.599-1.611-1.611c-5.031-5.272-14.323-4.484-18.425 1.525-6.33 8.712-11.052 18.583-14.737 28.682-1.157 2.75 1.807 5.729 4.564 4.565 10.102-3.687 19.969-8.405 28.683-14.737 6.007-4.1 6.801-13.396 1.526-18.424z" fill="#ffecae"/><g><path d="m27 25c-.256 0-.512-.098-.707-.293l-3-3c-.391-.391-.391-1.023 0-1.414s1.023-.391 1.414 0l3 3c.637.594.149 1.737-.707 1.707z" fill="#ffd267"/></g><g><path d="m18 37c-.256 0-.512-.098-.707-.293l-3-3c-.391-.391-.391-1.023 0-1.414s1.023-.391 1.414 0l3 3c.637.594.149 1.737-.707 1.707z" fill="#ffd267"/></g><g><path d="m18 27c-.256 0-.512-.098-.707-.293l-3-3c-.391-.391-.391-1.023 0-1.414s1.023-.391 1.414 0l3 3c.637.594.149 1.737-.707 1.707z" fill="#ffd267"/></g><g><path d="m36 23c-.256 0-.512-.098-.707-.293l-3-3c-.391-.391-.391-1.023 0-1.414s1.023-.391 1.414 0l3 3c.637.594.149 1.737-.707 1.707z" fill="#ffd267"/></g><g><path d="m27 17c-.256 0-.512-.098-.707-.293l-3-3c-.391-.391-.391-1.023 0-1.414s1.023-.391 1.414 0l3 3c.637.594.149 1.737-.707 1.707z" fill="#ffd267"/></g><g><path d="m27 31c-.256 0-.512-.098-.707-.293l-3-3c-.391-.391-.391-1.023 0-1.414s1.023-.391 1.414 0l3 3c.637.594.149 1.737-.707 1.707z" fill="#ffd267"/></g><path d="m45 2c-2.609 0-4.994 1.185-6.554 3.147-.193-.476-.435-.933-.723-1.366l-.891-1.336c-.58-.708-1.327-.364-1.539-.152-1.833 1.833-2.65 4.349-2.36 6.796-5.143-3.157-12.517-1.601-15.956 3.423-6.331 8.713-11.051 18.583-14.737 28.683-.915 2.239.852 4.855 3.286 4.805.799.174 5.512-1.968 6.345-2.21 8.367-3.254 16.312-7.549 23.617-12.767 5.076-3.474 6.601-10.95 3.335-16.101 2.442.372 4.903-.525 6.778-2.122.544-.386.523-1.276-.045-1.632-.797-.488-1.826-1.31-2.702-1.614 1.961-1.56 3.146-3.945 3.146-6.554 0-.552-.448-1-1-1zm-6.866 22.072c-.641 2.136-1.994 4.027-3.809 5.324-7.169 5.121-14.968 9.337-23.18 12.53l-5.067 1.971c-.967.393-2.101-.369-2.078-1.423-.192-.111 2.035-5.387 2.074-5.62 3.193-8.211 7.409-16.01 12.53-23.18 1.851-2.625 5.032-4.261 8.235-4.237 2.792-.012 5.516 1.186 7.466 3.283.002.002.987.987.989.989 2.835 2.634 3.965 6.651 2.84 10.363zm1.852-15.143c-.582.159-1.103.602-.968 1.261.091.47.503.81.982.81 1.11 0 2.305.368 3.252 1.037 0 0-2.477 1.783-5.661.522l-1.029-.412c-2.144-1.848-2.121-5.268-.647-7.473.696.973 1.09 2.127 1.085 3.326 0 .479.34.891.811.982.655.138 1.106-.393 1.261-.968.836-2.089 2.667-3.537 4.825-3.911-.374 2.159-1.822 3.99-3.911 4.826z"/><path d="m24.707 20.293c-.927-.92-2.336.485-1.414 1.414 0 0 3 3 3 3 .195.195.451.293.707.293.855.03 1.345-1.113.707-1.707 0 0-3-3-3-3z"/><path d="m15.707 32.293c-.927-.92-2.336.485-1.414 1.414 0 0 3 3 3 3 .195.195.451.293.707.293.855.03 1.345-1.113.707-1.707 0 0-3-3-3-3z"/><path d="m15.707 22.293c-.927-.92-2.336.485-1.414 1.414 0 0 3 3 3 3 .195.195.451.293.707.293.855.03 1.345-1.113.707-1.707 0 0-3-3-3-3z"/><path d="m32.293 18.293c-.391.391-.391 1.023 0 1.414l3 3c.391.391 1.023.391 1.414 0s.391-1.023 0-1.414l-3-3c-.391-.391-1.023-.391-1.414 0z"/><path d="m24.707 12.293c-.927-.92-2.336.485-1.414 1.414 0 0 3 3 3 3 .195.195.451.293.707.293.855.03 1.345-1.113.707-1.707 0 0-3-3-3-3z"/><path d="m24.707 26.293c-.927-.92-2.336.485-1.414 1.414 0 0 3 3 3 3 .195.195.451.293.707.293.855.03 1.345-1.113.707-1.707 0 0-3-3-3-3z"/></g></svg>