<svg height="512" viewBox="0 0 64 64" width="512" xmlns="http://www.w3.org/2000/svg"><g id="Layer_19" data-name="Layer 19"><path d="m11 23 .606-6.663a4.769 4.769 0 0 1 4.749-4.337h31.29a4.769 4.769 0 0 1 4.749 4.337l.606 6.663h5l-1.065-8.523a8.536 8.536 0 0 0 -8.47-7.477h-32.93a8.536 8.536 0 0 0 -8.47 7.477l-1.065 8.523z" fill="#43525b"/><path d="m48 10h-32a6.443 6.443 0 0 0 -6.427 5.985l-.502 7.015h1.929l.606-6.663a4.769 4.769 0 0 1 4.749-4.337h31.29a4.769 4.769 0 0 1 4.749 4.337l.606 6.663h1.929l-.5-7.015a6.443 6.443 0 0 0 -6.429-5.985z" fill="#313e44"/><path d="m62 56a3 3 0 0 1 -3 3h-54a3 3 0 0 1 -3-3v-30a3 3 0 0 1 3-3h54a3 3 0 0 1 3 3z" fill="#2765ab"/><path d="m59 23h-53v29a3 3 0 0 0 3 3h53v-29a3 3 0 0 0 -3-3z" fill="#3b7fbd"/><rect fill="#313e44" height="4" rx="2" width="36" x="14" y="27"/><path d="m48 27h-32a2 2 0 0 0 2 2h32a2 2 0 0 0 -2-2z" fill="#43525b"/><g fill="#92a8ae"><path d="m20 27h2v4h-2z"/><path d="m27 27h2v4h-2z"/><path d="m35 27h2v4h-2z"/><path d="m42 27h2v4h-2z"/></g><circle cx="16" cy="45" fill="#313e44" r="10"/><path d="m16 35a9.941 9.941 0 0 0 -5.992 2.008 9.986 9.986 0 0 0 13.984 13.984 9.986 9.986 0 0 0 -7.992-15.992z" fill="#43525b"/><path d="m24.001 38h15.998v2h-15.998z" fill="#cddbdf"/><path d="m25.8 42h12.4v2h-12.4z" fill="#cddbdf"/><path d="m25.8 46h12.4v2h-12.4z" fill="#cddbdf"/><path d="m24.001 50h15.998v2h-15.998z" fill="#cddbdf"/><path d="m40 23v-4h-24v4" fill="#738993"/><path d="m20 19h4v4h-4z" fill="#576b76"/><path d="m28 19h4v4h-4z" fill="#576b76"/><path d="m36 19h4v4h-4z" fill="#576b76"/><rect fill="#134072" height="8" rx="4" width="34" x="15" y="5"/><path d="m45 5h-26a3.961 3.961 0 0 0 -1.64.36 3.985 3.985 0 0 0 3.64 5.64h26a3.961 3.961 0 0 0 1.64-.36 3.985 3.985 0 0 0 -3.64-5.64z" fill="#1a5097"/><path d="m44 23v-4h4v4" fill="#738993"/><circle cx="8" cy="29" fill="#b2c1c5" r="2"/><circle cx="56" cy="29" fill="#b2c1c5" r="2"/><circle cx="48" cy="45" fill="#313e44" r="10"/><path d="m48 35a9.941 9.941 0 0 0 -5.992 2.008 9.986 9.986 0 0 0 13.984 13.984 9.986 9.986 0 0 0 -7.992-15.992z" fill="#43525b"/><path d="m16 34a11 11 0 1 0 11 11 11.013 11.013 0 0 0 -11-11zm-1 19.941a8.956 8.956 0 0 1 -4.611-1.916l4.611-4.611zm2-6.527 4.611 4.611a8.956 8.956 0 0 1 -4.611 1.916zm-2-11.355v8.527l-6.025 6.025a8.986 8.986 0 0 1 6.025-14.552zm8.025 14.552-6.025-6.025v-8.527a8.986 8.986 0 0 1 6.025 14.552z" fill="#509b6f"/><path d="m48 34a11 11 0 1 0 11 11 11.013 11.013 0 0 0 -11-11zm9 11a8.948 8.948 0 0 1 -1.975 5.611l-6.025-6.025v-8.527a9.01 9.01 0 0 1 8 8.941zm-10 8.941a8.956 8.956 0 0 1 -4.611-1.916l4.611-4.611zm2-6.527 4.611 4.611a8.956 8.956 0 0 1 -4.611 1.916zm-2-11.355v8.527l-6.025 6.025a8.986 8.986 0 0 1 6.025-14.552z" fill="#509b6f"/><path d="m16 32h32a3 3 0 0 0 0-6h-32a3 3 0 0 0 0 6zm19-2h-6v-2h6zm2-2h5v2h-5zm-10 2h-5v-2h5zm22-1a1 1 0 0 1 -1 1h-4v-2h4a1 1 0 0 1 1 1zm-33-1h4v2h-4a1 1 0 0 1 0-2z"/><path d="m48 34a10.986 10.986 0 0 0 -8.479 4h-15.042a11 11 0 1 0 0 14h15.042a11 11 0 1 0 8.479-18zm-1 19.941a8.956 8.956 0 0 1 -4.611-1.916l4.611-4.611zm2-6.527 4.611 4.611a8.956 8.956 0 0 1 -4.611 1.916zm-2-11.355v8.527l-6.025 6.025a8.986 8.986 0 0 1 6.025-14.552zm-8.786 3.941a10.974 10.974 0 0 0 -.788 2h-10.852a10.974 10.974 0 0 0 -.788-2zm-1.163 6h-10.1c.03-.33.051-.662.051-1s-.021-.67-.051-1h10.1c-.03.33-.051.662-.051 1s.021.67.051 1zm-12.051-1a8.948 8.948 0 0 1 -1.975 5.611l-6.025-6.025v-8.527a9.01 9.01 0 0 1 8 8.941zm-10 8.941a8.956 8.956 0 0 1 -4.611-1.916l4.611-4.611zm2-6.527 4.611 4.611a8.956 8.956 0 0 1 -4.611 1.916zm-2-11.355v8.527l-6.025 6.025a8.986 8.986 0 0 1 6.025-14.552zm10.786 13.941a10.974 10.974 0 0 0 .788-2h10.852a10.974 10.974 0 0 0 .788 2zm29.239.611-6.025-6.025v-8.527a8.986 8.986 0 0 1 6.025 14.552z"/><path d="m8 32a3 3 0 1 0 -3-3 3 3 0 0 0 3 3zm0-4a1 1 0 1 1 -1 1 1 1 0 0 1 1-1z"/><path d="m56 26a3 3 0 1 0 3 3 3 3 0 0 0 -3-3zm0 4a1 1 0 1 1 1-1 1 1 0 0 1 -1 1z"/><path d="m59 22h-.117l-.956-7.647a9.546 9.546 0 0 0 -8.927-8.328 4.981 4.981 0 0 0 -4-2.025h-26a4.981 4.981 0 0 0 -3.995 2.025 9.546 9.546 0 0 0 -8.932 8.328l-.956 7.647h-.117a4 4 0 0 0 -4 4v30a4 4 0 0 0 4 4h54a4 4 0 0 0 4-4v-30a4 4 0 0 0 -4-4zm-3.058-7.4.925 7.4h-2.954l-.522-5.753a5.723 5.723 0 0 0 -3.976-4.95 4.94 4.94 0 0 0 .585-2.297 4.94 4.94 0 0 0 -.087-.857 7.55 7.55 0 0 1 6.029 6.457zm-8.942 7.4h-2v-2h2zm1-4h-4a1 1 0 0 0 -1 1v3h-2v-3a1 1 0 0 0 -1-1h-24a1 1 0 0 0 -1 1v3h-2.9l.507-5.572a3.738 3.738 0 0 1 3.462-3.4 4.953 4.953 0 0 0 2.931.972h26a4.953 4.953 0 0 0 2.936-.973 3.738 3.738 0 0 1 3.462 3.4l.507 5.573h-2.905v-3a1 1 0 0 0 -1-1zm-31 4v-2h2v2zm4-2h2v2h-2zm4 0h2v2h-2zm4 0h2v2h-2zm4 0h2v2h-2zm4 0h2v2h-2zm-18-14h26a3 3 0 0 1 0 6h-26a3 3 0 0 1 0-6zm-10.942 8.6a7.55 7.55 0 0 1 6.029-6.458 4.94 4.94 0 0 0 -.087.858 4.94 4.94 0 0 0 .585 2.3 5.723 5.723 0 0 0 -3.976 4.95l-.522 5.75h-2.954zm52.942 41.4a2 2 0 0 1 -2 2h-54a2 2 0 0 1 -2-2v-30a2 2 0 0 1 2-2h54a2 2 0 0 1 2 2z"/></g></svg>