<svg id="_01-Rainbow" height="512" viewBox="0 0 64 64" width="512" xmlns="http://www.w3.org/2000/svg" data-name="01-Rainbow"><path d="m19 31a4.941 4.941 0 0 1 3 1 5.01 5.01 0 0 1 2 4v1a5.106 5.106 0 0 1 2 .41 5 5 0 0 1 -2 9.59h-18a5 5 0 0 1 0-10v-1a6.97 6.97 0 0 1 4-6.32 6.844 6.844 0 0 1 3-.68 5.365 5.365 0 0 1 .99.08 6.923 6.923 0 0 1 4.01 2.02 5.468 5.468 0 0 1 1-.1z" fill="#cff9ff"/><path d="m26 37.41a5.106 5.106 0 0 0 -2-.41v-1a5.01 5.01 0 0 0 -2-4 4.941 4.941 0 0 0 -3-1 5.468 5.468 0 0 0 -1 .1 6.923 6.923 0 0 0 -4.01-2.02 5.365 5.365 0 0 0 -.99-.08 6.881 6.881 0 0 0 -2.008.3 6.958 6.958 0 0 1 3.008 1.8 5.468 5.468 0 0 1 1-.1 4.941 4.941 0 0 1 3 1 5.01 5.01 0 0 1 2 4v1a5.106 5.106 0 0 1 2 .41 5 5 0 0 1 -2 9.59h4a5 5 0 0 0 2-9.59z" fill="#e3fbff"/><path d="m5 42a5 5 0 0 1 5-5v-1a6.97 6.97 0 0 1 4-6.32 6.729 6.729 0 0 1 .992-.376 6.675 6.675 0 0 0 -1-.224 5.365 5.365 0 0 0 -.992-.08 6.844 6.844 0 0 0 -3 .68 6.97 6.97 0 0 0 -4 6.32v1a5 5 0 0 0 0 10h4a5 5 0 0 1 -5-5z" fill="#b5efff"/><path d="m24 36a5.01 5.01 0 0 0 -2-4v-5a10 10 0 0 1 20 0v21a5.01 5.01 0 0 0 -2 4v1a5.106 5.106 0 0 0 -2 .41v-26.41a6.009 6.009 0 0 0 -6-6 6 6 0 0 0 -6 6v10.41a5.106 5.106 0 0 0 -2-.41z" fill="#aeabd6"/><path d="m46 27v20.1a5.468 5.468 0 0 0 -1-.1 4.941 4.941 0 0 0 -3 1v-21a10 10 0 0 0 -20 0v5a4.941 4.941 0 0 0 -3-1 5.468 5.468 0 0 0 -1 .1v-4.1a14 14 0 1 1 28 0z" fill="#80dbff"/><path d="m50 27v18.08a6.955 6.955 0 0 0 -4 2.02v-20.1a14 14 0 0 0 -28 0v4.1a6.923 6.923 0 0 0 -4.01-2.02l.01-.08v-2a18 18 0 1 1 36 0z" fill="#c3dc4b"/><path d="m14 27v2l-.01.08a5.365 5.365 0 0 0 -.99-.08 6.844 6.844 0 0 0 -3 .68v-2.68a22 22 0 1 1 44 0v18.68a6.844 6.844 0 0 0 -3-.68 5.546 5.546 0 0 0 -1 .08v-18.08a18 18 0 0 0 -36 0z" fill="#ffe45c"/><path d="m58 27v25a6.97 6.97 0 0 0 -4-6.32v-18.68a22 22 0 0 0 -44 0v2.68a6.97 6.97 0 0 0 -4 6.32v-9a26 26 0 0 1 52 0z" fill="#ff8257"/><rect fill="#988fc4" height="26" rx="2" width="4" x="38" y="33"/><rect fill="#19cffc" height="26" rx="2" width="4" x="42" y="30"/><rect fill="#b4d241" height="26" rx="2" width="4" x="46" y="35"/><rect fill="#ffbc36" height="26" rx="2" width="4" x="50" y="30"/><rect fill="#ff7045" height="30" rx="2" width="4" x="54" y="26"/><path d="m54 45.68a6.97 6.97 0 0 1 4 6.32v1a5 5 0 0 1 0 10h-18a5 5 0 0 1 -2-9.59 5.106 5.106 0 0 1 2-.41v-1a5.01 5.01 0 0 1 2-4 4.941 4.941 0 0 1 3-1 5.468 5.468 0 0 1 1 .1 6.955 6.955 0 0 1 4-2.02 5.546 5.546 0 0 1 1-.08 6.844 6.844 0 0 1 3 .68z" fill="#cff9ff"/><path d="m58 53v-1a6.97 6.97 0 0 0 -4-6.32 6.844 6.844 0 0 0 -3-.68 5.546 5.546 0 0 0 -1 .08 6.892 6.892 0 0 0 -.989.225 6.8 6.8 0 0 1 .989.375 6.97 6.97 0 0 1 4 6.32v1a5 5 0 0 1 0 10h4a5 5 0 0 0 0-10z" fill="#e3fbff"/><path d="m39 58a5.029 5.029 0 0 1 3-4.59 5.106 5.106 0 0 1 2-.41v-1a5.01 5.01 0 0 1 2-4 4.941 4.941 0 0 1 3-1 5.468 5.468 0 0 1 1 .1 6.947 6.947 0 0 1 3.011-1.8 6.9 6.9 0 0 0 -2.011-.3 5.546 5.546 0 0 0 -1 .08 6.955 6.955 0 0 0 -4 2.02 5.468 5.468 0 0 0 -1-.1 4.941 4.941 0 0 0 -3 1 5.01 5.01 0 0 0 -2 4v1a5.106 5.106 0 0 0 -2 .41 5 5 0 0 0 2 9.59h4a5 5 0 0 1 -5-5z" fill="#b5efff"/><path d="m24 48h-18a6 6 0 0 1 -1-11.917v-.083a8.009 8.009 0 0 1 8-8 7.929 7.929 0 0 1 5.33 2.038 6 6 0 0 1 6.67 5.962v.083a6 6 0 0 1 -1 11.917zm-11-18a6.006 6.006 0 0 0 -6 6v1a1 1 0 0 1 -1 1 4 4 0 0 0 0 8h18a4 4 0 0 0 0-8 1 1 0 0 1 -1-1v-1a4 4 0 0 0 -4.8-3.919 1 1 0 0 1 -.913-.28 5.956 5.956 0 0 0 -4.287-1.801z"/><path d="m58 64h-18a6 6 0 0 1 -1-11.917v-.083a6 6 0 0 1 6.67-5.962 7.929 7.929 0 0 1 5.33-2.038 8.009 8.009 0 0 1 8 8v.083a6 6 0 0 1 -1 11.917zm-13-16a4 4 0 0 0 -4 4v1a1 1 0 0 1 -1 1 4 4 0 0 0 0 8h18a4 4 0 0 0 0-8 1 1 0 0 1 -1-1v-1a6 6 0 0 0 -10.282-4.2 1 1 0 0 1 -.913.28 4.034 4.034 0 0 0 -.805-.08z"/><path d="m59 53h-2v-26a25 25 0 0 0 -50 0v10h-2v-10a27 27 0 0 1 54 0z"/><path d="m55 46h-2v-19a21 21 0 0 0 -42 0v3h-2v-3a23 23 0 0 1 46 0z"/><path d="m51 46h-2v-19a17 17 0 0 0 -34 0v2h-2v-2a19 19 0 0 1 38 0z"/><path d="m47 47.1h-2v-20.1a13 13 0 1 0 -26 0v4.1h-2v-4.1a15 15 0 0 1 30 0z"/><path d="m43 48h-2v-21a9 9 0 0 0 -18 0v5h-2v-5a11 11 0 0 1 22 0z"/><path d="m39 54h-2v-27a5 5 0 0 0 -10 0v11h-2v-11a7 7 0 0 1 14 0z"/><path d="m39 58h2v2h-2z"/><path d="m43 58h16v2h-16z"/><path d="m5 42h2v2h-2z"/><path d="m9 42h16v2h-16z"/></svg>