<?xml version="1.0" encoding="iso-8859-1"?>
<!-- Generator: Adobe Illustrator 19.0.0, SVG Export Plug-In . SVG Version: 6.00 Build 0)  -->
<svg xmlns="http://www.w3.org/2000/svg" xmlns:xlink="http://www.w3.org/1999/xlink" version="1.1" id="Layer_1" x="0px" y="0px" viewBox="0 0 511.995 511.995" style="enable-background:new 0 0 511.995 511.995;" xml:space="preserve">
<path style="fill:#AD1457;" d="M488.734,70.771c-5.708,3.976-12.491,6.126-19.454,6.143c-12.287-0.111-23.592-6.732-29.693-17.406  c-2.91-5.094-4.437-10.862-4.437-16.723c0.026-6.962,2.167-13.746,6.143-19.454c-11.399-6.305-23.771-10.657-36.604-12.884  c-64.94-11.467-126.884,31.868-138.36,96.808c-4.88,27.628,0.119,56.1,14.13,80.409c8.447,14.744,19.966,27.491,33.788,37.372  c3.268,2.363,6.655,4.556,10.153,6.57c57.192,32.892,130.212,13.191,163.104-43.993c10.409-18.106,15.896-38.617,15.904-59.505  C503.469,108.066,498.418,88.33,488.734,70.771z"/>
<path style="fill:#E91E63;" d="M469.28,111.043c-0.051,65.955-53.498,119.402-119.453,119.453  c-12.073,0.034-24.07-1.809-35.58-5.461c-53.54-38.523-65.716-113.156-27.193-166.696c22.432-31.177,58.489-49.667,96.902-49.684  c6.954-0.009,13.891,0.589,20.734,1.792c12.833,2.227,25.205,6.578,36.604,12.884c-3.976,5.708-6.118,12.491-6.143,19.454  c0.068,16.843,12.363,31.135,29.01,33.703C467.574,87.69,469.297,99.337,469.28,111.043z"/>
<path d="M383.965,256.127c-0.017,0-0.026,0-0.034,0c-34.189-0.009-66.322-13.328-90.494-37.508  c-24.164-24.181-37.474-56.322-37.465-90.503c0.009-21.374,5.435-42.585,15.682-61.339C305.527,4.841,383.462-18.008,445.39,15.857  c2.133,1.16,3.669,3.183,4.215,5.537c0.546,2.355,0.077,4.846-1.314,6.834c-6.109,8.746-6.109,20.503,0,29.257  c3.908,5.589,9.761,9.326,16.476,10.512c6.715,1.186,13.498-0.299,19.078-4.215c1.997-1.391,4.479-1.86,6.834-1.314  c2.363,0.555,4.377,2.082,5.537,4.215c10.299,18.805,15.734,40.068,15.725,61.493c-0.009,34.181-13.336,66.322-37.508,90.485  C450.27,242.817,418.137,256.127,383.965,256.127z M384.179,17.247c-39.283,0-77.405,20.879-97.55,57.713  c-8.874,16.263-13.583,34.65-13.592,53.165c-0.009,29.624,11.527,57.482,32.474,78.438s48.796,32.5,78.421,32.508  c0.009,0,0.026,0,0.034,0c29.616,0,57.457-11.527,78.404-32.466c20.955-20.947,32.5-48.796,32.508-78.429  c0.009-15.751-3.379-31.399-9.855-45.733c-7.295,2.927-15.29,3.763-23.242,2.363c-11.203-1.98-20.955-8.217-27.474-17.542  c-8.31-11.877-9.846-27.073-4.642-40.187C414.997,20.421,399.503,17.247,384.179,17.247z"/>
<path style="fill:#FDD834;" d="M488.734,70.771c-15.426,10.776-36.663,7.014-47.44-8.413c-8.191-11.723-8.191-27.312,0-39.027  c-17.56-9.676-37.286-14.727-57.337-14.676c-7.099,0-14.181,0.657-21.16,1.962c-23.276,4.13-44.786,15.128-61.774,31.57  c-1.621,8.635-2.423,17.406-2.389,26.194c-0.009,71.868,52.627,132.891,123.719,143.429c7.056,1.101,14.189,1.647,21.331,1.621  c8.788,0.034,17.56-0.768,26.194-2.389C506.208,173.466,513.853,116.615,488.734,70.771z"/>
<path style="fill:#FFEB3A;" d="M460.748,128.108c0.017,30.947-12.014,60.691-33.532,82.934c-1.604,0.341-3.234,0.597-4.863,0.768  c-71.091-10.537-123.727-71.561-123.719-143.429c-0.034-8.788,0.768-17.56,2.389-26.194c16.988-16.442,38.498-27.44,61.774-31.57  c6.979-1.305,14.061-1.962,21.16-1.962c20.051-0.051,39.778,5,57.337,14.676c-10.171,14.565-7.457,34.496,6.229,45.819l-1.45,1.621  C455.756,88.33,460.808,108.066,460.748,128.108z"/>
<path d="M444.144,221.972c-0.162,0-0.324,0-0.486,0c-84.649,0-153.548-68.882-153.556-153.556c-0.034-9.3,0.819-18.66,2.543-27.798  c0.324-1.741,1.186-3.328,2.449-4.556c40.512-39.155,100.912-47.261,150.306-20.205c2.125,1.16,3.66,3.183,4.206,5.537  c0.546,2.355,0.077,4.838-1.314,6.826c-3.908,5.589-5.401,12.372-4.215,19.087c1.195,6.715,4.932,12.568,10.52,16.476  c8.729,6.118,20.486,6.118,29.257,0c1.962-1.391,4.437-1.86,6.817-1.314c2.355,0.546,4.369,2.073,5.537,4.189  c10.358,18.78,15.793,40.034,15.734,61.484c0.009,33.327-12.747,64.88-35.93,88.839c-1.237,1.271-2.824,2.133-4.556,2.457  C462.471,221.119,453.282,221.972,444.144,221.972z M308.932,46.454c-1.203,7.227-1.792,14.573-1.766,21.894  c0.009,75.323,61.254,136.552,136.517,136.552c7.304-0.179,14.71-0.572,21.928-1.775c18.908-20.503,29.283-47.039,29.266-75.016  c0-0.009,0-0.017,0-0.026c0.051-15.751-3.345-31.39-9.846-45.691c-13.097,5.222-28.327,3.677-40.204-4.625  c-9.334-6.519-15.563-16.28-17.551-27.483c-1.408-7.944-0.563-15.938,2.372-23.251C389.17,8.647,341.918,16.07,308.932,46.454z"/>
<path style="fill:#4527A0;" d="M280.46,187.664L27.305,394.317c-3.805,3.797-7.099,8.072-9.812,12.713l237.37-193.769  c5.077,8.831,11.271,16.979,18.43,24.232l1.621-1.28l0.939,0.939l-1.28,1.621c7.252,7.159,15.401,13.353,24.232,18.43  l-193.769,237.37c4.642-2.713,8.916-6.007,12.713-9.812l206.653-253.154C306.133,221.102,290.971,205.94,280.46,187.664z"/>
<g>
	<path style="fill:#673AB7;" d="M273.292,237.493L50.513,419.487c-2.526,2.764-4.522,5.981-5.887,9.471L249.316,261.81l0.939,0.939   L83.277,467.354c3.43-1.305,6.587-3.242,9.3-5.717l181.995-222.865L273.292,237.493z"/>
	<path style="fill:#673AB7;" d="M298.804,257.202l-193.769,237.37c-20.478,12.116-45.989,11.86-66.211-0.683   c-4.198-2.568-8.063-5.631-11.519-9.13c-20.631-20.631-24.676-52.619-9.812-77.73l237.37-193.769   c5.077,8.831,11.271,16.979,18.43,24.232L50.513,419.487c-2.526,2.764-4.522,5.981-5.887,9.471   c-5.811,15.469,2.014,32.722,17.483,38.532c3.328,1.254,6.86,1.903,10.418,1.911c3.652,0.017,7.278-0.683,10.665-2.048h0.085   c3.43-1.305,6.587-3.242,9.3-5.717l181.995-222.865C281.833,245.931,289.973,252.126,298.804,257.202z"/>
</g>
<path style="fill:#AD1457;" d="M503.409,42.785c0.026,18.822-15.222,34.104-34.044,34.129c-13.447,0.017-25.64-7.867-31.143-20.136  c-2.031-4.386-3.08-9.164-3.072-13.993c0.068-18.822,15.307-34.061,34.129-34.129c4.829-0.009,9.607,1.041,13.993,3.072  C495.526,17.205,503.409,29.372,503.409,42.785z"/>
<path style="fill:#E91E63;" d="M486.345,25.72c-0.068,18.822-15.307,34.061-34.129,34.129c-4.829,0-9.607-1.049-13.993-3.072  c-2.031-4.386-3.08-9.164-3.072-13.993c0.068-18.822,15.307-34.061,34.129-34.129c4.829-0.009,9.607,1.041,13.993,3.072  C485.304,16.121,486.353,20.891,486.345,25.72z"/>
<path d="M469.323,85.378c-0.017,0-0.034,0-0.051,0c-23.498-0.026-42.593-19.172-42.576-42.67  c0.017-23.455,19.121-42.559,42.576-42.576c11.271-0.051,22.005,4.309,30.068,12.295c8.072,7.986,12.543,18.635,12.602,29.991v0.384  c-0.009,11.382-4.454,22.082-12.517,30.119C491.379,80.958,480.688,85.378,469.323,85.378z M469.451,17.196  c-0.043,0-0.085,0-0.128,0c-14.095,0.009-25.554,11.467-25.563,25.529c-0.009,14.095,11.442,25.571,25.529,25.588  c0.009,0,0.017,0,0.034,0c6.817,0,13.225-2.654,18.046-7.466c4.829-4.821,7.5-11.237,7.508-18.063V42.46  c-0.034-6.758-2.705-13.123-7.534-17.909C482.548,19.807,476.2,17.196,469.451,17.196z"/>
<path d="M72.535,511.995c-18.566,0-37.124-7.065-51.254-21.194C7.595,477.115,0.053,458.907,0.053,439.538  c0-19.368,7.543-37.559,21.228-51.254c0.205-0.196,0.418-0.401,0.64-0.572L275.067,181.06c1.954-1.578,4.522-2.235,6.937-1.775  c2.466,0.452,4.607,1.962,5.862,4.138c9.744,16.945,23.856,31.058,40.793,40.802c2.176,1.246,3.694,3.387,4.138,5.853  c0.461,2.466-0.196,5-1.783,6.937L124.36,490.178c-0.179,0.213-0.375,0.435-0.58,0.631  C109.651,504.93,91.093,511.995,72.535,511.995z M33.047,400.648c-10.281,10.435-15.938,24.232-15.938,38.899  c0,14.804,5.768,28.72,16.229,39.198c21.519,21.51,56.458,21.595,78.079,0.29l200.271-245.339  c-13.054-8.933-24.368-20.247-33.31-33.31L33.047,400.648z"/>
<path d="M72.595,477.917c-0.026,0-0.06,0.009-0.094,0c-21.126,0-38.327-17.176-38.353-38.302  c-0.009-9.607,3.549-18.797,10.017-25.887c0.282-0.307,0.58-0.597,0.904-0.862l224.46-183.241c3.387-2.764,8.328-2.534,11.416,0.555  l0.896,0.896c3.114,3.097,3.37,8.046,0.589,11.442L99.216,467.004c-0.265,0.316-0.546,0.614-0.845,0.887  C91.306,474.359,82.159,477.917,72.595,477.917z M72.518,460.852c0.017,0,0.043,0,0.077,0c5.094,0,9.974-1.826,13.822-5.162  l133.454-163.48L56.392,425.656c-3.353,3.874-5.179,8.797-5.179,13.942c0.017,11.723,9.565,21.254,21.288,21.254  C72.509,460.852,72.509,460.852,72.518,460.852z"/>
<path d="M332.72,76.914c-2.227,0-4.445-0.939-5.973-2.474c-1.621-1.621-2.474-3.84-2.474-6.058c0-2.304,0.853-4.437,2.474-6.058  c3.157-3.157,8.874-3.157,12.031,0c1.613,1.621,2.56,3.84,2.56,6.058c0,2.218-0.939,4.437-2.56,6.058  C337.242,75.976,335.024,76.914,332.72,76.914z"/>
<path d="M366.849,59.849c-2.227,0-4.445-0.939-5.973-2.474c-1.621-1.621-2.56-3.84-2.56-6.058c0-2.218,0.93-4.437,2.56-6.058  c3.157-3.157,8.874-3.157,12.031,0c1.613,1.621,2.56,3.84,2.56,6.058c0,2.218-0.939,4.437-2.56,6.058  C371.286,58.911,369.153,59.849,366.849,59.849z"/>
<path d="M366.849,93.979c-2.227,0-4.445-0.939-5.973-2.474c-1.621-1.621-2.56-3.84-2.56-6.058c0-2.218,0.93-4.437,2.56-6.058  c3.157-3.157,8.874-3.157,12.031,0c1.613,1.621,2.56,3.84,2.56,6.058c0,2.218-0.939,4.437-2.56,6.058  C371.372,93.04,369.153,93.979,366.849,93.979z"/>
<path d="M452.258,179.302c-2.312,0-4.522-0.939-6.058-2.474c-1.621-1.621-2.56-3.84-2.56-6.058c0-2.218,0.93-4.437,2.56-6.058  c3.157-3.157,8.874-3.157,12.031,0c1.613,1.621,2.56,3.84,2.56,6.058s-0.939,4.437-2.56,6.058  C456.695,178.364,454.477,179.302,452.258,179.302z"/>
<path d="M469.323,145.173c-2.312,0-4.522-0.939-6.058-2.474c-1.621-1.621-2.56-3.754-2.56-6.058c0-2.304,0.93-4.437,2.56-6.058  c3.157-3.157,8.874-3.157,12.031,0c1.613,1.621,2.56,3.84,2.56,6.058c0,2.218-0.939,4.437-2.56,6.058  C473.76,144.234,471.541,145.173,469.323,145.173z"/>
<path d="M435.193,145.173c-2.312,0-4.445-0.939-6.058-2.474c-1.621-1.621-2.474-3.84-2.474-6.058c0-2.218,0.853-4.437,2.474-6.058  c3.157-3.157,8.874-3.157,12.031,0c1.613,1.621,2.56,3.84,2.56,6.058c0,2.218-0.939,4.437-2.56,6.058  C439.545,144.234,437.412,145.173,435.193,145.173z"/>
<g>
</g>
<g>
</g>
<g>
</g>
<g>
</g>
<g>
</g>
<g>
</g>
<g>
</g>
<g>
</g>
<g>
</g>
<g>
</g>
<g>
</g>
<g>
</g>
<g>
</g>
<g>
</g>
<g>
</g>
</svg>
