<svg id="Layer_3" height="512" viewBox="0 0 64 64" width="512" xmlns="http://www.w3.org/2000/svg" data-name="Layer 3"><path d="m10 34-.8-8.01a2.21 2.21 0 0 0 -2.2-1.99h-2v10z" fill="#383838"/><path d="m4 17h2v17h-2z" fill="#0068dd"/><path d="m34 39-2.581-12.044a2.473 2.473 0 0 0 -2.419-1.956h-3v14z" fill="#383838"/><path d="m29 38h4.786l-2.367-11.044a2.473 2.473 0 0 0 -2.419-1.956h-3v3h3z" fill="#4c4c4c"/><path d="m24 39v-10h4v10" fill="#f89b1c"/><path d="m57.32 40a6.827 6.827 0 0 1 4.68 2 6 6 0 0 0 -6-6h-4v4z" fill="#0056c0"/><path d="m59.182 40.305a6.827 6.827 0 0 1 2.818 1.695 6 6 0 0 0 -6-6h-4v2.295a6.971 6.971 0 0 1 7.182 2.011z" fill="#0068dd"/><path d="m55 34-1 5-6 6v-10a28.268 28.268 0 0 0 -2.437-11.483l-1.563-3.517h4.667l5.333 8z" fill="#3bb4e6"/><path d="m53 39 1-5-1-6-5.333-8h-3.667l1.563 3.517a28.268 28.268 0 0 1 2.437 11.483v9z" fill="#86ddfa"/><path d="m4.001 34h19.999l4 5h10l6-1v-4l3.87-1.548 3.13-.452v15h-47z" fill="#f89b1c"/><path d="m51 32-3.13.452-3.87 1.548v4l-6 1h-10l-4-5h-17.638a13 13 0 0 0 4.077 6.76 6.988 6.988 0 0 1 12.481 3.24h28.08z" fill="#fdb716"/><path d="m47.545 30a28.247 28.247 0 0 1 .455 5v10l6-6 1-5-.667-4z" fill="#004a9e"/><path d="m53.19 38.051.81-4.051-.667-4h-5.788a28.247 28.247 0 0 1 .455 5v6.408a6.989 6.989 0 0 1 5.19-3.357z" fill="#0068dd"/><path d="m49 47h-45a2 2 0 0 1 -2-2 2 2 0 0 1 2-2h45" fill="#383838"/><path d="m49 43h-44a2 2 0 0 0 2 2h42z" fill="#4c4c4c"/><circle cx="16" cy="45" fill="#383838" r="6"/><path d="m16 39a5.974 5.974 0 0 0 -3.71 1.29 5.995 5.995 0 0 0 8.42 8.42 5.995 5.995 0 0 0 -4.71-9.71z" fill="#4c4c4c"/><circle cx="16" cy="45" fill="#383838" r="2"/><path d="m53 28h4v6h-4z" fill="#fdb716"/><path d="m5 20h46l2-3a26.646 26.646 0 0 0 -6.151-1.27l-21.315-1.83q-10.528-.9-21.107-.9a2.428 2.428 0 0 0 -2.427 2.427 2.431 2.431 0 0 0 .256 1.085 10.247 10.247 0 0 0 1.92 2.664z" fill="#f89b1c"/><path d="m4.256 18.512a10.2 10.2 0 0 0 .914 1.488h45.83l1.177-1.766a26.647 26.647 0 0 0 -3.328-.5l-21.315-1.834q-10.528-.9-21.107-.9a2.427 2.427 0 0 0 -2.171 3.512z" fill="#fdb716"/><circle cx="54" cy="45" fill="#383838" r="6"/><path d="m54 39a5.974 5.974 0 0 0 -3.71 1.29 5.995 5.995 0 0 0 8.42 8.42 5.995 5.995 0 0 0 -4.71-9.71z" fill="#4c4c4c"/><circle cx="54" cy="45" fill="#383838" r="2"/><path d="m54 29a3.992 3.992 0 0 0 3 3.859v-4.859h-3z" fill="#ffc767"/><path d="m25 20h2v9h-2z" fill="#0068dd"/><path d="m7 24v10h3l-.8-8.01a2.21 2.21 0 0 0 -2.2-1.99z" fill="#4c4c4c"/><path d="m16 42a3 3 0 1 0 3 3 3 3 0 0 0 -3-3zm0 4a1 1 0 1 1 1-1 1 1 0 0 1 -1 1z"/><path d="m54 42a3 3 0 1 0 3 3 3 3 0 0 0 -3-3zm0 4a1 1 0 1 1 1-1 1 1 0 0 1 -1 1z"/><path d="m56 35h1a1 1 0 0 0 1-1v-6a1 1 0 0 0 -1-1h-2.465l-4-6h.465a1 1 0 0 0 .832-.445l2-3a1 1 0 0 0 -.516-1.5 27.7 27.7 0 0 0 -6.381-1.318l-21.316-1.831c-7.019-.601-14.148-.906-21.192-.906a3.431 3.431 0 0 0 -3.427 3.427 3.467 3.467 0 0 0 .361 1.533 11.263 11.263 0 0 0 2.108 2.923l.531.531v12.586a1 1 0 0 0 -1 1v8.183a2.993 2.993 0 0 0 1 5.817h5.685a6.985 6.985 0 0 0 12.63 0h25.37a6.992 6.992 0 1 0 12.585-6.093 5.846 5.846 0 0 1 1.023.8 1 1 0 0 0 .707.293.987.987 0 0 0 .383-.076 1 1 0 0 0 .617-.924 7.009 7.009 0 0 0 -7-7zm-40 3a7 7 0 0 0 -6.315 4h-4.685v-7h18.52l3.7 4.625a1 1 0 0 0 .78.375h10a1 1 0 0 0 .164-.014l6-1a1 1 0 0 0 .836-.986v-3.323l1.971-.788c.015.369.029.739.029 1.111v7h-24.685a7 7 0 0 0 -6.315-4zm27.35-17 1.3 2.923a27.088 27.088 0 0 1 2.157 7.877l-3.178 1.271a1 1 0 0 0 -.629.929v3.153l-5.083.847h-3.109l-2.408-11.254a3.489 3.489 0 0 0 -3.4-2.746h-2v-3zm-16.35 9v6.149l-2-2.5v-3.649zm1-2h-1v-2h2a1.481 1.481 0 0 1 1.441 1.165l2.322 10.835h-3.763v-9a1 1 0 0 0 -1-1zm-3 0h-1a1 1 0 0 0 -1 1v4h-12.095l-.711-7.109a3.2 3.2 0 0 0 -3.194-2.891h-1v-2h19zm-19-3h1a1.207 1.207 0 0 1 1.2 1.09l.7 6.91h-2.9zm42.719 6h3.281v3a1 1 0 0 0 1 1h.78l-.611 3.054a6.975 6.975 0 0 0 -4.169 2.057v-5.111a29.377 29.377 0 0 0 -.281-4zm7.281 2h-2v-4h2zm-3.684-5.723a.991.991 0 0 0 -.316.723v1h-3.619a29.317 29.317 0 0 0 -1.9-5.889l-.942-2.111h2.593zm-49.165-11.21a1.428 1.428 0 0 1 1.276-2.067c6.987 0 14.059.3 21.022.9l21.316 1.828a25.586 25.586 0 0 1 4.657.837l-.957 1.435h-45.051l-.531-.531a9.244 9.244 0 0 1 -1.732-2.402zm.849 29.933a1 1 0 0 1 0-2h5.08a6.29 6.29 0 0 0 0 2zm12 4a5 5 0 1 1 5-5 5.006 5.006 0 0 1 -5 5zm6.92-4a6.29 6.29 0 0 0 0-2h24.08v1a7.026 7.026 0 0 0 .08 1zm31.08 4a5 5 0 1 1 5-5 5.006 5.006 0 0 1 -5 5zm3.624-10.978a6.966 6.966 0 0 0 -2.424-.912l.22-1.11h.58a5.006 5.006 0 0 1 4.447 2.715 7.817 7.817 0 0 0 -2.823-.693z"/></svg>