<?xml version="1.0" encoding="iso-8859-1"?>
<!-- Generator: Adobe Illustrator 19.0.0, SVG Export Plug-In . SVG Version: 6.00 Build 0)  -->
<svg xmlns="http://www.w3.org/2000/svg" xmlns:xlink="http://www.w3.org/1999/xlink" version="1.1" id="Layer_1" x="0px" y="0px" viewBox="0 0 511.993 511.993" style="enable-background:new 0 0 511.993 511.993;" xml:space="preserve">
<g>
	<polygon style="fill:#2296F3;" points="162.142,315.73 93.879,383.993 110.945,503.451 136.543,452.255 187.74,443.722  "/>
	<polygon style="fill:#2296F3;" points="349.862,315.73 418.124,383.993 401.059,503.451 375.461,452.255 324.264,443.722  "/>
</g>
<path style="fill:#1566C0;" d="M375.546,341.414c-3.635,36.401-11.067,72.324-22.185,107.172l-25.598-4.266l-0.768,2.304  c-1.22,3.413-4.48,5.674-8.106,5.632H193.115c-3.626,0.043-6.886-2.219-8.106-5.632l-0.768-2.304l-25.598,4.266  c-11.118-34.848-18.55-70.771-22.185-107.172l23.55-23.55c-1.451-17.663-2.133-36.008-2.133-54.866  c0-112.035,57.084-207.943,84.133-247.109c5.316-7.731,15.888-9.685,23.619-4.369c1.715,1.178,3.191,2.654,4.369,4.369  c27.049,39.165,84.133,135.074,84.133,247.109c0,18.857-0.683,37.203-2.133,54.866L375.546,341.414z"/>
<path style="fill:#C52828;" d="M354.129,262.998c1.015,62.281-8.149,124.305-27.134,183.625c-1.22,3.413-4.48,5.674-8.106,5.632  H193.115c-3.626,0.043-6.886-2.219-8.106-5.632c-18.985-59.32-28.15-121.344-27.134-183.625c0-110.755,55.804-205.81,83.194-245.744  c0.341-0.512,0.597-0.939,0.939-1.365c5.316-7.731,15.888-9.685,23.619-4.369c1.715,1.178,3.191,2.654,4.369,4.369  C297.045,55.054,354.129,150.963,354.129,262.998z"/>
<path style="fill:#F44335;" d="M324.264,262.998c1.015,62.281-8.149,124.305-27.134,183.625c-1.22,3.413-4.48,5.674-8.106,5.632  h-95.908c-3.626,0.043-6.886-2.219-8.106-5.632c-18.985-59.32-28.15-121.344-27.134-183.625c0-110.755,55.804-205.81,83.194-245.744  C268.46,57.188,324.264,152.243,324.264,262.998z"/>
<path style="fill:#37474F;" d="M326.483,122.805c-22.305,9.343-46.299,14.019-70.481,13.738c-4.693,0-9.386-0.171-13.908-0.512  c-19.472-1.152-38.611-5.623-56.572-13.226c14.617-37.706,33.568-73.587,56.487-106.916l0.085-0.085  c5.376-7.688,15.965-9.565,23.653-4.19c1.655,1.16,3.097,2.602,4.249,4.275C292.906,49.218,311.866,85.098,326.483,122.805z"/>
<path style="fill:#607D8B;" d="M298.666,122.805c-17.961,7.603-37.1,12.074-56.572,13.226c-19.472-1.152-38.611-5.623-56.572-13.226  c14.617-37.706,33.568-73.587,56.487-106.916l0.085-0.085l0.085,0.085C265.089,49.218,284.049,85.098,298.666,122.805z"/>
<path d="M258.127,145.092c-1.476,0-2.961,0-4.428,0c-24.54,0-48.637-4.847-71.47-14.412l-7.662-3.208l3.004-7.748  c14.83-38.278,34.148-74.841,57.417-108.665c8.029-11.605,23.994-14.506,35.548-6.51c2.534,1.749,4.719,3.934,6.485,6.485  c23.277,33.841,42.587,70.404,57.426,108.682l3.004,7.748l-7.654,3.208C306.943,140.246,282.837,145.092,258.127,145.092z   M255.9,128.01c20.445,0.256,40.454-3.132,59.482-10.026c-13.908-34.174-31.512-66.854-52.425-97.256  c-0.572-0.836-1.288-1.553-2.125-2.133c-3.857-2.662-9.147-1.707-11.809,2.15c-20.888,30.385-38.5,63.066-52.408,97.239  C215.633,124.887,235.523,128.283,255.9,128.01z"/>
<path style="fill:#1566C0;" d="M307.199,221.87c-0.026,28.269-22.928,51.171-51.197,51.197c-5.819,0.017-11.596-0.998-17.066-2.986  c-26.622-9.378-40.607-38.568-31.23-65.19c5.145-14.6,16.63-26.085,31.23-31.23c5.47-1.988,11.246-3.004,17.066-2.986  C284.262,170.699,307.173,193.61,307.199,221.87z"/>
<path style="fill:#2296F3;" d="M273.067,221.87c0.026,21.69-13.661,41.026-34.131,48.21c-26.622-9.378-40.607-38.568-31.23-65.19  c5.145-14.6,16.63-26.085,31.23-31.23C259.398,180.844,273.093,200.18,273.067,221.87z"/>
<path d="M256.002,281.608c-32.936,0-59.729-26.801-59.729-59.729s26.793-59.729,59.729-59.729c32.928,0,59.729,26.793,59.729,59.729  S288.93,281.608,256.002,281.608z M256.002,179.206c-23.525,0-42.664,19.139-42.664,42.664s19.139,42.664,42.664,42.664  c23.525,0,42.664-19.139,42.664-42.664S279.527,179.206,256.002,179.206z"/>
<path d="M238.936,230.403h-0.009c-4.71,0-8.524-3.831-8.524-8.541c0.017-14.088,11.494-25.573,25.59-25.59h0.009  c4.71,0,8.524,3.814,8.533,8.524c0.009,4.71-3.806,8.541-8.524,8.541c-4.702,0-8.533,3.84-8.541,8.541  C247.461,226.58,243.646,230.403,238.936,230.403z"/>
<path d="M192.919,460.796c-7.091,0-13.516-4.514-15.948-11.28l-0.836-2.517c-13.541-41.648-21.827-84.892-24.651-128.572  c-1.425-17.33-2.15-36.025-2.15-55.42c0-115.482,59.891-214.676,85.643-251.955c3.857-5.597,9.668-9.378,16.374-10.615  c6.69-1.246,13.482,0.196,19.105,4.07c2.594,1.792,4.804,4.002,6.562,6.57c25.743,37.254,85.635,136.422,85.635,251.938  c0,19.395-0.725,38.082-2.159,55.565c-2.807,43.526-11.101,86.77-24.626,128.384l-0.785,2.364  c-2.517,7.022-9.002,11.246-16.306,11.477H193.115C193.047,460.796,192.987,460.796,192.919,460.796z M256.028,17.067  c-0.521,0-1.041,0.043-1.562,0.145c-2.219,0.41-4.147,1.664-5.427,3.524c-24.847,35.983-82.631,131.592-82.631,242.271  c0,18.926,0.708,37.152,2.108,54.166c2.739,42.408,10.76,84.253,23.849,124.51l0.751,2.278l125.781-0.222l0.776-2.099  c13.072-40.215,21.093-82.051,23.815-124.305c1.408-17.168,2.116-35.385,2.116-54.32c0-110.713-57.775-206.297-82.623-242.262  c-0.597-0.87-1.331-1.604-2.201-2.201C259.355,17.57,257.717,17.067,256.028,17.067z"/>
<path style="fill:#37474F;" d="M204.805,452.255l6.587,19.762c1.16,3.481,4.42,5.836,8.098,5.836h73.023  c3.669,0,6.937-2.347,8.098-5.836l6.587-19.762H204.805z"/>
<path d="M292.514,486.394h-73.032c-7.355,0-13.866-4.693-16.187-11.664l-10.325-31h126.072l-10.342,31  C306.379,481.701,299.869,486.394,292.514,486.394z M216.64,460.796l2.841,8.533h73.032l2.841-8.533H216.64z"/>
<path d="M110.945,511.993c-0.452,0-0.913-0.034-1.374-0.111c-3.686-0.597-6.553-3.524-7.082-7.219L85.423,385.204  c-0.384-2.662,0.512-5.341,2.415-7.244l68.262-68.262l12.065,12.065l-65.242,65.242l12.603,88.195l13.379-26.767  c1.22-2.44,3.541-4.147,6.229-4.599l51.18-8.533l2.841,16.835l-46.93,7.825l-23.653,47.306  C117.114,510.201,114.136,511.993,110.945,511.993z"/>
<path d="M401.059,511.993c-3.191,0-6.169-1.792-7.637-4.719l-23.653-47.306l-46.93-7.825l2.85-16.835l51.171,8.533  c2.688,0.452,5.009,2.159,6.229,4.599l13.379,26.767l12.603-88.195l-65.242-65.242l12.065-12.065l68.262,68.262  c1.903,1.903,2.79,4.582,2.415,7.244l-17.066,119.459c-0.538,3.695-3.396,6.613-7.082,7.219  C401.963,511.958,401.511,511.993,401.059,511.993z"/>
<polygon style="fill:#FDD834;" points="256.002,307.198 271.822,338.095 307.199,343.052 281.6,367.098 287.641,401.058   256.002,385.025 224.362,401.058 230.404,367.098 204.805,343.052 240.182,338.095 "/>
<path d="M287.641,409.599c-1.314,0-2.645-0.299-3.857-0.922l-27.783-14.07l-27.783,14.07c-2.893,1.476-6.348,1.178-8.942-0.759  c-2.594-1.928-3.882-5.154-3.311-8.345l5.231-29.412l-22.228-20.88c-2.398-2.244-3.285-5.666-2.295-8.797  c0.99-3.132,3.695-5.41,6.946-5.871l30.982-4.343l13.797-26.955c1.459-2.85,4.394-4.642,7.594-4.642l0,0  c3.2,0,6.135,1.792,7.603,4.642l13.789,26.955l30.991,4.343c3.251,0.461,5.956,2.73,6.946,5.871s0.102,6.562-2.295,8.797  l-22.228,20.88l5.231,29.412c0.563,3.183-0.717,6.417-3.311,8.345C291.234,409.028,289.442,409.599,287.641,409.599z   M256.002,376.501c1.323,0,2.645,0.307,3.857,0.922l16.383,8.302l-3.038-17.134c-0.512-2.833,0.461-5.743,2.56-7.705l12.611-11.852  l-17.731-2.483c-2.748-0.384-5.154-2.082-6.417-4.556l-8.217-16.067l-8.226,16.067c-1.263,2.475-3.661,4.173-6.408,4.556  l-17.731,2.483l12.611,11.852c2.099,1.963,3.063,4.872,2.56,7.705l-3.046,17.134l16.383-8.302  C253.357,376.808,254.679,376.501,256.002,376.501z"/>
<g>
</g>
<g>
</g>
<g>
</g>
<g>
</g>
<g>
</g>
<g>
</g>
<g>
</g>
<g>
</g>
<g>
</g>
<g>
</g>
<g>
</g>
<g>
</g>
<g>
</g>
<g>
</g>
<g>
</g>
</svg>
