<?xml version="1.0" encoding="iso-8859-1"?>
<!-- Generator: Adobe Illustrator 19.0.0, SVG Export Plug-In . SVG Version: 6.00 Build 0)  -->
<svg xmlns="http://www.w3.org/2000/svg" xmlns:xlink="http://www.w3.org/1999/xlink" version="1.1" id="Layer_1" x="0px" y="0px" viewBox="0 0 393.457 393.457" style="enable-background:new 0 0 393.457 393.457;" xml:space="preserve" width="512" height="512">
<g>
	<g>
		<g>
			<path style="fill:#A77F73;" d="M23.299,370.159c28.07,28.07,188.281,25.862,280.504-66.359     c92.221-92.223,94.429-252.433,66.359-280.504C342.093-4.772,181.882-2.564,89.66,89.657     C-2.563,181.88-4.772,342.091,23.299,370.159z"/>
			<path style="fill:#E8E8E8;" d="M21.059,210.448c-5.914,20.297-9.726,40.394-11.75,59.194l114.51,114.509     c18.799-2.025,38.894-5.837,59.192-11.751L21.059,210.448z"/>
			<path style="fill:#E8E8E8;" d="M210.449,21.056c20.299-5.914,40.395-9.725,59.195-11.75l114.509,114.509     c-2.026,18.801-5.835,38.897-11.751,59.194L210.449,21.056z"/>
		</g>
		<path style="fill:#FFFFFF;" d="M254.777,168.69c8.286-8.287,8.286-21.722,0-30.009c-8.287-8.287-21.724-8.286-30.008,0    l-86.086,86.084c-8.284,8.287-8.286,21.721,0,30.009c8.287,8.287,21.724,8.286,30.01,0L254.777,168.69z"/>
	</g>
	<g>
		<circle style="fill:#7C5C5B;" cx="201.652" cy="332.553" r="9.216"/>
		<circle style="fill:#7C5C5B;" cx="255.82" cy="304.452" r="9.216"/>
		<circle style="fill:#7C5C5B;" cx="274.772" cy="269.207" r="9.216"/>
		<circle style="fill:#7C5C5B;" cx="198.06" cy="62.057" r="9.216"/>
		<circle style="fill:#7C5C5B;" cx="335.285" cy="41.2" r="9.216"/>
		<path d="M375.466,17.993c-11.43-11.429-38.224-17.983-73.512-17.983c-64.418,0-155.41,22.157-217.598,84.345    c-38.524,38.524-59.272,85.538-70.427,123.782c-0.05,0.152-0.092,0.306-0.132,0.46c-4.933,16.999-7.978,32.251-9.839,44.218    c-8.61,55.34-2.839,105.775,14.036,122.649c11.429,11.429,38.224,17.984,73.515,17.985h0.009    c64.415,0,155.4-22.158,217.588-84.344c38.524-38.526,59.272-85.54,70.427-123.785c0.048-0.15,0.09-0.3,0.129-0.452    c4.934-17,7.979-32.255,9.84-44.223c0.844-5.42,1.544-10.791,2.114-16.09c0.001-0.012,0.003-0.024,0.004-0.036    C396.867,75.728,390.684,33.211,375.466,17.993z M91.518,378.447H91.51c-36.401-0.001-56.639-7.322-62.908-13.592    c-9.137-9.136-15.305-39.161-13.134-78.447l91.583,91.583C101.812,378.282,96.621,378.447,91.518,378.447z M126.555,376.28    L17.173,266.899c0.459-3.869,0.987-7.794,1.607-11.78c1.326-8.525,3.286-18.805,6.14-30.203l143.622,143.622    C154.644,372.016,140.511,374.618,126.555,376.28z M298.499,298.497c-26.938,26.939-61.418,47.771-102.479,61.917    c-3.587,1.236-7.219,2.399-10.873,3.516L29.527,208.31c10.865-35.614,30.389-78.301,65.437-113.349    c26.938-26.938,61.418-47.771,102.479-61.916c3.587-1.236,7.218-2.399,10.872-3.515l155.619,155.619    C353.069,220.762,333.547,263.449,298.499,298.497z M374.681,138.338c-1.326,8.525-3.286,18.805-6.14,30.203L224.92,24.92    c13.898-3.478,28.032-6.08,41.988-7.743l109.38,109.379C375.829,130.426,375.301,134.351,374.681,138.338z M377.992,107.047    l-91.58-91.581c5.242-0.291,10.436-0.457,15.542-0.457c36.399,0,56.636,7.321,62.904,13.59    C373.995,37.736,380.164,67.762,377.992,107.047z M188.939,132.861c-2.929,2.929-2.929,7.678,0,10.606l10.219,10.219    l-17.432,17.431L171.509,160.9c-2.93-2.929-7.678-2.929-10.607,0c-2.929,2.929-2.929,7.678,0,10.606l10.218,10.218l-17.432,17.431    l-10.218-10.218c-2.93-2.929-7.678-2.929-10.608,0c-2.929,2.929-2.929,7.678,0,10.606l10.219,10.219l-9.701,9.701    c-11.195,11.198-11.195,29.417,0.001,40.615c5.424,5.423,12.636,8.411,20.307,8.411c0,0,0.001,0,0.002,0    c7.671,0,14.883-2.987,20.308-8.412l9.7-9.7l10.217,10.217c1.465,1.464,3.385,2.197,5.304,2.197c1.919,0,3.839-0.732,5.304-2.197    c2.929-2.929,2.929-7.678,0-10.606l-10.218-10.218l17.432-17.432l10.217,10.217c1.465,1.464,3.385,2.197,5.304,2.197    c1.919,0,3.839-0.732,5.304-2.197c2.929-2.929,2.929-7.678,0-10.606l-10.218-10.217l17.432-17.431l10.217,10.217    c1.465,1.465,3.384,2.197,5.304,2.197c1.919,0,3.839-0.732,5.304-2.197c2.929-2.929,2.929-7.678,0-10.606l-10.218-10.218    l9.701-9.701c11.196-11.198,11.196-29.417-0.001-40.616c-5.424-5.424-12.636-8.411-20.308-8.411    c-7.671,0-14.883,2.988-20.307,8.412l-9.701,9.701l-10.218-10.218C196.618,129.932,191.87,129.931,188.939,132.861z     M163.391,249.472c-2.592,2.591-6.036,4.018-9.701,4.018c0,0,0,0-0.001,0c-3.665-0.001-7.11-1.427-9.701-4.018    c-5.349-5.349-5.348-14.054,0-19.403l9.7-9.7l19.402,19.402L163.391,249.472z M183.697,229.165l-19.402-19.403l17.432-17.431    l19.402,19.402L183.697,229.165z M230.073,143.984c2.59-2.591,6.035-4.018,9.699-4.018c3.665,0,7.11,1.427,9.701,4.018    c5.35,5.349,5.35,14.053,0,19.402l-9.7,9.701l-19.402-19.402L230.073,143.984z M229.166,183.695l-17.431,17.431l-19.402-19.402    l17.432-17.431L229.166,183.695z"/>
	</g>
</g>















</svg>
