<svg id="Layer_1" enable-background="new 0 0 512 512" height="512" viewBox="0 0 512 512" width="512" xmlns="http://www.w3.org/2000/svg"><g><g><path d="m272.567 222.867h194.181c7.54 0 11.159-9.256 5.618-14.37l-199.799-184.43-13.567 163.421z" fill="#f4d844"/><path d="m239.433 289.133h-197.963c-6.975 0-10.827-8.093-6.429-13.507l204.392-251.56 14.496 167.988z" fill="#c4e14d"/><path d="m477.579 405.1c0 54.897-44.503 99.4-99.4 99.4h-248.5c-54.897 0-99.4-44.503-99.4-99.4l225.721-24.85z" fill="#b9e4ef"/><path d="m256 380.25-11.607 1.278 210.186 23.572c0 54.897-44.503 99.4-99.4 99.4h23c54.897 0 99.4-44.503 99.4-99.4z" fill="#93d8e4"/><path d="m272.567 367.476h-33.133v-351.976c0-4.418 3.582-8 8-8h17.133c4.418 0 8 3.582 8 8z" fill="#f9f6f6"/><path d="m472.366 208.497-199.799-184.43-1.637 19.72 178.436 164.71c5.541 5.115 1.922 14.37-5.618 14.37h23c7.54 0 11.159-9.256 5.618-14.37z" fill="#edbd2d"/><path d="m15.783 355.4c-4.575 0-8.283 3.709-8.283 8.283v24.85c0 9.15 7.417 16.567 16.567 16.567h463.867c9.15 0 16.567-7.417 16.567-16.567v-24.85c0-4.575-3.709-8.283-8.283-8.283z" fill="#8ec6f6"/><path d="m496.217 355.4h-23c4.575 0 8.283 3.709 8.283 8.283v24.85c0 9.15-7.417 16.567-16.567 16.567h23c9.15 0 16.567-7.417 16.567-16.567v-24.85c0-4.574-3.709-8.283-8.283-8.283z" fill="#779fd5"/></g><path d="m496.217 347.9h-216.15v-117.533h186.681c6.546 0 12.316-3.94 14.7-10.036s.816-12.905-3.995-17.345l-197.386-182.203v-5.283c0-8.547-6.953-15.5-15.5-15.5h-17.134c-8.547 0-15.5 6.953-15.5 15.5v5.904l-202.713 249.493c-3.877 4.772-4.644 11.185-2.001 16.736 2.642 5.551 8.103 9 14.251 9h190.463v51.267h-216.15c-8.702 0-15.783 7.08-15.783 15.783v24.85c0 12.928 10.247 23.503 23.045 24.041 3.85 55.471 50.202 99.426 106.634 99.426h248.5c56.423 0 102.77-43.941 106.633-99.4h3.121c13.27 0 24.067-10.796 24.067-24.067v-24.85c0-8.703-7.081-15.783-15.783-15.783zm-28.938-133.892c.156.145.393.363.198.861s-.517.498-.73.498h-186.68v-174.17zm-219.846-199.008h17.134c.276 0 .5.224.5.5v299.267h-18.134v-299.267c0-.276.224-.5.5-.5zm-205.963 266.633c-.173 0-.495 0-.708-.447s-.01-.697.099-.831l191.072-235.164v236.443h-190.463zm205.463 48.134h18.134v18.133h-18.134zm131.246 167.233h-248.5c-36.094 0-67.389-20.919-82.412-51.267h413.325c-15.024 30.348-46.319 51.267-82.413 51.267zm88.252-66.247c-.123-.006-.244-.019-.369-.019h-424.263c-.125 0-.247.013-.371.019-1.699-5.834-2.833-11.906-3.34-18.152h431.685c-.509 6.246-1.643 12.317-3.342 18.152zm30.569-42.22c0 5-4.067 9.067-9.067 9.067h-463.866c-5 0-9.067-4.067-9.067-9.067v-24.85c0-.432.352-.783.783-.783h480.434c.432 0 .783.352.783.783z"/></g></svg>