<?xml version="1.0" encoding="iso-8859-1"?>
<!-- Generator: Adobe Illustrator 19.0.0, SVG Export Plug-In . SVG Version: 6.00 Build 0)  -->
<svg xmlns="http://www.w3.org/2000/svg" xmlns:xlink="http://www.w3.org/1999/xlink" version="1.1" id="Layer_1" x="0px" y="0px" viewBox="0 0 512.002 512.002" style="enable-background:new 0 0 512.002 512.002;" xml:space="preserve">
<path d="M162.133,452.268c-4.71,0-8.533-3.814-8.533-8.525c-0.051-47.002-38.34-85.291-85.342-85.342  c-4.71-0.009-8.525-3.831-8.525-8.542s3.823-8.525,8.533-8.525c0,0,0,0,0.009,0c56.397,0.068,102.332,45.995,102.391,102.391  C170.667,448.436,166.852,452.259,162.133,452.268C162.142,452.268,162.133,452.268,162.133,452.268z"/>
<g>
	<path style="fill:#1566C0;" d="M128,443.734c0.026,32.964-26.684,59.708-59.648,59.733c-0.026,0-0.06,0-0.085,0   c-5.777,0.017-11.529-0.819-17.067-2.475c-31.625-9.438-49.613-42.726-40.175-74.342c5.769-19.311,20.864-34.415,40.175-40.175   c5.538-1.655,11.29-2.492,17.067-2.475c32.964-0.026,59.708,26.684,59.733,59.648C128,443.675,128,443.709,128,443.734z"/>
	<path style="fill:#1566C0;" d="M503.467,443.734c0.026,32.964-26.684,59.708-59.648,59.733c-0.026,0-0.06,0-0.085,0   c-5.777,0.017-11.529-0.819-17.067-2.475c-31.625-9.438-49.613-42.726-40.175-74.342c5.76-19.311,20.864-34.406,40.175-40.175   c5.538-1.655,11.29-2.492,17.067-2.475c32.964-0.026,59.708,26.684,59.733,59.648C503.467,443.675,503.467,443.709,503.467,443.734   z"/>
</g>
<g>
	<path style="fill:#2296F3;" d="M93.867,443.734c0.017,26.428-17.34,49.715-42.667,57.259   c-31.625-9.438-49.613-42.726-40.175-74.342c5.769-19.311,20.864-34.415,40.175-40.175   C76.527,394.019,93.884,417.307,93.867,443.734z"/>
	<path style="fill:#2296F3;" d="M469.333,443.734c0.017,26.428-17.34,49.715-42.667,57.259   c-31.625-9.438-49.613-42.726-40.175-74.342c5.76-19.311,20.864-34.406,40.175-40.175   C451.994,394.019,469.35,417.307,469.333,443.734z"/>
</g>
<path d="M68.267,512.001C30.626,512.001,0,481.375,0,443.734s30.626-68.267,68.267-68.267s68.267,30.626,68.267,68.267  S105.907,512.001,68.267,512.001z M68.267,392.534c-28.237,0-51.2,22.963-51.2,51.2c0,28.237,22.963,51.2,51.2,51.2  s51.2-22.963,51.2-51.2C119.467,415.498,96.503,392.534,68.267,392.534z"/>
<g>
	<circle style="fill:#607D8B;" cx="68.267" cy="443.734" r="25.6"/>
	<circle style="fill:#607D8B;" cx="443.733" cy="443.734" r="25.6"/>
</g>
<path d="M68.267,477.868c-18.825,0-34.133-15.309-34.133-34.133c0-18.825,15.309-34.133,34.133-34.133S102.4,424.91,102.4,443.734  C102.4,462.559,87.091,477.868,68.267,477.868z M68.267,426.668c-9.412,0-17.067,7.654-17.067,17.067  c0,9.412,7.654,17.067,17.067,17.067s17.067-7.654,17.067-17.067C85.333,434.322,77.679,426.668,68.267,426.668z"/>
<path d="M68.267,512.001c-4.71,0-8.533-3.814-8.533-8.533v-34.133c0-4.719,3.823-8.533,8.533-8.533s8.533,3.814,8.533,8.533v34.133  C76.8,508.187,72.977,512.001,68.267,512.001z"/>
<path d="M68.267,426.668c-4.71,0-8.533-3.814-8.533-8.533v-34.133c0-4.719,3.823-8.533,8.533-8.533s8.533,3.814,8.533,8.533v34.133  C76.8,422.853,72.977,426.668,68.267,426.668z"/>
<path d="M42.667,452.268H8.533c-4.71,0-8.533-3.814-8.533-8.533c0-4.719,3.823-8.533,8.533-8.533h34.133  c4.71,0,8.533,3.814,8.533,8.533C51.2,448.453,47.377,452.268,42.667,452.268z"/>
<path d="M503.458,379.888c-1.92,0-3.84-0.64-5.436-1.954c-15.206-12.595-34.449-19.533-54.178-19.533c-0.137-0.017-0.256,0-0.367,0  c-6.929,0-13.781,0.862-20.42,2.551c-4.574,1.178-9.207-1.596-10.377-6.161c-1.169-4.565,1.596-9.207,6.161-10.377  c8.115-2.074,16.427-3.243,24.917-3.081c0.043,0,0.085,0,0.119,0c23.663,0,46.763,8.329,65.033,23.441  c3.635,3.012,4.13,8.38,1.135,12.015C508.348,378.838,505.916,379.888,503.458,379.888z"/>
<path d="M443.733,512.001c-37.641,0-68.267-30.626-68.267-68.267s30.626-68.267,68.267-68.267S512,406.094,512,443.734  S481.374,512.001,443.733,512.001z M443.733,392.534c-28.237,0-51.2,22.963-51.2,51.2c0,28.237,22.963,51.2,51.2,51.2  s51.2-22.963,51.2-51.2C494.933,415.498,471.97,392.534,443.733,392.534z"/>
<path d="M443.733,477.868c-18.825,0-34.133-15.309-34.133-34.133c0-18.825,15.309-34.133,34.133-34.133  c18.825,0,34.133,15.309,34.133,34.133C477.867,462.559,462.558,477.868,443.733,477.868z M443.733,426.668  c-9.412,0-17.067,7.654-17.067,17.067c0,9.412,7.654,17.067,17.067,17.067c9.412,0,17.067-7.654,17.067-17.067  C460.8,434.322,453.146,426.668,443.733,426.668z"/>
<path d="M443.733,512.001c-4.719,0-8.533-3.814-8.533-8.533v-34.133c0-4.719,3.814-8.533,8.533-8.533  c4.719,0,8.533,3.814,8.533,8.533v34.133C452.267,508.187,448.452,512.001,443.733,512.001z"/>
<path d="M503.467,452.268h-34.133c-4.719,0-8.533-3.814-8.533-8.533c0-4.719,3.814-8.533,8.533-8.533h34.133  c4.719,0,8.533,3.814,8.533,8.533C512,448.453,508.186,452.268,503.467,452.268z"/>
<path d="M418.133,452.268H384c-4.719,0-8.533-3.814-8.533-8.533c0-4.719,3.814-8.533,8.533-8.533h34.133  c4.719,0,8.533,3.814,8.533,8.533C426.667,448.453,422.852,452.268,418.133,452.268z"/>
<path d="M324.267,452.268h-256c-4.71,0-8.533-3.814-8.533-8.533c0-4.719,3.823-8.533,8.533-8.533h251.605l82.782-115.891  c2.739-3.831,8.073-4.727,11.904-1.98c3.831,2.731,4.727,8.064,1.98,11.904l-85.333,119.467  C329.609,450.937,327.023,452.268,324.267,452.268z"/>
<path d="M443.725,452.268c-3.823,0-7.296-2.586-8.269-6.468L339.294,61.04c-1.152-4.574,1.63-9.207,6.212-10.351  c4.565-1.161,9.199,1.638,10.342,6.212l96.171,384.768c1.152,4.565-1.63,9.199-6.212,10.342  C445.107,452.182,444.407,452.268,443.725,452.268z"/>
<circle style="fill:#2296F3;" cx="341.333" cy="34.134" r="25.6"/>
<path d="M341.333,68.268c-18.825,0-34.133-15.309-34.133-34.133s15.309-34.133,34.133-34.133c18.825,0,34.133,15.309,34.133,34.133  S360.158,68.268,341.333,68.268z M341.333,17.068c-9.412,0-17.067,7.654-17.067,17.067s7.654,17.067,17.067,17.067  c9.412,0,17.067-7.654,17.067-17.067S350.746,17.068,341.333,17.068z"/>
<path d="M384.009,290.134c-3.132,0-6.144-1.724-7.646-4.719c-2.108-4.215-0.401-9.344,3.814-11.452l34.133-17.067  c4.207-2.108,9.335-0.401,11.452,3.814c2.108,4.215,0.401,9.344-3.814,11.452l-34.133,17.067  C386.594,289.844,385.289,290.134,384.009,290.134z"/>
<g>
</g>
<g>
</g>
<g>
</g>
<g>
</g>
<g>
</g>
<g>
</g>
<g>
</g>
<g>
</g>
<g>
</g>
<g>
</g>
<g>
</g>
<g>
</g>
<g>
</g>
<g>
</g>
<g>
</g>
</svg>
