<?xml version="1.0" encoding="iso-8859-1"?>
<!-- Generator: Adobe Illustrator 21.0.0, SVG Export Plug-In . SVG Version: 6.00 Build 0)  -->
<svg version="1.1" id="Capa_1" xmlns="http://www.w3.org/2000/svg" xmlns:xlink="http://www.w3.org/1999/xlink" x="0px" y="0px"
	 viewBox="0 0 593.275 593.275" style="enable-background:new 0 0 593.275 593.275;" xml:space="preserve">
<g>
	<g>
		<g id="filled_outline_28_">
			<polygon style="fill:#D0D7DF;" points="504.29,306.525 39.552,306.525 59.328,227.421 425.185,227.421 			"/>
			<polygon style="fill:#D0D7DF;" points="197.761,227.421 108.768,227.421 108.768,187.869 168.097,187.869 			"/>
			<polygon style="fill:#DD381A;" points="9.888,405.406 514.178,405.406 541.864,365.854 9.888,365.854 			"/>
			<polygon style="fill:#4394CC;" points="9.888,306.525 9.888,365.854 541.864,365.854 583.394,306.525 			"/>
			<polygon style="fill:#D0D7DF;" points="355.969,177.981 247.201,177.981 247.201,197.757 281.809,197.757 296.641,227.421 
				355.969,227.421 326.305,197.757 355.969,197.757 			"/>
			<polygon style="fill:#C3C9D1;" points="108.768,207.645 108.768,227.421 197.761,227.421 182.929,207.645 			"/>
			<polygon style="fill:#C3C9D1;" points="286.753,207.645 296.641,227.421 355.969,227.421 336.193,207.645 			"/>
			<polygon style="fill:#C3C9D1;" points="44.496,286.749 39.552,306.525 504.29,306.525 484.514,286.749 			"/>
			<path d="M9.888,415.294h504.29c3.224,0,6.249-1.582,8.098-4.222l69.216-98.88c3.125-4.479,2.037-10.64-2.442-13.774
				c-1.651-1.157-3.629-1.78-5.656-1.78h-75.011l-76.207-76.207c-1.849-1.859-4.371-2.897-6.991-2.897h-65.123l-19.776-19.776
				h15.682v-19.776H247.201v19.776h23.553l9.888,19.776h-77.937l-26.698-35.597c-1.869-2.492-4.796-3.955-7.91-3.955h-59.328
				c-5.458,0-9.888,4.43-9.888,9.888v29.664H59.328c-4.539,0-8.494,3.085-9.591,7.485l-17.897,71.619H9.888
				c-5.458,0-9.888,4.43-9.888,9.888v98.88C0,410.864,4.43,415.294,9.888,415.294z M312.323,197.757l19.776,19.776h-29.348
				l-9.888-19.776H312.323z M118.656,197.757h44.496l14.832,19.776h-59.328V197.757z M67.051,237.309h354.041l59.328,59.328H52.219
				L67.051,237.309z M19.776,316.414h544.623l-27.686,39.552H19.776V316.414z M19.776,375.742h503.093l-13.843,19.776H19.776
				V375.742z"/>
			<rect x="79.104" y="257.085" width="19.776" height="19.776"/>
			<rect x="118.656" y="257.085" width="19.776" height="19.776"/>
			<rect x="158.209" y="257.085" width="19.776" height="19.776"/>
			<rect x="197.761" y="257.085" width="19.776" height="19.776"/>
			<rect x="237.313" y="257.085" width="19.776" height="19.776"/>
			<rect x="276.865" y="257.085" width="19.776" height="19.776"/>
			<rect x="316.417" y="257.085" width="19.776" height="19.776"/>
			<rect x="355.969" y="257.085" width="19.776" height="19.776"/>
			<rect x="395.521" y="257.085" width="19.776" height="19.776"/>
		</g>
	</g>
</g>
<g>
</g>
<g>
</g>
<g>
</g>
<g>
</g>
<g>
</g>
<g>
</g>
<g>
</g>
<g>
</g>
<g>
</g>
<g>
</g>
<g>
</g>
<g>
</g>
<g>
</g>
<g>
</g>
<g>
</g>
</svg>
