<svg id="Layer_3" height="512" viewBox="0 0 64 64" width="512" xmlns="http://www.w3.org/2000/svg" data-name="Layer 3"><path d="m56 33h6v4h-2a4 4 0 0 1 -4-4z" fill="#3091d0"/><path d="m56 33a4 4 0 0 0 4 4h1v-4z" fill="#3bb4e6"/><path d="m59 43a3 3 0 0 0 3-3v-14a9 9 0 0 0 -9-9h-48a3 3 0 0 0 -3 3v20a3 3 0 0 0 3 3z" fill="#f89b1c"/><path d="m53 17h-48v20a3 3 0 0 0 3 3h54v-14a9 9 0 0 0 -9-9z" fill="#fdb716"/><path d="m28 43v-8h8v8" fill="#a3b8db"/><path d="m46 27h-40v-10h40" fill="#62c1ea"/><path d="m6 18h39v9h-39z" fill="#86ddfa"/><path d="m13 17h2v10h-2z" fill="#fdb716"/><path d="m21 17h2v10h-2z" fill="#fdb716"/><path d="m29 17h2v10h-2z" fill="#fdb716"/><path d="m37 17h2v10h-2z" fill="#fdb716"/><path d="m2 31h2a2 2 0 0 1 2 2v4a2 2 0 0 1 -2 2h-2" fill="#c22527"/><path d="m53 17h-7v13a3 3 0 0 0 3 3h13v-7a9 9 0 0 0 -9-9z" fill="#62c1ea"/><path d="m52 18h-6v12a3 3 0 0 0 3 3h12v-6a9 9 0 0 0 -9-9z" fill="#86ddfa"/><g fill="#f89b1c"><path d="m13 17h2v1h-2z"/><path d="m21 17h2v1h-2z"/><path d="m29 17h2v1h-2z"/><path d="m37 17h2v1h-2z"/></g><path d="m5 31.277v5.723a2.978 2.978 0 0 0 .383 1.44 1.99 1.99 0 0 0 .617-1.44v-4a1.993 1.993 0 0 0 -1-1.723z" fill="#ef1616"/><path d="m28 35h8v5h-8z" fill="#c0cee8"/><path d="m31 35h2v8h-2z" fill="#fdb716"/><path d="m31 40h2v3h-2z" fill="#f89b1c"/><circle cx="48" cy="43" fill="#383838" r="4"/><path d="m48 39a3.977 3.977 0 0 0 -2.281.719 3.994 3.994 0 0 0 5.562 5.561 3.994 3.994 0 0 0 -3.281-6.28z" fill="#4c4c4c"/><circle cx="20" cy="43" fill="#383838" r="4"/><path d="m20 39a3.977 3.977 0 0 0 -2.281.719 3.994 3.994 0 0 0 5.562 5.561 3.994 3.994 0 0 0 -3.281-6.28z" fill="#4c4c4c"/><circle cx="12" cy="43" fill="#383838" r="4"/><path d="m12 39a3.977 3.977 0 0 0 -2.281.719 3.994 3.994 0 0 0 5.562 5.561 3.994 3.994 0 0 0 -3.281-6.28z" fill="#4c4c4c"/><path d="m53 16h-48a4 4 0 0 0 -4 4v20a4 4 0 0 0 4 4h2.1a4.983 4.983 0 0 0 8.9 1.969 4.983 4.983 0 0 0 8.9-1.969h18.2a5 5 0 0 0 9.8 0h6.1a4 4 0 0 0 4-4v-14a10.011 10.011 0 0 0 -10-10zm-8 10h-6v-8h6zm-38-8h6v8h-6zm8 0h6v8h-6zm8 0h6v8h-6zm8 0h6v8h-6zm-28 14h1a1 1 0 0 1 1 1v4a1 1 0 0 1 -1 1h-1zm9 14a3 3 0 1 1 3-3 3 3 0 0 1 -3 3zm8 0a3 3 0 1 1 3-3 3 3 0 0 1 -3 3zm15-4h-2v-6h2zm-4 0h-2v-6h2zm17 4a3 3 0 1 1 3-3 3 3 0 0 1 -3 3zm11-4h-6.1a5 5 0 0 0 -9.8 0h-6.1v-7a1 1 0 0 0 -1-1h-8a1 1 0 0 0 -1 1v7h-2.1a4.983 4.983 0 0 0 -8.9-1.969 4.983 4.983 0 0 0 -8.9 1.969h-2.1a2 2 0 0 1 -2-2h1a3 3 0 0 0 3-3v-4a3 3 0 0 0 -3-3h-1v-10a2 2 0 0 1 2-2v9a1 1 0 0 0 1 1h39v2a4 4 0 0 0 4 4h6.1a5.009 5.009 0 0 0 4.9 4h1v2a2 2 0 0 1 -2 2zm-1.816-8h3.816v2h-1a3 3 0 0 1 -2.816-2zm3.816-2h-12a2 2 0 0 1 -2-2v-12h6a8.009 8.009 0 0 1 8 8z"/></svg>