<svg id="fill" height="512" viewBox="0 0 64 64" width="512" xmlns="http://www.w3.org/2000/svg"><path d="m50 47v-3h-14v3a13.658 13.658 0 0 1 -9.657 4h-.686a13.658 13.658 0 0 1 -9.657-4v-3h-8v3l4 4v7l4.721-.36 2.115-1.058a14.982 14.982 0 0 1 13.276-.062l3.388 1.654 4.5-.174v-7l4-4 7 7 3-3z" fill="#58a066"/><path d="m42.044 29h-15.044v-24.014a1.986 1.986 0 0 0 -1.986-1.986h-3.214a8.251 8.251 0 0 0 -6.3 3.123 8.006 8.006 0 0 1 -3.957 2.577l-2.571.734a2.72 2.72 0 0 0 -1.972 2.617v30.949h44v-5.044a8.956 8.956 0 0 0 -8.956-8.956z" fill="#e94561"/><path d="m16.835 4.811c-.134.106-.258.225-.386.34.132-.11.261-.222.386-.34z" fill="#e94561"/><path d="m35.159 41a26.159 26.159 0 0 1 -26.159-26.159v-4.79a2.72 2.72 0 0 1 .087-.651l-.115.033a2.718 2.718 0 0 0 -1.972 2.618v30.949h44v-2z" fill="#895e7a"/><path d="m26 43-7-4h-12v8h12v-4l7 4h25v-4z" fill="#35d7fd"/><path d="m42.044 29h-3.044v14h12v-5.044a8.956 8.956 0 0 0 -8.956-8.956z" fill="#ffd257"/><path d="m47.291 30.709a8.908 8.908 0 0 1 1.709 5.247 5.044 5.044 0 0 1 -5.044 5.044h-4.956v2h12v-5.044a8.934 8.934 0 0 0 -3.709-7.247z" fill="#f89c5b"/><circle cx="40" cy="56" fill="#c6ec6b" r="5"/><path d="m40 58a4.985 4.985 0 0 1 -4.746-3.5 5 5 0 1 0 9.492 0 4.985 4.985 0 0 1 -4.746 3.5z" fill="#7dd491"/><circle cx="12" cy="56" fill="#c6ec6b" r="5"/><path d="m49.464 50.879h7.071v4.243h-7.071z" fill="#c6ec6b" transform="matrix(.707 -.707 .707 .707 -21.953 53)"/><path d="m50.086 52.379h2.828v4.243h-2.828z" fill="#7dd491" transform="matrix(.707 -.707 .707 .707 -23.453 52.379)"/><path d="m39 55h2v2h-2z" fill="#58a066"/><path d="m11 55h2v2h-2z" fill="#58a066"/><path d="m24.94 33h14.06v-4h-12v-24.014a1.986 1.986 0 0 0 -1.986-1.986h-2.014v28.06a1.941 1.941 0 0 0 1.94 1.94z" fill="#aa889f"/><path d="m7 33h2a6 6 0 0 1 6 6 0 0 0 0 1 0 0h-8a0 0 0 0 1 0 0v-6a0 0 0 0 1 0 0z" fill="#ffd257"/><path d="m12.119 33.881.016.028a2.072 2.072 0 0 1 -1.825 3.091h-3.31v2h8a5.992 5.992 0 0 0 -2.881-5.119z" fill="#f89c5b"/><path d="m27 15-8.379 8.379a2.122 2.122 0 0 0 0 3 2.122 2.122 0 0 0 3 0l5.379-5.379z" fill="#f89c5b"/><path d="m27.121 20.121-5.5-5.5a2.122 2.122 0 0 0 -3 0 2.122 2.122 0 0 0 0 3l8.5 8.5z" fill="#ffd257"/><path d="m12 58a4.985 4.985 0 0 1 -4.746-3.5 5 5 0 1 0 9.492 0 4.985 4.985 0 0 1 -4.746 3.5z" fill="#7dd491"/><path d="m7 43h12v4h-12z" fill="#03b3e2"/><path d="m42.044 29h-3.044v4h3.044a8.956 8.956 0 0 1 8.956 8.956v-4a8.956 8.956 0 0 0 -8.956-8.956z" fill="#ffe8ae"/><path d="m6 56a6 6 0 0 0 11.514 2.361l1.77-.884a14.22 14.22 0 0 1 12.389-.059l3.1 1.512a6 6 0 1 0 7.278-8.563l1.949-1.953 4.586 4.586-.293.293a1 1 0 0 0 0 1.414l3 3a1 1 0 0 0 1.414 0l5-5a1 1 0 0 0 0-1.414l-3-3a1 1 0 0 0 -1.414 0l-.293.293-1.126-1.126a.974.974 0 0 0 .126-.46v-9.044a9.967 9.967 0 0 0 -9.956-9.956h-14.044v-23.014a2.989 2.989 0 0 0 -2.986-2.986h-3.214a9.268 9.268 0 0 0 -7.071 3.484 6.981 6.981 0 0 1 -3.46 2.256l-2.569.735a3.735 3.735 0 0 0 -2.7 3.576v34.949a1 1 0 0 0 1 1h.586l2.367 2.367a6.005 6.005 0 0 0 -3.953 5.633zm38 0a4 4 0 1 1 -4-4 4 4 0 0 1 4 4zm11.586-4-3.586 3.586-1.586-1.586 3.586-3.586zm-5.586-.414-3.586-3.586h3.172l2 2zm0-13.63v4.044h-10v-12h2.044a7.965 7.965 0 0 1 7.956 7.956zm-24-14.37-.086-.086.086-.086zm0-3-5.086 5.086a1.121 1.121 0 0 1 -1.586-1.586l6.672-6.672zm-4.5-1.5-2.172-2.172a1.121 1.121 0 0 1 1.586-1.586l2.172 2.172zm-12.253-8.686 2.571-.735a8.972 8.972 0 0 0 4.451-2.9 7.278 7.278 0 0 1 5.531-2.765h.2v7h2v-7h1.014a.987.987 0 0 1 .986.986v9.6l-1.5 1.5-2.172-2.172a3.121 3.121 0 0 0 -4.414 4.414l2.172 2.172-2.172 2.172a3.121 3.121 0 0 0 4.414 4.414l2.172-2.172 1.5 1.5v2.586a1 1 0 0 0 1 1h11v2h-13.06a.941.941 0 0 1 -.94-.94v-1.06h-2v1.06a2.943 2.943 0 0 0 2.94 2.94h13.06v8h-11.734l-6.766-3.868a.993.993 0 0 0 -.5-.132h-3.08a7 7 0 0 0 -6.92-6h-1v-19.949a1.727 1.727 0 0 1 1.247-1.651zm4.653 27.6h-5.9v-4h1a5.009 5.009 0 0 1 4.9 4zm-5.9 2h10.734l6.77 3.868a.993.993 0 0 0 .496.132h24v2h-23.734l-6.766-3.868a1 1 0 0 0 -1.5.868v3h-10zm25.163 8a12.563 12.563 0 0 1 -6.82 2h-.686a12.563 12.563 0 0 1 -6.82-2h.163a1 1 0 0 0 1-1v-2.277l5.5 3.145a.993.993 0 0 0 .5.132zm-17.547 0a14.543 14.543 0 0 0 10.041 4h.686a14.543 14.543 0 0 0 10.041-4h5.2l-2.022 2.022a6 6 0 0 0 -5.562 5.978c0 .114.011.225.017.337l-1.466-.716a16.259 16.259 0 0 0 -14.162.067l-.395.2a6 6 0 0 0 -5.558-5.863l-2.022-2.025zm-3.616 4a4 4 0 1 1 -4 4 4 4 0 0 1 4-4z"/><path d="m39 55h2v2h-2z"/><path d="m11 55h2v2h-2z"/></svg>