<svg height="512" viewBox="0 0 61 60" width="512" xmlns="http://www.w3.org/2000/svg"><g id="025---Slug" fill="none"><g id="Icons" transform="translate(2 1)"><path id="Shape" d="m58 53v5h-38c-7.7319865 0-14-6.2680135-14-14v-20c0-6.0751322 4.9248678-11 11-11s11 4.9248678 11 11v15h16c3.7130309 0 7.2739856 1.4749958 9.8994949 4.1005051s4.1005051 6.186464 4.1005051 9.8994949z" fill="#007900"/><path id="Shape" d="m55 53v5h-35c-7.7319865 0-14-6.2680135-14-14v-20c.00361906-5.4927444 4.0585628-10.1409904 9.5-10.89 5.5126671.863496 9.5572899 5.6404085 9.5 11.22v10.67c0 2.209139 1.790861 4 4 4h12c7.7319865 0 14 6.2680135 14 14z" fill="#008a00"/><circle id="Oval" cx="6" cy="6" fill="#f5f5f5" r="6"/><path id="Shape" d="m34 6c.0049248 3.11923836-2.3810275 5.7219825-5.488934 5.9876684-3.1079066.2656859-5.9010121-1.8943157-6.4255988-4.96912971-.5245867-3.07481398 1.3943405-6.03872424 4.4145328-6.81853869 1.7951888-.46351822 3.7038307-.07106388 5.1704933 1.06315518s2.3265794 2.88278349 2.3295067 4.73684482z" fill="#cfd8dc"/><path id="Shape" d="m31 6c.0002394 2.73618516-1.8507001 5.1259537-4.5 5.81-2.6406605-.6901773-4.4827739-3.07563514-4.4827739-5.805s1.8421134-5.11482274 4.4827739-5.805c2.6456983.68311274 4.4956841 3.06753882 4.5 5.8z" fill="#f5f5f5"/></g><g id="Layer_10" fill="#000"><path id="Shape" d="m46 39h-15v-14c.0006951-3.4435747-1.478014-6.7215014-4.06-9l1.06-2.29c3.5170341 1.0552408 7.2516881-.7865059 8.5555157-4.21915731 1.3038275-3.43265141-.2663803-7.2893493-3.5971037-8.83509941-3.3307235-1.5457501-7.2897526-.25510692-9.0695245 2.95666427-1.7797718 3.21177118-.7752901 7.25289575 2.3011125 9.25759245l-.9 1.94c-3.8540736-2.4107186-8.7459264-2.4107186-12.6 0l-.9-1.94c3.0719484-2.0147303 4.0637543-6.06146328 2.2715589-9.26833725-1.7921954-3.20687396-5.75855927-4.48268126-9.08426586-2.92201448-3.32570658 1.56066677-4.87911284 5.42675726-3.55780657 8.85460714 1.32130627 3.42784989 5.06772225 5.25105969 8.58051353 4.17574459l1.06 2.29c-2.58198595 2.2784986-4.06069512 5.5564253-4.06 9v20c0 8.2842712 6.7157288 15 15 15h38c.5522847 0 1-.4477153 1-1v-5c0-8.2842712-6.7157288-15-15-15zm-21-32c0-2.76142375 2.2385763-5 5-5s5 2.23857625 5 5-2.2385763 5-5 5-5-2.23857625-5-5zm-22 0c0-2.76142375 2.23857625-5 5-5 2.7614237 0 5 2.23857625 5 5s-2.2385763 5-5 5c-1.32608245 0-2.59785201-.5267842-3.53553391-1.4644661-.93768189-.93768189-1.46446609-2.20945145-1.46446609-3.5355339zm56 51h-37c-7.1797017 0-13-5.8202983-13-13v-20c-.00342528-2.6547103 1.0552142-5.2004863 2.94-7.07l1.15 2.49c.2319596.5025791.8274209.7219596 1.33.49s.7219596-.8274209.49-1.33l-1.37-2.95c3.31871-2.1628643 7.60129-2.1628643 10.92 0l-1.37 2.95c-.2319596.5025791-.0125791 1.0980404.49 1.33.5025791.2319595 1.0980404.0125791 1.33-.49l1.15-2.49c1.8847858 1.8695137 2.9434253 4.4152897 2.94 7.07v19c0 3.8659932 3.1340068 7 7 7h1c.5522847 0 1-.4477153 1-1s-.4477153-1-1-1h-1c-2.7614237 0-5-2.2385763-5-5v-3h15c7.1797017 0 13 5.8202983 13 13z"/><circle id="Oval" cx="9" cy="7" r="2"/><circle id="Oval" cx="29" cy="7" r="2"/><path id="Shape" d="m12 27c-.5522847 0-1 .4477153-1 1v1c0 .5522847.4477153 1 1 1s1-.4477153 1-1v-1c0-.5522847-.4477153-1-1-1z"/><path id="Shape" d="m12 32c-.5522847 0-1 .4477153-1 1v13c0 .5522847.4477153 1 1 1s1-.4477153 1-1v-13c0-.5522847-.4477153-1-1-1z"/></g></g></svg>