<?xml version="1.0" encoding="iso-8859-1"?>
<!-- Generator: Adobe Illustrator 19.0.0, SVG Export Plug-In . SVG Version: 6.00 Build 0)  -->
<svg xmlns="http://www.w3.org/2000/svg" xmlns:xlink="http://www.w3.org/1999/xlink" version="1.1" id="Layer_1" x="0px" y="0px" viewBox="0 0 511.991 511.991" style="enable-background:new 0 0 511.991 511.991;" xml:space="preserve">
<path style="fill:#AD1457;" d="M503.481,400.898c-0.162,56.698-46.258,102.521-102.956,102.359  c-26.98-0.077-52.834-10.773-71.993-29.769c-39.997-39.988-104.841-39.988-144.838,0c-12.343,12.147-27.535,21.001-44.185,25.76  c-9.229,2.687-18.791,4.035-28.405,4.009C54.543,503.146,8.772,457.212,8.882,400.65c0.085-48.424,34.086-90.17,81.495-100.065  c2.132-0.426,4.18-0.938,6.227-1.535c43.98-13.017,74.543-52.92,75.66-98.776c0.742-14.868-1.877-29.71-7.677-43.417  c-0.682-1.706-1.45-3.327-2.303-5.033l-0.512-1.024c-5.289-12.641-8.01-26.212-8.018-39.92c0-56.528,45.831-102.359,102.359-102.359  S358.473,54.353,358.473,110.88c-0.009,13.708-2.73,27.279-8.018,39.92l-0.512,1.024c-0.853,1.706-1.621,3.327-2.303,5.033  c-5.8,13.708-8.419,28.55-7.677,43.417c1.1,48.245,34.836,89.573,81.887,100.312C469.387,310.464,503.464,352.345,503.481,400.898z"/>
<path style="fill:#E91E63;" d="M469.362,417.958c0.034,31.902-14.825,61.995-40.176,81.375c-9.127,2.619-18.57,3.932-28.063,3.924  c-27.168,0.009-53.252-10.688-72.59-29.769c-36.32-36.21-93.804-40.039-134.602-8.956c-16.761,4.743-32.038,13.699-44.356,26.016  c-3.173,3.096-6.534,6.005-10.065,8.701c-9.229,2.687-18.791,4.035-28.405,4.009C54.577,503.265,8.754,457.451,8.746,400.923  c0-32.03,14.987-62.217,40.517-81.572c2.303-0.682,4.606-1.194,6.995-1.706c14.697-3.02,28.498-9.383,40.347-18.595  c43.98-13.017,74.543-52.92,75.66-98.776c0.742-14.868-1.877-29.71-7.677-43.417c-0.682-1.706-1.45-3.327-2.303-5.033l-0.512-1.024  c-5.289-12.641-8.01-26.212-8.018-39.92c-0.034-31.902,14.825-61.995,40.176-81.375c54.361-15.499,111,16.002,126.499,70.363  c2.602,9.127,3.924,18.578,3.924,28.072c-0.009,13.708-2.73,27.279-8.018,39.92l-0.512,1.024c-0.853,1.706-1.621,3.327-2.303,5.033  c-5.8,13.708-8.419,28.55-7.677,43.417c1.1,48.245,34.836,89.573,81.887,100.312C435.268,327.523,469.345,369.405,469.362,417.958z"/>
<path d="M111.259,511.991c-0.026,0-0.051,0-0.085,0c-29.659-0.026-57.534-11.592-78.492-32.576  c-43.264-43.323-43.213-113.772,0.111-157.044c15.328-15.311,34.64-25.735,55.845-30.136c43.136-9.844,74.091-47.75,75.097-92.157  c0.682-13.733-1.74-27.449-7.003-39.894c-0.665-1.646-1.331-3.054-2.081-4.546l-0.503-1.007c-6.005-14.305-8.922-28.84-8.922-43.741  C145.225,49.738,194.971,0,256.114,0s110.889,49.747,110.889,110.889c-0.009,14.919-2.926,29.454-8.675,43.204l-0.776,1.587  c-0.717,1.442-1.39,2.858-1.987,4.35c-5.331,12.599-7.754,26.315-7.08,39.818c1.015,44.629,31.962,82.536,75.26,92.422  c28.865,6.073,53.756,23.116,69.937,47.938c16.181,24.831,21.734,54.481,15.627,83.482c-6.107,29.002-23.15,53.892-47.972,70.082  c-24.839,16.181-54.489,21.717-83.482,15.627c-20.992-4.427-40.125-14.748-55.334-29.872  c-17.444-17.452-41.549-27.449-66.201-27.449c-0.077,0-0.162-0.009-0.23,0c-0.068,0-0.136,0-0.196,0  c-24.643,0-48.749,9.997-66.167,27.441C168.75,500.459,140.891,511.983,111.259,511.991z M256.114,17.051  c-51.734,0-93.829,42.095-93.829,93.829c0,12.633,2.482,24.959,7.361,36.627l0.264,0.486c0.972,1.945,1.834,3.77,2.602,5.689  c6.193,14.646,9.076,30.955,8.274,47.017c-1.177,51.99-37.583,96.576-88.506,108.202c-18.109,3.762-34.452,12.59-47.426,25.547  c-36.67,36.619-36.713,96.235-0.094,132.905c17.742,17.768,41.336,27.552,66.44,27.577c0.026,0,0.043,0,0.068,0  c25.078,0,48.663-9.767,66.405-27.492c20.583-20.6,49.09-32.422,78.228-32.422c0.136,0,0.273,0,0.426,0  c29.147,0,57.645,11.814,78.245,32.439c12.846,12.769,29.027,21.504,46.795,25.257c24.532,5.178,49.627,0.478,70.645-13.23  c21.009-13.691,35.425-34.751,40.602-59.3c5.178-24.549,0.478-49.636-13.23-70.645c-13.691-21.009-34.751-35.425-59.3-40.602  c-51.06-11.652-87.466-56.246-88.66-108.466c-0.793-15.823,2.09-32.141,8.351-46.932c0.699-1.766,1.561-3.591,2.516-5.51  l0.537-1.075c4.615-11.097,7.088-23.432,7.097-36.073C349.943,59.146,307.848,17.051,256.114,17.051z"/>
<g>
	<path style="fill:#37474F;" d="M324.353,110.88c-0.009,34.486-25.735,63.539-59.965,67.728c-2.747,0.341-5.51,0.512-8.274,0.512   c-37.685,0-68.239-30.554-68.239-68.239s30.554-68.239,68.239-68.239S324.353,73.195,324.353,110.88z"/>
	<path style="fill:#37474F;" d="M179.344,400.898c-0.009,34.486-25.735,63.539-59.965,67.728c-2.747,0.341-5.51,0.512-8.274,0.512   c-37.685,0-68.239-30.554-68.239-68.239s30.554-68.239,68.239-68.239S179.344,363.213,179.344,400.898z"/>
	<path style="fill:#37474F;" d="M469.362,400.898c-0.009,34.486-25.735,63.539-59.965,67.728c-2.747,0.341-5.51,0.512-8.274,0.512   c-37.685,0-68.239-30.554-68.239-68.239s30.554-68.239,68.239-68.239S469.362,363.213,469.362,400.898z"/>
</g>
<g>
	<path style="fill:#607D8B;" d="M298.763,119.41c0.026,24.481-13.102,47.085-34.376,59.198c-2.747,0.341-5.51,0.512-8.274,0.512   c-37.668,0.017-68.222-30.512-68.239-68.18c-0.009-24.489,13.111-47.111,34.376-59.257c2.738-0.341,5.502-0.512,8.274-0.512   c37.677-0.009,68.231,30.529,68.239,68.205C298.763,119.385,298.763,119.402,298.763,119.41z"/>
	<path style="fill:#607D8B;" d="M153.755,409.428c0.026,24.481-13.102,47.085-34.376,59.198c-2.747,0.341-5.51,0.512-8.274,0.512   c-37.668,0.017-68.222-30.512-68.239-68.18c-0.009-24.489,13.11-47.111,34.376-59.257c2.738-0.341,5.502-0.512,8.274-0.512   c37.677-0.009,68.231,30.529,68.239,68.205C153.755,409.402,153.755,409.419,153.755,409.428z"/>
	<path style="fill:#607D8B;" d="M443.772,409.428c0.026,24.481-13.102,47.085-34.376,59.198c-2.747,0.341-5.51,0.512-8.274,0.512   c-37.668,0.017-68.222-30.512-68.239-68.18c-0.009-24.489,13.11-47.111,34.376-59.257c2.747-0.341,5.51-0.512,8.274-0.512   c37.677-0.009,68.231,30.529,68.239,68.205C443.772,409.402,443.772,409.419,443.772,409.428z"/>
</g>
<path d="M256.114,187.65c-42.325,0-76.769-34.444-76.769-76.769s34.444-76.769,76.769-76.769c42.334,0,76.769,34.444,76.769,76.769  S298.439,187.65,256.114,187.65z M256.114,51.171c-32.926,0-59.709,26.784-59.709,59.709s26.784,59.709,59.709,59.709  c32.917,0,59.709-26.784,59.709-59.709S289.031,51.171,256.114,51.171z"/>
<g>
	<path style="fill:#424242;" d="M290.233,110.88c0,13.418-7.882,25.573-20.131,31.049c-4.384,2.022-9.161,3.071-13.989,3.071   c-18.843,0.009-34.111-15.26-34.12-34.103c0-0.009,0-0.009,0-0.017c-0.009-4.828,1.041-9.605,3.071-13.989   c7.703-17.171,27.867-24.848,45.038-17.145C282.36,85.248,290.25,97.437,290.233,110.88z"/>
	<path style="fill:#424242;" d="M145.225,400.898c0,13.418-7.882,25.573-20.131,31.049c-4.384,2.022-9.161,3.071-13.989,3.071   c-18.843,0.009-34.111-15.26-34.12-34.103c0-0.009,0-0.009,0-0.017c-0.009-4.828,1.041-9.605,3.071-13.989   c7.703-17.171,27.867-24.848,45.038-17.145C137.352,375.265,145.242,387.455,145.225,400.898z"/>
	<path style="fill:#424242;" d="M435.242,400.898c0,13.418-7.882,25.573-20.131,31.049c-4.384,2.022-9.161,3.071-13.989,3.071   c-18.843,0.009-34.111-15.26-34.12-34.103c0-0.009,0-0.009,0-0.017c-0.009-4.828,1.041-9.605,3.071-13.989   c7.703-17.171,27.867-24.848,45.038-17.145C427.369,375.265,435.259,387.455,435.242,400.898z"/>
</g>
<g>
	<path style="fill:#9E9E9E;" d="M273.173,127.94c0.009,4.828-1.041,9.605-3.071,13.989c-4.384,2.022-9.161,3.071-13.989,3.071   c-18.843,0.009-34.111-15.26-34.12-34.103c0-0.009,0-0.009,0-0.017c-0.009-4.828,1.041-9.605,3.071-13.989   c4.384-2.022,9.153-3.071,13.989-3.071c18.843-0.009,34.111,15.26,34.12,34.103C273.173,127.923,273.173,127.932,273.173,127.94z"/>
	<path style="fill:#9E9E9E;" d="M128.165,417.958c0.009,4.828-1.041,9.605-3.071,13.989c-4.384,2.022-9.161,3.071-13.989,3.071   c-18.843,0.009-34.111-15.26-34.12-34.103c0-0.009,0-0.009,0-0.017c-0.009-4.828,1.041-9.605,3.071-13.989   c4.384-2.022,9.153-3.071,13.989-3.071c18.843-0.009,34.111,15.26,34.12,34.103C128.165,417.941,128.165,417.949,128.165,417.958z"/>
	<path style="fill:#9E9E9E;" d="M418.182,417.958c0.009,4.828-1.041,9.605-3.071,13.989c-4.384,2.022-9.161,3.071-13.989,3.071   c-18.843,0.009-34.111-15.26-34.12-34.103c0-0.009,0-0.009,0-0.017c-0.009-4.828,1.041-9.605,3.071-13.989   c4.384-2.022,9.153-3.071,13.989-3.071c18.843-0.009,34.111,15.26,34.12,34.103C418.182,417.941,418.182,417.949,418.182,417.958z"/>
</g>
<path d="M256.114,153.53c-23.517,0-42.65-19.133-42.65-42.65s19.133-42.65,42.65-42.65c23.517,0,42.65,19.133,42.65,42.65  S279.622,153.53,256.114,153.53z M256.114,85.291c-14.108,0-25.59,11.481-25.59,25.59s11.481,25.59,25.59,25.59  s25.59-11.481,25.59-25.59S270.222,85.291,256.114,85.291z"/>
<path style="fill:#424242;" d="M324.353,298.539c-0.043,37.651-30.588,68.128-68.239,68.094  c-37.651-0.043-68.128-30.588-68.094-68.239c0.043-37.591,30.503-68.052,68.094-68.094c37.438-0.247,67.992,29.897,68.239,67.344  C324.353,297.942,324.353,298.24,324.353,298.539z"/>
<path style="fill:#9E9E9E;" d="M307.293,315.599c0.034,13.929-4.256,27.518-12.283,38.896  c-11.379,8.027-24.967,12.317-38.896,12.283c-37.677,0.009-68.231-30.529-68.239-68.205c0-0.009,0-0.026,0-0.034  c-0.034-13.929,4.256-27.518,12.283-38.896c11.379-8.027,24.967-12.317,38.896-12.283c37.677-0.009,68.231,30.529,68.239,68.205  C307.293,315.573,307.293,315.59,307.293,315.599z"/>
<path d="M256.114,375.308c-42.325,0-76.769-34.435-76.769-76.769c0-42.325,34.444-76.769,76.769-76.769  c42.334,0,76.769,34.444,76.769,76.769C332.883,340.873,298.439,375.308,256.114,375.308z M256.114,238.829  c-32.926,0-59.709,26.792-59.709,59.709s26.784,59.709,59.709,59.709c32.917,0,59.709-26.792,59.709-59.709  S289.031,238.829,256.114,238.829z"/>
<path d="M221.994,307.069C221.985,307.069,221.985,307.069,221.994,307.069c-4.717-0.009-8.53-3.83-8.53-8.538  c0.026-23.491,19.158-42.624,42.641-42.641h0.009c4.709,0,8.53,3.813,8.53,8.521c0.009,4.717-3.813,8.53-8.521,8.538  c-14.1,0.009-25.581,11.498-25.598,25.598C230.515,303.256,226.694,307.069,221.994,307.069z"/>
<path d="M111.105,477.667c-42.325,0-76.769-34.435-76.769-76.769s34.444-76.769,76.769-76.769s76.769,34.435,76.769,76.769  S153.43,477.667,111.105,477.667z M111.105,341.188c-32.925,0-59.709,26.792-59.709,59.709s26.784,59.709,59.709,59.709  s59.709-26.792,59.709-59.709S144.022,341.188,111.105,341.188z"/>
<path d="M111.105,443.547c-23.517,0-42.65-19.133-42.65-42.65s19.133-42.65,42.65-42.65s42.65,19.133,42.65,42.65  S134.613,443.547,111.105,443.547z M111.105,375.308c-14.108,0-25.59,11.481-25.59,25.59s11.481,25.59,25.59,25.59  s25.59-11.481,25.59-25.59S125.213,375.308,111.105,375.308z"/>
<path d="M401.122,477.667c-42.334,0-76.769-34.435-76.769-76.769s34.435-76.769,76.769-76.769s76.769,34.435,76.769,76.769  S443.448,477.667,401.122,477.667z M401.122,341.188c-32.917,0-59.709,26.792-59.709,59.709s26.792,59.709,59.709,59.709  s59.709-26.792,59.709-59.709S434.039,341.188,401.122,341.188z"/>
<path d="M401.122,443.547c-23.517,0-42.65-19.133-42.65-42.65s19.133-42.65,42.65-42.65c23.517,0,42.65,19.133,42.65,42.65  S424.631,443.547,401.122,443.547z M401.122,375.308c-14.108,0-25.59,11.481-25.59,25.59s11.481,25.59,25.59,25.59  c14.108,0,25.59-11.481,25.59-25.59S415.231,375.308,401.122,375.308z"/>
<g>
</g>
<g>
</g>
<g>
</g>
<g>
</g>
<g>
</g>
<g>
</g>
<g>
</g>
<g>
</g>
<g>
</g>
<g>
</g>
<g>
</g>
<g>
</g>
<g>
</g>
<g>
</g>
<g>
</g>
</svg>
