<svg id="Artboard_30" height="512" viewBox="0 0 64 64" width="512" xmlns="http://www.w3.org/2000/svg" data-name="Artboard 30"><path d="m47.792 21.314 5.068 26.623a7.908 7.908 0 0 1 -6.331 9.237l-24.794 4.667a9.046 9.046 0 0 1 -10.575-7.169 9 9 0 0 1 7.209-10.517l3.9-.734a10.056 10.056 0 0 0 8.051-11.747l-1.3-6.826z" fill="#b73329"/><path d="m47.792 21.314-18.771 3.534a4.02 4.02 0 0 1 -4.7-3.186l-.749-3.93a4 4 0 0 1 3.2-4.674l18.776-3.534a4.02 4.02 0 0 1 4.7 3.186l.752 3.93a4 4 0 0 1 -3.208 4.674z" fill="#e5e5e5"/><path d="m48.319 11c-.029 0-.059 0-.089 0a1 1 0 0 1 -.81-.559l-1.794-3.69c-.939-1.929-.32-4.412 1.326-5.314a3.5 3.5 0 0 1 4.31.743 4.153 4.153 0 0 1 .288 5.091l-2.423 3.319a1 1 0 0 1 -.808.41zm.3-8a1.46 1.46 0 0 0 -.708.189 2.242 2.242 0 0 0 -.489 2.685l1.067 2.192 1.444-1.977a2.174 2.174 0 0 0 -.106-2.515 1.7 1.7 0 0 0 -1.206-.574z" fill="#e5e5e5"/><path d="m51.057 17.341a3.884 3.884 0 0 0 -.061-.7l-.748-3.93a4.02 4.02 0 0 0 -4.7-3.186l-18.772 3.532a4.01 4.01 0 0 0 -1.332.521 4.083 4.083 0 0 0 .061.7l.749 3.93a4.021 4.021 0 0 0 4.7 3.186l18.771-3.534a4.008 4.008 0 0 0 1.332-.519z" fill="#f7f7f4"/><path d="m52.86 47.937-1.701-8.937-1.744.328c-7.222 1.36-11.653 9.94-9.9 19.165l7.011-1.319a7.908 7.908 0 0 0 6.334-9.237z" fill="#e5e5e5"/><g fill="#77787c"><path d="m42.5 39.095h2v7.81h-2z" transform="matrix(.768 -.64 .64 .768 -17.446 37.815)"/><path d="m39 43.528h2v8.944h-2z" transform="matrix(.447 -.894 .894 .447 -20.821 62.311)"/><path d="m35 53h8v2h-8z"/></g><path d="m23.537 60.141a12.547 12.547 0 0 0 -3.583-16.285l-1.585.3a9 9 0 1 0 3.366 17.686l.988-.186z" fill="#e5e5e5"/><path d="m19.692 47.5h7.616v2h-7.616z" fill="#77787c" transform="matrix(.919 -.394 .394 .919 -17.212 13.186)"/><path d="m21 54h7v2h-7z" fill="#77787c"/><path d="m22.083 42.438-3.9.735a10 10 0 0 0 1.866 19.827 10.13 10.13 0 0 0 1.871-.176l24.794-4.668a8.906 8.906 0 0 0 7.128-10.4l-4.9-25.738a5 5 0 0 0 3.036-5.56l-.749-3.93a4.948 4.948 0 0 0 -1.529-2.728l1.85-2.529a4.152 4.152 0 0 0 -.288-5.09 3.5 3.5 0 0 0 -4.311-.744c-1.645.9-2.264 3.385-1.325 5.315l.833 1.71a5.032 5.032 0 0 0 -1.1.079l-18.768 3.534a5 5 0 0 0 -4 5.843l.748 3.932a5.021 5.021 0 0 0 4.867 4.062l1.132 5.949a8.947 8.947 0 0 1 -1.408 6.76 9.052 9.052 0 0 1 -5.847 3.817zm25.83-39.248a1.467 1.467 0 0 1 .708-.19 1.7 1.7 0 0 1 1.208.573 2.177 2.177 0 0 1 .106 2.517l-1.444 1.978-1.067-2.191a2.245 2.245 0 0 1 .489-2.687zm-35.771 51.3a7.909 7.909 0 0 1 1.245-5.974 8 8 0 0 1 5.167-3.373l1.125-.212a12.534 12.534 0 0 1 2.68 2.975l-2.753 1.18.788 1.838 2.9-1.241a11.135 11.135 0 0 1 .837 4.317h-3.131v2h2.945a12.437 12.437 0 0 1 -1.289 3.667l-.588 1.095-.518.1a8.057 8.057 0 0 1 -9.408-6.377zm38.658-1.212a6.906 6.906 0 0 1 -4.46 2.913l-5.986 1.127a20.625 20.625 0 0 1 -.202-2.318h2.848v-2h-2.81a18.1 18.1 0 0 1 .595-3.49l2.768 1.39.894-1.79-3-1.5a14.711 14.711 0 0 1 1.416-2.658c.144-.212.3-.408.452-.606l1.916 2.3 1.536-1.282-2.093-2.511a9.906 9.906 0 0 1 4.926-2.542l.763-.144 1.514 7.957a6.824 6.824 0 0 1 -1.077 5.154zm-25.5-31.8-.748-3.931a2.96 2.96 0 0 1 .466-2.237 3.007 3.007 0 0 1 1.94-1.268l18.772-3.534a3.112 3.112 0 0 1 .565-.053 3.021 3.021 0 0 1 2.971 2.445l.748 3.93a2.965 2.965 0 0 1 -.467 2.239 3 3 0 0 1 -1.94 1.267l-18.772 3.529a3.027 3.027 0 0 1 -3.535-2.389zm4.278 18.272a10.934 10.934 0 0 0 1.722-8.263l-1.11-5.842 16.81-3.163 2.989 15.718-.759.143a11.845 11.845 0 0 0 -5.837 2.964l-1.625-1.951-1.536 1.282 1.768 2.126q-.411.5-.79 1.058a16.681 16.681 0 0 0 -1.551 2.89l-3.213-1.607-.894 1.79 3.422 1.711a20.06 20.06 0 0 0 -.78 4.394h-3.194v2h3.153a22.6 22.6 0 0 0 .24 2.688l-13.818 2.6a14.09 14.09 0 0 0 1.385-4.288h2.04v-2h-1.9a13.36 13.36 0 0 0 -1-5.1l2.295-.983-.788-1.838-2.415 1.035a14.128 14.128 0 0 0 -2.056-2.653l.318-.06a11.032 11.032 0 0 0 7.127-4.653z"/></svg>