<svg id="Layer_3" height="512" viewBox="0 0 64 64" width="512" xmlns="http://www.w3.org/2000/svg" data-name="Layer 3"><path d="m25 58v2a2 2 0 0 1 -2 2 2 2 0 0 1 -2-2v-2z" fill="#c8c8c8"/><path d="m43 58v2a2 2 0 0 1 -2 2 2 2 0 0 1 -2-2v-2z" fill="#c8c8c8"/><rect fill="#c7e2fb" height="36" rx="2" width="30" x="17" y="22"/><path d="m45 22h-26v26.75a7.25 7.25 0 0 0 7.25 7.25h20.75v-32a2 2 0 0 0 -2-2z" fill="#ebf7fe"/><path d="m21 58v-30a2 2 0 0 1 2-2h18a2 2 0 0 1 2 2v30z" fill="#4472b0"/><path d="m43 28a2 2 0 0 0 -2-2h-18a2 2 0 0 0 -2 2v25.741a7.223 7.223 0 0 0 5.25 2.259h16.75z" fill="#668cbe"/><rect fill="#4472b0" height="4" rx="2" width="22" x="21" y="2"/><path d="m23 6h4v16h-4z" fill="#c8c8c8"/><path d="m37 6h4v16h-4z" fill="#c8c8c8"/><path d="m45 21h-3v-14.184a2.993 2.993 0 0 0 -1-5.816h-18a2.993 2.993 0 0 0 -1 5.816v14.184h-3a3 3 0 0 0 -3 3v32a3 3 0 0 0 3 3h1v1a3 3 0 0 0 6 0v-1h12v1a3 3 0 0 0 6 0v-1h1a3 3 0 0 0 3-3v-32a3 3 0 0 0 -3-3zm-7 0v-14h2v14zm-2-14v14h-8v-14zm-13-4h18a1 1 0 0 1 0 2h-18a1 1 0 0 1 0-2zm1 4h2v14h-2zm18 24h-20v-3a1 1 0 0 1 1-1h18a1 1 0 0 1 1 1zm-20 2h2v2h2v-2h16v24h-20zm2 27a1 1 0 0 1 -2 0v-1h2zm18 0a1 1 0 0 1 -2 0v-1h2zm4-4a1 1 0 0 1 -1 1h-1v-29a3 3 0 0 0 -3-3h-18a3 3 0 0 0 -3 3v29h-1a1 1 0 0 1 -1-1v-32a1 1 0 0 1 1-1h26a1 1 0 0 1 1 1z"/><path d="m38 35h2v8h-2z"/><path d="m38 44h2v2h-2z"/></svg>