<svg id="Layer_3" height="512" viewBox="0 0 64 64" width="512" xmlns="http://www.w3.org/2000/svg" data-name="Layer 3"><path d="m61 39v-5a5.322 5.322 0 0 0 -4.99-5.312l-11.01-.688-7-9h-29.681a26.845 26.845 0 0 0 -4.319 14.6v5.4z" fill="#f89b1c"/><path d="m56.01 28.688-11.01-.688-5.444-7h-13.463a20.215 20.215 0 0 0 -20.093 17.969v.031h55v-5a5.322 5.322 0 0 0 -4.99-5.312z" fill="#fdb716"/><path d="m38 19h-29.681a26.85 26.85 0 0 0 -3.719 9h40.4z" fill="#62c1ea"/><path d="m26.137 21a20.234 20.234 0 0 0 -15.3 7h34.163l-5.444-7z" fill="#86ddfa"/><path d="m60 43a2 2 0 0 0 2-2v-2h-60v2a2 2 0 0 0 2 2z" fill="#383838"/><path d="m4 39a2 2 0 0 0 2 2h56v-2z" fill="#4c4c4c"/><circle cx="14" cy="43" fill="#383838" r="6"/><path d="m14 37a5.974 5.974 0 0 0 -3.71 1.29 5.995 5.995 0 0 0 8.42 8.42 5.995 5.995 0 0 0 -4.71-9.71z" fill="#4c4c4c"/><circle cx="14" cy="43" fill="#383838" r="2"/><path d="m31 39h-2v-10.89l-2.115-9.52 1.952-.434 2.139 9.627a.988.988 0 0 1 .024.217z" fill="#f89b1c"/><path d="m15 19h2v9h-2z" fill="#f89b1c"/><path d="m33 31h4v2h-4z" fill="#595959"/><path d="m18 31h4v2h-4z" fill="#595959"/><path d="m4 35h4v4h-4z" fill="#c22527"/><circle cx="50" cy="43" fill="#383838" r="6"/><path d="m50 37a5.974 5.974 0 0 0 -3.71 1.29 5.995 5.995 0 0 0 8.42 8.42 5.995 5.995 0 0 0 -4.71-9.71z" fill="#4c4c4c"/><circle cx="50" cy="43" fill="#383838" r="2"/><path d="m60.059 31h-5.059l.211.422a6.472 6.472 0 0 0 5.789 3.578v-1a5.288 5.288 0 0 0 -.941-3z" fill="#86ddfa"/><path d="m6.026 35c0 .15-.025.3-.026.447v3.553h2v-4z" fill="#ef1616"/><path d="m38 19h-30a2 2 0 0 1 -2-2 2 2 0 0 1 2-2h23.528a7.237 7.237 0 0 1 6.472 4z" fill="#f89b1c"/><path d="m11 17h25.5a7.22 7.22 0 0 0 -4.97-2h-22.53a2 2 0 0 0 2 2z" fill="#fdb716"/><path d="m15 24.353v3.647h2v-4.809a20.46 20.46 0 0 0 -2 1.162z" fill="#fdb716"/><path d="m14 40a3 3 0 1 0 3 3 3 3 0 0 0 -3-3zm0 4a1 1 0 1 1 1-1 1 1 0 0 1 -1 1z"/><path d="m50 40a3 3 0 1 0 3 3 3 3 0 0 0 -3-3zm0 4a1 1 0 1 1 1-1 1 1 0 0 1 -1 1z"/><path d="m62 38v-4a6.333 6.333 0 0 0 -5.928-6.31l-10.559-.66-6.695-8.608a8.185 8.185 0 0 0 -7.29-4.422h-23.528a2.994 2.994 0 0 0 -1.269 5.708 27.76 27.76 0 0 0 -3.731 13.892v4.4h-1a1 1 0 0 0 -1 1v2a3 3 0 0 0 3 3h3.08a6.991 6.991 0 0 0 13.84 0h22.16a6.991 6.991 0 0 0 13.84 0h3.08a3 3 0 0 0 3-3v-2a1 1 0 0 0 -1-1zm-2.513-6a4.28 4.28 0 0 1 .5 1.9 5.426 5.426 0 0 1 -3.22-1.9zm-3.54-2.314a4.271 4.271 0 0 1 1.32.314h-2.267a1 1 0 0 0 -.9 1.447l.211.423a7.428 7.428 0 0 0 5.689 4.061v2.069h-5.111a6.976 6.976 0 0 0 -9.778 0h-14.111v-9h13.969zm-46.836 8.314h-.111v-3a1 1 0 0 0 -1-1h-3v-.4a25.871 25.871 0 0 1 .428-4.6h23.572v9h-10.111a6.976 6.976 0 0 0 -9.778 0zm5.889-18v7h-9.128a25.78 25.78 0 0 1 3.013-7zm27.955 7h-12.155l-1.556-7h8.265zm-15.755-7 1.555 7h-11.755v-7zm-6.885 20h8.685v2h-8.08a6.937 6.937 0 0 0 -.605-2zm10.685 0h12.685a6.937 6.937 0 0 0 -.605 2h-12.08zm-23-24h23.528a6.2 6.2 0 0 1 4.581 2h-28.109a1 1 0 0 1 0-2zm-3 20h2v2h-2zm-2 5v-1h4.685a6.937 6.937 0 0 0 -.6 2h-3.085a1 1 0 0 1 -1-1zm11 7a5 5 0 1 1 5-5 5.006 5.006 0 0 1 -5 5zm36 0a5 5 0 1 1 5-5 5.006 5.006 0 0 1 -5 5zm11-7a1 1 0 0 1 -1 1h-3.08a6.937 6.937 0 0 0 -.605-2h4.685z"/><path d="m33 31h4v2h-4z"/><path d="m18 31h4v2h-4z"/></svg>