<svg id="Layer_1" enable-background="new 0 0 512.014 512.014" height="512" viewBox="0 0 512.014 512.014" width="512" xmlns="http://www.w3.org/2000/svg"><g><path d="m249.936 117.054c26.276-26.266 30.643-29.103 35.1-39.86 6.671-16.058 3.425-35.221-9.59-48.22-17.259-17.281-45.292-17.278-62.57 0l-25.52 25.52z" fill="#f79caf"/><path d="m200.006 496.014h256v-16c0-26.51-21.49-48-48-48h-160c-26.51 0-48 21.49-48 48z" fill="#f79caf"/><path d="m456.006 480.014v16h-48v-16c0-26.51-21.49-48-48-48h48c26.51 0 48 21.49 48 48z" fill="#e3889b"/><path d="m336.006 376.014h64v56h-64z" fill="#a18b76" transform="matrix(-1 0 0 -1 736.012 808.028)"/><path d="m199.024 247.3 26.816-25.699c39.493-39.493 39.493-103.524 0-143.018-39.383-39.383-103.416-39.602-143.018 0l-26.816 25.699z" fill="#f79caf"/><path d="m225.836 221.604-26.81 25.7-23-23c61.113-58.725 30.253-154.649-45.2-172.58 33.645-8.018 69.689 1.539 95.01 26.86 39.5 39.49 39.5 103.52 0 143.02z" fill="#e3889b"/><path d="m288.406 60.254c0 12.132-4.949 23.289-12.95 31.29l-25.52 25.51-17.5-17.49c8.372-8.372 13.567-12.635 17.6-22.37 9.319-22.434-1.276-48.063-23.36-57.57 28.976-12.501 61.73 8.69 61.73 40.63z" fill="#e3889b"/><path d="m163.676 211.954c-7.56 16.55-24.27 28.06-43.67 28.06-26.51 0-48-21.49-48-48 0-19.4 11.51-36.11 28.06-43.67z" fill="#f3d4b7"/><path d="m416.006 416.532v-40.518c0-8.836-7.164-16-16-16h-16v-128c0-61.072-32.634-117.381-84.474-148.05 9.549-22.342 4.977-48.578-12.765-66.297-23.528-23.555-61.657-23.554-85.204-.007l-18.832 18.832c-38.529-9.564-81.006.651-111.098 30.654l-26.697 25.585c-6.467 6.196-6.591 16.519-.243 22.865l30.631 30.631c-12.114 11.854-19.317 28.294-19.317 45.787 0 35.29 28.71 64 64 64 17.492 0 33.932-7.203 45.787-19.317l21.917 21.917c6.15 6.15 16.097 6.265 22.384.238 36.062-34.559 24.86-23.737 27.06-25.937 30.101-30.101 40.357-72.643 30.778-111.226l12.049-12.044c44.084 24.492 72.026 71.388 72.026 122.369v128h-16c-8.836 0-16 7.164-16 16v40h-32v-8c0-8.836-7.164-16-16-16s-16 7.164-16 16v8h-8c-35.29 0-64 28.71-64 64v16c0 8.836 7.164 16 16 16h256c8.836 0 16-7.164 16-16v-16c-.002-32.579-24.477-59.531-56.002-63.482zm-296-192.518c-28.68 0-42.958-35.186-22.052-55.156l45.208 45.208c-5.947 6.225-14.275 9.948-23.156 9.948zm94.636-13.842-15.38 14.74-120.385-120.386c16.07-15.401 15.08-14.449 15.259-14.627 33.192-33.192 87.198-33.192 120.391 0 33.3 33.3 33.193 87.073.115 120.273zm.098-160.435 9.45-9.45c10.855-10.855 28.748-11.207 39.949.007 8.461 8.45 10.294 20.719 6.115 30.776-2.846 6.87-6.686 9.734-15.568 18.613-9.514-15.807-23.065-29.785-39.946-39.946zm137.266 342.277h32v24h-32zm-136 88c0-17.645 14.355-32 32-32h160c17.645 0 32 14.355 32 32z"/></g></svg>