<svg id="Layer_3" height="512" viewBox="0 0 64 64" width="512" xmlns="http://www.w3.org/2000/svg" data-name="Layer 3"><path d="m61 40v-10l-1.378-5.824a3 3 0 0 0 -2.885-2.176h-6.737a3 3 0 0 0 -3 3v15" fill="#f89b1c"/><path d="m55.737 23h-6.737a2.965 2.965 0 0 0 -1.554.446 2.965 2.965 0 0 0 -.446 1.554v15h13v-9l-1.378-5.824a3 3 0 0 0 -2.885-2.176z" fill="#fdb716"/><path d="m40 20h-34a4 4 0 0 0 -4 4v8a4 4 0 0 0 4 4h34a4 4 0 0 0 4-4v-8a4 4 0 0 0 -4-4z" fill="#f89b1c"/><path d="m40 20h-34a3.961 3.961 0 0 0 -1.64.36 3.961 3.961 0 0 0 -.36 1.64v8a4 4 0 0 0 4 4h34a3.961 3.961 0 0 0 1.64-.36 3.961 3.961 0 0 0 .36-1.64v-8a4 4 0 0 0 -4-4z" fill="#fdb716"/><path d="m5 40h57v4h-57z" fill="#383838"/><path d="m50 33h4v2h-4z" fill="#595959"/><path d="m6 36h34v4h-34z" fill="#a3b8db"/><path d="m2 28h42v4h-42z" fill="#62c1ea"/><path d="m28 20v-4h8v4" fill="#4c4c4c"/><circle cx="25" cy="44" fill="#383838" r="4"/><path d="m25 40a3.977 3.977 0 0 0 -2.281.719 3.994 3.994 0 0 0 5.562 5.561 3.994 3.994 0 0 0 -3.281-6.28z" fill="#4c4c4c"/><circle cx="13" cy="44" fill="#383838" r="4"/><path d="m13 40a3.977 3.977 0 0 0 -2.281.719 3.994 3.994 0 0 0 5.562 5.561 3.994 3.994 0 0 0 -3.281-6.28z" fill="#4c4c4c"/><circle cx="54" cy="44" fill="#383838" r="4"/><g fill="#4c4c4c"><path d="m54 40a3.977 3.977 0 0 0 -2.281.719 3.994 3.994 0 0 0 5.562 5.561 3.994 3.994 0 0 0 -3.281-6.28z"/><path d="m62 40h-5.027a5 5 0 0 1 1.605 2h3.422z"/><path d="m22.027 40h-6.054a5 5 0 0 1 1.6 2h2.844a5 5 0 0 1 1.61-2z"/><path d="m10.027 40h-3.027a2 2 0 0 0 1.466 1.919 5 5 0 0 1 1.561-1.919z"/><path d="m27.973 40a5 5 0 0 1 1.605 2h19.844a5 5 0 0 1 1.605-2z"/></g><path d="m10 38h30v-2h-32a2 2 0 0 0 2 2z" fill="#c0cee8"/><path d="m4 30a3.955 3.955 0 0 0 .555 2h39.445v-4h-40z" fill="#86ddfa"/><path d="m32 18h4v-2h-6a2 2 0 0 0 2 2z" fill="#595959"/><path d="m61 30-1.378-5.824a3 3 0 0 0 -2.885-2.176h-5.737v8z" fill="#62c1ea"/><path d="m58.622 25.176a3 3 0 0 0 -2.885-2.176h-4.737v7h8.763z" fill="#86ddfa"/><path d="m62 39v-9a.99.99 0 0 0 -.027-.23l-1.389-5.87a4.018 4.018 0 0 0 -3.847-2.9h-6.737a4 4 0 0 0 -4 4v14h-5v-2.1a5.009 5.009 0 0 0 4-4.9v-8a5.006 5.006 0 0 0 -5-5h-3v-3a1 1 0 0 0 -1-1h-8a1 1 0 0 0 -1 1v3h-21a5.006 5.006 0 0 0 -5 5v8a5.009 5.009 0 0 0 4 4.9v2.1a1 1 0 0 0 -1 1v4a1 1 0 0 0 1 1h3.1a5 5 0 0 0 9.8 0h2.2a5 5 0 0 0 9.8 0h19.2a5 5 0 0 0 9.8 0h3.1a1 1 0 0 0 1-1v-4a1 1 0 0 0 -1-1zm-3.351-14.594 1.087 4.594h-7.736v-6h4.737a2 2 0 0 1 1.912 1.406zm-10.649.594a2 2 0 0 1 2-2v7a1 1 0 0 0 1 1h9v8h-12zm-19.026 16h21.052a4.954 4.954 0 0 0 -.925 2h-19.201a4.954 4.954 0 0 0 -.926-2zm-25.974-10v-2h40v2zm26-14h6v2h-6zm-23 4h34a3 3 0 0 1 3 3v3h-40v-3a3 3 0 0 1 3-3zm-2.816 12h39.632a3 3 0 0 1 -2.816 2h-34a3 3 0 0 1 -2.816-2zm3.816 4h32v2h-32zm9.974 4h4.052a4.954 4.954 0 0 0 -.925 2h-2.201a4.954 4.954 0 0 0 -.926-2zm-10.974 0h3.026a4.954 4.954 0 0 0 -.926 2h-2.1zm7 6a3 3 0 1 1 3-3 3 3 0 0 1 -3 3zm12 0a3 3 0 1 1 3-3 3 3 0 0 1 -3 3zm29 0a3 3 0 1 1 3-3 3 3 0 0 1 -3 3zm7-4h-2.1a4.954 4.954 0 0 0 -.925-2h3.025z"/><path d="m50 33h4v2h-4z"/></svg>