<svg id="Layer_3" height="512" viewBox="0 0 64 64" width="512" xmlns="http://www.w3.org/2000/svg" data-name="Layer 3"><path d="m60 45a2 2 0 0 0 2-2v-2.42a8.2 8.2 0 0 0 -.587-3.047 8.2 8.2 0 0 0 -5.023-4.733 27.943 27.943 0 0 0 -4.884-1.153l-4.506-.647-6.8-8.159a10.679 10.679 0 0 0 -8.2-3.841h-13.461a10.877 10.877 0 0 0 -8.8 4.48 29.241 29.241 0 0 0 -5.469 14.549l-.27 2.971a2 2 0 0 0 -2 2 2 2 0 0 0 2 2z" fill="#f89b1c"/><path d="m59.413 39.533a8.2 8.2 0 0 0 -5.023-4.733 27.943 27.943 0 0 0 -4.884-1.153l-4.506-.647-6.8-8.159a10.679 10.679 0 0 0 -8.2-3.841h-13.461a10.858 10.858 0 0 0 -6.63 2.277c-.054.07-.115.131-.167.2a29.241 29.241 0 0 0 -5.472 14.552l-.27 2.971a2 2 0 0 0 -2 1.986v.014a2 2 0 0 0 2 2h56v-2.42a8.2 8.2 0 0 0 -.587-3.047z" fill="#fdb716"/><path d="m62 41h-9v4h7a2 2 0 0 0 2-2z" fill="#383838"/><path d="m8 41h-4a2 2 0 0 0 -2 2 2 2 0 0 0 2 2h5" fill="#383838"/><path d="m8.749 44-.749-3h-4a1.99 1.99 0 0 0 -.82.18 1.992 1.992 0 0 0 1.82 2.82z" fill="#4c4c4c"/><path d="m11 31h36l-6.667-8h-21.333a8 8 0 0 0 -8 8z" fill="#62c1ea"/><path d="m38.2 24.841a10.677 10.677 0 0 0 -2-1.841h-17.2a8 8 0 0 0 -8 8h32.333z" fill="#86ddfa"/><path d="m22 19v-4h10v3.999" fill="#fdb716"/><circle cx="12" cy="44" fill="#383838" r="5"/><path d="m12 39a4.959 4.959 0 0 0 -2.988 1.012 4.979 4.979 0 0 0 6.976 6.976 4.979 4.979 0 0 0 -3.988-7.988z" fill="#4c4c4c"/><circle cx="12" cy="44" fill="#383838" r="2"/><path d="m26 23h2v8h-2z" fill="#fdb716"/><path d="m23 15.421a2.579 2.579 0 0 0 2.579 2.579h6.421v-3h-9z" fill="#ffc767"/><path d="m39.735 26.682-.236-.283-1.28-1.024-4 5 .781.625h1.281l1.145-1.431 1.908 1.431h3.332l-3.991-2.993z" fill="#62c1ea"/><circle cx="49" cy="44" fill="#383838" r="5"/><path d="m49 39a4.959 4.959 0 0 0 -2.988 1.012 4.979 4.979 0 0 0 6.976 6.976 4.979 4.979 0 0 0 -3.988-7.988z" fill="#4c4c4c"/><circle cx="49" cy="44" fill="#383838" r="2"/><path d="m60 42.58a8.193 8.193 0 0 0 -.155-1.58h-5.654a5.875 5.875 0 0 1 .719 4h5.09z" fill="#4c4c4c"/><path d="m60 41h2v-.42a8.2 8.2 0 0 0 -.587-3.047c-.073-.183-.162-.357-.248-.533h-5.165a4 4 0 0 0 4 4z" fill="#c0cee8"/><path d="m59.841 40.984a8.058 8.058 0 0 0 -2.041-3.984h-1.8a3.991 3.991 0 0 0 3.841 3.984z" fill="#d6dfef"/><path d="m56.706 31.848a29 29 0 0 0 -5.059-1.194l-4.125-.59-6.552-7.864a11.639 11.639 0 0 0 -7.97-4.146v-3.054a1 1 0 0 0 -1-1h-10a1 1 0 0 0 -1 1v3h-2.461a11.909 11.909 0 0 0 -9.605 4.892 30.259 30.259 0 0 0 -5.66 15.046l-.2 2.207a3 3 0 0 0 .926 5.855h2.35a5.99 5.99 0 0 0 11.3 0h25.7a5.99 5.99 0 0 0 11.3 0h5.35a3 3 0 0 0 3-3v-2.42a9.2 9.2 0 0 0 -6.294-8.732zm.465 6.152h3.346a7.19 7.19 0 0 1 .456 2h-.973a3.006 3.006 0 0 1 -2.829-2zm-12.306-8h-3.532l-2.658-1.993 1.106-1.382-1.562-1.25-3.7 4.625h-6.519v-6h11.865zm-7.439-.431.574.431h-.92zm-25.355.431a7.011 7.011 0 0 1 6.929-6h7v6zm10.929-14h8v2h-8zm-19 28a1 1 0 0 1 -1-1 1 1 0 0 1 1-1h2.35a5.976 5.976 0 0 0 -.35 2zm8 4a4 4 0 1 1 4-4 4 4 0 0 1 -4 4zm31-4h-25a5.992 5.992 0 0 0 -10.46-4h-2.44l.172-1.88a28.244 28.244 0 0 1 5.284-14.052 9.907 9.907 0 0 1 7.983-4.068h13.461a9.648 9.648 0 0 1 5.893 2h-18.893a9.01 9.01 0 0 0 -9 9 1 1 0 0 0 1 1h35.93l4.434.633a26.985 26.985 0 0 1 4.709 1.113 7.185 7.185 0 0 1 3.277 2.254h-3.35a1 1 0 0 0 -1 1 4.948 4.948 0 0 0 1.026 3h-2.566a5.992 5.992 0 0 0 -10.46 4zm6 4a4 4 0 1 1 4-4 4 4 0 0 1 -4 4zm11-4h-5a5.976 5.976 0 0 0 -.35-2h6.35v1a1 1 0 0 1 -1 1z"/><circle cx="12" cy="44" r="2"/><circle cx="49" cy="44" r="2"/></svg>