<svg id="Filled" height="512" viewBox="0 0 512 512" width="512" xmlns="http://www.w3.org/2000/svg"><g fill="#d8c8b9"><path d="m368 208s96 64 112 136c4.377 19.7 2.333 36.97-8 48-14.248 15.21-42.9 18.549-80 0-64-32-72-160-72-160z"/><path d="m144 208s-96 64-112 136c-4.377 19.7-2.333 36.97 8 48 14.248 15.21 42.9 18.549 80 0 64-32 72-160 72-160z"/><path d="m384 456s-56 32-128 32-128-32-128-32c-24-152 48-216 48-216h160s72 64 48 216z"/><circle cx="120" cy="80" r="56"/></g><circle cx="120" cy="80" fill="#ab6647" r="24"/><circle cx="392" cy="80" fill="#d8c8b9" r="56"/><circle cx="392" cy="80" fill="#ab6647" r="24"/><path d="m408 152c0 43.86-26.19 82.56-66.12 105.63-24.43 14.11-54.01 22.37-85.88 22.37s-61.45-8.26-85.88-22.37c-39.93-23.07-66.12-61.77-66.12-105.63 0-70.69 68.05-128 152-128s152 57.31 152 128z" fill="#e2d2c2"/><circle cx="176" cy="153" fill="#8a523a" r="16"/><circle cx="336" cy="153" fill="#8a523a" r="16"/><path d="m341.88 257.63c-24.43 14.11-54.01 22.37-85.88 22.37s-61.45-8.26-85.88-22.37c5.54-28.54 24.56-89.63 85.88-89.63s80.34 61.09 85.88 89.63z" fill="#ab6647"/><path d="m232 208h48s0 32-24 32-24-32-24-32z" fill="#8a523a"/><circle cx="145" cy="408" fill="#e2d2c2" r="80"/><circle cx="145" cy="408" fill="#ab6647" r="47"/><circle cx="367" cy="408" fill="#e2d2c2" r="80"/><circle cx="367" cy="408" fill="#ab6647" r="47"/><path d="m57.044 410.673a87.976 87.976 0 0 0 127.841 75.756 278.542 278.542 0 0 0 71.115 9.571 278.58 278.58 0 0 0 71.116-9.57 87.977 87.977 0 0 0 127.84-75.753 47.374 47.374 0 0 0 22.884-13.208c11.758-12.553 15.205-31.642 9.97-55.2-11.392-51.269-59.824-97.569-92.29-123.669 13.235-20.04 20.48-42.9 20.48-66.6a116.624 116.624 0 0 0 -.671-12.392 64 64 0 1 0 -71.8-101.4c-25.169-14.03-55.244-22.208-87.529-22.208s-62.36 8.177-87.528 22.213a64 64 0 1 0 -71.8 101.387 116.473 116.473 0 0 0 -.672 12.4c0 23.7 7.245 46.561 20.481 66.6-32.208 25.907-80.881 72.329-92.291 123.665-5.235 23.562-1.788 42.652 9.971 55.2a47.419 47.419 0 0 0 22.883 13.208zm15.956-2.673a72 72 0 1 1 72 72 72.081 72.081 0 0 1 -72-72zm183 72a256.879 256.879 0 0 1 -53.161-5.734 87.961 87.961 0 0 0 -57.839-154.266c-1.286 0-2.563.034-3.836.089 7.125-24.889 16.815-43.141 25.059-55.474 26.53 15.298 57.571 23.385 89.777 23.385s63.247-8.087 89.778-23.386c8.31 12.423 17.959 30.659 25.059 55.475-1.273-.055-2.551-.089-3.837-.089a87.961 87.961 0 0 0 -57.838 154.266 256.874 256.874 0 0 1 -53.162 5.734zm-76.829-226.518c3.153-13.82 8.96-31.6 19.538-46.8 14.17-20.359 33.445-30.682 57.291-30.682s43.121 10.323 57.291 30.683c10.578 15.2 16.385 32.979 19.538 46.8a168.632 168.632 0 0 1 -153.658 0zm187.829 226.518a72 72 0 1 1 72-72 72.081 72.081 0 0 1 -72 72zm105.19-134.265c5.1 22.954-.462 34.854-6.027 40.8a30.394 30.394 0 0 1 -12.239 7.721 88.251 88.251 0 0 0 -65.841-71.693c-7.7-30.052-19.093-51.966-28.861-66.624a147.606 147.606 0 0 0 26.683-24.52c27.095 21.913 75.742 66.868 86.285 114.316zm-71.72-252.151a135.1 135.1 0 0 0 -18.87-25.744 16 16 0 1 1 18.87 25.744zm-8.47-61.584a48 48 0 0 1 20.437 91.431 119.434 119.434 0 0 0 -5.021-15.4 32 32 0 1 0 -37.379-51.325 155.252 155.252 0 0 0 -12.709-9.88 47.961 47.961 0 0 1 34.672-14.826zm-320 48a47.984 47.984 0 0 1 82.672-33.171 155.135 155.135 0 0 0 -12.729 9.9 31.995 31.995 0 1 0 -37.362 51.317 119.412 119.412 0 0 0 -5.021 15.4 48.082 48.082 0 0 1 -27.56-43.446zm39.536 13.574a16 16 0 1 1 18.864-25.728 135.076 135.076 0 0 0 -18.864 25.728zm136.464-61.386v7.812a8 8 0 0 0 16 0v-7.812c75.7 3.472 136 55.881 136 119.812 0 36.081-19.556 70.106-52.817 92.835-3.725-14.464-10.048-31.9-20.759-47.293-17.338-24.911-41.032-37.542-70.424-37.542-60.011 0-82.842 52.708-91.177 84.839-33.266-22.729-52.823-56.756-52.823-92.839 0-63.931 60.305-116.34 136-119.812zm-208.19 313.547c10.568-47.558 59.552-92.69 86.285-114.319a147.631 147.631 0 0 0 26.686 24.521c-9.688 14.545-21.142 36.478-28.864 66.622a88.25 88.25 0 0 0 -65.84 71.69 30.439 30.439 0 0 1 -12.24-7.718c-10.083-10.764-8.843-28.126-6.027-40.796z"/><path d="m176 177a24 24 0 1 0 -24-24 24.027 24.027 0 0 0 24 24zm0-32a8 8 0 1 1 -8 8 8.009 8.009 0 0 1 8-8z"/><path d="m336 177a24 24 0 1 0 -24-24 24.027 24.027 0 0 0 24 24zm0-32a8 8 0 1 1 -8 8 8.009 8.009 0 0 1 8-8z"/><path d="m256 96a8 8 0 0 0 8-8v-16a8 8 0 0 0 -16 0v16a8 8 0 0 0 8 8z"/><path d="m256 144a8 8 0 0 0 8-8v-16a8 8 0 0 0 -16 0v16a8 8 0 0 0 8 8z"/><path d="m288 208a8 8 0 0 0 -8-8h-48a8 8 0 0 0 -8 8 59.643 59.643 0 0 0 3.509 18.809c5.125 13.665 15.243 21.191 28.491 21.191 25.312 0 32-26.165 32-40zm-45.39 13.5a36.712 36.712 0 0 1 -1.621-5.5h30.023a37.146 37.146 0 0 1 -1.5 5.191c-3.636 9.688-9.453 10.809-13.512 10.809-4 0-9.744-1.088-13.39-10.5z"/><path d="m145 353a55 55 0 1 0 55 55 55.062 55.062 0 0 0 -55-55zm0 94a39 39 0 1 1 39-39 39.044 39.044 0 0 1 -39 39z"/><path d="m367 353a55 55 0 1 0 55 55 55.062 55.062 0 0 0 -55-55zm0 94a39 39 0 1 1 39-39 39.044 39.044 0 0 1 -39 39z"/></svg>