<svg height="512" viewBox="0 0 48 48" width="512" xmlns="http://www.w3.org/2000/svg"><g id="Line"><path d="m28.924 2.617c-.155-.373-.52-.617-.924-.617h-4c-.315 0-.611.148-.8.4-2.416 3.14-2.647 7.322-1.149 10.916.137.409.518.684.949.684.905-.066 2.372.228 2.763-.353.314-.331.24-.825.154-1.231-.53-3.177.514-6.433 2.791-8.709.285-.286.371-.716.216-1.09z" fill="#609c48"/><path d="m43.073 30.402-.073-1.402c-.014-5.803-3.512-11.525-8.977-13.652 0 0-19.259-.409-19.38-.362-6.673 2.55-10.207 9.161-9.643 16.14 0 8.201 6.672 14.874 14.964 14.874 1.94.012 3.805-1.179 5.737-.378.823.277 1.687.395 2.555.378 8.261.185 15.427-7.356 14.817-15.598z" fill="#e26667"/><path d="m39.964 13.733c-.12-.433-.514-.733-.964-.733h-4.419c-2.114.044-4.035-1.113-6.162-1h-8.838c-2.127-.113-4.048 1.044-6.162 1h-4.419c-1.02-.031-1.383 1.464-.447 1.895 0 0 1.439.72 1.439.72 2.606 1.303 5.549 1.859 8.438 1.616l-1.359 3.398c-.402.924.813 1.81 1.569 1.14 0 0 5.36-4.467 5.36-4.467l5.36 4.467c.754.667 1.974-.213 1.569-1.14 0 0-1.358-3.395-1.358-3.395 3.352.315 6.735-.45 9.635-2.191.503-.231.941-.721.758-1.31z" fill="#92b77e"/><path d="m43 29c0-5.085-2.622-9.822-6.815-12.565 1.046-.359 2.061-.817 3.02-1.393 1.123-.448 1.05-1.94-.206-2.042h-4.419c-2.114.044-4.035-1.113-6.162-1h-2.546c-.376-3.043.657-6.116 2.834-8.293.286-.286.372-.716.217-1.09-.154-.373-.519-.617-.923-.617h-4c-.315 0-.611.148-.8.4-2.063 2.75-2.651 6.334-1.584 9.6h-2.035c-2.127-.113-4.048 1.044-6.162 1h-4.419c-1.02-.029-1.383 1.463-.447 1.895 1.028.51 2.246 1.16 3.324 1.508-4.204 2.729-6.877 7.473-6.877 12.597-.852 8.986 5.673 16.996 14.965 17 1.939.013 3.805-1.18 5.737-.378 4.785 1.256 9.957-.743 13.312-4.24 3.21-3.309 4.482-7.846 3.986-12.382zm-19.47-17.573c-.835-2.503-.463-5.243.988-7.427h1.359c-1.591 2.328-2.311 5.167-2.02 8h-.136zm-9.364 3.548c1.852-.069 3.547-1.044 5.416-.975h8.838c1.923-.066 3.665.953 5.577.984-1.707.372-3.482.421-5.229.13l-.603-.101c-.741-.145-1.395.664-1.093 1.357 0 0 .532 1.33.532 1.33l-2.963-2.47c-.186-.153-.413-.23-.641-.23s-.455.077-.64.231l-2.963 2.47.532-1.33c.309-.707-.374-1.523-1.125-1.352-1.354.272-2.74.328-4.106.19-.528-.541-.964-.096-1.532-.234zm23.397 25.03c-2.495 2.632-5.902 4.052-9.527 3.995-2.126-.213-4.242-1.164-6.369-.276-.55.183-1.123.276-1.793.276-7.099 0-12.874-5.775-12.874-12.874-.468-6 2.153-11.515 7.767-14.021 1.211.179 2.442.228 3.663.125l-1.359 3.398c-.17.425-.029.911.341 1.18.37.27.877.252 1.228-.04l5.36-4.466 5.36 4.467c.754.672 1.974-.216 1.569-1.14 0 0-1.358-3.395-1.358-3.395 1.32.255 2.784-.187 4 .017 4.513 2.143 7.429 6.755 7.431 11.801.451 3.997-.586 8.031-3.439 10.953z"/></g></svg>