<svg id="Layer_1" enable-background="new 0 0 512.009 512.009" height="512" viewBox="0 0 512.009 512.009" width="512" xmlns="http://www.w3.org/2000/svg"><g><g><path d="m289.131 133.005h82.833v63.765h-82.833z" fill="#b9e4ef"/><path d="m348.964 133.005h23v63.765h-23z" fill="#93d8e4"/><path d="m438.23 349.005v-142.702c0-9.15-7.417-16.567-16.566-16.567h-206.333v159.268h222.899z" fill="#c4e14d"/><path d="m421.664 189.737h-23c9.149 0 16.567 7.417 16.567 16.566v142.701h23v-142.701c-.001-9.149-7.418-16.566-16.567-16.566z" fill="#99b94d"/><path d="m222.865 57.204v-16.566c0-18.299-14.834-33.133-33.133-33.133h-132.533c-18.299 0-33.133 14.834-33.133 33.133v16.567l99.399 16.566z" fill="#e9a6c5"/><path d="m189.732 7.505h-22.946c18.299 0 33.133 14.834 33.133 33.133v20.391l22.947-3.824v-16.567c-.001-18.299-14.835-33.133-33.134-33.133z" fill="#e07fa6"/><path d="m24.066 117.005h198.799v232h-198.799z" fill="#e9a6c5"/><path d="m199.865 117.005h23v232h-23z" fill="#e07fa6"/><path d="m59.283 454.802h-35.217c-9.149 0-16.566-7.417-16.566-16.567v-82.833c0-9.15 7.417-16.567 16.566-16.567h416.506c5.945 0 11.434 3.185 14.384 8.347l47.333 82.833c6.311 11.044-1.664 24.786-14.384 24.786h-16.54-412.082z" fill="#f4d844"/><path d="m502.289 430.016-47.333-82.833c-2.949-5.162-8.439-8.347-14.384-8.347h-23c5.945 0 11.434 3.185 14.384 8.347l47.333 82.833c6.311 11.044-1.664 24.786-14.384 24.786h6.46 16.54c12.72 0 20.695-13.742 14.384-24.786z" fill="#edbd2d"/><path d="m223.431 123.471h-199.931c-8.837 0-16-7.163-16-16v-34.267c0-8.837 7.163-16 16-16h199.932c8.837 0 16 7.163 16 16v34.266c-.001 8.837-7.164 16.001-16.001 16.001z" fill="#f4d844"/><ellipse cx="123.466" cy="438.235" fill="#365e7d" rx="66.27" ry="66.27" transform="matrix(.707 -.707 .707 .707 -273.717 215.659)"/><ellipse cx="289.131" cy="454.803" fill="#365e7d" rx="49.701" ry="49.701" transform="matrix(.924 -.383 .383 .924 -152.037 145.266)"/><ellipse cx="421.664" cy="454.803" fill="#365e7d" rx="49.701" ry="49.701" transform="matrix(.23 -.973 .973 .23 -117.852 760.695)"/><path d="m173.732 256.003h-100.533c-8.837 0-16-7.163-16-16v-67.399c0-8.837 7.164-16 16-16h100.532c8.837 0 16 7.163 16 16v67.399c.001 8.837-7.163 16-15.999 16z" fill="#b9e4ef"/><path d="m372.53 140.037h-83.966c-8.837 0-16-7.163-16-16v-34.266c0-8.837 7.163-16 16-16h83.966c8.837 0 16 7.163 16 16v34.266c0 8.837-7.163 16-16 16z" fill="#f4d844"/><path d="m297.698 256.003h-17.133c-4.418 0-8-3.582-8-8v-17.133c0-4.418 3.582-8 8-8h17.133c4.418 0 8 3.582 8 8v17.133c0 4.418-3.582 8-8 8z" fill="#b9e4ef"/><path d="m380.53 256.003h-17.133c-4.418 0-8-3.582-8-8v-17.133c0-4.418 3.582-8 8-8h17.133c4.418 0 8 3.582 8 8v17.133c0 4.418-3.581 8-8 8z" fill="#b9e4ef"/><path d="m421.664 405.102c-3.97 0-7.826.479-11.527 1.358 21.888 5.201 38.174 24.863 38.174 48.343 0 23.479-16.286 43.142-38.174 48.343 3.701.879 7.557 1.358 11.527 1.358 27.449 0 49.701-22.252 49.701-49.701s-22.252-49.701-49.701-49.701z" fill="#2b4d66"/><path d="m289.131 405.102c-3.97 0-7.826.479-11.527 1.358 21.888 5.201 38.174 24.863 38.174 48.343 0 23.479-16.286 43.142-38.174 48.343 3.701.879 7.557 1.358 11.527 1.358 27.449 0 49.701-22.252 49.701-49.701s-22.252-49.701-49.701-49.701z" fill="#2b4d66"/><path d="m123.465 371.966c-3.925 0-7.764.361-11.502 1.015 31.114 5.448 54.768 32.58 54.768 65.254s-23.654 59.806-54.768 65.254c3.738.654 7.576 1.015 11.502 1.015 36.6 0 66.27-29.67 66.27-66.27s-29.67-66.268-66.27-66.268z" fill="#2b4d66"/><ellipse cx="123.466" cy="438.235" fill="#f4d844" rx="24.85" ry="24.85" transform="matrix(.707 -.707 .707 .707 -273.717 215.659)"/><g fill="#edbd2d"><path d="m123.465 413.385c-4.151 0-8.061 1.023-11.5 2.822 7.933 4.15 13.35 12.454 13.35 22.027 0 9.574-5.417 17.877-13.35 22.027 3.439 1.799 7.349 2.823 11.5 2.823 13.724 0 24.85-11.126 24.85-24.85 0-13.723-11.125-24.849-24.85-24.849z"/><path d="m372.53 73.771h-23c8.837 0 16 7.163 16 16v34.266c0 8.836-7.163 16-16 16h23c8.837 0 16-7.163 16-16v-34.266c0-8.837-7.163-16-16-16z"/><path d="m223.432 57.204h-22.901c8.837 0 16 7.163 16 16v34.266c0 8.837-7.163 16-16 16h22.901c8.837 0 16-7.163 16-16v-34.266c0-8.836-7.164-16-16-16z"/></g><path d="m173.732 156.604h-22.946c8.837 0 16 7.164 16 16v67.399c0 8.837-7.163 16-16 16h22.946c8.837 0 16-7.163 16-16v-67.399c0-8.837-7.164-16-16-16z" fill="#93d8e4"/></g><g><path d="m123.466 405.885c-17.838 0-32.35 14.512-32.35 32.35 0 17.837 14.512 32.35 32.35 32.35s32.35-14.512 32.35-32.35c-.001-17.838-14.512-32.35-32.35-32.35zm0 49.7c-9.566 0-17.35-7.783-17.35-17.35s7.783-17.35 17.35-17.35 17.35 7.783 17.35 17.35c-.001 9.567-7.784 17.35-17.35 17.35z"/><path d="m508.801 426.295-47.333-82.832c-3.403-5.957-9.177-10.107-15.737-11.554v-125.606c0-13.271-10.796-24.067-24.066-24.067h-42.2v-35.745c9.584-2.965 16.566-11.91 16.566-22.455v-34.265c0-12.958-10.542-23.5-23.5-23.5h-83.966c-12.958 0-23.5 10.542-23.5 23.5v34.266c0 10.545 6.982 19.49 16.566 22.455v35.745h-51.266v-52.311c9.584-2.965 16.566-11.91 16.566-22.455v-34.267c0-10.545-6.982-19.49-16.566-22.455v-10.111c0-22.405-18.229-40.633-40.634-40.633h-132.532c-22.405 0-40.633 18.228-40.633 40.633v10.111c-9.584 2.966-16.566 11.91-16.566 22.455v34.266c0 10.545 6.982 19.49 16.566 22.455v202.613c-9.608 3.16-16.566 12.212-16.566 22.864v82.833c0 13.27 10.796 24.066 24.066 24.066h29.682c10.002 28.892 37.466 49.703 69.717 49.703s59.715-20.812 69.717-49.703h39.254c3.686 28.008 27.696 49.703 56.694 49.703s53.008-21.695 56.694-49.703h19.144c3.685 28.008 27.697 49.703 56.695 49.703s53.008-21.695 56.694-49.703h9.547c8.679 0 16.46-4.482 20.816-11.987 4.357-7.506 4.386-16.485.081-24.019zm-228.737-336.524c0-4.687 3.814-8.5 8.5-8.5h83.966c4.687 0 8.5 3.813 8.5 8.5v34.266c0 4.687-3.813 8.5-8.5 8.5h-83.966c-4.686 0-8.5-3.813-8.5-8.5zm16.567 57.766h67.833v34.7h-67.833zm125.033 49.7c4.999 0 9.066 4.067 9.066 9.067v125.032h-200.365v-134.099zm-390.098-66.267h183.799v200.365h-183.799zm25.633-115.965h132.532c14.135 0 25.634 11.499 25.634 25.633v9.066h-183.799v-9.066c0-14.134 11.499-25.633 25.633-25.633zm-42.199 58.199c0-4.687 3.813-8.5 8.5-8.5h199.932c4.687 0 8.5 3.813 8.5 8.5v34.266c0 4.687-3.813 8.5-8.5 8.5h-199.932c-4.687 0-8.5-3.813-8.5-8.5zm108.466 423.801c-32.405 0-58.77-26.364-58.77-58.77s26.364-58.77 58.77-58.77c32.405 0 58.77 26.364 58.77 58.77-.001 32.406-26.365 58.77-58.77 58.77zm165.665 0c-23.27 0-42.201-18.931-42.201-42.201s18.932-42.202 42.201-42.202c23.265 0 42.193 18.924 42.201 42.188 0 .004-.001.008-.001.012 0 .005.001.009.001.013-.007 23.265-18.936 42.19-42.201 42.19zm132.533 0c-23.271 0-42.202-18.931-42.202-42.201s18.932-42.202 42.202-42.202 42.201 18.932 42.201 42.202c0 23.269-18.931 42.201-42.201 42.201zm74.083-54.22c-.787 1.358-3.129 4.516-7.842 4.516h-9.548c-3.687-28.007-27.697-49.7-56.693-49.7s-53.007 21.693-56.694 49.7h-19.146c-3.687-28.007-27.697-49.7-56.693-49.7s-53.006 21.693-56.693 49.7h-35.779c.366-2.974.577-5.995.577-9.066 0-40.677-33.093-73.77-73.77-73.77s-73.77 33.093-73.77 73.77c0 3.071.211 6.092.577 9.066h-26.207c-4.999 0-9.066-4.067-9.066-9.066v-82.833c0-4.999 4.067-9.066 9.066-9.066h416.506c3.245 0 6.262 1.75 7.872 4.568l47.333 82.833c2.338 4.091.758 7.691-.03 9.048z"/><path d="m173.731 149.104h-100.532c-12.958 0-23.5 10.542-23.5 23.5v67.399c0 12.958 10.542 23.5 23.5 23.5h100.532c12.958 0 23.5-10.542 23.5-23.5v-67.399c0-12.958-10.542-23.5-23.5-23.5zm8.5 90.899c0 4.687-3.814 8.5-8.5 8.5h-100.532c-4.687 0-8.5-3.813-8.5-8.5v-67.399c0-4.687 3.813-8.5 8.5-8.5h100.532c4.686 0 8.5 3.813 8.5 8.5z"/><path d="m280.564 263.503h17.133c8.547 0 15.5-6.953 15.5-15.5v-17.133c0-8.547-6.953-15.5-15.5-15.5h-17.133c-8.547 0-15.5 6.953-15.5 15.5v17.133c0 8.547 6.953 15.5 15.5 15.5zm-.5-32.633c0-.276.225-.5.5-.5h17.133c.275 0 .5.224.5.5v17.133c0 .276-.225.5-.5.5h-17.133c-.275 0-.5-.224-.5-.5z"/><path d="m363.397 263.503h17.133c8.547 0 15.5-6.953 15.5-15.5v-17.133c0-8.547-6.953-15.5-15.5-15.5h-17.133c-8.547 0-15.5 6.953-15.5 15.5v17.133c0 8.547 6.953 15.5 15.5 15.5zm-.5-32.633c0-.276.225-.5.5-.5h17.133c.275 0 .5.224.5.5v17.133c0 .276-.225.5-.5.5h-17.133c-.275 0-.5-.224-.5-.5z"/></g></g></svg>