<?xml version="1.0" encoding="iso-8859-1"?>
<!-- Generator: Adobe Illustrator 19.0.0, SVG Export Plug-In . SVG Version: 6.00 Build 0)  -->
<svg xmlns="http://www.w3.org/2000/svg" xmlns:xlink="http://www.w3.org/1999/xlink" version="1.1" id="Layer_1" x="0px" y="0px" viewBox="0 0 512 512" style="enable-background:new 0 0 512 512;" xml:space="preserve">
<path style="fill:#FDD834;" d="M469.333,213.333H230.4v179.2h68.267c0-3.157,0.171-6.315,0.427-9.387  c5.214-51.601,51.268-89.216,102.869-84.002c33.126,3.345,61.995,23.97,75.904,54.221c3.729,8.038,6.255,16.572,7.509,25.344  c0.461,3.081,0.742,6.187,0.853,9.301c10.65-6.05,17.229-17.357,17.237-29.611V247.467c0.009-18.85-15.266-34.125-34.116-34.133  C469.35,213.333,469.342,213.333,469.333,213.333z"/>
<path style="fill:#FFEB3A;" d="M477.867,273.067v80.299c-21.632-47.138-77.372-67.814-124.501-46.182  c-30.285,13.901-50.935,42.803-54.272,75.964c-0.256,3.072-0.427,6.229-0.427,9.387H230.4v-153.6h213.333  c18.85-0.009,34.125,15.266,34.133,34.116C477.867,273.05,477.867,273.058,477.867,273.067z"/>
<path d="M298.667,401.067H230.4c-4.71,0-8.533-3.814-8.533-8.533v-179.2c0-4.71,3.823-8.533,8.533-8.533h238.933h0.009  c23.518,0,42.65,19.123,42.658,42.641v0.026V358.4c-0.009,15.3-8.269,29.483-21.547,37.026c-2.603,1.476-5.769,1.485-8.363,0.043  c-2.611-1.459-4.267-4.156-4.378-7.142c-0.111-2.79-0.358-5.589-0.777-8.354c-6.938-46.549-50.483-78.754-97.015-71.834  c-38.665,5.768-68.42,36.966-72.337,75.878c-0.222,2.679-0.384,5.598-0.384,8.516C307.2,397.252,303.386,401.067,298.667,401.067z   M238.933,384h51.533c0.034-0.529,0.077-1.05,0.128-1.57c4.719-46.814,40.405-84.258,86.81-91.187  c53.129-7.893,103.108,26.769,114.935,78.353c1.673-3.43,2.594-7.253,2.594-11.204V247.45  c-0.009-14.106-11.486-25.583-25.591-25.583c0,0,0,0-0.009,0h-230.4V384z"/>
<g>
	<path style="fill:#607D8B;" d="M486.4,392.533c0,51.84-42.027,93.867-93.867,93.867s-93.867-42.027-93.867-93.867   c0-3.157,0.171-6.315,0.427-9.387c5.197-51.593,51.234-89.207,102.827-84.002c42.743,4.309,77.116,37.077,83.456,79.565   c0.461,3.081,0.742,6.187,0.853,9.301C486.374,389.513,486.426,391.023,486.4,392.533z"/>
	<path style="fill:#607D8B;" d="M230.4,392.533c0,51.84-42.027,93.867-93.867,93.867s-93.867-42.027-93.867-93.867   c0-3.157,0.171-6.315,0.427-9.387c5.214-51.61,51.268-89.216,102.878-84.002c44.407,4.489,79.522,39.603,84.002,84.002   C230.229,386.219,230.4,389.376,230.4,392.533z"/>
</g>
<path d="M392.533,494.933c-56.465,0-102.4-45.935-102.4-102.4c0-3.396,0.179-6.801,0.461-10.103  c2.748-27.358,15.932-51.883,37.129-69.197c21.18-17.297,47.872-25.293,75.068-22.579c46.686,4.71,84.113,40.397,91.034,86.801  c0.503,3.396,0.819,6.818,0.939,10.24c0.145,1.323,0.196,3.115,0.179,4.907C494.891,449.033,448.973,494.933,392.533,494.933z   M392.354,307.191c-19.601,0-38.451,6.69-53.845,19.268c-17.655,14.421-28.638,34.859-30.925,57.549  c-0.222,2.688-0.384,5.606-0.384,8.525c0,47.053,38.281,85.333,85.333,85.333s85.333-38.281,85.333-85.333c0-0.051,0-0.094,0-0.145  c0.026-1.195-0.017-2.389-0.137-3.584c-0.137-3.277-0.384-6.076-0.802-8.841c-5.751-38.665-36.949-68.412-75.861-72.329  C398.148,307.345,395.238,307.191,392.354,307.191z"/>
<g>
	<path style="fill:#37474F;" d="M392.533,452.267c-32.973-0.043-59.691-26.761-59.733-59.733c0-2.193,0.128-4.395,0.307-6.528   c3.618-32.811,33.152-56.465,65.954-52.847c26.94,2.97,48.512,23.706,52.54,50.509c0.256,1.766,0.427,3.541,0.512,5.333   l0.034,1.348l0.154,1.34l-0.034,0.845C452.224,425.506,425.506,452.224,392.533,452.267z"/>
	<path style="fill:#37474F;" d="M136.533,452.267c-32.973-0.043-59.691-26.761-59.733-59.733c0-2.193,0.128-4.395,0.307-6.528   c3.465-30.234,28.996-53.094,59.426-53.205c30.592,0.196,56.166,23.305,59.477,53.709c0.128,1.63,0.256,3.831,0.256,6.025   C196.224,425.506,169.506,452.224,136.533,452.267z"/>
</g>
<path d="M392.542,460.8c-0.009,0-0.009,0-0.017,0c-37.589-0.051-68.207-30.669-68.258-68.258c0-2.441,0.137-4.89,0.341-7.27  c2.014-18.33,10.957-34.603,25.199-46.012c14.234-11.409,32.051-16.589,50.193-14.592c30.754,3.396,55.441,27.136,60.049,57.728  c0.299,2.091,0.512,4.164,0.589,6.238l0.145,2.091c0.043,0.427,0.06,0.862,0.043,1.28  C460.749,430.131,430.131,460.749,392.542,460.8z M392.474,341.325c-25.762,0-48,19.439-50.884,45.619  c-0.137,1.69-0.256,3.635-0.256,5.589c0.034,28.194,22.997,51.157,51.2,51.2c28.203-0.043,51.166-23.006,51.2-51.209  c0-0.051,0.009-0.273,0.017-0.529l-0.171-2.79c-0.06-1.34-0.196-2.833-0.418-4.309c-3.447-22.912-21.973-40.713-45.03-43.255  C396.237,341.436,394.342,341.325,392.474,341.325z"/>
<path style="fill:#C52828;" d="M230.4,68.267v324.267c-0.017-3.132-0.196-6.272-0.529-9.387  c-4.079-26.197-19.49-49.271-42.138-63.061V68.267H230.4z"/>
<path style="fill:#F44335;" d="M196.267,68.267v251.819c-16.819-13.867-37.939-21.436-59.733-21.419  c-5.7-0.026-11.392,0.521-16.981,1.621c-41.054,7.578-72.201,41.327-76.459,82.859c-0.256,3.072-0.427,6.229-0.427,9.387V68.267  H196.267z"/>
<path d="M230.4,401.067c-4.71,0-8.533-3.814-8.533-8.533c0-2.927-0.162-5.845-0.393-8.678  c-4.779-46.686-46.737-80.956-93.619-76.117c-40.098,4.096-72.175,36.173-76.271,76.271c-0.222,2.679-0.384,5.598-0.384,8.525  c0,4.719-3.823,8.533-8.533,8.533s-8.533-3.814-8.533-8.533V68.267c0-4.71,3.823-8.533,8.533-8.533H230.4  c4.71,0,8.533,3.823,8.533,8.533v324.267C238.933,397.252,235.11,401.067,230.4,401.067z M51.2,76.8v259.379  c16.58-24.934,43.733-42.232,74.923-45.423c39.014-3.968,75.341,14.635,95.744,45.252V76.8H51.2z"/>
<path d="M136.533,494.933c-56.465,0-102.4-45.935-102.4-102.4c0-3.388,0.179-6.793,0.452-10.095  c5.692-56.354,56.03-97.468,112.239-91.793c48.222,4.864,86.758,43.409,91.639,91.639c0.29,3.456,0.469,6.861,0.469,10.249  C238.933,448.998,192.998,494.933,136.533,494.933z M136.474,307.2c-43.255,0-80.452,32.87-84.89,76.809  c-0.222,2.679-0.384,5.598-0.384,8.525c0,47.053,38.281,85.333,85.333,85.333s85.333-38.281,85.333-85.333  c0-2.927-0.162-5.845-0.393-8.678c-4.045-40.047-36.164-72.166-76.356-76.228C142.217,307.345,139.332,307.2,136.474,307.2z"/>
<path d="M136.542,460.8c-0.009,0-0.009,0-0.017,0c-37.598-0.051-68.215-30.669-68.258-68.258c0-2.441,0.137-4.89,0.341-7.27  c3.968-34.756,33.152-60.885,67.9-61.005c35.021,0.222,64.213,26.59,67.985,61.321c0.171,2.048,0.307,4.506,0.307,6.946  C204.757,430.131,174.14,460.749,136.542,460.8z M136.482,341.333c-26.01,0.094-47.923,19.721-50.893,45.645  c-0.145,1.655-0.256,3.601-0.256,5.555c0.034,28.194,22.997,51.157,51.2,51.2c28.203-0.043,51.166-23.006,51.2-51.209  c0-1.937-0.111-3.874-0.23-5.325C184.687,361.327,162.739,341.513,136.482,341.333z"/>
<circle style="fill:#0377BC;" cx="136.533" cy="187.733" r="59.733"/>
<ellipse style="fill:#02A9F4;" cx="123.733" cy="187.733" rx="46.933" ry="59.733"/>
<path d="M136.533,256c-37.641,0-68.267-30.626-68.267-68.267s30.626-68.267,68.267-68.267s68.267,30.626,68.267,68.267  S174.174,256,136.533,256z M136.533,136.533c-28.237,0-51.2,22.963-51.2,51.2s22.963,51.2,51.2,51.2s51.2-22.963,51.2-51.2  S164.77,136.533,136.533,136.533z"/>
<path style="fill:#2E7D32;" d="M42.667,25.6H230.4c18.85,0,34.133,15.283,34.133,34.133l0,0c0,4.71-3.823,8.533-8.533,8.533H17.067  c-4.71,0-8.533-3.823-8.533-8.533l0,0C8.533,40.883,23.817,25.6,42.667,25.6z"/>
<path style="fill:#4CAF50;" d="M42.667,25.6h153.6c18.85,0,34.133,15.283,34.133,34.133l0,0c0,4.71-3.823,8.533-8.533,8.533h-204.8  c-4.71,0-8.533-3.823-8.533-8.533l0,0C8.533,40.883,23.817,25.6,42.667,25.6z"/>
<path d="M256,76.8H17.067C7.654,76.8,0,69.146,0,59.733c0-23.526,19.14-42.667,42.667-42.667H230.4  c23.526,0,42.667,19.14,42.667,42.667C273.067,69.146,265.412,76.8,256,76.8z M42.667,34.133c-14.114,0-25.6,11.486-25.6,25.6H256  c0-14.114-11.486-25.6-25.6-25.6H42.667z"/>
<path style="fill:#37474F;" d="M471.723,158.635L460.8,213.333h-34.133l-10.923-54.699c-2.756-13.892,6.263-27.383,20.156-30.14  c1.63-0.324,3.277-0.495,4.932-0.495h5.803c14.165,0.034,25.617,11.546,25.583,25.702  C472.209,155.358,472.047,157.013,471.723,158.635z"/>
<path style="fill:#607D8B;" d="M468.565,140.459L460.8,179.2h-34.133l-7.765-38.741c4.582-7.748,12.928-12.493,21.931-12.459h5.803  C455.637,127.966,463.983,132.71,468.565,140.459z"/>
<path d="M460.8,221.867h-34.133c-4.07,0-7.569-2.867-8.363-6.861l-10.94-54.716c-1.792-8.943,0.009-18.039,5.069-25.626  c5.06-7.586,12.766-12.749,21.709-14.541c2.193-0.435,4.437-0.657,6.682-0.657h5.82c18.825,0,34.133,15.309,34.133,34.133  c0,2.253-0.222,4.506-0.666,6.707l-10.94,54.699C468.369,218.999,464.87,221.867,460.8,221.867z M433.655,204.8h20.147l9.566-47.855  c0.222-1.109,0.333-2.227,0.333-3.345c0-9.412-7.654-17.067-17.067-17.067h-5.82c-1.126,0-2.253,0.111-3.354,0.333  c-4.463,0.896-8.32,3.482-10.846,7.27s-3.422,8.346-2.534,12.809L433.655,204.8z"/>
<path id="SVGCleanerId_0" d="M136.533,460.8c-4.71,0-8.533-3.814-8.533-8.533V332.8c0-4.719,3.823-8.533,8.533-8.533  s8.533,3.814,8.533,8.533v119.467C145.067,456.986,141.244,460.8,136.533,460.8z"/>
<g>
	<path id="SVGCleanerId_0_1_" d="M136.533,460.8c-4.71,0-8.533-3.814-8.533-8.533V332.8c0-4.719,3.823-8.533,8.533-8.533   s8.533,3.814,8.533,8.533v119.467C145.067,456.986,141.244,460.8,136.533,460.8z"/>
</g>
<path d="M94.293,443.307c-2.185,0-4.369-0.836-6.033-2.5c-3.337-3.337-3.337-8.73,0-12.066l84.471-84.48  c3.337-3.337,8.73-3.337,12.066,0c3.337,3.337,3.337,8.73,0,12.066l-84.471,84.48C98.662,442.479,96.478,443.307,94.293,443.307z"/>
<path d="M196.267,401.067H76.8c-4.71,0-8.533-3.814-8.533-8.533S72.09,384,76.8,384h119.467c4.71,0,8.533,3.814,8.533,8.533  S200.977,401.067,196.267,401.067z"/>
<path d="M178.773,443.307c-2.185,0-4.369-0.836-6.033-2.5l-84.471-84.48c-3.337-3.337-3.337-8.73,0-12.066  c3.337-3.337,8.73-3.337,12.066,0l84.471,84.48c3.337,3.337,3.337,8.73,0,12.066C183.134,442.479,180.958,443.307,178.773,443.307z"/>
<path id="SVGCleanerId_1" d="M392.533,460.8c-4.719,0-8.533-3.814-8.533-8.533V332.8c0-4.719,3.814-8.533,8.533-8.533  s8.533,3.814,8.533,8.533v119.467C401.067,456.986,397.252,460.8,392.533,460.8z"/>
<g>
	<path id="SVGCleanerId_1_1_" d="M392.533,460.8c-4.719,0-8.533-3.814-8.533-8.533V332.8c0-4.719,3.814-8.533,8.533-8.533   s8.533,3.814,8.533,8.533v119.467C401.067,456.986,397.252,460.8,392.533,460.8z"/>
</g>
<path d="M350.293,443.307c-2.185,0-4.369-0.836-6.033-2.5c-3.337-3.337-3.337-8.73,0-12.066l84.48-84.48  c3.337-3.337,8.73-3.337,12.066,0c3.337,3.337,3.337,8.73,0,12.066l-84.48,84.48C354.662,442.479,352.478,443.307,350.293,443.307z"/>
<path d="M452.267,401.067H332.8c-4.719,0-8.533-3.814-8.533-8.533S328.081,384,332.8,384h119.467c4.719,0,8.533,3.814,8.533,8.533  S456.986,401.067,452.267,401.067z"/>
<path d="M434.773,443.307c-2.185,0-4.369-0.836-6.033-2.5l-84.48-84.48c-3.337-3.337-3.337-8.73,0-12.066  c3.337-3.337,8.73-3.337,12.066,0l84.48,84.48c3.337,3.337,3.337,8.73,0,12.066C439.142,442.479,436.958,443.307,434.773,443.307z"/>
<path d="M264.533,273.067c-2.185,0-4.369-0.836-6.033-2.5c-3.337-3.337-3.337-8.73,0-12.066l17.067-17.067  c3.337-3.337,8.73-3.337,12.066,0c3.337,3.337,3.337,8.73,0,12.066l-17.067,17.067C268.902,272.23,266.718,273.067,264.533,273.067z  "/>
<path d="M264.533,315.733c-2.185,0-4.369-0.836-6.033-2.5c-3.337-3.337-3.337-8.73,0-12.066l59.733-59.733  c3.337-3.337,8.73-3.337,12.066,0c3.337,3.337,3.337,8.73,0,12.066l-59.733,59.733C268.902,314.897,266.718,315.733,264.533,315.733  z"/>
<path d="M119.467,187.733c-2.185,0-4.369-0.836-6.033-2.5c-3.337-3.337-3.337-8.73,0-12.066l8.533-8.533  c3.337-3.337,8.73-3.337,12.066,0c3.337,3.337,3.337,8.73,0,12.066l-8.533,8.533C123.836,186.897,121.651,187.733,119.467,187.733z"/>
<g>
</g>
<g>
</g>
<g>
</g>
<g>
</g>
<g>
</g>
<g>
</g>
<g>
</g>
<g>
</g>
<g>
</g>
<g>
</g>
<g>
</g>
<g>
</g>
<g>
</g>
<g>
</g>
<g>
</g>
</svg>
