<svg id="Layer_1" enable-background="new 0 0 512 512" height="512" viewBox="0 0 512 512" width="512" xmlns="http://www.w3.org/2000/svg"><g><g><path d="m215.446 29.306 8.448 25.344c.563 1.689.85 3.458.85 5.239v42.611h62.518v-42.612c0-1.781.287-3.55.85-5.239l8.448-25.344c3.576-10.727-4.409-21.805-15.716-21.805h-49.681c-11.308 0-19.293 11.078-15.717 21.806z" fill="#f9f6f6"/><path d="m280.844 7.5h-22.969c11.308 0 19.292 11.078 15.716 21.805l-8.448 25.344c-.563 1.69-.85 3.458-.85 5.239v42.612h22.969v-42.612c0-1.781.287-3.549.85-5.239l8.448-25.344c3.576-10.727-4.409-21.805-15.716-21.805z" fill="#ecdaec"/><g><path d="m322.267 156.6c18.299 0 33.133-14.834 33.133-33.133s-14.834-33.133-33.133-33.133h-132.534c-18.299 0-33.133 14.834-33.133 33.133s14.834 33.133 33.133 33.133l66.267 16.567z" fill="#e9a6c5"/><path d="m322.267 90.333h-23.082c18.299 0 33.133 14.834 33.133 33.133s-14.834 33.133-33.133 33.133l-54.725 13.681 11.54 2.887 66.267-16.567c18.299 0 33.133-14.834 33.133-33.133s-14.834-33.134-33.133-33.134z" fill="#e07fa6"/><path d="m338.833 222.867c18.299 0 33.133-14.834 33.133-33.133s-14.834-33.133-33.133-33.133h-165.666c-18.299 0-33.133 14.834-33.133 33.133s14.834 33.133 33.133 33.133l82.833 33.133z" fill="#c0fafd"/><path d="m338.833 156.6h-23c18.299 0 33.133 14.834 33.133 33.133s-14.834 33.133-33.133 33.133l-71.333 28.534 11.5 4.6 82.833-33.133c18.299 0 33.133-14.834 33.133-33.133.001-18.3-14.834-33.134-33.133-33.134z" fill="#93d8e4"/><path d="m355.4 289.133c18.299 0 33.133-14.834 33.133-33.133s-14.834-33.133-33.133-33.133h-198.8c-18.299 0-33.133 14.834-33.133 33.133s14.834 33.133 33.133 33.133l99.4 33.133z" fill="#f4d844"/><path d="m355.4 222.867h-23c18.299 0 33.133 14.834 33.133 33.133s-14.834 33.133-33.133 33.133l-87.9 29.3 11.5 3.833 99.4-33.133c18.299 0 33.133-14.834 33.133-33.133s-14.834-33.133-33.133-33.133z" fill="#edbd2d"/><path d="m140.033 355.4c-18.299 0-33.133-14.834-33.133-33.133s14.834-33.133 33.133-33.133h231.933c18.299 0 33.133 14.834 33.133 33.133s-14.834 33.133-33.133 33.133l-115.966 33.133z" fill="#c4e14d"/><path d="m371.967 289.133h-22.9c18.299 0 33.133 14.834 33.133 33.133s-14.834 33.133-33.133 33.133l-104.517 29.863 11.45 3.271 115.967-33.133c18.299 0 33.133-14.834 33.133-33.133s-14.834-33.134-33.133-33.134z" fill="#99b94d"/><path d="m388.533 421.667c18.299 0 33.133-14.834 33.133-33.133s-14.834-33.133-33.133-33.133h-265.066c-18.299 0-33.133 14.834-33.133 33.133s14.834 33.133 33.133 33.133l132.533 24.85z" fill="#e9a82f"/><path d="m388.533 355.4h-23c18.299 0 33.133 14.834 33.133 33.133s-14.834 33.133-33.133 33.133l-121.033 22.694 11.5 2.156 132.533-24.85c18.299 0 33.133-14.834 33.133-33.133.001-18.299-14.834-33.133-33.133-33.133z" fill="#da7d1f"/></g><path d="m73.2 421.667h116.533l66.267 13.666 66.267-13.667h116.533c8.837 0 16 7.163 16 16v34.834c0 17.673-14.327 32-32 32h-333.6c-17.673 0-32-14.327-32-32v-34.833c0-8.837 7.163-16 16-16z" fill="#9d6b6b"/><path d="m306.267 471.367h-100.534c-8.837 0-16-7.164-16-16v-33.7h132.533v33.7c.001 8.836-7.163 16-15.999 16z" fill="#f9f6f6"/><path d="m438.8 421.667h-22.942c8.836 0 16 7.163 16 16v34.833c0 17.673-14.327 32-32 32h22.942c17.673 0 32-14.327 32-32v-34.833c0-8.837-7.163-16-16-16z" fill="#8b5e5e"/><path d="m299.267 421.667v33.7c0 8.836-7.164 16-16 16h23c8.836 0 16-7.164 16-16v-33.7z" fill="#ecdaec"/></g><g><path d="m438.8 414.167h-18.767c5.706-6.998 9.135-15.921 9.135-25.633 0-17.846-11.569-33.03-27.597-38.476 6.832-7.273 11.03-17.048 11.03-27.791 0-17.845-11.569-33.03-27.596-38.476 6.832-7.273 11.03-17.048 11.03-27.791 0-17.846-11.569-33.03-27.597-38.476 6.832-7.273 11.03-17.048 11.03-27.791 0-17.846-11.569-33.03-27.597-38.476 6.832-7.273 11.031-17.048 11.031-27.791 0-22.405-18.229-40.633-40.634-40.633h-27.505v-22.945c0-.976.156-1.94.466-2.867l8.448-25.344c2.476-7.428 1.27-15.331-3.309-21.683-4.579-6.351-11.695-9.994-19.524-9.994h-49.681c-7.83 0-14.945 3.643-19.523 9.994-4.578 6.352-5.784 14.255-3.308 21.683l8.448 25.345c.309.925.465 1.889.465 2.866v22.945h-27.511c-22.405 0-40.633 18.228-40.633 40.633 0 10.743 4.198 20.518 11.03 27.791-16.028 5.446-27.597 20.63-27.597 38.476 0 10.743 4.198 20.518 11.03 27.791-16.028 5.446-27.597 20.63-27.597 38.476 0 10.743 4.198 20.518 11.03 27.791-16.028 5.446-27.597 20.63-27.597 38.476 0 10.743 4.198 20.518 11.03 27.791-16.028 5.446-27.597 20.63-27.597 38.476 0 9.712 3.429 18.635 9.134 25.633h-18.767c-12.958 0-23.5 10.542-23.5 23.5v34.833c0 21.78 17.72 39.5 39.5 39.5h333.6c21.78 0 39.5-17.72 39.5-39.5v-34.833c0-12.959-10.542-23.5-23.5-23.5zm-206.556-349.467h9.067c4.142 0 7.5-3.358 7.5-7.5s-3.358-7.5-7.5-7.5h-11.161l-7.589-22.766c-.933-2.798-.478-5.776 1.246-8.169 1.725-2.392 4.405-3.765 7.355-3.765h49.681c2.949 0 5.63 1.373 7.354 3.765 1.726 2.393 2.18 5.371 1.247 8.169l-8.447 25.342c-.82 2.459-1.236 5.02-1.236 7.612v22.945h-47.518v-18.133zm-42.511 33.134h132.533c14.135 0 25.634 11.499 25.634 25.633s-11.499 25.633-25.633 25.633h-132.534c-14.134 0-25.633-11.499-25.633-25.633s11.499-25.633 25.633-25.633zm-16.567 66.266h165.667c14.135 0 25.634 11.499 25.634 25.633s-11.499 25.633-25.634 25.633h-165.667c-14.134 0-25.633-11.499-25.633-25.633s11.499-25.633 25.633-25.633zm-16.566 66.267h198.8c14.134 0 25.633 11.499 25.633 25.633s-11.499 25.633-25.633 25.633h-198.8c-14.134 0-25.633-11.499-25.633-25.633s11.499-25.633 25.633-25.633zm-16.567 66.266h231.934c14.134 0 25.633 11.499 25.633 25.633s-11.499 25.634-25.633 25.634h-231.934c-14.134 0-25.633-11.499-25.633-25.633s11.499-25.634 25.633-25.634zm-42.2 91.9c0-14.134 11.499-25.633 25.633-25.633h265.066c14.135 0 25.634 11.499 25.634 25.633s-11.499 25.633-25.634 25.633h-265.065c-14.135.001-25.634-11.498-25.634-25.633zm99.4 40.634h117.533v26.2c0 4.687-3.814 8.5-8.5 8.5h-100.533c-4.687 0-8.5-3.813-8.5-8.5zm250.067 43.333c0 13.509-10.99 24.5-24.5 24.5h-333.6c-13.509 0-24.5-10.991-24.5-24.5v-34.833c0-4.687 3.813-8.5 8.5-8.5h109.033v26.2c0 12.958 10.542 23.5 23.5 23.5h100.533c12.958 0 23.5-10.542 23.5-23.5v-26.2h109.034c4.686 0 8.5 3.813 8.5 8.5z"/><path d="m140.033 455.583h-16.566c-4.142 0-7.5 3.358-7.5 7.5s3.358 7.5 7.5 7.5h16.566c4.142 0 7.5-3.358 7.5-7.5s-3.358-7.5-7.5-7.5z"/><path d="m388.533 455.583h-16.566c-4.143 0-7.5 3.358-7.5 7.5s3.357 7.5 7.5 7.5h16.566c4.143 0 7.5-3.358 7.5-7.5s-3.357-7.5-7.5-7.5z"/></g></g></svg>