<?xml version="1.0" encoding="iso-8859-1"?>
<!-- Generator: Adobe Illustrator 21.0.0, SVG Export Plug-In . SVG Version: 6.00 Build 0)  -->
<svg version="1.1" id="Capa_1" xmlns="http://www.w3.org/2000/svg" xmlns:xlink="http://www.w3.org/1999/xlink" x="0px" y="0px"
	 viewBox="0 0 593.282 593.282" style="enable-background:new 0 0 593.282 593.282;" xml:space="preserve">
<g>
	<g>
		<g id="filled_outline_32_">
			<path style="fill:#DD381A;" d="M170.43,212.585c-7.495,0-14.338,4.232-17.69,10.936l-24.196,48.392l-82.98,16.592
				c-9.245,1.849-15.9,9.967-15.9,19.4v17.403c-12.093,6.012-19.746,18.342-19.776,31.839v13.646h237.313V212.585H170.43z"/>
			<polygon style="fill:#4394CC;" points="207.649,291.689 168.097,291.689 177.985,252.137 207.649,252.137 			"/>
			<path style="fill:#C3C9D1;" d="M286.753,370.794h-39.552V173.033c0-21.843,17.709-39.552,39.552-39.552h29.664l-9.888,39.552
				h-19.776V370.794z"/>
			<polygon style="fill:#A4B0BF;" points="563.618,370.794 0,370.794 0,410.346 563.618,410.346 583.394,410.346 583.394,390.57 			
				"/>
			<path style="fill:#697B8C;" d="M444.467,410.346c-2.581-24.305-24.374-41.915-48.669-39.335
				c-20.745,2.205-37.13,18.59-39.335,39.335c-0.257,1.641-0.425,3.293-0.494,4.944c0,24.572,19.924,44.496,44.496,44.496
				c24.572,0,44.496-19.924,44.496-44.496C444.892,413.639,444.724,411.987,444.467,410.346z"/>
			<path style="fill:#697B8C;" d="M533.459,410.346c-2.581-24.305-24.374-41.915-48.669-39.335
				c-20.745,2.205-37.13,18.59-39.335,39.335c-0.257,1.641-0.425,3.293-0.494,4.944c0,24.572,19.924,44.496,44.496,44.496
				c24.572,0,44.496-19.924,44.496-44.496C533.885,413.639,533.716,411.987,533.459,410.346z"/>
			<path style="fill:#697B8C;" d="M128.05,410.346c-2.581-24.305-24.374-41.915-48.669-39.335
				c-20.745,2.205-37.13,18.59-39.335,39.335c-0.257,1.641-0.425,3.293-0.494,4.944c0,24.572,19.924,44.496,44.496,44.496
				s44.496-19.924,44.496-44.496C128.475,413.639,128.307,411.987,128.05,410.346z"/>
			<path style="fill:#D0D7DF;" d="M84.048,400.458c-8.187,0-14.832,6.645-14.832,14.832c0,8.187,6.645,14.832,14.832,14.832
				s14.832-6.645,14.832-14.832C98.88,407.103,92.236,400.458,84.048,400.458z"/>
			<path style="fill:#D0D7DF;" d="M400.465,400.458c-8.187,0-14.832,6.645-14.832,14.832c0,8.187,6.645,14.832,14.832,14.832
				c8.187,0,14.832-6.645,14.832-14.832C415.297,407.103,408.653,400.458,400.465,400.458z"/>
			<path style="fill:#D0D7DF;" d="M489.458,400.458c-8.187,0-14.832,6.645-14.832,14.832c0,8.187,6.645,14.832,14.832,14.832
				s14.832-6.645,14.832-14.832C504.29,407.103,497.645,400.458,489.458,400.458z"/>
			<rect x="247.201" y="370.794" style="fill:#D0D7DF;" width="108.768" height="59.328"/>
			<rect x="247.201" y="400.458" style="fill:#C3C9D1;" width="108.768" height="29.664"/>
			<rect x="168.097" y="370.794" style="fill:#D0D7DF;" width="79.104" height="79.104"/>
			<rect x="168.097" y="400.458" style="fill:#C3C9D1;" width="79.104" height="19.776"/>
			<rect x="247.201" y="370.794" style="fill:#A4B0BF;" width="19.776" height="59.328"/>
			<rect x="247.201" y="351.018" style="fill:#B7BDC4;" width="39.552" height="19.776"/>
			<polygon style="fill:#3E89BD;" points="168.858,291.689 207.649,291.689 207.649,252.137 202.329,252.137 			"/>
			<path d="M158.505,289.287c-1.325,5.3,1.889,10.669,7.189,11.994c0.781,0.198,1.592,0.297,2.403,0.297h39.552
				c5.458,0,9.888-4.43,9.888-9.888v-39.552c0-5.458-4.43-9.888-9.888-9.888h-29.664c-4.539,0-8.494,3.085-9.591,7.485
				L158.505,289.287z M185.707,262.025h12.054v19.776h-16.998L185.707,262.025z"/>
			<rect x="177.985" y="321.354" width="39.552" height="19.776"/>
			<path d="M84.048,400.458c-8.187,0-14.832,6.645-14.832,14.832c0,8.187,6.645,14.832,14.832,14.832s14.832-6.645,14.832-14.832
				C98.88,407.103,92.236,400.458,84.048,400.458z"/>
			<path d="M400.465,400.458c-8.187,0-14.832,6.645-14.832,14.832c0,8.187,6.645,14.832,14.832,14.832
				c8.187,0,14.832-6.645,14.832-14.832C415.297,407.103,408.653,400.458,400.465,400.458z"/>
			<path d="M570.609,363.803c-1.849-1.859-4.371-2.897-6.991-2.897H296.641V182.921h9.888c4.539,0,8.494-3.085,9.591-7.485
				l9.888-39.552c1.325-5.3-1.889-10.669-7.189-11.994c-0.781-0.198-1.592-0.297-2.403-0.297h-29.664
				c-27.291,0.03-49.411,22.149-49.44,49.44v29.664H170.43c-11.243-0.04-21.536,6.318-26.53,16.394l-22.04,44.071l-78.244,15.673
				c-13.843,2.798-23.81,14.951-23.84,29.071v11.678C7.396,328.087,0,342.138,0,357.158v53.188c0,5.458,4.43,9.888,9.888,9.888
				h20.023c2.858,29.901,29.417,51.823,59.318,48.956c25.936-2.482,46.474-23.019,48.956-48.956h20.023v29.664
				c0,5.458,4.43,9.888,9.888,9.888h79.104c5.458,0,9.888-4.43,9.888-9.888v-9.888h94.994
				c13.586,26.717,46.256,37.357,72.964,23.771c7.96-4.044,14.802-9.997,19.915-17.324c17.176,24.601,51.032,30.613,75.624,13.448
				c13.151-9.176,21.566-23.702,23.009-39.671h39.799c5.458,0,9.888-4.43,9.888-9.888V390.57c0-2.62-1.038-5.142-2.897-6.991
				L570.609,363.803z M41.886,381.245c-2.017,2.521-3.807,5.221-5.349,8.069c-0.129,0.237-0.316,0.445-0.435,0.682
				c-1.641,3.174-2.966,6.506-3.955,9.947c0,0.178-0.148,0.336-0.208,0.514H19.776v-19.776h22.475
				C42.113,380.86,42.024,381.067,41.886,381.245z M84.048,449.898c-19.114,0-34.608-15.495-34.608-34.608
				c0.03-0.712,0.099-1.434,0.218-2.136l0.227-1.711c1.978-18.866,18.886-32.561,37.753-30.574
				c16.137,1.691,28.883,14.446,30.574,30.574l0.227,1.711c0.119,0.702,0.188,1.424,0.218,2.136
				C118.656,434.403,103.162,449.898,84.048,449.898z M158.209,400.458h-22.05c-0.059-0.178-0.158-0.336-0.208-0.514
				c-0.989-3.441-2.314-6.773-3.955-9.947c-0.119-0.227-0.287-0.425-0.415-0.653c-1.543-2.858-3.342-5.567-5.369-8.098
				c-0.138-0.178-0.227-0.386-0.366-0.564h32.364V400.458z M237.313,430.122v9.888h-59.328v-19.776h59.328V430.122z
				 M237.313,400.458h-59.328v-19.776h59.328V400.458z M237.313,360.906H19.776v-3.777c0.02-14.288,11.599-25.867,25.887-25.887
				h40.996c9.819-0.04,18.797,5.508,23.148,14.308l17.7-8.84c-7.703-15.504-23.534-25.284-40.847-25.244H45.663
				c-2.047,0.069-4.094,0.277-6.111,0.613v-4.173c-0.01-4.707,3.303-8.761,7.91-9.7l83.059-16.602
				c2.996-0.593,5.557-2.541,6.922-5.27l24.196-48.392c1.661-3.332,5.063-5.448,8.79-5.468h66.883V360.906z M257.089,212.585
				v-39.552c0-16.384,13.28-29.664,29.664-29.664h16.997l-4.944,19.776h-12.053c-5.458,0-9.888,4.43-9.888,9.888v187.873h-19.776
				V212.585z M346.081,410.346v9.888h-88.992v-39.552h88.992V410.346z M400.465,449.898c-19.114,0-34.608-15.495-34.608-34.608
				c0.03-0.712,0.099-1.434,0.218-2.136l0.227-1.711c1.978-18.866,18.886-32.561,37.753-30.574
				c16.137,1.691,28.883,14.446,30.574,30.574l0.227,1.711c0.119,0.702,0.188,1.424,0.218,2.136
				C435.073,434.403,419.579,449.898,400.465,449.898z M447.018,381.542l-0.583,0.781c-0.494,0.643-0.989,1.276-1.473,1.978
				c-0.465-0.672-0.989-1.305-1.473-1.978l-0.583-0.781c-0.227-0.287-0.425-0.583-0.643-0.86h5.399
				C447.443,380.959,447.246,381.255,447.018,381.542z M489.458,449.898c-19.114,0-34.608-15.495-34.608-34.608
				c0.03-0.712,0.099-1.434,0.218-2.136l0.227-1.711c1.978-18.866,18.886-32.561,37.753-30.574
				c16.137,1.691,28.883,14.446,30.574,30.574l0.227,1.711c0.119,0.702,0.188,1.424,0.218,2.136
				C524.066,434.403,508.571,449.898,489.458,449.898z M573.506,400.458h-31.938c-0.059-0.178-0.158-0.336-0.208-0.514
				c-0.989-3.441-2.314-6.773-3.955-9.947c-0.119-0.227-0.287-0.425-0.415-0.653c-1.543-2.858-3.342-5.567-5.369-8.098
				c-0.138-0.178-0.227-0.386-0.366-0.564h28.27l13.982,13.982V400.458z"/>
			<path d="M489.458,400.458c-8.187,0-14.832,6.645-14.832,14.832c0,8.187,6.645,14.832,14.832,14.832s14.832-6.645,14.832-14.832
				C504.29,407.103,497.645,400.458,489.458,400.458z"/>
		</g>
	</g>
</g>
<g>
</g>
<g>
</g>
<g>
</g>
<g>
</g>
<g>
</g>
<g>
</g>
<g>
</g>
<g>
</g>
<g>
</g>
<g>
</g>
<g>
</g>
<g>
</g>
<g>
</g>
<g>
</g>
<g>
</g>
</svg>
