<?xml version="1.0" encoding="iso-8859-1"?>
<!-- Generator: Adobe Illustrator 21.0.0, SVG Export Plug-In . SVG Version: 6.00 Build 0)  -->
<svg version="1.1" id="Capa_1" xmlns="http://www.w3.org/2000/svg" xmlns:xlink="http://www.w3.org/1999/xlink" x="0px" y="0px"
	 viewBox="0 0 593.282 593.282" style="enable-background:new 0 0 593.282 593.282;" xml:space="preserve">
<g>
	<g>
		<g id="filled_outline_34_">
			<rect x="187.873" y="168.097" style="fill:#DD381A;" width="395.521" height="187.873"/>
			<polygon style="fill:#D03418;" points="358.441,355.97 583.394,355.97 583.394,168.097 546.314,168.097 			"/>
			<polygon style="fill:#C3C9D1;" points="148.321,355.97 148.321,395.522 563.618,395.522 583.394,375.746 583.394,355.97 			"/>
			<rect x="148.321" y="355.97" style="fill:#D0D7DF;" width="98.88" height="39.552"/>
			<path style="fill:#DD381A;" d="M69.216,247.201v59.328H10.877c-0.633,1.938-0.969,3.955-0.989,5.992v83h138.432v-148.32H69.216z"
				/>
			<path style="fill:#69CCD7;" d="M68.227,247.201h-9.196c-6.615,0-12.785,3.303-16.454,8.81l-30.336,45.574
				c-1.009,1.533-1.8,3.194-2.353,4.944h97.892v-59.328H68.227z"/>
			<rect x="9.888" y="336.194" style="fill:#C3C9D1;" width="29.664" height="19.776"/>
			<circle style="fill:#697B8C;" cx="88.992" cy="395.522" r="29.664"/>
			<rect x="247.201" y="355.97" style="fill:#B7BDC4;" width="336.193" height="19.776"/>
			<circle style="fill:#697B8C;" cx="454.85" cy="395.522" r="29.664"/>
			<polygon style="fill:#61BDC7;" points="39.552,306.53 68.247,306.53 107.799,306.53 107.799,247.201 98.88,247.201 			"/>
			<path style="fill:#C3C9D1;" d="M88.992,385.634L88.992,385.634c5.458,0,9.888,4.43,9.888,9.888l0,0
				c0,5.458-4.43,9.888-9.888,9.888l0,0c-5.458,0-9.888-4.43-9.888-9.888l0,0C79.104,390.064,83.534,385.634,88.992,385.634z"/>
			<path style="fill:#C3C9D1;" d="M454.85,385.634L454.85,385.634c5.458,0,9.888,4.43,9.888,9.888l0,0
				c0,5.458-4.43,9.888-9.888,9.888l0,0c-5.458,0-9.888-4.43-9.888-9.888l0,0C444.961,390.064,449.391,385.634,454.85,385.634z"/>
			<path d="M583.394,158.209H187.873c-5.458,0-9.888,4.43-9.888,9.888v177.985h-19.776v-98.88c0-5.458-4.43-9.888-9.888-9.888h-88.3
				c-9.928-0.01-19.212,4.944-24.72,13.21L4.944,296.068C1.711,300.923-0.01,306.629,0,312.462v83.059
				c0,5.458,4.43,9.888,9.888,9.888h40.956c5.359,21.071,26.787,33.797,47.858,28.438c13.972-3.56,24.878-14.466,28.438-28.438
				h289.561c5.359,21.071,26.787,33.797,47.858,28.438c13.972-3.56,24.878-14.466,28.438-28.438h70.62
				c2.62,0,5.142-1.038,6.991-2.897l19.776-19.776c1.859-1.849,2.897-4.371,2.897-6.991V168.097
				C593.282,162.639,588.852,158.209,583.394,158.209z M79.104,257.089H98.88v39.552H79.104V257.089z M51.794,261.49
				c1.711-2.521,4.489-4.113,7.535-4.311v39.463H28.359L51.794,261.49z M88.992,415.298c-10.926,0-19.776-8.85-19.776-19.776
				s8.85-19.776,19.776-19.776s19.776,8.85,19.776,19.776S99.919,415.298,88.992,415.298z M138.432,355.97v29.664h-11.144
				c-0.376-1.345-0.84-2.66-1.365-3.955c-0.237-0.633-0.396-1.285-0.662-1.898c-0.939-2.165-2.067-4.242-3.372-6.21
				c-0.297-0.445-0.662-0.811-0.989-1.236c-1.058-1.493-2.235-2.917-3.5-4.242c-0.583-0.603-1.216-1.127-1.829-1.691
				c-1.117-1.058-2.304-2.047-3.54-2.966c-0.742-0.534-1.493-0.989-2.264-1.503c-1.276-0.791-2.601-1.503-3.955-2.146
				c-0.811-0.386-1.622-0.771-2.462-1.107c-1.523-0.583-3.085-1.068-4.677-1.454c-0.761-0.198-1.503-0.445-2.284-0.593
				c-4.895-0.999-9.937-0.999-14.832,0c-0.781,0.148-1.523,0.396-2.284,0.593c-1.592,0.386-3.154,0.87-4.677,1.454
				c-0.84,0.336-1.651,0.722-2.462,1.107c-1.355,0.643-2.68,1.355-3.955,2.146c-0.771,0.484-1.523,0.989-2.264,1.503
				c-1.236,0.92-2.423,1.908-3.54,2.966c-0.613,0.564-1.246,1.088-1.829,1.691c-1.266,1.325-2.442,2.749-3.5,4.242
				c-0.307,0.425-0.672,0.791-0.989,1.236c-1.305,1.968-2.432,4.044-3.372,6.21c-0.267,0.613-0.425,1.266-0.663,1.898
				c-0.524,1.295-0.989,2.61-1.365,3.955h-30.88V355.97h19.776v-19.776H19.776v-19.776h88.992c5.458,0,9.888-4.43,9.888-9.888
				v-49.44h19.776V355.97z M197.761,385.634h-39.552v-19.776h39.552V385.634z M237.313,385.634h-19.776v-19.776h19.776V385.634z
				 M427.687,366.916c-0.554,0.524-1.078,1.068-1.602,1.632c-1.127,1.206-2.175,2.472-3.144,3.807
				c-0.396,0.554-0.821,1.078-1.196,1.651c-1.276,1.928-2.383,3.955-3.303,6.071c-0.069,0.168-0.109,0.356-0.178,0.524
				c-0.682,1.641-1.256,3.322-1.711,5.033H257.089v-19.776h171.627C428.35,366.184,428.043,366.58,427.687,366.916z M454.85,415.298
				c-10.926,0-19.776-8.85-19.776-19.776s8.85-19.776,19.776-19.776c10.926,0,19.776,8.85,19.776,19.776
				S465.776,415.298,454.85,415.298z M573.506,371.652l-13.982,13.982h-66.378c-0.455-1.711-1.028-3.392-1.711-5.033
				c-0.069-0.168-0.109-0.356-0.178-0.524c-0.92-2.116-2.027-4.143-3.303-6.071c-0.376-0.573-0.801-1.098-1.196-1.651
				c-0.969-1.335-2.017-2.601-3.144-3.807c-0.524-0.564-1.048-1.107-1.602-1.632c-0.356-0.336-0.663-0.732-0.989-1.058h92.483
				V371.652z M573.506,346.082H197.761V177.985h375.745V346.082z"/>
			<rect x="533.954" y="197.761" width="19.776" height="128.544"/>
			<rect x="494.402" y="197.761" width="19.776" height="128.544"/>
			<rect x="454.85" y="197.761" width="19.776" height="128.544"/>
			<rect x="415.297" y="197.761" width="19.776" height="128.544"/>
			<rect x="375.745" y="197.761" width="19.776" height="128.544"/>
			<rect x="336.193" y="197.761" width="19.776" height="128.544"/>
			<rect x="296.641" y="197.761" width="19.776" height="128.544"/>
			<rect x="257.089" y="197.761" width="19.776" height="128.544"/>
			<rect x="217.537" y="197.761" width="19.776" height="128.544"/>
		</g>
	</g>
</g>
<g>
</g>
<g>
</g>
<g>
</g>
<g>
</g>
<g>
</g>
<g>
</g>
<g>
</g>
<g>
</g>
<g>
</g>
<g>
</g>
<g>
</g>
<g>
</g>
<g>
</g>
<g>
</g>
<g>
</g>
</svg>
