<svg id="Layer_3" height="512" viewBox="0 0 64 64" width="512" xmlns="http://www.w3.org/2000/svg" data-name="Layer 3"><path d="m2 41v-23a3 3 0 0 1 3-3h30a3 3 0 0 1 3 3v23" fill="#fdb716"/><path d="m38 18a3 3 0 0 0 -3-3h-30a2.983 2.983 0 0 0 -.86.14 2.983 2.983 0 0 0 -.14.86 23 23 0 0 0 23 23h11z" fill="#ffc767"/><path d="m2 19h36v18h-36z" fill="#a3b8db"/><path d="m17.621 37h20.379v-18h-33.8a23.014 23.014 0 0 0 13.421 18z" fill="#c0cee8"/><path d="m60 41v-4a2.689 2.689 0 0 0 -1.916-2.575l-8.084-2.425-.628-5.023a3.4 3.4 0 0 0 -3.372-2.977h-8v21h10z" fill="#f89b1c"/><path d="m60 37a2.689 2.689 0 0 0 -1.916-2.575l-8.084-2.425-.628-5.023a3.4 3.4 0 0 0 -3.372-2.977h-6v9a10 10 0 0 0 10 10h4l6-2z" fill="#fdb716"/><path d="m56 45h3a2 2 0 0 0 2-2v-2h-9z" fill="#383838"/><path d="m41 35h4v2h-4z" fill="#4c4c4c"/><path d="m55 41v-2a2 2 0 0 1 2-2h3v4z" fill="#86ddfa"/><path d="m3 45a2 2 0 0 1 -2-2v-2h43v4z" fill="#383838"/><path d="m5 43h39v-2h-41a2 2 0 0 0 2 2z" fill="#4c4c4c"/><path d="m38 41h6v4h-6z" fill="#a3b8db"/><circle cx="17" cy="45" fill="#383838" r="4"/><path d="m17 41a3.977 3.977 0 0 0 -2.281.719 3.994 3.994 0 0 0 5.562 5.561 3.994 3.994 0 0 0 -3.281-6.28z" fill="#4c4c4c"/><circle cx="52" cy="45" fill="#383838" r="4"/><path d="m52 41a3.977 3.977 0 0 0 -2.281.719 3.994 3.994 0 0 0 5.562 5.561 3.994 3.994 0 0 0 -3.281-6.28z" fill="#4c4c4c"/><path d="m50 32-.628-5.023a3.4 3.4 0 0 0 -3.372-2.977h-4v8z" fill="#62c1ea"/><path d="m48.372 27.977a3.4 3.4 0 0 0 -3.372-2.977h-3v7h6.875z" fill="#86ddfa"/><path d="m38 41h6v2h-6z" fill="#c0cee8"/><path d="m42 35h4v2h-4z"/><path d="m62 40v-3a3.667 3.667 0 0 0 -2.629-3.533l-7.46-2.238-.547-4.376a4.4 4.4 0 0 0 -4.364-3.853h-7v-5a4 4 0 0 0 -4-4h-30a4 4 0 0 0 -4 4v22a1 1 0 0 0 -1 1v2a3 3 0 0 0 3 3h9.1a5 5 0 0 0 9.8 0h25.2a5 5 0 0 0 9.8 0h2.1a3 3 0 0 0 3-3v-2a1 1 0 0 0 -1-1zm-5 0v-1a1 1 0 0 1 1-1h2v2zm-7.62-12.9.487 3.9h-5.867v-6h3a2.4 2.4 0 0 1 2.38 2.1zm-11.38 8.9h-34v-16h34zm-32-20h30a2 2 0 0 1 2 2h-34a2 2 0 0 1 2-2zm-2 22h34v2h-34zm40 6h-4v-2h4zm-6 0h-15.1a4.954 4.954 0 0 0 -.925-2h16.025zm-35-1v-1h11.026a4.954 4.954 0 0 0 -.925 2h-9.101a1 1 0 0 1 -1-1zm15 5a3 3 0 1 1 3-3 3 3 0 0 1 -3 3zm30.1-4h-2.1v-3a1 1 0 0 0 -1-1h-5v-15h2v7a1 1 0 0 0 1 1h7.853l7.947 2.383a1.685 1.685 0 0 1 .876.617h-1.676a3 3 0 0 0 -3 3v1h-2a5.009 5.009 0 0 0 -4.9 4zm4.9 4a3 3 0 1 1 3-3 3 3 0 0 1 -3 3zm8-5a1 1 0 0 1 -1 1h-2.1a4.954 4.954 0 0 0 -.925-2h4.025z"/></svg>