<svg id="Layer_3" height="512" viewBox="0 0 64 64" width="512" xmlns="http://www.w3.org/2000/svg" data-name="Layer 3"><rect fill="#f5b95b" height="40.071" rx="2" width="56" x="2" y="13.929"/><path d="m4 13.929h51v-1.929a2.062 2.062 0 0 0 -2.12-2h-48.76a2.062 2.062 0 0 0 -2.12 2v3.929a2 2 0 0 1 2-2z" fill="#976949"/><path d="m55 13.929v-1.929a2.062 2.062 0 0 0 -2.12-2h-47.88v2.107c0 .611.018 1.218.046 1.822z" fill="#c18e5c"/><path d="m56 13.929h-50.954a39.891 39.891 0 0 0 39.847 38.071h13.107v-36.071a2 2 0 0 0 -2-2z" fill="#f9d18f"/><path d="m51 29h11a0 0 0 0 1 0 0v10a0 0 0 0 1 0 0h-11a5 5 0 0 1 -5-5 5 5 0 0 1 5-5z" fill="#976949"/><circle cx="52" cy="34" fill="#c18e5c" r="2"/><path d="m62 28h-3v-12a3 3 0 0 0 -3-3v-1a3.065 3.065 0 0 0 -3.12-3h-48.76a3.065 3.065 0 0 0 -3.12 3v40a3 3 0 0 0 3 3h52a3 3 0 0 0 3-3v-12h3a1 1 0 0 0 1-1v-10a1 1 0 0 0 -1-1zm-59-16a1.067 1.067 0 0 1 1.12-1h48.76a1.067 1.067 0 0 1 1.12 1v1h-50a2.966 2.966 0 0 0 -1 .184zm0 4a1 1 0 0 1 1-1h52a1 1 0 0 1 1 1v3h-54zm54 36a1 1 0 0 1 -1 1h-52a1 1 0 0 1 -1-1v-3h54zm0-9h-2v2h2v2h-54v-2h2v-2h-2v-18h2v-2h-2v-2h54v2h-2v2h2v3h-6a6 6 0 0 0 0 12h6zm4-5h-10a4 4 0 0 1 0-8h10z"/><path d="m49 34a3 3 0 1 0 3-3 3 3 0 0 0 -3 3zm3-1a1 1 0 1 1 -1 1 1 1 0 0 1 1-1z"/><path d="m7 23h4v2h-4z"/><path d="m13 23h4v2h-4z"/><path d="m19 23h4v2h-4z"/><path d="m25 23h4v2h-4z"/><path d="m31 23h4v2h-4z"/><path d="m37 23h4v2h-4z"/><path d="m43 23h4v2h-4z"/><path d="m49 23h4v2h-4z"/><path d="m7 43h4v2h-4z"/><path d="m13 43h4v2h-4z"/><path d="m19 43h4v2h-4z"/><path d="m25 43h4v2h-4z"/><path d="m31 43h4v2h-4z"/><path d="m37 43h4v2h-4z"/><path d="m43 43h4v2h-4z"/><path d="m49 43h4v2h-4z"/></svg>