<svg height="512" viewBox="0 0 62 60" width="512" xmlns="http://www.w3.org/2000/svg"><g id="024---Wasp" fill="none"><g id="Icons" transform="translate(1 1)"><path id="Shape" d="m34 14h-8c-3-1-4.83-4.77-3.6-8.27h15.2c1.247303 3.27693675-.3516395 6.9500631-3.6 8.27z" fill="#3f51b5"/><path id="Shape" d="m26 8c-2.0154822-.01117319-3.7078299-1.52014788-3.94907-3.52117176-.2412402-2.00102388 1.0439912-3.86897067 2.99907-4.35882824.8757165 1.8470338 2.7785298 2.98398454 4.82 2.88.3091571 1.19735882.0471196 2.4703892-.7097919 3.44831107s-1.9235815 1.5507667-3.1602081 1.55168893z" fill="#f5f5f5"/><path id="Shape" d="m38 4c.0044343 1.55292091-.8903481 2.96806668-2.2951683 3.62993026-1.4048201.66186357-3.0657633.45081616-4.2604146-.54134875-1.1946513-.9921649-1.7070832-2.58611807-1.3144171-4.08858151 2.0571819.11648877 3.9809627-1.02118857 4.87-2.88 1.7686061.45664913 3.0032034 2.05339506 3 3.88z" fill="#f5f5f5"/><path id="Shape" d="m30 55c-7.42 0-13.12-20.78-8.08-29.45h16.16c5.09 8.74-.72 29.45-8.08 29.45z" fill="#fec108"/><path id="Shape" d="m28.5 54.72c-3.4-1.27-5.71-6.4-6.81-9.87-1.74-5.8-2.81-14.06.23-19.3h13.16c4.75 8.16-.02 26.72-6.58 29.17z" fill="#ffdc00"/><path id="Shape" d="m39.83 37.52c-.9594529.7251699-2.0441923 1.2675396-3.2 1.6.2063263-1.3646127.3298855-2.7404605.37-4.12 1.0206393-.3355571 1.9749366-.8465462 2.82-1.51.0615338-.0479134.1184486-.1014803.17-.16.0390509 1.3986664-.014399 2.7983847-.16 4.19z" fill="#283593"/><path id="Shape" d="m37 35c-.0363989 1.3826784-.1566195 2.7618768-.36 4.13-4.44 1.4-12.73 1.34-16.45-1.59-.1676012-1.4000328-.2311088-2.8105703-.19-4.22.0515514.0585197.1084662.1120866.17.16 3.83 3.05 12.39 3.07 16.83 1.52z" fill="#3f51b5"/><path id="Shape" d="m38.61 43.84c-.4906919 1.828158-1.1606051 3.603428-2 5.3-1.0925668.3324247-2.2142903.5601178-3.35.68.7616082-1.4100412 1.3941827-2.8860484 1.89-4.41 1.24172-.3013293 2.4155349-.8339563 3.46-1.57z" fill="#283593"/><path id="Shape" d="m35.12 45.41c-.4958173 1.5239516-1.1283918 2.9999588-1.89 4.41-3.2833875.4031174-6.6136325.1722747-9.81-.68-.8345169-1.6986889-1.5042477-3.4734754-2-5.3 3.3 2.47 9.86 2.57 13.7 1.57z" fill="#3f51b5"/><path id="Shape" d="m39 18v4.76c-.4 4.5-4.46 6.24-9 6.24s-8.6-1.74-9-6.24v-4.76l3.36-4.24c3.43-3.68 7.81-3.67 11.24 0z" fill="#ff9801"/><path id="Shape" d="m27 14.31-.7 2.78c-.1782077.7105888-.7306614 1.2668791-1.44 1.45-5.78 1.56-5.44 7.77-14.86 7.77-10 0-9-10-9-10 7.42-4.03 18.05-3.99 26-2z" fill="#02a9f4"/><path id="Shape" d="m50 26.31c-9.43 0-9.07-6.21-14.86-7.77-.7093386-.1831209-1.2617923-.7394112-1.44-1.45l-.7-2.78c8-2 18.63-2 26 2 0 0 1 10-9 10z" fill="#0377bc"/><path id="Shape" d="m48.35 26.24c-7.74-.69-7.79-6.24-13.21-7.7-.7093386-.1831209-1.2617923-.7394112-1.44-1.45l-.7-2.78c3.1470871-.7621944 6.3637605-1.2011363 9.6-1.31 4.6610684.0450196 9.2480827 1.1712344 13.4 3.29 0 0 .91 9.09-7.65 9.95z" fill="#02a9f4"/></g><g id="Layer_10" fill="#000"><path id="Shape" d="m60.48 16.43c-7.62-4.16-16.93-3.71-22.32-2.94 1.7366901-1.7686876 2.3182425-4.37016503 1.5-6.71.5082177-1.33856083.4182064-2.8307717-.247227-4.09853697-.6654333-1.26776527-1.8424336-2.18942992-3.232773-2.53146303-.4830128-.12877304-.9869198.11891004-1.18.58-.705637 1.48056836-2.2435927 2.38035176-3.88 2.27h-.12-.12c-1.6364073.11035176-3.174363-.78943164-3.88-2.27-.1930802-.46108996-.6969872-.70877304-1.18-.58-1.3903394.34203311-2.5673397 1.26369776-3.232773 2.53146303-.6654334 1.26776527-.7554447 2.75997614-.247227 4.09853697-.8207058 2.33969076-.2388576 4.9424918 1.5 6.71-5.39-.77-14.7-1.22-22.32 2.94-.29201319.1576183-.48681899.449827-.52.78 0 .2-.45 4.93 2.49 8.19 1.75 1.93 4.28 2.91 7.51 2.91 5.63 0 8.08-2.13 10.09-4.18.0929111.840824.3296934 1.6594144.7 2.42-1.2685045 2.7095759-1.8816927 5.6795991-1.79 8.67 0 1.35.12 3 .18 3.42 1 8.55 4.79 17.22 9.82 18.25v2.11c0 .5522847.4477153 1 1 1s1-.4477153 1-1v-2.11c5-1 8.82-9.7 9.82-18.25.1453871-1.4753033.2054871-2.9577694.18-4.44-.0198436-2.6491834-.6242219-5.2613269-1.77-7.65.3703066-.7605856.6070889-1.579176.7-2.42 2 2.05 4.46 4.18 10.09 4.18 3.23 0 5.76-1 7.51-2.91 2.94-3.26 2.51-8 2.49-8.19-.0373682-.3342693-.2402776-.6273605-.54-.78zm-34.54-3.53c-.052674-.1903642-.1605426-.3608662-.31-.49-1.0568321-.8110475-1.662549-2.078222-1.63-3.41 1.0540354.81433721 2.3927282 1.1675254 3.7113081.97915684s2.5048323-.9022632 3.2886919-1.97915684c.7855882 1.07456199 1.9715811 1.78662069 3.2893047 1.97486693 1.3177237.18824627 2.6556533-.16325212 3.7106953-.97486693.0357305 1.3380592-.5699837 2.6126601-1.63 3.43-.1494574.1291338-.257326.2996358-.31.49-2.8930634-2.5381002-7.2169272-2.5466454-10.12-.02zm6.06-8c1.7784093-.16799128 3.3921057-1.11205859 4.41-2.58 1.3006247.69270409 1.9055887 2.22745611 1.4274384 3.62131254-.4781503 1.39385644-1.8978268 2.23407311-3.3497868 1.98252692-1.4519601-.2515462-2.5062542-1.52036823-2.4876516-2.99383946zm-6.41-2.55c1.0178943 1.46794141 2.6315907 2.41200872 4.41 2.58.0332846 1.47689121-1.0135506 2.75819931-2.4674194 3.02007873-1.4538689.26187941-2.8819965-.57362383-3.3661365-1.96930432-.4841399-1.39568049.1198224-2.93608426 1.4235559-3.63077441zm13.27 26.05c.6812163 1.7403967 1.0665324 3.5824779 1.14 5.45-4 2.88-14 2.89-18 0 .0606807-1.8652391.4324619-3.7072459 1.1-5.45 1.77 1.69 4.47 2.6 7.9 2.6s6.13-.91 7.86-2.6zm-2 20.89c-3.8556947.9498617-7.8843053.9498617-11.74 0-.36-.75-.71-1.56-1-2.41 4.4708588 1.5000885 9.3091412 1.5000885 13.78 0-.32.85-.67 1.66-1.03 2.41zm1.88-5.08c-3.58 2.4-11.92 2.41-15.5 0-.347205-1.242834-.6210111-2.5050133-.82-3.78 4.45 2.09 12.64 2.11 17.14 0-.1956991 1.2747831-.4661656 2.5369601-.81 3.78zm1.14-6.21c-3.88 2.7-13.83 2.7-17.76 0-.05-.59-.09-1.19-.1-1.78 4.58 2.44 13.38 2.44 18 0-.02.55-.09 1.15-.14 1.78zm-13.41 13.63c3.0001194.490059 6.0598806.490059 9.06 0-3 4.47-6.06 4.48-9.06 0zm30.53-27.56c-1.5842392 1.5756568-3.7707817 2.391966-6 2.24-9.62 0-8.24-6.91-15.86-8-.3572656-.0500172-.7140765.0943639-.9360254.3787564-.221949.2843925-.2753167.6655904-.14 1 .1353166.3344097.4387598.5712264.7960254.6212436 1.2758574.1579355 2.4870177.6513712 3.51 1.43l.63 2.11c-.1001249 1.0987659-.5566362 2.1346954-1.3 2.95-2.73 2.95-10.56 3-13.3 0-.7433638-.8153046-1.1998751-1.8512341-1.3-2.95l.58-2.12c1.0229823-.7786288 2.2341426-1.2720645 3.51-1.43.5522847-.0773199.9373199-.5877153.86-1.14s-.5877153-.9373199-1.14-.86c-7.57 1.08-6.27 8-15.86 8-2.22921832.151966-4.41576084-.6643432-6-2.24-1.37539816-1.7476855-2.08431681-3.9276104-2-6.15 10.47-5.35 24.63-1.69 24.77-1.65.3493947.1071109.7293926.0151006.9910893-.2399762.2616968-.2550768.363411-.6325931.2652854-.9846169s-.3804623-.6224869-.7363747-.7054069l-.7-.17c2.0202746-1.560961 4.8397254-1.560961 6.86 0l-.68.17c-.3559124.08292-.6382491.3533831-.7363747.7054069s.0035886.7295401.2652854.9846169c.2616967.2550768.6416946.3470871.9910893.2399762.14 0 14.3-3.7 24.77 1.65.0556673 2.239547-.6928957 4.4249251-2.11 6.16z"/><circle id="Oval" cx="27" cy="5" r="1"/><circle id="Oval" cx="35" cy="5" r="1"/></g></g></svg>