<svg id="svg8" height="512" viewBox="0 0 111 111" width="512" xmlns="http://www.w3.org/2000/svg" xmlns:svg="http://www.w3.org/2000/svg"><g id="layer1"><g id="g1313" transform="translate(-113.949 5.254)"><path id="path1274" d="m174.17383-5.2050781c-1.11549-.1348847-2.31779.00812-3.46875.4667969-1.3401.5340517-2.4285 1.4903858-3.29688 2.6933593-.33159-.5722701-.80838-1.1862792-1.06836-1.6777343a2.48441 2.48441 0 0 0 -3.35937-1.0332032 2.48441 2.48441 0 0 0 -1.0332 3.3574219c.75318 1.42380642 1.93927 3.487964 3.46679 5.4042969-.34569 3.5905934.22429 7.8999296 2.16406 13.0976566a2.48441 2.48441 0 0 0 3.19727 1.458984 2.48441 2.48441 0 0 0 1.45899-3.195312c-1.04237-2.793068-1.55967-5.151048-1.81446-7.2207036.65417.2703952 1.35332.4687202 2.10352.5703125 2.37483.3216003 4.65653-.7389936 5.83594-2.3632813 1.1794-1.6242876 1.5004-3.552186 1.30273-5.38085935-.19767-1.8286734-.9355-3.68463635-2.54102-4.98242185-.80275-.6488928-1.83178-1.0604278-2.94726-1.1953125zm-.60938 4.83203122c.19831.0195984.29888.11961875.4336.22851563.26943.21779375.63959.86583266.72461 1.65234375.085.7865111-.13666 1.5867734-.38282 1.9257813-.24615.3390078-.27347.4778625-1.14843.359375-.72876-.098688-1.56658-.6461841-2.41211-1.3691407.47109-1.3870602 1.10428-2.28331979 1.76562-2.54687498.52466-.20908295.82122-.26959841 1.01953-.25z" fill="#1a1c20" font-variant-ligatures="normal" font-variant-position="normal" font-variant-caps="normal" font-variant-numeric="normal" font-variant-alternates="normal" font-variant-east-asian="normal" font-feature-settings="normal" font-variation-settings="normal" text-indent="0" text-align="start" text-decoration-line="none" text-decoration-style="solid" text-decoration-color="#000000" text-transform="none" text-orientation="mixed" white-space="normal" shape-padding="0" shape-margin="0" inline-size="0" isolation="auto" mix-blend-mode="normal" solid-color="#000000" solid-opacity="1" vector-effect="none"/><path id="path871-8" d="m169.44887 12.216953c-64.929.000003-55.47572 91.045317 0 91.045307 55.47575.00001 64.92903-91.045303 0-91.045307z" fill="#61b15a"/><g fill="#4b9145"><path id="path1278" d="m169.44922 9.7324219a2.48441 2.48441 0 0 0 -2.48438 2.4843751 2.48441 2.48441 0 0 0 2.48438 2.484375c1.0731 0 2.21389.665 3.58398 2.751953 1.3701 2.086953 2.67764 5.397806 3.7168 9.462891 2.07831 8.130169 3.16613 19.262545 3.16992 30.371093.004 11.108549-1.07613 22.239938-3.15234 30.369141-1.03811 4.064602-2.3469 7.374719-3.71875 9.460938-1.37185 2.086218-2.51497 2.753906-3.59961 2.753906a2.48441 2.48441 0 0 0 -2.48438 2.484376 2.48441 2.48441 0 0 0 2.48438 2.48437c3.24149 0 5.88233-2.14898 7.75195-4.992184 1.86963-2.843203 3.26071-6.577055 4.38086-10.96289 2.2403-8.771671 3.31054-20.173659 3.30664-31.59961-.004-11.425951-1.08217-22.828904-3.32422-31.599609-1.12102-4.385352-2.51281-8.116516-4.3789-10.958985-1.86609-2.842468-4.49868-4.9941401-7.73633-4.9941401z" font-variant-ligatures="normal" font-variant-position="normal" font-variant-caps="normal" font-variant-numeric="normal" font-variant-alternates="normal" font-variant-east-asian="normal" font-feature-settings="normal" font-variation-settings="normal" text-indent="0" text-align="start" text-decoration-line="none" text-decoration-style="solid" text-decoration-color="#000000" text-transform="none" text-orientation="mixed" white-space="normal" shape-padding="0" shape-margin="0" inline-size="0" isolation="auto" mix-blend-mode="normal" solid-color="#000000" solid-opacity="1" vector-effect="none"/><path id="path1282" d="m169.44922 9.7324219a2.48441 2.48441 0 0 0 -2.48438 2.4843751 2.48441 2.48441 0 0 0 2.48438 2.484375c8.73402 0 15.60718 4.966665 20.68164 12.933594 5.07446 7.966928 8.07555 18.86576 8.48828 29.746093.41273 10.880334-1.76757 21.712925-6.58789 29.59375-4.82032 7.880826-11.99414 12.896485-22.58203 12.896485a2.48441 2.48441 0 0 0 -2.48438 2.484376 2.48441 2.48441 0 0 0 2.48438 2.48437c12.22402 0 21.30319-6.253385 26.82031-15.273434 5.51712-9.020048 7.75654-20.720834 7.31445-32.375-.44208-11.654166-3.57133-23.290664-9.26171-32.224609-5.69039-8.933946-14.21442-15.2343751-24.87305-15.2343751z" font-variant-ligatures="normal" font-variant-position="normal" font-variant-caps="normal" font-variant-numeric="normal" font-variant-alternates="normal" font-variant-east-asian="normal" font-feature-settings="normal" font-variation-settings="normal" text-indent="0" text-align="start" text-decoration-line="none" text-decoration-style="solid" text-decoration-color="#000000" text-transform="none" text-orientation="mixed" white-space="normal" shape-padding="0" shape-margin="0" inline-size="0" isolation="auto" mix-blend-mode="normal" solid-color="#000000" solid-opacity="1" vector-effect="none"/><path id="path1286" d="m169.44922 9.7324219c-3.17871 0-5.69309 2.2005041-7.47461 5.0351561s-3.12231 6.554124-4.2168 10.931641c-2.18897 8.755033-3.30122 20.150964-3.36914 31.572265-.0679 11.421301.90604 22.821837 3.06445 31.59375 1.07921 4.385957 2.43213 8.118595 4.2754 10.966797 1.84326 2.848199 4.47921 5.007809 7.7207 5.007809a2.48441 2.48441 0 0 0 2.48437-2.48437 2.48441 2.48441 0 0 0 -2.48437-2.484376c-1.08464 0-2.20193-.657062-3.54883-2.738282-1.3469-2.081219-2.62294-5.390597-3.62305-9.455078-2.00021-8.128961-2.986-19.263754-2.91992-30.376953.0661-11.113198 1.18405-22.250643 3.2207-30.396484 1.01833-4.07292 2.287-7.397418 3.60352-9.492188 1.31652-2.094769 2.38816-2.710937 3.26758-2.710937a2.48441 2.48441 0 0 0 2.48437-2.484375 2.48441 2.48441 0 0 0 -2.48437-2.4843751z" font-variant-ligatures="normal" font-variant-position="normal" font-variant-caps="normal" font-variant-numeric="normal" font-variant-alternates="normal" font-variant-east-asian="normal" font-feature-settings="normal" font-variation-settings="normal" text-indent="0" text-align="start" text-decoration-line="none" text-decoration-style="solid" text-decoration-color="#000000" text-transform="none" text-orientation="mixed" white-space="normal" shape-padding="0" shape-margin="0" inline-size="0" isolation="auto" mix-blend-mode="normal" solid-color="#000000" solid-opacity="1" vector-effect="none"/><path id="path1290" d="m169.44922 9.7324219c-10.65864 0-19.18461 6.3004291-24.875 15.2343751-5.69039 8.933945-8.81964 20.570443-9.26172 32.224609s1.79733 23.354952 7.31445 32.375c5.51713 9.020049 14.59825 15.273434 26.82227 15.273434a2.48441 2.48441 0 0 0 2.48437-2.48437 2.48441 2.48441 0 0 0 -2.48437-2.484376c-10.58789 0-17.76172-5.015659-22.58203-12.896485-4.82032-7.880825-7.00257-18.713416-6.58985-29.59375.41273-10.880333 3.41383-21.779165 8.48828-29.746093 5.07446-7.966929 11.94957-12.933594 20.6836-12.933594a2.48441 2.48441 0 0 0 2.48437-2.484375 2.48441 2.48441 0 0 0 -2.48437-2.4843751z" font-variant-ligatures="normal" font-variant-position="normal" font-variant-caps="normal" font-variant-numeric="normal" font-variant-alternates="normal" font-variant-east-asian="normal" font-feature-settings="normal" font-variation-settings="normal" text-indent="0" text-align="start" text-decoration-line="none" text-decoration-style="solid" text-decoration-color="#000000" text-transform="none" text-orientation="mixed" white-space="normal" shape-padding="0" shape-margin="0" inline-size="0" isolation="auto" mix-blend-mode="normal" solid-color="#000000" solid-opacity="1" vector-effect="none"/></g><path id="path1294" d="m208.18164 47.283203a4.9689999 4.9689999 0 0 0 -.67969.05664 4.9689999 4.9689999 0 0 0 -4.1582 5.664062c2.72893 17.810737-8.77334 38.003705-26.91797 41.603516a4.9689999 4.9689999 0 0 0 -3.9082 5.841799 4.9689999 4.9689999 0 0 0 5.8418 3.90625c24.09826-4.780986 38.3216-29.914579 34.80664-52.85547a4.9689999 4.9689999 0 0 0 -4.98438-4.216797z" fill="#396e35" font-variant-ligatures="normal" font-variant-position="normal" font-variant-caps="normal" font-variant-numeric="normal" font-variant-alternates="normal" font-variant-east-asian="normal" font-feature-settings="normal" font-variation-settings="normal" text-indent="0" text-align="start" text-decoration-line="none" text-decoration-style="solid" text-decoration-color="#000000" text-transform="none" text-orientation="mixed" white-space="normal" shape-padding="0" shape-margin="0" inline-size="0" isolation="auto" mix-blend-mode="normal" solid-color="#000000" solid-opacity="1" vector-effect="none"/><path id="path1298" d="m169.44922 9.7324219c-16.81287.0000008-29.2106 5.9903861-37.07227 15.0859371-7.86166 9.095552-11.17969 21.124731-10.56054 33.050782.61914 11.92605 5.15533 23.823562 13.25 32.828125s19.83432 15.048834 34.38281 15.048824c14.54849.00001 26.28618-6.044261 34.38086-15.048824 8.09467-9.004563 12.63281-20.902075 13.25195-32.828125.61915-11.926051-2.69888-23.95523-10.56055-33.050782-7.86166-9.095551-20.25939-15.0859361-37.07226-15.0859371zm0 4.9687501c15.65164.000001 26.41899 5.391742 33.3125 13.367187 6.89351 7.975446 9.91994 18.707692 9.35742 29.542969s-4.73304 21.697241-11.98437 29.763672c-7.25134 8.066431-17.49617 13.40235-30.68555 13.40234-13.18938.00001-23.43617-5.335909-30.6875-13.40234-7.25134-8.066431-11.42186-18.928395-11.98438-29.763672-.56251-10.835277 2.46391-21.567523 9.35743-29.542969 6.89351-7.975445 17.66282-13.367186 33.31445-13.367187z" fill="#1a1c20" font-variant-ligatures="normal" font-variant-position="normal" font-variant-caps="normal" font-variant-numeric="normal" font-variant-alternates="normal" font-variant-east-asian="normal" font-feature-settings="normal" font-variation-settings="normal" text-indent="0" text-align="start" text-decoration-line="none" text-decoration-style="solid" text-decoration-color="#000000" text-transform="none" text-orientation="mixed" white-space="normal" shape-padding="0" shape-margin="0" inline-size="0" isolation="auto" mix-blend-mode="normal" solid-color="#000000" solid-opacity="1" vector-effect="none"/><path id="path1302" d="m154.54883 17.220703a2.48441 2.48441 0 0 0 -.58399.06836c-13.59003 3.247369-20.35844 14.231643-23.52148 21.716797a2.48441 2.48441 0 0 0 1.32226 3.25586 2.48441 2.48441 0 0 0 3.25586-1.322266c2.86028-6.768685 8.61009-16.073378 20.09766-18.818359a2.48441 2.48441 0 0 0 1.83984-2.994141 2.48441 2.48441 0 0 0 -2.41015-1.906251z" fill="#fff" font-variant-ligatures="normal" font-variant-position="normal" font-variant-caps="normal" font-variant-numeric="normal" font-variant-alternates="normal" font-variant-east-asian="normal" font-feature-settings="normal" font-variation-settings="normal" text-indent="0" text-align="start" text-decoration-line="none" text-decoration-style="solid" text-decoration-color="#000000" text-transform="none" text-orientation="mixed" white-space="normal" shape-padding="0" shape-margin="0" inline-size="0" isolation="auto" mix-blend-mode="normal" solid-color="#000000" solid-opacity="1" vector-effect="none"/></g></g></svg>