<?xml version="1.0" encoding="iso-8859-1"?>
<!-- Generator: Adobe Illustrator 19.0.0, SVG Export Plug-In . SVG Version: 6.00 Build 0)  -->
<svg xmlns="http://www.w3.org/2000/svg" xmlns:xlink="http://www.w3.org/1999/xlink" version="1.1" id="Layer_1" x="0px" y="0px" viewBox="0 0 512 512" style="enable-background:new 0 0 512 512;" xml:space="preserve">
<path style="fill:#FDD834;" d="M358.409,128H119.475c-18.85-0.009-34.125,15.266-34.133,34.116c0,0.009,0,0.017,0,0.017v51.2  c0,6.793,2.705,13.295,7.509,18.091c0.316,0.333,0.666,0.649,1.024,0.939c4.668,4.241,10.761,6.588,17.067,6.571  c2.918,0.017,5.811-0.503,8.533-1.536c10.257-3.541,17.118-13.218,17.067-24.064c0,6.793,2.705,13.295,7.509,18.091  c0.316,0.333,0.666,0.649,1.024,0.939c4.668,4.241,10.761,6.588,17.067,6.571c2.918,0.017,5.811-0.503,8.533-1.536  c10.257-3.541,17.118-13.218,17.067-24.064c0,6.793,2.705,13.295,7.509,18.091c0.316,0.333,0.666,0.649,1.024,0.939  c4.668,4.241,10.761,6.588,17.067,6.571c2.918,0.017,5.811-0.503,8.533-1.536c10.257-3.541,17.118-13.218,17.067-24.064  c0,6.793,2.705,13.295,7.509,18.091c0.316,0.333,0.666,0.649,1.024,0.939c4.668,4.241,10.761,6.588,17.067,6.571  c2.918,0.017,5.811-0.503,8.533-1.536c10.257-3.541,17.118-13.218,17.067-24.064c0,6.793,2.705,13.295,7.509,18.091  c0.316,0.333,0.666,0.649,1.024,0.939c4.668,4.241,10.761,6.588,17.067,6.571c2.918,0.017,5.811-0.503,8.533-1.536  c10.257-3.541,17.118-13.218,17.067-24.064c0,6.793,2.705,13.295,7.509,18.091c0.316,0.333,0.666,0.649,1.024,0.939  c4.668,4.241,10.761,6.588,17.067,6.571c14.123,0.017,25.583-11.409,25.6-25.532c0-0.026,0-0.043,0-0.068v-51.2  c0.009-18.85-15.266-34.125-34.116-34.133C358.417,128,358.417,128,358.409,128z"/>
<path style="fill:#FFEB3A;" d="M358.409,162.133v51.2c0.051,7.279-3.063,14.225-8.533,19.029c-0.358-0.29-0.708-0.606-1.024-0.939  c-4.804-4.796-7.509-11.298-7.509-18.091c0.051,10.846-6.81,20.523-17.067,24.064c-2.722,1.033-5.615,1.553-8.533,1.536  c-6.306,0.017-12.399-2.33-17.067-6.571c-0.358-0.29-0.708-0.606-1.024-0.939c-4.804-4.796-7.509-11.298-7.509-18.091  c0.051,10.846-6.81,20.523-17.067,24.064c-2.722,1.033-5.615,1.553-8.533,1.536c-6.306,0.017-12.399-2.33-17.067-6.571  c-0.358-0.29-0.708-0.606-1.024-0.939c-4.804-4.796-7.509-11.298-7.509-18.091c0.051,10.846-6.81,20.523-17.067,24.064  c-2.722,1.033-5.615,1.553-8.533,1.536c-6.306,0.017-12.399-2.33-17.067-6.571c-0.358-0.29-0.708-0.606-1.024-0.939  c-4.804-4.796-7.509-11.298-7.509-18.091c0.051,10.846-6.81,20.523-17.067,24.064c-2.722,1.033-5.615,1.553-8.533,1.536  c-6.306,0.017-12.399-2.33-17.067-6.571c-0.358-0.29-0.708-0.606-1.024-0.939c-4.804-4.796-7.509-11.298-7.509-18.091  c0.051,10.846-6.81,20.523-17.067,24.064c-2.722,1.033-5.615,1.553-8.533,1.536c-6.306,0.017-12.399-2.33-17.067-6.571  c-0.358-0.29-0.708-0.606-1.024-0.939c-4.804-4.796-7.509-11.298-7.509-18.091v-51.2c-0.009-18.85,15.266-34.125,34.116-34.133  c0.009,0,0.017,0,0.017,0h204.8c18.85-0.009,34.125,15.266,34.133,34.116C358.409,162.116,358.409,162.125,358.409,162.133z"/>
<path style="fill:#6A1B9A;" d="M501.257,270.336L377.865,397.568l6.144,88.832c-0.026,9.412-7.654,17.041-17.067,17.067h-256  c-9.412-0.026-17.041-7.654-17.067-17.067l1.792-25.6l2.304-34.133l12.971-187.733c2.918,0.017,5.811-0.503,8.533-1.536  c10.257-3.541,17.118-13.218,17.067-24.064c0,6.793,2.705,13.295,7.509,18.091c0.316,0.333,0.666,0.649,1.024,0.939  c4.668,4.241,10.761,6.588,17.067,6.571c2.918,0.017,5.811-0.503,8.533-1.536c10.257-3.541,17.118-13.218,17.067-24.064  c0,6.793,2.705,13.295,7.509,18.091c0.316,0.333,0.666,0.649,1.024,0.939c4.668,4.241,10.761,6.588,17.067,6.571  c2.918,0.017,5.811-0.503,8.533-1.536c10.257-3.541,17.118-13.218,17.067-24.064c0,6.793,2.705,13.295,7.509,18.091  c0.316,0.333,0.666,0.649,1.024,0.939c4.668,4.241,10.761,6.588,17.067,6.571c2.918,0.017,5.811-0.503,8.533-1.536  c10.257-3.541,17.118-13.218,17.067-24.064c0,6.793,2.705,13.295,7.509,18.091c0.316,0.333,0.666,0.649,1.024,0.939  c4.668,4.241,10.761,6.588,17.067,6.571c2.918,0.017,5.811-0.503,8.533-1.536c10.257-3.541,17.118-13.218,17.067-24.064  c0.017,14.131,11.469,25.574,25.6,25.6l3.072,44.288l1.877,27.819l58.539-50.603c3.089-2.654,7.023-4.105,11.093-4.096l20.907-0.085  h0.171l32.256-0.171c4.719-0.017,8.559,3.797,8.576,8.525C503.441,266.718,502.664,268.757,501.257,270.336z"/>
<path style="fill:#9D27B0;" d="M467.123,270.336L343.731,397.568l6.144,88.832c-0.026,9.412-7.654,17.041-17.067,17.067H110.942  c-9.412-0.026-17.041-7.654-17.067-17.067l1.792-25.6l2.304-34.133l12.971-187.733c2.918,0.017,5.811-0.503,8.533-1.536  c5.504,2.048,11.563,2.048,17.067,0c3.149-1.101,6.05-2.816,8.533-5.035c4.668,4.241,10.761,6.588,17.067,6.571  c2.918,0.017,5.811-0.503,8.533-1.536c2.722,1.033,5.615,1.553,8.533,1.536c6.306,0.017,12.399-2.33,17.067-6.571  c4.668,4.241,10.761,6.588,17.067,6.571c2.918,0.017,5.811-0.503,8.533-1.536c2.722,1.033,5.615,1.553,8.533,1.536  c6.306,0.017,12.399-2.33,17.067-6.571c4.668,4.241,10.761,6.588,17.067,6.571c2.918,0.017,5.811-0.503,8.533-1.536  c2.722,1.033,5.615,1.553,8.533,1.536c6.306,0.017,12.399-2.33,17.067-6.571c4.668,4.241,10.761,6.588,17.067,6.571  c2.918,0.017,5.811-0.503,8.533-1.536c2.722,1.033,5.615,1.553,8.533,1.536l4.949,72.107l32.256-27.819l1.877,27.819l58.539-50.603  c3.089-2.654,7.023-4.105,11.093-4.096l20.907-0.085h0.171c4.625,1.05,7.526,5.649,6.477,10.274  C468.762,267.947,468.087,269.252,467.123,270.336z"/>
<g>
	<path style="fill:#6A1B9A;" d="M97.971,426.667L95.667,460.8H59.742c-28.271-0.026-51.174-22.929-51.2-51.2V213.333   c0.026-28.271,22.929-51.174,51.2-51.2h25.6v34.133h-25.6c-9.412,0.026-17.041,7.654-17.067,17.067V409.6   c0.026,9.412,7.654,17.041,17.067,17.067H97.971z"/>
	<path style="fill:#6A1B9A;" d="M322.057,52.48c-3.661-25.19-25.233-43.895-50.688-43.947h-64.853   C181.06,8.585,159.488,27.29,155.827,52.48l-0.683,4.779L145.075,128h187.733L322.057,52.48z M184.414,93.867l5.205-36.523   c1.229-8.397,8.405-14.635,16.896-14.677h64.853c8.491,0.043,15.667,6.281,16.896,14.677l5.205,36.523H184.414z"/>
</g>
<path style="fill:#9D27B0;" d="M293.811,93.781l-5.888-41.301c-3.661-25.19-25.233-43.895-50.688-43.947h-30.72  C181.06,8.585,159.488,27.29,155.827,52.48l-0.683,4.779L145.075,128h153.6L293.811,93.781z M184.414,93.867l5.205-36.523  c1.229-8.397,8.405-14.635,16.896-14.677h64.853c8.491,0.043,15.667,6.281,16.896,14.677l5.205,36.523H184.414z"/>
<path d="M332.809,136.533H145.075c-2.475,0-4.821-1.075-6.443-2.944c-1.621-1.869-2.347-4.352-1.997-6.801l10.786-75.511  C151.595,22.042,177.015,0,206.549,0h64.785c29.534,0,54.955,22.042,59.145,51.285l0,0l10.786,75.511  c0.35,2.449-0.384,4.932-1.997,6.801C337.63,135.458,335.283,136.533,332.809,136.533z M154.914,119.467H322.97L313.574,53.7  c-2.987-20.881-21.146-36.634-42.24-36.634h-64.785c-21.094,0-39.253,15.753-42.24,36.634L154.914,119.467z M293.453,102.4H184.431  c-2.475,0-4.821-1.075-6.443-2.944c-1.621-1.869-2.347-4.352-1.997-6.801l5.222-36.548c1.86-12.689,12.501-21.914,25.293-21.973  h64.828c12.834,0.06,23.475,9.284,25.335,21.939l5.231,36.582c0.35,2.449-0.384,4.932-1.997,6.801  C298.274,101.325,295.927,102.4,293.453,102.4z M194.27,85.333h89.335l-3.831-26.812c-0.614-4.207-4.181-7.305-8.482-7.322h-64.742  c-4.258,0.017-7.825,3.115-8.448,7.356L194.27,85.333z"/>
<polygon style="fill:#FDD834;" points="307.208,339.029 277.171,334.763 260.019,332.288 257.374,326.997 238.942,290.133   228.275,311.467 217.865,332.288 170.675,339.029 204.809,371.797 200.969,394.155 196.787,418.133 234.334,398.677   238.942,396.288 254.558,404.395 281.097,418.133 273.075,371.797 "/>
<g>
	<polygon style="fill:#FFEB3A;" points="247.475,363.264 254.558,404.395 238.942,396.288 234.334,398.677 196.787,418.133    200.969,394.155 204.809,371.797 170.675,339.029 217.865,332.288 228.275,311.467 238.942,290.133 257.374,326.997    260.019,332.288 277.171,334.763  "/>
	<polygon style="fill:#FFEB3A;" points="255.497,409.6 234.334,398.677 238.942,396.288 254.558,404.395  "/>
	<polygon style="fill:#FFEB3A;" points="281.608,330.496 277.171,334.763 260.019,332.288 257.374,326.997  "/>
</g>
<path d="M281.131,426.667c-1.34,0-2.688-0.316-3.925-0.956l-38.263-19.823l-38.263,19.823c-2.876,1.502-6.349,1.22-8.969-0.691  c-2.611-1.92-3.917-5.154-3.362-8.346l7.279-41.839l-30.865-29.67c-2.355-2.261-3.209-5.666-2.21-8.764  c0.998-3.106,3.686-5.367,6.912-5.837l42.752-6.11l19.098-38.144c1.442-2.884,4.403-4.71,7.629-4.71l0,0  c3.226,0,6.187,1.826,7.629,4.719l19.098,38.144l42.752,6.11c3.226,0.469,5.905,2.722,6.921,5.837  c0.998,3.098,0.145,6.511-2.21,8.764l-30.865,29.67l7.287,41.83c0.555,3.2-0.751,6.434-3.371,8.354  C284.681,426.112,282.914,426.667,281.131,426.667z M189.201,344.994l21.513,20.685c2.048,1.963,2.978,4.813,2.492,7.612  l-5.103,29.355l26.906-13.943c2.458-1.28,5.393-1.28,7.851,0l26.906,13.943l-5.111-29.346c-0.486-2.799,0.452-5.649,2.492-7.62  l21.521-20.685l-29.858-4.267c-2.765-0.401-5.171-2.125-6.417-4.634l-13.466-26.889l-13.466,26.889  c-1.246,2.509-3.652,4.233-6.417,4.634L189.201,344.994z"/>
<path d="M162.278,247.467c-0.06,0-0.128,0-0.188,0c-10.146-0.017-19.285-4.506-25.54-11.597  c-6.255,7.108-15.42,11.597-25.609,11.597c-18.825,0-34.133-15.309-34.133-34.133v-51.217c0-23.518,19.14-42.65,42.658-42.65  c0,0,0,0,0.009,0h238.933c11.409,0,22.127,4.446,30.182,12.501c8.047,8.055,12.493,18.773,12.484,30.174v51.2  c0,18.825-15.309,34.133-34.133,34.133c-10.18,0-19.345-4.48-25.6-11.58c-6.255,7.1-15.42,11.58-25.6,11.58  c-10.18,0-19.345-4.48-25.6-11.58c-6.255,7.1-15.42,11.58-25.6,11.58c-10.18,0-19.345-4.48-25.6-11.58  c-6.255,7.1-15.42,11.58-25.6,11.58c-10.172,0-19.319-4.471-25.583-11.554c-3.78,4.267-8.661,7.603-14.302,9.549  C170.035,246.767,166.195,247.467,162.278,247.467z M136.542,204.8c4.71,0,8.525,3.814,8.533,8.525  c0.009,9.404,7.671,17.067,17.075,17.075c1.792,0.017,3.746-0.324,5.495-0.981c7.014-2.423,11.554-8.789,11.554-15.94  c0-0.043,0-0.094,0-0.145c0-4.702,3.806-8.525,8.516-8.533c0.017,0,0.017,0,0.026,0c4.693,0,8.508,3.789,8.533,8.491  c0,0.051,0,0.102,0,0.145c0.06,9.361,7.689,16.964,17.067,16.964c9.412,0,17.067-7.654,17.067-17.067  c0-4.71,3.823-8.533,8.533-8.533s8.533,3.823,8.533,8.533c0,9.412,7.654,17.067,17.067,17.067c9.412,0,17.067-7.654,17.067-17.067  c0-4.71,3.814-8.533,8.533-8.533c4.719,0,8.533,3.823,8.533,8.533c0,9.412,7.654,17.067,17.067,17.067  c9.412,0,17.067-7.654,17.067-17.067c0-4.71,3.814-8.533,8.533-8.533c4.719,0,8.533,3.823,8.533,8.533  c0,9.412,7.654,17.067,17.067,17.067c9.412,0,17.067-7.654,17.067-17.067v-51.2c0-6.835-2.662-13.269-7.492-18.099  c-4.83-4.83-11.255-7.501-18.091-7.501h-238.95l0,0c-14.114,0-25.591,11.477-25.6,25.583l-8.533,0.017h8.533v51.2  c0,9.412,7.654,17.067,17.067,17.067s17.067-7.654,17.067-17.067C128.008,208.623,131.823,204.8,136.542,204.8  C136.533,204.8,136.542,204.8,136.542,204.8z"/>
<path d="M95.667,469.333H59.742c-32.913-0.026-59.708-26.829-59.733-59.725V213.333c0,0,0,0,0-0.009  c0.026-32.905,26.82-59.699,59.725-59.725h25.609c4.71,0,8.533,3.823,8.533,8.533v51.2c0.009,9.395,7.671,17.058,17.075,17.067  c2.364,0,4.625,0.99,6.229,2.714c1.613,1.732,2.432,4.045,2.27,6.4l-15.275,221.858C103.876,465.86,100.156,469.333,95.667,469.333z   M17.075,213.342V409.6c0.017,23.501,19.166,42.65,42.675,42.667h27.938l14.191-206.037c-14.413-3.994-25.054-17.229-25.071-32.887  v-42.675H59.742C36.232,170.684,17.092,189.824,17.075,213.342z"/>
<path d="M97.971,435.2H59.742c-14.08-0.034-25.557-11.511-25.6-25.574V213.333c0-0.009,0-0.017,0-0.026  c0.043-14.054,11.52-25.532,25.574-25.574h25.626c4.71,0,8.533,3.823,8.533,8.533v17.067c0.009,9.395,7.671,17.058,17.075,17.067  c2.364,0,4.625,0.99,6.229,2.714c1.613,1.732,2.432,4.045,2.27,6.4l-12.971,187.733C106.172,431.727,102.451,435.2,97.971,435.2z   M51.208,213.359V409.6c0.009,4.685,3.857,8.525,8.55,8.533h30.242l11.878-171.904c-14.413-3.994-25.054-17.229-25.071-32.887V204.8  H59.742C55.066,204.809,51.217,208.657,51.208,213.359z"/>
<path d="M366.967,512H110.942c-14.08-0.034-25.557-11.511-25.6-25.574l17.084-248.081c0.316-4.471,4.036-7.945,8.516-7.945  c0.009-0.009,0.026,0,0.034,0c9.378,0,17.015-7.629,17.033-17.015c0-0.017,0-0.034,0-0.043c0.026-4.685,3.84-8.516,8.533-8.516  c4.71,0,8.525,3.78,8.533,8.491c0.009,9.404,7.671,17.067,17.075,17.075c1.792,0.017,3.746-0.324,5.495-0.981  c7.014-2.423,11.554-8.789,11.554-15.94c0-0.043,0-0.094,0-0.145c0-4.702,3.806-8.525,8.516-8.533  c0.017,0.009,0.017,0.009,0.026,0.009c4.693,0,8.508,3.789,8.533,8.491c0,0.051,0,0.102,0,0.145  c0.06,9.361,7.689,16.964,17.067,16.964c9.412,0,17.067-7.654,17.067-17.067c0-4.71,3.823-8.533,8.533-8.533  s8.533,3.823,8.533,8.533c0,9.412,7.654,17.067,17.067,17.067c9.412,0,17.067-7.654,17.067-17.067c0-4.71,3.814-8.533,8.533-8.533  c4.719,0,8.533,3.823,8.533,8.533c0,9.412,7.654,17.067,17.067,17.067c9.412,0,17.067-7.654,17.067-17.067  c0-4.71,3.814-8.533,8.525-8.533h0.009c4.71,0,8.525,3.814,8.533,8.516c0.017,9.412,7.671,17.067,17.084,17.084  c4.471,0.009,8.192,3.473,8.499,7.945l3.797,55.066l45.594-39.407c4.625-3.985,10.53-6.204,16.64-6.221l53.359-0.213  c0.034,0,0.06,0,0.094,0c4.506,0,8.764,1.749,11.989,4.941c3.234,3.209,5.035,7.484,5.06,12.041c0.017,4.284-1.553,8.38-4.42,11.546  L386.654,400.751l5.871,85.077C392.508,500.489,381.03,511.966,366.967,512z M118.972,246.519l-14.788,214.852  c0,0.009,0,0.017,0,0.017l-1.792,25.6c0.034,4.087,3.874,7.936,8.576,7.945H366.95c4.685-0.009,8.525-3.849,8.533-8.559l-6.11-88.26  c-0.171-2.415,0.708-4.787,2.389-6.528L495.13,264.414l-53.564,0.427c-2.031,0.009-4.011,0.751-5.547,2.082l-58.505,50.56  c-2.458,2.108-5.888,2.662-8.866,1.417c-2.987-1.246-5.009-4.07-5.231-7.287l-4.489-65.118c-6.903-1.681-12.988-5.47-17.553-10.633  c-6.272,7.117-15.445,11.605-25.634,11.605c-10.18,0-19.345-4.48-25.6-11.58c-6.255,7.1-15.42,11.58-25.6,11.58  c-10.18,0-19.345-4.48-25.6-11.58c-6.255,7.1-15.42,11.58-25.6,11.58c-10.172,0-19.319-4.471-25.583-11.554  c-3.78,4.267-8.661,7.603-14.302,9.549c-3.473,1.323-7.245,2.227-11.366,2.005c-10.138-0.017-19.277-4.497-25.532-11.588  C131.994,241.067,125.892,244.847,118.972,246.519z"/>
<g>
</g>
<g>
</g>
<g>
</g>
<g>
</g>
<g>
</g>
<g>
</g>
<g>
</g>
<g>
</g>
<g>
</g>
<g>
</g>
<g>
</g>
<g>
</g>
<g>
</g>
<g>
</g>
<g>
</g>
</svg>
