<svg id="Filled" height="512" viewBox="0 0 512 512" width="512" xmlns="http://www.w3.org/2000/svg"><path d="m424 352a64 64 0 1 0 64 64 64 64 0 0 0 -64-64zm0 96a32 32 0 1 1 32-32 32 32 0 0 1 -32 32z" fill="#e74444"/><path d="m248 40h-48v304h48c70.692 0 128-68.053 128-152s-57.308-152-128-152z" fill="#ebd46c"/><path d="m200 40h-48v304h48c70.692 0 128-68.053 128-152s-57.308-152-128-152z" fill="#e0e2e5"/><ellipse cx="152" cy="192" fill="#ebd46c" rx="128" ry="152"/><ellipse cx="152" cy="192" fill="#fde575" rx="80" ry="104"/><path d="m104 176 32-8 16-32 16 32 32 8-16 24v32l-32-16-32 16v-32z" fill="#e74444"/><path d="m424 344a72.072 72.072 0 0 0 -71.975 71.005c-22.939 6.569-53.767 18.963-92.16 42.147-53.215 32.133-85.113 23.458-99.391 15.429-15.048-8.464-24.426-24.022-24.474-40.6-.069-23.8 10.858-44.446 32.478-61.378a131.021 131.021 0 0 1 32.922-18.603h46.6c74.991 0 136-71.776 136-160s-61.009-160-136-160h-96c-74.991 0-136 71.776-136 160s61.009 160 136 160h14.913c-2.6 1.736-5.241 3.624-7.89 5.682-25.612 19.895-39.106 45.6-39.023 74.341.064 22.335 12.568 43.219 32.631 54.5 8.2 4.611 21.032 9.484 38.666 9.483 19.613 0 45.161-6.032 76.838-25.161 35.575-21.482 64.2-33.205 85.511-39.576a72 72 0 1 0 70.354-87.269zm-104-152c0 74.3-47.131 135.625-107.4 143.207 44.659-26.263 75.4-80.586 75.4-143.207s-30.741-116.944-75.4-143.207c60.269 7.582 107.4 68.912 107.4 143.207zm48 0c0 74.3-47.131 135.625-107.4 143.207 44.659-26.263 75.4-80.586 75.4-143.207s-30.741-116.944-75.4-143.207c60.269 7.582 107.4 68.912 107.4 143.207zm-336 0c0-79.4 53.832-144 120-144s120 64.6 120 144-53.832 144-120 144-120-64.6-120-144zm392 280a56.1 56.1 0 0 1 -54.868-44.77 158.8 158.8 0 0 1 15.792-2.7 40 40 0 1 0 -.191-16.124 163.943 163.943 0 0 0 -16.5 2.588 55.994 55.994 0 1 1 55.767 61.006zm24-56a24 24 0 0 1 -46.662 7.888 7.995 7.995 0 0 0 0-15.766 24 24 0 0 1 46.662 7.878z"/><path d="m207.462 173.115a8 8 0 0 0 -5.522-4.876l-28.43-7.108-14.355-28.709a8 8 0 0 0 -14.31 0l-14.355 28.709-28.43 7.108a8 8 0 0 0 -4.716 12.2l14.656 21.983v29.578a8 8 0 0 0 11.578 7.155l28.422-14.211 28.422 14.211a8 8 0 0 0 11.578-7.155v-29.578l14.656-21.984a8 8 0 0 0 .806-7.323zm-30.118 22.447a7.993 7.993 0 0 0 -1.344 4.438v19.056l-20.422-10.211a8 8 0 0 0 -7.156 0l-20.422 10.211v-19.056a7.993 7.993 0 0 0 -1.344-4.438l-9.7-14.554 20.986-5.247a8 8 0 0 0 5.215-4.183l8.843-17.689 8.845 17.689a8 8 0 0 0 5.215 4.183l20.986 5.247z"/><path d="m214.91 113.583c-16.66-21.656-39.001-33.583-62.91-33.583s-46.25 11.927-62.91 33.583c-16.179 21.034-25.09 48.883-25.09 78.417s8.911 57.383 25.09 78.417c16.66 21.656 39.001 33.583 62.91 33.583s46.25-11.927 62.91-33.583c16.179-21.034 25.09-48.883 25.09-78.417s-8.911-57.383-25.09-78.417zm-62.91 174.417c-39.7 0-72-43.065-72-96s32.3-96 72-96 72 43.065 72 96-32.3 96-72 96z"/></svg>