<svg id="Capa_1" enable-background="new 0 0 128 128" height="512" viewBox="0 0 128 128" width="512" xmlns="http://www.w3.org/2000/svg"><g><path d="m110.7 106.8c-.7 0-1.5-.4-1.9-1-2.6-4.1-11.6-10.6-14.8-12.7-1-.7-1.3-2.1-.6-3.1s2.1-1.3 3.1-.6c.5.3 12.4 8.2 16.1 14 .7 1.1.4 2.5-.7 3.1-.4.2-.8.3-1.2.3z" fill="#f2f2f2"/><path d="m111.9 106.5c.6-.4.9-.9 1-1.5l-1-2.7c-.4-.5-.8-1-1.3-1.6l-3.5 2.8c.7.8 1.3 1.5 1.8 2.2.4.7 1.2 1 1.9 1 .3.1.7 0 1.1-.2z" fill="#333"/><path d="m110.7 108.3c-1.3 0-2.5-.6-3.2-1.7-2.2-3.5-10-9.4-14.4-12.3-.8-.6-1.4-1.4-1.6-2.4s0-2 .5-2.8c1.1-1.7 3.5-2.2 5.2-1.1 1.3.9 12.8 8.5 16.5 14.5.5.8.7 1.9.5 2.8-.2 1-.8 1.8-1.6 2.4-.5.4-1.2.6-1.9.6zm-15.5-17.9c-.2 0-.5.1-.6.3-.2.2-.1.5-.1.6s.1.3.3.5c.1.1 11.9 7.9 15.2 13.2.2.3.7.5 1 .2.2-.1.3-.4.3-.5 0-.2 0-.4-.1-.6-3.5-5.5-15.2-13.3-15.7-13.6 0 0-.1-.1-.3-.1z"/><path d="m93.8 87-1.2.2c-1.1-.3-2.2-.5-3.3-.5h-19.5c-4.3 0-7.9-3.4-8-7.7 0-.1 0-.2 0-.3v-1.7c.8-.1 1.5-.3 2.3-.5.9-.2 1.7-.4 2.6-.7.7-.2 1.4-.5 2.1-.8.7 3.1 1.8 5.1 3.7 5.2 17.4.3 21.3 6.8 21.3 6.8z" fill="#666"/><path d="m92.5 88.8-.3-.1c-1-.3-1.9-.4-2.9-.4h-19.5c-5.1 0-9.3-4-9.5-9.1 0-.2 0-.4 0-.5v-2.9l1.2-.2c.9-.2 1.6-.3 2.2-.4.8-.2 1.6-.4 2.5-.7.8-.2 1.4-.5 2-.7l1.7-.7.4 1.8c.3 1.2 1 3.9 2.3 4 17.9.1 22.3 7.1 22.5 7.4l1.2 1.9zm-29.3-10.5v.7c.1 3.5 3 6.3 6.5 6.3h19.5c-2.9-1.6-8.1-3.4-16.9-3.5-2.2 0-3.7-1.6-4.7-4.7-.2.1-.4.1-.6.2-.9.3-1.8.5-2.7.7-.3.1-.7.2-1.1.3z"/><path d="m101.3 98.8v12c0 .7-.1 1.4-.3 2-.7 2.2-2.4 3.9-4.6 4.4-3.5.7-6.7-1.6-7.4-4.9-.1-.4-.1-.8-.1-1.2 0 0 0-1.4-.3-1.3-.2.1-.5.2-.7.2-1.3.4-3 .6-4.9.7-.9 0-1.8.1-2.7.1-4.2 0-8.2-.3-8.2-.3v5.9c0 3.3-2.4 6.2-5.6 6.5-3.1.3-5.8-1.7-6.5-4.5h-1.5c-.1 0-.1 0-.1 0-.8 2.8-3.5 4.7-6.5 4.5-3.2-.3-5.6-3.2-5.6-6.5v-50l15.8-1.1v.1 13.4.3c.2 4.3 3.7 7.7 8 7.7h19.5c1.2 0 2.3.2 3.3.5 4.7 1.4 8.4 6 8.4 11.5z" fill="#f2f2f2"/><path d="m92.6 87.2c-1.1-.3-2.2-.5-3.3-.5h-19.5c-4.3 0-7.9-3.4-8-7.7 0-.1 0-.2 0-.3v-13.4l-15.7 1.1v3.2l14.1-1v13.4.3c.2 4.3 3.7 7.7 8 7.7h19.5c1.2 0 2.3.2 3.3.5 5 1.4 8.7 6.1 8.7 11.5v12c0 .4 0 .8-.1 1.2 1.1-1.2 1.8-2.8 1.8-4.6v-12c-.1-5.3-3.8-9.9-8.8-11.4z" fill="#fff"/><g fill="#4d4d4d"><path d="m59.1 116.2s-.1 0-.3.1c-.4.2-1.1.4-2.2.7-1.3.3-3 .6-4.9.6-1.3 0-2.6-.1-4-.5s-.1 0-.2 0c-.5-.1-1-.3-1.5-.5-.1-.1-.3-.1-.4-.2-.5-.2-.8-.5-1.1-1v-2.2c.3-.6.9-1 1.5-1.1.4-.1.9-.1 1.3.1.1 0 .1 0 .2.1.1 0 .1 0 .2.1 3.7 1.4 7.6.4 9-.1.4-.1.6-.2.6-.2.7-.3 1.4-.2 2 .1.4.2.7.6.9 1 .5 1.2 0 2.5-1.1 3z"/><path d="m59.1 109.5s-.1 0-.3.1c-.4.1-1.1.4-2.2.7-1.3.3-3 .6-5 .6-1.3 0-2.7-.1-4.1-.5-.1 0-.1 0-.2-.1-.5-.1-1-.3-1.5-.5-.1-.1-.3-.1-.4-.2-.5-.2-.8-.5-1.1-1v-2.2c.3-.6.9-1 1.5-1.1.4-.1.9-.1 1.3.1.1 0 .1 0 .2.1.1 0 .1.1.2.1 3.7 1.4 7.6.4 9-.1.4-.1.6-.2.6-.2.7-.3 1.4-.2 2 .1.4.2.7.6.9 1 .7 1.2.2 2.5-.9 3.1z"/><path d="m101.3 107.9v2.8c0 .7-.1 1.4-.3 2-.1 0-.3.1-.5.1s-.1 0-.2 0c-1.3.3-3 .6-4.9.6-1.3 0-2.7-.1-4.1-.5-.2 0-.3-.1-.5-.1-.3-.1-.6-.2-1-.3-.2-.1-.4-.2-.6-.2-.1 0-.2-.1-.2-.1-.8-.5-1.2-1.4-1.1-2.3 0-.2.1-.4.2-.6.3-.6.8-1.1 1.4-1.3.5-.1 1-.1 1.5.1.1 0 .2.1.3.1 3.7 1.4 7.6.4 9-.1.1 0 .1 0 .2-.1.3-.1.4-.2.4-.2.2.2.3.1.4.1z"/><path d="m73.4 112.7v3c-.2.2-.5.4-.8.6-.1 0-.3.1-.8.3-.4.1-.9.3-1.5.5-.1 0-.1 0-.2 0-1.3.3-3 .6-4.9.6-1.3 0-2.7-.1-4.1-.5-.2 0-.3-.1-.5-.1-.3-.1-.6-.2-1-.3-.2-.1-.4-.2-.6-.2-.1 0-.2-.1-.3-.1-1-.6-1.4-1.8-1-2.8.3-.6.8-1.1 1.4-1.3.5-.1 1-.1 1.5.1.1 0 .2.1.4.1 3.7 1.4 7.6.4 9-.1.1 0 .1-.1.2-.1.3-.1.4-.2.4-.2.4-.2.7-.2 1.1-.2.8 0 1.3.2 1.7.7z"/><path d="m73.4 105.9v3c-.2.2-.5.4-.8.6-.1 0-.9.4-2.3.8-.1 0-.1 0-.2.1-1.3.3-3 .6-5 .6-1.3 0-2.7-.1-4.1-.5-.7-.2-1.4-.4-2.1-.7-1.2-.5-1.7-1.8-1.2-3 .5-1.1 1.8-1.7 3-1.2.1 0 .2.1.4.1 3.7 1.4 7.6.4 9-.1.1 0 .2 0 .2-.1.3-.1.4-.1.4-.1 1-.5 2.1-.2 2.7.5z"/><path d="m59.4 92.4c-.2.1-3.8 1.9-8.4 1.9-1.2 0-2.4-.1-3.7-.4-.5-.1-1-.3-1.5-.4-.8-.3-1.3-1-1.5-1.8v-.8c0-.1 0-.2.1-.3.4-1.2 1.7-1.8 2.9-1.4 4.8 1.7 9.9-.8 9.9-.8 1.1-.6 2.5-.1 3 1s.3 2.4-.8 3z"/><path d="m51.5 101.1c-1.6 0-3.4-.2-5.2-.9-1.2-.4-1.8-1.7-1.4-2.9s1.7-1.8 2.9-1.4c4.9 1.7 9.9-.8 10-.8 1.1-.6 2.5-.1 3 1 .6 1.1.1 2.5-1 3-.2.2-3.8 2-8.3 2z"/><path d="m60.2 83.8c0 .8-.5 1.5-1.2 1.9-.2.1-3.8 1.9-8.4 1.9-1 0-2-.1-3-.3-.1 0-.1 0-.2 0-.5-.1-1-.2-1.5-.4-.2 0-.3-.1-.4-.1-.5-.2-.8-.4-1.1-.8v-2.7c.4-.5.9-.8 1.5-.9.3 0 .7 0 1.1.1.2.1.3.1.4.1s.1 0 .2.1c4.7 1.3 9.3-1 9.3-1 1.1-.6 2.5-.1 3 1 0 .1.1.2.1.3.2.2.2.5.2.8z"/><path d="m88.8 102.3c-.3 1-1.2 1.7-2.2 1.7-.2 0-.4 0-.6-.1-1.2-.3-1.9-1.5-1.6-2.8 1.3-5.1-1.5-9.1-3.4-11-.8-.8-1.3-1.2-1.4-1.3-.2-.1-.3-.3-.4-.4 0-.1-.1-.1-.1-.2-.3-.4-.4-1-.3-1.5 0-.4.2-.8.4-1.1.1-.2.3-.3.4-.4h2.8c.2.1.8.7 1.7 1.5.4.4.9.9 1.4 1.5 0 .1.1.1.2.2.4.5.8 1.1 1.2 1.7 1.7 3 3.2 7.2 1.9 12.2z"/><path d="m97.2 102.3c-.3 1-1.2 1.7-2.2 1.7-.2 0-.4 0-.6-.1-1.2-.3-1.9-1.5-1.6-2.8 1.3-5-1.4-8.9-3.2-10.9-.8-.9-1.5-1.4-1.6-1.5-.2-.1-.3-.3-.4-.4 0-.1-.1-.1-.1-.2-.3-.4-.4-1-.4-1.5 0-.4.2-.8.4-1.1.1-.2.3-.3.4-.4h1.3c.5 0 1 0 1.5.1.3.3 1.2.9 2.1 2 .6.7 1.3 1.6 2 2.6.1.1.2.3.2.4.8 1.3 1.6 2.9 2 4.6.7 2.3.9 4.8.2 7.5z"/><path d="m80.5 102.3c-.3 1-1.2 1.7-2.2 1.7-.2 0-.4 0-.6-.1-1.2-.3-1.9-1.5-1.6-2.8 1.3-5.1-1.5-9.1-3.4-11-.8-.8-1.3-1.2-1.4-1.3-.2-.1-.3-.3-.4-.4s-.1-.1-.1-.2c0 0 0-.1-.1-.1l-.1-.1c0-.1-.1-.2-.1-.2 0-.1-.1-.2-.1-.4 0-.1 0-.1 0-.2v-.1s0 0 0-.1 0-.3 0-.4c0-.4.2-.8.4-1.1.1-.2.3-.3.4-.4h2.8c.2.1.8.7 1.7 1.5.4.4.9.9 1.4 1.5 0 .1.1.1.2.2.4.5.8 1.1 1.2 1.7 1.8 3.1 3.3 7.3 2 12.3z"/><path d="m70.7 96.6c-.2 1.1-1.1 1.9-2.2 1.9-.1 0-.3 0-.4 0-1.2-.2-2-1.4-1.8-2.6.4-2.3 0-4.4-.6-6.1-.5-1.4-1.1-2.6-1.5-3.2-.2-.3-.3-.4-.3-.5-.5-.7-.6-1.6-.2-2.3.2-.3.4-.6.7-.8.1-.1.3-.2.4-.2.9 1.2 2.3 2.1 3.8 2.4.3.5.5 1 .8 1.6 0 .1.1.2.1.2.1.2.2.4.3.6 0 .1 0 .1.1.2.1.2.1.3.2.5 0 .1.1.1.1.2.2.5.4 1.1.5 1.7.2 1.8.4 4.1 0 6.4z"/></g><path d="m72.5 106.5v4.1c1.2.1 4.4.2 7.7.2.9 0 1.8 0 2.7-.1 1.8-.1 3.5-.3 4.8-.6 3.1-2.2 6.2-4.4 6.2-4.4-3.2 2.6-21.4.8-21.4.8z" fill="#ccc"/><path d="m93 85.8c-.7-.2-1.5-.4-2.2-.4-.5-.1-1-.1-1.5-.1h-19.5c-.5 0-.9 0-1.3-.1-1.5-.3-2.9-1.2-3.8-2.4-.8-1-1.3-2.3-1.4-3.8 0-.1 0-.2 0-.3v-13.4c0-.9-.8-1.6-1.7-1.6l-15.8 1.1c-.8.1-1.4.7-1.4 1.5v50c0 4.1 3.1 7.6 7 8h.7c2.9 0 5.5-1.6 6.8-4 1.4 2.6 4.4 4.3 7.5 4 3.9-.4 7-3.9 7-8v-4.3c1.5.1 4 .2 6.7.2h.2c.9 0 1.8 0 2.6-.1h.2c1.6-.1 4.2-.5 4.3-.5.2 2.1 1.2 4 2.8 5.3 1.8 1.5 4.2 2.1 6.5 1.6 3.6-.7 6.1-4 6.1-7.9v-12c0-5.8-4-11.2-9.8-12.8zm6.8 25c0 .5-.1 1-.2 1.4-.5 1.8-1.8 3.1-3.5 3.5-1.4.3-2.8-.1-4-1-1.1-.9-1.7-2.2-1.7-3.6 0-.1 0-.2 0-.3 1.6-.6 3.3-1.4 4.2-2.4.5-.6.5-1.6-.1-2.1s-1.6-.5-2.1.1c-.6.7-3.1 1.7-5.3 2.3-.9.2-2.1.4-4.1.5-.9 0-1.8.1-2.7.1-2.7 0-5.3-.1-6.8-.2v-3.4c0-.8-.7-1.5-1.5-1.5s-1.4.5-1.5 1.3v.2 4.8.3 5.6.6c-.3 2.3-2 4.2-4.2 4.4-2.3.2-4.3-1.2-5-3.4v-.3-12c0-.8-.7-1.5-1.5-1.5-.2 0-1.2 0-1.4 0-.8 0-1.5.7-1.5 1.5v12s0 .3-.1.3c-.6 2.2-2.7 3.6-5 3.4-2.2-.2-3.9-2-4.2-4.3 0-.2-.1-.5-.1-.7v-48.6l12.8-.9v11.8.5c.1 2.8 1.5 5.3 3.5 6.9 1.6 1.3 3.7 2.1 6 2.1h19.5c1 0 2 .1 2.9.4 1 .3 1.9.7 2.7 1.3 2.9 1.9 4.8 5.2 4.8 8.8v12.1z"/><path d="m44.1 40.2c2-1.9 3-4.5 2.7-8-.6-6.8-10.2-13.9-12.5-13.7s-10.6 8.8-10 15.6c.2 2.1.8 3.8 1.7 5.2 1 1.4 2.3 2.4 3.9 3.1" fill="#f2f2f2"/><path d="m39.1 38.3c2.5-6.4-3-17-5.1-17.8-.5-.2-1.6-.1-3 .2 1.4-1.3 2.7-2.2 3.4-2.3 2.3-.2 11.9 6.8 12.5 13.7.3 3.5-.8 6.1-2.7 8l-3.3.5c-1.3.3-2.3-1-1.8-2.3 0 .1 0 .1 0 0z" fill="#fff"/><path d="m30 43.9c-.2 0-.4 0-.6-.1-1.9-.8-3.4-2-4.6-3.6-1.1-1.6-1.8-3.6-2-5.9-.6-7.6 8.3-17 11.4-17.2 3.1-.3 13.5 7.5 14.1 15 .3 3.7-.8 6.9-3.2 9.2-.6.6-1.5.5-2.1-.1s-.5-1.5.1-2.1c1.8-1.7 2.5-4 2.3-6.8-.5-6-9.2-12.2-10.9-12.3-1.6.4-9.1 8-8.6 14 .1 1.7.6 3.2 1.5 4.4.8 1.1 1.9 2 3.3 2.6.8.3 1.1 1.2.8 2-.4.5-.9.9-1.5.9z"/><path d="m83.2 50.6c0 20.3-13.4 27.1-30 27.1s-30-6.6-30-27.1c0-15.3 13.4-28.3 30-28.3s30 13 30 28.3z" fill="#f2f2f2"/><path d="m53.3 72.1c-15.7 0-28.5-5.9-29.8-23.9-.1.8-.1 1.6-.1 2.5 0 20.5 13.4 27.1 30 27.1s30-6.8 30-27.1c0-.8 0-1.7-.1-2.5-1.5 17.8-14.4 23.9-30 23.9z" fill="#ccc"/><path d="m26.5 65.1c4.9 9.2 15.1 12.6 26.8 12.6 4.9 0 9.4-.6 13.5-1.9-.1-9.6-10.2-17.3-22.6-17.3-7.2 0-13.6 2.6-17.7 6.6z" fill="#666"/><path d="m66.7 75.8c0-1.8-.4-3.6-1.1-5.3-3.8 1.1-8 1.6-12.4 1.6-10 0-18.9-2.4-24.3-8.9-.9.6-2.5 2-2.5 2 3.663 5.887 8.083 8.597 10.293 9.738 5.657 2.918 10.974 2.841 16.507 2.762 5.77-.083 10.445-1.07 13.5-1.9z" fill="#4d4d4d"/><path d="m83.2 50.6c0-15.3-13.4-28.3-30-28.3-16 0-29 12.1-29.9 26.7 4.3-10.7 15.2-18.5 28.1-18.5 8.9 0 16.8 3.7 22.3 9.5-.2-.3-.3-.5-.3-.5l5.7 2.3v1.1c-1.2.5-1.6 1.9-1 3 2.1 3.9 3.3 8.2 3.3 12.8 0 1.3-.1 2.6-.2 3.8 1.3-3.3 2-7.3 2-11.9z" fill="#fff"/><path d="m81.99 56-1.305 5.47c-.4.1-1.685.33-2.185.43-1 .2-2.2.3-3.3.3-1.6 0-3.4-.2-5.2-.9-1.2-.4-1.8-1.7-1.4-2.9s1.7-1.8 2.9-1.4c4.1 1.5 8.4-.1 9.6-.6.153-.051.89-.4.89-.4z" fill="#4d4d4d"/><path d="m57.7 37.4c-.2 0-.4 0-.6-.1-1.2-.3-1.9-1.6-1.5-2.8.1-.3 2.2-7.3 8.6-10.5 1.1-.6 2.5-.1 3 1 .6 1.1.1 2.5-1 3-4.7 2.4-6.3 7.7-6.3 7.8-.4.9-1.3 1.6-2.2 1.6z" fill="#4d4d4d"/><path d="m38.9 36.2c-.2 0-.4 0-.6-.1-1.2-.4-1.9-1.6-1.5-2.8.1-.3 2.2-7.3 8.6-10.5 1.1-.6 2.5-.1 3 1 .6 1.1.1 2.5-1 3-4.7 2.4-6.3 7.7-6.3 7.8-.3.9-1.2 1.6-2.2 1.6z" fill="#4d4d4d"/><path d="m40 27c0 .1-.1.2-.2.3-.2.3-.5.5-.8.7-4.7 2.3-6.3 7.7-6.3 7.8-.3 1-1.2 1.6-2.2 1.6-.2 0-.4 0-.6-.1-.3-.1-.5-.2-.7-.4-.1 0-.1-.1-.2-.1-.6-.5-.9-1.5-.7-2.3.1-.2.6-2 2-4.3 2.5-2.5 5.4-4.6 8.7-6.2.4.2.7.5.9 1 .5.6.4 1.4.1 2z" fill="#4d4d4d"/><path d="m82.245 54.63c-1.3.3-3.645.77-5.345.77-1.6 0-3.4-.2-5.2-.9-1.2-.4-1.8-1.7-1.4-2.9s1.7-1.8 2.9-1.4c3 1 6 .5 7.9 0 .275-.07.945-.345 1.145-.445z" fill="#4d4d4d"/><path d="m82.245 63.7-3.06 5.48-3.985-.18c-1.3 0-2.8-.2-4.2-.6-.3-.1-.6-.2-.9-.3-1.2-.4-1.8-1.7-1.4-2.9s1.7-1.8 2.9-1.4c1.7.6 3.4.7 4.9.6.9-.1 5.745-.7 5.745-.7z" fill="#4d4d4d"/><circle cx="57" cy="56" r="3"/><circle cx="33" cy="56" r="3"/><ellipse cx="46.2" cy="66.2" rx="1.3" ry="1.9"/><path d="m84.7 49.3c-.7-15.8-14.5-28.5-31.4-28.5-5.1 0-9.9 1.1-14.2 3.2-3.3 1.6-6.2 3.7-8.7 6.2-5.3 5.3-8.5 12.5-8.5 20.4 0 18.7 10.9 28.6 31.5 28.6 12.6 0 21.5-3.7 26.6-10.8 1.461-2.251 3.476-6.002 4.375-11.025.57-3.184.527-5.966.325-8.075zm-9.3 19.7c-4.7 4.8-12.1 7.3-22.2 7.3-18.9 0-28.5-8.6-28.5-25.6 0-5 1.5-9.7 4.2-13.8s6.5-7.5 11-9.8c4-2 8.5-3.2 13.3-3.2 15.2 0 28.1 11.9 28.4 26.2.222 2.067.338 5.643-.96 9.795-1.407 4.501-3.805 7.536-5.24 9.105z"/><ellipse cx="41.9" cy="66.2" rx="1.3" ry="1.9"/><path d="m65.7 38c-1.6-2.1-2.3-4.9-1.5-8.3 1.6-6.7 12.2-12.2 14.5-11.6 2.2.5 9.1 10.3 7.5 17-.5 2-1.4 3.6-2.5 4.8-1.2 1.2-2.7 2.1-4.3 2.5" fill="#f2f2f2"/><path d="m79.4 43.9c-.7 0-1.3-.5-1.5-1.1-.2-.8.3-1.6 1.1-1.8 1.4-.4 2.7-1.1 3.6-2.1 1-1.1 1.7-2.5 2.1-4.2 1.4-5.8-4.8-14.5-6.4-15.1-1.7-.2-11.2 4.7-12.6 10.5-.7 2.8-.3 5.1 1.2 7.1.5.7.4 1.6-.3 2.1-.6.4-1.6.3-2.1-.3-2-2.6-2.6-6-1.8-9.6 1.9-7.4 13.3-13.5 16.3-12.8 2.2.5 4.9 4.6 6.2 6.9 1.4 2.5 3.5 7.5 2.5 11.8-.5 2.2-1.5 4.1-2.9 5.5s-4.876 3.1-5.4 3.1z"/><path d="m69.9 37c-.7-1.4-1-3.1-.5-5.4 1.1-4.4 6.8-8.3 7.9-8s4.4 6.4 3.3 10.7c-.3 1.3-.8 2.4-1.5 3.2s-1.5 1.4-2.3 1.8c-3.6 1.6-5.5.4-6.9-2.3z" fill="#4d4d4d"/><path d="m47.5 36.5s6.8-13.6 12.4-12.4c13.4 2.7 2.3-17 2.3-17s-22.6 3-20.3 10.2 5.6 19.2 5.6 19.2z" fill="#666"/><path d="m62.2 7.1s-22.2 2.9-20.4 10c3.5-1.7 8.3-2.9 11.7-3.6 2.6-.5 6.5 1.3 7.6 3.8 1 2.2 2 4.4 2.3 6.8 9.8.1-1.2-17-1.2-17z" fill="#808080"/><path d="m47.5 38h-.1c-.6-.1-1.1-.5-1.3-1.1 0-.1-3.4-12.1-5.6-19.2-.4-1.4-.2-2.8.6-4.1 3.6-5.6 19.2-7.8 21-8 .6-.1 1.2.2 1.5.8 1.2 2.1 6.9 12.7 3.4 17.4-1.4 1.9-3.8 2.5-7.3 1.8-3.1-.6-8.2 6.4-10.8 11.6-.3.5-.9.8-1.4.8zm13.9-29.3c-6.3.9-15.8 3.4-17.9 6.5-.3.5-.4 1-.2 1.6 1.5 4.7 3.5 11.6 4.7 15.8 2.6-4.4 7.5-11 12.3-10 1.5.3 3.5.5 4.3-.6 1.5-2.2-.9-8.8-3.2-13.3z"/></g></svg>