<?xml version="1.0" encoding="iso-8859-1"?>
<!-- Generator: Adobe Illustrator 21.0.0, SVG Export Plug-In . SVG Version: 6.00 Build 0)  -->
<svg version="1.1" id="Capa_1" xmlns="http://www.w3.org/2000/svg" xmlns:xlink="http://www.w3.org/1999/xlink" x="0px" y="0px"
	 viewBox="0 0 593.292 593.292" style="enable-background:new 0 0 593.292 593.292;" xml:space="preserve">
<g>
	<g>
		<g id="filled_outline">
			<path style="fill:#D0D7DF;" d="M552.84,346.086H118.656L9.888,276.87v-29.664h462.335c26.866,0,52.624,10.669,71.619,29.664l0,0
				l22.663,11.332c10.353,5.171,16.889,15.752,16.889,27.331l0,0C583.384,332.401,569.709,346.076,552.84,346.086z"/>
			<polygon style="fill:#4394CC;" points="88.992,247.206 9.888,247.206 9.888,148.325 39.552,148.325 			"/>
			<polygon style="fill:#4394CC;" points="375.745,247.206 257.089,247.206 138.432,9.893 197.761,9.893 			"/>
			<path style="fill:#D0D7DF;" d="M266.977,88.997c10.926,0,19.776-8.85,19.776-19.776s-8.85-19.776-19.776-19.776h-39.552
				l29.664,39.552H266.977z"/>
			<path style="fill:#D0D7DF;" d="M336.193,187.877c10.926,0,19.776-8.85,19.776-19.776s-8.85-19.776-19.776-19.776h-34.608
				l29.664,39.552H336.193z"/>
			<polygon style="fill:#4394CC;" points="375.745,346.086 257.089,346.086 138.432,583.399 197.761,583.399 			"/>
			<path style="fill:#D0D7DF;" d="M266.977,504.295c10.926,0,19.776,8.85,19.776,19.776s-8.85,19.776-19.776,19.776h-39.552
				l29.664-39.552H266.977z"/>
			<path style="fill:#D0D7DF;" d="M336.193,405.414c10.926,0,19.776,8.85,19.776,19.776s-8.85,19.776-19.776,19.776h-34.608
				l29.664-39.552H336.193z"/>
			<polygon style="fill:#3E89BD;" points="242.257,217.542 257.089,247.206 375.745,247.206 353.497,217.542 			"/>
			<path d="M4.578,285.215l108.768,69.216c1.592,1.009,3.431,1.543,5.31,1.543H241.09L129.583,578.979
				c-2.442,4.885-0.465,10.827,4.43,13.27c1.374,0.682,2.887,1.048,4.42,1.038h59.328c3.115,0,6.042-1.463,7.91-3.955l26.698-35.597
				h34.608c16.335,0.03,29.615-13.191,29.644-29.526c0.03-13.003-8.435-24.493-20.864-28.329l30.772-41.025h29.664
				c16.355-0.02,29.595-13.29,29.575-29.634c-0.01-11.431-6.605-21.833-16.938-26.727l31.859-42.519H552.84
				c22.337,0.01,40.452-18.095,40.452-40.432c0.01-15.326-8.662-29.348-22.367-36.19l-21.259-10.63
				c-20.706-20.211-48.511-31.483-77.443-31.404h-91.533l-31.859-42.519c14.773-7.001,21.081-24.651,14.09-39.424
				c-4.895-10.333-15.297-16.928-26.727-16.938h-29.664l-30.772-41.025c15.613-4.815,24.364-21.378,19.549-36.991
				c-3.837-12.419-15.326-20.884-28.329-20.864h-34.608L205.671,3.96c-1.869-2.492-4.796-3.955-7.91-3.955h-59.328
				c-5.458,0-9.888,4.42-9.888,9.888c0,1.533,0.356,3.055,1.038,4.42L241.09,237.318H95.103l-46.652-93.412
				c-1.681-3.372-5.132-5.488-8.899-5.468H9.888c-5.458,0-9.888,4.43-9.888,9.888V276.87C0,280.251,1.721,283.396,4.578,285.215z
				 M276.865,524.071c0,5.458-4.43,9.888-9.888,9.888h-19.776l14.832-19.776h4.944C272.435,514.183,276.865,518.603,276.865,524.071
				z M336.193,435.078h-14.832l14.832-19.776c5.458,0,9.888,4.43,9.888,9.888C346.081,430.648,341.651,435.078,336.193,435.078z
				 M192.817,573.511h-38.385L263.2,355.974h92.77L192.817,573.511z M336.193,158.213c5.458,0,9.888,4.43,9.888,9.888
				s-4.43,9.888-9.888,9.888l-14.832-19.776H336.193z M266.977,59.333c5.458,0,9.888,4.43,9.888,9.888s-4.43,9.888-9.888,9.888
				h-4.944l-14.832-19.776C247.201,59.333,266.977,59.333,266.977,59.333z M154.431,19.781h38.385l163.153,217.537H263.2
				L154.431,19.781z M19.776,158.213h13.665l39.552,79.104H19.776V158.213z M19.776,257.094h452.447
				c20.597-0.04,40.6,6.932,56.708,19.776h-44.417v19.776h76.771l0.801,0.405c10.204,5.112,14.338,17.522,9.235,27.726
				c-3.5,7.001-10.649,11.411-18.481,11.421H121.534L19.776,271.441V257.094z"/>
			<rect x="444.961" y="276.87" width="19.776" height="19.776"/>
			<rect x="405.409" y="276.87" width="19.776" height="19.776"/>
			<rect x="365.857" y="276.87" width="19.776" height="19.776"/>
			<rect x="326.305" y="276.87" width="19.776" height="19.776"/>
			<rect x="286.753" y="276.87" width="19.776" height="19.776"/>
			<rect x="247.201" y="276.87" width="19.776" height="19.776"/>
			<rect x="207.649" y="276.87" width="19.776" height="19.776"/>
			<rect x="168.097" y="276.87" width="19.776" height="19.776"/>
			<rect x="128.544" y="276.87" width="19.776" height="19.776"/>
		</g>
	</g>
</g>
<g>
</g>
<g>
</g>
<g>
</g>
<g>
</g>
<g>
</g>
<g>
</g>
<g>
</g>
<g>
</g>
<g>
</g>
<g>
</g>
<g>
</g>
<g>
</g>
<g>
</g>
<g>
</g>
<g>
</g>
</svg>
