<svg id="svg8" height="512" viewBox="0 0 111 111" width="512" xmlns="http://www.w3.org/2000/svg" xmlns:dc="http://purl.org/dc/elements/1.1/" xmlns:cc="http://creativecommons.org/ns#" xmlns:rdf="http://www.w3.org/1999/02/22-rdf-syntax-ns#" xmlns:svg="http://www.w3.org/2000/svg" xmlns:sodipodi="http://sodipodi.sourceforge.net/DTD/sodipodi-0.dtd" xmlns:inkscape="http://www.inkscape.org/namespaces/inkscape" inkscape:version="1.0 (4035a4fb49, 2020-05-01)" sodipodi:docname="apple.svg"><g id="layer1" inkscape:groupmode="layer" inkscape:label="Layer 1"><g id="g882"><path id="path1029-3-3-3-4-6" d="m48.325704 4.1698003c-1.318316-3.76492305 2.494049-6.646625 4.790589-.987005 4.72438 11.6428237 5.55838 24.2055587 4.70383 30.9612947l-4.42204.379802c-.35137-10.986144-1.05156-18.871207-5.072379-30.3540917z" fill="#1a1c20" sodipodi:nodetypes="ssccs"/><path id="path851-0-1" d="m35.522353 20.823307c-15.570397.100362-33.9838243 11.884335-30.288985 43.404575 4.3173434 36.830528 42.399523 53.028128 50.264941 39.571418 7.865427 13.45671 45.947591-2.74088 50.264971-39.571423 6.22288-53.086702-50.265021-50.193673-50.264971-29.779302.00002-8.293337-9.322522-13.693936-19.975956-13.625268z" fill="#ff4646"/><path id="path851" d="m32.921492 25.227161c-7.717137.182262-13.51068 3.993919-17.345703 8.855469s-5.9082828 10.727512-6.9003909 15.644531a2.5115499 2.5115499 0 0 0 1.9648439 2.958985 2.5115499 2.5115499 0 0 0 2.958984-1.964844c.87239-4.32368 2.773306-9.538467 5.919922-13.527344 3.146616-3.988876 7.342016-6.799367 13.521485-6.945312a2.5115499 2.5115499 0 0 0 2.451172-2.570313 2.5115499 2.5115499 0 0 0 -2.570313-2.451172z" fill="#fff" font-variant-ligatures="normal" font-variant-position="normal" font-variant-caps="normal" font-variant-numeric="normal" font-variant-alternates="normal" font-variant-east-asian="normal" font-feature-settings="normal" font-variation-settings="normal" text-indent="0" text-align="start" text-decoration-line="none" text-decoration-style="solid" text-decoration-color="#000000" text-transform="none" text-orientation="mixed" white-space="normal" shape-padding="0" shape-margin="0" inline-size="0" isolation="auto" mix-blend-mode="normal" solid-color="#000000" solid-opacity="1" vector-effect="none"/><path id="path859" d="m99.700789 43.461537a5.0230999 5.0230999 0 0 0 -.726563.05859 5.0230999 5.0230999 0 0 0 -4.203125 5.726563c1.567497 10.230458-.624603 21.570112-5.847656 30.652344-5.223053 9.082231-13.243559 15.820656-23.509766 17.857421a5.0230999 5.0230999 0 0 0 -3.949218 5.904305 5.0230999 5.0230999 0 0 0 5.904297 3.94922c13.462273-2.67086 23.870145-11.585593 30.263671-22.703131 6.393531-11.117538 9.008161-24.521291 7.068361-37.181641a5.0230999 5.0230999 0 0 0 -5.000001-4.263671z" fill="#ff1414" font-variant-ligatures="normal" font-variant-position="normal" font-variant-caps="normal" font-variant-numeric="normal" font-variant-alternates="normal" font-variant-east-asian="normal" font-feature-settings="normal" font-variation-settings="normal" text-indent="0" text-align="start" text-decoration-line="none" text-decoration-style="solid" text-decoration-color="#000000" text-transform="none" text-orientation="mixed" white-space="normal" shape-padding="0" shape-margin="0" inline-size="0" isolation="auto" mix-blend-mode="normal" solid-color="#000000" solid-opacity="1" vector-effect="none"/><path id="path863" d="m35.505476 18.311146c-8.412374.054223-17.616229 3.269991-24.234375 10.769531-6.6181451 7.49954-10.43905002 19.164234-8.5312497 35.439453 2.2531354 19.221073 13.3097397 33.123504 24.9550777 40.47461 5.82267 3.67555 11.79763 5.75962 17.13086 5.98633 4.087232.17374 7.945514-.88409 10.671875-3.31836 2.726363 2.43431 6.584614 3.4921 10.671875 3.31836 5.333229-.22671 11.310144-2.31078 17.132812-5.98633 11.645337-7.351105 22.701929-21.253531 24.955079-40.47461 1.60657-13.70544-.82341-24.127038-5.60937-31.570312-4.785969-7.443275-11.861438-11.793781-19.070318-13.609375-7.20888-1.815595-14.573652-1.190275-20.371094 1.388672-3.169339 1.409856-5.835997 3.556742-7.685547 6.191406-1.224104-1.760722-2.784978-3.31725-4.648437-4.527344-4.177449-2.712753-9.611378-4.119131-15.367188-4.082031zm.0332 5.023437c4.897625-.03157 9.452436 1.227772 12.59961 3.271485 3.147173 2.043713 4.84766 4.636206 4.847656 7.841797a2.5118011 2.5118011 0 0 0 5.023438 0c-.00001-3.945323 2.638721-7.082828 7.238281-9.128907 4.59956-2.046078 10.968288-2.652611 17.103515-1.107421 6.135228 1.545189 12.014985 5.148109 16.070313 11.455078 4.055331 6.306968 6.352541 15.431621 4.847661 28.269531-2.06423 17.609463-12.206999 30.219399-22.648442 36.810544-5.220722 3.29558-10.50982 5.04021-14.664063 5.2168s-6.879033-1.01926-8.289062-3.43164a2.5118011 2.5118011 0 0 0 -4.337891 0c-1.410029 2.41238-4.134818 3.60823-8.289062 3.43164-4.154245-.17659-9.443341-1.92122-14.664063-5.2168-10.441441-6.591146-20.5842165-19.20109-22.6484345-36.810544-1.7870391-15.245021 1.7511311-25.233653 7.3085935-31.53125 5.557463-6.297597 13.343931-9.024174 20.501953-9.070313z" fill="#1a1c20" font-variant-ligatures="normal" font-variant-position="normal" font-variant-caps="normal" font-variant-numeric="normal" font-variant-alternates="normal" font-variant-east-asian="normal" font-feature-settings="normal" font-variation-settings="normal" text-indent="0" text-align="start" text-decoration-line="none" text-decoration-style="solid" text-decoration-color="#000000" text-transform="none" text-orientation="mixed" white-space="normal" shape-padding="0" shape-margin="0" inline-size="0" isolation="auto" mix-blend-mode="normal" solid-color="#000000" solid-opacity="1" vector-effect="none"/></g></g></svg>