<svg id="Layer_1" enable-background="new 0 0 512.002 512.002" height="512" viewBox="0 0 512.002 512.002" width="512" xmlns="http://www.w3.org/2000/svg"><g><g><path d="m405.043 388.533s-.259 76.103-82.833 115.967l-66.153-31-66.265 31c-82.574-39.863-82.833-115.967-82.833-115.967z" fill="#6a91cb"/><path d="m96.021 184.15 12.74-7.28c2.823-1.613 6.318.506 6.193 3.755l-6.722 174.78s82.713 60.3 98.634 99.578h98.267c15.921-39.278 98.634-99.58 98.634-99.58l-6.722-174.778c-.125-3.249 3.371-5.368 6.194-3.755l12.847 7.341 42.119-48.731 11.152-57.817-52.671-43.892c-7.664-6.387-16.672-10.961-26.351-13.381l-18.596-4.649-115.68 33.176-115.681-33.205-18.713 4.678c-9.679 2.42-18.686 6.994-26.351 13.381l-52.673 43.894 8.749 68.002z" fill="#8ec6f6"/><g fill="#6a91cb"><path d="m381.472 176.87c-2.823-1.613-6.318.506-6.194 3.755l6.722 174.778s-82.713 60.302-98.634 99.58h21.769c15.921-39.278 98.634-99.58 98.634-99.58l-6.52-169.518z"/><path d="m469.357 77.672.01-.002-52.679-43.899c-7.664-6.387-16.672-10.961-26.351-13.381l-18.596-4.649-10.138 2.908 6.966 1.741c9.679 2.42 18.687 6.994 26.351 13.381l71.425 59.52z"/></g><g fill="#b9e4ef"><path d="m256.059 123.467c61.276 0 111.452-47.525 115.678-107.726l-32.96-8.24-82.718 41.417-82.834-41.418-32.846 8.211-.001.001c4.213 60.215 54.395 107.755 115.681 107.755z"/><path d="m42.641 77.665-25.003 20.835c-5.906 4.922-7.65 13.26-4.212 20.136l28.168 56.337c8.507 17.013 29.559 23.387 46.074 13.95l8.245-4.711z"/><path d="m494.363 98.5-25.002-20.835-53.273 106.547 8.245 4.711c16.515 9.437 37.568 3.063 46.074-13.95l28.168-56.337c3.438-6.876 1.694-15.214-4.212-20.136z"/></g><path d="m338.892 7.5c0 45.748-37.086 82.833-82.833 82.833s-82.834-37.085-82.834-82.833h66.266l16.566 16.567 16.569-16.567z" fill="#6a91cb"/><path d="m264.625 40.633h-17.133c-4.418 0-8-3.582-8-8v-25.133h33.133v25.133c0 4.419-3.581 8-8 8z" fill="#f9f6f6"/><path d="m263.227 188.911c-3.399 2.953-5.786 6.588-7.168 10.498-1.382-3.91-3.769-7.545-7.168-10.498-9.306-8.085-23.446-8.022-32.684.142-10.839 9.579-11.222 26.15-1.149 36.223l35.143 35.143c3.235 3.235 8.48 3.235 11.714 0l35.143-35.143c10.074-10.074 9.691-26.644-1.149-36.223-9.236-8.164-23.377-8.227-32.682-.142z" fill="#f9f6f6"/><path d="m295.91 189.053c-7.773-6.869-19.008-7.98-27.923-3.349 1.742.904 3.403 2.006 4.923 3.349 10.839 9.58 11.222 26.15 1.149 36.223l-29.5 29.5 5.643 5.643c3.235 3.235 8.48 3.235 11.714 0l35.143-35.143c10.074-10.074 9.691-26.644-1.149-36.223z" fill="#f9f6f6"/><path d="m305.874 405.583h-99.746c-24.004-30.435-58.91-49.743-97.831-50.176l-.066.052-1.272 33.073c39.714 0 73.987 27.172 89.909 66.449h118.267c15.921-39.278 50.195-66.449 89.909-66.449l-1.271-33.051-.067-.075c-38.922.434-73.828 19.742-97.832 50.177z" fill="#b9e4ef"/><g><path d="m277.022 388.533h-41.927c-16.489 0-30.468 12.125-32.8 28.448l-12.503 87.519h132.533l-12.503-87.519c-2.331-16.323-16.311-28.448-32.8-28.448z" fill="#b9e4ef"/><path d="m309.823 416.981c-2.332-16.323-16.312-28.448-32.8-28.448h-22.86c16.489 0 30.468 12.125 32.8 28.448l12.503 87.519h22.86z" fill="#93d8e4"/></g><path d="m494.363 98.5-25.002-20.835-6.403 12.805 9.637 8.03c5.906 4.922 7.65 13.26 4.212 20.136l-28.168 56.337c-4.035 8.07-10.896 13.741-18.753 16.471 15.413 5.386 32.944-1.316 40.522-16.471l28.168-56.337c3.437-6.876 1.693-15.214-4.213-20.136z" fill="#93d8e4"/></g><g><path d="m300.877 183.433c-12.091-10.686-30.39-10.764-42.569-.184-.785.683-1.536 1.4-2.249 2.15-.713-.75-1.464-1.468-2.249-2.149-12.179-10.582-30.479-10.502-42.569.183-6.78 5.992-10.667 14.256-10.945 23.27-.274 8.889 3.174 17.591 9.459 23.877l35.144 35.144c3.077 3.076 7.118 4.614 11.16 4.614s8.084-1.538 11.162-4.614l35.142-35.144c6.286-6.286 9.734-14.988 9.461-23.877-.279-9.014-4.167-17.278-10.947-23.27zm-9.122 36.54-35.142 35.143c-.306.304-.804.307-1.109 0l-35.143-35.144c-3.42-3.42-5.222-7.969-5.073-12.808.149-4.833 2.239-9.27 5.886-12.491 3.205-2.833 7.332-4.251 11.46-4.251 4.075 0 8.151 1.382 11.337 4.15 2.321 2.018 4.008 4.484 5.015 7.335 1.059 2.997 3.892 5.002 7.071 5.002h.001c3.179 0 6.013-2.004 7.071-5.002 1.008-2.851 2.695-5.318 5.016-7.334 6.414-5.575 16.431-5.531 22.798.1 3.647 3.223 5.737 7.658 5.886 12.491.15 4.839-1.652 9.387-5.074 12.809z"/><path d="m499.165 92.738-77.676-64.729c-8.482-7.068-18.626-12.219-29.333-14.895l-50.878-12.72c-.751-.252-1.551-.394-2.386-.394h-165.667c-.622 0-1.223.084-1.801.227-.002 0-51.577 12.887-51.577 12.887-10.708 2.677-20.852 7.827-29.334 14.895l-77.676 64.729c-8.622 7.186-11.138 19.214-6.119 29.252l28.168 56.337c5.046 10.091 13.771 17.448 24.57 20.718 10.798 3.27 22.139 1.987 31.933-3.61l15.838-9.05-7.764 201.86c-.002.053-.006.261-.005.314.003.84.195 20.854 11.068 45.987 9.982 23.074 31.271 55.113 76.005 76.708 1.051.508 2.162.748 3.255.748.009 0 132.452-.002 132.464-.002l.076-.004c1.058-.016 2.129-.251 3.145-.742 44.733-21.595 66.022-53.634 76.005-76.708 10.872-25.133 11.065-45.147 11.067-45.987 0-.055-.004-.263-.006-.314l-7.764-201.86 15.839 9.05c9.794 5.597 21.134 6.881 31.933 3.61 10.799-3.269 19.524-10.627 24.57-20.718l28.168-56.337c5.02-10.038 2.504-22.066-6.118-29.252zm-243.106 5.095c46.598 0 85.065-35.467 89.833-80.823l17.738 4.435c-6.885 53.485-52.968 94.522-107.571 94.522-54.617 0-100.703-41.05-107.574-94.55l17.737-4.435c4.755 45.37 43.229 80.851 89.837 80.851zm9.066-82.833v17.634c0 .275-.225.5-.5.5h-17.133c-.276 0-.5-.225-.5-.5v-17.634zm-33.133 0v17.634c0 8.547 6.953 15.5 15.5 15.5h17.133c8.547 0 15.5-6.953 15.5-15.5v-17.634h50.896c-3.775 38.031-35.954 67.833-74.963 67.833s-71.188-29.802-74.963-67.833zm-168.189 169.689c-6.812-2.063-12.317-6.704-15.5-13.07l-28.168-56.337c-1.891-3.781-.943-8.313 2.305-11.02l17.728-14.773 45.865 91.731-2.085 1.192c-6.179 3.529-13.333 4.34-20.145 2.277zm333.459 196.667c-18.063 1.503-35.419 8.231-50.61 19.684-10.597 7.989-19.815 18.022-27.301 29.604l-2.103-14.724c-.465-3.253-1.323-6.371-2.509-9.318 21.56-25.479 50.85-40.973 81.827-43.368zm-98.29 27.161c.211.497.48.972.8 1.419.699 1.344 1.281 2.757 1.735 4.23h-90.897c3.258-10.565 13.156-18.134 24.485-18.134h41.927c9.181.001 17.416 4.98 21.95 12.485zm-104.102 7.403-2.125 14.873c-7.503-11.644-16.753-21.73-27.395-29.753-15.191-11.452-32.547-18.181-50.61-19.684l.697-18.122c31.013 2.398 60.336 17.925 81.904 43.458-1.167 2.921-2.011 6.009-2.471 9.228zm-70.307 13.289c-5.892-13.427-8.348-25.303-9.373-32.715 31.393 3.386 59.68 25.923 73.956 59.491l-5.283 36.981c-27.547-15.396-47.472-36.803-59.3-63.757zm73.876 67.791 9.69-67.833h95.857l9.692 67.833zm129.804-4.11-5.301-37.107c14.303-33.457 42.539-55.91 73.869-59.289-2.607 18.695-14.505 66.009-68.568 96.396zm66.906-322.379c-3.615 2.192-5.76 6.178-5.597 10.402l6.435 167.317c-33.789 2.452-65.743 18.6-89.742 45.295-7.46-7.723-17.896-12.492-29.223-12.492h-41.927c-11.357 0-21.818 4.795-29.282 12.555-24.006-26.732-55.982-42.904-89.799-45.358l6.435-167.317c.162-4.225-1.982-8.211-5.598-10.402-3.615-2.192-8.141-2.252-11.812-.152l-5.964 3.408-47.069-94.144 48.109-40.091c6.757-5.631 14.838-9.733 23.369-11.865l10.352-2.588c3.951 27.719 17.194 53.222 37.854 72.566 22.95 21.488 52.913 33.322 84.369 33.322 31.45 0 61.409-11.83 84.358-33.313 20.658-19.338 33.904-44.834 37.86-72.548l10.241 2.56c8.53 2.132 16.611 6.234 23.368 11.865l48.109 40.091-47.071 94.143-5.964-3.408c-3.67-2.097-8.196-2.038-11.811.154zm96.718-55.23-28.168 56.337c-3.184 6.366-8.688 11.008-15.5 13.07-6.811 2.064-13.965 1.255-20.145-2.277l-2.085-1.191 45.865-91.731 17.728 14.773c3.249 2.707 4.196 7.238 2.305 11.019z"/></g></g></svg>