<svg id="Layer_3" height="512" viewBox="0 0 64 64" width="512" xmlns="http://www.w3.org/2000/svg" data-name="Layer 3"><path d="m52 21.538v-19.538h-11.306a2 2 0 0 0 -1.973 1.671l-1.721 10.329h2a14.983 14.983 0 0 1 13 7.538z" fill="#668cbe"/><path d="m39 14a14.923 14.923 0 0 1 8.187 2.44l4.813-14.44h-11.306a2 2 0 0 0 -1.973 1.671l-1.569 10.329z" fill="#4472b0"/><path d="m25 14h2l-1.721-10.329a2 2 0 0 0 -1.973-1.671h-11.306v19.538a14.983 14.983 0 0 1 13-7.538z" fill="#668cbe"/><path d="m25 14h1.848l-1.569-10.329a2 2 0 0 0 -1.973-1.671h-11.306l4.813 14.44a14.923 14.923 0 0 1 8.187-2.44z" fill="#4472b0"/><path d="m10 62v-33a15 15 0 0 1 15-15h14a15 15 0 0 1 15 15v33z" fill="#f5b95b"/><path d="m25 14h2v-3a2 2 0 0 1 2-2h6a2 2 0 0 1 2 2v3h2a14.99 14.99 0 0 1 2 .149v-3.149a6 6 0 0 0 -6-6h-6a6 6 0 0 0 -6 6v3.149a14.99 14.99 0 0 1 2-.149z" fill="#668cbe"/><path d="m39 14h-12a15 15 0 0 0 -15 15v33h42v-33a15 15 0 0 0 -15-15z" fill="#f9d18f"/><path d="m24 20h16a10 10 0 0 1 10 10v32a0 0 0 0 1 0 0h-36a0 0 0 0 1 0 0v-32a10 10 0 0 1 10-10z" fill="#4472b0"/><path d="m40 20h-16a9.962 9.962 0 0 0 -7 2.864v13.69a22.447 22.447 0 0 0 22.446 22.446h10.554v-29a10 10 0 0 0 -10-10z" fill="#668cbe"/><path d="m14 36h-10v22a4 4 0 0 0 4 4h6z" fill="#f5b95b"/><path d="m7 51.9a7.1 7.1 0 0 0 7 7.1v-23h-7z" fill="#f9d18f"/><rect fill="#f5b95b" height="22" rx="3" width="28" x="18" y="36"/><path d="m30 20h4v6h-4z" fill="#fff"/><path d="m4 36h10v6h-10z" fill="#4472b0"/><path d="m7 36h7v6h-7z" fill="#668cbe"/><path d="m46 55v-16a3 3 0 0 0 -3-3h-22a3 3 0 0 0 -3 3v4.2a22.5 22.5 0 0 0 14.8 14.8h10.2a3 3 0 0 0 3-3z" fill="#f9d18f"/><path d="m43 36h-22a3 3 0 0 0 -3 3v3h28v-3a3 3 0 0 0 -3-3z" fill="#f5b95b"/><path d="m22 42h4v4h-4z" fill="#fff"/><path d="m50 36h10v22a4 4 0 0 1 -4 4h-6z" fill="#f5b95b"/><path d="m53 51.339a7.66 7.66 0 0 0 6.871 7.62 3.933 3.933 0 0 0 .129-.959v-22h-7z" fill="#f9d18f"/><path d="m50 36h10v6h-10z" fill="#4472b0"/><path d="m53 36h7v6h-7z" fill="#668cbe"/><path d="m60 35h-5v-6a15.9 15.9 0 0 0 -2-7.729v-19.271a1 1 0 0 0 -1-1h-11.306a2.991 2.991 0 0 0 -2.959 2.507l-.164.988a6.958 6.958 0 0 0 -2.571-.495h-6a6.958 6.958 0 0 0 -2.571.5l-.164-.988a2.991 2.991 0 0 0 -2.959-2.512h-11.306a1 1 0 0 0 -1 1v19.271a15.9 15.9 0 0 0 -2 7.729v6h-5a1 1 0 0 0 -1 1v22a5.006 5.006 0 0 0 5 5h48a5.006 5.006 0 0 0 5-5v-22a1 1 0 0 0 -1-1zm-1 6h-8v-4h8zm-28-20h2v4h-2zm-1 6h4a1 1 0 0 0 1-1v-5h5a9.011 9.011 0 0 1 9 9v31h-34v-31a9.011 9.011 0 0 1 9-9h5v5a1 1 0 0 0 1 1zm18.111-11.136 2.889-8.09v10.679a16.162 16.162 0 0 0 -2.889-2.589zm-8.4-12.028a1 1 0 0 1 .983-.836h9.887l-4.218 11.81a15.825 15.825 0 0 0 -4.363-1.518v-2.292a6.989 6.989 0 0 0 -2.582-5.424zm-4.711 2.164a5.006 5.006 0 0 1 5 5v2.051c-.332-.021-.662-.051-1-.051h-1v-2a3 3 0 0 0 -3-3h-6a3 3 0 0 0 -3 3v2h-1c-.338 0-.668.03-1 .051v-2.051a5.006 5.006 0 0 1 5-5zm1 7h-8v-2a1 1 0 0 1 1-1h6a1 1 0 0 1 1 1zm-11.708-9.164.29 1.74a6.989 6.989 0 0 0 -2.582 5.424v2.292a15.825 15.825 0 0 0 -4.363 1.518l-4.218-11.81h9.887a1 1 0 0 1 .986.836zm-11.292 3.938 2.889 8.09a16.162 16.162 0 0 0 -2.889 2.589zm-2 21.226a14.015 14.015 0 0 1 14-14h14a14.015 14.015 0 0 1 14 14v6h-2v-5a11.013 11.013 0 0 0 -11-11h-16a11.013 11.013 0 0 0 -11 11v5h-2zm2 8v4h-8v-4zm-8 21v-15h8v18h-5a3 3 0 0 1 -3-3zm51 3h-5v-18h8v15a3 3 0 0 1 -3 3z"/><path d="m17 39v16a4 4 0 0 0 4 4h22a4 4 0 0 0 4-4v-16a4 4 0 0 0 -4-4h-22a4 4 0 0 0 -4 4zm26 18h-22a2 2 0 0 1 -2-2v-12h2v3a1 1 0 0 0 1 1h4a1 1 0 0 0 1-1v-3h18v12a2 2 0 0 1 -2 2zm-20-14h2v2h-2zm22-4v2h-26v-2a2 2 0 0 1 2-2h22a2 2 0 0 1 2 2z"/></svg>