<?xml version="1.0" encoding="UTF-8"?>
<svg xmlns="http://www.w3.org/2000/svg" id="Layer_3" data-name="Layer 3" viewBox="0 0 64 64" width="512" height="512"><path d="M23.915,11.716l-2.06-6.865A4,4,0,0,0,18.024,2H12V30A19.993,19.993,0,0,1,23.915,11.716Z" style="fill:#f9d18f"/><path d="M32,10h0A20,20,0,0,1,52,30V58a4,4,0,0,1-4,4H16a4,4,0,0,1-4-4V30A20,20,0,0,1,32,10Z" style="fill:#4472b0"/><path d="M45.976,2a4,4,0,0,0-3.831,2.851l-2.06,6.865A19.993,19.993,0,0,1,52,30V2Z" style="fill:#f9d18f"/><path d="M47.048,16.855,52,2H45.976a4,4,0,0,0-3.831,2.851l-2.06,6.865A20.025,20.025,0,0,1,47.048,16.855Z" style="fill:#f5b95b"/><path d="M23.915,11.716l-2.06-6.865A4,4,0,0,0,18.024,2H12l4.952,14.855A20.025,20.025,0,0,1,23.915,11.716Z" style="fill:#f5b95b"/><path d="M32,10a19.968,19.968,0,0,0-17,9.5V30.571A28.429,28.429,0,0,0,43.429,59h8.43A3.977,3.977,0,0,0,52,58V30A20,20,0,0,0,32,10Z" style="fill:#668cbe"/><rect x="16" y="38" width="32" height="20" rx="3" style="fill:#f5b95b"/><path d="M45,38H19a2.988,2.988,0,0,0-2.57,1.474A28.48,28.48,0,0,0,35.954,58H45a3,3,0,0,0,3-3V41A3,3,0,0,0,45,38Z" style="fill:#f9d18f"/><path d="M45,38H19a3,3,0,0,0-3,3v3H48V41A3,3,0,0,0,45,38Z" style="fill:#f9d18f"/><rect x="25" y="20" width="14" height="7" rx="2" style="fill:#78b3e1"/><path d="M20,44v4a2,2,0,0,0,2,2h0a2,2,0,0,0,2-2V44Z" style="fill:#4472b0"/><path d="M45,38H19a2.988,2.988,0,0,0-2.57,1.474A28.247,28.247,0,0,0,18.369,44H48V41A3,3,0,0,0,45,38Z" style="fill:#fce6c2"/><path d="M20,46.642A28.427,28.427,0,0,0,22.594,49.9,1.994,1.994,0,0,0,24,48V44H20Z" style="fill:#668cbe"/><path d="M45,37H19a4,4,0,0,0-4,4V55a4,4,0,0,0,4,4H45a4,4,0,0,0,4-4V41A4,4,0,0,0,45,37ZM19,39H45a2,2,0,0,1,2,2v2H17V41A2,2,0,0,1,19,39Zm2,6h2v3a1,1,0,0,1-2,0ZM45,57H19a2,2,0,0,1-2-2V45h2v3a3,3,0,0,0,6,0V45H47V55A2,2,0,0,1,45,57Z"/><path d="M27,28H37a3,3,0,0,0,3-3V22a3,3,0,0,0-3-3H27a3,3,0,0,0-3,3v3A3,3,0,0,0,27,28Zm-1-6a1,1,0,0,1,1-1H37a1,1,0,0,1,1,1v3a1,1,0,0,1-1,1H27a1,1,0,0,1-1-1Z"/><path d="M52,1H45.976a4.969,4.969,0,0,0-4.789,3.563L39.7,9.528,38.324,3.349A2.982,2.982,0,0,0,35.4,1H28.6a2.982,2.982,0,0,0-2.928,2.349L24.3,9.529l-1.49-4.966A4.969,4.969,0,0,0,18.024,1H12a1,1,0,0,0-1,1V58a5.006,5.006,0,0,0,5,5H48a5.006,5.006,0,0,0,5-5V2A1,1,0,0,0,52,1ZM43.1,5.138A2.98,2.98,0,0,1,45.976,3h4.636L46.626,14.961a21.089,21.089,0,0,0-5.34-3.768ZM27.628,3.783A.994.994,0,0,1,28.6,3H35.4a.994.994,0,0,1,.976.783L37.711,9.81a20.538,20.538,0,0,0-11.422,0ZM18.024,3A2.98,2.98,0,0,1,20.9,5.138l1.817,6.055a21.089,21.089,0,0,0-5.34,3.768L13.388,3ZM13,8.163l2.822,8.464A21.023,21.023,0,0,0,13,21.114ZM51,58a3,3,0,0,1-3,3H16a3,3,0,0,1-3-3V30a19,19,0,0,1,38,0Zm0-36.886a21.023,21.023,0,0,0-2.822-4.487L51,8.163Z"/></svg>
