<?xml version="1.0" encoding="iso-8859-1"?>
<!-- Generator: Adobe Illustrator 19.0.0, SVG Export Plug-In . SVG Version: 6.00 Build 0)  -->
<svg xmlns="http://www.w3.org/2000/svg" xmlns:xlink="http://www.w3.org/1999/xlink" version="1.1" id="Layer_1" x="0px" y="0px" viewBox="0 0 434.56 434.56" style="enable-background:new 0 0 434.56 434.56;" xml:space="preserve" width="512" height="512">
<g>
	<circle style="fill:#0071CE;" cx="217.279" cy="217.281" r="209.78"/>
	<circle style="fill:#E8E8E8;" cx="217.279" cy="217.281" r="209.78"/>
	<g>
		<path style="fill:#00B3E3;" d="M217.279,7.501c-31.97,0-62.262,7.164-89.379,19.955c94.548-6.881,175.748,30.945,218.084,88.311    l0.002,0.006c6.819-15.469,12.042-32.537,15.255-51.063C323.673,29.247,273.018,7.501,217.279,7.501z"/>
		<path style="fill:#00B3E3;" d="M301.898,178.257C254.19,113.536,157.027,73.655,47.021,94.723    c-15.815,21.932-27.496,47.038-33.905,74.185c87.882-32.288,169.337-2.957,204.164,48.373    c29.157-2.119,59.264-15.648,84.621-39.02L301.898,178.257z"/>
	</g>
	<g>
		<path style="fill:#0071CE;" d="M398.955,322.17c15.985-27.688,24.927-57.504,27.408-87.383    c-41.315,85.322-114.673,136.73-185.522,144.712l-0.007-0.001c9.987,13.639,22.158,26.697,36.596,38.742    C326.924,403.437,371.086,370.44,398.955,322.17z"/>
		<path style="fill:#0071CE;" d="M208.766,310.074c79.904-8.957,163.023-73.162,199.782-178.964    c-11.087-24.662-26.988-47.332-47.294-66.455c-15.978,92.253-82.107,148.13-143.975,152.625    c-12.743,26.311-16.08,59.147-8.518,92.794H208.766z"/>
	</g>
	<g>
		<path style="fill:#0071CE;" d="M35.606,322.17c15.984,27.688,37.336,50.339,61.972,67.428    c-53.233-78.441-61.075-167.675-32.563-233.022l0.004-0.006c-16.805,1.83-34.199,5.842-51.85,12.322    C1.243,219.157,7.737,273.899,35.606,322.17z"/>
		<path style="fill:#FFC843;" d="M65.014,156.578c-28.512,65.347-20.669,154.579,32.563,233.019l0,0    c29.384,20.382,63.446,32.832,98.694,36.409c-73.25-84.734-87.291-188.819-55.098-262.497l0.002-0.003    c-22.885-7.143-48.744-9.92-76.158-6.938L65.014,156.578z"/>
		<path style="fill:#0071CE;" d="M141.174,163.51c-32.193,73.678-18.15,177.763,55.098,262.499c26.9,2.729,54.484,0.293,81.198-7.73    c-71.903-59.965-87.231-145.172-60.19-200.998c-16.413-24.191-43.184-43.5-76.104-53.773L141.174,163.51z"/>
	</g>
	<path d="M370.919,63.64C329.88,22.601,275.316,0,217.279,0c-58.037,0-112.6,22.602-153.639,63.641   c-41.039,41.039-63.64,95.602-63.64,153.638c0,58.037,22.601,112.602,63.64,153.64c41.038,41.039,95.601,63.641,153.639,63.642   c58.038,0,112.601-22.602,153.64-63.641c41.039-41.039,63.64-95.603,63.64-153.64C434.559,159.242,411.958,104.679,370.919,63.64z    M400.446,131.509c-17.11,47.763-44.895,89.109-80.498,119.712c-31.556,27.124-68.671,44.888-105.229,50.493   c-5.014-27.642-2.405-54.59,7.572-77.37c31.91-3.485,63.519-19.394,89.468-45.145c26.309-26.107,44.807-60.164,53.995-99.141   C379.797,95.243,391.545,112.577,400.446,131.509z M217.279,15c52.23,0,99.899,19.899,135.827,52.513   c-2.237,11.639-5.335,22.838-9.249,33.512c-39.585-46.615-102.016-75.76-171.441-81.002C186.851,16.741,201.865,15,217.279,15z    M129.965,34.835c84.666-5.72,163.532,25.511,207.349,81.914c-8.849,18.946-20.483,35.896-34.618,50.279   c-25.039-30.977-60.257-55.016-102.393-69.788C158.396,82.549,112,78.134,65.043,84.237   C83.027,63.684,105.091,46.788,129.965,34.835z M51.492,101.526c49.893-9.048,99.565-5.654,143.848,9.869   c39.268,13.766,73.21,37.027,96.343,65.885c-21.432,18.163-46.074,29.377-70.791,32.127c-18.974-25.892-48.555-45.313-83.83-54.908   c-35.808-9.74-74.604-8.719-112.999,2.852C30.32,137.221,39.651,118.434,51.492,101.526z M15.001,217.278   c0-14.648,1.58-28.934,4.552-42.707c11.234-3.901,22.52-6.83,33.759-8.783C32.776,223.259,38.68,291.739,68.696,354.38   C35.386,318.308,15.001,270.132,15.001,217.278z M102.846,383.982c-47.215-70.434-59.565-154.284-32.645-220.39   c20.832-1.81,41.328-0.209,60.852,4.84c-14.306,37.174-17.516,79.693-9.24,123.568c8.24,43.69,27.65,86.125,56.469,123.771   C150.735,410.369,125.178,399.36,102.846,383.982z M217.279,419.56c-5.822,0-11.583-0.262-17.282-0.746   c-32.819-38.705-54.741-83.449-63.444-129.592c-7.712-40.89-4.539-81.915,8.884-116.378c26.446,9.48,48.479,25.213,63.219,45.243   c-12.936,29.378-14.964,64.706-5.637,100.053c9.467,35.881,29.75,68.967,58.968,96.432   C247.599,417.83,232.638,419.56,217.279,419.56z M279.155,409.868c-8.994-7.779-17.172-16.087-24.482-24.842   c60.16-10.975,116.618-50.465,155.867-107.966C391.061,339.903,341.705,389.724,279.155,409.868z M244.326,371.497   c-11.983-17.137-20.845-35.688-26.235-55.12c39.346-6.196,77.774-24.676,111.635-53.781c33.716-28.98,60.76-67.007,78.954-110.788   c7.047,20.545,10.88,42.568,10.88,65.472c0,5.23-0.2,10.416-0.592,15.548C381.596,309.043,315.099,361.749,244.326,371.497z"/>
</g>















</svg>
