<?xml version="1.0" encoding="iso-8859-1"?>
<!-- Generator: Adobe Illustrator 19.0.0, SVG Export Plug-In . SVG Version: 6.00 Build 0)  -->
<svg xmlns="http://www.w3.org/2000/svg" xmlns:xlink="http://www.w3.org/1999/xlink" version="1.1" id="Layer_1" x="0px" y="0px" viewBox="0 0 434.559 434.559" style="enable-background:new 0 0 434.559 434.559;" xml:space="preserve" width="512" height="512">
<g>
	<circle style="fill:#E8E8E8;" cx="217.279" cy="217.279" r="209.779"/>
	<path style="fill:#D5D6D8;" d="M425.383,243.719c-49.305-12.148-103.574,1.037-142.101,39.563   c-38.526,38.526-51.713,92.796-39.564,142.102c44.567-5.631,87.675-25.546,121.897-59.769   C399.838,331.393,419.753,288.285,425.383,243.719z"/>
	<path style="fill:#D5D6D8;" d="M190.84,9.174c12.148,49.307-1.037,103.574-39.564,142.102   C112.748,189.803,58.48,202.988,9.174,190.84c5.631-44.567,25.545-87.674,59.768-121.897   C103.165,34.72,146.273,14.805,190.84,9.174z"/>
	<g>
		<path d="M370.919,63.639C329.88,22.601,275.316,0,217.278,0C159.24,0,104.677,22.601,63.639,63.639    C22.601,104.678,0,159.241,0,217.279c0,58.037,22.601,112.601,63.639,153.64c41.039,41.038,95.602,63.64,153.641,63.64    c58.037,0,112.601-22.602,153.64-63.64c41.038-41.039,63.64-95.603,63.64-153.64C434.559,159.241,411.957,104.678,370.919,63.639z     M74.246,74.246c30.485-30.485,68.99-50.027,110.756-56.687c4.208,21.412,3.486,43.658-2.181,64.755    c-6.441,23.979-19.184,45.992-36.85,63.657c-17.665,17.666-39.678,30.408-63.657,36.85c-21.058,5.656-43.263,6.387-64.641,2.203    C24.177,144.439,43.025,105.467,74.246,74.246z M360.312,360.311c-30.484,30.485-68.99,50.027-110.755,56.686    c-4.208-21.412-3.486-43.657,2.181-64.756c6.441-23.979,19.184-45.991,36.849-63.656c17.664-17.665,39.676-30.406,63.653-36.848    c21.063-5.657,43.267-6.389,64.645-2.204C410.381,290.119,391.532,329.091,360.312,360.311z M348.348,237.252    c-26.514,7.123-50.847,21.206-70.369,40.726c-19.521,19.523-33.605,43.857-40.727,70.372c-6.166,22.955-7.037,47.141-2.622,70.464    c-5.739,0.484-11.524,0.744-17.35,0.744c-54.031,0-104.828-21.041-143.033-59.247c-43.835-43.836-63.292-102.948-58.4-160.357    c9.687,1.827,19.52,2.751,29.353,2.75c13.812,0,27.62-1.8,41.008-5.396c26.516-7.122,50.851-21.206,70.373-40.729    c19.522-19.523,33.605-43.857,40.729-70.373c6.166-22.955,7.037-47.139,2.623-70.462C205.669,15.26,211.453,15,217.278,15    c54.031,0,104.828,21.041,143.033,59.246c43.837,43.836,63.294,102.951,58.4,160.362    C395.419,230.214,371.269,231.094,348.348,237.252z"/>
	</g>
	<g>
		<path style="fill:#FF6361;" d="M296.711,304.211c-1.919,0-3.839-0.732-5.304-2.196l-26.857-26.857    c-2.929-2.93-2.929-7.678,0-10.607c2.93-2.928,7.678-2.928,10.607,0l26.857,26.857c2.929,2.93,2.929,7.678,0,10.607    C300.55,303.478,298.63,304.211,296.711,304.211z"/>
		<path style="fill:#FF6361;" d="M340.923,275.119c-2.982,0-5.802-1.79-6.971-4.73l-14.039-35.29    c-1.531-3.849,0.348-8.21,4.196-9.741c3.848-1.529,8.211,0.347,9.741,4.196l14.039,35.29c1.531,3.849-0.348,8.21-4.196,9.741    C342.784,274.947,341.846,275.119,340.923,275.119z"/>
		<path style="fill:#FF6361;" d="M393.039,265.889c-0.071,0-0.143-0.001-0.215-0.003c-4.141-0.116-7.402-3.567-7.286-7.708    l1.068-37.965c0.116-4.14,3.55-7.396,7.708-7.286c4.141,0.116,7.402,3.567,7.286,7.708l-1.068,37.965    C400.418,262.668,397.083,265.889,393.039,265.889z"/>
		<path style="fill:#FF6361;" d="M267.615,348.424c-0.923,0-1.861-0.171-2.771-0.533l-35.29-14.04    c-3.849-1.531-5.728-5.893-4.196-9.741c1.531-3.85,5.896-5.728,9.741-4.196l35.29,14.04c3.849,1.531,5.727,5.893,4.196,9.741    C273.417,346.634,270.597,348.424,267.615,348.424z"/>
		<path style="fill:#FF6361;" d="M220.42,401.603c-4.045,0-7.379-3.221-7.493-7.289c-0.116-4.141,3.145-7.592,7.286-7.708    l37.965-1.068c0.071-0.002,0.143-0.003,0.215-0.003c4.045,0,7.379,3.221,7.493,7.289c0.116,4.141-3.146,7.592-7.286,7.708    l-37.965,1.068C220.564,401.603,220.491,401.603,220.42,401.603z"/>
	</g>
	<g>
		<path style="fill:#FF6361;" d="M164.703,172.203c-1.919,0-3.839-0.732-5.304-2.196l-26.855-26.855    c-2.929-2.93-2.929-7.678,0-10.607c2.93-2.928,7.678-2.928,10.607,0l26.855,26.855c2.929,2.93,2.929,7.678,0,10.607    C168.542,171.471,166.622,172.203,164.703,172.203z"/>
		<path style="fill:#FF6361;" d="M202.229,115.178c-0.923,0-1.861-0.171-2.771-0.533l-35.289-14.039    c-3.849-1.531-5.728-5.893-4.196-9.741c1.53-3.85,5.896-5.729,9.741-4.196l35.289,14.039c3.849,1.531,5.727,5.893,4.196,9.741    C208.03,113.388,205.21,115.178,202.229,115.178z"/>
		<path style="fill:#FF6361;" d="M176.165,49.022c-4.045,0-7.379-3.221-7.493-7.289c-0.116-4.141,3.145-7.592,7.286-7.708    l37.964-1.067c4.188-0.116,7.592,3.146,7.708,7.286c0.116,4.141-3.145,7.592-7.286,7.708L176.38,49.02    C176.308,49.021,176.236,49.022,176.165,49.022z"/>
		<path style="fill:#FF6361;" d="M107.678,209.732c-2.982,0-5.802-1.79-6.971-4.73l-14.039-35.289    c-1.531-3.849,0.348-8.21,4.196-9.741c3.847-1.529,8.21,0.347,9.741,4.196l14.039,35.289c1.531,3.849-0.348,8.21-4.196,9.741    C109.539,209.561,108.601,209.732,107.678,209.732z"/>
		<path style="fill:#FF6361;" d="M40.458,221.634c-0.071,0-0.143-0.001-0.215-0.003c-4.141-0.116-7.402-3.567-7.286-7.708    l1.067-37.964c0.116-4.14,3.52-7.395,7.708-7.286c4.141,0.116,7.402,3.567,7.286,7.708l-1.067,37.964    C47.837,218.413,44.502,221.634,40.458,221.634z"/>
	</g>
</g>















</svg>
