<?xml version="1.0" encoding="UTF-8"?>
<svg xmlns="http://www.w3.org/2000/svg" viewBox="0 0 64 64" width="512" height="512"><g id="Artboard_01" data-name="Artboard 01"><circle cx="32.003" cy="32.008" r="30" style="fill:#e67400"/><path d="M32,2.008A29.962,29.962,0,0,0,7.274,15.027,30,30,0,0,0,61.732,35.989,29.96,29.96,0,0,0,32,2.008Z" style="fill:#fd9903"/><path d="M44.906,22a47.475,47.475,0,0,0,4.622-9.6l1.306-3.742Q50.021,8,49.161,7.405l-.1.273-1.419,4.066a45.4,45.4,0,0,1-4.426,9.192A20.786,20.786,0,0,0,40.03,31.008H33V2.033c-.333-.011-.665-.025-1-.025s-.668.014-1,.025V31.008H23.975a20.8,20.8,0,0,0-3.182-10.072,45.408,45.408,0,0,1-4.427-9.192L14.939,7.657l-.094-.252q-.86.6-1.674,1.256L14.477,12.4A47.475,47.475,0,0,0,19.1,22a18.81,18.81,0,0,1,2.874,9.008H2.028c-.011.333-.025.665-.025,1s.014.667.025,1H21.973A18.81,18.81,0,0,1,19.1,42.016a47.475,47.475,0,0,0-4.622,9.6l-1.3,3.743q.822.664,1.692,1.269l.082-.287,1.419-4.066a45.408,45.408,0,0,1,4.427-9.192,20.8,20.8,0,0,0,3.182-10.072H31V61.983c.332.011.664.025,1,.025s.667-.014,1-.025V33.008H40.03A20.786,20.786,0,0,0,43.213,43.08a45.4,45.4,0,0,1,4.426,9.192l1.4,4.011.1.343q.87-.606,1.7-1.271l-1.306-3.742a47.475,47.475,0,0,0-4.622-9.6,18.81,18.81,0,0,1-2.874-9.008H61.977c.011-.333.026-.665.026-1s-.015-.667-.026-1H42.032A18.81,18.81,0,0,1,44.906,22Z" style="fill:#393a3a"/><path d="M31,31.008H23.975a20.8,20.8,0,0,0-3.182-10.072,45.408,45.408,0,0,1-4.427-9.192L14.939,7.657l-.094-.252q-.836.583-1.627,1.221c-.015.012-.03.026-.046.038l1.3,3.739A47.475,47.475,0,0,0,19.1,22a18.81,18.81,0,0,1,2.874,9.008H9.506q.446,1.02.964,2h11.5A18.81,18.81,0,0,1,19.1,42.016c-.15.239-.284.488-.43.73.529.409,1.068.806,1.625,1.18.168-.281.324-.569.5-.846a20.8,20.8,0,0,0,3.182-10.072H31v15.4c.658.133,1.326.238,2,.328V33.008H40.03A20.786,20.786,0,0,0,43.213,43.08a45.974,45.974,0,0,1,2.539,4.62c.642-.2,1.277-.409,1.9-.646a47.614,47.614,0,0,0-2.747-5.038,18.81,18.81,0,0,1-2.874-9.008H61.967c.012-.333.036-.664.036-1s-.015-.667-.026-1H42.032A18.81,18.81,0,0,1,44.906,22a47.475,47.475,0,0,0,4.622-9.6l1.306-3.742h0Q50.02,8,49.161,7.405l-.1.273-1.419,4.066a45.4,45.4,0,0,1-4.426,9.192A20.786,20.786,0,0,0,40.03,31.008H33V2.033c-.333-.011-.665-.025-1-.025s-.667.02-1,.031Z" style="fill:#4a4b4c"/><path d="M32,1A31,31,0,1,0,63,32,31.036,31.036,0,0,0,32,1ZM60.975,31H42.03A18.808,18.808,0,0,1,44.9,21.992a47.369,47.369,0,0,0,4.622-9.6l.953-2.728A28.955,28.955,0,0,1,60.975,31ZM33,31V3.025A28.822,28.822,0,0,1,48.805,8.388l-1.168,3.348a45.461,45.461,0,0,1-4.427,9.192A20.807,20.807,0,0,0,40.027,31Zm-2,0H23.973A20.807,20.807,0,0,0,20.79,20.928a45.461,45.461,0,0,1-4.427-9.192L15.2,8.388A28.822,28.822,0,0,1,31,3.025Zm0,2V60.975a28.822,28.822,0,0,1-15.8-5.363l1.168-3.348a45.461,45.461,0,0,1,4.427-9.192A20.807,20.807,0,0,0,23.973,33Zm2,0h7.027A20.807,20.807,0,0,0,43.21,43.072a45.461,45.461,0,0,1,4.427,9.192l1.168,3.348A28.822,28.822,0,0,1,33,60.975ZM13.522,9.667l.953,2.728a47.369,47.369,0,0,0,4.622,9.6A18.808,18.808,0,0,1,21.97,31H3.025A28.955,28.955,0,0,1,13.522,9.667ZM3.025,33H21.97A18.808,18.808,0,0,1,19.1,42.008a47.369,47.369,0,0,0-4.622,9.6l-.953,2.728A28.955,28.955,0,0,1,3.025,33ZM50.478,54.333l-.953-2.728a47.369,47.369,0,0,0-4.622-9.6A18.808,18.808,0,0,1,42.03,33H60.975A28.955,28.955,0,0,1,50.478,54.333Z"/></g></svg>
