<?xml version="1.0" encoding="iso-8859-1"?>
<!-- Generator: Adobe Illustrator 19.0.0, SVG Export Plug-In . SVG Version: 6.00 Build 0)  -->
<svg xmlns="http://www.w3.org/2000/svg" xmlns:xlink="http://www.w3.org/1999/xlink" version="1.1" id="Layer_1" x="0px" y="0px" viewBox="0 0 434.559 434.559" style="enable-background:new 0 0 434.559 434.559;" xml:space="preserve" width="512" height="512">
<circle style="fill:#A77F73;" cx="217.279" cy="217.279" r="209.779"/>
<g>
	<circle style="fill:#7C5C5B;" cx="261.051" cy="386.507" r="11.772"/>
	<circle style="fill:#7C5C5B;" cx="264.367" cy="340.279" r="11.772"/>
	<circle style="fill:#7C5C5B;" cx="339.256" cy="357.279" r="11.772"/>
	<circle style="fill:#7C5C5B;" cx="229.051" cy="405.841" r="11.772"/>
	<circle style="fill:#7C5C5B;" cx="197.613" cy="374.735" r="11.772"/>
	<circle style="fill:#7C5C5B;" cx="74.945" cy="285.636" r="11.772"/>
	<circle style="fill:#7C5C5B;" cx="370.279" cy="113.325" r="11.772"/>
	<circle style="fill:#7C5C5B;" cx="391.41" cy="248.908" r="11.772"/>
	<circle style="fill:#7C5C5B;" cx="319.255" cy="113.325" r="11.772"/>
	<circle style="fill:#7C5C5B;" cx="209.384" cy="31.324" r="11.772"/>
	<circle style="fill:#7C5C5B;" cx="85.83" cy="86.718" r="11.772"/>
	<circle style="fill:#7C5C5B;" cx="97.601" cy="122.386" r="11.772"/>
	<path d="M370.919,63.64C329.88,22.601,275.316,0,217.279,0S104.679,22.601,63.64,63.64C22.602,104.678,0,159.242,0,217.279   s22.602,112.601,63.64,153.64c41.039,41.039,95.603,63.64,153.64,63.64s112.601-22.601,153.64-63.64   c41.038-41.038,63.64-95.602,63.64-153.64S411.957,104.678,370.919,63.64z M410.75,158.203   c-47.681,11.878-87.908,44.11-109.835,88.034l-73.737-32.766l79.026-177.844C355.978,60.093,394.293,104.416,410.75,158.203z    M217.279,15c26.573,0,51.961,5.161,75.228,14.516L213.471,207.38l-73.736-32.766c17.9-45.7,14.867-97.144-8.258-140.486   C157.54,21.869,186.62,15,217.279,15z M118.148,41.013c21.046,39.317,23.921,85.979,7.866,127.505l-90.387-40.165   C53.697,91.592,82.6,61.084,118.148,41.013z M15,217.279c0-26.573,5.16-51.961,14.516-75.227l90.407,40.174   c-20.069,39.765-56.651,68.912-99.963,79.632C16.721,247.51,15,232.592,15,217.279z M23.809,276.356   c47.682-11.879,87.909-44.11,109.834-88.034l73.737,32.766l-79.025,177.843C78.581,374.466,40.266,330.143,23.809,276.356z    M217.279,419.559c-26.573,0-51.961-5.161-75.227-14.516l79.035-177.863l73.737,32.766c-17.9,45.699-14.867,97.143,8.258,140.485   C277.019,412.69,247.938,419.559,217.279,419.559z M316.41,393.546c-21.045-39.317-23.921-85.978-7.867-127.504l90.387,40.165   C380.86,342.968,351.959,373.475,316.41,393.546z M314.635,252.334c20.07-39.766,56.652-68.912,99.964-79.632   c3.239,14.348,4.96,29.265,4.96,44.578c0,26.574-5.161,51.962-14.517,75.229L314.635,252.334z"/>
</g>















</svg>
