<svg id="Filled" height="512" viewBox="0 0 512 512" width="512" xmlns="http://www.w3.org/2000/svg"><circle cx="256" cy="256" fill="#e74444" r="232"/><path d="m328 176c-59.628-54.658-169.713-85.908-220.725-98.049a232.187 232.187 0 0 0 -62.812 273.455c39.322-43.601 134.931-133.797 283.537-175.406z" fill="#e74444"/><path d="m338.44 39.093a232.212 232.212 0 0 0 -231.165 38.858c51.012 12.141 161.097 43.391 220.725 98.049 9.409-59.582 11.44-104.418 10.44-136.907z" fill="#d9dbdd"/><path d="m328 176s64.255-21.418 135.831-23.18a232.779 232.779 0 0 0 -125.391-113.727c1 32.489-1.031 77.325-10.44 136.907z" fill="#e74444"/><path d="m44.463 351.406a232.039 232.039 0 0 0 209.96 136.574c45.338-135.164 58.207-214.662 73.577-311.98-148.606 41.609-244.215 131.805-283.537 175.406z" fill="#d9dbdd"/><path d="m328 176c-15.37 97.318-28.239 176.816-73.577 311.98.527 0 1.05.02 1.577.02a231.726 231.726 0 0 0 190.774-99.972c-15.294-52.355-51.163-150.047-118.774-212.028z" fill="#e74444"/><path d="m463.831 152.82c-71.576 1.762-135.831 23.18-135.831 23.18 67.611 61.981 103.48 159.673 118.774 212.028a232.155 232.155 0 0 0 17.057-235.208z" fill="#d9dbdd"/><circle cx="328" cy="176" fill="#e0e2e5" r="64"/><path d="m256 496a240 240 0 0 0 169.706-409.706 240 240 0 0 0 -339.412 339.412 238.432 238.432 0 0 0 169.706 70.294zm-202.073-143.1c9.567-10.386 21.842-22.841 36.8-36.35a176.83 176.83 0 0 0 98.214 102.177 8 8 0 1 0 6.114-14.786 160.56 160.56 0 0 1 -91.319-98.8 607.537 607.537 0 0 1 159.3-98.105 72.321 72.321 0 0 0 45.493 38.27c-12.2 69.632-27.524 137.4-59.841 234.565a224.53 224.53 0 0 1 -194.761-126.971zm274.073-232.9a56 56 0 1 1 -56 56 56.064 56.064 0 0 1 56-56zm86.392 294.392a222.386 222.386 0 0 1 -148.814 65.394c31.5-95.439 46.629-162.724 58.744-231.879q1.827.093 3.678.093a71.588 71.588 0 0 0 40.459-12.477c37.04 53.955 59.06 116 69.557 151.1a226.912 226.912 0 0 1 -23.624 27.769zm34.984-45.181c-13.384-41.81-35.18-95.866-68.71-144.187a71.536 71.536 0 0 0 18.788-57.734 465.963 465.963 0 0 1 59.524-6.29 224.844 224.844 0 0 1 -9.6 208.213zm1.5-223.851a492.9 492.9 0 0 0 -55.109 6.332 72.266 72.266 0 0 0 -51.259-45.76c1.536-19.382 2.256-37.772 2.149-54.9a226.135 226.135 0 0 1 104.219 94.328zm-120.3-100.7c.353 18.281-.306 38.189-1.964 59.351-.2 0-.405-.016-.61-.016a71.844 71.844 0 0 0 -54.557 25.1c-50.728-27.01-109.6-44.966-148.29-54.949a224.774 224.774 0 0 1 205.419-29.481zm-232.968 52.948q5.7-5.7 11.734-10.931c36.5 8.872 100.555 27.019 155.01 55.716a71.692 71.692 0 0 0 -6.564 49.494 623.084 623.084 0 0 0 -158.546 96.133 160.31 160.31 0 0 1 -3.242-32.02 8 8 0 0 0 -16 0 175.936 175.936 0 0 0 5.511 43.772c-15.391 13.566-28.239 26.246-38.523 37.117a224.547 224.547 0 0 1 50.62-239.281z"/><path d="m94.923 207.54a7.992 7.992 0 0 0 10.213-4.867 159.466 159.466 0 0 1 28.958-50.188 8 8 0 1 0 -12.188-10.366 175.4 175.4 0 0 0 -31.85 55.208 8 8 0 0 0 4.867 10.213z"/></svg>