<svg height="512" viewBox="0 0 64 64" width="512" xmlns="http://www.w3.org/2000/svg"><g id="Artboard_20" data-name="Artboard 20"><circle cx="32.003" cy="32.008" fill="#ccc" r="30"/><path d="m14 56.008a29.866 29.866 0 0 0 18 6 31.046 31.046 0 0 0 18-6.008c-6.664-16.618-6.663-31.376 0-47.994a30 30 0 0 0 -36 0c6.666 16.62 6.666 31.38 0 48z" fill="#b5b1a5"/><path d="m32 2.008a29.972 29.972 0 0 0 -24.864 13.213c-.084.918-.136 1.847-.136 2.787a30 30 0 0 0 30 30 30.929 30.929 0 0 0 24.859-13.008c.089-.974.144-1.968.144-2.991a30 30 0 0 0 -30.003-30.001z" fill="#f2f2f2"/><path d="m18.413 41.545a29.546 29.546 0 0 0 28.22 4.8l-1.633-7.337v-12l2-10 2.814-9.138a29.966 29.966 0 0 0 -35.736.1l2.922 8.038 2 11v11z" fill="#d9d5ca"/><g fill="#b5b1a5"><path d="m13.003 17.008h8v2h-8z"/><path d="m14.003 26.008h9v2h-9z"/><path d="m14.003 36.008h9v2h-9z"/></g><path d="m13.003 44.008h9v2h-9z" fill="#a5a29a"/><path d="m41.003 26.008h9v2h-9z" fill="#b5b1a5"/><path d="m43.003 17.008h8v2h-8z" fill="#b5b1a5"/><path d="m41.003 36.008h9v2h-9z" fill="#b5b1a5"/><path d="m42.003 44.008h9v2h-9z" fill="#a5a29a"/><path d="m13.178 55.361q.793.64 1.631 1.225a.982.982 0 0 0 .122-.206c6.761-16.855 6.761-31.888 0-48.744a.965.965 0 0 0 -.131-.2q-.831.583-1.622 1.218c6.408 16.138 6.408 30.571 0 46.707z" fill="#a5a29a"/><path d="m50.827 8.655q-.789-.636-1.622-1.218a.965.965 0 0 0 -.131.2c-6.76 16.853-6.76 31.884 0 48.738a.964.964 0 0 0 .115.194c.558-.381 1.107-.781 1.642-1.2-6.412-16.141-6.413-30.575-.004-46.714z" fill="#a5a29a"/><path d="m32 1a31 31 0 0 0 0 62c14.909 0 31-11.853 31-31a31.035 31.035 0 0 0 -31-31zm-29 31a28.952 28.952 0 0 1 10.552-22.359 73.642 73.642 0 0 1 2.402 7.359h-2.954v2h3.442a59.483 59.483 0 0 1 1.213 7h-3.655v2h3.824a55.056 55.056 0 0 1 0 8h-3.824v2h3.655a59.08 59.08 0 0 1 -.979 6h-3.676v2h3.208a72.64 72.64 0 0 1 -2.656 8.359 28.952 28.952 0 0 1 -10.552-22.359zm12.211 23.624a74.8 74.8 0 0 0 3.055-9.624h3.734v-2h-3.266a60.565 60.565 0 0 0 .946-6h3.32v-2h-3.161a56.508 56.508 0 0 0 0-8h3.161v-2h-3.32a60.9 60.9 0 0 0 -1.18-7h2.5v-2h-2.968a75.988 75.988 0 0 0 -2.821-8.624 28.9 28.9 0 0 1 33.578 0 75.988 75.988 0 0 0 -2.821 8.624h-2.968v2h2.5a60.9 60.9 0 0 0 -1.18 7h-3.32v2h3.161a56.508 56.508 0 0 0 0 8h-3.161v2h3.32a60.565 60.565 0 0 0 .946 6h-3.266v2h3.734a74.7 74.7 0 0 0 3.036 9.575 29.6 29.6 0 0 1 -16.77 5.425 28.838 28.838 0 0 1 -16.789-5.376zm35.223-1.3a72.7 72.7 0 0 1 -2.642-8.324h3.208v-2h-3.676a59.08 59.08 0 0 1 -.979-6h3.655v-2h-3.824a55.056 55.056 0 0 1 0-8h3.824v-2h-3.655a59.483 59.483 0 0 1 1.213-7h3.442v-2h-2.954a73.642 73.642 0 0 1 2.4-7.359 28.952 28.952 0 0 1 10.554 22.359 28.185 28.185 0 0 1 -10.566 22.322z"/></g></svg>