<svg height="512" viewBox="0 0 64 64" width="512" xmlns="http://www.w3.org/2000/svg"><g id="Artboard_01" data-name="Artboard 01"><path d="m62 32.01a30.271 30.271 0 0 1 -12 24 30 30 0 1 1 -18-54c16.847.209 30.19 13.572 30 30z" fill="#ffc239"/><path d="m32 2.01a29.387 29.387 0 0 0 -22.737 10.377 30.02 30.02 0 0 0 28.737 38.623 29.783 29.783 0 0 0 22.7-10.41 31.175 31.175 0 0 0 1.3-8.59c.19-16.428-13.153-29.791-30-30z" fill="#ffd55d"/><path d="m62 32.01a29.343 29.343 0 0 0 -12-23.995 48.878 48.878 0 0 1 -6 34.995l1.8 6.968 8.694 1.856a30.458 30.458 0 0 0 7.506-19.824z" fill="#ffc239"/><path d="m41.5 3.6v45.473h7.068a29.93 29.93 0 0 0 7.432-4.061 29.709 29.709 0 0 0 4.7-4.412 31.175 31.175 0 0 0 1.3-8.59 29.634 29.634 0 0 0 -20.5-28.41z" fill="#ffd55d"/><path d="m49.965 7.99a30.772 30.772 0 0 0 -17.965-5.98 29.871 29.871 0 0 0 -30 30l1.749-1.9a41.11 41.11 0 0 1 33.239-12.991s7.812-5.058 13.083-8.58z" fill="#ccc"/><path d="m39.9 3.118a31.346 31.346 0 0 0 -7.9-1.108 29.387 29.387 0 0 0 -22.737 10.377 30.136 30.136 0 0 0 -.271 16.273h30.908z" fill="#f2f2f2"/><path d="m57.951 47.007a31.856 31.856 0 0 1 -23.081-11.653l-2.87-3.344-9.544-.348-5.456 5.348a42.024 42.024 0 0 0 27.765 18.09l5.235.912a29.828 29.828 0 0 0 7.951-9.005z" fill="#ccc"/><path d="m34.87 35.354-2.87-3.344-9.544-.348-5.456 5.348a42.006 42.006 0 0 0 14.212 13.219 30.1 30.1 0 0 0 6.788.781 29.851 29.851 0 0 0 15.814-4.51 31.594 31.594 0 0 1 -18.944-11.146z" fill="#f2f2f2"/><path d="m36.985 17.119a41.354 41.354 0 0 0 -28.592 8.7 29.837 29.837 0 0 0 5.652 13.242 31.488 31.488 0 0 1 9.714-5.186l8.241-1.865 2.544-5.4a22.254 22.254 0 0 0 2.441-9.491z" fill="#173e67"/><path d="m9.766 24.787c-.464.335-.923.677-1.373 1.032.45-.355.907-.697 1.373-1.032z" fill="#ffc239"/><path d="m3.753 30.106-1.753 1.904a29.855 29.855 0 0 0 4.023 14.99 47.282 47.282 0 0 1 8.022-7.941 29.837 29.837 0 0 1 -5.652-13.239 39.7 39.7 0 0 0 -4.64 4.286z" fill="#112f4d"/><g fill="#ffc239"><path d="m14.774 38.525c.206-.151.413-.3.622-.447-.209.146-.416.296-.622.447z"/><path d="m8.393 25.82v-.001z"/><path d="m15.4 38.078q.909-.635 1.847-1.207-.942.573-1.847 1.207z"/><path d="m10.018 24.605-.252.182z"/><path d="m14.774 38.525c-.244.178-.489.354-.729.537.24-.183.485-.362.729-.537z"/></g><path d="m44.011 43a48.88 48.88 0 0 0 5.994-34.985 30.729 30.729 0 0 0 -16.981-5.967l.905 1.68c3.869 7.654 4.1 16.189.619 22.877l-2.548 5.405 2.866 3.344a31.057 31.057 0 0 0 9.145 7.646z" fill="#1f5389"/><path d="m32 1a31 31 0 1 0 31 31 31.036 31.036 0 0 0 -31-31zm11.649 40.614a30.171 30.171 0 0 1 -8.024-6.922l-2.445-2.852 2.25-4.783c3.627-6.962 3.4-15.856-.625-23.814l-.059-.109a28.835 28.835 0 0 1 14.346 5.458 47.67 47.67 0 0 1 -5.443 33.022zm-12.349-10.481-7.845 1.778c-7.52 2.333-13.4 7.754-17.261 12.3a28.794 28.794 0 0 1 -3.184-12.832l1.475-1.606a40.3 40.3 0 0 1 31.43-12.711 21.157 21.157 0 0 1 -2.276 8.107zm.7-28.133c.137 0 .272.008.409.01l.623 1.158a26.778 26.778 0 0 1 2.954 11.9 42.335 42.335 0 0 0 -32.856 13.232 29.036 29.036 0 0 1 28.87-26.3zm-24.76 44.081a44.121 44.121 0 0 1 9.489-8.73 43.211 43.211 0 0 0 27.86 17.725l2.8.487a28.956 28.956 0 0 1 -40.149-9.482zm42.474 7.856-4.782-.832a41.2 41.2 0 0 1 -26.5-16.81 27.436 27.436 0 0 1 5.545-2.454l7.657-1.733 2.455 2.864a32.951 32.951 0 0 0 22.172 11.887 29.208 29.208 0 0 1 -6.547 7.078zm7.7-8.988a31.675 31.675 0 0 1 -12.014-3.363 49.654 49.654 0 0 0 6.057-32.074 28.949 28.949 0 0 1 5.963 35.437z"/></g></svg>