<svg height="512" viewBox="0 0 61 60" width="512" xmlns="http://www.w3.org/2000/svg"><g id="032---Bee" fill="none" fill-rule="evenodd"><g id="Icons" transform="translate(8)"><g fill-rule="nonzero"><path id="Shape" d="m32.27 14c-.0407738.4144571-.1109505.8254924-.21 1.23-2.4626185-.7626491-5.0222062-1.1667946-7.6-1.2-.3723959-2.1614719-1.2646845-4.20000812-2.6-5.94-1.5353234-1.96545456-3.5544842-3.49877635-5.86-4.45 5.76-5.64 17.52-2.35 16.27 10.36z" fill="#0377bc"/><path id="Shape" d="m29.2 14.5c-1.5615767-.3100068-3.14811-.4773626-4.74-.5-.3723959-2.1614719-1.2646845-4.20000812-2.6-5.94-1.5390601-1.9544589-3.5578863-3.47719133-5.86-4.42 1.3618528-1.34438675 3.1101745-2.22903755 5-2.53 6.37.89 9.22 7.25 8.2 13.39z" fill="#02a9f4"/><path id="Shape" d="m22.5 52.08c-12-.64-22.13-9.15-21.47-20 .33925526-4.2915779 2.2600757-8.3042752 5.39-11.26l18-6.76c4.181132.0355981 8.2940138 1.0638185 12 3l10 11.81c3.58 12.9-9.33 24.13-23.92 23.21z" fill="#fec108"/><path id="Shape" d="m22.5 52.08c-12-.64-21.5-8.91-21.5-19 .06740967-4.6616943 2.02323456-9.0965814 5.42-12.29l17.58-6.62c3.2904071.3406595 6.4866343 1.3008848 9.42 2.83l10 11.81c3.24 11.73-7.17 22.54-20.92 23.27z" fill="#ffdc00"/><path id="Shape" d="m30 22.5c-3.72 8.87-2.31 21 4.28 27.6-1.4265859.6006383-2.9064127 1.0660137-4.42 1.39-6.94-5.34-9.17-16.18-7.18-24.79 1.07.06 1.72.06 1.72.06.3621709-2.08811.5627657-4.2010416.6-6.32 1.1550501-2.2590492 2.7776599-4.2464054 4.76-5.83 2.3185395.4894484 4.5592849 1.2935597 6.66 2.39-.1398281-.009812-.2801719-.009812-.42 0-3.1243455-.0113055-5.7344494 2.3769396-6 5.49z" fill="#3f51b5"/><path id="Shape" d="m22.75 52.1c-2.7336033-.1219949-5.4320163-.6650505-8-1.61-6.66-6.19-8.38-18-5.06-27.07 1.6720278.9260713 3.4568418 1.6319299 5.31 2.1-3 10.98 1 22.28 7.75 26.58z" fill="#3f51b5"/></g><path id="Shape" d="m41.58 20.79-.01-.01" stroke="#000" stroke-linecap="round" stroke-linejoin="round" stroke-width="2"/><path id="Shape" d="m21.86 8.07c5 5.94 2.56 18.69 2.56 18.69s-13 0-17.92-5.89-4.24-12.09 0-15.62 10.41-3.12 15.36 2.82z" fill="#00bcd4" fill-rule="nonzero"/><path id="Shape" d="m51 23c.0131171 2.5011124-1.5266545 4.7479964-3.8639455 5.638393s-4.9817404.2375015-6.6360545-1.638393v-8c1.6543141-1.8758945 4.2987635-2.5287896 6.6360545-1.638393s3.8770626 3.1372806 3.8639455 5.638393z" fill="#cfd8dc" fill-rule="nonzero"/><path id="Shape" d="m48 23c.0002394 2.7361852-1.8507001 5.1259537-4.5 5.81-1.162657-.3024241-2.207758-.946903-3-1.85v-7.96c.7885633-.9074397 1.8351143-1.5528128 3-1.85 2.6637828.6877189 4.5185654 3.0989363 4.5 5.85z" fill="#f5f5f5" fill-rule="nonzero"/><circle id="Oval" cx="36" cy="23" fill="#f5f5f5" fill-rule="nonzero" r="6"/></g><g id="Layer_10" fill="#000" fill-rule="nonzero" transform="translate(0 -1)"><path id="Shape" d="m48.51 18.65c-1.0817264-.9225805-2.416472-1.4976014-3.83-1.65-1.1268352-.5781446-2.2930653-1.076048-3.49-1.49 0-.15.06-.31.08-.46 1.3-13.3-11-17.26-17.55-11.57-9.09-2.82-18.72 7.42-10.61 18.23-2.9165619 3.0515601-4.68375849 7.0206837-5 11.23-2.46707751-.3639306-4.71353056-1.6242228-6.31-3.54-.21435935-.2858125-.5649147-.4355548-.91961525-.3928203-.35470054.0427344-.65965883.2714531-.80000001.6-.14034119.3285469-.09474411.7070078.11961526.9928203 1.92718358 2.4271835 4.72591709 4.0059562 7.8 4.4.33 6.35 4.21 11.93 10 15.41-1.06 2.14-2.82 4.46-5.59 4.85-.5522847.0773199-.9373199.5877153-.86 1.14s.5877153.9373199 1.14.86c3.59-.51 5.78-3.29 7.06-5.87 1.5615273.7738676 3.1962664 1.3902446 4.88 1.84-.46 2.21-1.54 4.73-4 5.82-.5038981.2195504-.736144.8046314-.52 1.31.1054088.2445777.3040253.4370041.5518168.534619.2477915.0976148.5242851.092353.7681832-.014619 2.59-1.15 4.38-3.69 5.14-7.21 3.7833284.7140067 7.6724931.6493574 11.43-.19.3093853 2.0988068-.327899 4.2267502-1.74 5.81-.3921222.3921222-.3921222 1.0278778 0 1.42s1.0278778.3921222 1.42 0c1.88-1.85 2.65-4.52 2.32-7.71 1.76326-.5171693 3.4662492-1.2211609 5.08-2.1.79 1.91 1.27 4.35.06 6.5-.2761423.4804877-.1104877 1.0938576.37 1.3699999.4804877.2761424 1.0938576.1104878 1.37-.3699999 1.66-3 1-6.13-.07-8.52 6.76-4.44 10.47-11.76 8.81-19.35 2.5986426-1.0081249 4.351545-3.4619085 4.4626741-6.2470313.1111291-2.7851229-1.4406953-5.3707683-3.950754-6.5827352-2.5100588-1.211967-5.4999597-.8192668-7.6119201.9997665zm-10.38 32.75c-6.06-4.91-8.2-14.61-6.62-22.66h.92c.4890037.0079763.9120327-.3389075 1-.82.3438989-2.0563403.5344242-4.135405.57-6.22 1.0023235-1.9064707 2.3600508-3.6036298 4-5 1.0477075.2477926 2.0795691.5583529 3.09.93-2.2742399 1.0233911-3.8322498 3.1794635-4.09 5.66-3.71 9-2.25 20.56 3.54 27.4-.790753.2774456-1.5951291.5144195-2.41.71zm-4.22-33.23c-.06-.7-.14-1.4-.24-2.11.63 0 1.26.1 1.88.18-.5909887.6043165-1.1389922 1.249223-1.64 1.93zm10.09.83c2.7614237 0 5 2.2385763 5 5s-2.2385763 5-5 5-5-2.2385763-5-5 2.2385763-5 5-5zm-4.74-4c-1.9617043-.5154351-3.973402-.8171897-6-.9-.4429916-2.0491044-1.3457074-3.970795-2.64-5.62-1.3232565-1.63417117-2.9539985-2.99312285-4.8-4 5.37-3.67 14.62-.58 13.44 10.52zm-24.12-8c3.73-3.11 9.28-2.93 14 2.69 3.88 4.66 2.88 14.16 2.47 17-2.89-.11-12.41-.84-16.3-5.51-4.72-5.57-3.89-11.06-.17-14.18zm8.12 43.61c-5.33-5.07-8-15.21-5-24.76 1.1471005.5427777 2.3338641.9974251 3.55 1.36-2.27 9.7.59 19.3 5.76 24.52-1.4664974-.237874-2.9088719-.6059974-4.31-1.1zm-8.85-27.37c.6267201.6109574 1.3135381 1.1570614 2.05 1.63-2.74 8.3-1.48 17.51 2.59 23.78-9.88-5.93-12.05-17.29-4.64-25.41zm16.68 28.86c-5.9-4-9.78-14-7.37-24.37 1.9028067.4350177 3.8344684.7324535 5.78.89-1.55 8.3.57 17.72 6.15 23.25-1.5103144.2102383-3.0361963.2872016-4.56.23zm11.48-2.2c-4.79-5.19-6.86-14.25-4.75-22.61.9939632 1.8654863 2.7776607 3.181934 4.853239 3.5819051 2.0755784.3999712 4.2207469-.1593704 5.836761-1.5219051 1.422555 1.2314842 3.286857 1.8276273 5.16 1.65 1.73 8-3.33 15.38-11.1 18.9zm7.27-22c1.5428577-2.3384426 1.5428577-5.3715574 0-7.71 2.0343129-1.6803138 5.0241766-1.4906787 6.8298904.4331928 1.8057138 1.9238714 1.8057138 4.919743 0 6.8436144-1.8057138 1.9238715-4.7955775 2.1135066-6.8298904.4331928z"/><circle id="Oval" cx="45" cy="24" r="2"/><circle id="Oval" cx="54" cy="24" r="2"/></g></g></svg>