<svg height="512" viewBox="0 0 62 60" width="512" xmlns="http://www.w3.org/2000/svg"><g id="001---Beetle" fill="none"><g id="Icons" transform="translate(12 3)"><path id="Shape" d="m31 8v6.13c-.3257384-.0892662-.6622651-.1330147-1-.13-23.42 0-22.33-.06-23 .13v-6.13c.00225754-1.90796605.91182871-3.70112063 2.45-4.83h19.1c1.5381713 1.12887937 2.4477425 2.92203395 2.45 4.83z" fill="#283593"/><path id="Shape" d="m28 8v6c-21.65 0-20.34-.06-21 .13v-6.13c-.02604352-1.84521966.75571146-3.60964796 2.14-4.83h16.72c1.3842885 1.22035204 2.1660435 2.98478034 2.14 4.83z" fill="#3f51b5"/><path id="Shape" d="m38 30v11c0 8.2842712-6.7157288 15-15 15h-8c-8.28427125 0-15-6.7157288-15-15v-11c0-4.418278 3.581722-8 8-8-2.209139 0-4-1.790861-4-4s1.790861-4 4-4h22c2.209139 0 4 1.790861 4 4s-1.790861 4-4 4c4.418278 0 8 3.581722 8 8z" fill="#6a1b9a"/><path id="Shape" d="m35 30v11c0 8.2842712-6.7157288 15-15 15h-5c-8.28427125 0-15-6.7157288-15-15v-11c0-4.418278 3.581722-8 8-8-2.209139 0-4-1.790861-4-4s1.790861-4 4-4h19c2.209139 0 4 1.790861 4 4s-1.790861 4-4 4c4.418278 0 8 3.581722 8 8z" fill="#9d27b0"/><circle id="Oval" cx="14" cy="5" fill="#f5f5f5" r="5"/><path id="Shape" d="m29 5c0 2.35130224-1.6382865 4.38491785-3.9357036 4.88541434-2.2974172.50049646-4.6331526-.66737123-5.6112057-2.80560284-.9780531-2.1382316-.3341325-4.66903015 1.5469093-6.0798115 1.5150882-1.13631618 3.5421478-1.31909603 5.236068-.47213596 1.6939201.84696008 2.763932 2.57827567 2.763932 4.47213596z" fill="#cfd8dc"/><path id="Shape" d="m26 5c.0045063 2.18739016-1.4133569 4.1237862-3.5 4.78-1.7936559-.56007105-3.1218587-2.07849597-3.4382985-3.93072349-.3164398-1.85222753.4323182-3.7254863 1.9382985-4.84927651.454782-.34243461.9657586-.60299884 1.51-.77 2.0791605.65866013 3.4915092 2.58900499 3.49 4.77z" fill="#f5f5f5"/><path id="Shape" d="m19 26-3 30h6z" fill="#673ab7"/></g><g id="Layer_10" fill="#000"><circle id="Oval" cx="27" cy="8" r="1"/><circle id="Oval" cx="35" cy="8" r="1"/><path id="Shape" d="m57.85 29.72c.8397649-.6076575 1.7146152-1.1652911 2.62-1.67.3408872-.1530234.568024-.4833309.5889088-.8564048.0208848-.3730738-.1679669-.7266685-.4896452-.9167825s-.7225129-.1850278-1.0392636.0131873c-1.534606.8563773-2.9815306 1.861186-4.32 3-.2093983.0802923-.3831907.232804-.49.43-2.52 2.3-2 3-3.72 3.83v-.55c-.001246-3.6564263-2.2145281-6.9486835-5.6-8.33.88399-.802685 1.4515412-1.8952209 1.6-3.08 2.5452651-1.6779462 4.0545966-4.5419027 4-7.59.0026029-1.2902614.136628-2.5769021.4-3.84 1.0760176-.6988214 2.3184141-1.09914917 3.6-1.16.5522847 0 1-.44771525 1-1s-.4477153-1-1-1c-1.0008888.03187083-1.9901589.22432269-2.93.57.2303573-.7239333.5076105-1.43209818.83-2.12.2454836-.4943143.0440809-1.0940469-.45-1.34-.4916536-.2469243-1.0904244-.05031299-1.34.44-1.3659312 2.9645885-2.085201 6.1859629-2.11 9.45.0374867 2.0177603-.8102701 3.9507921-2.32 5.29-.4490019-1.2892408-1.4226246-2.3282561-2.68-2.86v-5.43c-.005285-2.0442972-.9039644-3.98412965-2.46-5.31-.3288373-.78335543-.823522-1.48614891-1.45-2.06.24-.63 1.05-1.63 3.91-1.63.5522847 0 1-.44771525 1-1s-.4477153-1-1-1c-3.51 0-5 1.38-5.56 2.52-2.6771853-1.19016741-5.8224313-.27280398-7.44 2.17-1.6175687-2.44280398-4.7628147-3.36016741-7.44-2.17-.56-1.14-2.05-2.52-5.56-2.52-.5522847 0-1 .44771525-1 1s.4477153 1 1 1c2.86 0 3.67 1 3.91 1.63-.626478.57385109-1.1211627 1.27664457-1.45 2.06-1.5560356 1.32587035-2.454715 3.2657028-2.46 5.31v5.42c-1.2473313.5511717-2.2154216 1.5878953-2.68 2.87-1.4987469-1.3471754-2.3441859-3.2749221-2.32-5.29-.024799-3.2640371-.7440688-6.4854115-2.11-9.45-.2495756-.49031299-.8483464-.6869243-1.34-.44-.49408087.2459531-.69548361.8456857-.45 1.34.32238949.68790182.59964272 1.3960667.83 2.12-.93984113-.34567731-1.92911119-.53812917-2.93-.57-.55228475 0-1 .44771525-1 1s.44771525 1 1 1c1.2815859.06085083 2.5239824.4611786 3.6 1.16.263372 1.2630979.3973971 2.5497386.4 3.84-.0468299 3.0637229 1.4873683 5.9356211 4.06 7.6.1347294 1.1730713.6802699 2.2606098 1.54 3.07-3.3854719 1.3813165-5.598754 4.6735737-5.6 8.33v.51c-1.72-.8-1.22-1.56-3.74-3.84-.10729448-.1870053-.27215379-.3343264-.47-.42-1.34147806-1.1348994-2.78801105-2.1394362-4.32-3-.31675075-.1982151-.71758529-.2033013-1.03926358-.0131873-.3216783.190114-.51053002.5437087-.48964523.9167825.02088479.3730739.24802158.7033814.58890881.8564048.90538479.5047089 1.78023507 1.0623425 2.62 1.67-1.01498016.4257707-1.96178741.9985723-2.81 1.7-.38608401.3708372-.41164637.9799503-.05799067 1.3818318.35365569.4018815.96107568.4539702 1.37799067.1181682.97115418-.7961019 2.11489055-1.3542727 3.34-1.63.65167286.5867016 1.22024982 1.2595737 1.69 2 .77383809 1.1747327 1.95146143 2.0250408 3.31 2.39v5.8c-2.53618033 1.6721932-4.04427267 4.5224877-4 7.56-.00260289 1.2902614-.13662796 2.5769021-.4 3.84-1.0760176.6988214-2.3184141 1.0991492-3.6 1.16-.55228475 0-1 .4477153-1 1s.44771525 1 1 1c1.00088881-.0318708 1.99015887-.2243227 2.93-.57-.23035728.7239333-.50761051 1.4320982-.83 2.12-.24548361.4943143-.04408087 1.0940469.45 1.34.49165355.2469243 1.09042437.050313 1.34-.44 1.36593118-2.9645885 2.08520102-6.1859629 2.11-9.45-.02674626-1.8666814.69326554-3.6667109 2-5 0 4.2434638 1.6857094 8.3131264 4.6862915 11.3137085s7.0702447 4.6862915 11.3137085 4.6862915h8c8.836556 0 16-7.163444 16-16 1.3124837 1.3295321 2.0335006 3.1320742 2 5 .024799 3.2640371.7440688 6.4854115 2.11 9.45.1694502.3362797.5134418.5488587.89.55.3483719.002433.672901-.1766148.8566239-.4726128.1837229-.2959979.2001558-.6662778.0433761-.9773872-.3223895-.6879018-.5996427-1.3960667-.83-2.12.9398411.3456773 1.9291112.5381292 2.93.57.5522847 0 1-.4477153 1-1s-.4477153-1-1-1c-1.2815859-.0608508-2.5239824-.4611786-3.6-1.16-.263372-1.2630979-.3973971-2.5497386-.4-3.84.0442727-3.0375123-1.4638197-5.8878068-4-7.56v-5.8c1.353733-.381585 2.5206598-1.246107 3.28-2.43.4697502-.7404263 1.0383271-1.4132984 1.69-2 1.2393126.2831157 2.3940832.8553611 3.37 1.67.2651659.2546943.6487093.3433359.9987417.2308216.3500324-.1125144.6100907-.4080352.6771882-.7695321.0670976-.361497-.069589-.7306577-.3559299-.9612895-.8507528-.6873336-1.7974323-1.246582-2.81-1.66zm-21.85-25.72c2.209139 0 4 1.790861 4 4s-1.790861 4-4 4-4-1.790861-4-4 1.790861-4 4-4zm-6 4c0 2.209139-1.790861 4-4 4s-4-1.790861-4-4 1.790861-4 4-4 4 1.790861 4 4zm-9.78 1.58c.6241141 2.2656468 2.5134627 3.9583649 4.8338099 4.3307397 2.3203471.3723748 4.644482-.6441534 5.9461901-2.6007397 1.3017081 1.9565863 3.625843 2.9731145 5.9461901 2.6007397 2.3203472-.3723748 4.2096958-2.0650929 4.8338099-4.3307397.29 1 .22 1 .22 6.42h-22c0-5.42-.07-5.46.22-6.42zm8.88 48.42 1.9-19 1.9 19zm19.9-14c.000077 3.7286771-1.4872667 7.3033393-4.1322736 9.9314511-2.6450068 2.6281118-6.2291264 4.092519-9.9577264 4.0685489l-2.91-29.1c0-.5522847-.4477153-1-1-1s-1 .4477153-1 1l-2.91 29.1c-3.7286.0239701-7.3127196-1.4404371-9.9577264-4.0685489-2.6450069-2.6281118-4.1323506-6.202774-4.1322736-9.9314511v-11c0-3.8659932 3.1340068-7 7-7 .5522847 0 1-.4477153 1-1s-.4477153-1-1-1c-1.6568542 0-3-1.3431458-3-3s1.3431458-3 3-3h22c1.6568542 0 3 1.3431458 3 3s-1.3431458 3-3 3c-.5522847 0-1 .4477153-1 1s.4477153 1 1 1c3.8659932 0 7 3.1340068 7 7z"/><path id="Shape" d="m38 24h-14c-.5522847 0-1 .4477153-1 1s.4477153 1 1 1h14c.5522847 0 1-.4477153 1-1s-.4477153-1-1-1z"/></g></g></svg>