<?xml version="1.0" encoding="iso-8859-1"?>
<!-- Generator: Adobe Illustrator 21.0.0, SVG Export Plug-In . SVG Version: 6.00 Build 0)  -->
<svg version="1.1" id="Capa_1" xmlns="http://www.w3.org/2000/svg" xmlns:xlink="http://www.w3.org/1999/xlink" x="0px" y="0px"
	 viewBox="0 0 591.905 591.905" style="enable-background:new 0 0 591.905 591.905;" xml:space="preserve">
<g>
	<g>
		<g id="filled_outline_2_">
			<path style="fill:#697B8C;" d="M117.26,246.558c-60.07,0-108.768,48.699-108.768,108.768S57.191,464.094,117.26,464.094
				s108.768-48.699,108.768-108.768S177.33,246.558,117.26,246.558z M117.26,434.43c-43.685,0-79.104-35.419-79.104-79.104
				s35.419-79.104,79.104-79.104s79.104,35.419,79.104,79.104S160.956,434.43,117.26,434.43z"/>
			<path style="fill:#697B8C;" d="M473.23,246.558c-60.07,0-108.768,48.699-108.768,108.768S413.16,464.094,473.23,464.094
				s108.768-48.699,108.768-108.768S533.299,246.558,473.23,246.558z M473.23,434.43c-43.685,0-79.104-35.419-79.104-79.104
				s35.419-79.104,79.104-79.104s79.104,35.419,79.104,79.104S516.925,434.43,473.23,434.43z"/>
			<path style="fill:#697B8C;" d="M355.789,127.901h81.843c2.215,0.01,3.995,1.819,3.985,4.024c0,0.623-0.148,1.236-0.435,1.79
				c-7.376,14.634-22.377,23.86-38.771,23.85h-8.286l-41.025-7.782c-4.944-1.236-8.415-5.686-8.415-10.778l0,0
				C344.685,132.875,349.659,127.901,355.789,127.901L355.789,127.901z"/>
			<path d="M473.23,236.67c-18.51,0.01-36.744,4.38-53.247,12.765l-33.125-51.18l13.695-30.801h1.859
				c22.94,0.02,43.3-14.664,50.538-36.428c1.73-5.181-1.078-10.778-6.259-12.508c-1.009-0.336-2.067-0.504-3.125-0.504h-87.776
				c-11.589-0.109-21.081,9.206-21.19,20.795c-0.089,9.997,6.872,18.669,16.651,20.735l28.774,5.458l-9.888,22.278H181.76
				l14.179-46.563c1.612-5.221-1.305-10.758-6.516-12.37c-0.949-0.297-1.948-0.445-2.947-0.445H117.26
				c-21.843,0-39.552,17.709-39.552,39.552s17.709,39.552,39.552,39.552h19.776v-19.776H117.26c-10.926,0-19.776-8.85-19.776-19.776
				s8.85-19.776,19.776-19.776h55.867l-28.122,92.404C81.614,225.14,18.113,264.406,3.172,327.798s24.325,126.893,87.717,141.834
				c63.392,14.941,126.893-24.325,141.834-87.717c13.201-55.996-15.93-113.337-68.929-135.703l8.227-27.054l101.214,122.879
				c-12.864,17.581-9.038,42.261,8.543,55.126c17.581,12.864,42.261,9.038,55.126-8.543c2.966-4.054,5.132-8.642,6.378-13.507
				h13.082c10.956,64.579,72.183,108.047,136.761,97.091s108.047-72.183,97.091-136.761
				C580.544,278.377,531.104,236.64,473.23,236.67z M146.331,303.661c29.219,16.286,39.7,53.178,23.415,82.407
				s-53.178,39.7-82.407,23.415s-39.7-53.178-23.415-82.397c12.627-22.644,38.257-34.747,63.768-30.099l-19.895,65.36l18.926,5.755
				L146.331,303.661z M216.141,355.326c0.208,54.819-44.061,99.424-98.88,99.632c-54.819,0.208-99.424-44.061-99.632-98.88
				c-0.208-54.819,44.061-99.424,98.88-99.632c7.653-0.03,15.287,0.831,22.742,2.551l-5.755,18.916
				c-42.993-9.255-85.344,18.095-94.599,61.088s18.095,85.344,61.088,94.599c42.993,9.255,85.344-18.095,94.599-61.088
				c7.663-35.597-9.799-71.856-42.41-88.063l5.824-19.104C193.349,281.344,216.081,316.525,216.141,355.326z M491.414,359.845
				l-38.85-60.06c30.692-11.46,64.875,4.133,76.326,34.836c11.46,30.692-4.133,64.875-34.836,76.326
				c-30.692,11.46-64.875-4.133-76.326-34.836c-0.129-0.336-0.247-0.672-0.366-1.009h65.755c5.458,0,9.888-4.43,9.878-9.898
				C492.996,363.306,492.452,361.437,491.414,359.845z M464.943,355.326h-51.042c0-17.66,7.881-34.41,21.497-45.663L464.943,355.326
				z M355.493,140.192c-0.653-0.148-1.068-0.801-0.92-1.454c0.129-0.564,0.633-0.969,1.216-0.949h70.393
				c-6.279,6.328-14.822,9.888-23.731,9.888h-7.357L355.493,140.192z M187.653,207.006h173.683l-52.891,118.993
				c-1.107-0.099-2.175-0.336-3.313-0.336c-5.755,0.03-11.431,1.325-16.632,3.797L187.653,207.006z M305.133,384.99
				c-10.827,0.099-19.687-8.612-19.776-19.44c-0.02-2.462,0.425-4.914,1.305-7.208l10.877,13.161
				c1.869,2.264,4.657,3.589,7.594,3.599h17.027C318.66,381.193,312.173,384.97,305.133,384.99z M309.8,355.326l-7.91-9.562
				c1.068-0.198,2.156-0.307,3.243-0.326c7.03,0.02,13.527,3.787,17.027,9.888H309.8z M354.573,355.326h-11.292
				c-2.383-9.334-8.088-17.472-16.048-22.901l50.083-112.565l25.867,39.977C372.688,282.095,354.632,317.564,354.573,355.326z
				 M413.901,276.419l10.738,16.612c-19.242,14.941-30.505,37.931-30.514,62.295h-19.776
				C374.389,324.268,389.043,295.029,413.901,276.419z M473.23,454.206c-46.968-0.049-87.45-33.095-96.903-79.104h20.379
				c10.916,42.301,54.058,67.743,96.359,56.827c42.301-10.916,67.743-54.058,56.827-96.359s-54.058-67.743-96.359-56.827
				c-4.084,1.058-8.079,2.432-11.945,4.123l-10.818-16.721c49.282-23.464,108.254-2.541,131.718,46.741
				c23.464,49.282,2.541,108.254-46.741,131.718C502.478,450.933,487.943,454.206,473.23,454.206z"/>
		</g>
	</g>
</g>
<g>
</g>
<g>
</g>
<g>
</g>
<g>
</g>
<g>
</g>
<g>
</g>
<g>
</g>
<g>
</g>
<g>
</g>
<g>
</g>
<g>
</g>
<g>
</g>
<g>
</g>
<g>
</g>
<g>
</g>
</svg>
