<?xml version="1.0" encoding="iso-8859-1"?>
<!-- Generator: Adobe Illustrator 19.0.0, SVG Export Plug-In . SVG Version: 6.00 Build 0)  -->
<svg xmlns="http://www.w3.org/2000/svg" xmlns:xlink="http://www.w3.org/1999/xlink" version="1.1" id="Layer_1" x="0px" y="0px" viewBox="0 0 512.001 512.001" style="enable-background:new 0 0 512.001 512.001;" xml:space="preserve">
<path style="fill:#BF4F28;" d="M55.945,268.5c-14.882,15.624-11.162,44.138,11.393,53.253  c-22.013,18.205-11.188,54.064,16.323,57.848c-13.286,24.387,9.146,54.383,36.865,47.476c-7.108,27.668,22.727,50.315,47.208,37.205  c3.586,27.538,39.365,38.621,57.729,16.74c10.512,26.561,47.961,27.347,60.061,2.351c19.087,20.171,54.549,8.107,56.543-20.389  c24.117,15.31,54.876-6.067,49.973-33.401c27.298,5.099,48.896-25.504,33.76-49.731c28.51-1.79,40.829-37.163,20.796-56.395  c20.38-9.685,23.86-36.226,10.243-51.58L55.945,268.5z"/>
<path style="fill:#FFFFFF;" d="M87.881,343.572c25.811,67.717,91.348,115.827,168.128,115.827s142.317-48.11,168.128-115.827  L87.881,343.572L87.881,343.572z"/>
<path style="fill:#BF4F28;" d="M65.42,188.544c-25.082,11.92-24.566,49.373,1.918,60.077  c-22.013,18.205-11.188,54.064,16.323,57.848c-13.286,24.387,9.146,54.383,36.865,47.476c-7.108,27.668,22.727,50.315,47.208,37.205  c3.586,27.538,39.365,38.621,57.729,16.74c10.512,26.561,47.961,27.347,60.061,2.351c19.087,20.171,54.549,8.107,56.543-20.389  c24.117,15.31,54.876-6.067,49.973-33.401c27.298,5.099,48.896-25.504,33.76-49.731c28.51-1.79,40.829-37.163,20.796-56.395  c25.082-11.92,24.566-49.373-1.918-60.077c22.013-18.205,11.188-54.064-16.323-57.848c13.286-24.387-9.146-54.383-36.865-47.476  c7.108-27.668-22.727-50.315-47.208-37.205c-3.586-27.538-39.365-38.621-57.729-16.74c-10.512-26.561-47.961-27.347-60.061-2.351  c-19.087-20.171-54.549-8.107-56.543,20.389c-24.117-15.31-54.876,6.067-49.973,33.401c-27.298-5.099-48.896,25.504-33.76,49.731  C57.707,133.938,45.388,169.311,65.42,188.544z"/>
<g>
	<circle style="fill:#FFFFFF;" cx="256.011" cy="219.438" r="30.302"/>
	<circle style="fill:#FFFFFF;" cx="177.957" cy="141.384" r="30.302"/>
	<circle style="fill:#FFFFFF;" cx="334.889" cy="140.935" r="30.302"/>
	<circle style="fill:#FFFFFF;" cx="334.043" cy="298.714" r="30.302"/>
	<circle style="fill:#FFFFFF;" cx="178.427" cy="297.867" r="30.302"/>
</g>
<path d="M256.01,260.184c-22.47,0-40.751-18.28-40.751-40.751s18.28-40.751,40.751-40.751s40.751,18.28,40.751,40.751  S278.48,260.184,256.01,260.184z M256.01,199.581c-10.947,0-19.853,8.906-19.853,19.853c0,10.947,8.906,19.853,19.853,19.853  c10.947,0,19.853-8.906,19.853-19.853C275.863,208.486,266.956,199.581,256.01,199.581z"/>
<path d="M177.96,182.135c-22.47,0-40.751-18.28-40.751-40.751s18.28-40.751,40.751-40.751s40.751,18.28,40.751,40.751  S200.431,182.135,177.96,182.135z M177.96,121.532c-10.947,0-19.853,8.906-19.853,19.853s8.906,19.853,19.853,19.853  c10.947,0,19.853-8.906,19.853-19.853C197.813,130.437,188.908,121.532,177.96,121.532z"/>
<path d="M334.895,181.691c-22.47,0-40.751-18.28-40.751-40.751s18.28-40.751,40.751-40.751s40.751,18.28,40.751,40.751  S357.365,181.691,334.895,181.691z M334.895,121.087c-10.947,0-19.853,8.906-19.853,19.853c0,10.947,8.906,19.853,19.853,19.853  s19.853-8.906,19.853-19.853C354.748,129.993,345.842,121.087,334.895,121.087z"/>
<path d="M334.045,339.468c-22.47,0-40.751-18.28-40.751-40.751s18.28-40.751,40.751-40.751s40.751,18.28,40.751,40.751  S356.516,339.468,334.045,339.468z M334.045,278.864c-10.947,0-19.853,8.906-19.853,19.853c0,10.947,8.906,19.853,19.853,19.853  s19.853-8.906,19.853-19.853C353.898,287.77,344.993,278.864,334.045,278.864z"/>
<path d="M178.432,338.618c-22.47,0-40.751-18.28-40.751-40.751s18.28-40.751,40.751-40.751s40.751,18.28,40.751,40.751  S200.902,338.618,178.432,338.618z M178.432,278.014c-10.947,0-19.853,8.906-19.853,19.853c0,10.947,8.906,19.853,19.853,19.853  c10.947,0,19.853-8.906,19.853-19.853C198.285,286.92,189.379,278.014,178.432,278.014z"/>
<path d="M461.567,252.75c9.116-8.289,14.241-20.267,13.849-33.399c-0.375-12.595-5.832-23.84-14.863-31.56  c6.276-10.086,8.079-22.457,4.632-34.574c-3.594-12.636-12.1-22.506-23.294-27.654c2.503-12.064-0.392-24.767-8.427-35.161  c-7.706-9.969-18.731-15.859-30.574-16.796c-0.852-11.849-6.662-22.917-16.574-30.694c-10.337-8.111-23.018-11.099-35.1-8.681  C346.15,23,336.342,14.425,323.732,10.74c-12.094-3.534-24.476-1.821-34.608,4.383c-7.654-9.085-18.86-14.624-31.45-15.09  c-13.137-0.489-25.144,4.553-33.499,13.609c-10.701-6.108-23.676-7.281-36.045-2.85c-11.863,4.249-20.872,12.913-25.422,23.887  c-11.532-2.852-23.854-0.745-34.314,6.278c-10.907,7.324-17.665,18.462-19.102,30.7c-12.246,1.35-23.435,8.027-30.836,18.88  c-7.099,10.409-9.295,22.715-6.526,34.268c-11.006,4.471-19.736,13.419-24.07,25.249c-4.519,12.336-3.44,25.32,2.59,36.064  c-9.116,8.289-14.241,20.267-13.849,33.399c0.375,12.595,5.832,23.84,14.863,31.56c-2.447,3.933-4.204,8.216-5.245,12.692  c-8.267,10.155-11.495,23.744-8.629,37.01c2.028,9.388,6.889,17.484,13.867,23.441c-6.271,10.085-8.073,22.449-4.626,34.565  c3.594,12.636,12.1,22.506,23.294,27.654c-2.503,12.064,0.392,24.767,8.427,35.161c7.706,9.969,18.731,15.859,30.574,16.796  c0.852,11.849,6.662,22.917,16.574,30.694c10.337,8.11,23.018,11.096,35.1,8.681c5.068,11.232,14.875,19.807,27.485,23.492  c12.094,3.535,24.476,1.821,34.607-4.383c7.654,9.085,18.86,14.624,31.45,15.09c0.581,0.022,1.16,0.032,1.737,0.032  c12.449,0,23.776-4.986,31.763-13.641c10.701,6.108,23.676,7.281,36.045,2.85c11.863-4.249,20.872-12.913,25.422-23.887  c11.534,2.852,23.855,0.745,34.314-6.278c10.907-7.324,17.665-18.462,19.102-30.7c12.246-1.35,23.435-8.027,30.836-18.88  c7.099-10.409,9.295-22.715,6.526-34.268c11.006-4.471,19.736-13.419,24.07-25.249c4.522-12.343,3.44-25.332-2.601-36.081  c6.571-6.003,11.128-13.995,12.979-23.087c2.573-12.638-0.443-25.744-8.07-35.636C465.72,262.099,464.081,257.228,461.567,252.75z   M69.906,197.98c3.1-1.473,5.28-4.376,5.829-7.766s-0.601-6.831-3.078-9.21c-7.57-7.268-7.636-17.041-5.173-23.765  c3.157-8.618,10.405-14.101,19.388-14.664c3.674-0.231,6.955-2.377,8.638-5.651s1.519-7.192-0.432-10.314  c-4.769-7.633-4.528-16.718,0.644-24.301c4.034-5.915,12.017-11.549,22.336-9.621c3.375,0.63,6.844-0.437,9.281-2.856  c2.437-2.419,3.529-5.881,2.923-9.26c-1.853-10.33,3.839-18.275,9.783-22.267c7.62-5.117,16.706-5.291,24.305-0.468  c3.108,1.973,7.024,2.164,10.31,0.506c3.286-1.659,5.456-4.925,5.713-8.597c0.629-8.979,6.163-16.186,14.805-19.282  c6.739-2.415,16.512-2.279,23.725,5.345c2.36,2.493,5.794,3.673,9.187,3.144c3.393-0.525,6.311-2.682,7.807-5.773  c4.573-9.446,13.858-12.525,21.003-12.264c9.172,0.34,16.626,5.539,19.938,13.908c1.354,3.423,4.41,5.881,8.044,6.469  c3.636,0.589,7.31-0.777,9.676-3.597c5.788-6.894,14.501-9.473,23.312-6.897c6.872,2.008,14.698,7.863,16.054,18.27  c0.443,3.404,2.531,6.374,5.584,7.943c3.053,1.569,6.683,1.539,9.709-0.082c9.251-4.953,18.568-1.996,24.2,2.424  c7.221,5.666,10.195,14.253,7.956,22.97c-0.915,3.565,0.112,7.35,2.705,9.962s6.37,3.669,9.942,2.777  c8.733-2.174,17.299,0.86,22.912,8.122c4.379,5.664,7.269,15,2.249,24.216c-1.643,3.015-1.699,6.644-0.151,9.709  s4.502,5.173,7.902,5.641c10.397,1.43,16.195,9.298,18.154,16.184c2.511,8.829-0.13,17.524-7.066,23.26  c-2.837,2.346-4.23,6.011-3.667,9.65s2.998,6.711,6.41,8.091c8.344,3.373,13.49,10.863,13.763,20.038  c0.213,7.156-2.936,16.409-12.414,20.913c-3.1,1.473-5.28,4.376-5.829,7.766s0.601,6.831,3.078,9.21  c7.57,7.268,7.636,17.041,5.173,23.765c-3.157,8.618-10.405,14.101-19.388,14.664c-3.674,0.231-6.955,2.377-8.638,5.651  s-1.519,7.192,0.432,10.314c4.769,7.633,4.528,16.718-0.644,24.301c-4.034,5.915-12.02,11.548-22.336,9.621  c-3.374-0.631-6.844,0.438-9.281,2.856c-2.437,2.419-3.529,5.881-2.923,9.26c1.853,10.33-3.839,18.275-9.783,22.267  c-7.62,5.118-16.706,5.292-24.305,0.469c-3.109-1.974-7.025-2.165-10.31-0.506c-3.286,1.659-5.456,4.925-5.713,8.597  c-0.629,8.979-6.163,16.186-14.804,19.282c-6.741,2.414-16.512,2.279-23.726-5.345c-2.359-2.493-5.792-3.671-9.187-3.144  c-3.393,0.525-6.311,2.682-7.807,5.773c-4.572,9.446-13.846,12.536-21.003,12.264c-9.172-0.34-16.626-5.539-19.938-13.908  c-1.354-3.423-4.41-5.881-8.044-6.469c-0.558-0.091-1.117-0.135-1.673-0.135c-3.059,0-6,1.346-8.003,3.731  c-5.787,6.895-14.5,9.474-23.312,6.897c-6.872-2.008-14.699-7.863-16.053-18.269c-0.443-3.404-2.531-6.374-5.584-7.944  c-3.054-1.57-6.683-1.539-9.71,0.082c-9.251,4.954-18.568,1.997-24.2-2.424c-7.221-5.666-10.196-14.253-7.956-22.97  c0.915-3.565-0.112-7.35-2.705-9.962c-2.594-2.612-6.37-3.669-9.942-2.777c-8.731,2.179-17.298-0.859-22.912-8.122  c-4.379-5.664-7.269-15-2.249-24.216c1.643-3.015,1.699-6.644,0.152-9.709c-1.547-3.065-4.502-5.173-7.903-5.641  c-10.397-1.43-16.195-9.298-18.154-16.184c-0.922-3.239-1.143-6.46-0.719-9.524c0.029-0.158,0.051-0.316,0.073-0.474  c0.821-5.099,3.452-9.739,7.711-13.262c2.837-2.346,4.23-6.011,3.667-9.65c-0.563-3.638-2.998-6.711-6.41-8.091  c-8.345-3.373-13.49-10.863-13.763-20.038C57.277,211.738,60.427,202.486,69.906,197.98z M370.916,403.813  c-30.764,28.31-71.642,45.136-114.907,45.136c-43.249,0-84.114-16.813-114.873-45.106c6.421,1.811,13.13,2.099,19.667,0.792  c5.068,11.232,14.875,19.807,27.485,23.492c12.094,3.536,24.476,1.82,34.607-4.383c7.654,9.085,18.86,14.624,31.45,15.09  c0.581,0.022,1.16,0.032,1.737,0.032c12.449,0,23.777-4.986,31.763-13.641c10.701,6.108,23.676,7.281,36.045,2.852  c11.862-4.249,20.872-12.913,25.422-23.887C356.418,405.948,363.828,405.815,370.916,403.813z M66.932,353.065  c-2.076-7.3-0.622-14.503,3.862-20.023c1.5,5.434,4.086,10.672,7.759,15.423c0.015,0.019,0.029,0.036,0.044,0.054  c2.955,7.597,6.401,14.939,10.258,22.027c-1.148-0.658-2.421-1.111-3.769-1.297C74.69,367.82,68.891,359.952,66.932,353.065z   M117.999,416.938c-8.731,2.177-17.298-0.859-22.912-8.122c-4.379-5.664-7.269-15-2.249-24.216c0.841-1.543,1.26-3.249,1.267-4.956  c8.633,13.965,19.04,26.747,31.016,38.071C122.939,416.645,120.427,416.333,117.999,416.938z M416.297,409.691  c-4.034,5.915-12.02,11.551-22.336,9.621c-3.374-0.629-6.844,0.437-9.281,2.856c-2.437,2.419-3.529,5.881-2.923,9.26  c1.853,10.33-3.839,18.275-9.783,22.267c-7.62,5.117-16.707,5.291-24.305,0.468c-3.108-1.973-7.025-2.166-10.31-0.506  c-3.286,1.659-5.456,4.925-5.713,8.597c-0.629,8.979-6.163,16.186-14.805,19.282c-6.74,2.415-16.512,2.279-23.725-5.344  c-2.359-2.493-5.792-3.668-9.187-3.144c-3.393,0.525-6.311,2.682-7.807,5.773c-4.572,9.446-13.846,12.525-21.003,12.264  c-9.172-0.34-16.626-5.539-19.938-13.908c-1.354-3.423-4.41-5.881-8.044-6.469c-3.631-0.59-7.309,0.777-9.676,3.596  c-5.787,6.894-14.5,9.474-23.312,6.897c-6.872-2.008-14.699-7.863-16.053-18.269c-0.443-3.404-2.531-6.374-5.584-7.944  c-3.054-1.57-6.683-1.54-9.71,0.082c-9.251,4.955-18.567,1.997-24.201-2.424c-7.221-5.666-10.195-14.253-7.956-22.97  c0.707-2.753,0.245-5.632-1.193-8.006c5.497,4.887,11.288,9.49,17.377,13.762c32.091,22.514,69.844,34.415,109.179,34.415  c39.335,0,77.088-11.9,109.179-34.415c20.303-14.245,37.391-32.061,50.624-52.517c0.263,0.859,0.639,1.692,1.128,2.473  C421.71,393.023,421.468,402.107,416.297,409.691z M444.535,354.76c-3.157,8.618-10.405,14.101-19.388,14.664  c-0.505,0.031-0.999,0.107-1.486,0.209c3.652-6.8,6.926-13.832,9.752-21.096c0.048-0.07,0.1-0.135,0.148-0.206  c3.452-5.063,5.735-10.574,6.862-16.228C446.92,339.233,446.876,348.371,444.535,354.76z M442.113,314.02  c-0.646,0.306-1.24,0.689-1.799,1.111c-0.075-0.356-0.141-0.713-0.227-1.068c2.983-1.212,5.792-2.763,8.398-4.601  C446.852,311.171,444.769,312.758,442.113,314.02z"/>
<path d="M192.1,80.547c-4.224,0-8.201-2.581-9.779-6.768c-2.035-5.4,0.693-11.428,6.093-13.462  c28.469-10.729,59.305-13.867,89.178-9.079c5.698,0.914,9.576,6.274,8.663,11.971c-0.914,5.699-6.275,9.574-11.971,8.663  c-26.285-4.215-53.432-1.448-78.501,8C194.57,80.329,193.324,80.547,192.1,80.547z"/>
<path d="M307.914,80.121c-1.441,0-2.906-0.3-4.304-0.933l-0.427-0.193c-5.257-2.38-7.589-8.572-5.209-13.829  c2.381-5.257,8.572-7.588,13.829-5.209l0.427,0.194c5.257,2.38,7.589,8.571,5.208,13.828  C315.692,77.838,311.89,80.121,307.914,80.121z"/>
<g>
</g>
<g>
</g>
<g>
</g>
<g>
</g>
<g>
</g>
<g>
</g>
<g>
</g>
<g>
</g>
<g>
</g>
<g>
</g>
<g>
</g>
<g>
</g>
<g>
</g>
<g>
</g>
<g>
</g>
</svg>
