<?xml version="1.0" encoding="iso-8859-1"?>
<!-- Generator: Adobe Illustrator 19.0.0, SVG Export Plug-In . SVG Version: 6.00 Build 0)  -->
<svg xmlns="http://www.w3.org/2000/svg" xmlns:xlink="http://www.w3.org/1999/xlink" version="1.1" id="Layer_1" x="0px" y="0px" viewBox="0 0 512 512" style="enable-background:new 0 0 512 512;" xml:space="preserve">
<path style="fill:#C52828;" d="M477.828,281.6c0,122.53-99.337,221.867-221.867,221.867S34.095,404.13,34.095,281.6H477.828z"/>
<path style="fill:#F44335;" d="M443.012,281.6c-9.429,122.172-116.113,213.572-238.285,204.143  c-22.118-1.707-43.853-6.724-64.478-14.874C74.27,430.618,34.044,358.886,34.095,281.6H443.012z"/>
<path d="M255.962,512c-127.044,0-230.4-103.356-230.4-230.4c0-4.719,3.823-8.533,8.533-8.533h443.733  c4.719,0,8.533,3.814,8.533,8.533C486.362,408.644,382.997,512,255.962,512z M42.79,290.133  c4.497,113.69,98.389,204.8,213.163,204.8s208.666-91.11,213.163-204.8H42.79z"/>
<g>
	<path style="fill:#1566C0;" d="M298.628,358.4c-0.009,23.561-19.106,42.658-42.667,42.667c-4.335-0.017-8.644-0.649-12.8-1.877   c-22.528-7.134-35.004-31.181-27.87-53.709c4.207-13.269,14.601-23.663,27.87-27.87c4.156-1.229,8.465-1.86,12.8-1.877   C279.522,315.742,298.62,334.839,298.628,358.4z"/>
	<path style="fill:#1566C0;" d="M418.095,358.4c-0.009,23.561-19.106,42.658-42.667,42.667c-4.335-0.017-8.644-0.649-12.8-1.877   c-22.528-7.134-35.004-31.181-27.87-53.709c4.207-13.269,14.601-23.663,27.87-27.87c4.156-1.229,8.465-1.86,12.8-1.877   C398.989,315.742,418.086,334.839,418.095,358.4z"/>
	<path style="fill:#1566C0;" d="M179.162,358.4c-0.009,23.561-19.106,42.658-42.667,42.667c-4.335-0.017-8.644-0.649-12.8-1.877   c-22.528-7.134-35.004-31.181-27.87-53.709c4.207-13.269,14.601-23.663,27.87-27.87c4.156-1.229,8.465-1.86,12.8-1.877   C160.055,315.742,179.153,334.839,179.162,358.4z"/>
</g>
<g>
	<path style="fill:#2296F3;" d="M273.028,358.4c0,18.654-12.083,35.157-29.867,40.789c-22.528-7.134-35.004-31.181-27.87-53.709   c4.207-13.269,14.601-23.663,27.87-27.87C260.945,323.243,273.028,339.746,273.028,358.4z"/>
	<path style="fill:#2296F3;" d="M392.495,358.4c0,18.654-12.083,35.157-29.867,40.789c-22.528-7.134-35.004-31.181-27.87-53.709   c4.207-13.269,14.601-23.663,27.87-27.87C380.412,323.243,392.495,339.746,392.495,358.4z"/>
	<path style="fill:#2296F3;" d="M153.562,358.4c0,18.654-12.083,35.157-29.867,40.789c-22.528-7.134-35.004-31.181-27.87-53.709   c4.207-13.269,14.601-23.663,27.87-27.87C141.478,323.243,153.562,339.746,153.562,358.4z"/>
</g>
<path d="M255.962,409.6c-28.237,0-51.2-22.963-51.2-51.2s22.963-51.2,51.2-51.2s51.2,22.963,51.2,51.2S284.19,409.6,255.962,409.6z   M255.962,324.267c-18.825,0-34.133,15.309-34.133,34.133s15.309,34.133,34.133,34.133s34.133-15.309,34.133-34.133  S274.786,324.267,255.962,324.267z"/>
<path d="M375.428,409.6c-28.237,0-51.2-22.963-51.2-51.2s22.963-51.2,51.2-51.2s51.2,22.963,51.2,51.2S403.657,409.6,375.428,409.6z   M375.428,324.267c-18.825,0-34.133,15.309-34.133,34.133s15.309,34.133,34.133,34.133c18.825,0,34.133-15.309,34.133-34.133  S394.253,324.267,375.428,324.267z"/>
<path d="M136.495,409.6c-28.237,0-51.2-22.963-51.2-51.2s22.963-51.2,51.2-51.2s51.2,22.963,51.2,51.2S164.723,409.6,136.495,409.6z   M136.495,324.267c-18.825,0-34.133,15.309-34.133,34.133s15.309,34.133,34.133,34.133s34.133-15.309,34.133-34.133  S155.311,324.267,136.495,324.267z"/>
<path d="M127.97,366.925c0,0-0.009,0-0.017,0c-4.71-0.009-8.533-3.823-8.525-8.542c0.017-9.387,7.663-17.033,17.05-17.05  c0.009,0,0.009,0,0.017,0c4.71,0,8.525,3.806,8.533,8.516c0.009,4.719-3.806,8.542-8.516,8.55  C136.503,363.11,132.672,366.925,127.97,366.925z"/>
<path d="M247.437,366.925c0,0-0.009,0-0.017,0c-4.71-0.009-8.533-3.823-8.525-8.542c0.017-9.387,7.663-17.033,17.05-17.05  c0.009,0,0.009,0,0.017,0c4.71,0,8.525,3.806,8.533,8.516c0.009,4.719-3.806,8.542-8.516,8.55  C255.97,363.11,252.139,366.925,247.437,366.925z"/>
<path d="M366.903,366.925c-4.898-0.222-8.55-3.814-8.542-8.542c0.017-9.387,7.663-17.033,17.05-17.05c0.009,0,0.009,0,0.017,0  c4.71,0,8.525,3.806,8.533,8.516c0.009,4.719-3.806,8.542-8.516,8.55C375.437,363.11,371.605,366.925,366.903,366.925z"/>
<path style="fill:#1566C0;" d="M503.428,260.181v0.085c-0.009,11.785-9.549,21.325-21.333,21.333h-42.667l-409.685,0.085  c-11.733-0.06-21.197-9.6-21.163-21.333c0.009-11.785,9.549-21.325,21.333-21.333l409.515-0.171h42.667  C493.871,238.857,503.42,248.397,503.428,260.181z"/>
<path style="fill:#2296F3;" d="M460.762,260.181v0.085c-0.009,11.785-9.549,21.325-21.333,21.333l-409.685,0.085  c-11.733-0.06-21.197-9.6-21.163-21.333c0.009-11.785,9.549-21.325,21.333-21.333l409.515-0.171h0.427  C451.46,239.095,460.745,248.567,460.762,260.181z"/>
<path d="M482.129,290.176H29.879c-16.469,0-29.867-13.397-29.867-29.867c0-16.512,13.397-29.909,29.867-29.909h452.241  c16.469,0,29.867,13.397,29.867,29.867C511.996,276.779,498.59,290.176,482.129,290.176z M29.879,247.467  c-7.057,0-12.8,5.743-12.8,12.8c0,7.1,5.743,12.843,12.8,12.843h452.241c7.057,0,12.8-5.743,12.8-12.8  c0-7.1-5.743-12.843-12.8-12.843L29.879,247.467L29.879,247.467z"/>
<path style="fill:#FDD834;" d="M207.834,153.6H82.214c-8.132,0-15.138,5.743-16.734,13.722l-14.319,71.612h187.733l-14.319-71.612  C222.972,159.343,215.974,153.6,207.834,153.6z"/>
<path style="fill:#FFEB3A;" d="M179.349,153.6H76.574c-7.305,0.614-13.09,6.417-13.696,13.722l-11.716,71.612h153.6l-11.716-71.612  C192.439,160.017,186.654,154.214,179.349,153.6z"/>
<path d="M238.895,247.467H51.162c-2.56,0-4.975-1.143-6.596-3.123c-1.621-1.971-2.27-4.574-1.766-7.083l14.327-71.612  c2.372-11.93,12.928-20.582,25.088-20.582h125.619c12.16,0,22.724,8.653,25.105,20.582l14.319,71.612  c0.503,2.509-0.145,5.111-1.766,7.083C243.87,246.323,241.446,247.467,238.895,247.467z M61.564,230.4h166.921l-12.279-61.406  c-0.794-3.977-4.318-6.861-8.371-6.861H82.214c-4.053,0-7.569,2.884-8.363,6.861L61.564,230.4z"/>
<polygon style="fill:#C52828;" points="187.695,93.867 179.162,153.6 110.895,153.6 102.362,93.867 "/>
<polygon style="fill:#F44335;" points="153.562,93.867 145.028,153.6 110.895,153.6 102.362,93.867 "/>
<path d="M179.162,162.133h-68.267c-4.25,0-7.842-3.123-8.448-7.322l-8.533-59.733c-0.35-2.449,0.375-4.932,1.997-6.801  c1.621-1.869,3.977-2.944,6.451-2.944h85.333c2.475,0,4.821,1.075,6.443,2.944c1.621,1.869,2.347,4.352,1.997,6.801l-8.533,59.733  C187.004,159.01,183.403,162.133,179.162,162.133z M118.293,145.067h53.47l6.093-42.667h-65.655L118.293,145.067z"/>
<path style="fill:#1566C0;" d="M197.764,93.867H92.292c-4.07,0-7.569-2.867-8.371-6.861L70.268,18.739  c-0.922-4.617,2.074-9.114,6.699-10.044c0.546-0.102,1.109-0.162,1.673-0.162h132.779c4.71,0,8.533,3.823,8.533,8.533  c0,0.563-0.06,1.126-0.162,1.673l-13.653,68.267C205.333,90.999,201.835,93.867,197.764,93.867z"/>
<path style="fill:#2296F3;" d="M175.347,93.867H93.897c-3.541-0.401-6.272-3.302-6.46-6.861L76.89,18.739  c-0.811-5.282,2.304-10.206,6.46-10.206h102.537c4.156,0,7.279,4.924,6.46,10.206l-10.547,68.267  C181.619,90.564,178.889,93.466,175.347,93.867z"/>
<path d="M197.764,102.4H92.292c-8.098,0-15.138-5.769-16.734-13.713L61.905,20.42c-1.843-9.233,4.164-18.244,13.38-20.087  C76.352,0.111,77.495,0,78.639,0h132.779c9.412,0,17.067,7.654,17.067,17.067c0,1.135-0.111,2.261-0.341,3.371l-13.645,68.25  C212.902,96.631,205.871,102.4,197.764,102.4z M197.764,85.333L197.764,85.333L197.764,85.333l13.653-68.267H78.639l13.653,68.267  H197.764z"/>
<path d="M93.828,213.333c-4.71,0-8.533-3.823-8.533-8.533v-17.067c0-4.71,3.823-8.533,8.533-8.533c4.71,0,8.533,3.823,8.533,8.533  V204.8C102.362,209.51,98.539,213.333,93.828,213.333z"/>
<path d="M127.962,213.333c-4.71,0-8.533-3.823-8.533-8.533v-17.067c0-4.71,3.823-8.533,8.533-8.533c4.71,0,8.533,3.823,8.533,8.533  V204.8C136.495,209.51,132.672,213.333,127.962,213.333z"/>
<path d="M162.095,213.333c-4.71,0-8.533-3.823-8.533-8.533v-17.067c0-4.71,3.823-8.533,8.533-8.533s8.533,3.823,8.533,8.533V204.8  C170.628,209.51,166.805,213.333,162.095,213.333z"/>
<path d="M196.228,213.333c-4.71,0-8.533-3.823-8.533-8.533v-17.067c0-4.71,3.823-8.533,8.533-8.533c4.71,0,8.533,3.823,8.533,8.533  V204.8C204.762,209.51,200.939,213.333,196.228,213.333z"/>
<path d="M110.895,51.2H76.762c-4.71,0-8.533-3.823-8.533-8.533s3.823-8.533,8.533-8.533h34.133c4.71,0,8.533,3.823,8.533,8.533  S115.605,51.2,110.895,51.2z"/>
<g>
</g>
<g>
</g>
<g>
</g>
<g>
</g>
<g>
</g>
<g>
</g>
<g>
</g>
<g>
</g>
<g>
</g>
<g>
</g>
<g>
</g>
<g>
</g>
<g>
</g>
<g>
</g>
<g>
</g>
</svg>
