<svg height="512" viewBox="0 0 60 61" width="512" xmlns="http://www.w3.org/2000/svg"><g id="028---Leaf-Bug" fill="none"><g id="Icons" transform="translate(11 1)"><path id="Shape" d="m27.81 12.35h-17.62c.15-2.1.07-1 .4-5.7l3.27-5c1.68-.83 2.45-.65 7.55-.65.9481494.00155404 1.8828831.22410968 2.73.65l3.27 5c.34 4.88.25 3.56.4 5.7z" fill="#3f51b5"/><circle id="Oval" cx="12" cy="4" fill="#f5f5f5" r="3"/><circle id="Oval" cx="26" cy="4" fill="#f5f5f5" r="3"/><path id="Shape" d="m37.89 17.76-2.43 17.31c-.26 0-10.9 7.76-16.46-7.07-4.68 12.48-13 9.15-16.45 7.07l-2.44-17.31c-.06307738-.4484293.18306283-.883277.6-1.06 5.67-2.39 13.14-6.12 17.86-8.48.2694501-.14050517.5905499-.14050517.86 0 2.12 1.07 11.57 5.84 17.86 8.48.4169372.176723.6630774.6115707.6 1.06z" fill="#549414"/><path id="Shape" d="m34.89 17.76-2.64 18.79c-4 1.28-9.7.93-13.25-8.55-4.68 12.48-13 9.15-16.45 7.07l-2.44-17.31c-.06307738-.4484293.18306283-.883277.6-1.06 5.5-2.32 13.5-6.29 16.79-7.93 3.29 1.64 11.29 5.61 16.79 7.93.4169372.176723.6630774.6115707.6 1.06z" fill="#60a917"/><path id="Shape" d="m35.46 35.07-.46 3.59c-.6382281 4.4567681-2.8263249 8.5461724-6.18 11.55l-9.82 8.79-9.77-8.79c-3.35367508-3.0038276-5.54177193-7.0932319-6.18-11.55l-.51-3.59c3.46 2.07 11.78 5.42 16.46-7.07 4.68 12.49 13 9.14 16.46 7.07z" fill="#008a00"/><path id="Shape" d="m35.46 35.07-.46 3.59c-.6382281 4.4567681-2.8263249 8.5461724-6.18 11.55l-9.82 8.79-1.5-1.35 8.27-7.44c3.3721855-2.9960812 5.5784824-7.086407 6.23-11.55l.3-2.11c1.1053041-.3737615 2.1652495-.8701917 3.16-1.48z" fill="#007900"/></g><g id="Layer_10" fill="#000"><path id="Shape" d="m54.8 47c.2657496.0587019.5439454.0065538.7703926-.1444111.2264473-.1509648.3815824-.3877039.4296074-.6555889l.56-2.81 1.64 2.21c.2143594.2858125.5649147.4355547.9196152.3928203.3547006-.0427344.6596589-.2714531.8-.6.1403412-.3285469.0947442-.7070078-.1196152-.9928203l-2.93-3.9-2.6-6.07c-.3388235-.7862572-.9974373-1.3902898-1.81-1.66l-4.33-1.45 1.87-13.18c.0616039-.4509834-.1891221-.8866712-.61-1.06l-1.09-.46 1.27-1.7c.49-.64.31-.3 2.34-8.41l2.81-2.8c.2536586-.25365856.3527236-.62337399.2598781-.96987806-.0928455-.34650406-.363496-.61715454-.71-.71000002-.3465041-.09284548-.7162195.00621949-.9698781.25987808l-1.76 1.71-.54-2.24c-.1325484-.55228471-.6877153-.89254826-1.24-.75999993-.5522847.13254834-.8925483.6877152-.76 1.23999993l1 3.76c-2 8-1.84 7.49-2 7.72l-1.55 2.07c-2.12-.95-4.44-2-6.64-3.09l-.32-4.56c1.591263-1.30798264 1.9290378-3.61055291.780482-5.32045238-1.1485557-1.70989948-3.4078611-2.26798623-5.220482-1.28954762-1.76-.71-2.76-.53-7.46-.53-.8893975.00833131-1.7688227.18829089-2.59.53-.6073597-.3521361-1.2979607-.53514538-2-.53-1.6985029.0118304-3.2043166 1.09506464-3.7555984 2.7016574-.5512819 1.60659277-.0277999 3.38615395 1.3055984 4.4383426l-.32 4.56c-2.2 1.06-4.52 2.14-6.64 3.09-1.66-2.22-1.65-2.16-1.72-2.42l-1.87-7.37 1-3.76c.0857437-.35726559-.0256247-.73313636-.2921539-.98602542-.2665292-.25288905-.6477271-.34437654-1-.24-.35227295.10437654-.62210236.38875983-.7078461.74602542l-.54 2.24-1.75-1.71c-.39212217-.39212216-1.02787782-.39212216-1.41999999.00000001s-.39212217 1.02787782-.00000001 1.41999999l2.81 2.8 1.83 7.34c.2.81.59 1.17 1.78 2.77l-1.09.46c-.4248251.1698909-.68016318.6064367-.62 1.06l1.86 13.18-4.32 1.45c-.81256266.2697102-1.47117654.8737428-1.81 1.66l-2.6 6.07-2.93 3.9c-.33137081.4418278-.24182775 1.0686291.20000004 1.4.44182778.3313708 1.0686291.2418278 1.39999996-.2l1.66-2.21.54 2.81c.11045695.5522847.64771525.9104569 1.2.8s.91045695-.6477153.8-1.2l-1-4.69 2.53-5.89c.11065584-.2639214.32908316-.4677869.6-.56l4-1.32c.91 6.43 1 9.52 3.52 13.84-3.1 2.76-2.17 1.38-4.55 7.33l-2.9 3.89c-.33137085.4418278-.2418278 1.0686292.2 1.4s1.06862915.2418278 1.4-.2l1.66-2.21.54 2.81c.0714531.3572656.3280774.6492728.6732051.7660254.3451276.1167526.7263255.040513 1-.2s.398248-.6087598.3267949-.9660254l-1-4.7c1.74-4.36 1.7-4.42 2-4.67l1.77-1.57c.8157366 1.1428684 1.7510249 2.1954868 2.79 3.14 10.64 9.57 9.9 9 10.44 9s-.18.5 10.44-9c1.0292821-.9298687 1.9577393-1.9655845 2.77-3.09l1.79 1.52c.25.22.13 0 2 4.67l-1 4.7c-.1104569.5522847.2477153 1.089543.8 1.2.5522847.1104569 1.089543-.2477153 1.2-.8l.56-2.81 1.64 2.21c.2143593.2858125.5649147.4355548.9196153.3928204.3547005-.0427344.6596588-.2714532.8-.6000001.1403412-.3285468.0947441-.7070078-.1196153-.9928203l-2.92-3.89c-1.88-4.82-1.88-4.93-2.57-5.57l-2-1.76c2.56-4.33 2.61-7.41 3.52-13.84l4 1.32c.2709168.0922131.4893442.2960786.6.56l2.57 5.89-1 4.69c-.0587019.2657496-.0065538.5439454.1444111.7703926.1509648.2264473.3877039.3815824.6555889.4296074zm-24.8-28c-.5522847 0-1 .4477153-1 1v8.8c-2.86 7.49-7.76 10.46-14.53 6.65l-2.37-16.83c6.22-2.62 15.72-7.4 17.9-8.5 2.18 1.1 11.68 5.87 17.9 8.5l-2.37 16.83c-6.76 3.8-11.67.86-14.53-6.65v-8.8c0-.5522847-.4477153-1-1-1zm9-14c0 1.1045695-.8954305 2-2 2s-2-.8954305-2-2 .8954305-2 2-2 2 .8954305 2 2zm-16-2c1.1045695 0 2 .8954305 2 2s-.8954305 2-2 2-2-.8954305-2-2 .8954305-2 2-2zm-.5 6c1.4719404.16918165 2.9168263-.48912408 3.7550565-1.71084461.8382302-1.22172054.9324806-2.80670587.2449435-4.11915539.3559506-.096698.7215084-.1537116 1.09-.17 5.2 0 5.15 0 5.9.12-.7165105 1.31765475-.6356754 2.92541799.2093858 4.16456004.8450611 1.23914204 2.31232 1.90140199 3.8006142 1.71543996l.19 2.75c-4-1.95-7.18-3.56-7.24-3.59-.2830476-.14262859-.6169524-.14262859-.9 0-.06 0-3.24 1.64-7.24 3.59zm16.6 41.47-9.1 8.18-9.1-8.18c-3.1963763-2.8400636-5.2861067-6.7184615-5.9-10.95l-.23-1.66c5.61 2.54 10.7 1.22 14.19-4.49v20.63c0 .5522847.4477153 1 1 1s1-.4477153 1-1v-20.63c3.49 5.7 8.57 7 14.19 4.49l-.15 1.66c-.6138933 4.2315385-2.7036237 8.1099364-5.9 10.95z"/><path id="Shape" d="m31 14c0-.5522847-.4477153-1-1-1s-1 .4477153-1 1v2c0 .5522847.4477153 1 1 1s1-.4477153 1-1z"/></g></g></svg>