<?xml version="1.0" encoding="iso-8859-1"?>
<!-- Generator: Adobe Illustrator 21.0.0, SVG Export Plug-In . SVG Version: 6.00 Build 0)  -->
<svg version="1.1" id="Capa_1" xmlns="http://www.w3.org/2000/svg" xmlns:xlink="http://www.w3.org/1999/xlink" x="0px" y="0px"
	 viewBox="0 0 593.282 593.282" style="enable-background:new 0 0 593.282 593.282;" xml:space="preserve">
<g>
	<g>
		<g id="filled_outline_19_">
			<path style="fill:#69CCD7;" d="M558.13,158.209H54.928c-3.56,5.982-5.448,12.815-5.488,19.776v19.776h514.178v-19.776
				C563.578,171.024,561.69,164.191,558.13,158.209z"/>
			<path style="fill:#DD381A;" d="M524.066,138.433H88.992c-14.071,0.03-27.064,7.574-34.064,19.776H558.13
				C551.129,146.007,538.137,138.463,524.066,138.433z"/>
			<path style="fill:#DD381A;" d="M49.44,336.194l-28.616,14.308c-6.704,3.352-10.936,10.195-10.936,17.69v56.995h49.44
				c0-16.384,13.28-29.664,29.664-29.664s29.664,13.28,29.664,29.664h276.865c0-16.384,13.28-29.664,29.664-29.664
				s29.664,13.28,29.664,29.664h108.768V197.761H49.44V336.194z"/>
			<rect x="484.514" y="286.754" style="fill:#69CCD7;" width="79.104" height="128.544"/>
			<rect x="9.888" y="415.298" style="fill:#DD381A;" width="583.394" height="19.776"/>
			<rect x="138.433" y="197.761" style="fill:#F5AE45;" width="316.417" height="59.328"/>
			<rect x="138.433" y="237.313" style="fill:#F09E26;" width="316.417" height="19.776"/>
			<path style="fill:#C3C9D1;" d="M19.776,286.754H0V257.09c0-10.926,8.85-19.776,19.776-19.776H49.44v19.776H19.776V286.754z"/>
			<rect x="9.888" y="365.858" style="fill:#D0D7DF;" width="29.664" height="19.776"/>
			<circle style="fill:#697B8C;" cx="88.992" cy="425.186" r="29.664"/>
			<circle style="fill:#697B8C;" cx="425.186" cy="425.186" r="29.664"/>
			<polygon style="fill:#69CCD7;" points="148.321,286.754 128.545,257.09 49.44,257.09 49.44,336.194 444.962,336.194 
				444.962,286.754 			"/>
			<rect x="49.44" y="316.418" style="fill:#61BDC7;" width="395.521" height="19.776"/>
			<rect x="49.44" y="177.985" style="fill:#61BDC7;" width="514.178" height="19.776"/>
			<rect x="484.514" y="395.522" style="fill:#61BDC7;" width="79.104" height="19.776"/>
			<rect x="29.664" y="237.313" style="fill:#B7BDC4;" width="19.776" height="19.776"/>
			<path d="M9.888,435.074h40.956c5.359,21.071,26.787,33.797,47.858,28.438c13.972-3.56,24.878-14.466,28.438-28.438h259.897
				c5.359,21.071,26.787,33.797,47.858,28.438c13.972-3.56,24.878-14.466,28.438-28.438h129.949v-19.776h-19.776V177.985
				c-0.03-27.291-22.149-49.41-49.44-49.44H88.992c-27.291,0.03-49.411,22.149-49.44,49.44v59.328H19.776
				C8.85,237.313,0,246.163,0,257.09v29.664h19.776V257.09h19.776v72.993l-23.158,11.579C6.319,346.655-0.039,356.949,0,368.191
				v56.995C0,430.644,4.43,435.074,9.888,435.074z M88.992,444.962c-10.926,0-19.776-8.85-19.776-19.776
				c0-10.926,8.85-19.776,19.776-19.776s19.776,8.85,19.776,19.776C108.769,436.112,99.919,444.962,88.992,444.962z
				 M425.186,444.962c-10.926,0-19.776-8.85-19.776-19.776c0-10.926,8.85-19.776,19.776-19.776s19.776,8.85,19.776,19.776
				C444.962,436.112,436.112,444.962,425.186,444.962z M514.178,415.298h-19.776V296.642h19.776V415.298z M553.73,415.298h-19.776
				V296.642h19.776V415.298z M464.738,148.321h59.328c16.384,0,29.664,13.28,29.664,29.664v9.888h-88.992V148.321z M464.738,207.649
				h88.992v29.664h-88.992V207.649z M385.633,148.321h59.328v39.552h-59.328V148.321z M306.529,148.321h59.328v39.552h-59.328
				V148.321z M227.425,148.321h59.328v39.552h-59.328V148.321z M148.321,148.321h59.328v39.552h-59.328V148.321z M148.321,207.649
				h296.641v29.664H148.321V207.649z M59.328,177.985c0-16.384,13.28-29.664,29.664-29.664h39.552v39.552H59.328V177.985z
				 M59.328,207.649h69.216v29.664H59.328V207.649z M59.328,257.09h54.384l24.72,32.957v36.259H59.328V257.09z M19.776,385.634
				h19.776v-19.776h-19.45c0.662-2.828,2.551-5.211,5.142-6.506l26.53-13.27h393.188c5.458,0,9.888-4.43,9.888-9.888v-49.44
				c0-5.458-4.43-9.888-9.888-9.888H153.265l-14.832-19.776H553.73v19.776h-69.216c-5.458,0-9.888,4.43-9.888,9.888v128.544h-11.134
				c-0.396-1.345-0.87-2.66-1.404-3.955c-0.218-0.593-0.376-1.216-0.623-1.8c-0.939-2.175-2.076-4.262-3.392-6.229
				c-0.287-0.425-0.643-0.791-0.939-1.206c-1.078-1.503-2.254-2.927-3.52-4.272c-0.583-0.593-1.216-1.117-1.829-1.681
				c-1.127-1.058-2.314-2.047-3.55-2.966c-0.732-0.524-1.483-0.989-2.245-1.483c-1.276-0.801-2.591-1.513-3.955-2.156
				c-0.811-0.386-1.612-0.771-2.452-1.107c-1.523-0.583-3.085-1.068-4.677-1.454c-0.771-0.198-1.503-0.445-2.284-0.593
				c-4.895-0.999-9.938-0.999-14.832,0c-0.781,0.148-1.513,0.396-2.284,0.593c-1.592,0.386-3.154,0.87-4.677,1.454
				c-0.84,0.336-1.641,0.722-2.452,1.107c-1.365,0.643-2.68,1.355-3.955,2.156c-0.761,0.475-1.513,0.989-2.245,1.483
				c-1.236,0.92-2.423,1.908-3.55,2.966c-0.613,0.564-1.246,1.088-1.829,1.681c-1.266,1.345-2.442,2.769-3.52,4.272
				c-0.297,0.415-0.653,0.781-0.939,1.206c-1.315,1.968-2.452,4.054-3.392,6.229c-0.247,0.583-0.405,1.206-0.623,1.8
				c-0.534,1.295-1.009,2.61-1.404,3.955h-259.62c-0.396-1.345-0.87-2.66-1.404-3.955c-0.218-0.593-0.376-1.216-0.623-1.8
				c-0.939-2.175-2.076-4.262-3.392-6.229c-0.287-0.425-0.643-0.791-0.989-1.206c-1.078-1.503-2.254-2.927-3.52-4.272
				c-0.583-0.593-1.216-1.117-1.829-1.681c-1.127-1.058-2.314-2.047-3.55-2.966c-0.732-0.524-1.483-0.989-2.245-1.483
				c-1.276-0.801-2.591-1.513-3.955-2.156c-0.811-0.386-1.612-0.771-2.452-1.107c-1.523-0.583-3.085-1.068-4.677-1.454
				c-0.771-0.198-1.503-0.445-2.284-0.593c-4.895-0.999-9.937-0.999-14.832,0c-0.781,0.148-1.513,0.396-2.284,0.593
				c-1.592,0.386-3.154,0.87-4.677,1.454c-0.84,0.336-1.641,0.722-2.452,1.107c-1.365,0.643-2.68,1.355-3.955,2.156
				c-0.761,0.475-1.513,0.989-2.245,1.483c-1.236,0.92-2.423,1.908-3.55,2.966c-0.613,0.564-1.246,1.088-1.829,1.681
				c-1.266,1.345-2.442,2.769-3.52,4.272c-0.297,0.415-0.653,0.781-0.939,1.206c-1.315,1.968-2.452,4.054-3.392,6.229
				c-0.247,0.583-0.405,1.206-0.623,1.8c-0.534,1.295-1.009,2.61-1.404,3.955h-30.9V385.634z M158.209,326.306v-29.664h49.44v29.664
				H158.209z M227.425,326.306v-29.664h59.328v29.664H227.425z M306.529,326.306v-29.664h59.328v29.664H306.529z M385.633,326.306
				v-29.664h49.44v29.664H385.633z"/>
			<rect x="148.321" y="365.858" width="237.313" height="19.776"/>
		</g>
	</g>
</g>
<g>
</g>
<g>
</g>
<g>
</g>
<g>
</g>
<g>
</g>
<g>
</g>
<g>
</g>
<g>
</g>
<g>
</g>
<g>
</g>
<g>
</g>
<g>
</g>
<g>
</g>
<g>
</g>
<g>
</g>
</svg>
