<?xml version="1.0" encoding="iso-8859-1"?>
<!-- Generator: Adobe Illustrator 21.0.0, SVG Export Plug-In . SVG Version: 6.00 Build 0)  -->
<svg version="1.1" id="Capa_1" xmlns="http://www.w3.org/2000/svg" xmlns:xlink="http://www.w3.org/1999/xlink" x="0px" y="0px"
	 viewBox="0 0 593.282 593.282" style="enable-background:new 0 0 593.282 593.282;" xml:space="preserve">
<g>
	<g>
		<g id="filled_outline_4_">
			<path style="fill:#4394CC;" d="M580.17,302.85l-21.675-91.158c-2.769-13.863-14.941-23.85-29.081-23.85H9.888v217.537h573.506
				v-75.08C583.394,321.054,582.316,311.838,580.17,302.85z"/>
			<rect x="9.888" y="355.939" style="fill:#3E89BD;" width="573.506" height="49.44"/>
			<path style="fill:#69CCD7;" d="M580.17,302.85l-17.937-75.456H9.888v88.992h572.685
				C582.029,311.828,581.228,307.31,580.17,302.85z"/>
			<circle style="fill:#697B8C;" cx="108.768" cy="405.379" r="39.552"/>
			<circle style="fill:#C3C9D1;" cx="108.768" cy="405.379" r="9.888"/>
			<circle style="fill:#697B8C;" cx="187.873" cy="405.379" r="39.552"/>
			<circle style="fill:#697B8C;" cx="484.514" cy="405.379" r="39.552"/>
			<polygon style="fill:#C3C9D1;" points="227.425,187.842 49.44,187.842 69.216,148.29 207.649,148.29 			"/>
			<circle style="fill:#C3C9D1;" cx="187.873" cy="405.379" r="9.888"/>
			<circle style="fill:#C3C9D1;" cx="484.514" cy="405.379" r="9.888"/>
			<polygon style="fill:#B7BDC4;" points="59.328,168.066 49.44,187.842 227.425,187.842 217.537,168.066 			"/>
			<path style="fill:#61BDC7;" d="M573.99,276.835H9.888v39.552h572.685c-0.544-4.558-1.345-9.077-2.403-13.537L573.99,276.835z"/>
			<path d="M9.888,415.267h50.429c5.369,26.678,31.345,43.952,58.023,38.593c12.024-2.423,22.713-9.235,29.981-19.123
				c16.117,21.922,46.958,26.628,68.88,10.511c9.888-7.268,16.701-17.957,19.123-29.981h199.738
				c5.438,26.757,31.533,44.051,58.29,38.613c19.46-3.955,34.658-19.153,38.613-38.613h50.429c5.458,0,9.888-4.43,9.888-9.888
				v-75.08c0-10.017-1.167-19.994-3.49-29.733l0,0l-21.595-90.802c-3.728-18.471-19.934-31.76-38.781-31.81h-295.88l-16.988-34.084
				c-1.681-3.372-5.132-5.488-8.899-5.468H69.216c-3.748,0-7.179,2.116-8.85,5.468l-17.037,34.084H9.888
				c-5.458,0-9.888,4.43-9.888,9.888v217.537C0,410.837,4.43,415.267,9.888,415.267z M108.768,435.043
				c-16.384,0-29.664-13.28-29.664-29.664c0-16.384,13.28-29.664,29.664-29.664s29.664,13.28,29.664,29.664
				C138.432,421.764,125.153,435.043,108.768,435.043z M187.873,435.043c-16.384,0-29.664-13.28-29.664-29.664
				c0-16.384,13.28-29.664,29.664-29.664s29.664,13.28,29.664,29.664C217.537,421.764,204.257,435.043,187.873,435.043z
				 M484.514,435.043c-16.384,0-29.664-13.28-29.664-29.664c0-16.384,13.28-29.664,29.664-29.664s29.664,13.28,29.664,29.664
				C514.178,421.764,500.898,435.043,484.514,435.043z M570.539,305.134c0.109,0.455,0.138,0.91,0.237,1.365h-76.375v-69.216h60.02
				L570.539,305.134z M75.327,158.178h126.211l9.888,19.776H65.439L75.327,158.178z M19.776,197.73h509.639
				c9.542,0.059,17.7,6.872,19.47,16.246l0.89,3.53H19.776V197.73z M474.626,237.283v69.216h-59.328v-69.216H474.626z
				 M395.521,237.283v69.216h-59.328v-69.216H395.521z M316.417,237.283v69.216h-59.328v-69.216H316.417z M237.313,237.283v69.216
				h-59.328v-69.216H237.313z M158.209,237.283v69.216H98.88v-69.216H158.209z M19.776,237.283h59.328v69.216H19.776V237.283z
				 M19.776,365.827h19.776v-19.776H19.776v-19.776h553.492c0.049,1.345,0.237,2.68,0.237,4.024v15.752H553.73v19.776h19.776v29.664
				h-40.541l0,0c0-0.178-0.119-0.336-0.158-0.514c-0.613-2.818-1.463-5.567-2.561-8.237c-0.386-0.989-0.91-1.819-1.355-2.739
				c-0.85-1.8-1.8-3.55-2.858-5.241c-0.633-0.989-1.355-1.889-2.047-2.818c-1.088-1.473-2.255-2.887-3.5-4.242
				c-0.831-0.88-1.691-1.701-2.581-2.521c-1.325-1.226-2.719-2.373-4.173-3.441c-0.989-0.722-1.978-1.414-2.966-2.067
				c-1.602-0.979-3.253-1.859-4.944-2.66c-1.048-0.504-2.067-0.989-3.154-1.473c-1.938-0.732-3.916-1.345-5.933-1.829
				c-0.989-0.257-1.918-0.593-2.917-0.791c-6.2-1.266-12.587-1.266-18.787,0c-0.989,0.198-1.978,0.534-2.917,0.791
				c-2.017,0.485-3.995,1.098-5.933,1.829c-1.088,0.435-2.106,0.989-3.154,1.473c-1.691,0.801-3.342,1.681-4.944,2.66
				c-0.989,0.653-1.978,1.345-2.966,2.067c-1.454,1.068-2.848,2.215-4.173,3.441c-0.89,0.821-1.75,1.641-2.581,2.521
				c-1.246,1.355-2.413,2.769-3.5,4.242c-0.692,0.93-1.414,1.829-2.047,2.818c-1.058,1.691-2.007,3.441-2.858,5.241
				c-0.445,0.92-0.989,1.79-1.355,2.739c-1.098,2.67-1.948,5.419-2.561,8.237c0,0.178-0.119,0.336-0.158,0.514l0,0h-199.56l0,0
				c0-0.178-0.119-0.336-0.158-0.514c-0.613-2.818-1.463-5.567-2.561-8.237c-0.386-0.989-0.91-1.819-1.355-2.739
				c-0.85-1.8-1.8-3.55-2.858-5.241c-0.633-0.989-1.355-1.889-2.047-2.818c-1.088-1.473-2.254-2.887-3.5-4.242
				c-0.831-0.88-1.691-1.701-2.581-2.521c-1.325-1.226-2.719-2.373-4.173-3.441c-0.989-0.722-1.978-1.414-2.966-2.067
				c-1.602-0.979-3.253-1.859-4.944-2.66c-1.048-0.504-2.067-0.989-3.154-1.473c-1.918-0.732-3.886-1.345-5.883-1.829
				c-0.989-0.257-1.918-0.593-2.966-0.791c-6.071-1.236-12.33-1.236-18.402,0c-0.514,0.099-0.989,0.168-1.533,0.277
				c-2.749,0.603-5.438,1.444-8.039,2.502l-1.463,0.643c-2.601,1.137-5.102,2.502-7.475,4.064l-0.396,0.307
				c-2.264,1.572-4.39,3.322-6.368,5.251c-0.316,0.307-0.643,0.593-0.989,0.91c-1.503,1.523-2.897,3.144-4.193,4.845
				c-1.325-1.74-2.769-3.392-4.311-4.944c-0.316-0.316-0.643-0.603-0.989-0.91c-1.978-1.928-4.104-3.678-6.368-5.251l-0.396-0.307
				c-2.373-1.562-4.875-2.927-7.475-4.064l-1.463-0.643c-2.601-1.058-5.29-1.899-8.039-2.502c-0.504-0.109-0.989-0.178-1.533-0.277
				c-6.071-1.236-12.33-1.236-18.402,0c-0.989,0.198-1.978,0.534-2.917,0.791c-2.017,0.484-3.995,1.098-5.933,1.829
				c-1.088,0.435-2.106,0.989-3.154,1.473c-1.681,0.801-3.312,1.691-4.895,2.66c-0.989,0.653-1.978,1.345-2.966,2.067
				c-1.454,1.068-2.848,2.215-4.173,3.441c-0.89,0.821-1.75,1.641-2.581,2.521c-1.246,1.355-2.413,2.769-3.5,4.242
				c-0.692,0.929-1.414,1.829-2.047,2.818c-1.058,1.691-2.007,3.441-2.858,5.241c-0.445,0.92-0.989,1.79-1.355,2.739
				c-1.098,2.67-1.948,5.419-2.561,8.237c0,0.178-0.119,0.336-0.158,0.514l0,0H19.776V365.827z"/>
			<rect x="237.313" y="346.051" width="197.761" height="19.776"/>
		</g>
	</g>
</g>
<g>
</g>
<g>
</g>
<g>
</g>
<g>
</g>
<g>
</g>
<g>
</g>
<g>
</g>
<g>
</g>
<g>
</g>
<g>
</g>
<g>
</g>
<g>
</g>
<g>
</g>
<g>
</g>
<g>
</g>
</svg>
