<?xml version="1.0" encoding="iso-8859-1"?>
<!-- Generator: Adobe Illustrator 19.0.0, SVG Export Plug-In . SVG Version: 6.00 Build 0)  -->
<svg version="1.1" id="Layer_1" xmlns="http://www.w3.org/2000/svg" xmlns:xlink="http://www.w3.org/1999/xlink" x="0px" y="0px"
	 viewBox="0 0 512 512" style="enable-background:new 0 0 512 512;" xml:space="preserve">
<path style="fill:#FFAA41;" d="M392.817,130.46c36.71-22.944,62.993-31.114,80.784-31.114c15.363,0,24.394,6.087,28.356,14.012
	c1.345,2.689,1.973,5.542,2.023,8.548c0.271,16.111-14.033,36.62-25.653,59.861c-10.608,21.214-21.215,45.718-27.741,61.271
	c-4,9.529-13.303,15.689-23.638,15.689H264.551v-17.102C264.551,241.624,340.527,163.141,392.817,130.46z"/>
<path style="fill:#FF9641;" d="M392.817,130.46c36.71-22.944,62.993-31.114,80.784-31.114c15.363,0,24.394,6.087,28.356,14.012
	c1.345,2.689,1.973,5.542,2.023,8.548c0.065,3.816-0.739,7.897-2.08,12.185c-60.428,17.527-138.273,64.494-227.069,124.636h-10.282
	v-17.102C264.551,241.624,340.527,163.141,392.817,130.46z"/>
<g>
	<path style="fill:#695046;" d="M372.763,144.282c6.915-5.134,13.665-9.828,20.054-13.822c14.968-9.355,28.115-16.146,39.748-21.036
		c17.396,57.595-6.716,130.725-6.716,130.725C437.084,177.427,396.433,153.166,372.763,144.282z"/>
	<path style="fill:#695046;" d="M423.335,250.362c5.837-16.959,15.355-43.693,25.018-66.896
		c10.586-25.42,23.975-48.018,22.994-65.298c-0.183-3.224-0.936-6.259-2.399-9.09c-1.696-3.286-4.199-6.208-7.507-8.536
		c4.392-0.748,8.503-1.195,12.161-1.195c15.363,0,24.394,6.087,28.356,14.012c1.345,2.689,1.973,5.542,2.023,8.548
		c0.272,16.111-14.033,36.62-25.653,59.861c-10.608,21.214-21.215,45.718-27.741,61.271c-4,9.529-13.303,15.689-23.638,15.689h-8.29
		C420.623,256.291,422.253,253.508,423.335,250.362z"/>
</g>
<path style="fill:#FFAA41;" d="M264.551,292.931v-34.204h119.715c0,0,27.459,7.435,42.755,34.204
	c34.204,59.858-14.327,119.715-68.409,119.715C307.306,412.646,264.551,292.931,264.551,292.931z"/>
<path style="fill:#695046;" d="M331.413,390.199c62.339,2.004,101.994-53.623,68.352-104.751
	c-15.046-22.866-43.121-26.722-43.121-26.722h27.622c0,0,27.459,7.435,42.755,34.204c34.204,59.858-14.326,119.715-68.409,119.715
	c-15.52,0-30.244-10.984-43.252-26.265C320.587,388.629,325.946,390.024,331.413,390.199z"/>
<g>
	<circle style="fill:#8C6950;" cx="410.59" cy="370.562" r="9.223"/>
	<circle style="fill:#8C6950;" cx="415.133" cy="143.017" r="7.104"/>
	<circle style="fill:#8C6950;" cx="390.763" cy="388.946" r="8.051"/>
	<circle style="fill:#8C6950;" cx="422.113" cy="345.881" r="6.763"/>
	<circle style="fill:#8C6950;" cx="422.786" cy="158.741" r="4.276"/>
</g>
<path style="fill:#FFAA41;" d="M119.182,130.46c-36.71-22.944-62.993-31.114-80.784-31.114c-15.363,0-24.394,6.087-28.356,14.012
	c-1.345,2.689-1.973,5.542-2.023,8.548c-0.271,16.111,14.033,36.62,25.653,59.861c10.608,21.214,21.215,45.718,27.741,61.271
	c4,9.529,13.303,15.689,23.638,15.689h162.398v-17.102C247.449,241.624,171.472,163.141,119.182,130.46z"/>
<path style="fill:#FF9641;" d="M119.182,130.46c-36.71-22.944-62.993-31.114-80.784-31.114c-15.363,0-24.394,6.087-28.356,14.012
	c-1.345,2.689-1.973,5.542-2.023,8.548c-0.065,3.816,0.739,7.897,2.08,12.185c60.428,17.527,138.273,64.494,227.069,124.636h10.282
	v-17.102C247.449,241.624,171.472,163.141,119.182,130.46z"/>
<g>
	<path style="fill:#695046;" d="M139.236,144.282c-6.915-5.134-13.665-9.828-20.054-13.822
		c-14.968-9.355-28.115-16.146-39.748-21.036c-17.396,57.595,6.716,130.725,6.716,130.725
		C74.916,177.427,115.566,153.166,139.236,144.282z"/>
	<path style="fill:#695046;" d="M88.665,250.362c-5.837-16.959-15.355-43.693-25.018-66.896
		c-10.586-25.42-23.975-48.018-22.994-65.298c0.183-3.224,0.936-6.259,2.399-9.09c1.696-3.286,4.199-6.208,7.507-8.536
		c-4.392-0.748-8.503-1.195-12.161-1.195c-15.363,0-24.394,6.087-28.356,14.012c-1.345,2.689-1.973,5.542-2.023,8.548
		c-0.271,16.111,14.033,36.62,25.653,59.861c10.608,21.214,21.215,45.718,27.741,61.271c4,9.529,13.303,15.689,23.638,15.689h8.29
		C91.377,256.291,89.746,253.508,88.665,250.362z"/>
</g>
<path style="fill:#FFAA41;" d="M247.449,292.931v-34.204H127.734c0,0-27.459,7.435-42.755,34.204
	c-34.204,59.858,14.327,119.715,68.409,119.715C204.693,412.646,247.449,292.931,247.449,292.931z"/>
<path style="fill:#695046;" d="M180.587,390.199c-62.339,2.004-101.994-53.623-68.352-104.751
	c15.046-22.866,43.121-26.722,43.121-26.722h-27.622c0,0-27.459,7.435-42.755,34.204c-34.204,59.858,14.326,119.715,68.409,119.715
	c15.52,0,30.244-10.984,43.252-26.265C191.412,388.629,186.052,390.024,180.587,390.199z"/>
<path style="fill:#463246;" d="M256,310.033L256,310.033c-9.446,0-17.102-7.656-17.102-17.102v-42.755
	c0-9.446,7.656-17.102,17.102-17.102l0,0c9.446,0,17.102,7.656,17.102,17.102v42.755C273.102,302.376,265.444,310.033,256,310.033z"
	/>
<g>
	<circle style="fill:#8C6950;" cx="101.405" cy="370.562" r="9.223"/>
	<circle style="fill:#8C6950;" cx="96.873" cy="143.017" r="7.104"/>
	<circle style="fill:#8C6950;" cx="121.243" cy="388.946" r="8.051"/>
	<circle style="fill:#8C6950;" cx="89.882" cy="345.881" r="6.763"/>
	<circle style="fill:#8C6950;" cx="89.209" cy="158.741" r="4.276"/>
</g>
<path d="M509.125,109.773c-2.826-5.653-8.793-13.123-21.164-16.603c-22.831-6.424-57.201,4.121-99.396,30.492
	c-22.107,13.816-49.241,35.506-80.652,64.467c-23.296,21.479-40.416,39.203-40.587,39.381c-0.056,0.057-0.102,0.12-0.155,0.177
	c-0.509-0.254-1.026-0.493-1.554-0.713c4.037-15.228,16.267-51.204,47.357-82.294c3.131-3.131,3.131-8.206,0-11.337
	c-3.131-3.131-8.207-3.131-11.337,0c-24.557,24.557-38.255,51.619-45.638,71.152c-7.383-19.534-21.082-46.596-45.638-71.152
	c-3.131-3.131-8.207-3.131-11.337,0c-3.131,3.131-3.131,8.206,0,11.337c30.967,30.967,43.267,67.038,47.341,82.301
	c-0.524,0.218-1.036,0.455-1.541,0.708c-0.053-0.059-0.1-0.122-0.156-0.18c-0.171-0.176-17.289-17.902-40.587-39.381
	c-31.409-28.96-58.544-50.649-80.652-64.467C81.238,97.291,46.867,86.747,24.038,93.17C11.667,96.65,5.7,104.12,2.874,109.773
	c-1.831,3.662-2.796,7.699-2.869,11.997c-0.238,14.115,7.978,29.167,17.492,46.596c3,5.497,6.103,11.181,9.005,16.986
	c10.336,20.674,20.67,44.468,27.52,60.787c5.254,12.517,17.432,20.604,31.03,20.604h11.773c-6.684,5.519-13.411,12.77-18.805,22.21
	c-16.209,28.364-16.587,60-1.037,86.793c15.834,27.284,45.825,44.916,76.406,44.916c20.209,0,39.717-13.881,57.982-41.257
	c13.885-20.812,24.163-44.972,30.34-61.575c0.426-1.148,0.827-2.305,1.202-3.469c1.583,0.971,3.284,1.766,5.072,2.37v36.058
	c0,4.427,3.589,8.017,8.017,8.017c4.427,0,8.017-3.589,8.017-8.017v-36.058c1.787-0.604,3.487-1.398,5.069-2.368
	c0.375,1.164,0.775,2.319,1.201,3.466c6.177,16.603,16.455,40.763,30.34,61.575c18.265,27.376,37.772,41.257,57.982,41.257
	c30.581,0,60.572-17.63,76.406-44.916c15.549-26.795,15.172-58.43-1.037-86.793c-5.395-9.44-12.121-16.692-18.805-22.21h11.773
	c13.597,0,25.776-8.087,31.03-20.604c6.849-16.32,17.183-40.114,27.52-60.787c2.903-5.805,6.006-11.489,9.006-16.986
	c9.514-17.428,17.731-32.48,17.492-46.596C511.922,117.472,510.957,113.435,509.125,109.773z M451.539,111.072
	c4.773-0.934,8.907,0.134,11.059,2.856c2.375,3.006,2.33,7.822-0.121,13.217c-1.251,2.752-7.583,18.459-15.462,38.159
	c0.514-17.003-0.91-34.707-5.975-50.745c3.563-1.364,6.88-2.484,9.988-3.412C451.196,111.123,451.367,111.105,451.539,111.072z
	 M281.121,266.743h72.9c4.283,7.861,13.506,27.763,11.555,50.395l-84.454-46.066v-4.329H281.121z M379.809,329.808
	c5.054-22.471,0.048-43.22-5.427-57.271c4.108,2.929,8.887,6.811,13.376,11.6c14.029,14.968,18.868,31.657,14.381,49.605
	c-8.683,34.729-34.116,44.538-54.459,46.536C364.727,365.862,375.503,348.955,379.809,329.808z M301.052,250.71l108.783-67.989
	c7.846,12.332,11.047,27.432,9.559,45.137c-0.492,5.848-1.902,11.59-4.066,17.044c-0.015,0.038-0.031,0.077-0.046,0.115
	c-1.372,3.458-4.68,5.692-8.427,5.692H301.052z M397.064,137.258c10.857-6.785,20.534-12.103,29.158-16.259
	c5.992,20.229,5.608,43.887,3.101,64.599c-4.08-9.839-10.422-19.356-19.886-27.807c-7.536-6.73-15.444-11.281-21.92-14.269
	C390.747,141.311,393.935,139.214,397.064,137.258z M372.081,154.701c4.572,1.388,16.065,5.573,26.677,15.049
	c0.217,0.193,0.423,0.392,0.636,0.588L280.5,244.647c-0.447-1.982-1.127-3.875-2.013-5.65c0.129-0.118,0.261-0.232,0.384-0.36
	C279.433,238.055,326.773,189.128,372.081,154.701z M49.401,113.927c2.151-2.722,6.284-3.789,11.059-2.856
	c0.171,0.033,0.342,0.051,0.513,0.074c3.106,0.928,6.425,2.048,9.988,3.412c-5.065,16.04-6.49,33.744-5.976,50.746
	c-7.88-19.702-14.211-35.407-15.462-38.16C47.071,121.75,47.026,116.932,49.401,113.927z M96.718,245.019
	c-0.009-0.021-0.017-0.044-0.026-0.065c-2.225-5.608-3.641-11.519-4.107-17.536c-1.509-19.461,2.901-33.95,9.637-44.661
	l108.726,67.953H105.145C101.397,250.71,98.089,248.476,96.718,245.019z M124.24,284.137c4.489-4.79,9.269-8.672,13.376-11.6
	c-5.475,14.051-10.479,34.8-5.427,57.271c4.294,19.097,15.027,35.965,31.995,50.355c-2.646-0.263-5.375-0.651-8.149-1.208
	c-24.364-4.893-39.9-20.106-46.177-45.213C105.372,315.794,110.21,299.103,124.24,284.137z M146.425,317.138
	c-1.952-22.632,7.271-42.533,11.555-50.395h72.904v4.327L146.425,317.138z M233.129,238.638c0.124,0.128,0.257,0.244,0.386,0.362
	c-0.886,1.774-1.565,3.668-2.012,5.65l-118.934-74.333c10.696-9.91,22.566-14.201,27.338-15.622
	C185.205,189.114,232.567,238.055,233.129,238.638z M124.482,143.523c-6.475,2.989-14.384,7.54-21.92,14.269
	c-9.474,8.46-15.819,17.99-19.9,27.841c-2.51-20.709-2.892-44.374,3.115-64.634c8.624,4.156,18.301,9.474,29.158,16.26
	C118.063,139.213,121.253,141.31,124.482,143.523z M68.806,239.935c-6.942-16.543-17.429-40.686-27.963-61.754
	c-3.031-6.064-6.205-11.876-9.274-17.498c-8.074-14.791-15.701-28.763-15.534-38.643c0.032-1.908,0.418-3.575,1.178-5.098
	c2.007-4.014,5.763-6.819,11.166-8.339c1.66-0.467,3.693-0.864,6.135-1.077c-3.988,7.438-3.897,16.771,0.412,26.251
	c1.935,4.256,19.372,47.826,46.66,116.582C75.918,249.234,71.098,245.395,68.806,239.935z M90.85,367.7
	c-12.789-22.038-12.402-47.18,1.09-70.791c4.568-7.995,10.418-14.074,16.148-18.616c-14.312,17.772-19.08,38.151-13.782,59.338
	c9.85,39.402,37.289,52.769,58.574,57.043c7.339,1.474,14.41,1.973,20.624,1.973c0.355,0,0.695-0.007,1.044-0.011
	c-8.489,6.212-15.702,7.992-21.159,7.992C128.417,404.629,103.87,390.134,90.85,367.7z M198.033,370.507
	c-2.029,3.041-4.02,5.807-5.977,8.351c-0.245,0.053-0.858,0.183-1.798,0.35c-20.711-12.753-34.256-28.093-40.355-45.704
	l80.962-44.161c-0.089,7.949-1.486,15.65-4.181,22.897C221.87,325.177,211.747,349.951,198.033,370.507z M265.087,292.931
	c0,5.01-4.076,9.086-9.086,9.086c-5.01,0-9.086-4.076-9.086-9.086v-42.755c0-5.003,4.066-9.075,9.067-9.084c0.002,0,0.005,0,0.009,0
	s0.006-0.001,0.01-0.001c0.003,0,0.006,0.001,0.01,0.001s0.005,0,0.009,0c5.001,0.011,9.067,4.081,9.067,9.084V292.931z
	 M285.315,312.24c-2.696-7.247-4.093-14.948-4.181-22.898l80.962,44.161c-6.1,17.614-19.65,32.958-40.369,45.713
	c-0.869-0.16-1.478-0.29-1.784-0.357c-1.956-2.544-3.948-5.31-5.977-8.351C300.252,349.951,290.128,325.177,285.315,312.24z
	 M421.149,367.7c-13.019,22.434-37.567,36.93-62.538,36.93c-5.457,0-12.669-1.78-21.159-7.992c0.348,0.003,0.689,0.011,1.044,0.011
	c6.213,0,13.286-0.5,20.624-1.973c21.285-4.276,48.723-17.642,58.574-57.043c5.313-21.254,0.5-41.693-13.917-59.505
	c5.752,4.547,11.647,10.671,16.282,18.782C433.551,320.52,433.938,345.661,421.149,367.7z M480.429,160.684
	c-3.069,5.621-6.241,11.434-9.274,17.498c-10.533,21.067-21.02,45.21-27.962,61.753c-2.292,5.46-7.112,9.298-12.781,10.424
	c27.288-68.755,44.725-112.325,46.66-116.581c4.309-9.48,4.401-18.812,0.412-26.251c2.442,0.213,4.474,0.609,6.135,1.076
	c5.402,1.52,9.158,4.326,11.166,8.339c0.76,1.521,1.146,3.188,1.178,5.098C496.13,131.921,488.504,145.893,480.429,160.684z"/>
<g>
</g>
<g>
</g>
<g>
</g>
<g>
</g>
<g>
</g>
<g>
</g>
<g>
</g>
<g>
</g>
<g>
</g>
<g>
</g>
<g>
</g>
<g>
</g>
<g>
</g>
<g>
</g>
<g>
</g>
</svg>
