<svg id="Layer_3" enable-background="new 0 0 64 64" height="512" viewBox="0 0 64 64" width="512" xmlns="http://www.w3.org/2000/svg"><path d="m28 52h8v10h-8z" fill="#976947"/><path d="m2 48h60v4h-60z" fill="#c18e59"/><path d="m6 48v-12c0-3.314 2.686-6 6-6h40c3.314 0 6 2.686 6 6v12" fill="#976947"/><path d="m52 30h-40c-2.611 0-4.827 1.671-5.651 4h31.651c1.105 0 2 .895 2 2v6c0 1.105.895 2 2 2s2-.895 2-2v-4c0-1.105.895-2 2-2s2 .895 2 2v2c0 1.105.895 2 2 2s2-.895 2-2v-4c0-1.105.895-2 2-2h3.651c-.824-2.329-3.04-4-5.651-4z" fill="#c18e59"/><path d="m16 30v-12c0-3.314 2.686-6 6-6h20c3.314 0 6 2.686 6 6v12" fill="#976947"/><path d="m42 12h-20c-2.611 0-4.827 1.671-5.651 4h13.651c1.105 0 2 .895 2 2v6c0 1.105.895 2 2 2s2-.895 2-2v-4c0-1.105.895-2 2-2s2 .895 2 2v2c0 1.105.895 2 2 2s2-.895 2-2v-4c0-1.105.895-2 2-2h1.651c-.824-2.329-3.04-4-5.651-4z" fill="#c18e59"/><path d="m32 5c0-1.71-1.431-3.086-3.161-2.996-1.623.085-2.839 1.541-2.839 3.166 0 1.16.515 2.26 1.406 3.002l4.594 3.828 4.594-3.828c.891-.743 1.406-1.843 1.406-3.002 0-1.624-1.216-3.081-2.839-3.166-1.73-.09-3.161 1.286-3.161 2.996" fill="#f5b953"/><path d="m1 61h62v2h-62z"/><path d="m62 53h-60c-.552 0-1-.447-1-1v-4c0-.553.448-1 1-1h60c.552 0 1 .447 1 1v4c0 .553-.448 1-1 1zm-59-2h58v-2h-58z"/><path d="m27 52h2v10h-2z"/><path d="m35 52h2v10h-2z"/><path d="m59 48h-2v-12c0-2.757-2.243-5-5-5h-40c-2.757 0-5 2.243-5 5v12h-2v-12c0-3.86 3.14-7 7-7h40c3.86 0 7 3.14 7 7z"/><path d="m49 30h-2v-12c0-2.757-2.243-5-5-5h-20c-2.757 0-5 2.243-5 5v12h-2v-12c0-3.86 3.14-7 7-7h20c3.86 0 7 3.14 7 7z"/><path d="m32 13c-.228 0-.455-.077-.64-.232l-4.594-3.828c-1.122-.935-1.766-2.31-1.766-3.77 0-2.224 1.663-4.053 3.787-4.164 1.115-.057 2.163.33 2.966 1.092.086.082.169.168.247.256.078-.089.161-.174.247-.256.804-.763 1.861-1.147 2.966-1.092 2.124.111 3.787 1.94 3.787 4.164 0 1.46-.644 2.835-1.766 3.77l-4.594 3.828c-.185.155-.412.232-.64.232zm-3-10c-.036 0-.073.001-.109.003-1.043.055-1.891 1.027-1.891 2.167 0 .865.381 1.68 1.046 2.234l3.954 3.294 3.954-3.294c.665-.554 1.046-1.369 1.046-2.234 0-1.14-.848-2.112-1.891-2.167-.561-.029-1.083.165-1.485.546s-.624.897-.624 1.451c0 .552-.448 1-1 1s-1-.448-1-1c0-.554-.222-1.07-.624-1.451-.375-.356-.86-.549-1.376-.549z"/><path d="m42 45c-1.654 0-3-1.346-3-3v-6c0-.552-.449-1-1-1h-32v-2h32c1.654 0 3 1.346 3 3v6c0 .552.449 1 1 1s1-.448 1-1v-4c0-1.654 1.346-3 3-3s3 1.346 3 3v2c0 .552.449 1 1 1s1-.448 1-1v-4c0-1.654 1.346-3 3-3h4v2h-4c-.551 0-1 .448-1 1v4c0 1.654-1.346 3-3 3s-3-1.346-3-3v-2c0-.552-.449-1-1-1s-1 .448-1 1v4c0 1.654-1.346 3-3 3z"/><path d="m34 27c-1.654 0-3-1.346-3-3v-6c0-.551-.449-1-1-1h-14v-2h14c1.654 0 3 1.346 3 3v6c0 .551.449 1 1 1s1-.449 1-1v-4c0-1.654 1.346-3 3-3s3 1.346 3 3v2c0 .551.449 1 1 1s1-.449 1-1v-4c0-1.654 1.346-3 3-3h2v2h-2c-.551 0-1 .449-1 1v4c0 1.654-1.346 3-3 3s-3-1.346-3-3v-2c0-.551-.449-1-1-1s-1 .449-1 1v4c0 1.654-1.346 3-3 3z"/></svg>