<svg id="Capa_1" enable-background="new 0 0 512.01 512.01" height="512" viewBox="0 0 512.01 512.01" width="512" xmlns="http://www.w3.org/2000/svg"><g><g><path d="m350.303 53.903c2.513-.364 4.664 1.787 4.3 4.3-1.135 7.835-3.837 23.906-8.868 40.56-1.86 6.157-6.617 13.309-9.151 19.239-4.225 9.882-6.862 17.996-13.246 24.38-24.729 24.729-57.628.415-57.628.415s-24.314-32.899.415-57.628c10.49-10.49 28.09-16.312 44.916-21.28 2.479-.732 4.972-2.927 7.391-3.559 13.361-3.491 25.414-5.492 31.871-6.427z" fill="#ccf49f"/><path d="m157.735 58.465c-.359-2.48 1.764-4.602 4.243-4.243 6.342.919 18.152 2.878 31.263 6.293 2.329.607 4.774 4.014 7.161 4.715 16.712 4.904 34.212 9.417 44.639 19.844 24.401 24.401.409 56.865.409 56.865s-31 23.945-55.401-.456c-10.011-10.011-17.208-25.829-22.099-41.929-.867-2.854-3.03-6.431-3.763-9.214-3.513-13.355-5.519-25.435-6.452-31.875z" fill="#ccf49f"/><path d="m242.267 144.008c.726-.443 1.817-1.101 3.187-2.071 0 0 23.992-32.461-.412-56.865-.631-.516-1.611-1.864-6.503-5.493 0 .001-.001.003-.001.004-12.259-8.884-29.695-15.006-45.298-19.065-3.032 10.153-5.296 20.539-6.756 31.076-.536 3.858-.582 7.725-.168 11.522.334 3.058-2.897 5.19-5.579 3.683-2.882-1.62-5.721-3.747-8.458-6.484-3.013-3.013-5.764-6.625-8.263-10.649 4.847 18.649 12.642 39.937 24.572 51.858 18.584 18.591 41.85 9.097 51.882 3.518.584-.326.293-.148 1.797-1.034z" fill="#b3e59f"/><path d="m342.377 101.83c-3.314 3.314-6.846 5.536-10.444 6.93-3.308 1.283-6.806-1.437-6.395-4.961.47-4.033.428-8.147-.164-12.249-1.517-10.574-3.841-21.014-6.941-31.218-12.186 3.178-25.46 7.606-36.575 13.594 0-.002 0-.003 0-.004-.996.907-6.085 2.274-15.732 11.247-24.731 24.731-.417 57.628-.417 57.628s.019.013.045.033c.019.013.036.026.075.054.035.025.078.056.128.091.076.054.17.119.282.197.022.015.041.028.064.044.672.462 1.905 1.271 3.603 2.249.212.122.43.246.656.373.066.037.124.071.191.108h.005c10.166 5.653 33.745 15.275 52.578-3.566 10.479-10.478 17.809-28.079 22.769-44.883-1.177 1.574-2.42 3.025-3.728 4.333z" fill="#b3e59f"/><path d="m255.977 7.811c1.904.005 3.559-1.134 5.407-.861 13.24 1.956 24.731 10.604 30.104 23.171l6.4 14.952c7.069 16.515 11.946 33.885 14.507 51.666 2.795 19.41-12.262 36.791-31.872 36.791h-49.09c-3.058 0-5.747-1.64-8.443-2.463-14.537-4.44-23.525-18.711-21.255-35.043 2.479-17.838 7.281-33.328 14.298-49.915l6.279-14.843c6.05-14.29 18.118-23.494 33.665-23.455z" fill="#e5646e"/><path d="m246.43 133.534h-15c-19.55 0-34.58-17.28-31.89-36.64l.01-.07c2.48-17.84 7.29-35.27 14.3-51.86l6.28-14.84c6.05-14.29 20.07-23.63 35.62-23.59 2.54.01 5.04.26 7.47.73-12.42 2.44-23.03 10.92-28.09 22.86l-6.28 14.84c-7.01 16.59-11.82 34.02-14.3 51.86l-.01.07c-2.69 19.36 12.34 36.64 31.89 36.64z" fill="#dd4a5f"/><path d="m246.546 50.922c3.687-8.031 15.108-8.009 18.763.037 2.71 5.964 5.216 11.525 6.24 13.919 4.952 11.569 7.98 23.87 8.965 36.416l.412 5.252c1.141 14.548-10.356 26.983-24.949 26.983-14.566 0-26.054-12.391-24.954-26.916l.409-5.407c.946-12.489 3.917-24.742 8.797-36.277l.022-.052c1.014-2.394 3.549-7.974 6.295-13.955z" fill="#ff8086"/><path d="m391.505 127.505h-271c-3.508 0-6.875.602-10.004 1.708-11.65 4.12-18.602 19.284-18.602 32.345l2.043 114.947h322.213l5.351-41.43v-37.75l-5.351-17.895 5.351-19.855v-2.07c-.001-16.568-13.432-30-30.001-30z" fill="#fff0af"/><g fill="#f6d190"><path d="m110.505 129.225v33.84c-2.641-.868-6.679.623-10 0-3.181-.597-5.602-3.324-10-3.49v-2.07c0-13.06 8.34-24.17 20-28.28z"/><path d="m110.505 200.815v37.75c-3.231-1.063-6.459-.392-10.819-1.049-2.616-.394-5.81-2.313-9.181-2.441v-37.75c3.736.141 7.174-2.911 10-2.448 3.975.652 6.979 4.945 10 5.938z"/><path d="m421.505 235.075v41.43l-164.449 7.266-166.551-7.266 3.691-16.394-3.691-25.036c24.24.92 25.61 9.93 52.43 9.93 28.27 0 28.27-10 56.53-10 28.27 0 28.27 10 56.53 10 28.27 0 28.27-10 56.53-10 28.27 0 28.27 10 56.54 10 26.83 0 28.2-9.01 52.44-9.93z"/></g><path d="m110.505 238.565v37.94l-12.223 7.266-7.777-7.266v-41.43c8.99.34 14.83 1.79 20 3.49z" fill="#ecbd83"/><path d="m421.505 159.575v37.75c-24.24.92-25.61 9.93-52.44 9.93-28.27 0-28.27-10-56.54-10-28.26 0-28.26 10-56.53 10-28.26 0-28.26-10-56.53-10-28.26 0-28.26 10-56.53 10-26.82 0-28.19-9.01-52.43-9.93l3.436-17.13-3.436-20.62c24.24.92 25.61 9.93 52.43 9.93 28.27 0 28.27-10 56.53-10 28.27 0 28.27 10 56.53 10 28.27 0 28.27-10 56.53-10 28.27 0 28.27 10 56.54 10 26.83 0 28.2-9.01 52.44-9.93z" fill="#f6d190"/><path d="m110.505 163.065v37.75c-5.17-1.7-11.01-3.15-20-3.49v-37.75c8.99.34 14.83 1.79 20 3.49z" fill="#ecbd83"/><path d="m444.505 276.505h-377c-3.508 0-6.875.602-10.004 1.708-11.65 4.12-17.773 19.731-17.773 32.792l1.702 114.5h428.34l4.734-20v-30l-2.181-20 2.181-20v-29c.001-16.568-13.43-30-29.999-30z" fill="#fff0af"/><path d="m474.505 405.505v20l-207.968 12.564-229.032-12.564 1.968-8.628-1.968-11.372z" fill="#f6d190"/><path d="m57.505 278.225v147.28l-16.585-.947-3.415-19.053v-30l3.415-20-3.415-20v-29c0-13.06 8.34-24.17 20-28.28z" fill="#f6d190"/><path d="m37.505 405.505h20v20.542h-20z" fill="#ecbd83"/><path d="m474.505 335.505v40h-437l5.458-19.223-5.458-20.777z" fill="#f6d190"/><path d="m37.505 335.505h20v40h-20z" fill="#ecbd83"/><g><g><path d="m391.245 306.298c2.135.005 4.784-1.061 6.841-.703 12.22 2.123 22.757 10.249 27.751 21.927l6.098 14.245c6.735 15.735 11.382 32.284 13.821 49.225 2.663 18.493-11.683 35.053-30.367 35.053h-46.771c-18.623 0-31.629-16.404-29.065-34.85 2.362-16.996 6.694-32.848 13.379-48.651l5.982-14.142c5.766-13.616 17.518-22.142 32.331-22.104z" fill="#e5646e"/><path d="m382.908 426.048h-14.291c-18.626 0-32.946-16.464-30.383-34.909l.01-.067c2.363-16.997 6.946-33.604 13.624-49.41l5.983-14.139c5.764-13.615 19.122-22.514 33.937-22.476 2.42.01 4.802.248 7.117.695-11.833 2.325-21.942 10.404-26.763 21.78l-5.983 14.139c-6.679 15.806-11.262 32.413-13.624 49.41l-.01.067c-2.563 18.446 11.757 34.91 30.383 34.91z" fill="#dd4a5f"/><path d="m383.019 347.338c3.513-7.652 14.394-7.63 17.877.035 2.582 5.683 4.969 10.98 5.945 13.262 4.718 11.023 7.603 22.743 8.541 34.696l.393 5.004c1.088 13.861-9.867 25.708-23.77 25.708-13.878 0-24.823-11.806-23.775-25.644l.39-5.151c.901-11.899 3.732-23.573 8.381-34.563l.021-.05c.965-2.282 3.381-7.598 5.997-13.297z" fill="#ff8086"/></g><g><path d="m255.245 306.298c2.135.005 4.784-1.061 6.841-.703 12.22 2.123 22.757 10.249 27.751 21.927l6.098 14.245c6.735 15.735 11.382 32.284 13.821 49.225 2.663 18.493-11.683 35.053-30.367 35.053h-46.771c-18.623 0-31.629-16.404-29.065-34.85 2.362-16.996 6.694-32.848 13.379-48.651l5.982-14.142c5.766-13.616 17.518-22.142 32.331-22.104z" fill="#e5646e"/><path d="m246.908 426.048h-14.291c-18.626 0-32.946-16.464-30.383-34.909l.01-.067c2.363-16.997 6.946-33.604 13.624-49.41l5.983-14.139c5.764-13.615 19.122-22.514 33.937-22.476 2.42.01 4.802.248 7.117.695-11.833 2.325-21.942 10.404-26.763 21.78l-5.983 14.139c-6.679 15.806-11.262 32.413-13.624 49.41l-.01.067c-2.563 18.446 11.757 34.91 30.383 34.91z" fill="#dd4a5f"/><path d="m247.019 347.338c3.513-7.652 14.394-7.63 17.877.035 2.582 5.683 4.969 10.98 5.945 13.262 4.718 11.023 7.603 22.743 8.541 34.696l.393 5.004c1.088 13.861-9.867 25.708-23.77 25.708-13.878 0-24.823-11.806-23.775-25.644l.39-5.151c.901-11.899 3.732-23.573 8.381-34.563l.021-.05c.965-2.282 3.381-7.598 5.997-13.297z" fill="#ff8086"/></g><g><path d="m119.245 306.298c2.135.005 4.784-1.061 6.841-.703 12.22 2.123 22.757 10.249 27.751 21.927l6.098 14.245c6.735 15.735 11.382 32.284 13.821 49.225 2.663 18.493-11.683 35.053-30.367 35.053h-46.771c-18.623 0-31.629-16.404-29.065-34.85 2.362-16.996 6.694-32.848 13.379-48.651l5.982-14.142c5.766-13.616 17.518-22.142 32.331-22.104z" fill="#e5646e"/><path d="m110.908 426.048h-14.291c-18.626 0-32.946-16.464-30.383-34.909l.01-.067c2.363-16.997 6.946-33.604 13.624-49.41l5.983-14.139c5.764-13.615 19.122-22.514 33.937-22.476 2.42.01 4.802.248 7.117.695-11.833 2.325-21.942 10.404-26.763 21.78l-5.983 14.139c-6.679 15.806-11.262 32.413-13.624 49.41l-.01.067c-2.563 18.446 11.757 34.91 30.383 34.91z" fill="#dd4a5f"/><path d="m111.019 347.338c3.513-7.652 14.394-7.63 17.877.035 2.582 5.683 4.969 10.98 5.945 13.262 4.718 11.023 7.603 22.743 8.541 34.696l.393 5.004c1.088 13.861-9.867 25.708-23.77 25.708-13.878 0-24.823-11.806-23.775-25.644l.39-5.151c.901-11.899 3.732-23.573 8.381-34.563l.021-.05c.965-2.282 3.381-7.598 5.997-13.297z" fill="#ff8086"/></g></g><g><path d="m422.505 504.505h-333c-.924 0-1.841-.029-2.75-.087-22.467-1.418-38.09-20.089-38.09-42.913v-.551h416.33v.551c0 6.604-.978 12.86-3.638 18.451-6.906 14.515-21.707 24.549-38.852 24.549z" fill="#e8e8e8"/><path d="m465.505 460.955v.55c0 6.61-1.49 12.86-4.15 18.45h-375.393c-3.731 0-6.525 3.362-5.912 7.042 1.009 6.063 3.359 12.532 6.706 17.418-22.47-1.42-40.25-20.08-40.25-42.91v-.55l217.138-8.844z" fill="#d8d8d8"/><path d="m472.58 459.005-431.83.638c-16.569 0-32.245-11.57-32.245-28.138 0-2.761 2.239-5 5-5l14.31-1h471.69c2.761 0 5 2.239 5 5v.449c0 4.659-1.062 9.069-2.957 13.003-4.844 10.057-17.058 15.048-28.968 15.048z" fill="#f8f7f7"/><path d="m501.545 443.955c-4.84 10.06-15.13 17-27.04 17h-437c-16.57 0-30-13.43-30-30v-.45c0-2.76 2.24-5 5-5h15.31c4.52 10.84 15.21 18.45 27.69 18.45z" fill="#e8e8e8"/></g></g><path d="m499.505 418.005h-17.5v-111.5c0-20.678-16.822-37.5-37.5-37.5h-15.5v-111.5c0-20.678-16.822-37.5-37.5-37.5h-45.842c9.897-22.906 14.483-49.925 16.115-61.635.45-3.229-.612-6.402-2.916-8.707-2.304-2.304-5.478-3.372-8.708-2.917-6.991.974-23.805 3.651-41.438 8.891-3.221-10.254-7.232-20.266-12.036-29.967-7.155-15.285-23.487-25.725-40.769-25.666-17.252 0-32.753 9.591-40.454 25.03-4.931 9.888-9.037 20.096-12.32 30.557-17.576-5.21-34.328-7.876-41.284-8.847-3.23-.447-6.404.613-8.707 2.918s-3.366 5.478-2.916 8.706c1.636 11.734 6.221 38.739 16.115 61.636h-45.841c-20.678 0-37.5 16.822-37.5 37.5v111.5h-15.5c-20.678 0-37.5 16.822-37.5 37.5v111.5h-17.5c-6.893 0-12.5 5.607-12.5 12.5-.357 21.206 17.938 38.967 39.49 37.948 3.397 24.568 24.523 43.552 50.01 43.552h333c25.488 0 46.613-18.984 50.01-43.552 21.027 1.146 39.84-16.412 39.49-37.948.001-6.891-5.606-12.499-12.499-12.499zm-54.359 0c5.648-7.605 8.2-17.132 7.021-26.608l-.175-1.405c-.291-2.338-.632-4.666-1.001-6.986h16.014v35h-21.859zm-400.141-75h26.585c-3.075 8.167-5.618 16.51-7.624 25h-18.961zm422 25h-18.976c-2.01-8.49-4.562-16.834-7.641-25h26.616v25zm-74.959 25.064c-4.142 0-7.5 3.357-7.5 7.5v15.454c-1.435-.792-2.755-1.814-3.91-3.06-2.977-3.211-4.435-7.384-4.104-11.75 1.01-15.183 5.054-32.668 10.457-47.561.731-2.165 2.759-3.62 5.046-3.62 2.29 0 4.318 1.458 5.048 3.628 5.214 14.374 9.31 31.471 10.465 47.511.343 4.373-1.108 8.556-4.086 11.776-1.157 1.251-2.479 2.277-3.917 3.072v-15.45c.001-4.143-3.357-7.5-7.499-7.5zm45.061-1.226c1.017 5.478-.452 13.256-5.163 18.67-3.506 3.969-8.31 6.508-13.494 7.218 3.086-5.323 4.541-11.517 4.053-17.734-1.105-16.318-5.424-35.098-11.201-51.118-2.785-8.282-10.528-13.848-19.267-13.848-8.726 0-16.464 5.554-19.257 13.818-5.672 15.609-9.967 33.99-11.203 51.229-.469 6.193.99 12.361 4.066 17.662-5.199-.693-10.024-3.225-13.545-7.194-3.432-3.822-6.379-11.225-5.286-17.996 2.607-21.703 8.875-42.626 18.63-62.187 5.052-10.131 15.223-16.424 26.543-16.424 10.785-.145 22.017 6.698 26.835 17.013 9.495 19.175 15.648 39.661 18.289 60.891zm-101.141-23.838h-23.937c-2.01-8.49-4.562-16.834-7.641-25h39.201c-3.074 8.167-5.617 16.511-7.623 25zm-79.92 25.064c-4.142 0-7.5 3.357-7.5 7.5v15.472c-1.449-.795-2.782-1.823-3.947-3.079-2.977-3.211-4.435-7.384-4.104-11.75 1.01-15.183 5.054-32.668 10.457-47.561.731-2.165 2.759-3.62 5.046-3.62 2.29 0 4.319 1.458 5.049 3.628 5.214 14.374 9.307 31.463 10.465 47.511.343 4.373-1.108 8.556-4.086 11.777-1.147 1.24-2.456 2.26-3.879 3.052v-15.431c-.001-4.142-3.359-7.499-7.501-7.499zm45.061-1.226c1.017 5.478-.452 13.256-5.163 18.67-3.515 3.979-8.335 6.521-13.534 7.223 3.089-5.325 4.544-11.524 4.055-17.75-1.106-16.309-5.424-35.092-11.201-51.106-2.784-8.283-10.527-13.849-19.267-13.849-8.726 0-16.464 5.554-19.257 13.818-5.672 15.609-9.967 33.99-11.203 51.229-.469 6.191.989 12.357 4.063 17.657-5.184-.701-9.992-3.23-13.504-7.188-3.432-3.822-6.379-11.225-5.286-17.996 2.607-21.703 8.875-42.626 18.63-62.187 5.052-10.131 15.223-16.424 26.543-16.424 10.785-.145 22.017 6.698 26.835 17.013 9.495 19.174 15.648 39.66 18.289 60.89zm-101.141-23.838h-23.937c-2.01-8.49-4.562-16.834-7.641-25h39.201c-3.074 8.167-5.617 16.511-7.623 25zm-79.92 25.064c-4.142 0-7.5 3.357-7.5 7.5v15.454c-1.435-.792-2.755-1.814-3.91-3.06-2.977-3.211-4.435-7.384-4.104-11.75 1.01-15.183 5.054-32.668 10.457-47.561.731-2.165 2.759-3.62 5.046-3.62 2.29 0 4.318 1.458 5.048 3.628 5.214 14.374 9.31 31.471 10.465 47.511.343 4.373-1.108 8.556-4.086 11.776-1.157 1.251-2.479 2.277-3.917 3.072v-15.45c.001-4.143-3.357-7.5-7.499-7.5zm45.061-1.226c1.017 5.478-.452 13.256-5.163 18.67-3.506 3.969-8.31 6.508-13.494 7.218 3.086-5.323 4.541-11.517 4.053-17.734-1.105-16.318-5.424-35.098-11.201-51.118-2.785-8.282-10.528-13.848-19.267-13.848-8.726 0-16.464 5.554-19.257 13.818-5.672 15.609-9.967 33.99-11.203 51.229-.469 6.193.99 12.361 4.066 17.662-5.199-.693-10.024-3.225-13.545-7.194-3.432-3.822-6.379-11.225-5.286-17.996 2.607-21.703 8.875-42.626 18.63-62.187 5.052-10.131 15.223-16.424 26.543-16.424 10.785-.145 22.017 6.698 26.835 17.013 9.495 19.175 15.648 39.661 18.289 60.891zm15.06-.446c-.272-2.218-.567-4.491-1.176-8.392h18.017c-.262 1.657-.752 4.938-1.184 8.547-1.133 9.426 1.425 18.893 7.039 26.453h-29.717c5.648-7.605 8.2-17.132 7.021-26.608zm136 0c-.272-2.218-.567-4.491-1.176-8.392h18.017c-.262 1.657-.752 4.938-1.184 8.547-1.133 9.426 1.425 18.893 7.039 26.453h-29.717c5.648-7.605 8.2-17.132 7.021-26.608zm-218.162-186.376c7.886.637 12.631 2.353 17.935 4.282 7.026 2.555 14.991 5.451 30.061 5.451s23.035-2.896 30.061-5.451c6.711-2.441 12.508-4.549 24.936-4.549s18.225 2.107 24.937 4.549c7.027 2.555 14.992 5.451 30.063 5.451s23.035-2.896 30.062-5.451c6.711-2.441 12.508-4.549 24.936-4.549 12.43 0 18.227 2.107 24.939 4.549 7.028 2.555 14.993 5.451 30.065 5.451 15.073 0 23.038-2.896 30.066-5.451 5.305-1.929 10.052-3.646 17.939-4.283v22.719c-10.703.733-17.217 3.09-23.065 5.216-6.712 2.441-12.51 4.549-24.94 4.549s-18.227-2.107-24.939-4.549c-7.028-2.555-14.993-5.451-30.065-5.451-15.071 0-23.035 2.896-30.062 5.451-6.711 2.441-12.508 4.549-24.936 4.549-12.429 0-18.225-2.107-24.937-4.549-7.027-2.555-14.992-5.451-30.062-5.451s-23.035 2.896-30.062 5.451c-6.711 2.441-12.507 4.549-24.935 4.549s-18.224-2.107-24.935-4.549c-5.848-2.126-12.36-4.483-23.062-5.216v-22.718zm247.962-142.465c-2.184 13.253-7.285 38.403-16.836 57.449h-18.845c4.979-6.778 8.018-17.907 6.404-27.713-.932-7.488-2.268-14.889-3.992-22.187 12.753-3.812 25.141-6.213 33.269-7.549zm-82.493 56.302v-15.847c0-4.143-3.358-7.5-7.5-7.5s-7.5 3.357-7.5 7.5v15.851c-5.436-2.918-8.832-8.846-8.351-15.206 1.025-15.416 5.131-33.165 10.616-48.284.758-2.242 2.857-3.749 5.224-3.749 2.371 0 4.471 1.51 5.227 3.757 5.319 14.674 9.455 31.961 10.624 48.233.5 6.364-2.895 12.317-8.34 15.245zm-34.592-87.127c5.146-10.316 15.503-16.726 27.031-16.726 10.982-.148 22.419 6.82 27.327 17.323 9.53 19.054 16.229 41.599 18.742 63.241 1.397 11.227-5.695 21.612-16.552 24.436h-2.567c2.939-5.209 4.398-11.286 3.906-17.564-1.135-16.677-5.494-35.552-11.36-51.841-2.811-8.359-10.625-13.977-19.445-13.977-8.806 0-16.616 5.605-19.435 13.947-5.752 15.829-10.108 34.47-11.362 51.953-.474 6.255.985 12.299 3.908 17.481h-2.667c-10.776-2.822-17.872-13.219-16.537-24.34 2.397-21.198 9.084-44.224 19.011-63.933zm-62.839 30.826c8.094 1.331 20.423 3.719 33.121 7.504-1.457 6.138-3.246 15.628-4.185 23.815-1.147 9.545 1.435 18.772 6.657 26.129h-18.759c-9.55-19.042-14.649-44.187-16.834-57.448zm-45.538 72.448h271c10.608 0 19.518 7.381 21.881 17.275-10.343.779-16.709 3.091-22.446 5.177-6.712 2.441-12.51 4.549-24.94 4.549s-18.227-2.107-24.939-4.549c-7.028-2.555-14.993-5.451-30.065-5.451-15.071 0-23.035 2.896-30.062 5.451-6.711 2.441-12.508 4.549-24.936 4.549-12.429 0-18.225-2.107-24.937-4.549-3.371-1.226-6.856-2.493-11.215-3.509-4.038-.938-8.066 1.569-9.006 5.603s1.568 8.066 5.602 9.007c3.483.812 6.402 1.873 9.493 2.997 7.027 2.555 14.992 5.451 30.063 5.451s23.035-2.896 30.062-5.451c6.711-2.441 12.508-4.549 24.936-4.549 12.43 0 18.227 2.107 24.939 4.549 7.028 2.555 14.993 5.451 30.065 5.451 15.073 0 23.038-2.896 30.066-5.451 5.305-1.929 10.052-3.646 17.939-4.283v22.719c-10.703.733-17.217 3.09-23.065 5.216-6.712 2.441-12.51 4.549-24.94 4.549s-18.227-2.107-24.939-4.549c-7.028-2.555-14.993-5.451-30.065-5.451-15.071 0-23.035 2.896-30.062 5.451-6.711 2.441-12.508 4.549-24.936 4.549-12.429 0-18.225-2.107-24.937-4.549-7.027-2.555-14.992-5.451-30.062-5.451s-23.035 2.896-30.062 5.451c-6.711 2.441-12.507 4.549-24.935 4.549s-18.224-2.107-24.935-4.549c-5.848-2.126-12.36-4.483-23.062-5.216v-22.719c7.886.637 12.631 2.353 17.935 4.282 7.027 2.555 14.991 5.451 30.062 5.451s23.036-2.896 30.062-5.452c2.905-1.057 5.649-2.055 8.852-2.844 4.022-.991 6.479-5.055 5.488-9.077-.992-4.021-5.056-6.478-9.077-5.487-3.984.981-7.241 2.166-10.39 3.312-6.711 2.44-12.507 4.549-24.936 4.549-12.428 0-18.224-2.107-24.935-4.549-5.736-2.085-12.101-4.397-22.442-5.177 2.363-9.894 11.274-17.275 21.881-17.275zm-53 149h234.011c4.142 0 7.5-3.357 7.5-7.5s-3.358-7.5-7.5-7.5h-203.511v-26.234c7.886.637 12.631 2.353 17.935 4.282 7.026 2.555 14.991 5.451 30.061 5.451s23.035-2.896 30.061-5.451c6.711-2.441 12.508-4.549 24.936-4.549s18.225 2.107 24.937 4.549c7.027 2.555 14.992 5.451 30.063 5.451s23.035-2.896 30.062-5.451c6.711-2.441 12.508-4.549 24.936-4.549 12.43 0 18.227 2.107 24.939 4.549 7.028 2.555 14.993 5.451 30.065 5.451 15.073 0 23.038-2.896 30.066-5.451 5.305-1.929 10.052-3.646 17.939-4.283v26.234h-77.319c-4.142 0-7.5 3.357-7.5 7.5s3.358 7.5 7.5 7.5h107.819c12.407 0 22.5 10.094 22.5 22.5v21.5h-32.955c-.404-.849-.824-1.751-2.041-4.218-7.587-15.325-22.923-24.846-40.024-24.846-17.045 0-32.359 9.476-39.966 24.729-.717 1.438-1.413 2.884-2.095 4.335h-51.874c-6.417-16.533-23.51-29.423-42.065-29.063-18.477-.023-34.941 11.477-42.061 29.063h-51.874c-6.417-16.533-23.51-29.423-42.065-29.063-18.477-.023-34.941 11.477-42.061 29.063h-32.919v-21.5c0-12.405 10.093-22.499 22.5-22.499zm-22.5 99h16.003c-.262 1.657-.752 4.938-1.184 8.547-1.133 9.426 1.425 18.893 7.039 26.453h-21.858zm429.5 70.448h-336.011c-4.142 0-7.5 3.357-7.5 7.5s3.358 7.5 7.5 7.5h318.824c-3.24 16.259-17.616 28.552-34.813 28.552h-333c-17.197 0-31.573-12.292-34.813-28.552h48.824c4.142 0 7.5-3.357 7.5-7.5s-3.358-7.5-7.5-7.5h-66.011c-11.715 0-21.368-9-22.407-20.448h481.814c-1.039 11.448-10.692 20.448-22.407 20.448z"/></g></svg>