<?xml version="1.0" encoding="iso-8859-1"?>
<!-- Generator: Adobe Illustrator 19.0.0, SVG Export Plug-In . SVG Version: 6.00 Build 0)  -->
<svg xmlns="http://www.w3.org/2000/svg" xmlns:xlink="http://www.w3.org/1999/xlink" version="1.1" id="Layer_1" x="0px" y="0px" viewBox="0 0 512.002 512.002" style="enable-background:new 0 0 512.002 512.002;" xml:space="preserve">
<path style="fill:#FFA1D5;" d="M434.711,208.338L209.053,433.997c-16.427,16.427-43.06,16.427-59.486,0l-71.565-71.565  c-16.427-16.427-16.427-43.06,0-59.486L303.659,77.287c16.427-16.427,43.06-16.427,59.486,0l71.565,71.565  C451.137,165.278,451.137,191.911,434.711,208.338z"/>
<g>
	<path style="fill:#3FD0FC;" d="M377.821,91.963L400,10.452c11.037,11.037,4.194,23.925,15.505,35.247   c11.322,11.312,24.21,4.468,35.247,15.506c11.041,11.041,3.811,23.553,15.513,35.255c11.701,11.701,23.365,3.623,35.255,15.513   l0.025,0.025l-81.511,22.178L377.821,91.963z"/>
	<path style="fill:#3FD0FC;" d="M134.17,420.042l-22.178,81.511c-11.037-11.037-4.194-23.927-15.506-35.247   c-11.322-11.312-24.21-4.468-35.247-15.506c-11.041-11.041-3.811-23.553-15.513-35.255c-11.701-11.701-23.365-3.623-35.256-15.513   l-0.025-0.025l81.511-22.178L134.17,420.042z"/>
	<path style="fill:#3FD0FC;" d="M220.5,160.447l-82.373,82.373v179.738l11.439,11.439c16.427,16.427,43.06,16.427,59.487,0   L220.5,422.55V160.447z"/>
	<path style="fill:#3FD0FC;" d="M291.552,351.497l82.373-82.373V88.066l-10.779-10.779c-16.427-16.427-43.06-16.427-59.487,0   l-12.106,12.107V351.497z"/>
</g>
<path d="M138.127,355.558c-5.77,0-10.449,4.678-10.449,10.449v0.137c0,5.771,4.679,10.449,10.449,10.449s10.449-4.678,10.449-10.449  v-0.137C148.576,360.236,143.897,355.558,138.127,355.558z"/>
<path d="M291.554,179.249c-5.77,0-10.449,4.678-10.449,10.449v0.137c0,5.771,4.679,10.449,10.449,10.449  c5.77,0,10.449-4.678,10.449-10.449v-0.137C302.003,183.927,297.324,179.249,291.554,179.249z"/>
<path d="M373.927,141.29c-5.77,0-10.449,4.678-10.449,10.449v0.137c0,5.771,4.679,10.449,10.449,10.449  c5.77,0,10.449-4.678,10.449-10.449v-0.137C384.376,145.968,379.697,141.29,373.927,141.29z"/>
<path d="M508.986,104.661c-0.025-0.026-0.05-0.051-0.075-0.077c-8.37-8.369-17.128-9.756-23.523-10.77  c-5.609-0.889-8.452-1.462-11.733-4.743c-3.434-3.435-4.124-6.659-5.143-12.532c-1.154-6.657-2.588-14.942-10.37-22.725  c-7.801-7.8-16.198-9.311-22.946-10.525c-5.863-1.055-9.075-1.757-12.299-4.977c-3.227-3.23-3.928-6.441-4.983-12.304  c-1.214-6.748-2.724-15.145-10.525-22.946c-2.634-2.634-6.473-3.669-10.074-2.709c-3.601,0.957-6.42,3.76-7.398,7.355  l-17.447,64.124l-1.934-1.934c-20.476-20.474-53.789-20.474-74.264,0L70.612,295.557c-20.475,20.475-20.475,53.79,0,74.264  l2.346,2.346L7.702,389.923c0.008,0.011,0.016,0.022,0.024,0.033c-1.7,0.462-3.309,1.351-4.645,2.686  c-4.08,4.08-4.08,10.697,0,14.777c8.37,8.369,17.127,9.756,23.522,10.77c5.609,0.889,8.451,1.462,11.733,4.744  c3.434,3.435,4.124,6.658,5.142,12.531c1.154,6.657,2.589,14.942,10.371,22.724c7.8,7.8,16.198,9.312,22.945,10.525  c5.864,1.055,9.075,1.755,12.299,4.977c3.228,3.23,3.929,6.441,4.984,12.305c1.213,6.748,2.724,15.145,10.524,22.945  c1.985,1.985,4.654,3.061,7.389,3.061c0.894,0,1.797-0.115,2.684-0.351c3.601-0.957,6.42-3.76,7.398-7.355l17.756-65.256  l2.346,2.346c10.238,10.237,23.685,15.356,37.132,15.356c13.447,0,26.894-5.119,37.132-15.356l225.658-225.658  c9.918-9.918,15.38-23.105,15.38-37.132c0-14.027-5.462-27.214-15.38-37.132l-1.934-1.934l64.124-17.448  c3.577-0.974,6.357-3.782,7.328-7.358C512.589,111.145,511.579,107.308,508.986,104.661z M110.352,467.782  c-1.498-2.953-3.558-5.943-6.48-8.868c-8.009-8.004-16.53-9.536-23.375-10.768c-5.717-1.028-8.84-1.706-11.868-4.735  c-2.968-2.966-3.573-5.831-4.557-11.514c-1.131-6.527-2.678-15.464-10.956-23.741c-2.956-2.957-5.97-5.019-8.912-6.506  l45.782-12.456l32.821,32.821L110.352,467.782z M179.309,435.868c-8.444,0-16.384-3.288-22.355-9.26L85.39,355.044  c-12.327-12.326-12.327-32.383,0-44.709l42.287-42.287v64.154c0,5.771,4.679,10.449,10.449,10.449s10.449-4.678,10.449-10.449  V247.15l61.476-61.476v232.547l-8.387,8.387C195.692,432.58,187.753,435.868,179.309,435.868z M427.321,200.95l-42.945,42.945  v-58.213c0-5.771-4.679-10.449-10.449-10.449c-5.77,0-10.449,4.678-10.449,10.449v79.112l-61.477,61.477V222.6  c0-5.771-4.679-10.449-10.449-10.449c-5.77,0-10.449,4.678-10.449,10.449v124.567l-50.155,50.155V164.776l50.155-50.155v41.273  c0,5.771,4.679,10.449,10.449,10.449c5.77,0,10.449-4.678,10.449-10.449V93.722l9.046-9.046c5.971-5.972,13.911-9.26,22.355-9.26  s16.384,3.288,22.355,9.26l71.564,71.564c5.972,5.971,9.259,13.91,9.259,22.355S433.293,194.979,427.321,200.95z M423.139,122.503  l-33.644-33.644l12.145-44.636c1.497,2.953,3.557,5.943,6.479,8.868c8.01,8.003,16.53,9.536,23.376,10.768  c5.717,1.028,8.84,1.706,11.868,4.736c2.966,2.965,3.572,5.83,4.556,11.514c1.131,6.526,2.678,15.463,10.956,23.742  c2.952,2.952,5.961,5.022,8.901,6.509L423.139,122.503z"/>
<g>
</g>
<g>
</g>
<g>
</g>
<g>
</g>
<g>
</g>
<g>
</g>
<g>
</g>
<g>
</g>
<g>
</g>
<g>
</g>
<g>
</g>
<g>
</g>
<g>
</g>
<g>
</g>
<g>
</g>
</svg>
