<?xml version="1.0" encoding="iso-8859-1"?>
<!-- Generator: Adobe Illustrator 19.0.0, SVG Export Plug-In . SVG Version: 6.00 Build 0)  -->
<svg xmlns="http://www.w3.org/2000/svg" xmlns:xlink="http://www.w3.org/1999/xlink" version="1.1" id="Layer_1" x="0px" y="0px" viewBox="0 0 512 512" style="enable-background:new 0 0 512 512;" xml:space="preserve">
<circle style="fill:#9AE523;" cx="256" cy="255.999" r="146.285"/>
<g>
	<path style="fill:#3FD0FC;" d="M175.581,383.574l-40.98,117.977c-13.495-13.495-5.127-29.252-18.956-43.094   c-13.842-13.83-29.599-5.463-43.094-18.958c-13.498-13.498-4.66-28.797-18.966-43.103c-14.307-14.306-28.567-4.429-43.104-18.967   L10.45,377.4l117.977-40.98L175.581,383.574z"/>
	<path style="fill:#3FD0FC;" d="M336.421,128.427L377.4,10.45c13.495,13.495,5.127,29.252,18.957,43.094   c13.842,13.83,29.599,5.463,43.094,18.958c13.498,13.498,4.66,28.797,18.966,43.103c14.306,14.307,28.567,4.429,43.104,18.967   l0.03,0.03l-117.977,40.98L336.421,128.427z"/>
</g>
<path d="M266.449,150.466c0-5.77-4.679-10.449-10.449-10.449c-25.322,0-49.383,8.016-69.58,23.181  c-19.524,14.66-34.198,35.525-41.324,58.753c-1.692,5.517,1.41,11.362,6.926,13.054c1.022,0.313,2.053,0.462,3.068,0.462  c4.47,0,8.607-2.892,9.987-7.387c12.321-40.173,48.86-67.164,90.924-67.164C261.771,160.915,266.449,156.237,266.449,150.466z"/>
<path d="M150.466,245.548c-5.77,0-10.449,4.679-10.449,10.449v0.137c0,5.77,4.679,10.449,10.449,10.449s10.449-4.679,10.449-10.449  v-0.137C160.915,250.227,156.237,245.548,150.466,245.548z"/>
<path d="M359.978,276.996c-5.523-1.695-11.361,1.41-13.054,6.926c-12.321,40.173-48.86,67.164-90.924,67.164  c-5.77,0-10.449,4.679-10.449,10.449c0,5.77,4.679,10.449,10.449,10.449c25.322,0,49.383-8.016,69.58-23.181  c19.524-14.66,34.198-35.525,41.324-58.753C368.595,284.533,365.494,278.688,359.978,276.996z"/>
<path d="M351.086,256.003c0,5.77,4.679,10.449,10.449,10.449c5.77,0,10.449-4.679,10.449-10.449v-0.137  c0-5.77-4.679-10.449-10.449-10.449c-5.77,0-10.449,4.679-10.449,10.449V256.003z"/>
<path d="M508.909,127.181c-9.698-9.698-19.557-11.259-27.479-12.515c-6.564-1.041-10.902-1.727-15.625-6.452  c-4.915-4.915-5.763-9.803-6.934-16.567c-1.354-7.816-3.039-17.543-12.032-26.536c-9.022-9.022-18.891-10.797-26.82-12.224  c-6.751-1.214-11.629-2.092-16.27-6.73c-4.644-4.648-5.521-9.524-6.735-16.274c-1.427-7.931-3.203-17.799-12.224-26.821  c-2.545-2.544-6.219-3.603-9.726-2.795c-3.507,0.805-6.353,3.356-7.534,6.755l-38.353,110.412  C307.32,105.845,282.416,99.266,256,99.266c-86.423,0-156.734,70.311-156.734,156.734c0,26.415,6.579,51.319,18.168,73.176  L7.021,367.529c-3.399,1.181-5.936,4.042-6.741,7.549c-0.805,3.508,0.266,7.196,2.811,9.741  c9.698,9.698,19.557,11.259,27.479,12.515c6.564,1.041,10.902,1.727,15.625,6.452c4.915,4.915,5.763,9.803,6.934,16.567  c1.354,7.816,3.039,17.543,12.032,26.536c9.022,9.022,18.891,10.797,26.82,12.224c6.751,1.214,11.629,2.092,16.27,6.73  c4.644,4.648,5.521,9.524,6.735,16.274c1.427,7.931,3.203,17.799,12.224,26.821c1.981,1.981,4.649,3.06,7.388,3.06  c0.777,0,1.561-0.087,2.336-0.264c3.507-0.806,6.353-3.357,7.534-6.756l38.353-110.412c21.857,11.59,46.761,18.168,73.176,18.168  c86.423,0,156.734-70.311,156.734-156.734c0-26.415-6.579-51.319-18.168-73.176l110.412-38.353c3.399-1.181,5.936-4.042,6.741-7.549  C512.524,133.415,511.453,129.726,508.909,127.181z M432.062,79.889c4.11,4.11,4.999,8.29,6.217,15.324  c0.835,4.822,1.807,10.348,4.469,16.054l-75.488,34.451c-0.124-0.125-0.246-0.254-0.371-0.379l33.943-76.17  c5.472,2.473,10.812,3.444,15.486,4.286C422.91,74.642,427.671,75.499,432.062,79.889z M377.916,40.808  c1.139,4.6,2.911,9.517,6.266,14.385l-33.771,75.783c-1.003-0.76-2.016-1.507-3.038-2.242L377.916,40.808z M40.712,377.95  l88.022-30.576c0.586,0.814,1.174,1.627,1.776,2.429l-75.305,34.368C50.218,380.705,45.284,378.992,40.712,377.95z M79.938,432.111  c-4.11-4.11-4.999-8.29-6.217-15.324c-0.835-4.822-1.807-10.348-4.469-16.054l75.488-34.451c0.124,0.125,0.246,0.254,0.371,0.379  l-33.943,76.17c-5.472-2.473-10.812-3.444-15.486-4.286C89.092,437.359,84.329,436.502,79.938,432.111z M134.085,471.192  c-1.139-4.6-2.911-9.517-6.266-14.385l33.771-75.783c1.003,0.76,2.016,1.507,3.038,2.242L134.085,471.192z M256,391.837  c-74.901,0-135.836-60.935-135.836-135.836S181.099,120.164,256,120.164S391.837,181.099,391.837,256S330.901,391.837,256,391.837z   M383.266,164.626c-0.586-0.814-1.174-1.627-1.776-2.429l75.305-34.367c4.988,3.465,9.922,5.18,14.495,6.221L383.266,164.626z"/>
<g>
</g>
<g>
</g>
<g>
</g>
<g>
</g>
<g>
</g>
<g>
</g>
<g>
</g>
<g>
</g>
<g>
</g>
<g>
</g>
<g>
</g>
<g>
</g>
<g>
</g>
<g>
</g>
<g>
</g>
</svg>
