<?xml version="1.0" encoding="iso-8859-1"?>
<!-- Generator: Adobe Illustrator 19.0.0, SVG Export Plug-In . SVG Version: 6.00 Build 0)  -->
<svg xmlns="http://www.w3.org/2000/svg" xmlns:xlink="http://www.w3.org/1999/xlink" version="1.1" id="Layer_1" x="0px" y="0px" viewBox="0 0 512 512" style="enable-background:new 0 0 512 512;" xml:space="preserve">
<path style="fill:#FFFFFF;" d="M364.371,125.701c-13.419-7.608-21.993-19.079-21.793-37.522V75.972H256h-86.577v12.206  c0.199,18.443-8.375,29.913-21.793,37.522c-21.936,12.437-52.544,26.54-52.544,78.881v255.375c0,22.971,18.622,41.593,41.593,41.593  H256h119.321c22.971,0,41.593-18.622,41.593-41.593V204.583C416.914,152.242,386.306,138.139,364.371,125.701z"/>
<path style="fill:#0092E0;" d="M339.391,10.449H172.609c-11.59,0-20.985,9.396-20.985,20.985v44.451  c0,0.048,0.039,0.087,0.087,0.087h208.577c0.048,0,0.087-0.039,0.087-0.087V31.434C360.376,19.845,350.98,10.449,339.391,10.449z"/>
<path style="fill:#9AE523;" d="M218.345,418.955c-0.002-20.797,16.855-37.653,37.652-37.652  c20.797,0.002,37.656,16.863,37.658,37.658s-16.855,37.653-37.652,37.652C235.207,456.612,218.347,439.752,218.345,418.955z"/>
<path style="fill:#FF5764;" d="M293.655,418.962c-0.002-20.797,16.855-37.653,37.652-37.652  c20.797,0.002,37.656,16.863,37.658,37.658c0.002,20.797-16.855,37.653-37.651,37.652  C310.518,456.618,293.657,439.758,293.655,418.962z"/>
<path style="fill:#3FD0FC;" d="M143.035,418.948c-0.002-20.797,16.855-37.653,37.652-37.651s37.656,16.863,37.658,37.658  c0.002,20.797-16.855,37.653-37.651,37.652C159.899,456.606,143.037,439.744,143.035,418.948z"/>
<path style="fill:#FF6700;" d="M218.338,343.645c-0.002-20.797,16.855-37.653,37.651-37.652  c20.796,0.001,37.656,16.863,37.658,37.658c0.002,20.797-16.855,37.653-37.652,37.651C235.2,381.302,218.34,364.442,218.338,343.645  z"/>
<path style="fill:#FF5764;" d="M143.035,343.645c-0.002-20.797,16.855-37.653,37.652-37.652  c20.797,0.001,37.656,16.863,37.658,37.658c0.002,20.797-16.855,37.653-37.651,37.651  C159.898,381.302,143.037,364.442,143.035,343.645z"/>
<path style="fill:#9AE523;" d="M293.648,343.652c-0.002-20.797,16.855-37.653,37.652-37.652  c20.797,0.002,37.656,16.863,37.658,37.658c0.002,20.797-16.855,37.653-37.651,37.651  C310.51,381.308,293.65,364.449,293.648,343.652z"/>
<path style="fill:#3FD0FC;" d="M180.823,268.339c-0.002-20.797,16.855-37.653,37.652-37.651s37.656,16.863,37.658,37.658  c0.002,20.797-16.855,37.653-37.651,37.652C197.686,305.997,180.825,289.135,180.823,268.339z"/>
<path style="fill:#FF5764;" d="M256.133,268.347c-0.002-20.797,16.855-37.653,37.652-37.652  c20.797,0.002,37.656,16.863,37.658,37.658c0.002,20.797-16.855,37.653-37.652,37.652  C272.995,306.003,256.135,289.142,256.133,268.347z"/>
<path style="fill:#9AE523;" d="M218.338,193.029c-0.002-20.797,16.855-37.653,37.651-37.652  c20.797,0.002,37.656,16.863,37.658,37.658s-16.855,37.653-37.652,37.651C235.2,230.685,218.34,213.826,218.338,193.029z"/>
<path d="M373.119,118.63c-1.219-0.681-2.419-1.352-3.593-2.019h-0.001c-11.551-6.549-16.639-15.283-16.499-28.32  c0.001-0.038,0.001-0.075,0.001-0.113V86.42h7.262c5.81,0,10.536-4.726,10.536-10.536V31.434C370.825,14.102,356.724,0,339.391,0  H172.609c-17.333,0-31.434,14.102-31.434,31.434v44.451c0,5.81,4.726,10.536,10.536,10.536h7.262v1.759c0,0.038,0,0.075,0.001,0.113  c0.14,13.036-4.948,21.77-16.5,28.32c-1.174,0.667-2.374,1.337-3.593,2.019c-21.601,12.077-54.244,30.328-54.244,85.952v255.375  c0,28.696,23.346,52.042,52.043,52.042h238.641c28.696,0,52.042-23.346,52.042-52.042V204.583  C427.363,148.959,394.721,130.707,373.119,118.63z M172.609,20.898H339.39c5.81,0,10.536,4.726,10.536,10.536v34.09h-7.349H169.423  h-7.349V52.419h126.387c5.77,0,10.449-4.678,10.449-10.449s-4.679-10.449-10.449-10.449H162.073v-0.087  C162.073,25.624,166.8,20.898,172.609,20.898z M406.465,459.958c0,17.173-13.971,31.144-31.145,31.144H136.68  c-17.174,0-31.145-13.971-31.145-31.144V204.583c0-43.365,22.137-55.742,43.545-67.711c1.256-0.702,2.492-1.393,3.702-2.079  c18.18-10.307,27.295-26.005,27.09-46.662v-1.707h152.257v1.707c-0.205,20.657,8.909,36.355,27.09,46.662  c1.21,0.687,2.446,1.377,3.702,2.079c21.407,11.969,43.544,24.346,43.544,67.711V459.958z"/>
<path d="M330.206,175.064c0.07,0.041,0.197,0.113,0.269,0.153c1.602,0.885,3.334,1.306,5.045,1.306c3.679,0,7.249-1.949,9.154-5.397  c2.773-5.017,0.984-11.323-3.989-14.143c-4.977-2.866-11.341-1.176-14.238,3.791C323.537,165.759,325.22,172.157,330.206,175.064z"/>
<path d="M367.304,174.287c-4.355-3.785-10.956-3.322-14.74,1.033c-3.786,4.355-3.323,10.956,1.032,14.74  c7.869,6.838,18.331,19.086,18.331,46.392v43.057c0,5.771,4.679,10.449,10.449,10.449s10.449-4.678,10.449-10.449v-43.056  C392.823,209.545,384.475,189.21,367.304,174.287z"/>
<path d="M322.264,52.419h0.137c5.77,0,10.449-4.678,10.449-10.449s-4.679-10.449-10.449-10.449h-0.137  c-5.77,0-10.449,4.678-10.449,10.449S316.494,52.419,322.264,52.419z"/>
<path d="M361.21,381.329c1.425-1.136,2.801-2.349,4.11-3.657c9.085-9.085,14.087-21.165,14.086-34.015  c-0.003-25.809-20.438-46.931-45.977-48.052c5.495-7.958,8.463-17.376,8.462-27.254c-0.003-25.904-20.59-47.081-46.259-48.059  c5.497-7.959,8.465-17.378,8.464-27.257c-0.003-26.524-21.582-48.104-48.106-48.106c-0.002,0-0.002,0-0.005,0  c-12.847,0-24.926,5.003-34.01,14.086c-9.084,9.085-14.087,21.164-14.086,34.015c0.001,10.115,3.147,19.505,8.501,27.259  c-12.066,0.51-23.339,5.445-31.93,14.036c-9.084,9.084-14.087,21.164-14.086,34.014l0,0c0.001,10.11,3.144,19.497,8.495,27.249  c-12.165,0.448-23.541,5.389-32.194,14.042c-9.085,9.085-14.087,21.165-14.086,34.015c0.002,15.224,7.121,28.811,18.196,37.632  c-1.425,1.136-2.801,2.348-4.109,3.656c-9.085,9.085-14.087,21.165-14.086,34.015c0.003,26.523,21.582,48.104,48.106,48.106  c0.002,0,0.002,0,0.005,0c12.846,0,24.925-5.003,34.009-14.086c1.308-1.308,2.52-2.684,3.657-4.11  c8.821,11.079,22.41,18.202,37.638,18.203c0.002,0,0.002,0,0.005,0c12.847,0,24.926-5.003,34.01-14.086  c1.308-1.308,2.52-2.684,3.657-4.11c8.821,11.079,22.41,18.202,37.638,18.204c0.002,0,0.002,0,0.005,0  c12.846,0,24.925-5.003,34.009-14.086c9.085-9.085,14.087-21.165,14.086-34.015C379.411,403.739,372.289,390.15,361.21,381.329z   M358.509,343.661c0.001,7.267-2.829,14.098-7.966,19.236c-5.137,5.137-11.966,7.966-19.231,7.966c-0.001,0-0.002,0-0.003,0  c-15.002-0.001-27.209-12.209-27.21-27.211c-0.001-7.266,2.829-14.098,7.966-19.236c5.137-5.137,11.966-7.966,19.231-7.966  c0.001,0,0.002,0,0.003,0C346.3,316.452,358.508,328.658,358.509,343.661z M293.636,389.058c-2.279-2.862-4.874-5.458-7.735-7.735  c1.425-1.136,2.801-2.349,4.11-3.657s2.521-2.684,3.657-4.11c2.279,2.862,4.874,5.457,7.735,7.735  c-1.425,1.136-2.801,2.349-4.11,3.657S294.772,387.633,293.636,389.058z M218.326,389.051c-2.276-2.859-4.869-5.452-7.728-7.729  c1.425-1.136,2.801-2.348,4.109-3.656s2.52-2.684,3.656-4.109c2.277,2.859,4.87,5.451,7.729,7.728  c-1.425,1.136-2.802,2.349-4.111,3.657C220.673,386.251,219.462,387.626,218.326,389.051z M228.791,343.791  c0-0.047,0.003-0.093,0.003-0.14c0-0.049-0.003-0.098-0.004-0.147c0.036-7.214,2.859-13.991,7.963-19.095  c5.137-5.137,11.967-7.966,19.232-7.966c0.001,0,0.002,0,0.003,0c15.002,0.001,27.209,12.209,27.21,27.21  c0.001,7.267-2.829,14.098-7.966,19.236c-5.137,5.137-11.966,7.966-19.231,7.966c-0.001,0-0.002,0-0.003,0  C241.044,370.853,228.871,358.726,228.791,343.791z M320.994,268.354c0,7.267-2.829,14.099-7.966,19.237  c-5.137,5.137-11.967,7.966-19.232,7.966c-0.001,0-0.002,0-0.003,0c-15.002-0.001-27.209-12.209-27.21-27.211  c-0.001-7.266,2.829-14.098,7.966-19.236c5.137-5.137,11.966-7.966,19.231-7.966c0.001,0,0.002,0,0.003,0  C308.786,241.145,320.993,253.351,320.994,268.354z M236.753,173.793c5.137-5.137,11.967-7.966,19.233-7.966c0,0,0.001,0,0.002,0  c15.002,0.001,27.209,12.208,27.21,27.21c0.001,7.267-2.829,14.098-7.966,19.236c-5.137,5.137-11.966,7.966-19.231,7.966  c-0.001,0-0.002,0-0.003,0c-15.003-0.001-27.21-12.209-27.211-27.211C228.786,185.762,231.615,178.93,236.753,173.793z   M218.47,241.136c0.001,0,0.002,0,0.003,0c15.002,0.001,27.209,12.209,27.21,27.21c0.001,7.267-2.829,14.098-7.966,19.236  c-5.137,5.137-11.966,7.966-19.231,7.966c-0.001,0-0.002,0-0.003,0c-15.003-0.001-27.21-12.208-27.211-27.21  c0-7.267,2.829-14.098,7.966-19.236C204.375,243.966,211.205,241.136,218.47,241.136z M153.485,343.644  c-0.001-7.267,2.829-14.098,7.966-19.236c5.137-5.137,11.966-7.966,19.231-7.966c0.001,0,0.002,0,0.003,0  c14.952,0.001,27.126,12.129,27.206,27.063c0,0.047-0.003,0.093-0.003,0.14c0,0.049,0.003,0.098,0.004,0.147  c-0.036,7.214-2.859,13.991-7.963,19.096s-11.88,7.927-19.093,7.962c-0.05,0-0.098-0.004-0.148-0.004c-0.002,0-0.002,0-0.005,0  c-0.046,0-0.091,0.003-0.137,0.003C165.612,370.768,153.486,358.596,153.485,343.644z M199.93,438.192  c-5.137,5.137-11.966,7.966-19.231,7.966c-0.001,0-0.002,0-0.003,0c-15.002-0.001-27.209-12.209-27.21-27.21  c-0.001-7.267,2.829-14.098,7.966-19.236c5.104-5.104,11.88-7.927,19.093-7.962c0.05,0,0.098,0.004,0.148,0.004  c0.002,0,0.002,0,0.005,0c0.046,0,0.091-0.003,0.137-0.003c14.934,0.083,27.06,12.255,27.061,27.207  C207.897,426.222,205.067,433.054,199.93,438.192z M275.24,438.199c-5.137,5.137-11.967,7.966-19.232,7.966  c-0.001,0-0.002,0-0.003,0c-15.002-0.001-27.209-12.209-27.21-27.21c-0.001-7.267,2.829-14.098,7.966-19.236  c5.137-5.137,11.967-7.966,19.232-7.966c0.001,0,0.002,0,0.003,0c15.002,0.001,27.209,12.209,27.21,27.211  C283.207,426.23,280.377,433.061,275.24,438.199z M350.549,438.205c-5.137,5.137-11.966,7.966-19.231,7.966  c-0.001,0-0.002,0-0.003,0c-15.002-0.001-27.209-12.209-27.21-27.21c-0.001-7.267,2.829-14.098,7.966-19.236  c5.137-5.137,11.966-7.966,19.231-7.966c0.001,0,0.002,0,0.003,0c15.002,0.001,27.209,12.209,27.21,27.21  C358.516,426.237,355.686,433.067,350.549,438.205z"/>
<g>
</g>
<g>
</g>
<g>
</g>
<g>
</g>
<g>
</g>
<g>
</g>
<g>
</g>
<g>
</g>
<g>
</g>
<g>
</g>
<g>
</g>
<g>
</g>
<g>
</g>
<g>
</g>
<g>
</g>
</svg>
