<?xml version="1.0" encoding="iso-8859-1"?>
<!-- Generator: Adobe Illustrator 19.0.0, SVG Export Plug-In . SVG Version: 6.00 Build 0)  -->
<svg xmlns="http://www.w3.org/2000/svg" xmlns:xlink="http://www.w3.org/1999/xlink" version="1.1" id="Layer_1" x="0px" y="0px" viewBox="0 0 512 512" style="enable-background:new 0 0 512 512;" xml:space="preserve">
<ellipse style="fill:#FF7DBE;" cx="256" cy="256" rx="156.735" ry="146.286"/>
<path style="fill:#3FD0FC;" d="M330.653,127.343c-21.291,9.474-43.786,3.937-63.652,23.803l-0.057,0.057  c-27.107,27.107-8.69,53.699-35.367,80.377c-26.677,26.677-55.205,10.196-80.376,35.367c-21.521,21.521-13.228,46.127-26.507,68.945  c17.674,25.253,43.477,45.099,73.95,56.289c5.94-19.153,3.483-38.929,21.173-56.618c25.171-25.171,53.698-8.689,80.376-35.367  c26.677-26.677,8.26-53.27,35.367-80.377l0.057-0.057c19.787-19.787,42.184-14.372,63.4-23.691  C384.9,166.769,360.753,142.589,330.653,127.343z"/>
<g>
	<path style="fill:#FF7DBE;" d="M400.107,313.603l49.593,42.886c5.927,5.124,13.225,7.637,20.49,7.637   c8.787,0,17.525-3.676,23.724-10.844c11.324-13.095,9.888-32.891-3.207-44.215l-25.112-21.715h4.608   c17.312,0,31.347-14.035,31.347-31.347s-14.035-31.347-31.347-31.347h-4.642l25.147-21.746c13.095-11.325,14.53-31.12,3.207-44.215   c-11.325-13.096-31.121-14.53-44.215-3.207l-49.6,42.892L400.107,313.603z"/>
	<path style="fill:#FF7DBE;" d="M111.893,313.603L62.3,356.489c-5.927,5.124-13.225,7.637-20.49,7.637   c-8.787,0-17.525-3.676-23.724-10.844c-11.324-13.095-9.888-32.891,3.207-44.215l25.112-21.715h-4.608   c-17.312,0-31.347-14.035-31.347-31.347s14.035-31.347,31.347-31.347h4.642l-25.147-21.746   c-13.095-11.325-14.53-31.12-3.207-44.215c11.325-13.096,31.121-14.53,44.215-3.207l49.6,42.892L111.893,313.603z"/>
</g>
<path d="M175.552,349.259c-0.709,0-1.428-0.072-2.15-0.224c-5.649-1.182-9.269-6.719-8.088-12.367  c2.379-11.374,6.464-24.652,18.711-36.9c14.744-14.743,30.623-17.495,44.633-19.922c4.283-0.742,8.329-1.443,12.312-2.452  c5.594-1.419,11.278,1.968,12.696,7.562s-1.968,11.278-7.562,12.695c-4.759,1.207-9.396,2.009-13.878,2.787  c-12.537,2.172-23.363,4.048-33.423,14.108c-7.881,7.881-10.91,16.253-13.033,26.401  C184.739,345.875,180.394,349.259,175.552,349.259z"/>
<path d="M271.692,282.338c-2.674,0-5.349-1.02-7.388-3.06c-4.08-4.08-4.08-10.697,0-14.778l0.097-0.097  c4.08-4.08,10.697-4.08,14.778,0c4.08,4.08,4.08,10.697,0,14.778l-0.097,0.097C277.04,281.317,274.366,282.338,271.692,282.338z"/>
<path d="M497.543,301.163l-8.869-7.67C502.482,286.663,512,272.424,512,256.004c0-16.43-9.527-30.674-23.348-37.5l8.891-7.688  c17.432-15.075,19.35-41.521,4.276-58.953c-7.303-8.445-17.457-13.54-28.592-14.348c-11.135-0.801-21.918,2.77-30.362,10.072  l-39.614,34.256C374.992,132.722,319.587,99.265,256,99.265s-118.992,33.457-147.251,82.576l-39.613-34.256  c-8.444-7.303-19.222-10.874-30.362-10.072c-11.135,0.808-21.29,5.903-28.592,14.348c-15.074,17.432-13.156,43.878,4.276,58.953  l8.891,7.688C9.529,225.33,0,239.576,0,256.004c0,16.419,9.518,30.658,23.326,37.489l-8.869,7.67  c-17.432,15.075-19.35,41.521-4.276,58.953c7.945,9.188,19.474,14.458,31.628,14.458c10.028,0,19.732-3.615,27.325-10.183  l39.606-34.249c28.256,49.129,83.666,82.592,147.26,82.592s119.003-33.463,147.26-82.591l39.606,34.25  c7.593,6.566,17.297,10.181,27.325,10.181c12.154,0,23.683-5.269,31.628-14.458C516.893,342.684,514.975,316.237,497.543,301.163z   M256,120.163c13.732,0,27.026,1.77,39.637,5.07c-11.779,2.545-24.327,6.826-36.082,18.58  c-16.008,16.009-18.554,32.083-20.802,46.263c-1.975,12.465-3.68,23.228-14.565,34.113c-11.19,11.191-22.568,13.163-35.742,15.445  c-14.011,2.427-29.89,5.179-44.634,19.922c-14.821,14.821-17.728,30.973-20.293,45.223c-0.388,2.155-0.772,4.28-1.19,6.376  c-8.102-16.864-12.615-35.528-12.615-55.155C109.714,181.1,175.338,120.163,256,120.163z M55.466,348.584  c-3.797,3.284-8.648,5.092-13.657,5.092c-6.081,0-11.847-2.635-15.821-7.23c-7.537-8.715-6.578-21.94,2.138-29.477l25.112-21.715  c3.301-2.855,4.481-7.461,2.957-11.55c-1.523-4.091-5.427-6.802-9.792-6.802h-4.608c-11.523,0-20.898-9.375-20.898-20.898  c0-11.523,9.376-20.898,20.898-20.898h4.642c4.365,0,8.269-2.713,9.792-6.802c1.523-4.09,0.344-8.696-2.957-11.55l-25.147-21.746  c-8.715-7.538-9.675-20.761-2.138-29.477c3.652-4.222,8.729-6.77,14.296-7.174c5.566-0.4,10.959,1.384,15.18,5.035l43.856,37.925  C92.536,218.351,88.816,236.775,88.816,256c0,19.219,3.717,37.637,10.499,54.666L55.466,348.584z M136.942,334.841  c4.036-9.094,5.671-18.17,7.144-26.359c2.314-12.855,4.312-23.958,14.503-34.148c10.06-10.06,20.888-11.936,33.424-14.108  c14.567-2.524,31.077-5.384,46.951-21.258c15.685-15.686,18.205-31.589,20.429-45.62c2.002-12.636,3.731-23.55,14.996-34.814  c10.191-10.191,21.294-12.19,34.15-14.504c6.955-1.252,14.106-2.562,21.418-5.184c22.488,12.288,41.144,29.996,53.873,51.178  c-3.366,0.786-6.824,1.415-10.379,2.055c-14.251,2.565-30.403,5.473-45.282,20.351c-16.008,16.008-18.554,32.081-20.802,46.263  c-1.975,12.465-3.68,23.228-14.565,34.113c-11.191,11.191-22.569,13.163-35.743,15.445c-14.01,2.427-29.889,5.178-44.634,19.922  c-14.82,14.821-17.726,30.973-20.29,45.223c-0.27,1.496-0.537,2.966-0.812,4.42C169.613,367.835,150.93,353.001,136.942,334.841z   M256,391.837c-15.64,0-30.711-2.3-44.851-6.54c0.577-2.772,1.073-5.508,1.557-8.2c2.313-12.855,4.31-23.957,14.499-34.146  c10.06-10.06,20.888-11.936,33.424-14.108c14.567-2.524,31.077-5.384,46.952-21.258c15.686-15.686,18.205-31.589,20.429-45.62  c2.002-12.636,3.731-23.549,14.995-34.813c10.19-10.191,21.293-12.19,34.149-14.503c5.28-0.951,10.674-1.923,16.167-3.483  c5.796,14.607,8.964,30.384,8.964,46.835C402.286,330.9,336.662,391.837,256,391.837z M486.011,346.447  c-3.974,4.594-9.74,7.23-15.821,7.23c-5.009,0-9.86-1.808-13.656-5.092l-43.85-37.919c6.782-17.029,10.499-35.447,10.499-54.666  c0-19.225-3.72-37.649-10.505-54.683l43.856-37.925c4.222-3.652,9.616-5.437,15.18-5.035c5.568,0.403,10.645,2.952,14.296,7.174  c7.537,8.715,6.578,21.94-2.138,29.477l-25.148,21.746c-3.301,2.855-4.48,7.461-2.957,11.55c1.523,4.091,5.427,6.802,9.792,6.802  h4.643c11.523,0,20.898,9.375,20.898,20.898c0,11.523-9.375,20.898-20.898,20.898h-4.608c-4.365,0-8.269,2.713-9.792,6.802  c-1.523,4.09-0.344,8.696,2.957,11.55l25.112,21.715C492.589,324.508,493.548,337.731,486.011,346.447z"/>
<g>
</g>
<g>
</g>
<g>
</g>
<g>
</g>
<g>
</g>
<g>
</g>
<g>
</g>
<g>
</g>
<g>
</g>
<g>
</g>
<g>
</g>
<g>
</g>
<g>
</g>
<g>
</g>
<g>
</g>
</svg>
