<svg id="Layer_3" height="512" viewBox="0 0 64 64" width="512" xmlns="http://www.w3.org/2000/svg" data-name="Layer 3"><path d="m52.993 27v5h-4v-5h-6v5h-2.53l1.53 26h17v-31z" fill="#e0dee0"/><path d="m48.993 27v5h4v-5h4v-11h-12v11z" fill="#e0dee0"/><path d="m48.993 27v5h4v-5h1v-5a3 3 0 1 0 -6 0v5z" fill="#c7e2fb"/><path d="m48.993 27v5h4v-10a3 3 0 0 0 -2.5-2.95 3 3 0 0 0 -2.5 2.95v5z" fill="#e4f5fd"/><path d="m52.993 27v5h-4v-5h-6v5h-2.53l1.412 24h3.85c5.671 0 10.268-5.128 10.268-11.453v-17.547z" fill="#f3f2f3"/><path d="m10.993 27v5h4v-5h4v-11h-12v11z" fill="#e0dee0"/><path d="m10.993 27v5h4v-5h1v-5a3 3 0 0 0 -6 0v5z" fill="#c7e2fb"/><path d="m10.993 27v5h4v-10a3 3 0 0 0 -2.5-2.95 3 3 0 0 0 -2.5 2.95v5z" fill="#e4f5fd"/><path d="m39.993 24 2 34h-20l2-34z" fill="#b8b8b8"/><path d="m23.993 24-2 34h18l-2-34z" fill="#e0dee0"/><path d="m1.993 58h60v4h-60z" fill="#4d5d79"/><path d="m1.993 60h56a2 2 0 0 0 2-2h-58z" fill="#717d94"/><path d="m30.993 2h9v6h-9z" fill="#c66b60"/><path d="m41.993 24-10-12-10 12z" fill="#88542f"/><path d="m41.993 24-10-12-10 12z" fill="#4d5d79"/><path d="m31.993 12 1 1.2v-5.2h-2v5.2z" fill="#b8b8b8"/><path d="m21.993 16-9-10-9 10z" fill="#4d5d79"/><path d="m31.993 42a5 5 0 0 1 5 5v11a0 0 0 0 1 0 0h-10a0 0 0 0 1 0 0v-11a5 5 0 0 1 5-5z" fill="#c7e2fb"/><path d="m31.993 30a3 3 0 0 1 3 3v3a0 0 0 0 1 0 0h-6a0 0 0 0 1 0 0v-3a3 3 0 0 1 3-3z" fill="#c7e2fb"/><path d="m31.493 42.05a4.984 4.984 0 0 0 -4.5 4.95v11h9v-11a4.984 4.984 0 0 0 -4.5-4.95z" fill="#ebf7fe"/><path d="m31.493 30.05a3 3 0 0 0 -2.5 2.95v3h5v-3a3 3 0 0 0 -2.5-2.95z" fill="#ebf7fe"/><path d="m59.993 16-9-10-9 10z" fill="#4d5d79"/><path d="m15.207 14a2.777 2.777 0 0 0 2.755-2.479l-4.969-5.521-7.2 8z" fill="#717d94"/><path d="m53.332 14a2.652 2.652 0 0 0 2.641-2.466l-4.98-5.534-7.2 8z" fill="#717d94"/><path d="m30.993 2v5h2.714a5.272 5.272 0 0 0 5.257-5z" fill="#e47c6f"/><path d="m37.993 19.2-6-7.2-8.334 10h11.61a2.724 2.724 0 0 0 2.724-2.723z" fill="#717d94"/><rect fill="#fff" height="12" rx="2" width="4" x="49.993" y="37"/><path d="m10.993 27v5h4v-5h6v5h2.529l-1.529 26h-17v-31z" fill="#e0dee0"/><path d="m10.993 27v5h4v-5h6v5h2.529l-1.412 24h-3.849c-5.671 0-10.268-5.128-10.268-11.453v-17.547z" fill="#f3f2f3"/><rect fill="#fff" height="12" rx="2" width="4" x="15.993" y="37"/><path d="m62 57h-2v-30a1 1 0 0 0 -1-1h-1v-9h2a1 1 0 0 0 .743-1.669l-9-10a1.03 1.03 0 0 0 -1.486 0l-9 10a1 1 0 0 0 .743 1.669h2v9h-1a1 1 0 0 0 -1 1v4h-.587l-.353-6h.94a1 1 0 0 0 .768-1.641l-9.768-11.721v-2.638h7a1 1 0 0 0 1-1v-6a1 1 0 0 0 -1-1h-8a1 1 0 0 0 -1 1v9.638l-9.768 11.721a1 1 0 0 0 .768 1.641h.94l-.353 6h-.587v-4a1 1 0 0 0 -1-1h-1v-9h2a1 1 0 0 0 .743-1.669l-9-10a1.03 1.03 0 0 0 -1.486 0l-9 10a1 1 0 0 0 .743 1.669h2v9h-1a1 1 0 0 0 -1 1v30h-2a1 1 0 0 0 -1 1v4a1 1 0 0 0 1 1h60a1 1 0 0 0 1-1v-4a1 1 0 0 0 -1-1zm-29-54h6v4h-6zm18 4.5 6.755 7.5h-13.51zm-5 9.5h10v9h-1v-4a4 4 0 0 0 -8 0v4h-1zm3 9v-4a2 2 0 0 1 4 0v4a1 1 0 0 0 -1 1v4h-2v-4a1 1 0 0 0 -1-1zm-6 7a1 1 0 0 0 1-1v-4h4v4a1 1 0 0 0 1 1h4a1 1 0 0 0 1-1v-4h4v29h-15.057l-1.412-24zm-11-19.438 7.865 9.438h-15.73zm7.057 11.438 1.883 32h-2.94v-10a6 6 0 0 0 -12 0v10h-2.94l1.883-32zm-3.057 32h-8v-10a4 4 0 0 1 8 0zm-23-49.5 6.755 7.5h-13.51zm-5 9.5h10v9h-1v-4a4 4 0 0 0 -8 0v4h-1zm3 9v-4a2 2 0 0 1 4 0v4a1 1 0 0 0 -1 1v4h-2v-4a1 1 0 0 0 -1-1zm-5 2h4v4a1 1 0 0 0 1 1h4a1 1 0 0 0 1-1v-4h4v4a1 1 0 0 0 1 1h1.469l-1.412 24h-15.057zm55 33h-58v-2h58z"/><path d="m29 37h6a1 1 0 0 0 1-1v-3a4 4 0 0 0 -8 0v3a1 1 0 0 0 1 1zm1-4a2 2 0 0 1 4 0v2h-4z"/></svg>