<?xml version="1.0" encoding="UTF-8"?>
<svg xmlns="http://www.w3.org/2000/svg" id="Artboard_30" data-name="Artboard 30" viewBox="0 0 64 64" width="512" height="512"><path d="M28,54v6a2,2,0,0,0,2,2h4a2,2,0,0,0,2-2V54Z" style="fill:#96653b"/><path d="M36,57H32.921A2.921,2.921,0,0,0,30,59.921V62h4a2,2,0,0,0,2-2Z" style="fill:#c8874f"/><path d="M47.036,22a2.005,2.005,0,0,0,1.421-3.378L33.741,2.821a2.256,2.256,0,0,0-3.482,0l-14.716,15.8A2.005,2.005,0,0,0,16.964,22Z" style="fill:#94d531"/><path d="M19,22,10.238,36.063A2,2,0,0,0,12.031,39H51.968a2,2,0,0,0,1.793-2.936L45,22Z" style="fill:#78b22a"/><path d="M14,39,8.191,51.965A2.128,2.128,0,0,0,10.008,55H53.854a2.128,2.128,0,0,0,1.817-3.035L50,39Z" style="fill:#5a8b1c"/><path d="M50,39H14L9.755,48.473C11.454,49.68,13.274,50.417,15,50c3.494-.844,4-5.788,7-6,3.642-.258,5.052,6.9,9,7,4.246.1,5.842-8.1,10-8,3.9.095,4.849,7.36,9,8,1.175.181,2.655-.161,4.512-1.687Z" style="fill:#e5e5e5"/><path d="M50,46.956a4.773,4.773,0,0,0,3.158-.738L50,39H41.312C44.944,39.472,45.965,46.334,50,46.956Z" style="fill:#f2f2f2"/><path d="M11.178,45.3A5.524,5.524,0,0,0,15,45.956c3.494-.844,4-5.788,7-6,3.642-.258,5.052,6.9,9,7,4.089.1,5.727-7.482,9.554-7.956H14Z" style="fill:#f2f2f2"/><path d="M17,34c3.659-.254,4.461-5.871,8-6,3.7-.135,5,5.6,9,6,4.147.411,6.013-7.514,9-7,2.622.451,2.477,6.4,5,7,.8.192,1.892-.152,3.409-1.711L45,22H19L12.189,32.931A8.888,8.888,0,0,0,17,34Z" style="fill:#e5e5e5"/><path d="M19,22l-5.04,8.089a8.6,8.6,0,0,0,3.04.363c3.659-.255,4.461-5.871,8-6,3.7-.136,5,5.6,9,6,4.147.411,6.013-7.514,9-7,2.622.451,2.477,6.4,5,7a2.536,2.536,0,0,0,1.959-.492L45,22Z" style="fill:#f2f2f2"/><path d="M33.741,2.821a2.256,2.256,0,0,0-3.482,0L20.245,13.574h0C22.868,15.282,24.7,15.419,26,15c2.968-.953,3.393-4.841,6-5,3.339-.2,4.878,6.036,8,6,1.006-.012,2.182-.675,3.495-2.706Z" style="fill:#e5e5e5"/><path d="M30.259,2.821,22.781,10.85A5.032,5.032,0,0,0,26,11c2.968-.953,3.393-4.841,6-5,3.339-.2,4.878,6.036,8,6a2.868,2.868,0,0,0,1.69-.643L33.741,2.821A2.256,2.256,0,0,0,30.259,2.821Z" style="fill:#f2f2f2"/><path d="M10.008,56H27v4a3,3,0,0,0,3,3h4a3,3,0,0,0,3-3V56H53.854a2.968,2.968,0,0,0,2.483-1.368,3.223,3.223,0,0,0,.251-3.069L51.529,40h.439a3.008,3.008,0,0,0,2.606-1.471,2.976,2.976,0,0,0,.036-2.994L46.8,23h.235a2.922,2.922,0,0,0,2.708-1.789,2.984,2.984,0,0,0-.556-3.27L34.492,2.162a3.253,3.253,0,0,0-4.965-.022l-14.715,15.8a2.984,2.984,0,0,0-.556,3.27A2.922,2.922,0,0,0,16.964,23H17.2L9.356,35.589a2.951,2.951,0,0,0,.068,2.937A3.01,3.01,0,0,0,12.031,40h.426L7.274,51.563a3.228,3.228,0,0,0,.251,3.07A2.97,2.97,0,0,0,10.008,56ZM35,60a1,1,0,0,1-1,1H30a1,1,0,0,1-1-1V56h6ZM31.01,3.481A1.324,1.324,0,0,1,32,3a1.347,1.347,0,0,1,1.01.5l9.2,9.881c-.625.83-1.419,1.607-2.224,1.616h-.014c-1.018,0-1.986-1.242-3.009-2.557C35.659,10.767,34.19,8.855,31.939,9c-1.8.11-2.8,1.48-3.668,2.689a5.522,5.522,0,0,1-2.577,2.357,5.1,5.1,0,0,1-3.867-.707ZM16.09,20.413a1.01,1.01,0,0,1,.184-1.109l4.149-4.455c2.205,1.272,4.182,1.649,5.883,1.1a7.327,7.327,0,0,0,3.586-3.09c.811-1.123,1.35-1.814,2.169-1.864,1.2-.08,2.226,1.262,3.326,2.674C36.661,15.308,37.979,17,39.971,17h.041a4.76,4.76,0,0,0,3.577-2.137L47.726,19.3a1.01,1.01,0,0,1,.184,1.109.947.947,0,0,1-.874.587H16.964A.947.947,0,0,1,16.09,20.413ZM44.445,23l5.686,9.124c-.783.69-1.443,1.015-1.9.9-.723-.173-1.257-1.6-1.729-2.856-.673-1.795-1.436-3.83-3.333-4.156-2.012-.347-3.407,1.595-4.763,3.47C37.1,31.3,35.753,33.17,34.1,33.005c-1.582-.157-2.714-1.447-3.912-2.812C28.84,28.657,27.319,26.917,24.964,27c-2.24.083-3.553,1.814-4.71,3.341-1.043,1.377-1.943,2.565-3.323,2.661a7.762,7.762,0,0,1-3.292-.508L19.555,23Zm-33.3,14.5a.938.938,0,0,1-.055-.909L12.575,34.2a9.73,9.73,0,0,0,4.494.8c2.286-.159,3.611-1.907,4.78-3.449,1.016-1.343,1.895-2.5,3.187-2.549,1.445-.054,2.443,1.137,3.648,2.511,1.336,1.523,2.849,3.25,5.217,3.484,2.8.287,4.641-2.281,6.126-4.338.951-1.314,2.025-2.809,2.8-2.672s1.316,1.6,1.8,2.889c.645,1.724,1.378,3.678,3.136,4.1a2.852,2.852,0,0,0,.658.077A4.491,4.491,0,0,0,51.2,33.84l1.681,2.7a.963.963,0,0,1-.024.965,1.011,1.011,0,0,1-.889.5H12.031A1.013,1.013,0,0,1,11.141,37.5ZM49.346,40l3.935,8.994a4.4,4.4,0,0,1-3.129,1.018c-1.621-.25-2.72-1.938-3.885-3.725-1.355-2.078-2.756-4.226-5.243-4.287h-.106c-2.535,0-4.132,2.23-5.676,4.388C33.9,48.266,32.6,50.039,31.024,50c-1.489-.037-2.632-1.593-3.844-3.241-1.353-1.84-2.906-3.923-5.25-3.757-1.97.14-3.076,1.751-4.051,3.172-.889,1.3-1.73,2.52-3.113,2.854a5.044,5.044,0,0,1-3.751-.922L14.648,40ZM9.1,52.373l1.09-2.433a6.791,6.791,0,0,0,5.041,1.032c2.13-.514,3.28-2.189,4.294-3.667.951-1.386,1.584-2.24,2.542-2.307,1.25-.081,2.35,1.384,3.5,2.946,1.377,1.872,2.937,3.994,5.408,4.056,2.671.072,4.38-2.333,5.893-4.449,1.321-1.846,2.554-3.565,4.107-3.551,1.434.035,2.494,1.659,3.615,3.379,1.291,1.98,2.753,4.224,5.257,4.609a4.722,4.722,0,0,0,.724.055A6.509,6.509,0,0,0,54.1,50.855l.661,1.511a1.23,1.23,0,0,1-.093,1.172.963.963,0,0,1-.809.462H10.008a.963.963,0,0,1-.809-.461A1.232,1.232,0,0,1,9.1,52.373Z"/></svg>
