<svg id="Layer_3" height="512" viewBox="0 0 64 64" width="512" xmlns="http://www.w3.org/2000/svg" data-name="Layer 3"><path d="m47 58v-51h-4l-.757-.757a14.485 14.485 0 0 0 -10.243-4.243 14.485 14.485 0 0 0 -10.243 4.243l-.757.757h-4v51" fill="#3b2824"/><circle cx="32" cy="17" fill="#f2f2f2" r="11"/><path d="m32 6a11 11 0 0 0 -8.485 18h11.485a4 4 0 0 0 4-4v-11.485a10.955 10.955 0 0 0 -7-2.515z" fill="#fff"/><path d="m21 32h22v22h-22z" fill="#594139"/><path d="m21 32v20h16a3 3 0 0 0 3-3v-17z" fill="#896f65"/><rect fill="#a18c84" height="12" rx="2" width="13" x="23" y="35"/><circle cx="32" cy="47" fill="#f3a845" r="3"/><path d="m32 44a3 3 0 0 0 -3 3 2.962 2.962 0 0 0 .184 1h1.816a2 2 0 0 0 2-2v-1.816a2.962 2.962 0 0 0 -1-.184z" fill="#eecc61"/><path d="m15 58h34v4h-34z" fill="#3b2824"/><path d="m25 32v2a2 2 0 0 0 2 2h10a2 2 0 0 0 2-2v-2z" fill="#ccc"/><path d="m15 60h30a2 2 0 0 0 2-2h-32z" fill="#4b352f"/><path d="m37 32h-12v2h10a2 2 0 0 0 2-2z" fill="#f2f2f2"/><path d="m49 57h-1v-50a1 1 0 0 0 -1-1h-3.585l-.465-.465a15.487 15.487 0 0 0 -21.9 0l-.465.465h-3.585a1 1 0 0 0 -1 1v50h-1a1 1 0 0 0 -1 1v4a1 1 0 0 0 1 1h34a1 1 0 0 0 1-1v-4a1 1 0 0 0 -1-1zm-31-49h3a1 1 0 0 0 .708-.293l.756-.758a13.487 13.487 0 0 1 19.071 0l.757.758a1 1 0 0 0 .708.293h3v49h-28zm30 53h-32v-2h32z"/><path d="m32 29a12 12 0 1 0 -12-12 12.013 12.013 0 0 0 12 12zm-9.949-13a9.945 9.945 0 0 1 2.211-5.324l1.031 1.031 1.414-1.414-1.031-1.031a9.945 9.945 0 0 1 5.324-2.211v1.949h2v-1.949a9.945 9.945 0 0 1 5.324 2.211l-1.031 1.031 1.414 1.414 1.031-1.031a9.945 9.945 0 0 1 2.211 5.324h-1.949v2h1.949a9.945 9.945 0 0 1 -2.211 5.324l-1.031-1.031-1.414 1.414 1.031 1.031a9.945 9.945 0 0 1 -5.324 2.211v-1.949h-2v1.949a9.945 9.945 0 0 1 -5.324-2.211l1.031-1.031-1.414-1.414-1.031 1.031a9.945 9.945 0 0 1 -2.211-5.324h1.949v-2z"/><path d="m43 31h-22a1 1 0 0 0 -1 1v22a1 1 0 0 0 1 1h22a1 1 0 0 0 1-1v-22a1 1 0 0 0 -1-1zm-11 14a2 2 0 1 1 -2 2 2 2 0 0 1 2-2zm-5-10a1 1 0 0 1 -1-1v-1h12v1a1 1 0 0 1 -1 1zm15 18h-20v-20h2v1a3 3 0 0 0 3 3h4v6.142a4 4 0 1 0 2 0v-6.142h4a3 3 0 0 0 3-3v-1h2z"/><path d="m35.293 21.707 1.414-1.414-3.707-3.707v-5.586h-2v6a1 1 0 0 0 .293.707z"/></svg>