<svg id="Artboard_30" height="512" viewBox="0 0 64 64" width="512" xmlns="http://www.w3.org/2000/svg" data-name="Artboard 30"><path d="m32.075 22.662c-2.1 14.031-1.136 26.164 2.371 36.9a2 2 0 0 1 -1.946 2.438h-5.816a2 2 0 0 1 -1.971-1.657 90.958 90.958 0 0 1 2.6-42.067l.687-2.276 2-4 3 7z" fill="#a66a43"/><path d="m31.765 48h-8.33c.083 2.336.249 4.671.513 7h9.191a70.046 70.046 0 0 1 -1.374-7z" fill="#cb8152"/><path d="m24.008 34c-.277 2.326-.457 4.661-.554 7h7.632q-.172-3.414-.057-7z" fill="#cb8152"/><path d="m26.812 20q-.983 3.471-1.684 7h6.4c.154-1.427.332-2.87.552-4.338l.667-2.662z" fill="#cb8152"/><g fill="#78b22a"><path d="m30 12a28.453 28.453 0 0 0 7.4 19.139l2.6 2.861 1.346-3.844a13.718 13.718 0 0 0 -11.346-18.156z"/><path d="m30 12 .89-3.041a9.676 9.676 0 0 1 9.288-6.959 5.937 5.937 0 0 1 5.792 4.633l.208.926z"/><path d="m57 19a123.113 123.113 0 0 0 -26.788-6.97l-.212-.03 8.116-3.819a11.393 11.393 0 0 1 14.332 3.989z"/><path d="m30 12a71.18 71.18 0 0 0 -20.439-3h-2.561l10.71-6.08a7.95 7.95 0 0 1 11.49 5.36z"/><path d="m10 32v-4.223a15.777 15.777 0 0 1 15.778-15.777h4.222a38.083 38.083 0 0 1 -20 20z"/></g><path d="m10 27.777v4.223a31.626 31.626 0 0 1 20-20h-4.222a15.777 15.777 0 0 0 -15.778 15.777z" fill="#94d531"/><path d="m17.71 2.919-10.71 6.081 9.859-2.628a9.985 9.985 0 0 1 9.148 2.134l3.993 3.494-.8-3.72a7.95 7.95 0 0 0 -11.49-5.361z" fill="#94d531"/><path d="m38.117 8.181-8.117 3.819 4.126-.917a23.086 23.086 0 0 1 22.874 7.917l-4.553-6.83a11.393 11.393 0 0 0 -14.33-3.989z" fill="#94d531"/><path d="m30 12a33.937 33.937 0 0 1 9.6 19.2l.4 2.8 1.346-3.844a13.718 13.718 0 0 0 -11.346-18.156z" fill="#94d531"/><path d="m53.28 11.615a12.333 12.333 0 0 0 -6.243-4.8l-.092-.4a6.9 6.9 0 0 0 -6.767-5.415 10.733 10.733 0 0 0 -10.016 7 8.945 8.945 0 0 0 -12.946-5.951l-10.71 6.08a1 1 0 0 0 .494 1.871h2.562a70.184 70.184 0 0 1 13.272 1.276 16.792 16.792 0 0 0 -13.834 16.5v4.224a1 1 0 0 0 1 1 .982.982 0 0 0 .394-.081 38.956 38.956 0 0 0 14.936-11.268 92.44 92.44 0 0 0 -1.6 38.864 3 3 0 0 0 2.954 2.485h5.816a2.984 2.984 0 0 0 2.344-1.128 3.015 3.015 0 0 0 .556-2.626c-3.294-10.081-4.2-20.939-2.772-33.093a29.526 29.526 0 0 0 4.036 5.659l2.6 2.861a1 1 0 0 0 .736.327.961.961 0 0 0 .2-.021.994.994 0 0 0 .744-.649l1.346-3.844a14.658 14.658 0 0 0 -4.371-16.071 122.233 122.233 0 0 1 18.723 5.519 1 1 0 0 0 1.191-1.489zm-25.014 6.951.669-2.2c.105-.185.216-.365.318-.551a29.59 29.59 0 0 0 .593 3.185h-1.705c.043-.144.081-.29.125-.434zm23.35-5.841.332.5a23.879 23.879 0 0 0 -14.482-3.63l1.077-.507a10.454 10.454 0 0 1 13.073 3.637zm1.516 3.811a124.514 124.514 0 0 0 -17.76-4.668 21.926 21.926 0 0 1 17.76 4.668zm-12.954-13.536a4.9 4.9 0 0 1 4.631 3.268 12.313 12.313 0 0 0 -7.118 1.007l-6.106 2.874.267-.91a8.719 8.719 0 0 1 8.326-6.239zm-22 .8a6.951 6.951 0 0 1 10.049 4.689l.165.774-1.727-1.511a10.974 10.974 0 0 0 -10.065-2.347l-2.349.626zm7.939 6.128a72.142 72.142 0 0 0 -12.047-1.779l3.046-.812a8.975 8.975 0 0 1 8.233 1.921zm-1.092 3.107a32.863 32.863 0 0 0 -13.986 13.989 14.773 14.773 0 0 1 13.986-13.986zm-13.2 16.994a30.813 30.813 0 0 1 16.205-16.2 36.852 36.852 0 0 1 -16.202 16.203zm12.658 18.971h6.4c.267 1.691.6 3.356.981 5h-7.008q-.256-2.494-.373-5zm-.076-2q-.061-2.5.017-5h5.7q.158 2.537.479 5zm5.614-7h-5.507q.134-2.505.405-5h5.064q-.055 2.537.038 5zm.034-7h-4.9q.33-2.511.8-5h4.455q-.246 2.536-.355 5zm3.222 27.624a.993.993 0 0 1 -.777.376h-5.816a1 1 0 0 1 -.986-.828c-.241-1.385-.439-2.777-.614-4.172h7.276c.337 1.272.7 2.532 1.111 3.778a1 1 0 0 1 -.194.846zm-2.649-34.624h-4.275q.534-2.517 1.211-5h2.848q.29.906.636 1.79c-.159 1.081-.296 2.149-.42 3.21zm.534-11.251a33.18 33.18 0 0 1 7.366 16.144l-.387-.426a27.366 27.366 0 0 1 -6.979-15.718zm8.023 4.137a12.655 12.655 0 0 1 1.215 10.94l-.009.027a35.228 35.228 0 0 0 -7.461-16.1 12.646 12.646 0 0 1 6.255 5.133z"/></svg>