<svg height="512" viewBox="0 0 48 48" width="512" xmlns="http://www.w3.org/2000/svg"><g id="Line"><path d="m32 18.98v17.02c0 .52-.39.95-.91 1l-11 1c-.409.025-.798-.177-.98-.55 0 0-4-8-4-8-.09-.17-.12-.36-.11-.55.117-1.548 1.036-9.526 1.02-10.9.07-4.246 1.688-8.231 3.52-12 0 0 .72-1.59.72-1.59 1.098-2.609 4.877-3.239 6.74-1.1.618.551 1.093 1.958 1.46 2.69 0 0 .91 2 .91 2 1.682 3.42 2.656 7.162 2.63 10.98z" fill="#ffd267"/><path d="m32 20c-.015-.594.015-1.416-.02-2h-4.98v-4h4.48c-.14-.67-.31-1.34-.52-2h-3.96v-4h2.37l-.91-2h-1.46v-2.69c-.53-.58-1.23-.99-2-1.18v3.87h-2v-3.87c-.77.19-1.47.6-2 1.18v2.69h-1.46l-.91 2h2.37v4h-3.95c-.22.66-.39 1.33-.53 2h4.48v4h-4.98c-.017.566-.04 1.428-.13 2h5.11v6c.024 1.308 1.974 1.319 2 0h2v5c.021 1.303 1.974 1.322 2 0v-5h4c1.304-.013 1.31-1.988 0-2h-4v-4zm-7 4h-2v-4h2zm0-6h-2v-4h2zm0-6h-2v-4h2z" fill="#ffecae"/><path d="m34 24c-2.218 0-4.27 1.004-5.631 2.754l-2.702 3.475c-.407.523-.768 1.08-1.086 1.658-.732-4.034-2.42-7.88-4.95-11.133-1.361-1.75-3.413-2.754-5.631-2.754-.553 0-1 .448-1 1-.138 6.208.314 12.531 2.014 18.517.722 2.647 2.674 4.835 5.221 5.854 1.194.489 2.479.667 3.765.629 4.054.245 7.963-2.541 8.986-6.483 0 0 .663-2.43.663-2.43.897-3.287 1.351-6.681 1.351-10.087 0-.552-.447-1-1-1z" fill="#92b77e"/><path d="m20.234 43.371c1.195.489 2.48.667 3.766.629 4.054.245 7.963-2.541 8.986-6.483 0 0 .663-2.43.663-2.43.897-3.287 1.351-6.681 1.351-10.087 0-.552-.447-1-1-1-.689 0-1.359.108-2 .294v-5.312c.199-5.06-2.121-10.104-4.263-14.575-1.353-3.163-6.119-3.173-7.474 0 0 0-2.111 4.644-2.111 4.644-1.331 2.929-2.042 6.033-2.133 9.249-.648-.19-1.323-.3-2.019-.3-.553 0-1 .448-1 1-.138 6.206.314 12.532 2.014 18.517.721 2.647 2.673 4.835 5.22 5.854zm4.347-11.484c-.368-2.028-.976-4.006-1.815-5.887h2.234v5c.045.316-.31.584-.419.887zm-6.006-17.887h2.425v4h-2.974c.059-1.356.244-2.691.549-4zm4.425-6h2v4h-2zm2 6v4h-2.001v-4zm-2.001 6h2.001v4h-2.001zm4.001 0h3v4h-3zm2.974-2h-2.974v-4h2.426c.304 1.309.489 2.644.548 4zm-8.975 2v2.715c-.427-.672-.878-1.33-1.368-1.961-.212-.272-.445-.519-.688-.754zm6.001 6h2.057c-.243.235-2.057 2.515-2.057 2.515zm1.863-14h-1.863v-4c.057 0 .106-.023.16-.032.539 1.194 1.312 2.8 1.703 4.032zm-3.863-7.728v1.728h-2v-1.728c.601-.356 1.399-.356 2 0zm-4.16 3.696c.054.009.103.032.16.032v4h-1.862c.388-1.227 1.166-2.843 1.702-4.032zm-5.84 12.129c1.202.235 2.281.894 3.053 1.885 3.565 4.524 5.202 10.295 4.947 16.018 0 .552.447 1 1 1s1-.448 1-1c0-2.358.798-4.682 2.245-6.543 1.547-1.778 3.146-4.993 5.738-5.356-.064 3.67-.895 7.374-1.927 10.89-.898 3.366-4.16 5.325-7.555 5.01-3.002.038-5.799-2.108-6.559-5.01-1.532-5.481-2.063-11.212-1.942-16.894z"/></g></svg>