<svg id="Layer_3" height="512" viewBox="0 0 64 64" width="512" xmlns="http://www.w3.org/2000/svg" data-name="Layer 3"><path d="m50 44-1.665 11.81a7.149 7.149 0 0 1 -2.582 4.79 6.3 6.3 0 0 1 -3.944 1.4h-19.618a6.3 6.3 0 0 1 -3.944-1.4 7.149 7.149 0 0 1 -2.582-4.785l-1.665-11.815v-2h36z" fill="#3b5892"/><path d="m45 42h-31v2l1.665 11.81a7.319 7.319 0 0 0 1.144 3.19h26.191a2 2 0 0 0 2-2z" fill="#4c6cb5"/><path d="m28.6 16.668a9.037 9.037 0 0 0 -3.31 2.347c-.1 0-.193-.015-.292-.015a9 9 0 0 0 -9 9 9.1 9.1 0 0 0 .047.924 8.993 8.993 0 1 0 9.955 14.776 8.962 8.962 0 0 0 12 0 8.992 8.992 0 1 0 9.953-14.771 9.1 9.1 0 0 0 .047-.929 9 9 0 0 0 -9-9c-.1 0-.194.012-.292.015a9.037 9.037 0 0 0 -3.31-2.347" fill="#f2b9a1"/><path d="m11.756 33.414a20.96 20.96 0 0 0 35.508-8.977 9 9 0 0 0 -8.264-5.437c-.1 0-.194.012-.292.015a9.052 9.052 0 0 0 -3.31-2.348h-6.798a9.037 9.037 0 0 0 -3.31 2.347c-.1 0-.193-.015-.292-.015a9 9 0 0 0 -9 9 9.1 9.1 0 0 0 .047.924 9.037 9.037 0 0 0 -4.289 4.491z" fill="#fbe1ca"/><g fill="#f2b9a1"><path d="m38 24h2v2h-2z"/><path d="m21 28h2v2h-2z"/><path d="m31 34h2v2h-2z"/><path d="m24 35h2v2h-2z"/><path d="m31 27h2v2h-2z"/></g><path d="m42 34h2v2h-2z" fill="#fbe1ca"/><path d="m37 30h2v2h-2z" fill="#f2b9a1"/><path d="m24 23h2v2h-2z" fill="#f2b9a1"/><path d="m16 38h2v2h-2z" fill="#fbe1ca"/><path d="m47 38h2v2h-2z" fill="#fbe1ca"/><path d="m36 39h2v2h-2z" fill="#fbe1ca"/><circle cx="32" cy="13" fill="#b52f28" r="5"/><path d="m27 13a4.95 4.95 0 0 0 .625 2.375 4.95 4.95 0 0 0 2.375.625 5 5 0 0 0 5-5 4.95 4.95 0 0 0 -.625-2.375 4.95 4.95 0 0 0 -2.375-.625 5 5 0 0 0 -5 5z" fill="#d23f34"/><path d="m33 11h-2v-4.171a7.774 7.774 0 0 1 2.293-5.536l1.414 1.414a5.789 5.789 0 0 0 -1.707 4.122z" fill="#ccc"/><path d="m42 54h2v-8a8.964 8.964 0 0 1 -2-.234z" fill="#78a0d4"/><path d="m32 46a8.919 8.919 0 0 1 -1-.061v12.061h2v-12.061a8.919 8.919 0 0 1 -1 .061z" fill="#78a0d4"/><path d="m21 45.939v8.061h2v-8.525a8.908 8.908 0 0 1 -2 .464z" fill="#78a0d4"/><path d="m54 37a9.925 9.925 0 0 0 -5.006-8.654c0-.115.006-.23.006-.346a10.012 10.012 0 0 0 -9.872-10 10.185 10.185 0 0 0 -2.15-1.655 5.992 5.992 0 0 0 -3.978-9.255v-.261a5.789 5.789 0 0 1 1.707-4.122l-1.414-1.414a7.774 7.774 0 0 0 -2.293 5.536v.261a5.992 5.992 0 0 0 -3.978 9.256 10.185 10.185 0 0 0 -2.15 1.654 10.012 10.012 0 0 0 -9.872 10c0 .116 0 .231.006.346a9.974 9.974 0 0 0 -1.95 15.834l1.616 11.741a8.18 8.18 0 0 0 2.95 5.454 7.341 7.341 0 0 0 4.569 1.625h19.618a7.341 7.341 0 0 0 4.569-1.625 8.164 8.164 0 0 0 2.947-5.429l1.62-11.766a9.967 9.967 0 0 0 3.055-7.18zm-23-27.858v1.858h2v-1.858a4 4 0 1 1 -2 0zm-19 27.858a7.949 7.949 0 0 1 4.487-7.178 1 1 0 0 0 .555-1 8 8 0 0 1 8.046-8.818h.01l.164.009a1.021 1.021 0 0 0 .776-.333 8.114 8.114 0 0 1 2.43-1.842 5.953 5.953 0 0 0 7.064 0 8.114 8.114 0 0 1 2.43 1.842 1 1 0 0 0 .776.333l.262-.013a8 8 0 0 1 7.958 8.823 1 1 0 0 0 .555 1 7.993 7.993 0 1 1 -8.846 13.127 1 1 0 0 0 -1.334 0 7.962 7.962 0 0 1 -10.666 0 1 1 0 0 0 -1.334 0 7.989 7.989 0 0 1 -13.333-5.95zm35.341 18.7a6.165 6.165 0 0 1 -2.214 4.116 5.333 5.333 0 0 1 -3.318 1.184h-19.618a5.333 5.333 0 0 1 -3.318-1.186 6.182 6.182 0 0 1 -2.217-4.141l-1.356-9.851a9.932 9.932 0 0 0 4.7 1.178c.336 0 .669-.023 1-.056v7.056h2v-7.469a9.985 9.985 0 0 0 3-1.543 9.972 9.972 0 0 0 5 1.956v11.056h2v-11.056a9.972 9.972 0 0 0 5-1.956 9.976 9.976 0 0 0 4 1.8v7.212h2v-7a9.939 9.939 0 0 0 4.7-1.178z"/><path d="m38 24h2v2h-2z"/><path d="m21 28h2v2h-2z"/><path d="m31 34h2v2h-2z"/><path d="m24 35h2v2h-2z"/><path d="m31 27h2v2h-2z"/><path d="m42 34h2v2h-2z"/><path d="m37 30h2v2h-2z"/><path d="m24 23h2v2h-2z"/><path d="m16 38h2v2h-2z"/><path d="m47 38h2v2h-2z"/><path d="m36 39h2v2h-2z"/></svg>