<svg id="Layer_3" enable-background="new 0 0 64 64" height="512" viewBox="0 0 64 64" width="512" xmlns="http://www.w3.org/2000/svg"><path d="m36.472 16c.95-1.061 1.528-2.463 1.528-4 0-3.314-2.686-6-6-6s-6 2.686-6 6c0 1.537.578 2.939 1.528 4" fill="#e47c6e"/><circle cx="36" cy="32" fill="#674025" r="16"/><circle cx="28" cy="32" fill="#976947" r="16"/><path d="m53 38h-42c-1.657 0-3-1.343-3-3 0-1.657 1.343-3 3-3h42c1.657 0 3 1.343 3 3 0 1.657-1.343 3-3 3z" fill="#c18e59"/><path d="m12 38 6 24h28l6-24" fill="#db9b7c"/><path d="m12 38 4.009 16.035c2.205.625 4.553.965 6.991.965 11.379 0 20.823-7.35 22.668-17z" fill="#efbe9a"/><path d="m53 39h-42c-2.206 0-4-1.794-4-4s1.794-4 4-4h42c2.206 0 4 1.794 4 4s-1.794 4-4 4zm-42-6c-1.103 0-2 .897-2 2s.897 2 2 2h42c1.103 0 2-.897 2-2s-.897-2-2-2z"/><path d="m46 63h-28c-.459 0-.858-.312-.97-.758l-6-24 1.939-.484 5.812 23.242h26.438l5.812-23.242 1.939.484-6 24c-.112.446-.511.758-.97.758z"/><path d="m31 38h2v24h-2z"/><path d="m22.5 37.907h2v24.187h-2z" transform="matrix(.992 -.124 .124 .992 -6.02 3.301)"/><path d="m28.407 49h24.187v2h-24.187z" transform="matrix(.124 -.992 .992 .124 -14.137 83.986)"/><path d="m13 32h-2c0-9.374 7.626-17 17-17 5.628 0 10.883 2.78 14.057 7.437l-1.652 1.127c-2.801-4.111-7.439-6.564-12.405-6.564-8.271 0-15 6.729-15 15z"/><path d="m53 32h-2c0-8.271-6.729-15-15-15-1.271 0-2.533.159-3.751.473l-.498-1.938c1.38-.355 2.81-.535 4.249-.535 9.374 0 17 7.626 17 17z"/><path d="m37.217 16.667-1.49-1.334c.821-.917 1.273-2.101 1.273-3.333 0-2.757-2.243-5-5-5s-5 2.243-5 5c0 1.232.452 2.416 1.273 3.333l-1.49 1.334c-1.15-1.285-1.783-2.942-1.783-4.667 0-3.859 3.141-7 7-7s7 3.141 7 7c0 1.725-.633 3.382-1.783 4.667z"/><path d="m33 9h-2c0-4.411 3.589-8 8-8v2c-3.309 0-6 2.691-6 6z"/><path d="m31.667 21.625c-.594-.209-1.21-.368-1.832-.473l.33-1.973c.736.123 1.466.312 2.168.561z"/><path d="m17 32h-2c0-7.168 5.832-13 13-13v2c-6.065 0-11 4.935-11 11z"/></svg>