<svg height="512" viewBox="0 0 48 48" width="512" xmlns="http://www.w3.org/2000/svg"><g id="desk_lamp_study_lamp" data-name="desk lamp/study lamp"><path d="m23 41v-2a1 1 0 0 1 2 0v2a1 1 0 0 1 -2 0z" fill="#dad7e5"/><path d="m44 43v4h-26v-2a4 4 0 0 1 2.36-3.64c1.09-.5 0-.36 21.64-.36a2 2 0 0 1 2 2z" fill="#374f68"/><path d="m44 43v2h-22c-1.56 0-2.58-1.6-1.64-3.64 1.09-.5 0-.36 21.64-.36a2 2 0 0 1 2 2z" fill="#425b72"/><path d="m25.21 28.92c-12.75-12.76-7.85-7.86-21.21-21.21l1.21-.55a22.47 22.47 0 0 1 13.64-1.57l8.48 8.48c1.15 5.74.01 10.17-2.12 14.85z" fill="#db5669"/><path d="m26.07 19a4 4 0 0 1 -6.76 2c-7.17-7.19-4-4.06-13.93-13.93a22.31 22.31 0 0 1 13.47-1.5l7.81 7.81a20.81 20.81 0 0 1 -.59 5.62z" fill="#f26674"/><path d="m31.92 7c0 3-1.7 4.18-4.59 7.07l-8.48-8.48 2.83-2.83a6 6 0 0 1 10.24 4.24z" fill="#374f68"/><path d="m31.72 5.5c-.93 3.74-4.82 5.14-7.22 2.74l-4.15-4.15 1.33-1.33a6 6 0 0 1 10.04 2.74z" fill="#425b72"/><path d="m18.14 21.85-.91.61a4.89 4.89 0 0 1 -6.77-6.77l.61-.91z" fill="#fc6"/><path d="m16.54 20.25a4.88 4.88 0 0 1 -6.76-.73c-.53-2.19.49-3.55 1.29-4.74z" fill="#ffde76"/><path d="m31.64 8.81c9.81 9.81 8.36 9.9 8.36 32.19h-4c0-21.73 1.2-20.95-6.71-28.89z" fill="#374f68"/><path d="m40 41h-4c0-21.73 1.2-20.95-6.71-28.89l2.35-3.3c9.81 9.81 8.36 9.9 8.36 32.19z" fill="#374f68"/><path d="m40 24.63c0 15.11-.1 14.37 0 14.37a2 2 0 0 1 -2-2v-12.37a14.42 14.42 0 0 0 -4.86-10.63 3.08 3.08 0 0 1 -.33-4l1.91 1.91a18 18 0 0 1 5.28 12.72z" fill="#425b72"/><path d="m42 40h-1c0-20 1.53-21.72-8.25-31.5a7 7 0 0 0 -6.83-8.5c-3.46 0-5 2.05-7.42 4.52-5.81-1-10.18.13-14.91 2.28a1 1 0 0 0 -.3 1.61c7.22 7.22 6.56 6.39 6.34 6.73a5.89 5.89 0 0 0 8.39 8c7 7 6.61 6.78 7.19 6.78a1 1 0 0 0 .91-.59c2.1-4.62 3.32-9 2.28-14.91l.89-.89c6.76 6.78 5.71 6.47 5.71 26.47h-10v-1a1 1 0 0 0 -2 0v1h-1a5 5 0 0 0 -5 5v2a1 1 0 0 0 1 1h26a1 1 0 0 0 1-1v-4a3 3 0 0 0 -3-3zm-19.62-36.54a5 5 0 1 1 7.08 7.08l-2.13 2.12-7.07-7.07zm-11.15 12.89 5.34 5.34a3.88 3.88 0 0 1 -5.34-5.34zm13.67 10.84-19.17-19.19a21.16 21.16 0 0 1 12.63-1.49l8.05 8.05a21.16 21.16 0 0 1 -1.51 12.63zm7.71-13.19c-2.19-2.19-2-1.84-1.74-2.07a6.87 6.87 0 0 0 1.13-1.39c3.13 3.18 7 6.73 7 14.09v15.37h-2v-15.37a14.93 14.93 0 0 0 -4.39-10.63zm10.39 32h-24v-1a3 3 0 0 1 3-3h20a1 1 0 0 1 1 1z"/></g></svg>