<?xml version="1.0" encoding="iso-8859-1"?>
<!-- Generator: Adobe Illustrator 19.0.0, SVG Export Plug-In . SVG Version: 6.00 Build 0)  -->
<svg xmlns="http://www.w3.org/2000/svg" xmlns:xlink="http://www.w3.org/1999/xlink" version="1.1" id="Layer_1" x="0px" y="0px" viewBox="0 0 511.998 511.998" style="enable-background:new 0 0 511.998 511.998;" xml:space="preserve">
<path style="fill:#FDD834;" d="M204.904,209.389c16.254-9.45,37.083-3.927,46.524,12.318c0.026,0.051,0.051,0.094,0.085,0.145  h72.903l-76.829-110.976h-40.464l-39.439,88.866c-1.315,2.911-3.176,5.54-5.463,7.768v57.025H25.635  c-9.416,0.026-17.048,7.657-17.073,17.073v85.366h9.817v-0.512c-0.282-25.345,15.827-47.976,39.866-56  c0.615-0.213,1.238-0.384,1.878-0.512c31.227-9.467,64.221,8.178,73.688,39.405c1.682,5.549,2.535,11.311,2.544,17.107v0.512h60.012  v-0.512c-0.282-25.174,15.622-47.677,39.439-55.829c0.768-0.256,1.622-0.512,2.39-0.683c17.816-5.335,37.1-1.989,52.073,9.049v-63  h-38.756c-9.416,16.322-30.288,21.922-46.61,12.506c-16.322-9.416-21.922-30.288-12.506-46.61  C195.394,216.697,199.705,212.386,204.904,209.389z"/>
<path style="fill:#FFEB3A;" d="M251.514,255.999h38.756v63c-14.973-11.038-34.257-14.384-52.073-9.049  c-0.768,0.171-1.622,0.427-2.39,0.683c-23.817,8.152-39.721,30.655-39.439,55.829v0.512h-60.012v-0.512  c-0.017-32.635-26.489-59.073-59.125-59.056c-5.796,0-11.559,0.862-17.107,2.544c-0.64,0.128-1.263,0.299-1.878,0.512  c-24.039,8.024-40.148,30.655-39.866,56v0.512H8.562v-85.366c0.026-9.416,7.657-17.048,17.073-17.073h136.586v-57.025  c2.288-2.228,4.149-4.857,5.463-7.768l39.439-88.866h6.317l76.829,110.976h-38.756c-9.433-16.331-30.313-21.931-46.644-12.498  c-16.331,9.433-21.931,30.313-12.498,46.644c9.433,16.331,30.313,21.931,46.644,12.498  C244.207,265.5,248.518,261.189,251.514,255.999z"/>
<path style="fill:#1566C0;" d="M324.417,221.853h-72.903c-4.584-8.007-12.224-13.804-21.171-16.049l0.171-1.024v-59.756h34.232  l4.354-3.073L324.417,221.853z"/>
<path style="fill:#2296F3;" d="M298.807,221.853h-47.293c-4.584-8.007-12.224-13.804-21.171-16.049l0.171-1.024v-59.756h8.622  l4.354-3.073l2.134,3.073L298.807,221.853z"/>
<g>
	<path style="fill:#37474F;" d="M314.343,366.463v0.512c-0.29,32.371-26.609,58.467-58.988,58.476   c-5.523,0.034-11.021-0.777-16.305-2.39c-25.123-7.12-42.512-29.981-42.683-56.086v-0.512   c-0.043-26.31,17.381-49.453,42.683-56.683c5.293-1.545,10.79-2.322,16.305-2.305C287.931,307.483,314.335,333.887,314.343,366.463   z"/>
	<path style="fill:#37474F;" d="M136.355,366.463v0.512c-0.256,32.388-26.6,58.501-58.988,58.476   c-5.515,0.017-11.012-0.76-16.305-2.305c-25.115-7.179-42.495-30.049-42.683-56.171v-0.512   c-0.043-26.31,17.381-49.453,42.683-56.683c5.293-1.545,10.79-2.322,16.305-2.305c32.559-0.026,58.962,26.352,58.988,58.903   C136.355,366.403,136.355,366.429,136.355,366.463z"/>
</g>
<g>
	<path style="fill:#607D8B;" d="M281.734,366.463v0.512c-0.171,26.105-17.56,48.966-42.683,56.086   c-25.123-7.12-42.512-29.981-42.683-56.086v-0.512c-0.043-26.31,17.381-49.453,42.683-56.683   C264.319,317.053,281.717,340.17,281.734,366.463z"/>
	<path style="fill:#607D8B;" d="M103.745,366.463v0.512c-0.188,26.122-17.568,48.992-42.683,56.171   c-25.115-7.179-42.495-30.049-42.683-56.171v-0.512c-0.043-26.31,17.381-49.453,42.683-56.683   C86.365,317.002,103.788,340.145,103.745,366.463z"/>
</g>
<g>
	<path style="fill:#FDD834;" d="M324.417,255.999v110.976h-10.073v-0.512c0.034-18.763-8.912-36.409-24.073-47.464v-63   L324.417,255.999L324.417,255.999z"/>
	<path style="fill:#FDD834;" d="M11.183,98.926l37.305,99.451c2.928,8.741,11.012,14.709,20.232,14.939h79.22   c5.318-0.051,10.415-2.126,14.256-5.805c2.288-2.228,4.149-4.857,5.463-7.768l39.439-88.866h66.073   c9.416-0.026,17.048-7.657,17.073-17.073c-0.068-9.399-7.674-17.005-17.073-17.073H24.671c-8.818,0.7-15.4,8.417-14.7,17.235   C10.107,95.665,10.517,97.346,11.183,98.926z"/>
</g>
<path style="fill:#F57C00;" d="M288.725,93.804c-0.026,9.416-7.657,17.048-17.073,17.073h-66.073l-39.439,88.866  c-1.315,2.911-3.176,5.54-5.463,7.768c-3.841,3.679-8.938,5.754-14.256,5.805H67.2c-9.22-0.23-17.304-6.198-20.232-14.939  L9.663,98.926c-3.44-8.152,0.376-17.551,8.52-20.992c1.579-0.666,3.252-1.076,4.96-1.212h248.501  C281.051,76.79,288.657,84.396,288.725,93.804z"/>
<path style="fill:#FF9801;" d="M263.115,93.804c-0.026,9.416-7.657,17.048-17.073,17.073h-66.073l-39.439,88.866  c-1.315,2.911-3.176,5.54-5.463,7.768c-3.841,3.679-8.938,5.754-14.256,5.805H67.2c-9.22-0.23-17.304-6.198-20.232-14.939  L9.663,98.926c-3.44-8.152,0.376-17.551,8.52-20.992c1.579-0.666,3.252-1.076,4.96-1.212h222.891  C255.441,76.79,263.047,84.396,263.115,93.804z"/>
<path style="fill:#FDD834;" d="M256.098,238.926c-0.009,6.001-1.596,11.891-4.61,17.073h107.049v76.829  c0.068,9.399,7.674,17.005,17.073,17.073c9.416-0.026,17.048-7.657,17.073-17.073v-93.903c-0.026-9.416-7.657-17.048-17.073-17.073  H251.488C254.502,227.035,256.09,232.925,256.098,238.926z"/>
<path style="fill:#F57C00;" d="M502.576,338.634l-24.073,59.756c-3.048,7.009-10.039,11.465-17.671,11.268h-34.146  c7.632,0.196,14.623-4.26,17.671-11.268l24.073-59.756c3.048-9.117-1.861-18.977-10.978-22.024  c-2.177-0.734-4.482-1.024-6.778-0.854h34.146c9.587-0.691,17.918,6.513,18.61,16.1C503.6,334.143,503.31,336.448,502.576,338.634z"/>
<path style="fill:#FF9801;" d="M468.429,338.634l-24.073,59.756c-3.048,7.009-10.039,11.465-17.671,11.268H392.88  c-7.632,0.196-14.623-4.26-17.671-11.268l-21.598-53.61l-2.476-6.146c-2.885-7.606,0.29-16.168,7.427-20.061v14.256  c0.068,9.399,7.674,17.005,17.073,17.073c9.416-0.026,17.048-7.657,17.073-17.073v-17.073h57.964  c9.587-0.691,17.918,6.513,18.61,16.1C469.454,334.143,469.163,336.448,468.429,338.634z"/>
<path style="fill:#FFEB3A;" d="M392.709,315.755v17.073c-0.026,9.416-7.657,17.048-17.073,17.073  c-9.399-0.068-17.005-7.674-17.073-17.073v-17.073H392.709z"/>
<g>
	<circle style="fill:#37474F;" cx="255.321" cy="366.454" r="19.66"/>
	<circle style="fill:#37474F;" cx="77.342" cy="366.454" r="19.66"/>
</g>
<path d="M255.321,394.651c-15.545,0-28.196-12.643-28.196-28.196c0-15.554,12.651-28.196,28.196-28.196s28.196,12.643,28.196,28.196  C283.518,382.008,270.866,394.651,255.321,394.651z M255.321,355.331c-6.138,0-11.123,4.985-11.123,11.123  c0,6.138,4.985,11.123,11.123,11.123c6.129,0,11.123-4.985,11.123-11.123C266.445,360.317,261.451,355.331,255.321,355.331z"/>
<path id="SVGCleanerId_0" d="M255.321,316.012c-4.712,0-8.537-3.816-8.537-8.537v-9.826c0-4.721,3.824-8.537,8.537-8.537  c4.712,0,8.537,3.816,8.537,8.537v9.826C263.858,312.196,260.034,316.012,255.321,316.012z"/>
<path id="SVGCleanerId_1" d="M255.321,443.805c-4.712,0-8.537-3.816-8.537-8.537v-9.826c0-4.721,3.824-8.537,8.537-8.537  c4.712,0,8.537,3.816,8.537,8.537v9.826C263.858,439.98,260.034,443.805,255.321,443.805z"/>
<g>
	<path id="SVGCleanerId_0_1_" d="M255.321,316.012c-4.712,0-8.537-3.816-8.537-8.537v-9.826c0-4.721,3.824-8.537,8.537-8.537   c4.712,0,8.537,3.816,8.537,8.537v9.826C263.858,312.196,260.034,316.012,255.321,316.012z"/>
</g>
<g>
	<path id="SVGCleanerId_1_1_" d="M255.321,443.805c-4.712,0-8.537-3.816-8.537-8.537v-9.826c0-4.721,3.824-8.537,8.537-8.537   c4.712,0,8.537,3.816,8.537,8.537v9.826C263.858,439.98,260.034,443.805,255.321,443.805z"/>
</g>
<path d="M284.798,323.916c-1.451,0-2.92-0.367-4.26-1.144c-4.089-2.356-5.489-7.589-3.124-11.661l4.917-8.511  c2.356-4.089,7.581-5.489,11.661-3.124c4.081,2.365,5.489,7.589,3.124,11.661l-4.917,8.511  C290.62,322.388,287.752,323.916,284.798,323.916z"/>
<path d="M220.91,434.576c-1.443,0-2.911-0.367-4.26-1.144c-4.089-2.356-5.48-7.581-3.124-11.661l4.917-8.511  c2.356-4.089,7.563-5.498,11.661-3.124c4.089,2.356,5.481,7.581,3.124,11.661l-4.917,8.511  C226.732,433.057,223.864,434.576,220.91,434.576z"/>
<path d="M195.736,409.393c-2.954,0-5.822-1.528-7.401-4.268c-2.356-4.089-0.965-9.305,3.124-11.661l8.52-4.917  c4.081-2.356,9.296-0.965,11.661,3.124c2.356,4.089,0.965,9.305-3.124,11.661l-8.52,4.917  C198.655,409.026,197.187,409.393,195.736,409.393z"/>
<path d="M324.135,374.991h-9.826c-4.721,0-8.537-3.816-8.537-8.537c0-4.721,3.816-8.537,8.537-8.537h9.826  c4.721,0,8.537,3.816,8.537,8.537C332.672,371.175,328.847,374.991,324.135,374.991z"/>
<path d="M314.907,409.393c-1.451,0-2.92-0.367-4.26-1.144l-8.511-4.917c-4.089-2.356-5.489-7.589-3.124-11.661  c2.356-4.098,7.581-5.48,11.661-3.124l8.511,4.917c4.089,2.356,5.489,7.589,3.124,11.661  C320.72,407.874,317.852,409.393,314.907,409.393z"/>
<path d="M204.238,345.497c-1.443,0-2.911-0.367-4.26-1.144l-8.52-4.909c-4.089-2.348-5.489-7.581-3.133-11.661  c2.348-4.081,7.572-5.498,11.661-3.124l8.52,4.909c4.089,2.348,5.489,7.581,3.133,11.652  C210.06,343.96,207.192,345.497,204.238,345.497z"/>
<path d="M289.732,434.576c-2.954,0-5.822-1.528-7.401-4.268l-4.917-8.511c-2.356-4.081-0.956-9.305,3.124-11.661  c4.072-2.348,9.296-0.965,11.661,3.124l4.917,8.511c2.356,4.08,0.956,9.305-3.124,11.661  C292.652,434.218,291.184,434.576,289.732,434.576z"/>
<path d="M225.844,323.916c-2.954,0-5.822-1.528-7.401-4.268l-4.917-8.511c-2.356-4.089-0.956-9.305,3.124-11.661  c4.081-2.356,9.296-0.965,11.661,3.124l4.917,8.511c2.356,4.089,0.956,9.305-3.124,11.661  C228.755,323.549,227.287,323.916,225.844,323.916z"/>
<path d="M77.35,394.651c-15.545,0-28.196-12.643-28.196-28.196c0-15.554,12.643-28.196,28.196-28.196s28.196,12.643,28.196,28.196  C105.547,382.008,92.895,394.651,77.35,394.651z M77.35,355.331c-6.129,0-11.123,4.985-11.123,11.123  c0,6.138,4.985,11.123,11.123,11.123c6.138,0,11.123-4.985,11.123-11.123C88.473,360.317,83.479,355.331,77.35,355.331z"/>
<path id="SVGCleanerId_2" d="M77.35,316.012c-4.712,0-8.537-3.816-8.537-8.537v-9.826c0-4.721,3.824-8.537,8.537-8.537  c4.712,0,8.537,3.816,8.537,8.537v9.826C85.887,312.196,82.062,316.012,77.35,316.012z"/>
<path id="SVGCleanerId_3" d="M77.35,443.805c-4.712,0-8.537-3.816-8.537-8.537v-9.826c0-4.721,3.824-8.537,8.537-8.537  c4.712,0,8.537,3.816,8.537,8.537v9.826C85.887,439.98,82.062,443.805,77.35,443.805z"/>
<g>
	<path id="SVGCleanerId_2_1_" d="M77.35,316.012c-4.712,0-8.537-3.816-8.537-8.537v-9.826c0-4.721,3.824-8.537,8.537-8.537   c4.712,0,8.537,3.816,8.537,8.537v9.826C85.887,312.196,82.062,316.012,77.35,316.012z"/>
</g>
<g>
	<path id="SVGCleanerId_3_1_" d="M77.35,443.805c-4.712,0-8.537-3.816-8.537-8.537v-9.826c0-4.721,3.824-8.537,8.537-8.537   c4.712,0,8.537,3.816,8.537,8.537v9.826C85.887,439.98,82.062,443.805,77.35,443.805z"/>
</g>
<path d="M106.827,323.916c-1.443,0-2.911-0.367-4.26-1.144c-4.089-2.356-5.48-7.581-3.124-11.661l4.917-8.511  c2.356-4.089,7.563-5.489,11.661-3.124c4.089,2.356,5.481,7.581,3.124,11.661l-4.917,8.511  C112.649,322.388,109.781,323.916,106.827,323.916z"/>
<path d="M42.931,434.576c-1.443,0-2.911-0.367-4.26-1.144c-4.089-2.356-5.48-7.581-3.124-11.661l4.917-8.511  c2.356-4.089,7.563-5.498,11.661-3.124c4.089,2.356,5.481,7.581,3.124,11.661l-4.917,8.511  C48.753,433.057,45.884,434.576,42.931,434.576z"/>
<path d="M128.433,345.497c-2.954,0-5.822-1.537-7.401-4.277c-2.356-4.081-0.956-9.305,3.133-11.652l8.52-4.909  c4.072-2.365,9.296-0.948,11.661,3.124c2.356,4.089,0.956,9.313-3.133,11.661l-8.52,4.909  C131.344,345.13,129.876,345.497,128.433,345.497z"/>
<path d="M17.765,409.393c-2.954,0-5.822-1.528-7.401-4.268c-2.356-4.081-0.965-9.305,3.116-11.661l8.511-4.917  c4.08-2.348,9.305-0.973,11.661,3.124c2.356,4.081,0.965,9.305-3.116,11.661l-8.511,4.917  C20.684,409.026,19.216,409.393,17.765,409.393z"/>
<path d="M18.362,374.991H8.537c-4.712,0-8.537-3.816-8.537-8.537c0-4.721,3.824-8.537,8.537-8.537h9.826  c4.712,0,8.537,3.816,8.537,8.537C26.899,371.175,23.083,374.991,18.362,374.991z"/>
<path d="M136.936,409.393c-1.451,0-2.92-0.367-4.26-1.144l-8.52-4.917c-4.089-2.356-5.481-7.581-3.124-11.661  c2.356-4.098,7.589-5.48,11.661-3.124l8.52,4.917c4.089,2.356,5.48,7.581,3.124,11.661  C142.749,407.874,139.881,409.393,136.936,409.393z"/>
<path d="M111.761,434.576c-2.954,0-5.822-1.528-7.401-4.268l-4.917-8.511c-2.356-4.089-0.956-9.305,3.124-11.661  c4.08-2.365,9.305-0.965,11.661,3.124l4.917,8.511c2.356,4.089,0.956,9.305-3.124,11.661  C114.681,434.218,113.204,434.576,111.761,434.576z"/>
<path d="M47.865,323.916c-2.954,0-5.822-1.528-7.401-4.268l-4.917-8.511c-2.356-4.089-0.956-9.305,3.124-11.661  s9.296-0.965,11.661,3.124l4.917,8.511c2.356,4.089,0.956,9.305-3.124,11.661C50.784,323.549,49.307,323.916,47.865,323.916z"/>
<path d="M255.304,433.97c-17.807,0-34.582-6.855-47.301-19.352c-12.865-12.643-20.044-29.537-20.198-47.575c0-0.026,0-0.555,0-0.581  c0-37.228,30.288-67.525,67.525-67.525c37.228,0,67.525,30.296,67.525,67.525c-0.324,37.168-30.348,67.183-66.927,67.507  C255.723,433.97,255.518,433.97,255.304,433.97z M255.33,316.012c-27.821,0-50.451,22.631-50.451,50.451v0.512  c0.12,13.402,5.48,26.028,15.093,35.47c9.612,9.441,22.076,14.418,35.803,14.452c27.334-0.239,49.768-22.673,50.007-49.999  C305.781,338.642,283.151,316.012,255.33,316.012z"/>
<path d="M77.342,434.005c-36.981,0-67.217-29.921-67.525-66.961c0-0.026,0-0.555,0-0.581v-0.316c0.051-18.055,7.12-35,19.907-47.72  c12.788-12.72,30.074-19.805,47.805-19.651c37.228,0.094,67.439,30.467,67.345,67.712c-0.307,37.168-30.348,67.217-66.961,67.516  C77.717,434.005,77.529,434.005,77.342,434.005z M77.333,315.849c-13.428,0-26.054,5.207-35.572,14.683  c-9.552,9.501-14.837,22.161-14.871,35.64l-8.537,0.29h8.537v0.512c0.23,27.599,22.827,49.965,50.46,49.965c0.137,0,0.273,0,0.418,0  c27.36-0.222,49.803-22.665,50.033-50.033c0.068-28.282-22.502-50.972-50.315-51.04C77.427,315.849,77.376,315.849,77.333,315.849z"/>
<path d="M324.391,375.512h-10.073c-4.721,0-8.537-3.816-8.537-8.537c-0.017-6.087-0.948-11.61-2.774-16.928  c-9.117-26.395-38.031-40.446-64.434-31.338c-20.402,6.974-33.933,26.131-33.694,47.668c0.026,2.279-0.862,4.729-2.467,6.351  c-1.605,1.613-3.79,2.783-6.07,2.783H136.33c-4.712,0-8.537-3.816-8.537-8.537c-0.009-6.01-0.905-11.456-2.663-16.663  c-8.938-26.455-37.732-40.694-64.178-31.765c-20.633,6.889-34.309,26.105-34.061,47.831c0.026,2.279-0.862,4.729-2.467,6.351  c-1.605,1.613-3.79,2.783-6.07,2.783H8.537c-4.712,0-8.537-3.816-8.537-8.537v-85.366c0-0.009,0-0.017,0-0.026  c0.043-14.068,11.524-25.55,25.593-25.584h128.066v-48.488c0-2.313,0.939-4.524,2.595-6.129c1.528-1.477,2.749-3.21,3.628-5.165  l39.405-88.798c1.366-3.082,4.43-5.071,7.802-5.071h40.472c2.8,0,5.421,1.374,7.017,3.679l76.829,110.976  c1.81,2.612,2.015,6.01,0.538,8.818c-1.477,2.817-4.388,4.576-7.563,4.576H251.48c-3.048,0-5.873-1.622-7.393-4.268  c-2.245-3.884-5.489-7.128-9.373-9.373c-5.924-3.423-12.839-4.328-19.438-2.561c-6.607,1.776-12.131,6.01-15.545,11.934  c-3.423,5.924-4.328,12.822-2.561,19.429c1.767,6.607,6.01,12.13,11.934,15.545c12.224,7.06,27.923,2.86,34.983-9.373  c1.528-2.646,4.345-4.268,7.393-4.268h72.911c4.721,0,8.537,3.824,8.537,8.537v110.976  C332.928,371.687,329.112,375.512,324.391,375.512z M144.388,358.438h43.853c2.911-25.704,20.104-47.446,44.783-55.881  c32.567-11.243,67.968,3.893,82.839,34.027v-72.049h-59.79c-12.754,17.031-36.596,22.246-55.488,11.354  c-9.877-5.702-16.937-14.905-19.89-25.917c-2.945-11.012-1.434-22.511,4.268-32.388c5.702-9.877,14.905-16.937,25.917-19.89  c11.012-2.945,22.52-1.434,32.388,4.268c4.994,2.885,9.356,6.761,12.805,11.354h52.039l-65.015-93.903h-30.45l-37.185,83.795  c-1.263,2.783-2.843,5.327-4.729,7.615v53.712c0,4.721-3.824,8.537-8.537,8.537H25.61c-4.678,0.009-8.528,3.85-8.537,8.562v53.875  c7.768-15.374,21.324-27.428,38.44-33.139c35.333-11.934,73.833,7.111,85.793,42.478C142.8,349.262,143.833,353.82,144.388,358.438z  "/>
<rect x="59.756" y="213.316" style="fill:#F57C00;" width="102.439" height="51.22"/>
<rect x="59.756" y="213.316" style="fill:#FF9801;" width="68.293" height="51.22"/>
<path d="M162.196,273.072H59.756c-4.712,0-8.537-3.816-8.537-8.537v-51.22c0-4.712,3.824-8.537,8.537-8.537h102.439  c4.712,0,8.537,3.824,8.537,8.537v51.22C170.732,269.248,166.908,273.072,162.196,273.072z M68.293,255.999h85.366v-34.146H68.293  V255.999z"/>
<path d="M68.72,221.853c-12.976-0.324-24.27-8.665-28.324-20.77L3.244,102.067c-0.982-2.365-1.579-4.866-1.784-7.427  C0.393,81.135,10.5,69.287,23.996,68.211l249.175-0.017c14.051,0.102,25.507,11.559,25.61,25.55  c-0.034,14.154-11.516,25.627-25.584,25.67h-60.55l-37.185,83.795c-1.801,3.97-4.26,7.461-7.324,10.432  c-5.463,5.233-12.591,8.144-20.112,8.212H68.72z M273.112,85.267H24.671c-3.432,0.299-6.513,3.91-6.189,8.024  c0.06,0.794,0.256,1.579,0.563,2.313c0.043,0.111,0.085,0.213,0.128,0.324l37.305,99.451c1.878,5.6,6.838,9.262,12.446,9.407h79.006  c3.073-0.026,6.07-1.246,8.349-3.432c1.494-1.443,2.715-3.184,3.594-5.139l39.405-88.798c1.366-3.082,4.43-5.071,7.802-5.071h66.09  c4.687-0.009,8.528-3.859,8.537-8.554C281.674,89.151,277.815,85.293,273.112,85.267z"/>
<path style="fill:#F57C00;" d="M256.124,238.926c-0.043,18.84-15.306,34.104-34.146,34.146c-4.396,0.034-8.759-0.837-12.805-2.561  c-17.44-7.017-25.9-26.848-18.883-44.288c3.457-8.605,10.278-15.426,18.883-18.883c4.046-1.724,8.409-2.595,12.805-2.561  C240.818,204.822,256.081,220.086,256.124,238.926z"/>
<path style="fill:#FF9801;" d="M230.514,238.926c-0.009,6.001-1.596,11.891-4.61,17.073c-3.773,6.59-9.672,11.712-16.732,14.512  c-17.44-7.017-25.9-26.848-18.883-44.288c3.457-8.605,10.278-15.426,18.883-18.883c7.06,2.8,12.959,7.922,16.732,14.512  C228.918,227.035,230.505,232.925,230.514,238.926z"/>
<path d="M221.943,281.566c-23.518,0-42.657-19.122-42.674-42.64l0,0c0-11.405,4.448-22.127,12.506-30.194  c8.059-8.059,18.772-12.489,30.168-12.489h0.009c23.493,0.017,42.623,19.139,42.64,42.632c0.017,23.518-19.105,42.674-42.632,42.692  C221.952,281.566,221.952,281.566,221.943,281.566z M187.805,238.909l8.537,0.009c0.009,14.102,11.49,25.576,25.593,25.576h0.009  c14.102-0.009,25.576-11.499,25.567-25.61c-0.009-14.085-11.482-25.559-25.567-25.567c0,0,0,0-0.009,0  c-6.829,0-13.257,2.663-18.098,7.495c-4.823,4.823-7.495,11.26-7.495,18.098H187.805z"/>
<path d="M128.049,119.414H17.073c-4.712,0-8.537-3.824-8.537-8.537c0-4.712,3.824-8.537,8.537-8.537h110.976  c4.712,0,8.537,3.824,8.537,8.537C136.586,115.589,132.761,119.414,128.049,119.414z"/>
<path d="M110.976,153.56H34.146c-4.712,0-8.537-3.824-8.537-8.537s3.824-8.537,8.537-8.537h76.829c4.712,0,8.537,3.824,8.537,8.537  S115.688,153.56,110.976,153.56z"/>
<path d="M230.488,213.316c-4.712,0-8.537-3.824-8.537-8.537v-59.756c0-4.712,3.824-8.537,8.537-8.537h34.249  c4.721,0,8.537,3.824,8.537,8.537s-3.816,8.537-8.537,8.537h-25.712v51.22C239.025,209.492,235.201,213.316,230.488,213.316z"/>
<path d="M375.636,358.438c-14.068-0.102-25.533-11.559-25.635-25.55v-68.353h-98.512c-3.056,0-5.873-1.63-7.401-4.277  c-1.528-2.646-1.52-5.907,0.017-8.545c2.254-3.876,3.449-8.298,3.457-12.788c-0.009-4.49-1.204-8.904-3.457-12.788  c-1.537-2.638-1.545-5.899-0.017-8.545c1.52-2.655,4.345-4.277,7.401-4.277h124.122c14.094,0.043,25.576,11.524,25.61,25.593v93.92  C401.186,346.923,389.705,358.404,375.636,358.438z M263.755,247.463h94.782c4.721,0,8.537,3.824,8.537,8.537v76.829  c0.034,4.644,3.893,8.502,8.596,8.537c4.627-0.009,8.468-3.85,8.477-8.562v-93.877c-0.009-4.678-3.85-8.528-8.562-8.537h-111.83  c0.58,2.791,0.879,5.651,0.879,8.52c0,0.009,0,0.017,0,0.026C264.635,241.803,264.336,244.663,263.755,247.463z"/>
<path d="M392.163,418.203c-10.688,0-20.454-6.385-24.807-16.416l-24.167-59.961c-0.017-0.06-0.043-0.111-0.06-0.171  c-4.379-11.533,0.495-24.679,11.32-30.578c2.655-1.443,5.865-1.391,8.443,0.162c2.595,1.528,4.183,4.32,4.183,7.333v14.256  c0.034,4.644,3.893,8.502,8.596,8.537c4.627-0.009,8.468-3.85,8.477-8.562v-17.048c0-4.721,3.816-8.537,8.537-8.537h92.11  c2.774-0.256,6.198,0.188,9.467,1.28c6.582,2.211,11.909,6.838,14.999,13.027c3.09,6.206,3.585,13.24,1.383,19.805l-24.253,60.243  c-4.533,10.466-14.606,16.646-25.798,16.612h-67.738C392.624,418.203,392.394,418.203,392.163,418.203z M367.774,357.149  l15.332,38.039c1.579,3.628,5.31,6.428,9.527,5.924h68.173c4.277-0.068,8.17-2.305,9.834-6.138l23.988-59.551  c0.572-1.759,0.41-4.166-0.649-6.283s-2.877-3.705-5.122-4.448c-1.118-0.367-2.279-0.538-3.449-0.435l-84.188,0.034v8.537  c-0.034,14.094-11.516,25.576-25.584,25.61C372.896,358.421,370.25,357.969,367.774,357.149z"/>
<path d="M162.196,273.072c-2.185,0-4.371-0.837-6.035-2.501l-51.22-51.22c-3.338-3.338-3.338-8.733,0-12.071  c3.338-3.338,8.733-3.338,12.071,0l51.22,51.22c3.338,3.338,3.338,8.733,0,12.071C166.566,272.236,164.381,273.072,162.196,273.072z  "/>
<path d="M110.976,273.072c-2.185,0-4.371-0.837-6.035-2.501l-51.22-51.22c-3.338-3.338-3.338-8.733,0-12.071s8.733-3.338,12.071,0  l51.22,51.22c3.338,3.338,3.338,8.733,0,12.071C115.347,272.236,113.161,273.072,110.976,273.072z"/>
<path d="M221.952,247.463c-2.22,0-4.439-0.939-6.061-2.476c-1.537-1.622-2.476-3.841-2.476-6.061c0-2.22,0.939-4.439,2.476-6.061  c3.244-3.159,8.878-3.159,12.122,0c1.537,1.622,2.476,3.841,2.476,6.061c0,2.22-0.939,4.439-2.476,6.061  C226.391,246.515,224.171,247.463,221.952,247.463z"/>
<g>
</g>
<g>
</g>
<g>
</g>
<g>
</g>
<g>
</g>
<g>
</g>
<g>
</g>
<g>
</g>
<g>
</g>
<g>
</g>
<g>
</g>
<g>
</g>
<g>
</g>
<g>
</g>
<g>
</g>
</svg>
