<svg id="Layer_3" height="512" viewBox="0 0 64 64" width="512" xmlns="http://www.w3.org/2000/svg" data-name="Layer 3"><path d="m29 14h6v4h-6z" fill="#686868"/><path d="m50 14h-6a2 2 0 0 0 -2 2v2h10v-2a2 2 0 0 0 -2-2z" fill="#3079e6"/><path d="m50 14h-6a2 2 0 0 0 -2 2h6a2 2 0 0 0 2-2z" fill="#5994eb"/><rect fill="#2763bb" height="32" rx="3" width="60" x="2" y="18"/><path d="m6 22h52v24h-52z" fill="#ccc"/><path d="m6 22v21h45a4 4 0 0 0 4-4v-17z" fill="#f2f2f2"/><rect fill="#fff" height="14" rx="3" width="34" x="9" y="24"/><path d="m50 50h8v4h-8z" fill="#3079e6"/><path d="m20 14h-6a2 2 0 0 0 -2 2v2h10v-2a2 2 0 0 0 -2-2z" fill="#3079e6"/><path d="m28 10h8a2 2 0 0 1 2 2v2a0 0 0 0 1 0 0h-12a0 0 0 0 1 0 0v-2a2 2 0 0 1 2-2z" fill="#aa2b24"/><path d="m50 52h4a2 2 0 0 0 2-2h-6z" fill="#5994eb"/><path d="m6 50h8v4h-8z" fill="#3079e6"/><path d="m6 52h4a2 2 0 0 0 2-2h-6z" fill="#5994eb"/><path d="m20 14h-6a2 2 0 0 0 -2 2h6a2 2 0 0 0 2-2z" fill="#5994eb"/><path d="m35 10h-7a2 2 0 0 0 -2 2h7a2 2 0 0 0 2-2z" fill="#d24034"/><path d="m29 14v3h3a2 2 0 0 0 2-2v-1z" fill="#868686"/><path d="m59 17h-6v-1a3 3 0 0 0 -3-3h-6a3 3 0 0 0 -3 3v1h-5v-2h2a1 1 0 0 0 1-1v-2a3 3 0 0 0 -3-3h-8a3 3 0 0 0 -3 3v2a1 1 0 0 0 1 1h2v2h-5v-1a3 3 0 0 0 -3-3h-6a3 3 0 0 0 -3 3v1h-6a4 4 0 0 0 -4 4v26a4 4 0 0 0 4 4v3a1 1 0 0 0 1 1h8a1 1 0 0 0 1-1v-3h34v3a1 1 0 0 0 1 1h8a1 1 0 0 0 1-1v-3a4 4 0 0 0 4-4v-26a4 4 0 0 0 -4-4zm-16-1a1 1 0 0 1 1-1h6a1 1 0 0 1 1 1v1h-8zm-16-4a1 1 0 0 1 1-1h8a1 1 0 0 1 1 1v1h-10zm3 3h4v2h-4zm-17 1a1 1 0 0 1 1-1h6a1 1 0 0 1 1 1v1h-8zm0 37h-6v-2h6zm44 0h-6v-2h6zm4-6a2 2 0 0 1 -2 2h-54a2 2 0 0 1 -2-2v-26a2 2 0 0 1 2-2h54a2 2 0 0 1 2 2z"/><path d="m58 21h-52a1 1 0 0 0 -1 1v24a1 1 0 0 0 1 1h52a1 1 0 0 0 1-1v-24a1 1 0 0 0 -1-1zm-1 24h-50v-22h50z"/><path d="m12 41h6a1 1 0 0 0 1-1v-12a1 1 0 0 0 -1-1h-6a1 1 0 0 0 -1 1v12a1 1 0 0 0 1 1zm1-12h4v10h-4z"/><path d="m22 41h6a1 1 0 0 0 1-1v-12a1 1 0 0 0 -1-1h-6a1 1 0 0 0 -1 1v12a1 1 0 0 0 1 1zm1-2v-4h4v4zm4-10v4h-4v-4z"/><path d="m36 41h6a1 1 0 0 0 1-1v-12a1 1 0 0 0 -1-1h-6a1 1 0 0 0 -1 1v12a1 1 0 0 0 1 1zm1-12h4v10h-4z"/><path d="m46 41h6a1 1 0 0 0 1-1v-12a1 1 0 0 0 -1-1h-6a1 1 0 0 0 -1 1v12a1 1 0 0 0 1 1zm1-12h4v10h-4z"/><path d="m31 38h2v2h-2z"/></svg>