<svg id="Layer_3" enable-background="new 0 0 64 64" height="512" viewBox="0 0 64 64" width="512" xmlns="http://www.w3.org/2000/svg"><g><g fill="#fadfb2"><ellipse cx="32" cy="13" rx="13" ry="11"/><path d="m22 50v8c0 2.209 1.791 4 4 4 2.209 0 4-1.791 4-4v-8"/><path d="m34 50v8c0 2.209 1.791 4 4 4 2.209 0 4-1.791 4-4v-8"/><path d="m23.229 26.96-15.3 2.795c-1.069.195-1.986.903-2.471 1.908l-.096.199c-.66 1.367-.401 3.017.642 4.098.763.79 1.841 1.162 2.91 1.004l11.447-1.693"/><path d="m40.771 26.96 15.336 2.795c1.056.195 1.961.903 2.44 1.908l.095.199c.652 1.367.396 3.017-.634 4.098-.754.79-1.818 1.162-2.873 1.004l-11.404-1.717"/></g><path d="m39.081 22.227c-.949.522-1.983.943-3.081 1.243v.53c0 2.209-1.791 4-4 4s-4-1.791-4-4v-.531c-1.098-.3-2.132-.721-3.081-1.243l-9.919 27.774h34z" fill="#c66b60"/><path d="m47.571 46h-31.142l-1.429 4h34z" fill="#f2c351"/><path d="m36 23.469v.531c0 2.209-1.791 4-4 4s-4-1.791-4-4v-.531c1.26.345 2.604.531 4 .531s2.74-.186 4-.531z" fill="#f5cf88"/><path d="m10 24v-12c0-3.314 2.686-6 6-6v12c0 3.314-2.686 6-6 6z" fill="#976947"/><path d="m54 24v-12c0-3.314-2.686-6-6-6v12c0 3.314 2.686 6 6 6z" fill="#976947"/><path d="m44.505 9.968c1.971-.248 3.495-1.93 3.495-3.968 0-2.209-1.791-4-4-4-1.687 0-3.131 1.045-3.718 2.523l.001-.002c1.994 1.396 3.487 3.286 4.218 5.449z" fill="#f2c351"/><path d="m23.719 4.52-.033-.077c-.608-1.436-2.029-2.443-3.686-2.443-2.209 0-4 1.791-4 4 0 2.038 1.524 3.72 3.495 3.968l.004.001c.731-2.162 2.225-4.053 4.22-5.449z" fill="#f2c351"/><path d="m32 2c0 5.523 4.477 10 10 10h2.947c-.597-5.606-6.166-10-12.947-10s-12.35 4.394-12.947 10h2.947c5.523 0 10-4.477 10-10z" fill="#674025"/><path d="m32 42c-2.209 0-4-1.791-4-4v-6h8v6c0 2.209-1.791 4-4 4z" fill="#e47c6e"/><g><path d="m32 20.999c-1.523 0-3.024-.251-4.342-.729l.681-1.88c2.202.797 5.116.799 7.32 0l.681 1.88c-1.318.478-2.819.729-4.34.729z" fill="#e47c6e"/></g><g><path d="m27.5 15.999c-.827 0-1.5-.673-1.5-1.5s.673-1.5 1.5-1.5c.826 0 1.499.673 1.499 1.5s-.673 1.5-1.499 1.5zm0-1.999c-.276 0-.5.224-.5.5 0 .275.224.5.5.5.275 0 .499-.224.499-.5s-.224-.5-.499-.5z" fill="#243242"/></g><g><path d="m36.5 15.999c-.827 0-1.5-.673-1.5-1.5s.673-1.5 1.5-1.5c.826 0 1.499.673 1.499 1.5s-.673 1.5-1.499 1.5zm0-1.999c-.276 0-.5.224-.5.5 0 .275.224.5.5.5.275 0 .499-.224.499-.5s-.224-.5-.499-.5z" fill="#243242"/></g><g><path d="m37.999 41h3.999v2h-3.999z" fill="#e47c6e"/></g><g><path d="m22 41h3.999v2h-3.999z" fill="#e47c6e"/></g><path d="m47.021 3.405c-.733-.853-1.807-1.405-3.021-1.405-1.687 0-3.131 1.045-3.718 2.523l.001-.002c1.426.999 2.59 2.253 3.408 3.676 1.764-.966 3.027-2.722 3.33-4.792z" fill="#f7d881"/><path d="m22 2.547c-.59-.342-1.269-.547-2-.547-2.209 0-4 1.791-4 4 0 .699.19 1.351.505 1.922 2.803-.411 5.025-2.592 5.495-5.375z" fill="#f7d881"/><g><path d="m59.545 31.434-.096-.202c-.615-1.289-1.797-2.208-3.161-2.461l-14.786-2.735-1.211-3.39c3.454-2.187 5.708-5.691 5.708-9.646 0-.795-.096-1.572-.269-2.324.459-.17.886-.4 1.269-.689v8.013c.001 3.86 3.141 7 6.999 7 .553 0 1-.447 1-1l.002-12.001c0-3.551-2.663-6.487-6.094-6.933-.44-2.312-2.469-4.066-4.906-4.066-1.659 0-3.153.81-4.074 2.119-2.256-1.334-4.985-2.119-7.926-2.119-2.942 0-5.672.786-7.927 2.12-.925-1.309-2.426-2.12-4.073-2.12-2.438 0-4.466 1.755-4.906 4.065-3.433.446-6.095 3.382-6.095 6.935l.001 12c0 .552.447 1 .999 1h.001c1.869 0 3.627-.729 4.949-2.05 1.321-1.322 2.049-3.08 2.049-4.949v-8.015c.383.289.811.52 1.271.69-.173.752-.269 1.529-.269 2.324 0 3.954 2.253 7.458 5.706 9.645l-1.227 3.435-14.731 2.691c-1.377.251-2.569 1.17-3.19 2.456l-.098.2c-.842 1.744-.511 3.845.824 5.228.835.864 1.979 1.344 3.15 1.344.207 0 .416-.015.624-.046l9.692-1.433-4.694 13.144c-.109.306-.062.646.124.912.188.266.492.424.818.424h6.002l-.001 7c0 2.756 2.243 4.999 5.001 4.999 2.756 0 4.998-2.243 4.998-4.999l.002-7.001h2l-.001 7.001c0 2.756 2.243 4.999 5.001 4.999 2.756 0 4.998-2.243 4.998-4.999l.002-7.001h5.998c.326 0 .631-.158.818-.424s.233-.606.124-.912l-4.704-13.171 9.75 1.46c.207.031.414.046.621.046 1.162 0 2.296-.482 3.124-1.349 1.317-1.38 1.643-3.477.814-5.215zm-28.613-28.389c-.52 4.471-4.324 7.955-8.932 7.955h-1.758c1.046-4.276 5.376-7.562 10.69-7.955zm12.825 7.955h-1.759c-4.608 0-8.412-3.483-8.932-7.955 5.314.392 9.645 3.679 10.691 7.955zm9.243.999-.001 10.9c-2.279-.465-4-2.485-4-4.899v-10.9c2.28.464 4.001 2.485 4.001 4.899zm-9-8.999c1.652 0 2.998 1.345 3 2.997 0 .001-.001.002-.001.003v.01c-.004 1.251-.789 2.334-1.909 2.774-.763-1.735-1.978-3.277-3.528-4.524.554-.779 1.447-1.26 2.438-1.26zm-29.002 15c0 1.335-.52 2.591-1.464 3.535-.704.704-1.581 1.172-2.535 1.365v-10.9c0-2.415 1.721-4.435 4-4.899zm2.002-12c0-1.654 1.346-3 3-3 .984 0 1.88.483 2.435 1.262-1.549 1.246-2.763 2.788-3.526 4.523-1.123-.442-1.909-1.529-1.909-2.785zm3 7h2c4.439 0 8.263-2.649 9.999-6.446 1.736 3.796 5.56 6.446 9.999 6.446h2.001c0 5.514-5.383 10-11.999 10-6.617 0-12-4.486-12-10zm14.895 11.738c-.331 1.296-1.499 2.261-2.896 2.261-1.398 0-2.566-.965-2.897-2.261.936.169 1.904.262 2.898.262.993 0 1.96-.093 2.895-.262zm-7.876-.537c.108 2.662 2.291 4.798 4.98 4.798 2.688 0 4.87-2.136 4.979-4.797.527-.173 1.041-.365 1.535-.589l7.638 21.387h-28.305l7.638-21.387c.494.223 1.009.415 1.535.588zm-18.252 11.774c-.741.112-1.508-.155-2.044-.709-.756-.782-.941-1.975-.462-2.967l.098-.201c.345-.714.999-1.222 1.75-1.359l13.594-2.483-2.19 6.131zm20.231 22.025c0 1.654-1.346 2.999-2.999 2.999-1.654 0-3-1.345-3-2.999l.001-7.001h6zm12 0c0 1.654-1.346 2.999-2.999 2.999-1.654 0-3-1.345-3-2.999l.001-7.001h6zm-24.58-9.001.714-2 29.733.001.714 1.999zm40.866-13.729c-.525.55-1.27.816-2.002.705l-10.809-1.619-2.194-6.143 13.644 2.524c.737.137 1.38.643 1.719 1.354l.096.202c.476.996.293 2.192-.454 2.977z"/><path d="m32 43c2.756 0 4.998-2.243 4.998-5v-6c0-.553-.447-1-1-1h-7.999c-.553 0-1 .447-1 1v6c0 2.757 2.243 5 5.001 5zm-3.001-10h5.999v5c0 1.654-1.345 3-2.998 3h-.001c-1.654 0-3-1.346-3-3z"/><path d="m36.34 20.271-.681-1.88c-2.204.799-5.118.797-7.32 0l-.681 1.88c1.318.476 2.819.728 4.342.729 1.522-.001 3.022-.253 4.34-.729z"/><path d="m28.999 14.5c0-.827-.673-1.5-1.499-1.5-.827 0-1.5.673-1.5 1.5s.673 1.5 1.5 1.5c.826-.001 1.499-.674 1.499-1.5zm-1.499.499c-.276 0-.5-.224-.5-.5s.224-.5.5-.5c.275 0 .499.224.499.5s-.224.5-.499.5z"/><path d="m36.5 15.999c.826 0 1.499-.673 1.499-1.5s-.673-1.5-1.499-1.5c-.827 0-1.5.673-1.5 1.5s.673 1.5 1.5 1.5zm0-1.999c.275 0 .499.224.499.5 0 .275-.224.5-.499.5-.276 0-.5-.224-.5-.5s.224-.5.5-.5z"/><path d="m37.999 41h3.999v2h-3.999z"/><path d="m22 41h3.999v2h-3.999z"/></g></g></svg>