<?xml version="1.0" encoding="iso-8859-1"?>
<!-- Generator: Adobe Illustrator 19.0.0, SVG Export Plug-In . SVG Version: 6.00 Build 0)  -->
<svg xmlns="http://www.w3.org/2000/svg" xmlns:xlink="http://www.w3.org/1999/xlink" version="1.1" id="Layer_1" x="0px" y="0px" viewBox="0 0 512 512" style="enable-background:new 0 0 512 512;" xml:space="preserve">
<path style="fill:#FFB301;" d="M273.067,163.648v173.483h-96.341c-7.543-25.327-30.831-42.684-57.259-42.667  c-16.077-0.034-31.471,6.468-42.667,18.005v-87.893l93.867,52.821H230.4l8.533-22.784L273.067,163.648z"/>
<path style="fill:#FEC108;" d="M238.933,163.648v173.483h-96.341c-5.751-19.319-20.873-34.441-40.192-40.192  c-5.538-1.655-11.29-2.492-17.067-2.475c-2.859-0.034-5.717,0.196-8.533,0.683v-51.371l59.733,33.621h59.733L238.933,163.648z"/>
<path style="fill:#FDD834;" d="M486.4,258.027v70.571c-0.017,4.71-3.823,8.516-8.533,8.533h-28.075  c-9.412-31.607-42.667-49.596-74.266-40.183c-15.539,4.625-28.527,15.377-35.985,29.773c-1.758,3.319-3.183,6.81-4.267,10.411H307.2  v-153.6c0.017-4.71,3.823-8.516,8.533-8.533h88.917c3.063-0.009,5.888,1.621,7.424,4.267l30.208,52.907  c0.913,1.681,2.389,2.987,4.181,3.669l34.645,14.251C484.326,251.413,486.417,254.554,486.4,258.027z"/>
<path style="fill:#FFEB3A;" d="M460.8,283.627v53.504h-11.008c-9.412-31.607-42.667-49.596-74.266-40.183  c-15.539,4.625-28.527,15.377-35.985,29.773c-5.291,2.714-10.121,6.221-14.336,10.411H307.2V200.597h71.851  c3.063-0.009,5.888,1.621,7.424,4.267l30.208,52.907c0.913,1.681,2.389,2.987,4.181,3.669l34.645,14.251  C458.726,277.013,460.817,280.154,460.8,283.627z"/>
<path d="M477.867,345.664h-28.075c-3.772,0-7.1-2.475-8.175-6.093c-3.917-13.107-12.698-23.919-24.73-30.413  c-12.032-6.511-25.89-7.919-38.989-4.028c-16.614,4.966-29.491,17.835-34.441,34.441c-1.075,3.618-4.403,6.093-8.175,6.093H307.2  c-4.719,0-8.533-3.814-8.533-8.533v-153.6c0-9.412,7.654-17.067,17.067-17.067h88.917c6.118,0,11.793,3.294,14.814,8.602  l30.225,52.89l34.671,14.285c6.426,2.645,10.573,8.841,10.573,15.778v70.579C494.933,338.001,487.279,345.664,477.867,345.664z   M455.842,328.597h22.025v-70.571l-34.671-14.285c-3.49-1.442-6.443-4.036-8.32-7.313l-30.225-52.898h-88.917v145.067h13.5  c7.731-19.166,23.706-33.826,43.776-39.817c17.468-5.214,35.942-3.319,51.994,5.359  C439.142,301.777,449.911,313.869,455.842,328.597z"/>
<path style="fill:#FDD834;" d="M401.067,106.731v25.6c-0.017,4.71-3.823,8.516-8.533,8.533H287.488  c-3.541,0.009-6.707,2.219-7.936,5.547l-6.485,17.237l-40.619,108.203c-1.229,3.328-4.395,5.538-7.936,5.547h-51.627  c-1.468,0.017-2.918-0.367-4.181-1.109L76.8,224.576L37.717,202.56c-2.287-1.203-3.866-3.422-4.267-5.973l-6.656-40.021  c-0.666-4.139-4.25-7.185-8.448-7.168h-1.28c-4.71-0.017-8.516-3.823-8.533-8.533v-17.067c0.017-4.71,3.823-8.516,8.533-8.533  h233.643c3.243,0.017,6.212-1.801,7.68-4.693l3.755-7.68c1.468-2.893,4.437-4.71,7.68-4.693h122.709  C397.244,98.206,401.05,102.02,401.067,106.731z"/>
<path style="fill:#FFEB3A;" d="M366.933,106.731v25.6c-0.017,4.71-3.823,8.516-8.533,8.533H253.355  c-3.541,0.009-6.707,2.219-7.936,5.547l-6.485,17.237l-40.619,108.203c-1.229,3.328-4.395,5.538-7.936,5.547h-17.493  c-1.468,0.017-2.918-0.367-4.181-1.109L76.8,224.576L37.717,202.56c-2.287-1.203-3.866-3.422-4.267-5.973l-6.656-40.021  c-0.666-4.139-4.25-7.185-8.448-7.168h-1.28c-4.71-0.017-8.516-3.823-8.533-8.533v-17.067c0.017-4.71,3.823-8.516,8.533-8.533  h233.643c3.243,0.017,6.212-1.801,7.68-4.693l3.755-7.68c1.468-2.893,4.437-4.71,7.68-4.693H358.4  C363.11,98.206,366.916,102.02,366.933,106.731z"/>
<path d="M224.486,285.931h-51.584c-2.944,0-5.845-0.768-8.397-2.21L33.519,210.035c-4.531-2.551-7.62-6.946-8.474-12.075  l-6.673-40.038h-1.306C7.654,157.922,0,150.268,0,140.855v-17.067c0-9.412,7.654-17.067,17.067-17.067h233.66l3.814-7.637  c2.901-5.82,8.747-9.429,15.266-9.429h122.726c9.412,0,17.067,7.654,17.067,17.067v25.6c0,9.412-7.654,17.067-17.067,17.067h-105.02  l-47.044,125.474C237.986,281.476,231.561,285.931,224.486,285.931z M17.067,123.797v17.067h1.306  c8.38,0,15.462,5.999,16.836,14.259l6.673,40.03l131.021,73.702h51.584l47.044-125.449c2.483-6.63,8.909-11.085,15.983-11.085  h105.02v-25.609l-122.726,0.009l-3.814,7.637c-2.901,5.82-8.747,9.429-15.266,9.429H17.067V123.797z"/>
<path d="M273.067,345.664h-96.341c-3.772,0-7.108-2.483-8.175-6.101c-8.038-27.025-36.565-42.487-63.607-34.441  c-8.337,2.475-15.949,7.074-22.033,13.312c-2.423,2.492-6.118,3.243-9.327,1.946c-3.209-1.314-5.316-4.446-5.316-7.91v-87.893  c0-3.029,1.604-5.837,4.224-7.364c2.611-1.536,5.854-1.562,8.491-0.068l91.921,51.729h51.584l40.585-108.211  c1.451-3.866,5.461-6.11,9.515-5.402c4.062,0.734,7.006,4.267,7.006,8.397v173.483C281.6,341.85,277.786,345.664,273.067,345.664z   M182.775,328.597h81.758V210.692l-26.138,69.7c-1.246,3.328-4.437,5.53-7.996,5.53h-59.733c-1.468,0-2.91-0.375-4.181-1.101  l-81.152-45.653v55.953c4.634-2.679,9.583-4.83,14.737-6.366C134.05,278.694,169.779,296.367,182.775,328.597z"/>
<rect x="273.067" y="285.931" style="fill:#D84315;" width="34.133" height="51.2"/>
<path d="M307.2,345.664h-34.133c-4.719,0-8.533-3.814-8.533-8.533v-51.2c0-4.719,3.814-8.533,8.533-8.533H307.2  c4.719,0,8.533,3.814,8.533,8.533v51.2C315.733,341.85,311.919,345.664,307.2,345.664z M281.6,328.597h17.067v-34.133H281.6V328.597  z"/>
<g>
	<path style="fill:#424242;" d="M179.2,354.197c0.026,32.964-26.684,59.708-59.648,59.733c-0.026,0-0.06,0-0.085,0   c-5.777,0.017-11.529-0.819-17.067-2.475c-31.625-9.515-49.545-42.863-40.03-74.487c5.777-19.217,20.813-34.253,40.03-40.03   c5.538-1.655,11.29-2.492,17.067-2.475c32.956-0.034,59.699,26.658,59.733,59.614C179.2,354.121,179.2,354.155,179.2,354.197z"/>
	<path style="fill:#424242;" d="M452.267,354.197c0.026,32.964-26.684,59.708-59.648,59.733c-0.026,0-0.06,0-0.085,0   c-5.777,0.017-11.529-0.819-17.067-2.475c-31.599-9.378-49.613-42.607-40.226-74.206c5.743-19.345,20.881-34.483,40.226-40.226   c5.521-1.724,11.281-2.594,17.067-2.56c32.956-0.034,59.699,26.658,59.733,59.614C452.267,354.121,452.267,354.155,452.267,354.197   z"/>
</g>
<g>
	<path style="fill:#9E9E9E;" d="M145.067,354.197c0.017,26.428-17.34,49.715-42.667,57.259   c-31.625-9.515-49.545-42.863-40.03-74.487c5.777-19.217,20.813-34.253,40.03-40.03   C127.735,304.474,145.092,327.77,145.067,354.197z"/>
	<path style="fill:#9E9E9E;" d="M418.133,354.197c0.017,26.428-17.34,49.715-42.667,57.259   c-31.599-9.378-49.613-42.607-40.226-74.206c5.743-19.345,20.881-34.483,40.226-40.226   C400.794,304.508,418.168,327.787,418.133,354.197z"/>
</g>
<path d="M119.526,422.345c-0.026,0-0.043,0-0.068,0c-18.219-0.017-35.345-7.134-48.213-20.028  c-12.868-12.902-19.942-30.037-19.925-48.247c0.017-18.21,7.125-35.345,20.028-48.205c12.877-12.86,29.986-19.934,48.179-19.934  c0.026,0,0.043,0,0.068,0c29.926,0.026,56.781,20.087,65.314,48.768c1.877,6.34,2.825,12.894,2.825,19.507l0,0  c-0.017,18.219-7.125,35.345-20.028,48.205C154.829,415.27,137.719,422.345,119.526,422.345z M119.518,302.997  c-13.636,0-26.47,5.308-36.122,14.942c-9.668,9.651-15.002,22.494-15.019,36.147s5.291,26.505,14.942,36.173  c9.651,9.668,22.494,15.002,36.147,15.019c0.017,0,0.034,0,0.051,0c13.636,0,26.47-5.308,36.122-14.942  c9.668-9.651,15.002-22.494,15.019-36.147c0-4.958-0.708-9.873-2.125-14.626c-6.4-21.513-26.53-36.54-48.973-36.565  C119.561,302.997,119.535,302.997,119.518,302.997z"/>
<g>
	<path style="fill:#37474F;" d="M119.467,379.797c-14.131-0.017-25.583-11.469-25.6-25.6c0-14.14,11.46-25.6,25.6-25.6   s25.6,11.46,25.6,25.6C145.05,368.329,133.598,379.78,119.467,379.797z"/>
	<path style="fill:#37474F;" d="M392.533,379.797c-14.131-0.017-25.583-11.469-25.6-25.6c-0.009-2.432,0.333-4.855,1.015-7.185   c3.968-13.577,18.185-21.359,31.761-17.399c13.577,3.968,21.359,18.185,17.4,31.761   C413.918,372.288,403.908,379.797,392.533,379.797z"/>
</g>
<path d="M119.475,388.331c0,0-0.009,0-0.017,0c-18.799-0.026-34.108-15.334-34.125-34.125c0-18.833,15.309-34.142,34.133-34.142  s34.133,15.309,34.133,34.133C153.583,372.996,138.274,388.305,119.475,388.331z M119.467,337.131  c-9.412,0-17.067,7.654-17.067,17.067c0.009,9.395,7.663,17.05,17.067,17.067c9.404-0.017,17.058-7.671,17.067-17.075  C136.533,344.785,128.879,337.131,119.467,337.131z"/>
<path d="M392.593,422.345c-0.017,0-0.043,0-0.068,0c-18.219-0.017-35.345-7.134-48.205-20.028  c-12.877-12.902-19.951-30.037-19.934-48.247c0.043-37.581,30.635-68.139,68.207-68.139c0.026,0,0.043,0,0.068,0  c29.935,0.026,56.789,20.087,65.314,48.768c1.886,6.332,2.833,12.902,2.825,19.507c-0.017,18.227-7.134,35.345-20.028,48.205  C427.904,415.27,410.795,422.345,392.593,422.345z M392.593,302.997c-13.645,0-26.479,5.308-36.122,14.942  c-9.668,9.651-15.002,22.494-15.019,36.147s5.291,26.505,14.942,36.173c9.651,9.668,22.494,15.002,36.147,15.019  c0.017,0,0.034,0,0.051,0c13.645,0,26.479-5.308,36.122-14.942c9.668-9.651,15.002-22.494,15.019-36.147l0,0  c0.009-4.958-0.708-9.873-2.116-14.626c-6.4-21.513-26.53-36.54-48.973-36.565C392.627,302.997,392.61,302.997,392.593,302.997z"/>
<path d="M392.533,388.331L392.533,388.331c-18.799-0.026-34.108-15.334-34.133-34.125c-0.009-3.234,0.452-6.468,1.357-9.591  c5.282-18.074,24.311-28.484,42.342-23.194c8.755,2.56,15.991,8.371,20.369,16.367c4.386,8.004,5.393,17.229,2.833,25.975  C421.069,378.227,407.603,388.331,392.533,388.331z M392.533,337.114c-7.39,0-14.217,4.838-16.393,12.279  c-0.452,1.553-0.683,3.157-0.674,4.77c0.009,9.421,7.663,17.092,17.075,17.101c7.526,0,14.259-5.06,16.375-12.279  c1.28-4.378,0.777-8.994-1.417-12.988c-2.193-3.994-5.811-6.912-10.18-8.183C395.725,337.335,394.121,337.114,392.533,337.114z"/>
<path d="M392.533,217.664h-51.2c-4.719,0-8.533-3.823-8.533-8.533c0-4.71,3.814-8.533,8.533-8.533h51.2  c4.719,0,8.533,3.823,8.533,8.533C401.067,213.841,397.252,217.664,392.533,217.664z"/>
<path d="M341.333,285.931c-4.719,0-8.533-3.814-8.533-8.533v-34.133c0-4.71,3.814-8.533,8.533-8.533h51.2  c4.719,0,8.533,3.823,8.533,8.533c0,4.71-3.814,8.533-8.533,8.533h-42.667v25.6C349.867,282.116,346.052,285.931,341.333,285.931z"/>
<path d="M76.8,226.53c-4.71,0-8.533-3.823-8.533-8.533v-68.608c0-4.71,3.823-8.533,8.533-8.533s8.533,3.823,8.533,8.533v68.608  C85.333,222.716,81.51,226.53,76.8,226.53z"/>
<path d="M128,257.796c-4.71,0-8.533-3.823-8.533-8.533v-99.866c0-4.71,3.823-8.533,8.533-8.533c4.71,0,8.533,3.823,8.533,8.533  v99.866C136.533,253.973,132.71,257.796,128,257.796z"/>
<path d="M179.2,277.397c-4.71,0-8.533-3.814-8.533-8.533V149.397c0-4.71,3.823-8.533,8.533-8.533s8.533,3.823,8.533,8.533v119.467  C187.733,273.583,183.91,277.397,179.2,277.397z"/>
<path d="M230.4,277.397c-4.71,0-8.533-3.814-8.533-8.533V149.397c0-4.71,3.823-8.533,8.533-8.533s8.533,3.823,8.533,8.533v119.467  C238.933,273.583,235.11,277.397,230.4,277.397z"/>
<path d="M273.067,157.931H25.6c-4.71,0-8.533-3.823-8.533-8.533c0-4.71,3.823-8.533,8.533-8.533h247.467  c4.719,0,8.533,3.823,8.533,8.533C281.6,154.108,277.786,157.931,273.067,157.931z"/>
<path d="M503.467,285.931H486.4c-4.719,0-8.533-3.814-8.533-8.533s3.814-8.533,8.533-8.533h17.067c4.719,0,8.533,3.814,8.533,8.533  C512,282.116,508.186,285.931,503.467,285.931z"/>
<path d="M503.467,320.064H486.4c-4.719,0-8.533-3.814-8.533-8.533s3.814-8.533,8.533-8.533h17.067c4.719,0,8.533,3.814,8.533,8.533  S508.186,320.064,503.467,320.064z"/>
<g>
</g>
<g>
</g>
<g>
</g>
<g>
</g>
<g>
</g>
<g>
</g>
<g>
</g>
<g>
</g>
<g>
</g>
<g>
</g>
<g>
</g>
<g>
</g>
<g>
</g>
<g>
</g>
<g>
</g>
</svg>
