<svg enable-background="new 0 0 128 128" height="512" viewBox="0 0 128 128" width="512" xmlns="http://www.w3.org/2000/svg"><g id="Elephant"><path id="Tail_7_" d="m109 104.2c-.8 0-1.5-.7-1.5-1.5 0-4.1-6-6.6-6-6.6-.8-.3-1.2-1.2-.8-1.9s1.2-1.1 1.9-.8c.3.1 8 3.2 8 9.4-.1.7-.8 1.4-1.6 1.4z"/><g id="Body_13_"><path d="m94.4 82.6-.9-4.6-41 10-.9 5.1-.1-.1c-4.8 4-6.2 30.7 0 30 .8-.1 1.5-.1 2.1-.2 2.1-.2 3.8-1.9 3.8-4.1 0-.8.1-1.7.2-2.8 4.3 2.1 9.7 3.8 15.5 3.4-.1 1.9-.3 3.4-.6 3.7-.8 1 6.7 2.6 8 1 .5-.6 1.4-3.5 2.1-6.7 3.8-1.1 7-2.5 9.6-3.8-.5 2.9-.9 5.7-.7 6.5.6 1.6 6 0 6 0 5.8-8.8 8.1-29.3-3.1-37.4" fill="#a9a69c"/><path d="m65.8 101.5c14.4 0 27.1-3.4 33.8-11.8-1.2-2.4-2.9-4.5-5.2-6.1l-.9-4.6-41 10-.9 5.1-.1-.1c-1.1.9-2 3-2.7 5.6 5.1 1.3 10.9 1.9 17 1.9z" fill="#827e74"/><path d="m103.1 94.3c-1.2-5.4-3.7-9.7-7.4-12.5l-.2 3.7 1.2 1.7c1.9 2.6 2.9 5.5 3.4 7.9.8 3.8.8 7.8.3 11.5-.2 1.5-.5 2.9-.8 4.3-.8 3.2-1.9 5.9-3.2 8-1.4.4-3 .6-3.6.5 0-.8.2-2.6.6-4.7v-.2c1.2-.6 2.3-1.3 2.8-1.5.7-.4 1.4-1.1 1.2-1.9-.3-.8-1.1-1.5-2-.9l-.2.1-.2.1c-.2.1-.5.3-.8.5-.6.3-1.2.7-1.8 1s-1.2.6-1.6.9c-1.8.9-4 1.8-6.4 2.6.3-2.5.2-4.9-.5-6.7-.3-.8-1.2-1.1-2-.8s-1.1 1.2-.8 2c.7 1.6.5 4.2.1 6.6-.2 1.2-.4 2.3-.7 3.3-.5 1.8-.9 3.1-1.2 3.6-.8.4-3.8 0-5.2-.5.1-.5.2-1.1.3-1.9s.2-1.8.3-3.1c.1-2.1.2-4.8.3-8.6 0-.8-.6-1.5-1.5-1.5-.8 0-1.5.7-1.5 1.5-.1 3-.2 6.3-.3 8.9-4.5.1-8.8-1.2-12.4-2.8.3-1.7.9-3.5 1.6-5.5.3-.8-.1-1.6-.9-1.9s-1.6.1-1.9.9c-.7 1.8-1.2 3.6-1.6 5.2-.3 1.1-.5 2.2-.5 3.2-.1.7-.1 1.3-.1 1.9 0 1.4-1 2.5-2.4 2.6-.6 0-1.3.1-2.1.2-.5 0-1-1-1.2-1.4-.8-1.9-1.2-4.7-1.3-7.8-.2-7.4 1.5-16.3 3.6-18.1.6-.5.7-1.5.2-2.1s-1.5-.7-2.1-.2c-.1.1-.2.2-.3.3-4.4 4.4-5.7 22.5-2.9 29.1 1.2 2.8 2.8 3.3 3.9 3.3h.4c.8-.1 1.4-.1 2-.2 2.9-.2 5.1-2.6 5.1-5.6 0-.2 0-.4 0-.6 3.6 1.5 7.9 2.7 12.5 2.7h.1c-.1.7-.1 1.2-.2 1.4-.4.7-.4 1.7.6 2.4.9.7 3.7 1.5 6.2 1.5 1.6 0 3-.3 3.7-1.3.5-.7 1.5-3.3 2.2-6.4 2.3-.7 4.5-1.6 6.3-2.4-.3 2.1-.4 3.7-.1 4.4.5 1.3 1.8 1.7 3.4 1.7 1.5 0 3.2-.4 4.5-.8.3-.1.6-.3.8-.6 3.7-6.2 6.4-17.1 4.3-27z"/></g><g id="Head_19_"><g id="Ears"><g><path d="m122.8 53c.9 18.5-1.5 40.6-13.6 41.2s-29.4-20.6-30.3-39 8.1-33.9 20.3-34.5 22.7 13.9 23.6 32.3z" fill="#a9a69c"/><path d="m109.2 86.7c9.8-.5 13.3-15.1 13.7-30.5.5 17.8-2.3 37.5-13.7 38.1-12.1.6-29.4-20.6-30.3-39-.1-2.2-.1-4.4.1-6.5 1.5 18.2 18.3 38.4 30.2 37.9z" fill="#827e74"/><path d="m122.8 66.4c-.9-18.5-11.5-33-23.6-32.4-10 .5-17.9 11-19.9 25-.2-1.3-.4-2.6-.4-3.9-.9-18.3 8.2-33.8 20.3-34.4s22.7 13.9 23.6 32.4c.2 4.3.3 8.9 0 13.3z" fill="#c0beb4"/><path d="m108.7 95.8c-6.2 0-13.6-4.8-20-12.9-6.7-8.4-10.9-18.7-11.3-27.6-.5-9.2 1.5-18 5.5-24.8 4.1-7 9.9-11 16.3-11.3h.8c12.6 0 23.5 14.9 24.4 33.8.5 10.8-.2 20.6-2 27.8-2.4 9.7-6.8 14.7-13.1 15-.2 0-.4 0-.6 0zm-8.8-73.6c-.2 0-.4 0-.7 0-5.3.2-10.2 3.7-13.8 9.8-3.7 6.3-5.5 14.5-5.1 23.1.5 8.3 4.5 18 10.7 25.9 6 7.5 12.9 12.1 18.1 11.8 4.8-.2 8.2-4.5 10.3-12.8 1.7-6.8 2.4-16.4 1.9-26.9-.8-17.3-10.4-30.9-21.4-30.9z"/></g><g><path d="m4.8 53c-.9 18.5 1.5 40.7 13.6 41.3s29.4-20.6 30.3-39-8.2-33.9-20.3-34.6-22.7 13.9-23.6 32.3z" fill="#a9a69c"/><path d="m18.4 86.7c-9.8-.5-13.3-15.2-13.7-30.5-.5 17.7 2.3 37.5 13.7 38.1 12.1.6 29.4-20.6 30.3-39 .1-2.2.1-4.4-.1-6.5-1.5 18.2-18.3 38.4-30.2 37.9z" fill="#827e74"/><path d="m4.8 66.4c.9-18.5 11.5-33 23.6-32.4 10 .5 17.9 11 19.9 25 .2-1.3.4-2.6.4-3.9.9-18.5-8.2-33.9-20.3-34.6s-22.7 14.1-23.6 32.5c-.2 4.4-.2 9 0 13.4z" fill="#c0beb4"/><path d="m18.9 95.8c-.2 0-.4 0-.6 0-15.4-.8-15.6-30.2-15-42.8 1-19.3 12.3-34.4 25.2-33.8 6.4.3 12.2 4.3 16.3 11.3 4 6.8 5.9 15.6 5.5 24.8-.4 8.9-4.7 19.2-11.3 27.5-6.5 8.2-13.9 13-20.1 13zm-12.6-42.7c-.9 18.9 1.8 39.2 12.2 39.7 5.2.2 12.2-4.3 18.1-11.8 6.2-7.9 10.2-17.6 10.6-25.8.4-8.6-1.4-16.9-5.1-23.1-3.6-6.1-8.5-9.6-13.8-9.8-.2 0-.4 0-.7 0-10.9-.1-20.4 13.5-21.3 30.8z"/></g></g><g id="Head_8_"><path d="m64.8 23c-33.8 0-37.5 31.1-37.5 44.5 0 23.1 23.4 26.5 37.5 26.5s37.5-3.4 37.5-26.5c0-13.3-3.7-44.5-37.5-44.5z" fill="#a9a69c"/><path d="m64.8 21.5c-1.1 0-2.2 0-3.2.1s-1.9.1-2.8.2c-2.3.3-4.5.7-6.5 1.3-20.9 5.9-26.5 27-26.5 44.4 0-1 0-2 .1-3 .1 1.5.3 3 .6 4.3 1.9-14.8 8.8-29.8 25.9-34.6 2-.6 4.2-1 6.5-1.3.9-.1 1.8-.2 2.8-.2 1-.1 2.1-.1 3.2-.1s2.2 0 3.2.1 1.9.1 2.8.2c2.3.3 4.5.7 6.5 1.3 17.1 4.8 24 19.8 25.9 34.6.3-1.4.5-2.8.6-4.3 0 1 .1 2 .1 3 0-17.4-5.6-38.5-26.5-44.4-2-.6-4.2-1-6.5-1.3-.9-.1-1.8-.2-2.8-.2-1.3 0-2.3-.1-3.4-.1" fill="#c0beb4"/><path d="m103.8 67.5c0 1.5-.1 3-.3 4.3-.1-1-.2-2-.3-3-3.3 15.7-19.2 21.7-38.4 21.7s-35.1-6-38.4-21.7c-.1 1-.2 2-.3 3-.2-1.4-.3-2.8-.3-4.3 0 20.4 17.5 28 39 28s39-7.5 39-28" fill="#827e74"/><path d="m64.8 97c-26.1 0-40.5-10.5-40.5-29.5 0-14.3 3.9-47.5 40.5-47.5s40.5 33.2 40.5 47.5c0 19.1-14.4 29.5-40.5 29.5zm0-74c-33.8 0-37.5 31.1-37.5 44.5 0 23.1 23.4 26.5 37.5 26.5s37.5-3.4 37.5-26.5c0-13.3-3.7-44.5-37.5-44.5z"/></g><g id="Eyes_11_"><circle cx="80.7" cy="70" r="3"/><circle cx="48.8" cy="70" r="3"/></g><g id="Tusks"><g><path d="m80.7 87.1 1.9 11.8c.5 3-4.1 4.9-5.9 2.5l-7.2-9.5c-2.8-6.7 8.3-11.5 11.2-4.8z" fill="#ccc"/><path d="m73.7 93.1c-.4-.9-2.6-6.7-2.3-7.4.8-1.6 6.4-.7 8 0 .6.3.1 4 .5 4.8l1.1 6.5c.3 1.6-2.3 2.7-3.3 1.4z" fill="#f2f2f2"/><path d="m79 103.9c-1.4 0-2.6-.6-3.5-1.7l-7.2-9.5c-.1-.1-.2-.2-.2-.4-1.8-4.2.8-7.9 4.2-9.3 3.4-1.5 7.9-.8 9.7 3.4 0 .1.1.3.1.4l1.9 11.8c.3 2-.9 4-3 4.9-.6.3-1.3.4-2 .4zm-8.2-12.8 7.1 9.4c.5.6 1.4.5 2 .3.6-.3 1.3-.9 1.2-1.6l-1.9-11.6c-1.3-2.7-4.2-2.3-5.7-1.7s-3.7 2.4-2.7 5.2z"/></g><g><path d="m48.8 87.1-1.9 11.8c-.5 3 4.1 4.9 5.9 2.5l7.2-9.5c2.8-6.7-8.3-11.5-11.2-4.8z" fill="#ccc"/><path d="m55.7 93.1c.4-.9 2.6-6.7 2.3-7.4-.8-1.6-6.4-.7-8 0-.6.3-.1 4-.5 4.8l-1 6.5c-.3 1.6 2.3 2.7 3.3 1.4z" fill="#f2f2f2"/><path d="m50.5 103.9c-.7 0-1.4-.1-2.1-.4-2.1-.9-3.3-2.9-3-4.9l1.9-11.8v-.1c0-.1.1-.3.1-.4 1.8-4.1 6.2-4.8 9.7-3.3s6 5.2 4.2 9.4c0 .1-.1.2-.2.3l-7.2 9.5c-.8 1.2-2 1.7-3.4 1.7zm-.2-16.4-1.9 11.6c-.1.8.6 1.4 1.2 1.6.6.3 1.5.4 2-.3l7.1-9.4c1.1-2.8-1.2-4.6-2.7-5.3-1.6-.5-4.5-.9-5.7 1.8z"/></g></g><g id="Trunk"><path d="m74.3 80.7v30.6c0 3-2.4 5.4-5.4 5.4h-8.2c-3 0-5.4-2.4-5.4-5.4v-30.6" fill="#a9a69c"/><g fill="#c0beb4"><path d="m68.8 89.2h-8c-.8 0-1.5-.7-1.5-1.5s.7-1.5 1.5-1.5h8c.8 0 1.5.7 1.5 1.5s-.7 1.5-1.5 1.5z"/><path d="m68.8 96.2h-8c-.8 0-1.5-.7-1.5-1.5s.7-1.5 1.5-1.5h8c.8 0 1.5.7 1.5 1.5s-.7 1.5-1.5 1.5z"/><path d="m68.8 103.2h-8c-.8 0-1.5-.7-1.5-1.5s.7-1.5 1.5-1.5h8c.8 0 1.5.7 1.5 1.5s-.7 1.5-1.5 1.5z"/><path d="m68.8 110.2h-8c-.8 0-1.5-.7-1.5-1.5s.7-1.5 1.5-1.5h8c.8 0 1.5.7 1.5 1.5s-.7 1.5-1.5 1.5z"/></g><path d="m68.8 118.2h-8.2c-3.8 0-6.9-3.1-6.9-6.9v-30.6c0-.8.7-1.5 1.5-1.5s1.5.7 1.5 1.5v30.6c0 2.2 1.8 3.9 3.9 3.9h8.2c2.2 0 3.9-1.8 3.9-3.9v-30.6c0-.8.7-1.5 1.5-1.5s1.5.7 1.5 1.5v30.6c.1 3.8-3 6.9-6.9 6.9z"/></g></g></g></svg>