<svg height="512" viewBox="0 0 48 48" width="512" xmlns="http://www.w3.org/2000/svg"><g id="envelop"><path d="m47 9v30l-18.16-15.79z" fill="#ffba55"/><path d="m47 9-23 18-23-18z" fill="#fc6"/><path d="m47 39h-46l18.16-15.79 4.84 3.79 4.84-3.79z" fill="#fc6"/><path d="m19.16 23.21-18.16 15.79v-30z" fill="#ffba55"/><path d="m44.7 37h-35.7a5.93 5.93 0 0 1 -4-1.51l14.16-12.28 4.84 3.79 4.84-3.79z" fill="#ffde76"/><path d="m19.16 23.21-14.16 12.28a5.94 5.94 0 0 1 -2-4.49v-20.44z" fill="#fc6"/><path d="m47 9v28h-2.3l-15.86-13.79z" fill="#fc6"/><path d="m47 9-23 18-21-16.44v-1.56z" fill="#ffde76"/><path d="m47 10.27-16.59 13 16.59 14.41v1.32h-1.52l-16.67-14.49-4.19 3.28a1 1 0 0 1 -1.24 0l-4.19-3.28-16.67 14.49h-1.52v-1.32l16.59-14.43-16.59-12.98v-1.27h1.63l21.37 16.73 21.37-16.73h1.63z" fill="#ffba55"/><path d="m47.94 8.68a1.06 1.06 0 0 0 -.94-.68c-48.65 0-46.33-.2-46.79.38s-.21 30.79-.14 30.97a.87.87 0 0 0 .46.51c.4.23 46.56.19 46.87.06a2 2 0 0 0 .35-.26.91.91 0 0 0 .08-.13c.32-.53.17-30.72.11-30.85zm-45.94 2.37 15.59 12.2-15.59 13.56zm22 14.68-20.1-15.73h40.2zm-4.81-1.22c4.61 3.6 4.34 3.49 4.81 3.49s.15.15 4.81-3.49l15.52 13.49h-40.66zm11.22-1.26 15.59-12.2v25.76z"/></g></svg>