<svg height="512" viewBox="0 0 58 61" width="512" xmlns="http://www.w3.org/2000/svg"><g id="037---Fly" fill="none"><g id="Icons" transform="translate(1)"><path id="Shape" d="m37.23 18.39h-18.46c-2.6818611-2.5115352-3.5016817-6.4346765-2.05-9.81l7.79-6.15c2.2981184-.57330007 4.7018816-.57330007 7 0l7.79 6.15c1.4467857 3.3794282.6188287 7.3032244-2.07 9.81z" fill="#0377bc"/><path id="Shape" d="m34.23 18.39h-15.46c-2.6818611-2.5115352-3.5016817-6.4346765-2.05-9.81l7.79-6.15c.6573168-.16491933 1.3257409-.28189354 2-.35.6742591.06810646 1.3426832.18508067 2 .35l7.79 6.15c1.4467857 3.3794282.6188287 7.3032244-2.07 9.81z" fill="#02a9f4"/><path id="Shape" d="m34 42c-2 7.32-2.27 12.15-.47 14.73-3.45 2.94-7.41 3.11-11.06 0 1.8-2.58 1.53-7.41-.47-14.73-2.32-8.49-.46-19.36.51-23.88.0640885-.3164855-.0285908-.6444408-.248847-.8805713-.2202561-.2361305-.5409794-.3513725-.861153-.3094287 4.0206486-2.5715569 9.1693514-2.5715569 13.19 0-.3206736-.0393353-.6405951.0786782-.8589063.3168359s-.3081127.5671146-.2410937.8831641c.97 4.51 2.83 15.38.51 23.87z" fill="#3f51b5"/><path id="Shape" d="m26 6c-.0019316 1.90251834-1.083411 3.63908744-2.79 4.48-1.4038997-.63968386-3.0161003-.63968386-4.42 0-2.214346-1.09111031-3.3010018-3.63496733-2.5583956-5.98919463s3.0922012-3.81416986 5.531829-3.43725298 4.2390717 2.4778764 4.2365666 4.94644761z" fill="#f5f5f5"/><path id="Shape" d="m40 6c-.0019316 1.90251834-1.083411 3.63908744-2.79 4.48-1.4036125-.64100559-3.0163875-.64100559-4.42 0-2.214346-1.09111031-3.3010018-3.63496733-2.5583956-5.98919463s3.0922012-3.81416986 5.531829-3.43725298 4.2390717 2.4778764 4.2365666 4.94644761z" fill="#cfd8dc"/><path id="Shape" d="m35 10c-.507466-.00203619-1.0126035.0686831-1.5.21-.4873965-.1413169-.992534-.21203619-1.5-.21-1.499921-1.12650137-2.2431278-2.99777152-1.9248334-4.84640804.3182943-1.84863652 1.6445345-3.36359367 3.4348334-3.92359196 1.7873699.56488465 3.1086346 2.08205366 3.4226096 3.93008115.313975 1.8480275-.4320898 3.71643037-1.9326096 4.83991885z" fill="#f5f5f5"/><path id="Shape" d="m21 17c.3431732-.2000527.7722167-.1780206 1.0930927.0561322s.4727388.6360252.3869073 1.0238678c-1 4.52-2.83 15.39-.51 23.88 3.18 11.66 2 17-5 17s-16.97 1.04-16.97-6.96c.03599313-14.6393808 8.09983723-28.079121 21-35z" fill="#00bcd4"/><path id="Shape" d="m56 52c0 7.9-9.65 7-17 7-7 0-8.18-5.34-5-17 2.32-8.49.46-19.36-.51-23.88-.1203344-.4031673.0245599-.8385335.3624919-1.089185.337932-.2506516.796611-.2629688 1.1475081-.030815 12.9001628 6.920879 20.9640069 20.3606192 21 35z" fill="#00838f"/><path id="Shape" d="m53 52c0 5.92-5.47 6.91-11.15 7h-2.85c-7 0-8.18-5.34-5-17 2.81-10.27-.53-23.59-.53-24.09 12.0601801 7.1300694 19.47907 20.079888 19.53 34.09z" fill="#00bcd4"/></g><g id="Layer_10" fill="#000" transform="translate(-1)"><circle id="Oval" cx="24" cy="6" r="1"/><circle id="Oval" cx="36" cy="6" r="1"/><path id="Shape" d="m44.07 20.64c6-5.29 5.76-5 5.88-5.32l2.92-8.78 2.84-2.83c.2536586-.25365856.3527236-.62337399.2598781-.96987806-.0928455-.34650406-.363496-.61715454-.71-.71000002-.3465041-.09284548-.7162195.00621949-.9698781.25987808l-1.75 1.71-.54-2.24c-.1325484-.55228471-.6877153-.89254826-1.24-.75999993-.5522847.13254834-.8925483.6877152-.76 1.23999993l1 3.76-2.82 8.47-5.68 5c-.5533333-.4133333-1.1233333-.8133333-1.71-1.2 2.2257942-2.652525 2.8488173-6.2989302 1.63-9.54 1.2322377-2.52670389.5449789-5.57020496-1.6534456-7.32222444-2.1984244-1.75201948-5.3185427-1.74278184-7.5065544.02222444-2.1230856-.44998053-4.3169144-.44998053-6.44 0-1.7835474-1.47270277-4.2547941-1.789076-6.3518166-.81317043-2.0970225.97590556-3.4463588 3.07028942-3.4681834 5.38317043.0034231.91887492.2154178 1.82498116.62 2.65-1.2188173 3.2410698-.5957942 6.887475 1.63 9.54-.5866667.3866667-1.1566667.7866667-1.71 1.2l-5.68-5-2.86-8.39 1-3.76c.1325483-.55228475-.20771525-1.10745166-.76-1.24s-1.10745166.20771525-1.24.76l-.54 2.24-1.75-1.71c-.39212217-.39212217-1.02787783-.39212217-1.42 0s-.39212217 1.02787783 0 1.42l2.84 2.83c3.18 9.56 2.92 9 3.21 9.21l5.59 4.89c-9.3862227 7.7179299-14.85663707 19.2083649-14.93 31.36-.0759588 1.9285512.64772439 3.8028907 2 5.18 3.47 3.46 10.79 2.82 16 2.82 2.0487314.1552794 4.0728902-.5266564 5.61-1.89 3.151418 2.520277 7.628582 2.520277 10.78 0 1.5371098 1.3633436 3.5612686 2.0452794 5.61 1.89 7 0 18 1.08 18-8-.0733629-12.1516351-5.5437773-23.6420701-14.93-31.36zm-4.92-11.27c-1.3905792-.49509953-2.9094208-.49509953-4.3 0-1.4992096-.95560277-2.1877676-2.78604678-1.6900664-4.4928273.4977012-1.70678051 2.0622008-2.8802277 3.8400664-2.8802277s3.3423652 1.17344719 3.8400664 2.8802277c.4977012 1.70678052-.1908568 3.53722453-1.6900664 4.4928273zm-16.15-7.37c1.7759288.00212264 3.3378115 1.17493011 3.8351607 2.87979707.4973493 1.70486696-.1889383 3.53351788-1.6851607 4.49020293-1.3914161-.4902301-2.9085839-.4902301-4.3 0-1.4962224-.95668505-2.18251-2.78533597-1.6851607-4.49020293.4973492-1.70486696 2.0592319-2.87767443 3.8351607-2.87979707zm-3.86 8.58c.3705864.3131666.7767075.5816764 1.21.8.274806.1327594.595194.1327594.87 0 1.3241435-.6109832 2.871262-.4858486 4.08.33.3472012.3402964.8888375.3815827 1.2836059.0978429.3947683-.2837397.5282755-.8102854.3163941-1.2478429 2.1561163-1.84610063 2.7235894-4.95051231 1.36-7.44 1.1551492-.15002519 2.3248508-.15002519 3.48 0-1.3635894 2.48948769-.7961163 5.59389937 1.36 7.44-.1520218.3102601-.1331175.6770154.0499985.9700009.183116.2929856.5044997.4706912.8500015.4699991.54 0 .62-.31 1.22-.61 1.1323402-.5078087 2.4276598-.5078087 3.56 0 .274806.1327594.595194.1327594.87 0 .4332925-.2183236.8394136-.4868334 1.21-.8.4304659 2.3359931-.2369584 4.7401954-1.81 6.52-.6314615-.458676-1.32076-.8319059-2.05-1.11-4.2850361-2.6690393-9.7149639-2.6690393-14 0-.7139825.2731587-1.3869656.6432994-2 1.1-1.5936153-1.7694735-2.280153-4.1760466-1.86-6.52zm-.14 47.42c-7.08 0-16 .91-16-6 .07921992-14.2616381 7.9524932-27.3377177 20.52-34.08-1 4.41-2.88 15.61-.49 24.35 2 7.3 2.15 11.89.51 14-.86 1.17-2.35 1.73-4.54 1.73zm6.77-1.52c1.43-2.88 1.17-7.48-.77-14.74-2.27-8.33-.39-19.15.52-23.41.0827899-.455434.0050371-.9254847-.22-1.33 2.9858037-1.3597933 6.4141963-1.3597933 9.4 0-.2067918.4036284-.2702626.865555-.18 1.31.91 4.26 2.79 15.08.52 23.41-2 7.23-2.24 11.86-.81 14.74-2.4573065 2.0151982-5.9931929 2.0235573-8.46.02zm15.23 1.52c-2.19 0-3.68-.56-4.55-1.71-1.64-2.14-1.47-6.73.51-14 2.39-8.74.46-19.94-.48-24.35 12.5488172 6.7519048 20.4161378 19.8104301 20.52 34.06 0 6.89-8.76 6-16 6z"/><path id="Shape" d="m16.55 27.17c-.4588827-.3012473-1.0748175-.176275-1.38.28-.25.37-6.17 9.39-7.17 24.48-.03865992.5522847.37771526 1.03134.93 1.07.55228474.0386599 1.03134006-.3777153 1.07-.93 1-14.53 6.77-23.43 6.83-23.52.3012473-.4588827.176275-1.0748175-.28-1.38z"/><path id="Shape" d="m17 37c-.5522847 0-1 .4477153-1 1 .0287239 5.0621789.3626632 10.1180201 1 15.14.0773199.5522847.5877153.9373198 1.14.86.5522847-.0773199.9373199-.5877153.86-1.14-.6315429-4.9287476-.9654816-9.8910758-1-14.86 0-.5522847-.4477153-1-1-1z"/><path id="Shape" d="m43.45 27.17c-.456275.3051825-.5812473.9211173-.28 1.38.06.09 5.86 9 6.83 23.52.0386599.5522847.5177153.9686599 1.07.93s.9686599-.5177153.93-1.07c-1-15.09-6.92-24.11-7.17-24.48-.3051825-.456275-.9211173-.5812473-1.38-.28z"/><path id="Shape" d="m43 37c-.5522847 0-1 .4477153-1 1-.0345184 4.9689242-.3684571 9.9312524-1 14.86-.0773199.5522847.3077153 1.0626801.86 1.14s1.0626801-.3077153 1.14-.86c.6373368-5.0219799.9712761-10.0778211 1-15.14 0-.5522847-.4477153-1-1-1z"/></g></g></svg>