<?xml version="1.0" encoding="iso-8859-1"?>
<!-- Generator: Adobe Illustrator 21.0.0, SVG Export Plug-In . SVG Version: 6.00 Build 0)  -->
<svg version="1.1" id="Capa_1" xmlns="http://www.w3.org/2000/svg" xmlns:xlink="http://www.w3.org/1999/xlink" x="0px" y="0px"
	 viewBox="0 0 593.282 593.282" style="enable-background:new 0 0 593.282 593.282;" xml:space="preserve">
<g>
	<g>
		<g id="filled_outline_12_">
			<rect x="227.425" y="168.097" style="fill:#F09E26;" width="177.985" height="39.552"/>
			<rect x="355.969" y="168.097" style="fill:#E68A00;" width="49.44" height="39.552"/>
			<path style="fill:#F09E26;" d="M405.409,118.657H227.425c0-27.301,22.139-49.44,49.44-49.44h79.104
				C383.27,69.216,405.409,91.356,405.409,118.657z"/>
			<path style="fill:#E68A00;" d="M355.969,69.216h-39.552c27.301,0,49.44,22.139,49.44,49.44h39.552
				C405.409,91.356,383.27,69.216,355.969,69.216z"/>
			<path style="fill:#754C30;" d="M252.145,118.657h128.544c13.655,0,24.72,11.065,24.72,24.72l0,0
				c0,13.655-11.065,24.72-24.72,24.72H252.145c-13.655,0-24.72-11.065-24.72-24.72l0,0
				C227.425,129.721,238.489,118.657,252.145,118.657z"/>
			<path style="fill:#634129;" d="M380.689,148.321H252.145c-9.819-0.01-18.708-5.834-22.634-14.832
				c-5.458,12.508,0.257,27.083,12.765,32.542c3.115,1.365,6.477,2.067,9.868,2.067h128.544c13.655-0.01,24.71-11.094,24.7-24.74
				c0-3.392-0.702-6.754-2.067-9.868C399.397,142.487,390.508,148.311,380.689,148.321z"/>
			<polygon style="fill:#F5C145;" points="296.641,118.657 346.081,168.097 395.521,118.657 			"/>
			<path style="fill:#DD381A;" d="M494.402,207.649H131.56c-13.448-0.01-25.214,9.028-28.675,22.021L69.216,336.193l-46.118,30.742
				c-8.257,5.508-13.21,14.773-13.21,24.69v83h49.44c0-27.301,22.139-49.44,49.44-49.44s49.44,22.139,49.44,49.44h217.537
				c0-27.301,22.139-49.44,49.44-49.44s49.44,22.139,49.44,49.44h49.44V237.313C524.066,220.929,510.786,207.649,494.402,207.649z"
				/>
			<rect x="177.985" y="247.201" style="fill:#634129;" width="316.417" height="128.544"/>
			<path style="fill:#A4B0BF;" d="M9.888,474.626h49.44c0.03-15.613,7.465-30.297,20.043-39.552H9.888V474.626z"/>
			<path style="fill:#A4B0BF;" d="M474.626,474.626h49.44v-39.552h-69.483C467.16,444.329,474.596,459.013,474.626,474.626z"/>
			<polygon style="fill:#4EABEC;" points="148.32,247.201 97.358,247.201 69.216,336.193 148.32,336.193 			"/>
			<circle style="fill:#697B8C;" cx="425.185" cy="474.626" r="49.44"/>
			<circle style="fill:#D0D7DF;" cx="425.185" cy="474.626" r="19.776"/>
			<circle style="fill:#697B8C;" cx="108.768" cy="474.626" r="49.44"/>
			<circle style="fill:#D0D7DF;" cx="108.768" cy="474.626" r="19.776"/>
			<polygon style="fill:#4394CC;" points="76.642,312.699 69.216,336.193 148.32,336.193 148.32,276.865 			"/>
			<polygon style="fill:#F0B326;" points="375.745,138.433 395.521,118.657 296.641,118.657 316.417,138.433 			"/>
			<circle cx="108.768" cy="474.626" r="19.776"/>
			<circle cx="425.185" cy="474.626" r="19.776"/>
			<rect x="118.656" y="365.857" width="39.552" height="19.776"/>
			<rect x="187.873" y="425.186" width="158.209" height="19.776"/>
			<path d="M494.402,197.761h-15.682l-65.399-65.38c-0.663-1.968-1.503-3.866-2.512-5.676c2.759-1.76,4.44-4.786,4.489-8.049
				c-0.03-32.749-26.579-59.299-59.328-59.328h-79.104c-32.749,0.03-59.299,26.579-59.328,59.328
				c0.04,3.263,1.721,6.289,4.469,8.049c-1.009,1.81-1.849,3.708-2.512,5.676l-65.38,65.38H131.56
				c-17.759-0.03-33.352,11.816-38.089,28.932L60.841,329.895l-43.23,28.814C6.605,366.045,0,378.395,0,391.616v83.01
				c0,5.458,4.43,9.888,9.888,9.888H50.33c5.429,32.275,35.992,54.038,68.267,48.61c24.908-4.193,44.417-23.702,48.61-48.61h199.541
				c5.429,32.275,35.992,54.038,68.267,48.61c24.908-4.193,44.417-23.702,48.61-48.61h40.442c5.458,0,9.888-4.43,9.888-9.888
				V314.272l35.192-57.182h24.137v-19.776h-59.328C533.954,215.47,516.244,197.761,494.402,197.761z M411.609,158.614l39.147,39.147
				h-35.458v-29.664c-0.04-3.263-1.721-6.289-4.469-8.049C411.095,159.573,411.342,159.099,411.609,158.614z M393.02,135.15
				c4.539,6.813,2.699,16.029-4.113,20.567c-2.432,1.622-5.29,2.492-8.217,2.492h-10.738L393.02,135.15z M346.081,154.115
				l-25.57-25.57h51.141L346.081,154.115z M276.865,79.104h79.104c18.026,0.03,33.768,12.212,38.306,29.664H238.559
				C243.097,91.316,258.839,79.134,276.865,79.104z M252.145,128.545h40.403l29.664,29.664h-70.067
				c-8.187,0-14.832-6.645-14.832-14.832S243.958,128.545,252.145,128.545z M237.313,177.985h158.209v19.776H237.313V177.985z
				 M221.225,158.614c0.247,0.485,0.514,0.989,0.781,1.434c-2.749,1.76-4.43,4.786-4.469,8.049v29.664h-35.458L221.225,158.614z
				 M104.586,257.089h33.847v69.216H82.713L104.586,257.089z M57.123,445.575c-1.483,2.64-2.759,5.399-3.807,8.237l0,0
				c-0.089,0.237-0.227,0.445-0.316,0.682s-0.119,0.504-0.198,0.742c-0.999,2.877-1.78,5.824-2.324,8.82
				c0,0.218-0.129,0.425-0.168,0.653H19.776v-19.746H57.43c-0.079,0.198-0.218,0.405-0.336,0.613H57.123z M108.768,514.178
				c-21.704,0.148-39.424-17.324-39.582-39.028c-0.02-3.085,0.316-6.16,1.018-9.166c0.168-0.751,0.475-1.463,0.682-2.205
				c0.593-2.047,1.365-4.044,2.284-5.962c0.316-0.663,0.692-1.276,0.989-1.918c1.117-2.057,2.423-4.005,3.886-5.834
				c0.277-0.346,0.554-0.692,0.85-0.989c1.908-2.205,4.044-4.193,6.378-5.933l0.099-0.099c6.734-5.112,14.941-7.91,23.395-7.97
				c21.843,0,39.552,17.709,39.552,39.552C148.32,496.468,130.611,514.178,108.768,514.178z M425.185,514.178
				c-21.843,0-39.552-17.709-39.552-39.552c0-21.843,17.709-39.552,39.552-39.552c8.435,0.02,16.642,2.769,23.385,7.831l0.099,0.099
				c2.334,1.74,4.469,3.728,6.378,5.933c0.297,0.336,0.574,0.682,0.85,0.989c1.463,1.829,2.769,3.777,3.886,5.834
				c0.346,0.643,0.722,1.256,0.989,1.918c0.9,1.938,1.641,3.955,2.215,6.012c0.208,0.742,0.514,1.454,0.682,2.205
				c4.964,21.131-8.158,42.281-29.288,47.245C431.365,513.842,428.28,514.198,425.185,514.178z M514.178,464.738h-30.485
				c0-0.227-0.129-0.435-0.168-0.653c-0.544-2.996-1.325-5.943-2.324-8.82c-0.079-0.237-0.109-0.504-0.198-0.742
				c-0.089-0.237-0.227-0.445-0.316-0.682l0,0c-1.048-2.838-2.324-5.597-3.807-8.237c-0.119-0.208-0.218-0.415-0.336-0.613h37.634
				V464.738z M514.178,308.675l-19.776,32.136v-83.722h19.776V308.675z M484.514,237.313H187.873c-5.458,0-9.888,4.43-9.888,9.888
				v128.544c0,5.458,4.43,9.888,9.888,9.888h296.641c3.411-0.04,6.546-1.859,8.276-4.796l0.148,0.089l21.239-34.519v78.778h-56.263
				c-0.613-0.405-1.246-0.751-1.869-1.137l-1.285-0.781c-2.591-1.493-5.29-2.788-8.079-3.876l-1.463-0.544
				c-2.897-1.048-5.874-1.869-8.899-2.462c-0.396-0.079-0.791-0.119-1.187-0.188c-6.585-1.196-13.329-1.196-19.914,0
				c-0.396,0.069-0.791,0.109-1.187,0.188c-3.026,0.593-6.002,1.414-8.899,2.462l-1.463,0.544c-2.788,1.088-5.488,2.383-8.079,3.876
				l-1.285,0.781c-2.581,1.572-5.053,3.332-7.367,5.27c-0.257,0.218-0.484,0.455-0.732,0.672c-2.373,2.047-4.588,4.291-6.605,6.694
				l-0.109,0.129c-1.997,2.432-3.787,5.013-5.379,7.732c-0.198,0.346-0.425,0.672-0.623,0.989c-1.483,2.64-2.759,5.399-3.807,8.237
				c-0.188,0.484-0.366,0.989-0.534,1.454c-1.009,2.887-1.78,5.844-2.324,8.85c0,0.218-0.129,0.405-0.168,0.623H167.276
				c0-0.218-0.129-0.405-0.168-0.623c-0.544-3.006-1.315-5.962-2.324-8.85c-0.168-0.494-0.346-0.989-0.534-1.454
				c-1.048-2.838-2.324-5.597-3.807-8.237c-0.198-0.356-0.425-0.682-0.623-0.989c-1.592-2.719-3.382-5.3-5.379-7.732l-0.109-0.129
				c-2.017-2.403-4.232-4.647-6.605-6.694c-0.247-0.218-0.475-0.455-0.732-0.672c-2.314-1.938-4.786-3.698-7.367-5.27l-1.285-0.781
				c-2.591-1.493-5.29-2.788-8.079-3.876l-1.463-0.544c-2.897-1.048-5.873-1.869-8.899-2.462c-0.396-0.079-0.791-0.119-1.187-0.188
				c-6.585-1.196-13.329-1.196-19.914,0c-0.396,0.069-0.791,0.109-1.187,0.188c-3.026,0.593-6.002,1.414-8.899,2.462l-1.463,0.544
				c-2.788,1.088-5.488,2.383-8.079,3.876l-1.285,0.781c-0.623,0.386-1.256,0.732-1.869,1.137H19.776v-33.619
				c0-6.615,3.303-12.785,8.81-16.454l43.596-29.031h76.138c5.458,0,9.888-4.43,9.888-9.888v-88.992c0-5.458-4.43-9.888-9.888-9.888
				h-37.476l1.612-5.102c2.314-8.652,10.145-14.674,19.104-14.674h362.841c10.926,0,19.776,8.85,19.776,19.776H484.514z
				 M272.504,257.089h202.121v108.768H205.562L272.504,257.089z M197.761,340.811v-83.722h51.527L197.761,340.811z M533.954,276.539
				v-19.45h11.974L533.954,276.539z"/>
		</g>
	</g>
</g>
<g>
</g>
<g>
</g>
<g>
</g>
<g>
</g>
<g>
</g>
<g>
</g>
<g>
</g>
<g>
</g>
<g>
</g>
<g>
</g>
<g>
</g>
<g>
</g>
<g>
</g>
<g>
</g>
<g>
</g>
</svg>
