<svg id="fill" height="512" viewBox="0 0 64 64" width="512" xmlns="http://www.w3.org/2000/svg"><rect fill="#7dd491" height="58" rx="2.967" width="38" x="13" y="3"/><path d="m48.033 3a2.967 2.967 0 0 1 2.967 2.967v52.066a2.967 2.967 0 0 1 -2.967 2.967h-32.066a2.967 2.967 0 0 1 -2.967-2.967v-20a35.033 35.033 0 0 1 35.033-35.033z" fill="#c6ec6b" transform="matrix(-1 0 0 -1 64 64)"/><path d="m50.033 59h-32.066a2.967 2.967 0 0 1 -2.967-2.967v-52.066a2.957 2.957 0 0 1 .133-.834 2.96 2.96 0 0 0 -2.133 2.834v52.066a2.967 2.967 0 0 0 2.967 2.967h32.066a2.96 2.96 0 0 0 2.834-2.133 2.957 2.957 0 0 1 -.834.133z" fill="#58a066"/><path d="m17 31v-24h30v20.9a3.1 3.1 0 0 1 -3.1 3.1z" fill="#895e7a"/><path d="m17 7h30v20.9a3.1 3.1 0 0 1 -3.1 3.1h-2.9a24 24 0 0 1 -24-24z" fill="#aa889f"/><path d="m24 11h16v16h-16z" fill="#bbf9ff"/><path d="m26 11h-2v16h16v-2a14 14 0 0 1 -14-14z" fill="#35d7fd"/><path d="m30 39h-4v-4h-4v4h-4v4h4v4h4v-4h4z" fill="#ffd257"/><path d="m23 46v-4h-4v-3h-1v4h4v4h4v-1z" fill="#f89c5b"/><path d="m22 35h1v4h-1z" fill="#f89c5b"/><path d="m26 42h4v1h-4z" fill="#f89c5b"/><circle cx="43" cy="41" fill="#e94561" r="3"/><circle cx="36" cy="48" fill="#e94561" r="3"/><path d="m37 50a3 3 0 0 1 -3-3 2.965 2.965 0 0 1 .446-1.554 2.992 2.992 0 1 0 4.108 4.108 2.965 2.965 0 0 1 -1.554.446z" fill="#895e7a"/><path d="m44 43a3 3 0 0 1 -3-3 2.965 2.965 0 0 1 .446-1.554 2.992 2.992 0 1 0 4.108 4.108 2.965 2.965 0 0 1 -1.554.446z" fill="#895e7a"/><path d="m28 56h3v2h-3z" fill="#03b3e2"/><path d="m33 56h3v2h-3z" fill="#03b3e2"/><g fill="#58a066"><path d="m40.5 55.379h2v4.243h-2z" transform="matrix(.707 -.707 .707 .707 -28.504 46.186)"/><path d="m43.5 52.379h2v4.243h-2z" transform="matrix(.707 -.707 .707 .707 -25.504 47.429)"/><path d="m46.5 49.379h2v4.243h-2z" transform="matrix(.707 -.707 .707 .707 -22.504 48.672)"/></g><path d="m36.906 15.906-1.812-1.812a.641.641 0 0 1 .454-1.094h1.811a.641.641 0 0 1 .641.641v1.811a.641.641 0 0 1 -1.094.454z" fill="#fff"/><path d="m48.033 2h-32.066a3.971 3.971 0 0 0 -3.967 3.967v52.066a3.971 3.971 0 0 0 3.967 3.967h32.066a3.971 3.971 0 0 0 3.967-3.967v-52.066a3.971 3.971 0 0 0 -3.967-3.967zm1.967 56.033a1.969 1.969 0 0 1 -1.967 1.967h-32.066a1.969 1.969 0 0 1 -1.967-1.967v-52.066a1.969 1.969 0 0 1 1.967-1.967h32.066a1.969 1.969 0 0 1 1.967 1.967z"/><path d="m20 32v-2h-2v-22h28v19.9a2.107 2.107 0 0 1 -2.1 2.1h-21.9v2h21.9a4.109 4.109 0 0 0 4.1-4.1v-20.9a1 1 0 0 0 -1-1h-30a1 1 0 0 0 -1 1v24a1 1 0 0 0 1 1z"/><path d="m40 28a1 1 0 0 0 1-1v-16a1 1 0 0 0 -1-1h-16a1 1 0 0 0 -1 1v16a1 1 0 0 0 1 1zm-15-16h14v14h-14z"/><path d="m30 38h-3v-3a1 1 0 0 0 -1-1h-4a1 1 0 0 0 -1 1v3h-3a1 1 0 0 0 -1 1v4a1 1 0 0 0 1 1h3v3a1 1 0 0 0 1 1h4a1 1 0 0 0 1-1v-3h3a1 1 0 0 0 1-1v-4a1 1 0 0 0 -1-1zm-1 4h-3a1 1 0 0 0 -1 1v3h-2v-3a1 1 0 0 0 -1-1h-3v-2h3a1 1 0 0 0 1-1v-3h2v3a1 1 0 0 0 1 1h3z"/><path d="m43 37a4 4 0 1 0 4 4 4 4 0 0 0 -4-4zm0 6a2 2 0 1 1 2-2 2 2 0 0 1 -2 2z"/><path d="m36 44a4 4 0 1 0 4 4 4 4 0 0 0 -4-4zm0 6a2 2 0 1 1 2-2 2 2 0 0 1 -2 2z"/><path d="m28 56h3v2h-3z"/><path d="m33 56h3v2h-3z"/><path d="m40.5 55.379h2v4.243h-2z" transform="matrix(.707 -.707 .707 .707 -28.504 46.186)"/><path d="m43.5 52.379h2v4.243h-2z" transform="matrix(.707 -.707 .707 .707 -25.504 47.429)"/><path d="m46.5 49.379h2v4.243h-2z" transform="matrix(.707 -.707 .707 .707 -22.504 48.672)"/></svg>