<?xml version="1.0" encoding="iso-8859-1"?>
<!-- Generator: Adobe Illustrator 21.0.0, SVG Export Plug-In . SVG Version: 6.00 Build 0)  -->
<svg version="1.1" id="Capa_1" xmlns="http://www.w3.org/2000/svg" xmlns:xlink="http://www.w3.org/1999/xlink" x="0px" y="0px"
	 viewBox="0 0 593.286 593.286" style="enable-background:new 0 0 593.286 593.286;" xml:space="preserve">
<g>
	<g>
		<g id="filled_outline_14_">
			<polygon style="fill:#F09E26;" points="435.073,192.789 490.16,192.789 583.394,281.781 553.73,390.55 474.626,390.55 
				435.073,350.998 			"/>
			<path style="fill:#4EABEC;" d="M108.768,242.229H60.02c-6.615,0-12.785,3.303-16.454,8.81L13.21,296.613
				c-1.009,1.533-1.79,3.194-2.334,4.944h97.892V242.229z"/>
			<path style="fill:#F5AE45;" d="M108.768,242.229v59.328H10.877c-0.633,1.938-0.969,3.955-0.989,5.992v83h40.047
				c-0.277-1.632-0.445-3.283-0.494-4.944c0-19.114,15.495-34.608,34.608-34.608s34.608,15.495,34.608,34.608
				c-0.049,1.661-0.218,3.312-0.494,4.944h30.159v-148.32C148.321,242.229,108.768,242.229,108.768,242.229z"/>
			<rect x="148.321" y="350.998" style="fill:#C3C9D1;" width="296.641" height="39.552"/>
			<rect x="148.321" y="350.998" style="fill:#D0D7DF;" width="69.216" height="39.552"/>
			<rect x="187.873" y="192.789" style="fill:#F09E26;" width="247.201" height="158.209"/>
			<path style="fill:#697B8C;" d="M84.048,350.998c-19.114,0-34.608,15.495-34.608,34.608c0.049,1.661,0.218,3.312,0.494,4.944
				c2.65,18.837,20.073,31.968,38.919,29.308c15.218-2.146,27.172-14.1,29.308-29.308c0.277-1.632,0.445-3.283,0.494-4.944
				C118.656,366.492,103.162,350.998,84.048,350.998L84.048,350.998z"/>
			<path style="fill:#697B8C;" d="M360.913,350.998c-19.114,0-34.608,15.495-34.608,34.608c0.049,1.661,0.218,3.312,0.494,4.944
				c2.65,18.837,20.073,31.968,38.919,29.308c15.218-2.146,27.172-14.1,29.308-29.308c0.277-1.632,0.445-3.283,0.494-4.944
				C395.521,366.492,380.027,350.998,360.913,350.998z"/>
			<path style="fill:#697B8C;" d="M291.697,350.998c-19.114,0-34.608,15.495-34.608,34.608c0.049,1.661,0.218,3.312,0.494,4.944
				c2.65,18.837,20.073,31.968,38.919,29.308c15.218-2.146,27.172-14.1,29.308-29.308c0.277-1.632,0.445-3.283,0.494-4.944
				C326.305,366.492,310.811,350.998,291.697,350.998z"/>
			<circle style="fill:#C3C9D1;" cx="84.048" cy="385.606" r="14.832"/>
			<circle style="fill:#C3C9D1;" cx="291.697" cy="385.606" r="14.832"/>
			<circle style="fill:#C3C9D1;" cx="360.913" cy="385.606" r="14.832"/>
			<polygon style="fill:#3E89BD;" points="59.328,301.557 108.768,301.557 108.768,242.229 98.178,242.229 			"/>
			<rect x="207.649" y="350.998" style="fill:#B7BDC4;" width="19.776" height="39.552"/>
			<path d="M496.992,185.63c-1.839-1.75-4.291-2.729-6.833-2.729h-45.198v-19.776h-19.776v19.776h-29.664v-19.776h-19.776v19.776
				h-29.664v-19.776h-19.776v19.776h-29.664v-19.776h-19.776v19.776h-29.664v-19.776h-19.776v19.776h-29.664v-19.776h-19.776V341.11
				h-19.776v-98.88c0-5.458-4.43-9.888-9.888-9.888h-88.3c-9.937-0.03-19.222,4.934-24.72,13.21L4.944,291.086
				C1.711,295.951-0.01,301.656,0,307.49v83.059c0,5.458,4.43,9.888,9.888,9.888h32.413c8.019,23.039,33.194,35.221,56.233,27.202
				c12.746-4.44,22.772-14.456,27.202-27.202H249.95c7.94,23.019,33.036,35.241,56.055,27.301c8.009-2.769,15.059-7.782,20.3-14.446
				c15.05,19.133,42.756,22.446,61.889,7.396c6.645-5.231,11.648-12.261,14.407-20.251h32.472c5.458,0,9.888-4.43,9.888-9.888
				v-15.682l22.673,22.673c1.849,1.859,4.371,2.897,6.991,2.897h79.104c4.459,0,8.365-2.986,9.542-7.287l29.664-108.768
				c0.959-3.51-0.089-7.258-2.719-9.759L496.992,185.63z M79.104,252.117H98.88v39.552H79.104V252.117z M51.794,256.517
				c1.701-2.531,4.489-4.123,7.535-4.311v39.463H28.359L51.794,256.517z M108.383,389.017v0.148
				c-1.849,13.438-14.229,22.831-27.667,20.982c-11.055-1.523-19.697-10.303-21.032-21.378c-0.188-1.048-0.307-2.106-0.356-3.164
				c0-13.655,11.065-24.72,24.72-24.72s24.72,11.065,24.72,24.72c-0.049,1.137-0.178,2.264-0.386,3.382V389.017z M138.432,350.998
				v29.664h-10.155c-0.089-0.742-0.336-1.434-0.455-2.165c-0.208-1.266-0.455-2.502-0.771-3.728
				c-0.386-1.523-0.85-3.016-1.394-4.489c-0.435-1.177-0.89-2.324-1.414-3.451c-0.672-1.394-1.404-2.759-2.215-4.074
				c-0.633-1.048-1.256-2.086-1.978-3.085c-0.91-1.256-1.978-2.423-2.966-3.579c-0.811-0.9-1.582-1.81-2.452-2.64
				c-1.167-1.078-2.393-2.086-3.668-3.026c-0.929-0.712-1.81-1.463-2.798-2.106c-1.414-0.87-2.887-1.671-4.39-2.383
				c-0.989-0.494-1.978-1.068-2.966-1.493c-1.75-0.663-3.54-1.226-5.359-1.661c-0.92-0.247-1.8-0.603-2.739-0.791
				c-5.725-1.177-11.618-1.177-17.344,0c-0.939,0.188-1.819,0.544-2.739,0.791c-1.819,0.435-3.609,0.999-5.359,1.661
				c-0.989,0.425-1.978,0.989-2.966,1.493c-1.503,0.712-2.976,1.513-4.39,2.383c-0.989,0.643-1.869,1.394-2.798,2.106
				c-1.276,0.939-2.502,1.948-3.668,3.026c-0.87,0.831-1.641,1.74-2.452,2.64c-0.989,1.157-2.047,2.324-2.966,3.579
				c-0.722,0.989-1.345,2.037-1.978,3.085c-0.811,1.315-1.543,2.68-2.215,4.074c-0.524,1.127-0.989,2.274-1.414,3.451
				c-0.544,1.473-1.009,2.966-1.394,4.489c-0.316,1.226-0.564,2.462-0.771,3.728c-0.119,0.732-0.366,1.424-0.455,2.165H19.776
				v-29.664h19.776v-19.776H19.776v-19.776h88.992c5.458,0,9.888-4.43,9.888-9.888v-49.44h19.776V350.998z M207.649,380.662h-49.44
				v-19.776h49.44V380.662z M251.156,367.501c-0.218,0.485-0.435,0.989-0.643,1.463c-0.949,2.334-1.701,4.756-2.245,7.218
				c-0.089,0.445-0.148,0.89-0.227,1.345c-0.198,0.989-0.435,2.067-0.554,3.135h-20.063v-19.776h27.291
				C253.351,362.992,252.155,365.197,251.156,367.501z M316.12,388.533l-0.089,0.603c-1.849,13.438-14.229,22.831-27.667,20.982
				c-11.055-1.523-19.697-10.303-21.032-21.378c-0.188-1.038-0.307-2.086-0.356-3.135c0-13.655,11.065-24.72,24.72-24.72
				c13.655,0,24.72,11.065,24.72,24.72c-0.03,0.999-0.138,1.987-0.316,2.966L316.12,388.533z M385.267,388.987v0.148
				c-1.849,13.438-14.229,22.831-27.667,20.982c-11.055-1.523-19.697-10.303-21.032-21.378c-0.198-1.038-0.316-2.086-0.376-3.135
				c0-13.655,11.065-24.72,24.72-24.72c13.655,0,24.72,11.065,24.72,24.72c-0.049,1.137-0.178,2.264-0.386,3.382H385.267z
				 M425.185,380.662h-20.043c-0.119-1.068-0.356-2.096-0.554-3.135c-0.079-0.455-0.138-0.9-0.227-1.345
				c-0.544-2.462-1.295-4.885-2.245-7.218c-0.208-0.494-0.425-0.989-0.643-1.463c-1.009-2.304-2.205-4.519-3.579-6.615h27.291
				V380.662z M425.185,321.333v19.776H197.761V202.677h29.664v118.656h19.776V202.677h29.664v118.656h19.776V202.677h29.664v118.656
				h19.776V202.677h29.664v118.656h19.776V202.677h29.664V321.333z M541.162,255.133l-25.996,51.962l-17.601-29.338l21.754-43.507
				L541.162,255.133z M486.204,202.677l18.145,17.324l-18.847,37.654l-32.967-54.977H486.204z M444.961,228.485l26.045,43.408
				h-26.045V228.485z M444.961,291.669h37.911l17.798,29.664h-55.709V291.669z M478.719,380.662l-33.758-33.758v-5.794h67.575
				l23.731,39.552H478.719z M550.289,365.592l-23.039-38.395l28.883-57.776l16.177,15.445L550.289,365.592z"/>
		</g>
	</g>
</g>
<g>
</g>
<g>
</g>
<g>
</g>
<g>
</g>
<g>
</g>
<g>
</g>
<g>
</g>
<g>
</g>
<g>
</g>
<g>
</g>
<g>
</g>
<g>
</g>
<g>
</g>
<g>
</g>
<g>
</g>
</svg>
