<svg id="Artboard_30" height="512" viewBox="0 0 64 64" width="512" xmlns="http://www.w3.org/2000/svg" data-name="Artboard 30"><path d="m32 48a3.237 3.237 0 0 0 -2.894 1.79l-4.5 9a5.815 5.815 0 0 1 -5.199 3.21 5.814 5.814 0 0 1 -5.2-8.414l5.406-10.812a3.3 3.3 0 0 0 -2.951-4.774h-8.662a6 6 0 0 1 -6-6 6 6 0 0 1 6-6h17.069a13 13 0 1 1 13.862 0h17.069a6 6 0 0 1 6 6 6 6 0 0 1 -6 6h-8.662a3.3 3.3 0 0 0 -2.951 4.774l5.406 10.812a5.814 5.814 0 0 1 -5.2 8.414 5.815 5.815 0 0 1 -5.2-3.214l-4.5-9a3.237 3.237 0 0 0 -2.893-1.786z" fill="#c8874f"/><path d="m43.392 58.786-4.5-9a3.227 3.227 0 0 0 -4.892-1.086 3.23 3.23 0 0 1 .894 1.092l4.5 9a5.8 5.8 0 0 0 7.215 2.85 5.8 5.8 0 0 1 -3.217-2.856z" fill="#96653b"/><path d="m18.207 53.586 5.406-10.812a3.3 3.3 0 0 0 -2.951-4.774h-4a3.3 3.3 0 0 1 2.951 4.774l-5.406 10.812a5.792 5.792 0 0 0 7.186 8.05 5.814 5.814 0 0 1 -3.186-8.05z" fill="#96653b"/><path d="m6 32a6 6 0 0 1 6-6h-4a6 6 0 0 0 0 12h4a6 6 0 0 1 -6-6z" fill="#96653b"/><path d="m25.069 26h4a12.991 12.991 0 0 1 4.931-23.831 12.993 12.993 0 0 0 -8.931 23.831z" fill="#96653b"/><circle cx="31" cy="33" fill="#96653b" r="2"/><circle cx="31" cy="41" fill="#96653b" r="2"/><g fill="#f7f7f4"><circle cx="32" cy="32" r="2"/><circle cx="32" cy="40" r="2"/><circle cx="27" cy="12" r="2"/><circle cx="37" cy="12" r="2"/><path d="m32 22a10.954 10.954 0 0 1 -5.675-1.565 1.011 1.011 0 0 1 -.289-1.479.984.984 0 0 1 1.291-.252 9.032 9.032 0 0 0 9.346 0 .984.984 0 0 1 1.291.252 1.011 1.011 0 0 1 -.289 1.479 10.954 10.954 0 0 1 -5.675 1.565z"/><path d="m62 32a6 6 0 0 0 -6-6h-3l2 3-2 2 2 2-2 2 2 3h1a6 6 0 0 0 6-6z"/><path d="m11 33-2-2 2-2-2-3h-1a6 6 0 0 0 0 12h3l-2-3z"/><path d="m47 52v3l-4-1v4l-4.445-.889.837 1.675a5.814 5.814 0 0 0 10.4-5.2l-.792-1.586z"/><path d="m25.445 57.111-4.445.889v-4l-4 1v-3h-2l-.793 1.586a5.814 5.814 0 0 0 10.4 5.2l.837-1.675z"/></g><path d="m56 25h-14.2a14 14 0 1 0 -19.6 0h-14.2a7 7 0 0 0 0 14h8.662a2.3 2.3 0 0 1 2.056 3.327l-5.406 10.812a6.814 6.814 0 0 0 12.188 6.094l4.5-9a2.236 2.236 0 0 1 4 0l4.5 9a6.814 6.814 0 1 0 12.189-6.094l-5.407-10.812a2.3 2.3 0 0 1 2.056-3.327h8.662a7 7 0 0 0 0-14zm-53 7a5.006 5.006 0 0 1 5-5h.465l1.248 1.873-1.42 1.42a1 1 0 0 0 0 1.414l1.293 1.293-1.293 1.293a1 1 0 0 0 -.125 1.262l.964 1.445h-1.132a5.006 5.006 0 0 1 -5-5zm16.407 29a4.813 4.813 0 0 1 -4.3-6.967l.511-1.033h.382v2a1 1 0 0 0 1.243.97l2.757-.689v2.719a1 1 0 0 0 1 1 .932.932 0 0 0 .2-.02l2.42-.48a4.778 4.778 0 0 1 -4.213 2.5zm29.28-2.283a4.8 4.8 0 0 1 -8.307-.217l2.424.484a.932.932 0 0 0 .196.016 1 1 0 0 0 1-1v-2.719l2.757.689a1 1 0 0 0 1.243-.97v-2h.382l.516 1.033a4.782 4.782 0 0 1 -.211 4.684zm-5.006-19.678a4.273 4.273 0 0 0 -.188 4.183l3.889 7.778h-.382a1 1 0 0 0 -1 1v1.719l-2.757-.689a1 1 0 0 0 -1.243.97v2.78l-2.769-.554-3.442-6.884a4.212 4.212 0 0 0 -3.789-2.342 4.212 4.212 0 0 0 -3.789 2.342l-3.442 6.884-2.769.554v-2.78a1 1 0 0 0 -1.243-.97l-2.757.689v-1.719a1 1 0 0 0 -1-1h-.382l3.889-7.778a4.3 4.3 0 0 0 -3.845-6.222h-5.127l-1.248-1.873 1.42-1.42a1 1 0 0 0 0-1.414l-1.293-1.293 1.293-1.293a1 1 0 0 0 .125-1.262l-.964-1.445h14.276a1 1 0 0 0 .281-1.96 12 12 0 1 1 12.972.114 1 1 0 0 0 .534 1.846h13.534l1.248 1.873-1.42 1.42a1 1 0 0 0 0 1.414l1.293 1.293-1.293 1.293a1 1 0 0 0 -.125 1.262l.964 1.445h-5.794a4.271 4.271 0 0 0 -3.657 2.039zm12.319-2.039h-.465l-1.248-1.873 1.42-1.42a1 1 0 0 0 0-1.414l-1.293-1.293 1.293-1.293a1 1 0 0 0 .125-1.262l-.964-1.445h1.132a5 5 0 0 1 0 10z"/><path d="m32 29a3 3 0 1 0 3 3 3 3 0 0 0 -3-3zm0 4a1 1 0 1 1 1-1 1 1 0 0 1 -1 1z"/><path d="m32 37a3 3 0 1 0 3 3 3 3 0 0 0 -3-3zm0 4a1 1 0 1 1 1-1 1 1 0 0 1 -1 1z"/><path d="m30 12a3 3 0 1 0 -3 3 3 3 0 0 0 3-3zm-4 0a1 1 0 1 1 1 1 1 1 0 0 1 -1-1z"/><path d="m37 15a3 3 0 1 0 -3-3 3 3 0 0 0 3 3zm0-4a1 1 0 1 1 -1 1 1 1 0 0 1 1-1z"/><path d="m37.391 18.207a8.985 8.985 0 0 1 -10.782 0l-1.218 1.586a11.011 11.011 0 0 0 13.218 0z"/></svg>