<svg id="Capa_1" enable-background="new 0 0 128 128" height="512" viewBox="0 0 128 128" width="512" xmlns="http://www.w3.org/2000/svg"><g><path d="m105.9 106.5c-.7 0-1.3-.3-1.7-.9-2.3-3.7-10.2-9.4-13.1-11.2-.9-.6-1.2-1.9-.6-2.8s1.8-1.2 2.8-.6c.4.3 11 7.3 14.2 12.4.6.9.3 2.2-.6 2.8-.2.2-.6.3-1 .3z" fill="#ffe581"/><path d="m107 106.2c.5-.3.8-.8.9-1.3l-.9-2.4c-.3-.5-.7-.9-1.2-1.4l-3.1 2.5c.6.7 1.2 1.3 1.6 2 .4.6 1 .9 1.7.9.3 0 .7-.1 1-.3z" fill="#6f4a38"/><path d="m105.9 108c-1.2 0-2.3-.6-3-1.6-2-3.1-8.8-8.2-12.6-10.8-.8-.5-1.3-1.3-1.5-2.2s0-1.8.5-2.6c1.1-1.6 3.2-2.1 4.8-1 1.1.8 11.3 7.6 14.7 12.9.5.8.7 1.7.5 2.6s-.7 1.7-1.5 2.2c-.6.3-1.2.5-1.9.5zm-13.7-15.8c-.2 0-.3.1-.4.2-.2.2-.1.5.1.7.1.1 10.5 7 13.5 11.7.1.2.5.3.7.2s.2-.2.2-.3 0-.2-.1-.4c-2.5-3.9-10.1-9.5-13.8-12 0-.1-.1-.1-.2-.1z"/><path d="m97.6 99.4v10.6c0 2.7-1.8 5.1-4.4 5.6-3.5.7-6.6-2-6.6-5.4 0 0 0-1.2-.3-1.1-1.1.4-3 .7-5 .8-.8 0-1.6.1-2.4.1-3.7 0-7.3-.2-7.3-.2v5.2c0 2.9-2.1 5.5-5 5.7-2.7.2-5.1-1.5-5.8-4h-1.3c-.1 0-.1 0-.1 0-.7 2.4-3.1 4.2-5.8 4-2.9-.3-5-2.8-5-5.7v-44.2l13.9-1v11.8.3c.1 3.8 3.3 6.8 7.1 6.8h17.4c1 0 2 .1 3 .4 4.3 1.3 7.6 5.4 7.6 10.3z" fill="#ffe581"/><path d="m89.9 89.2c-.9-.3-1.9-.4-3-.4h-17.2c-3.8 0-7-3-7.1-6.8 0-.1 0-.2 0-.3v-11.9l-13.9 1v2.9l12.3-1v11.8.3c.1 3.8 3.3 6.8 7.1 6.8h17.3c1 0 2 .1 3 .4 4.4 1.3 7.7 5.4 7.7 10.2v10.8c0 .4 0 .7-.1 1 1-1.1 1.6-2.5 1.6-4v-10.6c0-4.9-3.3-9-7.7-10.2z" fill="#fff5ae"/><path d="m72.1 106.2v3.6c1.1.1 3.9.2 6.8.2.8 0 1.6 0 2.4-.1 1.6-.1 3.1-.3 4.2-.5 2.7-1.9 5.5-3.9 5.5-3.9-2.8 2.3-18.9.7-18.9.7z" fill="#ffd252"/><path d="m55.1 77.2c2.6 0 5.1-.2 7.5-.6v-6.9l-13.9 1v6c2 .4 4.2.5 6.4.5z" fill="#ffd252"/><path d="m54 91.2c0 2.2-1.8 4-4 4-.5 0-1-.1-1.4-.3v-7.3c.5-.2.9-.3 1.4-.3 2.2-.1 4 1.7 4 3.9z" fill="#6f4a38"/><path d="m78.1 90.2c0 2.2-1.8 4-3.9 4-2.2 0-4-1.8-4-4 0-.5.1-1 .3-1.4h7.3c.2.4.3.9.3 1.4z" fill="#6f4a38"/><path d="m70.5 91.7h7.2c.2-.5.3-1 .3-1.6 0-.5-.1-1-.3-1.4h-7.3c-.2.5-.3.9-.3 1.4.1.6.2 1.2.4 1.6z" fill="#825c4d"/><path d="m62.6 81.9c-.5.2-1 .3-1.6.3-2.2 0-3.9-1.8-3.9-3.9 0-2.2 1.8-4 3.9-4 .5 0 1.1.1 1.6.3v7z" fill="#6f4a38"/><path d="m90.1 90.3c0 2.2-1.8 3.9-3.9 3.9-2.2 0-4-1.8-4-3.9 0-.5.1-1.1.3-1.6h4.5c1 0 2 .1 3 .4 0 .4.1.8.1 1.2z" fill="#6f4a38"/><path d="m82.5 91.7h3c1 0 2 .1 3 .4.3.1.7.2 1 .3.4-.6.7-1.4.7-2.2 0-.4-.1-.8-.2-1.1-.9-.3-1.9-.4-3-.4h-4.5c-.2.5-.3 1-.3 1.6 0 .5.1 1 .3 1.4z" fill="#825c4d"/><g fill="#6f4a38"><path d="m84 106.2c0 1.7-1.1 3.2-2.6 3.7-.8 0-1.6.1-2.4.1-1.6-.5-2.8-2-2.8-3.8 0-2.2 1.8-3.9 3.9-3.9 2.1-.1 3.9 1.7 3.9 3.9z"/><circle cx="63" cy="96.3" r="3.9"/><circle cx="90.9" cy="99.7" r="3.9"/></g><path d="m95.9 116.3c2-1.2 3.3-3.4 3.3-5.9 0 0 0-11.198 0-11.298-.1-6.6-5.6-11.902-12.2-11.902h-17.3c-3.1 0-5.6-2.5-5.6-5.6v-11.8c0-.4-.2-.9-.5-1.1-.3-.3-.7-.4-1.1-.4l-13.9 1c-.8 0-1.5.7-1.5 1.5v34 10.5c0 3.4 2.4 6.2 5.7 6.9.583.112 2.819.468 4.986-.876 1.279-.793 1.981-1.837 2.314-2.424.358.57 1.173 1.692 2.645 2.48 2.189 1.171 4.285.775 4.845.66.665-.136 2.438-.526 3.86-2.14 1.607-1.823 1.655-3.946 1.65-4.5v-.4-3.6c2.8.2 8.5.3 12-.3.041.236.792 4.146 4.495 5.63 3.143 1.26 5.932-.223 6.305-.43zm-7.8-6.3c1.3-.5 3.1-1.3 4-2.1.6-.5.7-1.5.2-2.1s-1.5-.7-2.1-.2-4.2 1.9-4.3 1.9c-2.4.9-9.1.8-12.7.6v-3.6c0-.8-.7-1.5-1.5-1.5s-1.5.7-1.5 1.5v5 5.2c-.008 1.946-1.21 3.609-2.865 4.085-1.976.568-3.633-.834-3.722-.913-.736-.643-1.097-1.526-1.213-1.872-.1-.3-.1-.7-.1-1.1v-10.5c0-.8-.7-1.5-1.5-1.5-.2 0-.8 0-1 0-.8 0-1.5.7-1.5 1.5v10.5c.011.18.093 2.004-1.375 3.195-1.088.883-2.605 1.076-3.925.505-1.6-.6-2.8-2.2-2.8-4v-10.2-32.3l11-.8v10.3c0 4.8 3.9 8.6 8.6 8.6h17.2c5 0 9.1 4.1 9.1 9.1v10.7c0 1.5-.7 2.9-1.9 3.6-1.334.708-2.944.651-4.2-.155-1.829-1.173-1.898-3.282-1.9-3.445z"/><path d="m40.9 37.3c-.2-2.4-1.5-4.6-4-6.3-5.1-3.4-15.2-.6-16.4 1.1-1.1 1.7.2 12.2 5.3 15.5 1.5 1 3.1 1.5 4.5 1.6 1.5.1 3-.3 4.3-1" fill="#ffe581"/><path d="m36.8 39.7c-3-5.3-13.4-7.3-15.2-6.3-.4.3-1 1.1-1.5 2.2-.2-1.7 0-3.1.3-3.6 1.1-1.7 11.3-4.5 16.4-1.1 2.6 1.7 3.8 3.9 4 6.3l-1.5 2.5c-.5 1.1-1.9 1.1-2.5 0z" fill="#fff5ae"/><path d="m30.8 50.8c-.2 0-.4 0-.6 0-1.8-.1-3.6-.7-5.3-1.9-3.4-2.2-4.9-6.8-5.6-9.3-.6-2.3-1.3-6.6-.1-8.3 1.8-2.7 12.9-5.2 18.4-1.5 2.8 1.9 4.4 4.4 4.7 7.4.1.8-.5 1.6-1.4 1.6-.8.1-1.6-.5-1.6-1.4-.2-2.1-1.3-3.8-3.4-5.2-4.3-2.8-13.1-.4-14.3.7-.6 1.6.6 10.6 4.9 13.4 1.3.8 2.5 1.3 3.8 1.4 1.2.1 2.4-.2 3.5-.8.7-.4 1.6-.1 2 .6s.1 1.6-.6 2c-1.3.9-2.9 1.3-4.4 1.3z"/><path d="m81.6 46.7c0 18-11.9 24-26.5 24s-26.5-5.8-26.5-24c0-13.5 11.9-25 26.5-25s26.5 11.5 26.5 25z" fill="#ffe581"/><path d="m29.7 52.7c0-13 11.4-24 25.4-24s25.4 11 25.4 24c0 1 0 2-.1 3 .8-2.6 1.2-5.5 1.2-8.9 0-13.5-11.9-25-26.5-25s-26.5 11.5-26.5 25c0 3.4.4 6.4 1.2 9 0-1-.1-2-.1-3.1z" fill="#fff5ae"/><path d="m55.1 65.7c-13.8 0-25.2-5.2-26.4-21.2-.1.7-.1 1.4-.1 2.2 0 18.2 11.9 24 26.5 24s26.5-6 26.5-24c0-.7 0-1.5-.1-2.2-1.2 15.9-12.5 21.2-26.4 21.2z" fill="#ffd252"/><circle cx="60.1" cy="50.7" r="3"/><circle cx="36.1" cy="50.7" r="3"/><path d="m70.5 37.3c.2-2.4 1.5-4.6 4-6.3 5.1-3.4 15.2-.6 16.4 1.1 1.1 1.7-.2 12.2-5.3 15.5-1.5 1-3.1 1.5-4.5 1.6-1.5.1-3-.3-4.3-1" fill="#ffe581"/><path d="m74.6 39.7c3-5.3 13.4-7.3 15.2-6.3.4.3 1 1.1 1.5 2.2.2-1.7 0-3.1-.3-3.6-1.1-1.7-11.3-4.5-16.4-1.1-2.6 1.7-3.8 3.9-4 6.3l1.5 2.5c.4 1.1 1.9 1.1 2.5 0-.1.1 0 0 0 0z" fill="#fff5ae"/><path d="m80.6 50.8c-1.6 0-3.1-.4-4.5-1.2-.7-.4-1-1.3-.6-2s1.3-1 2-.6c1.1.6 2.3.9 3.5.8 1.3-.1 2.5-.5 3.8-1.4 4.3-2.8 5.4-11.9 4.9-13.4-1.2-1.2-10-3.6-14.3-.7-2.1 1.4-3.2 3.1-3.4 5.2-.1.8-.8 1.4-1.6 1.4-.8-.1-1.4-.8-1.4-1.6.3-3 1.9-5.6 4.7-7.4 5.5-3.7 16.6-1.2 18.4 1.5s-.2 14-5.7 17.6c-1.7 1.1-3.5 1.8-5.3 1.9-.1-.2-.3-.1-.5-.1z"/><path d="m60.1 31.3v-19c0-1.7 1.3-3 3-3s3 1.3 3 3v19" fill="#ffe581"/><path d="m66.1 32.8c-.8 0-1.5-.7-1.5-1.5v-19c0-.8-.7-1.5-1.5-1.5s-1.5.7-1.5 1.5v19c0 .8-.7 1.5-1.5 1.5s-1.5-.7-1.5-1.5v-19c0-2.5 2-4.5 4.5-4.5s4.5 2 4.5 4.5v19c0 .8-.7 1.5-1.5 1.5z"/><circle cx="63.1" cy="11.3" fill="#6f4a38" r="4"/><path d="m63.1 16.8c-3 0-5.5-2.5-5.5-5.5s2.5-5.5 5.5-5.5 5.5 2.5 5.5 5.5-2.5 5.5-5.5 5.5zm0-8c-1.4 0-2.5 1.1-2.5 2.5s1.1 2.5 2.5 2.5 2.5-1.1 2.5-2.5-1.1-2.5-2.5-2.5z"/><path d="m43.5 31.3v-19c0-1.7 1.3-3 3-3s3 1.3 3 3v19" fill="#ffe581"/><path d="m49.5 32.8c-.8 0-1.5-.7-1.5-1.5v-19c0-.8-.7-1.5-1.5-1.5s-1.5.6-1.5 1.5v19c0 .8-.7 1.5-1.5 1.5s-1.5-.7-1.5-1.5v-19c0-2.5 2-4.5 4.5-4.5s4.5 2 4.5 4.5v19c0 .8-.7 1.5-1.5 1.5z"/><circle cx="46.5" cy="11.3" fill="#6f4a38" r="4"/><path d="m46.5 16.8c-3 0-5.5-2.5-5.5-5.5s2.5-5.5 5.5-5.5 5.5 2.4 5.5 5.5-2.5 5.5-5.5 5.5zm0-8c-1.4 0-2.5 1.1-2.5 2.5s1.1 2.5 2.5 2.5 2.5-1.1 2.5-2.5-1.1-2.5-2.5-2.5z"/><path d="m31.4 59.6c4.4 8.2 13.3 11.1 23.7 11.1 4.3 0 8.4-.5 11.9-1.7-.1-8.5-9-15.3-20-15.3-6.3 0-11.9 2.4-15.6 5.9z" fill="#c97f4e"/><path d="m67.1 69.1c0-1.6-.4-3.2-1-4.7-3.3 1-7 1.4-10.9 1.4-8.9 0-16.7-2.2-21.5-7.9-.8.6-2.2 1.8-2.2 1.8 3.321 4.702 7.057 7.051 9.18 8.16 6.181 3.228 12.157 2.976 16.56 2.79 4.148-.175 7.542-.91 9.86-1.55z" fill="#b86538"/><ellipse cx="48.9" cy="60.5" rx="1.1" ry="1.7"/><ellipse cx="45.1" cy="60.5" rx="1.1" ry="1.7"/><path d="m55.1 72.2c-18.3 0-28-8.8-28-25.5 0-14.6 12.6-26.5 28-26.5s28 11.9 28 26.5c0 16.5-9.9 25.5-28 25.5zm0-49c-13.6 0-25 10.8-25 23.5 0 14.9 8.4 22.5 25 22.5s25-7.6 25-22.5c0-12.7-11.4-23.5-25-23.5z"/></g></svg>