<?xml version="1.0" encoding="iso-8859-1"?>
<!-- Generator: Adobe Illustrator 19.0.0, SVG Export Plug-In . SVG Version: 6.00 Build 0)  -->
<svg xmlns="http://www.w3.org/2000/svg" xmlns:xlink="http://www.w3.org/1999/xlink" version="1.1" id="Layer_1" x="0px" y="0px" viewBox="0 0 512.023 512.023" style="enable-background:new 0 0 512.023 512.023;" xml:space="preserve">
<path style="fill:#AD1457;" d="M280.416,355.411c-6.357,6.349-14.054,11.187-22.528,14.165  c-27.213,9.421-46.182,34.167-48.213,62.891c-1.263,18.313-9.045,35.567-21.931,48.64c-25.6,25.685-66.475,28.843-103.595,11.605  c27.733,6.997,57.122-0.589,77.995-20.139c12.885-13.073,20.668-30.327,21.931-48.64c2.031-28.723,21.001-53.47,48.213-62.891  c8.474-2.978,16.171-7.817,22.528-14.165c19.371-19.371,23.04-49.579,12.032-77.568l13.568-13.568  C304.309,288.681,305.077,330.75,280.416,355.411z"/>
<path style="fill:#E91E63;" d="M254.816,346.878c-6.357,6.349-14.054,11.187-22.528,14.165  c-27.213,9.421-46.182,34.167-48.213,62.891c-1.263,18.313-9.045,35.567-21.931,48.64c-20.873,19.55-50.261,27.136-77.995,20.139  c-14.165-6.622-27.051-15.693-38.059-26.795C2.741,422.569-4.085,359.166,30.901,324.265c13.073-12.885,30.327-20.668,48.64-21.931  c28.723-2.031,53.47-21.001,62.891-48.213c2.978-8.474,7.817-16.171,14.165-22.528c15.949-15.121,38.289-21.495,59.819-17.067  c0.043-0.051,0.119-0.051,0.171,0l0,0c14.336,2.637,27.904,8.474,39.68,17.067l-23.125,23.125l-6.059,6.059l24.149,24.149  l15.616-15.616C277.856,297.299,274.187,327.507,254.816,346.878z"/>
<path d="M130.767,511.998c-32.188,0-65.246-14.592-90.701-40.047c-25.481-25.472-40.073-58.556-40.055-90.769  c0.017-24.619,8.849-46.976,24.866-62.959c14.558-14.345,33.749-22.997,54.076-24.405c25.344-1.783,47.104-18.458,55.415-42.487  c3.388-9.651,8.986-18.551,16.188-25.762c27.273-27.273,73.83-27.639,110.72-0.879c2.022,1.468,3.294,3.746,3.499,6.238  c0.196,2.492-0.708,4.941-2.475,6.707l-23.151,23.151l12.083,12.083l23.151-23.142c1.766-1.775,4.215-2.662,6.707-2.475  c2.492,0.196,4.77,1.476,6.229,3.499c26.752,36.881,26.385,83.447-0.879,110.72c-7.236,7.219-16.128,12.8-25.737,16.179  c-24.055,8.337-40.738,30.089-42.522,55.441c-1.408,20.318-10.061,39.518-24.363,54.033c-16.017,16.06-38.374,24.883-62.993,24.9  C130.81,511.998,130.793,511.998,130.767,511.998z M202.985,221.899c-15.479,0-29.858,5.231-40.354,15.727  c-5.41,5.419-9.609,12.092-12.143,19.319c-10.539,30.455-38.153,51.627-70.34,53.888c-16.273,1.135-31.633,8.055-43.255,19.499  c-12.937,12.919-19.806,30.515-19.814,50.859c-0.017,27.716,12.757,56.397,35.046,78.694c22.281,22.272,50.944,35.046,78.643,35.046  c0.017,0,0.034,0,0.06,0c20.343-0.009,37.939-6.878,50.884-19.849c11.409-11.58,18.33-26.931,19.456-43.204  c2.27-32.179,23.441-59.802,53.931-70.366c7.185-2.517,13.867-6.716,19.294-12.134c19.328-19.328,20.804-51.823,4.599-80.145  l-21.726,21.726c-3.337,3.337-8.73,3.337-12.066,0l-24.149-24.141c-1.604-1.604-2.5-3.772-2.5-6.042c0-2.27,0.896-4.437,2.5-6.033  l21.726-21.726C229.839,225.611,216.015,221.899,202.985,221.899z"/>
<polygon style="fill:#FDD834;" points="227.083,260.777 251.232,284.926 257.291,278.867 280.416,255.742 425.056,111.102   400.907,86.953 256.267,231.593 233.141,254.718 "/>
<path d="M251.232,293.459c-2.185,0-4.369-0.836-6.033-2.5l-24.149-24.141c-1.604-1.604-2.5-3.772-2.5-6.042s0.896-4.437,2.5-6.033  L394.882,80.919c1.604-1.604,3.763-2.5,6.033-2.5l0,0c2.27,0,4.437,0.896,6.033,2.5l24.141,24.149c3.337,3.337,3.337,8.73,0,12.066  L257.265,290.959C255.601,292.623,253.417,293.459,251.232,293.459z M239.149,260.777l12.083,12.083L412.99,111.102l-12.075-12.083  L239.149,260.777z"/>
<path style="fill:#AD1457;" d="M487.52,70.057l-49.92,41.643c-3.388,3.072-8.559,3.072-11.947,0l-8.789-8.704l-16.555-16.555  c-3.072-3.422-3.072-8.61,0-12.032l40.875-48.981l0.768-0.939c6.084-8.03,17.527-9.6,25.557-3.516  c0.367,0.273,0.725,0.563,1.067,0.87l21.589,21.589c6.673,7.552,5.965,19.081-1.579,25.754  C488.237,69.485,487.887,69.783,487.52,70.057z"/>
<path style="fill:#E91E63;" d="M456.544,69.971l-39.68,33.024l-16.555-16.555c-3.072-3.422-3.072-8.61,0-12.032l40.875-48.981  l17.92,17.92c6.699,7.526,6.025,19.055-1.502,25.754C457.261,69.408,456.902,69.698,456.544,69.971z"/>
<path d="M431.712,122.613c-4.224,0-8.482-1.545-11.87-4.642l-25.549-25.54c-0.094-0.085-0.179-0.179-0.256-0.265  c-6.127-6.682-6.144-16.785-0.051-23.484l41.395-49.69c0.205-0.282,0.657-0.819,1.118-1.331c4.77-5.342,11.307-8.499,18.432-8.9  c7.066-0.418,13.978,1.988,19.302,6.741l21.948,21.939c0.811,0.887,1.254,1.425,1.681,1.98c4.335,5.726,6.17,12.757,5.18,19.823  c-0.973,7.066-4.651,13.329-10.342,17.63l-49.638,41.387C439.878,121.154,435.817,122.613,431.712,122.613z M406.368,80.365  l25.276,25.276l50.441-42.129c2.372-1.809,3.703-4.07,4.062-6.622c0.35-2.551-0.307-5.086-1.869-7.142l-0.521-0.631l-21.248-21.231  c-1.579-1.382-4.002-2.278-6.622-2.108c-2.569,0.145-4.924,1.28-6.639,3.2L406.368,80.365z"/>
<circle style="fill:#37474F;" cx="184.86" cy="327.166" r="34.133"/>
<path d="M184.86,369.824c-11.392,0-22.11-4.446-30.165-12.501c-16.64-16.631-16.64-43.708,0-60.339l0,0  c16.64-16.623,43.708-16.631,60.339,0c16.631,16.631,16.631,43.708,0,60.339C206.97,365.378,196.26,369.824,184.86,369.824z   M166.761,309.05c-9.984,9.984-9.984,26.223,0,36.207c9.677,9.668,26.53,9.668,36.207,0c9.975-9.984,9.975-26.223,0-36.207  C192.966,299.057,176.727,299.066,166.761,309.05L166.761,309.05z"/>
<path style="fill:#FDD834;" d="M106.413,429.728l-24.132-24.132c-6.665-6.665-6.665-17.468,0-24.132l0,0l12.066-12.066l0,0  l48.273,48.273l0,0l-12.066,12.066C123.889,436.393,113.077,436.393,106.413,429.728z"/>
<path d="M118.479,443.245c-6.554,0-13.107-2.492-18.099-7.484l-24.132-24.132c-9.984-9.984-9.984-26.223,0-36.207l12.066-12.066  c3.2-3.2,8.866-3.2,12.066,0l48.273,48.273c3.337,3.337,3.337,8.73,0,12.066l-12.066,12.066  C131.595,440.753,125.041,443.245,118.479,443.245z M94.347,381.455l-6.033,6.033c-3.328,3.337-3.328,8.738,0,12.075l24.132,24.132  c3.328,3.345,8.747,3.328,12.075,0l6.033-6.033L94.347,381.455z"/>
<path d="M503.477,77.404c-2.185,0-4.369-0.836-6.033-2.5l-6.033-6.042c-3.337-3.337-3.337-8.738,0-12.075  c3.337-3.328,8.73-3.328,12.066,0l6.033,6.042c3.337,3.337,3.337,8.738,0,12.075C507.846,76.576,505.662,77.404,503.477,77.404z"/>
<path d="M479.345,101.536c-2.185,0-4.369-0.836-6.033-2.5l-6.033-6.033c-3.337-3.337-3.337-8.73,0-12.066s8.73-3.337,12.066,0  l6.033,6.033c3.337,3.337,3.337,8.73,0,12.066C483.714,100.708,481.53,101.536,479.345,101.536z"/>
<path d="M455.213,125.677c-2.185,0-4.369-0.836-6.033-2.5l-6.033-6.033c-3.337-3.337-3.337-8.73,0-12.066s8.73-3.337,12.066,0  l6.033,6.033c3.337,3.337,3.337,8.73,0,12.066C459.573,124.841,457.397,125.677,455.213,125.677z"/>
<path d="M449.18,23.098c-2.185,0-4.369-0.836-6.033-2.492l-6.042-6.033c-3.337-3.328-3.337-8.73-0.009-12.066  c3.337-3.345,8.738-3.337,12.075-0.009l6.042,6.033c3.337,3.328,3.337,8.73,0.009,12.066  C453.549,22.261,451.364,23.098,449.18,23.098z"/>
<path d="M425.039,47.238c-2.185,0-4.369-0.836-6.033-2.5l-6.033-6.033c-3.337-3.337-3.337-8.73,0-12.066  c3.337-3.337,8.73-3.337,12.066,0l6.033,6.033c3.337,3.337,3.337,8.73,0,12.066C429.4,46.402,427.215,47.238,425.039,47.238z"/>
<path d="M400.898,71.371c-2.185,0-4.369-0.836-6.033-2.5l-6.033-6.033c-3.337-3.337-3.337-8.73,0-12.066  c3.337-3.337,8.73-3.337,12.066,0l6.033,6.033c3.337,3.337,3.337,8.73,0,12.066C405.267,70.534,403.083,71.371,400.898,71.371z"/>
<g>
</g>
<g>
</g>
<g>
</g>
<g>
</g>
<g>
</g>
<g>
</g>
<g>
</g>
<g>
</g>
<g>
</g>
<g>
</g>
<g>
</g>
<g>
</g>
<g>
</g>
<g>
</g>
<g>
</g>
</svg>
