<svg height="512" viewBox="0 0 48 48" width="512" xmlns="http://www.w3.org/2000/svg"><g id="highlighter"><path d="m45.07 17.24-21 23.63a2.11 2.11 0 0 1 -3.07.13l-13.21-13.25a2.1 2.1 0 0 1 -.36-2.5c.25-.46-1.23.93 24.08-21.57a2.1 2.1 0 0 1 2.88.08l10.61 10.59a2.12 2.12 0 0 1 .07 2.89z" fill="#6fabe6"/><path d="m45.34 14.85c-.15.29.95-1-17.13 19.34a8 8 0 0 1 -11.63.35c-9.58-9.54-8.99-8.93-9.15-9.29.25-.46-1.23.93 24.08-21.57a2.1 2.1 0 0 1 2.88.08c11.44 11.44 10.79 10.73 10.95 11.09z" fill="#82bcf4"/><path d="m46.38 12.78-1.48 1.48-10.42-10.41 1.52-1.49a2.1 2.1 0 0 1 3 0c8.11 8.11 7.61 7.56 7.8 7.93a2.09 2.09 0 0 1 -.42 2.49z" fill="#374f68"/><path d="m46.74 10.29a2.09 2.09 0 0 1 -3.32.49l-7.94-7.93.52-.49a2.1 2.1 0 0 1 3 0c8.05 8.11 7.55 7.56 7.74 7.93z" fill="#425b72"/><path d="m21.09 41.05-1.49 1.49a2.11 2.11 0 0 1 -3 0l-10.39-10.42a2.1 2.1 0 0 1 -.35-2.49c.2-.4.29-.43 1.84-2z" fill="#374f68"/><path d="m20.07 40a3 3 0 0 1 -4.07-.1l-9.79-9.78c-.6-.6-.47-.51 1.49-2.46z" fill="#425b72"/><path d="m15.88 41.79-6.7 2.21-4.46-4.44 2.28-6.7z" fill="#374f68"/><path d="m14.38 40.29a8.89 8.89 0 0 1 -9.08-2.15c-.12-.14-.3.48 1.7-5.28z" fill="#425b72"/><path d="m9.18 44-2.18 2.26-6-2.98 3.72-3.72z" fill="#6fabe6"/><path d="m8.18 43c-1.56 1.6-3.18.29-5.85-1l2.39-2.39z" fill="#82bcf4"/><path d="m36.15 15.75c0 1.77.15 1.14-12.83 14.14a3.16 3.16 0 0 1 -5.23-3.23c.33-1-.2-.27 12.67-13.14a3.16 3.16 0 0 1 5.39 2.23z" fill="#374f68"/><path d="m36 14.75c-.33 1 .14.32-12.67 13.14a3.17 3.17 0 0 1 -5.23-1.23c.33-1-.2-.27 12.67-13.14a3.17 3.17 0 0 1 5.23 1.23z" fill="#425b72"/><path d="m47.09 9.09-7.44-7.44a3.18 3.18 0 0 0 -4.39 0l-.88.88a3.11 3.11 0 0 0 -3.54.4l-23.63 21a3.09 3.09 0 0 0 -.77 3.56l-.94.94a3.11 3.11 0 0 0 0 4.39c.43.43.59-.56-1.65 6.19l-3.56 3.56a1 1 0 0 0 .26 1.6c6.45 3.23 6.06 3.09 6.45 3.09.59 0 .71-.3 2.77-2.36 6.74-2.25 5.77-2.09 6.2-1.66a3.11 3.11 0 0 0 4.39 0c1.57-1.57.39-.67 2.18-.67a3.12 3.12 0 0 0 2.32-1l21-23.63a3.09 3.09 0 0 0 .4-3.54l.88-.88a3.11 3.11 0 0 0 -.05-4.43zm-10.42-6a1.14 1.14 0 0 1 1.57 0l7.44 7.44a1.1 1.1 0 0 1 0 1.56l-.78.78-9-9zm-29.92 41.91-4.06-2 2-2 3.08 3zm2.7-2.16-3.59-3.55 1.53-4.57 6.61 6.63zm7.88-1.05-10.41-10.38a1.09 1.09 0 0 1 0-1.56l.78-.78 12 12-.78.78a1.1 1.1 0 0 1 -1.59-.02zm27-25.26c-22.69 25.52-21.08 24-21.8 24s.45.94-14-13.53a1.1 1.1 0 0 1 0-1.61l23.63-21a1.11 1.11 0 0 1 1.52 0l10.51 10.61a1.12 1.12 0 0 1 .13 1.57z"/><path d="m30.05 12.81-11.9 11.91a4.16 4.16 0 0 0 5.85 5.88l11.9-11.91a4.16 4.16 0 1 0 -5.88-5.88zm4.47 4.47-11.91 11.9a2.16 2.16 0 0 1 -3.05-3.05c12.71-12.7 12.16-12.53 13.44-12.53a2.16 2.16 0 0 1 1.52 3.68z"/></g></svg>