<?xml version="1.0" encoding="iso-8859-1"?>
<!-- Generator: Adobe Illustrator 21.0.0, SVG Export Plug-In . SVG Version: 6.00 Build 0)  -->
<svg version="1.1" id="Capa_1" xmlns="http://www.w3.org/2000/svg" xmlns:xlink="http://www.w3.org/1999/xlink" x="0px" y="0px"
	 viewBox="0 0 593.327 593.327" style="enable-background:new 0 0 593.327 593.327;" xml:space="preserve">
<g>
	<g>
		<g id="filled_outline_17_">
			<path style="fill:#ED5B1C;" d="M361.793,454.895H231.568l-93.936-166.969C82.387,200.09,108.798,84.113,196.633,28.869
				S400.445,0.035,455.69,87.871c38.672,61.474,38.445,139.728-0.583,200.984l-1.513,2.798L361.793,454.895z"/>
			<path style="fill:#E0561A;" d="M439.068,65.672c-18.916,101.402-75.436,255.665-238.816,333.494l31.315,55.729h130.225
				l91.82-163.251l1.513-2.798C499.672,219.075,493.146,128.343,439.068,65.672z"/>
			<polygon style="fill:#754C30;" points="346.12,583.439 247.24,583.439 237.352,504.335 356.008,504.335 			"/>
			<path d="M139.747,291.643l88.528,157.378l15.139,45.426h-6.061c-5.458,0-9.888,4.43-9.888,9.888c0,0.405,0.03,0.821,0.079,1.226
				l9.888,79.104c0.623,4.944,4.825,8.662,9.809,8.662h98.88c4.984,0,9.186-3.718,9.809-8.662l9.888-79.104
				c0.672-5.419-3.164-10.363-8.583-11.035c-0.405-0.049-0.811-0.079-1.226-0.079h-6.061l15.139-45.426l88.528-157.378
				c0.277-0.485,0.504-0.989,0.682-1.513c56.461-87.054,31.652-203.397-55.403-259.848S195.496-1.369,139.045,85.686
				c-40.333,62.186-40.333,142.269,0,204.455C139.233,290.655,139.461,291.159,139.747,291.643z M243.137,435.119l-33.372-59.328
				h24.809c7.732,19.361,14.298,39.176,19.657,59.328H243.137z M247.962,356.014c-1.226-3.055-2.442-6.15-3.668-9.176
				c-18.807-46.563-36.605-90.535-36.605-149.032c-0.267-33.867,6.091-67.456,18.718-98.88h60.386v257.089H247.962z
				 M286.792,375.791v59.328H274.66c-5.063-20.152-11.391-39.967-18.955-59.328H286.792z M267.016,573.551h-11.045l-2.472-19.776
				h13.517V573.551z M267.016,533.999h-15.989l-2.472-19.776h18.461V533.999z M306.568,573.551h-19.776v-19.776h19.776V573.551z
				 M306.568,533.999h-19.776v-19.776h19.776V533.999z M337.389,573.551h-11.045v-19.776h13.517L337.389,573.551z M342.333,533.999
				h-15.989v-19.776h18.461L342.333,533.999z M350.244,435.119H339.13c5.359-20.152,11.925-39.967,19.657-59.328h24.809
				L350.244,435.119z M439.068,98.926c35.251,55.966,34.232,127.437-2.591,182.375c-0.573,0.85-0.999,1.8-1.256,2.798
				l-40.501,71.916h-28.023c0.237-0.583,0.475-1.177,0.702-1.76c18.708-46.266,38.049-94.104,38.049-156.448
				c0.247-33.708-5.518-67.189-17.017-98.88C388.431,98.926,439.068,98.926,439.068,98.926z M424.651,79.15h-44.328
				c-8.494-18.352-19.282-35.547-32.106-51.171c29.714,9.641,56.164,27.36,76.395,51.171H424.651z M306.568,20.326
				c2.452,0.138,4.944,0.129,7.376,0.386C332,37.402,346.921,57.188,357.986,79.15h-51.418
				C306.568,79.15,306.568,20.326,306.568,20.326z M306.568,98.926h60.495c12.568,31.434,18.886,65.024,18.609,98.88
				c0,58.498-17.798,102.47-36.586,149.032c-1.226,3.026-2.442,6.121-3.668,9.176h-38.85
				C306.568,356.014,306.568,98.926,306.568,98.926z M306.568,375.791h31.088c-7.564,19.361-13.893,39.176-18.955,59.328h-12.133
				V375.791z M342.294,454.895l-13.181,39.552h-64.866l-13.181-39.552H342.294z M279.445,20.701
				c2.423-0.247,4.944-0.237,7.347-0.376V79.15h-51.25C246.607,57.218,261.469,37.432,279.445,20.701z M245.144,27.979
				c-12.825,15.623-23.613,32.818-32.106,51.171h-44.288C188.98,55.339,215.43,37.62,245.144,27.979z M154.293,98.926h50.597
				c-11.49,31.691-17.235,65.172-16.978,98.88c0,62.344,19.341,110.182,38.049,156.448c0.227,0.583,0.465,1.177,0.702,1.76H198.64
				l-40.393-71.797c-0.277-1.058-0.722-2.057-1.335-2.966C120.1,226.323,119.071,154.882,154.293,98.926z"/>
		</g>
	</g>
</g>
<g>
</g>
<g>
</g>
<g>
</g>
<g>
</g>
<g>
</g>
<g>
</g>
<g>
</g>
<g>
</g>
<g>
</g>
<g>
</g>
<g>
</g>
<g>
</g>
<g>
</g>
<g>
</g>
<g>
</g>
</svg>
