<svg id="Filled" height="512" viewBox="0 0 512 512" width="512" xmlns="http://www.w3.org/2000/svg"><path d="m32 144h448v344h-448z" fill="#e8edf1"/><path d="m488 144s-8 24-32 24-40-24-40-24-16 24-40 24-40-24-40-24-16 24-40 24-40-24-40-24-16 24-40 24-40-24-40-24-16 24-40 24-40-24-40-24-16 24-40 24-32-24-32-24l40-120h384z" fill="#3a98e4"/><path d="m285.9 88.08-29.9 23.92-29.9-23.92a16 16 0 0 1 -4.315-19.649 20.164 20.164 0 0 1 29.221-7.76l4.994 3.329 4.994-3.329a20.164 20.164 0 0 1 29.221 7.76 16 16 0 0 1 -4.315 19.649z" fill="#e0e2e5"/><path d="m80 200h64v96h-64z" fill="#2e79b5"/><path d="m80 200h64v48h-64z" fill="#3a98e4"/><path d="m80 344h64v96h-64z" fill="#2e79b5"/><path d="m80 344h64v48h-64z" fill="#3a98e4"/><path d="m80 200h64v96h-64z" fill="#2e79b5"/><path d="m80 200h64v48h-64z" fill="#3a98e4"/><path d="m80 344h64v96h-64z" fill="#2e79b5"/><path d="m80 344h64v48h-64z" fill="#3a98e4"/><path d="m192 456h128a16 16 0 0 1 16 16v16a0 0 0 0 1 0 0h-160a0 0 0 0 1 0 0v-16a16 16 0 0 1 16-16z" fill="#cfd1d3"/><path d="m192 264h128a16 16 0 0 1 16 16v16a0 0 0 0 1 0 0h-160a0 0 0 0 1 0 0v-16a16 16 0 0 1 16-16z" fill="#2e79b5"/><path d="m248 328h16a48 48 0 0 1 48 48v80a0 0 0 0 1 0 0h-112a0 0 0 0 1 0 0v-80a48 48 0 0 1 48-48z" fill="#d9dbdd"/><circle cx="232" cy="400" fill="#3a98e4" r="8"/><path d="m368 200h64v96h-64z" fill="#2e79b5"/><path d="m368 200h64v48h-64z" fill="#3a98e4"/><path d="m368 344h64v96h-64z" fill="#2e79b5"/><path d="m368 344h64v48h-64z" fill="#3a98e4"/><path d="m192 264s0-64 64-64 64 64 64 64z" fill="#3a98e4"/><path d="m24 160.094v327.906a8 8 0 0 0 8 8h448a8 8 0 0 0 8-8v-327.906a49.6 49.6 0 0 0 7.589-13.564 7.992 7.992 0 0 0 0-5.06l-40-120a8 8 0 0 0 -7.589-5.47h-384a8 8 0 0 0 -7.589 5.47l-40 120a7.992 7.992 0 0 0 0 5.06 49.6 49.6 0 0 0 7.589 13.564zm160 319.906v-8a8.009 8.009 0 0 1 8-8h128a8.009 8.009 0 0 1 8 8v8zm120-32h-96v-72a40.045 40.045 0 0 1 40-40h16a40.045 40.045 0 0 1 40 40zm40 32v-8a24.028 24.028 0 0 0 -24-24v-72a56.064 56.064 0 0 0 -56-56h-16a56.064 56.064 0 0 0 -56 56v72a24.028 24.028 0 0 0 -24 24v8h-128v-307.228a39.614 39.614 0 0 0 16 3.228c18.286 0 32.289-11.308 40-19.448 7.711 8.14 21.714 19.448 40 19.448s32.289-11.308 40-19.448c7.711 8.14 21.714 19.448 40 19.448s32.289-11.308 40-19.448c7.711 8.14 21.714 19.448 40 19.448s32.289-11.308 40-19.448c7.711 8.14 21.714 19.448 40 19.448s32.289-11.308 40-19.448c7.711 8.14 21.714 19.448 40 19.448a39.614 39.614 0 0 0 16-3.228v307.228zm-274.234-448h372.468l37.234 111.7c-2.34 4.931-9.278 16.3-23.468 16.3-19.322 0-33.218-20.252-33.344-20.438a8 8 0 0 0 -13.312 0c-.136.205-14.162 20.438-33.344 20.438-19.322 0-33.218-20.252-33.344-20.438a8 8 0 0 0 -13.312 0c-.136.205-14.162 20.438-33.344 20.438-19.322 0-33.218-20.252-33.344-20.438a8 8 0 0 0 -13.312 0c-.136.205-14.162 20.438-33.344 20.438-19.322 0-33.218-20.252-33.344-20.438a8 8 0 0 0 -13.312 0c-.136.205-14.162 20.438-33.344 20.438-19.322 0-33.218-20.252-33.344-20.438a8 8 0 0 0 -13.312 0c-.136.205-14.162 20.438-33.344 20.438-14.2 0-21.125-11.351-23.469-16.295z"/><path d="m144 192h-64a8 8 0 0 0 -8 8v96a8 8 0 0 0 8 8h64a8 8 0 0 0 8-8v-96a8 8 0 0 0 -8-8zm-8 16v32h-48v-32zm-48 80v-32h48v32z"/><path d="m144 336h-64a8 8 0 0 0 -8 8v96a8 8 0 0 0 8 8h64a8 8 0 0 0 8-8v-96a8 8 0 0 0 -8-8zm-8 16v32h-48v-32zm-48 80v-32h48v32z"/><path d="m432 192h-64a8 8 0 0 0 -8 8v96a8 8 0 0 0 8 8h64a8 8 0 0 0 8-8v-96a8 8 0 0 0 -8-8zm-8 16v32h-48v-32zm-48 80v-32h48v32z"/><path d="m432 336h-64a8 8 0 0 0 -8 8v96a8 8 0 0 0 8 8h64a8 8 0 0 0 8-8v-96a8 8 0 0 0 -8-8zm-8 16v32h-48v-32zm-48 80v-32h48v32z"/><path d="m327.527 257.216a88.179 88.179 0 0 0 -8.372-28.794c-8.307-16.615-26.008-36.422-63.155-36.422s-54.848 19.807-63.155 36.422a88.179 88.179 0 0 0 -8.372 28.794 24.038 24.038 0 0 0 -16.473 22.784v16a8 8 0 0 0 8 8h160a8 8 0 0 0 8-8v-16a24.038 24.038 0 0 0 -16.473-22.784zm-117.022-27.4 26.182 26.184h-35.9a70.756 70.756 0 0 1 6.595-20.877 54.913 54.913 0 0 1 3.123-5.305zm53.495-21.416q15.743 1.6 26.564 9.721l-26.564 26.566zm-16 36.286-26.564-26.565q10.8-8.091 26.564-9.721zm53.5-14.869a54.913 54.913 0 0 1 3.12 5.3 70.762 70.762 0 0 1 6.59 20.883h-35.9zm26.5 58.183h-144v-8a8.009 8.009 0 0 1 8-8h128a8.009 8.009 0 0 1 8 8z"/><circle cx="232" cy="400" r="8"/><path d="m256 120a7.984 7.984 0 0 1 -5-1.753l-28.363-22.692a26.43 26.43 0 0 1 31.172-42.63l2.191 1.46 2.191-1.461a26.43 26.43 0 0 1 31.172 42.63l-28.363 22.693a7.984 7.984 0 0 1 -5 1.753zm-16.812-55.524a10.578 10.578 0 0 0 -2.717.359 10.3 10.3 0 0 0 -6.653 5.416 10.487 10.487 0 0 0 2.814 12.81l23.368 18.694 23.368-18.694a10.486 10.486 0 0 0 2.813-12.811 10.431 10.431 0 0 0 -15.114-4.013l-6.629 4.42a8 8 0 0 1 -8.876 0l-6.628-4.419a10.3 10.3 0 0 0 -5.746-1.762z"/></svg>