<svg id="svg4938" height="512" viewBox="0 0 16.933333 16.933334" width="512" xmlns="http://www.w3.org/2000/svg" xmlns:svg="http://www.w3.org/2000/svg"><g id="layer1" transform="translate(0 -280.067)"><path id="path6024" d="m4.1008843 284.98266c.00169.32486.04129.64866.115235.96485.02772.12004.1346118.20507.2578119.20508h1.212891v1.69531c0 .58106.4755809 1.05664 1.05664 1.05664.5810581 0 1.0566414-.47558 1.0566414-1.05664v-.63477c0-.29705.232242-.52929.529297-.52929.297056 0 .527344.23224.527344.52929v1.65625c0 .5203.426968.94727.947265.94727.5202994 0 .9395454-.42869.9414064-.94531.000002-.00067.000002-.001 0-.002l-.002-2.7168h1.667969c.1232-.00001.230096-.085.257813-.20508.07348-.31628.111957-.64013.113281-.96484 0-2.39401-1.945833-4.3418-4.3398204-4.3418-2.3939873 0-4.3417742 1.94779-4.3417742 4.3418z" font-variant-ligatures="normal" font-variant-position="normal" font-variant-caps="normal" font-variant-numeric="normal" font-variant-alternates="normal" font-feature-settings="normal" text-indent="0" text-align="start" text-decoration-line="none" text-decoration-style="solid" text-decoration-color="#000000" text-transform="none" text-orientation="mixed" white-space="normal" shape-padding="0" isolation="auto" mix-blend-mode="normal" solid-color="#000000" solid-opacity="1" vector-effect="none"/><path id="path4348" d="m12.253229 284.98266c-.000979.21552-.0389.42861-.07617.64063h-1.697265c-.146171-.00056-.265109.1175-.265626.26367l.002 2.98242c-.000874.23996-.175817.41797-.4121114.41797-.23629 0-.417968-.18168-.417968-.41797v-1.65625c0-.58106-.475581-1.05859-1.05664-1.05859-.5810607 0-1.0585944.47753-1.0585944 1.05859v.63477c0 .29705-.2302913.52734-.5273443.52734-.2970559 0-.5273429-.23029-.5273429-.52734v-1.96094c-.0005291-.14619-.119484-.26426-.2656729-.26367h-1.2441302c-.03789-.21312-.07503-.42595-.07617-.64258.00111-2.1071 1.705138-3.81055 3.8124987-3.81055 2.1080284 0 3.8105474 1.70448 3.8105474 3.8125z" fill="#ff75a0" font-variant-ligatures="normal" font-variant-position="normal" font-variant-caps="normal" font-variant-numeric="normal" font-variant-alternates="normal" font-feature-settings="normal" text-indent="0" text-align="start" text-decoration-line="none" text-decoration-style="solid" text-decoration-color="#000000" text-transform="none" text-orientation="mixed" white-space="normal" shape-padding="0" isolation="auto" mix-blend-mode="normal" solid-color="#000000" solid-opacity="1" vector-effect="none"/><path id="path6028" d="m3.7004943 285.99048 4.4980473 10.58398c.0917.21368.39463.21368.486328 0l4.4980464-10.58398c.07338-.17449-.05485-.36735-.24414-.36719h-.527344-1.93164c-.145408.0005-.263158.11826-.263672.26367v2.98438c-.0016.23903-.176285.41601-.4121104.41601-.236384 0-.417968-.18158-.417968-.41797v-1.65625c0-.58113-.47571-1.05664-1.056641-1.05664-.5809313 0-1.0585944.4755-1.0585944 1.05664v.63477c0 .29718-.2303709.52734-.527344.52734-.296975 0-.5273429-.23037-.5273429-.52734v-1.96094c-.0005292-.14617-.1194551-.26423-.265625-.26367h-1.4765631-.542969c-.1921409 0-.3005791.203-.2304679.36719z" font-variant-ligatures="normal" font-variant-position="normal" font-variant-caps="normal" font-variant-numeric="normal" font-variant-alternates="normal" font-feature-settings="normal" text-indent="0" text-align="start" text-decoration-line="none" text-decoration-style="solid" text-decoration-color="#000000" text-transform="none" text-orientation="mixed" white-space="normal" shape-padding="0" isolation="auto" mix-blend-mode="normal" solid-color="#000000" solid-opacity="1" vector-effect="none"/><path id="path4366" d="m10.745416 286.15259h1.794922l-4.0996104 9.64257-4.0976554-9.64257h1.34375v1.69531c0 .58113.475502 1.05664 1.05664 1.05664.5811369 0 1.0566414-.47571 1.0566414-1.05664v-.63477c0-.29697.232112-.52734.529297-.52734s.527344.23037.527344.52734v1.65625c0 .52021.42706.94727.947265.94727.5202084 0 .9396314-.42862.9414064-.94629z" fill="#b67162" font-variant-ligatures="normal" font-variant-position="normal" font-variant-caps="normal" font-variant-numeric="normal" font-variant-alternates="normal" font-feature-settings="normal" text-indent="0" text-align="start" text-decoration-line="none" text-decoration-style="solid" text-decoration-color="#000000" text-transform="none" text-orientation="mixed" white-space="normal" shape-padding="0" isolation="auto" mix-blend-mode="normal" solid-color="#000000" solid-opacity="1" vector-effect="none"/><path id="path4368" d="m6.0598691 290.38501v.52929h4.7636729v-.52929z" font-variant-ligatures="normal" font-variant-position="normal" font-variant-caps="normal" font-variant-numeric="normal" font-variant-alternates="normal" font-feature-settings="normal" text-indent="0" text-align="start" text-decoration-line="none" text-decoration-style="solid" text-decoration-color="#000000" text-transform="none" text-orientation="mixed" white-space="normal" shape-padding="0" isolation="auto" mix-blend-mode="normal" solid-color="#000000" solid-opacity="1" vector-effect="none"/><path id="path6036" d="m4.7493222 287.47485v.5293h1.146484v-.5293z" font-variant-ligatures="normal" font-variant-position="normal" font-variant-caps="normal" font-variant-numeric="normal" font-variant-alternates="normal" font-feature-settings="normal" text-indent="0" text-align="start" text-decoration-line="none" text-decoration-style="solid" text-decoration-color="#000000" text-transform="none" text-orientation="mixed" white-space="normal" shape-padding="0" isolation="auto" mix-blend-mode="normal" solid-color="#000000" solid-opacity="1" vector-effect="none"/><path id="path6034" d="m7.5579151 287.47485v.5293h1.5332045v-.5293z" font-variant-ligatures="normal" font-variant-position="normal" font-variant-caps="normal" font-variant-numeric="normal" font-variant-alternates="normal" font-feature-settings="normal" text-indent="0" text-align="start" text-decoration-line="none" text-decoration-style="solid" text-decoration-color="#000000" text-transform="none" text-orientation="mixed" white-space="normal" shape-padding="0" isolation="auto" mix-blend-mode="normal" solid-color="#000000" solid-opacity="1" vector-effect="none"/><path id="path4370" d="m10.52862 287.47485v.5293h1.546875v-.5293z" font-variant-ligatures="normal" font-variant-position="normal" font-variant-caps="normal" font-variant-numeric="normal" font-variant-alternates="normal" font-feature-settings="normal" text-indent="0" text-align="start" text-decoration-line="none" text-decoration-style="solid" text-decoration-color="#000000" text-transform="none" text-orientation="mixed" white-space="normal" shape-padding="0" isolation="auto" mix-blend-mode="normal" solid-color="#000000" solid-opacity="1" vector-effect="none"/><path id="path4372" d="m7.1184622 293.29516v.5293h2.6464854v-.5293z" font-variant-ligatures="normal" font-variant-position="normal" font-variant-caps="normal" font-variant-numeric="normal" font-variant-alternates="normal" font-feature-settings="normal" text-indent="0" text-align="start" text-decoration-line="none" text-decoration-style="solid" text-decoration-color="#000000" text-transform="none" text-orientation="mixed" white-space="normal" shape-padding="0" isolation="auto" mix-blend-mode="normal" solid-color="#000000" solid-opacity="1" vector-effect="none"/></g></svg>