<svg id="svg4938" height="512" viewBox="0 0 16.933333 16.933334" width="512" xmlns="http://www.w3.org/2000/svg" xmlns:svg="http://www.w3.org/2000/svg"><g id="layer1" transform="translate(0 -280.067)"><path id="path6202" d="m5.2998443 284.28344v.62838c0 .38018-.2978121.678-.6779951.678-.02609 0-.06046-.004-.107487-.0119-.160669-.0254-.3059969.0988-.3059239.26148v5.33973c0 .92486.727247 1.5875 1.5875 1.5875h5.2916667c.874897 0 1.5875-.7126 1.5875-1.5875v-4.07469c-.000092-.14064-.110187-.25664-.250632-.26407-.528707-.0278-.939993-.45019-.939993-.98598v-.62839c0-.66419-.542973-1.20716-1.207162-1.20716-.6641907 0-1.2071588.54298-1.2071607 1.20716v1.57097c0 .38017-.297815.67799-.677995.67799-.3801801 0-.6779951-.29782-.6779951-.67799 0-1.04731-.0000029-1.46625 0-2.51355 0-.66419-.5429729-1.20716-1.207162-1.20716-.6641909.00001-1.2071609.54298-1.2071609 1.20717z" font-variant-ligatures="normal" font-variant-position="normal" font-variant-caps="normal" font-variant-numeric="normal" font-variant-alternates="normal" font-feature-settings="normal" text-indent="0" text-align="start" text-decoration-line="none" text-decoration-style="solid" text-decoration-color="#000000" text-transform="none" text-orientation="mixed" white-space="normal" shape-padding="0" isolation="auto" mix-blend-mode="normal" solid-color="#000000" solid-opacity="1" vector-effect="none"/><path id="path4430" d="m6.5070052 283.60544c.3801801 0 .6779951.29781.6779951.67799-.0000021 1.04731 0 1.46625 0 2.51355 0 .66418.5429729 1.20716 1.207162 1.20716s1.2071609-.54298 1.2071609-1.20716v-1.57097c.0000029-.38018.2978132-.67799.6779948-.67799.38018 0 .677995.29781.677995.67799v.62839c0 .72097.516215 1.29691 1.190625 1.45159v3.87315c0 .59089-.467439 1.05833-1.058333 1.05833h-5.2916667c-.6055389 0-1.0583341-.3957-1.0583341-1.05833v-5.08341c.6076532-.0614 1.091407-.56071 1.091407-1.18391v-.62839c0-.38018.2978121-.67799.677994-.67799z" fill="#b67162" font-variant-ligatures="normal" font-variant-position="normal" font-variant-caps="normal" font-variant-numeric="normal" font-variant-alternates="normal" font-feature-settings="normal" text-indent="0" text-align="start" text-decoration-line="none" text-decoration-style="solid" text-decoration-color="#000000" text-transform="none" text-orientation="mixed" white-space="normal" shape-padding="0" isolation="auto" mix-blend-mode="normal" solid-color="#000000" solid-opacity="1" vector-effect="none"/><path id="path6206" d="m7.6497123 292.47836-.2675781 2.91015c-.0288.31446.09683.60167.2988281.79102.2020019.18935.4751969.29101.7597658.29101.5824541 0 1.1114281-.47472 1.0566411-1.08203l-.2636718-2.91015c-.0126-.13619-.1269043-.24034-.2636721-.24024h-1.0703121c-.1398479.0131-.2389918.11386-.2500009.24024z" font-variant-ligatures="normal" font-variant-position="normal" font-variant-caps="normal" font-variant-numeric="normal" font-variant-alternates="normal" font-feature-settings="normal" text-indent="0" text-align="start" text-decoration-line="none" text-decoration-style="solid" text-decoration-color="#000000" text-transform="none" text-orientation="mixed" white-space="normal" shape-padding="0" isolation="auto" mix-blend-mode="normal" solid-color="#000000" solid-opacity="1" vector-effect="none"/><path id="path4432" d="m8.1536192 292.76742h.5761721l.240234 2.66797c.02423.26861-.2322711.50586-.5292972.50586-.1551709 0-.3027097-.0587-.3984368-.14844-.09573-.0897-.147166-.19877-.1328132-.35547z" fill="#ecc99c" font-variant-ligatures="normal" font-variant-position="normal" font-variant-caps="normal" font-variant-numeric="normal" font-variant-alternates="normal" font-feature-settings="normal" text-indent="0" text-align="start" text-decoration-line="none" text-decoration-style="solid" text-decoration-color="#000000" text-transform="none" text-orientation="mixed" white-space="normal" shape-padding="0" isolation="auto" mix-blend-mode="normal" solid-color="#000000" solid-opacity="1" vector-effect="none"/><path id="path6210" d="m5.3339512 281.76679c-.7354009.75034-1.1255129 1.81702-1.1255129 3.06235v1.01027c-.0000619.13022.09463.24113.2232419.26148.05066.008.1140992.0181.190169.0181.664192 0 1.207162-.54297 1.207162-1.20716v-.62838c0-.38018.2978121-.678.677994-.678.3801801 0 .6779951.29782.6779951.678-.0000021 1.0473 0 1.46624 0 2.51354 0 .66419.5429729 1.20716 1.207162 1.20716s1.2071609-.54297 1.2071609-1.20716v-1.57096c.0000029-.38019.2978132-.678.6779948-.678.38018 0 .677995.29782.677995.678v.62838c0 .81132.640845 1.47208 1.441257 1.51412.151331.008.278434-.11252.278535-.26407v-2.27531c0-.54403-.0742-1.05247-.219107-1.51619-.04458-.14211-.197623-.21945-.338482-.17104-.161316.0551-.330271.0834-.500745.0842-.871003.00011-1.571543-.7001-1.571998-1.57097v-.00051-.00052c.000661-.16998.02902-.33877.08372-.49971.04768-.1407-.02979-.29307-.1715658-.33745-.457984-.14393-.9640308-.22117-1.515154-.22118-1.3021119 0-2.3724229.42066-3.107822 1.17099z" font-variant-ligatures="normal" font-variant-position="normal" font-variant-caps="normal" font-variant-numeric="normal" font-variant-alternates="normal" font-feature-settings="normal" text-indent="0" text-align="start" text-decoration-line="none" text-decoration-style="solid" text-decoration-color="#000000" text-transform="none" text-orientation="mixed" white-space="normal" shape-padding="0" isolation="auto" mix-blend-mode="normal" solid-color="#000000" solid-opacity="1" vector-effect="none"/><path id="path4434" d="m11.982608 283.69377c.08999.35363.163298.72082.163298 1.13533v1.94303c-.384842-.13502-.661458-.48283-.661458-.91777v-.62839c0-.66419-.542973-1.20716-1.207162-1.20716-.6641907 0-1.2071588.54298-1.2071607 1.20716v1.57097c0 .38018-.297815.67799-.677995.67799-.3801801 0-.6779951-.29781-.6779951-.67799 0-1.0473-.0000029-1.46624 0-2.51354 0-.66419-.5429729-1.20717-1.207162-1.20717-.6641909 0-1.2071609.54298-1.2071609 1.20717v.62838c0 .33452-.2478641.57076-.5622399.63097v-.71365c0-1.13592.3480888-2.05362.9741009-2.69234.6260121-.63873 1.5403301-1.01183 2.730082-1.01181.4197059.00002.783858.0743 1.134314.16435-.0365.12241-.06006.24005-.06046.3643-.00015 1.15789.9437767 2.10182 2.1016647 2.10167.124592-.0005.243662-.0196.365334-.0615z" fill="#e4d3cf" font-variant-ligatures="normal" font-variant-position="normal" font-variant-caps="normal" font-variant-numeric="normal" font-variant-alternates="normal" font-feature-settings="normal" text-indent="0" text-align="start" text-decoration-line="none" text-decoration-style="solid" text-decoration-color="#000000" text-transform="none" text-orientation="mixed" white-space="normal" shape-padding="0" isolation="auto" mix-blend-mode="normal" solid-color="#000000" solid-opacity="1" vector-effect="none"/></g></svg>