<svg id="Filled" height="512" viewBox="0 0 512 512" width="512" xmlns="http://www.w3.org/2000/svg"><path d="m248 56-104 208v224h248v-224l96-208z" fill="#7e8488"/><path d="m24 264h368v224h-368z" fill="#757c80"/><path d="m312 264h80v224h-80z" fill="#6a7073"/><path d="m80 352h64l24-56 24 56h64l-48 40 16 64-56-40-56 40 16-64z" fill="#f3db70"/><path d="m40 304s-35.777 54.111 0 72c32 16 56-40 56-40z" fill="#deb89a"/><path d="m296 304-56 32-48-72h-48l-48 72-56-32 72-136h112z" fill="#3a98e4"/><path d="m296 304-56 32-48-72h-24v-96h56z" fill="#e74444"/><path d="m296 304s35.777 54.111 0 72c-32 16-56-40-56-40z" fill="#deb89a"/><path d="m240 192a24.006 24.006 0 0 1 -24 24 23.712 23.712 0 0 1 -8.85-1.7 23.984 23.984 0 0 1 -39.15 11.58 23.984 23.984 0 0 1 -39.15-11.58 23.712 23.712 0 0 1 -8.85 1.7 24 24 0 0 1 0-48h96a24.006 24.006 0 0 1 24 24z" fill="#f3db70"/><path d="m232 168q-64 48-128 0v-72h128z" fill="#deb89a"/><circle cx="168" cy="176" fill="#e74444" r="16"/><path d="m104 80h128v32h-128z" fill="#f3db70"/><path d="m168 80s-8-56-64-56-88 56-72 120h32s8-64 40-64z" fill="#e74444"/><circle cx="48" cy="160" fill="#f3db70" r="24"/><path d="m168 80s8-56 64-56 88 56 72 120h-32s-8-64-40-64z" fill="#3a98e4"/><circle cx="288" cy="160" fill="#f3db70" r="24"/><rect fill="#f3db70" height="32" rx="16" width="32" x="456" y="416"/><circle cx="200" cy="144" r="8"/><circle cx="136" cy="144" r="8"/><path d="m472 408a24.038 24.038 0 0 0 -22.665 16.12 8.043 8.043 0 0 0 -1.335-.12h-16v-88a8 8 0 0 0 -8-8h-24v-62.243l95.264-206.4a8 8 0 0 0 -7.264-11.357h-191.4c-.36-.481-.715-.965-1.084-1.438-15.392-19.708-37.948-30.562-63.516-30.562-32.538 0-50.44 17.225-59.729 31.674a81.746 81.746 0 0 0 -4.271 7.5 81.746 81.746 0 0 0 -4.271-7.5c-9.289-14.449-27.191-31.674-59.729-31.674-25.568 0-48.124 10.854-63.512 30.562-18.77 24.042-25.052 57.887-17.567 93.6a32 32 0 1 0 49.832-.415c2.662-14.86 10.067-41.412 23.247-49.406v77.659a7.981 7.981 0 0 0 .383 2.4 31.874 31.874 0 0 0 -8.15 25.391l-31.873 60.209h-32.36a8 8 0 0 0 -8 8v224a8 8 0 0 0 8 8h368a8 8 0 0 0 8-8v-144h16v88a8 8 0 0 0 8 8h24a8.043 8.043 0 0 0 1.335-.12 24 24 0 1 0 22.665-31.88zm3.5-344-88.619 192h-107.241l-31.873-60.2a31.883 31.883 0 0 0 -8.149-25.394 7.961 7.961 0 0 0 .382-2.406v-77.659c13.179 8 20.585 34.546 23.247 49.405a32 32 0 1 0 49.832.414c5.821-27.76 3.315-54.384-6.905-76.16zm-275.261 329.94 10.73 42.921-38.319-27.371a8 8 0 0 0 -9.3 0l-38.319 27.371 10.73-42.921a8 8 0 0 0 -2.64-8.086l-31.021-25.854h41.9a8 8 0 0 0 7.354-4.849l16.646-38.842 16.646 38.842a8 8 0 0 0 7.354 4.849h41.9l-31.025 25.854a8 8 0 0 0 -2.636 8.086zm23.761-305.94v16h-112v-16zm0 32v43.938q-16.3 11.586-32.413 16.47a24 24 0 1 0 -47.174 0q-16.136-4.9-32.413-16.47v-43.938zm-56 64a8 8 0 1 1 8-8 8.009 8.009 0 0 1 -8 8zm-59.5-3.117q29.644 19.182 59.5 19.2 29.8 0 59.5-19.2a16 16 0 0 1 -11.5 27.117 15.662 15.662 0 0 1 -5.868-1.124 8 8 0 0 0 -10.7 5.334 15.985 15.985 0 0 1 -26.089 7.713 8 8 0 0 0 -10.68 0 15.985 15.985 0 0 1 -26.089-7.713 8 8 0 0 0 -10.7-5.334 15.662 15.662 0 0 1 -5.874 1.124 15.993 15.993 0 0 1 -11.5-27.117zm67.5 58.094a31.956 31.956 0 0 0 35.86-15.243 31.98 31.98 0 0 0 27.407-9.8l46.039 86.966-42.791 24.452-43.859-65.786a8 8 0 0 0 -6.656-3.566h-16zm11.719 33.023 45.241 67.862c.365.814 1.035 2.258 1.982 4.138h-37.667l-21.921-51.151a8 8 0 0 0 -14.708 0l-21.921 51.151h-37.667c.947-1.88 1.617-3.324 1.982-4.138l45.241-67.862zm-144.847 42.855 42.66 24.377c-5.553 10.4-16.073 26.194-27.937 30.527a16.7 16.7 0 0 1 -14.017-.914c-5.669-2.834-9.142-6.888-10.621-12.392-3.417-12.716 4.096-30.813 9.915-41.598zm207.6 24.377 42.67-24.382c5.821 10.754 13.329 28.811 9.911 41.583-1.476 5.514-4.951 9.574-10.627 12.412a16.7 16.7 0 0 1 -14.017.914c-11.87-4.334-22.389-20.126-27.941-30.527zm53.528-37.532c-.5-.814-.869-1.407-1.092-1.753l-14.797-27.947h15.889zm0-141.7a16 16 0 1 1 -16-16 16.019 16.019 0 0 1 16 16zm-72-128c20.832 0 38.433 8.44 50.9 24.408 14.411 18.458 20.033 45.254 15.786 73.433a31.913 31.913 0 0 0 -21.163-.071 157.306 157.306 0 0 0 -6.033-20.579c-6.362-16.966-18.378-37.191-39.49-37.191h-53.769c4.706-14.25 18.138-40 53.769-40zm-184 144a16 16 0 1 1 16-16 16.019 16.019 0 0 1 -16 16zm16.51-66.809a157.306 157.306 0 0 0 -6.033 20.579 31.913 31.913 0 0 0 -21.163.071c-4.247-28.179 1.375-54.975 15.786-73.433 12.467-15.968 30.068-24.408 50.9-24.408 35.631 0 49.063 25.75 53.769 40h-53.769c-21.112 0-33.128 20.225-39.49 37.191zm55.49 114.809a32.161 32.161 0 0 0 4.14-.266 31.956 31.956 0 0 0 35.86 15.243v17.023h-16a8 8 0 0 0 -6.656 3.563l-43.859 65.786-42.791-24.449 46.039-86.962a31.908 31.908 0 0 0 23.267 10.062zm-72.111 48-14.8 27.95c-.223.346-.6.939-1.092 1.753v-29.703zm-15.889 108.6a42.715 42.715 0 0 0 4.422 2.556 32.546 32.546 0 0 0 26.7 1.621c8.892-3.257 16.579-10.059 22.79-17.44l33.114 27.595-14.787 59.128a8 8 0 0 0 12.411 8.45l51.35-36.679 51.35 36.679a8 8 0 0 0 12.411-8.45l-14.782-59.129 33.114-27.595c6.211 7.38 13.9 14.183 22.79 17.44a32.546 32.546 0 0 0 26.695-1.621 42.715 42.715 0 0 0 4.422-2.555v99.4h-272zm352 99.4h-64v-208h64v56h-24a8 8 0 0 0 0 16h24zm88-40a8 8 0 1 1 8-8 8.009 8.009 0 0 1 -8 8z"/></svg>