<svg enable-background="new 0 0 128 128" height="512" viewBox="0 0 128 128" width="512" xmlns="http://www.w3.org/2000/svg"><g id="Koala"><g id="Bamboo"><path d="m79.4 3.3h17.5v121.9h-17.5z" fill="#fdad4c"/><path d="m96.9 126.8c-.8 0-1.5-.7-1.5-1.5v-122c0-.8.7-1.5 1.5-1.5s1.5.7 1.5 1.5v121.9c0 .9-.6 1.6-1.5 1.6z"/><path d="m79.4 126.8c-.8 0-1.5-.7-1.5-1.5v-122c0-.8.7-1.5 1.5-1.5s1.5.7 1.5 1.5v121.9c0 .9-.6 1.6-1.5 1.6z"/></g><g id="Body_6_"><path d="m87.9 109.3h-8.5c1-2.7 1.5-5.7 1.5-8.8s-.6-6-1.8-8.6h8.6c3.1 0 5.7-2.6 5.7-5.7s-2.6-5.7-5.7-5.7h-17.7s-4.4 0-6.9 0c-9.9 0-20.8 13.5-20.8 24.5s11 15.5 20.8 15.5h6.9 18c3.1 0 5.6-2.5 5.6-5.6-.1-3.1-2.6-5.6-5.7-5.6z" fill="#999"/><path d="m87.8 80.5h-17.8s-4.4 0-6.9 0c-5.5 0-11.4 4.2-15.4 9.8 4.7 1.1 10 1.6 15.4 1.6 12 0 22.8-2.4 29.9-8-.8-2-2.8-3.4-5.2-3.4z" fill="#808080"/><path d="m87.9 122h-24.8c-11.1 0-22.3-5.3-22.3-17 0-12.1 11.9-26 22.3-26h24.7c4 0 7.2 3.2 7.2 7.2s-3.2 7.2-7.2 7.2h-6.5c.7 2.3 1.1 4.7 1.1 7.1 0 2.6-.3 5-.9 7.3h6.4c3.9 0 7.1 3.2 7.1 7.1s-3.1 7.1-7.1 7.1zm-24.8-40c-8.8 0-19.3 12.5-19.3 23 0 9.7 9.7 14 19.3 14h24.8c2.3 0 4.1-1.8 4.1-4.1s-1.8-4.1-4.1-4.1h-8.5c-.5 0-1-.2-1.2-.6-.3-.4-.3-.9-.2-1.4.9-2.5 1.4-5.3 1.4-8.3 0-2.8-.5-5.5-1.6-8-.2-.5-.1-1 .1-1.4s.7-.7 1.3-.7h8.6c2.3 0 4.2-1.9 4.2-4.2s-1.9-4.2-4.2-4.2z"/></g><g id="Head_14_"><g id="Ear_3_"><g><path d="m51.2 33.3c1-.8 1.7-2.1 1.7-3.5 0-1.4-.7-2.6-1.7-3.4.7-1.1.9-2.5.5-3.8s-1.4-2.3-2.7-2.8c.3-1.3.1-2.6-.7-3.8-.8-1.1-2.1-1.7-3.4-1.8-.1-1.3-.7-2.5-1.8-3.4-1.1-.8-2.5-1-3.8-.7-.5-1.2-1.5-2.2-2.8-2.6s-2.7-.2-3.8.5c-.8-1-2.1-1.6-3.5-1.6s-2.6.7-3.5 1.7c-1.1-.7-2.5-.9-3.8-.5s-2.2 1.4-2.7 2.6c-1.3-.3-2.6-.1-3.8.7-1.1.8-1.7 2.1-1.8 3.4-1.3.1-2.5.7-3.4 1.8-.8 1.1-1 2.5-.7 3.8-1.2.5-2.2 1.5-2.6 2.8s-.2 2.7.5 3.8c-1 .8-1.6 2.1-1.6 3.5s.7 2.6 1.7 3.5c-.7 1.1-.9 2.5-.5 3.8s1.4 2.3 2.6 2.8c-.3 1.3-.1 2.6.7 3.8.8 1.1 2.1 1.7 3.4 1.8.1 1.3.7 2.5 1.8 3.4 1.1.8 2.5 1 3.8.7.5 1.2 1.5 2.2 2.8 2.6 1.3.4 2.7.2 3.8-.5.8 1 2.1 1.6 3.5 1.6s2.6-.7 3.5-1.7c1.1.7 2.5.9 3.8.5 1.3-.4 2.3-1.4 2.8-2.6 1.3.3 2.6.1 3.8-.7 1.1-.8 1.7-2.1 1.8-3.4 1.3-.1 2.5-.7 3.4-1.8.8-1.1 1-2.5.7-3.8 1.2-.5 2.2-1.4 2.6-2.8.3-1.4.1-2.8-.6-3.9z" fill="#999"/><path d="m29.3 54.9c-1.4 0-2.7-.5-3.7-1.3-1.3.5-2.7.5-4 .1s-2.4-1.3-3.2-2.4c-1.4.1-2.7-.3-3.8-1.1s-1.9-2-2.2-3.3c-1.3-.3-2.5-1.1-3.3-2.2s-1.2-2.5-1.1-3.8c-1.1-.7-2-1.8-2.4-3.1s-.4-2.7.1-4c-.9-1.1-1.3-2.4-1.3-3.7 0-1.4.5-2.7 1.3-3.7-.5-1.3-.5-2.7-.1-4s1.3-2.4 2.4-3.2c-.1-1.4.3-2.7 1.1-3.8s2-1.9 3.3-2.3c.3-1.3 1.1-2.5 2.2-3.3s2.5-1.2 3.8-1.1c.7-1.1 1.8-2 3.1-2.4s2.7-.4 4 .1c1.1-.9 2.4-1.3 3.7-1.3 1.4 0 2.7.5 3.7 1.3 1.3-.5 2.7-.5 4-.1s2.4 1.3 3.2 2.4c1.4-.1 2.7.3 3.8 1.1s1.9 2 2.3 3.3c1.3.3 2.5 1.1 3.3 2.2s1.2 2.5 1.1 3.8c1.1.7 2 1.8 2.4 3.1s.4 2.7-.1 4c.9 1.1 1.3 2.4 1.3 3.7v.1c0 1.4-.5 2.7-1.3 3.7.5 1.3.5 2.7.1 4s-1.3 2.4-2.4 3.2c.1 1.4-.3 2.7-1.1 3.8s-2 1.9-3.3 2.2c-.4 1.3-1.1 2.5-2.2 3.3s-2.5 1.2-3.8 1.1c-.7 1.1-1.8 2-3.2 2.4-1.3.4-2.7.4-4-.1-1 .8-2.3 1.3-3.7 1.3zm-3.4-4.7c.4 0 .9.2 1.2.5.6.7 1.4 1.1 2.3 1.1.9 0 1.7-.4 2.3-1.1.5-.6 1.3-.7 2-.3.8.5 1.7.6 2.5.3s1.5-.9 1.8-1.8c.3-.7 1-1.1 1.8-.9.9.2 1.8.1 2.5-.5.7-.5 1.2-1.3 1.2-2.2 0-.8.6-1.4 1.4-1.4.9-.1 1.7-.5 2.2-1.2s.7-1.6.5-2.5c-.2-.7.2-1.5.9-1.8.9-.3 1.5-1 1.8-1.8s.1-1.8-.3-2.5c-.4-.6-.3-1.5.3-2 .7-.6 1.1-1.4 1.1-2.2 0 0 0 0 0-.1v-.1c0-.9-.4-1.7-1.1-2.2-.6-.5-.7-1.3-.3-2 .5-.8.6-1.7.3-2.5s-.9-1.5-1.8-1.8c-.7-.3-1.1-1-.9-1.8.2-.9.1-1.8-.5-2.5-.5-.7-1.3-1.1-2.3-1.2-.8 0-1.4-.6-1.4-1.4-.1-.9-.5-1.7-1.2-2.2s-1.6-.7-2.5-.5c-.7.2-1.5-.2-1.8-.9-.3-.8-1-1.5-1.9-1.8-.8-.3-1.8-.1-2.5.4-.6.4-1.5.3-2-.3-.6-.7-1.4-1.1-2.3-1.1-.9 0-1.7.4-2.3 1.1-.5.6-1.3.7-2 .3-.8-.5-1.7-.6-2.5-.3s-1.5.9-1.8 1.8c-.3.7-1 1.1-1.8.9-.9-.2-1.8-.1-2.5.5-.7.5-1.1 1.3-1.2 2.2 0 .8-.6 1.4-1.4 1.4-.9.1-1.7.5-2.2 1.2s-.7 1.6-.5 2.5c.2.7-.2 1.5-.9 1.8-.8.3-1.5 1-1.8 1.9s-.1 1.8.3 2.5c.4.6.3 1.5-.3 2-.7.6-1.1 1.4-1.1 2.3s.4 1.7 1.1 2.3c.6.5.7 1.3.3 2-.5.8-.6 1.7-.3 2.5s.9 1.5 1.8 1.8c.7.3 1.1 1 .9 1.8-.2.9-.1 1.8.5 2.5.5.7 1.3 1.2 2.2 1.2.8 0 1.4.6 1.4 1.4.1.9.5 1.7 1.2 2.2s1.6.7 2.5.5c.7-.2 1.5.2 1.8.9.3.8 1 1.5 1.8 1.8s1.8.1 2.5-.3c.4-.3.7-.4 1-.4z"/><circle cx="29.3" cy="29.9" fill="#ffb6c6" r="13"/><path d="m29.3 44.4c-8 0-14.5-6.5-14.5-14.5s6.5-14.5 14.5-14.5 14.5 6.5 14.5 14.5-6.5 14.5-14.5 14.5zm0-26c-6.3 0-11.5 5.2-11.5 11.5s5.2 11.5 11.5 11.5 11.5-5.2 11.5-11.5-5.2-11.5-11.5-11.5z"/></g><g><path d="m118.8 33.3c1-.8 1.7-2.1 1.7-3.5 0-1.4-.7-2.6-1.7-3.4.7-1.1.9-2.5.5-3.8s-1.4-2.3-2.7-2.8c.3-1.3.1-2.6-.7-3.8-.8-1.1-2.1-1.7-3.4-1.8-.1-1.3-.7-2.5-1.8-3.4-1.1-.8-2.5-1-3.8-.7-.5-1.2-1.5-2.2-2.8-2.6s-2.7-.2-3.8.5c-.8-1-2.1-1.6-3.5-1.6s-2.6.7-3.5 1.7c-1.1-.7-2.5-.9-3.8-.5-1.2.4-2.2 1.4-2.7 2.6-1.3-.3-2.6-.1-3.8.7-1.1.8-1.7 2.1-1.8 3.4-1.3.1-2.5.7-3.4 1.8-.8 1.1-1 2.5-.7 3.8-1.2.5-2.2 1.5-2.6 2.8s-.2 2.7.5 3.8c-1 .8-1.6 2.1-1.6 3.5s.7 2.6 1.7 3.5c-.7 1.1-.9 2.5-.5 3.8s1.4 2.3 2.6 2.8c-.3 1.3-.1 2.6.7 3.8.8 1.1 2.1 1.7 3.4 1.8.1 1.3.7 2.5 1.8 3.4 1.1.8 2.5 1 3.8.7.5 1.2 1.5 2.2 2.8 2.6 1.3.4 2.7.2 3.8-.5.8 1 2.1 1.6 3.5 1.6s2.6-.7 3.5-1.7c1.1.7 2.5.9 3.8.5 1.3-.4 2.3-1.4 2.8-2.6 1.3.3 2.6.1 3.8-.7 1.1-.8 1.7-2.1 1.8-3.4 1.3-.1 2.5-.7 3.4-1.8.8-1.1 1-2.5.7-3.8 1.2-.5 2.2-1.4 2.6-2.8.3-1.4.1-2.8-.6-3.9z" fill="#999"/><path d="m96.9 54.9c-1.4 0-2.7-.5-3.7-1.3-1.3.5-2.7.5-4 .1s-2.4-1.3-3.2-2.4c-1.4.1-2.7-.3-3.8-1.1s-1.9-2-2.2-3.3c-1.3-.3-2.5-1.1-3.3-2.2s-1.2-2.5-1.1-3.8c-1.1-.7-2-1.8-2.4-3.1s-.4-2.7.1-4c-.9-1.1-1.3-2.4-1.3-3.7 0-1.4.5-2.7 1.3-3.7-.5-1.3-.5-2.7-.1-4s1.3-2.4 2.4-3.2c-.1-1.4.3-2.7 1.1-3.8s2-1.9 3.3-2.3c.3-1.3 1.1-2.5 2.2-3.3s2.5-1.2 3.8-1.1c.7-1.1 1.8-2 3.1-2.4s2.7-.4 4 .1c1.1-.9 2.4-1.3 3.7-1.3 1.4 0 2.7.5 3.7 1.3 1.3-.5 2.7-.5 4-.1s2.4 1.3 3.2 2.4c1.4-.1 2.7.3 3.8 1.1s1.9 2 2.3 3.3c1.3.3 2.5 1.1 3.3 2.2s1.2 2.5 1.1 3.8c1.1.7 2 1.8 2.4 3.1s.4 2.7-.1 4c.9 1.1 1.3 2.4 1.3 3.7v.1c0 1.4-.5 2.7-1.3 3.7.5 1.3.5 2.7.1 4s-1.3 2.4-2.4 3.2c.1 1.4-.3 2.7-1.1 3.8s-2 1.9-3.3 2.2c-.4 1.3-1.1 2.5-2.2 3.3s-2.5 1.2-3.8 1.1c-.7 1.1-1.8 2-3.2 2.4-1.3.4-2.7.4-4-.1-1 .8-2.3 1.3-3.7 1.3zm-3.4-4.7c.4 0 .9.2 1.2.5.6.7 1.4 1.1 2.3 1.1.9 0 1.7-.4 2.3-1.1.5-.6 1.3-.7 2-.3.8.5 1.7.6 2.5.3s1.5-.9 1.8-1.8c.3-.7 1-1.1 1.8-.9.9.2 1.8.1 2.5-.5.7-.5 1.2-1.3 1.2-2.2 0-.8.6-1.4 1.4-1.4.9-.1 1.7-.5 2.2-1.2s.7-1.6.5-2.5c-.2-.7.2-1.5.9-1.8.9-.3 1.5-1 1.8-1.8s.1-1.8-.3-2.5c-.4-.6-.3-1.5.3-2 .7-.6 1.1-1.4 1.1-2.2 0 0 0 0 0-.1v-.1c0-.9-.4-1.7-1.1-2.2-.6-.5-.7-1.3-.3-2 .5-.8.6-1.7.3-2.5s-.9-1.5-1.8-1.8c-.7-.3-1.1-1-.9-1.8.2-.9.1-1.8-.5-2.5-.5-.7-1.3-1.1-2.3-1.2-.8 0-1.4-.6-1.4-1.4-.1-.9-.5-1.7-1.2-2.2s-1.6-.7-2.5-.5c-.7.2-1.5-.2-1.8-.9-.3-.8-1-1.5-1.9-1.8-.8-.3-1.8-.1-2.5.4-.6.4-1.5.3-2-.3-.6-.7-1.4-1.1-2.3-1.1-.9 0-1.7.4-2.3 1.1-.5.6-1.3.7-2 .3-.8-.5-1.7-.6-2.5-.3s-1.5.9-1.8 1.8c-.3.7-1 1.1-1.8.9-.9-.2-1.8-.1-2.5.5-.7.5-1.1 1.3-1.2 2.2 0 .8-.6 1.4-1.4 1.4-.9.1-1.7.5-2.2 1.2s-.7 1.6-.5 2.5c.2.7-.2 1.5-.9 1.8-.8.3-1.5 1-1.8 1.9s-.1 1.8.3 2.5c.4.6.3 1.5-.3 2-.7.6-1.1 1.4-1.1 2.3s.4 1.7 1.1 2.3c.6.5.7 1.3.3 2-.5.8-.6 1.7-.3 2.5s.9 1.5 1.8 1.8c.7.3 1.1 1 .9 1.8-.2.9-.1 1.8.5 2.5.5.7 1.3 1.2 2.2 1.2.8 0 1.4.6 1.4 1.4.1.9.5 1.7 1.2 2.2s1.6.7 2.5.5c.7-.2 1.5.2 1.8.9.3.8 1 1.5 1.8 1.8s1.8.1 2.5-.3c.4-.3.7-.4 1-.4z"/><circle cx="96.9" cy="29.9" fill="#ffb6c6" r="13"/><path d="m96.9 44.4c-8 0-14.5-6.5-14.5-14.5s6.5-14.5 14.5-14.5 14.5 6.5 14.5 14.5-6.5 14.5-14.5 14.5zm0-26c-6.3 0-11.5 5.2-11.5 11.5s5.2 11.5 11.5 11.5 11.5-5.2 11.5-11.5-5.1-11.5-11.5-11.5z"/></g></g><g id="Head"><path d="m24.1 57.8c0 20.4 17.5 28 39 28s39-7.6 39-28-7.7-46-39-46c-31.2 0-39 25.6-39 46" fill="#999"/><path d="m63.1 80.8c-20.8 0-37.8-7.1-38.9-26 0 1-.1 2-.1 3 0 20.4 17.5 28 39 28s39-7.6 39-28c0-1 0-2-.1-3-1 19-18.1 26-38.9 26z" fill="#808080"/><path d="m63.1 22.8c27.9 0 37.1 20.4 38.7 39.3.2-1.4.3-2.8.3-4.3 0-20.4-7.8-46-39-46-31.3 0-39 25.6-39 46 0 1.5.1 2.9.3 4.3 1.6-18.9 10.8-39.3 38.7-39.3z" fill="#b3b3b3"/><path d="m63.1 87.3c-26.1 0-40.5-10.5-40.5-29.5 0-14.3 3.9-47.5 40.5-47.5s40.5 33.2 40.5 47.5c0 19.1-14.4 29.5-40.5 29.5zm0-74c-33.8 0-37.5 31.1-37.5 44.5 0 23.1 23.5 26.5 37.5 26.5s37.5-3.4 37.5-26.5c0-13.3-3.6-44.5-37.5-44.5z"/></g><g id="Nose_3_"><path d="m63.1 76.2c-3.8 0-6.9-2-6.9-4.4s3.1-7 6.9-7 6.9 4.5 6.9 7-3.1 4.4-6.9 4.4"/><path d="m71.5 71.8c0 3.3-3.7 5.9-8.4 5.9s-8.4-2.6-8.4-5.9 3.8-8.5 8.4-8.5 8.4 5.2 8.4 8.5zm-3 0c0-1.7-2.5-5.5-5.4-5.5s-5.4 3.7-5.4 5.5c0 1.4 2.2 2.9 5.4 2.9s5.4-1.5 5.4-2.9z"/></g><g id="Eyes_5_"><circle cx="79" cy="60.3" r="3"/><circle cx="47.2" cy="60.3" r="3"/></g></g></g></svg>