<?xml version="1.0" encoding="iso-8859-1"?>
<!-- Generator: Adobe Illustrator 21.0.0, SVG Export Plug-In . SVG Version: 6.00 Build 0)  -->
<svg version="1.1" id="Capa_1" xmlns="http://www.w3.org/2000/svg" xmlns:xlink="http://www.w3.org/1999/xlink" x="0px" y="0px"
	 viewBox="0 0 593.282 593.282" style="enable-background:new 0 0 593.282 593.282;" xml:space="preserve">
<g>
	<g>
		<g id="filled_outline_18_">
			<path style="fill:#4EABEC;" d="M504.29,266.977l-19.776-44.931c-5.359-8.929-15.01-14.397-25.432-14.397H179.25
				c-8.79,0.01-17.116,3.916-22.742,10.669l-41.807,58.547h379.7L504.29,266.977z"/>
			<path style="fill:#DD381A;" d="M583.394,306.173v-9.532c0-16.384-13.28-29.664-29.664-29.664h-9.888v39.552L583.394,306.173z"/>
			<path style="fill:#697B8C;" d="M543.842,306.529v-39.552H504.29l-9.888,9.888h-379.7l-87.173,7.91
				c-10.046,1.088-17.65,9.572-17.64,19.677v51.517h573.506v-49.796L543.842,306.529z"/>
			<path style="fill:#576573;" d="M86.491,316.496c-20.795,1.345-36.942,18.639-36.872,39.473c0,0.84-0.148,1.651-0.099,2.502
				c1.374,21.754,20.132,38.267,41.886,36.882c20.785-1.315,36.971-18.56,36.961-39.384c0-0.84,0.148-1.651,0.099-2.502
				C127.081,331.664,108.294,315.112,86.491,316.496L86.491,316.496z"/>
			<path style="fill:#C3C9D1;" d="M87.746,336.193c-10.412,0.672-18.491,9.344-18.441,19.776c0,0.415-0.079,0.821-0.049,1.256
				c1.157,10.857,10.897,18.728,21.754,17.571c9.74-1.028,17.255-9.038,17.67-18.827c0-0.425,0.079-0.821,0.049-1.256
				c-0.672-10.897-10.056-19.193-20.953-18.52C87.766,336.193,87.756,336.193,87.746,336.193z"/>
			<path style="fill:#576573;" d="M472.124,316.496c-20.795,1.345-36.942,18.639-36.872,39.473c0,0.84-0.148,1.651-0.099,2.502
				c1.384,21.754,20.132,38.267,41.886,36.882c20.785-1.315,36.971-18.56,36.961-39.384c0-0.84,0.148-1.651,0.099-2.502
				C512.714,331.664,493.927,315.112,472.124,316.496L472.124,316.496z"/>
			<path style="fill:#C3C9D1;" d="M473.39,336.193c-10.412,0.682-18.481,9.344-18.431,19.776c0,0.415-0.079,0.821-0.049,1.256
				c1.157,10.857,10.897,18.728,21.754,17.571c9.74-1.028,17.255-9.038,17.67-18.827c0-0.425,0.069-0.821,0-1.256
				C493.66,343.817,484.286,335.531,473.39,336.193z"/>
			<path d="M553.73,257.089h-42.993l-17.176-39.028c-0.168-0.376-0.366-0.751-0.574-1.107
				c-7.179-11.876-20.023-19.153-33.906-19.193H179.25c-11.984,0.04-23.316,5.488-30.831,14.832l-39.157,54.849l-82.862,7.545
				C11.381,276.647,0.01,289.344,0,304.453v51.517c0,5.458,4.43,9.888,9.888,9.888h40.818c4.529,17.442,20.261,29.634,38.286,29.664
				c0.831,0,1.671,0,2.521-0.079c16.978-1.167,31.286-13.102,35.488-29.585h309.337c4.529,17.442,20.261,29.634,38.286,29.664
				c0.831,0,1.671,0,2.521-0.079c16.978-1.167,31.286-13.102,35.488-29.585h70.759c5.458,0,9.888-4.43,9.888-9.888v-59.328
				C593.282,274.798,575.572,257.089,553.73,257.089z M416.454,217.537h42.627c6.744,0.02,13.013,3.451,16.651,9.127l16.81,38.099
				l-2.235,2.215h-74.299L416.454,217.537z M228.582,217.537h168.097l-0.445,49.44H228.137L228.582,217.537z M227.959,286.753
				h168.097l-0.178,19.776H227.781L227.959,286.753z M164.033,224.656c3.757-4.509,9.324-7.119,15.198-7.119h29.575l-0.445,49.44
				h-74.516L164.033,224.656z M108.63,355.969L108.63,355.969c0.049,10.867-8.721,19.717-19.588,19.766
				c-4.835,0.02-9.502-1.73-13.121-4.934c-3.896-3.392-6.289-8.187-6.645-13.339c0-0.237,0.069-1.266,0.069-1.503
				c0.03-10.887,8.879-19.697,19.766-19.667c10.234,0.03,18.748,7.871,19.598,18.065C108.709,354.624,108.63,355.702,108.63,355.969
				L108.63,355.969z M127.289,346.081l-0.079-0.227c-0.198-0.771-0.544-1.473-0.791-2.225c-0.485-1.582-1.068-3.125-1.75-4.628
				c-0.435-0.91-0.989-1.74-1.483-2.61c-0.682-1.236-1.434-2.432-2.245-3.589c-0.603-0.831-1.256-1.582-1.918-2.363
				c-0.92-1.068-1.859-2.096-2.868-3.065c-0.722-0.672-1.454-1.305-2.215-1.978c-1.137-0.93-2.334-1.79-3.57-2.591
				c-0.771-0.494-1.523-0.989-2.324-1.414c-1.414-0.771-2.887-1.454-4.39-2.037c-0.742-0.307-1.454-0.633-2.215-0.89
				c-1.78-0.564-3.589-1.009-5.429-1.325c-0.613-0.109-1.187-0.287-1.8-0.376c-2.561-0.346-5.142-0.455-7.723-0.316
				c-2.363,0.158-4.697,0.544-6.991,1.127c-0.732,0.188-1.424,0.455-2.136,0.682c-1.503,0.455-2.976,0.999-4.41,1.622
				c-0.771,0.356-1.513,0.742-2.254,1.137c-1.295,0.682-2.561,1.444-3.767,2.274c-0.692,0.465-1.365,0.93-1.978,1.444
				c-1.226,0.959-2.393,1.997-3.49,3.105c-0.504,0.494-0.989,0.989-1.493,1.473c-1.503,1.632-2.868,3.392-4.084,5.251l-0.069,0.089
				c-1.226,1.948-2.284,4.005-3.154,6.131c-0.247,0.603-0.415,1.236-0.633,1.859c-0.405,1.127-0.87,2.225-1.167,3.392H19.776
				v-19.727h19.776v-19.776H19.776v-2.076c0-4.964,3.678-9.166,8.603-9.809l86.323-7.891h93.531l-0.178,19.776h-69.622v19.776
				h69.394l-0.178,19.687l9.888,0.089H127.289z M227.425,346.081l0.178-19.776h168.097l-0.178,19.687l9.888,0.089H227.425z
				 M494.263,355.969L494.263,355.969c0.049,10.867-8.721,19.717-19.588,19.766c-4.835,0.02-9.502-1.73-13.121-4.934
				c-3.896-3.392-6.289-8.187-6.645-13.339c0-0.237,0.069-1.266,0.069-1.503c0.03-10.887,8.879-19.697,19.766-19.667
				c10.234,0.03,18.748,7.871,19.598,18.065C494.342,354.624,494.263,355.702,494.263,355.969L494.263,355.969z M573.506,346.081
				h-60.584l-0.079-0.237c-0.198-0.712-0.504-1.374-0.742-2.076c-0.504-1.641-1.117-3.243-1.829-4.806
				c-0.405-0.84-0.91-1.622-1.374-2.432c-0.712-1.305-1.513-2.571-2.373-3.787c-0.564-0.761-1.167-1.463-1.78-2.185
				c-0.959-1.147-1.978-2.235-3.065-3.263c-0.653-0.623-1.315-1.196-1.978-1.77c-1.216-0.989-2.482-1.908-3.797-2.749
				c-0.702-0.445-1.394-0.89-2.116-1.295c-1.483-0.811-3.026-1.523-4.598-2.136c-0.682-0.277-1.345-0.583-2.057-0.811
				c-1.81-0.593-3.668-1.048-5.547-1.365c-0.573-0.099-1.117-0.277-1.701-0.356c-2.561-0.346-5.142-0.455-7.723-0.316
				c-2.363,0.158-4.697,0.544-6.991,1.127c-0.732,0.188-1.424,0.455-2.136,0.682c-1.503,0.455-2.976,0.999-4.41,1.622
				c-0.771,0.356-1.513,0.742-2.254,1.137c-1.295,0.682-2.561,1.444-3.767,2.274c-0.692,0.465-1.365,0.93-1.978,1.444
				c-1.226,0.959-2.393,1.997-3.49,3.105c-0.504,0.494-0.989,0.989-1.493,1.473c-1.503,1.632-2.868,3.392-4.084,5.251l-0.069,0.089
				c-1.226,1.948-2.284,4.005-3.154,6.131c-0.247,0.603-0.415,1.236-0.633,1.859c-0.405,1.127-0.87,2.225-1.167,3.392h-21.239
				l0.178-19.776h19.598v-19.776h-19.42l0.178-19.776h78.57c2.62,0,5.142-1.038,6.991-2.897l6.991-6.991h25.57v29.664
				c0,5.458,4.43,9.888,9.888,9.888h29.664V346.081z M553.73,296.641v-19.776c10.926,0,19.776,8.85,19.776,19.776H553.73z"/>
		</g>
	</g>
</g>
<g>
</g>
<g>
</g>
<g>
</g>
<g>
</g>
<g>
</g>
<g>
</g>
<g>
</g>
<g>
</g>
<g>
</g>
<g>
</g>
<g>
</g>
<g>
</g>
<g>
</g>
<g>
</g>
<g>
</g>
</svg>
