<?xml version="1.0" encoding="iso-8859-1"?>
<!-- Generator: Adobe Illustrator 19.0.0, SVG Export Plug-In . SVG Version: 6.00 Build 0)  -->
<svg xmlns="http://www.w3.org/2000/svg" xmlns:xlink="http://www.w3.org/1999/xlink" version="1.1" id="Layer_1" x="0px" y="0px" viewBox="0 0 512 512" style="enable-background:new 0 0 512 512;" xml:space="preserve">
<path style="fill:#FFDF9F;" d="M274.808,318.171v164.752c0,10.245-8.464,18.627-18.808,18.627l0,0  c-10.344,0-18.808-8.382-18.808-18.627V318.171H274.808z"/>
<path style="fill:#3FD0FC;" d="M334.261,10.449c-30.826,0-58.624,13.287-78.261,34.581c-19.637-21.294-47.435-34.581-78.261-34.581  c-59.499,0-107.731,49.492-107.731,110.544c0,85.518,146.286,201.881,185.992,201.881S441.992,206.51,441.992,120.993  C441.992,59.941,393.759,10.449,334.261,10.449z"/>
<path style="fill:#FF7DBE;" d="M298.209,91.951c-16.625,0-31.618,7.242-42.209,18.848c-10.591-11.606-25.583-18.848-42.209-18.848  c-32.088,0-58.102,26.975-58.102,60.251c0,46.612,78.896,109.009,100.31,109.009c21.414,0,100.31-62.397,100.31-109.009  C356.31,118.926,330.296,91.951,298.209,91.951z"/>
<path d="M334.26,0c-29.26,0-56.672,10.69-78.26,30.316C234.412,10.69,207.001,0,177.74,0C112.574,0,59.559,54.277,59.559,120.992  c0,54.523,50.954,111.466,81.328,140.557c26.137,25.033,59.288,50.264,85.856,63.095v158.28C226.743,498.957,239.868,512,256,512  s29.257-13.043,29.257-29.076v-158.28c26.569-12.831,59.719-38.063,85.856-63.095c30.373-29.09,81.328-86.034,81.328-140.557  C452.441,54.277,399.426,0,334.26,0z M264.359,482.924c0,4.51-3.75,8.178-8.359,8.178c-4.609,0-8.359-3.669-8.359-8.178V332.327  c2.997,0.647,5.799,0.996,8.359,0.996c2.56,0,5.362-0.349,8.359-0.996V482.924z M356.658,246.456  c-41.201,39.461-85.311,65.969-100.658,65.969s-59.457-26.508-100.658-65.969c-47.591-45.579-74.885-91.31-74.885-125.464  c0-55.192,43.641-100.094,97.283-100.094c26.95,0,52.015,11.085,70.579,31.215c1.979,2.145,4.764,3.366,7.682,3.366  c2.918,0,5.703-1.22,7.682-3.366c18.562-20.13,43.627-31.215,70.577-31.215c53.642,0,97.283,44.902,97.283,100.094  C431.543,155.145,404.249,200.876,356.658,246.456z"/>
<path d="M298.248,102.4h-0.04c-5.77,0-10.449-4.678-10.449-10.449s4.679-10.449,10.449-10.449s10.469,4.678,10.469,10.449  S304.018,102.4,298.248,102.4z"/>
<path d="M256,271.66c-16.262,0-45.305-20.695-65.409-39.923c-16.937-16.199-45.351-48.074-45.351-79.533  c0-38.984,30.752-70.701,68.551-70.701c15.319,0,30.224,5.373,42.199,14.996c1.529-1.234,3.109-2.401,4.731-3.496  c4.782-3.228,11.277-1.965,14.506,2.818c3.228,4.784,1.965,11.278-2.818,14.505c-3.162,2.134-6.087,4.663-8.691,7.518  c-1.981,2.169-4.781,3.405-7.719,3.405l0,0c-2.937,0-5.739-1.236-7.719-3.405c-9.088-9.959-21.336-15.444-34.49-15.444  c-26.275,0-47.653,22.341-47.653,49.803c0,17.049,14.542,41.136,38.898,64.433c23.757,22.723,45.478,34.127,50.963,34.127  s27.206-11.404,50.963-34.127c24.357-23.297,38.898-47.384,38.898-64.433c0-15.876-6.995-30.436-19.193-39.945  c-4.549-3.548-5.363-10.115-1.814-14.665c3.548-4.552,10.115-5.362,14.665-1.815c17.311,13.497,27.239,34.064,27.239,56.426  c0,31.46-28.414,63.334-45.351,79.535C301.305,250.966,272.262,271.66,256,271.66z"/>
<path d="M107.497,147.459c-2.675,0-5.348-1.02-7.388-3.061c-4.08-4.08-4.08-10.697,0-14.778l14.629-14.629  c4.081-4.08,10.696-4.08,14.778,0c4.08,4.08,4.08,10.697,0,14.778l-14.629,14.629C112.845,146.438,110.172,147.459,107.497,147.459z  "/>
<path d="M155.69,80.457c-2.675,0-5.348-1.02-7.388-3.061l-14.629-14.629c-4.08-4.08-4.08-10.697,0-14.778  c4.081-4.08,10.696-4.08,14.778,0l14.629,14.629c4.08,4.08,4.08,10.697,0,14.778C161.038,79.437,158.365,80.457,155.69,80.457z"/>
<path d="M183.902,259.135c-2.675,0-5.348-1.02-7.388-3.06l-14.629-14.629c-4.08-4.08-4.08-10.697,0-14.778  c4.081-4.08,10.696-4.08,14.778,0l14.629,14.629c4.08,4.08,4.08,10.697,0,14.778C189.25,258.115,186.577,259.135,183.902,259.135z"/>
<path d="M404.723,147.459c-2.675,0-5.348-1.02-7.388-3.061l-14.629-14.629c-4.08-4.08-4.08-10.697,0-14.778  c4.081-4.08,10.696-4.08,14.778,0l14.629,14.629c4.08,4.08,4.08,10.697,0,14.778C410.071,146.438,407.398,147.459,404.723,147.459z"/>
<path d="M356.531,80.457c-2.675,0-5.348-1.02-7.388-3.061c-4.08-4.08-4.08-10.697,0-14.778l14.629-14.629  c4.081-4.08,10.696-4.08,14.778,0c4.08,4.08,4.08,10.697,0,14.778L363.92,77.397C361.878,79.437,359.206,80.457,356.531,80.457z"/>
<path d="M328.318,259.135c-2.675,0-5.348-1.02-7.388-3.06c-4.08-4.08-4.08-10.697,0-14.778l14.629-14.629  c4.081-4.08,10.696-4.08,14.778,0c4.08,4.08,4.08,10.697,0,14.778l-14.629,14.629C333.666,258.115,330.993,259.135,328.318,259.135z  "/>
<g>
</g>
<g>
</g>
<g>
</g>
<g>
</g>
<g>
</g>
<g>
</g>
<g>
</g>
<g>
</g>
<g>
</g>
<g>
</g>
<g>
</g>
<g>
</g>
<g>
</g>
<g>
</g>
<g>
</g>
</svg>
