<?xml version="1.0" encoding="iso-8859-1"?>
<!-- Generator: Adobe Illustrator 19.0.0, SVG Export Plug-In . SVG Version: 6.00 Build 0)  -->
<svg xmlns="http://www.w3.org/2000/svg" xmlns:xlink="http://www.w3.org/1999/xlink" version="1.1" id="Layer_1" x="0px" y="0px" viewBox="0 0 511.999 511.999" style="enable-background:new 0 0 511.999 511.999;" xml:space="preserve">
<circle style="fill:#FF7DBE;" cx="255.999" cy="174.746" r="164.378"/>
<path style="fill:#BF4F28;" d="M420.375,174.745C420.375,83.963,346.781,10.37,256,10.37S91.623,83.962,91.623,174.745  c0,31.643,8.95,61.192,24.443,86.269c19.519-9.025,31.699-26.62,58.173-26.62c35.601,0,44.122,31.832,81.855,31.832  s43.516-31.832,81.856-31.832h0.082c26.379,0,38.568,17.466,57.963,26.52C411.45,235.857,420.375,206.345,420.375,174.745z"/>
<path style="fill:#FFDF9F;" d="M274.947,340.609v142.31c0,10.247-8.465,18.63-18.811,18.63l0,0c-10.346,0-18.811-8.384-18.811-18.63  v-142.31H274.947z"/>
<circle style="fill:#FFFFFF;" cx="187.986" cy="104.423" r="28.217"/>
<circle style="fill:#BA40CC;" cx="255.946" cy="174.746" r="28.217"/>
<circle style="fill:#9AE523;" cx="119.837" cy="174.746" r="28.217"/>
<circle style="fill:#3FD0FC;" cx="392.16" cy="174.746" r="28.217"/>
<circle style="fill:#FFA1D5;" cx="325.37" cy="104.423" r="28.217"/>
<path d="M316.721,278.986c-19.758,11.482-42.353,17.062-65.333,16.124c-5.74-0.234-10.631,4.25-10.866,10.018  c-0.234,5.767,4.25,10.631,10.018,10.866c1.939,0.078,3.875,0.118,5.807,0.118c24.952,0,49.341-6.54,70.875-19.055  c4.99-2.9,6.684-9.297,3.785-14.286C328.108,277.78,321.71,276.086,316.721,278.986z"/>
<path d="M341.409,259.961l-0.097,0.097c-4.081,4.081-4.081,10.698,0,14.78c2.041,2.041,4.715,3.061,7.39,3.061s5.35-1.02,7.39-3.061  l0.097-0.097c4.081-4.081,4.081-10.698,0-14.78C352.107,255.879,345.49,255.879,341.409,259.961z"/>
<path d="M379.621,51.123c-68.164-68.164-179.077-68.163-247.242,0c-68.164,68.164-68.164,179.076,0,247.242l0,0  c26.664,26.663,59.868,42.895,94.496,48.699v135.854c0,16.035,13.127,29.081,29.262,29.081c16.135,0,29.262-13.046,29.262-29.081  v-135.9c34.529-5.843,67.629-22.06,94.223-48.654C447.785,230.2,447.785,119.288,379.621,51.123z M409.83,176.572  c-0.918,8.942-8.492,15.939-17.672,15.939c-9.796,0-17.766-7.97-17.766-17.766c0-9.796,7.97-17.766,17.766-17.766  c9.18,0,16.755,6.998,17.672,15.939C409.845,174.136,409.845,175.353,409.83,176.572z M147.158,65.903  c60.017-60.016,157.669-60.015,217.683,0c20.735,20.735,34.302,45.964,40.71,72.58c-4.165-1.554-8.673-2.407-13.391-2.407  c-21.321,0-38.667,17.346-38.667,38.667s17.346,38.667,38.667,38.667c4.719,0,9.228-0.853,13.391-2.407  c-2.965,12.317-7.465,24.336-13.498,35.752c-2.546-1.625-5.073-3.376-7.677-5.185c-11.895-8.263-25.378-17.629-46.424-17.629  c-22.642,0-35.811,9.567-47.429,18.007c-10.211,7.418-19.031,13.825-34.427,13.825c-15.829,0-25.27-6.652-36.2-14.355  c-11.625-8.191-24.8-17.477-45.656-17.477c-20.964,0-34.445,9.366-46.34,17.63c-2.672,1.856-5.266,3.654-7.882,5.315  c-6.069-11.455-10.594-23.519-13.57-35.885c4.163,1.555,8.672,2.409,13.393,2.409c21.321,0,38.667-17.346,38.667-38.667  s-17.346-38.667-38.667-38.667c-4.721,0-9.23,0.854-13.393,2.409C112.855,111.868,126.422,86.64,147.158,65.903z M102.168,172.917  c0.918-8.941,8.492-15.938,17.672-15.938c9.796,0,17.766,7.97,17.766,17.766c0,9.796-7.97,17.766-17.766,17.766  c-9.18,0-16.755-6.998-17.672-15.938C102.154,175.353,102.154,174.136,102.168,172.917z M264.496,482.919  c0,4.51-3.751,8.18-8.361,8.18c-4.61,0-8.361-3.669-8.361-8.18V349.295c2.74,0.128,5.481,0.193,8.224,0.193  c2.833,0,5.666-0.07,8.497-0.206V482.919z M147.158,283.586c-5.965-5.966-11.329-12.309-16.108-18.944  c3.044-1.928,5.937-3.933,8.774-5.904c10.732-7.456,19.998-13.894,34.415-13.894c14.23,0,23.213,6.331,33.617,13.661  c12.086,8.516,25.786,18.171,48.239,18.171c22.186,0,35.216-9.465,46.71-17.815c10.352-7.52,19.293-14.015,35.227-14.015  c14.417,0,23.686,6.439,34.418,13.894c2.777,1.929,5.609,3.891,8.585,5.782c-4.801,6.68-10.193,13.063-16.194,19.065  C304.826,343.602,207.175,343.603,147.158,283.586z"/>
<path d="M187.988,143.092c21.321,0,38.667-17.346,38.667-38.667s-17.346-38.667-38.667-38.667s-38.667,17.346-38.667,38.667  S166.666,143.092,187.988,143.092z M187.988,86.658c9.796,0,17.766,7.97,17.766,17.766s-7.97,17.766-17.766,17.766  s-17.766-7.97-17.766-17.766S178.191,86.658,187.988,86.658z"/>
<path d="M255.944,213.411c21.321,0,38.667-17.346,38.667-38.667s-17.346-38.667-38.667-38.667s-38.667,17.346-38.667,38.667  S234.623,213.411,255.944,213.411z M255.944,156.978c9.796,0,17.766,7.97,17.766,17.766c0,9.796-7.97,17.766-17.766,17.766  c-9.796,0-17.766-7.97-17.766-17.766C238.178,164.947,246.148,156.978,255.944,156.978z"/>
<path d="M325.374,143.092c21.321,0,38.667-17.346,38.667-38.667s-17.346-38.667-38.667-38.667s-38.667,17.346-38.667,38.667  S304.053,143.092,325.374,143.092z M325.374,86.658c9.796,0,17.766,7.97,17.766,17.766s-7.97,17.766-17.766,17.766  s-17.766-7.97-17.766-17.766S315.578,86.658,325.374,86.658z"/>
<g>
</g>
<g>
</g>
<g>
</g>
<g>
</g>
<g>
</g>
<g>
</g>
<g>
</g>
<g>
</g>
<g>
</g>
<g>
</g>
<g>
</g>
<g>
</g>
<g>
</g>
<g>
</g>
<g>
</g>
</svg>
