<?xml version="1.0" encoding="iso-8859-1"?>
<!-- Generator: Adobe Illustrator 19.0.0, SVG Export Plug-In . SVG Version: 6.00 Build 0)  -->
<svg xmlns="http://www.w3.org/2000/svg" xmlns:xlink="http://www.w3.org/1999/xlink" version="1.1" id="Layer_1" x="0px" y="0px" viewBox="0 0 512 512" style="enable-background:new 0 0 512 512;" xml:space="preserve">
<path style="fill:#0092E0;" d="M320.938,212.114H54.335c-24.237,0-43.886,19.648-43.886,43.886l0,0  c0,24.237,19.648,43.886,43.886,43.886h403.331c24.237,0,43.886-19.648,43.886-43.886l0,0c0-24.237-19.648-43.886-43.886-43.886  h-67.918H320.938z"/>
<g>
	<path style="fill:#3FD0FC;" d="M42.841,212.691v-18.52c0-63.956,55.202-115.804,123.298-115.804h179.722   c68.096,0,123.298,51.848,123.298,115.805v18.52H42.841V212.691z"/>
	<path style="fill:#3FD0FC;" d="M469.159,299.309v18.52c0,63.956-55.202,115.804-123.298,115.804H166.139   c-68.096,0-123.298-51.848-123.298-115.805v-18.52h426.318V299.309z"/>
</g>
<path d="M354.88,222.563h-0.137c-5.77,0-10.449-4.678-10.449-10.449s4.679-10.449,10.449-10.449h0.137  c5.77,0,10.449,4.678,10.449,10.449S360.65,222.563,354.88,222.563z"/>
<path d="M235.588,178.678h-0.138c-5.77,0-10.449-4.678-10.449-10.449s4.679-10.449,10.449-10.449h0.138  c5.77,0,10.449,4.678,10.449,10.449S241.358,178.678,235.588,178.678z"/>
<path d="M276.55,354.22h-0.138c-5.77,0-10.449-4.678-10.449-10.449c0-5.771,4.679-10.449,10.449-10.449h0.138  c5.77,0,10.449,4.678,10.449,10.449C286.999,349.542,282.32,354.22,276.55,354.22z"/>
<path d="M479.608,206.31v-12.139c0-69.615-59.999-126.253-133.747-126.253H166.139c-73.748,0-133.747,56.638-133.747,126.254v12.139  C13.334,214.76,0,233.846,0,256s13.334,41.24,32.392,49.69v12.139c0,69.615,59.999,126.253,133.747,126.253h179.722  c73.748,0,133.747-56.638,133.747-126.254v-12.139C498.666,297.24,512,278.153,512,255.999S498.666,214.76,479.608,206.31z   M345.861,423.184H166.139c-62.226,0-112.849-47.262-112.849-105.356v-7.52c0.349,0.006,0.695,0.026,1.045,0.026h403.331  c0.35,0,0.696-0.02,1.045-0.026v7.52c0,5.263-0.421,10.436-1.223,15.495H310.355c-5.77,0-10.449,4.678-10.449,10.449  c0,5.771,4.679,10.449,10.449,10.449h141.413C435.863,394.434,394.393,423.184,345.861,423.184z M457.665,289.437H54.335  c-18.437,0-33.437-15-33.437-33.437s15-33.437,33.437-33.437h266.604c5.77,0,10.449-4.678,10.449-10.449  s-4.679-10.449-10.449-10.449H54.335c-0.35,0-0.696,0.02-1.045,0.026v-7.52c0-5.263,0.421-10.436,1.224-15.495h147.133  c5.77,0,10.449-4.678,10.449-10.449s-4.679-10.449-10.449-10.449H60.232c15.904-40.213,57.375-68.962,105.907-68.962h179.722  c62.226,0,112.849,47.262,112.849,105.356v7.52c-0.349-0.006-0.695-0.026-1.045-0.026h-67.918c-5.77,0-10.449,4.678-10.449,10.449  s4.679,10.449,10.449,10.449h67.918c18.437,0,33.437,14.999,33.437,33.437S476.103,289.437,457.665,289.437z"/>
<g>
</g>
<g>
</g>
<g>
</g>
<g>
</g>
<g>
</g>
<g>
</g>
<g>
</g>
<g>
</g>
<g>
</g>
<g>
</g>
<g>
</g>
<g>
</g>
<g>
</g>
<g>
</g>
<g>
</g>
</svg>
