<svg id="Layer_1" enable-background="new 0 0 512.224 512.224" height="512" viewBox="0 0 512.224 512.224" width="512" xmlns="http://www.w3.org/2000/svg"><g><g><path d="m125.712 277.475h184.941v33.133h-184.941z" fill="#f9f6f6" transform="matrix(.707 -.707 .707 .707 -144.015 240.401)"/><path d="m330.89 216.477-29.286 29.286c-3.235 3.235-8.48 3.235-11.714 0l-23.429-23.429c-3.235-3.235-3.235-8.48 0-11.714l29.286-29.286z" fill="#f4d844"/><path d="m227.222 160.762 60.684-42.916c2.226-1.574 3.535-4.143 3.5-6.869l-.899-70.362 16.816-16.554 62.754 46.831c2.185 1.631 5.032 2.081 7.614 1.206l71.4-24.213 15.246 15.245-24.213 71.401c-.875 2.582-.424 5.429 1.206 7.614l46.831 62.755-16.554 16.816-70.362-.899c-2.726-.035-5.295 1.274-6.869 3.5l-42.915 60.683-23.193-6.618-21.1-67.878c-.809-2.603-2.848-4.642-5.451-5.451l-67.878-21.1" fill="#e9a6c5"/><g><g><g><path d="m347.077 70.893c2.185 1.631 5.032 2.081 7.614 1.206l11.69-3.964-59.058-44.073-9.917 9.763z" fill="#e07fa6"/></g><g><path d="m378.246 220.818c-2.726-.035-5.295 1.274-6.869 3.5l-39.053 55.222 19.138 5.461 42.915-60.683c1.148-1.623 2.828-2.751 4.709-3.233z" fill="#e07fa6"/></g><g><path d="m441.33 142.147c-1.63-2.185-2.081-5.032-1.206-7.614l24.213-71.401-15.246-15.245-2.92.99-29.047 85.656c-.875 2.582-.424 5.429 1.206 7.614l56.748 76.044 13.083-13.29z" fill="#e07fa6"/></g></g></g><path d="m404.077 113.399-8.509 25.093c-.438 1.291-.212 2.715.603 3.807l15.847 21.236c2.053 2.751.06 6.662-3.372 6.618l-26.495-.339c-1.363-.017-2.647.637-3.434 1.75l-15.299 21.634c-1.982 2.803-6.318 2.116-7.336-1.162l-7.865-25.303c-.405-1.302-1.424-2.321-2.726-2.726l-25.303-7.865c-3.278-1.019-3.965-5.354-1.162-7.337l21.634-15.299c1.113-.787 1.767-2.071 1.75-3.434l-.339-26.495c-.044-3.432 3.867-5.425 6.618-3.372l21.236 15.847c1.092.815 2.516 1.041 3.807.603l25.093-8.509c3.251-1.102 6.354 2.002 5.252 5.253z" fill="#f4d844"/><path d="m359.151 169.815c-1.363-.017-2.647.637-3.435 1.75l-4.167 5.893 4.532 14.579c1.019 3.278 5.354 3.965 7.336 1.162l15.299-21.634c.481-.68 1.149-1.186 1.906-1.475z" fill="#edbd2d"/><path d="m412.018 163.535-15.847-21.236c-.815-1.092-1.041-2.516-.603-3.807l8.509-25.093c1.102-3.251-2.001-6.355-5.252-5.252l-18.041 6.118-8.216 24.228c-.438 1.291-.212 2.715.603 3.807l15.847 21.236c1.722 2.308.592 5.423-1.841 6.344l21.469.274c3.432.043 5.425-3.868 3.372-6.619z" fill="#edbd2d"/><g fill="#f4d844"><circle cx="465.605" cy="46.618" r="16.567"/><circle cx="219.603" cy="175.476" r="16.567"/><circle cx="336.747" cy="292.62" r="16.567"/><circle cx="290.756" cy="24.055" r="16.567"/><circle cx="488.168" cy="221.468" r="16.567"/><path d="m112.33 364.75 22.43-22.43c3.235-3.235 8.479-3.235 11.714 0l23.429 23.429c3.235 3.235 3.235 8.48 0 11.714l-22.43 22.43z"/></g><path d="m36.417 500.037-24.23-24.23c-6.248-6.248-6.248-16.379 0-22.627l93.488-93.488c3.124-3.124 8.19-3.124 11.314 0l35.544 35.544c3.124 3.124 3.124 8.189 0 11.314l-93.488 93.488c-6.249 6.247-16.38 6.247-22.628-.001z" fill="#e9a6c5"/><path d="m152.532 395.236-35.544-35.544c-3.124-3.124-8.19-3.124-11.314 0l-5.844 5.844 29.7 29.7c3.124 3.124 3.124 8.189 0 11.314l-93.3 93.3.187.187c6.248 6.248 16.379 6.248 22.627 0l93.488-93.488c3.124-3.124 3.124-8.189 0-11.313z" fill="#e07fa6"/></g><g><path d="m403.237 139.228 7.942-23.421v-.001c1.433-4.227.362-8.813-2.793-11.97-3.155-3.155-7.743-4.226-11.971-2.793l-23.421 7.942-19.821-14.791c-3.577-2.671-8.27-3.07-12.248-1.043-3.978 2.026-6.413 6.058-6.356 10.521l.316 24.729-20.192 14.28c-3.645 2.577-5.475 6.917-4.777 11.326s3.78 7.971 8.043 9.296l23.617 7.341 7.341 23.617c1.325 4.263 4.887 7.344 9.296 8.042.621.098 1.241.146 1.854.146 3.742 0 7.257-1.792 9.471-4.923l14.28-20.192 24.729.316c4.505.031 8.496-2.378 10.522-6.356 2.026-3.977 1.627-8.67-1.043-12.247zm-20.989 23.087c-3.872-.045-7.443 1.79-9.655 4.919l-11.37 16.078-5.846-18.806c-1.138-3.659-4.001-6.522-7.661-7.661l-18.805-5.845 16.077-11.37c3.13-2.213 4.969-5.822 4.92-9.654l-.251-19.69 15.783 11.778c3.07 2.291 7.07 2.924 10.701 1.694l18.649-6.324-6.325 18.65c-1.23 3.629-.596 7.628 1.695 10.7l11.777 15.782z"/><path d="m505.186 204.451c-3.665-3.665-8.229-5.878-12.988-6.68l-44.857-60.11c-.154-.207-.196-.476-.114-.72l22.603-66.654c4.688-.83 9.178-3.037 12.793-6.652 9.384-9.383 9.384-24.652 0-34.035-9.384-9.384-24.651-9.384-34.035 0-3.615 3.615-5.822 8.105-6.652 12.793l-66.653 22.602c-.245.085-.514.041-.721-.114l-60.109-44.857c-.802-4.759-3.015-9.323-6.68-12.988-9.382-9.384-24.651-9.382-34.035 0-9.384 9.384-9.384 24.652 0 34.036 2.673 2.673 5.866 4.633 9.348 5.8l.82 64.201c.003.257-.12.5-.331.648l-57.427 40.612c-8.112-2.28-17.192-.247-23.563 6.124-9.384 9.383-9.384 24.652 0 34.035 4.692 4.692 10.854 7.038 17.018 7.038 6.101 0 12.197-2.307 16.87-6.905l28.511 8.863-3.827 3.827c-4.236 4.236-5.555 10.299-3.96 15.674l-112.066 112.068c-5.375-1.595-11.439-.276-15.674 3.96l-13.526 13.526c-1.471-.455-3.016-.695-4.599-.695-4.14 0-8.033 1.612-10.96 4.54l-93.489 93.488c-4.438 4.438-6.883 10.34-6.883 16.617s2.445 12.179 6.883 16.617l24.23 24.23c4.439 4.438 10.34 6.883 16.617 6.883s12.179-2.445 16.617-6.883l93.488-93.488c2.928-2.927 4.54-6.82 4.54-10.96 0-1.583-.24-3.129-.695-4.599l13.526-13.526c4.235-4.236 5.555-10.299 3.96-15.674l112.066-112.066c1.471.436 2.992.655 4.514.655 4.042 0 8.084-1.539 11.161-4.616l3.827-3.827 8.862 28.511c-9.243 9.395-9.204 24.552.133 33.888 4.692 4.692 10.854 7.038 17.018 7.038 6.163 0 12.326-2.346 17.018-7.038 6.371-6.37 8.403-15.451 6.124-23.563l40.612-57.427c.149-.211.388-.325.65-.331l64.2.82c1.167 3.482 3.127 6.676 5.8 9.348 4.692 4.692 10.855 7.038 17.018 7.038s12.326-2.346 17.018-7.038c9.382-9.383 9.382-24.651-.001-34.034zm-45.992-164.244c1.768-1.768 4.089-2.651 6.411-2.651s4.644.884 6.411 2.651c3.535 3.535 3.535 9.287 0 12.822s-9.287 3.535-12.822 0-3.535-9.287 0-12.822zm-174.85-22.563c1.768-1.768 4.089-2.651 6.411-2.651s4.644.884 6.411 2.651c3.535 3.535 3.535 9.288 0 12.823-1.712 1.712-3.989 2.656-6.411 2.656s-4.699-.943-6.411-2.656c-3.535-3.535-3.535-9.288 0-12.823zm-58.33 164.244c-3.535 3.535-9.287 3.535-12.822 0s-3.535-9.287 0-12.822c1.768-1.768 4.089-2.651 6.411-2.651s4.644.884 6.411 2.651c3.535 3.534 3.535 9.286 0 12.822zm-68.933 160.433 85.951-85.951 12.822 12.823-85.951 85.951zm-109.351 154.903c-2.271 0-4.405-.884-6.011-2.49l-24.23-24.23c-1.606-1.605-2.49-3.74-2.49-6.011 0-2.27.884-4.405 2.49-6.01l6.812-6.812 36.251 36.251-6.812 6.812c-1.605 1.605-3.739 2.49-6.01 2.49zm99.499-95.978-76.07 76.069-36.251-36.251 76.069-76.069c.098-.097.226-.146.354-.146s.256.049.354.146l35.544 35.544c.194.195.194.512 0 .707zm17.371-29.085-12.268 12.268-24.537-24.537 12.269-12.268c.306-.305.803-.306 1.108 0l23.429 23.429c.304.305.304.802-.001 1.108zm101.861-113.575-12.823-12.823 12.822-12.823 12.823 12.823zm29.84-18.126c-.305.306-.802.307-1.108 0l-23.429-23.429c-.305-.306-.305-.802 0-1.108l9.404-9.403 18.326 5.696c.246.077.438.269.515.515l5.696 18.325zm46.857 58.572c-3.535 3.535-9.287 3.535-12.822 0s-3.535-9.287 0-12.822c1.768-1.768 4.089-2.651 6.411-2.651s4.644.884 6.411 2.651c3.535 3.535 3.535 9.286 0 12.822zm45.095-79.045-37.532 53.072c-5.184-3.706-11.504-5.105-17.559-4.2l-18.831-60.579c-1.542-4.962-5.425-8.846-10.387-10.388l-60.58-18.831c.905-6.055-.494-12.375-4.2-17.559l53.073-37.533c4.242-3 6.735-7.894 6.668-13.087l-.816-63.898c3.613-1.151 6.926-3.153 9.684-5.911 1.421-1.421 2.6-2.988 3.59-4.638l54.228 40.468c2.764 2.063 6.081 3.135 9.44 3.135 1.702 0 3.414-.275 5.069-.836l64.046-21.718c1.121 2.218 2.592 4.302 4.442 6.153 1.85 1.85 3.935 3.322 6.153 4.442l-21.719 64.046c-1.668 4.921-.809 10.345 2.298 14.508l40.468 54.228c-1.65.99-3.217 2.169-4.637 3.59-2.759 2.759-4.76 6.071-5.911 9.685l-63.897-.816c-5.24-.08-10.089 2.424-13.09 6.667zm106.327 7.892c-3.535 3.535-9.287 3.536-12.823 0-1.712-1.712-2.656-3.989-2.656-6.411s.943-4.699 2.656-6.411c1.768-1.768 4.089-2.651 6.411-2.651s4.644.884 6.412 2.651c3.534 3.535 3.534 9.287 0 12.822z"/></g></g></svg>