<svg id="Filled" height="512" viewBox="0 0 512 512" width="512" xmlns="http://www.w3.org/2000/svg"><path d="m176 232h160v48h-160z" fill="#dec867"/><path d="m336 240h-160s-40-72-24-144 88-72 104-72 88 0 104 72-24 144-24 144z" fill="#f3db70"/><path d="m336 272h-160s-40 72-24 144 88 72 104 72 88 0 104-72-24-144-24-144z" fill="#f3db70"/><path d="m224 240h64v32h-64z" fill="#ebd46c"/><path d="m200 208h112c14.55-33.39 19.615-65.993 13.4-97.658a47.8 47.8 0 0 0 -47.022-38.342h-45.178a47.813 47.813 0 0 0 -47.195 39.232c-4.993 28.228-.83 60.276 13.995 96.768z" fill="#e8edf1"/><path d="m200 336h112a16 16 0 0 1 16 16v16a0 0 0 0 1 0 0h-144a0 0 0 0 1 0 0v-16a16 16 0 0 1 16-16z" fill="#d9dbdd"/><path d="m184 368h144v32h-144z" fill="#c2c5c6"/><path d="m184 400h144a0 0 0 0 1 0 0v16a16 16 0 0 1 -16 16h-112a16 16 0 0 1 -16-16v-16a0 0 0 0 1 0 0z" fill="#d9dbdd"/><g fill="#c2c5c6"><path d="m232 400h48v32h-48z"/><rect height="32" rx="16" width="48" x="272" y="304"/><rect height="32" rx="16" width="48" x="192" y="304"/></g><path d="m284.366 153.308-28.366 22.692-28.366-22.692a18.431 18.431 0 0 1 -4.971-22.634 18.43 18.43 0 0 1 26.708-7.093l6.629 4.419 6.629-4.419a18.43 18.43 0 0 1 26.708 7.093 18.431 18.431 0 0 1 -4.971 22.634z" fill="#e74444"/><path d="m232 368h48v32h-48z" fill="#d9dbdd"/><path d="m232 336h48v32h-48z" fill="#c2c5c6"/><path d="m144.19 417.735c11.216 50.47 50.924 78.265 111.81 78.265s100.594-27.8 111.81-78.265c15.215-68.47-17.417-135.524-23.81-147.741v-27.988c6.393-12.217 39.025-79.271 23.81-147.741-11.216-50.465-50.924-78.265-111.81-78.265s-100.594 27.8-111.81 78.265c-15.215 68.47 17.417 135.524 23.81 147.741v27.988c-6.393 12.217-39.025 79.271-23.81 147.741zm208-3.47c-9.556 43.005-42.818 65.735-96.19 65.735s-86.634-22.73-96.19-65.735c-13.02-58.589 13.257-118.31 21.081-134.265h150.218c7.824 15.955 34.101 75.676 21.081 134.265zm-24.19-166.265v16h-32v-16zm-48 16h-48v-16h48zm-64 0h-32v-16h32zm-56.19-166.265c9.556-43.005 42.818-65.735 96.19-65.735s86.634 22.73 96.19 65.735c13.021 58.593-13.26 118.318-21.08 134.265h-150.219c-7.824-15.955-34.101-75.676-21.081-134.265z"/><path d="m200 216h112a8 8 0 0 0 7.334-4.805c15.562-35.712 20.243-70.162 13.914-102.394a55.862 55.862 0 0 0 -54.87-44.801h-45.178a55.683 55.683 0 0 0 -55.073 45.838c-5.363 30.312-.5 64.352 14.458 101.173a8 8 0 0 0 7.415 4.989zm-6.114-103.374a39.7 39.7 0 0 1 39.314-32.626h45.175a39.83 39.83 0 0 1 39.17 31.883c5.411 27.558 1.758 57.18-10.856 88.117h-101.246c-12.262-32.043-16.151-61.415-11.557-87.374z"/><path d="m324.9 331.777a23.982 23.982 0 0 0 -20.9-35.777h-16a23.992 23.992 0 0 0 -22.624 32h-18.752a23.992 23.992 0 0 0 -22.624-32h-16a23.982 23.982 0 0 0 -20.9 35.777 24 24 0 0 0 -11.1 20.223v64a24.028 24.028 0 0 0 24 24h112a24.028 24.028 0 0 0 24-24v-64a24 24 0 0 0 -11.1-20.223zm-84.9 60.223v-16h32v16zm32 16v16h-32v-16zm-72-64h24v16h-32v-8a8.009 8.009 0 0 1 8-8zm40 0h32v16h-32zm-16 32v16h-32v-16zm64 0h32v16h-32zm0-16v-16h24a8.009 8.009 0 0 1 8 8v8zm-8-40a8.009 8.009 0 0 1 8-8h16a8 8 0 0 1 0 16h-16a8.009 8.009 0 0 1 -8-8zm-72-8h16a8 8 0 0 1 0 16h-16a8 8 0 0 1 0-16zm-16 104v-8h32v16h-24a8.009 8.009 0 0 1 -8-8zm120 8h-24v-16h32v8a8.009 8.009 0 0 1 -8 8z"/><path d="m256 184a7.984 7.984 0 0 1 -5-1.753l-27.92-22.337a26.924 26.924 0 0 1 -9.708-26.855 26.434 26.434 0 0 1 40.437-16.13l2.157 1.438a.06.06 0 0 0 .068 0l2.157-1.438a26.43 26.43 0 0 1 31.171 42.63l-28.362 22.692a7.984 7.984 0 0 1 -5 1.753zm-16.812-55.524a10.578 10.578 0 0 0 -2.717.359 10.3 10.3 0 0 0 -6.635 5.381 10.7 10.7 0 0 0 3.074 13.067l23.052 18.441a.06.06 0 0 0 .076 0l23.329-18.663a10.484 10.484 0 0 0 2.814-12.809 10.339 10.339 0 0 0 -7.644-5.632 10.765 10.765 0 0 0 -7.729 1.789l-6.337 4.225a8.063 8.063 0 0 1 -8.944 0l-6.594-4.4a10.305 10.305 0 0 0 -5.745-1.758z"/></svg>