<svg enable-background="new 0 0 128 128" height="512" viewBox="0 0 128 128" width="512" xmlns="http://www.w3.org/2000/svg"><g id="Mice"><path id="Tail_4_" d="m97 117.5c-.5 0-1.1-.3-1.3-.8-.4-.7-.1-1.6.7-2 3.9-1.9 9.8-5.8 10.2-7.9.1-.4-.2-1.4-1.2-2.1-1.8-1.2-4.9-.6-8.5 1.6-10.5 6.6-15.7 1.5-15.9 1.3-.6-.6-.6-1.5 0-2.1s1.5-.6 2.1 0c.2.2 3.9 3.5 12.1-1.7 6.4-4 10.1-2.7 11.8-1.6 2 1.4 2.8 3.6 2.5 5.1-.8 4.4-10 9.2-11.8 10.1-.2 0-.5.1-.7.1z"/><g id="Body_7_"><path d="m81.1 94.5c-1.1-3.7-4-4-4-4s-6.4-1.2-12.8-1.3c-.2 0-.4 0-.6 0s-.4 0-.6 0c-6.3.1-12.8 1.3-12.8 1.3s-2.9.3-4 4c-2.3 8.1-1.9 23.1 6 23 2.2 0 3.9-2 3.9-6.2 2 .7 4.4 1.2 7.1 1.2 3 0 5.8-.6 7.9-1.5-.1 4.4 1.6 6.5 3.9 6.5 7.9.1 8.4-14.9 6-23z" fill="#b3b3b3"/><path d="m62.1 102.5c7.3 0 14.1-1.2 19.9-3.6-.2-1.6-.5-3.1-.9-4.4-1.1-3.7-4-4-4-4s-6.4-1.2-12.8-1.3c-.2 0-.4 0-.6 0s-.4 0-.6 0c-6.3.1-12.8 1.3-12.8 1.3s-2.9.3-4 4c-.5 1.6-.8 3.5-1 5.5 5.1 1.7 10.8 2.5 16.8 2.5z" fill="#999"/><path d="m82.6 94.1c-1.2-4.3-4.6-5-5.2-5.1-.5-.1-6.6-1.2-12.8-1.3-.1 0-.1 0-.2 0h-.6-.7c-.1 0-.1 0-.2 0-6.2.1-12.2 1.2-12.8 1.3s-4 .8-5.2 5.1c-1.7 5.8-2.3 16.8 1.7 22 1.4 1.9 3.4 2.9 5.7 2.9h.1c1.5 0 2.9-.7 3.9-2 .6-.8 1.2-2 1.4-3.7 1.7.4 3.7.7 5.7.7 2.4 0 4.6-.3 6.5-.9.2 1.8.8 3.1 1.4 3.9.9 1.2 2.3 1.9 3.9 2h.1c2.3 0 4.2-1 5.7-2.9 3.8-5.3 3.2-16.2 1.6-22zm-4.1 20.2c-.9 1.2-2 1.7-3.3 1.7-.6 0-1.1-.3-1.5-.8-.3-.4-.8-1.4-.9-3.2 0-.5 0-1.1 0-1.7 0-.3.1-.6.1-.9 0-.1 0-.1 0-.2 0-.2.1-.4.1-.6.1-.8.3-1.7.6-2.7.1-.3.1-.5 0-.8v-.1c0-.1-.1-.3-.2-.4 0 0 0 0 0-.1s-.1-.1-.1-.1 0-.1-.1-.1c-.2-.1-.3-.2-.6-.3h-.1c-.1 0-.2 0-.2 0h-.2c-.6.1-1.1.5-1.2 1.1-.5 1.9-.8 3.5-.9 4.9-1.8.6-4 1-6.4 1-2.1 0-4-.3-5.7-.8-.1-1.4-.4-3.1-.9-5.1-.2-.8-1-1.3-1.8-1.1s-1.3 1-1.1 1.8c.3 1.1.5 2.1.6 2.9.1.7.2 1.4.2 2v.8.1.7c-.1 1.6-.6 2.5-.9 2.9-.4.5-.9.8-1.5.8-1.4 0-2.4-.5-3.3-1.7-2.9-3.8-3-13.3-1.2-19.4.7-2.6 2.5-2.9 2.7-2.9h.1c.1 0 6.4-1.1 12.5-1.3h.1.5.4.1c6.1.1 12.4 1.3 12.6 1.3s2 .3 2.7 2.9c1.7 6.1 1.7 15.5-1.2 19.4z"/></g><g id="Head_15_"><g id="Ear_4_"><g><circle cx="90" cy="30.5" fill="#b3b3b3" r="21"/><path d="m90 53c-12.4 0-22.5-10.1-22.5-22.5s10.1-22.5 22.5-22.5 22.5 10.1 22.5 22.5-10.1 22.5-22.5 22.5zm0-42c-10.8 0-19.5 8.7-19.5 19.5s8.7 19.5 19.5 19.5 19.5-8.7 19.5-19.5-8.7-19.5-19.5-19.5z"/><circle cx="90" cy="30.5" fill="#ffd0dc" r="13"/><path d="m90 45c-8 0-14.5-6.5-14.5-14.5s6.5-14.5 14.5-14.5 14.5 6.5 14.5 14.5-6.5 14.5-14.5 14.5zm0-26c-6.3 0-11.5 5.2-11.5 11.5s5.2 11.5 11.5 11.5 11.5-5.2 11.5-11.5-5.2-11.5-11.5-11.5z"/></g><g><circle cx="36.5" cy="30.5" fill="#b3b3b3" r="21"/><path d="m36.5 53c-12.4 0-22.5-10.1-22.5-22.5s10.1-22.5 22.5-22.5 22.5 10.1 22.5 22.5-10.1 22.5-22.5 22.5zm0-42c-10.8 0-19.5 8.7-19.5 19.5s8.7 19.5 19.5 19.5 19.5-8.7 19.5-19.5-8.7-19.5-19.5-19.5z"/><circle cx="36.5" cy="30.5" fill="#ffd0dc" r="13"/><path d="m36.5 45c-8 0-14.5-6.5-14.5-14.5s6.5-14.5 14.5-14.5 14.5 6.5 14.5 14.5-6.5 14.5-14.5 14.5zm0-26c-6.3 0-11.5 5.2-11.5 11.5s5.2 11.5 11.5 11.5 11.5-5.2 11.5-11.5-5.2-11.5-11.5-11.5z"/></g></g><g id="Head_4_"><path d="m105.5 65.5c0-5.6-1.7-10.6-4.3-14.3-2.8-12.9-10-24.9-24.9-29.1-2-.6-4.2-1-6.5-1.3-.9-.1-1.8-.2-2.8-.2-1-.1-2.1-.1-3.2-.1s-2.2 0-3.2.1-1.9.1-2.8.2c-2.3.3-4.5.7-6.5 1.3-15 4.2-22.1 16.2-24.9 29.1-2.7 3.8-4.4 8.8-4.4 14.3 0 8 3.4 14.9 8.3 18.4 6.8 9 19.2 13.6 33.4 13.6s26.6-4.5 33.5-13.5c4.9-3.6 8.3-10.5 8.3-18.5z" fill="#b3b3b3"/><path d="m97.2 79.9c-6.8 9-19.2 13.6-33.4 13.6s-26.6-4.6-33.4-13.6c-4.6-3.3-7.8-9.4-8.3-16.5-.1.8-.1 1.4-.1 2.1 0 8 3.4 14.9 8.3 18.4 6.8 9 19.2 13.6 33.4 13.6s26.6-4.5 33.5-13.5c5-3.6 8.3-10.5 8.3-18.4 0-.7 0-1.4-.1-2.1-.5 7.1-3.7 13.2-8.2 16.4z" fill="#999"/><path d="m26.3 72.8c0-5 1.5-9.5 3.9-12.9 2.6-11.5 8.9-22.3 22.4-26.1 1.8-.5 3.7-.9 5.8-1.1.8-.1 1.6-.2 2.5-.2.9-.1 1.9-.1 2.9-.1s2 0 2.9.1c.9 0 1.7.1 2.5.2 2.1.2 4 .6 5.8 1.1 13.3 3.9 19.7 14.6 22.3 26.2 2.4 3.4 3.9 7.9 3.9 12.9 0 3.4-.7 6.6-1.9 9.3 3.8-3.8 6.2-9.9 6.2-16.6 0-5.6-1.7-10.6-4.3-14.3-2.8-12.9-10-24.9-24.9-29.1-2-.6-4.2-1-6.5-1.3-.9-.1-1.8-.2-2.8-.2-1-.1-2.1-.1-3.2-.1s-2.2 0-3.2.1-1.9.1-2.8.2c-2.3.3-4.5.7-6.5 1.3-15 4.2-22.1 16.2-24.9 29.1-2.7 3.7-4.4 8.7-4.4 14.2 0 6.8 2.4 12.8 6.2 16.6-1.2-2.7-1.9-5.9-1.9-9.3z" fill="#ccc"/><path d="m78 79.5c0-6.6-6.3-12-14.2-12-7.8 0-14.2 5.4-14.2 12 0 5.4 4.3 14.8 10.1 18 1.3.1 2.6.1 3.9.1 1.4 0 2.8-.1 4.1-.1 6-3.3 10.3-12.6 10.3-18z" fill="#ccc"/><path d="m63.8 99c-15 0-27.6-5.1-34.5-14-5.4-4-8.8-11.5-8.8-19.5 0-5.5 1.6-10.8 4.4-15 3.6-15.8 12.5-26.1 25.9-29.9 2.1-.6 4.4-1 6.7-1.3.9-.1 1.9-.2 2.9-.2 1-.1 2.1-.1 3.3-.1s2.3 0 3.3.1 1.9.1 2.9.2c2.3.3 4.6.7 6.7 1.3 13.4 3.9 22.4 14.2 26 30 2.9 4.1 4.4 9.4 4.4 15 0 8.1-3.4 15.5-8.8 19.5-6.9 8.9-19.4 13.9-34.4 13.9zm0-77c-1.1 0-2.1 0-3.1.1-.9 0-1.8.1-2.7.2-2.2.3-4.3.7-6.2 1.2-15.6 4.4-21.6 17.6-23.9 28 0 .2-.1.4-.2.5-2.6 3.7-4.1 8.4-4.1 13.5 0 7.2 3 13.8 7.7 17.2.1.1.2.2.3.3 6.3 8.2 18 13 32.2 13s25.9-4.7 32.2-13l.3-.3c4.8-3.4 7.7-10 7.7-17.2 0-5-1.4-9.8-4.1-13.5-.1-.2-.2-.4-.2-.5-2.3-10.3-8.3-23.6-23.9-28-2-.6-4.1-1-6.2-1.2-.9-.1-1.8-.2-2.7-.2-1-.1-2-.1-3.1-.1z"/></g><g id="Teeth"><path d="m64.9 93.5h-2.3c-1.3 0-2.4-1-2.6-2.3l-.8-8.7h9l-.8 8.7c-.1 1.3-1.2 2.3-2.5 2.3z" fill="#f2f2f2"/><path d="m64.9 95h-2.3c-2.1 0-3.9-1.6-4-3.7l-.8-8.7c0-.4.1-.8.4-1.1s.7-.5 1.1-.5h9c.4 0 .8.2 1.1.5s.4.7.4 1.1l-.8 8.7c-.2 2.1-2 3.7-4.1 3.7zm-4-11 .6 7c.1.6.5 1 1.1 1h2.3c.6 0 1-.4 1.1-1l.6-7z"/></g><g id="Nose_4_"><path d="m63.8 73.5c-3.8 0-6.9 2-6.9 4.4s3.1 7 6.9 7 6.9-4.5 6.9-7-3.2-4.4-6.9-4.4" fill="#ffd0dc"/><path d="m63.8 86.3c-4.6 0-8.4-5.1-8.4-8.5 0-3.3 3.7-5.9 8.4-5.9s8.4 2.6 8.4 5.9c-.1 3.4-3.8 8.5-8.4 8.5zm0-11.3c-3.2 0-5.4 1.5-5.4 2.9 0 1.7 2.5 5.5 5.4 5.5 2.8 0 5.4-3.7 5.4-5.5-.1-1.4-2.3-2.9-5.4-2.9z"/></g><g id="Eyes_4_"><circle cx="79.7" cy="69" r="3"/><circle cx="47.8" cy="69" r="3"/></g><g id="Whisker_1_"><g><path d="m85.1 77.3c-.7 0-1.3-.4-1.4-1.1-.2-.8.3-1.6 1.1-1.8.4-.1 9.9-2.6 22.8-1.5.8.1 1.4.8 1.4 1.6-.1.8-.8 1.4-1.6 1.4-12.3-1.1-21.6 1.3-21.7 1.4-.3 0-.4 0-.6 0z"/><path d="m105.2 85.4c-.1 0-.1 0-.2 0-7.4-1-19.7-.8-19.8-.8-.8 0-1.5-.7-1.5-1.5s.7-1.5 1.5-1.5c.5 0 12.6-.1 20.3.9.8.1 1.4.9 1.3 1.7-.2.6-.9 1.2-1.6 1.2z"/><path d="m102.1 94.5c-.2 0-.3 0-.5-.1-5.6-1.8-17.6-3.5-17.8-3.5-.8-.1-1.4-.9-1.3-1.7s.9-1.4 1.7-1.3c.5.1 12.4 1.8 18.2 3.6.8.3 1.2 1.1 1 1.9 0 .7-.6 1.1-1.3 1.1z"/></g><g><path d="m42.4 77.3c-.1 0-.3 0-.4-.1-.1 0-9.4-2.5-21.7-1.4-.8.1-1.6-.5-1.6-1.4-.1-.8.5-1.6 1.4-1.6 12.8-1.1 22.4 1.4 22.8 1.5.8.2 1.3 1 1.1 1.8-.4.8-1 1.2-1.6 1.2z"/><path d="m22.3 85.4c-.7 0-1.4-.5-1.5-1.3s.5-1.6 1.3-1.7c7.7-1 19.8-.9 20.3-.9.8 0 1.5.7 1.5 1.5s-.7 1.5-1.5 1.5c-.1 0-12.4-.1-19.8.8-.1.1-.2.1-.3.1z"/><path d="m25.4 94.5c-.6 0-1.2-.4-1.4-1-.3-.8.2-1.6 1-1.9 5.8-1.9 17.7-3.6 18.2-3.6.8-.1 1.6.5 1.7 1.3s-.5 1.6-1.3 1.7c-.1 0-12.2 1.7-17.8 3.5-.1 0-.3 0-.4 0z"/></g></g></g></g></svg>