<?xml version="1.0" encoding="iso-8859-1"?>
<!-- Generator: Adobe Illustrator 21.0.0, SVG Export Plug-In . SVG Version: 6.00 Build 0)  -->
<svg version="1.1" id="Capa_1" xmlns="http://www.w3.org/2000/svg" xmlns:xlink="http://www.w3.org/1999/xlink" x="0px" y="0px"
	 viewBox="0 0 593.282 593.282" style="enable-background:new 0 0 593.282 593.282;" xml:space="preserve">
<g>
	<g>
		<g id="filled_outline_22_">
			<rect x="543.842" y="197.771" style="fill:#697B8C;" width="39.552" height="118.656"/>
			<rect x="543.842" y="257.099" style="fill:#576573;" width="39.552" height="59.328"/>
			<path style="fill:#69CCD7;" d="M512.121,185.727c-4.756-10.719-15.386-17.62-27.113-17.62H234.989
				c-10.768,0-20.696,5.844-25.926,15.257l-40.966,73.735h375.745L512.121,185.727z"/>
			<path style="fill:#754C30;" d="M168.097,257.099l-130.393,8.148c-15.633,0.979-27.815,13.942-27.815,29.605v71.016h533.954
				V257.099H168.097z"/>
			<circle style="fill:#697B8C;" cx="98.88" cy="365.867" r="59.328"/>
			<circle style="fill:#697B8C;" cx="444.961" cy="365.867" r="59.328"/>
			<circle style="fill:#C3C9D1;" cx="98.88" cy="365.867" r="19.776"/>
			<circle style="fill:#C3C9D1;" cx="444.961" cy="365.867" r="19.776"/>
			<path style="fill:#61BDC7;" d="M512.121,185.727c-1.651-3.708-4.054-7.03-7.06-9.759l-286.357,81.131h325.138L512.121,185.727z"
				/>
			<path d="M583.394,187.883h-39.552c-5.458,0-9.888,4.43-9.888,9.888v12.726l-12.795-28.794l0,0
				c-6.368-14.268-20.528-23.474-36.151-23.484H234.989c-14.377-0.01-27.627,7.782-34.608,20.35l-38.336,68.999l-125.005,7.812
				C16.226,256.733,0.03,273.998,0,294.852v71.016c0,5.458,4.43,9.888,9.888,9.888h20.567c5.429,37.792,40.462,64.025,78.254,58.596
				c30.376-4.361,54.236-28.22,58.596-58.596h209.231c5.429,37.792,40.462,64.025,78.254,58.596
				c30.376-4.361,54.236-28.22,58.596-58.596h30.455c5.458,0,9.888-4.43,9.888-9.888v-39.552h29.664c5.458,0,9.888-4.43,9.888-9.888
				V197.771C593.282,192.313,588.852,187.883,583.394,187.883z M98.88,415.308c-27.301,0-49.44-22.139-49.44-49.44
				s22.139-49.44,49.44-49.44s49.44,22.139,49.44,49.44C148.291,393.158,126.171,415.278,98.88,415.308z M148.32,317.505
				l-0.079-0.079c-0.603-0.613-1.236-1.187-1.869-1.77c-0.92-0.87-1.839-1.74-2.808-2.561c-0.682-0.583-1.394-1.127-2.106-1.681
				c-0.989-0.761-1.978-1.503-2.966-2.215c-0.751-0.524-1.513-0.989-2.294-1.523c-0.989-0.663-2.067-1.305-3.135-1.908
				c-0.801-0.465-1.612-0.9-2.432-1.335c-1.098-0.564-2.205-1.098-3.332-1.602c-0.84-0.386-1.681-0.761-2.531-1.107
				c-1.167-0.475-2.363-0.89-3.56-1.305c-0.86-0.297-1.711-0.603-2.591-0.86c-1.266-0.376-2.551-0.682-3.837-0.989
				c-0.85-0.198-1.681-0.425-2.541-0.593c-1.444-0.287-2.917-0.485-4.4-0.672c-0.732-0.099-1.454-0.237-2.195-0.307
				c-2.215-0.218-4.479-0.346-6.763-0.346s-4.548,0.129-6.773,0.346c-0.742,0.069-1.463,0.208-2.195,0.307
				c-1.483,0.188-2.966,0.386-4.4,0.672c-0.86,0.168-1.691,0.396-2.541,0.593c-1.285,0.307-2.571,0.613-3.837,0.989
				c-0.88,0.257-1.73,0.564-2.591,0.86c-1.196,0.415-2.393,0.831-3.56,1.305c-0.85,0.346-1.691,0.722-2.531,1.107
				c-1.127,0.504-2.235,0.989-3.332,1.602c-0.821,0.435-1.632,0.87-2.432,1.335c-1.068,0.603-2.106,1.246-3.135,1.908
				c-0.781,0.494-1.543,0.989-2.294,1.523c-0.989,0.712-1.978,1.454-2.966,2.215c-0.712,0.554-1.424,1.098-2.106,1.681
				c-0.989,0.821-1.889,1.691-2.808,2.561c-0.633,0.583-1.266,1.157-1.869,1.77c-0.989,0.989-1.839,1.978-2.739,2.966
				c-0.504,0.583-0.989,1.137-1.513,1.73c-1.048,1.285-2.027,2.62-2.966,3.955c-0.267,0.396-0.574,0.751-0.84,1.147
				c-1.187,1.76-2.294,3.579-3.312,5.448c-0.297,0.534-0.534,1.098-0.811,1.641c-0.702,1.365-1.394,2.739-1.978,4.153
				c-0.316,0.751-0.583,1.523-0.89,2.294c-0.485,1.246-0.989,2.492-1.384,3.777c-0.277,0.85-0.504,1.73-0.742,2.601
				c-0.346,1.236-0.682,2.462-0.989,3.718c-0.208,0.929-0.366,1.859-0.534,2.808c-0.138,0.751-0.326,1.483-0.435,2.245h-10.6
				v-61.059c-0.02-10.462,8.108-19.123,18.54-19.776l110.004-6.833V317.505z M435.073,177.995h49.935
				c7.821,0,14.901,4.608,18.075,11.747l0,0l25.541,57.469h-93.551V177.995z M316.417,177.995h98.88v69.216h-98.88V177.995z
				 M296.641,355.979H168.097v-88.992h0.307h128.238V355.979z M296.641,247.211H184.906l32.808-59.041
				c3.481-6.279,10.096-10.165,17.274-10.175h61.652V247.211z M392.861,320.442c-0.504,0.583-0.989,1.137-1.513,1.73
				c-1.048,1.285-2.027,2.62-2.966,3.955c-0.267,0.396-0.573,0.751-0.84,1.147c-1.187,1.76-2.294,3.579-3.312,5.448
				c-0.297,0.534-0.534,1.098-0.811,1.641c-0.702,1.365-1.394,2.739-1.978,4.153c-0.316,0.751-0.583,1.523-0.89,2.294
				c-0.484,1.246-0.989,2.492-1.384,3.777c-0.277,0.85-0.504,1.73-0.742,2.601c-0.346,1.236-0.682,2.462-0.989,3.718
				c-0.208,0.93-0.366,1.859-0.534,2.808c-0.138,0.751-0.326,1.483-0.435,2.245h-60.05v-88.973h98.88v36.378
				c-0.712,0.336-1.394,0.712-2.096,1.068c-0.702,0.356-1.632,0.87-2.432,1.335c-1.068,0.603-2.106,1.246-3.135,1.908
				c-0.781,0.494-1.543,0.989-2.294,1.523c-0.989,0.712-1.978,1.454-2.966,2.215c-0.712,0.554-1.424,1.098-2.106,1.681
				c-0.989,0.821-1.889,1.691-2.808,2.561c-0.633,0.583-1.266,1.157-1.869,1.77C394.651,318.405,393.761,319.394,392.861,320.442z
				 M444.961,415.308c-27.301,0-49.44-22.139-49.44-49.44s22.139-49.44,49.44-49.44s49.44,22.139,49.44,49.44
				C494.372,393.158,472.252,415.278,444.961,415.308z M533.954,316.427v39.552h-20.478c-0.109-0.761-0.297-1.493-0.435-2.245
				c-0.168-0.989-0.326-1.879-0.534-2.808c-0.277-1.256-0.613-2.482-0.989-3.718c-0.237-0.87-0.465-1.75-0.742-2.601
				c-0.415-1.285-0.9-2.531-1.384-3.777c-0.307-0.771-0.573-1.543-0.89-2.294c-0.613-1.414-1.305-2.788-1.978-4.153
				c-0.277-0.544-0.514-1.107-0.811-1.641c-1.018-1.869-2.126-3.678-3.312-5.448c-0.267-0.396-0.573-0.751-0.84-1.147
				c-0.989-1.355-1.978-2.69-2.966-3.955c-0.484-0.593-0.989-1.147-1.513-1.73c-0.9-0.989-1.79-2.047-2.739-2.966
				c-0.603-0.613-1.236-1.187-1.869-1.77c-0.92-0.87-1.839-1.74-2.808-2.561c-0.682-0.583-1.394-1.127-2.106-1.681
				c-0.989-0.761-1.978-1.503-2.966-2.215c-0.751-0.524-1.513-0.989-2.294-1.523c-0.989-0.663-2.067-1.305-3.135-1.908
				c-0.801-0.465-1.612-0.9-2.432-1.335c-1.098-0.564-2.205-1.098-3.332-1.602c-0.84-0.386-1.681-0.761-2.531-1.107
				c-1.167-0.475-2.363-0.89-3.56-1.305c-0.86-0.297-1.711-0.603-2.591-0.86c-1.266-0.376-2.551-0.682-3.837-0.989
				c-0.85-0.198-1.681-0.425-2.541-0.593c-1.444-0.287-2.917-0.485-4.4-0.672c-0.732-0.099-1.454-0.237-2.195-0.307
				c-2.235-0.287-4.499-0.415-6.783-0.415s-4.548,0.129-6.773,0.346c-0.742,0.069-1.463,0.208-2.195,0.307l-0.92,0.129v-30.445
				h98.88V316.427z M573.506,306.539H553.73v-98.88h19.776V306.539z"/>
			<rect x="237.313" y="286.763" width="39.552" height="19.776"/>
			<path d="M98.88,336.203c-16.384,0-29.664,13.28-29.664,29.664s13.28,29.664,29.664,29.664s29.664-13.28,29.664-29.664
				S115.265,336.203,98.88,336.203z M98.88,375.755c-5.458,0-9.888-4.43-9.888-9.888c0-5.458,4.43-9.888,9.888-9.888
				c5.458,0,9.888,4.43,9.888,9.888C108.768,371.326,104.339,375.755,98.88,375.755z"/>
			<path d="M444.961,336.203c-16.384,0-29.664,13.28-29.664,29.664s13.28,29.664,29.664,29.664s29.664-13.28,29.664-29.664
				S461.346,336.203,444.961,336.203z M444.961,375.755c-5.458,0-9.888-4.43-9.888-9.888c0-5.458,4.43-9.888,9.888-9.888
				c5.458,0,9.888,4.43,9.888,9.888C454.849,371.326,450.42,375.755,444.961,375.755z"/>
		</g>
	</g>
</g>
<g>
</g>
<g>
</g>
<g>
</g>
<g>
</g>
<g>
</g>
<g>
</g>
<g>
</g>
<g>
</g>
<g>
</g>
<g>
</g>
<g>
</g>
<g>
</g>
<g>
</g>
<g>
</g>
<g>
</g>
</svg>
