<svg enable-background="new 0 0 128 128" height="512" viewBox="0 0 128 128" width="512" xmlns="http://www.w3.org/2000/svg"><g id="Panda"><g id="Body_15_"><g id="Arms"><g><path d="m28.5 91.8c.3-1.4 1-2.6 2.1-3.7 7.4-7 15.4-8.3 20.6-3.1 2.9 2.9 2.9 7.6 0 10.5-2.2 2.2-5.3 2.7-8 1.6-.7.4-1.6 1.1-2.3 1.7-3 2.8-7.7 2.7-10.5-.3-1.9-1.7-2.5-4.3-1.9-6.7z" fill="#333"/><path d="m35.7 102.5c-2.4 0-4.7-.9-6.5-2.8-2.1-2.2-2.9-5.2-2.2-8.2.4-1.7 1.3-3.2 2.5-4.4 8-7.6 16.9-8.9 22.7-3.1 3.5 3.5 3.5 9.2 0 12.6-2.3 2.3-5.7 3.2-8.9 2.2-.5.4-1.1.8-1.5 1.2-1.7 1.7-3.9 2.5-6.1 2.5zm7.9-19.1c-3.7 0-7.9 2-12 5.8-.8.8-1.4 1.8-1.7 2.9-.5 1.9.1 4 1.5 5.4 2.2 2.4 6 2.5 8.4.2.7-.7 1.7-1.4 2.5-1.9.4-.2.9-.3 1.3-.1 2.2.9 4.7.4 6.4-1.3 2.3-2.3 2.3-6.1 0-8.4-1.7-1.7-4-2.6-6.4-2.6z"/></g><g><path d="m96.5 91.8c-.3-1.4-1-2.6-2.1-3.7-7.4-7-15.4-8.3-20.6-3.1-2.9 2.9-2.9 7.6 0 10.5 2.2 2.2 5.3 2.7 8 1.6.7.4 1.6 1.1 2.3 1.7 3 2.8 7.7 2.7 10.5-.3 1.9-1.7 2.5-4.3 1.9-6.7z" fill="#333"/><path d="m89.3 102.5c-2.2 0-4.4-.8-6.1-2.4-.4-.4-.9-.8-1.5-1.2-3.1.9-6.5.1-8.9-2.2-3.5-3.5-3.5-9.2 0-12.6 5.8-5.8 14.7-4.6 22.7 3.1 1.3 1.2 2.1 2.7 2.5 4.4.7 2.9-.2 6-2.2 8.2-1.8 1.7-4.1 2.7-6.5 2.7zm-7.4-6.8c.3 0 .5.1.8.2.9.5 1.9 1.3 2.5 1.9 2.4 2.2 6.1 2.1 8.4-.2 1.4-1.5 1.9-3.5 1.5-5.4-.3-1.1-.8-2.1-1.7-2.9-6.7-6.4-14-7.7-18.5-3.1-2.3 2.3-2.3 6.1 0 8.4 1.7 1.7 4.2 2.2 6.4 1.3.2-.2.4-.2.6-.2z"/></g></g><g id="Body_14_"><path d="m79.9 105.4c0 9.6-7.8 12.5-17.4 12.5s-17.4-2.9-17.4-12.5-1.1-22.3 17.4-22.3 17.4 12.7 17.4 22.3z" fill="#f2f2f2"/><path d="m45.2 107.2c.5-7.8 3.2-15.1 17.3-15.1s16.8 7.3 17.3 15.1c.1-.6.1-1.1.1-1.7 0-9.6 1.1-22.3-17.4-22.3s-17.4 12.7-17.4 22.3c0 .5 0 1.1.1 1.7z" fill="#ccc"/><path d="m62.5 119.4c-15.6 0-18.9-7.6-18.9-14 0-.5 0-1 0-1.6 0-6.1-.1-13 4.5-17.6 3.1-3.1 7.8-4.7 14.4-4.7s11.3 1.5 14.4 4.7c4.6 4.6 4.5 11.5 4.5 17.6v1.6c0 6.4-3.3 14-18.9 14zm0-34.8c-5.8 0-9.8 1.2-12.3 3.8-3.7 3.7-3.7 9.9-3.6 15.4v1.6c0 7.4 5.2 11 15.9 11s15.9-3.6 15.9-11c0-.5 0-1.1 0-1.6 0-5.5.1-11.7-3.6-15.4-2.5-2.6-6.5-3.8-12.3-3.8z"/></g><g id="Legs"><g><path d="m78 112.7c0 4.7-3 6.4-6.8 6.4-3.7 0-6.8-1.8-6.8-6.4 0-4.7 1.5-10.4 6.8-10.4s6.8 5.8 6.8 10.4z" fill="#333"/><path d="m71.3 120.7c-5.2 0-8.3-3-8.3-7.9 0-7.3 3.2-11.9 8.3-11.9s8.3 4.6 8.3 11.9c-.1 4.9-3.2 7.9-8.3 7.9zm0-16.9c-4.9 0-5.3 6.8-5.3 8.9 0 3.3 1.8 4.9 5.3 4.9s5.3-1.7 5.3-4.9c-.1-2.1-.5-8.9-5.3-8.9z"/></g><g><path d="m60.5 112.7c0 4.7-3 6.4-6.8 6.4s-6.8-1.8-6.8-6.4c0-4.7 1.5-10.4 6.8-10.4s6.8 5.8 6.8 10.4z" fill="#333"/><path d="m53.7 120.7c-5.2 0-8.3-3-8.3-7.9 0-7.3 3.2-11.9 8.3-11.9s8.3 4.6 8.3 11.9c0 4.9-3.1 7.9-8.3 7.9zm0-16.9c-4.9 0-5.3 6.8-5.3 8.9 0 3.3 1.8 4.9 5.3 4.9s5.3-1.7 5.3-4.9c0-2.1-.4-8.9-5.3-8.9z"/></g></g></g><g id="Head_10_"><g id="Ears_2_"><g><circle cx="91.5" cy="33.7" fill="#333" r="22"/><path d="m91.5 57.2c-13 0-23.5-10.5-23.5-23.5s10.5-23.5 23.5-23.5 23.5 10.5 23.5 23.5-10.5 23.5-23.5 23.5zm0-44c-11.3 0-20.5 9.2-20.5 20.5s9.2 20.5 20.5 20.5 20.5-9.2 20.5-20.5-9.2-20.5-20.5-20.5z"/></g><g><circle cx="33.5" cy="33.7" fill="#333" r="22"/><path d="m33.5 57.2c-13 0-23.5-10.5-23.5-23.5s10.5-23.5 23.5-23.5 23.5 10.5 23.5 23.5-10.5 23.5-23.5 23.5zm0-44c-11.3 0-20.5 9.2-20.5 20.5s9.2 20.5 20.5 20.5 20.5-9.2 20.5-20.5-9.2-20.5-20.5-20.5z"/></g></g><g id="Head_9_"><path d="m101.6 59.1c0 20.4-17.5 28-39 28s-39-7.6-39-28c0-17.4 5.6-38.5 26.5-44.4 2-.6 4.2-1 6.5-1.3.9-.1 1.8-.2 2.8-.2 1-.1 2.1-.1 3.2-.1s2.2 0 3.2.1 1.9.1 2.8.2c2.3.3 4.5.7 6.5 1.3 20.9 5.9 26.5 27 26.5 44.4z" fill="#f2f2f2"/><path d="m62.6 82.1c-20.8 0-37.8-7.1-38.9-26 0 1-.1 2-.1 3 0 20.4 17.5 28 39 28s39-7.6 39-28c0-1 0-2-.1-3-1 18.9-18.1 26-38.9 26z" fill="#ccc"/><path d="m62.6 24.1c27.9 0 37.1 20.4 38.7 39.3.2-1.4.3-2.8.3-4.3 0-20.4-7.8-46-39-46-31.3 0-39 25.6-39 46 0 1.5.1 2.9.3 4.3 1.7-19 10.8-39.3 38.7-39.3z" fill="#fff"/><path d="m62.6 88.6c-26.1 0-40.5-10.5-40.5-29.5 0-14.3 3.9-47.5 40.5-47.5s40.5 33.2 40.5 47.5c0 19-14.4 29.5-40.5 29.5zm0-74c-33.8 0-37.5 31.1-37.5 44.5 0 23.1 23.5 26.5 37.5 26.5s37.5-3.4 37.5-26.5c0-13.4-3.6-44.5-37.5-44.5z"/><g fill="#333"><ellipse cx="44.8" cy="63.8" rx="12" ry="14.1" transform="matrix(.707 .707 -.707 .707 58.233 -13.003)"/><ellipse cx="80.4" cy="63.8" rx="12" ry="14.1" transform="matrix(-.707 .707 -.707 -.707 182.409 52.026)"/></g></g><g id="Nose_7_"><path d="m62.6 68.6c-2.1 0-3.8 1.1-3.8 2.4 0 1.4 1.7 3.9 3.8 3.9s3.8-2.5 3.8-3.9c.1-1.3-1.7-2.4-3.8-2.4" fill="#333"/><path d="m62.6 76.4c-3 0-5.3-3.3-5.3-5.4 0-2.2 2.3-3.9 5.3-3.9s5.4 1.7 5.4 3.9c0 2.1-2.3 5.4-5.4 5.4zm0-6.3c-1.5 0-2.3.7-2.3.9 0 .6 1.2 2.4 2.3 2.4s2.4-1.8 2.4-2.4c0-.2-.9-.9-2.4-.9z"/></g><path id="Mouth_5_" d="m69.6 83c-.8.3-1.6.5-2.5.5-2 0-3.7-.9-4.9-2.3-1.2 1.4-2.9 2.3-4.9 2.3-.9 0-1.7-.2-2.5-.5s-1.1-1.2-.8-2 1.2-1.1 2-.8c.4.2.9.3 1.3.3 1.4 0 2.5-.8 3.1-2 .2-.4.3-.9.3-1.4 0-.6.4-1.1.9-1.4.3.1.7.2 1 .2h.5c.4.3.7.7.7 1.3s.2 1.1.4 1.6c.6 1.1 1.7 1.8 3 1.8.5 0 .9-.1 1.3-.3.8-.3 1.6 0 2 .8.3.7-.1 1.5-.9 1.9z"/><g id="Eyes_12_" fill="#f2f2f2"><circle cx="46.7" cy="61.6" r="3"/><circle cx="78.5" cy="61.6" r="3"/></g></g></g></svg>