<svg id="svg8" height="512" viewBox="0 0 111 111" width="512" xmlns="http://www.w3.org/2000/svg" xmlns:svg="http://www.w3.org/2000/svg"><g id="layer1"><g id="g1303"><path id="path857-4-0" d="m55.03737 18.762695c-20.549447.000009-16.332207 26.45697-23.212613 34.944595-27.279734 33.65231-4.207217 55.00142 23.212605 55.00142 31.586487-.00001 50.493648-21.349119 23.213906-55.00142-6.880401-8.487625-2.664489-34.944577-23.213898-34.944595z" fill="#f8e953"/><path id="path1029-3-3-3-4-9-7-9" d="m48.305908 3.503783c-1.10791-3.16403514 3.430116-5.585804 5.360121-.8294817 3.970346 9.7845927 4.671242 20.3422827 3.953081 26.0197837l-5.050395.319185c-.295303-9.232732-.883732-15.85931-4.262807-25.509487z" fill="#1a1c20"/><path id="path949-6-6" d="m60.701576 23.721952a2.2873072 2.2873072 0 0 0 -1.102687.306106c-.483049.279225-2.272853.698347-4.086717.750038-1.813873.05169-3.761043-.168831-4.700718-.427828a2.2873072 2.2873072 0 0 0 -2.812195 1.598528 2.2873072 2.2873072 0 0 0 1.596742 2.812195c1.689446.465644 3.836867.651907 6.046848.588933 2.209972-.06296 4.374905-.279124 6.245538-1.360455a2.2873072 2.2873072 0 0 0 .83596-3.125449 2.2873072 2.2873072 0 0 0 -2.022771-1.142068z" fill="#1a1c20" font-variant-ligatures="normal" font-variant-position="normal" font-variant-caps="normal" font-variant-numeric="normal" font-variant-alternates="normal" font-variant-east-asian="normal" font-feature-settings="normal" font-variation-settings="normal" text-indent="0" text-align="start" text-decoration-line="none" text-decoration-style="solid" text-decoration-color="#000000" text-transform="none" text-orientation="mixed" white-space="normal" shape-padding="0" shape-margin="0" inline-size="0" isolation="auto" mix-blend-mode="normal" solid-color="#000000" solid-opacity="1" vector-effect="none"/><path id="path1278" d="m81.417969 62.089844a4.9825001 4.9825001 0 0 0 -1.947266.429687 4.9825001 4.9825001 0 0 0 -2.525391 6.580078c4.112679 9.238281 3.965668 16.593935 1.066407 21.470703-2.899262 4.876769-9.018226 8.424826-20.152344 8.595704a4.9825001 4.9825001 0 0 0 -4.904297 5.058594 4.9825001 4.9825001 0 0 0 5.056641 4.9043c13.330305-.20459 23.531795-4.99822 28.566406-13.466801 5.034611-8.468583 4.436673-19.462163-.529297-30.617187a4.9825001 4.9825001 0 0 0 -4.630859-2.955078z" fill="#f6de09" font-variant-ligatures="normal" font-variant-position="normal" font-variant-caps="normal" font-variant-numeric="normal" font-variant-alternates="normal" font-variant-east-asian="normal" font-feature-settings="normal" font-variation-settings="normal" text-indent="0" text-align="start" text-decoration-line="none" text-decoration-style="solid" text-decoration-color="#000000" text-transform="none" text-orientation="mixed" white-space="normal" shape-padding="0" shape-margin="0" inline-size="0" isolation="auto" mix-blend-mode="normal" solid-color="#000000" solid-opacity="1" vector-effect="none"/><path id="path1282" d="m55.037109 16.261719c-5.673811.000002-10.058636 1.950013-13.099609 5.003906s-4.774623 7.01646-6.021484 11.046875c-1.246862 4.030415-2.011619 8.188612-2.88086 11.763672s-1.911007 6.525336-3.152344 8.05664c-14.019836 17.294886-15.508666 32.421271-9.101562 42.990235 6.407104 10.568963 19.897113 16.085933 34.255859 16.085933 16.356489 0 29.979996-5.49536 35.871094-16.173824 5.891098-10.678468 3.2658-25.655815-10.714844-42.902344-1.24136-1.531335-2.282979-4.481567-3.152343-8.05664s-1.635781-7.73326-2.882813-11.763672-2.978449-7.993012-6.019531-11.046875c-3.041083-3.053863-7.42776-5.003901-13.101563-5.003906zm0 5c4.600903.000004 7.395626 1.359191 9.558594 3.53125 2.162968 2.172058 3.659393 5.353265 4.787109 8.998047 1.127717 3.644781 1.881394 7.694046 2.798829 11.466796.917434 3.772751 1.928113 7.310961 4.126953 10.023438 13.299098 16.405773 14.859871 28.928727 10.220703 37.337891-4.639168 8.409159-16.262189 13.589839-31.492188 13.589839-13.061077 0-24.816292-5.15906-29.980468-13.67773-5.164177-8.518669-4.54896-20.892576 8.710937-37.25 2.198867-2.712508 3.209642-6.250672 4.126953-10.023438.917311-3.772765 1.671268-7.822017 2.798828-11.466796 1.12756-3.64478 2.624271-6.826019 4.78711-8.998047 2.162838-2.172028 4.955728-3.531248 9.55664-3.53125z" fill="#1a1c20" font-variant-ligatures="normal" font-variant-position="normal" font-variant-caps="normal" font-variant-numeric="normal" font-variant-alternates="normal" font-variant-east-asian="normal" font-feature-settings="normal" font-variation-settings="normal" text-indent="0" text-align="start" text-decoration-line="none" text-decoration-style="solid" text-decoration-color="#000000" text-transform="none" text-orientation="mixed" white-space="normal" shape-padding="0" shape-margin="0" inline-size="0" isolation="auto" mix-blend-mode="normal" solid-color="#000000" solid-opacity="1" vector-effect="none"/><path id="path1286" d="m42.208984 39.525391a2.5 2.5 0 0 0 -2.460937 1.951171c-3.237271 14.406779-3.404502 12.151522-7.707031 18.38086a2.5 2.5 0 0 0 .636718 3.476562 2.5 2.5 0 0 0 3.478516-.634765c3.969906-5.747756 5.186834-5.510843 8.470703-20.125a2.5 2.5 0 0 0 -1.890625-2.988281 2.5 2.5 0 0 0 -.527344-.060547z" fill="#fff" font-variant-ligatures="normal" font-variant-position="normal" font-variant-caps="normal" font-variant-numeric="normal" font-variant-alternates="normal" font-variant-east-asian="normal" font-feature-settings="normal" font-variation-settings="normal" text-indent="0" text-align="start" text-decoration-line="none" text-decoration-style="solid" text-decoration-color="#000000" text-transform="none" text-orientation="mixed" white-space="normal" shape-padding="0" shape-margin="0" inline-size="0" isolation="auto" mix-blend-mode="normal" solid-color="#000000" solid-opacity="1" vector-effect="none"/><g fill="#f6de09"><g id="g929-6-6-2" opacity=".999" transform="matrix(.043 0 0 .043 58.833 53.158)"><path id="path931-6-2-1" d="m55.019531 20.457031c-13.528006.363753-24.067471 5.168334-31.486328 12.373047-8.478694 8.233958-12.881896 19.591489-13.074219 31.013672-.192322 11.422183 3.828276 22.916605 12.210938 31.421875 8.382661 8.505275 21.124398 14.007445 38.320312 13.466795 21.84527-.0048 39.527466-19.727046 39.552736-44.025389a.26404449.26404449 0 0 0 .004-.05078.26404449.26404449 0 0 0 -.004-.05273c-.02623-24.300368-17.7122-44.025403-39.560548-44.025396-2.047823-.134242-4.035996-.172906-5.962891-.121094zm.01367.527344c1.915713-.05116 3.893167-.01308 5.931641.121094a.2640709.2640709 0 0 0 .01758.002c21.546393-.000007 39.037098 19.47966 39.037108 43.548828-.00001 24.069179-17.490736 43.548803-39.037108 43.548833a.2640709.2640709 0 0 0 -.0078 0c-17.075408.53681-29.654778-4.91464-37.9297-13.310599-8.274922-8.395955-12.24873-19.750597-12.058594-31.042969.190137-11.292371 4.545892-22.514055 12.916016-30.642578 7.323858-7.112457 17.720868-11.866499 31.130859-12.224609z" font-variant-ligatures="normal" font-variant-position="normal" font-variant-caps="normal" font-variant-numeric="normal" font-variant-alternates="normal" font-variant-east-asian="normal" font-feature-settings="normal" font-variation-settings="normal" text-indent="0" text-align="start" text-decoration-line="none" text-decoration-style="solid" text-decoration-color="#000000" text-transform="none" text-orientation="mixed" white-space="normal" shape-padding="0" shape-margin="0" inline-size="0" isolation="auto" mix-blend-mode="normal" solid-color="#000000" solid-opacity="1" vector-effect="none" paint-order="stroke fill markers"/><path id="path933-1-8-6" d="m100.28371 64.655435c-.00001 24.197185-17.595828 43.812815-39.301281 43.812845-68.5426192 2.15501-65.4829689-91.935706.00002-87.625717 21.705475-.000007 39.301251 19.615698 39.301261 43.812872" font-variant-ligatures="normal" font-variant-position="normal" font-variant-caps="normal" font-variant-numeric="normal" font-variant-alternates="normal" font-variant-east-asian="normal" font-feature-settings="normal" font-variation-settings="normal" text-indent="0" text-align="start" text-decoration-line="none" text-decoration-style="solid" text-decoration-color="#000000" text-transform="none" text-orientation="mixed" white-space="normal" shape-padding="0" shape-margin="0" inline-size="0" isolation="auto" mix-blend-mode="normal" solid-color="#000000" solid-opacity="1" vector-effect="none" paint-order="stroke fill markers"/></g><g id="g929-6-6-2-4" opacity=".999" transform="matrix(.043 0 0 .043 66.787 53.923)"><path id="path931-6-2-1-7" d="m55.019531 20.457031c-13.528006.363753-24.067471 5.168334-31.486328 12.373047-8.478694 8.233958-12.881896 19.591489-13.074219 31.013672-.192322 11.422183 3.828276 22.916605 12.210938 31.421875 8.382661 8.505275 21.124398 14.007445 38.320312 13.466795 21.84527-.0048 39.527466-19.727046 39.552736-44.025389a.26404449.26404449 0 0 0 .004-.05078.26404449.26404449 0 0 0 -.004-.05273c-.02623-24.300368-17.7122-44.025403-39.560548-44.025396-2.047823-.134242-4.035996-.172906-5.962891-.121094zm.01367.527344c1.915713-.05116 3.893167-.01308 5.931641.121094a.2640709.2640709 0 0 0 .01758.002c21.546393-.000007 39.037098 19.47966 39.037108 43.548828-.00001 24.069179-17.490736 43.548803-39.037108 43.548833a.2640709.2640709 0 0 0 -.0078 0c-17.075408.53681-29.654778-4.91464-37.9297-13.310599-8.274922-8.395955-12.24873-19.750597-12.058594-31.042969.190137-11.292371 4.545892-22.514055 12.916016-30.642578 7.323858-7.112457 17.720868-11.866499 31.130859-12.224609z" font-variant-ligatures="normal" font-variant-position="normal" font-variant-caps="normal" font-variant-numeric="normal" font-variant-alternates="normal" font-variant-east-asian="normal" font-feature-settings="normal" font-variation-settings="normal" text-indent="0" text-align="start" text-decoration-line="none" text-decoration-style="solid" text-decoration-color="#000000" text-transform="none" text-orientation="mixed" white-space="normal" shape-padding="0" shape-margin="0" inline-size="0" isolation="auto" mix-blend-mode="normal" solid-color="#000000" solid-opacity="1" vector-effect="none" paint-order="stroke fill markers"/><path id="path933-1-8-6-7" d="m100.28371 64.655435c-.00001 24.197185-17.595828 43.812815-39.301281 43.812845-68.5426192 2.15501-65.4829689-91.935706.00002-87.625717 21.705475-.000007 39.301251 19.615698 39.301261 43.812872" font-variant-ligatures="normal" font-variant-position="normal" font-variant-caps="normal" font-variant-numeric="normal" font-variant-alternates="normal" font-variant-east-asian="normal" font-feature-settings="normal" font-variation-settings="normal" text-indent="0" text-align="start" text-decoration-line="none" text-decoration-style="solid" text-decoration-color="#000000" text-transform="none" text-orientation="mixed" white-space="normal" shape-padding="0" shape-margin="0" inline-size="0" isolation="auto" mix-blend-mode="normal" solid-color="#000000" solid-opacity="1" vector-effect="none" paint-order="stroke fill markers"/></g><g id="g929-6-6-2-6" opacity=".999" transform="matrix(.043 0 0 .043 63.007 44.662)"><path id="path931-6-2-1-4" d="m55.019531 20.457031c-13.528006.363753-24.067471 5.168334-31.486328 12.373047-8.478694 8.233958-12.881896 19.591489-13.074219 31.013672-.192322 11.422183 3.828276 22.916605 12.210938 31.421875 8.382661 8.505275 21.124398 14.007445 38.320312 13.466795 21.84527-.0048 39.527466-19.727046 39.552736-44.025389a.26404449.26404449 0 0 0 .004-.05078.26404449.26404449 0 0 0 -.004-.05273c-.02623-24.300368-17.7122-44.025403-39.560548-44.025396-2.047823-.134242-4.035996-.172906-5.962891-.121094zm.01367.527344c1.915713-.05116 3.893167-.01308 5.931641.121094a.2640709.2640709 0 0 0 .01758.002c21.546393-.000007 39.037098 19.47966 39.037108 43.548828-.00001 24.069179-17.490736 43.548803-39.037108 43.548833a.2640709.2640709 0 0 0 -.0078 0c-17.075408.53681-29.654778-4.91464-37.9297-13.310599-8.274922-8.395955-12.24873-19.750597-12.058594-31.042969.190137-11.292371 4.545892-22.514055 12.916016-30.642578 7.323858-7.112457 17.720868-11.866499 31.130859-12.224609z" font-variant-ligatures="normal" font-variant-position="normal" font-variant-caps="normal" font-variant-numeric="normal" font-variant-alternates="normal" font-variant-east-asian="normal" font-feature-settings="normal" font-variation-settings="normal" text-indent="0" text-align="start" text-decoration-line="none" text-decoration-style="solid" text-decoration-color="#000000" text-transform="none" text-orientation="mixed" white-space="normal" shape-padding="0" shape-margin="0" inline-size="0" isolation="auto" mix-blend-mode="normal" solid-color="#000000" solid-opacity="1" vector-effect="none" paint-order="stroke fill markers"/><path id="path933-1-8-6-4" d="m100.28371 64.655435c-.00001 24.197185-17.595828 43.812815-39.301281 43.812845-68.5426192 2.15501-65.4829689-91.935706.00002-87.625717 21.705475-.000007 39.301251 19.615698 39.301261 43.812872" font-variant-ligatures="normal" font-variant-position="normal" font-variant-caps="normal" font-variant-numeric="normal" font-variant-alternates="normal" font-variant-east-asian="normal" font-feature-settings="normal" font-variation-settings="normal" text-indent="0" text-align="start" text-decoration-line="none" text-decoration-style="solid" text-decoration-color="#000000" text-transform="none" text-orientation="mixed" white-space="normal" shape-padding="0" shape-margin="0" inline-size="0" isolation="auto" mix-blend-mode="normal" solid-color="#000000" solid-opacity="1" vector-effect="none" paint-order="stroke fill markers"/></g></g></g></g></svg>