<svg height="512" viewBox="0 0 48 48" width="512" xmlns="http://www.w3.org/2000/svg"><g id="pen"><path d="m37.63 17c-21.04 21.07-14.63 14.63-26.63 26.66l-6.67-6.66c1.45-1.45 7.48-7.47 26.67-26.64z" fill="#374f68"/><path d="m36.63 16c-19.7 19.72-16.36 16.38-20 20a8 8 0 0 1 -11.3 0c11.67-11.65 5.73-5.71 25.67-25.64z" fill="#425b72"/><path d="m32.61 7.31h6.71v9.42h-6.71z" fill="#374f68" transform="matrix(.707 -.707 .707 .707 2.03 28.95)"/><path d="m11 43.66-10 3.34 3.33-10z" fill="#dad7e5"/><path d="m9.49 42.16-7.73 2.59 2.57-7.75z" fill="#edebf2"/><path d="m16.66 25.64h1.99v9.42h-1.99z" fill="#dad7e5" transform="matrix(.707 -.707 .707 .707 -16.29 21.37)"/><path d="m17.65 18a1 1 0 0 1 -.71-1.71l11.66-11.63a1 1 0 0 1 1.4 1.41c-12.63 12.65-11.76 11.93-12.35 11.93z" fill="#dad7e5"/><path d="m47 4.53c0 2-1.34 2.81-3.53 5l-5-5 2.53-2.53a3.54 3.54 0 0 1 6 2.53z" fill="#374f68"/><path d="m46.84 3.52a3.35 3.35 0 0 1 -.84 1.48 3.54 3.54 0 0 1 -5 0l-1.5-1.5 1.5-1.5a3.54 3.54 0 0 1 5.84 1.52z" fill="#425b72"/><path d="m43.46 11.19-2.46 2.5-6.7-6.69 2.5-2.5a1.17 1.17 0 0 1 1.66 0l5 5a1.17 1.17 0 0 1 0 1.69z" fill="#374f68"/><path d="m43.29 9.36a3.29 3.29 0 0 1 -4.66 0l-3.33-3.36 1.5-1.5a1.17 1.17 0 0 1 1.66 0z" fill="#425b72"/><path d="m41.67 13-4.75 4.75-10-10a1 1 0 0 1 0-1.42l1.68-1.67a3.42 3.42 0 0 1 4.74 0z" fill="#dad7e5"/><path d="m40.67 12a5.31 5.31 0 0 1 -7.5 0l-5.95-6 1.38-1.34a3.42 3.42 0 0 1 4.74 0z" fill="#edebf2"/><path d="m16.16 25.84h1.99v8h-1.99z" fill="#edebf2" transform="matrix(.707 -.707 .707 .707 -16.08 20.87)"/><path d="m46.66 1.33a4.53 4.53 0 0 0 -6.41 0l-2 2c-1.59-.5-2.33.67-4 2.32l-1-1a3.42 3.42 0 0 0 -4.74 0l-11.57 11.66a1 1 0 0 0 .71 1.69c.59 0-.09.5 10-9.58l1.92 1.92c-27.47 27.48-26.07 26-26.19 26.35-3.63 10.92-3.67 10.42-3.08 11.02a1 1 0 0 0 1 .24c10.78-3.61 10.09-3.33 10.34-3.56.88-.82 12.39-12.38 32.5-32.49a2.16 2.16 0 0 0 .52-2.19l2-2a4.53 4.53 0 0 0 0-6.38zm-16.66 4.74a1.4 1.4 0 0 1 1.92 0l7.62 7.62-1.92 1.92-8.57-8.61zm6.21 11-15.21 15.19-5.27-5.26 15.27-15.23zm-25.21 25.18-5.26-5.25 8.58-8.58 5.25 5.25zm-6.22-3.4 4.37 4.37-6.55 2.2zm38-28.37-1.78 1.8-5.29-5.28c1.83-1.82 1.87-2 2-1.79 5.42 5.4 5.22 5.09 5.04 5.27zm2.5-4.16-1.82 1.79c-2.2-2.19-1.38-1.38-3.58-3.58l1.79-1.79a2.53 2.53 0 0 1 3.58 3.58z"/></g></svg>