<svg height="512" viewBox="0 0 48 48" width="512" xmlns="http://www.w3.org/2000/svg"><g id="pencil"><path d="m40.58 15.75-27.77 27.78-1.56-2.59c-.65-1.08-.07-.74-2.61-1.58-.85-2.54-.49-2-1.59-2.61l-2.58-1.55 27.78-27.78z" fill="#fc6"/><path d="m39.58 14.75c-20.77 20.77-20.58 21.25-24.34 22.25a10.35 10.35 0 0 1 -9.77-2.8l26.78-26.78z" fill="#ffde76"/><path d="m12.81 43.53-6 1.75a8.76 8.76 0 0 0 -4.12-4.12c.68-2.3.28-.93 1.75-6l3.47 2.08.7 2.08 2.08.7c1.31 2.21.85 1.41 2.12 3.51z" fill="#f6ccaf"/><path d="m11.75 41.78c-4.49.81-7.52-1.83-8.52-2.35l1.24-4.23 3.47 2.08.7 2.08 2.08.7z" fill="#ffdec7"/><path d="m6.84 45.28c0 .1.09 0-5.84 1.72.81-2.76.42-1.45 1.72-5.84a8.85 8.85 0 0 1 4.12 4.12z" fill="#374f68"/><path d="m5.78 43.6-4.14 1.21 1.08-3.65a8.67 8.67 0 0 1 3.06 2.44z" fill="#425b72"/><path d="m38.51 13.68-27.26 27.26c-.64-1.07-.26-.79-1.58-1.24l27.43-27.43z" fill="#ffba55"/><path d="m35.74 10.91-27.44 27.43c-.45-1.33-.17-1-1.25-1.59l27.27-27.26z" fill="#ffba55"/><path d="m35.74 10.91-25.91 25.9a10.59 10.59 0 0 1 -2-.84l26.49-26.48z" fill="#fc6"/><path d="m46.14 10.2-2.78 2.8-8.36-8.36 2.8-2.78a3 3 0 0 1 4.17 0l4.17 4.14a3 3 0 0 1 0 4.2z" fill="#db5669"/><path d="m46.83 7.11c-.77 2.2-4.18 3.15-6.25 1.08l-4.58-4.55 1.8-1.78a3 3 0 0 1 4.17 0c4.61 4.61 4.58 4.45 4.86 5.25z" fill="#f26674"/><path d="m43.36 13-2.78 2.78-8.33-8.36 2.75-2.78z" fill="#dad7e5"/><path d="m42.36 12a2.52 2.52 0 0 1 -3.56 0l-5.55-5.58 1.75-1.78z" fill="#edebf2"/><path d="m38.51 13.68-23.27 23.32a10.69 10.69 0 0 1 -3.09.27l25-24.95z" fill="#fc6"/><path d="m46.84 5.32-4.16-4.16a4 4 0 0 0 -5.58 0c-35.4 35.39-33.45 33.36-33.57 33.72s-.53 1.9-3.53 11.84a1 1 0 0 0 1 1.28c.21 0 12.08-3.45 12.39-3.68s-2.75 2.79 33.45-33.42a4 4 0 0 0 0-5.58zm-11.84.73 7 6.95-1.37 1.37-6.97-6.95zm-24.55 32.86-1-.34-.34-1 25.89-25.96 1.39 1.39zm21.8-30.08 1.36 1.37-25.82 25.8-1.71-1zm-28.93 33.84a7.68 7.68 0 0 1 2 2l-2.85.84zm4 1.42a9.88 9.88 0 0 0 -3.43-3.43l1.16-3.94 2 1.23c.88 2.62.38 2.08 2.94 2.94l1.23 2zm5.68-2.17-1-1.71 25.8-25.82 1.37 1.36zm32.43-32.43-2.07 2.07-6.92-6.92 2.07-2.07a1.94 1.94 0 0 1 2.75 0l4.17 4.17a1.94 1.94 0 0 1 0 2.75z"/></g></svg>