<svg height="512" viewBox="0 0 48 48" width="512" xmlns="http://www.w3.org/2000/svg"><g id="sharpener"><path d="m46.23 21.53c-4.93 4.94-5 5.33-6.29 5.43-5.92.48-12.5 7.06-13 13-.11 1.28-.51 1.38-5.43 6.29a2.61 2.61 0 0 1 -3.71 0l-16-16a2.61 2.61 0 0 1 0-3.71c4.93-4.94 5-5.33 6.29-5.43 5.92-.48 12.5-7.06 13-13 .11-1.28.51-1.38 5.43-6.29a2.61 2.61 0 0 1 3.71 0l16 16.05a2.6 2.6 0 0 1 0 3.66z" fill="#6fabe6"/><path d="m46.53 18.18c-.21.28.11-.07-5 5a2.63 2.63 0 0 1 -1.62.75c-5.92.48-12.5 7.06-13 13-.11 1.28-.51 1.38-5.43 6.29a2.61 2.61 0 0 1 -3.71 0c-17.11-17.15-16.1-16.11-16.3-16.4.21-.28-.11.07 5-5a2.63 2.63 0 0 1 1.59-.82c5.92-.48 12.5-7.06 13-13 .11-1.28.51-1.38 5.43-6.29a2.61 2.61 0 0 1 3.71 0c17.14 17.22 16.13 16.18 16.33 16.47z" fill="#82bcf4"/><path d="m35.73 22.15-21 21-2.47-2.47 22.24-22.23 1.23 1.23a1.73 1.73 0 0 1 0 2.47z" fill="#dad7e5"/><path d="m35.47 19.42-20 20a1 1 0 0 1 -1.42 0c-.37-.37-2.6 2.07 20.47-21z" fill="#edebf2"/><path d="m34.5 18.45-22.23 22.22-7.41-7.41 21-21a1.73 1.73 0 0 1 2.47 0z" fill="#dad7e5"/><path d="m33 17-18.61 18.55a3 3 0 0 1 -4.24 0l-3.79-3.79 19.49-19.49a1.73 1.73 0 0 1 2.47 0z" fill="#edebf2"/><path d="m20.93 26.47a1.87 1.87 0 1 1 -2.6-1.72 1.87 1.87 0 0 1 2.6 1.72z" fill="#c6c3d8"/><path d="m20.93 26.47a2.06 2.06 0 0 1 -.14.72 1.87 1.87 0 0 1 -2.46-2.44 1.87 1.87 0 0 1 2.6 1.72z" fill="#dad7e5"/><path d="m46.94 17.12-16.06-16.06a3.7 3.7 0 0 0 -5.12 0c-4.86 4.87-5.57 5.19-5.71 6.94-.45 5.38-6.61 11.58-12.05 12.05-1.73.14-2.07.87-6.92 5.71a3.62 3.62 0 0 0 0 5.12l16.04 16.06a3.63 3.63 0 0 0 5.12 0c4.86-4.87 5.57-5.19 5.76-6.94.4-5.38 6.56-11.58 12-12 1.73-.14 2.07-.87 6.92-5.71a3.62 3.62 0 0 0 .02-5.17zm-40.67 16.14 20.29-20.26a.77.77 0 0 1 1.06 0l5.46 5.47-20.81 20.79zm7.41 7.41 20.82-20.81.53.52a.75.75 0 0 1 0 1.06l-20.29 20.29zm31.85-19.85c-5.13 5.18-4.9 5.08-5.68 5.18-6.4.52-13.36 7.47-13.89 13.9-.06.77 0 .53-5.14 5.67a1.66 1.66 0 0 1 -2.29 0l-2.38-2.39 20.29-20.33a2.75 2.75 0 0 0 0-3.88c-1.58-1.6-.11-.12-7.41-7.41a2.8 2.8 0 0 0 -3.88 0l-20.29 20.29c-4.11-4.1-4.21-2.85 2.29-9.35a1.58 1.58 0 0 1 1-.46c6.4-.52 13.36-7.47 13.89-13.9a1.58 1.58 0 0 1 .46-1c4.9-4.89 4.91-5.14 5.82-5.14s-.22-.9 17.21 16.53a1.62 1.62 0 0 1 0 2.29z"/><path d="m20.93 26.47a1.87 1.87 0 0 1 -3.74 0 1.87 1.87 0 0 1 3.74 0z"/></g></svg>