<svg id="Layer_1" enable-background="new 0 0 512 512" height="512" viewBox="0 0 512 512" width="512" xmlns="http://www.w3.org/2000/svg"><g><g><path d="m341.296 28.655c21.412 11.363 40.289 26.871 55.561 45.454l-14.524 27.891-35.86-9.103c-9.728-9.093-20.826-16.738-32.951-22.591l.003-29.501z" fill="#c4e14d"/><path d="m198.473 70.308c-12.123 5.853-23.22 13.497-32.946 22.588l-32.994 9.104-17.39-27.891c15.266-18.576 34.134-34.079 55.536-45.441l33.321 15.582z" fill="#c4e14d"/><path d="m313.525 70.312 27.762-41.643c-25.448-13.505-54.469-21.169-85.287-21.169s-59.839 7.664-85.287 21.169l27.762 41.643c17.399-8.399 36.91-13.112 57.525-13.112s40.126 4.713 57.525 13.112z" fill="#f4d844"/><path d="m305.698 156.6h-99.398l-198.8 16.567v182.108l16.567 33.259-16.567 33.133v49.699c0 18.299 14.834 33.133 33.133 33.133h33.134l182.233-18.499 182.233 18.5h33.134c18.299 0 33.133-14.834 33.133-33.133v-49.699l-16.567-33.134 16.567-33.134v-182.233z" fill="#c4e14d"/><path d="m481.5 171.25v300.117c0 18.299-14.834 33.133-33.133 33.133h23c18.299 0 33.133-14.834 33.133-33.133v-49.699l-16.567-33.134 16.567-33.134v-182.233z" fill="#99b94d"/><path d="m73.767 453.667h364.467v50.833h-364.467z" fill="#99b94d"/><path d="m415.233 453.667h23v50.833h-23z" fill="#698b35"/><g><path d="m430.233 471.367h-348.466c-4.418 0-8-3.582-8-8v-149.667c0-4.418 3.582-8 8-8h25.133l16.567 41.417 16.566-41.417h33.134l16.566 41.417 16.567-41.417h33.132l16.568 41.417 16.567-41.417h33.133l16.567 41.417 16.565-41.417h33.134l16.567 41.417 16.567-41.417h25.133c4.418 0 8 3.582 8 8v149.667c0 4.418-3.581 8-8 8z" fill="#f9f6f6"/><path d="m430.233 305.7h-23c4.418 0 8 3.582 8 8v149.667c0 4.418-3.582 8-8 8h23c4.418 0 8-3.582 8-8v-149.667c0-4.418-3.581-8-8-8z" fill="#ecdaec"/><g fill="#365e7d"><path d="m397.1 388.533h-17.133c-4.418 0-8-3.582-8-8v-74.833h33.133v74.833c0 4.419-3.582 8-8 8z"/><path d="m132.033 388.533h-17.133c-4.418 0-8-3.582-8-8v-74.833h33.133v74.833c0 4.419-3.581 8-8 8z"/><path d="m198.3 388.533h-17.133c-4.418 0-8-3.582-8-8v-74.833h33.133v74.833c0 4.419-3.582 8-8 8z"/><path d="m264.567 388.533h-17.133c-4.418 0-8-3.582-8-8v-74.833h33.133v74.833c0 4.419-3.582 8-8 8z"/><path d="m330.833 388.533h-17.133c-4.418 0-8-3.582-8-8v-74.833h33.133v74.833c0 4.419-3.581 8-8 8z"/></g></g><g><g><circle cx="106.9" cy="173.167" fill="#f4d844" r="99.4"/><path d="m106.9 73.767c-3.89 0-7.726.231-11.5.666 49.479 5.701 87.9 47.727 87.9 98.734s-38.421 93.033-87.9 98.734c3.774.435 7.61.666 11.5.666 54.897 0 99.4-44.503 99.4-99.4 0-54.897-44.503-99.4-99.4-99.4z" fill="#edbd2d"/><ellipse cx="106.9" cy="173.167" fill="#f9f6f6" rx="66.267" ry="66.267" transform="matrix(.145 -.99 .99 .145 -79.923 253.86)"/><path d="m106.9 106.9c-3.925 0-7.763.361-11.5 1.015 31.113 5.447 54.767 32.578 54.767 65.252s-23.653 59.804-54.767 65.252c3.737.654 7.575 1.015 11.5 1.015 36.598 0 66.267-29.669 66.267-66.267s-29.669-66.267-66.267-66.267z" fill="#ecdaec"/></g></g><g><circle cx="405.1" cy="173.167" fill="#f4d844" r="99.4"/><path d="m405.1 73.767c-3.89 0-7.726.231-11.5.666 49.479 5.701 87.9 47.727 87.9 98.734s-38.421 93.033-87.9 98.734c3.774.435 7.61.666 11.5.666 54.897 0 99.4-44.503 99.4-99.4 0-54.897-44.503-99.4-99.4-99.4z" fill="#edbd2d"/><ellipse cx="405.1" cy="173.167" fill="#f9f6f6" rx="66.267" ry="66.267" transform="matrix(.16 -.987 .987 .16 169.28 545.298)"/><path d="m405.1 106.9c-3.925 0-7.763.361-11.5 1.015 31.113 5.447 54.767 32.578 54.767 65.252s-23.653 59.804-54.767 65.252c3.737.654 7.575 1.015 11.5 1.015 36.598 0 66.267-29.669 66.267-66.267s-29.669-66.267-66.267-66.267z" fill="#ecdaec"/></g><g fill="#b9e4ef"><path d="m7.5 421.667c18.299 0 33.133-14.834 33.133-33.133s-14.834-33.133-33.133-33.133z"/><path d="m504.5 355.4c-18.299 0-33.133 14.834-33.133 33.133s14.834 33.133 33.133 33.133z"/></g></g><g><path d="m73.767 191.711c4.142 0 7.5-3.357 7.5-7.5v-22.089c0-4.143-3.358-7.5-7.5-7.5s-7.5 3.357-7.5 7.5v22.089c0 4.143 3.357 7.5 7.5 7.5z"/><path d="m106.9 213.8c4.142 0 7.5-3.357 7.5-7.5v-66.267c0-4.143-3.358-7.5-7.5-7.5s-7.5 3.357-7.5 7.5v66.267c0 4.142 3.358 7.5 7.5 7.5z"/><path d="m140.033 191.711c4.142 0 7.5-3.357 7.5-7.5v-22.089c0-4.143-3.358-7.5-7.5-7.5s-7.5 3.357-7.5 7.5v22.089c0 4.143 3.358 7.5 7.5 7.5z"/><path d="m106.9 246.934c40.675 0 73.767-33.092 73.767-73.767s-33.092-73.767-73.767-73.767-73.767 33.092-73.767 73.767 33.092 73.767 73.767 73.767zm0-132.534c32.404 0 58.767 26.362 58.767 58.767s-26.363 58.767-58.767 58.767-58.767-26.362-58.767-58.767 26.363-58.767 58.767-58.767z"/><path d="m394.056 180.667h22.089c4.143 0 7.5-3.357 7.5-7.5s-3.357-7.5-7.5-7.5h-22.089c-4.143 0-7.5 3.357-7.5 7.5s3.357 7.5 7.5 7.5z"/><path d="m405.1 246.934c40.675 0 73.767-33.092 73.767-73.767s-33.093-73.767-73.767-73.767-73.767 33.092-73.767 73.767 33.092 73.767 73.767 73.767zm0-132.534c32.404 0 58.767 26.362 58.767 58.767s-26.362 58.767-58.767 58.767-58.767-26.362-58.767-58.767 26.362-58.767 58.767-58.767z"/><path d="m405.1 66.267c-1.66 0-3.311.043-4.953.119-36.155-42.233-88.462-66.386-144.147-66.386-55.686 0-107.993 24.153-144.147 66.385-1.642-.075-3.293-.119-4.953-.119-58.945.001-106.9 47.956-106.9 106.901v298.199c0 22.406 18.228 40.634 40.633 40.634h430.733c22.406 0 40.634-18.228 40.634-40.634v-298.199c0-58.945-47.955-106.9-106.9-106.9zm91.9 106.9c0 50.674-41.227 91.899-91.9 91.899s-91.9-41.225-91.9-91.899 41.226-91.9 91.899-91.9 91.901 41.226 91.901 91.9zm-196.068-24.067h-89.865c-5.139-22.252-17.248-41.866-33.891-56.416 7.578-6.166 15.786-11.376 24.458-15.569.012-.005.023-.011.034-.017 16.776-8.105 35.285-12.398 54.332-12.398s37.558 4.294 54.335 12.399c.01.005.019.01.029.015 8.672 4.193 16.881 9.403 24.46 15.569-16.643 14.551-28.752 34.164-33.892 56.417zm81.147-80.33c-12.635 2.784-24.44 7.807-34.972 14.635-7.082-6.077-14.69-11.386-22.708-15.883l19.309-28.964c14.014 8.143 26.935 18.281 38.371 30.212zm-51.729-37.216-19.528 29.292c-17.155-7.301-35.748-11.146-54.822-11.146-19.075 0-37.668 3.844-54.822 11.146l-19.528-29.292c22.944-10.788 48.244-16.554 74.35-16.554s51.406 5.766 74.35 16.554zm-162.058 7.004 19.309 28.964c-8.019 4.497-15.626 9.806-22.708 15.883-10.532-6.828-22.336-11.851-34.972-14.635 11.436-11.931 24.357-22.069 38.371-30.212zm-61.392 42.709c50.674 0 91.9 41.227 91.9 91.9s-41.226 91.899-91.9 91.899-91.9-41.225-91.9-91.899 41.226-91.9 91.9-91.9zm-91.9 282.755c10.486 3.215 18.133 12.986 18.133 24.511 0 11.526-7.647 21.297-18.133 24.512zm150.666-50.822v67.333c0 8.547 6.953 15.5 15.5 15.5h1.067v67.833h-51.267v-67.833h1.066c8.547 0 15.5-6.953 15.5-15.5v-67.333zm66.267 0v67.333c0 8.547 6.953 15.5 15.5 15.5h1.067v67.833h-51.267v-67.833h1.066c8.547 0 15.5-6.953 15.5-15.5v-67.333zm66.267 0v67.333c0 8.547 6.953 15.5 15.5 15.5h1.066v67.833h-51.266v-67.833h1.066c8.547 0 15.5-6.953 15.5-15.5v-67.333zm66.267 0v67.333c0 8.547 6.953 15.5 15.5 15.5h1.066v67.833h-51.267v-67.833h1.066c8.547 0 15.5-6.953 15.5-15.5v-67.333zm65.766 0c.275 0 .5.225.5.5v149.383.283c0 .275-.225.5-.5.5h-34.2v-67.833h1.066c8.547 0 15.5-6.953 15.5-15.5v-67.333zm-32.633 67.333c0 .275-.225.5-.5.5h-17.133c-.275 0-.5-.225-.5-.5v-67.333h18.133zm-66.267 0c0 .275-.225.5-.5.5h-17.133c-.275 0-.5-.225-.5-.5v-67.333h18.133zm-66.267 0c0 .275-.225.5-.5.5h-17.133c-.276 0-.5-.225-.5-.5v-67.333h18.133zm-66.266 0c0 .275-.224.5-.5.5h-17.133c-.276 0-.5-.225-.5-.5v-67.333h18.133zm-66.267 0c0 .275-.224.5-.5.5h-17.133c-.276 0-.5-.225-.5-.5v-67.333h18.133zm-17.633 15.5h1.067v67.833h-34.2c-.276 0-.5-.225-.5-.5v-.283-149.383c0-.275.224-.5.5-.5h17.633v67.333c0 8.547 6.953 15.5 15.5 15.5zm-33.633 82.808c.168.005.331.025.5.025h348.467c.169 0 .332-.02.5-.025v18.159h-349.467zm415.733-65.796c-10.487-3.215-18.134-12.986-18.134-24.512 0-11.525 7.647-21.296 18.134-24.511zm0-64.439c-18.833 3.53-33.134 20.085-33.134 39.927s14.3 36.398 33.134 39.928v42.905c0 14.135-11.499 25.634-25.634 25.634h-25.633v-33.634-.283-149.383c0-8.547-6.953-15.5-15.5-15.5h-348.466c-8.547 0-15.5 6.953-15.5 15.5v149.383.283 33.634h-25.634c-14.134 0-25.633-11.499-25.633-25.634v-42.905c18.833-3.53 33.133-20.086 33.133-39.928s-14.3-36.397-33.133-39.927v-120.892c18.662 31.321 52.868 52.352 91.9 52.352 58.945 0 106.9-47.955 106.9-106.899 0-3.054-.136-6.077-.388-9.067h85.177c-.252 2.99-.388 6.013-.388 9.067 0 58.944 47.955 106.899 106.899 106.899 39.032 0 73.239-21.031 91.9-52.352z"/><path d="m222.867 265.066h-16.567c-4.142 0-7.5 3.357-7.5 7.5s3.358 7.5 7.5 7.5h16.567c4.142 0 7.5-3.357 7.5-7.5s-3.358-7.5-7.5-7.5z"/><path d="m305.7 265.066h-16.566c-4.143 0-7.5 3.357-7.5 7.5s3.357 7.5 7.5 7.5h16.566c4.143 0 7.5-3.357 7.5-7.5s-3.357-7.5-7.5-7.5z"/></g></g></svg>