<?xml version="1.0" encoding="iso-8859-1"?>
<!-- Generator: Adobe Illustrator 19.0.0, SVG Export Plug-In . SVG Version: 6.00 Build 0)  -->
<svg xmlns="http://www.w3.org/2000/svg" xmlns:xlink="http://www.w3.org/1999/xlink" version="1.1" id="Layer_1" x="0px" y="0px" viewBox="0 0 512 512" style="enable-background:new 0 0 512 512;" xml:space="preserve">
<path style="fill:#00838F;" d="M42.667,81.067h426.667c18.85,0,34.133,15.283,34.133,34.133v281.6  c0,18.85-15.283,34.133-34.133,34.133H42.667c-18.85,0-34.133-15.283-34.133-34.133V115.2C8.533,96.35,23.817,81.067,42.667,81.067z  "/>
<path style="fill:#00BCD4;" d="M42.667,81.067H435.2c18.85,0,34.133,15.283,34.133,34.133v281.6  c0,18.85-15.283,34.133-34.133,34.133H42.667c-18.85,0-34.133-15.283-34.133-34.133V115.2C8.533,96.35,23.817,81.067,42.667,81.067z  "/>
<path d="M42.65,439.467c-11.383,0-22.084-4.437-30.148-12.484C4.446,418.927,0,408.218,0,396.817V115.2  c0-11.392,4.437-22.101,12.484-30.165c8.055-8.055,18.765-12.501,30.165-12.501h426.684h0.009c23.518,0,42.65,19.123,42.658,42.641  V396.8c0.009,23.518-19.115,42.658-42.65,42.667H435.2V251.733c-0.009-4.676-3.849-8.525-8.559-8.533h-8.508v102.4  c-0.034,9.395-7.671,17.033-17.033,17.067H384c-9.395-0.034-17.033-7.671-17.067-17.033V243.2h-17.067v102.4  c-0.034,9.395-7.671,17.033-17.033,17.067h-17.101c-9.395-0.034-17.033-7.671-17.067-17.033V243.2H281.6v102.4  c-0.034,9.395-7.671,17.033-17.033,17.067h-17.101c-9.404-0.034-17.041-7.671-17.067-17.041V243.2h-17.067v102.4  c-0.026,9.395-7.663,17.033-17.041,17.067H179.2c-9.404-0.034-17.041-7.671-17.067-17.041V243.2h-17.067v102.4  c-0.026,9.395-7.663,17.033-17.041,17.067h-17.092c-9.404-0.034-17.041-7.671-17.067-17.041V243.2h-8.533  c-4.676,0.009-8.525,3.857-8.533,8.559v187.708H42.667C42.658,439.467,42.658,439.467,42.65,439.467z M42.667,89.6  c-14.131,0-25.6,11.486-25.6,25.6v281.6c0,6.844,2.671,13.278,7.501,18.108c4.83,4.83,11.255,7.492,18.082,7.492h0.009h17.067  V251.733c0.043-14.08,11.52-25.557,25.574-25.6h25.634V345.6H128V226.133h51.2V345.6h17.067V226.133h51.2V345.6h17.067V226.133h51.2  V345.6H332.8V226.133H384V345.6h17.067V226.133h25.6c14.089,0.043,25.566,11.52,25.6,25.583V422.4h17.067  c6.844,0,13.278-2.671,18.108-7.501c4.83-4.83,7.492-11.255,7.492-18.099V115.183c-0.009-14.106-11.486-25.583-25.591-25.583  c0,0,0,0-0.009,0H42.667z"/>
<path style="fill:#F4F4F4;" d="M119.467,354.133v76.8h-51.2v-179.2c0.026-9.412,7.654-17.041,17.067-17.067H102.4V345.6  c0.017,4.71,3.823,8.516,8.533,8.533H119.467z"/>
<path d="M128,439.467H59.733V251.733c0.043-14.08,11.52-25.557,25.574-25.6h25.626V345.6H128V439.467z M76.8,422.4h34.133v-59.733  c-9.404-0.034-17.041-7.671-17.067-17.041V243.2h-8.533c-4.676,0.009-8.525,3.857-8.533,8.559V422.4z"/>
<path style="fill:#F4F4F4;" d="M187.733,354.133v76.8h-68.267v-76.8H128c4.71-0.017,8.516-3.823,8.533-8.533V234.667h34.133V345.6  c0.017,4.71,3.823,8.516,8.533,8.533H187.733z"/>
<path d="M196.267,439.467h-85.333V345.6H128V226.133h51.2V345.6h17.067V439.467z M128,422.4h51.2v-59.733  c-9.404-0.034-17.041-7.671-17.067-17.041V243.2h-17.067v102.4c-0.026,9.395-7.663,17.033-17.041,17.067H128V422.4z"/>
<path id="SVGCleanerId_0" d="M110.933,362.667c-9.404-0.034-17.041-7.671-17.067-17.041V226.133h51.2V345.6  c-0.026,9.395-7.663,17.033-17.041,17.067H110.933z M110.933,243.2v102.4H128V243.2H110.933z"/>
<g>
	<path style="fill:#F4F4F4;" d="M256,354.133v76.8h-68.267v-76.8h8.533c4.71-0.017,8.516-3.823,8.533-8.533V234.667h34.133V345.6   c0.017,4.71,3.823,8.516,8.533,8.533H256z"/>
	<path style="fill:#F4F4F4;" d="M324.267,354.133v76.8H256v-76.8h8.533c4.71-0.017,8.516-3.823,8.533-8.533V234.667H307.2V345.6   c0.017,4.71,3.823,8.516,8.533,8.533H324.267z"/>
	<path style="fill:#F4F4F4;" d="M392.533,354.133v76.8h-68.267v-76.8h8.533c4.71-0.017,8.516-3.823,8.533-8.533V234.667h34.133   V345.6c0.017,4.71,3.823,8.516,8.533,8.533H392.533z"/>
</g>
<path d="M264.533,439.467H179.2V345.6h17.067V226.133h51.2V345.6h17.067V439.467z M196.267,422.4h51.2v-59.733  c-9.404-0.034-17.041-7.671-17.067-17.041V243.2h-17.067v102.4c-0.026,9.395-7.663,17.033-17.041,17.067h-0.026V422.4z"/>
<path id="SVGCleanerId_1" d="M179.2,362.667c-9.404-0.034-17.041-7.671-17.067-17.041V226.133h51.2V345.6  c-0.026,9.395-7.663,17.033-17.041,17.067H179.2z M179.2,243.2v102.4h17.067V243.2H179.2z"/>
<path d="M332.8,439.467h-85.333V345.6h17.067V226.133h51.2V345.6H332.8V439.467z M264.533,422.4h51.2v-59.733  c-9.395-0.034-17.033-7.671-17.067-17.033V243.2H281.6v102.4c-0.034,9.395-7.671,17.033-17.033,17.067h-0.034V422.4z"/>
<path id="SVGCleanerId_2" d="M247.467,362.667c-9.404-0.034-17.041-7.671-17.067-17.041V226.133h51.2V345.6  c-0.034,9.395-7.671,17.033-17.033,17.067H247.467z M247.467,243.2v102.4h17.067V243.2H247.467z"/>
<path d="M401.067,439.467h-85.333V345.6H332.8V226.133H384V345.6h17.067V439.467z M332.8,422.4H384v-59.733  c-9.395-0.034-17.033-7.671-17.067-17.033V243.2h-17.067v102.4c-0.034,9.395-7.671,17.033-17.033,17.067H332.8V422.4z"/>
<path id="SVGCleanerId_3" d="M315.733,362.667c-9.395-0.034-17.033-7.671-17.067-17.033V226.133h51.2V345.6  c-0.034,9.395-7.671,17.033-17.033,17.067H315.733z M315.733,243.2v102.4H332.8V243.2H315.733z"/>
<path style="fill:#CFD8DC;" d="M443.733,251.733v179.2h-51.2v-76.8h8.533c4.71-0.017,8.516-3.823,8.533-8.533V234.667h17.067  C436.079,234.692,443.708,242.321,443.733,251.733z"/>
<path d="M452.267,439.467H384V345.6h17.067V226.133h25.6c14.089,0.043,25.566,11.52,25.6,25.583V439.467z M401.067,422.4H435.2  V251.75c-0.009-4.702-3.849-8.542-8.559-8.55h-8.508v102.4c-0.034,9.395-7.671,17.033-17.033,17.067h-0.034V422.4z"/>
<path id="SVGCleanerId_4" d="M384,362.667c-9.395-0.034-17.033-7.671-17.067-17.033V226.133h51.2V345.6  c-0.034,9.395-7.671,17.033-17.033,17.067H384z M384,243.2v102.4h17.067V243.2H384z"/>
<g>
	<path style="fill:#37474F;" d="M136.533,234.667V345.6c-0.017,4.71-3.823,8.516-8.533,8.533h-17.067   c-4.71-0.017-8.516-3.823-8.533-8.533V234.667H136.533z"/>
	<path style="fill:#37474F;" d="M204.8,234.667V345.6c-0.017,4.71-3.823,8.516-8.533,8.533H179.2   c-4.71-0.017-8.516-3.823-8.533-8.533V234.667H204.8z"/>
	<path style="fill:#37474F;" d="M273.067,234.667V345.6c-0.017,4.71-3.823,8.516-8.533,8.533h-17.067   c-4.71-0.017-8.516-3.823-8.533-8.533V234.667H273.067z"/>
	<path style="fill:#37474F;" d="M341.333,234.667V345.6c-0.017,4.71-3.823,8.516-8.533,8.533h-17.067   c-4.71-0.017-8.516-3.823-8.533-8.533V234.667H341.333z"/>
	<path style="fill:#37474F;" d="M409.6,234.667V345.6c-0.017,4.71-3.823,8.516-8.533,8.533H384c-4.71-0.017-8.516-3.823-8.533-8.533   V234.667H409.6z"/>
</g>
<g>
	<path id="SVGCleanerId_0_1_" d="M110.933,362.667c-9.404-0.034-17.041-7.671-17.067-17.041V226.133h51.2V345.6   c-0.026,9.395-7.663,17.033-17.041,17.067H110.933z M110.933,243.2v102.4H128V243.2H110.933z"/>
</g>
<g>
	<path id="SVGCleanerId_1_1_" d="M179.2,362.667c-9.404-0.034-17.041-7.671-17.067-17.041V226.133h51.2V345.6   c-0.026,9.395-7.663,17.033-17.041,17.067H179.2z M179.2,243.2v102.4h17.067V243.2H179.2z"/>
</g>
<g>
	<path id="SVGCleanerId_2_1_" d="M247.467,362.667c-9.404-0.034-17.041-7.671-17.067-17.041V226.133h51.2V345.6   c-0.034,9.395-7.671,17.033-17.033,17.067H247.467z M247.467,243.2v102.4h17.067V243.2H247.467z"/>
</g>
<g>
	<path id="SVGCleanerId_3_1_" d="M315.733,362.667c-9.395-0.034-17.033-7.671-17.067-17.033V226.133h51.2V345.6   c-0.034,9.395-7.671,17.033-17.033,17.067H315.733z M315.733,243.2v102.4H332.8V243.2H315.733z"/>
</g>
<g>
	<path id="SVGCleanerId_4_1_" d="M384,362.667c-9.395-0.034-17.033-7.671-17.067-17.033V226.133h51.2V345.6   c-0.034,9.395-7.671,17.033-17.033,17.067H384z M384,243.2v102.4h17.067V243.2H384z"/>
</g>
<g>
	<path style="fill:#FFEB3A;" d="M89.404,117.786l9.583,20.463c0.64,1.357,1.903,2.304,3.388,2.534l21.803,3.337   c2.449,0.375,4.139,2.671,3.763,5.12c-0.145,0.922-0.572,1.783-1.22,2.458l-16.068,16.503c-0.99,1.024-1.442,2.449-1.212,3.857   l3.755,23.049c0.401,2.449-1.263,4.762-3.712,5.154c-0.998,0.162-2.014-0.017-2.901-0.503l-19.063-10.564   c-1.357-0.751-2.995-0.751-4.352,0l-19.081,10.573c-2.167,1.203-4.907,0.418-6.11-1.749c-0.486-0.879-0.666-1.903-0.503-2.901   l3.755-23.049c0.23-1.408-0.222-2.833-1.212-3.857l-16.068-16.512c-1.732-1.775-1.69-4.625,0.085-6.349   c0.674-0.657,1.527-1.084,2.458-1.22l21.803-3.337c1.485-0.23,2.756-1.178,3.388-2.534l9.583-20.463   c1.05-2.244,3.729-3.217,5.973-2.159C88.192,116.07,88.96,116.838,89.404,117.786z"/>
	<path style="fill:#FFEB3A;" d="M430.737,117.786l9.583,20.463c0.64,1.357,1.903,2.304,3.388,2.534l21.803,3.337   c2.449,0.375,4.139,2.671,3.763,5.12c-0.145,0.922-0.572,1.783-1.22,2.458l-16.068,16.503c-0.99,1.024-1.442,2.449-1.212,3.857   l3.755,23.049c0.401,2.449-1.263,4.762-3.712,5.154c-0.998,0.162-2.014-0.017-2.901-0.503l-19.063-10.564   c-1.357-0.751-2.995-0.751-4.352,0l-19.081,10.573c-2.167,1.203-4.907,0.418-6.11-1.749c-0.486-0.879-0.666-1.903-0.503-2.901   l3.755-23.049c0.23-1.408-0.222-2.833-1.212-3.857l-16.068-16.503c-1.732-1.775-1.69-4.625,0.085-6.349   c0.674-0.657,1.527-1.084,2.458-1.22l21.803-3.337c1.485-0.23,2.756-1.178,3.388-2.534l9.583-20.463   c1.05-2.244,3.729-3.217,5.973-2.159C429.525,116.07,430.293,116.838,430.737,117.786z"/>
</g>
<path d="M108.766,208.862c-2.202,0-4.386-0.555-6.323-1.63l-17.109-9.481l-17.109,9.481c-6.289,3.473-14.234,1.195-17.707-5.094  c-1.408-2.526-1.929-5.521-1.459-8.405l3.422-21.043l-14.643-15.044c-2.432-2.475-3.738-5.76-3.703-9.242  c0.043-3.482,1.442-6.741,3.934-9.173c1.954-1.903,4.42-3.132,7.117-3.55l19.678-3.012l8.67-18.509  c1.476-3.14,4.087-5.53,7.364-6.716c3.277-1.195,6.818-1.033,9.967,0.452c2.748,1.28,4.975,3.516,6.263,6.272l8.67,18.5  l19.678,3.021c3.439,0.529,6.468,2.364,8.533,5.171c2.057,2.807,2.901,6.246,2.364,9.685c-0.41,2.688-1.638,5.154-3.55,7.108  l-14.643,15.036l3.422,21.043c0.563,3.43-0.247,6.878-2.287,9.702c-2.039,2.825-5.043,4.685-8.474,5.248  C110.157,208.802,109.466,208.862,108.766,208.862z M55.535,151.364l10.59,10.88c2.867,2.953,4.181,7.125,3.524,11.187  l-2.415,14.831l11.785-6.528c3.951-2.185,8.67-2.185,12.621,0l11.785,6.528l-2.415-14.831c-0.666-4.053,0.649-8.226,3.516-11.179  l10.598-10.88l-14.046-2.15c-4.292-0.649-7.97-3.396-9.822-7.339l-5.922-12.663l-5.922,12.646c-1.852,3.951-5.53,6.699-9.83,7.347  L55.535,151.364z"/>
<path d="M450.099,208.862c-2.193,0-4.378-0.555-6.315-1.621l-17.118-9.489l-17.109,9.472c-6.289,3.482-14.251,1.186-17.707-5.086  c-1.399-2.509-1.929-5.495-1.468-8.371l3.43-21.069l-14.652-15.044c-5.018-5.171-4.89-13.44,0.256-18.432  c1.92-1.886,4.386-3.115,7.1-3.533l19.686-3.021l8.67-18.509c1.468-3.149,4.087-5.538,7.356-6.724  c3.285-1.186,6.827-1.015,9.958,0.452c2.765,1.297,4.983,3.524,6.263,6.272l8.67,18.509l19.686,3.021  c7.1,1.084,11.981,7.748,10.897,14.839c-0.41,2.697-1.621,5.154-3.524,7.108l-14.669,15.061l3.43,21.035  c0.555,3.439-0.256,6.886-2.295,9.711c-2.031,2.825-5.043,4.685-8.474,5.239C451.49,208.802,450.799,208.862,450.099,208.862z   M396.868,151.373l10.59,10.871c2.867,2.944,4.181,7.117,3.533,11.162l-2.423,14.857l11.793-6.528c3.883-2.167,8.721-2.159,12.621,0  l11.785,6.528l-2.423-14.831c-0.649-4.07,0.666-8.243,3.524-11.179l10.598-10.88l-14.046-2.15c-4.284-0.649-7.962-3.388-9.813-7.322  l-5.939-12.672l-5.922,12.646c-1.869,3.959-5.538,6.699-9.83,7.347L396.868,151.373z"/>
<g>
	<path style="fill:#C52828;" d="M196.267,166.4h17.067c4.71,0,8.533,3.823,8.533,8.533V192c0,4.71-3.823,8.533-8.533,8.533h-17.067   c-4.71,0-8.533-3.823-8.533-8.533v-17.067C187.733,170.223,191.556,166.4,196.267,166.4z"/>
	<path style="fill:#C52828;" d="M298.667,166.4h17.067c4.71,0,8.533,3.823,8.533,8.533V192c0,4.71-3.823,8.533-8.533,8.533h-17.067   c-4.71,0-8.533-3.823-8.533-8.533v-17.067C290.133,170.223,293.956,166.4,298.667,166.4z"/>
	<path style="fill:#C52828;" d="M247.467,115.2h17.067c4.71,0,8.533,3.823,8.533,8.533V140.8c0,4.71-3.823,8.533-8.533,8.533   h-17.067c-4.71,0-8.533-3.823-8.533-8.533v-17.067C238.933,119.023,242.756,115.2,247.467,115.2z"/>
</g>
<path d="M213.333,209.067h-17.067c-9.412,0-17.067-7.654-17.067-17.067v-17.067c0-9.412,7.654-17.067,17.067-17.067h17.067  c9.412,0,17.067,7.654,17.067,17.067V192C230.4,201.412,222.746,209.067,213.333,209.067z M196.267,174.933h-0.009L196.267,192  h17.067v-17.067H196.267z"/>
<path d="M204.8,174.933c-4.71,0-8.533-3.823-8.533-8.533v-51.2c0-4.71,3.823-8.533,8.533-8.533c4.71,0,8.533,3.823,8.533,8.533v51.2  C213.333,171.11,209.51,174.933,204.8,174.933z"/>
<path d="M315.733,209.067h-17.067c-9.412,0-17.067-7.654-17.067-17.067v-17.067c0-9.412,7.654-17.067,17.067-17.067h17.067  c9.412,0,17.067,7.654,17.067,17.067V192C332.8,201.412,325.146,209.067,315.733,209.067z M298.667,174.933L298.667,174.933V192  h17.067v-17.067H298.667z"/>
<path d="M307.2,174.933c-4.719,0-8.533-3.823-8.533-8.533v-51.2c0-4.71,3.814-8.533,8.533-8.533c4.719,0,8.533,3.823,8.533,8.533  v51.2C315.733,171.11,311.919,174.933,307.2,174.933z"/>
<path d="M264.533,157.867h-17.067c-9.412,0-17.067-7.654-17.067-17.067v-17.067c0-9.412,7.654-17.067,17.067-17.067h17.067  c9.412,0,17.067,7.654,17.067,17.067V140.8C281.6,150.212,273.946,157.867,264.533,157.867z M247.467,123.733h-0.009l0.009,17.067  h17.067v-17.067H247.467z"/>
<path d="M256,209.067c-4.71,0-8.533-3.823-8.533-8.533v-51.2c0-4.71,3.823-8.533,8.533-8.533c4.71,0,8.533,3.823,8.533,8.533v51.2  C264.533,205.244,260.71,209.067,256,209.067z"/>
<g>
</g>
<g>
</g>
<g>
</g>
<g>
</g>
<g>
</g>
<g>
</g>
<g>
</g>
<g>
</g>
<g>
</g>
<g>
</g>
<g>
</g>
<g>
</g>
<g>
</g>
<g>
</g>
<g>
</g>
</svg>
