<svg enable-background="new 0 0 128 128" height="512" viewBox="0 0 128 128" width="512" xmlns="http://www.w3.org/2000/svg"><g id="Pig"><g id="Body_2_"><path d="m91.4 74.6-.9-4.6-41 10-.9 5.1-.1-.1c-4.8 4-6.2 30.7 0 30 .8-.1 1.5-.1 2.1-.2 2.1-.2 3.8-1.9 3.8-4.1 0-.8.1-1.7.2-2.8 4.3 2.1 9.7 3.8 15.5 3.4-.1 1.9-.3 3.4-.6 3.7-.8 1 6.8 2.6 8 1 .5-.6 1.4-3.5 2.1-6.7 3.8-1.1 7-2.5 9.6-3.8-.5 2.9-.9 5.7-.7 6.5.6 1.6 6 0 6 0 5.8-8.8 8.1-29.3-3.1-37.4z" fill="#ffb6c6"/><path d="m61.5 93c15.9 0 29.6-1.2 36.6-8.4-1.2-4-3.4-7.6-6.7-10l-.9-4.6-41 10-.9 5.1-.1-.1c-1.3 1.1-2.4 3.9-3.1 7.3 5 .5 10.4.7 16.1.7z" fill="#ff97a9"/><path d="m100.1 86.3c-1.2-5.4-3.7-9.7-7.4-12.5l1 5.3c1.9 2.6 2.9 5.5 3.4 7.9.8 3.8.8 7.8.3 11.5-.2 1.5-.5 2.9-.8 4.3-.8 3.2-1.9 5.9-3.2 8-1.4.4-3 .6-3.6.5 0-.8.2-2.6.6-4.7v-.2c1.2-.6 2.3-1.3 2.8-1.5.7-.4 1.4-1.1 1.2-1.9-.3-.8-1.1-1.5-2-.9-.1 0-.2.1-.2.1s-.1.1-.2.1c-.2.1-.5.3-.8.5-1.1.6-2.5 1.4-3.4 1.8-1.8.9-4 1.8-6.4 2.6.3-2.5.2-4.9-.5-6.7-.3-.8-1.2-1.1-2-.8s-1.1 1.2-.8 2c.7 1.6.5 4.2.1 6.6-.2 1.2-.4 2.3-.7 3.3-.5 1.8-.9 3.1-1.2 3.6-.8.4-3.8 0-5.2-.5.1-.5.2-1.1.3-1.9s.2-1.8.3-3.1c.1-2.1.2-4.8.3-8.6 0-.8-.6-1.5-1.5-1.5-.8 0-1.5.7-1.5 1.5-.1 3-.2 6.3-.3 8.9-4.5.1-8.8-1.2-12.4-2.8.3-1.7.9-3.5 1.6-5.5.3-.8-.1-1.6-.9-1.9s-1.6.1-1.9.9c-.7 1.8-1.2 3.6-1.6 5.2-.3 1.1-.5 2.2-.5 3.1-.1.7-.1 1.3-.1 1.9 0 1.4-1 2.5-2.4 2.6-.6 0-1.3.1-2.1.2-.5 0-1-1-1.2-1.4-.8-1.9-1.2-4.7-1.3-7.9-.2-7.4 1.5-16.3 3.6-18.1.6-.5.7-1.5.2-2.1s-1.5-.7-2.1-.2c-.1.1-.2.2-.3.3-4.4 4.4-5.7 22.5-2.9 29.1 1.2 2.8 2.8 3.3 3.9 3.3h.4c.8-.1 1.4-.1 2.1-.2 2.9-.2 5.1-2.6 5.1-5.6 0-.2 0-.4 0-.6 3.6 1.5 7.9 2.7 12.5 2.7h.1c-.1.7-.1 1.2-.2 1.4-.4.7-.4 1.7.6 2.4.9.7 3.7 1.5 6.2 1.5 1.6 0 3-.3 3.7-1.3.5-.7 1.5-3.3 2.2-6.4 2.3-.7 4.5-1.6 6.3-2.4-.3 2.1-.4 3.7-.1 4.4.5 1.3 1.8 1.7 3.4 1.7 1.5 0 3.2-.4 4.5-.8.3-.1.6-.3.8-.6 3.6-5.8 6.4-16.7 4.2-26.6z"/></g><path id="Tail_1_" d="m99.5 93.5c-.6-.1-1-.5-1.2-1.1-.2-.8.3-1.6 1.1-1.8s3.6-.8 6-2.9c-1.2-.6-2.3-1.6-3.1-3-1-1.7-1-3.6.1-5.2.9-1.4 2.5-2.1 3.9-1.9 1 .1 2.8.8 3.7 3.7.3 1.1.5 2.2.4 3.2.7-.4 1.4-1 2.1-1.8 3.2-3.6 2.5-7.8 2.5-7.8-.1-.8.4-1.6 1.2-1.7s1.6.4 1.7 1.2c0 .2.9 5.6-3.2 10.3-1.8 2-3.8 3.2-5.8 3.5-2.8 3.8-8.6 5.2-8.9 5.2-.1.1-.4.1-.5.1zm6.4-12.8c-.4-.1-.8.2-1.1.6-.2.3-.5 1 0 2 .5.8 1.2 1.7 2.3 2 .3-.9.3-1.8-.1-2.9-.2-1-.6-1.7-1.1-1.7z"/><g id="Head_11_"><g id="Ear"><g><path d="m100.5 51.5c-6.8 3-15.7 3.3-21-2s-5.3-10.7 0-16 26.7-18.5 32-13.2c5.2 5.2 5.5 23.9-11 31.2z" fill="#ffb6c6"/><path d="m79.5 37.9c5.3-5.3 26.7-18.5 32-13.2 1.6 1.6 2.7 4.5 3.1 7.8.5-5.2-.8-10-3.1-12.2-5.3-5.3-26.7 8-32 13.2-3.4 3.4-4.6 6.8-3.6 10.2.4-2 1.6-3.9 3.6-5.8z" fill="#ffd0dc"/><path d="m99.2 45.6c-4.2 1.8-9.6 2-12.8-1.2s-3.2-6.5 0-9.7 16.2-11.3 19.4-8.1 3.4 14.6-6.6 19z" fill="#ff97a9"/><path d="m90.6 55.1c-4.5 0-8.9-1.3-12.2-4.6-2.9-2.9-4.4-6-4.4-9.1s1.5-6.1 4.4-9.1c4.9-4.9 27.6-19.8 34.1-13.2 3.1 3.1 4.4 9.4 3.2 15.6-.9 4.7-4 13.4-14.6 18.1-3.2 1.4-6.9 2.3-10.5 2.3zm17.1-34.7c-6.9 0-22.5 9.3-27.2 14.1-2.3 2.3-3.5 4.7-3.5 6.9 0 2.3 1.2 4.6 3.5 6.9 4.9 4.9 13.2 4.4 19.3 1.7 9.4-4.1 12.1-11.7 12.9-15.9 1.1-5.8-.4-10.9-2.4-13-.5-.4-1.4-.7-2.6-.7z"/></g><g><path d="m21.2 51.5c6.8 3 15.7 3.3 21-2s5.3-10.7 0-16-26.7-18.5-32-13.2-5.5 23.9 11 31.2z" fill="#ffb6c6"/><path d="m9.1 24.6c5.3-5.3 26.7 8 32 13.2 2.6 2.6 3.9 5.2 3.9 7.9 2.2-4.1 1.2-8.2-2.8-12.3-5.3-5.3-26.7-18.5-32-13.2-1.5 1.5-2.6 4.2-3 7.4.5-1.2 1.1-2.2 1.9-3z" fill="#ffd0dc"/><path d="m21.8 45.6c4.2 1.8 9.6 2 12.8-1.2s3.2-6.5 0-9.7-16.2-11.3-19.4-8.1-3.4 14.6 6.6 19z" fill="#ff97a9"/><path d="m31.1 55.1c-3.6 0-7.3-.9-10.5-2.2-10.7-4.8-13.8-13.4-14.7-18.1-1.1-6.3.1-12.6 3.2-15.6 6.5-6.5 29.2 8.3 34.1 13.2 5.8 5.8 5.8 12.3 0 18.1-3.2 3.3-7.6 4.6-12.1 4.6zm-17.2-34.7c-1.2 0-2.1.3-2.6.8-2 2-3.5 7.1-2.4 12.9.8 4.2 3.5 11.7 12.9 15.9 6.1 2.7 14.4 3.2 19.3-1.7 4.7-4.7 4.7-9.2 0-13.9-4.7-4.6-20.3-14-27.2-14z"/></g></g><g id="Head_3_"><path d="m103 66c0 19.6-18.6 22-41.5 22s-41.5-2.4-41.5-22 4-49 41.5-49c34.5 0 41.5 29.4 41.5 49z" fill="#ffb6c6"/><path d="m61.5 84c-22.5 0-40.7-2.3-41.5-20.9v2.9c0 19.6 18.6 22 41.5 22s41.5-2.4 41.5-22c0-.8 0-1.7 0-2.5-1 18.2-19.2 20.5-41.5 20.5z" fill="#ff97a9"/><path d="m61.5 30c29.9 0 39.1 22.1 41.1 40.8.3-1.5.4-3 .4-4.8 0-19.6-7-49-41.5-49-37.5 0-41.5 29.4-41.5 49 0 1.5.1 2.9.3 4.2 1.5-18.6 9-40.2 41.2-40.2z" fill="#ffd0dc"/><path d="m61.5 89.5c-21.8 0-43-1.8-43-23.5 0-8.9.7-22 6.9-32.6 6.9-11.9 19-17.9 36.1-17.9 15.9 0 27.6 6 35 17.9 6.6 10.7 8 23.7 8 32.6 0 21.7-21.2 23.5-43 23.5zm0-71c-35.9 0-40 27.1-40 47.5 0 17.1 14.7 20.5 40 20.5s40-3.4 40-20.5c0-14.3-3.9-47.5-40-47.5z"/></g><g id="Nose"><path d="m74 72.5c0 4.1-5.6 7.5-12.5 7.5s-12.5-3.4-12.5-7.5 5.6-9.5 12.5-9.5 12.5 5.4 12.5 9.5z" fill="#ff7287"/><path d="m61.5 67c5.8 0 10.6 3.8 12.1 7.4.3-.6.4-1.3.4-1.9 0-4.1-5.6-9.5-12.5-9.5s-12.5 5.4-12.5 9.5c0 .7.2 1.3.4 1.9 1.5-3.6 6.3-7.4 12.1-7.4z" fill="#ff97a9"/><path d="m61.5 81.5c-7.9 0-14-4-14-9s6.2-11 14-11 14 6 14 11-6.1 9-14 9zm0-17c-6.3 0-11 4.9-11 8 0 3.3 5 6 11 6s11-2.7 11-6c0-3.1-4.7-8-11-8z"/><ellipse cx="57.5" cy="72.5" rx="2" ry="4"/><ellipse cx="65.5" cy="72.5" rx="2" ry="4"/></g><g id="Eyes_9_"><circle cx="78" cy="60" r="3"/><circle cx="46" cy="60" r="3"/></g></g></g></svg>