<svg id="Filled" height="512" viewBox="0 0 512 512" width="512" xmlns="http://www.w3.org/2000/svg"><path d="m152 112h144v64h-144z" fill="#3a98e4" transform="matrix(0 -1 1 0 80 368)"/><path d="m192 72 64 64v-64-64z" fill="#3385c8"/><path d="m224 216h32a0 0 0 0 1 0 0v256a16 16 0 0 1 -16 16 16 16 0 0 1 -16-16v-256a0 0 0 0 1 0 0z" fill="#d9dbdd"/><path d="m128 200h144v64h-144z" fill="#e74444" transform="matrix(-1 0 0 -1 400 464)"/><path d="m128 264 64-64h-64-64z" fill="#ce3536"/><path d="m216 224h144v64h-144z" fill="#3a98e4" transform="matrix(0 1 -1 0 544 -32)"/><path d="m320 328-64-64v64 64z" fill="#3385c8"/><path d="m256 136h128v64h-128z" fill="#e74444"/><path d="m384 136-64 64h64 64z" fill="#ce3536"/><circle cx="256" cy="200" fill="#d9dbdd" r="24"/><path d="m448 208a8 8 0 0 0 5.657-13.657l-64-64a7.976 7.976 0 0 0 -5.657-2.343h-120v-120a8 8 0 0 0 -13.657-5.657l-64 64a7.973 7.973 0 0 0 -2.343 5.657v120h-120a8 8 0 0 0 -5.657 13.657l64 64a7.976 7.976 0 0 0 5.657 2.343h88v200a24 24 0 0 0 48 0v-76.687l61.657-61.656a7.975 7.975 0 0 0 2.343-5.657v-120zm-192 8a16 16 0 1 1 16-16 16.019 16.019 0 0 1 -16 16zm-8-46.987a32.115 32.115 0 0 0 -22.987 22.987h-25.013v-100.687l48 48zm-52.687 38.987h29.7a32.115 32.115 0 0 0 22.987 22.987v25.013h-100.687zm68.687 22.987a32.117 32.117 0 0 0 22.987-22.987h25.013v100.686l-48-48zm22.987-38.987a32.117 32.117 0 0 0 -22.987-22.987v-25.013h100.686l-48 48zm141.7 0h-89.374l44.687-44.687zm-180.687-164.687v89.374l-44.687-44.687zm-164.687 180.687h89.374l-44.687 44.687zm164.687 264a8 8 0 0 1 -16 0v-200h16zm16-99.313v-89.374l44.687 44.687z"/></svg>