<svg id="Layer_3" height="512" viewBox="0 0 64 64" width="512" xmlns="http://www.w3.org/2000/svg" data-name="Layer 3"><path d="m32 32h30a30 30 0 1 0 -8.787 21.213z" fill="#bf8958"/><path d="m31.992 58v-52a25.919 25.919 0 0 0 -18.385 7.615l36.885 36.885-.5.5a25.714 25.714 0 0 1 -18 7z" fill="#b52f28"/><path d="m31.992 58a26.843 26.843 0 0 0 10.92-2.26 24.493 24.493 0 0 0 5.08-3.74l.5-.5-16.5-16.5z" fill="#d23f34"/><path d="m28.967 7.02a25.881 25.881 0 0 0 -9.6 2.251 26.1 26.1 0 0 0 -5.76 4.344s8.293 8.295 16.385 16.385v-21.976a1 1 0 0 0 -1.025-1.004z" fill="#d23f34"/><path d="m32 32-18.385-18.385a25.919 25.919 0 0 0 -7.615 18.385" fill="#f4a93c"/><path d="m8.3 21.357a25.882 25.882 0 0 0 -2.27 10.625h23l-15.664-15.665a.993.993 0 0 0 -1.43.018 26.147 26.147 0 0 0 -3.636 5.022z" fill="#f6b940"/><path d="m32 58a25.919 25.919 0 0 1 -18.385-7.615l36.77-36.77a25.919 25.919 0 0 0 -18.385-7.615z" fill="#f4a93c"/><path d="m42.625 8.271a25.9 25.9 0 0 0 -10.625-2.271v23l15.665-15.665a.993.993 0 0 0 -.018-1.429 26.14 26.14 0 0 0 -5.022-3.635z" fill="#f6b940"/><path d="m13.615 50.385a26.1 26.1 0 0 0 5.76 4.344 25.885 25.885 0 0 0 9.6 2.251 1 1 0 0 0 1.025-1v-21.98z" fill="#f6b940"/><path d="m50.385 13.615a25.918 25.918 0 0 1 7.615 18.385h-52a25.918 25.918 0 0 0 7.615 18.385z" fill="#b52f28"/><path d="m7.708 41.266a25.918 25.918 0 0 0 5.907 9.119l16.264-16.264h-22.154a.994.994 0 0 0 -1 1.024 26.146 26.146 0 0 0 .983 6.121z" fill="#d23f34"/><path d="m58 32a26.093 26.093 0 0 0 -1-7.144 25.888 25.888 0 0 0 -5.2-8.381 1 1 0 0 0 -1.435-.014l-15.537 15.539z" fill="#d23f34"/><circle cx="24" cy="13" fill="#f6b940" r="2"/><circle cx="39" cy="13" fill="#d23f34" r="2"/><circle cx="25" cy="50" fill="#d23f34" r="2"/><circle cx="14" cy="39" fill="#f6b940" r="2"/><circle cx="14" cy="25" fill="#d23f34" r="2"/><circle cx="39" cy="50" fill="#f6b940" r="2"/><circle cx="50" cy="25" fill="#f6b940" r="2"/><path d="m53.227 9.407a31 31 0 0 0 -52.165 20.617 30.752 30.752 0 0 0 8.345 23.2 31.118 31.118 0 0 0 22.593 9.776 30.794 30.794 0 0 0 21.92-9.08 1 1 0 0 0 0-1.414l-19.505-19.506h27.585a1 1 0 0 0 1-1 31.127 31.127 0 0 0 -9.773-22.593zm-4.157 41.077a24.663 24.663 0 0 1 -16.07 6.471v-22.541zm-16.07-43.459a24.906 24.906 0 0 1 15.946 6.615l-15.946 15.946zm-2 22.561-15.946-15.946a24.906 24.906 0 0 1 15.946-6.615zm-17.36-14.532 15.946 15.946h-22.561a24.906 24.906 0 0 1 6.615-15.946zm15.946 17.946-15.946 15.946a24.906 24.906 0 0 1 -6.615-15.946zm1.414 1.414v22.561a24.906 24.906 0 0 1 -15.946-6.615zm3.414-3.414 15.946-15.946a24.906 24.906 0 0 1 6.615 15.946zm24.561 0a27 27 0 1 0 -26.975 28 26.793 26.793 0 0 0 18.491-7.095l1.3 1.3a29 29 0 1 1 -21.643-50.147q.939-.058 1.872-.058a29 29 0 0 1 28.963 28z"/><path d="m24 16a3 3 0 1 0 -3-3 3 3 0 0 0 3 3zm0-4a1 1 0 1 1 -1 1 1 1 0 0 1 1-1z"/><path d="m39 10a3 3 0 1 0 3 3 3 3 0 0 0 -3-3zm0 4a1 1 0 1 1 1-1 1 1 0 0 1 -1 1z"/><path d="m25 47a3 3 0 1 0 3 3 3 3 0 0 0 -3-3zm0 4a1 1 0 1 1 1-1 1 1 0 0 1 -1 1z"/><path d="m14 42a3 3 0 1 0 -3-3 3 3 0 0 0 3 3zm0-4a1 1 0 1 1 -1 1 1 1 0 0 1 1-1z"/><path d="m14 28a3 3 0 1 0 -3-3 3 3 0 0 0 3 3zm0-4a1 1 0 1 1 -1 1 1 1 0 0 1 1-1z"/><path d="m39 53a3 3 0 1 0 -3-3 3 3 0 0 0 3 3zm0-4a1 1 0 1 1 -1 1 1 1 0 0 1 1-1z"/><path d="m50 22a3 3 0 1 0 3 3 3 3 0 0 0 -3-3zm0 4a1 1 0 1 1 1-1 1 1 0 0 1 -1 1z"/></svg>