<svg id="svg4938" height="512" viewBox="0 0 16.933333 16.933334" width="512" xmlns="http://www.w3.org/2000/svg" xmlns:svg="http://www.w3.org/2000/svg"><g id="layer1" transform="translate(0 -280.067)"><path id="path5590" d="m8.431787 280.59634c-1.3021101 0-2.3720222.41958-3.107422 1.16992-.7354012.75033-1.1250002 1.81717-1.1250002 3.0625v6.34961c0 .92486.7276391 1.58789 1.58789 1.58789h5.2910172c.874898 0 1.58789-.71299 1.58789-1.58789v-6.34961c0-1.24533-.389599-2.31217-1.125-3.0625-.735401-.75034-1.8072652-1.16992-3.109375-1.16992z" font-variant-ligatures="normal" font-variant-position="normal" font-variant-caps="normal" font-variant-numeric="normal" font-variant-alternates="normal" font-feature-settings="normal" text-indent="0" text-align="start" text-decoration-line="none" text-decoration-style="solid" text-decoration-color="#000000" text-transform="none" text-orientation="mixed" white-space="normal" shape-padding="0" isolation="auto" mix-blend-mode="normal" solid-color="#000000" solid-opacity="1" vector-effect="none"/><path id="path4162" d="m8.431787 281.12563c1.189736 0 2.104455.373 2.730469 1.01172.626012.63873.97461 1.55548.97461 2.69141v6.34961c0 .59089-.4677 1.05859-1.058594 1.05859h-5.2910172c-.6055378 0-1.0585929-.39596-1.0585929-1.05859v-6.34961c0-1.13593.348596-2.05268.9746089-2.69141.6260132-.63872 1.5387791-1.01172 2.7285162-1.01172z" fill="#b0efeb" font-variant-ligatures="normal" font-variant-position="normal" font-variant-caps="normal" font-variant-numeric="normal" font-variant-alternates="normal" font-feature-settings="normal" text-indent="0" text-align="start" text-decoration-line="none" text-decoration-style="solid" text-decoration-color="#000000" text-transform="none" text-orientation="mixed" white-space="normal" shape-padding="0" isolation="auto" mix-blend-mode="normal" solid-color="#000000" solid-opacity="1" vector-effect="none"/><path id="path5594" d="m7.9024899 292.23696a.26460982.26460982 0 0 0 -.261719.24024l-.2675779 2.9121c-.03067.33482.09367.63145.3027339.81641.2090669.18497.480972.26563.7539059.26563.2729351 0 .5469191-.0807.7558601-.26563.2089409-.18497.332927-.48174.3027341-.81641l-.2636721-2.91015a.26460982.26460982 0 0 0 -.2636721-.24219z" font-variant-ligatures="normal" font-variant-position="normal" font-variant-caps="normal" font-variant-numeric="normal" font-variant-alternates="normal" font-feature-settings="normal" text-indent="0" text-align="start" text-decoration-line="none" text-decoration-style="solid" text-decoration-color="#000000" text-transform="none" text-orientation="mixed" white-space="normal" shape-padding="0" isolation="auto" mix-blend-mode="normal" solid-color="#000000" solid-opacity="1" vector-effect="none"/><path id="path4212" d="m8.144677 292.76626h.5742189l.2421869 2.66992c.01755.19451-.03702.29343-.1269529.37305-.08993.0796-.2374911.13281-.4042971.13281-.166805 0-.314306-.0532-.4042958-.13281-.08999-.0796-.142802-.1787-.125-.37305z" fill="#ecc99c" font-variant-ligatures="normal" font-variant-position="normal" font-variant-caps="normal" font-variant-numeric="normal" font-variant-alternates="normal" font-feature-settings="normal" text-indent="0" text-align="start" text-decoration-line="none" text-decoration-style="solid" text-decoration-color="#000000" text-transform="none" text-orientation="mixed" white-space="normal" shape-padding="0" isolation="auto" mix-blend-mode="normal" solid-color="#000000" solid-opacity="1" vector-effect="none"/><path id="path5598" d="m8.43244 280.59581c-.6128362 0-1.1700701.0952-1.6675982.27079a.26460979.26460979 0 0 0 -.175183.22169c-.0057.0542-.0093.11064-.0093.16898v10.84792c0 .17428.03468.33369.07958.47645a.26460979.26460979 0 0 0 .2521821.18501h3.040639a.26460979.26460979 0 0 0 .2521821-.18501c.0449-.14276.07958-.30217.07958-.47645v-10.84792c0-.0583-.0036-.11477-.0093-.16898a.26460979.26460979 0 0 0 -.175182-.22169c-.4975278-.17561-1.0547607-.27079-1.6675968-.27079z" font-variant-ligatures="normal" font-variant-position="normal" font-variant-caps="normal" font-variant-numeric="normal" font-variant-alternates="normal" font-feature-settings="normal" text-indent="0" text-align="start" text-decoration-line="none" text-decoration-style="solid" text-decoration-color="#000000" text-transform="none" text-orientation="mixed" white-space="normal" shape-padding="0" isolation="auto" mix-blend-mode="normal" solid-color="#000000" solid-opacity="1" vector-effect="none"/><path id="path4222" d="m9.7553569 281.3229v10.78229c0 .0436-.016071.0885-.022741.13229h-2.600356c-.0067-.0437-.022741-.0887-.022741-.13229v-10.78229c.3971319-.12109.8320878-.19792 1.322918-.19792.490829 0 .9257861.0768 1.322918.19792z" fill="#edffa9" font-variant-ligatures="normal" font-variant-position="normal" font-variant-caps="normal" font-variant-numeric="normal" font-variant-alternates="normal" font-feature-settings="normal" text-indent="0" text-align="start" text-decoration-line="none" text-decoration-style="solid" text-decoration-color="#000000" text-transform="none" text-orientation="mixed" white-space="normal" shape-padding="0" isolation="auto" mix-blend-mode="normal" solid-color="#000000" solid-opacity="1" vector-effect="none"/></g></svg>