<svg id="svg4938" height="512" viewBox="0 0 16.933333 16.933334" width="512" xmlns="http://www.w3.org/2000/svg" xmlns:svg="http://www.w3.org/2000/svg"><g id="layer1" transform="translate(0 -280.067)"><path id="path6266" d="m7.9223302 292.23775a.26460982.26460982 0 0 0 -.2636719.24024l-.265625 2.91015c-.05471.60178.4723411 1.08204 1.058594 1.08204.5824649 0 1.1118627-.47456 1.0566397-1.08204l-.2636718-2.91015a.26460982.26460982 0 0 0 -.2636719-.24024z" font-variant-ligatures="normal" font-variant-position="normal" font-variant-caps="normal" font-variant-numeric="normal" font-variant-alternates="normal" font-feature-settings="normal" text-indent="0" text-align="start" text-decoration-line="none" text-decoration-style="solid" text-decoration-color="#000000" text-transform="none" text-orientation="mixed" white-space="normal" shape-padding="0" isolation="auto" mix-blend-mode="normal" solid-color="#000000" solid-opacity="1" vector-effect="none"/><path id="path4164" d="m8.1645173 292.76705h.5742189l.2421871 2.66992c.0244.26839-.2322861.50391-.529296.50391-.293224 0-.5544511-.2487-.53125-.50391z" fill="#ecc99c" font-variant-ligatures="normal" font-variant-position="normal" font-variant-caps="normal" font-variant-numeric="normal" font-variant-alternates="normal" font-feature-settings="normal" text-indent="0" text-align="start" text-decoration-line="none" text-decoration-style="solid" text-decoration-color="#000000" text-transform="none" text-orientation="mixed" white-space="normal" shape-padding="0" isolation="auto" mix-blend-mode="normal" solid-color="#000000" solid-opacity="1" vector-effect="none"/><path id="path6296" d="m8.4516273 280.59518c-1.3021101 0-2.3720219.42153-3.107422 1.17187-.7354009.75034-1.1269541 1.81718-1.1269541 3.0625v6.34961c0 .92487.7276402 1.58789 1.5878911 1.58789h5.2910157c.874898 0 1.58789-.71299 1.58789-1.58789v-6.34961c0-1.24532-.389599-2.31216-1.125-3.0625-.7354-.75034-1.805311-1.17187-3.1074207-1.17187z" font-variant-ligatures="normal" font-variant-position="normal" font-variant-caps="normal" font-variant-numeric="normal" font-variant-alternates="normal" font-feature-settings="normal" text-indent="0" text-align="start" text-decoration-line="none" text-decoration-style="solid" text-decoration-color="#000000" text-transform="none" text-orientation="mixed" white-space="normal" shape-padding="0" isolation="auto" mix-blend-mode="normal" solid-color="#000000" solid-opacity="1" vector-effect="none"/><path id="path4224" d="m8.4516273 281.12447c1.1897357 0 2.1025017.37299 2.7285147 1.01172s.974609 1.55744.974609 2.69336v6.34961c0 .59089-.4677 1.05859-1.058593 1.05859h-5.2910157c-.6055379 0-1.058594-.39596-1.058594-1.05859v-6.34961c0-1.13592.348597-2.05463.9746099-2.69336.6260132-.63873 1.540732-1.01172 2.7304691-1.01172z" fill="#ff75a0" font-variant-ligatures="normal" font-variant-position="normal" font-variant-caps="normal" font-variant-numeric="normal" font-variant-alternates="normal" font-feature-settings="normal" text-indent="0" text-align="start" text-decoration-line="none" text-decoration-style="solid" text-decoration-color="#000000" text-transform="none" text-orientation="mixed" white-space="normal" shape-padding="0" isolation="auto" mix-blend-mode="normal" solid-color="#000000" solid-opacity="1" vector-effect="none"/><path id="path6286" d="m8.5492831 280.59908a.26460982.26460982 0 0 0 -.1933598.0781c-.421567.42551-.740047.94226-.93164 1.50977-.687746 2.05577.42473 4.28871 2.4804677 4.97656.8482.28345 1.768424.26861 2.607422-.041a.26460982.26460982 0 0 0 .171875-.24805v-2.04492c0-1.2295-.379624-2.28513-1.097656-3.0332s-1.763765-1.1764-3.0371089-1.19727z" font-variant-ligatures="normal" font-variant-position="normal" font-variant-caps="normal" font-variant-numeric="normal" font-variant-alternates="normal" font-feature-settings="normal" text-indent="0" text-align="start" text-decoration-line="none" text-decoration-style="solid" text-decoration-color="#000000" text-transform="none" text-orientation="mixed" white-space="normal" shape-padding="0" isolation="auto" mix-blend-mode="normal" solid-color="#000000" solid-opacity="1" vector-effect="none"/><path id="path4176" d="m8.6703774 281.15179c1.0898166.0473 1.9479156.40197 2.5332026 1.01174.611243.63682.951171 1.54467.951171 2.66602v1.79883c-.67936.21096-1.404492.25962-2.082031.0332-1.7839038-.5969-2.7421728-2.52065-2.1464838-4.30569.1529691-.45336.4208921-.85384.7441412-1.2041z" fill="#95e1d3" font-variant-ligatures="normal" font-variant-position="normal" font-variant-caps="normal" font-variant-numeric="normal" font-variant-alternates="normal" font-feature-settings="normal" text-indent="0" text-align="start" text-decoration-line="none" text-decoration-style="solid" text-decoration-color="#000000" text-transform="none" text-orientation="mixed" white-space="normal" shape-padding="0" isolation="auto" mix-blend-mode="normal" solid-color="#000000" solid-opacity="1" vector-effect="none"/><path id="path6282" d="m8.3910792 282.51119c-.5090189 1.52137.316511 3.17461 1.8378898 3.6836.768368.25551 1.608507.18061 2.31836-.20899.08459-.0467.136999-.13579.136718-.23242v-.92383c0-1.9435-.982114-3.44587-2.664062-3.99414-.03326-.0114-.06847-.0164-.103515-.0137-.03484.003-.06867.0131-.09961.0293-.6732671.34676-1.1845699.94228-1.425781 1.66016z" font-variant-ligatures="normal" font-variant-position="normal" font-variant-caps="normal" font-variant-numeric="normal" font-variant-alternates="normal" font-feature-settings="normal" text-indent="0" text-align="start" text-decoration-line="none" text-decoration-style="solid" text-decoration-color="#000000" text-transform="none" text-orientation="mixed" white-space="normal" shape-padding="0" isolation="auto" mix-blend-mode="normal" solid-color="#000000" solid-opacity="1" vector-effect="none"/><path id="path4174" d="m9.97116 281.4233c1.382278.51395 2.183593 1.6942 2.183593 3.40625v.70313c-.552141.26079-1.176791.35401-1.759765.16015-1.2501688-.41825-1.9202308-1.76351-1.5019526-3.01367.1825908-.54342.5873366-.96566 1.0781246-1.25586z" fill="#fce38a" font-variant-ligatures="normal" font-variant-position="normal" font-variant-caps="normal" font-variant-numeric="normal" font-variant-alternates="normal" font-feature-settings="normal" text-indent="0" text-align="start" text-decoration-line="none" text-decoration-style="solid" text-decoration-color="#000000" text-transform="none" text-orientation="mixed" white-space="normal" shape-padding="0" isolation="auto" mix-blend-mode="normal" solid-color="#000000" solid-opacity="1" vector-effect="none"/><path id="path4178" d="m11.94772 283.07564-2.115234 2.64649.412109.33008 2.117188-2.64453z" font-variant-ligatures="normal" font-variant-position="normal" font-variant-caps="normal" font-variant-numeric="normal" font-variant-alternates="normal" font-feature-settings="normal" text-indent="0" text-align="start" text-decoration-line="none" text-decoration-style="solid" text-decoration-color="#000000" text-transform="none" text-orientation="mixed" white-space="normal" shape-padding="0" isolation="auto" mix-blend-mode="normal" solid-color="#000000" solid-opacity="1" vector-effect="none"/><path id="path4180" d="m12.076627 282.98971-3.4394538 1.05664.15625.50586 3.4394538-1.0586z" font-variant-ligatures="normal" font-variant-position="normal" font-variant-caps="normal" font-variant-numeric="normal" font-variant-alternates="normal" font-feature-settings="normal" text-indent="0" text-align="start" text-decoration-line="none" text-decoration-style="solid" text-decoration-color="#000000" text-transform="none" text-orientation="mixed" white-space="normal" shape-padding="0" isolation="auto" mix-blend-mode="normal" solid-color="#000000" solid-opacity="1" vector-effect="none"/><path id="path4182" d="m8.7758453 282.19088-.11914.51562 3.4394527.79297.11914-.51562z" font-variant-ligatures="normal" font-variant-position="normal" font-variant-caps="normal" font-variant-numeric="normal" font-variant-alternates="normal" font-feature-settings="normal" text-indent="0" text-align="start" text-decoration-line="none" text-decoration-style="solid" text-decoration-color="#000000" text-transform="none" text-orientation="mixed" white-space="normal" shape-padding="0" isolation="auto" mix-blend-mode="normal" solid-color="#000000" solid-opacity="1" vector-effect="none"/><path id="path6274" d="m4.4418613 287.29244c-.129249.0198-.2246839.13097-.2246101.26172v3.625c0 .92486.727638 1.58789 1.5878911 1.58789h2.621094c.1087541-.0001.206375-.0667.246094-.16797.1765541-.45212.268111-.93456.269531-1.41992.0000738-2.16795-1.7617411-3.93172-3.930664-3.93164-.1909311.001-.3815509.0163-.569336.0449z" font-variant-ligatures="normal" font-variant-position="normal" font-variant-caps="normal" font-variant-numeric="normal" font-variant-alternates="normal" font-feature-settings="normal" text-indent="0" text-align="start" text-decoration-line="none" text-decoration-style="solid" text-decoration-color="#000000" text-transform="none" text-orientation="mixed" white-space="normal" shape-padding="0" isolation="auto" mix-blend-mode="normal" solid-color="#000000" solid-opacity="1" vector-effect="none"/><path id="path4168" d="m5.0122204 287.77682h.00201c1.881027.001 3.398501 1.52106 3.398437 3.40234-.00111.36254-.08679.71534-.201172 1.05859h-2.40625c-.6055391 0-1.0585942-.39596-1.0585942-1.05859v-3.38086c.08835-.008.1769012-.0209.265625-.0215z" fill="#95e1d3" font-variant-ligatures="normal" font-variant-position="normal" font-variant-caps="normal" font-variant-numeric="normal" font-variant-alternates="normal" font-feature-settings="normal" text-indent="0" text-align="start" text-decoration-line="none" text-decoration-style="solid" text-decoration-color="#000000" text-transform="none" text-orientation="mixed" white-space="normal" shape-padding="0" isolation="auto" mix-blend-mode="normal" solid-color="#000000" solid-opacity="1" vector-effect="none"/><path id="path6270" d="m5.0102202 288.269c-.1956168.001-.390579.0223-.582031.0625a.26460982.26460982 0 0 0 -.210938.25782v2.58984c0 .92487.727638 1.58789 1.5878911 1.58789h1.4960938a.26460982.26460982 0 0 0 .2285151-.13281c.25644-.44215.3917061-.94395.392579-1.45508-.0000008-1.60425-1.3059119-2.91016-2.9101569-2.91016a.26460982.26460982 0 0 0 -.00201 0z" font-variant-ligatures="normal" font-variant-position="normal" font-variant-caps="normal" font-variant-numeric="normal" font-variant-alternates="normal" font-feature-settings="normal" text-indent="0" text-align="start" text-decoration-line="none" text-decoration-style="solid" text-decoration-color="#000000" text-transform="none" text-orientation="mixed" white-space="normal" shape-padding="0" isolation="auto" mix-blend-mode="normal" solid-color="#000000" solid-opacity="1" vector-effect="none"/><path id="path4166" d="m7.3930802 291.17916c-.000635.37224-.1198489.72748-.28711 1.05859h-1.3007808c-.6055392 0-1.058594-.39596-1.058594-1.05859v-2.35156c.08577-.0198.1760178-.0288.265625-.0293 1.3182619 0 2.380859 1.0626 2.3808598 2.38086z" fill="#fce38a" font-variant-ligatures="normal" font-variant-position="normal" font-variant-caps="normal" font-variant-numeric="normal" font-variant-alternates="normal" font-feature-settings="normal" text-indent="0" text-align="start" text-decoration-line="none" text-decoration-style="solid" text-decoration-color="#000000" text-transform="none" text-orientation="mixed" white-space="normal" shape-padding="0" isolation="auto" mix-blend-mode="normal" solid-color="#000000" solid-opacity="1" vector-effect="none"/><path id="path4170" d="m6.4242831 288.86275-2.1152347 1.85352.3476569.39648 2.1171869-1.85156z" font-variant-ligatures="normal" font-variant-position="normal" font-variant-caps="normal" font-variant-numeric="normal" font-variant-alternates="normal" font-feature-settings="normal" text-indent="0" text-align="start" text-decoration-line="none" text-decoration-style="solid" text-decoration-color="#000000" text-transform="none" text-orientation="mixed" white-space="normal" shape-padding="0" isolation="auto" mix-blend-mode="normal" solid-color="#000000" solid-opacity="1" vector-effect="none"/><path id="path4172" d="m7.6352202 290.38619-3.1757808.26563.04492.52734 3.1757811-.26563z" font-variant-ligatures="normal" font-variant-position="normal" font-variant-caps="normal" font-variant-numeric="normal" font-variant-alternates="normal" font-feature-settings="normal" text-indent="0" text-align="start" text-decoration-line="none" text-decoration-style="solid" text-decoration-color="#000000" text-transform="none" text-orientation="mixed" white-space="normal" shape-padding="0" isolation="auto" mix-blend-mode="normal" solid-color="#000000" solid-opacity="1" vector-effect="none"/></g></svg>