<svg id="svg4938" height="512" viewBox="0 0 16.933333 16.933334" width="512" xmlns="http://www.w3.org/2000/svg" xmlns:svg="http://www.w3.org/2000/svg"><g id="layer1" transform="translate(0 -280.067)"><path id="path5684" d="m8.4228341 280.59673c-2.4872904 0-4.4980505 2.00883-4.4980505 4.4961.00004 2.46946.00014 4.94071 0 7.41015-.0000201.43518.3597601.79297.79492.79297h7.4082004c.43517 0 .79294-.35782.79297-.79297.00016-2.46946.00004-4.94068 0-7.41015.00003-2.48728-2.01076-4.4961-4.4980399-4.4961z" font-variant-ligatures="normal" font-variant-position="normal" font-variant-caps="normal" font-variant-numeric="normal" font-variant-alternates="normal" font-feature-settings="normal" text-indent="0" text-align="start" text-decoration-line="none" text-decoration-style="solid" text-decoration-color="#000000" text-transform="none" text-orientation="mixed" white-space="normal" shape-padding="0" isolation="auto" mix-blend-mode="normal" solid-color="#000000" solid-opacity="1" vector-effect="none"/><path id="path4046" d="m8.4228341 281.12408c2.2032699 0 3.9687699 1.76549 3.9687499 3.96875.00004 2.46945.00016 4.94069 0 7.41015-.00001.15118-.11252.26368-.26368.26368h-7.4082004c-.15114 0-.26563-.11253-.26562-.26368.00014-2.46947.00004-4.94069 0-7.41015 0-2.20326 1.7654699-3.96875 3.9687505-3.96875z" fill="#95e1d3" font-variant-ligatures="normal" font-variant-position="normal" font-variant-caps="normal" font-variant-numeric="normal" font-variant-alternates="normal" font-feature-settings="normal" text-indent="0" text-align="start" text-decoration-line="none" text-decoration-style="solid" text-decoration-color="#000000" text-transform="none" text-orientation="mixed" white-space="normal" shape-padding="0" isolation="auto" mix-blend-mode="normal" solid-color="#000000" solid-opacity="1" vector-effect="none"/><path id="path4048" d="m8.4189241 281.91509a.26460982.26460982 0 0 0 -.25977.26758v1.0586a.26465005.26465005 0 1 0 .5293 0v-1.0586a.26460982.26460982 0 0 0 -.26953-.26758z" font-variant-ligatures="normal" font-variant-position="normal" font-variant-caps="normal" font-variant-numeric="normal" font-variant-alternates="normal" font-feature-settings="normal" text-indent="0" text-align="start" text-decoration-line="none" text-decoration-style="solid" text-decoration-color="#000000" text-transform="none" text-orientation="mixed" white-space="normal" shape-padding="0" isolation="auto" mix-blend-mode="normal" solid-color="#000000" solid-opacity="1" vector-effect="none"/><path id="path4050" d="m9.7333741 282.18072a.26460982.26460982 0 0 0 -.21679.40039l.5292899.91602a.26515614.26515614 0 1 0 .45899-.26563l-.5293009-.91602a.26460982.26460982 0 0 0 -.242189-.13476z" font-variant-ligatures="normal" font-variant-position="normal" font-variant-caps="normal" font-variant-numeric="normal" font-variant-alternates="normal" font-feature-settings="normal" text-indent="0" text-align="start" text-decoration-line="none" text-decoration-style="solid" text-decoration-color="#000000" text-transform="none" text-orientation="mixed" white-space="normal" shape-padding="0" isolation="auto" mix-blend-mode="normal" solid-color="#000000" solid-opacity="1" vector-effect="none"/><path id="path4052" d="m11.053694 284.29791a.26460982.26460982 0 0 0 -.11719.0371l-.91602.52929a.26466662.26466662 0 1 0 .26367.45899l.91797-.5293a.26460982.26460982 0 0 0 -.14843-.49609z" font-variant-ligatures="normal" font-variant-position="normal" font-variant-caps="normal" font-variant-numeric="normal" font-variant-alternates="normal" font-feature-settings="normal" text-indent="0" text-align="start" text-decoration-line="none" text-decoration-style="solid" text-decoration-color="#000000" text-transform="none" text-orientation="mixed" white-space="normal" shape-padding="0" isolation="auto" mix-blend-mode="normal" solid-color="#000000" solid-opacity="1" vector-effect="none"/><path id="path4054" d="m6.1630637 282.97564a.26460982.26460982 0 0 0 -.1113301.49609l.9160205.52735a.26460982.26460982 0 1 0 .26562-.45703l-.9179705-.5293a.26460982.26460982 0 0 0 -.1523399-.0371z" font-variant-ligatures="normal" font-variant-position="normal" font-variant-caps="normal" font-variant-numeric="normal" font-variant-alternates="normal" font-feature-settings="normal" text-indent="0" text-align="start" text-decoration-line="none" text-decoration-style="solid" text-decoration-color="#000000" text-transform="none" text-orientation="mixed" white-space="normal" shape-padding="0" isolation="auto" mix-blend-mode="normal" solid-color="#000000" solid-opacity="1" vector-effect="none"/><path id="path4056" d="m11.065404 285.61822a.26460982.26460982 0 0 0 -.26171.26953v1.05859a.26464512.26464512 0 1 0 .52929 0v-1.05859a.26460982.26460982 0 0 0 -.26758-.26953z" font-variant-ligatures="normal" font-variant-position="normal" font-variant-caps="normal" font-variant-numeric="normal" font-variant-alternates="normal" font-feature-settings="normal" text-indent="0" text-align="start" text-decoration-line="none" text-decoration-style="solid" text-decoration-color="#000000" text-transform="none" text-orientation="mixed" white-space="normal" shape-padding="0" isolation="auto" mix-blend-mode="normal" solid-color="#000000" solid-opacity="1" vector-effect="none"/><path id="path4058" d="m5.5634535 284.56353a.26460982.26460982 0 0 0 -.11133.49414l.91602.5293a.26460982.26460982 0 1 0 .26367-.45703l-.91601-.5293a.26460982.26460982 0 0 0 -.15235-.0371z" font-variant-ligatures="normal" font-variant-position="normal" font-variant-caps="normal" font-variant-numeric="normal" font-variant-alternates="normal" font-feature-settings="normal" text-indent="0" text-align="start" text-decoration-line="none" text-decoration-style="solid" text-decoration-color="#000000" text-transform="none" text-orientation="mixed" white-space="normal" shape-padding="0" isolation="auto" mix-blend-mode="normal" solid-color="#000000" solid-opacity="1" vector-effect="none"/><path id="path4060" d="m9.1318141 284.56353a.26460982.26460982 0 0 0 -.117191.0371l-.91797.5293a.26460982.26460982 0 1 0 .26563.45703l.916021-.5293a.26460982.26460982 0 0 0 -.14649-.49414z" font-variant-ligatures="normal" font-variant-position="normal" font-variant-caps="normal" font-variant-numeric="normal" font-variant-alternates="normal" font-feature-settings="normal" text-indent="0" text-align="start" text-decoration-line="none" text-decoration-style="solid" text-decoration-color="#000000" text-transform="none" text-orientation="mixed" white-space="normal" shape-padding="0" isolation="auto" mix-blend-mode="normal" solid-color="#000000" solid-opacity="1" vector-effect="none"/><path id="path4062" d="m9.4697041 287.01275a.26460982.26460982 0 0 0 -.2168.40039l.5293.91797a.26460982.26460982 0 1 0 .4570299-.26563l-.5292909-.91601a.26460982.26460982 0 0 0 -.240239-.13672z" font-variant-ligatures="normal" font-variant-position="normal" font-variant-caps="normal" font-variant-numeric="normal" font-variant-alternates="normal" font-feature-settings="normal" text-indent="0" text-align="start" text-decoration-line="none" text-decoration-style="solid" text-decoration-color="#000000" text-transform="none" text-orientation="mixed" white-space="normal" shape-padding="0" isolation="auto" mix-blend-mode="normal" solid-color="#000000" solid-opacity="1" vector-effect="none"/><path id="path4064" d="m5.5009536 287.27838a.26460982.26460982 0 0 0 -.2168001.40039l.5293001.91601a.26460982.26460982 0 1 0 .4570301-.26562l-.5292902-.91602a.26460982.26460982 0 0 0 -.2402399-.13476z" font-variant-ligatures="normal" font-variant-position="normal" font-variant-caps="normal" font-variant-numeric="normal" font-variant-alternates="normal" font-feature-settings="normal" text-indent="0" text-align="start" text-decoration-line="none" text-decoration-style="solid" text-decoration-color="#000000" text-transform="none" text-orientation="mixed" white-space="normal" shape-padding="0" isolation="auto" mix-blend-mode="normal" solid-color="#000000" solid-opacity="1" vector-effect="none"/><path id="path4066" d="m7.8075941 286.41509a.26460982.26460982 0 0 0 -.117191.0371l-.91601.5293a.26466662.26466662 0 1 0 .26367.45899l.91797-.5293a.26460982.26460982 0 0 0 -.148439-.4961z" font-variant-ligatures="normal" font-variant-position="normal" font-variant-caps="normal" font-variant-numeric="normal" font-variant-alternates="normal" font-feature-settings="normal" text-indent="0" text-align="start" text-decoration-line="none" text-decoration-style="solid" text-decoration-color="#000000" text-transform="none" text-orientation="mixed" white-space="normal" shape-padding="0" isolation="auto" mix-blend-mode="normal" solid-color="#000000" solid-opacity="1" vector-effect="none"/><path id="path4068" d="m11.176734 288.79595a.26460982.26460982 0 0 0 -.11719.0371l-.91601.5293a.26466662.26466662 0 1 0 .26367.45899l.91602-.5293a.26460982.26460982 0 0 0 -.14649-.4961z" font-variant-ligatures="normal" font-variant-position="normal" font-variant-caps="normal" font-variant-numeric="normal" font-variant-alternates="normal" font-feature-settings="normal" text-indent="0" text-align="start" text-decoration-line="none" text-decoration-style="solid" text-decoration-color="#000000" text-transform="none" text-orientation="mixed" white-space="normal" shape-padding="0" isolation="auto" mix-blend-mode="normal" solid-color="#000000" solid-opacity="1" vector-effect="none"/><path id="path4070" d="m8.1454841 288.60064a.26460982.26460982 0 0 0 -.21679.40039l.52929.91602a.26466713.26466713 0 1 0 .458989-.26367l-.5293-.91602a.26460982.26460982 0 0 0 -.242189-.13672z" font-variant-ligatures="normal" font-variant-position="normal" font-variant-caps="normal" font-variant-numeric="normal" font-variant-alternates="normal" font-feature-settings="normal" text-indent="0" text-align="start" text-decoration-line="none" text-decoration-style="solid" text-decoration-color="#000000" text-transform="none" text-orientation="mixed" white-space="normal" shape-padding="0" isolation="auto" mix-blend-mode="normal" solid-color="#000000" solid-opacity="1" vector-effect="none"/><path id="path4072" d="m11.204084 290.64752a.26460982.26460982 0 0 0 -.14454.0371l-.91601.52929a.26466662.26466662 0 1 0 .26367.45899l.91602-.5293a.26460982.26460982 0 0 0 -.11914-.49609z" font-variant-ligatures="normal" font-variant-position="normal" font-variant-caps="normal" font-variant-numeric="normal" font-variant-alternates="normal" font-feature-settings="normal" text-indent="0" text-align="start" text-decoration-line="none" text-decoration-style="solid" text-decoration-color="#000000" text-transform="none" text-orientation="mixed" white-space="normal" shape-padding="0" isolation="auto" mix-blend-mode="normal" solid-color="#000000" solid-opacity="1" vector-effect="none"/><path id="path4074" d="m8.6728331 290.91314a.26460982.26460982 0 0 0 -.117189.0371l-.91602.5293a.26460982.26460982 0 1 0 .26368.45703l.91601-.52735a.26460982.26460982 0 0 0 -.146481-.49609z" font-variant-ligatures="normal" font-variant-position="normal" font-variant-caps="normal" font-variant-numeric="normal" font-variant-alternates="normal" font-feature-settings="normal" text-indent="0" text-align="start" text-decoration-line="none" text-decoration-style="solid" text-decoration-color="#000000" text-transform="none" text-orientation="mixed" white-space="normal" shape-padding="0" isolation="auto" mix-blend-mode="normal" solid-color="#000000" solid-opacity="1" vector-effect="none"/><path id="path4076" d="m6.5556437 289.85455a.26460982.26460982 0 0 0 -.1171901.0371l-.91601.52929a.26466662.26466662 0 1 0 .26367.45899l.9179705-.5293a.26460982.26460982 0 0 0 -.1484404-.49609z" font-variant-ligatures="normal" font-variant-position="normal" font-variant-caps="normal" font-variant-numeric="normal" font-variant-alternates="normal" font-feature-settings="normal" text-indent="0" text-align="start" text-decoration-line="none" text-decoration-style="solid" text-decoration-color="#000000" text-transform="none" text-orientation="mixed" white-space="normal" shape-padding="0" isolation="auto" mix-blend-mode="normal" solid-color="#000000" solid-opacity="1" vector-effect="none"/><path id="path5718" d="m7.8935341 292.76666a.26460982.26460982 0 0 0 -.26172.23632l-.26562 2.38086a.26460982.26460982 0 0 0 -.002.0293c0 .58174.47685 1.0586 1.058599 1.0586.582821 0 1.124721-.47561 1.05664-1.08789l-.26367-2.38086a.26460982.26460982 0 0 0 -.263639-.23633z" font-variant-ligatures="normal" font-variant-position="normal" font-variant-caps="normal" font-variant-numeric="normal" font-variant-alternates="normal" font-feature-settings="normal" text-indent="0" text-align="start" text-decoration-line="none" text-decoration-style="solid" text-decoration-color="#000000" text-transform="none" text-orientation="mixed" white-space="normal" shape-padding="0" isolation="auto" mix-blend-mode="normal" solid-color="#000000" solid-opacity="1" vector-effect="none"/><path id="path4210" d="m8.1298631 293.29595h.583981l.24024 2.14649c.0291.2618-.234601.5-.53125.5-.29664 0-.52565-.2312-.52735-.52735z" fill="#ecc99c" font-variant-ligatures="normal" font-variant-position="normal" font-variant-caps="normal" font-variant-numeric="normal" font-variant-alternates="normal" font-feature-settings="normal" text-indent="0" text-align="start" text-decoration-line="none" text-decoration-style="solid" text-decoration-color="#000000" text-transform="none" text-orientation="mixed" white-space="normal" shape-padding="0" isolation="auto" mix-blend-mode="normal" solid-color="#000000" solid-opacity="1" vector-effect="none"/></g></svg>