<svg id="svg4938" height="512" viewBox="0 0 16.933333 16.933334" width="512" xmlns="http://www.w3.org/2000/svg" xmlns:svg="http://www.w3.org/2000/svg"><g id="layer1" transform="translate(0 -280.067)"><path id="path6224" d="m7.6567052 280.59554c-1.1680569 0-2.115235.94913-2.115235 2.11719v8.73047c0 1.16806.9471781 2.11719 2.115235 2.11719h1.58789c1.1680568 0 2.1171878-.94913 2.1171878-2.11719v-8.73047c0-1.16806-.949131-2.11719-2.1171878-2.11719z" font-variant-ligatures="normal" font-variant-position="normal" font-variant-caps="normal" font-variant-numeric="normal" font-variant-alternates="normal" font-feature-settings="normal" text-indent="0" text-align="start" text-decoration-line="none" text-decoration-style="solid" text-decoration-color="#000000" text-transform="none" text-orientation="mixed" white-space="normal" shape-padding="0" isolation="auto" mix-blend-mode="normal" solid-color="#000000" solid-opacity="1" vector-effect="none"/><path id="rect4250" d="m7.6567052 281.12484h1.58789c.8840518 0 1.5878908.70384 1.5878908 1.58789v8.73047c0 .88405-.703839 1.58789-1.5878908 1.58789h-1.58789c-.8840521 0-1.5859379-.70384-1.5859379-1.58789v-8.73047c0-.88405.7018858-1.58789 1.5859379-1.58789z" fill="#ff75a0" font-variant-ligatures="normal" font-variant-position="normal" font-variant-caps="normal" font-variant-numeric="normal" font-variant-alternates="normal" font-feature-settings="normal" text-indent="0" text-align="start" text-decoration-line="none" text-decoration-style="solid" text-decoration-color="#000000" text-transform="none" text-orientation="mixed" white-space="normal" shape-padding="0" isolation="auto" mix-blend-mode="normal" solid-color="#000000" solid-opacity="1" vector-effect="none"/><path id="path6228" d="m7.9223302 293.03109a.26460982.26460982 0 0 0 -.265625.26563v2.38086c.000014.43515.35976.79296.7949221.79296.435161 0 .7929679-.3578.7929679-.79296v-2.38086a.26460982.26460982 0 0 0 -.2636719-.26563z" font-variant-ligatures="normal" font-variant-position="normal" font-variant-caps="normal" font-variant-numeric="normal" font-variant-alternates="normal" font-feature-settings="normal" text-indent="0" text-align="start" text-decoration-line="none" text-decoration-style="solid" text-decoration-color="#000000" text-transform="none" text-orientation="mixed" white-space="normal" shape-padding="0" isolation="auto" mix-blend-mode="normal" solid-color="#000000" solid-opacity="1" vector-effect="none"/><path id="path4252" d="m8.1860012 293.56039h.5292971v2.11719c0 .15115-.112513.26367-.263671.26367-.1511591 0-.26562-.11251-.2656261-.26367z" fill="#ecc99c" font-variant-ligatures="normal" font-variant-position="normal" font-variant-caps="normal" font-variant-numeric="normal" font-variant-alternates="normal" font-feature-settings="normal" text-indent="0" text-align="start" text-decoration-line="none" text-decoration-style="solid" text-decoration-color="#000000" text-transform="none" text-orientation="mixed" white-space="normal" shape-padding="0" isolation="auto" mix-blend-mode="normal" solid-color="#000000" solid-opacity="1" vector-effect="none"/><path id="path6232" d="m5.7349912 286.72669c-.114849.0317-.194386.13616-.1943039.25529v1.64641c-.0001109.17481.1663189.30169.3348619.25528l5.2916668-1.45418c.114849-.0317.194386-.13615.194304-.25528v-1.64641c.000048-.1492-.129397-.30767-.303599-.25993z" font-variant-ligatures="normal" font-variant-position="normal" font-variant-caps="normal" font-variant-numeric="normal" font-variant-alternates="normal" font-feature-settings="normal" text-indent="0" text-align="start" text-decoration-line="none" text-decoration-style="solid" text-decoration-color="#000000" text-transform="none" text-orientation="mixed" white-space="normal" shape-padding="0" isolation="auto" mix-blend-mode="normal" solid-color="#000000" solid-opacity="1" vector-effect="none"/><path id="path4254" d="m10.832357 285.87507v1.09761l-4.7625007 1.30844v-1.0976z" fill="#95e1d3" font-variant-ligatures="normal" font-variant-position="normal" font-variant-caps="normal" font-variant-numeric="normal" font-variant-alternates="normal" font-feature-settings="normal" text-indent="0" text-align="start" text-decoration-line="none" text-decoration-style="solid" text-decoration-color="#000000" text-transform="none" text-orientation="mixed" white-space="normal" shape-padding="0" isolation="auto" mix-blend-mode="normal" solid-color="#000000" solid-opacity="1" vector-effect="none"/><path id="path6236" d="m10.899018 281.61383a.26460979.26460979 0 0 0 -.07131.009l-5.0927107 1.3994a.26460979.26460979 0 0 0 -.194304.25528v1.64641a.26460979.26460979 0 0 0 .334862.25528l5.2916667-1.45417a.26460979.26460979 0 0 0 .194304-.25528v-.75758c0-.34346-.0836-.66738-.227377-.95291a.26460979.26460979 0 0 0 -.235128-.14573z" font-variant-ligatures="normal" font-variant-position="normal" font-variant-caps="normal" font-variant-numeric="normal" font-variant-alternates="normal" font-feature-settings="normal" text-indent="0" text-align="start" text-decoration-line="none" text-decoration-style="solid" text-decoration-color="#000000" text-transform="none" text-orientation="mixed" white-space="normal" shape-padding="0" isolation="auto" mix-blend-mode="normal" solid-color="#000000" solid-opacity="1" vector-effect="none"/><path id="path4256" d="m10.711434 282.20449c.05705.16318.120923.32464.120923.50798v.55604l-4.7625007 1.30845v-1.09761z" fill="#95e1d3" font-variant-ligatures="normal" font-variant-position="normal" font-variant-caps="normal" font-variant-numeric="normal" font-variant-alternates="normal" font-feature-settings="normal" text-indent="0" text-align="start" text-decoration-line="none" text-decoration-style="solid" text-decoration-color="#000000" text-transform="none" text-orientation="mixed" white-space="normal" shape-padding="0" isolation="auto" mix-blend-mode="normal" solid-color="#000000" solid-opacity="1" vector-effect="none"/><path id="path6240" d="m5.7349912 290.43086c-.114849.0316-.194386.13615-.1943039.25528v.75758c0 .34346.08359.66738.227377.95291.05659.11268.1848359.16978.306441.13643l5.0927107-1.3994c.114849-.0317.194386-.13615.194304-.25528v-1.64641c.000049-.1492-.129397-.30768-.303599-.25994z" font-variant-ligatures="normal" font-variant-position="normal" font-variant-caps="normal" font-variant-numeric="normal" font-variant-alternates="normal" font-feature-settings="normal" text-indent="0" text-align="start" text-decoration-line="none" text-decoration-style="solid" text-decoration-color="#000000" text-transform="none" text-orientation="mixed" white-space="normal" shape-padding="0" isolation="auto" mix-blend-mode="normal" solid-color="#000000" solid-opacity="1" vector-effect="none"/><path id="path4258" d="m10.832357 289.57923v1.09761l-4.6415776 1.27486c-.05705-.16318-.1209231-.32464-.1209231-.50798v-.55604z" fill="#95e1d3" font-variant-ligatures="normal" font-variant-position="normal" font-variant-caps="normal" font-variant-numeric="normal" font-variant-alternates="normal" font-feature-settings="normal" text-indent="0" text-align="start" text-decoration-line="none" text-decoration-style="solid" text-decoration-color="#000000" text-transform="none" text-orientation="mixed" white-space="normal" shape-padding="0" isolation="auto" mix-blend-mode="normal" solid-color="#000000" solid-opacity="1" vector-effect="none"/></g></svg>