<svg id="svg4938" height="512" viewBox="0 0 16.933333 16.933334" width="512" xmlns="http://www.w3.org/2000/svg" xmlns:svg="http://www.w3.org/2000/svg"><g id="layer1" transform="translate(0 -280.067)"><path id="path5890" d="m5.3526215 281.76681c-.7354006.75034-1.1255126 1.81702-1.1255126 3.06235v1.32292c.0000148.14611.1184643.26456.2645833.26458h7.9374998c.146119-.00002.264568-.11847.264583-.26458v-1.32292c0-.23574-.01439-.46423-.04186-.68523-.01563-.12609-.118671-.22328-.245463-.23151-.419283-.0275-.740755-.37053-.741557-.79091.000529-.0676.0094-.13465.02687-.19973.05899-.21975-.168516-.40655-.372587-.30592-.06618.0327-.139069.0499-.212907.0501-.269528-.00008-.482308-.21269-.482658-.4824.000197-.0769.01861-.15231.05374-.2204.112977-.21822-.106599-.45918-.334347-.36691-.09383.0379-.193887.0576-.295072.0579-.4329077-.00027-.7813016-.3398-.7927162-.77256-.00329-.13362-.1057191-.2438-.2387452-.25683-.1778474-.0174-.3624641-.0289-.5560343-.0289-1.3021056 0-2.3724161.42065-3.1078168 1.17099z" font-variant-ligatures="normal" font-variant-position="normal" font-variant-caps="normal" font-variant-numeric="normal" font-variant-alternates="normal" font-feature-settings="normal" text-indent="0" text-align="start" text-decoration-line="none" text-decoration-style="solid" text-decoration-color="#000000" text-transform="none" text-orientation="mixed" white-space="normal" shape-padding="0" isolation="auto" mix-blend-mode="normal" solid-color="#000000" solid-opacity="1" vector-effect="none"/><path id="path4154" d="m11.148104 283.1854c.02984.58093.438311 1.05043.989084 1.19318.01326.14767.02739.2949.02739.37275l-.000001 1.13619h-7.4083015v-1.05833c0-1.13593.348088-2.05362.9741009-2.69234.6260129-.63873 1.5403296-1.01183 2.7300658-1.01184.1098617-.00002.2153571.01.3219443.017.1334791.59011.6394024 1.04088 1.2894495 1.03898.06574.62741.570338 1.0005 1.076268 1.00438z" fill="#eca3f5" font-variant-ligatures="normal" font-variant-position="normal" font-variant-caps="normal" font-variant-numeric="normal" font-variant-alternates="normal" font-feature-settings="normal" text-indent="0" text-align="start" text-decoration-line="none" text-decoration-style="solid" text-decoration-color="#000000" text-transform="none" text-orientation="mixed" white-space="normal" shape-padding="0" isolation="auto" mix-blend-mode="normal" solid-color="#000000" solid-opacity="1" vector-effect="none"/><path id="path5894" d="m5.8140924 292.76705h5.2929676c.874899 0 1.585938-.713 1.585938-1.58789v-2.11719c-.000503-.14541-.118264-.26316-.263672-.26367h-7.9375036c-.00911-.00048-.018235-.00048-.027344 0-.1354122.0135-.2384737.12758-.2382811.26367l.00488 2.14941c.00716.84134.7211671 1.57231 1.5830151 1.55567z" font-variant-ligatures="normal" font-variant-position="normal" font-variant-caps="normal" font-variant-numeric="normal" font-variant-alternates="normal" font-feature-settings="normal" text-indent="0" text-align="start" text-decoration-line="none" text-decoration-style="solid" text-decoration-color="#000000" text-transform="none" text-orientation="mixed" white-space="normal" shape-padding="0" isolation="auto" mix-blend-mode="normal" solid-color="#000000" solid-opacity="1" vector-effect="none"/><path id="path4156" d="m4.7554942 289.3276h7.4082028v1.85156c0 .59089-.465747 1.05859-1.056641 1.05859h-5.2929681c-.6084517-.006-1.0405697-.62932-1.0585937-1.10742z" fill="#b0efeb" font-variant-ligatures="normal" font-variant-position="normal" font-variant-caps="normal" font-variant-numeric="normal" font-variant-alternates="normal" font-feature-settings="normal" text-indent="0" text-align="start" text-decoration-line="none" text-decoration-style="solid" text-decoration-color="#000000" text-transform="none" text-orientation="mixed" white-space="normal" shape-padding="0" isolation="auto" mix-blend-mode="normal" solid-color="#000000" solid-opacity="1" vector-effect="none"/><path id="path5898" d="m7.9312756 292.23775a.26460982.26460982 0 0 0 -.2636721.24024l-.2636719 2.91015c-.055135.6065.4735288 1.08204 1.0566408 1.08204.5824652 0 1.1118659-.47456 1.0566406-1.08204l-.2636719-2.91015a.26460982.26460982 0 0 0 -.2636718-.24024z" font-variant-ligatures="normal" font-variant-position="normal" font-variant-caps="normal" font-variant-numeric="normal" font-variant-alternates="normal" font-feature-settings="normal" text-indent="0" text-align="start" text-decoration-line="none" text-decoration-style="solid" text-decoration-color="#000000" text-transform="none" text-orientation="mixed" white-space="normal" shape-padding="0" isolation="auto" mix-blend-mode="normal" solid-color="#000000" solid-opacity="1" vector-effect="none"/><path id="path4158" d="m8.173463 292.76705h.5742186l.2421877 2.66992c.0244.26839-.2322857.50391-.5292969.50391-.2963645 0-.5554451-.23776-.53125-.50391z" fill="#ecc99c" font-variant-ligatures="normal" font-variant-position="normal" font-variant-caps="normal" font-variant-numeric="normal" font-variant-alternates="normal" font-feature-settings="normal" text-indent="0" text-align="start" text-decoration-line="none" text-decoration-style="solid" text-decoration-color="#000000" text-transform="none" text-orientation="mixed" white-space="normal" shape-padding="0" isolation="auto" mix-blend-mode="normal" solid-color="#000000" solid-opacity="1" vector-effect="none"/><path id="path5902" d="m4.2261974 286.15182v2.91015c-.0005556.14694.1186907.26619.265625.26563h7.9374996c.146171-.00053.264234-.11946.263672-.26563v-2.91015c-.000503-.14541-.118264-.26316-.263672-.26368h-7.9511714c-.1490845.0135-.2521461.12759-.2519532.26368z" font-variant-ligatures="normal" font-variant-position="normal" font-variant-caps="normal" font-variant-numeric="normal" font-variant-alternates="normal" font-feature-settings="normal" text-indent="0" text-align="start" text-decoration-line="none" text-decoration-style="solid" text-decoration-color="#000000" text-transform="none" text-orientation="mixed" white-space="normal" shape-padding="0" isolation="auto" mix-blend-mode="normal" solid-color="#000000" solid-opacity="1" vector-effect="none"/><path id="rect4160" d="m4.7554942 286.41744h7.4082028v2.38086h-7.4082028z" fill="#edffa9" font-variant-ligatures="normal" font-variant-position="normal" font-variant-caps="normal" font-variant-numeric="normal" font-variant-alternates="normal" font-feature-settings="normal" text-indent="0" text-align="start" text-decoration-line="none" text-decoration-style="solid" text-decoration-color="#000000" text-transform="none" text-orientation="mixed" white-space="normal" shape-padding="0" isolation="auto" mix-blend-mode="normal" solid-color="#000000" solid-opacity="1" vector-effect="none"/></g></svg>