<svg id="svg4938" height="512" viewBox="0 0 16.933333 16.933334" width="512" xmlns="http://www.w3.org/2000/svg" xmlns:svg="http://www.w3.org/2000/svg"><g id="layer1" transform="translate(0 -280.067)"><path id="path5802" d="m7.9133845 293.03031a.26460982.26460982 0 0 0 -.265625.26562v2.38086c.000015.43515.359761.79492.794922.79492.435162 0 .792969-.35975.792969-.79492v-2.38086a.26460982.26460982 0 0 0 -.265625-.26562z" font-variant-ligatures="normal" font-variant-position="normal" font-variant-caps="normal" font-variant-numeric="normal" font-variant-alternates="normal" font-feature-settings="normal" text-indent="0" text-align="start" text-decoration-line="none" text-decoration-style="solid" text-decoration-color="#000000" text-transform="none" text-orientation="mixed" white-space="normal" shape-padding="0" isolation="auto" mix-blend-mode="normal" solid-color="#000000" solid-opacity="1" vector-effect="none"/><path id="path4080" d="m8.1770565 293.55961h.529297v2.11718c0 .15116-.112513.26563-.263672.26563-.151158 0-.26562-.11446-.265625-.26563z" fill="#ecc99c" font-variant-ligatures="normal" font-variant-position="normal" font-variant-caps="normal" font-variant-numeric="normal" font-variant-alternates="normal" font-feature-settings="normal" text-indent="0" text-align="start" text-decoration-line="none" text-decoration-style="solid" text-decoration-color="#000000" text-transform="none" text-orientation="mixed" white-space="normal" shape-padding="0" isolation="auto" mix-blend-mode="normal" solid-color="#000000" solid-opacity="1" vector-effect="none"/><path id="path5806" d="m8.4426815 280.59671c-2.4872823 0-4.4980471 2.00883-4.4980471 4.4961v8.20312a.26460982.26460982 0 0 0 .2636719.26368h8.4667977a.26460982.26460982 0 0 0 .263672-.26368v-8.20312c0-2.48727-2.008812-4.4961-4.4960945-4.4961z" font-variant-ligatures="normal" font-variant-position="normal" font-variant-caps="normal" font-variant-numeric="normal" font-variant-alternates="normal" font-feature-settings="normal" text-indent="0" text-align="start" text-decoration-line="none" text-decoration-style="solid" text-decoration-color="#000000" text-transform="none" text-orientation="mixed" white-space="normal" shape-padding="0" isolation="auto" mix-blend-mode="normal" solid-color="#000000" solid-opacity="1" vector-effect="none"/><path id="path4082" d="m8.4426815 281.12406c2.2032785 0 3.9687505 1.76549 3.9687505 3.96875v7.9375h-7.9375007v-7.9375c0-2.20326 1.765472-3.96875 3.9687502-3.96875z" fill="#95e1d3" font-variant-ligatures="normal" font-variant-position="normal" font-variant-caps="normal" font-variant-numeric="normal" font-variant-alternates="normal" font-feature-settings="normal" text-indent="0" text-align="start" text-decoration-line="none" text-decoration-style="solid" text-decoration-color="#000000" text-transform="none" text-orientation="mixed" white-space="normal" shape-padding="0" isolation="auto" mix-blend-mode="normal" solid-color="#000000" solid-opacity="1" vector-effect="none"/><path id="path5810" d="m8.4426815 280.59671c-2.4872823 0-4.4981712 2.00881-4.4980471 4.4961v1.85351c-.000001.58175.4749009 1.0586 1.0566408 1.0586.5817402 0 1.058594-.47686 1.058594-1.0586v-.52929c0-.29774.2315612-.5293.529296-.5293.2977362 0 .5292971.23156.5292971.5293-.0000021.88194 0 1.23524 0 2.11718 0 .58174.4768532 1.05665 1.0585942 1.05665.58174 0 1.058594-.47491 1.058594-1.05665v-1.32421c.000001-.29774.231561-.5293.529297-.5293.2977355 0 .5292975.23156.5292975.5293v.52929c0 .72832.593947 1.32227 1.322265 1.32227.728319 0 1.322265-.59395 1.322266-1.32227 0-.88216 0-1.76432 0-2.64648 0-2.48727-2.008812-4.4961-4.4960945-4.4961z" font-variant-ligatures="normal" font-variant-position="normal" font-variant-caps="normal" font-variant-numeric="normal" font-variant-alternates="normal" font-feature-settings="normal" text-indent="0" text-align="start" text-decoration-line="none" text-decoration-style="solid" text-decoration-color="#000000" text-transform="none" text-orientation="mixed" white-space="normal" shape-padding="0" isolation="auto" mix-blend-mode="normal" solid-color="#000000" solid-opacity="1" vector-effect="none"/><path id="path4084" d="m8.4426815 281.12406c2.2032785 0 3.9687505 1.76549 3.9687505 3.96875v2.64648c-.000001.44432-.350608.79492-.794922.79492-.444313 0-.792968-.3506-.792968-.79492v-.52929c0-.58174-.476854-1.0586-1.0585945-1.0586-.581741 0-1.058593.47686-1.058594 1.0586v1.32421c0 .29774-.231563.52735-.529297.52735-.297735 0-.529297-.22961-.529297-.52735 0-.88194-.000002-1.23524 0-2.11718 0-.58174-.4768533-1.0586-1.0585943-1.0586-.5817399 0-1.0585929.47686-1.0585929 1.0586v.52929c0 .29774-.2315609.5293-.5292971.5293-.2977348 0-.527345-.23156-.5273439-.5293v-1.85351c-.0001101-2.20325 1.765472-3.96875 3.9687502-3.96875z" fill="#ff75a0" font-variant-ligatures="normal" font-variant-position="normal" font-variant-caps="normal" font-variant-numeric="normal" font-variant-alternates="normal" font-feature-settings="normal" text-indent="0" text-align="start" text-decoration-line="none" text-decoration-style="solid" text-decoration-color="#000000" text-transform="none" text-orientation="mixed" white-space="normal" shape-padding="0" isolation="auto" mix-blend-mode="normal" solid-color="#000000" solid-opacity="1" vector-effect="none"/><path id="path4086" d="m8.4368225 281.64945a.26460982.26460982 0 0 0 -.259766.26953v1.0586a.2646485.2646485 0 1 0 .529297 0v-1.0586a.26460982.26460982 0 0 0 -.269531-.26953z" font-variant-ligatures="normal" font-variant-position="normal" font-variant-caps="normal" font-variant-numeric="normal" font-variant-alternates="normal" font-feature-settings="normal" text-indent="0" text-align="start" text-decoration-line="none" text-decoration-style="solid" text-decoration-color="#000000" text-transform="none" text-orientation="mixed" white-space="normal" shape-padding="0" isolation="auto" mix-blend-mode="normal" solid-color="#000000" solid-opacity="1" vector-effect="none"/><path id="path4088" d="m9.7532285 281.98734a.26460982.26460982 0 0 0 -.216797.39844l.5273445.91797a.26515354.26515354 0 1 0 .458984-.26563l-.5292975-.91601a.26460982.26460982 0 0 0 -.240234-.13477z" font-variant-ligatures="normal" font-variant-position="normal" font-variant-caps="normal" font-variant-numeric="normal" font-variant-alternates="normal" font-feature-settings="normal" text-indent="0" text-align="start" text-decoration-line="none" text-decoration-style="solid" text-decoration-color="#000000" text-transform="none" text-orientation="mixed" white-space="normal" shape-padding="0" isolation="auto" mix-blend-mode="normal" solid-color="#000000" solid-opacity="1" vector-effect="none"/><path id="path4090" d="m7.1301813 282.1807a.26460982.26460982 0 0 0 -.1445311.0371l-.916016.5293a.2651523.2651523 0 1 0 .265625.45898l.916016-.5293a.26460982.26460982 0 0 0 -.1210939-.49609z" font-variant-ligatures="normal" font-variant-position="normal" font-variant-caps="normal" font-variant-numeric="normal" font-variant-alternates="normal" font-feature-settings="normal" text-indent="0" text-align="start" text-decoration-line="none" text-decoration-style="solid" text-decoration-color="#000000" text-transform="none" text-orientation="mixed" white-space="normal" shape-padding="0" isolation="auto" mix-blend-mode="normal" solid-color="#000000" solid-opacity="1" vector-effect="none"/><path id="path4092" d="m11.587213 285.09086a.26460982.26460982 0 0 0 -.234375.26757v1.0586a.2646485.2646485 0 1 0 .529297 0v-1.0586a.26460982.26460982 0 0 0 -.294922-.26757z" font-variant-ligatures="normal" font-variant-position="normal" font-variant-caps="normal" font-variant-numeric="normal" font-variant-alternates="normal" font-feature-settings="normal" text-indent="0" text-align="start" text-decoration-line="none" text-decoration-style="solid" text-decoration-color="#000000" text-transform="none" text-orientation="mixed" white-space="normal" shape-padding="0" isolation="auto" mix-blend-mode="normal" solid-color="#000000" solid-opacity="1" vector-effect="none"/><path id="path4094" d="m5.2629942 284.03226a.26460982.26460982 0 0 0 -.261719.26758v1.05859a.26464856.26464856 0 1 0 .5292971 0v-1.05859a.26460982.26460982 0 0 0 -.2675781-.26758z" font-variant-ligatures="normal" font-variant-position="normal" font-variant-caps="normal" font-variant-numeric="normal" font-variant-alternates="normal" font-feature-settings="normal" text-indent="0" text-align="start" text-decoration-line="none" text-decoration-style="solid" text-decoration-color="#000000" text-transform="none" text-orientation="mixed" white-space="normal" shape-padding="0" isolation="auto" mix-blend-mode="normal" solid-color="#000000" solid-opacity="1" vector-effect="none"/><path id="path4096" d="m11.337213 283.76859a.26460982.26460982 0 0 0 -.117187.0371l-.458984.26563a.26460982.26460982 0 1 0 .265624.45703l.457032-.26368a.26460982.26460982 0 0 0 -.146485-.49609z" font-variant-ligatures="normal" font-variant-position="normal" font-variant-caps="normal" font-variant-numeric="normal" font-variant-alternates="normal" font-feature-settings="normal" text-indent="0" text-align="start" text-decoration-line="none" text-decoration-style="solid" text-decoration-color="#000000" text-transform="none" text-orientation="mixed" white-space="normal" shape-padding="0" isolation="auto" mix-blend-mode="normal" solid-color="#000000" solid-opacity="1" vector-effect="none"/><path id="path4098" d="m6.7688533 284.03422a.26460982.26460982 0 0 0 -.1171879.0371l-.4589841.26368a.26515272.26515272 0 1 0 .265625.45898l.4570309-.26562a.26460982.26460982 0 0 0 -.1464839-.49414z" font-variant-ligatures="normal" font-variant-position="normal" font-variant-caps="normal" font-variant-numeric="normal" font-variant-alternates="normal" font-feature-settings="normal" text-indent="0" text-align="start" text-decoration-line="none" text-decoration-style="solid" text-decoration-color="#000000" text-transform="none" text-orientation="mixed" white-space="normal" shape-padding="0" isolation="auto" mix-blend-mode="normal" solid-color="#000000" solid-opacity="1" vector-effect="none"/><path id="path4100" d="m10.544245 285.09281a.26460982.26460982 0 0 0 -.117188.0371l-.4589845.26367a.2646672.2646672 0 1 0 .2636725.45899l.458984-.26563a.26460982.26460982 0 0 0 -.146484-.49414z" font-variant-ligatures="normal" font-variant-position="normal" font-variant-caps="normal" font-variant-numeric="normal" font-variant-alternates="normal" font-feature-settings="normal" text-indent="0" text-align="start" text-decoration-line="none" text-decoration-style="solid" text-decoration-color="#000000" text-transform="none" text-orientation="mixed" white-space="normal" shape-padding="0" isolation="auto" mix-blend-mode="normal" solid-color="#000000" solid-opacity="1" vector-effect="none"/><path id="path4102" d="m8.8860415 283.50492a.26460982.26460982 0 0 0 -.119141.0371l-.916016.52929a.26460982.26460982 0 1 0 .265625.45704l.916016-.5293a.26460982.26460982 0 0 0 -.146484-.49414z" font-variant-ligatures="normal" font-variant-position="normal" font-variant-caps="normal" font-variant-numeric="normal" font-variant-alternates="normal" font-feature-settings="normal" text-indent="0" text-align="start" text-decoration-line="none" text-decoration-style="solid" text-decoration-color="#000000" text-transform="none" text-orientation="mixed" white-space="normal" shape-padding="0" isolation="auto" mix-blend-mode="normal" solid-color="#000000" solid-opacity="1" vector-effect="none"/><path id="path4104" d="m8.6204155 285.09281a.26460982.26460982 0 0 0 -.117187.0371l-.458984.26367a.26515489.26515489 0 1 0 .265625.45899l.457031-.26563a.26460982.26460982 0 0 0 -.146485-.49414z" font-variant-ligatures="normal" font-variant-position="normal" font-variant-caps="normal" font-variant-numeric="normal" font-variant-alternates="normal" font-feature-settings="normal" text-indent="0" text-align="start" text-decoration-line="none" text-decoration-style="solid" text-decoration-color="#000000" text-transform="none" text-orientation="mixed" white-space="normal" shape-padding="0" isolation="auto" mix-blend-mode="normal" solid-color="#000000" solid-opacity="1" vector-effect="none"/></g></svg>