<svg id="svg4938" height="512" viewBox="0 0 16.933333 16.933334" width="512" xmlns="http://www.w3.org/2000/svg" xmlns:svg="http://www.w3.org/2000/svg"><g id="layer1" transform="translate(0 -280.067)"><path id="path5634" d="m8.4138831 280.59633c-1.8049697 0-3.1756897 1.35839-3.1757797 3.03515v2.25586a.26460982.26460982 0 0 0 .26562.26563h5.8203096a.26460982.26460982 0 0 0 .26563-.26563v-2.25586c0-1.67678-1.37081-3.03515-3.1757799-3.03515z" font-variant-ligatures="normal" font-variant-position="normal" font-variant-caps="normal" font-variant-numeric="normal" font-variant-alternates="normal" font-feature-settings="normal" text-indent="0" text-align="start" text-decoration-line="none" text-decoration-style="solid" text-decoration-color="#000000" text-transform="none" text-orientation="mixed" white-space="normal" shape-padding="0" isolation="auto" mix-blend-mode="normal" solid-color="#000000" solid-opacity="1" vector-effect="none"/><path id="path4028" d="m8.4138831 281.12562c1.54472 0 2.6464799 1.11308 2.6464799 2.50586v1.99219h-5.2929696v-1.99219c.0000801-1.39279 1.10177-2.50586 2.6464897-2.50586z" fill="#ff75a0" font-variant-ligatures="normal" font-variant-position="normal" font-variant-caps="normal" font-variant-numeric="normal" font-variant-alternates="normal" font-feature-settings="normal" text-indent="0" text-align="start" text-decoration-line="none" text-decoration-style="solid" text-decoration-color="#000000" text-transform="none" text-orientation="mixed" white-space="normal" shape-padding="0" isolation="auto" mix-blend-mode="normal" solid-color="#000000" solid-opacity="1" vector-effect="none"/><path id="path5638" d="m7.6209134 292.23695v3.43945c0 .43517.3578101.79493.7929697.79493.43516 0 .79297-.35976.79297-.79493v-3.43945c-.000529-.14541-.11827-.26316-.26368-.26367h-1.0712796c-.14873 0-.2511701.12758-.2509801.26367z" font-variant-ligatures="normal" font-variant-position="normal" font-variant-caps="normal" font-variant-numeric="normal" font-variant-alternates="normal" font-feature-settings="normal" text-indent="0" text-align="start" text-decoration-line="none" text-decoration-style="solid" text-decoration-color="#000000" text-transform="none" text-orientation="mixed" white-space="normal" shape-padding="0" isolation="auto" mix-blend-mode="normal" solid-color="#000000" solid-opacity="1" vector-effect="none"/><path id="path4030" d="m8.1502034 292.50258h.5292997v3.17382c0 .15116-.11446.26563-.26562.26563-.1511596 0-.2636797-.11447-.2636797-.26563z" fill="#edca9d" fill-opacity=".996" font-variant-ligatures="normal" font-variant-position="normal" font-variant-caps="normal" font-variant-numeric="normal" font-variant-alternates="normal" font-feature-settings="normal" text-indent="0" text-align="start" text-decoration-line="none" text-decoration-style="solid" text-decoration-color="#000000" text-transform="none" text-orientation="mixed" white-space="normal" shape-padding="0" isolation="auto" mix-blend-mode="normal" solid-color="#000000" solid-opacity="1" vector-effect="none"/><path id="path5646" d="m5.2381034 285.88734v5.82031c0 .43517.35975.79493.79492.79493h4.7617196c.43516 0 .79492-.35976.79492-.79493v-5.82031c-.000529-.14617-.11946-.26423-.26563-.26367h-5.8339796c-.1496999 0-.25214.12758-.25195.26367z" font-variant-ligatures="normal" font-variant-position="normal" font-variant-caps="normal" font-variant-numeric="normal" font-variant-alternates="normal" font-feature-settings="normal" text-indent="0" text-align="start" text-decoration-line="none" text-decoration-style="solid" text-decoration-color="#000000" text-transform="none" text-orientation="mixed" white-space="normal" shape-padding="0" isolation="auto" mix-blend-mode="normal" solid-color="#000000" solid-opacity="1" vector-effect="none"/><path id="path4034" d="m5.7673934 286.15297h5.2929696v5.55468c0 .15116-.11447.26563-.26562.26563h-4.7617196c-.1511599 0-.26563-.11447-.26563-.26563z" fill="#fce38a" font-variant-ligatures="normal" font-variant-position="normal" font-variant-caps="normal" font-variant-numeric="normal" font-variant-alternates="normal" font-feature-settings="normal" text-indent="0" text-align="start" text-decoration-line="none" text-decoration-style="solid" text-decoration-color="#000000" text-transform="none" text-orientation="mixed" white-space="normal" shape-padding="0" isolation="auto" mix-blend-mode="normal" solid-color="#000000" solid-opacity="1" vector-effect="none"/><path id="path5642" d="m5.5037234 288.7975a.26460982.26460982 0 0 0 -.26562.26562v2.64453c0 .43517.35975.79493.79492.79493h4.7617196c.43516 0 .79492-.35976.79492-.79493v-2.64453a.26460982.26460982 0 0 0 -.26563-.26562z" font-variant-ligatures="normal" font-variant-position="normal" font-variant-caps="normal" font-variant-numeric="normal" font-variant-alternates="normal" font-feature-settings="normal" text-indent="0" text-align="start" text-decoration-line="none" text-decoration-style="solid" text-decoration-color="#000000" text-transform="none" text-orientation="mixed" white-space="normal" shape-padding="0" isolation="auto" mix-blend-mode="normal" solid-color="#000000" solid-opacity="1" vector-effect="none"/><path id="path4032" d="m5.7673934 289.32679h5.2929696v2.38086c0 .15116-.11447.26563-.26562.26563h-4.7617196c-.1511599 0-.26563-.11447-.26563-.26563z" fill="#95e1d3" font-variant-ligatures="normal" font-variant-position="normal" font-variant-caps="normal" font-variant-numeric="normal" font-variant-alternates="normal" font-feature-settings="normal" text-indent="0" text-align="start" text-decoration-line="none" text-decoration-style="solid" text-decoration-color="#000000" text-transform="none" text-orientation="mixed" white-space="normal" shape-padding="0" isolation="auto" mix-blend-mode="normal" solid-color="#000000" solid-opacity="1" vector-effect="none"/></g></svg>