<svg id="svg4938" height="512" viewBox="0 0 16.933333 16.933334" width="512" xmlns="http://www.w3.org/2000/svg" xmlns:svg="http://www.w3.org/2000/svg"><g id="layer1" transform="translate(0 -280.067)"><path id="path5866" d="m8.4605724 280.59671c-1.3021098 0-2.3720213.41959-3.107422 1.16993-.7354006.75033-1.126953 1.81717-1.126953 3.0625v1.32226a.26460982.26460982 0 0 0 .265625.26563h7.9374996a.26460982.26460982 0 0 0 .263672-.26563v-1.32226c0-1.24533-.3896-2.31217-1.125-3.0625-.735401-.75034-1.8053118-1.16993-3.1074216-1.16993z" font-variant-ligatures="normal" font-variant-position="normal" font-variant-caps="normal" font-variant-numeric="normal" font-variant-alternates="normal" font-feature-settings="normal" text-indent="0" text-align="start" text-decoration-line="none" text-decoration-style="solid" text-decoration-color="#000000" text-transform="none" text-orientation="mixed" white-space="normal" shape-padding="0" isolation="auto" mix-blend-mode="normal" solid-color="#000000" solid-opacity="1" vector-effect="none"/><path id="path4146" d="m8.4605724 281.12406c1.1897358 0 2.1044556.37494 2.7304686 1.01367.626012.63873.972656 1.55548.972656 2.69141v1.05859h-7.4082028v-1.05859c0-1.13593.3485965-2.05268.9746094-2.69141s1.5407325-1.01367 2.7304688-1.01367z" fill="#edffa9" font-variant-ligatures="normal" font-variant-position="normal" font-variant-caps="normal" font-variant-numeric="normal" font-variant-alternates="normal" font-feature-settings="normal" text-indent="0" text-align="start" text-decoration-line="none" text-decoration-style="solid" text-decoration-color="#000000" text-transform="none" text-orientation="mixed" white-space="normal" shape-padding="0" isolation="auto" mix-blend-mode="normal" solid-color="#000000" solid-opacity="1" vector-effect="none"/><path id="path5870" d="m4.4918224 288.79789a.26460982.26460982 0 0 0 -.265625.26367v2.11719c0 .92486.7276386 1.58789 1.5878905 1.58789h5.2929681c.874899 0 1.585938-.713 1.585938-1.58789v-2.11719a.26460982.26460982 0 0 0 -.263672-.26367z" font-variant-ligatures="normal" font-variant-position="normal" font-variant-caps="normal" font-variant-numeric="normal" font-variant-alternates="normal" font-feature-settings="normal" text-indent="0" text-align="start" text-decoration-line="none" text-decoration-style="solid" text-decoration-color="#000000" text-transform="none" text-orientation="mixed" white-space="normal" shape-padding="0" isolation="auto" mix-blend-mode="normal" solid-color="#000000" solid-opacity="1" vector-effect="none"/><path id="path4148" d="m4.7554942 289.32718h7.4082028v1.85157c0 .59089-.465747 1.05859-1.056641 1.05859h-5.2929681c-.6055389 0-1.0585937-.39596-1.0585937-1.05859z" fill="#b0efeb" font-variant-ligatures="normal" font-variant-position="normal" font-variant-caps="normal" font-variant-numeric="normal" font-variant-alternates="normal" font-feature-settings="normal" text-indent="0" text-align="start" text-decoration-line="none" text-decoration-style="solid" text-decoration-color="#000000" text-transform="none" text-orientation="mixed" white-space="normal" shape-padding="0" isolation="auto" mix-blend-mode="normal" solid-color="#000000" solid-opacity="1" vector-effect="none"/><path id="path5874" d="m7.9312756 292.23734a.26460982.26460982 0 0 0 -.2636721.24023l-.2636719 2.91016a.26460982.26460982 0 0 0 -.00196.0254c0 .58174.476853 1.05859 1.0585937 1.05859.5824654 0 1.1118659-.4765 1.0566409-1.08398l-.263667-2.91016a.26460982.26460982 0 0 0 -.263672-.24023z" font-variant-ligatures="normal" font-variant-position="normal" font-variant-caps="normal" font-variant-numeric="normal" font-variant-alternates="normal" font-feature-settings="normal" text-indent="0" text-align="start" text-decoration-line="none" text-decoration-style="solid" text-decoration-color="#000000" text-transform="none" text-orientation="mixed" white-space="normal" shape-padding="0" isolation="auto" mix-blend-mode="normal" solid-color="#000000" solid-opacity="1" vector-effect="none"/><path id="path4150" d="m8.173463 292.76664h.5742186l.2421877 2.66992c.0244.26838-.2322857.50586-.5292969.50586-.2977356 0-.5292968-.23156-.5292968-.5293z" fill="#ecc99c" font-variant-ligatures="normal" font-variant-position="normal" font-variant-caps="normal" font-variant-numeric="normal" font-variant-alternates="normal" font-feature-settings="normal" text-indent="0" text-align="start" text-decoration-line="none" text-decoration-style="solid" text-decoration-color="#000000" text-transform="none" text-orientation="mixed" white-space="normal" shape-padding="0" isolation="auto" mix-blend-mode="normal" solid-color="#000000" solid-opacity="1" vector-effect="none"/><path id="path5878" d="m4.4918224 285.88773a.26460982.26460982 0 0 0 -.265625.26367v2.91016a.26460982.26460982 0 0 0 .265625.26562h7.9374996a.26460982.26460982 0 0 0 .263672-.26562v-2.91016a.26460982.26460982 0 0 0 -.263672-.26367z" font-variant-ligatures="normal" font-variant-position="normal" font-variant-caps="normal" font-variant-numeric="normal" font-variant-alternates="normal" font-feature-settings="normal" text-indent="0" text-align="start" text-decoration-line="none" text-decoration-style="solid" text-decoration-color="#000000" text-transform="none" text-orientation="mixed" white-space="normal" shape-padding="0" isolation="auto" mix-blend-mode="normal" solid-color="#000000" solid-opacity="1" vector-effect="none"/><path id="rect4152" d="m4.7554942 286.41703h7.4082028v2.38086h-7.4082028z" fill="#eca3f5" font-variant-ligatures="normal" font-variant-position="normal" font-variant-caps="normal" font-variant-numeric="normal" font-variant-alternates="normal" font-feature-settings="normal" text-indent="0" text-align="start" text-decoration-line="none" text-decoration-style="solid" text-decoration-color="#000000" text-transform="none" text-orientation="mixed" white-space="normal" shape-padding="0" isolation="auto" mix-blend-mode="normal" solid-color="#000000" solid-opacity="1" vector-effect="none"/></g></svg>