<svg id="svg4938" height="512" viewBox="0 0 16.933333 16.933334" width="512" xmlns="http://www.w3.org/2000/svg" xmlns:svg="http://www.w3.org/2000/svg"><g id="layer1" transform="translate(0 -280.067)"><path id="path5544" d="m6.5981113 280.59632c-.714375 0-1.2724638.22683-1.6249999.6582-.3525369.43137-.488813 1.02621-.490234 1.72266a.26460982.26460982 0 0 0 .263671.26367h7.4082026a.26460982.26460982 0 0 0 .265626-.26367c.0014-.69703-.136861-1.29126-.490235-1.72266s-.912578-.6582-1.626953-.6582z" font-variant-ligatures="normal" font-variant-position="normal" font-variant-caps="normal" font-variant-numeric="normal" font-variant-alternates="normal" font-feature-settings="normal" text-indent="0" text-align="start" text-decoration-line="none" text-decoration-style="solid" text-decoration-color="#000000" text-transform="none" text-orientation="mixed" white-space="normal" shape-padding="0" isolation="auto" mix-blend-mode="normal" solid-color="#000000" solid-opacity="1" vector-effect="none"/><path id="path5542" d="m6.5981113 281.12561h3.7050777c.608542 0 .976124.16865 1.21875.46485.196168.23948.260357.66531.298828 1.12109h-6.7382806c.03985-.45632.1050211-.88156.300781-1.12109.2421009-.29624.606302-.46485 1.2148439-.46485z" fill="#eca3f5" font-variant-ligatures="normal" font-variant-position="normal" font-variant-caps="normal" font-variant-numeric="normal" font-variant-alternates="normal" font-feature-settings="normal" text-indent="0" text-align="start" text-decoration-line="none" text-decoration-style="solid" text-decoration-color="#000000" text-transform="none" text-orientation="mixed" white-space="normal" shape-padding="0" isolation="auto" mix-blend-mode="normal" solid-color="#000000" solid-opacity="1" vector-effect="none"/><path id="path5540" d="m4.7465484 290.64905a.26460982.26460982 0 0 0 -.263671.26563c0 .67909.05683 1.26344.3808589 1.70898.3240292.44554.8965261.67187 1.734375.67187h3.7050777c.837845 0 1.410349-.22633 1.734375-.67187s.382813-1.02989.382813-1.70898a.26460982.26460982 0 0 0 -.265626-.26563z" font-variant-ligatures="normal" font-variant-position="normal" font-variant-caps="normal" font-variant-numeric="normal" font-variant-alternates="normal" font-feature-settings="normal" text-indent="0" text-align="start" text-decoration-line="none" text-decoration-style="solid" text-decoration-color="#000000" text-transform="none" text-orientation="mixed" white-space="normal" shape-padding="0" isolation="auto" mix-blend-mode="normal" solid-color="#000000" solid-opacity="1" vector-effect="none"/><path id="path4018" d="m5.0649083 291.17835h6.7734367c-.02453.46959-.06205.90587-.228515 1.13476-.205139.28207-.55699.45313-1.306641.45313h-3.7050777c-.7496548 0-1.1014998-.17106-1.3066408-.45313-.1664592-.22888-.202025-.66521-.2265622-1.13476z" fill="#eca3f5" font-variant-ligatures="normal" font-variant-position="normal" font-variant-caps="normal" font-variant-numeric="normal" font-variant-alternates="normal" font-feature-settings="normal" text-indent="0" text-align="start" text-decoration-line="none" text-decoration-style="solid" text-decoration-color="#000000" text-transform="none" text-orientation="mixed" white-space="normal" shape-padding="0" isolation="auto" mix-blend-mode="normal" solid-color="#000000" solid-opacity="1" vector-effect="none"/><path id="path5548" d="m7.9219403 292.76663a.26460979.26460979 0 0 0 -.2645828.26458v2.64583c0 .43516.358589.79375.7937496.79375.43516 0 .79375-.35859.79375-.79375v-2.64583a.26460979.26460979 0 0 0 -.264584-.26458z" font-variant-ligatures="normal" font-variant-position="normal" font-variant-caps="normal" font-variant-numeric="normal" font-variant-alternates="normal" font-feature-settings="normal" text-indent="0" text-align="start" text-decoration-line="none" text-decoration-style="solid" text-decoration-color="#000000" text-transform="none" text-orientation="mixed" white-space="normal" shape-padding="0" isolation="auto" mix-blend-mode="normal" solid-color="#000000" solid-opacity="1" vector-effect="none"/><path id="path4020" d="m8.1865234 293.29579h.5291667v2.38125c0 .15116-.113427.26459-.264583.26459-.1511569 0-.2645837-.11343-.2645837-.26459z" fill="#edca9d" fill-opacity=".996" font-variant-ligatures="normal" font-variant-position="normal" font-variant-caps="normal" font-variant-numeric="normal" font-variant-alternates="normal" font-feature-settings="normal" text-indent="0" text-align="start" text-decoration-line="none" text-decoration-style="solid" text-decoration-color="#000000" text-transform="none" text-orientation="mixed" white-space="normal" shape-padding="0" isolation="auto" mix-blend-mode="normal" solid-color="#000000" solid-opacity="1" vector-effect="none"/><path id="path5552" d="m4.7469403 285.35829a.26460979.26460979 0 0 0 -.2645839.26459v2.64583a.26460979.26460979 0 0 0 .2645839.26458h7.4083327a.26460979.26460979 0 0 0 .264584-.26458v-2.64583a.26460979.26460979 0 0 0 -.264584-.26459z" font-variant-ligatures="normal" font-variant-position="normal" font-variant-caps="normal" font-variant-numeric="normal" font-variant-alternates="normal" font-feature-settings="normal" text-indent="0" text-align="start" text-decoration-line="none" text-decoration-style="solid" text-decoration-color="#000000" text-transform="none" text-orientation="mixed" white-space="normal" shape-padding="0" isolation="auto" mix-blend-mode="normal" solid-color="#000000" solid-opacity="1" vector-effect="none"/><path id="path4260" d="m5.0115233 285.88746h6.8791667v2.11667h-6.8791667z" fill="#edffa9" font-variant-ligatures="normal" font-variant-position="normal" font-variant-caps="normal" font-variant-numeric="normal" font-variant-alternates="normal" font-feature-settings="normal" text-indent="0" text-align="start" text-decoration-line="none" text-decoration-style="solid" text-decoration-color="#000000" text-transform="none" text-orientation="mixed" white-space="normal" shape-padding="0" isolation="auto" mix-blend-mode="normal" solid-color="#000000" solid-opacity="1" vector-effect="none"/><path id="path5556" d="m4.7469403 288.00413a.26460979.26460979 0 0 0 -.2645839.26458v2.64583a.26460979.26460979 0 0 0 .2645839.26459h7.4083327a.26460979.26460979 0 0 0 .264584-.26459v-2.64583a.26460979.26460979 0 0 0 -.264584-.26458z" font-variant-ligatures="normal" font-variant-position="normal" font-variant-caps="normal" font-variant-numeric="normal" font-variant-alternates="normal" font-feature-settings="normal" text-indent="0" text-align="start" text-decoration-line="none" text-decoration-style="solid" text-decoration-color="#000000" text-transform="none" text-orientation="mixed" white-space="normal" shape-padding="0" isolation="auto" mix-blend-mode="normal" solid-color="#000000" solid-opacity="1" vector-effect="none"/><path id="path4262" d="m5.0115233 288.53329h6.8791667v2.11667h-6.8791667z" fill="#b0efeb" font-variant-ligatures="normal" font-variant-position="normal" font-variant-caps="normal" font-variant-numeric="normal" font-variant-alternates="normal" font-feature-settings="normal" text-indent="0" text-align="start" text-decoration-line="none" text-decoration-style="solid" text-decoration-color="#000000" text-transform="none" text-orientation="mixed" white-space="normal" shape-padding="0" isolation="auto" mix-blend-mode="normal" solid-color="#000000" solid-opacity="1" vector-effect="none"/><path id="path5560" d="m4.7469403 282.71246c-.1461188.00001-.2645839.11846-.2645839.26458v2.64584c.0000151.14612.1184651.26457.2645839.26458h7.4083327c.146119-.00001.264569-.11846.264584-.26458v-2.64584c-.000015-.14612-.118465-.26457-.264584-.26458z" font-variant-ligatures="normal" font-variant-position="normal" font-variant-caps="normal" font-variant-numeric="normal" font-variant-alternates="normal" font-feature-settings="normal" text-indent="0" text-align="start" text-decoration-line="none" text-decoration-style="solid" text-decoration-color="#000000" text-transform="none" text-orientation="mixed" white-space="normal" shape-padding="0" isolation="auto" mix-blend-mode="normal" solid-color="#000000" solid-opacity="1" vector-effect="none"/><path id="path4264" d="m5.0115233 283.24163h6.8791667v2.11666h-6.8791667z" fill="#b0efeb" font-variant-ligatures="normal" font-variant-position="normal" font-variant-caps="normal" font-variant-numeric="normal" font-variant-alternates="normal" font-feature-settings="normal" text-indent="0" text-align="start" text-decoration-line="none" text-decoration-style="solid" text-decoration-color="#000000" text-transform="none" text-orientation="mixed" white-space="normal" shape-padding="0" isolation="auto" mix-blend-mode="normal" solid-color="#000000" solid-opacity="1" vector-effect="none"/></g></svg>