<svg id="svg4938" height="512" viewBox="0 0 16.933333 16.933334" width="512" xmlns="http://www.w3.org/2000/svg" xmlns:svg="http://www.w3.org/2000/svg"><g id="layer1" transform="translate(0 -280.067)"><path id="path5730" d="m7.8845834 293.03033a.26460982.26460982 0 0 0 -.26367.23633l-.26367 2.38086c-.0668.60122.46619 1.08789 1.05664 1.08789.58282 0 1.12472-.47561 1.05664-1.08789l-.26367-2.38086a.26460982.26460982 0 0 0 -.26368-.23633z" font-variant-ligatures="normal" font-variant-position="normal" font-variant-caps="normal" font-variant-numeric="normal" font-variant-alternates="normal" font-feature-settings="normal" text-indent="0" text-align="start" text-decoration-line="none" text-decoration-style="solid" text-decoration-color="#000000" text-transform="none" text-orientation="mixed" white-space="normal" shape-padding="0" isolation="auto" mix-blend-mode="normal" solid-color="#000000" solid-opacity="1" vector-effect="none"/><path id="path4214" d="m8.1209135 293.55963h.5839799l.24024 2.14648c.0291.26181-.23459.5-.53125.5-.2890398 0-.5573501-.26514-.53125-.5z" fill="#ecc99c" font-variant-ligatures="normal" font-variant-position="normal" font-variant-caps="normal" font-variant-numeric="normal" font-variant-alternates="normal" font-feature-settings="normal" text-indent="0" text-align="start" text-decoration-line="none" text-decoration-style="solid" text-decoration-color="#000000" text-transform="none" text-orientation="mixed" white-space="normal" shape-padding="0" isolation="auto" mix-blend-mode="normal" solid-color="#000000" solid-opacity="1" vector-effect="none"/><path id="path5734" d="m4.1809334 288.05687-.006 3.97417c0 .46333.1824199.85938.4774901 1.12422.29508.26485.6912898.40049 1.1125999.40514.00101.00001.00201.00001.003 0h5.2885586c.864111.01 1.58463-.6553 1.58492-1.52858v-.00053l.004-2.49907c.00017-.19013-.19425-.31838-.36897-.2434-.86493.37191-1.82751.56704-2.8044796.56741-1.9005996-.001-3.6884397-.74016-4.8322597-1.97818-.0484-.0526-.11611-.0834-.18758-.0853-.1485099-.004-.2710199.11549-.27128.26408z" font-variant-ligatures="normal" font-variant-position="normal" font-variant-caps="normal" font-variant-numeric="normal" font-variant-alternates="normal" font-feature-settings="normal" text-indent="0" text-align="start" text-decoration-line="none" text-decoration-style="solid" text-decoration-color="#000000" text-transform="none" text-orientation="mixed" white-space="normal" shape-padding="0" isolation="auto" mix-blend-mode="normal" solid-color="#000000" solid-opacity="1" vector-effect="none"/><path id="path4216" d="m5.7707435 293.03124c-.31155-.003-.57932-.1028-.76533-.26975-.1859-.16686-.3016499-.3993-.3017901-.72967l.005-3.40186c1.24518 1.1016 2.9460299 1.75423 4.76301 1.75544.9150696-.00034 1.8072196-.18744 2.6437696-.49557l-.004 2.14095v.00051c0 .59224-.44813 1.00658-1.05105.99994z" fill="#ff75a0" font-variant-ligatures="normal" font-variant-position="normal" font-variant-caps="normal" font-variant-numeric="normal" font-variant-alternates="normal" font-feature-settings="normal" text-indent="0" text-align="start" text-decoration-line="none" text-decoration-style="solid" text-decoration-color="#000000" text-transform="none" text-orientation="mixed" white-space="normal" shape-padding="0" isolation="auto" mix-blend-mode="normal" solid-color="#000000" solid-opacity="1" vector-effect="none"/><path id="path5742" d="m11.527213 281.76268c-.7354-.75034-1.8057196-1.17099-3.1077995-1.17099-1.30208 0-2.3723899.42065-3.1078001 1.17099-.7353999.75033-1.12551 1.81701-1.12551 3.06234l-.005 3.23185c-.00005.0667.025101.13088.0703.17983 1.25832 1.36194 3.1839199 2.14739 5.22087 2.1487 1.0472896-.00026 2.0793496-.20924 3.0132596-.61081.0969-.0416.15988-.13687.16019-.24236l.007-4.70695c0-1.24559-.39012-2.31227-1.12551-3.0626z" font-variant-ligatures="normal" font-variant-position="normal" font-variant-caps="normal" font-variant-numeric="normal" font-variant-alternates="normal" font-feature-settings="normal" text-indent="0" text-align="start" text-decoration-line="none" text-decoration-style="solid" text-decoration-color="#000000" text-transform="none" text-orientation="mixed" white-space="normal" shape-padding="0" isolation="auto" mix-blend-mode="normal" solid-color="#000000" solid-opacity="1" vector-effect="none"/><path id="path4220" d="m11.149503 282.13268c.62601.63873.9741 1.55642.9741 2.69234l-.007 4.51342c-.8247.33053-1.72521.51756-2.6447996.5178-1.8661097-.001-3.6161398-.72001-4.7619796-1.91772l.005-3.11324c0-1.13618.3480901-2.05387.9741001-2.6926s1.5403399-1.01182 2.73029-1.01182c1.1899605 0 2.1042791.37309 2.7302891 1.01182z" fill="#fce38a" font-variant-ligatures="normal" font-variant-position="normal" font-variant-caps="normal" font-variant-numeric="normal" font-variant-alternates="normal" font-feature-settings="normal" text-indent="0" text-align="start" text-decoration-line="none" text-decoration-style="solid" text-decoration-color="#000000" text-transform="none" text-orientation="mixed" white-space="normal" shape-padding="0" isolation="auto" mix-blend-mode="normal" solid-color="#000000" solid-opacity="1" vector-effect="none"/><path id="path5738" d="m4.2574234 283.93567c-.0102.0615.00201.12467.0336.17829 1.1441102 1.91745 3.2123002 3.09367 5.44515 3.09644.000318.00001.000662.00001.001 0 .9577706-.002 1.9027906-.22051 2.7641796-.63923.0908-.0442.14854-.13621.148821-.2372l.003-1.50843v-.00053c0-1.24533-.39012-2.31201-1.12551-3.06235-.73541-.75033-1.8057096-1.17098-3.10803-1.17098-2.2819199 0-3.8302599 1.33352-4.1622099 3.34398z" font-variant-ligatures="normal" font-variant-position="normal" font-variant-caps="normal" font-variant-numeric="normal" font-variant-alternates="normal" font-feature-settings="normal" text-indent="0" text-align="start" text-decoration-line="none" text-decoration-style="solid" text-decoration-color="#000000" text-transform="none" text-orientation="mixed" white-space="normal" shape-padding="0" isolation="auto" mix-blend-mode="normal" solid-color="#000000" solid-opacity="1" vector-effect="none"/><path id="path4218" d="m11.149503 282.13268c.62601.63873.9741 1.55642.9741 2.69234l-.002 1.32343c-.750229.3398-1.559539.53108-2.3843386.53279-2.0118298-.003-3.86669-1.05118-4.92631-2.75539.3279301-1.73407 1.5649101-2.80499 3.6085301-2.80499 1.1896999 0 2.1040195.37309 2.7300295 1.01182z" fill="#95e1d3" font-variant-ligatures="normal" font-variant-position="normal" font-variant-caps="normal" font-variant-numeric="normal" font-variant-alternates="normal" font-feature-settings="normal" text-indent="0" text-align="start" text-decoration-line="none" text-decoration-style="solid" text-decoration-color="#000000" text-transform="none" text-orientation="mixed" white-space="normal" shape-padding="0" isolation="auto" mix-blend-mode="normal" solid-color="#000000" solid-opacity="1" vector-effect="none"/></g></svg>