<?xml version="1.0" encoding="iso-8859-1"?>
<!-- Generator: Adobe Illustrator 19.0.0, SVG Export Plug-In . SVG Version: 6.00 Build 0)  -->
<svg xmlns="http://www.w3.org/2000/svg" xmlns:xlink="http://www.w3.org/1999/xlink" version="1.1" id="Layer_1" x="0px" y="0px" viewBox="0 0 512 512" style="enable-background:new 0 0 512 512;" xml:space="preserve">
<path style="fill:#FFDF9F;" d="M274.808,362.096v120.827c0,10.245-8.464,18.627-18.808,18.627l0,0  c-10.344,0-18.808-8.382-18.808-18.627V362.096H274.808z"/>
<path style="fill:#FFA1D5;" d="M137.755,128.694C137.757,63.388,190.696,10.449,256,10.449l0,0  c65.304,0,118.245,52.939,118.245,118.245v197.527c0,18.8-15.382,34.182-34.182,34.182H171.937c-18.8,0-34.182-15.382-34.182-34.182  V128.694z"/>
<g>
	<path style="fill:#FF7DBE;" d="M240.674,300.931h-66.873v-167.39c0-18.39,15.047-33.437,33.437-33.437l0,0   c18.39,0,33.437,15.047,33.437,33.437V240.03V300.931z"/>
	<path style="fill:#FF7DBE;" d="M338.198,300.931h-66.873v-167.39c0-18.39,15.047-33.437,33.437-33.437l0,0   c18.39,0,33.437,15.047,33.437,33.437V240.03V300.931z"/>
</g>
<path d="M256,0c-70.959,0-128.691,57.732-128.694,128.694v197.527c0,24.609,20.021,44.631,44.631,44.631h54.806v112.072  C226.743,498.957,239.868,512,256,512s29.257-13.043,29.257-29.076V370.852h54.806c24.609,0,44.631-20.021,44.631-44.631V128.694  C384.694,57.732,326.962,0,256,0z M264.359,482.924c0,4.509-3.75,8.178-8.359,8.178c-4.609,0-8.359-3.67-8.359-8.178V370.852h16.718  V482.924z M363.796,326.221c0,13.086-10.645,23.733-23.733,23.733H171.937c-13.086,0-23.733-10.645-23.733-23.733V128.694  C148.207,69.255,196.564,20.898,256,20.898c59.439,0,107.796,48.357,107.796,107.796V326.221z"/>
<path d="M240.674,290.482h-56.423V133.541c0-12.676,10.312-22.988,22.988-22.988c12.675,0,22.987,10.312,22.987,22.988V240.03  c0,5.77,4.679,10.449,10.449,10.449c5.77,0,10.449-4.679,10.449-10.449V133.541c0-24.199-19.687-43.886-43.885-43.886  c-24.199,0-43.886,19.687-43.886,43.886v167.39c0,5.77,4.679,10.449,10.449,10.449h66.872c5.77,0,10.449-4.679,10.449-10.449  S246.444,290.482,240.674,290.482z"/>
<path d="M240.676,262.205c-5.77,0-10.449,4.679-10.449,10.449v0.202c0,5.77,4.679,10.449,10.449,10.449  c5.77,0,10.449-4.679,10.449-10.449v-0.202C251.124,266.884,246.445,262.205,240.676,262.205z"/>
<path d="M260.875,133.541v167.39c0,5.77,4.679,10.449,10.449,10.449h66.873c5.77,0,10.449-4.679,10.449-10.449  s-4.679-10.449-10.449-10.449h-56.424V133.541c0-12.676,10.312-22.988,22.988-22.988c12.676,0,22.988,10.312,22.988,22.988V240.03  c0,5.77,4.679,10.449,10.449,10.449s10.449-4.679,10.449-10.449V133.541c0-24.199-19.687-43.886-43.886-43.886  C280.562,89.655,260.875,109.342,260.875,133.541z"/>
<path d="M338.198,262.205c-5.77,0-10.449,4.679-10.449,10.449v0.202c0,5.77,4.679,10.449,10.449,10.449s10.449-4.679,10.449-10.449  v-0.202C348.647,266.884,343.968,262.205,338.198,262.205z"/>
<g>
</g>
<g>
</g>
<g>
</g>
<g>
</g>
<g>
</g>
<g>
</g>
<g>
</g>
<g>
</g>
<g>
</g>
<g>
</g>
<g>
</g>
<g>
</g>
<g>
</g>
<g>
</g>
<g>
</g>
</svg>
