<svg id="svg4938" height="512" viewBox="0 0 16.933333 16.933334" width="512" xmlns="http://www.w3.org/2000/svg" xmlns:svg="http://www.w3.org/2000/svg"><g id="layer1" transform="translate(0 -280.067)"><path id="path5756" d="m7.9024899 293.03033a.26460982.26460982 0 0 0 -.2636719.26562v2.38086c.0000058.43516.357808.79492.792969.79492s.794922-.35976.794922-.79492v-2.38086a.26460982.26460982 0 0 0 -.265626-.26562z" font-variant-ligatures="normal" font-variant-position="normal" font-variant-caps="normal" font-variant-numeric="normal" font-variant-alternates="normal" font-feature-settings="normal" text-indent="0" text-align="start" text-decoration-line="none" text-decoration-style="solid" text-decoration-color="#000000" text-transform="none" text-orientation="mixed" white-space="normal" shape-padding="0" isolation="auto" mix-blend-mode="normal" solid-color="#000000" solid-opacity="1" vector-effect="none"/><path id="path4036" d="m8.1681149 293.55963h.5292971v2.11718c0 .15116-.114468.26563-.265625.26563-.1511562 0-.26367-.11447-.2636721-.26563z" fill="#ecc99c" font-variant-ligatures="normal" font-variant-position="normal" font-variant-caps="normal" font-variant-numeric="normal" font-variant-alternates="normal" font-feature-settings="normal" text-indent="0" text-align="start" text-decoration-line="none" text-decoration-style="solid" text-decoration-color="#000000" text-transform="none" text-orientation="mixed" white-space="normal" shape-padding="0" isolation="auto" mix-blend-mode="normal" solid-color="#000000" solid-opacity="1" vector-effect="none"/><path id="path5760" d="m8.431787 280.59673c-2.4872691 0-4.4980472 2.00883-4.4980472 4.4961v8.20312a.26460982.26460982 0 0 0 .265625.26368h8.4667962a.26460982.26460982 0 0 0 .263671-.26368v-8.20312c0-2.48727-2.010777-4.4961-4.498045-4.4961z" font-variant-ligatures="normal" font-variant-position="normal" font-variant-caps="normal" font-variant-numeric="normal" font-variant-alternates="normal" font-feature-settings="normal" text-indent="0" text-align="start" text-decoration-line="none" text-decoration-style="solid" text-decoration-color="#000000" text-transform="none" text-orientation="mixed" white-space="normal" shape-padding="0" isolation="auto" mix-blend-mode="normal" solid-color="#000000" solid-opacity="1" vector-effect="none"/><path id="path4038" d="m8.431787 281.12408c2.203264 0 3.968749 1.76549 3.968749 3.96875v7.9375h-7.9374991v-7.9375c0-2.20326 1.7654861-3.96875 3.9687501-3.96875z" fill="#ff75a0" font-variant-ligatures="normal" font-variant-position="normal" font-variant-caps="normal" font-variant-numeric="normal" font-variant-alternates="normal" font-feature-settings="normal" text-indent="0" text-align="start" text-decoration-line="none" text-decoration-style="solid" text-decoration-color="#000000" text-transform="none" text-orientation="mixed" white-space="normal" shape-padding="0" isolation="auto" mix-blend-mode="normal" solid-color="#000000" solid-opacity="1" vector-effect="none"/><path id="path5764" d="m8.431787 282.71197c-.4351502 0-.792969.35977-.792969.79492v7.14258c0 .43515.3578188.79492.792969.79492.435149 0 .794922-.35977.794922-.79492v-7.14258c0-.43515-.359773-.79492-.794922-.79492z" font-variant-ligatures="normal" font-variant-position="normal" font-variant-caps="normal" font-variant-numeric="normal" font-variant-alternates="normal" font-feature-settings="normal" text-indent="0" text-align="start" text-decoration-line="none" text-decoration-style="solid" text-decoration-color="#000000" text-transform="none" text-orientation="mixed" white-space="normal" shape-padding="0" isolation="auto" mix-blend-mode="normal" solid-color="#000000" solid-opacity="1" vector-effect="none"/><path id="rect4040" d="m8.431787 283.24127c.151125 0 .265625.11446.265625.26562v7.14258c0 .15116-.1145.26562-.265625.26562-.1511261 0-.2636721-.11446-.2636721-.26562v-7.14258c0-.15116.112546-.26562.2636721-.26562z" fill="#f7d9d9" font-variant-ligatures="normal" font-variant-position="normal" font-variant-caps="normal" font-variant-numeric="normal" font-variant-alternates="normal" font-feature-settings="normal" text-indent="0" text-align="start" text-decoration-line="none" text-decoration-style="solid" text-decoration-color="#000000" text-transform="none" text-orientation="mixed" white-space="normal" shape-padding="0" isolation="auto" mix-blend-mode="normal" solid-color="#000000" solid-opacity="1" vector-effect="none"/><path id="path5768" d="m10.814598 283.90338c-.435161 0-.794921.3578-.794921.79297v4.76367c0 .43516.35976.79296.794921.79296s.792969-.3578.792969-.79296v-4.76367c0-.43517-.357808-.79297-.792969-.79297z" font-variant-ligatures="normal" font-variant-position="normal" font-variant-caps="normal" font-variant-numeric="normal" font-variant-alternates="normal" font-feature-settings="normal" text-indent="0" text-align="start" text-decoration-line="none" text-decoration-style="solid" text-decoration-color="#000000" text-transform="none" text-orientation="mixed" white-space="normal" shape-padding="0" isolation="auto" mix-blend-mode="normal" solid-color="#000000" solid-opacity="1" vector-effect="none"/><path id="rect4042" d="m10.814598 284.43267c.151156 0 .263673.11252.263673.26368v4.76367c0 .15115-.112517.26367-.263673.26367-.151155 0-.265625-.11252-.265625-.26367v-4.76367c0-.15116.11447-.26368.265625-.26368z" fill="#f7d9d9" font-variant-ligatures="normal" font-variant-position="normal" font-variant-caps="normal" font-variant-numeric="normal" font-variant-alternates="normal" font-feature-settings="normal" text-indent="0" text-align="start" text-decoration-line="none" text-decoration-style="solid" text-decoration-color="#000000" text-transform="none" text-orientation="mixed" white-space="normal" shape-padding="0" isolation="auto" mix-blend-mode="normal" solid-color="#000000" solid-opacity="1" vector-effect="none"/><path id="path5772" d="m6.050927 283.90338c-.4351611 0-.7929682.3578-.7929682.79297v4.76367c0 .43516.3578071.79296.7929682.79296.435161 0 .7949218-.3578.7949218-.79296v-4.76367c0-.43517-.3597608-.79297-.7949218-.79297z" font-variant-ligatures="normal" font-variant-position="normal" font-variant-caps="normal" font-variant-numeric="normal" font-variant-alternates="normal" font-feature-settings="normal" text-indent="0" text-align="start" text-decoration-line="none" text-decoration-style="solid" text-decoration-color="#000000" text-transform="none" text-orientation="mixed" white-space="normal" shape-padding="0" isolation="auto" mix-blend-mode="normal" solid-color="#000000" solid-opacity="1" vector-effect="none"/><path id="rect4044" d="m6.050927 284.43267c.1511559 0 .265625.11252.265625.26368v4.76367c0 .15115-.1144691.26367-.265625.26367-.1511552 0-.2636722-.11252-.2636722-.26367v-4.76367c0-.15116.112517-.26368.2636722-.26368z" fill="#f7d9d9" font-variant-ligatures="normal" font-variant-position="normal" font-variant-caps="normal" font-variant-numeric="normal" font-variant-alternates="normal" font-feature-settings="normal" text-indent="0" text-align="start" text-decoration-line="none" text-decoration-style="solid" text-decoration-color="#000000" text-transform="none" text-orientation="mixed" white-space="normal" shape-padding="0" isolation="auto" mix-blend-mode="normal" solid-color="#000000" solid-opacity="1" vector-effect="none"/></g></svg>