<svg height="512" viewBox="0 0 64 64" width="512" xmlns="http://www.w3.org/2000/svg"><g id="_19-Plant" data-name="19-Plant"><path d="m32 1v34h-4c-2.47-1.85-3.41-4.84-3.77-8.03a52.42 52.42 0 0 1 -.23-5.97c0-13 8-20 8-20z" fill="#effaa5"/><path d="m24.23 26.97c.36 3.19 1.3 6.18 3.77 8.03h-2s-3-1-8-5c-7.81-6.25-8-17-8-17l14 14z" fill="#d7e682"/><path d="m54 13-14 14-.23-.03a52.42 52.42 0 0 0 .23-5.97c0-5 14-8 14-8z" fill="#effaa5"/><path d="m24.23 26.97-.23.03-14-14s14 3 14 8a52.42 52.42 0 0 0 .23 5.97z" fill="#85ad59"/><path d="m46 30c-5 4-8 5-8 5h-2c2.47-1.85 3.41-4.84 3.77-8.03l.23.03 14-14s-.19 10.75-8 17z" fill="#85ad59"/><path d="m40 21a52.42 52.42 0 0 1 -.23 5.97c-.36 3.19-1.3 6.18-3.77 8.03h-4v-34s8 7 8 20z" fill="#bed264"/><path d="m51 35v6h-2-34-2v-6h16z" fill="#c48958"/><path d="m19 38a2 2 0 0 1 -2-2v-1h-4v6h38v-3z" fill="#b27a49"/><path d="m49 41-.36 4h-33.28l-.36-4z" fill="#f2bb88"/><path d="m15 41 .36 4h4l-.36-4z" fill="#e3a76f"/><path d="m48.64 45-1.64 18h-30l-1.64-18z" fill="#fff2de"/><path d="m20.834 57.181-1.11-12.181h-4.364l1.64 18h30l.364-4h-24.538a2 2 0 0 1 -1.992-1.819z" fill="#ffe4c2"/><path d="m51 42h-38a1 1 0 0 1 -1-1v-6a1 1 0 0 1 1-1h38a1 1 0 0 1 1 1v6a1 1 0 0 1 -1 1zm-37-2h36v-4h-36z"/><path d="m47 64h-30a1 1 0 0 1 -1-.909l-2-22 2-.182 1.913 21.091h28.174l1.913-21.091 2 .182-2 22a1 1 0 0 1 -1 .909z"/><path d="m15 44h34v2h-34z"/><path d="m20 58h2v2h-2z"/><path d="m24 58h20v2h-20z"/><path d="m36.6 35.8-1.2-1.6c3.6-2.7 3.6-8.278 3.6-13.2a27.34 27.34 0 0 0 -7-18.59 27.439 27.439 0 0 0 -7 18.59c0 4.922 0 10.5 3.6 13.2l-1.2 1.6c-4.4-3.3-4.4-9.676-4.4-14.8 0-13.3 8-20.454 8.341-20.753a1 1 0 0 1 1.318 0c.341.299 8.341 7.453 8.341 20.753 0 5.124 0 11.5-4.4 14.8z"/><path d="m31 18h2v17h-2z"/><path d="m31 14h2v2h-2z"/><path d="m38.316 35.948-.632-1.9c.025-.009 2.93-1.024 7.691-4.833 5.777-4.615 7.183-11.967 7.525-14.932-5.075 1.265-11.9 3.917-11.9 6.717h-2c0-5.646 13.276-8.653 14.791-8.978a.987.987 0 0 1 .845.206 1 1 0 0 1 .364.79c-.008.458-.293 11.3-8.375 17.763-5.081 4.065-8.179 5.124-8.309 5.167z"/><path d="m37.101 19h19.799v2h-19.799z" transform="matrix(.707 -.707 .707 .707 -.376 39.092)"/><path d="m25.684 35.948c-.13-.043-3.228-1.1-8.309-5.167-8.082-6.467-8.367-17.305-8.375-17.763a1 1 0 0 1 .364-.79.988.988 0 0 1 .845-.206c1.515.325 14.791 3.332 14.791 8.978h-2c0-2.8-6.825-5.452-11.9-6.717.338 2.965 1.744 10.315 7.521 14.936 4.761 3.809 7.666 4.824 7.694 4.834z"/><path d="m16 10.101h2v19.799h-2z" transform="matrix(.707 -.707 .707 .707 -9.163 17.879)"/></g></svg>