<svg id="Artboard_30" height="512" viewBox="0 0 64 64" width="512" xmlns="http://www.w3.org/2000/svg" data-name="Artboard 30"><path d="m60 32v28a2 2 0 0 1 -2 2h-52a2 2 0 0 1 -2-2v-28z" fill="#ffc239"/><path d="m27 32h-23a2 2 0 0 1 -2-2v-8a2 2 0 0 1 2-2h56a2 2 0 0 1 2 2v8a2 2 0 0 1 -2 2h-23" fill="#ffd55d"/><path d="m17.793 36.5a9.294 9.294 0 0 0 -9.293 9.294v16.206h49.5a2 2 0 0 0 2-2v-23.5z" fill="#ffd55d"/><path d="m60 20h-55v.978a7.022 7.022 0 0 0 7.022 7.022h49.978v-6a2 2 0 0 0 -2-2z" fill="#ffdd7d"/><path d="m33 62v-42h-10v38.589a3.415 3.415 0 0 0 3.415 3.411z" fill="#80611d" opacity=".1"/><path d="m27 20.004h10v42h-10z" fill="#f2f2f2"/><path d="m48.511 4.493c-1.836-2.215-6.424-3.505-10.511-1.493-2 .99-6 5-6 11 0-6-4-10.01-6-11-4.086-2.016-8.674-.726-10.51 1.489-2.646 3.196-1.406 8.216.51 10.511 5 6 9.544 4.794 10 5h12c.456-.206 5 1 10-5 1.916-2.295 3.156-7.315.511-10.507zm-22.511 12.507-5.43-2.822c-1.478-.807-1.57-1.878-1.57-3.178a4 4 0 0 1 7.585-1.777l2.415 4.777zm17.43-2.822-5.43 2.822-3-3 2.415-4.777a4 4 0 0 1 7.585 1.777c0 1.3-.092 2.371-1.57 3.182z" fill="#b73329"/><path d="m28.4 20a2.751 2.751 0 0 1 -2.4-3 2.751 2.751 0 0 1 2.4-3h7.2a2.751 2.751 0 0 1 2.4 3 2.751 2.751 0 0 1 -2.4 3z" fill="#ffc239"/><g fill="#b73329"><path d="m27 55.004 10-7v7l-10 7z"/><path d="m27 41 10-7v7l-10 7z"/><path d="m27 26.996 10-7v7l-10 7z"/></g><path d="m60 19h-14.9a17.213 17.213 0 0 0 3.664-3.36c2.161-2.594 3.542-8.134.511-11.789-2.125-2.57-7.212-3.971-11.716-1.751a13.31 13.31 0 0 0 -5.559 6.7 13.318 13.318 0 0 0 -5.559-6.7c-4.5-2.222-9.59-.823-11.721 1.748-3.031 3.655-1.65 9.2.511 11.789a17.237 17.237 0 0 0 3.669 3.363h-14.9a3 3 0 0 0 -3 3v8a3 3 0 0 0 2 2.816v27.184a3 3 0 0 0 3 3h52a3 3 0 0 0 3-3v-27.184a3 3 0 0 0 2-2.816v-8a3 3 0 0 0 -3-3zm-38.948-5.7c-.952-.524-1.052-1.075-1.052-2.3a3 3 0 0 1 5.692-1.326l1.77 3.5a3.661 3.661 0 0 0 -2.206 2.313zm14.548 1.7c.758 0 1.4.916 1.4 2s-.642 2-1.4 2h-7.2c-.758 0-1.4-.916-1.4-2s.642-2 1.4-2zm3.144.487a3.661 3.661 0 0 0 -2.206-2.313l1.773-3.506a3 3 0 0 1 5.689 1.332c0 1.225-.095 1.776-1.031 2.291zm-4.916 5.513c-2.872 2.011-4.682 3.284-5.828 4.112v-4.112zm2.172 33.479-8 5.6v-4.558l8-5.6zm0-7-8 5.6v-4.558l8-5.6zm0-7-8 5.6v-4.558l8-5.6zm0-7-8 5.6v-4.558l8-5.6zm0-7-8 5.6v-4.559l8-5.6zm0 30.442v4.079h-5.828zm2.443-53.021c3.836-1.892 7.864-.5 9.3 1.23 2.22 2.678 1.2 7.183-.51 9.233-3.887 4.665-7.348 4.634-8.692 4.614a4.405 4.405 0 0 0 .406-1.339l4.966-2.581a4 4 0 0 0 2.087-4.057 5 5 0 0 0 -9.478-2.228l-2.137 4.228h-1.343a11.9 11.9 0 0 1 5.401-9.1zm-21.674 10.46c-1.709-2.05-2.73-6.555-.51-9.233 1.434-1.731 5.464-3.122 9.3-1.231a11.9 11.9 0 0 1 5.4 9.1h-1.344l-2.135-4.218a5 5 0 0 0 -9.48 2.222 4.007 4.007 0 0 0 2.109 4.065l4.946 2.57a4.405 4.405 0 0 0 .406 1.339c-1.329.026-4.803.055-8.692-4.614zm-13.769 7.64a1 1 0 0 1 1-1h22v10h-22a1 1 0 0 1 -1-1zm2 38v-27h21v28h-20a1 1 0 0 1 -1-1zm53 1h-20v-28h21v27a1 1 0 0 1 -1 1zm3-31a1 1 0 0 1 -1 1h-22v-10h22a1 1 0 0 1 1 1z"/></svg>