<?xml version="1.0" encoding="iso-8859-1"?>
<!-- Generator: Adobe Illustrator 19.0.0, SVG Export Plug-In . SVG Version: 6.00 Build 0)  -->
<svg xmlns="http://www.w3.org/2000/svg" xmlns:xlink="http://www.w3.org/1999/xlink" version="1.1" id="Layer_1" x="0px" y="0px" viewBox="0 0 512 512" style="enable-background:new 0 0 512 512;" xml:space="preserve">
<path style="fill:#424242;" d="M85.334,153.6c0.017,21.786,5.692,43.187,16.469,62.123c-6.571,19.098-17.801,36.258-32.683,49.92  c-2.859,2.628-5.845,5.103-8.96,7.424c-33.877,25.6-33.877,0-33.877,0s-8.448-110.933,33.877-162.133  c5.265-6.349,11.153-12.151,17.579-17.323c9.668-8.021,21.009-13.773,33.195-16.811l0.256,0.171  C94.499,99.038,85.428,125.935,85.334,153.6z"/>
<path style="fill:#9E9E9E;" d="M59.734,177.323c-0.034,24.209,5.606,48.085,16.469,69.717c-1.86,6.383-4.233,12.604-7.083,18.603  c-2.859,2.628-5.845,5.103-8.96,7.424c-33.877,25.6-33.877,0-33.877,0s-8.448-110.933,33.877-162.133  c5.265-6.349,11.153-12.151,17.579-17.323c2.458-1.058,5.001-1.911,7.595-2.56l0.256,0.171  C68.677,116.745,59.683,146.705,59.734,177.323z"/>
<path style="fill:#4E342E;" d="M101.804,215.723c-6.571,19.098-17.801,36.258-32.683,49.92c-1.365,1.28-2.816,2.56-4.352,3.84  l-3.84-4.949C53.078,202.496,85.334,179.2,85.334,179.2l2.475-0.597C90.565,191.616,95.284,204.134,101.804,215.723z"/>
<path style="fill:#424242;" d="M426.924,153.6c-0.017,21.786-5.692,43.187-16.469,62.123c6.571,19.098,17.801,36.258,32.683,49.92  c2.859,2.628,5.854,5.103,8.96,7.424c33.877,25.6,33.877,0,33.877,0s8.448-110.933-33.877-162.133  c-5.265-6.349-11.153-12.151-17.579-17.323c-9.66-8.021-21.009-13.773-33.195-16.811l-0.256,0.171  C417.759,99.038,426.83,125.935,426.924,153.6z"/>
<path style="fill:#9E9E9E;" d="M452.524,177.323c0.034,24.209-5.606,48.085-16.469,69.717c1.86,6.383,4.233,12.604,7.083,18.603  c2.859,2.628,5.854,5.103,8.96,7.424c33.877,25.6,33.877,0,33.877,0s8.448-110.933-33.877-162.133  c-5.265-6.349-11.153-12.151-17.579-17.323c-2.458-1.058-5.001-1.911-7.595-2.56l-0.256,0.171  C443.581,116.745,452.575,146.705,452.524,177.323z"/>
<path style="fill:#4E342E;" d="M410.454,215.723c6.571,19.098,17.801,36.258,32.683,49.92c1.365,1.28,2.816,2.56,4.352,3.84  l3.84-4.949c7.851-62.037-24.405-85.333-24.405-85.333l-2.475-0.597C421.693,191.616,416.974,204.134,410.454,215.723z"/>
<path id="SVGCleanerId_0" d="M256.044,324.267c-14.694,0-29.525-4.745-41.95-14.549c-4.113-3.26-7.859-6.997-11.127-11.136  c-9.122-10.163-14.652-23.791-15.232-37.973c-0.026-1.988,0.102-3.78,0.367-5.53c0.077-1.195,0.265-2.381,0.563-3.55  c4.181-17.655,16.657-32.35,33.195-39.526V179.2c0-37.197-43.802-105.523-48.794-113.186c-1.306-2.005-1.715-4.463-1.109-6.784  c0.597-2.313,2.133-4.275,4.25-5.402c24.209-12.894,51.447-19.695,78.857-19.695c0.401,0,0.785,0,1.203,0  c7.1,0,14.31,0.452,21.376,1.348c2.722,0.358,5.308,0.717,7.885,1.169c1.186,0.179,2.5,0.393,3.814,0.7l2.628,0.495  c0.154,0.026,1.05,0.222,1.203,0.247c1.442,0.307,2.936,0.649,4.369,1.041c3.49,0.785,7.33,1.869,11.341,3.2  c2.842,0.913,5.666,1.946,8.491,3.046c0.307,0.085,0.606,0.196,0.905,0.316v-0.009c2.978,1.212,5.683,2.321,8.303,3.575  c0.213,0.085,0.427,0.179,0.631,0.282v-0.009c2.833,1.331,5.666,2.671,8.337,4.164c1.562,0.768,2.876,2.005,3.738,3.593  c1.493,2.756,1.357,6.101-0.35,8.721c-4.992,7.663-48.794,75.947-48.794,113.186v32.811c16.538,7.185,29.005,21.879,33.22,39.637  c0.265,1.084,0.452,2.244,0.538,3.422c0.273,1.749,0.401,3.524,0.384,5.299c-0.58,14.43-6.118,28.058-15.573,38.613  C295.596,315.563,275.952,324.267,256.044,324.267z M192.522,64.794c14.234,22.929,46.413,78.703,46.413,114.406v38.741  c0,3.746-2.449,7.066-6.042,8.158c-13.73,4.207-24.329,15.497-27.639,29.483c-0.017,0.375-0.171,1.485-0.23,1.86  c-0.162,0.896-0.23,1.809-0.222,2.722c0.41,9.984,4.395,19.806,11.221,27.435c2.782,3.49,5.581,6.289,8.653,8.713  c21.862,17.28,53.692,13.534,70.972-8.32c7.159-8.013,11.153-17.852,11.563-28.083c0-0.666-0.077-1.579-0.222-2.475  c-0.068-0.358-0.102-0.717-0.119-1.084c-0.009-0.239-0.051-0.478-0.102-0.708c-3.345-14.046-13.935-25.344-27.665-29.551  c-3.584-1.092-6.033-4.412-6.033-8.158V179.2c0-35.738,32.179-91.494,46.413-114.406c-0.017-0.009-0.034-0.017-0.051-0.026  c-2.313-1.109-4.685-2.082-7.057-3.055c-0.265-0.077-0.538-0.171-0.794-0.265c-2.654-1.05-5.299-2.005-8.03-2.893  c-3.388-1.135-6.707-2.082-10.189-2.876c-1.527-0.41-2.722-0.674-3.883-0.93l-3.473-0.683c-1.434-0.316-2.33-0.444-3.226-0.58  c-2.517-0.427-4.881-0.751-7.339-1.084c-6.357-0.802-12.902-0.87-19.43-1.203C233.874,51.106,212.37,55.748,192.522,64.794z"/>
<path style="fill:#424242;" d="M426.668,153.6c-0.017,21.786-5.692,43.187-16.469,62.123c-12.57,21.956-30.362,40.482-51.797,53.931  c-17.246,10.931-36.198,18.918-56.064,23.637c4.267-5.026,7.697-10.701,10.155-16.811c4.096-2.133,8.021-4.437,11.776-6.827  c21.436-13.449,39.228-31.974,51.797-53.931c10.778-18.935,16.452-40.337,16.469-62.123c-0.094-27.665-9.165-54.562-25.856-76.629  c-4.361-5.999-9.182-11.648-14.421-16.896c-24.602-24.226-55.799-40.661-89.685-47.275c-2.56-0.512-5.205-1.024-7.765-1.451  c-2.816-0.512-5.717-0.939-8.619-1.28c-2.219-0.256-4.437-0.512-6.741-0.768c5.376-0.512,10.923-0.768,16.555-0.768h0.512  c7.962-0.009,15.915,0.503,23.808,1.536c2.901,0.341,5.803,0.768,8.619,1.28c2.56,0.427,5.205,0.939,7.765,1.451  c41.438,7.808,78.515,30.66,104.107,64.171C417.503,99.038,426.574,125.935,426.668,153.6z"/>
<path style="fill:#9E9E9E;" d="M392.534,153.6c-0.017,21.786-5.692,43.187-16.469,62.123c-12.57,21.956-30.362,40.482-51.797,53.931  c-3.755,2.389-7.68,4.693-11.776,6.827c2.099-5.154,3.2-10.65,3.243-16.213c0.017-1.434-0.094-2.859-0.341-4.267  c-0.026-0.802-0.145-1.604-0.341-2.389c-4.028-16.981-16.759-30.558-33.451-35.669V179.2c0-38.997,42.837-106.581,50.176-117.845  c-0.085,0-0.085-0.085-0.171-0.085c-2.56-1.451-5.291-2.731-8.021-4.011c-0.119-0.111-0.265-0.171-0.427-0.171  c-2.645-1.28-5.376-2.389-8.107-3.499c-0.102-0.068-0.222-0.094-0.341-0.085c-2.816-1.109-5.632-2.133-8.533-3.072  c-3.584-1.195-7.168-2.219-10.923-3.072c-1.536-0.427-3.157-0.768-4.693-1.109c-1.024-0.171-2.133-0.427-3.157-0.597  c-1.109-0.256-2.219-0.427-3.328-0.597c-2.475-0.427-4.949-0.768-7.509-1.109c-6.818-0.862-13.687-1.289-20.565-1.28  c-5.7-0.034-11.401,0.282-17.067,0.939c-20.557,1.937-40.516,7.979-58.709,17.749c7.339,11.264,50.176,78.848,50.176,117.845v38.741  c-16.691,5.111-29.423,18.688-33.451,35.669c-0.196,0.785-0.316,1.587-0.341,2.389c-0.247,1.408-0.358,2.833-0.341,4.267  c0.495,12.228,5.231,23.902,13.397,33.024c-15.428-3.669-30.31-9.318-44.288-16.811c-4.096-2.133-8.021-4.437-11.776-6.827  c-21.436-13.449-39.228-31.974-51.797-53.931C91.035,196.787,85.36,175.386,85.334,153.6c0.094-27.665,9.165-54.562,25.856-76.629  c5.734-7.791,12.186-15.019,19.285-21.589c30.14-27.119,68.514-43.349,108.971-46.08c2.304,0.256,4.523,0.512,6.741,0.768  c2.901,0.341,5.803,0.768,8.619,1.28c2.56,0.427,5.205,0.939,7.765,1.451c33.886,6.613,65.084,23.049,89.685,47.275  c5.239,5.248,10.061,10.897,14.421,16.896C383.37,99.038,392.441,125.935,392.534,153.6z"/>
<path style="fill:#424242;" d="M358.401,269.653v182.613h-25.6V283.136C341.693,279.364,350.26,274.85,358.401,269.653z"/>
<path style="fill:#9E9E9E;" d="M332.801,283.136v169.131h-179.2V269.653c17.246,10.931,36.198,18.918,56.064,23.637  c8.653,10.377,20.412,17.707,33.536,20.907c4.19,1.033,8.491,1.553,12.8,1.536c17.988-0.341,34.918-8.542,46.336-22.443  C312.765,290.799,322.962,287.394,332.801,283.136z"/>
<path style="fill:#4E342E;" d="M315.393,256c0.247,1.408,0.358,2.833,0.341,4.267c-0.495,12.228-5.231,23.902-13.397,33.024  c-10.667,12.945-26.121,21.009-42.837,22.357c0,0,0,0.085-0.085,0c-1.109,0.085-2.304,0.085-3.413,0.085  c-17.988-0.341-34.918-8.542-46.336-22.443c-8.166-9.122-12.902-20.796-13.397-33.024c-0.017-1.434,0.094-2.859,0.341-4.267  c0.026-0.802,0.145-1.604,0.341-2.389c4.028-16.981,16.759-30.558,33.451-35.669V179.2c0-38.997-42.837-106.581-50.176-117.845  c4.173-2.278,8.474-4.301,12.885-6.059c19.891-8.431,41.293-12.723,62.891-12.629c6.878-0.009,13.747,0.418,20.565,1.28  c2.56,0.341,5.035,0.683,7.509,1.109c1.109,0.171,2.219,0.341,3.328,0.597c1.024,0.171,2.133,0.427,3.157,0.597  c1.536,0.341,3.157,0.683,4.693,1.109c3.755,0.853,7.339,1.877,10.923,3.072c2.901,0.939,5.717,1.963,8.533,3.072  c0.119-0.009,0.239,0.017,0.341,0.085c2.731,1.109,5.461,2.219,8.107,3.499c0.162,0,0.307,0.06,0.427,0.171  c2.731,1.28,5.461,2.56,8.021,4.011c0.085,0,0.085,0.085,0.171,0.085c-7.339,11.264-50.176,78.848-50.176,117.845v38.741  c16.691,5.111,29.423,18.688,33.451,35.669C315.248,254.396,315.367,255.198,315.393,256z"/>
<path style="fill:#795548;" d="M288.769,264.533c0.247,1.408,0.358,2.833,0.341,4.267c-0.495,12.228-5.231,23.902-13.397,33.024  c-4.608,5.47-10.086,10.138-16.213,13.824c0,0,0,0.085-0.085,0c-1.109,0.085-2.304,0.085-3.413,0.085  c-17.988-0.341-34.918-8.542-46.336-22.443c-8.166-9.122-12.902-20.796-13.397-33.024c-0.017-1.434,0.094-2.859,0.341-4.267  c0.026-0.802,0.145-1.604,0.341-2.389c4.028-16.981,16.759-30.558,33.451-35.669V179.2c0-38.997-42.837-106.581-50.176-117.845  c4.173-2.278,8.474-4.301,12.885-6.059c11.887-2.765,24.064-4.139,36.267-4.096c6.878-0.009,13.747,0.418,20.565,1.28  c2.56,0.341,5.035,0.683,7.509,1.109c1.109,0.171,2.219,0.341,3.328,0.597c1.024,0.171,2.133,0.427,3.157,0.597  c1.536,0.341,3.157,0.683,4.693,1.109c3.755,0.853,7.339,1.877,10.923,3.072c2.901,0.939,5.717,1.963,8.533,3.072  c0.119-0.009,0.239,0.017,0.341,0.085c2.731,1.109,5.461,2.219,8.107,3.499c0.162,0,0.307,0.06,0.427,0.171  c2.731,1.28,5.461,2.56,8.021,4.011c0.085,0,0.085,0.085,0.171,0.085c-7.339,11.264-50.176,78.848-50.176,117.845v38.741  c16.691,5.111,29.423,18.688,33.451,35.669C288.624,262.929,288.743,263.731,288.769,264.533z"/>
<g>
	<path id="SVGCleanerId_0_1_" d="M256.044,324.267c-14.694,0-29.525-4.745-41.95-14.549c-4.113-3.26-7.859-6.997-11.127-11.136   c-9.122-10.163-14.652-23.791-15.232-37.973c-0.026-1.988,0.102-3.78,0.367-5.53c0.077-1.195,0.265-2.381,0.563-3.55   c4.181-17.655,16.657-32.35,33.195-39.526V179.2c0-37.197-43.802-105.523-48.794-113.186c-1.306-2.005-1.715-4.463-1.109-6.784   c0.597-2.313,2.133-4.275,4.25-5.402c24.209-12.894,51.447-19.695,78.857-19.695c0.401,0,0.785,0,1.203,0   c7.1,0,14.31,0.452,21.376,1.348c2.722,0.358,5.308,0.717,7.885,1.169c1.186,0.179,2.5,0.393,3.814,0.7l2.628,0.495   c0.154,0.026,1.05,0.222,1.203,0.247c1.442,0.307,2.936,0.649,4.369,1.041c3.49,0.785,7.33,1.869,11.341,3.2   c2.842,0.913,5.666,1.946,8.491,3.046c0.307,0.085,0.606,0.196,0.905,0.316v-0.009c2.978,1.212,5.683,2.321,8.303,3.575   c0.213,0.085,0.427,0.179,0.631,0.282v-0.009c2.833,1.331,5.666,2.671,8.337,4.164c1.562,0.768,2.876,2.005,3.738,3.593   c1.493,2.756,1.357,6.101-0.35,8.721c-4.992,7.663-48.794,75.947-48.794,113.186v32.811c16.538,7.185,29.005,21.879,33.22,39.637   c0.265,1.084,0.452,2.244,0.538,3.422c0.273,1.749,0.401,3.524,0.384,5.299c-0.58,14.43-6.118,28.058-15.573,38.613   C295.596,315.563,275.952,324.267,256.044,324.267z M192.522,64.794c14.234,22.929,46.413,78.703,46.413,114.406v38.741   c0,3.746-2.449,7.066-6.042,8.158c-13.73,4.207-24.329,15.497-27.639,29.483c-0.017,0.375-0.171,1.485-0.23,1.86   c-0.162,0.896-0.23,1.809-0.222,2.722c0.41,9.984,4.395,19.806,11.221,27.435c2.782,3.49,5.581,6.289,8.653,8.713   c21.862,17.28,53.692,13.534,70.972-8.32c7.159-8.013,11.153-17.852,11.563-28.083c0-0.666-0.077-1.579-0.222-2.475   c-0.068-0.358-0.102-0.717-0.119-1.084c-0.009-0.239-0.051-0.478-0.102-0.708c-3.345-14.046-13.935-25.344-27.665-29.551   c-3.584-1.092-6.033-4.412-6.033-8.158V179.2c0-35.738,32.179-91.494,46.413-114.406c-0.017-0.009-0.034-0.017-0.051-0.026   c-2.313-1.109-4.685-2.082-7.057-3.055c-0.265-0.077-0.538-0.171-0.794-0.265c-2.654-1.05-5.299-2.005-8.03-2.893   c-3.388-1.135-6.707-2.082-10.189-2.876c-1.527-0.41-2.722-0.674-3.883-0.93l-3.473-0.683c-1.434-0.316-2.33-0.444-3.226-0.58   c-2.517-0.427-4.881-0.751-7.339-1.084c-6.357-0.802-12.902-0.87-19.43-1.203C233.874,51.106,212.37,55.748,192.522,64.794z"/>
</g>
<path d="M209.665,301.824c-0.657,0-1.314-0.077-1.971-0.23c-20.855-4.949-40.593-13.269-58.667-24.73  c-22.502-14.114-41.412-33.801-54.63-56.9c-11.494-20.198-17.57-43.136-17.596-66.355c0.102-29.363,9.899-58.394,27.588-81.783  C137.2,26.889,193.913,0,256.001,0c0.068,0,0.145,0,0.205,0c8.747,0,17.067,0.538,25.225,1.604c2.97,0.35,6.05,0.802,9.037,1.348  c2.526,0.418,5.265,0.947,7.919,1.476c43.486,8.183,82.304,32.119,109.218,67.362c17.707,23.415,27.503,52.446,27.605,81.775  c0,0.009,0,0.026,0,0.034c-0.026,23.228-6.11,46.165-17.596,66.33c-13.227,23.117-32.137,42.803-54.673,56.943  c-18.031,11.435-37.777,19.755-58.624,24.713c-3.652,0.887-7.407-0.734-9.31-3.934c-1.911-3.209-1.51-7.287,0.973-10.061  c6.827-7.62,10.82-17.451,11.23-27.682c0-0.666-0.077-1.579-0.222-2.475c-0.068-0.358-0.102-0.717-0.119-1.084  c-3.439-14.754-14.037-26.052-27.767-30.251c-3.584-1.092-6.033-4.412-6.033-8.158V179.2c0-35.738,32.179-91.494,46.413-114.406  c-0.017-0.009-0.034-0.017-0.051-0.026c-2.313-1.109-4.685-2.082-7.057-3.055c-0.265-0.077-0.538-0.171-0.794-0.265  c-2.654-1.05-5.299-2.005-8.03-2.893c-3.388-1.135-6.707-2.082-10.189-2.876c-1.527-0.41-2.722-0.674-3.883-0.93l-3.473-0.683  c-1.434-0.316-2.33-0.444-3.226-0.58c-2.517-0.427-4.881-0.751-7.339-1.084c-6.357-0.802-12.902-0.87-19.43-1.203  c-22.135-0.094-43.639,4.548-63.488,13.594c14.234,22.929,46.413,78.703,46.413,114.406v38.741c0,3.746-2.449,7.066-6.042,8.158  c-13.73,4.207-24.329,15.497-27.639,29.483c-0.017,0.375-0.171,1.485-0.23,1.86c-0.162,0.896-0.23,1.809-0.222,2.722  c0.41,9.984,4.395,19.806,11.221,27.435c2.492,2.773,2.884,6.852,0.981,10.061C215.442,300.279,212.635,301.824,209.665,301.824z   M323.892,255.07c0.273,1.749,0.401,3.524,0.384,5.299c-0.256,6.383-1.485,12.621-3.593,18.492  c11.571-4.275,22.673-9.771,33.161-16.41c20.207-12.681,37.129-30.293,48.947-50.961c10.018-17.587,15.326-37.606,15.351-57.882  c-0.102-25.651-8.67-51.038-24.132-71.484c-24.329-31.855-59.452-53.504-98.884-60.928c-2.56-0.512-5.12-1.007-7.586-1.425  c-2.773-0.503-5.495-0.896-8.218-1.22c-7.535-0.99-15.104-1.485-22.622-1.485c-0.06,0-0.119,0-0.179,0  c-57.182,0-108.74,24.277-138.436,64.939c-15.556,20.574-24.132,45.969-24.218,71.629c0.017,20.233,5.333,40.26,15.351,57.873  c11.819,20.651,28.74,38.272,48.913,50.918c10.496,6.665,21.598,12.151,33.178,16.427c-2.099-5.828-3.311-11.981-3.567-18.236  c-0.026-1.988,0.102-3.78,0.367-5.53c0.077-1.195,0.265-2.381,0.563-3.55c4.181-17.655,16.657-32.35,33.195-39.526V179.2  c0-37.197-43.802-105.523-48.794-113.186c-1.306-2.005-1.715-4.463-1.109-6.784c0.597-2.313,2.133-4.275,4.25-5.402  c24.201-12.894,51.439-19.695,78.848-19.695c0.401,0,0.802,0,1.203,0c7.108,0,14.31,0.452,21.376,1.348  c2.722,0.358,5.308,0.717,7.885,1.169c1.186,0.179,2.5,0.393,3.814,0.7l2.628,0.495c0.154,0.026,1.05,0.222,1.203,0.247  c1.442,0.307,2.936,0.649,4.369,1.041c3.49,0.785,7.33,1.869,11.341,3.2c2.842,0.913,5.666,1.946,8.491,3.046  c0.307,0.085,0.606,0.196,0.905,0.316v-0.009c2.978,1.212,5.683,2.321,8.303,3.575c0.213,0.085,0.427,0.179,0.631,0.282v-0.009  c2.833,1.331,5.666,2.671,8.337,4.164c1.562,0.768,2.876,2.005,3.738,3.593c1.493,2.756,1.357,6.101-0.35,8.721  c-4.992,7.663-48.794,75.947-48.794,113.186v32.811c16.538,7.185,29.005,21.879,33.22,39.637  C323.619,252.723,323.807,253.884,323.892,255.07z"/>
<path style="fill:#424242;" d="M281.601,260.267c-2.867,11.998-13.286,20.676-25.6,21.333c-12.314-0.657-22.733-9.335-25.6-21.333  c0-7.066,11.46-12.8,25.6-12.8C270.141,247.467,281.601,253.201,281.601,260.267z"/>
<path d="M256.001,290.133c-0.154,0-0.307,0-0.452-0.009c-15.966-0.862-29.722-12.314-33.442-27.87  c-0.162-0.649-0.239-1.314-0.239-1.988c0-12.365,14.353-21.333,34.133-21.333s34.133,8.969,34.133,21.333  c0,0.674-0.077,1.34-0.23,1.988c-3.738,15.556-17.485,27.017-33.451,27.87C256.308,290.133,256.155,290.133,256.001,290.133z   M239.327,260.361c2.56,7.04,9.114,12.109,16.674,12.689c7.561-0.58,14.114-5.641,16.683-12.689  c-1.843-1.655-7.663-4.361-16.683-4.361C246.981,256,241.162,258.705,239.327,260.361z"/>
<g>
	<path style="fill:#CFD8DC;" d="M230.401,179.2c-0.026,28.271-22.929,51.174-51.2,51.2c-4.318-0.017-8.619-0.555-12.8-1.621   c-27.358-7.04-43.827-34.927-36.787-62.285c4.642-18.048,18.739-32.137,36.787-36.787c4.173-1.135,8.474-1.707,12.8-1.707   C207.472,128.026,230.384,150.929,230.401,179.2z"/>
	<path style="fill:#CFD8DC;" d="M384.001,179.2c-0.026,28.271-22.929,51.174-51.2,51.2c-4.318-0.017-8.619-0.555-12.8-1.621   c-27.358-7.04-43.827-34.927-36.787-62.285c4.642-18.048,18.739-32.137,36.787-36.787c4.173-1.135,8.474-1.707,12.8-1.707   C361.072,128.026,383.984,150.929,384.001,179.2z"/>
</g>
<g>
	<path style="fill:#F4F4F4;" d="M204.801,179.2c-0.051,23.33-15.829,43.691-38.4,49.579c-27.358-7.04-43.827-34.927-36.787-62.285   c4.642-18.048,18.739-32.137,36.787-36.787C188.98,135.535,204.775,155.878,204.801,179.2z"/>
	<path style="fill:#F4F4F4;" d="M358.401,179.2c-0.051,23.33-15.829,43.691-38.4,49.579c-27.358-7.04-43.827-34.927-36.787-62.285   c4.642-18.048,18.739-32.137,36.787-36.787C342.58,135.535,358.375,155.878,358.401,179.2z"/>
</g>
<path d="M179.201,238.933c-32.939,0-59.733-26.795-59.733-59.733s26.795-59.733,59.733-59.733s59.733,26.795,59.733,59.733  S212.14,238.933,179.201,238.933z M179.201,136.533c-23.526,0-42.667,19.14-42.667,42.667s19.14,42.667,42.667,42.667  s42.667-19.14,42.667-42.667S202.727,136.533,179.201,136.533z"/>
<g>
	<circle style="fill:#02A9F4;" cx="179.201" cy="179.2" r="17.067"/>
	<circle style="fill:#02A9F4;" cx="332.801" cy="179.2" r="17.067"/>
</g>
<path d="M179.201,204.8c-14.114,0-25.6-11.486-25.6-25.6c0-14.114,11.486-25.6,25.6-25.6c14.114,0,25.6,11.486,25.6,25.6  C204.801,193.314,193.315,204.8,179.201,204.8z M179.201,170.667c-4.702,0-8.533,3.831-8.533,8.533s3.831,8.533,8.533,8.533  s8.533-3.831,8.533-8.533S183.903,170.667,179.201,170.667z"/>
<path d="M332.81,238.933c-32.93,0-59.733-26.795-59.733-59.733s26.803-59.733,59.733-59.733s59.733,26.795,59.733,59.733  S365.74,238.933,332.81,238.933z M332.81,136.533c-23.526,0-42.667,19.14-42.667,42.667s19.14,42.667,42.667,42.667  s42.667-19.14,42.667-42.667S356.327,136.533,332.81,136.533z"/>
<path d="M332.81,204.8c-14.114,0-25.6-11.486-25.6-25.6c0-14.114,11.486-25.6,25.6-25.6c14.114,0,25.6,11.486,25.6,25.6  C358.41,193.314,346.924,204.8,332.81,204.8z M332.81,170.667c-4.71,0-8.533,3.831-8.533,8.533s3.823,8.533,8.533,8.533  s8.533-3.831,8.533-8.533S337.511,170.667,332.81,170.667z"/>
<path d="M36.242,292.983c-2.987,0-5.717-0.623-8.218-1.877c-9.984-4.966-10.274-16.717-10.274-18.039  c-0.333-4.028-8.175-114.33,35.84-167.569c13.551-17.783,33.203-31.002,55.117-36.932c2.364-0.649,4.89-0.23,6.938,1.118  c1.963,1.297,3.43,3.439,3.831,5.76c0.393,2.321-0.051,4.796-1.476,6.673c-15.471,20.454-24.038,45.85-24.132,71.501  c0.026,20.267,5.333,40.277,15.351,57.882c1.212,2.133,1.451,4.685,0.649,6.997c-8.457,24.533-23.868,45.756-44.57,61.372  C53.71,288.64,44.11,292.983,36.242,292.983z M35.679,275.866c0.043,0.017,4.958,1.254,19.345-9.609  c16.998-12.826,29.884-29.986,37.453-49.818c-10.24-19.311-15.642-40.943-15.667-62.831c-0.009-0.009-0.009-0.026-0.009-0.034  c0.068-20.267,4.77-40.38,13.5-58.598c-8.969,5.547-16.93,12.706-23.347,21.137c-39.825,48.188-32.239,155.23-32.162,156.314  C34.86,274.108,35.329,275.55,35.679,275.866L35.679,275.866z"/>
<path d="M475.769,292.983c-7.868,0-17.468-4.343-29.065-13.107c-20.71-15.625-36.113-36.847-44.57-61.372  c-0.802-2.313-0.563-4.873,0.649-6.997c10.027-17.604,15.334-37.632,15.36-57.907c-0.094-25.626-8.67-51.021-24.132-71.475  c-1.417-1.877-1.997-4.267-1.604-6.579c0.393-2.321,1.732-4.378,3.703-5.683c2.057-1.357,4.847-1.903,7.202-1.289  c21.905,5.931,41.557,19.149,55.313,37.197c43.23,52.292,36.156,160.427,35.627,167.714c-0.077,2.492-0.956,13.005-10.257,17.63  C481.486,292.361,478.755,292.983,475.769,292.983z M419.542,216.439c7.561,19.823,20.446,36.983,37.444,49.818  c14.447,10.914,19.379,9.566,19.405,9.574c0.29-0.282,0.768-1.724,0.802-2.893c0.009-0.128,0.017-0.401,0.026-0.521  c0.085-1.075,7.663-108.126-31.949-156.058c-6.545-8.576-14.558-15.804-23.552-21.376c8.721,18.21,13.414,38.323,13.491,58.581  C435.184,175.497,429.774,197.137,419.542,216.439z"/>
<path d="M358.41,460.8H153.601c-4.71,0-8.533-3.814-8.533-8.533V269.653c0-3.106,1.698-5.982,4.42-7.475  c2.722-1.502,6.059-1.399,8.687,0.273c16.469,10.445,34.466,18.031,53.47,22.545c1.869,0.444,3.533,1.502,4.727,3.012  c17.263,21.862,49.101,25.6,70.955,8.32c3.081-2.432,5.879-5.231,8.32-8.32c1.195-1.51,2.859-2.569,4.727-3.012  c19.012-4.514,37.001-12.1,53.478-22.545c2.628-1.673,5.948-1.775,8.678-0.273c2.731,1.502,4.429,4.369,4.429,7.475v182.613  C366.943,456.986,363.12,460.8,358.41,460.8z M162.134,443.733h187.733V284.467c-13.534,7.159-27.853,12.663-42.761,16.444  c-2.782,3.217-5.871,6.17-9.207,8.806c-28.45,22.46-69.53,18.355-93.013-8.806c-14.908-3.772-29.227-9.284-42.761-16.444v159.266  H162.134z"/>
<path style="fill:#424242;" d="M256.001,452.267v51.2H136.534v-34.133c0.026-9.412,7.654-17.041,17.067-17.067H256.001z"/>
<path style="fill:#9E9E9E;" d="M256.001,477.867v25.6H136.534v-8.533c0.026-9.412,7.654-17.041,17.067-17.067H256.001z"/>
<path style="fill:#4E342E;" d="M136.534,460.8v42.667H68.268V486.4c-0.026-11.042,7.083-20.83,17.579-24.235  c2.569-0.939,5.291-1.399,8.021-1.365H136.534z"/>
<path style="fill:#424242;" d="M256.001,452.267v51.2h119.467v-34.133c-0.026-9.412-7.654-17.041-17.067-17.067H256.001z"/>
<path style="fill:#9E9E9E;" d="M256.001,477.867v25.6h119.467v-8.533c-0.026-9.412-7.654-17.041-17.067-17.067H256.001z"/>
<path style="fill:#4E342E;" d="M375.468,460.8v42.667h68.267V486.4c0.026-11.042-7.083-20.83-17.579-24.235  c-2.569-0.939-5.291-1.399-8.021-1.365H375.468z"/>
<path d="M256.001,512H136.534c-4.71,0-8.533-3.814-8.533-8.533v-34.133c0.043-14.089,11.52-25.566,25.583-25.6h102.417  c4.71,0,8.533,3.814,8.533,8.533v51.2C264.534,508.186,260.711,512,256.001,512z M145.068,494.933h102.4V460.8h-93.867  c-4.676,0.009-8.525,3.849-8.533,8.559V494.933z"/>
<path d="M375.476,512H256.001c-4.71,0-8.533-3.814-8.533-8.533v-51.2c0-4.719,3.823-8.533,8.533-8.533h102.4  c14.071,0.034,25.549,11.511,25.6,25.566c0,0.017,0,0.026,0,0.034v34.133C384.01,508.186,380.187,512,375.476,512z M264.534,494.933  h102.409v-25.591c-0.026-4.702-3.857-8.533-8.559-8.542h-93.85V494.933z"/>
<path d="M256.001,460.8c-4.71,0-8.533-3.814-8.533-8.533v-63.701l-21.803-14.532c-3.917-2.62-4.975-7.91-2.364-11.836  c2.611-3.925,7.91-4.983,11.836-2.364l25.6,17.067c2.372,1.587,3.797,4.25,3.797,7.1v68.267  C264.534,456.986,260.711,460.8,256.001,460.8z"/>
<path d="M256.01,392.533c-2.756,0-5.461-1.331-7.108-3.797c-2.611-3.925-1.553-9.216,2.364-11.836l25.6-17.067  c3.925-2.62,9.216-1.562,11.836,2.364s1.562,9.216-2.364,11.836l-25.6,17.067C259.278,392.064,257.639,392.533,256.01,392.533z"/>
<path d="M170.668,512c-4.71,0-8.533-3.814-8.533-8.533V486.4c0-4.719,3.823-8.533,8.533-8.533s8.533,3.814,8.533,8.533v17.067  C179.201,508.186,175.378,512,170.668,512z"/>
<path d="M204.801,512c-4.71,0-8.533-3.814-8.533-8.533V486.4c0-4.719,3.823-8.533,8.533-8.533s8.533,3.814,8.533,8.533v17.067  C213.334,508.186,209.511,512,204.801,512z"/>
<path d="M307.21,512c-4.719,0-8.533-3.814-8.533-8.533V486.4c0-4.719,3.814-8.533,8.533-8.533c4.719,0,8.533,3.814,8.533,8.533  v17.067C315.743,508.186,311.92,512,307.21,512z"/>
<path d="M341.343,512c-4.719,0-8.533-3.814-8.533-8.533V486.4c0-4.719,3.814-8.533,8.533-8.533s8.533,3.814,8.533,8.533v17.067  C349.876,508.186,346.053,512,341.343,512z"/>
<path style="fill:#4E342E;" d="M153.601,324.267v128c-9.412,0.026-17.041,7.654-17.067,17.067V460.8H93.868  c-2.731-0.034-5.453,0.427-8.021,1.365l-0.512-1.365v-43.008c0-29.781,23.296-56.747,42.667-73.899  C136.022,336.708,144.581,330.146,153.601,324.267z"/>
<path style="fill:#795548;" d="M128.001,343.893v108.373c-9.412,0.026-17.041,7.654-17.067,17.067V460.8h-25.6v-43.008  C85.334,388.011,108.63,361.045,128.001,343.893z"/>
<path style="fill:#4E342E;" d="M358.401,324.267v128c9.412,0.026,17.041,7.654,17.067,17.067V460.8h42.667  c2.731-0.034,5.453,0.427,8.021,1.365l0.512-1.365v-43.008c0-29.781-23.296-56.747-42.667-73.899  C375.98,336.708,367.421,330.146,358.401,324.267z"/>
<path style="fill:#795548;" d="M384.001,343.893v108.373c9.412,0.026,17.041,7.654,17.067,17.067V460.8h25.6v-43.008  C426.668,388.011,403.372,361.045,384.001,343.893z"/>
<path d="M136.534,477.867h-0.009c-4.71-0.009-8.525-3.823-8.525-8.533H93.868c-1.715,0.068-3.49,0.256-5.111,0.862  c-4.42,1.57-9.259-0.649-10.906-5.026l-0.512-1.365c-0.35-0.964-0.538-1.98-0.538-3.004v-43.008  c0-55.134,69.333-98.935,72.294-100.77c2.628-1.63,5.948-1.715,8.653-0.213c2.705,1.502,4.386,4.361,4.386,7.458v128  c0,4.702-3.806,8.516-8.516,8.533c-4.702,0.009-8.542,3.849-8.55,8.559S141.236,477.867,136.534,477.867z M93.868,452.267  c0.034,0,0.068,0,0.102,0h40.61c2.833-3.149,6.426-5.598,10.487-7.049V340.821c-18.782,14.549-51.2,44.382-51.2,76.971V452.267z"/>
<path d="M136.534,512H68.268c-4.71,0-8.533-3.814-8.533-8.533V486.4c-0.026-14.78,9.412-27.793,23.484-32.35  c3.277-1.203,7.04-1.741,10.752-1.783h42.564c4.71,0,8.533,3.814,8.533,8.533v42.667C145.068,508.186,141.245,512,136.534,512z   M76.801,494.933h51.2v-25.6H93.868c-1.715,0.068-3.49,0.256-5.111,0.862c-7.279,2.355-11.964,8.823-11.955,16.188V494.933z"/>
<path d="M375.476,477.867c-4.702,0-8.516-3.797-8.533-8.499c-0.017-4.719-3.857-8.559-8.559-8.567  c-4.702-0.017-8.508-3.831-8.508-8.533v-128c0-3.098,1.681-5.956,4.395-7.458c2.714-1.502,6.025-1.417,8.653,0.213  c2.953,1.835,72.294,45.636,72.294,100.77V460.8c0,1.033-0.179,2.048-0.546,3.021l-0.521,1.365  c-1.655,4.361-6.485,6.579-10.897,5.001c-1.613-0.589-3.285-0.802-5.001-0.853h-34.236c0,4.71-3.806,8.525-8.516,8.533  C375.485,477.867,375.485,477.867,375.476,477.867z M377.422,452.267h40.713v-34.475c0-32.666-32.418-62.464-51.2-76.979v104.405  C370.996,446.669,374.597,449.118,377.422,452.267z"/>
<path d="M443.743,512h-68.267c-4.719,0-8.533-3.814-8.533-8.533V460.8c0-4.719,3.814-8.533,8.533-8.533h42.667  c3.738,0.051,7.373,0.589,10.931,1.886c13.781,4.454,23.228,17.459,23.202,32.265v17.05C452.276,508.186,448.453,512,443.743,512z   M384.01,494.933h51.2V486.4c0-0.009,0-0.009,0-0.017c0.009-7.356-4.685-13.833-11.674-16.102c-1.911-0.683-3.575-0.896-5.291-0.947  H384.01V494.933z"/>
<path d="M60.955,273.067c-4.233,0-7.91-3.149-8.457-7.458c-8.38-66.33,26.359-92.254,27.844-93.329  c3.831-2.756,9.165-1.903,11.913,1.92c2.748,3.797,1.911,9.105-1.869,11.878c-1.263,0.947-27.972,21.837-20.949,77.38  c0.589,4.676-2.722,8.943-7.398,9.54C61.68,273.041,61.313,273.067,60.955,273.067z"/>
<path d="M451.047,273.067c-0.358,0-0.717-0.026-1.075-0.068c-4.676-0.589-7.996-4.855-7.398-9.54  c7.031-55.671-19.806-76.527-20.958-77.389c-3.738-2.807-4.557-8.141-1.783-11.913c2.773-3.763,8.03-4.625,11.844-1.877  c1.485,1.067,36.215,26.999,27.836,93.321C458.966,269.918,455.289,273.067,451.047,273.067z"/>
<g>
</g>
<g>
</g>
<g>
</g>
<g>
</g>
<g>
</g>
<g>
</g>
<g>
</g>
<g>
</g>
<g>
</g>
<g>
</g>
<g>
</g>
<g>
</g>
<g>
</g>
<g>
</g>
<g>
</g>
</svg>
