<svg id="Layer_3" height="512" viewBox="0 0 64 64" width="512" xmlns="http://www.w3.org/2000/svg" data-name="Layer 3"><path d="m59.978 62h-55.956a2.007 2.007 0 0 1 -2-2.3l5.718-37.7h48.52l5.717 37.7a2.007 2.007 0 0 1 -1.999 2.3z" fill="#976949"/><path d="m12 22v26a4 4 0 0 0 4 4h32a4 4 0 0 0 4-4v-26z" fill="#c7e2fb"/><path d="m56.26 22h-42.26v3.366a32.634 32.634 0 0 0 32.634 32.634h15.085z" fill="#c18e5c"/><path d="m27.788 52h20.212a4 4 0 0 0 4-4v-26h-38v3.366a32.585 32.585 0 0 0 13.788 26.634z" fill="#ebf7fe"/><path d="m26 26h12v4h-12z" fill="#c18e5c"/><g fill="#976949"><path d="m44 29v-11a12 12 0 0 0 -12-12 12 12 0 0 0 -12 12v11a2 2 0 0 1 -2 2 2 2 0 0 1 -2-2v-11a16 16 0 0 1 16-16 16 16 0 0 1 16 16v11a2 2 0 0 1 -2 2 2 2 0 0 1 -2-2z"/><path d="m29 30v3a3 3 0 0 0 6 0v-3z"/><path d="m29 18h6v8h-6z"/></g><path d="m16 29a2 2 0 0 0 4 0v-2h-4z" fill="#f5b95b"/><path d="m18.5 30.929a2 2 0 0 0 1.5-1.929v-2h-3v2a2 2 0 0 0 1.5 1.929z" fill="#f9d18f"/><path d="m44 29a2 2 0 0 0 4 0v-2h-4z" fill="#f5b95b"/><path d="m46.5 30.929a2 2 0 0 0 1.5-1.929v-2h-3v2a2 2 0 0 0 1.5 1.929z" fill="#f9d18f"/><path d="m62.966 59.553-5.717-37.7a1 1 0 0 0 -.989-.853h-7.26v-3a17 17 0 0 0 -34 0v3h-7.26a1 1 0 0 0 -.989.85l-5.717 37.7a2.983 2.983 0 0 0 .69 2.394 3.025 3.025 0 0 0 2.298 1.056h55.956a3.025 3.025 0 0 0 2.3-1.053 2.983 2.983 0 0 0 .688-2.394zm-32.966-28.553h4v2a2 2 0 0 1 -4 0zm-3-2v-2h10v2zm3-4v-6h4v6zm5-8h-6a1 1 0 0 0 -1 1v3h-7v-3a11 11 0 0 1 22 0v3h-7v-3a1 1 0 0 0 -1-1zm10 11h2v1a1 1 0 0 1 -2 0zm-13-25a15.017 15.017 0 0 1 15 15v8h-2v-8a13 13 0 0 0 -26 0v8h-2v-8a15.017 15.017 0 0 1 15-15zm-15 25h2v1a1 1 0 0 1 -2 0zm1 4a3 3 0 0 0 3-3v-6h7v2h-2a1 1 0 0 0 -1 1v4a1 1 0 0 0 1 1h2v2a4 4 0 0 0 8 0v-2h2a1 1 0 0 0 1-1v-4a1 1 0 0 0 -1-1h-2v-2h7v6a3 3 0 0 0 6 0v-6h2v25a3 3 0 0 1 -3 3h-32a3 3 0 0 1 -3-3v-25h2v6a3 3 0 0 0 3 3zm42.76 28.644a1.031 1.031 0 0 1 -.782.356h-55.956a1.031 1.031 0 0 1 -.782-.356.971.971 0 0 1 -.228-.79l5.588-36.854h2.4v25a5.006 5.006 0 0 0 5 5h32a5.006 5.006 0 0 0 5-5v-25h2.4l5.588 36.854a.971.971 0 0 1 -.228.79z"/></svg>