<svg id="Layer_1" enable-background="new 0 0 512.053 512.053" height="512" viewBox="0 0 512.053 512.053" width="512" xmlns="http://www.w3.org/2000/svg"><g><g><path d="m120.624 391.446c-25.879-25.879-67.837-25.879-93.715 0-25.879 25.879-25.879 67.837 0 93.715 25.879 25.879 67.837 25.879 93.715 0 25.879-25.878 25.879-67.836 0-93.715zm-23.87 70.14c-12.858 12.858-33.705 12.858-46.563 0s-12.858-33.705 0-46.563 33.705-12.858 46.563 0 12.858 33.705 0 46.563z" fill="#8ec6f6"/><path d="m82.818 322.293h180.785v33.133h-180.785z" fill="#f9f6f6" transform="matrix(.707 -.707 .707 .707 -188.878 221.728)"/><path d="m120.624 391.446c-15.877-15.877-37.803-21.995-58.358-18.391 12.949 2.27 25.356 8.389 35.358 18.391 25.879 25.879 25.879 67.837 0 93.715-10.002 10.002-22.409 16.121-35.358 18.391 20.555 3.604 42.481-2.515 58.358-18.391 25.879-25.878 25.879-67.836 0-93.715z" fill="#779fd5"/><path d="m235.327 218.171-26.357 26.357c-6.47 6.47-6.47 16.959 0 23.429l35.143 35.143c6.47 6.47 16.959 6.47 23.429 0l26.357-26.357z" fill="#f4d844"/><path d="m481.647 236.058c33.432-53.059 30.183-122.604-9.746-172.459l-23.41-23.414c-49.856-39.944-119.413-43.197-172.479-9.76l89.816 119.404z" fill="#e9a6c5"/><path d="m434.789 282.916c-57.605 36.298-134.643 29.359-184.818-20.816-50.174-50.174-57.113-127.211-20.818-184.815l146.847 68.957z" fill="#b9e4ef"/><path d="m429.252 270.045c-23.327 19.944-52.883 32.815-85.346 35.289 3.793.289 7.626.437 11.494.437 29.178 0 56.393-8.389 79.38-22.875z" fill="#93d8e4"/><path d="m481.647 236.058c33.432-53.059 30.183-122.604-9.746-172.459l-23.41-23.414c-49.856-39.944-119.413-43.197-172.479-9.76l89.816 119.404z" fill="#e9a6c5"/><path d="m481.513 156.671c0 24.233-5.787 47.112-16.046 67.341l16.162 12.033c14.484-22.986 22.872-50.198 22.872-79.373 0-82.346-66.754-149.1-149.1-149.1-3.867 0-7.7.148-11.494.437 76.974 5.867 137.606 70.184 137.606 148.662z" fill="#e07fa6"/><path d="m437.802 285.93-211.661-211.661c-6.248-6.248-6.248-16.379 0-22.627l24.23-24.23c6.248-6.248 16.379-6.248 22.627 0l211.661 211.661c6.248 6.248 6.248 16.379 0 22.627l-24.23 24.23c-6.248 6.248-16.379 6.248-22.627 0z" fill="#f9f6f6"/><path d="m484.659 239.072-211.66-211.66c-6.248-6.248-16.379-6.248-22.627 0l-.144.145 211.516 211.516c6.248 6.248 6.248 16.379 0 22.627l-24.086 24.086.144.144c6.248 6.248 16.379 6.248 22.627 0l24.23-24.23c6.249-6.249 6.249-16.379 0-22.628z" fill="#ecdaec"/><circle cx="460.83" cy="51.241" fill="#f4d844" r="16.567"/></g><g><path d="m44.887 409.719c-15.761 15.762-15.761 41.408.001 57.17 7.881 7.881 18.232 11.821 28.585 11.821 10.352 0 20.703-3.94 28.584-11.821h.001c7.635-7.635 11.84-17.787 11.84-28.585s-4.205-20.95-11.841-28.585c-15.762-15.762-41.409-15.76-57.17 0zm46.564 46.564c-9.914 9.913-26.043 9.914-35.957 0-9.913-9.914-9.913-26.044-.001-35.957 4.957-4.957 11.468-7.435 17.979-7.435 6.512 0 13.022 2.478 17.979 7.435 4.802 4.802 7.446 11.187 7.446 17.979 0 6.79-2.644 13.175-7.446 17.978z"/><path d="m310.918 101.581c-2.929-2.928-7.678-2.929-10.607 0-2.93 2.929-2.93 7.678-.001 10.607l5.857 5.857c1.465 1.464 3.384 2.197 5.304 2.197 1.919 0 3.839-.732 5.303-2.196 2.93-2.929 2.93-7.678.001-10.607z"/><path d="m404.633 195.296c-2.93-2.929-7.678-2.929-10.607 0s-2.929 7.678 0 10.606l5.857 5.857c1.465 1.464 3.385 2.197 5.304 2.197s3.839-.732 5.304-2.197c2.929-2.929 2.929-7.678 0-10.607z"/><path d="m451.489 242.154c-2.928-2.929-7.677-2.928-10.606.001s-2.929 7.678.001 10.607l5.857 5.857c1.464 1.464 3.384 2.196 5.303 2.196s3.839-.733 5.304-2.197c2.929-2.929 2.929-7.678-.001-10.607z"/><path d="m357.775 148.439c-2.93-2.929-7.679-2.93-10.606-.001-2.93 2.929-2.93 7.677-.001 10.606l5.856 5.857c1.465 1.465 3.384 2.197 5.304 2.197 1.919 0 3.839-.732 5.303-2.196 2.93-2.929 2.93-7.677.001-10.606z"/><path d="m264.06 54.724c-2.93-2.929-7.678-2.929-10.607 0s-2.929 7.678 0 10.607l5.857 5.857c1.465 1.464 3.385 2.197 5.304 2.197s3.839-.732 5.304-2.197c2.929-2.929 2.929-7.678 0-10.606z"/><path d="m481.433 63.693c2.256-3.718 3.464-7.991 3.464-12.451 0-6.428-2.504-12.472-7.049-17.018-4.546-4.546-10.59-7.049-17.018-7.049-4.46 0-8.733 1.207-12.451 3.463-50.012-36.995-117.405-40.789-171.269-9.634-4.278-3.734-9.693-5.779-15.426-5.779-6.277 0-12.179 2.445-16.617 6.883l-24.23 24.231c-8.775 8.775-9.122 22.807-1.089 32.028-16.446 28.492-23.564 61.954-20.071 94.902 2.001 18.879 7.469 37.184 15.958 53.988l-11.969 11.969c-9.383 9.383-9.383 24.652 0 34.035l.554.554-98.176 98.176c-27.501-13.355-61.635-8.651-84.438 14.152-13.933 13.933-21.606 32.457-21.606 52.161s7.673 38.228 21.605 52.161c14.381 14.381 33.271 21.571 52.161 21.571s37.78-7.19 52.161-21.571c13.933-13.933 21.606-32.457 21.606-52.161 0-11.384-2.576-22.367-7.426-32.305l98.148-98.148.553.553c4.692 4.692 10.854 7.038 17.018 7.038 6.162 0 12.326-2.346 17.017-7.038l11.968-11.968c16.804 8.489 35.111 13.957 53.99 15.958 5.482.581 10.973.868 16.456.868 27.476 0 54.677-7.227 78.425-20.93 4.279 3.738 9.696 5.784 15.432 5.784 6.277 0 12.179-2.445 16.617-6.883l24.23-24.23c8.773-8.774 9.121-22.803 1.093-32.024 31.167-53.865 27.377-121.269-9.621-171.286zm-14.193-18.863c3.535 3.535 3.535 9.287 0 12.822-3.535 3.534-9.286 3.536-12.821 0-1.713-1.712-2.656-3.989-2.656-6.411s.943-4.699 2.656-6.411c1.768-1.768 4.089-2.651 6.41-2.651 2.322 0 4.644.883 6.411 2.651zm-28.656-2.758c-3.579 8.715-1.84 19.12 5.227 26.187 4.546 4.546 10.59 7.049 17.019 7.049 3.201 0 6.306-.622 9.179-1.806 32.035 44.016 35.859 102.61 10.052 150.366l-191.858-191.859c47.763-25.809 106.361-21.982 150.381 10.063zm-323.264 437.786c-22.912 22.913-60.195 22.913-83.107 0-11.1-11.099-17.213-25.857-17.213-41.554s6.113-30.455 17.213-41.555c11.457-11.457 26.503-17.185 41.554-17.185 15.047 0 30.099 5.73 41.554 17.185 11.1 11.1 17.213 25.857 17.213 41.555-.001 15.697-6.114 30.455-17.214 41.554zm16.615-86.901c-1.855-2.369-3.846-4.653-6.008-6.814-2.172-2.172-4.457-4.159-6.819-6.003l95.719-95.719 12.822 12.822zm130.303-95.16c-3.535 3.536-9.286 3.535-12.821 0l-35.144-35.143c-3.535-3.535-3.535-9.287 0-12.822l9.057-9.057c6.095 9.581 13.236 18.527 21.337 26.628s17.048 15.242 26.628 21.337zm-6.964-41c-44.838-44.837-54.352-112.42-24.558-167.345l191.902 191.901c-54.924 29.794-122.507 20.281-167.344-24.556zm224.081-.401-24.23 24.23c-1.605 1.605-3.739 2.49-6.01 2.49s-4.404-.884-6.01-2.49l-2.901-2.901c-.005-.005-.01-.01-.015-.015l-208.745-208.744c-3.314-3.314-3.314-8.707 0-12.021l24.23-24.231c1.605-1.605 3.739-2.49 6.01-2.49s4.404.884 6.01 2.49l211.661 211.661c3.315 3.314 3.315 8.707 0 12.021z"/></g></g></svg>