<?xml version="1.0" encoding="iso-8859-1"?>
<!-- Generator: Adobe Illustrator 19.0.0, SVG Export Plug-In . SVG Version: 6.00 Build 0)  -->
<svg xmlns="http://www.w3.org/2000/svg" xmlns:xlink="http://www.w3.org/1999/xlink" version="1.1" id="Layer_1" x="0px" y="0px" viewBox="0 0 512 512" style="enable-background:new 0 0 512 512;" xml:space="preserve">
<path style="fill:#D84315;" d="M503.467,294.4v85.333c-0.051,18.825-15.309,34.082-34.133,34.133H460.8  c0-3.652-0.256-7.305-0.768-10.923c5.99-6.246,9.318-14.558,9.301-23.211V294.4c0.009-37.692-30.541-68.258-68.233-68.267  c-0.009,0-0.026,0-0.034,0H435.2c37.692-0.009,68.258,30.541,68.267,68.233C503.467,294.374,503.467,294.391,503.467,294.4z"/>
<path style="fill:#FF5722;" d="M469.333,294.4v85.333c0.017,8.653-3.319,16.964-9.301,23.211  c-5.436-37.811-37.837-65.877-76.032-65.877c-5.743,0.009-11.46,0.64-17.067,1.877c-34.944,7.987-59.725,39.074-59.733,74.923H204.8  c0-42.411-34.389-76.8-76.8-76.8c-5.743,0.009-11.46,0.64-17.067,1.877c-34.944,7.987-59.725,39.074-59.733,74.923h-8.533  c-9.446,0.026-18.466-3.942-24.832-10.923c-5.982-6.246-9.318-14.558-9.301-23.211V294.4c-0.009-37.692,30.541-68.258,68.233-68.267  c0.009,0,0.026,0,0.034,0h324.267c37.692-0.009,68.258,30.541,68.267,68.233C469.333,294.374,469.333,294.391,469.333,294.4z"/>
<path style="fill:#FDD834;" d="M503.467,294.4v8.533H8.533V294.4c-0.026-8.772,1.655-17.468,4.949-25.6  c0.171-0.341,0.256-0.683,0.427-1.024l3.157,1.024h477.867l3.157-1.024C501.658,276.198,503.492,285.252,503.467,294.4z"/>
<path style="fill:#FFEB3A;" d="M469.333,294.4v8.533H8.533V294.4c-0.026-8.772,1.655-17.468,4.949-25.6H460.8l3.157-1.024  c0.171,0.341,0.256,0.683,0.427,1.024C467.678,276.932,469.359,285.628,469.333,294.4z"/>
<path d="M469.359,422.4H460.8c-4.719,0-8.533-3.814-8.533-8.533c0-37.641-30.626-68.267-68.267-68.267s-68.267,30.626-68.267,68.267  c0,4.719-3.814,8.533-8.533,8.533H204.8c-4.71,0-8.533-3.814-8.533-8.533c0-37.641-30.626-68.267-68.267-68.267  s-68.267,30.626-68.267,68.267c0,4.719-3.823,8.533-8.533,8.533h-8.533C19.2,422.323,0.068,403.2,0,379.759V294.4  c0-42.342,34.458-76.8,76.8-76.8h358.4c42.351,0,76.8,34.458,76.8,76.8v85.333C511.923,403.2,492.8,422.323,469.359,422.4z   M468.907,405.333h0.427c14.054-0.043,25.557-11.546,25.6-25.626V294.4c0-32.93-26.803-59.733-59.733-59.733H76.8  c-32.939,0-59.733,26.803-59.733,59.733v85.333c0.043,14.054,11.537,25.557,25.626,25.6h0.401c4.292-43.059,40.738-76.8,84.907-76.8  s80.614,33.741,84.907,76.8h86.187c4.292-43.059,40.73-76.8,84.907-76.8S464.614,362.274,468.907,405.333z"/>
<g>
	<path style="fill:#37474F;" d="M460.8,413.867c0,42.411-34.389,76.8-76.8,76.8c-5.743-0.009-11.46-0.64-17.067-1.877   c-41.378-9.455-67.26-50.662-57.805-92.041c6.571-28.766,29.039-51.226,57.805-57.805c5.606-1.237,11.324-1.869,17.067-1.877   C426.411,337.067,460.8,371.456,460.8,413.867z"/>
	<path style="fill:#37474F;" d="M204.8,413.867c0,42.411-34.389,76.8-76.8,76.8c-5.743-0.009-11.46-0.64-17.067-1.877   c-41.378-9.455-67.26-50.662-57.805-92.041c6.579-28.766,29.039-51.234,57.805-57.805c5.606-1.237,11.324-1.869,17.067-1.877   C170.411,337.067,204.8,371.456,204.8,413.867z"/>
</g>
<g>
	<path style="fill:#607D8B;" d="M426.667,413.867c-0.009,35.849-24.789,66.935-59.733,74.923   c-41.378-9.455-67.26-50.662-57.805-92.041c6.571-28.766,29.039-51.226,57.805-57.805   C401.877,346.931,426.658,378.018,426.667,413.867z"/>
	<path style="fill:#607D8B;" d="M170.667,413.867c-0.009,35.849-24.789,66.935-59.733,74.923   c-41.378-9.455-67.26-50.662-57.805-92.041c6.579-28.766,29.039-51.234,57.805-57.805   C145.877,346.931,170.658,378.018,170.667,413.867z"/>
</g>
<path d="M384,499.2c-47.053,0-85.333-38.281-85.333-85.333s38.281-85.333,85.333-85.333s85.333,38.281,85.333,85.333  S431.053,499.2,384,499.2z M384,345.6c-37.641,0-68.267,30.626-68.267,68.267s30.626,68.267,68.267,68.267  s68.267-30.626,68.267-68.267S421.641,345.6,384,345.6z"/>
<g>
	<circle style="fill:#9E9E9E;" cx="384" cy="413.867" r="42.667"/>
	<circle style="fill:#9E9E9E;" cx="128" cy="413.867" r="42.667"/>
</g>
<path d="M384,465.067c-28.237,0-51.2-22.963-51.2-51.2s22.963-51.2,51.2-51.2s51.2,22.963,51.2,51.2S412.237,465.067,384,465.067z   M384,379.733c-18.825,0-34.133,15.309-34.133,34.133C349.867,432.691,365.175,448,384,448c18.825,0,34.133-15.309,34.133-34.133  C418.133,395.042,402.825,379.733,384,379.733z"/>
<path d="M128,499.2c-47.053,0-85.333-38.281-85.333-85.333S80.947,328.533,128,328.533s85.333,38.281,85.333,85.333  S175.053,499.2,128,499.2z M128,345.6c-37.641,0-68.267,30.626-68.267,68.267S90.359,482.133,128,482.133  s68.267-30.626,68.267-68.267S165.641,345.6,128,345.6z"/>
<path d="M128,465.067c-28.237,0-51.2-22.963-51.2-51.2s22.963-51.2,51.2-51.2s51.2,22.963,51.2,51.2S156.237,465.067,128,465.067z   M128,379.733c-18.825,0-34.133,15.309-34.133,34.133C93.867,432.691,109.175,448,128,448c18.825,0,34.133-15.309,34.133-34.133  C162.133,395.042,146.825,379.733,128,379.733z"/>
<path d="M503.467,311.467H8.533c-4.71,0-8.533-3.814-8.533-8.533s3.823-8.533,8.533-8.533h494.933c4.719,0,8.533,3.814,8.533,8.533  S508.186,311.467,503.467,311.467z"/>
<path d="M494.933,277.333H17.067c-4.71,0-8.533-3.814-8.533-8.533c0-4.719,3.823-8.533,8.533-8.533h477.867  c4.719,0,8.533,3.814,8.533,8.533S499.652,277.333,494.933,277.333z"/>
<path d="M384,422.4c-2.219,0-4.446-0.939-6.059-2.475c-1.545-1.621-2.475-3.84-2.475-6.059c0-2.219,0.93-4.446,2.475-6.059  c3.157-3.157,8.96-3.157,12.117,0c1.536,1.613,2.475,3.84,2.475,6.059c0,2.219-0.939,4.437-2.475,6.059  C388.437,421.461,386.219,422.4,384,422.4z"/>
<path d="M128,422.4c-2.304,0-4.437-0.939-6.059-2.56c-1.536-1.536-2.475-3.755-2.475-5.973c0-2.219,0.939-4.446,2.475-6.059  c3.157-3.157,8.96-3.157,12.117,0c1.536,1.613,2.475,3.84,2.475,6.059c0,2.219-0.939,4.437-2.475,6.059  C132.437,421.461,130.304,422.4,128,422.4z"/>
<g>
	<rect x="341.333" y="98.133" style="fill:#37474F;" width="34.133" height="93.867"/>
	<path style="fill:#37474F;" d="M401.067,226.133h-85.333l0,0v-17.067c0-9.429,7.637-17.067,17.067-17.067H384   c9.429,0,17.067,7.637,17.067,17.067V226.133L401.067,226.133z"/>
	<path style="fill:#37474F;" d="M375.467,38.4V64h-34.133V38.4c0-9.429,7.637-17.067,17.067-17.067S375.467,28.971,375.467,38.4z"/>
</g>
<g>
	<rect x="341.333" y="98.133" style="fill:#607D8B;" width="17.067" height="93.867"/>
	<path style="fill:#607D8B;" d="M384,226.133h-68.267l0,0v-17.067c0-9.429,7.637-17.067,17.067-17.067h34.133   c9.429,0,17.067,7.637,17.067,17.067V226.133L384,226.133z"/>
	<path style="fill:#607D8B;" d="M358.4,38.4V64h-17.067V38.4c0-6.093,3.251-11.725,8.533-14.763   C355.149,26.675,358.4,32.307,358.4,38.4z"/>
</g>
<path d="M375.467,200.533h-34.133c-4.719,0-8.533-3.823-8.533-8.533V98.133c0-4.71,3.814-8.533,8.533-8.533h34.133  c4.719,0,8.533,3.823,8.533,8.533V192C384,196.71,380.186,200.533,375.467,200.533z M349.867,183.467h17.067v-76.8h-17.067V183.467z  "/>
<path d="M401.067,234.667h-85.333c-4.719,0-8.533-3.823-8.533-8.533v-17.067c0-14.114,11.486-25.6,25.6-25.6H384  c14.114,0,25.6,11.486,25.6,25.6v17.067C409.6,230.844,405.786,234.667,401.067,234.667z M324.267,217.6h68.267v-8.533  c0-4.702-3.823-8.533-8.533-8.533h-51.2c-4.71,0-8.533,3.831-8.533,8.533V217.6z"/>
<path style="fill:#FDD834;" d="M418.133,98.133H298.667c-9.429,0-17.067-7.637-17.067-17.067l0,0  c0-9.429,7.637-17.067,17.067-17.067h119.467c9.429,0,17.067,7.637,17.067,17.067l0,0C435.2,90.496,427.563,98.133,418.133,98.133z"/>
<path style="fill:#FFEB3A;" d="M384,98.133h-85.333c-9.429,0-17.067-7.637-17.067-17.067l0,0c0-9.429,7.637-17.067,17.067-17.067  H384c9.429,0,17.067,7.637,17.067,17.067l0,0C401.067,90.496,393.429,98.133,384,98.133z"/>
<path d="M418.133,106.667H298.667c-14.114,0-25.6-11.486-25.6-25.6s11.486-25.6,25.6-25.6h119.467c14.114,0,25.6,11.486,25.6,25.6  S432.247,106.667,418.133,106.667z M298.667,72.533c-4.71,0-8.533,3.831-8.533,8.533c0,4.702,3.823,8.533,8.533,8.533h119.467  c4.71,0,8.533-3.831,8.533-8.533c0-4.702-3.823-8.533-8.533-8.533H298.667z"/>
<path d="M375.467,72.533h-34.133c-4.719,0-8.533-3.823-8.533-8.533V38.4c0-14.114,11.486-25.6,25.6-25.6S384,24.286,384,38.4V64  C384,68.71,380.186,72.533,375.467,72.533z M349.867,55.467h17.067V38.4c0-4.702-3.823-8.533-8.533-8.533s-8.533,3.831-8.533,8.533  V55.467z"/>
<path style="fill:#FDD834;" d="M238.933,209.067v17.067h-153.6v-73.728c0.017-6.426,5.231-11.622,11.657-11.605  c3.439,0.009,6.699,1.536,8.909,4.181l34.048,40.875c3.234,3.917,8.064,6.17,13.141,6.144h68.779  C231.279,192.026,238.908,199.654,238.933,209.067z"/>
<path style="fill:#FFEB3A;" d="M204.8,209.067v17.067H85.333V161.28l20.48,24.576c3.234,3.917,8.064,6.17,13.141,6.144h68.779  C197.146,192.026,204.774,199.654,204.8,209.067z"/>
<path d="M238.933,234.667h-153.6c-4.71,0-8.533-3.823-8.533-8.533v-73.728c0-11.102,9.037-20.139,20.139-20.139  c6.025,0,11.665,2.645,15.497,7.245l34.065,40.883c1.63,1.954,4.019,3.072,6.554,3.072h68.813c14.114,0,25.6,11.486,25.6,25.6  v17.067C247.467,230.844,243.644,234.667,238.933,234.667z M93.867,217.6H230.4v-8.533c0-4.702-3.831-8.533-8.533-8.533h-68.804  c-7.62,0-14.788-3.362-19.669-9.216l-34.065-40.883l0,0c-1.69-2.014-5.461-0.623-5.461,1.971V217.6z"/>
<path d="M290.133,362.667c-2.185,0-4.369-0.836-6.033-2.5L267.034,343.1c-3.337-3.337-3.337-8.73,0-12.066  c3.337-3.337,8.73-3.337,12.066,0l17.067,17.067c3.337,3.337,3.337,8.73,0,12.066C294.502,361.83,292.318,362.667,290.133,362.667z"/>
<path d="M281.6,396.8c-2.185,0-4.369-0.836-6.033-2.5l-51.2-51.2c-3.337-3.337-3.337-8.73,0-12.066c3.337-3.337,8.73-3.337,12.066,0  l51.2,51.2c3.337,3.337,3.337,8.73,0,12.066C285.969,395.964,283.785,396.8,281.6,396.8z"/>
<g>
</g>
<g>
</g>
<g>
</g>
<g>
</g>
<g>
</g>
<g>
</g>
<g>
</g>
<g>
</g>
<g>
</g>
<g>
</g>
<g>
</g>
<g>
</g>
<g>
</g>
<g>
</g>
<g>
</g>
</svg>
