<svg id="Filled" height="512" viewBox="0 0 512 512" width="512" xmlns="http://www.w3.org/2000/svg"><g fill="#e74444"><circle cx="336" cy="40" r="16"/><path d="m344 120h-32l-16-16 16-16h32z"/><circle cx="176" cy="40" r="16"/><path d="m200 120h-32v-32h32l16 16z"/><path d="m280 56-24 16-24-16 8-32h32z"/></g><path d="m200 56h112v112h-112z" fill="#cfd1d3"/><path d="m232 120h48v32h-48z" fill="#e8edf1"/><path d="m272 296h64v160h-64z" fill="#d9dbdd"/><path d="m128 152h256v160h-256z" fill="#d9dbdd"/><path d="m176 184h48l-24 32z" fill="#fde575"/><path d="m288 184h48l-24 32z" fill="#fde575"/><path d="m176 296h64v160h-64z" fill="#d9dbdd"/><path d="m176 312h160v32h-160z" fill="#cfd1d3"/><path d="m240 456h-64v-56q32-16 64 0z" fill="#3385c8"/><path d="m176 440h64a16 16 0 0 1 16 16v32a0 0 0 0 1 0 0h-96a0 0 0 0 1 0 0v-32a16 16 0 0 1 16-16z" fill="#3a98e4"/><path d="m336 456h-64v-56q32-16 64 0z" fill="#3385c8"/><path d="m272 440h64a16 16 0 0 1 16 16v32a0 0 0 0 1 0 0h-96a0 0 0 0 1 0 0v-32a16 16 0 0 1 16-16z" fill="#3a98e4"/><path d="m368 152h32a16 16 0 0 1 16 16v168a0 0 0 0 1 0 0h-48a0 0 0 0 1 0 0v-184a0 0 0 0 1 0 0z" fill="#cfd1d3"/><path d="m112 152h32a0 0 0 0 1 0 0v184a0 0 0 0 1 0 0h-48a0 0 0 0 1 0 0v-168a16 16 0 0 1 16-16z" fill="#cfd1d3"/><path d="m368 336v40h32v-24h32v24h32v-40a16 16 0 0 0 -16-16h-64a16 16 0 0 0 -16 16z" fill="#d9dbdd"/><path d="m48 336v40h32v-24h32v24h32v-40a16 16 0 0 0 -16-16h-64a16 16 0 0 0 -16 16z" fill="#d9dbdd"/><path d="m176 248h48v32h-48z" fill="#3ba673"/><path d="m288 248h48v32h-48z" fill="#3ba673"/><path d="m112 144a24.028 24.028 0 0 0 -24 24v144h-24a24.027 24.027 0 0 0 -24 24v40a8 8 0 0 0 8 8h32a8 8 0 0 0 8-8v-16h16v16a8 8 0 0 0 8 8h32a8 8 0 0 0 8-8v-56h16v113.376a24.039 24.039 0 0 0 -16 22.624v32a8 8 0 0 0 8 8h192a8 8 0 0 0 8-8v-32a24.039 24.039 0 0 0 -16-22.624v-113.376h16v56a8 8 0 0 0 8 8h32a8 8 0 0 0 8-8v-16h16v16a8 8 0 0 0 8 8h32a8 8 0 0 0 8-8v-40a24.027 24.027 0 0 0 -24-24h-24v-144a24.028 24.028 0 0 0 -24-24h-80v-16h24a8 8 0 0 0 8-8v-57.376a24 24 0 1 0 -16 0v17.376h-16v-24a8 8 0 0 0 -8-8h-25.754l-6.485-25.94a8 8 0 0 0 -7.761-6.06h-32a8 8 0 0 0 -7.761 6.06l-6.485 25.94h-25.754a8 8 0 0 0 -8 8v24h-16v-17.376a24 24 0 1 0 -16 0v57.376a8 8 0 0 0 8 8h24v16zm-8 24a8.009 8.009 0 0 1 8-8h24v153.376a23.885 23.885 0 0 0 -8-1.376h-24zm32 200h-16v-16a8 8 0 0 0 -8-8h-32a8 8 0 0 0 -8 8v16h-16v-32a8.009 8.009 0 0 1 8-8h64a8.009 8.009 0 0 1 8 8zm16-208h96v144h-96zm120-16h-32v-16h32zm8 288v-26.869c16.107-6.836 31.893-6.836 48 0v26.869zm48-43.984a73.678 73.678 0 0 0 -48 0v-36.016h48zm-64 45.36a24.015 24.015 0 0 0 -8 4.755 24.015 24.015 0 0 0 -8-4.755v-81.376h16zm-80-28.245c16.107-6.836 31.893-6.836 48 0v26.869h-48zm48-17.115a73.678 73.678 0 0 0 -48 0v-36.016h48zm-64 67.984a8.009 8.009 0 0 1 8-8h64a8.009 8.009 0 0 1 8 8v24h-80zm176 24h-80v-24a8.009 8.009 0 0 1 8-8h64a8.009 8.009 0 0 1 8 8zm-16-144h-144v-16h144zm-64-32v-144h96v144zm192 32v32h-16v-16a8 8 0 0 0 -8-8h-32a8 8 0 0 0 -8 8v16h-16v-32a8.009 8.009 0 0 1 8-8h64a8.009 8.009 0 0 1 8 8zm-56-176a8.009 8.009 0 0 1 8 8v144h-24a23.885 23.885 0 0 0 -8 1.376v-153.376zm-56-128a8 8 0 1 1 -8 8 8.009 8.009 0 0 1 8-8zm-8 64v16h-16v-16zm-89.754-64h19.508l4 16h-27.508zm-78.246 0a8 8 0 1 1 -8 8 8.009 8.009 0 0 1 8-8zm8 80v-16h16v16zm32 8v-56h96v80h-16v-24a8 8 0 0 0 -8-8h-48a8 8 0 0 0 -8 8v24h-16z"/><circle cx="232" cy="88" r="8"/><circle cx="280" cy="88" r="8"/><path d="m193.6 220.8a8 8 0 0 0 12.8 0l24-32a8 8 0 0 0 -6.4-12.8h-48a8 8 0 0 0 -6.4 12.8zm14.4-28.8-8 10.667-8-10.667z"/><path d="m305.6 220.8a8 8 0 0 0 12.8 0l24-32a8 8 0 0 0 -6.4-12.8h-48a8 8 0 0 0 -6.4 12.8zm14.4-28.8-8 10.667-8-10.667z"/><path d="m224 288a8 8 0 0 0 8-8v-32a8 8 0 0 0 -8-8h-48a8 8 0 0 0 -8 8v32a8 8 0 0 0 8 8zm-40-32h32v16h-32z"/><path d="m336 240h-48a8 8 0 0 0 -8 8v32a8 8 0 0 0 8 8h48a8 8 0 0 0 8-8v-32a8 8 0 0 0 -8-8zm-8 32h-32v-16h32z"/></svg>