<svg id="Layer_1" enable-background="new 0 0 512 512" height="512" viewBox="0 0 512 512" width="512" xmlns="http://www.w3.org/2000/svg"><g><g><path d="m438.283 234.214c14.55 18.83 25.148 50.345 19.151 103.079-.796 7.004 6.954 11.747 12.82 7.837l26.817-17.878c4.72-3.147 7.504-8.497 7.377-14.168-2.544-113.625-52.496-134.499-85.973-135.628l-13.327 32.211z" fill="#365e7d"/><path d="m418.474 177.456-1.498 3.619c30.024 9.539 62.434 41.058 64.471 132.009.127 5.671-2.657 11.022-7.377 14.168l-16.68 11.12c.068 6.395 7.306 10.463 12.863 6.758l26.817-17.878c4.72-3.147 7.504-8.497 7.377-14.168-2.544-113.625-52.496-134.499-85.973-135.628z" fill="#2b4d66"/><path d="m438.282 231.15c0-45.748-37.086-82.833-82.833-82.833h-8.283l-149.1 52.183v-60.467c-.001-73.196-59.338-132.533-132.534-132.533h-57.984c0 16.818 12.53 30.709 28.765 32.848 2.323.306 3.934 2.459 3.474 4.757l-29.37 146.854c-1.639 8.193 3.08 16.324 11.006 18.966l22.179 7.393c7.828 2.609 16.383-.94 20.065-8.325l17.502-35.104c1.529-3.067 5.954-2.917 7.272.246l19.946 47.87c4.484 10.762 6.049 22.516 4.538 34.076l-22.543 172.457 12.425 13.335h37.275l49.7-120.606h115.967 13.889c1.62 0 3.081.978 3.698 2.476l48.68 118.13h37.532l12.168-13.335-8.284-123.838c16.13-21.507 24.85-47.666 24.85-74.55z" fill="#e9a6c5"/><g fill="#e07fa6"><path d="m175.065 140.033v49.191c0 5.511 5.441 9.371 10.643 7.551l12.357-4.325v-52.417c0-73.196-59.337-132.533-132.533-132.533h-23c73.196 0 132.533 59.337 132.533 132.533z"/><path d="m438.282 231.15c0-45.748-37.086-82.833-82.833-82.833h-8.283l-2.56.896c39.983 5.882 70.677 40.32 70.677 81.937 0 26.884-8.72 53.043-24.85 74.55l8.283 123.838-12.168 13.335h23l12.168-13.335-8.284-123.838c16.13-21.507 24.85-47.666 24.85-74.55z"/><path d="m117.082 442.873h23l49.7-120.606h-23z"/></g><g><g><path d="m256.048 504.5c-81.867 0-160.052-15.654-227.307-45.391-8.559-3.785-12.215-13.966-8.116-22.378l7.261-14.901c3.916-8.036 13.479-11.464 21.662-7.863 60.785 26.752 131.799 40.833 206.5 40.833 74.703 0 145.718-14.08 206.502-40.833 8.182-3.601 17.745-.173 21.662 7.863l7.261 14.899c4.1 8.413.444 18.594-8.115 22.379-67.254 29.738-145.44 45.392-227.31 45.392z" fill="#9d6b6b"/></g></g><path d="m491.473 436.729-7.261-14.899c-3.916-8.036-13.479-11.464-21.662-7.863-1.845.812-3.701 1.612-5.565 2.401 1.754 1.454 3.242 3.281 4.305 5.462l7.26 14.899c4.1 8.413.444 18.594-8.115 22.378-64.108 28.347-138.151 43.886-215.848 45.279 3.813.068 7.631.114 11.461.114 81.87 0 160.055-15.654 227.309-45.393 8.559-3.784 12.215-13.965 8.116-22.378z" fill="#8b5e5e"/><g><path d="m256.048 244.667h33.133v85.1h-33.133z" fill="#f9f6f6"/><path d="m222.915 148.317h99.4v88.017h-99.4z" fill="#8ec6f6"/><path d="m247.765 222.867h49.7c9.15 0 16.567-7.417 16.567-16.567v-57.983c0-4.575 3.709-8.283 8.283-8.283h16.567c4.575 0 8.283 3.709 8.283 8.283v74.55c0 18.299-14.834 33.133-33.133 33.133h-82.833c-18.299 0-33.133-14.834-33.133-33.133v-82.365c0-8.92 6.855-16.596 15.766-17.016 9.513-.448 17.367 7.133 17.367 16.548v66.266c-.001 9.149 7.417 16.567 16.566 16.567z" fill="#f4d844"/><g><g fill="#edbd2d"><path d="m208.198 140.033v66.267c0 9.149 7.417 16.567 16.567 16.567h23c-9.15 0-16.567-7.417-16.567-16.567v-66.267c0-9.415-7.854-16.996-17.367-16.548-4.151.195-7.843 1.978-10.617 4.715 3.072 3.008 4.984 7.195 4.984 11.833z"/><path d="m338.882 140.033h-16.567c-1.141 0-2.227.231-3.216.648 2.977 1.256 5.067 4.201 5.067 7.635v74.55c0 18.299-14.834 33.133-33.133 33.133h23c18.299 0 33.133-14.834 33.133-33.133v-74.55c-.001-4.574-3.71-8.283-8.284-8.283z"/></g></g></g></g><g><path d="m60.228 93.313-8.284 8.284c-2.929 2.93-2.929 7.678 0 10.607 1.465 1.464 3.385 2.196 5.304 2.196s3.839-.732 5.304-2.196l8.284-8.284c2.929-2.93 2.929-7.678 0-10.607-2.93-2.928-7.678-2.928-10.608 0z"/><path d="m421.993 170.128c-16.524-18.005-40.238-29.312-66.545-29.312h-2.683c-2.673-4.929-7.894-8.283-13.884-8.283h-16.566c-5.99 0-11.211 3.354-13.884 8.283h-69.733v-.783c0-6.548-2.718-12.896-7.456-17.416-4.806-4.584-11.104-6.938-17.765-6.623-3.435.162-6.667 1.056-9.565 2.521-10.382-67.036-68.481-118.515-138.38-118.515h-57.983c-4.143 0-7.5 3.357-7.5 7.5 0 19.331 13.569 35.553 31.683 39.641l-28.67 143.347c-2.375 11.876 4.498 23.721 15.988 27.552l22.179 7.393c2.481.827 5.02 1.222 7.531 1.222 8.925 0 17.47-4.994 21.618-13.314l14.085-28.25 17 40.8c3.972 9.531 5.363 19.98 4.024 30.22l-21.356 163.381c-10.804-3.765-21.341-7.892-31.562-12.39-11.933-5.249-25.737-.224-31.424 11.442l-7.262 14.901c-2.896 5.942-3.24 12.635-.97 18.843 2.257 6.172 6.801 11.03 12.795 13.681 68.106 30.114 147.757 46.031 230.341 46.031s162.235-15.918 230.342-46.033c5.994-2.65 10.538-7.509 12.795-13.681 2.27-6.209 1.925-12.9-.971-18.844l-7.261-14.898c-5.686-11.668-19.487-16.698-31.425-11.442-10.038 4.418-20.382 8.477-30.983 12.188l-7.449-111.363c10.753-15.009 18.217-32.254 21.945-50.292 8.256 20.268 10.595 46.659 6.939 78.81-.702 6.177 2.156 12.025 7.462 15.264 2.557 1.561 5.393 2.339 8.226 2.339 3.038 0 6.07-.895 8.745-2.678l26.816-17.878c6.895-4.597 10.9-12.288 10.715-20.576-2.639-117.882-56.024-140.446-89.952-142.788zm-115.461-14.312v50.484c0 4.999-4.067 9.066-9.067 9.066h-49.699c-5 0-9.067-4.067-9.067-9.066v-50.483h67.833zm-92.349-24.839c.149-.008.298-.011.445-.011 2.349 0 4.557.88 6.259 2.504 1.813 1.729 2.811 4.06 2.811 6.563v66.267c0 13.27 10.797 24.066 24.067 24.066h49.699c13.27 0 24.067-10.796 24.067-24.066v-57.983c0-.432.352-.783.783-.783h16.566c.432 0 .783.352.783.783v74.55c0 14.135-11.499 25.634-25.633 25.634h-82.834c-14.134 0-25.633-11.499-25.633-25.634v-82.365c.002-5.028 3.869-9.301 8.62-9.525zm102.491 197.285 44.936 109.046c-33.845 6.597-69.335 9.992-105.562 9.992-36.226 0-71.717-3.395-105.562-9.992l44.316-107.541h110.945c3.786 0 7.448-.532 10.927-1.505zm-53.125-13.495v-18.133h18.133v18.133zm18.133-33.133h-18.133v-18.134h18.133zm-161.321-23.58c1.681-12.853-.067-25.97-5.052-37.934l-20.691-49.658c21.76-12.842 36.397-36.519 36.397-63.562 0-4.143-3.358-7.5-7.5-7.5-4.143 0-7.5 3.357-7.5 7.5 0 32.404-26.363 58.767-58.768 58.767-4.143 0-7.5 3.357-7.5 7.5s3.357 7.5 7.5 7.5c4.531 0 8.96-.432 13.267-1.218l-13.56 27.198c-2.002 4.017-6.72 5.977-10.981 4.556l-22.179-7.393c-4.329-1.443-6.918-5.905-6.023-10.38l30.265-151.326c.44-2.203-.13-4.488-1.555-6.226-1.424-1.737-3.553-2.745-5.8-2.745-11.525 0-21.296-7.647-24.511-18.134h49.362c68.943 0 125.033 56.09 125.033 125.033 0 .051.007.1.008.15-.001.106-.008.211-.008.318v82.365c0 22.405 18.228 40.634 40.633 40.634h17.351v51.267h-58.767c-14.135 0-25.634-11.499-25.634-25.633 0-4.143-3.357-7.5-7.5-7.5s-7.5 3.357-7.5 7.5c0 18.731 12.744 34.534 30.015 39.216l-43.606 105.817c-12.578-2.846-24.903-6.145-36.925-9.887zm345.21 162.777c4.529-1.991 9.757-.111 11.898 4.285l7.261 14.897c1.095 2.246 1.225 4.775.367 7.121-.845 2.31-2.54 4.126-4.773 5.113-66.211 29.278-143.764 44.753-224.275 44.753s-158.063-15.475-224.274-44.75c-2.233-.987-3.929-2.804-4.773-5.113-.857-2.346-.727-4.875.367-7.12l7.262-14.901c1.563-3.209 4.771-5.078 8.151-5.078 1.25 0 2.523.256 3.746.794 61.639 27.129 134.09 41.469 209.521 41.469 75.432-.001 147.884-14.341 209.522-41.47zm-58.139-119.631c-1.077 1.436-1.604 3.21-1.483 5.001l7.89 117.961c-12.14 3.79-24.589 7.129-37.298 10.005l-46.388-112.569c9.849-7.422 16.229-19.211 16.229-32.465 0-4.143-3.358-7.5-7.5-7.5-4.143 0-7.5 3.357-7.5 7.5 0 14.134-11.499 25.633-25.634 25.633h-9.066v-51.266h17.351c22.405 0 40.633-18.229 40.633-40.634v-67.05h.783c41.539 0 75.334 33.795 75.334 75.334-.001 25.095-8.294 49.973-23.351 70.05zm85.478 19.812-26.816 17.878c-.145.096-.414.273-.835.017-.431-.263-.393-.59-.373-.766 5.229-45.986-1.203-81.772-19.115-106.431.001-.186.011-.373.011-.559 0-15.921-4.146-30.89-11.406-43.893 12.862 3.351 23.932 10.278 33.022 20.744 18.522 21.326 28.465 56.737 29.551 105.25.07 3.126-1.44 6.027-4.039 7.76z"/></g></g></svg>