<?xml version="1.0" encoding="iso-8859-1"?>
<!-- Generator: Adobe Illustrator 19.0.0, SVG Export Plug-In . SVG Version: 6.00 Build 0)  -->
<svg xmlns="http://www.w3.org/2000/svg" xmlns:xlink="http://www.w3.org/1999/xlink" version="1.1" id="Layer_1" x="0px" y="0px" viewBox="0 0 511.999 511.999" style="enable-background:new 0 0 511.999 511.999;" xml:space="preserve">
<path style="fill:#795548;" d="M434.586,158.129c-3.507-5.7-9.539-9.377-16.211-9.898l1.28,2.218  c3.72,6.169,10.017,10.333,17.15,11.348L434.586,158.129z M472.981,304.8c-1.979,1.997-3.421,4.462-4.181,7.167  c-4.087,14.496-9.718,28.515-16.809,41.808c9.59-15.904,17.269-32.884,22.867-50.597C474.201,303.673,473.57,304.219,472.981,304.8z  "/>
<path style="fill:#4E342E;" d="M490.131,59.666c7.346-0.009,13.302-5.964,13.31-13.31v-8.02  c-8.063-6.032-16.689-11.263-25.768-15.614c-74.666-35.17-163.719-3.157-198.889,71.518c-9.36,19.88-14.232,41.578-14.249,63.549  c-0.009,7.142,0.503,14.266,1.536,21.331H68.292c-14.112-0.026-25.571,11.382-25.597,25.495C42.67,218,52.985,229.143,66.33,230.142  c0.64,0.145,1.305,0.196,1.962,0.171h38.481c-13.891,16.8-21.467,37.926-21.416,59.726v100.852  c-9.846-11.621-18.43-24.266-25.597-37.713c-7.022-13.08-12.577-26.902-16.553-41.211c-2.235-7.432-9.13-12.483-16.894-12.372  c-1.433,0-2.867,0.171-4.266,0.512c-7.722,1.715-13.285,8.473-13.481,16.382c-0.009,1.442,0.196,2.884,0.597,4.266  c9.718,34.573,26.971,66.569,50.511,93.685l0.085,0.085c7.901,9.138,16.459,17.696,25.597,25.597  c10.614,9.326,22.039,17.688,34.129,25c7.483,4.607,15.196,8.822,23.123,12.628c71.748,34.129,155.041,34.129,226.79,0  c4.949-2.389,9.812-4.949,14.59-7.594c11.988-6.706,23.396-14.386,34.129-22.952c40.887-32.15,70.545-76.416,84.726-126.449  c2.235-9.181-3.396-18.447-12.577-20.682c-1.493-0.367-3.029-0.529-4.573-0.478c-3.908-0.043-7.722,1.22-10.836,3.584  c-0.666,0.495-1.288,1.032-1.877,1.621c-1.979,1.997-3.421,4.462-4.181,7.167c-4.087,14.496-9.718,28.515-16.809,41.808  c-0.111,0.273-0.256,0.529-0.427,0.768c-9.113,16.664-20.35,32.065-33.447,45.819v-58.191l-0.29,0.452  c-0.043,0.068-0.102,0.102-0.154,0.171c0.137-0.213,0.299-0.401,0.435-0.623v-52.133c0-2.884-0.171-5.759-0.512-8.618l0.512,0.085  l-1.024-4.863v-0.171c-0.444-3.336-1.092-6.647-1.962-9.897v-0.085l-18.771-93.6c-0.264-1.323-0.41-2.662-0.427-4.01  c0.009-9.539,6.519-17.85,15.785-20.136c2.167-0.589,4.428-0.768,6.655-0.512c6.672,0.52,12.696,4.198,16.211,9.898l2.218,3.669  l8.447,14.249c6.792,11.322,21.476,14.991,32.798,8.2c8.66-5.196,13.114-15.273,11.143-25.179l-15.785-79.009  c-1.86-9.223,4.113-18.199,13.336-20.06C487.862,59.776,488.996,59.666,490.131,59.666z M383.989,428.092v1.536  c-9.906,6.843-20.35,12.858-31.228,18.003c-76.194,35.87-165.997,26.536-233.189-24.232c0.085-2.816,0.171-5.631,0.512-8.447  c6.399-72.747,70.554-126.535,143.301-120.135c24.761,2.176,48.395,11.288,68.216,26.28c4.804,3.677,9.368,7.671,13.652,11.945  c24.829,24.778,38.771,58.429,38.737,93.514V428.092z"/>
<path style="fill:#795548;" d="M485.694,299.595c-3.908-0.043-7.722,1.22-10.836,3.584c-0.666,0.495-1.288,1.032-1.877,1.621  c-1.979,1.997-3.421,4.462-4.181,7.167c-4.087,14.496-9.718,28.515-16.809,41.808c-0.111,0.273-0.256,0.529-0.427,0.768  c-9.113,16.664-20.35,32.065-33.447,45.819v-58.191l-0.29,0.452c-4.241,6.348-12.816,8.055-19.164,3.823  c-3.848-2.568-6.16-6.903-6.143-11.536v-70.469c0-2.884-0.171-5.759-0.512-8.618l0.512,0.085l-1.024-4.863v-0.171  c-0.444-3.336-1.092-6.647-1.962-9.898v-0.085l-18.771-93.6c-0.264-1.323-0.41-2.662-0.427-4.01  c0.051-11.51,9.42-20.802,20.93-20.759c7.244,0.026,13.95,3.822,17.722,10.008l9.386,15.7c6.672,0.52,12.696,4.198,16.211,9.898  l2.218,3.669c1.126,0.171,2.27,0.256,3.413,0.256c13.191-0.026,23.874-10.742,23.848-23.933c0-1.561-0.162-3.114-0.469-4.65  l-15.785-79.009c-1.86-9.223,4.113-18.199,13.336-20.06c1.118-0.222,2.253-0.333,3.387-0.333c6.578-0.017,12.167-4.838,13.14-11.348  c-74.666-35.17-163.719-3.157-198.889,71.518c-9.36,19.88-14.232,41.578-14.249,63.549c-0.009,7.142,0.503,14.266,1.536,21.331  H68.292c-14.112-0.026-25.571,11.382-25.597,25.495C42.67,218,52.985,229.143,66.33,230.142c0.64,0.145,1.305,0.196,1.962,0.171  h38.481c-13.891,16.8-21.467,37.926-21.416,59.726v100.852c-9.846-11.621-18.43-24.266-25.597-37.713  c-7.022-13.08-12.577-26.902-16.553-41.211c-2.235-7.432-9.13-12.483-16.894-12.372c-1.433,0-2.867,0.171-4.266,0.512  c-7.722,1.715-13.285,8.473-13.481,16.382c-0.009,1.442,0.196,2.884,0.597,4.266c9.718,34.573,26.971,66.569,50.511,93.685  l0.085,0.085c7.901,9.138,16.459,17.696,25.597,25.597c10.614,9.326,22.039,17.688,34.129,25  c7.483,4.607,15.196,8.822,23.123,12.628c71.748,34.129,155.041,34.129,226.79,0c4.949-2.389,9.812-4.949,14.59-7.594  c11.988-6.706,23.396-14.386,34.129-22.952c40.887-32.15,70.545-76.416,84.726-126.449c2.235-9.181-3.396-18.447-12.577-20.682  C488.775,299.714,487.239,299.552,485.694,299.595z M383.989,429.628c-9.906,6.843-20.35,12.858-31.228,18.003  c-76.194,35.87-165.997,26.536-233.189-24.232c0.085-2.816,0.171-5.631,0.512-8.447c6.399-72.747,70.554-126.535,143.301-120.135  c24.761,2.176,48.395,11.288,68.216,26.28c4.804,3.677,9.368,7.671,13.652,11.945c24.829,24.778,38.771,58.429,38.737,93.514  V429.628z"/>
<path d="M255.995,511.999c-39.931,0-79.854-8.848-117.047-26.536c-8.157-3.916-16.194-8.31-23.933-13.063  c-12.432-7.526-24.326-16.229-35.281-25.861c-37.918-32.551-65.187-75.272-78.771-123.463c-0.614-2.09-0.939-4.343-0.93-6.613  c0.418-14.386,12.372-25.384,26.45-25.401c0.119,0,0.23,0,0.35,0c11.084,0,21.263,7.543,24.539,18.447  c5.674,20.051,14.198,38.728,25.443,55.836v-75.306c-0.034-18.02,4.744-35.716,13.677-51.194H68.292  c-18.822,0-34.129-15.307-34.129-34.129s15.307-34.129,34.129-34.129h188.223c-0.35-4.258-0.52-8.532-0.512-12.807  c0-33.916,11.211-67.551,31.57-94.7c52.218-69.632,151.355-83.788,220.979-31.57c2.15,1.604,3.413,4.138,3.413,6.826v8.02  c-0.017,12.039-9.804,21.834-21.834,21.843h-0.009c-0.58,0-1.169,0.06-1.732,0.171c-4.565,0.921-7.551,5.41-6.621,10.008  l15.785,79.018c2.671,13.404-3.396,27.133-15.111,34.163c-15.307,9.206-35.29,4.224-44.513-11.118l-10.682-17.952  c-2.167-3.558-6.177-5.819-10.427-5.836c-0.017,0-0.043,0-0.06,0c-3.268,0-6.34,1.263-8.66,3.567  c-2.329,2.312-3.635,5.401-3.643,8.694c0.009,0.683,0.094,1.493,0.256,2.295l18.771,93.617c0.009,0.034,0.017,0.06,0.017,0.094  c0.887,3.404,1.57,6.928,2.031,10.452c0.009,0.034,0.009,0.077,0.017,0.119l0.896,4.275c0.264,1.28,0.239,2.594-0.077,3.822  c0.179,2.142,0.256,4.309,0.256,6.468v87.277c15.418-20.162,27.013-43.208,33.95-67.678c1.143-4.087,3.336-7.85,6.331-10.862  c5.034-4.991,11.647-7.713,18.669-7.713c0.333-0.009,0.546-0.009,0.828-0.009c1.8,0,3.831,0.239,5.836,0.717  c6.689,1.63,12.312,5.751,15.87,11.595c3.566,5.862,4.633,12.747,3.012,19.403c-14.846,52.423-45.162,97.653-87.738,131.133  c-10.998,8.78-22.867,16.775-35.239,23.694c-4.957,2.73-9.957,5.367-15.051,7.824C335.892,503.142,295.935,511.999,255.995,511.999z   M26.245,308.127c-5.051,0-9.01,3.823-9.147,8.609c0,0.41,0.085,1.032,0.265,1.621c12.696,45.017,38.122,84.863,73.557,115.289  c10.281,9.027,21.356,17.141,32.986,24.181c7.287,4.479,14.795,8.592,22.397,12.235c69.718,33.148,149.7,33.165,219.435-0.017  c4.77-2.304,9.479-4.787,14.13-7.346c11.519-6.45,22.602-13.908,32.926-22.158c39.778-31.271,68.062-73.48,81.842-122.115  c0.461-1.928,0.111-4.224-1.084-6.186s-3.08-3.345-5.316-3.882c-0.742-0.179-1.416-0.247-2.27-0.239c-0.009,0-0.026,0-0.034,0  c-2.816,0-5.162,0.973-6.945,2.739c-0.904,0.913-1.604,2.108-1.962,3.404c-9.752,34.419-27.986,66.228-52.747,91.996  c-2.423,2.517-6.135,3.302-9.343,2.005c-3.234-1.297-5.35-4.437-5.35-7.918V290.021c0-2.543-0.154-5.085-0.452-7.602  c-0.085-0.717-0.077-1.425,0.017-2.116l-0.41-1.928c-0.085-0.41-0.145-0.819-0.171-1.237c-0.393-2.841-0.956-5.665-1.689-8.396  c-0.085-0.341-0.162-0.683-0.205-1.032l-18.677-93.139c-0.367-1.834-0.563-3.703-0.589-5.58c0.026-7.986,3.114-15.35,8.686-20.879  c5.572-5.529,12.85-8.217,20.802-8.524c10.136,0.043,19.71,5.444,24.983,14.104l10.708,17.995  c4.343,7.235,13.797,9.599,21.083,5.239c5.546-3.336,8.43-9.838,7.167-16.186L465.055,81.73c-1.348-6.681-0.009-13.498,3.763-19.189  c3.78-5.691,9.548-9.565,16.246-10.913c1.681-0.333,3.37-0.503,5.068-0.503l0,0c2.636,0,4.787-2.15,4.787-4.787v-3.669  c-61.885-43.617-147.959-30.341-193.684,30.64c-18.157,24.215-28.157,54.214-28.157,84.47c-0.009,6.741,0.478,13.498,1.442,20.094  c0.358,2.449-0.367,4.94-1.98,6.809c-1.621,1.877-3.985,2.952-6.459,2.952H68.292c-9.411,0-17.065,7.654-17.065,17.065  s7.654,17.065,17.065,17.065h38.481c3.302,0,6.314,1.911,7.722,4.898s0.964,6.527-1.143,9.07  c-12.594,15.23-19.505,34.505-19.462,54.274v100.869c0,3.575-2.227,6.775-5.589,8.003c-3.328,1.229-7.116,0.247-9.437-2.474  c-20.503-24.07-35.264-51.715-43.865-82.132c-1.075-3.592-4.556-6.169-8.438-6.169C26.441,308.127,26.347,308.127,26.245,308.127z   M256.115,477.818c-49.948,0-99.794-15.93-141.679-47.61c-2.193-1.655-3.447-4.266-3.379-7.005  c0.887-37.585,16.365-72.585,43.575-98.531s62.969-39.582,100.485-38.848c77.064,1.834,137.422,63.651,137.413,140.732v3.072  c0,2.816-1.391,5.452-3.712,7.039C348.691,464.141,302.36,477.818,256.115,477.818z M128.283,419.235  c73.267,53.131,171.492,55.469,247.165,5.853c-0.759-67.047-53.515-120.596-120.75-122.192  c-33.02-0.717-64.385,11.339-88.301,34.129C143.548,358.818,130.109,387.87,128.283,419.235z"/>
<path d="M255.995,511.999c-39.931,0-79.854-8.848-117.047-26.536c-8.157-3.916-16.194-8.31-23.933-13.063  c-12.432-7.526-24.326-16.229-35.281-25.861c-37.918-32.551-65.187-75.272-78.771-123.463c-0.614-2.09-0.939-4.343-0.93-6.613  c0.418-14.386,12.372-25.384,26.45-25.401c0.119,0,0.23,0,0.35,0c11.084,0,21.263,7.543,24.539,18.447  c5.674,20.051,14.198,38.728,25.443,55.836v-75.306c-0.034-18.02,4.744-35.716,13.677-51.194H68.292  c-18.822,0-34.129-15.307-34.129-34.129s15.307-34.129,34.129-34.129h188.223c-0.35-4.258-0.52-8.532-0.512-12.807  c0-33.916,11.211-67.551,31.57-94.7c52.218-69.632,151.355-83.788,220.979-31.57c2.15,1.604,3.413,4.138,3.413,6.826v8.02  c-0.017,12.039-9.804,21.834-21.834,21.843h-0.009c-0.58,0-1.169,0.06-1.732,0.171c-4.565,0.921-7.551,5.41-6.621,10.008  l15.785,79.018c2.671,13.404-3.396,27.133-15.111,34.163c-15.307,9.206-35.29,4.224-44.513-11.118l-10.682-17.952  c-2.167-3.558-6.177-5.819-10.427-5.836c-0.017,0-0.043,0-0.06,0c-3.268,0-6.34,1.263-8.66,3.567  c-2.329,2.312-3.635,5.401-3.643,8.694c0.009,0.683,0.094,1.493,0.256,2.295l18.771,93.617c0.009,0.034,0.017,0.06,0.017,0.094  c0.887,3.404,1.57,6.928,2.031,10.452c0.009,0.034,0.009,0.077,0.017,0.119l0.896,4.275c0.264,1.28,0.239,2.585-0.068,3.822  c0.154,2.142,0.247,4.3,0.247,6.468v87.277c15.418-20.162,27.013-43.208,33.95-67.678c1.143-4.087,3.336-7.85,6.331-10.862  c5.034-4.991,11.647-7.713,18.669-7.713c0.333-0.009,0.546-0.009,0.828-0.009c1.8,0,3.831,0.239,5.836,0.717  c6.689,1.63,12.312,5.751,15.87,11.595c3.566,5.862,4.633,12.747,3.012,19.403c-14.846,52.423-45.162,97.653-87.738,131.133  c-10.998,8.78-22.867,16.775-35.239,23.694c-4.957,2.73-9.957,5.367-15.051,7.824C335.892,503.142,295.935,511.999,255.995,511.999z   M26.245,308.127c-5.051,0-9.01,3.823-9.147,8.609c0,0.41,0.085,1.032,0.265,1.621c12.696,45.017,38.122,84.863,73.557,115.289  c10.281,9.027,21.356,17.141,32.986,24.181c7.287,4.479,14.795,8.592,22.397,12.235c69.718,33.148,149.7,33.165,219.435-0.017  c4.77-2.304,9.479-4.787,14.13-7.346c11.519-6.45,22.602-13.908,32.926-22.158c39.778-31.271,68.062-73.48,81.842-122.115  c0.461-1.928,0.111-4.224-1.084-6.186s-3.08-3.345-5.316-3.882c-0.742-0.179-1.416-0.247-2.27-0.239c-0.009,0-0.026,0-0.034,0  c-2.816,0-5.162,0.973-6.945,2.739c-0.904,0.913-1.604,2.108-1.962,3.404c-9.752,34.419-27.986,66.228-52.747,91.996  c-2.423,2.517-6.135,3.302-9.343,2.005c-3.234-1.297-5.35-4.437-5.35-7.918V290.021c0-2.619-0.179-5.213-0.427-7.781  c-0.06-0.606-0.051-1.22,0.017-1.809l-0.435-2.048c-0.085-0.41-0.145-0.819-0.171-1.237c-0.393-2.841-0.956-5.665-1.689-8.396  c-0.085-0.341-0.162-0.683-0.205-1.032l-18.677-93.147c-0.367-1.834-0.563-3.703-0.589-5.58c0.026-7.986,3.114-15.35,8.686-20.879  c5.572-5.529,12.85-8.217,20.802-8.524c10.136,0.043,19.71,5.444,24.983,14.104l10.708,17.995  c4.343,7.235,13.797,9.599,21.083,5.239c5.546-3.336,8.43-9.838,7.167-16.186L465.055,81.73c-1.348-6.681-0.009-13.498,3.763-19.189  c3.78-5.691,9.548-9.565,16.246-10.913c1.681-0.333,3.37-0.503,5.068-0.503l0,0c2.636,0,4.787-2.15,4.787-4.787v-3.669  c-61.885-43.617-147.959-30.341-193.684,30.64c-18.157,24.215-28.157,54.214-28.157,84.47c-0.009,6.741,0.478,13.498,1.442,20.094  c0.358,2.449-0.367,4.94-1.98,6.809c-1.621,1.877-3.985,2.952-6.459,2.952H68.292c-9.411,0-17.065,7.654-17.065,17.065  s7.654,17.065,17.065,17.065h38.481c3.302,0,6.314,1.911,7.722,4.898s0.964,6.527-1.143,9.07  c-12.594,15.23-19.505,34.505-19.462,54.274v100.869c0,3.575-2.227,6.775-5.589,8.003c-3.328,1.229-7.116,0.247-9.437-2.474  c-20.503-24.07-35.264-51.715-43.865-82.132c-1.075-3.592-4.556-6.169-8.438-6.169C26.441,308.127,26.347,308.127,26.245,308.127z"/>
<path style="fill:#D84315;" d="M145.083,179.118h119.453l0,0v59.726c0,9.428-7.636,17.065-17.065,17.065h-85.323  c-9.428,0-17.065-7.636-17.065-17.065V179.118L145.083,179.118z"/>
<path style="fill:#FF5722;" d="M145.083,179.118h85.323l0,0v59.726c0,9.428-7.636,17.065-17.065,17.065h-51.194  c-9.428,0-17.065-7.636-17.065-17.065V179.118L145.083,179.118z"/>
<path d="M247.471,264.442h-85.323c-14.112,0-25.597-11.485-25.597-25.597v-59.726c0-4.71,3.822-8.532,8.532-8.532h119.453  c4.718,0,8.532,3.822,8.532,8.532v59.726C273.068,252.957,261.592,264.442,247.471,264.442z M153.616,187.651v51.194  c0,4.701,3.831,8.532,8.532,8.532h85.323c4.701,0,8.532-3.831,8.532-8.532v-51.194H153.616z"/>
<path d="M443.715,102.327c-4.718,0-8.532-3.822-8.532-8.532v-8.532c0-4.71,3.814-8.532,8.532-8.532c4.718,0,8.532,3.822,8.532,8.532  v8.532C452.248,98.505,448.434,102.327,443.715,102.327z"/>
<g>
</g>
<g>
</g>
<g>
</g>
<g>
</g>
<g>
</g>
<g>
</g>
<g>
</g>
<g>
</g>
<g>
</g>
<g>
</g>
<g>
</g>
<g>
</g>
<g>
</g>
<g>
</g>
<g>
</g>
</svg>
