<svg id="Filled" height="512" viewBox="0 0 512 512" width="512" xmlns="http://www.w3.org/2000/svg"><path d="m256 64 56-24-56-16z" fill="#e74444"/><path d="m152 160h208v328h-208z" fill="#cbbcae"/><path d="m224 192h64a0 0 0 0 1 0 0v32a32 32 0 0 1 -32 32 32 32 0 0 1 -32-32v-32a0 0 0 0 1 0 0z" fill="#beb0a3" transform="matrix(-1 0 0 -1 512 448)"/><path d="m152 160 104-80 104 80z" fill="#d8c8b9"/><path d="m504 208v280h-160v-280h32v24h32v-24h32v24h32v-24z" fill="#d8c8b9"/><path d="m432 304a32 32 0 0 1 32 32v32a0 0 0 0 1 0 0h-64a0 0 0 0 1 0 0v-32a32 32 0 0 1 32-32z" fill="#beb0a3"/><path d="m168 208v280h-160v-280h32v24h32v-24h32v24h32v-24z" fill="#d8c8b9"/><path d="m360 304v184h-208v-184h32v24h48v-24h48v24h48v-24z" fill="#e2d2c2"/><path d="m80 304a32 32 0 0 1 32 32v32a0 0 0 0 1 0 0h-64a0 0 0 0 1 0 0v-32a32 32 0 0 1 32-32z" fill="#beb0a3"/><path d="m248 408h16a32 32 0 0 1 32 32v48a0 0 0 0 1 0 0h-80a0 0 0 0 1 0 0v-48a32 32 0 0 1 32-32z" fill="#beb0a3"/><path d="m224 264h64a8 8 0 0 0 8-8v-32a40 40 0 0 0 -80 0v32a8 8 0 0 0 8 8zm8-40a24 24 0 0 1 48 0v24h-48z"/><path d="m504 200h-32a8 8 0 0 0 -8 8v16h-16v-16a8 8 0 0 0 -8-8h-32a8 8 0 0 0 -8 8v16h-16v-16a8 8 0 0 0 -8-8h-8v-40a7.979 7.979 0 0 0 -3.127-6.335v-.006l-100.873-77.598v-6.786l51.151-21.922a8 8 0 0 0 -.953-15.045l-56-16a8 8 0 0 0 -10.198 7.692v52.061l-100.877 77.6v.006a7.979 7.979 0 0 0 -3.123 6.333v40h-8a8 8 0 0 0 -8 8v16h-16v-16a8 8 0 0 0 -8-8h-32a8 8 0 0 0 -8 8v16h-16v-16a8 8 0 0 0 -8-8h-32a8 8 0 0 0 -8 8v280a8 8 0 0 0 8 8h496a8 8 0 0 0 8-8v-280a8 8 0 0 0 -8-8zm-240-165.394 24.167 6.905-24.167 10.357zm72.479 117.394h-160.958l80.479-61.907zm-176.479 16h192v32h-8a8 8 0 0 0 -8 8v88h-8a8 8 0 0 0 -8 8v16h-32v-16a8 8 0 0 0 -8-8h-48a8 8 0 0 0 -8 8v16h-32v-16a8 8 0 0 0 -8-8h-8v-88a8 8 0 0 0 -8-8h-8zm-16 136v176h-128v-264h16v16a8 8 0 0 0 8 8h32a8 8 0 0 0 8-8v-16h16v16a8 8 0 0 0 8 8h32a8 8 0 0 0 8-8v-16h16v80h-8a8 8 0 0 0 -8 8zm144 176h-64v-40a24.027 24.027 0 0 1 24-24h16a24.027 24.027 0 0 1 24 24zm64 0h-48v-40a40.045 40.045 0 0 0 -40-40h-16a40.045 40.045 0 0 0 -40 40v40h-48v-168h16v16a8 8 0 0 0 8 8h48a8 8 0 0 0 8-8v-16h32v16a8 8 0 0 0 8 8h48a8 8 0 0 0 8-8v-16h16zm144 0h-128v-176a8 8 0 0 0 -8-8h-8v-80h16v16a8 8 0 0 0 8 8h32a8 8 0 0 0 8-8v-16h16v16a8 8 0 0 0 8 8h32a8 8 0 0 0 8-8v-16h16z"/><path d="m432 296a40.045 40.045 0 0 0 -40 40v32a8 8 0 0 0 8 8h64a8 8 0 0 0 8-8v-32a40.045 40.045 0 0 0 -40-40zm24 64h-48v-24a24 24 0 0 1 48 0z"/><circle cx="400" cy="408" r="8"/><circle cx="464" cy="448" r="8"/><circle cx="472" cy="272" r="8"/><path d="m80 296a40.045 40.045 0 0 0 -40 40v32a8 8 0 0 0 8 8h64a8 8 0 0 0 8-8v-32a40.045 40.045 0 0 0 -40-40zm24 64h-48v-24a24 24 0 0 1 48 0z"/><circle cx="48" cy="448" r="8"/><circle cx="40" cy="272" r="8"/><circle cx="112" cy="408" r="8"/><circle cx="296" cy="376" r="8"/><circle cx="216" cy="376" r="8"/></svg>