<?xml version="1.0" encoding="iso-8859-1"?>
<!-- Generator: Adobe Illustrator 21.0.0, SVG Export Plug-In . SVG Version: 6.00 Build 0)  -->
<svg version="1.1" id="Capa_1" xmlns="http://www.w3.org/2000/svg" xmlns:xlink="http://www.w3.org/1999/xlink" x="0px" y="0px"
	 viewBox="0 0 593.282 593.282" style="enable-background:new 0 0 593.282 593.282;" xml:space="preserve">
<g>
	<g>
		<g id="filled_outline_26_">
			<path style="fill:#F5AE45;" d="M563.618,316.417l-6.121-18.372c-2.314-6.951-8.286-12.044-15.514-13.25l-47.581-7.93
				l-24.849-76.138c-2.887-7.732-10.274-12.854-18.52-12.854H29.664c-10.926,0-19.776,8.85-19.776,19.776v168.097h573.506v-39.552
				C583.394,325.267,574.544,316.417,563.618,316.417z"/>
			<circle style="fill:#697B8C;" cx="148.32" cy="375.745" r="39.552"/>
			<circle style="fill:#697B8C;" cx="524.066" cy="375.745" r="39.552"/>
			<circle style="fill:#C3C9D1;" cx="524.066" cy="375.745" r="19.776"/>
			<rect x="9.888" y="227.425" style="fill:#4EABEC;" width="355.969" height="49.44"/>
			<rect x="9.888" y="257.089" style="fill:#4394CC;" width="355.969" height="19.776"/>
			<polygon style="fill:#4EABEC;" points="435.073,276.865 494.402,276.865 478.264,227.425 435.073,227.425 			"/>
			<rect x="365.857" y="227.425" style="fill:#3678A6;" width="69.216" height="108.768"/>
			<rect x="365.857" y="336.193" style="fill:#FABC5F;" width="69.216" height="39.552"/>
			<circle style="fill:#C3C9D1;" cx="148.32" cy="375.745" r="19.776"/>
			<polygon style="fill:#4394CC;" points="435.073,257.089 435.073,276.865 494.402,276.865 487.945,257.089 			"/>
			<path d="M571.054,307.518l-4.173-12.558c-3.471-10.422-12.429-18.075-23.267-19.885l-41.668-6.922l-23.138-70.868
				c-4.361-11.569-15.406-19.252-27.775-19.301H29.664C13.28,177.985,0,191.264,0,207.649v168.097c0,5.458,4.43,9.888,9.888,9.888
				h100.284c5.359,21.071,26.787,33.797,47.858,28.438c13.972-3.56,24.878-14.466,28.438-28.438h299.449
				c5.359,21.071,26.787,33.797,47.858,28.438c13.972-3.56,24.878-14.466,28.438-28.438h21.18c5.458,0,9.888-4.43,9.888-9.888
				v-39.552C593.262,322.686,584.126,310.9,571.054,307.518z M480.776,266.977h-35.814v-29.664h26.134L480.776,266.977z
				 M19.776,237.313h39.552v29.664H19.776V237.313z M148.32,395.521c-10.926,0-19.776-8.85-19.776-19.776s8.85-19.776,19.776-19.776
				s19.776,8.85,19.776,19.776S159.247,395.521,148.32,395.521z M355.969,336.193v29.664H186.627
				c-0.396-1.345-0.86-2.66-1.404-3.955c-0.218-0.593-0.376-1.216-0.623-1.8c-0.939-2.175-2.076-4.262-3.392-6.229
				c-0.287-0.425-0.643-0.791-0.939-1.206c-1.078-1.503-2.254-2.927-3.52-4.272c-0.583-0.593-1.216-1.117-1.829-1.681
				c-1.127-1.058-2.314-2.047-3.55-2.966c-0.732-0.524-1.483-0.989-2.245-1.483c-1.276-0.801-2.601-1.523-3.955-2.165
				c-0.811-0.376-1.612-0.761-2.452-1.098c-1.533-0.583-3.095-1.068-4.687-1.454c-0.761-0.198-1.493-0.445-2.274-0.593
				c-4.895-0.999-9.937-0.999-14.832,0c-0.781,0.148-1.513,0.396-2.274,0.593c-1.592,0.386-3.154,0.87-4.687,1.454
				c-0.84,0.336-1.641,0.722-2.452,1.098c-1.355,0.643-2.68,1.365-3.955,2.165c-0.761,0.475-1.513,0.989-2.245,1.483
				c-1.236,0.92-2.423,1.908-3.55,2.966c-0.613,0.564-1.246,1.088-1.829,1.681c-1.266,1.345-2.442,2.769-3.52,4.272
				c-0.297,0.415-0.653,0.781-0.989,1.206c-1.315,1.968-2.452,4.054-3.392,6.229c-0.247,0.583-0.405,1.206-0.623,1.8
				c-0.544,1.295-1.009,2.61-1.404,3.955H19.776v-79.104h336.193V336.193z M79.104,266.977v-29.664h39.552v29.664H79.104z
				 M138.432,266.977v-29.664h39.552v29.664H138.432z M197.761,266.977v-29.664h39.552v29.664H197.761z M257.089,266.977v-29.664
				h39.552v29.664H257.089z M355.969,266.977h-39.552v-29.664h39.552V266.977z M425.185,365.857h-49.44v-19.776h49.44V365.857z
				 M425.185,276.865v49.44h-49.44v-88.992h49.44V276.865z M365.857,217.537H19.776v-9.888c0-5.458,4.43-9.888,9.888-9.888h421.369
				c3.975-0.01,7.564,2.363,9.117,6.012l4.489,13.764H365.857z M524.066,395.521c-10.926,0-19.776-8.85-19.776-19.776
				s8.85-19.776,19.776-19.776s19.776,8.85,19.776,19.776S534.992,395.521,524.066,395.521z M573.506,365.857h-11.134
				c-0.396-1.345-0.86-2.66-1.404-3.955c-0.218-0.593-0.376-1.216-0.623-1.8c-0.939-2.175-2.076-4.262-3.392-6.229
				c-0.287-0.425-0.643-0.791-0.939-1.206c-1.078-1.503-2.254-2.927-3.52-4.272c-0.583-0.593-1.216-1.117-1.829-1.681
				c-1.127-1.058-2.314-2.047-3.55-2.966c-0.732-0.524-1.483-0.989-2.245-1.483c-1.276-0.801-2.601-1.523-3.955-2.165
				c-0.811-0.376-1.612-0.761-2.452-1.098c-1.533-0.583-3.095-1.068-4.687-1.454c-0.761-0.198-1.493-0.445-2.274-0.593
				c-4.895-0.999-9.938-0.999-14.832,0c-0.781,0.148-1.513,0.396-2.274,0.593c-1.592,0.386-3.154,0.87-4.687,1.454
				c-0.84,0.336-1.641,0.722-2.452,1.098c-1.355,0.643-2.68,1.365-3.955,2.165c-0.761,0.475-1.513,0.989-2.245,1.483
				c-1.236,0.92-2.423,1.908-3.55,2.966c-0.613,0.564-1.246,1.088-1.829,1.681c-1.266,1.345-2.442,2.769-3.52,4.272
				c-0.297,0.415-0.653,0.781-0.939,1.206c-1.315,1.968-2.452,4.054-3.392,6.229c-0.247,0.583-0.405,1.206-0.623,1.8
				c-0.544,1.295-1.009,2.61-1.404,3.955h-40.838v-79.104h48.619l46.77,7.792c3.619,0.603,6.605,3.154,7.762,6.635l1.78,5.349
				h-53.158c-11.243-0.04-21.536,6.318-26.53,16.394l-4.43,8.85l17.7,8.84l4.42-8.84c1.661-3.362,5.092-5.478,8.84-5.468h66.883
				c5.458,0,9.888,4.43,9.888,9.888V365.857z"/>
			<rect x="39.552" y="306.529" width="296.641" height="19.776"/>
		</g>
	</g>
</g>
<g>
</g>
<g>
</g>
<g>
</g>
<g>
</g>
<g>
</g>
<g>
</g>
<g>
</g>
<g>
</g>
<g>
</g>
<g>
</g>
<g>
</g>
<g>
</g>
<g>
</g>
<g>
</g>
<g>
</g>
</svg>
