<svg id="Filled" height="512" viewBox="0 0 512 512" width="512" xmlns="http://www.w3.org/2000/svg"><path d="m152 424s-16-64-80-64h-48l32 80h96z" fill="#e0e2e5"/><rect fill="#3a98e4" height="32" rx="16" width="160" x="280" y="24"/><path d="m328 24h64v32h-64z" fill="#e0e2e5"/><circle cx="72" cy="440" fill="#6a7073" r="48"/><path d="m344 56 80 384h32l-80-384z" fill="#e0e2e5"/><path d="m456 440-53.33-256h-32l17.5 84.016-92.17 155.984h-224a16 16 0 0 0 0 32h240l85.609-142.683 26.391 126.683z" fill="#3a98e4"/><circle cx="440" cy="440" fill="#6a7073" r="48"/><circle cx="440" cy="440" fill="#e0e2e5" r="16"/><path d="m452.817 385.5-66.978-321.5h38.161a24 24 0 0 0 0-48h-128a24 24 0 0 0 0 48h41.5l42.212 202.617-88.277 149.383h-133.584a111.545 111.545 0 0 0 -15.451-28.8c-17.271-23.028-41.615-35.2-70.4-35.2h-48a8 8 0 0 0 -7.428 10.971l15.237 38.091a55.982 55.982 0 1 0 90.791 62.938h189.4a8 8 0 0 0 6.86-3.884l75.087-125.145 12.54 60.191a55.986 55.986 0 1 0 46.33-9.665zm-116.817-337.5v-16h48v16zm96-8a8.009 8.009 0 0 1 -8 8h-24v-16h24a8.009 8.009 0 0 1 8 8zm-144 0a8.009 8.009 0 0 1 8-8h24v16h-24a8.009 8.009 0 0 1 -8-8zm81.5 24 23.333 112h-15.661l-23.333-112zm-297.5 304c23.7 0 42.972 9.546 57.276 28.371a94.627 94.627 0 0 1 11.37 19.629h-18.046a55.964 55.964 0 0 0 -77.6-25.042l-9.184-22.958zm0 112a40 40 0 1 1 32-64h-32a24 24 0 0 0 0 48h32a40.089 40.089 0 0 1 -32 16zm235.471-32h-235.471a8 8 0 0 1 0-16h224a8 8 0 0 0 6.887-3.93l81.664-138.2 4.587 22.018zm73.034-256h15.656l40.03 192.144a55.588 55.588 0 0 0 -15.006 3.117zm59.495 288a40 40 0 1 1 40-40 40.045 40.045 0 0 1 -40 40z"/><path d="m440 416a24 24 0 1 0 24 24 24.027 24.027 0 0 0 -24-24zm0 32a8 8 0 1 1 8-8 8.009 8.009 0 0 1 -8 8z"/></svg>