<?xml version="1.0" encoding="iso-8859-1"?>
<!-- Generator: Adobe Illustrator 21.0.0, SVG Export Plug-In . SVG Version: 6.00 Build 0)  -->
<svg version="1.1" id="Capa_1" xmlns="http://www.w3.org/2000/svg" xmlns:xlink="http://www.w3.org/1999/xlink" x="0px" y="0px"
	 viewBox="0 0 593.282 593.282" style="enable-background:new 0 0 593.282 593.282;" xml:space="preserve">
<g>
	<g>
		<g id="filled_outline_27_">
			<circle style="fill:#697B8C;" cx="474.626" cy="415.209" r="59.328"/>
			<circle style="fill:#D0D7DF;" cx="474.626" cy="415.209" r="19.776"/>
			<circle style="fill:#697B8C;" cx="79.104" cy="415.209" r="59.328"/>
			<path style="fill:#DD381A;" d="M573.506,341.257v-54.592h-59.328C539.115,298.303,559.841,317.367,573.506,341.257z"/>
			<path style="fill:#69CCD7;" d="M158.209,158.12h-29.664l-19.776-39.552h49.44c10.926,0,19.776,8.85,19.776,19.776l0,0
				C177.985,149.271,169.135,158.12,158.209,158.12z"/>
			<path style="fill:#697B8C;" d="M217.537,148.232h-39.552c-5.458,0-9.888-4.43-9.888-9.888l0,0c0-5.458,4.43-9.888,9.888-9.888
				h39.552V148.232z"/>
			<path style="fill:#69CCD7;" d="M583.394,381.748c0-65.419-69.216-95.083-69.216-95.083v-39.552H296.641
				c0,29.664,19.776,29.664,19.776,29.664h4.944c24.572,0,44.496,19.924,44.496,44.496c0,24.572-19.924,44.496-44.496,44.496
				H219.129c-7.1,0-13.655-3.807-17.176-9.967l-33.857-59.249l9.888-88.992c1.641-24.245-15.534-45.722-39.552-49.44
				l-15.514,102.964c-2.591,15.534-14.14,28.052-29.417,31.869l-14.397,3.599v29.664H98.88c32.769,0,59.328,26.559,59.328,59.328
				v19.776h425.185V381.748z"/>
			<path style="fill:#61BDC7;" d="M98.88,326.217H59.328c-27.301,0-49.44,22.139-49.44,49.44h44.496
				c16.048,0,31.661,5.201,44.496,14.832c11.243,8.336,24.611,13.309,38.563,14.357c1.978,0.158,3.955,0.475,5.933,0.475h14.832
				v-19.776C158.209,352.786,131.649,326.217,98.88,326.217z"/>
			<path style="fill:#697B8C;" d="M316.417,207.561h177.985c10.926,0,19.776,8.85,19.776,19.776v19.776l0,0H296.641l0,0v-19.776
				C296.641,216.42,305.491,207.561,316.417,207.561z"/>
			<path style="fill:#61BDC7;" d="M177.985,405.321L177.985,405.321c5.814,23.247,26.698,39.552,50.656,39.552h106.336
				c23.959,0,44.842-16.305,50.656-39.552H177.985z"/>
			<rect x="405.409" y="276.777" style="fill:#61BDC7;" width="108.768" height="19.776"/>
			<circle style="fill:#D0D7DF;" cx="79.104" cy="415.209" r="19.776"/>
			<path style="fill:#576573;" d="M533.064,405.321h-41.401c3.649,6.091,3.649,13.685,0,19.776h41.401
				C534.25,418.561,534.25,411.867,533.064,405.321z"/>
			<path style="fill:#576573;" d="M454.849,415.209c0.02-3.481,0.969-6.892,2.739-9.888h-41.401c-1.187,6.536-1.187,13.24,0,19.776
				h41.401C455.819,422.101,454.869,418.69,454.849,415.209z"/>
			<path style="fill:#C3C9D1;" d="M454.849,415.209c0.02,3.481,0.969,6.892,2.739,9.888h34.074c3.649-6.091,3.649-13.685,0-19.776
				h-34.074C455.819,408.317,454.869,411.729,454.849,415.209z"/>
			<path d="M583.394,286.665c0-5.458-4.43-9.888-9.888-9.888h-49.44v-49.44c0-16.384-13.28-29.664-29.664-29.664H316.417
				c-16.384,0-29.664,13.28-29.664,29.664v19.776c0,31.286,19.4,39.552,29.664,39.552h4.944c19.114,0,34.608,15.495,34.608,34.608
				c0,19.114-15.495,34.608-34.608,34.608H219.119c-3.54,0.01-6.813-1.879-8.583-4.944l-32.255-56.49l9.532-85.798
				c0.04-0.356,0.059-0.722,0.059-1.088c0.722-15.939-5.221-31.454-16.414-42.825c6.803-3.421,12.034-9.324,14.595-16.503h31.483
				v-19.776h-31.483c-4.173-11.806-15.317-19.727-27.845-19.776h-49.44c-5.458,0-9.888,4.42-9.888,9.888
				c0,1.533,0.356,3.055,1.038,4.42l19.776,39.552c1.444,2.818,4.153,4.766,7.278,5.251l-13.843,91.662
				c-1.938,11.648-10.6,21.042-22.06,23.909l-14.397,3.599c-4.39,1.117-7.456,5.063-7.456,9.591v19.776h-9.888
				C26.579,316.359,0.03,342.908,0,375.657c0,5.458,4.43,9.888,9.888,9.888h6.754c-16.473,34.499-1.859,75.812,32.64,92.285
				c34.499,16.473,75.812,1.859,92.285-32.64c4.469-9.364,6.773-19.608,6.754-29.981h22.634
				c9.216,23.83,32.136,39.542,57.687,39.552h106.336c25.551-0.01,48.471-15.722,57.687-39.552h12.746
				c0,38.227,30.989,69.216,69.216,69.216s69.216-30.989,69.216-69.216l0,0h39.552c5.458,0,9.888-4.43,9.888-9.888v-23.573
				c0.03-14.911-3.352-29.625-9.888-43.023V286.665z M563.618,296.553v13.725c-4.638-4.924-9.621-9.512-14.911-13.725H563.618z
				 M306.529,227.337c0-5.458,4.43-9.888,9.888-9.888h177.985c5.458,0,9.888,4.43,9.888,9.888v9.888H306.529V227.337z
				 M124.767,128.456h33.441c5.458,0,9.888,4.43,9.888,9.888s-4.43,9.888-9.888,9.888h-23.553L124.767,128.456z M79.104,464.649
				c-27.261,0.04-49.401-22.021-49.44-49.282c-0.02-10.758,3.481-21.23,9.967-29.822h14.753c4.914,0.069,9.809,0.702,14.585,1.898
				c-15.396,5.597-23.346,22.614-17.739,38.01c5.597,15.396,22.614,23.346,38.01,17.739c11.767-4.272,19.578-15.475,19.529-27.993
				c-0.04-2.808-0.485-5.587-1.315-8.266c1.454,0.663,2.927,1.295,4.43,1.918c1.256,0.494,2.531,0.989,3.807,1.374
				c2.235,0.761,4.499,1.414,6.803,1.978c1.295,0.326,2.591,0.653,3.955,0.92c0.712,0.148,1.394,0.376,2.106,0.494
				c0,0.524,0,0.989,0,1.552C128.535,442.49,106.415,464.63,79.104,464.649z M69.216,415.209c0-5.458,4.43-9.888,9.888-9.888
				c5.458,0,9.888,4.43,9.888,9.888c0,5.458-4.43,9.888-9.888,9.888C73.646,425.097,69.216,420.677,69.216,415.209z M148.32,395.433
				h-4.944c-0.959-0.02-1.928-0.099-2.877-0.227l-2.245-0.218c-12.093-0.89-23.692-5.191-33.441-12.41
				c-14.565-10.877-32.255-16.77-50.429-16.81H21.032c4.529-17.452,20.27-29.644,38.296-29.664H98.88
				c27.291,0.03,49.41,22.149,49.44,49.44V395.433z M334.977,434.985H228.641c-14.545,0.01-28.082-7.456-35.824-19.776h177.985
				C363.059,427.53,349.522,435.005,334.977,434.985z M474.626,464.649c-27.291-0.03-49.411-22.149-49.44-49.44h19.776
				c0,16.384,13.28,29.664,29.664,29.664s29.664-13.28,29.664-29.664h19.776C524.036,442.5,501.917,464.62,474.626,464.649z
				 M464.738,415.209h19.776c0,5.458-4.43,9.888-9.888,9.888C469.167,425.097,464.738,420.677,464.738,415.209z M573.506,395.433
				H168.097v-9.888c-0.04-38.207-31.009-69.177-69.216-69.216h-9.888v-12.053l6.922-1.73c19.153-4.786,33.629-20.508,36.813-39.987
				l13.754-91.296c14.179,5.992,22.901,20.419,21.615,35.765l-9.829,88.439c-0.237,2.076,0.198,4.183,1.246,5.992l33.857,59.259
				c5.29,9.225,15.109,14.921,25.748,14.941h102.242c30.04,0,54.384-24.344,54.384-54.384s-24.344-54.384-54.384-54.384h-4.667
				c-1.305-0.079-6.704-0.989-9.067-9.888H504.29v19.776h-98.88v19.776h106.553c9.71,4.726,61.543,32.383,61.543,85.195V395.433z"/>
			<rect x="405.409" y="316.329" width="59.328" height="19.776"/>
			<rect x="405.409" y="355.881" width="59.328" height="19.776"/>
		</g>
	</g>
</g>
<g>
</g>
<g>
</g>
<g>
</g>
<g>
</g>
<g>
</g>
<g>
</g>
<g>
</g>
<g>
</g>
<g>
</g>
<g>
</g>
<g>
</g>
<g>
</g>
<g>
</g>
<g>
</g>
<g>
</g>
</svg>
