<svg id="Layer_3" height="512" viewBox="0 0 64 64" width="512" xmlns="http://www.w3.org/2000/svg" data-name="Layer 3"><path d="m24 31h20v6h-20z" fill="#f89b1c"/><path d="m25 31h19v5h-19z" fill="#fdb716"/><path d="m5 23h12v20h-12z" fill="#c0cee8"/><path d="m6 24h11v3h-11z" fill="#d6dfef"/><path d="m6 32h11v3h-11z" fill="#d6dfef"/><path d="m2 45a10 10 0 0 0 10 10h42v-4l5-8h1a2 2 0 0 0 2-2v-2h-12l-3 4h-32l-3-4h-10z" fill="#f89b1c"/><path d="m47 43h-32l-3-4h-6v4a10 10 0 0 0 10 10h38v-2l5-8h1a2 2 0 0 0 2-2v-2h-12z" fill="#fdb716"/><path d="m10 9h-2v2h-1v2h1v6h2v-6h1v-2h-1z" fill="#a3b8db"/><path d="m12 14h2v5h-2z" fill="#c0cee8"/><path d="m21 43v-6h23.999l.001 6" fill="#3091d0"/><path d="m37 37h8v6h-8z" fill="#4c4c4c"/><path d="m32 37v-6h12v6z" fill="#93add1"/><path d="m28 31v-6h10v6" fill="#4c4c4c"/><path d="m4 27h14v4h-14z" fill="#4c4c4c"/><path d="m9 23h4v4h-4z" fill="#62c1ea"/><path d="m12 55h42v-4h-49.986a9.972 9.972 0 0 0 7.986 4z" fill="#383838"/><path d="m16 53h38v-2h-43.982a9.947 9.947 0 0 0 5.982 2z" fill="#4c4c4c"/><path d="m8 29h10v-2h-12a2 2 0 0 0 2 2z" fill="#595959"/><path d="m4 19h14v4h-14z" fill="#4c4c4c"/><path d="m8 21h10v-2h-12a2 2 0 0 0 2 2z" fill="#595959"/><path d="m9 24h4v3h-4z" fill="#86ddfa"/><path d="m9 31h4v4h-4z" fill="#62c1ea"/><path d="m9 32h4v3h-4z" fill="#86ddfa"/><path d="m22 37h15v5h-15z" fill="#3bb4e6"/><path d="m38 37h7v5h-7z" fill="#595959"/><path d="m33 31h11v5h-11z" fill="#c0cee8"/><path d="m29 25h9v5h-9z" fill="#595959"/><path d="m62 38h-12a1 1 0 0 0 -.8.4l-2.7 3.6h-.5v-5a1 1 0 0 0 -1-1v-5a1 1 0 0 0 -1-1h-5v-5a1 1 0 0 0 -1-1h-10a1 1 0 0 0 -1 1v5h-3a1 1 0 0 0 -1 1v5h-2a1 1 0 0 0 -1 1v5h-2v-10a1 1 0 0 0 1-1v-4a1 1 0 0 0 -1-1v-2a1 1 0 0 0 1-1v-4a1 1 0 0 0 -1-1h-4v-4h-2v4h-2v-5h1v-2h-1v-2h-2v2h-1v2h1v5h-4a1 1 0 0 0 -1 1v4a1 1 0 0 0 1 1v2a1 1 0 0 0 -1 1v4a1 1 0 0 0 1 1v6h-2a1 1 0 0 0 -1 1v6a11.013 11.013 0 0 0 11 11h42a1 1 0 0 0 1-1v-3.713l4.555-7.287h.445a3 3 0 0 0 3-3v-2a1 1 0 0 0 -1-1zm-18 0v4h-6v-4zm-1-2h-10v-4h10zm-14-10h8v4h-8zm-4 6h6v4h-6zm-3 6h14v4h-14zm-6-4h-2v-2h2zm-11-4v-2h12v2zm7-6v2h-2v-2zm0 8v2h-2v-2zm4-6h-2v-2h2zm-11-6h12v2h-12zm1 4h2v2h-2zm2 8v2h-2v-2zm-2 4h10v6h-.5l-2.7-3.6a1 1 0 0 0 -.8-.4h-6zm6 18a8.958 8.958 0 0 1 -5.645-2h46.645v2zm49-13a1 1 0 0 1 -1 1h-1a1 1 0 0 0 -.848.47l-4.706 7.53h-48.924a8.947 8.947 0 0 1 -1.522-5v-5h8.5l2.7 3.6a1 1 0 0 0 .8.4h32a1 1 0 0 0 .8-.4l2.7-3.6h10.5z"/></svg>