<?xml version="1.0" encoding="iso-8859-1"?>
<!-- Generator: Adobe Illustrator 21.0.0, SVG Export Plug-In . SVG Version: 6.00 Build 0)  -->
<svg version="1.1" id="Capa_1" xmlns="http://www.w3.org/2000/svg" xmlns:xlink="http://www.w3.org/1999/xlink" x="0px" y="0px"
	 viewBox="0 0 593.272 593.272" style="enable-background:new 0 0 593.272 593.272;" xml:space="preserve">
<g>
	<g>
		<g id="filled_outline_6_">
			<rect x="454.84" y="232.369" style="fill:#C3C9D1;" width="98.88" height="158.209"/>
			<polygon style="fill:#C3C9D1;" points="553.72,232.369 454.84,232.369 425.176,212.593 425.176,192.817 583.384,192.817 
				583.384,212.593 			"/>
			<rect x="454.84" y="153.265" style="fill:#C3C9D1;" width="98.88" height="39.552"/>
			<rect x="296.631" y="331.249" style="fill:#F5AE45;" width="118.656" height="59.328"/>
			<rect x="296.631" y="271.921" style="fill:#DD381A;" width="118.656" height="59.328"/>
			<rect x="177.975" y="331.249" style="fill:#ED5B1C;" width="118.656" height="59.328"/>
			<rect x="296.631" y="370.801" style="fill:#F09E26;" width="118.656" height="19.776"/>
			<rect x="177.975" y="370.801" style="fill:#E0561A;" width="118.656" height="19.776"/>
			<rect x="177.975" y="271.921" style="fill:#F5AE45;" width="118.656" height="59.328"/>
			<rect x="59.318" y="271.921" style="fill:#DD381A;" width="118.656" height="59.328"/>
			<rect x="296.631" y="311.473" style="fill:#D03418;" width="118.656" height="19.776"/>
			<rect x="177.975" y="311.473" style="fill:#F09E26;" width="118.656" height="19.776"/>
			<rect x="59.318" y="311.473" style="fill:#D03418;" width="118.656" height="19.776"/>
			<path style="fill:#4394CC;" d="M257.079,390.577l-59.328-59.328H9.878l54.691,76.563c7.05,9.908,12.696,20.745,16.77,32.205
				h502.045v-49.44H257.079z"/>
			<path style="fill:#DD381A;" d="M88.982,479.57H553.72c16.385,0,29.664-13.28,29.664-29.664v-9.888H81.339
				C85.907,452.724,88.478,466.063,88.982,479.57z"/>
			<rect x="454.84" y="173.041" style="fill:#B7BDC4;" width="98.88" height="19.776"/>
			<path d="M583.384,182.929h-19.776v-29.664c0-5.458-4.43-9.888-9.888-9.888h-39.552V123.6h19.776v-19.776h-59.328V123.6h19.776
				v19.776H454.84c-5.458,0-9.888,4.43-9.888,9.888v29.664h-19.776c-5.458,0-9.888,4.43-9.888,9.888v19.776
				c0,3.303,1.651,6.388,4.4,8.227l25.264,16.839v143.03h-19.776V271.921c0-5.458-4.43-9.888-9.888-9.888H59.318
				c-5.458,0-9.888,4.43-9.888,9.888v49.44H9.878c-5.458,0-9.878,4.43-9.878,9.888c0,2.057,0.643,4.064,1.839,5.735l54.681,76.563
				c13.893,19.42,21.744,42.499,22.574,66.359c0.188,5.33,4.558,9.542,9.888,9.542H553.72c21.843,0,39.552-17.709,39.552-39.552
				v-59.328c0-5.458-4.43-9.888-9.888-9.888h-19.776V237.659l25.264-16.81c2.759-1.839,4.41-4.944,4.4-8.257v-19.776
				C593.272,187.349,588.842,182.929,583.384,182.929z M464.728,163.153h79.104v19.776h-79.104V163.153z M306.519,281.809h98.88
				v39.552h-98.88V281.809z M306.519,341.137h98.88v39.552h-98.88V341.137z M187.863,281.809h98.88v39.552h-98.88V281.809z
				 M286.743,341.137v39.552h-25.57l-39.552-39.552H286.743z M69.206,281.809h98.88v39.552h-98.88
				C69.206,321.361,69.206,281.809,69.206,281.809z M553.72,469.682H98.208c-0.702-6.665-1.879-13.28-3.52-19.776h478.808
				C573.496,460.822,564.646,469.682,553.72,469.682z M573.496,400.465v29.664H88.122c-4.094-9.908-9.295-19.321-15.514-28.062
				l-43.517-60.93h164.567l56.431,56.431c1.849,1.859,4.37,2.897,6.991,2.897H573.496z M464.728,380.689V242.257h79.104v138.432
				H464.728z M573.496,207.303l-22.742,15.178h-92.947l-22.742-15.178v-4.598h138.432
				C573.496,202.705,573.496,207.303,573.496,207.303z"/>
			<rect x="484.504" y="262.033" width="39.552" height="19.776"/>
			<rect x="484.504" y="301.585" width="39.552" height="19.776"/>
			<rect x="484.504" y="341.137" width="39.552" height="19.776"/>
			<rect x="168.087" y="360.913" width="19.776" height="19.776"/>
			<rect x="128.535" y="360.913" width="19.776" height="19.776"/>
		</g>
	</g>
</g>
<g>
</g>
<g>
</g>
<g>
</g>
<g>
</g>
<g>
</g>
<g>
</g>
<g>
</g>
<g>
</g>
<g>
</g>
<g>
</g>
<g>
</g>
<g>
</g>
<g>
</g>
<g>
</g>
<g>
</g>
</svg>
