<svg id="Layer_3" height="512" viewBox="0 0 64 64" width="512" xmlns="http://www.w3.org/2000/svg" data-name="Layer 3"><path d="m35 28v-8h-12l-7 8" fill="#4c4c4c"/><path d="m35 28v-6h-11l-5.25 6z" fill="#595959"/><path d="m2 40 2.626 9.192a6.629 6.629 0 0 0 6.374 4.808h37a14 14 0 0 0 14-14z" fill="#f89b1c"/><path d="m5.571 40 2.055 7.192a6.629 6.629 0 0 0 6.374 4.808h37a13.915 13.915 0 0 0 6.193-1.458 13.958 13.958 0 0 0 4.807-10.542z" fill="#fdb716"/><path d="m6 40v-8h43l5 8" fill="#4c4c4c"/><path d="m8 36.376v3.624h46l-4.375-7h-38.249a3.377 3.377 0 0 0 -3.376 3.376z" fill="#595959"/><path d="m9 32-2-4h38l2 4" fill="#fdb716"/><path d="m26 23h9v2h-9z" fill="#4c4c4c"/><path d="m9 28v-4h6v4" fill="#93add1"/><path d="m11 10h2v14h-2z" fill="#595959"/><path d="m41 10h2v14h-2z" fill="#595959"/><path d="m8 44h14v4h-14z" fill="#62c1ea"/><g fill="#86ddfa"><circle cx="45" cy="46" r="2"/><circle cx="53" cy="46" r="2"/><path d="m9 44h13v3h-13z"/></g><path d="m17 44h2v4h-2z" fill="#fdb716"/><path d="m13 44h2v4h-2z" fill="#fdb716"/><path d="m11 40v-4h4l-.001 4" fill="#62c1ea"/><path d="m12 36h3v3h-3z" fill="#86ddfa"/><path d="m19 40v-4h4l-.001 4" fill="#62c1ea"/><path d="m20 36h3v3h-3z" fill="#86ddfa"/><path d="m27 40v-4h4l-.001 4" fill="#62c1ea"/><path d="m28 36h3v3h-3z" fill="#86ddfa"/><path d="m35 40v-4h4l-.001 4" fill="#62c1ea"/><path d="m36 36h3v3h-3z" fill="#86ddfa"/><path d="m43 40v-4h4l-.001 4" fill="#62c1ea"/><path d="m44 36h3v3h-3z" fill="#86ddfa"/><path d="m9 32h38l-1-2h-38z" fill="#f89b1c"/><path d="m10 25a2 2 0 0 0 2 2h3v-3h-5z" fill="#c0cee8"/><path d="m39 28v-4h6v4" fill="#93add1"/><path d="m40 25a2 2 0 0 0 2 2h3v-3h-5z" fill="#c0cee8"/><path d="m62 39h-7.446l-4.706-7.53a1 1 0 0 0 -.848-.47h-1.382l-1.618-3.236v-3.764a1 1 0 0 0 -1-1h-2v-13h-2v13h-2a1 1 0 0 0 -1 1v3h-2v-7a1 1 0 0 0 -1-1h-12a1 1 0 0 0 -.753.341l-6.247 7.14v-2.481a1 1 0 0 0 -1-1h-2v-13h-2v13h-2a1 1 0 0 0 -1 1v3h-1a1 1 0 0 0 -.895 1.447l1.277 2.553h-1.382a1 1 0 0 0 -1 1v7h-3a1 1 0 0 0 -.962 1.275l2.626 9.192a7.663 7.663 0 0 0 7.336 5.533h37a15.017 15.017 0 0 0 15-15 1 1 0 0 0 -1-1zm-22-14h4v2h-4zm-16.546-4h10.546v2h-8v2h8v2h-15.8zm-13.454 4h4v2h-4zm-1.382 4h35.764l1 2h-35.764zm-1.618 4h41.445l3.755 6h-4.2v-3a1 1 0 0 0 -1-1h-4a1 1 0 0 0 -1 1v3h-2v-3a1 1 0 0 0 -1-1h-4a1 1 0 0 0 -1 1v3h-2v-3a1 1 0 0 0 -1-1h-4a1 1 0 0 0 -1 1v3h-2v-3a1 1 0 0 0 -1-1h-4a1 1 0 0 0 -1 1v3h-2v-3a1 1 0 0 0 -1-1h-4a1 1 0 0 0 -1 1v3h-3zm39 6h-2v-2h2zm-8 0h-2v-2h2zm-8 0h-2v-2h2zm-8 0h-2v-2h2zm-8 0h-2v-2h2zm34 14h-37a5.652 5.652 0 0 1 -5.412-4.083l-2.263-7.917h57.637a13.018 13.018 0 0 1 -12.962 12z"/><path d="m8 49h14a1 1 0 0 0 1-1v-4a1 1 0 0 0 -1-1h-14a1 1 0 0 0 -1 1v4a1 1 0 0 0 1 1zm7-2v-2h2v2zm6 0h-2v-2h2zm-12-2h4v2h-4z"/><path d="m45 49a3 3 0 1 0 -3-3 3 3 0 0 0 3 3zm0-4a1 1 0 1 1 -1 1 1 1 0 0 1 1-1z"/><path d="m53 49a3 3 0 1 0 -3-3 3 3 0 0 0 3 3zm0-4a1 1 0 1 1 -1 1 1 1 0 0 1 1-1z"/></svg>