<svg id="Filled" height="512" viewBox="0 0 512 512" width="512" xmlns="http://www.w3.org/2000/svg"><path d="m456 152-40 32h-320l-40-32c-32-8-32 24-32 24v25.282a32 32 0 0 0 11.175 24.3l44.825 38.418h352l44.825-38.422a32 32 0 0 0 11.175-24.296v-25.282s0-32-32-24z" fill="#f3db70"/><circle cx="120" cy="312" fill="#e74444" r="48"/><path d="m488 176-64 56h-336l-64-56s0-32 32-24l40 32h320l40-32c32-8 32 24 32 24z" fill="#6a7073"/><circle cx="120" cy="312" fill="#e0e2e5" r="16"/><circle cx="392" cy="312" fill="#e74444" r="48"/><circle cx="392" cy="312" fill="#e0e2e5" r="16"/><path d="m483.728 148.58c-7.569-5.91-17.55-7.371-29.668-4.341a8 8 0 0 0 -3.06 1.514l-37.806 30.247h-314.388l-37.806-30.247a8 8 0 0 0 -3.058-1.514c-12.117-3.031-22.1-1.569-29.668 4.341-11.93 9.313-12.274 25.594-12.274 27.42v25.282a39.95 39.95 0 0 0 13.968 30.37l44.825 38.422a8.008 8.008 0 0 0 5.207 1.926h.862a56 56 0 1 0 78.276 0h193.724a56 56 0 1 0 78.276 0h.862a8.008 8.008 0 0 0 5.207-1.926l44.824-38.422a39.948 39.948 0 0 0 13.969-30.37v-25.282c0-1.826-.344-18.107-12.272-27.42zm-445.609 12.611c3.213-2.508 8.02-3.115 14.308-1.8l38.573 30.856a8 8 0 0 0 5 1.753h320a8 8 0 0 0 5-1.753l38.575-30.86c6.256-1.3 11.048-.712 14.26 1.766 3.6 2.78 5.2 7.864 5.823 11.518l-58.664 51.329h-329.988l-58.648-51.317c.567-3.395 2.025-8.574 5.761-11.492zm121.881 150.809a40 40 0 1 1 -40-40 40.045 40.045 0 0 1 40 40zm272 0a40 40 0 1 1 -40-40 40.045 40.045 0 0 1 40 40zm39.619-92.5-42.578 36.5h-346.082l-42.578-36.5a23.972 23.972 0 0 1 -8.381-18.218v-7.652l50.732 44.391a8 8 0 0 0 5.268 1.979h336a8 8 0 0 0 5.268-1.979l50.732-44.391v7.652a23.972 23.972 0 0 1 -8.381 18.218z"/><path d="m120 336a24 24 0 1 0 -24-24 24.027 24.027 0 0 0 24 24zm0-32a8 8 0 1 1 -8 8 8.009 8.009 0 0 1 8-8z"/><path d="m392 336a24 24 0 1 0 -24-24 24.027 24.027 0 0 0 24 24zm0-32a8 8 0 1 1 -8 8 8.009 8.009 0 0 1 8-8z"/></svg>