<svg height="512" viewBox="0 0 60 61" width="512" xmlns="http://www.w3.org/2000/svg"><g id="011---Snail" fill="none"><g id="Icons" transform="translate(0 2)"><path id="Shape" d="m59 58c-47 0-51.53 1.11-54.89-6-2.88-6.11-3.11-33-3.11-40-.037662-1.6246423.13033815-3.24752373.5-4.83l16.5.83c.5406152 1.62282695.5406152 3.377173 0 5-1.87 4.8-5 11.07-5 17l30.62 18.88c2.4982117.566146 4.9621926 1.2739562 7.38 2.12 3.4783323 1.1993258 6.3495621 3.7116519 8 7z" fill="#ffeb3a"/><path id="Shape" d="m59 58h-4c-1.6504379-3.2883481-4.5216677-5.8006742-8-7-10.29-3.46-8.26-1.49-3.38-2.12 2.4982117.566146 4.9621926 1.2739562 7.38 2.12 3.4783323 1.1993258 6.3495621 3.7116519 8 7z" fill="#fdd834"/><path id="Shape" d="m10 2v6c-1.29129122 1.72172163-3.53942813 2.4239867-5.58113883 1.74341649-2.0417107-.68057023-3.41886117-2.59126445-3.41886117-4.74341649s1.37715047-4.06284626 3.41886117-4.74341649 4.28984761.02169486 5.58113883 1.74341649z" fill="#f5f5f5"/><path id="Shape" d="m58.42 30.94c-.19 13.24-13.68 22.79-24.88 15.74h-.1c-2.5241837 1.5559782-5.4890862 2.2409972-8.44 1.95-2.3753532-.2832841-4.6219782-1.2332459-6.48-2.74-1.3471293-1.6641106-2.4545523-3.5086937-3.29-5.48-4.37-10-1-17-1-17.15 3.4-8.72 14-15.06 25-13.26 10.57 1.64 19.47 10.45 19.19 20.94z" fill="#d84315"/><path id="Shape" d="m55.42 30.94c-.14 9.79-7.73 17.54-15.32 18-2.3300615-.2379981-4.5743775-1.0077711-6.56-2.25-.1.07-.85.48-1.54.8-.5043148-.2331116-.9921169-.5004004-1.46-.8-.6809492.3786486-1.385765.7126845-2.11 1-1.1058476.4511341-2.2655099.757016-3.45.91-2.3753532-.2832841-4.6219782-1.2332459-6.48-2.74-3.6319309-4.6545374-5.57161-10.4065677-5.5-16.31.33-11.31 10.5-19.18 21-19.8.7774071.03979263 1.5519625.12325765 2.32.25 10.36 1.62 19.39 10.35 19.1 20.94z" fill="#ff5722"/><circle id="Oval" cx="14" cy="5" fill="#f5f5f5" r="5"/></g><g id="Layer_10" fill="#000" transform="translate(-1)"><path id="Shape" d="m52.32 52.05c-1.33-.44-2.55-.83-3.72-1.18 3.226898-1.2995222 6.0063675-3.5092005 8-6.36l.09-.12c2.6164484-3.6727283 3.9294197-8.1150065 3.73-12.62.0147736-.0927487.0147736-.1872513 0-.28-1-17.67-24-27.52-39.32-15.42-1.89 1.48-2.28 2.13-2.19 1.93.39-.94.75-1.82 1.07-2.63.5912167-1.6812857.6505709-3.5038093.17-5.22 1.6156806-2.54723175 1.0890663-5.89798874-1.2300834-7.82681165-2.3191498-1.9288229-5.7097662-1.8360031-7.9199166.21681165-1.10072427-.98426842-2.52341127-1.53200291-4-1.54-1.9937802.00600866-3.85434206 1.00202052-4.96491918 2.65786293-1.11057711 1.6558424-1.32608383 3.75519633-.57508082 5.60213707-.33615163 1.5568898-.4905172 3.1475263-.46 4.74 0 7.89.23 34.12 3.21 40.43 2.16 4.57 4.79 6.57 20.9 6.57h34.89c.3379353.0011786.6536053-.1683999.839193-.450816s.215984-.6394602.080807-.949184c-1.7562881-3.5542733-4.8482376-6.2687173-8.6-7.55zm-26.86-36.49c.5350517 1.3938203 1.6822334 2.4635395 3.11 2.9 1.1486847.285412 2.1247068 1.0401057 2.69 2.08.2285133.6526015.1999079 1.3677354-.08 2-.1607721.3103299-.1478593.6820792.0340582.9805056s.5064396.4802221.8559418.4794944c.3743567.0007787.7177963-.2076004.89-.54.5377601-1.1390927.598948-2.4456345.17-3.63-.7507643-1.6025127-2.1706703-2.791867-3.88-3.25-.9630636-.2344438-1.7264591-.9673034-2-1.92 3.4202586-1.5000795 7.1551625-2.1420161 10.88-1.87-.0101776 1.3702781.5645774 2.6798464 1.58 3.6.8967304.7480059 1.4434231 1.8341502 1.51 3-.0685026.6906197-.4061961 1.3264895-.94 1.77-.3458615.2593505-.4859111.7115821-.3471606 1.12101.1387506.4094278.524883.6833422.9571606.67899.2163702 0 .4269038-.0701779.6-.2.9749845-.7920868 1.5940037-1.9401515 1.72-3.19.013065-1.7509438-.7393924-3.4202303-2.06-4.57-.5729008-.5172524-.9299386-1.2313279-1-2 3.8742512.6132337 7.5250279 2.2147537 10.6 4.65-.25634.9191284-.25634 1.8908716 0 2.81.3902959 1.1721381.2780828 2.4535391-.31 3.54-.3799921.5178035-.9400963.8745578-1.57 1-.5522847.071797-.941797.5777153-.87 1.13s.5777153.941797 1.13.87c1.1833168-.2042057 2.2391037-.8649703 2.94-1.84 1.54-2.22.55-4.91.5-5.89 3.3685168 3.1309296 5.4354901 7.414812 5.79 12-.4428415.3691974-.8301569.8002963-1.15 1.28-.582543 1.0740532-1.580224 1.8620766-2.76 2.18-.638903.0912269-1.2882028-.0702013-1.81-.45-.4252593-.3534622-1.0565377-.2952592-1.4099999.13-.3534623.4252593-.2952593 1.0565377.1299999 1.41.7809642.6066956 1.7410727.9372824 2.73.94 1.6987147-.0914939 3.2599201-.962521 4.23-2.36-.2864258 3.0865373-1.3607417 6.0477927-3.12 8.6-1.24.32-2.73.83-4 .12-.5565161-.3138889-.9663161-.8351258-1.14-1.45-.0750258-.3572656-.3349514-.6473668-.6818653-.7610254-.346914-.1136586-.7281118-.033607-1 .21s-.3931605.6137598-.3181347.9710254c.2935413 1.1544977 1.0396702 2.1421272 2.07 2.74.7732792.4389357 1.6510563.6601079 2.54.64h.45c-1.5313075 1.6268549-3.4166926 2.879216-5.51 3.66-1.0802322-.2473751-2.0206826-.9078441-2.62-1.84-.2798998-.5844706-.3228994-1.2545476-.12-1.87.0983792-.246631.0946309-.5222628-.0104184-.7661274-.1050494-.2438647-.3027739-.4359375-.5495816-.5338726-.246631-.0983792-.5222628-.0946309-.7661274.0104184-.2438647.1050494-.4359375.3027739-.5338726.5495816-.398514 1.1311095-.3374764 2.3734044.17 3.46.3527461.6977227.8670079 1.3011233 1.5 1.76-2.8238977.4163927-5.7077877-.0224602-8.28-1.26-.1996835-1.0503408.2906573-2.1114061 1.22-2.64.4747607-.2638397.6521157-.858402.3994827-1.3392197s-.8428725-.6720677-1.3294827-.4307803c-1.1852474.6670653-2.0023184 1.8374643-2.22 3.18-2.1865832-1.4504661-3.8648928-3.5483531-4.8-6 .6368309-.4185764 1.4341156-.5112839 2.15-.25.5080961.2071349 1.0881994-.033831 1.3-.54.2149432-.5081056-.0222174-1.0942949-.53-1.31-1.120162-.4157437-2.3585974-.3762573-3.45.11-.3833001-2.3285403-.0338691-4.7186482 1-6.84.3553795.2592753.6406232.6029425.83 1 .2170198.4894924.7810923.7211857 1.2795229.5255651.4984305-.1956206.7543315-.7491314.5804771-1.2555651-.350199-.8090432-.922249-1.5024372-1.65-2 5.86-7.94 16.72-2.92 15.86 4.36-.44 3.75-3.89 6.66-7.55 5.41-2.0204254-.6009439-3.3593558-2.5160705-3.23-4.62.38-3.28 4-4.39 5.73-2.18.3424165.436305.973695.5124165 1.41.17s.5124165-.973695.17-1.41c-.8194144-1.045442-2.0211436-1.7218644-3.34-1.88-4.71-.57-7.92 5.43-4.71 9.51 2.4955152 3.1528158 7.0726041 3.6897178 10.23 1.2 1.8390677-1.4526146 3.0252354-3.5767379 3.2972093-5.9044598.271974-2.327722-.3925577-4.6680833-1.8472093-6.5055402-4.5-5.75-13.69-5.8-18.2 1.64 0 0 0 .06-.06.09-3.43 5.71-2.29 13.14 3.71 17.82-4.047854 1.9866923-8.8789835 1.4568264-12.4-1.36-.8900247-1.1094211-1.6609296-2.3093513-2.3-3.58.83-.76 1.82-2.51 3.5-2.61.6935441-.0140037 1.3649289.2444974 1.87.72.3838379.397645 1.017355.4088379 1.415.025s.4088379-1.017355.025-1.415c-.9114156-.8904106-2.1464805-1.3707137-3.42-1.33-1.761216.2158833-3.3433619 1.1819401-4.34 2.65-1.0000909-2.3681331-1.6405032-4.8724821-1.9-7.43 2.68.71 4.15-1.33 6.31-.65.7654067.2777276 1.3547934.9004759 1.59 1.68.0893164.3465476.3567291.6191211.7015064.7150446.3447772.0959236.7145391.0006241.97-.25.2554608-.250624.35781-.618497.2684936-.9650446-.4352902-1.4559927-1.5559643-2.6065516-3-3.08-1.461985-.3813756-3.011281-.2398873-4.38.4-.8163569.3829638-1.7657906.3570027-2.56-.07.0019954-3.0258889.7801252-6.0006861 2.26-8.64.968214 1.1257881 2.4080337 1.7328072 3.89 1.64 1.1742762-.1565773 2.3582347.208842 3.24 1 .4430033.5302082.6650082 1.2105459.62 1.9-.0690356.5522847.3227153 1.0559644.875 1.125.5522847.0690355 1.0559644-.3227153 1.125-.875.1120741-1.2524836-.2802715-2.4979109-1.09-3.46-1.2367792-1.2222305-2.9476737-1.8400535-4.68-1.69-1.1274196.1540256-2.2354088-.3920548-2.8-1.38 1.8660332-2.5115227 4.2629447-4.5806514 7.02-6.06zm-10.46-12.56c2.209139 0 4 1.790861 4 4s-1.790861 4-4 4-4-1.790861-4-4 1.790861-4 4-4zm-5.26 1.12c-.9818521 1.7944748-.9818521 3.9655252 0 5.76-1.57679799 1.5198013-4.08258884 1.4890551-5.62162165-.06897759-1.5390328-1.55803267-1.5390328-4.06401215 0-5.62204482 1.53903281-1.55803266 4.04482366-1.58877885 5.62162165-.06897759zm-3.74 49.45c-2.73-5.79-3.34-37.43-2.9-42 2.28927668 1.9469501 5.66581919 1.899935 7.9-.11 2.050744 1.8384199 5.0897435 2.0445936 7.37.5.0965387.9045213-.0058521 1.8192123-.3 2.68-2.19 5.63-5.17 11.36-5.07 18 .1500876 5.7800424 2.1633879 11.3569545 5.74 15.9l.09.09c4.4794715 3.6017703 10.7112488 4.0823599 15.69 1.21 3.0351024 1.7150948 6.5387152 2.4158173 10 2 2.4251631.585607 4.8155818 1.3067389 7.16 2.16 2.6753626.9130547 4.9835981 2.6670331 6.58 5-45.53 0-49.26.92-52.26-5.43z"/><circle id="Oval" cx="14" cy="7" r="1"/><circle id="Oval" cx="6" cy="7" r="1"/></g></g></svg>