<svg height="512" viewBox="0 0 64 64" width="512" xmlns="http://www.w3.org/2000/svg"><g id="_22-The_snail" data-name="22-The snail"><circle cx="7" cy="13" fill="#ffac5a" r="2"/><circle cx="14" cy="13" fill="#ffac5a" r="2"/><path d="m24 30a57.584 57.584 0 0 0 5 4c4 3 4 11 10 11s11-4 11-4a7.243 7.243 0 0 0 5.08-1.79c.42 1.06 2.59 5.79 7.92 5.79 0 0-3 5-19 5h-33a1.959 1.959 0 0 1 -2-2c0-2 5-3 5-5s.55-6.45-2-9c-2-2-4 0-6 0s-5-2-5-8c0-7 9-7 9-7 8 0 6 7 9 9s5 2 5 2z" fill="#ffe4c2"/><path d="m10 23c8 0 6 7 9 9s5 2 5 2a57.584 57.584 0 0 0 5 4c4 3 4 11 10 11s11-4 11-4a7.243 7.243 0 0 0 5.08-1.79 10.053 10.053 0 0 0 3.706 4.59c3.332-1.339 4.214-2.8 4.214-2.8-5.33 0-7.5-4.73-7.92-5.79a7.243 7.243 0 0 1 -5.08 1.79s-5 4-11 4-6-8-10-11a57.584 57.584 0 0 1 -5-4s-2 0-5-2-1-9-9-9c0 0-9 0-9 7a14.682 14.682 0 0 0 .194 2.417c1.254-5.401 8.806-5.417 8.806-5.417z" fill="#f2d1a5"/><path d="m59 20s4 0 4 2c0 0 0 4-2 6-3-5-2-8-2-8z" fill="#e3b79d"/><path d="m61 26a14.3 14.3 0 0 1 -2.09-5.581c-.155.981-.261 3.663 2.09 7.581 2-2 2-6 2-6a1.3 1.3 0 0 0 -.12-.533 8.156 8.156 0 0 1 -1.88 4.533z" fill="#cfa388"/><path d="m55 18s4 0 4 2c0 0-1 3 2 8 0 0 0 4-3 4-6-6-3-14-3-14z" fill="#bf947a"/><path d="m58.843 19.375a8.639 8.639 0 0 0 .067 1.044 3.227 3.227 0 0 1 .09-.419 1.3 1.3 0 0 0 -.157-.625z" fill="#a07964"/><path d="m58 30a12.6 12.6 0 0 1 -3.715-8.273 12.928 12.928 0 0 0 3.715 10.273c3 0 3-4 3-4-.087-.144-.159-.281-.239-.422a2.873 2.873 0 0 1 -2.761 2.422z" fill="#a07964"/><path d="m51 16s3 0 4 2c0 0-3 8 3 14 0 0 0 4.59-2.92 7.21a7.243 7.243 0 0 1 -5.08 1.79s-5-3-5-11 6-14 6-14z" fill="#b2876d"/><path d="m55.08 35.21a7.243 7.243 0 0 1 -5.08 1.79s-4.115-2.49-4.87-8.942a16.237 16.237 0 0 0 -.13 1.942c0 8 5 11 5 11a7.243 7.243 0 0 0 5.08-1.79c2.92-2.62 2.92-7.21 2.92-7.21-.211-.211-.385-.429-.575-.644a8.575 8.575 0 0 1 -2.345 3.854z" fill="#936a58"/><path d="m54.339 17.148a15 15 0 0 0 .049 3.557 13.791 13.791 0 0 1 .612-2.705 2.856 2.856 0 0 0 -.661-.852z" fill="#936a58"/><path d="m51 16s-6 6-6 14 5 11 5 11-5 4-11 4-6-8-10-11a57.584 57.584 0 0 1 -5-4s-3-20 14-20c0 0 13 0 13 6z" fill="#a37862"/><path d="m47.557 38.574a18.2 18.2 0 0 1 -8.557 2.426c-6 0-6-8-10-11a57.584 57.584 0 0 1 -5-4s-.076-.51-.135-1.363a27.481 27.481 0 0 0 .135 5.363 57.584 57.584 0 0 0 5 4c4 3 4 11 10 11s11-4 11-4a9.491 9.491 0 0 1 -2.443-2.426z" fill="#966857"/><path d="m45 26a17.5 17.5 0 0 0 .13 2.058 22.879 22.879 0 0 1 5.87-12.058 3.8 3.8 0 0 0 -1.126-2.7c-1.736 2.177-4.874 6.907-4.874 12.7z" fill="#966857"/><path d="m39 46c-4.261 0-5.94-3.443-7.422-6.481-.923-1.894-1.795-3.682-3.178-4.719a57.96 57.96 0 0 1 -5.107-4.093 1 1 0 0 1 -.282-.559c-.064-.423-1.494-10.438 3.8-16.583 2.606-3.029 6.372-4.565 11.189-4.565.545 0 12.78.072 13.916 6.079a5.49 5.49 0 0 1 3.652 1.937c1.777.1 3.632.678 4.232 2.015 2.086.169 4.2 1.007 4.2 2.969 0 .173-.024 4.083-2.015 6.406-.106 1.575-.844 3.942-3.023 4.482-.292 3.512-2.34 8.917-8.618 9.112-1.176.861-5.815 4-11.344 4zm-14.053-16.487c.489.433 1.8 1.545 4.653 3.687 1.769 1.327 2.79 3.418 3.776 5.442 1.402 2.875 2.613 5.358 5.624 5.358 5.585 0 10.328-3.743 10.375-3.781a1 1 0 0 1 .625-.219c6.891 0 7-7.675 7-8a1 1 0 0 1 1-1c1.959 0 2-2.881 2-3a1 1 0 0 1 .293-.7c1.678-1.685 1.707-5.266 1.707-5.3 0-.6-1.777-1-3-1a1 1 0 0 1 -1-1c0-.605-1.777-1-3-1a1 1 0 0 1 -.894-.553c-.697-1.392-3.085-1.447-3.106-1.447a1 1 0 0 1 -1-1c0-4.1-8.662-5-12-5-4.209 0-7.465 1.3-9.676 3.87-4.193 4.869-3.57 12.901-3.377 14.643z"/><path d="m49.485 41.857c-.223-.134-5.485-3.388-5.485-11.857 0-8.318 6.036-14.45 6.293-14.707l1.415 1.413c-.058.058-5.708 5.82-5.708 13.294 0 7.286 4.334 10.032 4.519 10.146z"/><path d="m57.293 32.707c-6.382-6.382-3.361-14.707-3.23-15.059l1.874.7-.937-.348.937.35c-.112.3-2.687 7.486 2.77 12.943z"/><path d="m60.143 28.515c-3.2-5.333-2.138-8.691-2.091-8.831l1.9.632-.952-.316.953.3c-.009.026-.776 2.714 1.9 7.181z"/><path d="m44 51h-33a2.916 2.916 0 0 1 -3-3c0-1.566 1.586-2.518 2.985-3.357.754-.453 2.015-1.209 2.015-1.643 0-.278.01-.6.021-.961.069-2.162.172-5.431-1.728-7.332-.857-.857-1.57-.671-2.977-.2a7.264 7.264 0 0 1 -2.316.493c-2.075 0-6-1.881-6-9 0-6.328 6.541-8 10-8 5.915 0 7.114 3.613 7.99 6.252.429 1.291.8 2.405 1.565 2.916a9.5 9.5 0 0 0 4.456 1.832l-.011 2c-.235 0-2.394-.061-5.555-2.168-1.339-.893-1.854-2.446-2.353-3.95-.869-2.619-1.62-4.882-6.092-4.882-.325 0-8 .091-8 6 0 5.537 2.616 7 4 7a5.733 5.733 0 0 0 1.684-.394c1.374-.458 3.252-1.085 5.023.687 2.514 2.513 2.388 6.455 2.314 8.81-.011.335-.021.637-.021.9 0 1.566-1.586 2.518-2.985 3.357-.754.45-2.015 1.206-2.015 1.64a.918.918 0 0 0 1.012 1h32.988c9.891 0 14.618-1.95 16.7-3.292a10.173 10.173 0 0 1 -6.647-6.392l1.9-.634c.068.218 1.86 5.318 7.047 5.318a1 1 0 0 1 .857 1.515c-.134.223-3.479 5.485-19.857 5.485z"/><path d="m14 16a3 3 0 1 1 3-3 3 3 0 0 1 -3 3zm0-4a1 1 0 1 0 1 1 1 1 0 0 0 -1-1z"/><path d="m7 16a3 3 0 1 1 3-3 3 3 0 0 1 -3 3zm0-4a1 1 0 1 0 1 1 1 1 0 0 0 -1-1z"/><path d="m13.707 20.707-1.414-1.414 3.293-3.293-1.293-1.293 1.414-1.414 2 2a1 1 0 0 1 0 1.414z"/><path d="m11 19h-2v-2.586l-1.707-1.707 1.414-1.414 2 2a1 1 0 0 1 .293.707z"/><path d="m5 23h2v2h-2z"/><path d="m11 23h2v2h-2z"/><path d="m40.052 34.316c-3.159-9.477 3.937-16.719 4.241-17.023l1.415 1.413c-.065.065-6.521 6.691-3.76 14.978z"/><path d="m41.5 35.882h2v2.236h-2z" transform="matrix(.894 -.447 .447 .894 -12.06 22.913)"/><path d="m1 47h8v2h-8z"/><path d="m33 53h18v2h-18z"/><path d="m53 53h2v2h-2z"/></g></svg>