<svg id="Artboard_30" height="512" viewBox="0 0 64 64" width="512" xmlns="http://www.w3.org/2000/svg" data-name="Artboard 30"><path d="m15.028 50a27 27 0 1 1 33.944 0z" fill="#81b4fc"/><path d="m36.5 2.381a27 27 0 0 0 -12.472 47.619h24.944a27 27 0 0 0 -12.472-47.619z" fill="#b3d2fd"/><path d="m15 32h34v10.68h-34z" fill="#b5b1a5"/><rect fill="#b5b4b4" height="8" rx="2" width="48" x="8" y="54"/><path d="m53 54c0-2.209-1.393-4-3.111-4h-35.778c-1.718 0-3.111 1.791-3.111 4z" fill="#e5e5e5"/><g fill="#b73329"><path d="m23 21h18l-9-9z"/><path d="m26 26h-10.286l-1.714 6h12z"/><path d="m38 26h10.286l1.714 6h-12z"/></g><circle cx="19" cy="14" fill="#fafafa" r="2"/><circle cx="52" cy="22" fill="#fafafa" r="2"/><path d="m41 41v-3.5a2.5 2.5 0 0 1 2.5-2.5 2.5 2.5 0 0 1 2.5 2.5v4.5z" fill="#77787c"/><circle cx="13" cy="21" fill="#fafafa" r="2"/><path d="m49.457 15.609a21.862 21.862 0 0 0 -17.457-8.609v-2a23.844 23.844 0 0 1 19.042 9.391z" fill="#f0f6ff"/><path d="m26 21h12v20.327h-12z" fill="#d9d5ca"/><path d="m29 40.082v-7.082a3 3 0 0 1 3-3 3 3 0 0 1 3 3v7.081z" fill="#77787c"/><path d="m18 42v-4.5a2.5 2.5 0 0 1 2.5-2.5 2.5 2.5 0 0 1 2.5 2.5v4.5z" fill="#77787c"/><path d="m9.445 43.831a27.155 27.155 0 0 0 5.583 6.169h33.944a27.113 27.113 0 0 0 5.587-6.175 55.115 55.115 0 0 0 -45.114.006z" fill="#ffc239"/><path d="m16.878 41.127a27.1 27.1 0 0 0 7.15 8.873h24.944c.491-.4.962-.816 1.423-1.246.1-.1.209-.2.313-.3.43-.415.851-.84 1.253-1.283.017-.019.036-.037.053-.056q.693-.768 1.328-1.587.639-.825 1.215-1.7a55.147 55.147 0 0 0 -37.679-2.701z" fill="#ffd55d"/><path d="m60 29a28 28 0 1 0 -47.262 20.308 4.813 4.813 0 0 0 -2.655 3.692h-.083a3 3 0 0 0 -3 3v4a3 3 0 0 0 3 3h44a3 3 0 0 0 3-3v-4a3 3 0 0 0 -3-3h-.083a4.813 4.813 0 0 0 -2.655-3.692 27.864 27.864 0 0 0 8.738-20.308zm-28-26a26.008 26.008 0 0 1 22.177 39.581q-2.064-.893-4.177-1.615v-7.966a1 1 0 0 0 .961-1.275l-1.714-6a1 1 0 0 0 -.961-.725h-9.286v-3h2a1 1 0 0 0 .707-1.707l-9-9a1 1 0 0 0 -1.414 0l-9 9a1 1 0 0 0 .707 1.707h2v3h-9.286a1 1 0 0 0 -.961.725l-1.714 6a1 1 0 0 0 .961 1.275v7.971q-2.112.72-4.174 1.616a26.008 26.008 0 0 1 22.174-39.587zm13 36.527q-1.494-.357-3-.632v-1.395a1.5 1.5 0 0 1 3 0zm-1.5-5.527a3.5 3.5 0 0 0 -3.5 3.5v1.066c-.333-.048-.666-.091-1-.133v-5.433h9v7.333c-.333-.1-.665-.2-1-.3v-2.533a3.5 3.5 0 0 0 -3.5-3.5zm-9.5 4.028q-2-.07-4 0v-5.028a2 2 0 0 1 4 0zm-2-9.028a4 4 0 0 0 -4 4v5.138c-.333.024-.667.049-1 .079v-16.217h10v16.216c-.333-.03-.667-.056-1-.079v-5.137a4 4 0 0 0 -4-4zm-10 9.9q-1.508.275-3 .632v-2.032a1.5 1.5 0 0 1 3 0zm-1.5-4.9a3.5 3.5 0 0 0 -3.5 3.5v2.54c-.335.093-.667.2-1 .3v-7.34h9v5.436c-.334.042-.667.084-1 .132v-1.068a3.5 3.5 0 0 0 -3.5-3.5zm18.5-3v-4h8.531l1.143 4zm-13.586-11 6.586-6.586 6.586 6.586zm-.414 11h-9.674l1.143-4h8.531zm-14.036 13.277a53.858 53.858 0 0 1 42.077-.006 26.161 26.161 0 0 1 -4.441 4.729h-33.2a26.134 26.134 0 0 1 -4.436-4.723zm44.036 11.723v4a1 1 0 0 1 -1 1h-44a1 1 0 0 1 -1-1v-4a1 1 0 0 1 1-1h44a1 1 0 0 1 1 1zm-42.866-3c.3-1.15 1.079-2 1.977-2h35.778c.9 0 1.679.85 1.977 2z"/><path d="m19 17a3 3 0 1 0 -3-3 3 3 0 0 0 3 3zm0-4a1 1 0 1 1 -1 1 1 1 0 0 1 1-1z"/><path d="m49 22a3 3 0 1 0 3-3 3 3 0 0 0 -3 3zm3-1a1 1 0 1 1 -1 1 1 1 0 0 1 1-1z"/><path d="m13 24a3 3 0 1 0 -3-3 3 3 0 0 0 3 3zm0-4a1 1 0 1 1 -1 1 1 1 0 0 1 1-1z"/><path d="m49.457 15.609 1.585-1.218a23.844 23.844 0 0 0 -19.042-9.391v2a21.862 21.862 0 0 1 17.457 8.609z"/></svg>