<?xml version="1.0" encoding="iso-8859-1"?>
<!-- Generator: Adobe Illustrator 19.0.0, SVG Export Plug-In . SVG Version: 6.00 Build 0)  -->
<svg xmlns="http://www.w3.org/2000/svg" xmlns:xlink="http://www.w3.org/1999/xlink" version="1.1" id="Layer_1" x="0px" y="0px" viewBox="0 0 512.009 512.009" style="enable-background:new 0 0 512.009 512.009;" xml:space="preserve">
<ellipse transform="matrix(-0.7071 0.7071 -0.7071 -0.7071 733.5781 -20.3774)" style="fill:#00838F;" cx="371.009" cy="141.74" rx="20.907" ry="41.814"/>
<path d="M390.859,183.291c-12.152,0-27.29-7.322-40.705-20.736c-8.815-8.815-15.446-18.961-18.646-28.57  c-3.866-11.606-2.5-21.496,3.857-27.845l0,0l0,0l0,0c6.349-6.357,16.239-7.706,27.845-3.857c9.609,3.2,19.755,9.822,28.579,18.646  c20.293,20.293,26.642,44.545,14.78,56.415C402.55,181.363,397.097,183.291,390.859,183.291z M351.102,117.199  c-1.801,0-3.046,0.393-3.661,0.998c0,0,0,0,0,0.009c-1.195,1.186-1.579,4.856,0.265,10.377c2.347,7.04,7.646,15.027,14.515,21.905  c14.584,14.592,29.184,17.878,32.282,14.78c3.081-3.081-0.188-17.681-14.78-32.282c-6.887-6.878-14.865-12.169-21.905-14.515  C355.104,117.566,352.851,117.199,351.102,117.199z"/>
<path d="M378.366,142.877c-2.185,0-4.369-0.836-6.033-2.5c-3.337-3.337-3.337-8.73,0-12.066l44.732-44.741  c3.337-3.337,8.73-3.337,12.066,0c3.337,3.337,3.337,8.73,0,12.066l-44.732,44.741C382.735,142.04,380.551,142.877,378.366,142.877z  "/>
<path style="fill:#00838F;" d="M484.198,72.45l-44.289,28.587l-29.611-29.611l28.587-44.289  c7.424-11.99,20.719-19.064,34.817-18.518c6.972,0.358,13.56,3.277,18.518,8.192l2.304,2.304  C508.945,33.537,503.911,59.82,484.198,72.45z"/>
<path style="fill:#00BCD4;" d="M459.281,56.748l-38.657,25.003l-10.326-10.326l28.587-44.289  c7.424-11.99,20.719-19.064,34.817-18.518C482.355,25.959,476.04,47.037,459.281,56.748z"/>
<path d="M439.867,109.562c-2.202,0-4.386-0.853-6.033-2.5l-29.568-29.568c-2.842-2.842-3.32-7.279-1.143-10.658l28.57-44.357  c8.004-12.425,21.172-20.736,35.243-22.238c11.862-1.271,23.313,2.56,31.284,10.53l2.33,2.33c7.97,7.97,11.81,19.371,10.53,31.292  c-1.51,14.063-9.822,27.239-22.247,35.235l-44.348,28.562C443.067,109.118,441.471,109.562,439.867,109.562z M421.204,70.299  l19.832,19.832l38.571-24.841c8.124-5.231,13.551-13.722,14.507-22.708c0.734-6.861-1.263-13.039-5.624-17.408l-2.33-2.33  c-4.369-4.361-10.556-6.349-17.4-5.624c-8.994,0.956-17.477,6.383-22.708,14.507L421.204,70.299z"/>
<g>
	<path style="fill:#AD1457;" d="M125.963,445.619c8.789,6.229,17.579,11.947,26.198,16.982c-19.098,13.27-43.632,15.906-65.11,6.997   c-1.365,1.621-2.816,3.243-4.352,4.779c-20.395,20.395-59.137,14.763-59.137,14.763c-0.486-3.823-0.708-7.672-0.683-11.52   c9.378-1.954,18.04-6.477,25.003-13.056c1.536-1.536,2.987-3.157,4.352-4.779c24.943,10.496,53.735,5.129,73.217-13.654   L125.963,445.619z"/>
	<path style="fill:#AD1457;" d="M115.467,127.149c-11.35-3.328-22.699-6.912-33.963-10.838c10.547,1.818,20.89,4.651,30.891,8.448   c6.229,2.219,12.544,4.352,18.944,6.315C126.048,129.795,120.758,128.6,115.467,127.149z"/>
	<path style="fill:#AD1457;" d="M364.474,301.062c-0.896-9.276-1.237-18.594-1.024-27.904c0.597-37.291,10.07-74.839,37.121-101.89   c-6.912,6.912-22.102,3.328-36.523-7.851c-0.085-0.085-0.256-0.171-0.341-0.256c-2.645-2.048-5.154-4.275-7.509-6.656   c-16.384-16.299-22.955-36.182-14.763-44.374c-4.062,4.088-8.457,7.834-13.142,11.179c-5.47,4.019-11.298,7.535-17.408,10.496   c-1.28,0.683-2.645,1.365-4.011,1.963c-7.475,3.396-15.241,6.11-23.211,8.107c-7.945,1.946-16.017,3.345-24.15,4.181   c-7.253,0.819-14.55,1.22-21.846,1.195c-0.853,0.085-1.707,0.085-2.645,0.085c-8.021-0.085-16.128-0.427-24.064-1.195   c-7.595-0.683-15.19-1.707-22.699-2.987c-6.997-1.024-13.824-2.475-20.736-4.011c-5.717-1.365-11.52-2.645-17.152-4.181   c-6.229-1.877-12.544-3.755-18.774-5.803c-0.085,0-0.171-0.085-0.256-0.085c-5.291-1.28-10.582-2.475-15.872-3.925   c-11.35-3.328-22.699-6.912-33.963-10.838c-0.085,0-0.171-0.085-0.256-0.085c-1.536-0.256-3.072-0.512-4.608-0.683   c-4.386-0.529-8.807-0.759-13.227-0.683c-4.454,0.085-8.892,0.666-13.227,1.707c-7.245,1.604-13.901,5.214-19.2,10.411   c-13.654,13.568-15.446,37.035-7.168,66.305l-0.256,0.171c-28.502,28.587-12.971,92.844,33.793,158.467l-0.512,0.512   c-18.782,19.482-24.15,48.274-13.654,73.217c-1.698,1.357-3.328,2.816-4.864,4.352c-13.312,13.312-15.531,34.561-15.446,47.617   c9.378-1.954,18.04-6.477,25.003-13.056c1.536-1.536,2.987-3.157,4.352-4.779c24.943,10.496,53.735,5.129,73.217-13.654   l0.512-0.512c8.789,6.229,17.579,11.947,26.198,16.982c2.936-1.954,5.649-4.216,8.107-6.741l0.597-0.512   c20.557,15.045,42.923,27.461,66.561,36.95c39.425,15.36,73.217,15.446,91.82-3.157l0.171-0.171   c29.27,8.192,52.737,6.4,66.305-7.253c3.473-3.465,6.229-7.586,8.107-12.118c1.852-4.42,3.115-9.071,3.755-13.824   c3.072-21.675-6.229-43.947-12.63-64.428C374.893,362.076,368.024,331.808,364.474,301.062z"/>
</g>
<g>
	<path style="fill:#E91E63;" d="M350.137,381.618c6.4,20.48,15.616,42.667,12.63,64.342c-0.632,4.753-1.894,9.404-3.755,13.824   c-1.877,4.557-4.634,8.704-8.107,12.203c-13.568,13.568-37.035,15.36-66.305,7.168l-0.171,0.256   c-12.8,12.8-32.854,16.726-57.004,12.886c-23.638-9.489-46.004-21.905-66.561-36.95l-0.597,0.512   c-2.458,2.526-5.171,4.787-8.107,6.741c-8.619-5.035-17.408-10.752-26.198-16.982l-0.512,0.512   c-19.482,18.782-48.274,24.15-73.217,13.654c-1.365,1.621-2.816,3.243-4.352,4.779c-6.963,6.579-15.625,11.102-25.003,13.056   c-0.085-13.056,2.133-34.305,15.446-47.617c1.536-1.536,3.166-2.995,4.864-4.352c-10.496-24.943-5.129-53.735,13.654-73.217   l0.512-0.512C10.59,286.299-4.94,222.042,23.561,193.454l0.256-0.171c-8.277-29.27-6.485-52.737,7.168-66.305   c5.299-5.197,11.955-8.807,19.2-10.411c4.335-1.041,8.772-1.621,13.227-1.707c4.42-0.077,8.841,0.154,13.227,0.683   c1.536,0.171,3.072,0.427,4.608,0.683c0.085,0,0.171,0.085,0.256,0.085c11.264,3.925,22.614,7.509,33.963,10.838   c5.291,1.451,10.582,2.645,15.872,3.925c0.085,0,0.171,0.085,0.256,0.085c6.229,2.048,12.544,3.925,18.774,5.803   c5.632,1.536,11.435,2.816,17.152,4.181c6.912,1.536,13.739,2.987,20.736,4.011c7.509,1.28,15.104,2.304,22.699,2.987   c7.936,0.768,16.043,1.109,24.064,1.195c0.939,0,1.792,0,2.645-0.085c7.296,0.026,14.592-0.375,21.846-1.195   c8.132-0.836,16.205-2.236,24.15-4.181c7.97-1.997,15.736-4.71,23.211-8.107c1.365-0.597,2.731-1.28,4.011-1.963   c6.11-2.961,11.938-6.477,17.408-10.496c4.685-3.345,9.08-7.091,13.142-11.179c-8.192,8.192-1.621,28.075,14.763,44.374   c2.355,2.381,4.864,4.608,7.509,6.656c0.085,0.085,0.256,0.171,0.341,0.256c-25.771,26.795-34.817,63.574-35.414,100.012   c-0.213,9.31,0.128,18.629,1.024,27.904C333.216,322.08,340.085,352.348,350.137,381.618z"/>
	<path style="fill:#E91E63;" d="M160.865,455.347c20.557,15.045,42.923,27.461,66.561,36.95   c-26.718-5.137-52.242-15.215-75.265-29.697c2.936-1.954,5.649-4.216,8.107-6.741L160.865,455.347z"/>
	<path style="fill:#E91E63;" d="M365.754,161.539c-0.614,0.58-1.186,1.212-1.707,1.877c-0.085-0.085-0.256-0.171-0.341-0.256   C364.457,162.717,365.148,162.171,365.754,161.539z"/>
</g>
<path d="M278.746,511.958c-32.333,0.009-73.687-15.693-117.276-45.697c-20.13,16.444-47.25,21.462-71.954,13.338  c-0.256,0.265-0.521,0.529-0.785,0.794c-23.177,23.177-64.667,17.477-66.408,17.212c-3.738-0.538-6.682-3.473-7.219-7.219  c-0.256-1.749-5.965-43.231,17.195-66.39c0.265-0.265,0.538-0.538,0.811-0.802c-8.132-24.704-3.098-51.815,13.338-71.954  C0.333,284.251-11.981,222.554,14.32,190.946c-7.817-31.113-4.181-55.263,10.582-70.026c6.562-6.357,14.618-10.692,23.399-12.647  c4.779-1.161,9.856-1.809,14.934-1.903c4.736-0.085,9.634,0.119,14.447,0.734c12.954,1.809,25.609,5.052,37.735,9.651  c12.186,4.292,24.79,8.354,37.274,11.981c5.444,1.485,11.102,2.79,16.751,4.088c7.817,1.766,14.191,3.004,20.037,3.866  c6.946,1.229,14.157,2.185,22.264,2.978c7.339,0.683,15.207,1.067,23.348,1.143c0.171,0,0.367,0,0.555,0  c0.384,0,0.785,0,1.169-0.034c7.748-0.026,14.789-0.401,21.735-1.169c7.774-0.811,15.514-2.159,23.057-4.019  c7.407-1.86,14.729-4.42,21.709-7.612c7.049-3.157,13.747-7.04,19.968-11.554c4.275-3.081,8.312-6.52,12.007-10.24  c0.009-0.009-0.017,0.009,0.043-0.034c0,0,0.009-0.009,0.017-0.017c3.337-3.328,8.721-3.328,12.058,0  c3.337,3.328,3.345,8.713,0.026,12.058c-0.009,0.009-0.017,0.017-0.026,0.026c-1.178,1.195-1.545,4.856,0.282,10.36  c2.347,7.057,7.637,15.036,14.507,21.914c14.584,14.592,29.184,17.878,32.282,14.78c3.337-3.328,8.73-3.328,12.066,0  s3.337,8.738,0,12.066c-22.306,22.307-33.955,54.589-34.612,95.959c-0.171,9.003,0.171,18.048,0.99,26.915  c3.473,30.046,10.215,59.777,20.054,88.373c1.058,3.362,2.116,6.545,3.183,9.762c5.939,17.954,12.681,38.307,9.839,58.574  c-0.708,5.47-2.185,10.88-4.386,16.009c-2.21,5.453-5.538,10.496-9.822,14.831c-14.797,14.797-38.972,18.432-70.094,10.607  C310.653,507.495,295.984,511.958,278.746,511.958z M161.189,447.035c1.647,0,3.251,0.435,4.591,1.391  c62.576,44.656,123.206,58.915,147.407,34.689c2.176-2.176,5.598-3.243,8.568-2.406c18.867,5.308,44.238,8.738,57.968-4.984  c2.662-2.688,4.753-5.862,6.178-9.378c1.638-3.832,2.697-7.714,3.217-11.708c2.304-16.41-3.507-33.955-9.131-50.936  c-1.092-3.302-2.168-6.571-3.183-9.788c-10.163-29.577-17.203-60.554-20.805-91.837c-0.009-0.068-0.017-0.128-0.026-0.188  c-0.887-9.532-1.246-19.26-1.067-28.894c0.58-36.788,9.25-67.372,25.805-91.214c-9.865-2.782-20.677-9.361-30.55-19.234  c-8.815-8.815-15.437-18.97-18.637-28.596c-0.222-0.674-0.435-1.331-0.614-1.997c-6.46,4.472-13.363,8.363-20.54,11.571  c-7.868,3.593-16.179,6.503-24.619,8.619c-8.337,2.057-16.862,3.541-25.362,4.429c-7.407,0.811-14.968,1.229-22.434,1.229  c-0.111,0-0.23,0-0.35,0c-0.256,0.06-1.417,0.077-2.569,0.077c-8.696-0.077-17.041-0.495-24.884-1.22  c-8.593-0.836-16.231-1.86-23.39-3.123c-6.05-0.896-12.826-2.202-21.103-4.07c-5.905-1.365-11.776-2.722-17.579-4.301  c-12.937-3.755-25.848-7.911-38.52-12.382c-11.128-4.224-22.537-7.143-34.117-8.764c-3.849-0.486-7.868-0.666-11.836-0.589  c-3.891,0.068-7.714,0.563-11.443,1.459c-5.862,1.306-11.094,4.122-15.292,8.184c-13.636,13.628-10.198,38.998-4.89,57.865  c0.836,2.97,0,6.161-2.185,8.346c-24.448,24.448-10.18,85.07,34.475,147.638c2.424,3.388,2.039,8.039-0.913,10.991  c-16.862,17.46-21.547,42.582-12.356,64.428c1.468,3.482,0.461,7.518-2.466,9.907c-1.408,1.161-2.816,2.432-4.156,3.78  C32.65,447.76,30.892,468.778,31.412,481.22c10.948,0.486,32.734-0.401,45.236-12.894c1.331-1.34,2.628-2.756,3.789-4.173  c2.398-2.936,6.434-3.917,9.916-2.466c21.854,9.199,46.977,4.506,64.018-11.947C156.154,448.025,158.706,447.035,161.189,447.035z"/>
<path style="fill:#00838F;" d="M360.89,443.997c-6.315-2.731-12.971-5.973-19.798-9.643  c-52.976-30.174-101.386-67.73-143.789-111.533c-79.02-78.935-130.733-161.539-133.89-207.961  c-4.454,0.085-8.892,0.666-13.227,1.707c-6.306,1.399-12.16,4.335-17.067,8.533h-0.085c-0.683,0.597-1.365,1.195-2.048,1.877  c-13.654,13.568-15.446,37.035-7.168,66.305c11.008,39.851,40.449,90.114,83.457,140.376c10.667,12.459,22.272,24.918,34.561,37.206  s24.747,23.894,37.206,34.561c27.93,24.303,58.429,45.483,90.967,63.148c15.702,8.533,32.257,15.377,49.409,20.395  c29.27,8.192,52.737,6.4,66.305-7.253c3.473-3.465,6.229-7.586,8.107-12.118c1.852-4.42,3.115-9.071,3.755-13.824  C384.911,453.359,372.589,449.408,360.89,443.997z"/>
<g>
	<path style="fill:#00BCD4;" d="M360.89,443.997c-0.64,3.285-1.647,6.494-2.987,9.557c-1.877,4.54-4.6,8.679-8.021,12.203   c-13.654,13.568-37.121,15.36-66.305,7.168c-4.437-1.195-8.96-2.645-13.568-4.352c-32.538-17.664-63.037-38.844-90.967-63.148   c-12.459-10.667-24.918-22.272-37.206-34.561c-12.288-12.288-23.894-24.747-34.561-37.206   c-43.009-50.262-72.449-100.524-83.457-140.376c-8.277-29.27-6.485-52.737,7.168-66.305c0.683-0.683,1.365-1.28,2.048-1.877h0.085   c4.907-4.198,10.761-7.134,17.067-8.533c4.335-1.041,8.772-1.621,13.227-1.707c3.157,46.422,54.87,129.026,133.89,207.961   c42.403,43.802,90.813,81.358,143.789,111.533C347.919,438.024,354.575,441.267,360.89,443.997z"/>
	<path style="fill:#00BCD4;" d="M360.89,443.997c-6.315-2.731-12.971-5.973-19.798-9.643L360.89,443.997z"/>
</g>
<path d="M351.221,502.383c-10.215,0-21.624-1.741-34.083-5.24c-41.968-11.606-93.006-41.882-143.687-85.258  c-12.493-10.71-25.165-22.477-37.667-34.97c-12.467-12.467-24.227-25.14-34.97-37.658C57.431,288.569,27.154,237.521,15.54,195.528  c-9.361-33.315-6.127-59.128,9.361-74.617c6.562-6.357,14.618-10.692,23.399-12.647c4.779-1.161,9.856-1.809,14.934-1.903  c0.051,0,0.102,0,0.154,0c4.472,0,8.201,3.465,8.508,7.953c3.132,45.663,55.937,127.029,131.39,202.482  c71.459,71.459,148.269,122.694,195.681,130.52c4.531,0.751,7.655,4.949,7.074,9.506c-0.725,5.555-2.202,10.974-4.403,16.103  c-2.21,5.453-5.538,10.496-9.822,14.831c-0.009,0.009-0.026,0.026-0.034,0.034C382.087,497.494,368.331,502.383,351.221,502.383z   M55.912,124.137c-1.254,0.205-2.5,0.461-3.738,0.759c-5.862,1.306-11.094,4.122-15.292,8.184  c-13.636,13.628-10.198,38.998-4.89,57.865c10.803,39.092,40.611,89.081,81.793,137.201c10.454,12.194,21.914,24.542,34.074,36.702  c12.186,12.186,24.534,23.646,36.702,34.066c48.103,41.174,98.101,70.981,137.167,81.785c18.885,5.316,44.246,8.747,57.985-4.958  c2.68-2.722,4.77-5.88,6.195-9.395c0.572-1.331,1.075-2.671,1.51-4.019c-50.902-12.561-126.492-63.788-196.176-133.472  C116.243,253.889,64.334,174.997,55.912,124.137z"/>
<path d="M278.866,512.009c-33.69,0-77.288-17.067-123.002-49.69c-20.267-14.481-39.459-30.78-57.046-48.462  c-17.63-17.553-33.929-36.745-48.419-57.021C-0.776,285.138-13.679,218.645,17.52,187.438c2.142-2.142,5.368-3.098,8.32-2.33  c2.936,0.777,5.35,2.944,6.161,5.871c10.795,39.058,40.602,89.055,81.785,137.167c10.454,12.194,21.914,24.542,34.074,36.702  c12.16,12.16,24.508,23.621,36.702,34.066c48.103,41.174,98.101,70.981,137.167,81.785c2.927,0.811,5.197,3.115,5.973,6.05  c0.777,2.936-0.068,6.059-2.219,8.209l-0.222,0.222C313.947,506.496,298.006,512.009,278.866,512.009z M21.24,212.962  c-10.803,29.372,5.222,80.974,43.043,133.967c13.935,19.499,29.62,37.957,46.601,54.87c16.939,17.024,35.405,32.709,54.896,46.635  c53.121,37.906,104.842,53.923,134.044,43.068c-38.324-14.302-82.485-42.044-126.381-79.609  c-12.527-10.744-25.199-22.503-37.667-34.97c-12.467-12.467-24.227-25.14-34.97-37.658C63.285,295.395,35.551,251.269,21.24,212.962  z"/>
<path style="fill:#00838F;" d="M160.865,455.347l-0.597,0.512c-19.465,18.808-48.257,24.21-73.217,13.739  c-9.959-3.9-18.996-9.822-26.539-17.408c-3.26-3.209-6.204-6.724-8.789-10.496c-3.507-4.966-6.375-10.36-8.533-16.043  c-9.779-23.339-5.769-50.177,10.411-69.633c1.015-1.254,2.091-2.449,3.243-3.584l0.512-0.512  c14.285,19.909,30.183,38.597,47.531,55.894l1.451,1.451c9.216,9.131,18.577,17.664,28.075,25.6  C143.201,442.205,152.075,449.117,160.865,455.347z"/>
<path style="fill:#00BCD4;" d="M136.545,432.904l-0.512,0.512c-0.503,0.529-1.041,1.015-1.621,1.451  c-19.465,17.639-47.386,22.4-71.596,12.203c-3.84-1.476-7.552-3.277-11.094-5.376c-3.507-4.966-6.375-10.36-8.533-16.043  c-9.779-23.339-5.769-50.177,10.411-69.633c8.363,9.899,17.349,19.687,26.966,29.355c8.448,8.448,17.067,16.384,25.771,23.894  C116.32,417.8,126.475,425.736,136.545,432.904z"/>
<path d="M113.291,483.405c-9.959,0-20.002-1.954-29.551-5.973c-22.051-8.644-39.817-26.411-48.538-48.658  c-11.759-27.939-5.717-60.315,15.48-82.297c0.034-0.034,0.589-0.589,0.623-0.623c1.775-1.775,4.207-2.671,6.741-2.475  c2.492,0.205,4.779,1.51,6.238,3.55c13.944,19.499,29.62,37.957,46.61,54.87c16.939,17.024,35.405,32.709,54.896,46.635  c2.04,1.459,3.337,3.738,3.541,6.238c0.205,2.5-0.7,4.958-2.475,6.733l-0.521,0.521C151.751,475.989,132.67,483.405,113.291,483.405  z M56.936,365.771c-11.478,16.666-13.816,37.837-5.931,56.577c7.074,18.031,21.325,32.282,39.152,39.28  c19.021,8.004,40.372,5.598,56.824-5.811c-17.007-12.8-33.17-26.872-48.171-41.951C83.791,398.906,69.736,382.761,56.936,365.771z"/>
<path d="M35.594,498.407c-7.492,0-12.672-0.717-13.27-0.811c-3.738-0.538-6.682-3.473-7.219-7.219  c-0.256-1.758-5.965-43.231,17.203-66.39c1.741-1.749,3.584-3.422,5.436-4.932c2.108-1.732,4.932-2.338,7.561-1.655  c2.637,0.691,4.787,2.603,5.786,5.146c6.997,17.843,21.24,32.094,39.075,39.083c2.534,0.99,4.446,3.14,5.137,5.786  s0.077,5.453-1.647,7.561c-1.493,1.835-3.166,3.669-4.915,5.427c0,0.009-0.009,0.009-0.017,0.017  C73.431,495.693,50.152,498.407,35.594,498.407z M31.421,481.229c9.788,0.427,28.229-0.23,40.961-9.293  c-13.099-7.561-24.022-18.492-31.599-31.582C32.291,452.411,30.96,470.195,31.421,481.229z"/>
<path d="M141.835,187.225c-2.219,0-4.437-0.939-6.059-2.475c-1.536-1.621-2.475-3.84-2.475-6.059c0-2.219,0.939-4.437,2.475-6.059  c3.157-3.157,8.875-3.157,12.118,0c1.536,1.621,2.475,3.84,2.475,6.059c0,2.219-0.939,4.437-2.475,6.059  C146.273,186.286,144.054,187.225,141.835,187.225z"/>
<path d="M166.497,226.65c-2.304,0-4.523-0.939-6.059-2.475c-1.621-1.621-2.475-3.84-2.475-6.059c0-2.219,0.853-4.437,2.475-6.059  c3.157-3.157,8.875-3.157,12.032,0c1.621,1.621,2.56,3.84,2.56,6.059c0,2.219-0.939,4.437-2.56,6.059  C170.934,225.711,168.716,226.65,166.497,226.65z"/>
<path d="M191.073,266.074c-2.219,0-4.437-0.939-6.059-2.475c-1.536-1.613-2.475-3.84-2.475-6.059c0-2.219,0.939-4.437,2.475-6.059  c3.243-3.157,8.96-3.157,12.118,0c1.621,1.621,2.475,3.84,2.475,6.059c0,2.219-0.853,4.446-2.475,6.059  C195.511,265.136,193.378,266.074,191.073,266.074z"/>
<path d="M223.159,298.075c-2.304,0-4.437-0.853-6.059-2.475c-1.621-1.613-2.475-3.746-2.475-6.059c0-2.219,0.853-4.437,2.475-5.973  c3.157-3.243,8.96-3.243,12.032,0c1.621,1.545,2.56,3.755,2.56,5.973c0,2.313-0.939,4.446-2.56,6.059  C227.597,297.222,225.378,298.075,223.159,298.075z"/>
<path d="M255.16,330.161c-2.219,0-4.437-0.93-6.059-2.56c-1.536-1.536-2.475-3.746-2.475-5.973c0-2.304,0.939-4.514,2.475-6.059  c3.157-3.157,8.96-3.157,12.118,0c1.536,1.545,2.475,3.755,2.475,6.059c0,2.227-0.939,4.446-2.475,5.973  C259.597,329.222,257.379,330.161,255.16,330.161z"/>
<path d="M294.585,354.737c-2.219,0-4.437-0.853-6.059-2.466c-1.536-1.545-2.475-3.755-2.475-6.067c0-2.219,0.939-4.437,2.475-6.059  c3.157-3.064,8.875-3.064,12.118,0c1.545,1.621,2.475,3.84,2.475,6.059c0,2.313-0.93,4.446-2.475,6.067  C299.022,353.884,296.803,354.737,294.585,354.737z"/>
<path d="M334.009,379.399c-2.219,0-4.437-0.939-6.059-2.475c-1.536-1.621-2.475-3.755-2.475-6.059c0-2.219,0.939-4.446,2.475-6.059  c3.243-3.157,8.96-3.157,12.118,0.085c1.545,1.536,2.475,3.755,2.475,5.973c0,2.304-0.93,4.437-2.475,6.059  C338.447,378.46,336.313,379.399,334.009,379.399z"/>
<g>
</g>
<g>
</g>
<g>
</g>
<g>
</g>
<g>
</g>
<g>
</g>
<g>
</g>
<g>
</g>
<g>
</g>
<g>
</g>
<g>
</g>
<g>
</g>
<g>
</g>
<g>
</g>
<g>
</g>
</svg>
