<svg id="Layer_1" enable-background="new 0 0 512 512" height="512" viewBox="0 0 512 512" width="512" xmlns="http://www.w3.org/2000/svg"><g><g><g><path d="m272.567 487.933c0 9.15-7.417 16.567-16.567 16.567s-16.567-7.417-16.567-16.567v-27.933h33.133v27.933z" fill="#f9f6f6"/><path d="m305.7 424.5h-99.4v30.867c0 8.836 7.163 16 16 16h67.4c8.837 0 16-7.164 16-16z" fill="#f4d844"/><path d="m282.7 424.5v30.867c0 8.837-7.163 16-16 16h23c8.837 0 16-7.163 16-16v-30.867z" fill="#edbd2d"/></g><path d="m471.367 338.833c0 54.897-44.503 99.4-99.4 99.4h-231.934c-54.897 0-99.4-44.503-99.4-99.4l215.367-24.85z" fill="#e9a82f"/><path d="m256 313.983-11.5 1.327 203.867 23.523c0 54.897-44.503 99.4-99.4 99.4h23c54.897 0 99.4-44.503 99.4-99.4z" fill="#da7d1f"/><g><path d="m230.2 106.9h51.6v33.133h-51.6z" fill="#f9f6f6" transform="matrix(0 1 -1 0 379.467 -132.533)"/><path d="m215.182 99.846-8.882-59.213 49.7-16.566 49.7 16.567-8.882 59.212c-.608 4.055-4.092 7.055-8.192 7.055h-65.253c-4.1-.001-7.583-3.001-8.191-7.055z" fill="#f4d844"/><path d="m256 24.067-11.5 3.833 38.2 12.733-8.882 59.212c-.608 4.055-4.091 7.055-8.192 7.055h23c4.1 0 7.583-3 8.192-7.055l8.882-59.212z" fill="#edbd2d"/><path d="m314.267 40.633h-116.534c-4.418 0-8-3.582-8-8v-17.133c0-4.418 3.582-8 8-8h116.533c4.418 0 8 3.582 8 8v17.133c.001 4.419-3.581 8-7.999 8z" fill="#f9f6f6"/><path d="m314.267 7.5h-23c4.418 0 8 3.582 8 8v17.133c0 4.418-3.582 8-8 8h23c4.418 0 8-3.582 8-8v-17.133c0-4.418-3.582-8-8-8z" fill="#ecdaec"/></g><path d="m322.267 189.733-66.267 24.767-66.267-24.767 12.791-38.372c2.255-6.765 8.586-11.328 15.716-11.328h75.519c7.131 0 13.462 4.563 15.717 11.328z" fill="#f4d844"/><path d="m309.476 151.361c-2.255-6.765-8.586-11.328-15.717-11.328h-23c7.131 0 13.462 4.563 15.717 11.328l12.791 38.372-54.767 20.469 11.5 4.298 66.267-24.767z" fill="#edbd2d"/><path d="m397.28 256.004c18.201 20.333 44.649 33.13 74.086 33.13l-215.366 25.866-215.367-25.867c29.427 0 55.868-12.788 74.068-33.109l30.549-22.524-10.875-10.628c.959-2.714 1.804-5.481 2.529-8.297 3.784-14.709 17.269-24.842 32.457-24.842h173.278c15.188 0 28.673 10.133 32.457 24.842.724 2.815 1.568 5.581 2.527 8.293l-15.123 14.132z" fill="#e9a82f"/><path d="m397.301 256.026c18.2 20.32 44.64 33.107 74.066 33.107l-215.367 25.867-11.5-1.381 203.867-24.485c-46.319 0-85.239-31.682-96.271-74.558-3.784-14.709-17.27-24.842-32.457-24.842h23c15.188 0 28.673 10.133 32.457 24.842.724 2.815 1.569 5.582 2.528 8.295l-15.124 14.129z" fill="#da7d1f"/><path d="m114.699 256h282.602c-8.561-9.562-15.304-20.783-19.67-33.133h-243.262c-4.366 12.35-11.109 23.571-19.67 33.133z" fill="#f4d844"/><path d="m397.301 256c-8.561-9.562-15.304-20.783-19.67-33.133h-23c4.366 12.35 11.109 23.571 19.67 33.133z" fill="#edbd2d"/><path d="m479.65 338.833c13.724 0 24.85-11.126 24.85-24.85s-11.126-24.85-24.85-24.85h-447.3c-13.724 0-24.85 11.126-24.85 24.85s11.126 24.85 24.85 24.85z" fill="#f4d844"/><path d="m479.65 289.133h-23c13.724 0 24.85 11.126 24.85 24.85s-11.126 24.85-24.85 24.85h23c13.724 0 24.85-11.126 24.85-24.85s-11.126-24.85-24.85-24.85z" fill="#edbd2d"/></g><path d="m479.65 281.633h-8.284c-41.964 0-78.564-28.344-89.007-68.927-4.616-17.942-20.95-30.473-39.721-30.473h-14.966l-11.081-33.244c-3.281-9.843-12.456-16.456-22.831-16.456h-13.693v-18.133h8.561c7.875 0 14.439-5.653 15.608-13.441l7.924-52.825h2.108c8.547 0 15.5-6.953 15.5-15.5v-17.134c0-8.547-6.953-15.5-15.5-15.5h-116.535c-8.547 0-15.5 6.953-15.5 15.5v17.133c0 8.547 6.953 15.5 15.5 15.5h2.108l7.923 52.825v.001c1.169 7.789 7.733 13.441 15.609 13.441h8.56v18.133h-13.692c-10.376 0-19.551 6.613-22.832 16.456l-11.081 33.244h-14.966c-18.771 0-35.105 12.531-39.721 30.473-10.441 40.583-47.042 68.927-89.007 68.927h-8.284c-17.838 0-32.35 14.512-32.35 32.35s14.512 32.35 32.35 32.35h1.05c3.863 55.458 50.21 99.4 106.633 99.4h58.767v9.633c0 12.958 10.542 23.5 23.5 23.5h9.633v9.066c0 13.272 10.796 24.068 24.067 24.068 13.27 0 24.066-10.796 24.066-24.067v-9.066h9.634c12.958 0 23.5-10.542 23.5-23.5v-9.633h58.767c56.423 0 102.77-43.941 106.632-99.4h1.051c17.838 0 32.35-14.512 32.35-32.35s-14.512-32.351-32.35-32.351zm-340.118-51.266h232.936c2.623 6.402 5.827 12.468 9.554 18.133h-252.044c3.727-5.665 6.931-11.731 9.554-18.133zm57.701-197.734v-17.133c0-.276.224-.5.5-.5h116.533c.275 0 .5.224.5.5v17.133c0 .276-.225.5-.5.5h-116.533c-.276 0-.5-.224-.5-.5zm25.366 66.1-7.589-50.6h81.982l-7.59 50.6c-.057.38-.39.667-.774.667h-65.254c-.385 0-.718-.287-.775-.667zm24.334 15.667h18.133v18.133h-18.133zm-37.294 39.333c1.236-3.708 4.693-6.2 8.602-6.2h75.519c3.908 0 7.364 2.491 8.601 6.2l9.5 28.501h-111.722zm-40.278 43.5h173.277c11.538 0 21.589 7.407 24.866 18.133h-223.01c3.277-10.726 13.33-18.133 24.867-18.133zm-51.327 66.267h275.933c6.725 7.048 14.374 13.158 22.745 18.133h-321.423c8.371-4.975 16.02-11.085 22.745-18.133zm147.032 224.433c0 5-4.067 9.067-9.066 9.067-5 0-9.067-4.067-9.067-9.067v-9.066h18.133zm33.134-32.566c0 4.687-3.814 8.5-8.5 8.5h-67.4c-4.687 0-8.5-3.813-8.5-8.5v-9.633h84.4zm73.767-24.634h-231.934c-36.094 0-67.389-20.919-82.413-51.267h396.758c-15.023 30.349-46.317 51.267-82.411 51.267zm88.257-66.266h-408.448c-1.695-5.828-2.828-11.893-3.335-18.133h415.118c-.507 6.239-1.64 12.304-3.335 18.133zm19.426-33.133h-447.3c-9.567 0-17.35-7.783-17.35-17.35s7.783-17.35 17.35-17.35h447.3c9.566 0 17.35 7.783 17.35 17.35 0 9.566-7.783 17.35-17.35 17.35z"/></g></svg>