<?xml version="1.0" encoding="iso-8859-1"?>
<!-- Generator: Adobe Illustrator 21.0.0, SVG Export Plug-In . SVG Version: 6.00 Build 0)  -->
<svg version="1.1" id="Capa_1" xmlns="http://www.w3.org/2000/svg" xmlns:xlink="http://www.w3.org/1999/xlink" x="0px" y="0px"
	 viewBox="0 0 593.291 593.291" style="enable-background:new 0 0 593.291 593.291;" xml:space="preserve">
<g>
	<g>
		<g id="filled_outline_29_">
			<path style="fill:#ED5B1C;" d="M563.626,247.195l-101.412-18.787L146.45,260.721l-20.261-8.434l-39.839,7.999
				c-29.773,5.903-56.698,21.635-76.454,44.674l5.844,13.161c2.887,9.028,4.252,18.481,4.044,27.953h533.954l29.664-19.776v-39.552
				L563.626,247.195z"/>
			<path style="fill:#4EABEC;" d="M462.214,228.407l-89.516-16.562c-17.294-2.798-34.796-4.212-52.318-4.202h-14.703
				c-39.008-0.01-77.71,6.971-114.256,20.617l-63.185,23.623l-2.047,0.405l20.261,8.435L462.214,228.407z"/>
			<polygon style="fill:#E0561A;" points="187.881,286.747 187.881,316.411 395.529,306.523 415.305,276.859 			"/>
			<path style="fill:#697B8C;" d="M108.776,286.747c-27.301,0-49.44,22.139-49.44,49.44s22.139,49.44,49.44,49.44
				s49.44-22.139,49.44-49.44S136.077,286.747,108.776,286.747z"/>
			<path style="fill:#C3C9D1;" d="M108.776,316.411c-10.926,0-19.776,8.85-19.776,19.776c0,1.325,0.129,2.65,0.396,3.955
				c2.175,10.699,12.617,17.621,23.316,15.445c7.782-1.582,13.863-7.663,15.445-15.445c0.267-1.305,0.396-2.63,0.396-3.955
				C128.553,325.271,119.693,316.411,108.776,316.411z"/>
			<path style="fill:#697B8C;" d="M484.522,286.747c-27.301,0-49.44,22.139-49.44,49.44s22.139,49.44,49.44,49.44
				s49.44-22.139,49.44-49.44S511.823,286.747,484.522,286.747z"/>
			<path style="fill:#C3C9D1;" d="M484.522,316.411c-10.926,0-19.776,8.85-19.776,19.776c0,1.325,0.129,2.65,0.396,3.955
				c2.175,10.699,12.617,17.621,23.316,15.445c7.782-1.582,13.863-7.663,15.445-15.445c0.267-1.305,0.396-2.63,0.396-3.955
				C504.298,325.271,495.438,316.411,484.522,316.411z"/>
			<path d="M572.525,242.775c-1.384-2.779-3.995-4.736-7.05-5.3l-101.412-18.787l-89.734-16.612
				c-17.838-2.877-35.884-4.321-53.949-4.321h-14.703c-40.175-0.03-80.034,7.169-117.668,21.24l-62.502,23.356l-1.285,0.247l0,0
				l-39.789,7.98c-31.948,6.368-60.841,23.257-82.071,47.957c-2.462,2.897-3.055,6.941-1.513,10.422l5.844,13.181
				c2.373,7.693,3.461,15.732,3.204,23.781c-0.089,5.458,4.272,9.957,9.73,10.046c0.049,0,0.109,0,0.158,0h33.204
				c10.798,30.811,44.526,47.027,75.337,36.23c16.958-5.943,30.287-19.272,36.23-36.23h264.179
				c10.798,30.811,44.526,47.027,75.337,36.23c16.958-5.943,30.287-19.272,36.23-36.23h13.438c1.948,0,3.856-0.583,5.488-1.661
				l29.664-19.776c2.749-1.839,4.4-4.924,4.4-8.227v-39.552c0.02-1.533-0.326-3.046-0.989-4.42L572.525,242.775z M66.258,295.073
				H46.314v19.776h7.169c-2.66,6.803-4.024,14.041-4.034,21.338H29.346c-0.336-7.554-1.879-15-4.568-22.06l-3.253-7.337
				c17.927-18.876,41.253-31.75,66.774-36.853l36.882-7.396l13.26,5.557v16.81c-23.514-13.734-53.385-9.512-72.183,10.185
				C66.258,295.092,66.258,295.073,66.258,295.073z M147.528,344.097c-4.371,21.398-25.264,35.201-46.672,30.831
				c-21.398-4.371-35.201-25.264-30.831-46.672c4.371-21.398,25.264-35.201,46.672-30.831c18.412,3.767,31.642,19.964,31.632,38.761
				C148.329,338.847,148.062,341.497,147.528,344.097z M320.38,217.531c16.918,0,33.817,1.355,50.528,4.044l21.754,4.024
				l-72.934,7.465l-2.373-15.534H320.38z M362.009,289.08l34.272-1.493l-6.2,9.295l-30.603,1.463L362.009,289.08z M194.901,237.514
				c32.828-12.241,67.476-18.926,102.509-19.776l2.601,17.354l-135.693,13.843L194.901,237.514z M188.306,296.635l152.948-6.645
				l-2.551,9.354l-151.287,7.179l0.929,19.776l144.889-6.922l-4.588,16.81H168.105c0.01-11.648-3.431-23.039-9.888-32.729v-33.995
				l194.043-19.845l-5.547,20.32l-159.257,6.922L188.306,296.635z M523.273,344.097c-4.371,21.398-25.274,35.201-46.672,30.831
				c-21.398-4.371-35.201-25.274-30.831-46.672c4.371-21.398,25.274-35.201,46.672-30.831c18.411,3.767,31.642,19.964,31.632,38.761
				C524.074,338.847,523.807,341.497,523.273,344.097z M516.885,286.519c-27.38-17.917-64.104-10.244-82.021,17.136
				c-6.328,9.671-9.69,20.973-9.671,32.532h-76.049L354,318.389l41.994-1.978c3.135-0.148,6.022-1.78,7.762-4.39l19.776-29.664
				c2.067-3.095,2.215-7.1,0.386-10.343c-1.79-3.283-5.3-5.251-9.038-5.043l-47.463,2.057l5.933-21.586l88.458-9.048l95.172,17.62
				l5.063,10.125L516.885,286.519z M573.514,321.009l-22.742,15.178h-6.922c0-12.578-4.034-24.829-11.49-34.954l38.563-17.383
				l2.62,5.231L573.514,321.009z"/>
		</g>
	</g>
</g>
<g>
</g>
<g>
</g>
<g>
</g>
<g>
</g>
<g>
</g>
<g>
</g>
<g>
</g>
<g>
</g>
<g>
</g>
<g>
</g>
<g>
</g>
<g>
</g>
<g>
</g>
<g>
</g>
<g>
</g>
</svg>
