<svg enable-background="new 0 0 128 128" height="512" viewBox="0 0 128 128" width="512" xmlns="http://www.w3.org/2000/svg"><g id="Squirrel"><g id="Tail_13_"><path d="m69.9 100s21.3-24.7 6-47.4c-11.5-17-2.4-39 20.7-40.7 28.2-2 29 33 19.3 44.8 0 0-2.6-18.7-9.7-16.7-8 2.3 3.4 16.8 3.3 29.3-.1 14.3-15.5 41.7-44.3 39.5l-9.7-7 5-7.8z" fill="#cd7c4f"/><path d="m113.8 17.3c8.6 10.8 9.1 27.9 2.9 35.5 0 0-1.2-24-12.7-18.6-12.5 5.8-4.5 19.8-1.8 32.4 3 13.7-10.6 42.4-38.9 40.9l1.9 1.3c28.8 2.2 44.2-25.2 44.4-39.4.1-12.5-11.3-27-3.3-29.3 7.1-2.1 9.7 16.7 9.7 16.7 7-8.6 8.4-29.5-2.2-39.5z" fill="#c1693e"/><path d="m96.6 12c-23.1 1.6-32.2 23.7-20.7 40.7 15.3 22.6-6 47.4-6 47.4l-9.5-6-5 7.8 9.7 7c1.1.1 0-2.1 1-2.1 4.4-4.4 32-28.9 18.8-48.5-10.9-16.3-3.9-37.5 18-36.1 10.3.6 19.8 18.5 13.8 30.6l-.8 4c9.7-11.8 8.9-46.8-19.3-44.8z" fill="#dd9665"/><path d="m68.4 110.4c-1.1 0-2.2 0-3.4-.1-.3 0-.5-.1-.8-.3l-9.7-7c-.6-.5-.8-1.4-.4-2l5-7.8c.4-.7 1.4-.9 2.1-.5l8.3 5.3c3.6-4.8 17.9-25.6 5.1-44.5-5.9-8.7-6.9-19.1-2.7-27.8 4.3-8.9 13.2-14.4 24.5-15.2 13.4-.9 19.9 6 23 12 6 11.6 3.6 27.9-2.4 35.3-.4.5-1 .7-1.6.5s-1-.6-1.1-1.2c-.5-3.5-2.5-12.9-5.9-15.1-.6-.4-1.2-.5-1.9-.3-1 .3-1.3.7-1.5 1.1-1 1.9.5 6.1 2.1 10.7 1.8 5 3.8 10.7 3.7 16.2-.1 7.9-4.9 20.7-15.1 30.1-5.3 4.8-14.4 10.6-27.3 10.6zm-2.7-3.1c13.4.9 22.7-4.9 28.2-10 9.6-8.8 14-20.6 14.1-27.9.1-4.9-1.8-10.3-3.5-15.1-2-5.6-3.5-10-2-13 .6-1.2 1.8-2.1 3.3-2.6 1.5-.4 3-.2 4.4.7 3.6 2.3 5.6 9.1 6.5 13.4 3.8-7.5 4.8-20 .1-29-2.7-5.2-8.4-11.2-20.2-10.4-10.1.7-18.1 5.6-22 13.5-3.8 7.7-2.8 17 2.4 24.8 15.8 23.3-5.9 48.9-6.1 49.2-.5.6-1.3.7-1.9.3l-8.1-5.2-3.4 5.4z"/></g><g id="Body_28_"><g><path d="m70.2 95.2c0 17.6-9.7 23.6-22.6 23.6s-26.3-10.6-26.3-23.6 10.4-23.6 23.3-23.6 25.6 10.4 25.6 23.6z" fill="#cd7c4f"/><path d="m35.2 107.7c-2.1.6-5.3 1.1-8.6 1.1-2.5-2.9-4.2-6.3-5-10 1.6 0 3.5-.4 5.8-1.1.1 0 .3-.1.4-.2 1.7 3.9 4.3 7.3 7.4 10.2z" fill="#f1d4a5"/><path d="m22.5 87.7c5.5.9 11.2 1.2 15 1.2 10.4 0 19.5-2.9 24.7-10.6-4.8-4.2-11.2-6.8-17.6-6.8-10.3.1-19.1 6.8-22.1 16.2z" fill="#c1693e"/><path d="m47.6 120.3c-13.1 0-27.8-10.7-27.8-25.1 0-13.8 11.1-25.1 24.8-25.1 14.4 0 27.1 11.7 27.1 25.1 0 16.4-8.4 25.1-24.1 25.1zm-3-47.2c-12 0-21.8 9.9-21.8 22.1 0 12.7 13.1 22.1 24.8 22.1 14 0 21.1-7.4 21.1-22.1 0-13-12.7-22.1-24.1-22.1z"/></g><g id="Arm"><path d="m27.7 86.8c-1.1.2-2.3.5-3.6.9-6.5 2.1-9.1 5.4-8.2 8.2s4.7 4.1 11.5 1.9c2.2-.7 3.9-1.5 5.1-2.4" fill="#cd7c4f"/><path d="m31.8 94.2c-1.4.6-3 1.1-5.1 1.4-6 1-9.4-.2-10.6-2.3-.4.9-.4 1.8-.2 2.6.9 2.8 4.7 4.1 11.5 1.9 2.2-.7 3.9-1.5 5.1-2.4z" fill="#c1693e"/><path d="m21.3 100.4c-5 0-6.5-2.9-6.8-4-1-3 .8-7.4 9.1-10.1 1.3-.4 2.6-.7 3.8-.9.8-.1 1.6.4 1.7 1.2s-.4 1.6-1.2 1.7c-1 .2-2.2.4-3.3.8-5.8 1.9-7.8 4.6-7.2 6.3.7 2.2 4.5 2.6 9.6.9 1.9-.6 3.5-1.4 4.8-2.2.7-.5 1.6-.3 2.1.4s.3 1.6-.4 2.1c-1.5 1-3.3 1.8-5.5 2.5-2.8 1-5 1.3-6.7 1.3z"/></g><g id="Leg_3_"><path d="m50.3 94.2c-6.9 0-12.4 5.6-12.4 12.4 0 .6-5.8 2.3-11.8 2.3-5.3 0-8.2 2.5-8.2 5.5 0 3.1 3.2 4.8 8 4.8 5.7 0 25.8-.2 25.8-.2 4.4-.5 8.1-3.3 9.9-7.1" fill="#cd7c4f"/><path d="m51.7 116s-20.1.2-25.8.2c-4 0-6.8-1.2-7.7-3.4-.2.5-.3 1-.3 1.5 0 3.1 3.2 4.8 8 4.8 5.7 0 25.8-.2 25.8-.2 4.4-.5 8.1-3.3 9.9-7.1l-.9-1.4c-2 3-5.2 5.1-9 5.6z" fill="#c1693e"/><path d="m25.9 120.7c-5.9 0-9.5-2.4-9.5-6.3 0-3.4 3-7 9.7-7 4.6 0 8.8-1 10.3-1.6.4-7.3 6.5-13.1 13.9-13.1.8 0 1.5.7 1.5 1.5s-.7 1.5-1.5 1.5c-6 0-10.9 4.9-10.9 10.9 0 3.4-13.1 3.8-13.3 3.8-3.9 0-6.7 1.6-6.7 4 0 2.5 3.4 3.3 6.5 3.3 4.4 0 17.4-.1 23-.2h2.5.1c3.8-.4 7.1-2.8 8.7-6.3.3-.8 1.2-1.1 2-.7.8.3 1.1 1.2.7 2-2 4.4-6.2 7.4-11 8-.1 0-.2 0-.3 0-.1 0-1.1 0-2.8 0-5.4 0-18.5.2-22.9.2z"/></g></g><g id="Head_40_"><g id="Ear_1_2_"><path d="m54 32.1c-2.7 4.9-8.8 6.7-13.6 4s-6.5-8.8-3.9-13.6 10.6-9.9 15.4-7.2 4.8 11.9 2.1 16.8z" fill="#cd7c4f"/><path d="m45.2 38.8c-1.9 0-3.8-.5-5.5-1.4-2.7-1.5-4.6-3.9-5.5-6.9-.8-3-.5-6.1 1-8.8 3-5.4 11.6-11 17.4-7.8s5.6 13.5 2.7 18.9c-2.1 3.8-6 6-10.1 6zm3.7-22.8c-3.8 0-8.9 3.4-11 7.2-1.1 2-1.4 4.3-.8 6.5s2 4 4 5.1c4.1 2.3 9.3.7 11.6-3.4 2.5-4.6 2.3-12.8-1.5-14.8-.7-.5-1.5-.6-2.3-.6z"/></g><g id="Head_39_"><path d="m66.9 53.3c0 21.5-13.2 28.7-29.5 28.7-7.6 0-23.4-1.6-28.7-5.5-6-4.6-.8-12.2-.8-23.2 0-15.8 13.2-28.7 29.5-28.7s29.5 12.8 29.5 28.7z" fill="#cd7c4f"/><path d="m62.8 67.2c-.9 1.3-3.9 9.3-19.8 9.2-6.2 0-10.8-3.9-15.9-5.7s-12.2-.7-12.2-.7l-9 .9c.1 2.1.9 4 2.9 5.4 5.2 4 21.1 5.5 28.7 5.5 8.9 0 16.9-2.2 22.3-7.7.3-1.6 3.2-7.1 3-6.9z" fill="#f1d4a5"/><path d="m7.9 61.3c0-15.3 12.8-27.7 28.5-27.7s28.5 12.4 28.5 27.7c0 2-.1 3.8-.3 5.5 1.5-3.7 2.3-8.2 2.3-13.6 0-15.8-13.2-28.7-29.5-28.7s-29.5 12.9-29.5 28.8c0 8.8-3.3 15.4-1.6 20 .7-3.4 1.6-7.4 1.6-12z" fill="#dd9665"/><path d="m37.4 83.5c-7.1 0-23.7-1.4-29.6-5.8-4.6-3.5-3.7-8.5-2.6-14.2.6-3 1.2-6.4 1.2-10.1 0-16.6 13.9-30.2 31-30.2s31 13.5 31 30.2c0 19.4-11 30.1-31 30.1zm0-57.4c-15.4 0-28 12.2-28 27.2 0 4-.7 7.5-1.2 10.7-1.1 5.9-1.5 9 1.5 11.3 4.5 3.4 19 5.2 27.8 5.2 18.6 0 28-9.1 28-27.2-.1-15-12.6-27.2-28.1-27.2z"/></g><g id="Teeth_2_"><path d="m12.6 79.3-1.6.3c-.9.1-1.7-.4-2-1.3l-1.5-5.7 6.1-1 .4 5.9c.1.9-.5 1.7-1.4 1.8z" fill="#f2f2f2"/><path d="m10.8 81.1c-1.5 0-2.8-1-3.1-2.4l-1.5-5.7c-.1-.4 0-.8.2-1.2s.6-.6 1-.7l6-1c.4-.1.8 0 1.2.3.3.3.5.7.6 1.1l.4 5.9c.1 1.7-1.1 3.2-2.7 3.4l-1.6.3c-.2 0-.4 0-.5 0zm-1.3-7.3 1.1 4.2c0 .1.1.2.3.2l1.6-.3c.1 0 .2-.1.2-.3l-.3-4.3z"/><path d="m7 72.8c-.1 0-.2 0-.2 0-.8 0-1.5-.7-1.5-1.5s.7-1.5 1.5-1.5h.1c.7 0 4.7 0 8.2-1 .8-.2 1.6.3 1.8 1.1s-.3 1.6-1.1 1.8c-3.7 1-7.8 1.1-8.8 1.1z"/></g><circle id="Eye_3_" cx="21.3" cy="61.1" r="3"/><g id="Ear_2_2_"><path d="m43.7 34.4c-.4-2.7 0-5.5 1.4-8 3.3-6 12.9-12.1 18.8-8.8s5.8 14.7 2.5 20.6c-1.6 3-4.3 5-7.3 5.9" fill="#cd7c4f"/><path d="m59.1 45.6c-.6 0-1.2-.4-1.4-1.1-.2-.8.2-1.6 1-1.9 2.8-.8 5.1-2.7 6.5-5.2 1.5-2.7 2.3-6.8 2-10.5-.3-3.9-1.7-6.9-4-8.1-5.1-2.8-13.9 3.1-16.8 8.2-1.2 2.2-1.6 4.6-1.2 7.1.1.8-.4 1.6-1.2 1.7s-1.6-.4-1.7-1.2c-.5-3.1 0-6.3 1.6-9 3.6-6.5 13.9-13.3 20.9-9.4 3.2 1.7 5.1 5.5 5.5 10.5.3 4.3-.6 8.9-2.4 12.2-1.8 3.2-4.7 5.6-8.2 6.6-.3.1-.4.1-.6.1z"/></g></g></g></svg>