<svg id="svg8" height="512" viewBox="0 0 111 111" width="512" xmlns="http://www.w3.org/2000/svg" xmlns:svg="http://www.w3.org/2000/svg"><g id="layer1"><g id="g1168" transform="matrix(.999 0 0 .999 -1.371 4.516)"><path id="path1029-3-3-3-4-6" d="m50.330204-.60973445c-1.236439-3.53111925 3.828092-6.23386715 5.982003-.92571085 4.431002 10.9198015 5.213217 22.7023883 4.411733 29.0385923l-5.636346.356216c-.329565-10.303903-.986265-17.699302-4.75739-28.46909745z" fill="#1a1c20"/><path id="path901-91-4-2" d="m54.683857 16.448944c-3.141521-3.79687-8.572481-5.927633-12.868381-5.919565-.379844.000707-.750723.01931-1.110406.05278 3.252263 2.719935 2.054818 4.961719 2.365482 8.668193-2.851002-2.383193-10.404259-5.955408-16.193744-2.486678 5.029105 2.688857 7.321075 7.02781 8.437511 11.945647l43.191439-.000001c1.116491-4.917828 3.408403-9.256809 8.437519-11.945645-5.789459-3.468575-13.343734.103625-16.194711 2.48667.310648-3.706467-.88679-5.948241 2.365531-8.668188-4.115781-.394355-9.703982 1.44237-13.217381 5.022253.560138 1.668776-5.099672-.912103-5.212859.84453z" fill="#61b15a"/><path id="path1141" d="m41.810547 8.0742188c-.457041.0008506-.900874.022379-1.332031.0625a2.4557454 2.4557454 0 0 0 -1.34961 4.3281252c1.257702 1.051841 1.322039 1.429476 1.419922 2.34375.0019.0173.000313.07012.002.08789-1.187379-.559391-2.439216-1.098553-3.867187-1.46289-3.382383-.862993-7.450973-.942723-11.06836 1.224609a2.4557454 2.4557454 0 0 0 .103516 4.271485c4.334048 2.317238 6.176328 5.809837 7.201172 10.324218a2.4557454 2.4557454 0 0 0 2.394531 1.910156h43.191406a2.4557454 2.4557454 0 0 0 2.394532-1.910156c1.024904-4.514409 2.867131-8.007008 7.201171-10.324218a2.4557454 2.4557454 0 0 0 .103516-4.271485c-3.617437-2.167275-7.685779-2.087577-11.068359-1.224609-1.428153.364352-2.681623.903479-3.869141 1.46289.0016-.01777.000101-.07059.002-.08789.09789-.914261.162188-1.291895 1.419922-2.34375a2.4557454 2.4557454 0 0 0 -1.341891-4.3261721c-4.824917-.4623013-10.501965 1.4234996-14.605468 5.2636721-.212803.07812-1.866342.314892-3.25.46289-3.740092-3.784844-9.007543-5.7997935-13.681641-5.7910152zm3.378906 5.4433592c2.82597.761986 5.809174 2.329798 7.601563 4.496094a2.4557454 2.4557454 0 0 0 1.984375.888672c1.816374-.06706 4.080082-.07189 6.185547-1.083985a2.4557454 2.4557454 0 0 0 .6875-.49414c1.795647-1.829627 4.441675-3.079805 6.964843-3.753907-.04914.235392-.20219.487208-.226562.714844-.194137 1.81323.04401 3.209259-.08594 4.759766a2.4557454 2.4557454 0 0 0 4.023438 2.089844c1.069892-.894291 3.472677-2.29161 6.027343-2.94336 1.061819-.270892 2.121791-.332875 3.166016-.326172-2.379224 2.413894-3.881347 5.325768-4.814453 8.388672h-39.585935c-.93307-3.06285-2.435319-5.974812-4.814454-8.388672 1.044118-.0067 2.104322.05529 3.166016.326172 2.554367.651731 4.957343 2.048931 6.027344 2.94336a2.4557454 2.4557454 0 0 0 4.021484-2.089844c-.129958-1.550508.108188-2.946545-.08594-4.759766-.02616-.244327-.187453-.514436-.242188-.767578z" fill="#1a1c20" font-variant-ligatures="normal" font-variant-position="normal" font-variant-caps="normal" font-variant-numeric="normal" font-variant-alternates="normal" font-variant-east-asian="normal" font-feature-settings="normal" font-variation-settings="normal" text-indent="0" text-align="start" text-decoration-line="none" text-decoration-style="solid" text-decoration-color="#000000" text-transform="none" text-orientation="mixed" white-space="normal" shape-padding="0" shape-margin="0" inline-size="0" isolation="auto" mix-blend-mode="normal" solid-color="#000000" solid-opacity="1" vector-effect="none"/><path id="path857-6-2" d="m56.921273 21.785277c-38.944144.000004-36.636903 23.104076-35.249492 32.698307 2.135627 14.768037 20.968416 49.640816 35.249493 49.640806 14.281121.00001 33.114898-34.872747 35.25049-49.640807 1.387422-9.594226 3.693687-32.698288-35.250491-32.698306z" fill="#e63823"/><path id="path1145" d="m87.255859 39.505859a4.961 4.961 0 0 0 -5.015625 4.90625c-.150868 13.795965-7.596871 38.735045-24.292968 50.34961a4.961 4.961 0 0 0 -1.240235 6.904301 4.961 4.961 0 0 0 6.90625 1.24023c20.751113-14.435419 28.363837-41.470447 28.548828-58.386719a4.961 4.961 0 0 0 -4.90625-5.013672z" fill="#c02816" font-variant-ligatures="normal" font-variant-position="normal" font-variant-caps="normal" font-variant-numeric="normal" font-variant-alternates="normal" font-variant-east-asian="normal" font-feature-settings="normal" font-variation-settings="normal" text-indent="0" text-align="start" text-decoration-line="none" text-decoration-style="solid" text-decoration-color="#000000" text-transform="none" text-orientation="mixed" white-space="normal" shape-padding="0" shape-margin="0" inline-size="0" isolation="auto" mix-blend-mode="normal" solid-color="#000000" solid-opacity="1" vector-effect="none"/><path id="path1149" d="m56.921875 19.330078c-19.957656.000002-30.236831 6.12203-34.863281 13.958984-4.62645 7.836955-3.522476 16.664261-2.816406 21.546876 1.174958 8.12494 6.511391 20.515906 13.43164 31.330078 3.460125 5.407085 7.312264 10.370714 11.353516 14.085934 4.041252 3.71523 8.324919 6.32813 12.894531 6.32813 4.569619 0 8.853184-2.61291 12.894531-6.32813 4.041348-3.715211 7.893265-8.678851 11.353516-14.085934 6.920501-10.814166 12.256692-23.205071 13.43164-31.330078.706088-4.882697 1.810302-13.709955-2.816406-21.546876-4.626708-7.83692-14.905607-13.958975-34.863281-13.958984zm0 4.910156c18.986505.000009 27.025417 5.43125 30.634766 11.544922 3.609348 6.113672 2.866881 13.636127 2.185547 18.347656-.960645 6.643054-6.10842 19.070541-12.708985 29.384766-3.300282 5.157112-6.967728 9.834214-10.541015 13.119141-3.573288 3.284926-6.999372 5.031251-9.570313 5.031251-2.570927 0-5.997125-1.746331-9.570313-5.031251-3.573187-3.284921-7.240855-7.962029-10.541015-13.119141-6.600321-10.314224-11.748316-22.741663-12.708985-29.384766-.681341-4.711613-1.423565-12.234015 2.185547-18.347656 3.609113-6.11364 11.648279-11.54492 30.634766-11.544922z" fill="#1a1c20" font-variant-ligatures="normal" font-variant-position="normal" font-variant-caps="normal" font-variant-numeric="normal" font-variant-alternates="normal" font-variant-east-asian="normal" font-feature-settings="normal" font-variation-settings="normal" text-indent="0" text-align="start" text-decoration-line="none" text-decoration-style="solid" text-decoration-color="#000000" text-transform="none" text-orientation="mixed" white-space="normal" shape-padding="0" shape-margin="0" inline-size="0" isolation="auto" mix-blend-mode="normal" solid-color="#000000" solid-opacity="1" vector-effect="none"/><path id="path1153" d="m43.277344 26.804688a2.4554999 2.4554999 0 0 0 -.298828.01953c-7.859262.996237-12.935943 5.114997-15.587891 9.763672-2.651948 4.648674-3.106632 9.620692-2.365234 13.191406a2.4554999 2.4554999 0 0 0 2.904297 1.90625 2.4554999 2.4554999 0 0 0 1.904296-2.904297c-.448064-2.157963-.159598-6.285699 1.822266-9.759766 1.981864-3.474066 5.429557-6.499026 11.939453-7.324218a2.4554999 2.4554999 0 0 0 2.126953-2.746094 2.4554999 2.4554999 0 0 0 -2.445312-2.146483z" fill="#fff" font-variant-ligatures="normal" font-variant-position="normal" font-variant-caps="normal" font-variant-numeric="normal" font-variant-alternates="normal" font-variant-east-asian="normal" font-feature-settings="normal" font-variation-settings="normal" text-indent="0" text-align="start" text-decoration-line="none" text-decoration-style="solid" text-decoration-color="#000000" text-transform="none" text-orientation="mixed" white-space="normal" shape-padding="0" shape-margin="0" inline-size="0" isolation="auto" mix-blend-mode="normal" solid-color="#000000" solid-opacity="1" vector-effect="none"/><g fill="#c02816"><path id="path1041" d="m62.674661 39.162678a3.9175658 3.9175658 0 0 1 -3.917566 3.917566 3.9175658 3.9175658 0 0 1 -3.917565-3.917566 3.9175658 3.9175658 0 0 1 3.917565-3.917566 3.9175658 3.9175658 0 0 1 3.917566 3.917566z" opacity=".998" paint-order="stroke fill markers"/><path id="path1041-1" d="m77.902483 49.349537a3.9175658 3.9175658 0 0 1 -3.917566 3.917566 3.9175658 3.9175658 0 0 1 -3.917566-3.917566 3.9175658 3.9175658 0 0 1 3.917566-3.917566 3.9175658 3.9175658 0 0 1 3.917566 3.917566" opacity=".998" paint-order="stroke fill markers"/><path id="path1041-5" d="m46.801389 49.223625a3.9175658 3.9175658 0 0 1 -3.917566 3.917566 3.9175658 3.9175658 0 0 1 -3.917565-3.917566 3.9175658 3.9175658 0 0 1 3.917565-3.917566 3.9175658 3.9175658 0 0 1 3.917566 3.917566" opacity=".998" paint-order="stroke fill markers"/><path id="path1041-3" d="m62.540803 60.430088a3.9175658 3.9175658 0 0 1 -3.917565 3.917566 3.9175658 3.9175658 0 0 1 -3.917566-3.917566 3.9175658 3.9175658 0 0 1 3.917566-3.917566 3.9175658 3.9175658 0 0 1 3.917565 3.917566" opacity=".998" paint-order="stroke fill markers"/><path id="path1041-2" d="m46.171815 69.244164a3.9175658 3.9175658 0 0 1 -3.917565 3.917565 3.9175658 3.9175658 0 0 1 -3.917566-3.917565 3.9175658 3.9175658 0 0 1 3.917566-3.917566 3.9175658 3.9175658 0 0 1 3.917565 3.917566" opacity=".998" paint-order="stroke fill markers"/><path id="path1041-4" d="m61.659399 81.583862a3.9175658 3.9175658 0 0 1 -3.917566 3.917566 3.9175658 3.9175658 0 0 1 -3.917566-3.917566 3.9175658 3.9175658 0 0 1 3.917566-3.917566 3.9175658 3.9175658 0 0 1 3.917566 3.917566" opacity=".998" paint-order="stroke fill markers"/></g></g></g></svg>