<?xml version="1.0" encoding="iso-8859-1"?>
<!-- Generator: Adobe Illustrator 21.0.0, SVG Export Plug-In . SVG Version: 6.00 Build 0)  -->
<svg version="1.1" id="Capa_1" xmlns="http://www.w3.org/2000/svg" xmlns:xlink="http://www.w3.org/1999/xlink" x="0px" y="0px"
	 viewBox="0 0 593.282 593.282" style="enable-background:new 0 0 593.282 593.282;" xml:space="preserve">
<g>
	<g>
		<g id="filled_outline_30_">
			<path style="fill:#C3C9D1;" d="M408.702,227.425H227.425l25.837-51.675c2.343-4.687,7.139-7.653,12.38-7.653h118.775
				c6.496,0,12.123,4.529,13.517,10.877L408.702,227.425z"/>
			<polygon style="fill:#B7BDC4;" points="247.201,187.873 227.425,227.425 408.702,227.425 399.912,187.873 			"/>
			<path style="fill:#4394CC;" d="M442.984,231.074c-11.213-14.753-28.685-23.425-47.225-23.425h-138.67
				c-15.732,0-30.831,6.249-41.955,17.373l-51.833,51.843H477.8L442.984,231.074z"/>
			<path style="fill:#F5AE45;" d="M543.842,276.865H163.301l-117.144,6.862c-20.508,1.711-36.269,18.847-36.269,39.424v52.594
				h573.506v-59.328C583.394,294.575,565.684,276.865,543.842,276.865z"/>
			<rect x="9.888" y="316.417" style="fill:#C3C9D1;" width="39.552" height="19.776"/>
			<path style="fill:#DD381A;" d="M543.842,276.865v39.552h39.552C583.394,294.575,565.684,276.865,543.842,276.865z"/>
			<rect x="9.888" y="336.193" style="fill:#F09E26;" width="573.506" height="39.552"/>
			<circle style="fill:#697B8C;" cx="108.768" cy="375.745" r="49.44"/>
			<circle style="fill:#C3C9D1;" cx="108.768" cy="375.745" r="19.776"/>
			<circle style="fill:#697B8C;" cx="454.849" cy="375.745" r="49.44"/>
			<circle style="fill:#C3C9D1;" cx="454.849" cy="375.745" r="19.776"/>
			<path style="fill:#3E89BD;" d="M442.984,231.074c-6.032-7.901-13.972-14.15-23.059-18.174l-63.956,63.966H477.8L442.984,231.074z
				"/>
			<path style="fill:#D03418;" d="M543.842,296.641v19.776h39.552c-0.04-6.961-1.928-13.794-5.488-19.776H543.842z"/>
			<rect x="197.761" y="316.417" width="98.88" height="19.776"/>
			<rect x="355.969" y="316.417" width="29.664" height="19.776"/>
			<path d="M543.842,266.977h-61.138l-31.81-41.886c-9.305-12.133-22.347-20.854-37.11-24.829l-8.642-34.608
				c-1.117-4.39-5.082-7.465-9.621-7.446H257.089c-3.748,0-7.179,2.116-8.85,5.468l-19.776,39.552
				c-0.148,0.297-0.198,0.613-0.316,0.92c-7.426,3.401-14.199,8.088-19.994,13.843l-49.193,49.183l-113.623,6.724
				C19.786,276.163,0.148,297.501,0,323.151v52.594c0,5.458,4.43,9.888,9.888,9.888H50.33c5.429,32.275,35.992,54.038,68.267,48.61
				c24.908-4.193,44.417-23.702,48.61-48.61h229.205c5.429,32.275,35.992,54.038,68.267,48.61
				c24.908-4.193,44.417-23.702,48.61-48.61h70.106c5.458,0,9.888-4.43,9.888-9.888v-59.328
				C593.252,289.126,571.133,267.007,543.842,266.977z M573.506,316.417H553.73v-27.845
				C565.536,292.745,573.456,303.889,573.506,316.417z M435.123,237.056l22.742,29.921H336.193v-49.44h59.566
				C411.194,217.586,425.739,224.795,435.123,237.056z M253.312,197.761l9.888-19.776h124.589l4.944,19.776
				C392.733,197.761,253.312,197.761,253.312,197.761z M222.135,232.013c9.255-9.295,21.833-14.516,34.954-14.476h59.328v49.44
				H187.171L222.135,232.013z M19.776,336.193H49.44v-19.776H20.646c2.907-12.419,13.398-21.595,26.095-22.822l116.807-6.843
				h152.869v79.104H167.276c0-0.227-0.129-0.435-0.178-0.663c-0.544-2.976-1.305-5.913-2.294-8.771
				c-0.178-0.514-0.376-0.989-0.564-1.543c-1.048-2.808-2.314-5.537-3.777-8.158c-0.218-0.376-0.455-0.732-0.672-1.107
				c-1.572-2.69-3.352-5.251-5.33-7.663l-0.168-0.188c-1.997-2.373-4.183-4.588-6.536-6.625c-0.267-0.237-0.504-0.484-0.771-0.702
				c-2.314-1.938-4.766-3.698-7.347-5.26c-0.435-0.267-0.86-0.534-1.305-0.791c-2.581-1.493-5.28-2.788-8.059-3.876l-1.473-0.544
				c-2.897-1.048-5.873-1.869-8.899-2.462c-0.396-0.079-0.791-0.119-1.187-0.188c-6.585-1.196-13.329-1.196-19.914,0
				c-0.396,0.069-0.791,0.109-1.187,0.188c-3.026,0.593-6.002,1.414-8.899,2.462l-1.473,0.544c-2.779,1.088-5.478,2.383-8.059,3.876
				c-0.445,0.257-0.87,0.524-1.305,0.791c-2.581,1.562-5.033,3.322-7.347,5.26c-0.267,0.218-0.504,0.465-0.771,0.702
				c-2.353,2.037-4.539,4.252-6.536,6.625l-0.168,0.188c-1.978,2.413-3.757,4.974-5.33,7.673c-0.218,0.366-0.455,0.722-0.662,1.098
				c-1.473,2.62-2.739,5.349-3.787,8.158c-0.188,0.514-0.386,0.989-0.564,1.543c-0.989,2.858-1.75,5.794-2.294,8.771
				c0,0.227-0.138,0.435-0.178,0.663H19.776V336.193z M108.768,415.298c-21.843,0-39.552-17.709-39.552-39.552
				c0-21.843,17.709-39.552,39.552-39.552s39.552,17.709,39.552,39.552C148.32,397.588,130.611,415.298,108.768,415.298z
				 M454.849,415.298c-21.843,0-39.552-17.709-39.552-39.552c0-21.843,17.709-39.552,39.552-39.552s39.552,17.709,39.552,39.552
				C494.402,397.588,476.692,415.298,454.849,415.298z M513.357,365.857c0-0.227-0.129-0.435-0.178-0.663
				c-0.544-2.976-1.305-5.913-2.294-8.771c-0.178-0.514-0.376-0.989-0.564-1.543c-1.048-2.808-2.314-5.537-3.777-8.158
				c-0.218-0.376-0.455-0.732-0.672-1.107c-1.572-2.69-3.352-5.251-5.33-7.663l-0.168-0.188c-1.997-2.373-4.183-4.588-6.536-6.625
				c-0.267-0.237-0.504-0.484-0.771-0.702c-2.314-1.938-4.766-3.698-7.347-5.26c-0.435-0.267-0.86-0.534-1.305-0.791
				c-2.581-1.493-5.28-2.788-8.059-3.876l-1.473-0.544c-2.897-1.048-5.874-1.869-8.899-2.462c-0.396-0.079-0.791-0.119-1.187-0.188
				c-6.585-1.196-13.329-1.196-19.915,0c-0.396,0.069-0.791,0.109-1.187,0.188c-3.026,0.593-6.002,1.414-8.899,2.462l-1.473,0.544
				c-2.779,1.088-5.478,2.383-8.059,3.876c-0.445,0.257-0.87,0.524-1.305,0.791c-2.581,1.562-5.033,3.322-7.347,5.26
				c-0.267,0.218-0.504,0.465-0.771,0.702c-2.353,2.037-4.539,4.252-6.536,6.625l-0.168,0.188c-1.978,2.413-3.757,4.974-5.33,7.673
				c-0.218,0.366-0.455,0.722-0.663,1.098c-1.473,2.62-2.739,5.349-3.787,8.158c-0.188,0.514-0.386,0.989-0.564,1.543
				c-0.989,2.858-1.75,5.794-2.294,8.771c-0.049,0.227-0.138,0.435-0.178,0.663h-60.129v-79.104h197.761v39.552
				c0,5.458,4.43,9.888,9.888,9.888h29.664v29.664H513.357z"/>
			<rect x="197.761" y="316.417" width="98.88" height="19.776"/>
			<rect x="355.969" y="316.417" width="29.664" height="19.776"/>
		</g>
	</g>
</g>
<g>
</g>
<g>
</g>
<g>
</g>
<g>
</g>
<g>
</g>
<g>
</g>
<g>
</g>
<g>
</g>
<g>
</g>
<g>
</g>
<g>
</g>
<g>
</g>
<g>
</g>
<g>
</g>
<g>
</g>
</svg>
