<svg id="Layer_1" enable-background="new 0 0 512 512" height="512" viewBox="0 0 512 512" width="512" xmlns="http://www.w3.org/2000/svg"><g><g><g><path d="m40.633 352.678c18.204-45.511 56.686-93.068 99.4-119.594h22.3v125.916h-121.7z" fill="#9d6b6b"/><path d="m58.567 434.111c-20.306-7.662-34.501-25.186-34.501-45.578 0-27.448 25.718-49.7 57.442-49.7 2.353 0 4.673.122 6.952.36h15.206v94.918z" fill="#f8e7d5"/></g><g><path d="m471.367 352.678c-18.204-45.511-56.686-93.068-99.4-119.594h-22.3v125.916h121.7z" fill="#9d6b6b"/><path d="m371.967 233.084h-22.3v.447c42.434 26.609 80.596 73.886 98.7 119.147v6.322h23v-6.322c-18.205-45.511-56.686-93.068-99.4-119.594z" fill="#8b5e5e"/><path d="m453.433 434.111c20.306-7.662 34.5-25.186 34.5-45.578 0-27.448-25.717-49.7-57.442-49.7-2.353 0-4.673.122-6.952.36h-15.206v94.918z" fill="#f8e7d5"/><path d="m430.492 338.833c-2.353 0-4.673.122-6.952.36h-9.232c28.509 2.918 50.625 23.888 50.625 49.34 0 20.392-14.194 37.916-34.5 45.578h23c20.306-7.662 34.5-25.186 34.5-45.578 0-27.448-25.717-49.7-57.441-49.7z" fill="#f2d0b3"/></g><path d="m321.41 474.95c-17.602 8.343-39.202 12.983-65.41 12.983-26.209 0-47.811-4.641-65.413-12.985l-65.738-152.273c3.927-23.652 15.925-48.338 32.207-69.927h197.887c16.277 21.583 28.273 46.26 32.203 69.906z" fill="#aa8080"/><g><ellipse cx="131.75" cy="413.383" fill="#9d6b6b" rx="74.55" ry="91.117"/><g><ellipse cx="131.75" cy="424.664" fill="#f8e7d5" rx="44.73" ry="49.422"/></g><path d="m131.75 322.267c-3.911 0-7.752.37-11.5 1.08 35.712 6.759 63.05 44.495 63.05 90.037 0 46.457-19.063 84.791-63.05 90.407 3.66.467 7.491.71 11.5.71 52.185 0 74.55-40.794 74.55-91.117s-33.377-91.117-74.55-91.117z" fill="#8b5e5e"/><path d="m131.75 375.242c-4.24 0-8.076.3-11.577.848 27.279 4.267 33.153 24.384 33.153 48.574 0 22.87-14.063 42.104-33.153 47.741 3.694 1.091 7.572 1.681 11.577 1.681 24.704 0 44.73-22.127 44.73-49.422s-7.455-49.422-44.73-49.422z" fill="#f2d0b3"/></g><g><ellipse cx="380.25" cy="413.383" fill="#9d6b6b" rx="74.55" ry="91.117"/><g><ellipse cx="380.25" cy="424.664" fill="#f8e7d5" rx="44.73" ry="49.422"/></g><path d="m380.25 322.267c-3.911 0-7.751.37-11.5 1.08 35.712 6.759 63.05 44.495 63.05 90.037 0 46.457-19.063 84.791-63.05 90.407 3.66.467 7.491.71 11.5.71 52.185 0 74.55-40.794 74.55-91.117s-33.377-91.117-74.55-91.117z" fill="#8b5e5e"/><path d="m380.25 375.242c-4.209 0-8.019.296-11.5.836 27.345 4.241 33.23 24.373 33.23 48.586 0 22.901-14.1 42.157-33.23 47.765 3.67 1.076 7.523 1.657 11.5 1.657 24.704 0 44.73-22.127 44.73-49.422s-7.455-49.422-44.73-49.422z" fill="#f2d0b3"/></g><g><path d="m127.959 146.828c-22.476-12.839-37.625-37.039-37.625-64.778 0-41.173 33.377-74.55 74.55-74.55 27.095 0 50.814 14.455 63.866 36.073z" fill="#9d6b6b"/><path d="m140.103 115.239c-10.099-7.553-16.636-19.607-16.636-33.189 0-22.874 18.543-41.417 41.417-41.417 12.83 0 24.298 5.834 31.895 14.994z" fill="#f8e7d5"/></g><g><path d="m285.217 44.03c12.993-21.871 36.855-36.53 64.14-36.53 41.173 0 74.55 33.377 74.55 74.55 0 28.537-16.034 53.329-39.585 65.859z" fill="#9d6b6b"/><path d="m316.772 56.482c7.583-9.65 19.36-15.849 32.585-15.849 22.874 0 41.417 18.543 41.417 41.417 0 14.296-7.243 26.9-18.26 34.343z" fill="#f8e7d5"/><path d="m349.357 7.5c-3.905 0-7.737.31-11.48.889 35.702 5.539 63.03 36.407 63.03 73.661 0 22.484-9.958 42.638-25.699 56.306l9.113 9.552c23.551-12.529 39.585-37.322 39.585-65.859.001-41.172-33.376-74.549-74.549-74.549z" fill="#8b5e5e"/><path d="m349.357 40.633c-3.993 0-7.851.574-11.505 1.629 17.279 4.984 29.922 20.904 29.922 39.788 0 8.198-2.39 15.832-6.499 22.263l11.239 12.08c11.017-7.443 18.26-20.047 18.26-34.343 0-22.874-18.543-41.417-41.417-41.417z" fill="#f2d0b3"/></g><path d="m328.581 271.396c36.106-19.422 59.952-52.917 59.952-90.981 0-62.125-49.7-139.781-132.533-139.781s-132.533 77.656-132.533 139.781c0 38.066 23.849 71.563 59.958 90.984z" fill="#9d6b6b"/><path d="m256 40.633c-3.908 0-7.741.174-11.5.51 75.912 6.784 121.033 80.077 121.033 139.271 0 38.072-23.86 71.566-59.98 90.984h23.004c36.116-19.421 59.975-52.914 59.975-90.984.001-62.124-49.699-139.781-132.532-139.781z" fill="#8b5e5e"/><ellipse cx="198.017" cy="140.033" fill="#2b4d66" rx="16.567" ry="16.567" transform="matrix(.707 -.707 .707 .707 -41.021 181.034)"/><ellipse cx="313.983" cy="140.033" fill="#2b4d66" rx="16.567" ry="16.567" transform="matrix(.23 -.973 .973 .23 105.558 413.444)"/><path d="m280.632 176.146-49.147-.029c-33.779 8.361-58.318 33.546-58.318 63.316 0 11.591 3.729 22.482 10.266 31.961 20.848 11.212 45.776 17.739 72.567 17.739s51.719-6.527 72.567-17.739c6.537-9.479 10.267-20.37 10.267-31.961-.001-29.736-24.483-54.897-58.202-63.287z" fill="#f8e7d5"/><path d="m280.632 176.146-49.147-.029c-.017.004-.034.009-.051.014l26.198.016c33.719 8.39 58.201 33.551 58.201 63.287 0 11.591-3.73 22.482-10.267 31.961-17.831 9.59-38.653 15.737-61.067 17.319 3.792.268 7.624.42 11.5.42 26.791 0 51.719-6.527 72.567-17.739 6.537-9.479 10.267-20.37 10.267-31.961 0-29.737-24.482-54.898-58.201-63.288z" fill="#f2d0b3"/><path d="m280.85 173.167c0 9.149-11.126 24.85-24.85 24.85s-24.85-15.701-24.85-24.85c0-9.15 11.126-16.567 24.85-16.567s24.85 7.417 24.85 16.567z" fill="#365e7d"/></g><g><path d="m131.75 367.742c-46.816 0-52.23 32.486-52.23 56.922 0 31.387 23.43 56.922 52.23 56.922s52.23-25.535 52.23-56.922c0-24.436-5.414-56.922-52.23-56.922zm0 98.844c-20.529 0-37.23-18.806-37.23-41.922 0-25.881 6.228-41.922 37.23-41.922s37.23 16.041 37.23 41.922c0 23.116-16.701 41.922-37.23 41.922z"/><path d="m380.25 367.742c-46.816 0-52.23 32.486-52.23 56.922 0 31.387 23.43 56.922 52.23 56.922s52.23-25.535 52.23-56.922c0-24.436-5.414-56.922-52.23-56.922zm0 98.844c-20.529 0-37.23-18.806-37.23-41.922 0-25.881 6.228-41.922 37.23-41.922s37.23 16.041 37.23 41.922c0 23.116-16.701 41.922-37.23 41.922z"/><path d="m198.017 164.1c13.27 0 24.067-10.796 24.067-24.067s-10.796-24.066-24.067-24.066-24.066 10.796-24.066 24.066 10.795 24.067 24.066 24.067zm0-33.133c4.999 0 9.067 4.067 9.067 9.066s-4.067 9.067-9.067 9.067c-4.999 0-9.066-4.067-9.066-9.067-.001-4.999 4.067-9.066 9.066-9.066z"/><path d="m313.983 164.1c13.271 0 24.066-10.796 24.066-24.067s-10.796-24.066-24.066-24.066-24.067 10.796-24.067 24.066 10.797 24.067 24.067 24.067zm0-33.133c4.999 0 9.066 4.067 9.066 9.066s-4.067 9.067-9.066 9.067c-5 0-9.067-4.067-9.067-9.067.001-4.999 4.068-9.066 9.067-9.066z"/><path d="m495.433 388.533c0-14.881-6.49-28.448-17.101-38.634-.001-.002-.001-.004-.002-.006-18.324-45.81-55.59-91.778-96.144-119.109 8.871-15.246 13.847-32.335 13.847-50.369 0-9.459-1.086-19.145-3.157-28.795 23.906-14.954 38.531-41.105 38.531-69.57 0-45.242-36.807-82.05-82.05-82.05-26.996 0-52.444 13.526-67.661 35.63-8.362-1.652-16.951-2.497-25.696-2.497-8.052 0-15.969.727-23.701 2.13-15.353-22.176-40.181-35.263-67.416-35.263-45.242 0-82.05 36.808-82.05 82.05 0 27.484 13.882 53.157 36.576 68.301-2.252 10.069-3.442 20.189-3.442 30.063 0 18.035 4.976 35.123 13.847 50.369-40.554 27.331-77.82 73.299-96.144 119.109-.001.002-.001.004-.002.006-10.611 10.185-17.101 23.753-17.101 38.634 0 21.59 13.696 41.15 35.251 50.892 2.866 16.806 8.611 31.35 17.044 42.828 14.297 19.462 36.044 29.748 62.888 29.748 25.91 0 47.069-9.586 61.367-27.752 17.996 7.417 39.107 11.185 62.883 11.185s44.887-3.768 62.884-11.185c14.297 18.167 35.456 27.752 61.366 27.752 26.844 0 48.591-10.286 62.888-29.747 8.433-11.478 14.178-26.022 17.044-42.828 21.555-9.742 35.251-29.302 35.251-50.892zm-40.187-52.871c-7.634-2.783-15.992-4.328-24.754-4.328-1.527 0-3.056.062-4.579.155-9.57-7.733-20.564-13.105-32.399-15.427-4.358-20.416-14.386-42.243-28.737-62.547 3.219-3.293 6.231-6.732 9.008-10.308 32.349 21.77 62.487 56.18 81.461 92.455zm-96.169-253.252c-9.044-10.791-19.24-19.93-30.321-27.302 5.849-4.489 13.025-6.974 20.6-6.974 18.702 0 33.917 15.215 33.917 33.916 0 8.447-3.134 16.462-8.638 22.613-4.554-7.859-9.763-15.339-15.558-22.253zm-9.72-67.41c36.972 0 67.05 30.079 67.05 67.05 0 21.698-10.4 41.751-27.655 54.269-1.942-5.995-4.254-11.918-6.909-17.71 10.381-9.224 16.43-22.471 16.43-36.56 0-26.973-21.944-48.916-48.917-48.916-12.984 0-25.158 5.049-34.26 14.012-5.742-2.903-11.671-5.366-17.754-7.383 12.635-15.466 31.791-24.762 52.015-24.762zm31.676 165.415c0 27.577-13.7 52.609-35.872 70.883.777-3.91 1.173-7.879 1.173-11.865 0-31.039-23.145-58.155-58.181-68.961-1.749-12.181-15.24-21.372-32.153-21.372-16.912 0-30.402 9.189-32.152 21.369-15.718 4.858-29.345 13.13-39.664 24.152-12.114 12.939-18.517 28.435-18.517 44.813 0 3.986.396 7.955 1.173 11.865-22.172-18.274-35.872-43.306-35.872-70.883 0-55.458 43.451-132.281 125.033-132.281s125.032 76.822 125.032 132.28zm-192.42 85.226c-5.273-8.183-7.947-16.991-7.947-26.208 0-23.939 18.316-45.094 46.219-54.196 4.127 8.283 11.911 16.315 21.614 19.173v35.023c0 4.142 3.358 7.5 7.5 7.5s7.5-3.358 7.5-7.5v-35.023c9.704-2.858 17.487-10.89 21.614-19.173 27.9 9.103 46.219 30.268 46.219 54.196 0 9.217-2.674 18.025-7.947 26.208-19.459 10.118-42.591 15.992-67.387 15.992-24.793 0-47.926-5.873-67.385-15.992zm50.037-92.474c0-4.193 7.579-9.066 17.35-9.066s17.35 4.874 17.35 9.066c0 5.565-8.209 17.35-17.35 17.35-8.189 0-15.624-9.454-17.086-15.425-.036-.259-.085-.518-.149-.777-.008-.031-.02-.061-.028-.092-.056-.371-.087-.726-.087-1.056zm-107.683-91.117c0-18.702 15.215-33.916 33.917-33.916 7.093 0 13.884 2.203 19.544 6.2-11.538 7.503-22.14 16.903-31.504 28.076-5.41 6.455-10.303 13.408-14.636 20.697-4.713-5.916-7.321-13.25-7.321-21.057zm-33.133 0c0-36.971 30.079-67.05 67.05-67.05 20.278 0 38.919 8.884 51.566 24.172-6.192 1.953-12.224 4.379-18.071 7.243-9.026-8.496-20.932-13.282-33.495-13.282-26.973 0-48.916 21.944-48.916 48.916 0 13.234 5.473 25.944 14.867 35.094-2.736 5.816-5.123 11.773-7.138 17.806-16.146-12.607-25.863-32.118-25.863-52.899zm40.381 161.157c2.777 3.576 5.789 7.014 9.008 10.308-14.351 20.304-24.378 42.13-28.736 62.546-11.836 2.322-22.83 7.694-32.4 15.427-1.523-.093-3.052-.155-4.579-.155-8.762 0-17.12 1.545-24.754 4.328 18.974-36.274 49.113-70.684 81.461-92.454zm-106.648 145.326c0-20.193 16.876-37.11 39.333-41.232-13.168 17.5-21.2 40.684-21.2 66.082 0 2.641.078 5.232.196 7.796-11.413-7.907-18.329-19.831-18.329-32.646zm100.183 108.467c-60.517 0-67.05-58.476-67.05-83.617 0-43.435 26.698-79.229 60.701-83.232.095-.007.19-.016.284-.027 1.999-.225 4.019-.358 6.064-.358 36.971 0 67.05 37.51 67.05 83.617 0 14.026-2.038 38.424-14.344 57.259-.117.167-.231.338-.336.517-9.786 14.673-25.922 25.841-52.369 25.841zm69.598-25.614c8.172-15.756 12.452-35.528 12.452-58.003 0-53.4-35.497-97.019-79.62-98.57 4.247-16.692 12.625-34.373 24.24-51.13 25.239 20.378 59.671 32.95 97.58 32.95s72.341-12.573 97.58-32.95c11.615 16.757 19.993 34.438 24.24 51.13-44.122 1.551-79.62 45.17-79.62 98.57 0 22.475 4.281 42.247 12.452 58.003-15.633 6.001-33.968 9.047-54.652 9.047-20.685 0-39.019-3.046-54.652-9.047zm178.902 25.614c-26.464 0-42.604-11.182-52.389-25.869-.069-.117-.146-.228-.22-.34-12.392-18.854-14.44-43.344-14.44-57.407 0-46.106 30.079-83.617 67.05-83.617s67.05 37.51 67.05 83.617c-.001 25.14-6.534 83.616-67.051 83.616zm81.854-75.821c.117-2.564.196-5.155.196-7.796 0-25.398-8.031-48.582-21.199-66.082 22.457 4.122 39.333 21.039 39.333 41.232-.001 12.815-6.917 24.739-18.33 32.646z"/></g></g></svg>