<svg enable-background="new 0 0 128 128" height="512" viewBox="0 0 128 128" width="512" xmlns="http://www.w3.org/2000/svg"><g id="Tiger"><g id="Tail_15_"><path d="m110.6 109.9c-.2 0-.4 0-.6 0-10.4-1.8-20.5-20.2-22.4-23.9-.9-1.7-.2-3.8 1.5-4.7s3.8-.2 4.7 1.5c4.1 7.8 12.2 19.3 17.3 20.1 1.9.3 3.2 2.1 2.9 4-.3 1.7-1.8 3-3.4 3z" fill="#fdb62e"/><path d="m96 99.2c1.1 1.4 2.3 2.8 3.6 4.1l4.8-5.1c-1.2-1.3-2.4-2.7-3.5-4.2z" fill="#472d07"/><path d="m103.1 106.5c1.5 1.2 3.1 2.1 4.7 2.7l3.6-6.2c-.1 0-.2-.1-.3-.1-1.3-.2-2.9-1.2-4.5-2.5z" fill="#472d07"/><path d="m110.6 111.4c-.3 0-.5 0-.8-.1-10.9-1.8-20.8-19.3-23.6-24.6-1.3-2.4-.3-5.5 2.1-6.7 2.4-1.3 5.5-.3 6.7 2.1 4.6 8.8 12.2 18.7 16.2 19.3 1.3.2 2.5.9 3.3 2s1.1 2.4.9 3.7c-.3 2.5-2.4 4.3-4.8 4.3zm-19.9-29c-.3 0-.6.1-.9.2-1 .5-1.4 1.7-.9 2.7 5.1 9.8 13.8 21.8 21.3 23 1.1.2 2.1-.6 2.3-1.7.1-.5 0-1.1-.4-1.5-.3-.4-.8-.7-1.3-.8-6.7-1.1-15.6-15.5-18.4-20.9-.3-.6-1-1-1.7-1z"/></g><g id="Body_34_"><path d="m88.2 76.7-.9-4.6-41 10-.9 5.1-.1-.1c-4.8 4-6.2 30.7 0 30 .8-.1 1.5-.1 2.1-.2 2.1-.2 3.8-1.9 3.8-4.1 0-.8.1-1.7.2-2.8 4.3 2.1 9.7 3.8 15.5 3.4-.1 1.9-.3 3.4-.6 3.7-.8 1 6.7 2.6 8 1 .5-.6 1.4-3.5 2.1-6.7 3.8-1.1 7-2.5 9.6-3.8-.5 2.9-.9 5.7-.7 6.5.6 1.6 6 0 6 0 5.8-8.7 8.1-29.3-3.1-37.4" fill="#fdb62e"/><path d="m91.3 114.1s-1.1.3-2.4.5c-.7.1-1.5.2-2.1.2-.7-.1-1.2-.3-1.4-.7-.3-.7 0-3 .5-5.5.1-.3.1-.6.2-.9-.1 0-.1.1-.2.1-.8.4-1.6.8-2.5 1.2-1.3.6-2.7 1.1-4.2 1.6-.9.3-1.8.6-2.7.9-.6 3.2-1.6 6.1-2.1 6.7-1.3 1.6-8.8 0-8-1 .2-.3.4-1.8.6-3.7-1.8.1-3.6 0-5.3-.2-1.4-.2-2.8-.5-4.2-.9-2.2-.6-4.2-1.4-6-2.3-.2 1.1-.2 2-.2 2.8 0 2.1-1.6 3.9-3.8 4.1-.6 0-1.3.1-2.1.2-6.2.7-4.8-26 0-30l.1.1.9-5.1 9.2-2.2 2.7-.7 4.4-1.1 1.4-.3 23.4-5.7.7 3.8.2.8c1.5 1.1 2.7 2.3 3.7 3.8 6.6 9.4 4.3 25.9-.8 33.5z" fill="#fdb62e"/><path d="m59.6 95.7c14.4 0 27.1-3.4 33.8-11.8-1.2-2.4-2.9-4.5-5.2-6.1l-.9-4.6-41 10-.9 5.1-.1-.1c-1.1.9-2 3-2.7 5.6 5.1 1.3 10.9 1.9 17 1.9z" fill="#fc9c1b"/><path d="m83.2 108.9c-1.3.6-2.7 1.1-4.2 1.6 0-.2 0-.5 0-.7 0-6.3.9-11.3 2.1-11.3 1.1 0 2 4.6 2.1 10.4z" fill="#472d07"/><ellipse cx="79.5" cy="86.1" fill="#472d07" rx="2.1" ry="11.3"/><path d="m58.9 88.2c0 6.3-.9 11.3-2.1 11.3s-2.1-5.1-2.1-11.3c0-3.3.3-6.2.7-8.3l2.7-.7c.5 2.1.8 5.3.8 9z" fill="#472d07"/><path d="m54.8 88.2c0 2.8.2 5.4.5 7.4 1 .1 2.1.1 3.1.1.3-2 .5-4.6.5-7.5 0-3.1-.2-5.9-.6-8l-3.1.7c-.2 2-.4 4.5-.4 7.3z" fill="#2d1a03"/><g fill="#472d07"><path d="m65.4 88.7c0 6.3-.9 11.3-2.1 11.3-1.1 0-2.1-5.1-2.1-11.3 0-4.8.5-8.8 1.3-10.5l1.4-.3c.8 1.3 1.5 5.7 1.5 10.8z"/><path d="m61.6 112.6v.6c-1.4-.2-2.8-.5-4.2-.9 0-6.1 1-11.1 2.1-11.1 1.1.1 2.1 5.1 2.1 11.4z"/><ellipse cx="84.9" cy="84.8" rx="2.1" ry="11.3"/><path d="m91.9 81.3c0 6.3-.9 11.3-2.1 11.3s-2.1-5.1-2.1-11.3c0-2 .1-3.8.3-5.4l.2.8c1.5 1.1 2.7 2.3 3.7 3.8z"/></g><path d="m81.6 86.1c0 2.3-.1 4.4-.3 6.1-1.1.4-2.2.8-3.4 1.2-.3-2-.5-4.5-.5-7.3 0-5.2.7-9.7 1.6-10.9.2-.3.3-.4.5-.4.1 0 .2.1.4.2 1 .8 1.7 5.5 1.7 11.1z" fill="#2d1a03"/><path d="m81.3 92.2c-.4 3.1-1 5.2-1.8 5.2-.6 0-1.2-1.6-1.6-4 1.2-.4 2.3-.8 3.4-1.2z" fill="#472d07"/><path d="m65.4 88.7c0 2.6-.2 4.9-.4 6.8-1.1.1-2.2.1-3.3.1-.3-1.9-.5-4.3-.5-7 0-3.9.4-7.4.9-9.4.1-.4.3-.8.4-1.1l1.4-.3c.1.2.3.5.4.9.6 2 1.1 5.7 1.1 10z" fill="#2d1a03"/><path d="m64.9 95.5c-.4 2.7-1 4.5-1.7 4.5s-1.3-1.7-1.6-4.3c1.2-.1 2.3-.1 3.3-.2z" fill="#472d07"/><path d="m87 84.8c0 1.7-.1 3.3-.2 4.7-1.1.7-2.3 1.3-3.6 1.9-.3-1.9-.4-4.1-.4-6.6 0-5.3.7-9.7 1.6-11 .2-.2.3-.4.5-.4.1 0 .2.1.3.2 1 .9 1.8 5.6 1.8 11.2z" fill="#2d1a03"/><path d="m86.8 89.5c-.3 3.9-1 6.6-1.9 6.6-.7 0-1.3-1.8-1.7-4.7 1.3-.5 2.5-1.2 3.6-1.9z" fill="#472d07"/><path d="m91.9 81.6c-.2-.3-.4-.6-.6-.8-.1-.1-.2-.2-.3-.3-.4-.4-.7-.8-1.1-1.2-.1-.1-.2-.2-.3-.3-.4-.4-.9-.8-1.4-1.1l-.2-1.2c-.1 1.4-.2 3-.2 4.7 0 2.8.2 5.3.5 7.3 1.3-.9 2.5-1.9 3.5-3 .1-1.3.1-2.7.1-4.1z" fill="#2d1a03"/><path d="m88 105c.3-.2.6-.3.8-.5l.2-.1.2-.1c.2-.1.4-.2.6-.2-.1-5.7-1-10.2-2.1-10.2-1.2 0-2.1 5.1-2.1 11.3v1c.8-.4 1.7-.8 2.4-1.2z" fill="#472d07"/><path d="m96.9 88.4c-1.2-5.4-3.7-9.7-7.4-12.6l-.2 3.7 1.2 1.7c1.9 2.6 2.9 5.5 3.4 7.9.8 3.8.8 7.8.3 11.5-.2 1.5-.5 2.9-.8 4.3-.8 3.2-1.9 5.9-3.2 8-1.4.4-3 .6-3.6.5 0-.8.2-2.6.6-4.7v-.2c1.2-.6 2.3-1.3 2.8-1.5.7-.4 1.4-1.1 1.2-1.9-.3-.8-1.1-1.5-2-.9l-.2.1-.2.1c-.2.1-.5.3-.8.5s-.6.3-.9.5c-.9.5-1.9 1-2.6 1.4-1.8.9-4 1.8-6.4 2.6.3-2.5.2-4.9-.5-6.7-.3-.8-1.2-1.1-2-.8s-1.1 1.2-.8 1.9c.7 1.6.5 4.2.1 6.6-.2 1.2-.4 2.3-.7 3.3-.5 1.8-.9 3.1-1.2 3.6-.8.4-3.8 0-5.2-.5.1-.4.2-1.1.3-1.9s.2-1.8.3-3.1c.1-2.1.2-4.8.3-8.6 0-.8-.6-1.5-1.5-1.5-.8 0-1.5.7-1.5 1.5-.1 3-.2 6.3-.3 8.9-4.5.1-8.8-1.2-12.4-2.8.3-1.7.9-3.5 1.6-5.5.3-.8-.1-1.6-.9-1.9s-1.6.1-1.9.9c-.7 1.8-1.2 3.6-1.6 5.2-.3 1.1-.5 2.2-.6 3.2-.1.7-.1 1.3-.1 1.9 0 1.4-1 2.5-2.4 2.6-.6 0-1.3.1-2.1.2-.5 0-1-1-1.2-1.4-.8-1.9-1.2-4.7-1.3-7.9-.2-7.4 1.5-16.3 3.6-18.1.6-.5.7-1.5.2-2.1s-1.5-.7-2.1-.2c-.1.1-.2.2-.3.3-4.4 4.4-5.7 22.4-2.9 29.1 1.2 2.8 2.9 3.3 3.9 3.3h.4c.8-.1 1.4-.1 2.1-.2 2.9-.2 5.1-2.6 5.1-5.6 0-.2 0-.4 0-.6 3.6 1.5 7.9 2.7 12.5 2.7h.1c-.1.7-.1 1.1-.2 1.4-.4.7-.4 1.7.6 2.4.9.7 3.7 1.5 6.2 1.5 1.6 0 3-.3 3.7-1.3.5-.7 1.5-3.3 2.2-6.4 2.3-.7 4.5-1.6 6.3-2.4-.3 2.1-.4 3.7-.1 4.4.5 1.3 1.8 1.7 3.3 1.7s3.2-.4 4.5-.8c.3-.1.6-.3.8-.6 3.9-5.8 6.6-16.8 4.5-26.7z"/></g><g id="Head_47_"><g id="Ears_6_"><g><path d="m96.8 39.6c-6.3 6.4-14.8 4.5-21.1-1.9-6.3-6.3-8.2-14.8-1.9-21.1s18.5-8.2 24.8-1.9c6.4 6.4 4.6 18.6-1.8 24.9z" fill="#fdb62e"/><path d="m87.8 45c-.6 0-1.2 0-1.8-.1-4-.5-7.9-2.6-11.4-6.1-7.5-7.5-8.3-16.8-1.9-23.2 6.7-6.7 19.9-8.9 27-1.9 7.1 7.1 4.8 20.3-1.9 27-2.8 2.8-6.2 4.3-10 4.3zm.5-32.7c-4.9 0-10.1 2.1-13.4 5.4-6.3 6.3-3 14.2 1.9 19 4.8 4.8 12.7 8.2 19 1.9 2.9-2.9 4.8-7.2 5.3-11.5.5-4.6-.7-8.6-3.4-11.2-2.5-2.5-5.9-3.6-9.4-3.6z"/><path d="m92.2 33.2c-3.3 3.3-7.7 2.3-11-1s-4.3-7.7-1-11 9.6-4.3 12.9-1c3.4 3.4 2.4 9.7-.9 13z" fill="#ffffd5"/><path d="m87.5 36.8c-2.5 0-5.1-1.2-7.4-3.5-4.2-4.2-4.6-9.5-1-13.1 3.8-3.8 11-5 15.1-1 4 4 2.8 11.3-1 15.1-1.6 1.6-3.6 2.5-5.7 2.5zm.3-17.1c-2.4 0-4.9 1-6.5 2.6-1.2 1.2-1.8 2.7-1.6 4.3.2 1.5 1.1 3.2 2.5 4.6s3.1 2.3 4.6 2.5c1.6.2 3-.3 4.3-1.6 1.4-1.4 2.3-3.5 2.5-5.6.2-2.2-.3-4-1.6-5.3-1-1-2.6-1.5-4.2-1.5z"/></g><g><path d="m20.3 39.6c6.3 6.3 14.8 4.5 21.1-1.9s8.2-14.8 1.9-21.1-18.5-8.2-24.8-1.9-4.6 18.6 1.8 24.9z" fill="#fdb62e"/><path d="m29.3 45c-3.7 0-7.2-1.4-10.1-4.3-3.4-3.4-5.6-8.2-6.1-13.3-.6-5.5 1-10.3 4.3-13.6s8.1-4.8 13.6-4.3c5.1.5 10 2.7 13.3 6.1 6.4 6.4 5.7 15.7-1.9 23.2-4 4.1-8.7 6.2-13.1 6.2zm-.5-32.7c-3.8 0-7.1 1.2-9.3 3.5-2.7 2.7-3.9 6.6-3.4 11.2.4 4.4 2.4 8.7 5.3 11.5 6.3 6.3 14.2 3 19-1.9 4.8-4.8 8.2-12.7 1.9-19-2.9-2.9-7.2-4.8-11.5-5.3-.7.1-1.4 0-2 0z"/><path d="m24.9 33.2c3.3 3.3 7.7 2.3 11-1s4.3-7.7 1-11-9.6-4.3-12.9-1-2.4 9.7.9 13z" fill="#ffffd5"/><path d="m29.6 36.8c-2.1 0-4.1-.8-5.7-2.5-3.8-3.8-5-11-1-15.1 1.9-1.9 4.6-2.7 7.7-2.4 2.8.3 5.5 1.5 7.4 3.4 3.6 3.6 3.2 8.9-1 13.1-1.9 1.9-4.1 3.1-6.4 3.4-.3 0-.7.1-1 .1zm-.2-17.1c-1.8 0-3.3.6-4.4 1.6-2.7 2.7-1.7 8.2 1 10.8 1.2 1.2 2.7 1.8 4.3 1.6 1.5-.2 3.2-1.1 4.6-2.5 2.4-2.4 3.9-6 1-8.9-1.4-1.4-3.5-2.3-5.6-2.5-.3-.1-.7-.1-.9-.1z"/></g></g><g><path d="m19.6 61.7c0 20.4 17.5 28 39 28s39-7.6 39-28-7.7-46-39-46-39 25.5-39 46" fill="#fdb62e"/><path d="m58.6 26.7c27.9 0 37.1 20.4 38.7 39.3.2-1.4.3-2.8.3-4.3 0-20.4-7.8-46-39-46-31.3 0-39 25.6-39 46 0 1.5.1 2.9.3 4.3 1.6-18.9 10.7-39.3 38.7-39.3z" fill="#fed041"/><path d="m35 57.9c0-2.4-7-1.6-15.1-3.1-.2 2.3-.3 4.7-.3 6.9v1.6c9-.8 15.4-3 15.4-5.4z" fill="#472d07"/><path d="m21.7 44c-.8 2.9-1.3 5.8-1.6 8.7 9.8-.7 16.9-3 16.9-5.6 0-2.3-7.1-1.5-15.3-3.1z" fill="#472d07"/><path d="m22.4 52.5c.9-2.7 2-5.4 3.3-7.9-1.3-.2-2.7-.3-4.1-.6-.2.7-.4 1.4-.5 2.1 0 .1 0 .2-.1.3-.1.6-.3 1.3-.4 1.9v.2c-.1.7-.2 1.3-.3 2v.1c-.1.7-.2 1.4-.3 2.1.9 0 1.7-.1 2.4-.2z" fill="#61400b"/><g fill="#472d07"><path d="m36 68.2c0-2.5-7.7-1.5-16.3-3.3.3 3.2 1.1 6.1 2.3 8.7 8.3-1 14-3.1 14-5.4z"/><path d="m97.4 64.8c-8.6 1.8-16.3.9-16.3 3.3s5.7 4.4 14 5.3c1.2-2.5 2-5.3 2.3-8.6z"/><path d="m97 52.8c-.3-2.9-.9-5.9-1.6-8.7-8.2 1.5-15.3.7-15.3 3.1 0 2.6 7.1 4.8 16.9 5.6z"/></g><path d="m96.4 48.5c0-.1 0-.1 0-.2-.1-.6-.2-1.3-.4-1.9 0-.1 0-.2-.1-.3-.2-.7-.3-1.4-.5-2.1-1.4.3-2.8.5-4.1.6 1.4 2.5 2.5 5.2 3.3 7.9.8.1 1.6.2 2.4.2-.1-.7-.2-1.4-.3-2.1v-.1c-.1-.6-.2-1.3-.3-2z" fill="#61400b"/><path d="m82.1 57.9c0 2.5 6.4 4.6 15.4 5.5 0-.5 0-1.1 0-1.6 0-2.3-.1-4.6-.3-6.9-8.1 1.3-15.1.6-15.1 3z" fill="#472d07"/><path d="m58.6 84.7c-20.8 0-37.8-7.1-38.9-26 0 1-.1 2-.1 3 0 20.4 17.5 28 39 28s39-7.6 39-28c0-1 0-2-.1-3-1.1 18.9-18.1 26-38.9 26z" fill="#fc9c1b"/><path d="m24.9 73.1c-1.9-2.3-3.3-5-4.2-8.1-.3-.1-.7-.1-1-.2.2 1.6.4 3.1.8 4.5 0 .1 0 .1.1.2.2.7.4 1.3.6 1.9v.1c.2.7.5 1.3.8 1.9 1 0 2-.2 2.9-.3z" fill="#2d1a03"/><path d="m58.6 89.7c7.9 0 15.3-1 21.5-3.3-3.4-9.1-11.7-15.6-21.5-15.6-9.7 0-18.1 6.4-21.5 15.6 6.1 2.2 13.5 3.3 21.5 3.3z" fill="#ffffd5"/><path d="m61.8 89.6c.8 0 1.7-.1 2.5-.1h.1c.9-.1 1.7-.1 2.6-.2.2 0 .3 0 .5-.1.8-.1 1.6-.2 2.5-.3.9-.1 1.7-.3 2.5-.4.1 0 .2 0 .3-.1.8-.2 1.6-.3 2.4-.5.8-.2 1.6-.4 2.4-.7.1 0 .1 0 .2-.1.8-.2 1.5-.5 2.2-.8-.6-1.5-1.3-2.9-2.1-4.3-5.7 1.8-12.3 2.6-19.4 2.6s-13.6-.7-19.3-2.6c-.8 1.3-1.5 2.8-2.1 4.3.7.3 1.5.5 2.2.8.1 0 .1 0 .2.1.8.2 1.6.5 2.4.7.8.2 1.6.4 2.4.5.1 0 .2 0 .3.1.8.2 1.7.3 2.5.4.8.1 1.6.2 2.5.3.2 0 .3 0 .5.1.8.1 1.7.2 2.6.2h.1c.8.1 1.6.1 2.5.1h.7 2.6s1.8 0 2.6 0z" fill="#ffff95"/><path d="m96.4 65c-.9 3.1-2.4 5.8-4.2 8.1.9.1 1.9.3 2.9.4.3-.6.6-1.3.8-1.9v-.1c.2-.6.4-1.2.6-1.9 0-.1 0-.1.1-.2.4-1.4.6-2.9.8-4.5-.3 0-.7 0-1 .1z" fill="#2d1a03"/><path d="m24.9 73.1c-1.9-2.3-3.3-5-4.2-8.1-.3-.1-.7-.1-1-.2.2 1.6.4 3.1.8 4.5 0 .1 0 .1.1.2.2.7.4 1.3.6 1.9v.1c.2.7.5 1.3.8 1.9 1 0 2-.2 2.9-.3z" display="none" fill="#2d1a03"/><path d="m58.6 91.2c-26.1 0-40.5-10.5-40.5-29.5 0-14.3 3.9-47.5 40.5-47.5s40.5 33.2 40.5 47.5c0 19-14.4 29.5-40.5 29.5zm0-74c-33.8 0-37.5 31.1-37.5 44.5 0 23.1 23.5 26.5 37.5 26.5s37.5-3.4 37.5-26.5c0-13.4-3.7-44.5-37.5-44.5z"/><path d="m58.6 20c-11.8 0-22 6.9-22 10.2 0 .5.2.8.4.9.8.6 2.4 0 5.2-1.1 3.9-1.5 9.8-3.7 16.3-3.7s12.4 2.2 16.3 3.7c2.1.8 3.5 1.3 4.4 1.3.3 0 .6-.1.8-.2s.4-.4.4-.9c.1-3.3-10-10.2-21.8-10.2z" fill="#61400b"/><path d="m58.6 28.3c-9.1 0-16.9 5.3-16.9 7.9 0 .4.2.6.3.7.6.4 1.8 0 4-.8 3-1.1 7.5-2.8 12.5-2.8s9.5 1.7 12.5 2.8c1.6.6 2.7 1 3.4 1 .2 0 .5-.1.6-.2.2-.1.3-.3.3-.7.1-2.6-7.7-7.9-16.7-7.9z" fill="#472d07"/></g><g id="Eyes_29_"><circle cx="74.5" cy="64.2" r="3"/><circle cx="42.6" cy="64.2" r="3"/></g><path id="Mouth_12_" d="m65.6 85.6c-.8.3-1.6.5-2.5.5-2 0-3.7-.9-4.9-2.3-1.2 1.4-2.9 2.3-4.9 2.3-.9 0-1.7-.2-2.5-.5s-1.1-1.2-.8-2 1.2-1.1 2-.8c.4.2.9.3 1.3.3 1.4 0 2.5-.8 3.1-2 .2-.4.3-.9.3-1.4 0-.6.4-1.1.9-1.4.3.1.7.2 1 .2h.5c.4.3.7.7.7 1.3s.2 1.1.4 1.6c.6 1.1 1.7 1.8 3 1.8.5 0 .9-.1 1.3-.3.8-.3 1.6 0 2 .8.2.7-.2 1.6-.9 1.9z"/><g id="Nose_14_"><path d="m59.5 69.7c-.6.3-1.3.3-2 0-2.4-1-5.2 1.6-5.2 3.5 0 2.2 2.8 6.3 6.2 6.3s6.2-4.1 6.2-6.3c0-1.9-2.8-4.6-5.2-3.5z" fill="#472d07"/><path d="m58.6 81c-4.2 0-7.7-4.7-7.7-7.8 0-1.5 1.1-3.3 2.7-4.3 1.5-1 3.2-1.2 4.6-.6.2.1.5.1.8 0 1.4-.6 3.1-.4 4.6.6 1.6 1.1 2.7 2.8 2.7 4.3-.1 3.1-3.5 7.8-7.7 7.8zm-2.2-10.1c-.5 0-1 .2-1.2.4-.9.6-1.3 1.4-1.3 1.8 0 1.5 2.3 4.8 4.7 4.8s4.7-3.3 4.7-4.8c0-.4-.5-1.2-1.3-1.8-.4-.2-1.1-.6-1.8-.3-1 .4-2.2.4-3.2 0-.2 0-.4-.1-.6-.1z"/></g></g></g></svg>