<svg id="Filled" height="512" viewBox="0 0 512 512" width="512" xmlns="http://www.w3.org/2000/svg"><path d="m440 200c26.51 0 48 32.235 48 72s-21.49 72-48 72z" fill="#fde575"/><path d="m184 200h256v144h-256z" fill="#757c80"/><path d="m280 136a16 16 0 0 1 16 16v48a0 0 0 0 1 0 0h-32a0 0 0 0 1 0 0v-48a16 16 0 0 1 16-16z" fill="#fde575"/><path d="m344 136h32v64h-32z" fill="#6a7073"/><path d="m386.173 100.4-10.173 35.6h-32l-10.173-35.6a16 16 0 0 1 15.385-20.4h21.576a16 16 0 0 1 15.385 20.4z" fill="#fde575"/><path d="m449.1 344h-249.1v-240c0-48.6-39.4-80-88-80s-88 31.4-88 80v296l88 56h376z" fill="#e74444"/><path d="m72 184h80v80h-80z" fill="#ce3536"/><path d="m200 104c0-48.6-39.4-80-88-80s-88 31.4-88 80z" fill="#fde575"/><circle cx="112" cy="400" fill="#6a7073" r="88"/><circle cx="112" cy="400" fill="#d9dbdd" r="40"/><circle cx="368" cy="432" fill="#6a7073" r="56"/><circle cx="368" cy="432" fill="#d9dbdd" r="24"/><path d="m451.438 350.38c11.121-3.21 21.214-11.113 29.16-23.03 9.932-14.9 15.4-34.556 15.4-55.35s-5.47-40.451-15.4-55.35c-10.598-15.895-25.016-24.65-40.598-24.65h-56v-54.878l9.865-34.529a24 24 0 0 0 -23.077-30.593h-21.576a24 24 0 0 0 -23.077 30.594l9.865 34.528v54.878h-32v-40a24 24 0 0 0 -48 0v40h-48v-88c0-25.355-10.125-48.172-28.509-64.248-17.516-15.316-41.485-23.752-67.491-23.752s-49.975 8.436-67.491 23.752c-18.384 16.076-28.509 38.893-28.509 64.248v296a95.954 95.954 0 0 0 167.488 64h129.122a63.938 63.938 0 0 0 110.78 0h64.61a8 8 0 0 0 7.354-11.151zm28.562-78.38c0 30.323-14 56.532-32 62.652v-125.3c18.005 6.116 32 32.325 32 62.648zm-128-64v128h-64v-128zm16 0h64v128h-64zm-25.175-116.817a7.936 7.936 0 0 1 6.387-3.183h21.576a8 8 0 0 1 7.692 10.2l-8.515 29.8h-19.93l-8.515-29.8a7.932 7.932 0 0 1 1.305-7.017zm9.175 52.817h16v48h-16zm-80 8a8 8 0 0 1 16 0v40h-16zm0 56v128h-64v-128zm-216.959-156.2c14.6-12.77 34.828-19.8 56.959-19.8s42.359 7.03 56.959 19.8a66.3 66.3 0 0 1 22.635 44.2h-159.188a66.3 66.3 0 0 1 22.635-44.2zm-23.041 60.2h160v235a95.922 95.922 0 0 0 -160 0zm80 368a80 80 0 1 1 80-80 80.091 80.091 0 0 1 -80 80zm256 0a48 48 0 1 1 48-48 48.053 48.053 0 0 1 -48 48zm61.975-32a64 64 0 1 0 -123.95 0h-110.912a95.406 95.406 0 0 0 12.887-48v-48h226.724l41.144 96z"/><path d="m72 272h80a8 8 0 0 0 8-8v-80a8 8 0 0 0 -8-8h-80a8 8 0 0 0 -8 8v80a8 8 0 0 0 8 8zm8-80h64v64h-64z"/><path d="m112 352a48 48 0 1 0 48 48 48.053 48.053 0 0 0 -48-48zm0 80a32 32 0 1 1 32-32 32.036 32.036 0 0 1 -32 32z"/><path d="m368 400a32 32 0 1 0 32 32 32.036 32.036 0 0 0 -32-32zm0 48a16 16 0 1 1 16-16 16.019 16.019 0 0 1 -16 16z"/></svg>