<svg id="Layer_3" height="512" viewBox="0 0 64 64" width="512" xmlns="http://www.w3.org/2000/svg" data-name="Layer 3"><path d="m32.937 14.582h2v15.75h-2z" fill="#f89b1c" transform="matrix(.958 -.287 .287 .958 -5.022 10.7)"/><path d="m20 27.731v-4.731a3 3 0 0 0 -3-3h-1.333l-.513 6.154v1.846z" fill="#383838"/><path d="m16 16-.846 10.154-3.997-.042.843-10.112z" fill="#f89b1c"/><path d="m7.548 31.445-2.9-2.9a15.007 15.007 0 0 1 22.498 7.455h7.854v-10h12.169a21.051 21.051 0 0 1 10.831 3v7.07l-11.985 7.012-10.015.918v4h-14.515z" fill="#f89b1c"/><path d="m35 28v10h-9.5a14.988 14.988 0 0 0 -20.14-8.743l2.188 2.187 13.937 16.556h14.515v-4l10.015-.918 10.341-6.05v-6.032a21.054 21.054 0 0 0 -10.831-3z" fill="#fdb716"/><path d="m22 40h10v3.999l-10 .001" fill="#a3b8db"/><path d="m11 12h22v4h-22z" fill="#f89b1c"/><path d="m33 36-5-8 3-2h4v10z" fill="#383838"/><path d="m28 23.172h2v5.657h-2z" fill="#383838" transform="matrix(.707 -.707 .707 .707 -9.891 28.121)"/><path d="m24.172 23h5.657v2h-5.657z" fill="#4c4c4c" transform="matrix(.707 -.707 .707 .707 -9.062 26.121)"/><path d="m38 26h2v6h-2z" fill="#f89b1c"/><path d="m42 26h2v6h-2z" fill="#f89b1c"/><path d="m41 26v-3a7 7 0 0 1 7-7v4a3 3 0 0 0 -3 3v3" fill="#383838"/><path d="m42 43c0 .139 0 .278.007.416l.006.033 4-.367 11.987-7.012v-4.387a12.008 12.008 0 0 0 -16 11.317z" fill="#f89b1c"/><circle cx="54" cy="43" fill="#383838" r="8"/><path d="m54 35a7.964 7.964 0 0 0 -5.133 1.867 8 8 0 0 0 11.266 11.266 8 8 0 0 0 -6.133-13.133z" fill="#4c4c4c"/><circle cx="54" cy="43" fill="#383838" r="4"/><path d="m22 40h10v1.999h-10z" fill="#c0cee8"/><circle cx="13" cy="41" fill="#383838" r="11"/><path d="m13 30a10.94 10.94 0 0 0 -6.706 2.294 10.987 10.987 0 0 0 15.412 15.412 10.987 10.987 0 0 0 -8.706-17.706z" fill="#4c4c4c"/><circle cx="13" cy="41" fill="#383838" r="7"/><path d="m48 17.294a7 7 0 0 0 -5 6.706v2h2v-3a3 3 0 0 1 3-3z" fill="#4c4c4c"/><path d="m15 14h18v-2h-20a2 2 0 0 0 2 2z" fill="#fdb716"/><path d="m29.147 27.235 5.478 8.765h.375v-10h-4z" fill="#4c4c4c"/><path d="m1 41a11.983 11.983 0 0 0 20.919 8h14.081a1 1 0 0 0 1-1v-3.087l8.085-.742a9 9 0 1 0 13.915-8.649v-6.522a1 1 0 0 0 -.485-.857 22.049 22.049 0 0 0 -11.346-3.143h-1.169v-2a2 2 0 0 1 2-2 1 1 0 0 0 1-1v-4a1 1 0 0 0 -1-1 8.009 8.009 0 0 0 -8 8v2h-4.256l-2.42-8.065a.991.991 0 0 0 .676-.935v-4a1 1 0 0 0 -1-1h-22a1 1 0 0 0 -1 1v4a.991.991 0 0 0 .915.983l-.689 8.267a15.879 15.879 0 0 0 -6.139 2.461 1 1 0 0 0 -.15 1.537l2.042 2.041a11.981 11.981 0 0 0 -4.979 9.711zm60 2a7 7 0 1 1 -7-7 7.008 7.008 0 0 1 7 7zm-7-9a9.009 9.009 0 0 0 -8.958 8.167l-2.009.185a10.974 10.974 0 0 1 13.967-9.931v2.1a8.936 8.936 0 0 0 -3-.521zm-12-11a6.01 6.01 0 0 1 5-5.917v2.043a4.008 4.008 0 0 0 -3 3.874v2h-2zm-8.446 12-4.192-6.707 1.938-1.293h2.7v8zm-2.554-10a1.006 1.006 0 0 0 -.555.168l-.518.345-1.513-1.513 1.293-1.293-1.414-1.414-4 4 1.414 1.414 1.293-1.293 1.23 1.231-.785.523a1 1 0 0 0 -.293 1.362l4.048 6.47h-3.363a16 16 0 0 0 -6.837-7.85v-4.15a4 4 0 0 0 -4-4h-.247l.167-2h14.336l2.4 8zm-14.413-4h.413a2 2 0 0 1 2 2v3.176a15.929 15.929 0 0 0 -2.775-.837zm-4.587-8h20v2h-20zm.92 4h1.994l-.671 8.049q-.616-.049-1.243-.049c-.251 0-.5.016-.749.028zm-6.671 11.732a14.011 14.011 0 0 1 19.955 7.6 1 1 0 0 0 .942.667h7.854a1 1 0 0 0 1-1v-8.999h2v5h2v-5h2v5h2v-5h3.169a20.061 20.061 0 0 1 9.831 2.575v.782a12.962 12.962 0 0 0 -15.976 12.179l-5.115.464a1 1 0 0 0 -.909 1v3h-11.624a11.868 11.868 0 0 0 .924-2h7.7a1 1 0 0 0 1-1v-4a1 1 0 0 0 -1-1h-7.181a11.956 11.956 0 0 0 -17.073-8.772zm18.751 12.268h6v2h-6.181a11.986 11.986 0 0 0 .181-2zm-12-10a10 10 0 1 1 -10 10 10.011 10.011 0 0 1 10-10z"/><path d="m13 49a8 8 0 1 0 -8-8 8.009 8.009 0 0 0 8 8zm0-14a6 6 0 1 1 -6 6 6.006 6.006 0 0 1 6-6z"/><path d="m54 38a5 5 0 1 0 5 5 5.006 5.006 0 0 0 -5-5zm0 8a3 3 0 1 1 3-3 3 3 0 0 1 -3 3z"/></svg>