<?xml version="1.0" encoding="iso-8859-1"?>
<!-- Generator: Adobe Illustrator 21.0.0, SVG Export Plug-In . SVG Version: 6.00 Build 0)  -->
<svg version="1.1" id="Capa_1" xmlns="http://www.w3.org/2000/svg" xmlns:xlink="http://www.w3.org/1999/xlink" x="0px" y="0px"
	 viewBox="0 0 593.282 593.282" style="enable-background:new 0 0 593.282 593.282;" xml:space="preserve">
<g>
	<g>
		<g id="filled_outline_8_">
			<path style="fill:#F5AE45;" d="M570.193,287.731l-46.128-30.742l-51.2-112.12c-5.043-10.026-15.317-16.355-26.549-16.335
				l-406.843,0.227c-16.384,0-29.664,13.28-29.664,29.664l0.158,266.977l573.506-0.326l-0.079-112.694
				C583.384,302.474,578.43,293.229,570.193,287.731z"/>
			<rect x="9.888" y="375.735" style="fill:#F09E26;" width="573.506" height="49.44"/>
			<path style="fill:#697B8C;" d="M118.656,365.847c-27.301,0-49.44,22.139-49.44,49.44s22.139,49.44,49.44,49.44
				s49.44-22.139,49.44-49.44S145.957,365.847,118.656,365.847z"/>
			<path style="fill:#697B8C;" d="M454.849,365.847c-27.301,0-49.44,22.139-49.44,49.44s22.139,49.44,49.44,49.44
				s49.44-22.139,49.44-49.44S482.15,365.847,454.849,365.847z"/>
			<rect x="543.842" y="306.518" style="fill:#D0D7DF;" width="39.552" height="39.552"/>
			<rect x="543.842" y="326.295" style="fill:#C3C9D1;" width="39.552" height="19.776"/>
			<path style="fill:#4394CC;" d="M415.297,187.862v49.44c0,10.926,8.85,19.776,19.776,19.776h88.992l-40.541-88.992h-48.451
				C424.147,168.086,415.297,176.936,415.297,187.862z"/>
			<path style="fill:#3E89BD;" d="M421.092,251.284c3.708,3.718,8.731,5.804,13.982,5.794h88.992l-34.064-74.704L421.092,251.284z"
				/>
			<circle style="fill:#C3C9D1;" cx="118.656" cy="415.287" r="19.776"/>
			<circle style="fill:#C3C9D1;" cx="454.849" cy="415.287" r="19.776"/>
			<path style="fill:#F09E26;" d="M88.992,168.086h257.089c10.926,0,19.776,8.85,19.776,19.776v39.552
				c0,10.926-8.85,19.776-19.776,19.776H88.992c-10.926,0-19.776-8.85-19.776-19.776v-39.552
				C69.216,176.936,78.066,168.086,88.992,168.086z"/>
			<path d="M575.671,279.593l-43.774-29.18l-50.113-109.905c-6.665-13.428-20.389-21.912-35.379-21.862H39.552
				C17.709,118.646,0,136.355,0,158.198v266.977c0,5.458,4.43,9.888,9.888,9.888h52.99c10.798,30.811,44.526,47.027,75.337,36.23
				c16.958-5.943,30.287-19.272,36.23-36.23h224.626c10.798,30.811,44.526,47.027,75.337,36.23
				c16.958-5.943,30.287-19.272,36.23-36.23h72.756c5.458,0,9.888-4.43,9.888-9.888V306.518
				C592.857,294.969,586.074,284.607,575.671,279.593z M508.067,247.19h-72.993c-5.458,0-9.888-4.43-9.888-9.888v-49.44
				c0-5.458,4.43-9.888,9.888-9.888h38.385L508.067,247.19z M157.408,423.197c-4.371,21.398-25.264,35.201-46.672,30.831
				c-21.398-4.371-35.201-25.264-30.831-46.672c4.371-21.398,25.264-35.201,46.672-30.831c18.412,3.767,31.642,19.964,31.632,38.761
				C158.209,417.947,157.942,420.597,157.408,423.197z M493.601,423.197c-4.371,21.398-25.274,35.201-46.672,30.831
				c-21.398-4.371-35.201-25.274-30.831-46.672c4.371-21.398,25.274-35.201,46.672-30.831c18.411,3.767,31.642,19.964,31.632,38.761
				C494.402,417.947,494.135,420.597,493.601,423.197z M573.506,375.735h-39.552v19.776h39.552v19.776h-59.328
				c0-32.769-26.559-59.328-59.328-59.328s-59.328,26.559-59.328,59.328H177.985c0-32.769-26.559-59.328-59.328-59.328
				s-59.328,26.559-59.328,59.328H19.776v-19.776H49.44v-19.776H19.776v-69.216h365.857v-19.776H19.776V158.198
				c0-10.926,8.85-19.776,19.776-19.776h406.853c7.376-0.049,14.16,4.054,17.531,10.61l4.173,9.166h-33.036
				c-16.384,0-29.664,13.28-29.664,29.664v49.44c0,16.384,13.28,29.664,29.664,29.664h86.026l43.626,29.081
				c0.257,0.168,0.435,0.405,0.672,0.583h-21.556c-5.458,0-9.888,4.43-9.888,9.888v39.552c0,5.458,4.43,9.888,9.888,9.888h29.664
				V375.735z M573.506,336.183H553.73v-19.776h19.776V336.183z"/>
			<rect x="405.409" y="286.742" width="49.44" height="19.776"/>
			<rect x="187.873" y="375.735" width="197.761" height="19.776"/>
		</g>
	</g>
</g>
<g>
</g>
<g>
</g>
<g>
</g>
<g>
</g>
<g>
</g>
<g>
</g>
<g>
</g>
<g>
</g>
<g>
</g>
<g>
</g>
<g>
</g>
<g>
</g>
<g>
</g>
<g>
</g>
<g>
</g>
</svg>
