<?xml version="1.0" encoding="iso-8859-1"?>
<!-- Generator: Adobe Illustrator 19.0.0, SVG Export Plug-In . SVG Version: 6.00 Build 0)  -->
<svg xmlns="http://www.w3.org/2000/svg" xmlns:xlink="http://www.w3.org/1999/xlink" version="1.1" id="Layer_1" x="0px" y="0px" viewBox="0 0 512 512" style="enable-background:new 0 0 512 512;" xml:space="preserve">
<g>
	<path style="fill:#37474F;" d="M469.333,418.133c0,47.13-38.204,85.333-85.333,85.333c-5.7,0-11.392-0.572-16.981-1.707h-0.171   c-46.182-9.498-75.93-54.639-66.432-100.821c6.878-33.434,32.998-59.563,66.432-66.432h0.171   c46.182-9.378,91.23,20.463,100.608,66.645C468.762,406.741,469.333,412.433,469.333,418.133z"/>
	<path style="fill:#37474F;" d="M213.333,418.133c0,47.13-38.204,85.333-85.333,85.333c-5.7,0-11.392-0.572-16.981-1.707h-0.171   c-46.182-9.498-75.93-54.639-66.432-100.821c6.878-33.434,32.998-59.563,66.432-66.432h0.171   c46.182-9.378,91.23,20.463,100.608,66.645C212.762,406.741,213.333,412.433,213.333,418.133z"/>
</g>
<g>
	<path style="fill:#607D8B;" d="M435.2,418.133c-0.043,40.508-28.51,75.426-68.181,83.627h-0.171   c-46.182-9.498-75.93-54.639-66.432-100.821c6.878-33.434,32.998-59.563,66.432-66.432h0.171   C406.69,342.707,435.157,377.626,435.2,418.133z"/>
	<path style="fill:#607D8B;" d="M179.2,418.133c-0.043,40.508-28.51,75.426-68.181,83.627h-0.171   c-46.182-9.498-75.93-54.639-66.432-100.821c6.878-33.434,32.998-59.563,66.432-66.432h0.171   C150.69,342.707,179.157,377.626,179.2,418.133z"/>
</g>
<path d="M384,512c-51.755,0-93.867-42.112-93.867-93.867s42.112-93.867,93.867-93.867s93.867,42.112,93.867,93.867  S435.755,512,384,512z M384,341.333c-42.351,0-76.8,34.449-76.8,76.8s34.449,76.8,76.8,76.8s76.8-34.449,76.8-76.8  S426.351,341.333,384,341.333z"/>
<g>
	<circle style="fill:#37474F;" cx="384" cy="418.133" r="51.2"/>
	<circle style="fill:#37474F;" cx="128" cy="418.133" r="51.2"/>
</g>
<path d="M384,477.867c-32.93,0-59.733-26.803-59.733-59.733S351.07,358.4,384,358.4s59.733,26.803,59.733,59.733  S416.93,477.867,384,477.867z M384,375.467c-23.526,0-42.667,19.14-42.667,42.667S360.474,460.8,384,460.8  s42.667-19.14,42.667-42.667S407.526,375.467,384,375.467z"/>
<path d="M128,512c-51.755,0-93.867-42.112-93.867-93.867S76.245,324.267,128,324.267s93.867,42.112,93.867,93.867  S179.755,512,128,512z M128,341.333c-42.342,0-76.8,34.449-76.8,76.8s34.458,76.8,76.8,76.8s76.8-34.449,76.8-76.8  S170.342,341.333,128,341.333z"/>
<path d="M128,477.867c-32.939,0-59.733-26.803-59.733-59.733S95.061,358.4,128,358.4s59.733,26.803,59.733,59.733  S160.939,477.867,128,477.867z M128,375.467c-23.526,0-42.667,19.14-42.667,42.667S104.474,460.8,128,460.8  s42.667-19.14,42.667-42.667S151.526,375.467,128,375.467z"/>
<path style="fill:#FDD834;" d="M425.387,196.608c-1.28-0.085-2.475-0.171-3.755-0.256h-0.512c-0.939-0.085-1.963-0.085-2.987-0.085  v-76.8c0.009-18.85-15.266-34.125-34.116-34.133c-0.009,0-0.017,0-0.017,0h-59.733c-9.412,0.026-17.041,7.654-17.067,17.067v179.2  c-0.026,9.412-7.654,17.041-17.067,17.067H8.533v102.4c-0.026,1.801,0.256,3.593,0.853,5.291c2.304,7.006,8.841,11.75,16.213,11.776  h17.067c0.043-40.508,28.51-75.426,68.181-83.627h0.171c46.182-9.378,91.23,20.463,100.608,66.645  c1.135,5.589,1.707,11.281,1.707,16.981h85.333c0.043-40.508,28.51-75.426,68.181-83.627h0.171  c46.165-9.378,91.187,20.446,100.565,66.611c0.35,1.741,0.649,3.482,0.896,5.239c0.589,3.9,0.87,7.834,0.853,11.776H486.4  c9.412-0.026,17.041-7.654,17.067-17.067V281.6C503.433,237.303,469.521,200.388,425.387,196.608z"/>
<path style="fill:#FFEB3A;" d="M469.333,281.6v119.467c-0.017,1.801-0.299,3.584-0.853,5.291  c-6.485-46.66-49.562-79.232-96.222-72.747c-1.758,0.247-3.507,0.546-5.239,0.896h-0.171c-39.671,8.201-68.139,43.119-68.181,83.627  h-85.333c0-47.13-38.204-85.333-85.333-85.333c-5.7,0-11.392,0.572-16.981,1.707h-0.171c-39.671,8.201-68.139,43.119-68.181,83.627  H25.6c-7.373-0.026-13.909-4.77-16.213-11.776c-0.597-1.698-0.879-3.49-0.853-5.291v-102.4h281.6  c9.412-0.026,17.041-7.654,17.067-17.067V102.4c0.026-9.412,7.654-17.041,17.067-17.067h25.6  c18.85-0.009,34.125,15.266,34.133,34.116c0,0.009,0,0.017,0,0.017v76.8c12.8-0.043,25.438,2.85,36.949,8.448  c0.085,0,0.085,0.085,0.171,0.085C450.628,218.999,469.367,248.858,469.333,281.6z"/>
<path d="M486.426,426.667h-17.092c-4.719,0-8.533-3.814-8.533-8.533c0-42.351-34.449-76.8-76.8-76.8s-76.8,34.449-76.8,76.8  c0,4.719-3.814,8.533-8.533,8.533h-85.333c-4.71,0-8.533-3.814-8.533-8.533c0-42.351-34.458-76.8-76.8-76.8s-76.8,34.449-76.8,76.8  c0,4.719-3.823,8.533-8.533,8.533H25.6C11.52,426.633,0.043,415.155,0,401.092V298.667c0-4.719,3.823-8.533,8.533-8.533h281.6  c4.685-0.009,8.525-3.849,8.533-8.559V102.4c0.034-14.08,11.511-25.557,25.574-25.6H384c11.409,0,22.127,4.446,30.182,12.501  c8.047,8.055,12.493,18.773,12.484,30.165v68.651c47.761,4.335,85.316,44.612,85.333,93.483v119.467  C511.966,415.155,500.489,426.633,486.426,426.667z M477.483,409.6h8.917c4.685-0.009,8.525-3.849,8.533-8.559V281.6  c-0.017-42.334-34.466-76.783-76.8-76.8c-4.719,0-8.533-3.823-8.533-8.533v-76.8c0-6.835-2.662-13.269-7.492-18.099  c-4.83-4.83-11.255-7.501-18.091-7.501h-59.75c-4.685,0.009-8.525,3.857-8.533,8.55V281.6c-0.034,14.089-11.511,25.566-25.574,25.6  H17.067v93.867c0.009,4.685,3.857,8.525,8.55,8.533h8.892c4.335-47.778,44.604-85.333,93.491-85.333s89.156,37.555,93.483,85.333  h69.035c4.326-47.778,44.595-85.333,93.483-85.333S473.156,361.822,477.483,409.6z M384,204.8h-42.667  c-4.719,0-8.533-3.823-8.533-8.533v-76.8c0-4.71,3.814-8.533,8.533-8.533h34.133c9.395,0.026,17.033,7.663,17.067,17.041v68.292  C392.533,200.977,388.719,204.8,384,204.8z M349.867,187.733h25.6V128h-25.6V187.733z"/>
<path id="SVGCleanerId_0" d="M384,204.8h-42.667c-4.719,0-8.533-3.823-8.533-8.533v-76.8c0-4.71,3.814-8.533,8.533-8.533h34.133  c9.395,0.026,17.033,7.663,17.067,17.041v68.292C392.533,200.977,388.719,204.8,384,204.8z M349.867,187.733h25.6V128h-25.6V187.733  z"/>
<path style="fill:#1566C0;" d="M341.333,119.467v76.8H384V128c-0.017-4.71-3.823-8.516-8.533-8.533H341.333z"/>
<path style="fill:#2296F3;" d="M341.333,119.467v76.8h25.6V128c0-4.693-2.304-8.533-5.12-8.533H341.333z"/>
<g>
	<path id="SVGCleanerId_0_1_" d="M384,204.8h-42.667c-4.719,0-8.533-3.823-8.533-8.533v-76.8c0-4.71,3.814-8.533,8.533-8.533h34.133   c9.395,0.026,17.033,7.663,17.067,17.041v68.292C392.533,200.977,388.719,204.8,384,204.8z M349.867,187.733h25.6V128h-25.6   V187.733z"/>
</g>
<path style="fill:#F57C00;" d="M290.133,298.667H8.533l0,0v-25.6C8.533,263.637,16.171,256,25.6,256h281.6l0,0v25.6  C307.2,291.029,299.563,298.667,290.133,298.667z"/>
<path style="fill:#FF9801;" d="M256,298.667H8.533l0,0v-25.6C8.533,263.637,16.171,256,25.6,256h247.467l0,0v25.6  C273.067,291.029,265.429,298.667,256,298.667z"/>
<path d="M290.133,307.2H8.533c-4.71,0-8.533-3.814-8.533-8.533v-25.6c0-14.114,11.486-25.6,25.6-25.6h281.6  c4.719,0,8.533,3.823,8.533,8.533v25.6C315.733,295.714,304.247,307.2,290.133,307.2z M17.067,290.133h273.067  c4.71,0,8.533-3.823,8.533-8.533v-17.067H25.6c-4.702,0-8.533,3.823-8.533,8.533V290.133z"/>
<path style="fill:#F57C00;" d="M110.933,30.464v186.539l-89.344-23.808c-7.689-2.065-13.039-9.02-13.056-16.981V71.253  c0.017-7.962,5.367-14.916,13.056-16.981L110.933,30.464z"/>
<path style="fill:#FF9801;" d="M110.933,33.963v180.736l-63.744-17.749c-7.825-2.338-13.15-9.583-13.056-17.749V69.461  c-0.094-8.166,5.231-15.411,13.056-17.749L110.933,33.963z"/>
<path style="fill:#F57C00;" d="M170.667,30.464v186.539l89.344-23.808c7.689-2.065,13.039-9.02,13.056-16.981V71.253  c-0.017-7.962-5.367-14.916-13.056-16.981L170.667,30.464z"/>
<path style="fill:#FF9801;" d="M170.667,33.963v180.736l63.744-17.749c7.825-2.338,13.15-9.583,13.056-17.749V69.461  c0.094-8.166-5.231-15.411-13.056-17.749L170.667,33.963z"/>
<path d="M170.667,225.536c-1.86,0-3.695-0.606-5.197-1.766c-2.099-1.613-3.337-4.113-3.337-6.767V30.464  c0-2.654,1.237-5.154,3.337-6.767c2.108-1.613,4.83-2.159,7.398-1.476l89.344,23.808h0.009  c11.383,3.055,19.354,13.414,19.379,25.207v104.977c-0.026,11.81-7.996,22.17-19.379,25.225l-89.353,23.817  C172.134,225.442,171.401,225.536,170.667,225.536z M179.2,41.566v164.335l78.609-20.949c3.951-1.058,6.716-4.659,6.724-8.755  V71.253c-0.009-4.079-2.773-7.68-6.733-8.738L179.2,41.566z"/>
<path d="M110.933,225.536c-0.734,0-1.468-0.094-2.193-0.29l-89.344-23.808C7.996,198.383,0.026,188.015,0,176.23V71.253  c0,0,0-0.009,0-0.017c0.026-11.785,7.996-22.153,19.379-25.207l89.361-23.817c2.56-0.674,5.299-0.137,7.398,1.476  c2.091,1.621,3.328,4.122,3.328,6.775v186.539c0,2.654-1.237,5.154-3.337,6.767C114.628,224.93,112.794,225.536,110.933,225.536z   M17.067,71.27v104.943c0.009,4.079,2.773,7.68,6.733,8.738l78.601,20.949V41.566L23.782,62.515  C19.84,63.573,17.075,67.174,17.067,71.27z"/>
<path style="fill:#FDD834;" d="M170.667,25.6V256h-59.733V25.6c0.009-7.765,5.274-14.541,12.8-16.469  c1.382-0.41,2.825-0.614,4.267-0.597h25.6C163.012,8.559,170.641,16.188,170.667,25.6z"/>
<path style="fill:#FFEB3A;" d="M136.533,25.6V256h-25.6V25.6c0.009-7.765,5.274-14.541,12.8-16.469  C131.26,11.059,136.525,17.835,136.533,25.6z"/>
<path d="M170.667,264.533h-59.733c-4.71,0-8.533-3.823-8.533-8.533V25.6c0-0.009,0-0.017,0-0.026  C102.443,11.52,113.92,0.043,127.974,0H153.6c14.08,0.043,25.557,11.52,25.6,25.574V256  C179.2,260.71,175.377,264.533,170.667,264.533z M119.467,247.467h42.667V25.6c-0.009-4.676-3.857-8.525-8.559-8.533H128  c-4.676,0.009-8.525,3.857-8.533,8.559V247.467z"/>
<path style="fill:#F57C00;" d="M452.267,297.609c-0.026,4.753-3.9,8.593-8.653,8.567c-0.691,0-1.382-0.094-2.057-0.265  c-12.45-1.809-22.084-11.81-23.424-24.311c1.34-12.501,10.974-22.502,23.415-24.311c4.608-1.161,9.293,1.638,10.453,6.246  c0.171,0.674,0.256,1.365,0.265,2.057L452.267,297.609L452.267,297.609z"/>
<path d="M443.657,314.709c-0.034,0-0.068,0-0.094,0c-1.425-0.017-2.765-0.179-4.062-0.512c-15.488-2.21-28.1-15.309-29.858-31.693  c-0.068-0.597-0.068-1.22,0-1.818c1.741-16.256,14.165-29.269,30.285-31.795c9.037-1.988,18.074,3.541,20.352,12.544  c0.35,1.417,0.521,2.799,0.521,4.156v32.017c0,0.017,0,0.034,0,0.043C460.749,307.072,453.069,314.709,443.657,314.709z   M426.743,281.6c1.271,8.209,7.748,14.669,16.034,15.872l0.836,8.704l0.043-8.533l8.61-0.034h-8.533v-32.017  c-0.282,0.077-0.666,0.102-0.956,0.145C434.492,266.931,428.015,273.4,426.743,281.6z"/>
<path d="M25.6,307.2c-2.185,0-4.369-0.836-6.033-2.5c-3.337-3.337-3.337-8.73,0-12.066l42.667-42.667  c3.337-3.337,8.73-3.337,12.066,0c3.337,3.337,3.337,8.73,0,12.066L31.633,304.7C29.969,306.364,27.785,307.2,25.6,307.2z"/>
<path d="M76.8,307.2c-2.185,0-4.369-0.836-6.033-2.5c-3.337-3.337-3.337-8.73,0-12.066l42.667-42.667  c3.337-3.337,8.73-3.337,12.066,0c3.337,3.337,3.337,8.73,0,12.066L82.833,304.7C81.169,306.364,78.985,307.2,76.8,307.2z"/>
<path d="M128,307.2c-2.185,0-4.369-0.836-6.033-2.5c-3.337-3.337-3.337-8.73,0-12.066l42.667-42.667  c3.337-3.337,8.73-3.337,12.066,0c3.337,3.337,3.337,8.73,0,12.066L134.033,304.7C132.369,306.364,130.185,307.2,128,307.2z"/>
<path d="M179.2,307.2c-2.185,0-4.369-0.836-6.033-2.5c-3.337-3.337-3.337-8.73,0-12.066l42.667-42.667  c3.337-3.337,8.73-3.337,12.066,0c3.337,3.337,3.337,8.73,0,12.066L185.233,304.7C183.569,306.364,181.385,307.2,179.2,307.2z"/>
<path d="M230.4,307.2c-2.185,0-4.369-0.836-6.033-2.5c-3.337-3.337-3.337-8.73,0-12.066l42.667-42.667  c3.337-3.337,8.73-3.337,12.066,0c3.337,3.337,3.337,8.73,0,12.066L236.433,304.7C234.769,306.364,232.585,307.2,230.4,307.2z"/>
<g>
</g>
<g>
</g>
<g>
</g>
<g>
</g>
<g>
</g>
<g>
</g>
<g>
</g>
<g>
</g>
<g>
</g>
<g>
</g>
<g>
</g>
<g>
</g>
<g>
</g>
<g>
</g>
<g>
</g>
</svg>
