<?xml version="1.0" encoding="UTF-8"?>
<svg xmlns="http://www.w3.org/2000/svg" viewBox="0 0 64 64" width="512" height="512"><g id="Layer_12" data-name="Layer 12"><path d="M4,52V28.4a64.618,64.618,0,0,1,.875-10.6L6,13.1A17.081,17.081,0,0,1,22,2H42A17.081,17.081,0,0,1,58,13.1l1.125,4.7A64.618,64.618,0,0,1,60,28.4V52Z" style="fill:#2765ab"/><path d="M60,28.4a64.618,64.618,0,0,0-.875-10.6L58,13.1A17.08,17.08,0,0,0,42,2H22A17.03,17.03,0,0,0,11.524,5.6,17,17,0,0,0,9.26,9.449a8.606,8.606,0,0,0-.424,1.339A62.746,62.746,0,0,0,7,25.289V46a3,3,0,0,0,3,3H60Z" style="fill:#3b7fbd"/><path d="M25.053,36.738,32,46l6.947-9.262A49.164,49.164,0,0,1,51.008,25.329a19.808,19.808,0,0,1,8.675-3.193c-.141-1.451-.319-2.9-.558-4.337L58,13.1A17.08,17.08,0,0,0,42,2H22A17.08,17.08,0,0,0,6,13.1L4.875,17.8c-.239,1.439-.417,2.886-.558,4.337a19.808,19.808,0,0,1,8.675,3.193A49.164,49.164,0,0,1,25.053,36.738Z" style="fill:#b2c1c5"/><path d="M12.992,25.329A49.164,49.164,0,0,1,25.053,36.738L32,46l6.947-9.262A49.164,49.164,0,0,1,51.008,25.329a19.808,19.808,0,0,1,8.675-3.193c-.141-1.451-.319-2.9-.558-4.337L58,13.1A17.08,17.08,0,0,0,42,2H22A17.031,17.031,0,0,0,11.5,5.626,16.986,16.986,0,0,0,9,10.1L7.875,14.8a64.658,64.658,0,0,0-.816,7.867A19.769,19.769,0,0,1,12.992,25.329Z" style="fill:#cddbdf"/><rect x="2" y="52" width="60" height="4" rx="2" style="fill:#92a8ae"/><path d="M60,52H4a2,2,0,0,0,2,2H62A2,2,0,0,0,60,52Z" style="fill:#b2c1c5"/><path d="M14,20H26.586A3.415,3.415,0,0,0,29,19h0a3.415,3.415,0,0,0,1-2.414V13.414A3.415,3.415,0,0,0,29,11h0a3.415,3.415,0,0,0-2.414-1H15a3.459,3.459,0,0,0-3.424,2.97L11,17h0A3,3,0,0,0,14,20Z" style="fill:#68b7e9"/><path d="M27.586,19a3.416,3.416,0,0,0,1.859-.555A3.416,3.416,0,0,0,30,16.586V13.414A3.414,3.414,0,0,0,26.586,10H15a3.439,3.439,0,0,0-1.879.565,3.434,3.434,0,0,0-.545,1.405L12,16a3,3,0,0,0,3,3Z" style="fill:#7ccbf5"/><circle cx="32" cy="32" r="4" style="fill:#fff"/><rect x="18" y="47" width="4" height="12" rx="2" style="fill:#43525b"/><path d="M14,56v3a3,3,0,0,1-3,3H9a3,3,0,0,1-3-3V56" style="fill:#313e44"/><rect x="6.531" y="14.223" width="1.999" height="10.356" transform="translate(-9.09 6.876) rotate(-31.785)" style="fill:#43525b"/><path d="M50,20H37.414A3.415,3.415,0,0,1,35,19h0a3.415,3.415,0,0,1-1-2.414V13.414A3.415,3.415,0,0,1,35,11h0a3.415,3.415,0,0,1,2.414-1H49a3.459,3.459,0,0,1,3.424,2.97L53,17h0A3,3,0,0,1,50,20Z" style="fill:#68b7e9"/><path d="M49,10H37.414a3.416,3.416,0,0,0-1.859.555A3.416,3.416,0,0,0,35,12.414v3.172A3.414,3.414,0,0,0,38.414,19H51a2.965,2.965,0,0,0,1.554-.446A2.965,2.965,0,0,0,53,17l-.576-4.03A3.459,3.459,0,0,0,49,10Z" style="fill:#7ccbf5"/><circle cx="13" cy="41" r="4" style="fill:#4f96cd"/><circle cx="10" cy="31" r="2" style="fill:#f9d647"/><circle cx="54" cy="31" r="2" style="fill:#f9d647"/><path d="M13,37a3.977,3.977,0,0,0-2.281.719,3.994,3.994,0,0,0,5.562,5.561A3.994,3.994,0,0,0,13,37Z" style="fill:#68b7e9"/><circle cx="51" cy="41" r="4" style="fill:#68b7e9"/><circle cx="51" cy="41" r="4" style="fill:#4f96cd"/><path d="M51,37a3.977,3.977,0,0,0-2.281.719,3.994,3.994,0,0,0,5.562,5.561A3.994,3.994,0,0,0,51,37Z" style="fill:#68b7e9"/><path d="M20,47v8a2,2,0,0,0,2,2V49A2,2,0,0,0,20,47Z" style="fill:#576b76"/><rect x="42" y="47" width="4" height="12" rx="2" transform="translate(88 106) rotate(180)" style="fill:#43525b"/><path d="M44,47v8a2,2,0,0,1-2,2V49A2,2,0,0,1,44,47Z" style="fill:#576b76"/><path d="M11,57H6v2a3,3,0,0,0,3,3h2a2.965,2.965,0,0,0,1.554-.446A2.965,2.965,0,0,0,13,60V59A2,2,0,0,0,11,57Z" style="fill:#43525b"/><path d="M50,56v3a3,3,0,0,0,3,3h2a3,3,0,0,0,3-3V56" style="fill:#313e44"/><path d="M53,57h5v2a3,3,0,0,1-3,3H53a2.965,2.965,0,0,1-1.554-.446A2.965,2.965,0,0,1,51,60V59A2,2,0,0,1,53,57Z" style="fill:#43525b"/><rect x="2" y="10" width="4" height="8" rx="2" style="fill:#134072"/><path d="M4,10v4a2,2,0,0,0,2,2V12A2,2,0,0,0,4,10Z" style="fill:#1a5097"/><rect x="51.292" y="18.402" width="10.356" height="1.999" transform="translate(10.233 57.183) rotate(-58.215)" style="fill:#43525b"/><rect x="58" y="10" width="4" height="8" rx="2" transform="translate(120 28) rotate(180)" style="fill:#134072"/><path d="M60,10v4a2,2,0,0,1-2,2V12A2,2,0,0,1,60,10Z" style="fill:#1a5097"/><path d="M14,21H26.586A4.413,4.413,0,0,0,31,16.586V13.414A4.413,4.413,0,0,0,26.586,9H15a4.48,4.48,0,0,0-4.414,3.828l-.576,4.03A.969.969,0,0,0,10,17,4,4,0,0,0,14,21Zm-1.434-7.889A2.471,2.471,0,0,1,15,11H26.586A2.416,2.416,0,0,1,29,13.414v3.172A2.416,2.416,0,0,1,26.586,19H14a2,2,0,0,1-2-1.936Z"/><path d="M27,32a5,5,0,1,0,5-5A5.006,5.006,0,0,0,27,32Zm5-3a3,3,0,1,1-3,3A3,3,0,0,1,32,29Z"/><path d="M37.414,21H50a4,4,0,0,0,4-4,.969.969,0,0,0-.01-.142l-.576-4.029A4.48,4.48,0,0,0,49,9H37.414A4.413,4.413,0,0,0,33,13.414v3.172A4.413,4.413,0,0,0,37.414,21ZM35,13.414A2.416,2.416,0,0,1,37.414,11H49a2.471,2.471,0,0,1,2.434,2.111L52,17.064A2,2,0,0,1,50,19H37.414A2.416,2.416,0,0,1,35,16.586Z"/><path d="M60,9a2.984,2.984,0,0,0-2.31,1.109A18.167,18.167,0,0,0,42,1H22A18.167,18.167,0,0,0,6.31,10.109,2.987,2.987,0,0,0,1,12v4a2.993,2.993,0,0,0,2.7,2.969A65.867,65.867,0,0,0,3,28.4V51.184A2.993,2.993,0,0,0,4,57H5v2a4,4,0,0,0,4,4h2a4,4,0,0,0,4-4V57h2a3,3,0,0,0,6,0H41a3,3,0,0,0,6,0h2v2a4,4,0,0,0,4,4h2a4,4,0,0,0,4-4V57h1a2.993,2.993,0,0,0,1-5.816V28.4a65.867,65.867,0,0,0-.7-9.427A2.993,2.993,0,0,0,63,16V12A3,3,0,0,0,60,9ZM47,51V49a3,3,0,0,0-6,0v2H23V49a3,3,0,0,0-6,0v2H5V28.4c0-1.7.072-3.413.209-5.117a18.894,18.894,0,0,1,7.228,2.882A48.04,48.04,0,0,1,24.254,37.338L31.2,46.6a1,1,0,0,0,1.6,0l6.946-9.263A48.054,48.054,0,0,1,51.562,26.161a18.9,18.9,0,0,1,7.229-2.882c.137,1.7.209,3.413.209,5.117V51ZM7.873,21.852a21.008,21.008,0,0,0-2.463-.565q.157-1.407.376-2.8Zm50.341-3.368q.221,1.4.376,2.8a21.008,21.008,0,0,0-2.463.565ZM22,3H42A16.137,16.137,0,0,1,57,13.3V16a3.006,3.006,0,0,0,.056.557l-4.017,6.482A20.658,20.658,0,0,0,50.453,24.5,50.042,50.042,0,0,0,38.146,36.138L32,44.334l-6.146-8.2A50.042,50.042,0,0,0,13.547,24.5a20.658,20.658,0,0,0-2.586-1.458L6.944,16.557A3.006,3.006,0,0,0,7,16V13.3A16.137,16.137,0,0,1,22,3ZM3,16V12a1,1,0,0,1,2,0v4a1,1,0,0,1-2,0ZM13,59a2,2,0,0,1-2,2H9a2,2,0,0,1-2-2V57h6ZM4,55a1,1,0,0,1,0-2H17v2Zm17,2a1,1,0,0,1-2,0V49a1,1,0,0,1,2,0Zm2-2V53H41v2Zm22,2a1,1,0,0,1-2,0V49a1,1,0,0,1,2,0Zm12,2a2,2,0,0,1-2,2H53a2,2,0,0,1-2-2V57h6Zm3-4H47V53H60a1,1,0,0,1,0,2Zm1-39a1,1,0,0,1-2,0V12a1,1,0,0,1,2,0Z"/><path d="M13,36a5,5,0,1,0,5,5A5.006,5.006,0,0,0,13,36Zm0,8a3,3,0,1,1,3-3A3,3,0,0,1,13,44Z"/><path d="M13,31a3,3,0,1,0-3,3A3,3,0,0,0,13,31ZM9,31a1,1,0,1,1,1,1A1,1,0,0,1,9,31Z"/><path d="M51,36a5,5,0,1,0,5,5A5.006,5.006,0,0,0,51,36Zm0,8a3,3,0,1,1,3-3A3,3,0,0,1,51,44Z"/><path d="M54,28a3,3,0,1,0,3,3A3,3,0,0,0,54,28Zm0,4a1,1,0,1,1,1-1A1,1,0,0,1,54,32Z"/></g></svg>
