<?xml version="1.0" encoding="iso-8859-1"?>
<!-- Generator: Adobe Illustrator 21.0.0, SVG Export Plug-In . SVG Version: 6.00 Build 0)  -->
<svg version="1.1" id="Capa_1" xmlns="http://www.w3.org/2000/svg" xmlns:xlink="http://www.w3.org/1999/xlink" x="0px" y="0px"
	 viewBox="0 0 593.282 593.282" style="enable-background:new 0 0 593.282 593.282;" xml:space="preserve">
<g>
	<g>
		<g id="filled_outline_35_">
			<path style="fill:#754C30;" d="M573.506,316.514v-59.328l-29.664-79.342H187.873v89.23l-118.577-0.099l-0.079,0.099
				L41.53,287.839c-7.465,5.597-11.866,14.397-11.866,23.731v73.923c0,0,97.506,0.158,97.486,0.237l385.633-0.237v0.237h1.394
				l59.328-29.664h-29.664v-39.552H573.506z"/>
			<path style="fill:#4394CC;" d="M187.873,177.844H151.89c-8.563-0.01-16.711,3.678-22.357,10.125l-60.317,79.005l118.656,0.099
				V177.844z"/>
			<path style="fill:#C3C9D1;" d="M63.086,346.178H9.888v39.552h40.946C46.82,371.284,51.616,355.829,63.086,346.178z"/>
			<path style="fill:#697B8C;" d="M88.874,326.402c-26.895,0.346-48.412,22.426-48.066,49.322
				c0.346,26.895,22.426,48.412,49.322,48.066c26.401-0.336,47.73-21.665,48.066-48.066c0.208-27.034-21.536-49.114-48.57-49.322
				C89.378,326.402,89.121,326.402,88.874,326.402z"/>
			<path style="fill:#C3C9D1;" d="M88.874,365.954c-5.369,0.059-9.71,4.4-9.769,9.769c0.01,0.831,0.129,1.651,0.346,2.442
				c1.315,5.201,6.605,8.355,11.806,7.04c3.461-0.88,6.16-3.579,7.04-7.04c0.218-0.801,0.336-1.622,0.346-2.442
				C98.633,370.325,94.263,365.954,88.874,365.954z"/>
			<polygon style="fill:#C3C9D1;" points="573.506,316.514 543.842,316.514 543.842,356.066 573.506,356.066 583.394,356.066 
				583.394,316.514 			"/>
			<polygon style="fill:#F04729;" points="504.29,177.844 533.954,257.186 573.506,257.186 543.842,177.844 			"/>
			<polygon style="fill:#3E89BD;" points="187.873,205.224 98.643,267.005 187.873,267.074 			"/>
			<path style="fill:#697B8C;" d="M474.507,326.165c-26.895,0.346-48.412,22.426-48.066,49.322
				c0.346,26.895,22.426,48.412,49.322,48.066c26.401-0.336,47.73-21.665,48.066-48.066c0.237-27.004-21.467-49.084-48.471-49.322
				C475.08,326.165,474.794,326.165,474.507,326.165z"/>
			<path style="fill:#C3C9D1;" d="M474.626,365.717c-5.438,0.059-9.829,4.45-9.888,9.888c0.01,0.831,0.129,1.661,0.346,2.472
				c1.434,5.27,6.862,8.385,12.133,6.951c3.382-0.92,6.032-3.56,6.951-6.951c0.218-0.811,0.336-1.641,0.346-2.472
				C484.514,370.147,480.084,365.717,474.626,365.717z"/>
			<rect x="168.097" y="296.738" width="19.776" height="39.552"/>
			<rect x="257.089" y="267.074" width="98.88" height="19.776"/>
			<rect x="415.297" y="267.074" width="98.88" height="19.776"/>
			<path d="M583.394,306.626v-49.44c0-0.119-0.059-0.237-0.069-0.366c-0.02-1.058-0.208-2.096-0.554-3.095l-29.664-79.351
				c-1.444-3.866-5.142-6.417-9.265-6.417H151.89c-11.628,0.04-22.653,5.162-30.178,14.021l-59.526,78.017l-26.589,19.934
				c-9.937,7.485-15.791,19.203-15.821,31.642v24.72H9.888C4.43,336.29,0,340.72,0,346.178v39.552c0,5.458,4.43,9.888,9.888,9.888
				h33.975c10.768,24.928,39.71,36.398,64.628,25.63c11.49-4.964,20.656-14.13,25.63-25.63h295.375
				c10.699,24.898,39.562,36.408,64.47,25.709c12.222-5.251,21.783-15.247,26.5-27.686l55.373-27.686h7.554
				c5.458,0,9.888-4.43,9.888-9.888v-39.552C593.282,311.056,588.852,306.626,583.394,306.626z M536.989,187.732l22.268,59.566
				h-18.451l-22.268-59.566H536.989z M137.009,194.486c3.757-4.291,9.176-6.754,14.881-6.754h26.095v69.454H89.19L137.009,194.486z
				 M43.646,356.462c-1.285,2.947-2.284,6.012-2.966,9.156c0,0.109,0,0.218-0.059,0.336c-0.682,3.253-1.038,6.566-1.048,9.888
				H19.776v-19.776h23.998C43.715,356.195,43.695,356.333,43.646,356.462z M117.579,383.248
				c-4.371,15.791-20.706,25.046-36.497,20.686c-12.676-3.51-21.526-14.941-21.754-28.092c0.227-16.286,13.379-29.437,29.664-29.664
				c16.127-0.257,29.407,12.607,29.664,28.725C118.706,377.721,118.34,380.529,117.579,383.248z M217.537,375.842h-79.104
				c-0.03-27.291-22.149-49.41-49.44-49.44c-2.798,0.01-5.587,0.267-8.336,0.771c-0.89,0.158-1.74,0.445-2.62,0.653
				c-1.839,0.405-3.659,0.92-5.438,1.533c-0.989,0.366-1.978,0.84-2.966,1.266c-1.582,0.672-3.135,1.424-4.637,2.254
				c-0.989,0.573-1.978,1.226-2.966,1.869c-0.801,0.534-1.661,0.989-2.442,1.543H39.552v-24.72c0.02-6.22,2.947-12.073,7.91-15.821
				l25.046-18.787h115.364c5.458,0,9.888-4.43,9.888-9.888v-79.342h19.776V375.842z M375.745,375.842H237.313v-188.11h138.432
				V375.842z M503.212,383.248c-4.351,15.524-20.458,24.592-35.992,20.241c-15.534-4.351-24.592-20.458-20.241-35.992
				c4.351-15.534,20.458-24.592,35.992-20.241c12.775,3.579,21.536,15.317,21.319,28.586
				C504.24,378.344,503.884,380.836,503.212,383.248z M534.774,359.982c0.198,0.346,0.405,0.672,0.643,0.989
				c0.415,0.801,0.939,1.543,1.562,2.195l0.059,0.099l-13.329,6.665c-0.089-0.732-0.336-1.404-0.455-2.126
				c-0.237-1.414-0.544-2.779-0.9-4.143c-0.425-1.671-0.939-3.322-1.543-4.944c-0.484-1.295-0.989-2.551-1.592-3.797
				c-0.742-1.552-1.562-3.065-2.462-4.539c-0.702-1.157-1.404-2.284-2.195-3.382c-1.038-1.374-2.146-2.69-3.313-3.955
				c-0.88-0.989-1.74-1.978-2.699-2.877c-1.295-1.196-2.66-2.324-4.084-3.382c-0.989-0.781-1.978-1.592-3.095-2.294
				c-1.572-0.979-3.204-1.869-4.885-2.66c-1.098-0.544-2.136-1.167-3.283-1.632c-1.938-0.742-3.916-1.365-5.933-1.859
				c-0.989-0.267-1.978-0.663-2.966-0.86c-3.164-0.643-6.378-0.979-9.611-0.989c-27.291,0.03-49.411,22.149-49.44,49.44h-29.733
				V187.732h101.906l27.261,72.924c1.444,3.866,5.142,6.417,9.265,6.417h29.664v39.552h-19.776c-5.458,0-9.888,4.43-9.888,9.888
				v39.552C533.954,357.411,534.231,358.746,534.774,359.982z M573.506,346.178H553.73v-19.776h19.776V346.178z"/>
		</g>
	</g>
</g>
<g>
</g>
<g>
</g>
<g>
</g>
<g>
</g>
<g>
</g>
<g>
</g>
<g>
</g>
<g>
</g>
<g>
</g>
<g>
</g>
<g>
</g>
<g>
</g>
<g>
</g>
<g>
</g>
<g>
</g>
</svg>
