<svg height="512" viewBox="0 0 60 50" width="512" xmlns="http://www.w3.org/2000/svg"><g id="015---Worm" fill="none"><g id="Icons" transform="translate(1)"><path id="Shape" d="m58 34v2.13c.078303 6.5333318-4.798602 12.0668262-11.29 12.81-3.5082053.3380792-6.9962678-.8193742-9.6063939-3.1877162s-4.1001373-5.7278279-4.1036061-9.2522838v-23.33c.0417768-2.1092509-1.5165095-3.90926588-3.61-4.17-1.1266463-.11038686-2.2473076.2617853-3.0840872 1.0242268s-1.3113076 1.8437449-1.3059128 2.9757732v24.68c.0931516 5.7725579-4.2131905 10.6718336-9.95 11.32-3.0945956.296781-6.17027275-.7297517-8.46627839-2.8256905-2.29600564-2.0959387-3.59792013-5.0655478-3.58372161-8.1743095v-9.76c.00068917-1.4718402-.34170259-2.9235812-1-4.24-1.25-2.51-1-3.92-.93-10.87.47588377-3.0915041 3.24691406-5.29876462 6.36654651-5.07126418 3.11963249.22750044 5.54111769 2.81342718 5.56345349 5.94126418v5.76c0 3.94-2 4.54-2 8.48v9.63c-.008479 1.1088581.5594912 2.1425638 1.5 2.73.9285009.5360705 2.0725043.5358873 3.0008334-.0004806.9283291-.536368 1.4998543-1.527379 1.4991666-2.5995194v-24.65c-.0759681-6.27694546 4.6126334-11.59213434 10.85-12.3 3.3679792-.32425742 6.716337.78841027 9.2203938 3.06395996s3.9310813 5.50248798 3.9296062 8.88604004v23.3c-.018458 1.9592074 1.175393 3.7261068 3 4.44 1.3768693.4867971 2.9043473.2751634 4.0969986-.5676435s1.9021445-2.2119662 1.9030014-3.6723565v-2.33c-.0122436-1.6811215.9791664-3.2075781 2.52-3.88 1.2311079-.4903079 2.6251334-.3390824 3.7224616.4038168s1.7555092 1.9810325 1.7575384 3.3061832z" fill="#ef314c"/><path id="Shape" d="m38 13v23.3c-.0465563 1.4886307.6399853 2.9054248 1.8371941 3.7913593 1.1972088.8859346 2.7528088 1.1283253 4.1628059.6486407-1.824607-.7138932-3.018458-2.4807926-3-4.44v-23.3c.0014751-3.38355206-1.4255494-6.61049035-3.9296062-8.88604004s-5.8524146-3.38821738-9.2203938-3.06395996h-.37c6.024654.74872014 10.5410499 5.87903679 10.52 11.95z" fill="#bb193b"/><path id="Shape" d="m52.49 30.3c1.5121929.6069658 2.5050562 2.0705491 2.51 3.7v2.13c.0758403 6.4225997-4.6376797 11.898853-11 12.78 3.6047862.3873796 7.2025198-.7905569 9.8801776-3.2348759 2.6776577-2.444319 4.1778356-5.9200474 4.1198224-9.5451241v-2.13c-.0013437-1.3312456-.6648942-2.5745861-1.7700832-3.3167275s-2.5071703-.8858186-3.7399168-.3832725z" fill="#bb193b"/><path id="Shape" d="m6.5 14v4.1c-1.81 3.45-6.5 1.9-6.5-2.1s4.68-5.55 6.5-2z" fill="#f5f5f5"/><rect id="Rectangle-path" fill="#ad1457" height="12" rx="2" width="10" x="32" y="19"/><rect id="Rectangle-path" fill="#e91e63" height="12" rx="2" width="7" x="32" y="19"/><ellipse id="Oval" cx="9.5" cy="16" fill="#f5f5f5" rx="3.5" ry="4"/></g><g id="Layer_10" fill="#000" transform="translate(-1)"><path id="Shape" d="m55.51 29c-2.6040737.3167423-4.5496468 2.5470334-4.51 5.17v2.33c.0018374.9911891-.4154907 1.9369492-1.1489125 2.6036963s-1.714558.9923182-2.7010875.8963037c-1.8376938-.2536306-3.1928325-1.8453808-3.15-3.7v-5.08c.6321439-.5653847.9954467-1.3719168 1-2.22v-8c-.0045533-.8480832-.3678561-1.6546153-1-2.22v-5.78c-.0002047-3.66338126-1.5460721-7.15664038-4.2572716-9.62032864-2.7111994-2.46368826-6.3360503-3.66910158-9.9827284-3.31967136-6.7412575.77188619-11.8142738 6.50491231-11.76 13.29v24.65c.0129822.6097677-.2529816 1.192134-.7223215 1.5816276-.4693398.3894937-1.0907548.5435413-1.6876785.4183724-.9713657-.2381167-1.6379009-1.1310224-1.59-2.13v-9.63c0-3.62 2-4.31 2-8.48v-5.76c.0218385-1.8480664-.6986377-3.6276425-2-4.94-1.8339746-1.85928401-4.55046366-2.54303019-7.04611106-1.77352139-2.4956474.76950881-4.3554026 2.86429579-4.82388894 5.43352139-1.46054151 1.8637236-1.51353212 4.4684158-.13 6.39 0 5.53 2 5.1 2 9.13v9.76c0 6.627417 5.372583 12 12 12 6.7066266-.109626 12.0668715-5.6128109 12-12.32v-24.68c.0303675-1.0717968.6302251-2.045977 1.5736121-2.5555763.9433871-.50959929 2.0869806-.47719747 3.0000001.085.9130194.5621975 1.4567554 1.5687795 1.4263878 2.6405763v5.61c-.6321439.5653847-.9954467 1.3719168-1 2.22v8c.0045533.8480832.3678561 1.6546153 1 2.22v5.28c.0023301 3.8060264 1.6099612 7.434516 4.4275711 9.9932104s6.583792 3.8102082 10.3724289 3.4467896c6.9923105-.8206099 12.2479883-6.7698648 12.2-13.81v-2.13c.0068154-1.4155155-.5866822-2.7675874-1.633228-3.7207257-1.0465458-.9531382-2.4480555-1.4180128-3.856772-1.2792743zm-20.51 0v-8c0-.5522847.4477153-1 1-1h6c.5522847 0 1 .4477153 1 1v8c0 .5522847-.4477153 1-1 1h-6c-.5522847 0-1-.4477153-1-1zm-32-13c0-2.68 2.79-4.1 4.36-1.95-.47984731 1.2591671-.47984731 2.6508329 0 3.91-1.57 2.15-4.36.72-4.36-1.96zm6 0c-.12202795-1.5137395.98907088-2.8470581 2.5-3 1.5109291.1529419 2.6220279 1.4862605 2.5 3 .1275555 1.5154874-.9863549 2.8521798-2.5 3-1.51364515-.1478202-2.62755553-1.4845126-2.5-3zm4.25-4.6c-1.6079741-.7597738-3.52241445-.3962725-4.74.9-.7872832-.8151104-1.86689414-1.2829418-3-1.3-.17438061.0095435-.34802824.0295798-.52.06.98654397-1.3285802 2.56652728-2.082989 4.21993663-2.01493099 1.65340937.06805801 3.16604647.94976595 4.04006337 2.35493099zm18.24-3.4c-1.4087165-.13873854-2.8102262.32613605-3.856772 1.27927432-1.0465458.95313828-1.6400434 2.30521018-1.633228 3.72072568v24.68c.0747419 5.233256-3.8052093 9.6822667-9 10.32-2.8206997.283527-5.6291876-.6434919-7.72685363-2.550461-2.09766607-1.9069692-3.28736013-4.6146612-3.27314637-7.449539v-9.76c.00077643-1.6253036-.37938972-3.2281663-1.11-4.68-.43866065-.8916071-.71948259-1.8524918-.83-2.84 1.54896999.5986138 3.30605838.2037624 4.45-1 1.43869419 1.5269401 3.796499 1.7252198 5.47.46-.17 3.41-2 4-2 8.07v9.63c-.0325802 1.084981.3771827 2.1366146 1.1352395 2.9135285.7580567.7769139 1.7993066 1.2123879 2.8847605 1.2064715 2.209139 0 4-1.790861 4-4v-24.65c-.0554691-5.75122469 4.2286668-10.62151996 9.94-11.3 3.0875465-.29891833 6.1577845.71968846 8.4543577 2.80488553 2.2965732 2.08519706 3.6059784 5.04313201 3.6056423 8.14511447v5h-6v-4.83c.0396468-2.6229666-1.9059263-4.8532577-4.51-5.17zm27.51 28.13c.0887438 6.0304485-4.3915643 11.1538837-10.38 11.87-3.2381846.3137696-6.4579112-.7575065-8.8626075-2.9487908-2.4046963-2.1912842-3.7697321-5.2978819-3.7573925-8.5512092v-4.5h6v4.3c-.0552285 3.0375661 2.3624339 5.5447715 5.4 5.6s5.5447715-2.3624339 5.6-5.4v-2.33c-.0303676-1.0717968.5133684-2.0783788 1.4263878-2.6405763.9130195-.5621975 2.056613-.5945993 3.0000001-.085.943387.5095993 1.5432446 1.4837795 1.5736121 2.5555763z"/><circle id="Oval" cx="5" cy="16" r="1"/><circle id="Oval" cx="11" cy="16" r="1"/></g></g></svg>