<svg height="512" viewBox="0 0 64 64" width="512" xmlns="http://www.w3.org/2000/svg"><g id="_03-Plant" data-name="03-Plant"><g fill="#a3d4ff"><path d="m11 31a3 3 0 0 1 -6 0c0-1.66 3-5 3-5s3 3.34 3 5z"/><path d="m17 16a3 3 0 0 1 -6 0c0-1.66 3-5 3-5s3 3.34 3 5z"/><path d="m59 31a3 3 0 0 1 -6 0c0-1.66 3-5 3-5s3 3.34 3 5z"/><path d="m53 16a3 3 0 0 1 -6 0c0-1.66 3-5 3-5s3 3.34 3 5z"/></g><path d="m50 17a2.99 2.99 0 0 1 -2.788-1.907 2.611 2.611 0 0 0 -.212.907 3 3 0 0 0 6 0 2.611 2.611 0 0 0 -.212-.907 2.99 2.99 0 0 1 -2.788 1.907z" fill="#65b1fc"/><path d="m56 32a2.99 2.99 0 0 1 -2.788-1.907 2.611 2.611 0 0 0 -.212.907 3 3 0 0 0 6 0 2.611 2.611 0 0 0 -.212-.907 2.99 2.99 0 0 1 -2.788 1.907z" fill="#65b1fc"/><path d="m8 32a2.99 2.99 0 0 1 -2.788-1.907 2.611 2.611 0 0 0 -.212.907 3 3 0 0 0 6 0 2.611 2.611 0 0 0 -.212-.907 2.99 2.99 0 0 1 -2.788 1.907z" fill="#65b1fc"/><path d="m14 17a2.99 2.99 0 0 1 -2.788-1.907 2.611 2.611 0 0 0 -.212.907 3 3 0 0 0 6 0 2.611 2.611 0 0 0 -.212-.907 2.99 2.99 0 0 1 -2.788 1.907z" fill="#65b1fc"/><circle cx="32" cy="11" fill="#f5cd62" r="4"/><path d="m32 7a3.977 3.977 0 0 0 -1 .141 3.982 3.982 0 0 1 0 7.718 3.994 3.994 0 1 0 1-7.859z" fill="#ffb13b"/><path d="m32 19.45c-.84 0-1.9 1.74-2.67 1.53-.81-.21-.85-2.25-1.56-2.66s-2.5.56-3.08-.01.4-2.37-.01-3.08-2.45-.75-2.66-1.56c-.21-.77 1.53-1.83 1.53-2.67s-1.74-1.9-1.53-2.67c.21-.81 2.25-.85 2.66-1.56s-.56-2.5.01-3.08 2.37.4 3.08-.01.75-2.45 1.56-2.66c.77-.21 1.83 1.53 2.67 1.53s1.9-1.74 2.67-1.53c.81.21.85 2.25 1.56 2.66s2.5-.56 3.08.01-.4 2.37.01 3.08 2.45.75 2.66 1.56c.21.77-1.53 1.83-1.53 2.67s1.74 1.9 1.53 2.67c-.21.81-2.25.85-2.66 1.56s.56 2.5-.01 3.08-2.37-.4-3.08.01-.75 2.45-1.56 2.66c-.77.21-1.83-1.53-2.67-1.53zm4-8.45a4 4 0 1 0 -4 4 4 4 0 0 0 4-4z" fill="#ffa8ad"/><path d="m27.01 25.32c2.28 1.46 2.46 4.47 1.24 5.8l-.25-.12-7-7s3.95 0 6.01 1.32z" fill="#98ba5c"/><path d="m43 24-7 7-.25.12c-1.22-1.33-1.04-4.34 1.24-5.8 2.06-1.32 6.01-1.32 6.01-1.32z" fill="#98ba5c"/><path d="m21 24 7 7 .25.12a.435.435 0 0 1 -.06.07c-1.3 1.29-4.38 1.14-5.87-1.18-1.32-2.06-1.32-6.01-1.32-6.01z" fill="#bed264"/><path d="m36 31 7-7s0 3.95-1.32 6.01c-1.49 2.32-4.57 2.47-5.87 1.18a.435.435 0 0 1 -.06-.07z" fill="#bed264"/><path d="m48 35v6h-2-28-2v-6h16z" fill="#c48958"/><path d="m22 38a2 2 0 0 1 -2-2v-1h-4v6h32v-3z" fill="#b27a49"/><path d="m46 41-.36 4h-27.28l-.36-4z" fill="#f2bb88"/><path d="m18 41 .36 4h4l-.36-4z" fill="#e3a76f"/><path d="m45.64 45-1.64 18h-24l-1.64-18z" fill="#fff2de"/><path d="m23.834 57.181-1.11-12.181h-4.364l1.64 18h24l.364-4h-18.538a2 2 0 0 1 -1.992-1.819z" fill="#ffe4c2"/><path d="m48 42h-32a1 1 0 0 1 -1-1v-6a1 1 0 0 1 1-1h32a1 1 0 0 1 1 1v6a1 1 0 0 1 -1 1zm-31-2h30v-4h-30z"/><path d="m44 64h-24a1 1 0 0 1 -1-.91l-2-22 2-.18 1.913 21.09h22.174l1.913-21.09 2 .18-2 22a1 1 0 0 1 -1 .91z"/><path d="m18 44h28v2h-28z"/><path d="m23 58h2v2h-2z"/><path d="m27 58h14v2h-14z"/><path d="m31 19h2v16h-2z"/><path d="m38.053 33a4.158 4.158 0 0 1 -2.947-1.106 4.313 4.313 0 0 1 -1.076-3.507 5.3 5.3 0 0 1 2.416-3.906c2.286-1.464 6.381-1.481 6.554-1.481a1 1 0 0 1 1 1c0 .173-.017 4.268-1.481 6.554a5.306 5.306 0 0 1 -4.466 2.446zm3.9-7.954a10.832 10.832 0 0 0 -4.429 1.119 3.3 3.3 0 0 0 -1.505 2.435 2.348 2.348 0 0 0 .5 1.877 2.355 2.355 0 0 0 1.877.5 3.3 3.3 0 0 0 2.437-1.506 10.832 10.832 0 0 0 1.121-4.425z"/><path d="m32.447 33.9-.894-1.79 3.855-1.927 6.885-6.885 1.414 1.414-7 7a1.028 1.028 0 0 1 -.26.188z"/><path d="m25.947 33a5.306 5.306 0 0 1 -4.466-2.446c-1.464-2.286-1.481-6.381-1.481-6.554a1 1 0 0 1 1-1c.173 0 4.268.017 6.554 1.481a5.3 5.3 0 0 1 2.416 3.906 4.313 4.313 0 0 1 -1.076 3.507 4.158 4.158 0 0 1 -2.947 1.106zm-2.782-3.525a3.3 3.3 0 0 0 2.435 1.506 2.35 2.35 0 0 0 1.877-.5 2.348 2.348 0 0 0 .5-1.877 3.3 3.3 0 0 0 -1.506-2.437 10.832 10.832 0 0 0 -4.429-1.119 10.832 10.832 0 0 0 1.119 4.429z"/><path d="m31.553 33.9-4-2a1.028 1.028 0 0 1 -.26-.188l-7-7 1.414-1.414 6.885 6.885 3.855 1.917z"/><path d="m29.464 22a1.529 1.529 0 0 1 -.4-.052c-.945-.252-1.276-1.23-1.542-2.016a6.158 6.158 0 0 0 -.273-.716 6.02 6.02 0 0 0 -.773.121 2.638 2.638 0 0 1 -2.493-.324 2.635 2.635 0 0 1 -.324-2.494 6 6 0 0 0 .12-.772 6.156 6.156 0 0 0 -.716-.274c-.785-.266-1.763-.6-2.016-1.54-.246-.923.421-1.684.957-2.3a5.751 5.751 0 0 0 .515-.633 5.751 5.751 0 0 0 -.511-.638c-.536-.612-1.2-1.373-.957-2.294.252-.945 1.23-1.276 2.016-1.542a6.158 6.158 0 0 0 .716-.273 6.02 6.02 0 0 0 -.121-.773 2.633 2.633 0 0 1 .324-2.493 2.635 2.635 0 0 1 2.494-.324 6 6 0 0 0 .772.12 6.156 6.156 0 0 0 .274-.716c.266-.785.6-1.763 1.54-2.016.926-.245 1.684.422 2.3.957a5.751 5.751 0 0 0 .634.511 5.751 5.751 0 0 0 .638-.511c.612-.536 1.375-1.2 2.294-.957.945.252 1.276 1.23 1.542 2.016a6.158 6.158 0 0 0 .273.716 6.02 6.02 0 0 0 .773-.121 2.632 2.632 0 0 1 2.493.324 2.635 2.635 0 0 1 .324 2.494 6 6 0 0 0 -.12.772 6.156 6.156 0 0 0 .716.274c.785.266 1.763.6 2.016 1.54.246.923-.421 1.684-.957 2.3a5.751 5.751 0 0 0 -.511.638 5.751 5.751 0 0 0 .511.638c.536.612 1.2 1.373.957 2.294-.252.945-1.23 1.276-2.016 1.542a6.158 6.158 0 0 0 -.716.273 6.02 6.02 0 0 0 .121.773 2.633 2.633 0 0 1 -.324 2.493 2.632 2.632 0 0 1 -2.494.324 6 6 0 0 0 -.772-.12 6.156 6.156 0 0 0 -.274.716c-.266.785-.6 1.763-1.54 2.016-.927.244-1.685-.422-2.3-.957a5.751 5.751 0 0 0 -.634-.515 5.751 5.751 0 0 0 -.638.511 3.126 3.126 0 0 1 -1.898 1.008zm-2.182-4.782a1.939 1.939 0 0 1 .992.239 3.09 3.09 0 0 1 1.147 1.834c.053.157.127.377.2.553.143-.112.3-.255.423-.358a3.162 3.162 0 0 1 1.956-1.032 3.164 3.164 0 0 1 1.957 1.033c.117.1.28.246.422.358.073-.176.147-.4.2-.553a3.09 3.09 0 0 1 1.147-1.834 3.115 3.115 0 0 1 2.183-.083c.159.032.383.076.568.1-.025-.186-.069-.409-.1-.568a3.114 3.114 0 0 1 .082-2.183 3.09 3.09 0 0 1 1.834-1.147c.157-.053.377-.127.553-.2-.112-.143-.255-.3-.358-.423a3.162 3.162 0 0 1 -1.034-1.954 3.164 3.164 0 0 1 1.033-1.957c.1-.117.246-.28.358-.422-.176-.073-.4-.147-.553-.2a3.09 3.09 0 0 1 -1.834-1.147 3.12 3.12 0 0 1 -.083-2.183c.032-.159.076-.383.1-.568-.186.025-.409.069-.568.1a3.114 3.114 0 0 1 -2.183-.082 3.09 3.09 0 0 1 -1.147-1.834c-.053-.157-.127-.377-.2-.553-.143.112-.3.255-.423.358a3.162 3.162 0 0 1 -1.954 1.034 3.164 3.164 0 0 1 -1.957-1.033c-.117-.1-.28-.246-.422-.358-.073.176-.147.4-.2.553a3.09 3.09 0 0 1 -1.147 1.834 3.114 3.114 0 0 1 -2.183.083c-.159-.032-.383-.076-.568-.1.025.186.069.409.1.568a3.114 3.114 0 0 1 -.082 2.183 3.09 3.09 0 0 1 -1.834 1.147c-.157.053-.377.127-.553.2.112.143.255.3.358.423a3.162 3.162 0 0 1 1.034 1.954 3.164 3.164 0 0 1 -1.033 1.957c-.1.117-.246.28-.358.422.176.073.4.147.553.2a3.09 3.09 0 0 1 1.834 1.147 3.12 3.12 0 0 1 .083 2.183c-.032.159-.076.383-.1.568.186-.025.409-.069.568-.1a6.205 6.205 0 0 1 1.189-.158z"/><path d="m32 16a5 5 0 1 1 5-5 5.006 5.006 0 0 1 -5 5zm0-8a3 3 0 1 0 3 3 3 3 0 0 0 -3-3z"/><path d="m56 35a4 4 0 0 1 -4-4c0-1.941 2.712-5.062 3.256-5.668a1.031 1.031 0 0 1 1.488 0c.544.606 3.256 3.727 3.256 5.668a4 4 0 0 1 -4 4zm0-7.451c-1.061 1.326-2 2.814-2 3.451a2 2 0 0 0 4 0c0-.62-.938-2.119-2-3.451z"/><path d="m50 20a4 4 0 0 1 -4-4c0-1.941 2.712-5.062 3.256-5.668a1.031 1.031 0 0 1 1.488 0c.544.606 3.256 3.727 3.256 5.668a4 4 0 0 1 -4 4zm0-7.451c-1.061 1.326-2 2.814-2 3.451a2 2 0 0 0 4 0c0-.62-.938-2.119-2-3.451z"/><path d="m8 35a4 4 0 0 1 -4-4c0-1.941 2.712-5.062 3.256-5.668a1.031 1.031 0 0 1 1.488 0c.544.606 3.256 3.727 3.256 5.668a4 4 0 0 1 -4 4zm0-7.451c-1.061 1.326-2 2.814-2 3.451a2 2 0 0 0 4 0c0-.62-.938-2.119-2-3.451z"/><path d="m14 20a4 4 0 0 1 -4-4c0-1.941 2.712-5.062 3.256-5.668a1.031 1.031 0 0 1 1.488 0c.544.606 3.256 3.727 3.256 5.668a4 4 0 0 1 -4 4zm0-7.451c-1.061 1.326-2 2.814-2 3.451a2 2 0 0 0 4 0c0-.62-.938-2.119-2-3.451z"/></g></svg>