<svg id="Layer_1" height="512" viewBox="0 0 512 512" width="512" xmlns="http://www.w3.org/2000/svg" data-name="Layer 1"><path d="m331.552 301.68h45.31v105.055h-45.31z" fill="#7986bf" transform="matrix(.707 -.707 .707 .707 -146.718 354.208)"/><path d="m335.919 312.223h15.489v105.055h-15.489z" fill="#6a75ad" transform="matrix(.707 -.707 .707 .707 -157.261 349.84)"/><circle cx="202.968" cy="202.968" fill="#2a92fa" r="191.968" transform="matrix(.707 -.707 .707 .707 -84.072 202.968)"/><g fill-rule="evenodd"><path d="m207.685 11.061c103.842 2.504 187.251 87.464 187.251 191.908s-83.41 189.404-187.251 191.908c-103.841-2.504-187.252-87.464-187.252-191.908s83.41-189.404 187.252-191.908zm4.716 45.249c-1.579 0-3.149.034-4.716.084-1.567-.05-3.138-.084-4.717-.084-80.997 0-146.658 65.661-146.658 146.658s65.661 146.659 146.658 146.659c1.579 0 3.15-.034 4.717-.083 1.567.049 3.137.083 4.716.083 80.997 0 146.659-65.661 146.659-146.659s-65.662-146.658-146.659-146.658z" fill="#4eb1fc"/><path d="m491.522 445.568-87.56-87.56c-6.105-6.105-16.065-6.105-22.169 0l-23.784 23.783c-6.105 6.105-6.105 16.064 0 22.17l87.56 87.56c12.638 12.637 33.315 12.637 45.953 0 12.638-12.638 12.638-33.316 0-45.953z" fill="#3d4a75"/><path d="m364.833 374.967-6.824 6.825c-6.105 6.105-6.105 16.064 0 22.169l87.56 87.56c10.898 10.898 27.775 12.397 40.318 4.499l-121.054-121.054z" fill="#323e66"/></g><circle cx="202.968" cy="202.969" fill="#f3f3ff" r="146.659" transform="matrix(.707 -.707 .707 .707 -84.072 202.968)"/><circle cx="202.968" cy="202.968" fill="#ed1717" r="103.64" transform="matrix(.707 -.707 .707 .707 -84.072 202.968)"/><path d="m210.843 99.625c53.56 4.024 95.765 48.755 95.765 103.344s-42.205 99.32-95.765 103.344c-53.559-4.024-95.765-48.755-95.765-103.344s42.205-99.32 95.765-103.344z" fill="#ff3838" fill-rule="evenodd"/><path d="m194.016 143.308 4.825 79.354c.266 4.382 3.886 7.788 8.276 7.788h3.7c4.39 0 8.01-3.406 8.276-7.788l4.826-79.354c.168-2.762-.715-5.201-2.611-7.216s-4.277-3.044-7.044-3.044h-10.593c-2.767 0-5.148 1.029-7.044 3.044s-2.779 4.454-2.611 7.216z" fill="#ed1717" fill-rule="evenodd"/><circle cx="208.968" cy="260.256" fill="#ed1717" r="12.633" transform="matrix(.974 -.229 .229 .974 -53.943 54.639)"/><path d="m188.016 143.308 4.825 79.354c.266 4.382 3.886 7.788 8.276 7.788h3.7c4.39 0 8.01-3.406 8.276-7.788l4.826-79.354c.168-2.762-.715-5.201-2.611-7.216s-4.277-3.044-7.044-3.044h-10.593c-2.767 0-5.148 1.029-7.044 3.044s-2.779 4.454-2.611 7.216z" fill="#f3f3ff" fill-rule="evenodd"/><circle cx="202.968" cy="260.256" fill="#f3f3ff" r="12.633" transform="matrix(.974 -.229 .229 .974 -54.102 53.268)"/></svg>