<?xml version="1.0" encoding="UTF-8" standalone="no"?>
<!-- Created with Inkscape (http://www.inkscape.org/) -->

<svg
   version="1.1"
   id="svg8292"
   xml:space="preserve"
   width="682.66669"
   height="682.66669"
   viewBox="0 0 682.66669 682.66669"
   xmlns="http://www.w3.org/2000/svg"
   xmlns:svg="http://www.w3.org/2000/svg"><defs
     id="defs8296"><clipPath
       clipPathUnits="userSpaceOnUse"
       id="clipPath8306"><path
         d="M 0,512 H 512 V 0 H 0 Z"
         id="path8304" /></clipPath></defs><g
     id="g8298"
     transform="matrix(1.3333333,0,0,-1.3333333,0,682.66667)"><g
       id="g8300"><g
         id="g8302"
         clip-path="url(#clipPath8306)"><g
           id="g8308"
           transform="translate(425.9277,355.4482)"><path
             d="m 0,0 c -16.937,-25.051 -26.359,-73.558 26.587,-99.206 -16.282,-9.65 -24.396,-16.227 -32.252,-38.572 l -126.759,-126.763 c -22.317,-7.856 -28.922,-15.97 -38.571,-32.253 -25.648,52.948 -74.125,43.555 -99.176,26.588 -0.711,46.458 -26.388,72.106 -72.616,72.619 24.509,49.275 10.902,74.554 -26.587,99.206 16.282,9.622 24.366,16.227 32.252,38.572 l 2.106,-2.106 126.331,127.161 -1.707,1.708 c 22.374,7.857 28.95,15.942 38.6,32.224 24.623,-37.49 49.929,-51.098 99.175,-26.559 C -72.104,26.36 -46.429,0.712 0,0"
             style="fill:#eb5468;fill-opacity:1;fill-rule:evenodd;stroke:none"
             id="path8310" /></g><g
           id="g8312"
           transform="translate(425.9277,355.4482)"><path
             d="m 0,0 c -16.937,-25.051 -26.359,-73.558 26.587,-99.206 -16.282,-9.65 -24.396,-16.227 -32.252,-38.572 l -14.461,-14.461 c -12.61,10.76 -12.496,25.135 -7.601,36.522 3.217,7.43 8.456,13.578 13.55,16.596 -42.044,20.383 -34.557,58.869 -21.093,78.767 -36.891,0.57 -57.273,20.952 -57.671,57.674 -39.113,-19.471 -59.209,-8.654 -78.766,21.122 -4.668,-7.856 -9.45,-12.923 -14.204,-15.969 -15.201,-9.765 -29.832,1.423 -37.177,8.255 l 14.403,14.518 -1.707,1.708 c 22.374,7.857 28.95,15.942 38.6,32.224 24.623,-37.49 49.929,-51.098 99.175,-26.559 C -72.104,26.36 -46.429,0.712 0,0"
             style="fill:#e5384f;fill-opacity:1;fill-rule:evenodd;stroke:none"
             id="path8314" /></g><g
           id="g8316"
           transform="translate(229.2559,155.1572)"><path
             d="m 0,0 c -7.06,7.06 -7.06,18.617 0,25.648 7.06,7.06 18.589,7.06 25.648,0 l 32.11,-32.111 c 7.059,-7.059 7.059,-18.588 0,-25.648 -7.031,-7.06 -18.588,-7.06 -25.619,0 l -15.315,15.315 z"
             style="fill:#fed1a3;fill-opacity:1;fill-rule:evenodd;stroke:none"
             id="path8318" /></g><g
           id="g8320"
           transform="translate(287.0137,148.6943)"><path
             d="m 0,0 -32.109,32.111 -10.761,10.76 c -8.056,8.057 -8.056,21.236 0,29.292 8.057,8.028 21.207,8.057 29.264,0 h 0.028 C 4.469,54.087 18.958,39.626 34.672,23.912 c 8.056,-8.056 8.056,-21.235 0,-29.292 -8.057,-8.056 -21.236,-8.056 -29.292,0 z"
             style="fill:#fed1a3;fill-opacity:1;fill-rule:evenodd;stroke:none"
             id="path8322" /></g><g
           id="g8324"
           transform="translate(296.5498,197.7432)"><path
             d="m 0,0 -23.114,23.114 h -0.029 c -8.027,8.057 -8.027,21.237 0.029,29.265 8.055,8.056 21.235,8.056 29.291,0 L 26.559,31.996 C 34.103,14.944 22.545,-1.196 0,0"
             style="fill:#fed1a3;fill-opacity:1;fill-rule:evenodd;stroke:none"
             id="path8326" /></g><g
           id="g8328"
           transform="translate(323.1084,229.7393)"><path
             d="m 0,0 -20.382,20.383 c -8.055,8.055 -8.055,21.235 0,29.292 8.056,8.027 21.236,8.027 29.292,-0.029 L 29.263,29.292 C 26.701,14.746 17.819,4.412 0,0"
             style="fill:#fed1a3;fill-opacity:1;fill-rule:evenodd;stroke:none"
             id="path8330" /></g><g
           id="g8332"
           transform="translate(315.9922,263.3301)"><path
             d="m 0,0 c -5.096,5.124 -12.27,6.975 -18.873,5.637 0.769,3.814 2.647,7.486 5.607,10.447 8.056,8.027 21.236,8.027 29.292,-0.028 L 36.379,-4.299 C 35.24,-15.087 29.007,-19.301 20.324,-20.354 Z"
             style="fill:#ffbc85;fill-opacity:1;fill-rule:evenodd;stroke:none"
             id="path8334" /></g><g
           id="g8336"
           transform="translate(310.6689,217.2998)"><path
             d="m 0,0 -20.382,20.382 c -5.835,5.836 -14.375,7.458 -21.691,4.81 0.997,2.79 2.619,5.41 4.84,7.63 8.055,8.056 21.235,8.056 29.291,0 L 12.439,12.439 C 11.984,3.928 7.885,-0.285 0,0"
             style="fill:#ffbc85;fill-opacity:1;fill-rule:evenodd;stroke:none"
             id="path8338" /></g><g
           id="g8340"
           transform="translate(312.2061,159.3418)"><path
             d="m 0,0 -48.278,48.251 v 0.028 c -6.861,6.832 -17.393,7.857 -25.335,3.075 0.826,3.729 2.675,7.258 5.55,10.162 8.057,8.028 21.208,8.056 29.264,0 h 0.028 l 23.115,-23.115 c -2.819,-11.956 6.12,-21.749 20.239,-20.24 l 4.896,-4.896 c 8.056,-8.056 8.056,-21.236 0,-29.292 C 8.283,-17.251 6.945,-18.276 5.551,-19.102 7.003,-12.44 5.152,-5.153 0,0"
             style="fill:#ffbc85;fill-opacity:1;fill-rule:evenodd;stroke:none"
             id="path8342" /></g><g
           id="g8344"
           transform="translate(274.9443,136.7959)"><path
             d="m 0,0 -32.109,32.11 c -4.869,4.869 -11.842,6.376 -18.02,4.555 0.825,2.676 2.306,5.237 4.441,7.345 7.059,7.059 18.588,7.059 25.648,0 L 12.069,11.898 c 7.06,-7.059 7.06,-18.587 0,-25.648 -2.192,-2.191 -4.81,-3.7 -7.6,-4.525 C 6.404,-12.042 4.925,-4.925 0,0"
             style="fill:#ffbc85;fill-opacity:1;fill-rule:evenodd;stroke:none"
             id="path8346" /></g><g
           id="g8348"
           transform="translate(304.6914,211.293)"><path
             d="m 0,0 18.417,18.446 29.263,29.292 0.028,0.03 c 7.288,7.287 19.187,7.287 26.474,0 l 41.788,-41.789 4.839,-4.84 c 24.082,-24.083 3.729,-39.569 32.451,-67.039 l 0.74,-0.741 -23.398,-50.13 -67.949,-41.219 -4.554,4.554 c -33.107,33.107 -39.169,2.961 -64.732,28.524 l -4.555,4.526 -32.109,32.139 c 7.031,-7.06 18.588,-7.06 25.619,0 7.06,7.06 7.06,18.589 0,25.648 l 5.38,-5.38 c 8.056,-8.055 21.236,-8.055 29.292,0 8.056,8.057 8.056,21.237 0,29.292 l -4.896,4.897 C -2.021,-35.299 -10.96,-25.506 -8.142,-13.55 -7.117,-9.166 -4.526,-4.526 0,0"
             style="fill:#ffe5c1;fill-opacity:1;fill-rule:evenodd;stroke:none"
             id="path8350" /></g><g
           id="g8352"
           transform="translate(273.4355,220.8574)"><path
             d="M 0,0 23.114,-23.114"
             style="fill:none;stroke:#000000;stroke-width:15.147;stroke-linecap:round;stroke-linejoin:round;stroke-miterlimit:10;stroke-dasharray:none;stroke-opacity:1"
             id="path8354" /></g><g
           id="g8356"
           transform="translate(316.7891,177.5029)"><path
             d="m 0,0 4.896,-4.896 c 8.056,-8.056 8.056,-21.236 0,-29.292 -8.056,-8.056 -21.236,-8.056 -29.292,0 l -5.379,5.379 c 7.059,-7.059 7.059,-18.587 0,-25.648 -7.032,-7.06 -18.588,-7.06 -25.62,0 l -32.138,32.14 c -7.06,7.031 -7.06,18.588 0,25.62 7.059,7.059 18.589,7.059 25.648,0 l -10.761,10.76 c -8.055,8.056 -8.055,21.236 0,29.291 8.057,8.057 21.237,8.057 29.292,0 -8.055,8.057 -8.055,21.209 0,29.265 8.056,8.056 21.236,8.056 29.291,0 -8.055,8.056 -8.055,21.235 0,29.292 8.056,8.027 21.236,8.027 29.292,-0.028 L 35.61,81.5"
             style="fill:none;stroke:#000000;stroke-width:15.147;stroke-linecap:round;stroke-linejoin:round;stroke-miterlimit:10;stroke-dasharray:none;stroke-opacity:1"
             id="path8358" /></g><g
           id="g8360"
           transform="translate(287.0137,148.6943)"><path
             d="M 0,0 -32.109,32.111"
             style="fill:none;stroke:#000000;stroke-width:15.147;stroke-linecap:round;stroke-linejoin:round;stroke-miterlimit:10;stroke-dasharray:none;stroke-opacity:1"
             id="path8362" /></g><g
           id="g8364"
           transform="translate(302.7266,250.1221)"><path
             d="M 0,0 20.382,-20.383"
             style="fill:none;stroke:#000000;stroke-width:15.147;stroke-linecap:round;stroke-linejoin:round;stroke-miterlimit:10;stroke-dasharray:none;stroke-opacity:1"
             id="path8366" /></g><g
           id="g8368"
           transform="translate(356.8125,32.5508)"><path
             d="m 0,0 c -2.818,2.79 -2.818,7.373 0,10.191 l 10.532,10.561 91.347,91.35 10.561,10.533 c 2.818,2.817 7.401,2.817 10.191,0 L 147.681,97.612 25.021,-25.051 Z"
             style="fill:#9fd4fe;fill-opacity:1;fill-rule:evenodd;stroke:none"
             id="path8370" /></g><g
           id="g8372"
           transform="translate(354.9902,226.4941)"><path
             d="m 0,0 c -0.37,-0.37 -22.402,-22.403 -22.801,-22.773 -10.304,-9.992 -19.243,-13.607 -27.328,-14.29 -3.131,-0.286 -6.006,0 -8.539,0.768 1.622,-8.198 9.479,-13.863 20.467,-12.696 7.999,0.854 17.62,5.323 27.697,15.088 0.37,0.34 19.186,19.186 22.346,22.345 C 16.994,-5.665 4.668,6.661 0,0 m -58.668,-36.295 c 1.622,-8.198 9.479,-13.863 20.467,-12.696 -10.988,-1.167 -18.845,4.498 -20.467,12.696"
             style="fill:#fed1a3;fill-opacity:1;fill-rule:evenodd;stroke:none"
             id="path8374" /></g><g
           id="g8376"
           transform="translate(346.5078,194.583)"><path
             d="m 0,0 c -7.8,-13.721 -5.552,-24.339 11.472,-41.391 17.079,-17.051 24.138,5.21 17.165,8.256 -17.024,17.023 -20.553,41.106 -7.943,53.83 -0.085,-0.056 -0.199,-0.171 -0.37,-0.341 z"
             style="fill:#fed1a3;fill-opacity:1;fill-rule:evenodd;stroke:none"
             id="path8378" /></g><g
           id="g8380"
           transform="translate(367.2871,215.3643)"><path
             d="M 0,0 C -12.724,-12.725 -9.223,-36.865 7.857,-53.916"
             style="fill:none;stroke:#000000;stroke-width:15.147;stroke-linecap:round;stroke-linejoin:round;stroke-miterlimit:10;stroke-dasharray:none;stroke-opacity:1"
             id="path8382" /></g><g
           id="g8384"
           transform="translate(155.1592,229.2842)"><path
             d="m 0,0 c 7.06,-7.06 18.589,-7.06 25.648,0 7.031,7.031 7.031,18.589 0,25.62 L -6.49,57.759 c -7.06,7.059 -18.588,7.059 -25.648,0 -7.031,-7.06 -7.031,-18.589 0,-25.649 l 15.315,-15.315 z"
             style="fill:#fed1a3;fill-opacity:1;fill-rule:evenodd;stroke:none"
             id="path8386" /></g><g
           id="g8388"
           transform="translate(148.6689,287.043)"><path
             d="M 0,0 32.139,-32.139 42.87,-42.871 c 8.056,-8.056 21.235,-8.056 29.291,0 8.056,8.027 8.056,21.208 0.028,29.264 H 72.161 C 54.114,4.469 39.653,18.931 23.912,34.673 c -8.057,8.056 -21.236,8.056 -29.292,0 -8.056,-8.057 -8.056,-21.236 0,-29.293 z"
             style="fill:#fed1a3;fill-opacity:1;fill-rule:evenodd;stroke:none"
             id="path8390" /></g><g
           id="g8392"
           transform="translate(197.7441,296.5508)"><path
             d="m 0,0 23.086,-23.115 h 0.028 c 8.057,-8.056 21.208,-8.028 29.264,0.028 8.027,8.057 8.027,21.236 -0.028,29.265 L 31.968,26.56 C 14.945,34.132 -1.224,22.546 0,0"
             style="fill:#fed1a3;fill-opacity:1;fill-rule:evenodd;stroke:none"
             id="path8394" /></g><g
           id="g8396"
           transform="translate(229.7119,323.1104)"><path
             d="m 0,0 20.382,-20.382 c 8.055,-8.028 21.235,-8.028 29.291,0.028 8.056,8.056 8.056,21.237 -0.028,29.292 L 29.291,29.264 C 14.773,26.73 4.44,17.849 0,0"
             style="fill:#fed1a3;fill-opacity:1;fill-rule:evenodd;stroke:none"
             id="path8398" /></g><g
           id="g8400"
           transform="translate(263.3301,315.9932)"><path
             d="m 0,0 c 5.096,-5.095 6.974,-12.24 5.607,-18.873 3.843,0.797 7.487,2.676 10.448,5.637 C 24.11,-5.181 24.11,8 16.026,16.056 L -4.327,36.381 c -10.76,-1.139 -15.001,-7.345 -16.055,-16.027 z"
             style="fill:#ffbc85;fill-opacity:1;fill-rule:evenodd;stroke:none"
             id="path8402" /></g><g
           id="g8404"
           transform="translate(217.2725,310.6992)"><path
             d="m 0,0 20.381,-20.383 c 5.864,-5.836 7.458,-14.376 4.84,-21.691 2.789,0.996 5.408,2.591 7.629,4.839 8.027,8.056 8.027,21.236 -0.029,29.264 L 12.439,12.411 C 3.928,11.955 -0.257,7.856 0,0"
             style="fill:#ffbc85;fill-opacity:1;fill-rule:evenodd;stroke:none"
             id="path8406" /></g><g
           id="g8408"
           transform="translate(159.3437,312.207)"><path
             d="m 0,0 48.25,-48.251 v -0.028 c 6.832,-6.832 7.856,-17.365 3.074,-25.307 3.73,0.797 7.287,2.648 10.162,5.551 8.056,8.027 8.056,21.208 0.029,29.264 H 61.486 L 38.372,-15.656 C 26.417,-18.475 16.624,-9.508 18.133,4.584 l -4.896,4.925 c -8.056,8.055 -21.236,8.055 -29.292,0 C -17.25,8.284 -18.275,6.975 -19.129,5.58 -12.439,7.032 -5.181,5.182 0,0"
             style="fill:#ffbc85;fill-opacity:1;fill-rule:evenodd;stroke:none"
             id="path8410" /></g><g
           id="g8412"
           transform="translate(136.7705,274.9727)"><path
             d="m 0,0 32.138,-32.139 c 4.84,-4.839 6.348,-11.841 4.526,-18.019 2.704,0.854 5.237,2.335 7.373,4.47 7.03,7.031 7.03,18.588 0,25.62 L 11.898,12.07 c -7.059,7.06 -18.587,7.06 -25.647,0 -2.192,-2.192 -3.7,-4.81 -4.526,-7.629 C -12.041,6.405 -4.925,4.925 0,0"
             style="fill:#ffbc85;fill-opacity:1;fill-rule:evenodd;stroke:none"
             id="path8414" /></g><g
           id="g8416"
           transform="translate(211.2656,304.6924)"><path
             d="m 0,0 18.446,18.418 29.291,29.264 0.029,0.028 c 7.288,7.287 7.288,19.215 0,26.503 l -41.788,41.789 -4.839,4.839 c -24.054,24.055 -39.539,3.701 -67.037,32.452 l -0.741,0.74 -62.055,-37.889 -29.291,-53.46 4.583,-4.583 c 33.105,-33.107 2.931,-39.17 28.494,-64.734 l 4.554,-4.526 32.11,-32.139 c -7.031,7.06 -7.031,18.589 0,25.649 7.059,7.059 18.588,7.059 25.647,0 l -5.38,5.379 c -8.055,8.057 -8.055,21.237 0,29.293 8.056,8.056 21.236,8.056 29.292,0 l 4.896,-4.924 C -35.298,-1.993 -25.505,-10.96 -13.521,-8.142 -9.166,-7.088 -4.497,-4.498 0,0"
             style="fill:#ffe5c1;fill-opacity:1;fill-rule:evenodd;stroke:none"
             id="path8418" /></g><g
           id="g8420"
           transform="translate(220.8301,273.4355)"><path
             d="M 0,0 -23.086,23.115"
             style="fill:none;stroke:#000000;stroke-width:15.147;stroke-linecap:round;stroke-linejoin:round;stroke-miterlimit:10;stroke-dasharray:none;stroke-opacity:1"
             id="path8422" /></g><g
           id="g8424"
           transform="translate(177.4766,316.791)"><path
             d="m 0,0 -4.896,4.925 c -8.056,8.055 -21.236,8.055 -29.292,0 -8.055,-8.057 -8.055,-21.237 0,-29.293 l 5.38,-5.38 c -7.059,7.06 -18.588,7.06 -25.647,0 -7.031,-7.06 -7.031,-18.589 0,-25.648 l 32.138,-32.111 c 7.059,-7.059 18.588,-7.059 25.648,0 7.03,7.031 7.03,18.589 0,25.62 l 10.732,-10.732 c 8.055,-8.056 21.235,-8.056 29.291,0 8.055,8.056 8.055,21.236 0,29.264 8.055,-8.056 21.236,-8.056 29.292,0.028 8.027,8.056 8.027,21.236 -0.029,29.264 8.056,-8.028 21.236,-8.028 29.291,0.029 8.056,8.055 8.056,21.236 -0.028,29.292 L 81.498,35.611"
             style="fill:none;stroke:#000000;stroke-width:15.147;stroke-linecap:round;stroke-linejoin:round;stroke-miterlimit:10;stroke-dasharray:none;stroke-opacity:1"
             id="path8426" /></g><g
           id="g8428"
           transform="translate(148.6689,287.043)"><path
             d="M 0,0 32.139,-32.139"
             style="fill:none;stroke:#000000;stroke-width:15.147;stroke-linecap:round;stroke-linejoin:round;stroke-miterlimit:10;stroke-dasharray:none;stroke-opacity:1"
             id="path8430" /></g><g
           id="g8432"
           transform="translate(250.0937,302.7285)"><path
             d="M 0,0 -20.382,20.382"
             style="fill:none;stroke:#000000;stroke-width:15.147;stroke-linecap:round;stroke-linejoin:round;stroke-miterlimit:10;stroke-dasharray:none;stroke-opacity:1"
             id="path8434" /></g><g
           id="g8436"
           transform="translate(32.5283,356.8145)"><path
             d="m 0,0 c 2.818,-2.789 7.401,-2.789 10.19,0 l 10.562,10.562 91.347,91.349 10.56,10.562 c 2.79,2.789 2.79,7.372 0,10.19 L 97.609,147.686 -25.021,25.051 Z"
             style="fill:#9fd4fe;fill-opacity:1;fill-rule:evenodd;stroke:none"
             id="path8438" /></g><g
           id="g8440"
           transform="translate(226.4668,355.0215)"><path
             d="m 0,0 c -0.37,-0.398 -22.403,-22.432 -22.772,-22.802 -9.993,-10.334 -13.58,-19.243 -14.291,-27.356 -0.256,-3.132 0.029,-5.979 0.769,-8.512 -8.198,1.623 -13.863,9.48 -12.696,20.44 0.854,7.999 5.351,17.649 15.115,27.726 0.313,0.341 19.158,19.187 22.317,22.346 C -5.637,16.994 6.689,4.64 0,0 m -36.294,-58.67 c -8.198,1.623 -13.863,9.48 -12.696,20.44 -1.167,-10.96 4.498,-18.817 12.696,-20.44"
             style="fill:#fed1a3;fill-opacity:1;fill-rule:evenodd;stroke:none"
             id="path8442" /></g><g
           id="g8444"
           transform="translate(194.5566,346.5098)"><path
             d="m 0,0 c -13.721,-7.771 -24.339,-5.551 -41.39,11.501 -17.05,17.051 5.238,24.111 8.255,17.137 C -16.112,11.614 7.97,8.085 20.723,20.724 l -0.37,-0.37 z"
             style="fill:#fed1a3;fill-opacity:1;fill-rule:evenodd;stroke:none"
             id="path8446" /></g><g
           id="g8448"
           transform="translate(215.3652,367.3193)"><path
             d="M 0,0 C -12.725,-12.725 -36.863,-9.224 -53.943,7.828"
             style="fill:none;stroke:#000000;stroke-width:15.147;stroke-linecap:round;stroke-linejoin:round;stroke-miterlimit:10;stroke-dasharray:none;stroke-opacity:1"
             id="path8450" /></g><g
           id="g8452"
           transform="translate(293.5039,90.9072)"><path
             d="m 0,0 c -22.317,-7.856 -28.922,-15.97 -38.571,-32.253 -25.648,52.948 -74.125,43.555 -99.176,26.588 -0.711,46.458 -26.388,72.106 -72.616,72.619 24.509,49.275 10.902,74.554 -26.587,99.206 16.282,9.622 24.366,16.227 32.252,38.572"
             style="fill:none;stroke:#000000;stroke-width:15.147;stroke-linecap:round;stroke-linejoin:round;stroke-miterlimit:10;stroke-dasharray:none;stroke-opacity:1"
             id="path8454" /></g><g
           id="g8456"
           transform="translate(53.2803,367.376)"><path
             d="m 0,0 4.583,-4.583 c 33.105,-33.106 2.932,-39.17 28.494,-64.733 l 51.979,-51.981 m 77.029,121.24 c -0.398,-0.398 -22.432,-22.431 -22.773,-22.801 -33.305,-34.417 -5.153,-63.623 18.673,-39.826 l 47.766,47.71 c 7.288,7.287 7.288,19.215 0,26.503 L 159.124,58.157 C 135.07,82.212 119.585,61.858 92.087,90.609 l -0.74,0.741"
             style="fill:none;stroke:#000000;stroke-width:15.147;stroke-linecap:round;stroke-linejoin:round;stroke-miterlimit:10;stroke-dasharray:none;stroke-opacity:1"
             id="path8458" /></g><g
           id="g8460"
           transform="translate(128.5439,442.6133)"><path
             d="M 0,0 C 2.732,2.818 2.732,7.373 -0.057,10.163 L -25.107,35.185 1.167,61.46 1.594,61.887 2.05,61.46 26.644,36.864 c 2.79,-2.818 2.79,-7.401 0,-10.19 L 16.083,16.112 Z"
             style="fill:#85beef;fill-opacity:1;fill-rule:evenodd;stroke:none"
             id="path8462" /></g><g
           id="g8464"
           transform="translate(504.4932,130.1631)"><path
             d="m 0,0 -24.196,-24.197 -25.05,25.022 c -2.789,2.819 -7.401,2.819 -10.191,0 l 13.635,13.664 10.562,10.533 c 2.817,2.818 7.4,2.818 10.19,0 z"
             style="fill:#85beef;fill-opacity:1;fill-rule:evenodd;stroke:none"
             id="path8466" /></g><g
           id="g8468"
           transform="translate(367.3447,53.3027)"><path
             d="m 0,0 -4.555,4.555 c -33.106,33.106 -39.169,2.961 -64.731,28.523 l -51.979,51.981 m 121.207,77.003 c -0.37,-0.371 -22.402,-22.404 -22.8,-22.774 -34.387,-33.307 -63.593,-5.124 -39.795,18.702 l 47.708,47.768 c 7.288,7.287 19.186,7.287 26.473,0 l 46.627,-46.629 c 24.082,-24.083 3.73,-39.568 32.451,-67.039 l 0.741,-0.74"
             style="fill:none;stroke:#000000;stroke-width:15.147;stroke-linecap:round;stroke-linejoin:round;stroke-miterlimit:10;stroke-dasharray:none;stroke-opacity:1"
             id="path8470" /></g><g
           id="g8472"
           transform="translate(433.0156,58.6836)"><path
             d="m 0,0 -51.182,-51.184 -25.021,25.051 c -2.818,2.79 -2.818,7.373 0,10.192 L 36.237,96.502 c 2.818,2.817 7.401,2.817 10.191,0 L 71.478,71.479 24.595,24.595"
             style="fill:none;stroke:#000000;stroke-width:15.147;stroke-linecap:round;stroke-linejoin:round;stroke-miterlimit:10;stroke-dasharray:none;stroke-opacity:1"
             id="path8474" /></g><g
           id="g8476"
           transform="translate(57.2363,431.5967)"><path
             d="m 0,0 -49.729,-49.731 25.021,-25.051 c 2.818,-2.789 7.401,-2.789 10.19,0 L 97.951,37.69 c 2.79,2.789 2.79,7.373 0,10.191 L 72.901,72.903 24.538,24.538"
             style="fill:none;stroke:#000000;stroke-width:15.147;stroke-linecap:round;stroke-linejoin:round;stroke-miterlimit:10;stroke-dasharray:none;stroke-opacity:1"
             id="path8478" /></g><g
           id="g8480"
           transform="translate(420.2627,217.6699)"><path
             d="m 0,0 c 7.856,22.346 15.97,28.922 32.252,38.572 -52.946,25.649 -43.524,74.156 -26.587,99.206 -46.429,0.712 -72.104,26.361 -72.617,72.619 -49.246,-24.539 -74.552,-10.931 -99.175,26.559 -9.65,-16.282 -16.226,-24.367 -38.6,-32.224"
             style="fill:none;stroke:#000000;stroke-width:15.147;stroke-linecap:round;stroke-linejoin:round;stroke-miterlimit:10;stroke-dasharray:none;stroke-opacity:1"
             id="path8482" /></g></g></g></g></svg>
