<svg clip-rule="evenodd" fill-rule="evenodd" height="2.833in" image-rendering="optimizeQuality" shape-rendering="geometricPrecision" text-rendering="geometricPrecision" viewBox="0 0 2.83333 2.83333" width="2.833in" xmlns="http://www.w3.org/2000/svg"><g id="Layer_x0020_1"><circle cx="1.417" cy="1.417" fill="#ac2614" r="1.417"/><g id="_561890248"><g><g><path id="_381211664" d="m1.42405 1.71956c-.00525984 0-.0103661-.00208268-.0141457-.0058622l-.0870906-.0870984c-.0078189-.00782283-.0078189-.0204843 0-.0282874l.102209-.102209c.0242126-.0242126.0242126-.0636102 0-.0878386-.0116654-.0116654-.0272559-.0180945-.0439173-.0180945-.0166496 0-.0322559.00641339-.0439213.0180945l-.102209.102224c-.00374803.00374409-.00883071.0058622-.0141339.0058622-.00530315 0-.0103819-.00211024-.0141299-.0058622l-.0870984-.0871142c-.00441339-.00440551-.00651575-.010622-.0056811-.0167992.0256063-.190087.10965-.332449.321205-.54402.178835-.178835.460469-.298988.700807-.298988.037685 0 .0742323.00297244.10861.00884252.00837008.00143307.0149134.00798425.0163583.0163425.0438504.257028-.0781732.597433-.290142.809406-.211567.211551-.353925.295614-.544028.321217-.00091339.00012598-.00179921.00018504-.00269291.00018504zm-.058815-.107094.0659134.0659134c.175421-.0258661.310512-.107693.511315-.30848.19635-.196335.315484-.520303.281228-.76028-.0280157-.00402362-.0574685-.00605512-.087752-.00605512-.230437 0-.500697.115437-.672524.287268-.200787.200803-.282598.335902-.308472.511331l.0659134.0659213.0880787-.0880748c.0192165-.0192165.0448465-.029811.072189-.029811s.0529882.0105945.0722008.029811c.0192126.0192205.0297953.0448661.0297953.0722008 0 .0273268-.0105945.0529567-.0297953.072189l-.0880906.0880669z" fill="#fff"/></g><g><path id="_381210944" d="m2.21618.948402c-.00511417 0-.0102362-.00196063-.0141496-.0058622l-.311272-.311264c-.00782283-.00780315-.00782283-.0204685 0-.0282717.0078189-.0078189.0204803-.0078189.0282835 0l.311276.311264c.0078189.00780315.0078189.0204685 0 .0282717-.00390551.00390157-.00902756.0058622-.0141378.0058622z" fill="#fff"/></g><g><path id="_381210824" d="m1.54993 1.9159c-.00558268 0-.0110079-.0023622-.0148386-.00662598-.00502756-.00558268-.00651575-.0135079-.00382283-.0205354.0005315-.00137402.0523583-.138862.0253858-.220587-.0034685-.0104882.00222047-.0217835.0127205-.0252441.0104528-.0035.0217992.00223622.0252402.0127205.022189.0671772.00133465.159543-.0137165.210346.297764-.095752.336421-.325992.332146-.457957-.00034646-.0110354.00829921-.0202717.0193425-.0206339.0109252-.00045669.0202874.00829921.0206339.0193425.00388976.119941-.0270906.40961-.397913.5085-.00172835.00043701-.00345669.00067323-.00517717.00067323z" fill="#fff"/></g><g><path id="_381211256" d="m.938004 1.30396c-.00485827 0-.00964961-.00177953-.0133858-.0051378-.00558268-.00502756-.00787008-.012748-.00594094-.0200118.0986969-.370134.387917-.401417.507331-.397957.0110354.00033465.0197165.00955118.0193858.0205906-.00033858.0110276-.00973622.019622-.0205945.0193858-.131811-.00395669-.361299.0350039-.456874.332189.0505945-.015.14239-.0357402.209528-.0139843.0105079.00341732.0162559.014689.0128543.0251929-.00341339.0104961-.014689.0162165-.025189.0128543-.0818228-.0265197-.218606.0250354-.219965.025563-.00233071.00088189-.00474409.00131496-.00714961.00131496z" fill="#fff"/></g><g><path id="_381211304" d="m1.27387 1.86976c-.00512205 0-.0102323-.00195669-.0141339-.0058622l-.0870984-.0870866c-.00374803-.00376378-.0058622-.00884252-.0058622-.0141496 0-.00530709.00211024-.0103858.0058622-.0141496l.150197-.150193c.00374409-.00374803.00883071-.0058622.0141299-.0058622.00530709 0 .0103858.00211024.0141339.0058622l.0870984.0870984c.0078189.0078189.00780315.0204843 0 .0282874l-.150193.150193c-.00390157.00390551-.00902362.0058622-.0141339.0058622zm-.0588268-.107094.058815.0588189.121909-.121909-.0588189-.0588268-.121906.121917zm-.144398-.0961142c-.00530709 0-.0103858-.00211024-.0141339-.0058622l-.0870984-.0870984c-.0078189-.0078189-.0078189-.0204843 0-.0282874l.150197-.150177c.0078189-.0078189.0204646-.0078189.0282677 0l.0870984.0870866c.00782283.00782283.00782283.0204843 0 .0282874l-.150193.150193c-.00374803.00374803-.00883071.00585827-.0141378.00585827zm-.058811-.10711.058815.0588307.121909-.121925-.0588189-.0588189-.121906.121913z" fill="#fff"/></g><g><path id="_381211088" d="m.801654 2.05164c-.00512205 0-.0102323-.00195669-.0141299-.0058622-.0078189-.0078189-.0078189-.0204803 0-.0282874l.17513-.17513c.0078189-.0078189.0204685-.0078189.0282717 0 .00780315.0078189.0078189.0204803 0 .0282835l-.175122.17515c-.00391339.00389764-.00902756.00584646-.0141496.00584646z" fill="#fff"/></g><g><path id="_381211016" d="m.583547 2.01869c-.00512205 0-.0102323-.00195669-.0141339-.0058622-.0078189-.0078189-.0078189-.0204803 0-.0282835l.175134-.175118c.0078189-.0078189.0204685-.0078189.0282874 0 .00780315.0078189.00780315.0204843 0 .0282874l-.175134.175114c-.00392126.00392126-.0090315.0058622-.0141535.0058622z" fill="#fff"/></g><g><path id="_381211112" d="m.834618 2.26976c-.00512205 0-.0102362-.00195669-.0141339-.0058622-.0078189-.0078189-.0078189-.0204803 0-.0282874l.175134-.17513c.0078189-.0078189.0204646-.0078189.0282677 0 .00780315.0078189.0078189.0204803 0 .0282835l-.175138.17515c-.00391339.00390551-.00901969.00584646-.0141299.00584646z" fill="#fff"/></g><g><path id="_381211160" d="m1.11122 1.82409c-.0273425 0-.0529724-.0105984-.0721929-.0297992-.039811-.039811-.039811-.104579-.00001575-.14439l.269902-.269898c.0192165-.0192205.0448622-.0297992.072189-.0297992.0273425 0 .0529724.0105787.0722008.0297992.0397953.0398071.0397953.104579 0 .14439l-.269902.269898c-.0192165.0192008-.0448465.0297992-.0721811.0297992zm.269894-.433913c-.0166496 0-.0322559.00642913-.0439213.0180945l-.269894.269902c-.0242126.0242126-.0242126.0636063 0 .0878228.0116654.0116772.0272677.0181024.0439213.0181024.0166496 0 .032252-.0064252.0439173-.0181024l.269882-.269902c.0116772-.0116654.0181063-.0272559.0181063-.0439016 0-.0166614-.00642913-.0322559-.0181063-.0439291-.0116496-.0116575-.0272441-.0180866-.0439055-.0180866z" fill="#fff"/></g><g><g><path id="_561890200" d="m.861807 1.82517c-.00512205 0-.0102323-.00195669-.0141339-.0058622-.0078189-.0078189-.0078189-.0204803 0-.0282835l.076815-.0767992c.0078189-.0078189.0204803-.0078189.0282677 0 .0078189.0078189.0078189.0204843 0 .0282874l-.076811.0767953c-.00390945.00390551-.00901575.0058622-.0141378.0058622z" fill="#fff"/></g><g><path id="_561891040" d="m1.02813 1.9915c-.00512205 0-.0102362-.00196063-.0141339-.0058622-.0078189-.0078189-.0078189-.0204843 0-.0282874l.076815-.076815c.00780315-.0078189.0204646-.0078189.0282677 0 .00780315.0078189.0078189.0204843 0 .0282874l-.076811.076815c-.00390551.00391339-.00901575.0058622-.0141378.0058622z" fill="#fff"/></g></g><g><g><path id="_561890176" d="m1.84242 1.28229h-.0925039c-.0110354 0-.0199961-.00895669-.0199961-.0199921v-.059126c-.00330709-.00126378-.00659449-.00262205-.00982677-.00406693l-.041811.0417953c-.00376378.00374803-.00884252.0058622-.0141496.0058622-.00530315 0-.0103858-.00211024-.0141457-.0058622l-.0654173-.0654134c-.0078189-.00780315-.0078189-.0204685 0-.0282717l.041811-.041811c-.00144488-.00323228-.00280315-.00652756-.00406693-.00982677l-.059122.00000394c-.0110394 0-.0199961-.00895669-.0199961-.0199961v-.0925157c0-.0110354.0089685-.0199921.0199961-.0199921h.059122c.00126378-.0033189.0026063-.0066063.00406693-.00983071l-.041811-.0418071c-.0078189-.00780709-.0078189-.0204685 0-.0282717l.0654173-.0654173c.0078189-.0078189.0204803-.0078189.0282835 0l.041811.041811c.00323228-.00144094.00652756-.00280315.00983071-.00406693v-.059122c0-.0110354.0089685-.0199961.0199921-.0199961h.0925c.0110354 0 .0199961.00896063.0199961.0199961v.059122c.00330315.00126378.00659449.00261024.00982677.00406693l.041811-.041811c.0078189-.0078189.0204803-.0078189.0282874 0l.0654134.0654173c.0078189.00780315.0078189.0204646 0 .0282717l-.041811.0418071c.00144488.00323228.00280315.00652756.00406693.00983071h.059122c.0110394 0 .0199961.00895669.0199961.0199921v.0925157c0 .0110394-.0089685.0199961-.0199961.0199961h-.059122c-.00126378.00331496-.0026063.0066063-.00406693.00984646l.041811.0417913c.0078189.00780315.0078189.0204685 0 .0282717l-.0654134.0654134c-.00782283.0078189-.0204843.0078189-.0282874 0l-.041811-.0418071c-.00323228.00144094-.00652756.00281496-.00982677.00406693v.059122c.00001575.011063-.00894488.0200039-.0199803.0200039zm-.0725118-.0399882h.0525v-.0534961c0-.00890157.00590157-.0167323.0144449-.0192047.0103425-.00298425.0203386-.00711811.0297126-.0122992.0077874-.00427559.0174803-.00294488.0237992.00337402l.0378386.0378228.0371417-.0371457-.0378346-.0378228c-.00629528-.00629134-.00766929-.0159961-.00335827-.0237835.00515354-.00935433.0092874-.0193543.0122717-.0296969.00248819-.00855512.0103031-.0144528.0192205-.0144528l.0535079-.00000394v-.0525276h-.0535c-.00891339 0-.0167283-.00588976-.0192165-.0144528-.00296063-.0102756-.00711024-.0202559-.0122992-.0297126-.00429528-.00780315-.00292126-.0174803.00337402-.0237717l.0378346-.0378386-.0371417-.0371457-.0378386.0378228c-.00630315.00630315-.0160236.00766535-.0237835.00337402-.00941339-.0051811-.0193976-.00931496-.0297126-.0122913-.00855512-.00247244-.0144528-.0103031-.0144528-.0192008v-.0535118h-.0525079v.0535118c0 .00889764-.00589764.0167283-.0144409.0192008-.0103307.00298819-.0203386.00712205-.0297283.0122913-.00776378.00429134-.0174646.00292913-.0237835-.00337402l-.0378386-.0378228-.0371417.0371457.0378346.0378386c.00629134.00629921.00766929.0159921.00335827.0237992-.0051378.00931496-.0092874.0193268-.0122992.0297126-.00248819.00853543-.0103031.0144252-.0192047.0144252h-.0534961v.0525276h.0535039c.00891732 0 .0167283.00588583.0192165.0144528.00296063.0102598.00711024.0202559.0123031.0297283.00429134.00780315.00290157.0174803-.00337795.0237717l-.0378346.0378228.0371457.0371457.0378189-.0378228c.00630315-.0063189.0159685-.00767717.0237835-.00338976.00941732.0051811.0193976.00930315.0297283.0122913.00855512.00247244.0144528.0102992.0144528.0192008v.0535079z" fill="#fff"/></g><g><path id="_561890680" d="m1.79617 1.12777c-.0262992 0-.0510157-.0102323-.0696102-.0288268-.0383937-.0383937-.0383937-.100835-.00001575-.139213.0186063-.0185906.0433228-.0288346.0696181-.0288346.0262992 0 .0510157.0102323.0696102.0288268.0383937.0383937.0383937.100831.00001575.139209-.0186102.0186063-.0433228.0288386-.0696181.0288386zm0-.156874c-.0156102 0-.0302992.00608268-.0413504.0171181-.0227874.0227874-.0227874.059874.00001575.0826575.0110354.0110394.0257323.0171102.0413386.0171102s.0302953-.00608268.0413465-.0171181c.0227874-.0227874.0227874-.059874-.00001575-.0826614-.0110394-.0110394-.0257362-.0171063-.0413346-.0171063z" fill="#fff"/></g></g><g><path id="_561890440" d="m1.6565 1.42433c-.00511417 0-.0102362-.00195669-.0141496-.00585827l-.227508-.227535c-.0078189-.00780315-.0078189-.0204646 0-.0282677.00782283-.00782283.0204685-.00782283.0282874 0l.227531.227531c.00782283.00780315.00782283.0204646 0 .0282717-.00391339.00390157-.00903937.00585827-.0141614.00585827z" fill="#fff"/></g></g></g></g></svg>