<?xml version="1.0" encoding="UTF-8" standalone="no"?>
<!-- Created with Inkscape (http://www.inkscape.org/) -->

<svg
   version="1.1"
   id="svg9"
   xml:space="preserve"
   width="682.66669"
   height="682.66669"
   viewBox="0 0 682.66669 682.66669"
   xmlns="http://www.w3.org/2000/svg"
   xmlns:svg="http://www.w3.org/2000/svg"><defs
     id="defs13"><clipPath
       clipPathUnits="userSpaceOnUse"
       id="clipPath23"><path
         d="M 0,512 H 512 V 0 H 0 Z"
         id="path21" /></clipPath></defs><g
     id="g15"
     transform="matrix(1.3333333,0,0,-1.3333333,0,682.66667)"><g
       id="g17"><g
         id="g19"
         clip-path="url(#clipPath23)"><g
           id="g25"
           transform="translate(7.5005,7.5024)"><path
             d="M 0,0 100.147,164.554 200.296,-0.002 H 0 c 0,0 -0.001,0.001 0,0.002"
             style="fill:#5f99d7;fill-opacity:1;fill-rule:nonzero;stroke:none"
             id="path27" /></g><g
           id="g29"
           transform="translate(107.6475,172.0562)"><path
             d="m 0,0 -15,-24.647 85.149,-139.909 h 30 z"
             style="fill:#3c87d0;fill-opacity:1;fill-rule:nonzero;stroke:none"
             id="path31" /></g><g
           id="g33"
           transform="translate(328.6606,7.502)"><path
             d="M 0,0 87.919,144.461 175.839,-0.002 H 0 C 0,-0.002 0,0 0,0"
             style="fill:#5f99d7;fill-opacity:1;fill-rule:nonzero;stroke:none"
             id="path35" /></g><g
           id="g37"
           transform="translate(416.5796,151.9629)"><path
             d="m 0,0 -15,-24.646 72.92,-119.817 h 30 z"
             style="fill:#3c87d0;fill-opacity:1;fill-rule:nonzero;stroke:none"
             id="path39" /></g><g
           id="g41"
           transform="translate(98.7871,7.5039)"><path
             d="M 0,0 157.213,258.319 314.429,-0.004 H 0.001 C 0,-0.004 0,-0.001 0,0"
             style="fill:#98bce5;fill-opacity:1;fill-rule:nonzero;stroke:none"
             id="path43" /></g><g
           id="g45"
           transform="translate(256.0005,265.8232)"><path
             d="m 0,0 -15,-24.646 142.216,-233.677 h 30 z"
             style="fill:#7bacdf;fill-opacity:1;fill-rule:nonzero;stroke:none"
             id="path47" /></g><path
           d="M 433.75,364.993 H 256.001 V 480.337 H 433.75 Z"
           style="fill:#fe7d43;fill-opacity:1;fill-rule:nonzero;stroke:none"
           id="path49" /><path
           d="m 403.75,364.993 h 30 v 115.344 h -30 z"
           style="fill:#fd6930;fill-opacity:1;fill-rule:nonzero;stroke:none"
           id="path51" /><g
           id="g53"
           transform="translate(130.2949,495.9038)"><path
             d="m 0,0 5.345,-10.847 c 2.65,-5.376 7.771,-9.102 13.695,-9.965 l 11.952,-1.739 c 12.63,-1.838 17.672,-17.382 8.533,-26.303 l -8.649,-8.443 c -4.286,-4.185 -6.242,-10.214 -5.23,-16.123 l 2.041,-11.922 c 2.158,-12.597 -11.044,-22.204 -22.34,-16.256 l -10.691,5.629 c -5.299,2.789 -11.629,2.789 -16.927,0 l -10.691,-5.629 c -11.296,-5.948 -24.498,3.659 -22.341,16.256 l 2.042,11.922 c 1.011,5.909 -0.945,11.938 -5.231,16.123 l -8.649,8.443 c -9.139,8.921 -4.096,24.465 8.534,26.303 l 11.952,1.739 c 5.924,0.863 11.045,4.589 13.695,9.965 L -27.615,0 C -21.967,11.461 -5.648,11.461 0,0"
             style="fill:#ffd15b;fill-opacity:1;fill-rule:nonzero;stroke:none"
             id="path55" /></g><g
           id="g57"
           transform="translate(161.2871,473.353)"><path
             d="m 0,0 -11.953,1.739 c -5.923,0.863 -11.045,4.589 -13.694,9.965 l -5.345,10.847 c -5.649,11.461 -21.967,11.461 -27.615,0 l -2.724,-5.526 c 0.115,-0.208 0.232,-0.412 0.339,-0.628 L -55.647,5.55 c 2.649,-5.376 7.771,-9.102 13.694,-9.965 L -30,-6.154 c 12.629,-1.838 17.672,-17.382 8.533,-26.303 l -8.649,-8.443 c -4.286,-4.185 -6.242,-10.214 -5.23,-16.123 l 2.041,-11.922 c 0.361,-2.104 0.284,-4.121 -0.132,-6 l 7.791,-4.102 c 11.296,-5.948 24.499,3.658 22.341,16.255 l -2.041,11.923 c -1.012,5.909 0.944,11.938 5.23,16.122 l 8.649,8.444 C 17.672,-17.381 12.629,-1.838 0,0"
             style="fill:#ffc344;fill-opacity:1;fill-rule:nonzero;stroke:none"
             id="path59" /></g><g
           id="g61"
           transform="translate(409.4463,286.8105)"><path
             d="m 0,0 3.963,-7.942 c 1.964,-3.936 5.761,-6.664 10.153,-7.295 l 8.861,-1.274 c 9.363,-1.345 13.102,-12.725 6.327,-19.257 l -6.412,-6.182 c -3.179,-3.064 -4.629,-7.478 -3.878,-11.804 l 1.513,-8.729 c 1.599,-9.223 -8.188,-16.256 -16.563,-11.902 l -7.926,4.121 c -3.928,2.043 -8.621,2.043 -12.549,0 l -7.926,-4.121 C -32.812,-78.739 -42.6,-71.706 -41,-62.483 l 1.513,8.729 c 0.751,4.326 -0.7,8.74 -3.878,11.804 l -6.412,6.182 c -6.775,6.532 -3.036,17.912 6.327,19.257 l 8.861,1.274 c 4.392,0.631 8.189,3.359 10.153,7.295 L -20.473,0 C -16.286,8.391 -4.187,8.391 0,0"
             style="fill:#ffd15b;fill-opacity:1;fill-rule:nonzero;stroke:none"
             id="path63" /></g><g
           id="g65"
           transform="translate(432.4233,270.2998)"><path
             d="m 0,0 -8.861,1.273 c -4.392,0.632 -8.189,3.36 -10.153,7.296 l -3.963,7.942 c -4.188,8.391 -16.286,8.391 -20.473,0 l -3.963,-7.942 c -0.665,-1.332 -1.553,-2.51 -2.588,-3.531 l 0.987,-1.979 c 1.964,-3.936 5.761,-6.664 10.153,-7.296 L -30,-5.51 c 9.363,-1.345 13.102,-12.726 6.327,-19.258 l -6.412,-6.181 c -3.179,-3.064 -4.629,-7.478 -3.878,-11.804 l 1.513,-8.729 c 0.046,-0.266 0.08,-0.529 0.108,-0.79 1.861,-0.12 3.704,-0.597 5.403,-1.481 l 7.926,-4.121 c 8.375,-4.355 18.162,2.679 16.563,11.902 l -1.513,8.729 c -0.751,4.326 0.699,8.74 3.878,11.804 l 6.412,6.182 C 13.102,-12.726 9.363,-1.346 0,0"
             style="fill:#ffc344;fill-opacity:1;fill-rule:nonzero;stroke:none"
             id="path67" /></g><g
           id="g69"
           transform="translate(256.0005,265.8232)"><path
             d="M 0,0 -67.007,-110.101 H 67.007 Z"
             style="fill:#d5e3f4;fill-opacity:1;fill-rule:nonzero;stroke:none"
             id="path71" /></g><g
           id="g73"
           transform="translate(256.0005,265.8232)"><path
             d="m 0,0 -15,-24.646 52.007,-85.455 h 30 z"
             style="fill:#b3ceec;fill-opacity:1;fill-rule:nonzero;stroke:none"
             id="path75" /></g><g
           id="g77"
           transform="translate(50.9521,78.8989)"><path
             d="M 0,0 56.695,93.157 101.691,19.225"
             style="fill:none;stroke:#000000;stroke-width:15;stroke-linecap:round;stroke-linejoin:round;stroke-miterlimit:10;stroke-dasharray:none;stroke-opacity:1"
             id="path79" /></g><g
           id="g81"
           transform="translate(207.7964,7.5)"><path
             d="m 0,0 h -200.296 c 0,0 -0.001,0.001 0,0.002 l 24.888,40.894"
             style="fill:none;stroke:#000000;stroke-width:15;stroke-linecap:round;stroke-linejoin:round;stroke-miterlimit:10;stroke-dasharray:none;stroke-opacity:1"
             id="path83" /></g><g
           id="g85"
           transform="translate(371.7476,78.2988)"><path
             d="m 0,0 44.832,73.664 87.92,-144.463 H -43.086 c -0.001,0 -0.001,0.002 -0.001,0.002"
             style="fill:none;stroke:#000000;stroke-width:15;stroke-linecap:round;stroke-linejoin:round;stroke-miterlimit:10;stroke-dasharray:none;stroke-opacity:1"
             id="path87" /></g><g
           id="g89"
           transform="translate(98.7871,7.5039)"><path
             d="M 0,0 157.213,258.319 314.429,-0.004 H 0.001 C 0,-0.004 0,-0.001 0,0 Z"
             style="fill:none;stroke:#000000;stroke-width:15;stroke-linecap:round;stroke-linejoin:round;stroke-miterlimit:10;stroke-dasharray:none;stroke-opacity:1"
             id="path91" /></g><g
           id="g93"
           transform="translate(412.1797,480.3374)"><path
             d="M 0,0 H 21.571 V -115.344 H -156.178 V 0 h 120.896"
             style="fill:none;stroke:#000000;stroke-width:15;stroke-linecap:round;stroke-linejoin:round;stroke-miterlimit:10;stroke-dasharray:none;stroke-opacity:1"
             id="path95" /></g><g
           id="g97"
           transform="translate(256.0005,265.8232)"><path
             d="M 0,0 V 214.514"
             style="fill:none;stroke:#000000;stroke-width:15;stroke-linecap:round;stroke-linejoin:round;stroke-miterlimit:10;stroke-dasharray:none;stroke-opacity:1"
             id="path99" /></g><g
           id="g101"
           transform="translate(130.2949,495.9038)"><path
             d="m 0,0 5.345,-10.847 c 2.65,-5.376 7.771,-9.102 13.695,-9.965 l 11.952,-1.739 c 12.63,-1.838 17.672,-17.382 8.533,-26.303 l -8.649,-8.443 c -4.286,-4.185 -6.242,-10.214 -5.23,-16.123 l 2.041,-11.922 c 2.158,-12.597 -11.044,-22.204 -22.34,-16.256 l -10.691,5.629 c -5.299,2.789 -11.629,2.789 -16.927,0 l -10.691,-5.629 c -11.296,-5.948 -24.498,3.659 -22.341,16.256 l 2.042,11.922 c 1.011,5.909 -0.945,11.938 -5.231,16.123 l -8.649,8.443 c -9.139,8.921 -4.096,24.465 8.534,26.303 l 11.952,1.739 c 5.924,0.863 11.045,4.589 13.695,9.965 L -27.615,0 C -21.967,11.461 -5.648,11.461 0,0 Z"
             style="fill:none;stroke:#000000;stroke-width:15;stroke-linecap:round;stroke-linejoin:round;stroke-miterlimit:10;stroke-dasharray:none;stroke-opacity:1"
             id="path103" /></g><g
           id="g105"
           transform="translate(409.4463,286.8105)"><path
             d="m 0,0 3.963,-7.942 c 1.964,-3.936 5.761,-6.664 10.153,-7.295 l 8.861,-1.274 c 9.363,-1.345 13.102,-12.725 6.327,-19.257 l -6.412,-6.182 c -3.179,-3.064 -4.629,-7.478 -3.878,-11.804 l 1.513,-8.729 c 1.599,-9.223 -8.188,-16.256 -16.563,-11.902 l -7.926,4.121 c -3.928,2.043 -8.621,2.043 -12.549,0 l -7.926,-4.121 C -32.812,-78.739 -42.6,-71.706 -41,-62.483 l 1.513,8.729 c 0.751,4.326 -0.7,8.74 -3.878,11.804 l -6.412,6.182 c -6.775,6.532 -3.036,17.912 6.327,19.257 l 8.861,1.274 c 4.392,0.631 8.189,3.359 10.153,7.295 L -20.473,0 C -16.286,8.391 -4.187,8.391 0,0 Z"
             style="fill:none;stroke:#000000;stroke-width:15;stroke-linecap:round;stroke-linejoin:round;stroke-miterlimit:10;stroke-dasharray:none;stroke-opacity:1"
             id="path107" /></g><g
           id="g109"
           transform="translate(190.0771,155.7227)"><path
             d="M 0,0 H 132"
             style="fill:none;stroke:#000000;stroke-width:15;stroke-linecap:round;stroke-linejoin:round;stroke-miterlimit:10;stroke-dasharray:none;stroke-opacity:1"
             id="path111" /></g></g></g></g></svg>
