<svg id="Capa_1" enable-background="new 0 0 512 512" height="512" viewBox="0 0 512 512" width="512" xmlns="http://www.w3.org/2000/svg"><g><g><path d="m197.992 144.882c0 4.143 3.358 7.5 7.5 7.5h101.016c4.143 0 7.5-3.357 7.5-7.5s-3.357-7.5-7.5-7.5h-1.248l8.646-51.876c.45-2.705-.61-5.439-2.768-7.133-2.155-1.692-5.066-2.075-7.585-.994l-27.479 11.777-13.994-19.377c-1.41-1.952-3.672-3.108-6.08-3.108s-4.67 1.156-6.08 3.108l-13.994 19.377-27.48-11.777c-2.521-1.08-5.428-.698-7.585.994-2.157 1.693-3.218 4.428-2.767 7.133l8.646 51.876h-1.248c-4.142 0-7.5 3.357-7.5 7.5zm17.153-48.313 20.392 8.739c3.227 1.382 6.979.343 9.035-2.503l11.428-15.825 11.43 15.826c2.055 2.845 5.81 3.885 9.034 2.502l20.391-8.739-6.802 40.812h-68.106z"/><path d="m137.382 183.269v14.142c0 8.592 6.99 15.582 15.581 15.582h206.073c8.592 0 15.582-6.99 15.582-15.582v-14.142c0-8.592-6.99-15.582-15.582-15.582h-206.073c-8.591 0-15.581 6.99-15.581 15.582zm222.236 0v14.142c0 .321-.261.582-.582.582h-206.073c-.32 0-.581-.261-.581-.582v-14.142c0-.321.261-.582.581-.582h206.073c.321 0 .582.26.582.582z"/><path d="m346.915 238.398h-121.22c-4.142 0-7.5 3.357-7.5 7.5s3.358 7.5 7.5 7.5h121.22c4.143 0 7.5-3.357 7.5-7.5s-3.357-7.5-7.5-7.5z"/><path d="m165.085 253.398h30.305c4.142 0 7.5-3.357 7.5-7.5s-3.358-7.5-7.5-7.5h-30.305c-4.142 0-7.5 3.357-7.5 7.5s3.358 7.5 7.5 7.5z"/><path d="m346.915 278.805h-121.22c-4.142 0-7.5 3.357-7.5 7.5s3.358 7.5 7.5 7.5h121.22c4.143 0 7.5-3.357 7.5-7.5s-3.357-7.5-7.5-7.5z"/><path d="m165.085 293.805h30.305c4.142 0 7.5-3.357 7.5-7.5s-3.358-7.5-7.5-7.5h-30.305c-4.142 0-7.5 3.357-7.5 7.5s3.358 7.5 7.5 7.5z"/><path d="m346.915 319.211h-121.22c-4.142 0-7.5 3.357-7.5 7.5s3.358 7.5 7.5 7.5h121.22c4.143 0 7.5-3.357 7.5-7.5s-3.357-7.5-7.5-7.5z"/><path d="m165.085 334.211h30.305c4.142 0 7.5-3.357 7.5-7.5s-3.358-7.5-7.5-7.5h-30.305c-4.142 0-7.5 3.357-7.5 7.5s3.358 7.5 7.5 7.5z"/><path d="m354.415 367.118c0-4.143-3.357-7.5-7.5-7.5h-121.22c-4.142 0-7.5 3.357-7.5 7.5s3.358 7.5 7.5 7.5h121.22c4.143 0 7.5-3.357 7.5-7.5z"/><path d="m165.085 374.618h30.305c4.142 0 7.5-3.357 7.5-7.5s-3.358-7.5-7.5-7.5h-30.305c-4.142 0-7.5 3.357-7.5 7.5s3.358 7.5 7.5 7.5z"/><path d="m203.472 445.329h105.057c8.592 0 15.581-6.989 15.581-15.581v-14.143c0-8.592-6.989-15.581-15.581-15.581h-105.057c-8.592 0-15.582 6.989-15.582 15.581v14.143c0 8.592 6.99 15.581 15.582 15.581zm-.582-29.724c0-.32.261-.581.582-.581h105.057c.32 0 .581.261.581.581v14.143c0 .32-.261.581-.581.581h-105.057c-.321 0-.582-.261-.582-.581z"/><path d="m504.5 342.21c4.143 0 7.5-3.357 7.5-7.5v-240.34c0-15.274-12.426-27.7-27.7-27.7h-79.38v-12.7c0-15.279-12.426-27.71-27.7-27.71h-176.29c-4.142 0-7.5 3.357-7.5 7.5s3.358 7.5 7.5 7.5h176.29c7.003 0 12.7 5.702 12.7 12.71v404.06c0 7.008-5.697 12.71-12.7 12.71h-242.44c-7.002 0-12.7-5.702-12.7-12.71v-404.06c0-7.008 5.697-12.71 12.7-12.71h31.15c4.142 0 7.5-3.357 7.5-7.5s-3.358-7.5-7.5-7.5h-31.15c-15.274 0-27.7 12.431-27.7 27.71v12.7h-79.38c-15.274 0-27.7 12.426-27.7 27.7v54.189c0 4.143 3.358 7.5 7.5 7.5s7.5-3.357 7.5-7.5v-54.189c0-7.003 5.697-12.7 12.7-12.7h79.38v86.017h-51.092c-8.591 0-15.581 6.99-15.581 15.582v14.142c0 8.592 6.99 15.582 15.581 15.582h51.092v15.305h-69.275c-4.142 0-7.5 3.357-7.5 7.5s3.358 7.5 7.5 7.5h69.275v25.406h-69.275c-4.142 0-7.5 3.357-7.5 7.5s3.358 7.5 7.5 7.5h69.275v25.406h-69.275c-4.142 0-7.5 3.357-7.5 7.5s3.358 7.5 7.5 7.5h69.275v25.407h-45.031c-8.592 0-15.582 6.989-15.582 15.581v14.143c0 8.592 6.99 15.581 15.582 15.581h45.031v35.509h-79.38c-7.003 0-12.7-5.697-12.7-12.7v-234.071c0-4.143-3.358-7.5-7.5-7.5s-7.5 3.357-7.5 7.5v234.07c0 15.274 12.426 27.7 27.7 27.7h79.38v12.7c0 15.279 12.426 27.71 27.7 27.71h242.44c15.274 0 27.7-12.431 27.7-27.71v-12.7h79.38c15.274 0 27.7-12.426 27.7-27.7v-47.92c0-4.143-3.357-7.5-7.5-7.5s-7.5 3.357-7.5 7.5v47.92c0 7.003-5.697 12.7-12.7 12.7h-79.38v-35.509h45.031c8.592 0 15.581-6.989 15.581-15.581v-14.143c0-8.592-6.989-15.581-15.581-15.581h-45.031v-25.407h69.275c4.143 0 7.5-3.357 7.5-7.5s-3.357-7.5-7.5-7.5h-69.275v-25.406h69.275c4.143 0 7.5-3.357 7.5-7.5s-3.357-7.5-7.5-7.5h-69.275v-25.406h69.275c4.143 0 7.5-3.357 7.5-7.5s-3.357-7.5-7.5-7.5h-69.275v-15.305h51.092c8.592 0 15.582-6.99 15.582-15.582v-14.142c0-8.592-6.99-15.582-15.582-15.582h-51.092v-86.016h79.38c7.003 0 12.7 5.697 12.7 12.7v240.34c0 4.143 3.357 7.5 7.5 7.5zm-448.512-144.218c-.32 0-.581-.261-.581-.582v-14.142c0-.321.261-.582.581-.582h51.092v15.306zm6.061 181.829c-.321 0-.582-.261-.582-.581v-14.143c0-.32.261-.581.582-.581h45.031v15.305zm387.902-15.304c.32 0 .581.261.581.581v14.143c0 .32-.261.581-.581.581h-45.031v-15.305zm6.061-181.83c.321 0 .582.261.582.582v14.142c0 .321-.261.582-.582.582h-51.092v-15.306z"/><circle cx="256" cy="119.176" r="7.5"/></g></g></svg>