<svg id="_x33_0" enable-background="new 0 0 62 62" height="512" viewBox="0 0 62 62" width="512" xmlns="http://www.w3.org/2000/svg"><g><g><g><path d="m51 57h10v4h-10z" fill="#e6e9ed"/></g><g><path d="m3 57h10v4h-10z" fill="#b4dd7f"/></g><g><path d="m27 57h10v4h-10z" fill="#ff826e"/></g><g><path d="m18.99 30.92c3.4-.47 6.01-3.39 6.01-6.92v-3h1c.83 0 1.58-.34 2.12-.88s.88-1.29.88-2.12c0-.77-.29-1.46-.77-1.99l.01-.01c.47-.53.76-1.23.76-2s-.3-1.47-.78-2c.48-.53.78-1.23.78-2 0-.35-.06-.69-.17-1h30.17v28h-25c.83 0 1.58-.34 2.12-.88s.88-1.29.88-2.12c0-1.66-1.34-3-3-3h-1-2-12z" fill="#e6e9ed"/></g><g><path d="m4 15c-.89 0-1.7.39-2.23 1.01l-.01-.01c-.47-.53-.76-1.23-.76-2s.3-1.47.78-2c-.48-.53-.78-1.23-.78-2 0-1.39.94-2.54 2.22-2.88-.14-.35-.22-.72-.22-1.12 0-1.66 1.34-3 3-3 .4 0 .77.08 1.12.22.34-1.28 1.49-2.22 2.88-2.22.92 0 1.74.42 2.29 1.08.71-.67 1.66-1.08 2.71-1.08s2 .41 2.71 1.08c.55-.66 1.37-1.08 2.29-1.08 1.39 0 2.54.94 2.88 2.22.35-.14.72-.22 1.12-.22 1.31 0 2.42.83 2.82 2 .12.31.18.65.18 1 0 .4-.08.77-.22 1.12.96.25 1.72.96 2.05 1.88.11.31.17.65.17 1 0 .77-.3 1.47-.78 2 .48.53.78 1.23.78 2s-.29 1.47-.76 2l-.01.01c-.53-.62-1.34-1.01-2.23-1.01h-1c0-2.21-1.79-4-4-4h-12c-2.21 0-4 1.79-4 4z" fill="#b27946"/></g><g><path d="m26.83 5h33.17c.55 0 1 .45 1 1v2c0 .55-.45 1-1 1h-1-30.17c-.33-.92-1.09-1.63-2.05-1.88.14-.35.22-.72.22-1.12 0-.35-.06-.69-.18-1z" fill="#aab2bd"/></g><g><path d="m24.49 37h6.51 3 25 1c.55 0 1 .45 1 1v2c0 .55-.45 1-1 1h-1-4-20-4-6v-1c0-1.05-.18-2.06-.52-3z" fill="#aab2bd"/></g><g><path d="m53 47v-4c0-1.1.9-2 2-2h4c1.1 0 2 .9 2 2v14h-10c-1.28-1.28-2-3.02-2-4.83v-5.17c0-1.1.9-2 2-2 .55 0 1.05.22 1.41.59.37.36.59.86.59 1.41z" fill="#f0d0b4"/></g><g><path d="m29 47v-4c0-1.1.9-2 2-2h4c1.1 0 2 .9 2 2v14h-10c-1.28-1.28-2-3.02-2-4.83v-5.17c0-1.1.9-2 2-2 .55 0 1.05.22 1.41.59.37.36.59.86.59 1.41z" fill="#f0d0b4"/></g><g><path d="m5 47v-4c0-1.1.9-2 2-2h2 2c1.1 0 2 .9 2 2v14h-10c-1.28-1.28-2-3.02-2-4.83v-5.17c0-1.1.9-2 2-2 .55 0 1.05.22 1.41.59.37.36.59.86.59 1.41z" fill="#f0d0b4"/></g><g><path d="m19 31h12v6h-6.51-.01c-1.22-3.46-4.49-5.95-8.36-6h1.88c.34 0 .67-.02.99-.08z" fill="#fcd770"/></g><g><path d="m16.12 31c3.87.05 7.14 2.54 8.36 6 .34.94.52 1.95.52 3v1h-8v-6c0-1.1-.45-2.1-1.17-2.83-.73-.72-1.73-1.17-2.83-1.17h3z" fill="#fcd770"/></g><g><path d="m17 35v6h-6-2v-6c0-2.21 1.79-4 4-4 1.1 0 2.1.45 2.83 1.17.72.73 1.17 1.73 1.17 2.83z" fill="#fcd770"/></g><g><path d="m44.17 19.83c-.72-.73-1.17-1.73-1.17-2.83 0-2.21 1.79-4 4-4s4 1.79 4 4-1.79 4-4 4c-1.1 0-2.1-.45-2.83-1.17z" fill="#ff826e"/></g><g><path d="m33 31h1c1.66 0 3 1.34 3 3 0 .83-.34 1.58-.88 2.12s-1.29.88-2.12.88h-3v-6z" fill="#f0d0b4"/></g><g><path d="m28.23 16.01c-.53-.62-1.34-1.01-2.23-1.01h-1c0-2.21-1.79-4-4-4h-12c-2.21 0-4 1.79-4 4h-1c-.89 0-1.7.39-2.23 1.01-.48.53-.77 1.22-.77 1.99 0 .83.34 1.58.88 2.12s1.29.88 2.12.88h1v3c0 3.87 3.13 7 7 7h1 3 .12 1.88c.34 0 .67-.02.99-.08 3.4-.47 6.01-3.39 6.01-6.92v-3h1c.83 0 1.58-.34 2.12-.88s.88-1.29.88-2.12c0-.77-.29-1.46-.77-1.99z" fill="#f0d0b4"/></g><g><path d="m25 16v4c0 .55-.45 1-1 1h-6c-.55 0-1-.45-1-1v-4c0-.55.45-1 1-1h6c.55 0 1 .45 1 1z" fill="#69d6f4"/></g><g><path d="m13 16v4c0 .55-.45 1-1 1h-6c-.55 0-1-.45-1-1v-4c0-.55.45-1 1-1h6c.55 0 1 .45 1 1z" fill="#69d6f4"/></g></g><g><path d="m18.789 25.658.105-.211-1.789-.895-.105.212c-.381.762-1.147 1.236-2 1.236s-1.619-.474-2-1.236l-.105-.211-1.789.895.105.211c.722 1.444 2.174 2.341 3.789 2.341s3.067-.897 3.789-2.342z"/><path d="m62 8v-2c0-1.103-.897-2-2-2h-32.556c-.694-1.19-1.97-2-3.444-2-.177 0-.353.012-.528.036-.697-1.234-2.014-2.036-3.472-2.036-.85 0-1.667.275-2.346.773-1.587-1.007-3.722-1.007-5.309 0-.678-.498-1.495-.773-2.345-.773-1.458 0-2.775.802-3.472 2.036-.175-.024-.351-.036-.528-.036-2.206 0-4 1.794-4 4 0 .177.012.353.036.528-1.234.697-2.036 2.014-2.036 3.472 0 .705.19 1.393.545 2-.355.607-.545 1.295-.545 2 0 .714.195 1.405.55 2.012-.34.588-.55 1.261-.55 1.988 0 2.206 1.794 4 4 4v2c0 3.497 2.26 6.47 5.393 7.555-.858.898-1.393 2.108-1.393 3.445v5h-1c-1.654 0-3 1.346-3 3v1.184c-.314-.112-.648-.184-1-.184-1.654 0-3 1.346-3 3v5.171c0 1.949.707 3.789 2 5.227v4.602h60v-19c0-.62-.189-1.197-.513-1.676.315-.353.513-.814.513-1.324v-2c0-1.103-.897-2-2-2v-26c1.103 0 2-.897 2-2zm-2-2v2h-30.545c-.355-.608-.868-1.12-1.492-1.472.025-.175.037-.351.037-.528zm-44 10h-2c0-1.103-.897-2-2-2h-5.816c.414-1.161 1.514-2 2.816-2h12c1.302 0 2.402.839 2.816 2h-5.816c-1.103 0-2 .897-2 2zm-10 0h6v4h-6zm12 0h6v4h-6zm8 0c1.103 0 2 .897 2 2s-.897 2-2 2zm-23.479-4.669c-.237-.265-.521-.71-.521-1.331 0-.894.609-1.683 1.481-1.919l1.085-.294-.418-1.043c-.098-.245-.148-.495-.148-.744 0-1.351 1.415-2.386 2.744-1.852l1.043.418.294-1.085c.236-.872 1.025-1.481 1.919-1.481.58 0 1.134.263 1.521.722l.676.803.769-.715c1.124-1.045 2.943-1.045 4.067 0l.769.715.676-.803c.388-.459.942-.722 1.522-.722.894 0 1.683.609 1.919 1.481l.294 1.085 1.043-.418c1.332-.534 2.744.5 2.744 1.852 0 .249-.05.499-.148.744l-.418 1.043 1.085.294c.872.236 1.481 1.025 1.481 1.919 0 .621-.284 1.066-.521 1.331l-.603.669.602.669c.238.265.522.71.522 1.331 0 .176-.031.348-.076.515-.573-.318-1.223-.515-1.924-.515h-.101c-.465-2.279-2.484-4-4.899-4h-12c-2.414 0-4.434 1.721-4.899 4h-.101c-.701 0-1.351.197-1.924.515-.045-.167-.076-.339-.076-.515 0-.621.284-1.066.521-1.331l.603-.669zm-.521 6.669c0-1.103.897-2 2-2v4c-1.103 0-2-.897-2-2zm4 6v-2h6c1.103 0 2-.897 2-2v-2h2v2c0 1.103.897 2 2 2h6v2c0 3.309-2.691 6-6 6h-6c-3.309 0-6-2.691-6-6zm28 8c1.103 0 2 .897 2 2s-.897 2-2 2h-2v-4zm26 6v2h-34c0-.685-.07-1.354-.202-2zm-46.184 4h2.184 2 10.184c-.112.314-.184.648-.184 1v1.184c-.314-.112-.648-.184-1-.184-1.654 0-3 1.346-3 3v5.171c0 1.949.707 3.789 2 5.227v2.602h-12v-17c0-.352-.072-.686-.184-1zm3.22-9.925c3.923.511 6.964 3.866 6.964 7.925h-6v-5c0-1.095-.364-2.1-.964-2.925zm18.964 10.925v13h-8.559c-.928-1.062-1.441-2.404-1.441-3.829v-5.171c0-.551.449-1 1-1s1 .449 1 1v3h2v-7c0-.551.449-1 1-1h4c.551 0 1 .449 1 1zm-8 15h8v2h-8zm9.816-16h14.369c-.113.314-.185.648-.185 1v1.184c-.314-.112-.648-.184-1-.184-1.654 0-3 1.346-3 3v5.171c0 1.949.707 3.789 2 5.227v2.602h-12v-17c0-.352-.072-.686-.184-1zm13.625 14c-.928-1.062-1.441-2.404-1.441-3.829v-5.171c0-.551.449-1 1-1s1 .449 1 1v3h2v-7c0-.551.449-1 1-1h4c.551 0 1 .449 1 1v13zm-21.441-20h-4.841c-.699-1.595-1.806-2.968-3.185-4h8.026zm-20-1c0-1.654 1.346-3 3-3s3 1.346 3 3v5h-5-1zm-8 12c0-.551.449-1 1-1s1 .449 1 1v3h2v-7c0-.551.449-1 1-1h4c.551 0 1 .449 1 1v13h-8.559c-.928-1.062-1.441-2.404-1.441-3.829zm2 11h8v2h-8zm48 2v-2h8v2zm6-24h-20.556c.344-.591.556-1.268.556-2 0-1.782-1.179-3.278-2.793-3.793l9.04-9.04c.791.524 1.736.833 2.753.833 2.757 0 5-2.243 5-5s-2.243-5-5-5-5 2.243-5 5c0 1.017.309 1.962.833 2.753l-10.247 10.247h-9.312c1.667-1.467 2.726-3.61 2.726-6v-2c2.206 0 4-1.794 4-4 0-.727-.209-1.4-.55-1.987.355-.608.55-1.299.55-2.013 0-.705-.19-1.393-.545-2 .355-.607.545-1.295.545-2h28zm-14-19c0-1.654 1.346-3 3-3s3 1.346 3 3-1.346 3-3 3c-.462 0-.894-.113-1.285-.301l1.992-1.992-1.414-1.414-1.992 1.992c-.188-.391-.301-.823-.301-1.285z"/><path d="m44 24h12v2h-12z"/><path d="m44 28h12v2h-12z"/><path d="m44 32h12v2h-12z"/></g></g></svg>