<svg enable-background="new 0 0 256 256" viewBox="0 0 256 256" xmlns="http://www.w3.org/2000/svg"><g id="Layer_1"/><g id="Layer_2"/><g id="Layer_3"/><g id="Layer_4"/><g id="Layer_5"/><g id="Layer_6"/><g id="Layer_7"/><g id="Layer_8"/><g id="Layer_9"/><g id="Layer_10"/><g id="Layer_11"/><g id="Layer_12"/><g id="Layer_13"/><g id="Layer_14"/><g id="Layer_15"/><g id="Layer_16"/><g id="Layer_17"/><g id="Layer_18"/><g id="Layer_19"/><g id="Layer_20"/><g id="Layer_21"/><g id="Layer_22"/><g id="Layer_23"/><g id="Layer_24"/><g id="Layer_25"/><g id="Layer_26"/><g id="Layer_27"/><g id="Layer_28"/><g id="Layer_29"/><g id="Layer_30"/><g id="Layer_31"/><g id="Layer_32"/><g id="Layer_33"/><g id="Layer_34"/><g id="Layer_35"/><g id="Layer_36"/><g id="Layer_37"/><g id="Layer_38"/><g id="Layer_39"/><g id="Layer_40"/><g id="Layer_41"/><g id="Layer_42"/><g id="Layer_43"/><g id="Layer_44"/><g id="Layer_45"/><g id="Layer_46"/><g id="Layer_47"/><g id="Layer_48"/><g id="Layer_49"/><g id="Layer_50"/><g id="Layer_51"/><g id="Layer_52"/><g id="Layer_53"/><g id="Layer_54"/><g id="Layer_55"/><g id="Layer_56"/><g id="Layer_57"/><g id="Layer_58"/><g id="Layer_59"/><g id="Layer_60"/><g id="Layer_61"/><g id="Layer_62"/><g id="Layer_63"/><g id="Layer_64"/><g id="Layer_65"/><g id="Layer_66"><g><g><g><path d="m242.0073 2.5h-119.265c-4.0722 0-7.3734 3.3013-7.3734 7.3733v8.2905h111.6139c4.0722 0 7.3733 3.301 7.3733 7.3733v171.6421h7.6512c4.0722 0 7.3734-3.301 7.3734-7.3733v-179.9326c0-4.072-3.3012-7.3733-7.3734-7.3733z" fill="#edf4fc"/></g></g><g><g><path d="m226.9828 18.1638h-119.265c-4.0721 0-7.3734 3.301-7.3734 7.3733v8.2905h111.614c4.0721 0 7.3733 3.3013 7.3733 7.3735v171.6421h7.6512c4.0722 0 7.3733-3.3013 7.3733-7.3735v-179.9326c-.0001-4.0723-3.3011-7.3733-7.3734-7.3733z" fill="#edf4fc"/></g></g><g><g><path d="m211.9584 33.8276h-119.2652c-4.0721 0-7.3734 3.3013-7.3734 7.3735v50.1362c12.4315 9.0156 20.5239 23.6484 20.5239 40.1794s-8.0924 31.1638-20.5239 40.1794v49.4373c0 4.0723 3.3012 7.3733 7.3734 7.3733h119.2651c4.0721 0 7.3733-3.301 7.3733-7.3733v-179.9322c.0001-4.0723-3.3011-7.3736-7.3732-7.3736z" fill="#edf4fc"/></g></g><g><g><path d="m211.9584 33.8276h-119.2652c-4.0721 0-7.3734 3.3013-7.3734 7.3735v18.2989h134.0118v-18.2988c.0001-4.0723-3.3011-7.3736-7.3732-7.3736z" fill="#ffc299"/></g></g><g><g><path d="m242.0073 2.5h-119.265c-4.0794 0-7.3734 3.3079-7.3734 7.3733v8.2905h111.6139c4.0722 0 7.3733 3.301 7.3733 7.3733v2.6353h15.0245v-18.2991c.0001-4.0715-3.2976-7.3733-7.3733-7.3733z" fill="#fc8c48"/></g></g><g><g><path d="m226.9828 18.1638h-119.265c-4.053 0-7.3734 3.2859-7.3734 7.3733v8.2905h111.614c4.0721 0 7.3733 3.3013 7.3733 7.3735v2.635h15.0245v-18.299c-.0001-4.0574-3.2862-7.3733-7.3734-7.3733z" fill="#fca265"/></g></g><g><g><circle cx="56.232" cy="131.517" fill="#6cadef" r="49.612"/></g></g><g><g><path d="m61.278 199.0525h-10.0928c-4.3916 0-7.9517 3.5603-7.9517 7.9519v38.5439c0 4.3916 3.5601 7.9517 7.9517 7.9517h10.0928c4.3916 0 7.9517-3.5601 7.9517-7.9517v-38.5439c0-4.3916-3.5601-7.9519-7.9517-7.9519z" fill="#fc657e"/></g></g><g><g><path d="m56.2316 181.1292c-2.3102 0-4.5796-.1709-6.8059-.4763v18.6016c.5667-.1279 1.1541-.2019 1.7596-.2019h10.0927c.6055 0 1.1928.074 1.7596.2019v-18.6016c-2.2264.3054-4.4957.4763-6.806.4763z" fill="#5290db"/></g></g><g><g><ellipse cx="56.232" cy="131.517" fill="#fcdd86" rx="36.73" ry="36.73" transform="matrix(.707 -.707 .707 .707 -76.527 78.282)"/></g></g><g><g><path d="m71.8184 123.4436-5.8586-.8513c-1.4034-.2039-2.6166-1.0854-3.2443-2.3572l-2.6201-5.3088c-1.5805-3.2024-6.1472-3.2024-7.7277 0l-2.6201 5.3088c-.6277 1.2717-1.8409 2.1533-3.2443 2.3572l-5.8586.8513c-3.5342.5134-4.9454 4.8567-2.388 7.3494l4.2393 4.1326c1.0155.9897 1.4789 2.416 1.2392 3.8137l-1.0008 5.835c-.6037 3.52 3.0908 6.2041 6.2519 4.5422l5.2401-2.7549c1.2553-.6599 2.7549-.6599 4.0101 0l5.2402 2.7549c3.1611 1.6619 6.8556-1.0222 6.2518-4.5422l-1.0007-5.835c-.2397-1.3977.2236-2.824 1.2392-3.8137l4.2393-4.1326c2.5575-2.4927 1.1463-6.836-2.3879-7.3494z" fill="#f5c84c"/></g></g><g><g><path d="m128.0142 82.7104h-16.3427c-4.258 0-7.7418 3.4839-7.7418 7.7417v16.3428c0 4.2578 3.4838 7.7417 7.7418 7.7417h16.3427c4.258 0 7.7418-3.4839 7.7418-7.7417v-16.3428c0-4.2578-3.4838-7.7417-7.7418-7.7417z" fill="#87d147"/></g></g><g><g><path d="m128.0142 127.0869h-16.3427c-2.3481 0-4.457 1.0627-5.8798 2.7273.0192.5671.052 1.1309.052 1.7026 0 4.7224-.6807 9.2817-1.914 13.6077v6.0469c0 4.2578 3.4838 7.7417 7.7418 7.7417h16.3427c4.258 0 7.7418-3.4839 7.7418-7.7417v-16.3428c0-4.2578-3.4838-7.7417-7.7418-7.7417z" fill="#87d147"/></g></g><g><g><path d="m128.0142 171.4634h-16.3427c-4.258 0-7.7418 3.4839-7.7418 7.7417v16.3428c0 4.2578 3.4838 7.7417 7.7418 7.7417h16.3427c4.258 0 7.7418-3.4839 7.7418-7.7417v-16.3428c0-4.2578-3.4838-7.7417-7.7418-7.7417z" fill="#87d147"/></g></g><g><g><path d="m146.0131 249.5249c-3.1-.5999-5.6-3-6.2-6.0999 0-.1001-.3-.1001-.3 0-.6 3.0999-3.1 5.5-6.2 6.0999-.1 0-.1.2002 0 .3 3.1.6001 5.6 3 6.2 6.1001 0 .0999.3.0999.3 0 .6-3.1001 3.1-5.5 6.2-6.1001.1-.0998.1-.3 0-.3z" fill="#f5c84c"/></g></g><g><g><path d="m240.113 244.1001h-2.4v-2.3c0-1.8-1.4-3.2-3.2-3.2-1.7 0-3.2 1.3999-3.2 3.0999v2.4001h-2.3c-1.8 0-3.2 1.3999-3.2 3.2-.1 1.7 1.3 3.2 3.2 3.2h2.3v2.3c0 1.8 1.4 3.2 3.2 3.2 1.7 0 3.2-1.3999 3.2-3.1001v-2.4h2.3c1.8 0 3.2-1.3999 3.2-3.2.0001-1.6999-1.4-3.1999-3.1-3.1999z" fill="#70d6f9"/></g></g><g><g><circle cx="16.413" cy="212.9" fill="#87d147" r="3.4"/></g></g><g><g><circle cx="69.413" cy="3.4" fill="#fc657e" r="3.4"/></g></g><g><g><path d="m38.0131 50.2c-4.5-.8-8-4.3-8.9-8.7 0-.2-.4-.2-.4 0-.9 4.3999-4.4 7.8999-8.9 8.7-.2 0-.2.3 0 .4001 4.5.7998 8 4.2998 8.9 8.7 0 .2.4.2.4 0 .9-4.4001 4.4-7.9001 8.9-8.7.2-.1001.2-.4001 0-.4001z" fill="#f5c84c"/></g></g><g><g><g><path d="m242.0073 0h-119.2651c-5.4438 0-9.873 4.4287-9.873 9.873v8.291c0 1.3809 1.1191 2.5 2.5 2.5h111.6138c2.687 0 4.873 2.1855 4.873 4.873v171.6426c0 1.3809 1.1191 2.5 2.5 2.5h7.6514c5.4443 0 9.8735-4.4297 9.8735-9.874v-179.9326c0-5.4443-4.4292-9.873-9.8736-9.873zm4.8736 189.8057c0 2.6875-2.186 4.874-4.8735 4.874h-5.1514v-169.1426c0-5.4443-4.4292-9.873-9.873-9.873h-109.1139v-5.7911c0-2.6875 2.186-4.873 4.873-4.873h119.2651c2.6875 0 4.8735 2.1855 4.8735 4.873v179.9327z"/></g></g></g><g><g><g><path d="m226.9829 15.6641h-119.2651c-5.4443 0-9.8735 4.4287-9.8735 9.873v8.291c0 1.3809 1.1191 2.5 2.5 2.5h111.6143c2.687 0 4.873 2.1855 4.873 4.873v171.6416c0 1.3809 1.1191 2.5 2.5 2.5h7.6514c5.4438 0 9.873-4.4287 9.873-9.873v-179.9326c0-5.4443-4.4292-9.873-9.8731-9.873zm4.8731 189.8056c0 2.6865-2.186 4.873-4.873 4.873h-5.1514v-169.1415c0-5.4443-4.4292-9.873-9.873-9.873h-109.1144v-5.791c0-2.6875 2.186-4.873 4.8735-4.873h119.2651c2.687 0 4.873 2.1855 4.873 4.873v179.9325z"/></g></g></g><g><g><g><path d="m211.9585 31.3281h-119.2651c-5.4443 0-9.8735 4.4287-9.8735 9.873v50.1367c0 .8008.3838 1.5537 1.0322 2.0234 12.2051 8.8516 19.4917 23.1152 19.4917 38.1553 0 15.041-7.2866 29.3047-19.4917 38.1562-.6484.4697-1.0322 1.2227-1.0322 2.0234v49.4375c0 5.4443 4.4292 9.873 9.8735 9.873h119.2651c5.4438 0 9.873-4.4287 9.873-9.873v-179.9324c0-5.4444-4.4292-9.8731-9.873-9.8731zm4.873 189.8057c0 2.6865-2.186 4.873-4.873 4.873h-119.2651c-2.6875 0-4.8735-2.1865-4.8735-4.873v-48.1816c12.8755-9.834 20.5239-25.2266 20.5239-41.4355s-7.6485-31.6007-20.524-41.4347v-48.8808c0-2.6875 2.186-4.873 4.8735-4.873h119.2651c2.687 0 4.873 2.1855 4.873 4.873v179.9326z"/></g></g></g><g><g><path d="m198.2266 83.3721h-45.9604c-1.3809 0-2.5 1.1191-2.5 2.5s1.1191 2.5 2.5 2.5h45.9604c1.3809 0 2.5-1.1191 2.5-2.5s-1.1192-2.5-2.5-2.5z"/></g></g><g><g><path d="m198.2266 95.7285h-45.9604c-1.3809 0-2.5 1.1191-2.5 2.5s1.1191 2.5 2.5 2.5h45.9604c1.3809 0 2.5-1.1191 2.5-2.5s-1.1192-2.5-2.5-2.5z"/></g></g><g><g><path d="m178.627 108.084h-26.3608c-1.3809 0-2.5 1.1191-2.5 2.5s1.1191 2.5 2.5 2.5h26.3608c1.3809 0 2.5-1.1191 2.5-2.5s-1.1192-2.5-2.5-2.5z"/></g></g><g><g><path d="m126.3804 94.6123c-.9766-.9766-2.5601-.9766-3.5356 0l-4.0669 4.0664-1.937-1.9365c-.9766-.9766-2.5591-.9766-3.5356 0-.9761.9766-.9761 2.5596.0005 3.5352l3.7046 3.7041c.4883.4883 1.1279.7324 1.7676.7324s1.2798-.2441 1.7676-.7324l5.8345-5.834c.9763-.9756.9763-2.5586.0003-3.5352z"/></g></g><g><g><path d="m198.2266 127.749h-45.9604c-1.3809 0-2.5 1.1191-2.5 2.5s1.1191 2.5 2.5 2.5h45.9604c1.3809 0 2.5-1.1191 2.5-2.5s-1.1192-2.5-2.5-2.5z"/></g></g><g><g><path d="m198.2266 140.1045h-45.9604c-1.3809 0-2.5 1.1191-2.5 2.5s1.1191 2.5 2.5 2.5h45.9604c1.3809 0 2.5-1.1191 2.5-2.5s-1.1192-2.5-2.5-2.5z"/></g></g><g><g><path d="m178.627 152.46h-26.3608c-1.3809 0-2.5 1.1191-2.5 2.5s1.1191 2.5 2.5 2.5h26.3608c1.3809 0 2.5-1.1191 2.5-2.5s-1.1192-2.5-2.5-2.5z"/></g></g><g><g><path d="m126.3799 138.9883c-.9766-.9766-2.5591-.9766-3.5356 0l-4.0664 4.0674-1.937-1.9365c-.9766-.9766-2.5591-.9766-3.5356 0-.9761.9766-.9761 2.5596.0005 3.5352l3.7046 3.7041c.4883.4883 1.1279.7324 1.7676.7324s1.2798-.2441 1.7681-.7324l5.8345-5.835c.9758-.9766.9758-2.5596-.0007-3.5352z"/></g></g><g><g><path d="m198.2266 172.125h-45.9604c-1.3809 0-2.5 1.1191-2.5 2.5s1.1191 2.5 2.5 2.5h45.9604c1.3809 0 2.5-1.1191 2.5-2.5s-1.1192-2.5-2.5-2.5z"/></g></g><g><g><path d="m198.2266 184.4814h-45.9604c-1.3809 0-2.5 1.1191-2.5 2.5s1.1191 2.5 2.5 2.5h45.9604c1.3809 0 2.5-1.1191 2.5-2.5s-1.1192-2.5-2.5-2.5z"/></g></g><g><g><path d="m178.627 196.8369h-26.3608c-1.3809 0-2.5 1.1191-2.5 2.5s1.1191 2.5 2.5 2.5h26.3608c1.3809 0 2.5-1.1191 2.5-2.5s-1.1192-2.5-2.5-2.5z"/></g></g><g><g><path d="m126.3804 183.3652c-.9766-.9766-2.5601-.9766-3.5356 0l-4.0669 4.0664-1.937-1.9365c-.9766-.9766-2.5591-.9766-3.5356 0-.9761.9766-.9761 2.5596.0005 3.5352l3.7046 3.7041c.4883.4883 1.1279.7324 1.7676.7324s1.2798-.2441 1.7676-.7324l5.8345-5.834c.9763-.9756.9763-2.5586.0003-3.5352z"/></g></g><g><g><g><path d="m211.9585 31.3281h-119.2651c-5.4443 0-9.8735 4.4287-9.8735 9.873v18.2989c0 1.3809 1.1191 2.5 2.5 2.5h134.0117c1.3809 0 2.5-1.1191 2.5-2.5v-18.2988c-.0001-5.4444-4.4293-9.8731-9.8731-9.8731zm4.873 25.6719h-129.0117v-15.7988c0-2.6875 2.186-4.873 4.8735-4.873h119.2651c2.687 0 4.873 2.1855 4.873 4.873v15.7988z"/></g></g></g><g><g><g><path d="m242.0073 0h-119.2651c-5.4438 0-9.873 4.4287-9.873 9.873v8.291c0 1.3809 1.1191 2.5 2.5 2.5h111.6138c2.687 0 4.873 2.1855 4.873 4.873v2.6348c0 1.3809 1.1191 2.5 2.5 2.5h15.0249c1.3809 0 2.5-1.1191 2.5-2.5v-18.2988c0-5.4443-4.4292-9.873-9.8736-9.873zm4.8736 25.6719h-10.0249v-.1348c0-5.4443-4.4292-9.873-9.873-9.873h-109.1139v-5.7911c0-2.6875 2.186-4.873 4.873-4.873h119.2651c2.6875 0 4.8735 2.1855 4.8735 4.873v15.7989z"/></g></g></g><g><g><g><path d="m226.9829 15.6641h-119.2651c-5.4443 0-9.8735 4.4287-9.8735 9.873v8.291c0 1.3809 1.1191 2.5 2.5 2.5h111.6143c2.687 0 4.873 2.1855 4.873 4.873v2.6348c0 1.3809 1.1191 2.5 2.5 2.5h15.0244c1.3809 0 2.5-1.1191 2.5-2.5v-18.2988c0-5.4443-4.4292-9.873-9.8731-9.873zm4.8731 25.6718h-10.0244v-.1348c0-5.4443-4.4292-9.873-9.873-9.873h-109.1144v-5.791c0-2.6875 2.186-4.873 4.8735-4.873h119.2651c2.687 0 4.873 2.1855 4.873 4.873v15.7988z"/></g></g></g><g><g><g><path d="m56.2314 79.4043c-28.7349 0-52.1123 23.3779-52.1123 52.1123s23.3774 52.1123 52.1123 52.1123 52.1123-23.3779 52.1123-52.1123-23.3774-52.1123-52.1123-52.1123zm0 99.2246c-25.978 0-47.1123-21.1348-47.1123-47.1123s21.1343-47.1123 47.1123-47.1123 47.1123 21.1348 47.1123 47.1123-21.1342 47.1123-47.1123 47.1123z"/></g></g></g><g><g><g><path d="m61.2778 196.5527h-10.0927c-5.7632 0-10.4517 4.6885-10.4517 10.4512v38.5439c0 5.7637 4.6885 10.4521 10.4517 10.4521h10.0928c5.7632 0 10.4517-4.6885 10.4517-10.4521v-38.5439c-.0001-5.7627-4.6886-10.4512-10.4518-10.4512zm5.4517 48.9952c0 3.0059-2.4458 5.4521-5.4517 5.4521h-10.0927c-3.0059 0-5.4517-2.4463-5.4517-5.4521v-38.5439c0-3.0059 2.4458-5.4512 5.4517-5.4512h10.0928c3.0059 0 5.4517 2.4453 5.4517 5.4512v38.5439z"/></g></g></g><g><g><g><path d="m64.6807 178.7686c-.5444-.4756-1.2666-.6943-1.9829-.5928-4.3828.6016-8.5503.6016-12.9321 0-.7173-.0996-1.439.1182-1.9829.5928-.5444.4746-.8569 1.1611-.8569 1.8838v18.6025c0 .7607.3462 1.4795.9404 1.9541.4473.3564.9985.5459 1.5596.5459.1851 0 .3711-.0205.5547-.0625.4077-.0928.813-.1396 1.2046-.1396h10.0928c.3916 0 .7974.0469 1.2056.1396.7393.1689 1.519-.0098 2.1138-.4834.5942-.4746.9404-1.1934.9404-1.9541v-18.6025c-.0002-.7227-.3127-1.4092-.8571-1.8838zm-4.1431 17.7841h-8.6118v-13.1084c2.9082.2461 5.7036.2461 8.6118 0z"/></g></g></g><g><g><g><path d="m83.9707 103.7773c-15.2949-15.2969-40.1836-15.2969-55.4785 0-15.2959 15.2949-15.2959 40.1836 0 55.4785 7.6475 7.6484 17.6934 11.4717 27.7393 11.4717s20.0918-3.8232 27.7393-11.4717c15.2958-15.2949 15.2958-40.1835-.0001-55.4785zm-3.5352 51.9434c-13.3467 13.3457-35.0615 13.3457-48.4082 0-13.3457-13.3467-13.3457-35.0615 0-48.4082 6.6733-6.6729 15.4385-10.0098 24.2041-10.0098s17.5308 3.3369 24.2041 10.0098c13.3457 13.3467 13.3457 35.0615 0 48.4082z"/></g></g></g><g><g><g><g><path d="m75.9517 132.583c1.8691-1.8213 2.5293-4.4961 1.7227-6.9785-.8066-2.4834-2.9126-4.2598-5.4966-4.6348l-5.8579-.8506c-.5894-.0859-1.0991-.4561-1.3628-.9902l-2.6196-5.3086c-1.1553-2.3408-3.4946-3.7959-6.1055-3.7959 0 0 0 0-.0005 0-2.6108 0-4.9502 1.4541-6.1055 3.7959l-2.6201 5.3086c-.2637.5342-.7729.9043-1.3618.9902l-5.8589.8506c-2.584.375-4.6899 2.1514-5.4966 4.6348-.8066 2.4824-.146 5.1572 1.7231 6.9785l4.2402 4.1338c.4258.415.6201 1.0127.5195 1.5996l-1.001 5.835c-.4414 2.5732.5967 5.125 2.709 6.6602 2.1123 1.5332 4.8594 1.7324 7.1699.5176l5.2393-2.7539c.5278-.2773 1.1577-.2783 1.6846-.001l5.2397 2.7549c1.0054.5283 2.0928.7891 3.1753.7891 1.4058 0 2.8022-.4404 3.9956-1.3076 2.1123-1.5342 3.1504-4.0859 2.7085-6.6592l-1.0005-5.835c-.1006-.5869.0938-1.1846.5205-1.6006zm-7.7286.5518c-1.606 1.5645-2.3384 3.8174-1.959 6.0273l1.0005 5.835c.1714 1-.4463 1.5703-.7197 1.7686-.2725.1992-1.0049.6133-1.9048.1377l-5.2412-2.7559c-.9912-.5205-2.0791-.7803-3.167-.7803s-2.1763.2598-3.1685.7812l-5.2407 2.7549c-.897.4736-1.6309.0625-1.9048-.1377-.2734-.1982-.8911-.7686-.7197-1.7686l1.001-5.835c.3794-2.21-.353-4.4629-1.958-6.0264l-4.2397-4.1328c-.7266-.708-.562-1.5322-.4575-1.8545.1045-.3213.4561-1.085 1.46-1.2314l5.8594-.8506c2.2178-.3223 4.1343-1.7148 5.126-3.7246l2.6201-5.3086c.4492-.9102 1.2842-1.0088 1.6226-1.0088.3379 0 1.1724.0986 1.6211 1.0088h.0005l2.6201 5.3096c.9927 2.0088 2.9092 3.4014 5.127 3.7236l5.8584.8506c1.0039.1465 1.3555.9102 1.46 1.2314.1045.3223.269 1.1465-.4575 1.8545z"/></g></g></g></g><g><g><g><path d="m128.0142 80.21h-16.3428c-5.6475 0-10.2417 4.5947-10.2417 10.2422v16.3428c0 5.6475 4.5942 10.2422 10.2417 10.2422h16.3428c5.6475 0 10.2417-4.5947 10.2417-10.2422v-16.3429c0-5.6474-4.5943-10.2421-10.2417-10.2421zm5.2417 26.5849c0 2.8906-2.3516 5.2422-5.2417 5.2422h-16.3428c-2.8901 0-5.2417-2.3516-5.2417-5.2422v-16.3428c0-2.8906 2.3516-5.2422 5.2417-5.2422h16.3428c2.8901 0 5.2417 2.3516 5.2417 5.2422z"/></g></g></g><g><g><g><path d="m128.0142 124.5869h-16.3428c-2.9873 0-5.8232 1.3135-7.7798 3.6035-.4058.4746-.6191 1.084-.5981 1.708l.02.5176c.0146.3652.0303.7314.0303 1.1006 0 4.3428-.6118 8.6914-1.8184 12.9229-.0635.2227-.0957.4541-.0957.6855v6.0469c0 5.6475 4.5942 10.2412 10.2417 10.2412h16.3428c5.6475 0 10.2417-4.5938 10.2417-10.2412v-16.3438c0-5.6474-4.5943-10.2412-10.2417-10.2412zm5.2417 26.585c0 2.8896-2.3516 5.2412-5.2417 5.2412h-16.3428c-2.8901 0-5.2417-2.3516-5.2417-5.2412v-5.7021c1.27-4.5703 1.9141-9.2627 1.9141-13.9531 0-.2373-.0049-.4736-.0122-.71.937-.7832 2.1147-1.2197 3.3398-1.2197h16.3428c2.8901 0 5.2417 2.3516 5.2417 5.2412z"/></g></g></g><g><g><g><path d="m128.0142 168.9629h-16.3428c-5.6475 0-10.2417 4.5947-10.2417 10.2422v16.3428c0 5.6475 4.5942 10.2422 10.2417 10.2422h16.3428c5.6475 0 10.2417-4.5947 10.2417-10.2422v-16.3428c0-5.6475-4.5943-10.2422-10.2417-10.2422zm5.2417 26.585c0 2.8906-2.3516 5.2422-5.2417 5.2422h-16.3428c-2.8901 0-5.2417-2.3516-5.2417-5.2422v-16.3428c0-2.8906 2.3516-5.2422 5.2417-5.2422h16.3428c2.8901 0 5.2417 2.3516 5.2417 5.2422z"/></g></g></g></g></g><g id="Layer_67"/><g id="Layer_68"/><g id="Layer_69"/><g id="Layer_70"/></svg>