<svg height="15" viewBox="42 42 810 166">
        <path
          fill="rgb(255,196,0)"
          d="M218.414 157.879c-5.953.281-11.059-4.27-11.445-10.242a32.642 32.642 0 00-10.653-22.14c-4.472-4.079-4.796-11.009-.722-15.485 4.074-4.477 11.008-4.801 15.48-.723 10.543 9.598 16.852 22.715 17.77 36.934.39 6.043-4.192 11.254-10.23 11.644l-.2.012"
        ></path>
        <path
          fill="rgb(100,200,82)"
          d="M204.207 128.34c-2.8.129-5.652-.809-7.89-2.844-6.481-5.902-14.872-8.926-23.626-8.516-8.754.407-16.828 4.204-22.73 10.684-4.074 4.473-11.008 4.8-15.48.723-4.477-4.075-4.801-11.008-.727-15.48 9.844-10.813 23.309-17.141 37.914-17.825 14.602-.684 28.598 4.363 39.406 14.207 4.477 4.074 4.801 11.008.727 15.48a10.935 10.935 0 01-7.594 3.57"
        ></path>
        <path
          fill="rgb(116,125,183)"
          d="M145.262 193.07a10.93 10.93 0 01-7.89-2.843c-22.313-20.32-23.938-55.008-3.618-77.32 4.078-4.477 11.008-4.802 15.484-.727 4.477 4.074 4.801 11.007.723 15.484-12.18 13.379-11.207 34.172 2.168 46.356 4.476 4.074 4.8 11.007.726 15.48a10.935 10.935 0 01-7.593 3.57"
        ></path>
        <path
          fill="rgb(255,105,90)"
          d="M176.781 204.406c-14.004.656-28.254-4.02-39.41-14.18-4.476-4.074-4.8-11.007-.723-15.484 4.075-4.472 11.008-4.8 15.48-.722 13.38 12.18 34.177 11.207 46.356-2.168 4.078-4.477 11.008-4.801 15.485-.727 4.476 4.078 4.8 11.008.722 15.484-10.16 11.157-23.91 17.141-37.91 17.797"
        ></path>
        <path
          fill="rgb(255,196,0)"
          d="M207.102 190.18c-2.801.129-5.653-.809-7.891-2.844-4.477-4.078-4.8-11.012-.727-15.484 6.051-6.645 9.063-15.247 8.485-24.215-.39-6.04 4.191-11.254 10.23-11.645a10.954 10.954 0 0111.645 10.235c.965 14.957-4.059 29.3-14.153 40.382a10.926 10.926 0 01-7.59 3.57"
        ></path>
        <path
          fill="rgb(0,0,0)"
          d="M71.922 204.379c-2.219 0-3.965-.633-5.23-1.902-1.27-1.266-1.899-3.008-1.899-5.227v-77.262c0-1.582-.797-2.375-2.379-2.375H50.527c-2.222 0-3.965-.633-5.23-1.902-1.27-1.27-1.902-3.012-1.902-5.23v-5.942c0-2.219.632-3.96 1.902-5.23 1.266-1.266 3.008-1.903 5.23-1.903h11.887c1.582 0 2.379-.793 2.379-2.379V83.145c0-5.707.867-11.055 2.613-16.051 1.742-4.989 4.278-9.27 7.606-12.832 3.328-3.567 7.37-6.38 12.125-8.442 4.754-2.058 10.062-3.09 15.925-3.09h4.516c2.219 0 3.961.637 5.23 1.903 1.27 1.27 1.903 3.012 1.903 5.23v5.942c0 2.222-.633 3.965-1.902 5.23-1.27 1.27-3.012 1.903-5.23 1.903h-3.563c-6.024 0-10.504 1.82-13.434 5.468-2.934 3.645-4.398 8.555-4.398 14.739v11.882c0 1.586.793 2.38 2.379 2.38h19.015c2.219 0 3.961.636 5.23 1.902 1.27 1.27 1.903 3.011 1.903 5.23v5.941c0 2.22-.633 3.961-1.902 5.23-1.27 1.27-3.012 1.903-5.23 1.903H88.562c-1.586 0-2.38.793-2.38 2.375v77.262c0 2.219-.632 3.96-1.898 5.227-1.273 1.27-3.015 1.902-5.23 1.902zm0 0M252.883 204.379c-2.223 0-3.965-.633-5.23-1.902-1.27-1.266-1.903-3.008-1.903-5.227v-60.621c0-11.566 3.328-20.996 9.984-28.29 6.657-7.284 15.926-10.933 27.813-10.933h8.558c2.22 0 3.961.637 5.23 1.903 1.267 1.27 1.903 3.011 1.903 5.23v5.941c0 2.22-.636 3.961-1.902 5.23-1.27 1.27-3.012 1.903-5.23 1.903h-7.133c-6.024 0-10.5 1.864-13.43 5.586-2.934 3.723-4.398 8.598-4.398 14.617v59.434c0 2.219-.637 3.96-1.903 5.227-1.27 1.27-3.012 1.902-5.23 1.902zm0 0M432.36 204.379c-2.223 0-3.965-.633-5.231-1.902-1.27-1.266-1.902-3.008-1.902-5.227v-61.809c0-2.535-.399-4.992-1.188-7.37a19.792 19.792 0 00-3.566-6.419c-1.586-1.898-3.606-3.445-6.063-4.632-2.457-1.192-5.43-1.786-8.914-1.786-3.488 0-6.46.594-8.914 1.786-2.46 1.187-4.48 2.734-6.062 4.632a17.971 17.971 0 00-3.446 6.418 25.473 25.473 0 00-1.07 7.371v61.809c0 2.219-.637 3.96-1.902 5.227-1.27 1.27-3.012 1.902-5.23 1.902h-7.134c-2.218 0-3.96-.633-5.226-1.902-1.274-1.266-1.903-3.008-1.903-5.227v-61.809c0-2.535-.398-4.992-1.187-7.37a19.792 19.792 0 00-3.567-6.419c-1.585-1.898-3.609-3.445-6.062-4.632-2.461-1.192-5.348-1.786-8.676-1.786-3.328 0-6.262.594-8.797 1.786-2.539 1.187-4.597 2.734-6.18 4.632a19.577 19.577 0 00-3.566 6.418 23.047 23.047 0 00-1.187 7.371v61.809c0 2.219-.637 3.96-1.903 5.227-1.27 1.27-3.011 1.902-5.23 1.902h-7.133c-2.219 0-3.965-.633-5.23-1.902-1.27-1.266-1.899-3.008-1.899-5.227v-61.809c0-5.707.985-11.054 2.969-16.046 1.98-4.993 4.754-9.274 8.32-12.836 3.567-3.567 7.883-6.38 12.957-8.438 5.07-2.058 10.696-3.094 16.88-3.094 6.019 0 11.366 1.114 16.042 3.328 4.676 2.223 8.598 4.68 11.77 7.372 1.582 1.425 3.09 1.425 4.515 0 3.008-3.008 6.856-5.547 11.532-7.606 4.671-2.058 10.18-3.094 16.52-3.094 6.179 0 11.804 1.035 16.878 3.094 5.07 2.059 9.39 4.871 12.953 8.438 3.567 3.562 6.34 7.843 8.324 12.836 1.977 4.992 2.97 10.34 2.97 16.046v61.809c0 2.219-.634 3.96-1.903 5.227-1.27 1.27-3.012 1.902-5.23 1.902zm0 0M529.82 119.988c0-1.582-.793-2.375-2.375-2.375h-17.832c-7.925 0-14.066 2.457-18.422 7.367-4.363 4.915-6.539 10.782-6.539 17.594v23.535c0 6.024 1.786 10.934 5.352 14.735 3.562 3.804 8.516 5.707 14.855 5.707 4.282 0 7.965-.75 11.055-2.258 3.09-1.504 5.664-3.527 7.727-6.063a26.737 26.737 0 004.636-8.44 30.284 30.284 0 001.543-9.626zm7.133 84.39c-2.223 0-3.965-.71-5.23-2.136-1.274-1.43-1.903-3.012-1.903-4.758 0-.949-.355-1.543-1.07-1.78-.715-.24-1.387.038-2.02.831-2.222 3.012-5.507 5.469-9.867 7.371-4.36 1.899-9.625 2.852-15.804 2.852-5.551 0-10.622-1.035-15.215-3.09-4.602-2.059-8.559-4.992-11.887-8.797-3.328-3.805-5.945-8.355-7.844-13.668-1.902-5.308-2.855-11.133-2.855-17.473v-21.156c0-6.183 1.11-12.043 3.332-17.594 2.215-5.546 5.348-10.34 9.387-14.378 4.043-4.043 8.832-7.254 14.382-9.63 5.547-2.378 11.649-3.566 18.305-3.566h35.418c2.219 0 3.961.637 5.23 1.903 1.266 1.27 1.903 3.011 1.903 5.23v92.711c0 2.219-.637 3.96-1.903 5.227-1.269 1.27-3.011 1.902-5.23 1.902zm0 0M610.879 204.379c-11.883 0-20.645-3.246-26.266-9.746-5.629-6.496-8.441-15.531-8.441-27.102v-47.543c0-1.582-.793-2.375-2.375-2.375h-7.133c-2.219 0-3.96-.633-5.23-1.902-1.27-1.27-1.899-3.012-1.899-5.23v-5.942c0-2.219.63-3.96 1.899-5.23 1.27-1.266 3.011-1.903 5.23-1.903h7.133c1.582 0 2.375-.793 2.375-2.379v-16.64c0-2.215.633-3.957 1.902-5.23 1.266-1.262 3.008-1.9 5.23-1.9h7.134c2.218 0 3.96.638 5.23 1.9 1.266 1.273 1.898 3.015 1.898 5.23v16.64c0 1.586.793 2.38 2.38 2.38h17.827c2.22 0 3.961.636 5.23 1.902 1.27 1.27 1.903 3.011 1.903 5.23v5.941c0 2.22-.633 3.961-1.902 5.23-1.27 1.27-3.012 1.903-5.23 1.903h-17.829c-1.586 0-2.379.793-2.379 2.375v46.356c0 5.55 1.07 9.906 3.211 13.074 2.141 3.172 6.22 4.754 12.243 4.754h4.753c2.22 0 3.961.637 5.23 1.902 1.27 1.27 1.903 3.012 1.903 5.23v5.946c0 2.219-.633 3.96-1.902 5.227-1.27 1.27-3.012 1.902-5.23 1.902zm0 0M643.918 204.379c-2.219 0-3.961-.633-5.227-1.902-1.273-1.266-1.902-3.008-1.902-5.227v-92.71c0-2.22.629-3.962 1.902-5.231 1.266-1.266 3.008-1.903 5.227-1.903h7.133c2.219 0 3.96.637 5.23 1.903 1.266 1.27 1.903 3.011 1.903 5.23v92.711c0 2.219-.637 3.96-1.903 5.227-1.27 1.27-3.011 1.902-5.23 1.902zm0-123.613c-2.219 0-3.961-.633-5.227-1.903-1.273-1.265-1.902-3.008-1.902-5.23V61.75c0-2.219.629-3.96 1.902-5.23 1.266-1.27 3.008-1.903 5.227-1.903h7.133c2.219 0 3.96.633 5.23 1.903 1.266 1.27 1.903 3.011 1.903 5.23v11.883c0 2.222-.637 3.965-1.903 5.23-1.27 1.27-3.011 1.903-5.23 1.903zm0 0M709.293 204.379c-2.223 0-4.008-.39-5.352-1.188-1.347-.789-2.418-2.53-3.207-5.23l-32.566-93.899c-.797-2.058-.715-3.683.234-4.874.953-1.188 2.535-1.782 4.754-1.782h8.797c4.277 0 6.973 1.903 8.082 5.707l22.582 70.602c.477 1.746 1.27 2.613 2.38 2.613 1.105 0 1.901-.867 2.378-2.613l22.582-70.602c1.106-3.804 3.805-5.707 8.082-5.707h8.797c2.215 0 3.8.594 4.754 1.781.95 1.192 1.027 2.817.238 4.876l-32.57 93.898c-.793 2.7-1.863 4.441-3.207 5.23-1.348.797-3.133 1.188-5.352 1.188zm0 0M830.05 137.105c0-6.023-1.663-11.171-4.991-15.453-3.329-4.277-8.797-6.418-16.403-6.418-7.453 0-12.683 2.141-15.691 6.418-3.012 4.282-4.516 9.43-4.516 15.453v1.188c0 1.586.793 2.379 2.38 2.379h36.843c1.582 0 2.379-.793 2.379-2.379zm16.641 43.977c1.426 1.426 2.098 3.012 2.02 4.754-.082 1.746-.754 3.41-2.02 4.992-3.175 3.965-7.847 7.61-14.027 10.938-6.18 3.324-13.547 4.988-22.105 4.988-6.66 0-12.641-1.066-17.95-3.207-5.312-2.137-9.867-5.11-13.668-8.914-3.804-3.805-6.738-8.238-8.796-13.313-2.063-5.07-3.09-10.46-3.09-16.164v-28.05c0-5.708.91-11.133 2.734-16.286 1.816-5.148 4.516-9.625 8.082-13.43 3.567-3.804 7.922-6.812 13.074-9.035 5.149-2.214 11.055-3.328 17.711-3.328 6.657 0 12.598 1.114 17.828 3.328 5.23 2.223 9.707 5.23 13.43 9.036 3.723 3.804 6.574 8.28 8.559 13.43 1.98 5.152 2.972 10.577 2.972 16.284v14.262c0 2.223-.636 3.965-1.902 5.23-1.27 1.27-3.012 1.903-5.23 1.903h-53.485c-1.586 0-2.379.797-2.379 2.379v4.277c0 6.024 1.781 11.094 5.348 15.215 3.566 4.121 9.152 6.18 16.762 6.18 6.02 0 10.695-1.07 14.023-3.211 3.328-2.137 5.86-4.16 7.606-6.059 1.742-1.742 3.484-2.574 5.23-2.5 1.742.082 3.328.836 4.758 2.262zm0 0"
        ></path>
      </svg>