<svg xmlns="http://www.w3.org/2000/svg" version="1.1" xmlns:xlink="http://www.w3.org/1999/xlink" xmlns:svgjs="http://svgjs.dev/svgjs" width="1500" height="1500" viewBox="0 0 1500 1500"><rect width="1500" height="1500" fill="#111224"></rect><g transform="matrix(0.6666666666666666,0,0,0.6666666666666666,249.39393939393938,687.8059832295245)"><svg viewBox="0 0 396 49" data-background-color="#111224" preserveAspectRatio="xMidYMid meet" height="185" width="1500" xmlns="http://www.w3.org/2000/svg" xmlns:xlink="http://www.w3.org/1999/xlink"><g id="tight-bounds" transform="matrix(1,0,0,1,0.2400000000000091,0.2095147709727314)"><svg viewBox="0 0 395.52 48.58097045805456" height="48.58097045805456" width="395.52"><g><svg viewBox="0 0 466.32 57.27720000000001" height="48.58097045805456" width="395.52"><g><svg viewBox="0 0 466.32 57.27720000000001" height="57.27720000000001" width="466.32"><g id="textblocktransform"><svg viewBox="0 0 466.32 57.27720000000001" height="57.27720000000001" width="466.32" id="textblock"><g><svg viewBox="0 0 466.32 57.27720000000001" height="57.27720000000001" width="466.32"><g><svg><g></g><g></g></svg></g><g><svg><g></g><g><svg></svg></g></svg></g><g id="text-0"><svg viewBox="0 0 466.32 57.27720000000001" height="57.27720000000001" width="466.32"><g><svg xmlns="http://www.w3.org/2000/svg" xmlns:xlink="http://www.w3.org/1999/xlink" version="1.1" x="0" y="0" viewBox="5 5 90 90" enable-background="new 0 0 100 100" xml:space="preserve" height="57.27720000000001" width="57.27720000000001" class="icon-dxe-0" data-fill-palette-color="accent" id="dxe-0"><polygon points="23.921,38.239 29.034,38.239 29.034,28.523 38.75,28.523 38.75,23.409 29.034,23.409 29.034,13.693 23.921,13.693   23.921,23.409 14.205,23.409 14.205,28.523 23.921,28.523 " fill="#ffffff" data-fill-palette-color="accent"></polygon><polygon points="33.348,62 26.478,68.87 19.606,62 15.991,65.615 22.861,72.486 15.991,79.356 19.606,82.972 26.478,76.102   33.347,82.972 36.962,79.356 30.093,72.486 36.963,65.615 " fill="#ffffff" data-fill-palette-color="accent"></polygon><rect x="61" y="23.409" width="24.546" height="5.114" fill="#ffffff" data-fill-palette-color="accent"></rect><path d="M51.534 48.466V5H48.466V48.466H5V51.534H48.466V95H95V48.466zM85.546 79.645H61V74.531H85.546zM85.546 70.44H61V65.326H85.546z" fill="#ffffff" data-fill-palette-color="accent"></path></svg></g><g transform="matrix(1,0,0,1,70.80000000000001,7.737856605463502)"><svg width="395.52" viewBox="6.25 -34.8 336.93 35.4" height="41.801486789073" data-palette-color="#ffffff"><g class="wordmark-text-0" data-fill-palette-color="primary"><path d="M42.75-34.8L42.75 0 38.35 0 38.35-31 27 0 22.2 0 10.65-30.8 10.65 0 6.25 0 6.25-34.8 13.95-34.8 24.7-6.15 35.2-34.8 42.75-34.8ZM79.3 0L75.75-9.2 59-9.2 55.45 0 51.05 0 64.45-34.8 70.55-34.8 83.95 0 79.3 0ZM60.45-12.95L74.3-12.95 67.4-30.95 60.45-12.95ZM99.8 0L99.8-30.4 89.3-30.4 89.3-34.8 114.7-34.8 114.7-30.4 104.2-30.4 104.2 0 99.8 0ZM147.34-34.8L151.74-34.8 151.74 0 147.34 0 147.34-16.1 128.64-16.1 128.64 0 124.24 0 124.24-34.8 128.64-34.8 128.64-20.2 147.34-20.2 147.34-34.8ZM164.24 0L164.24-34.8 168.64-34.8 168.64-4.2 184.34-4.2 184.34 0 164.24 0ZM213.99-30.6L197.64-30.6 197.64-19.6 212.89-19.6 212.89-15.6 197.64-15.6 197.64-4.2 213.99-4.2 213.99 0 193.24 0 193.24-34.8 213.99-34.8 213.99-30.6ZM232.79 0L232.79-30.4 222.29-30.4 222.29-34.8 247.69-34.8 247.69-30.4 237.19-30.4 237.19 0 232.79 0ZM277.98-30.6L261.63-30.6 261.63-19.6 276.88-19.6 276.88-15.6 261.63-15.6 261.63-4.2 277.98-4.2 277.98 0 257.23 0 257.23-34.8 277.98-34.8 277.98-30.6ZM289.48 0.6Q288.03 0.6 287.06-0.35 286.08-1.3 286.08-2.85L286.08-2.85Q286.08-4.4 287.06-5.35 288.03-6.3 289.48-6.3L289.48-6.3Q290.93-6.3 291.91-5.35 292.88-4.4 292.88-2.85L292.88-2.85Q292.88-1.3 291.91-0.35 290.93 0.6 289.48 0.6L289.48 0.6ZM326.28 0L322.73-9.2 305.98-9.2 302.43 0 298.03 0 311.43-34.8 317.53-34.8 330.93 0 326.28 0ZM307.43-12.95L321.28-12.95 314.38-30.95 307.43-12.95ZM338.78 0L338.78-34.8 343.18-34.8 343.18 0 338.78 0Z" fill="#ffffff" data-fill-palette-color="primary"></path></g></svg></g></svg></g></svg></g></svg></g></svg></g></svg></g><defs></defs></svg><rect width="395.52" height="48.58097045805456" fill="none" stroke="none" visibility="hidden"></rect></g></svg></g></svg>