<svg xmlns="http://www.w3.org/2000/svg" version="1.1" xmlns:xlink="http://www.w3.org/1999/xlink" xmlns:svgjs="http://svgjs.dev/svgjs" width="1500" height="458" viewBox="0 0 1500 458"><g transform="matrix(1,0,0,1,-0.9090909090909918,-0.908157439208793)"><svg viewBox="0 0 396 121" data-background-color="#ed2647" preserveAspectRatio="xMidYMid meet" height="458" width="1500" xmlns="http://www.w3.org/2000/svg" xmlns:xlink="http://www.w3.org/1999/xlink"><g id="tight-bounds" transform="matrix(1,0,0,1,0.2400000000000091,0.2399280570835458)"><svg viewBox="0 0 395.52 120.52014388583291" height="120.52014388583291" width="395.52"><g><svg viewBox="0 0 395.52 120.52014388583291" height="120.52014388583291" width="395.52"><g transform="matrix(1,0,0,1,0,74.48628394982154)"><svg viewBox="0 0 395.52 46.03385993601137" height="46.03385993601137" width="395.52"><g id="textblocktransform"><svg viewBox="0 0 395.52 46.03385993601137" height="46.03385993601137" width="395.52" id="textblock"><g><svg viewBox="0 0 395.52 46.03385993601137" height="46.03385993601137" width="395.52"><g transform="matrix(1,0,0,1,0,0)"><svg width="395.52" viewBox="2.15 -40.5 351.6 40.93" height="46.03385993601137" data-palette-color="#ffffff"><path d="M6.6-20.6L6.6 0 2.15 0 2.15-27.5 6.6-28 6.6-23.43Q7.13-24.43 7.41-24.99 7.7-25.55 7.84-25.81 7.98-26.08 8-26.13L8-26.13 8.05-26.2Q8.28-26.43 8.69-26.73 9.1-27.03 9.7-27.29 10.3-27.55 11.08-27.74 11.85-27.93 12.83-27.93L12.83-27.93Q14.23-27.93 15.13-27.56 16.03-27.2 16.6-26.56 17.18-25.93 17.5-25.03 17.82-24.13 18.1-23.08L18.1-23.08 19.68-26.08Q19.93-26.3 20.49-26.63 21.05-26.95 21.79-27.24 22.53-27.53 23.35-27.73 24.18-27.93 24.98-27.93L24.98-27.93Q26.88-27.93 27.99-27.29 29.1-26.65 29.66-25.45 30.23-24.25 30.39-22.55 30.55-20.85 30.55-18.75L30.55-18.75 30.55 0 26.1 0 26.1-18.5Q26.1-19.85 26.06-20.86 26.03-21.88 25.76-22.56 25.5-23.25 24.94-23.59 24.38-23.93 23.35-23.93L23.35-23.93Q22.85-23.93 22.13-23.61 21.4-23.3 20.69-22.81 19.98-22.33 19.36-21.71 18.75-21.1 18.5-20.48L18.5-20.48Q18.5-20.33 18.51-19.99 18.53-19.65 18.54-19.29 18.55-18.93 18.55-18.6L18.55-18.6 18.55 0 14.08 0 14.08-18Q14.08-19.35 14.03-20.45 13.98-21.55 13.71-22.31 13.45-23.08 12.86-23.5 12.28-23.93 11.2-23.93L11.2-23.93Q10.8-23.93 10.18-23.7 9.55-23.48 8.89-23.04 8.22-22.6 7.61-21.99 7-21.38 6.6-20.6L6.6-20.6ZM59.75-4.5L60.25 0 55.25 0 55.25-4.05 52.9-1.25Q52.47-0.93 51.81-0.63 51.15-0.33 50.4-0.09 49.65 0.15 48.87 0.29 48.1 0.43 47.4 0.43L47.4 0.43Q45.52 0.43 43.62-0.16 41.72-0.75 40.2-1.89 38.67-3.03 37.71-4.71 36.75-6.4 36.75-8.6L36.75-8.6Q36.75-10.93 37.73-12.61 38.72-14.3 40.32-15.4 41.92-16.5 43.97-17.03 46.02-17.55 48.12-17.55L48.12-17.55Q50.5-17.55 52.25-17.29 54-17.03 55.25-16.55L55.25-16.55 55.25-17.63Q55.25-19.1 54.89-20.28 54.52-21.45 53.75-22.26 52.97-23.08 51.76-23.5 50.55-23.93 48.87-23.93L48.87-23.93Q47.3-23.93 46.16-23.74 45.02-23.55 44.05-23.33L44.05-23.33Q43.47-23.2 42.95-23.05 42.42-22.9 41.92-22.75L41.92-22.75 40.12-26.1Q41.17-26.58 42.62-27L42.62-27Q43.82-27.35 45.36-27.64 46.9-27.93 49.12-27.93L49.12-27.93Q52-27.93 54.02-27.15 56.05-26.38 57.32-24.98 58.6-23.58 59.17-21.61 59.75-19.65 59.75-17.25L59.75-17.25 59.75-4.5ZM55.25-6.85L55.25-13.13 53.75-13.33Q53.4-13.35 52.82-13.4 52.25-13.45 51.57-13.48L51.57-13.48 50.25-13.53Q49.6-13.55 49.12-13.55L49.12-13.55Q47.72-13.55 46.37-13.3 45.02-13.05 43.96-12.48 42.9-11.9 42.23-10.96 41.57-10.03 41.57-8.63L41.57-8.63Q41.57-7.5 42.07-6.58 42.57-5.65 43.41-4.98 44.25-4.3 45.34-3.94 46.42-3.58 47.6-3.58L47.6-3.58Q49.92-3.58 51.77-4.46 53.62-5.35 55.25-6.85L55.25-6.85ZM79.27-23.5L79.27-9.4Q79.27-7.75 79.46-6.64 79.65-5.53 80.01-4.84 80.37-4.15 80.91-3.86 81.45-3.58 82.15-3.58L82.15-3.58Q83.32-3.58 84.47-3.85 85.62-4.13 86.62-4.49 87.62-4.85 88.4-5.21 89.17-5.58 89.59-5.75L89.59-5.75 91.32-2.73Q91.09-2.53 90.23-2.01 89.37-1.5 88.06-0.95 86.75-0.4 85.09 0.01 83.45 0.43 81.65 0.43L81.65 0.43Q79.4 0.43 78.03-0.4 76.67-1.23 75.95-2.65 75.22-4.08 75-5.96 74.77-7.85 74.77-10L74.77-10 74.77-23.5 67.5-23.5 67.5-27.5 74.77-27.5 74.77-32.73 79.15-35.5 79.15-27.5 91.25-27.5 90.75-23.5 79.27-23.5ZM107.27-20.83L107.27 0 102.77 0 102.77-35 102.27-40 107.27-40.5 107.27-23.75 109.49-26.63Q110.47-27.18 112.29-27.55 114.12-27.93 116.99-27.93L116.99-27.93Q120.77-27.93 122.76-25.44 124.74-22.95 124.74-18.25L124.74-18.25 124.74 0 119.99 0 119.99-17.73Q119.99-19.4 119.71-20.58 119.42-21.75 118.89-22.5 118.37-23.25 117.59-23.59 116.82-23.93 115.84-23.93L115.84-23.93Q114.34-23.93 112.98-23.63 111.62-23.33 110.49-22.86 109.37-22.4 108.53-21.85 107.69-21.3 107.27-20.83L107.27-20.83ZM142.74-10L142.74-35.5 143.74-37 140.24-36 135.22-36 134.72-40 147.24-40 147.24-9.4Q147.24-7.75 147.49-6.64 147.74-5.53 148.17-4.84 148.59-4.15 149.19-3.86 149.79-3.58 150.49-3.58L150.49-3.58Q151.49-3.58 152.33-3.73 153.17-3.88 153.83-4.1 154.49-4.33 154.98-4.58 155.47-4.83 155.77-5L155.77-5 157.49-1.98Q157.29-1.8 156.67-1.4 156.04-1 155.08-0.6 154.12-0.2 152.83 0.11 151.54 0.43 149.99 0.43L149.99 0.43Q147.74 0.43 146.31-0.4 144.89-1.23 144.1-2.65 143.31-4.08 143.03-5.96 142.74-7.85 142.74-10L142.74-10ZM185.61-5.9L188.34-3.23Q187.56-2.43 186.64-1.75 185.71-1.07 184.59-0.59 183.46-0.1 182.1 0.16 180.74 0.43 179.06 0.43L179.06 0.43Q175.74 0.43 173.31-0.75 170.89-1.93 169.31-3.9 167.74-5.88 166.99-8.43 166.24-10.98 166.24-13.75L166.24-13.75Q166.24-15.53 166.6-17.26 166.96-19 167.65-20.58 168.34-22.15 169.38-23.5 170.41-24.85 171.78-25.83 173.14-26.8 174.8-27.36 176.46-27.93 178.44-27.93L178.44-27.93Q181.14-27.93 183.31-27.05 185.49-26.18 187.01-24.6 188.54-23.03 189.36-20.81 190.19-18.6 190.19-15.95L190.19-15.95Q190.19-15.18 190.14-14.25 190.09-13.33 189.99-12.5L189.99-12.5 170.99-12.5Q170.99-10.58 171.59-8.94 172.19-7.3 173.23-6.11 174.26-4.93 175.68-4.25 177.09-3.58 178.74-3.58L178.74-3.58Q180.34-3.58 181.48-3.81 182.61-4.05 183.4-4.4 184.19-4.75 184.71-5.15 185.24-5.55 185.61-5.9L185.61-5.9ZM174.61-16.25L185.79-16.25 185.79-17.35Q185.79-18.78 185.23-19.98 184.66-21.18 183.7-22.06 182.74-22.95 181.48-23.45 180.21-23.95 178.81-23.95L178.81-23.95Q177.14-23.95 175.88-23.41 174.61-22.88 173.71-22.04 172.81-21.2 172.26-20.2 171.71-19.2 171.46-18.3L171.46-18.3 169.99-15.45 174.61-16.25ZM209.26-23.5L209.26-9.4Q209.26-7.75 209.45-6.64 209.64-5.53 210-4.84 210.36-4.15 210.9-3.86 211.44-3.58 212.14-3.58L212.14-3.58Q213.31-3.58 214.46-3.85 215.61-4.13 216.61-4.49 217.61-4.85 218.39-5.21 219.16-5.58 219.59-5.75L219.59-5.75 221.31-2.73Q221.09-2.53 220.22-2.01 219.36-1.5 218.05-0.95 216.74-0.4 215.09 0.01 213.44 0.43 211.64 0.43L211.64 0.43Q209.39 0.43 208.02-0.4 206.66-1.23 205.94-2.65 205.21-4.08 204.99-5.96 204.76-7.85 204.76-10L204.76-10 204.76-23.5 197.49-23.5 197.49-27.5 204.76-27.5 204.76-32.73 209.14-35.5 209.14-27.5 221.24-27.5 220.74-23.5 209.26-23.5ZM250.61-5.9L253.33-3.23Q252.56-2.43 251.63-1.75 250.71-1.07 249.58-0.59 248.46-0.1 247.1 0.16 245.73 0.43 244.06 0.43L244.06 0.43Q240.73 0.43 238.31-0.75 235.88-1.93 234.31-3.9 232.73-5.88 231.98-8.43 231.23-10.98 231.23-13.75L231.23-13.75Q231.23-15.53 231.6-17.26 231.96-19 232.65-20.58 233.33-22.15 234.37-23.5 235.41-24.85 236.77-25.83 238.13-26.8 239.8-27.36 241.46-27.93 243.43-27.93L243.43-27.93Q246.13-27.93 248.31-27.05 250.48-26.18 252.01-24.6 253.53-23.03 254.36-20.81 255.18-18.6 255.18-15.95L255.18-15.95Q255.18-15.18 255.13-14.25 255.08-13.33 254.98-12.5L254.98-12.5 235.98-12.5Q235.98-10.58 236.58-8.94 237.18-7.3 238.22-6.11 239.26-4.93 240.67-4.25 242.08-3.58 243.73-3.58L243.73-3.58Q245.33-3.58 246.47-3.81 247.61-4.05 248.4-4.4 249.18-4.75 249.71-5.15 250.23-5.55 250.61-5.9L250.61-5.9ZM239.61-16.25L250.78-16.25 250.78-17.35Q250.78-18.78 250.22-19.98 249.66-21.18 248.7-22.06 247.73-22.95 246.47-23.45 245.21-23.95 243.81-23.95L243.81-23.95Q242.13-23.95 240.87-23.41 239.61-22.88 238.71-22.04 237.81-21.2 237.26-20.2 236.71-19.2 236.46-18.3L236.46-18.3 234.98-15.45 239.61-16.25ZM263.38-3.75L263.38-3.75Q263.38-4.6 263.71-5.35 264.03-6.1 264.59-6.66 265.16-7.23 265.89-7.55 266.63-7.88 267.48-7.88L267.48-7.88Q268.33-7.88 269.08-7.55 269.83-7.23 270.39-6.66 270.96-6.1 271.28-5.35 271.61-4.6 271.61-3.75L271.61-3.75Q271.61-2.9 271.28-2.14 270.96-1.38 270.41-0.81 269.86-0.25 269.12 0.09 268.38 0.43 267.53 0.43L267.53 0.43Q266.68 0.43 265.92 0.09 265.16-0.25 264.59-0.81 264.03-1.38 263.71-2.14 263.38-2.9 263.38-3.75ZM319.73-4.5L320.23 0 315.23 0 315.23-4.05 312.88-1.25Q312.45-0.93 311.79-0.63 311.13-0.33 310.38-0.09 309.63 0.15 308.85 0.29 308.08 0.43 307.38 0.43L307.38 0.43Q305.5 0.43 303.6-0.16 301.7-0.75 300.18-1.89 298.65-3.03 297.69-4.71 296.73-6.4 296.73-8.6L296.73-8.6Q296.73-10.93 297.72-12.61 298.7-14.3 300.3-15.4 301.9-16.5 303.95-17.03 306-17.55 308.1-17.55L308.1-17.55Q310.48-17.55 312.23-17.29 313.98-17.03 315.23-16.55L315.23-16.55 315.23-17.63Q315.23-19.1 314.87-20.28 314.5-21.45 313.73-22.26 312.95-23.08 311.74-23.5 310.53-23.93 308.85-23.93L308.85-23.93Q307.28-23.93 306.14-23.74 305-23.55 304.03-23.33L304.03-23.33Q303.45-23.2 302.93-23.05 302.4-22.9 301.9-22.75L301.9-22.75 300.1-26.1Q301.15-26.58 302.6-27L302.6-27Q303.8-27.35 305.34-27.64 306.88-27.93 309.1-27.93L309.1-27.93Q311.98-27.93 314-27.15 316.03-26.38 317.3-24.98 318.58-23.58 319.15-21.61 319.73-19.65 319.73-17.25L319.73-17.25 319.73-4.5ZM315.23-6.85L315.23-13.13 313.73-13.33Q313.38-13.35 312.8-13.4 312.23-13.45 311.55-13.48L311.55-13.48 310.23-13.53Q309.58-13.55 309.1-13.55L309.1-13.55Q307.7-13.55 306.35-13.3 305-13.05 303.94-12.48 302.88-11.9 302.22-10.96 301.55-10.03 301.55-8.63L301.55-8.63Q301.55-7.5 302.05-6.58 302.55-5.65 303.39-4.98 304.23-4.3 305.31-3.94 306.4-3.58 307.58-3.58L307.58-3.58Q309.9-3.58 311.75-4.46 313.6-5.35 315.23-6.85L315.23-6.85ZM342.75-27.5L342.75-9.83Q342.75-8.53 342.91-7.43 343.08-6.33 343.45-5.53 343.83-4.73 344.45-4.28 345.08-3.83 346-3.83L346-3.83Q347.23-3.83 348.39-4.03 349.55-4.23 350.48-4.49 351.4-4.75 352.01-4.98 352.63-5.2 352.78-5.25L352.78-5.25 353.75-1.4Q353.6-1.33 352.95-1.03 352.3-0.73 351.25-0.41 350.2-0.1 348.8 0.16 347.4 0.43 345.75 0.43L345.75 0.43Q343.3 0.43 341.79-0.38 340.28-1.18 339.43-2.59 338.58-4 338.29-5.93 338-7.85 338-10.08L338-10.08 338-23 339-24.5 335.5-23.5 330.48-23.5 329.98-27.5 342.75-27.5ZM337.85-32.5L337.85-37.5 342.9-37.5 342.9-32.5 337.85-32.5Z" opacity="1" transform="matrix(1,0,0,1,0,0)" fill="#ffffff" class="wordmark-text-0" data-fill-palette-color="primary" id="text-0"></path></svg></g></svg></g></svg></g></svg></g><g transform="matrix(1,0,0,1,128.61259690274852,0)"><svg viewBox="0 0 138.2948061945029 63.618794431567714" height="63.618794431567714" width="138.2948061945029"><g><svg xmlns="http://www.w3.org/2000/svg" xmlns:xlink="http://www.w3.org/1999/xlink" version="1.1" x="8" y="0" viewBox="0.9999706118321191 24.202 98.64902938816788 51.31806097748765" enable-background="new 0 0 100 100" xml:space="preserve" height="63.618794431567714" width="122.29480619450291" class="icon-icon-0" data-fill-palette-color="accent" id="icon-0"><g fill="#ffffff" data-fill-palette-color="accent"><path d="M9.059 60.191" fill="#ffffff" data-fill-palette-color="accent"></path><circle cx="88.411" cy="51.88" r="1.9" fill="#ffffff" data-fill-palette-color="accent"></circle><g fill="#ffffff" data-fill-palette-color="accent"><circle fill="none" cx="88.411" cy="51.879" r="4.7"></circle><path d="M99.649 60.34C99.649 50.361 91.559 42.27 81.58 42.27 80.022 42.27 78.519 42.488 77.077 42.859 70.916 31.735 59.063 24.202 45.447 24.202 28.609 24.202 14.46 35.718 10.448 51.304 10.303 51.298 10.159 51.283 10.012 51.283A9.034 9.034 0 0 0 1 60.34L9.31 60.319V60.34H20.342L12.977 73.096C21.62 78.086 32.67 75.125 37.659 66.482A18 18 0 0 0 39.831 60.34H51.405C51.805 61.886 52.4 63.406 53.237 64.857 58.227 73.501 69.276 76.461 77.92 71.472L71.492 60.34zM88.411 47.168A4.71 4.71 0 0 1 93.12 51.879 4.71 4.71 0 1 1 88.411 47.168" fill="#ffffff" data-fill-palette-color="accent"></path></g></g></svg></g></svg></g><g><rect width="128.61259690274852" height="4.151380995972959" y="58.46741343559475" x="266.9074030972514" fill="#ffffff" data-fill-palette-color="accent"></rect><rect width="128.61259690274852" height="4.151380995972959" y="58.46741343559475" x="0" fill="#ffffff" data-fill-palette-color="accent"></rect><rect width="128.61259690274852" height="4.151380995972959" y="50.164651443648836" x="266.9074030972514" fill="#ffffff" data-fill-palette-color="accent"></rect><rect width="128.61259690274852" height="4.151380995972959" y="50.164651443648836" x="0" fill="#ffffff" data-fill-palette-color="accent"></rect></g></svg></g><defs></defs></svg><rect width="395.52" height="120.52014388583291" fill="none" stroke="none" visibility="hidden"></rect></g></svg></g></svg>