<?xml version="1.0" encoding="utf-8"?>
<!-- Generator: Adobe Illustrator 25.4.1, SVG Export Plug-In . SVG Version: 6.00 Build 0)  -->
<svg version="1.1" id="Layer_1" xmlns="http://www.w3.org/2000/svg" xmlns:xlink="http://www.w3.org/1999/xlink" x="0px" y="0px"
	 viewBox="0 0 75.6 80.3" style="enable-background:new 0 0 75.6 80.3;" xml:space="preserve">
<style type="text/css">
	.st0{fill:#FFEAA3;}
	.st1{fill:#F5BC00;}
	.st2{fill:#FFFFFF;}
</style>
<path class="st0" d="M72,71l-32.9,9c-0.9,0.2-1.8,0.2-2.6,0L3.6,71C1.5,70.4,0,68.4,0,66.2V0h75.6v66.2C75.6,68.4,74.1,70.4,72,71z"
	/>
<path class="st1" d="M69.2,66.3l-30.5,8.4c-0.6,0.2-1.2,0.2-1.7,0L6.8,66.3c-1.4-0.4-2.4-1.7-2.4-3.1V0h67.2v63.1
	C71.5,64.6,70.6,65.9,69.2,66.3z"/>
<g>
	<path class="st2" d="M26.1,31.6l-2.5-8.3h-0.1c0.1,1.7,0.1,2.8,0.1,3.4v4.9h-2V20.9h3.1l2.5,8.1h0l2.7-8.1H33v10.6h-2.1v-5
		c0-0.2,0-0.5,0-0.8s0-1.1,0.1-2.5h-0.1l-2.7,8.3H26.1z"/>
	<path class="st2" d="M42.8,27.5c0,1.3-0.3,2.4-1,3.1s-1.7,1.1-2.9,1.1c-0.8,0-1.5-0.2-2.1-0.5c-0.6-0.3-1.1-0.8-1.4-1.5
		c-0.3-0.6-0.5-1.4-0.5-2.2c0-1.3,0.3-2.4,1-3.1c0.7-0.7,1.7-1.1,2.9-1.1c0.8,0,1.5,0.2,2.1,0.5c0.6,0.3,1,0.8,1.4,1.5
		C42.7,25.9,42.8,26.6,42.8,27.5z M37.2,27.5c0,0.8,0.1,1.4,0.4,1.8c0.3,0.4,0.7,0.6,1.3,0.6c0.6,0,1-0.2,1.3-0.6
		c0.3-0.4,0.4-1,0.4-1.8c0-0.8-0.1-1.4-0.4-1.8s-0.7-0.6-1.3-0.6c-0.6,0-1,0.2-1.3,0.6S37.2,26.7,37.2,27.5z"/>
	<path class="st2" d="M50.3,29.1c0,0.8-0.3,1.5-0.9,1.9c-0.6,0.4-1.4,0.7-2.6,0.7c-0.6,0-1.1,0-1.5-0.1c-0.4-0.1-0.8-0.2-1.2-0.4
		v-1.8c0.4,0.2,0.9,0.4,1.4,0.5c0.5,0.1,1,0.2,1.4,0.2c0.8,0,1.2-0.2,1.2-0.7c0-0.2-0.1-0.3-0.2-0.4c-0.1-0.1-0.3-0.2-0.6-0.4
		c-0.3-0.1-0.6-0.3-1-0.5c-0.6-0.3-1.1-0.5-1.4-0.7s-0.5-0.5-0.6-0.8s-0.2-0.6-0.2-1.1c0-0.7,0.3-1.3,0.8-1.7s1.3-0.6,2.4-0.6
		c1,0,1.9,0.2,2.8,0.6l-0.7,1.6c-0.4-0.2-0.8-0.3-1.1-0.4c-0.4-0.1-0.7-0.2-1.1-0.2c-0.7,0-1,0.2-1,0.5c0,0.2,0.1,0.4,0.3,0.5
		c0.2,0.1,0.7,0.4,1.4,0.6c0.6,0.3,1.1,0.5,1.4,0.7c0.3,0.2,0.5,0.5,0.7,0.8C50.2,28.4,50.3,28.7,50.3,29.1z"/>
	<path class="st2" d="M55.4,29.9c0.4,0,0.9-0.1,1.4-0.3v1.7c-0.6,0.2-1.2,0.4-2,0.4c-0.9,0-1.5-0.2-1.9-0.7c-0.4-0.4-0.6-1.1-0.6-2
		v-3.9h-1.1v-0.9l1.2-0.7l0.6-1.7h1.4v1.7h2.3v1.7h-2.3V29c0,0.3,0.1,0.5,0.3,0.7C54.9,29.9,55.2,29.9,55.4,29.9z"/>
	<path class="st2" d="M18.5,42.1c0,1.1-0.4,2-1.1,2.6c-0.7,0.6-1.7,0.9-3,0.9h-1v3.8h-2.2V38.8h3.4c1.3,0,2.3,0.3,2.9,0.8
		C18.2,40.2,18.5,41,18.5,42.1z M13.5,43.8h0.7c0.7,0,1.2-0.1,1.5-0.4c0.3-0.3,0.5-0.7,0.5-1.2c0-0.5-0.1-0.9-0.4-1.2
		c-0.3-0.3-0.7-0.4-1.4-0.4h-1V43.8z"/>
	<path class="st2" d="M27.7,45.4c0,1.3-0.3,2.4-1,3.1c-0.7,0.7-1.7,1.1-2.9,1.1c-0.8,0-1.5-0.2-2.1-0.5c-0.6-0.3-1.1-0.8-1.4-1.5
		c-0.3-0.6-0.5-1.4-0.5-2.2c0-1.3,0.3-2.4,1-3.1s1.7-1.1,2.9-1.1c0.8,0,1.5,0.2,2.1,0.5c0.6,0.3,1.1,0.8,1.4,1.5
		S27.7,44.5,27.7,45.4z M22.1,45.4c0,0.8,0.1,1.4,0.4,1.8s0.7,0.6,1.3,0.6c0.6,0,1-0.2,1.3-0.6c0.3-0.4,0.4-1,0.4-1.8
		c0-0.8-0.1-1.4-0.4-1.8s-0.7-0.6-1.3-0.6c-0.6,0-1,0.2-1.3,0.6S22.1,44.5,22.1,45.4z"/>
	<path class="st2" d="M34,49.6c-1,0-1.7-0.3-2.2-1h-0.1c0.1,0.7,0.1,1.1,0.1,1.2V53h-2.2V41.3h1.8l0.3,1.1h0.1
		c0.5-0.8,1.3-1.2,2.3-1.2c1,0,1.7,0.4,2.2,1.1s0.8,1.8,0.8,3.1c0,0.9-0.1,1.6-0.4,2.3c-0.3,0.6-0.6,1.1-1.1,1.5
		C35.2,49.4,34.6,49.6,34,49.6z M33.3,42.9c-0.5,0-0.9,0.2-1.2,0.5c-0.3,0.3-0.4,0.9-0.4,1.7v0.2c0,0.9,0.1,1.5,0.4,1.9
		c0.3,0.4,0.7,0.6,1.2,0.6c1,0,1.5-0.8,1.5-2.5c0-0.8-0.1-1.4-0.4-1.8C34.3,43.1,33.9,42.9,33.3,42.9z"/>
	<path class="st2" d="M44.7,49.4l-0.3-1h-0.1c-0.2,0.4-0.6,0.7-1,0.9s-0.9,0.3-1.5,0.3c-1,0-1.7-0.3-2.2-0.8s-0.7-1.2-0.7-2.2v-5.3
		h2.2v4.8c0,0.6,0.1,1,0.3,1.3c0.2,0.3,0.5,0.4,1,0.4c0.6,0,1.1-0.2,1.3-0.6s0.4-1.1,0.4-2.1v-3.8h2.2v8.1H44.7z"/>
	<path class="st2" d="M50.9,49.4h-2.2V38.1h2.2V49.4z"/>
	<path class="st2" d="M58.4,49.4l-0.4-1.1h-0.1c-0.4,0.5-0.8,0.8-1.1,1c-0.4,0.2-0.9,0.3-1.5,0.3c-0.8,0-1.4-0.2-1.8-0.7
		c-0.4-0.4-0.7-1.1-0.7-1.9c0-0.9,0.3-1.5,0.9-1.9c0.6-0.4,1.5-0.6,2.7-0.7l1.4,0V44c0-0.8-0.4-1.2-1.3-1.2c-0.6,0-1.4,0.2-2.3,0.6
		l-0.7-1.5c0.9-0.5,2-0.7,3.1-0.7c1.1,0,1.9,0.2,2.5,0.7c0.6,0.5,0.9,1.2,0.9,2.2v5.4H58.4z M57.7,45.7l-0.9,0
		c-0.6,0-1.1,0.1-1.4,0.3c-0.3,0.2-0.5,0.5-0.5,1c0,0.6,0.4,0.9,1.1,0.9c0.5,0,0.9-0.1,1.2-0.4s0.5-0.7,0.5-1.2V45.7z"/>
	<path class="st2" d="M66.7,41.2c0.3,0,0.5,0,0.7,0.1l-0.2,2.1c-0.2,0-0.4-0.1-0.7-0.1c-0.7,0-1.3,0.2-1.6,0.5
		c-0.4,0.4-0.6,0.9-0.6,1.5v4.1h-2.2v-8.1h1.7l0.3,1.4h0.1c0.3-0.5,0.6-0.8,1-1.1C65.7,41.3,66.2,41.2,66.7,41.2z"/>
</g>
</svg>
