<svg id="Layer_1" enable-background="new 0 0 68 68" height="512" viewBox="0 0 68 68" width="512" xmlns="http://www.w3.org/2000/svg"><g><g><circle cx="34" cy="34" fill="#8c4cd1" r="32"/></g><g><path d="m61.6199951 17.8299561c-6.1300049 8.6200561-16.2199707 14.2400512-27.6199951 14.2400512s-21.4899902-5.6199951-27.6199951-14.2400512c5.5599975-9.4699707 15.8499756-15.8299561 27.6199951-15.8299561s22.0599976 6.3599854 27.6199951 15.8299561z" fill="#9c68e1"/></g><g><g><path d="m34 10.8757v21.8743l7.1073914-7.4731522z" fill="#ff9f00"/></g><g><path d="m34 10.8757v21.8743l-7.1073914-7.4731522z" fill="#fed110"/></g><g><g><path d="m57 27.5861778-15.8926086-2.30933-7.1073914 7.4731522z" fill="#fed110"/></g><g><path d="m57 27.5861778-11.5 11.2097283-11.5-6.0459061z" fill="#ff9f00"/></g></g><g><g><path d="m11 27.5861778 15.8926086-2.30933 7.1073914 7.4731522z" fill="#ff9f00"/></g><g><path d="m11 27.5861778 11.5 11.2097283 11.5-6.0459061z" fill="#fed110"/></g></g><g><g><path d="m34 32.75 11.5 6.0459061 2.7147827 15.828392z" fill="#fed110"/></g><g><path d="m48.2147827 54.6242981-14.2147827-7.4731522v-14.4011459z" fill="#ff9f00"/></g></g><g><g><path d="m34 32.75-11.5 6.0459061-2.7147808 15.828392z" fill="#ff9f00"/></g><g><path d="m19.7852192 54.6242981 14.2147808-7.4731522v-14.4011459z" fill="#fed110"/></g></g></g><g opacity=".3"><ellipse cx="34" cy="57.467" fill="#20273a" rx="18.875" ry="1.158"/></g></g></svg>