<svg id="Layer_1" enable-background="new 0 0 64 64" height="64" viewBox="0 0 64 64" width="64" xmlns="http://www.w3.org/2000/svg"><path d="m37.46 13.08c-9.8-3.09-20.9.9-26.37 9.61-5.35 8.52-4.56 19.85 2.1 27.41 6.3 7.17 16.619 9.83 25.54 6.32 8.69-3.42 14.77-12.04 14.77-21.42 0-9.84-6.64-18.97-16.04-21.92z" opacity=".2"/><path d="m58 12.36-5.05 7.47h-8.07l7.46-7.47z" fill="#44c4a1"/><path d="m58 12.36-5.05 7.47h-8.07l7.46-7.47z" opacity=".2"/><path d="m35.96 13.08c-9.8-3.09-20.9.9-26.37 9.61-5.35 8.52-4.56 19.85 2.1 27.41 6.3 7.17 16.619 9.83 25.54 6.32 8.69-3.42 14.77-12.04 14.77-21.42 0-9.84-6.64-18.97-16.04-21.92z" fill="#efefef"/><path d="m31.6 17.03c-9.399-.56-18.04 6.69-19 16.09-.97 9.47 6.04 18.49 15.511 19.72 9.75 1.26 19.08-5.89 20.26-15.67.09-.72.13-1.44.13-2.17-.001-9.3-7.601-17.41-16.901-17.97z" opacity=".2"/><path d="m30.1 17.03c-9.399-.56-18.04 6.69-19 16.09-.97 9.47 6.04 18.49 15.511 19.72 9.75 1.26 19.08-5.89 20.26-15.67.089-.72.129-1.44.129-2.17 0-9.3-7.6-17.41-16.9-17.97z" fill="#e56353"/><path d="m35.65 23.06c-4.86-2.08-10.67-.97-14.381 2.8-3.52 3.58-4.699 8.95-2.939 13.66 1.83 4.92 6.51 8.28 11.75 8.46 7.23.24 13.42-5.74 13.42-12.98 0-5.11-3.15-9.92-7.85-11.94z" opacity=".2"/><path d="m34.15 23.06c-4.86-2.08-10.67-.97-14.381 2.8-3.52 3.58-4.699 8.95-2.939 13.66 1.83 4.92 6.51 8.28 11.75 8.46 7.23.24 13.42-5.74 13.42-12.98 0-5.11-3.15-9.92-7.85-11.94z" fill="#27a2db"/><path d="m30.5 27c4.32 0 8 3.68 8 8s-3.68 8-8 8-8-3.68-8-8 3.68-8 8-8z" opacity=".2"/><path d="m29 27c4.32 0 8 3.68 8 8s-3.68 8-8 8-8-3.68-8-8 3.68-8 8-8z" fill="#fcd462"/><path d="m51.64 6v5.66l-7.47 7.46v-8.07z" fill="#44c4a1"/><path d="m29.09 32.79c1.28-1.28 2.561-2.56 3.84-3.84 4.41-4.41 8.82-8.82 13.23-13.23 1.56-1.56 3.12-3.12 4.68-4.69.271-.26.53-.52.79-.78 1.351-1.35 3.47.77 2.13 2.11l-22.55 22.55c.91 0 2-.12 2.37.93.35.98-.271 2.07-1.35 2.07h-4.64c-.83 0-1.5-.67-1.5-1.5 0-1.49 0-2.98 0-4.47 0-1.99 3-2.17 3-.17z" fill="#64798a"/><path d="m51.63 10.25c-.26.26-.52.52-.79.78-1.56 1.57-3.12 3.13-4.68 4.69-4.41 4.41-8.82 8.82-13.23 13.23-1.279 1.28-2.56 2.56-3.84 3.84v-1.02c0-2-3-1.82-3 .17v4.47c0 .415.168.79.438 1.062l27.176-27.175c-.531-.529-1.399-.722-2.074-.047z" opacity=".2"/></svg>