<svg id="Layer_1" viewBox="0 0 128 128" xmlns="http://www.w3.org/2000/svg" data-name="Layer 1"><path d="m103.69 57.88a2.00583 2.00583 0 0 0 -1.62-1.37l-25.22-3.65-11.27-22.76a2.00639 2.00639 0 0 0 -3.59 0l-11.27 22.76-25.22 3.65a2.00452 2.00452 0 0 0 -1.11 3.42l18.24 17.71-4.3 25.02a1.98967 1.98967 0 0 0 .79 1.95 2.01077 2.01077 0 0 0 2.11.16l22.55-11.82s22.53 11.8 22.56 11.82a2.05451 2.05451 0 0 0 2.11-.16 1.98967 1.98967 0 0 0 .79-1.95l-4.31-25.02 18.25-17.71a2.02441 2.02441 0 0 0 .51-2.05zm-22.3 17.63a2.00909 2.00909 0 0 0 -.58 1.77l3.8 22.07-19.9-10.43a2.014 2.014 0 0 0 -1.85 0l-19.9 10.43 3.79-22.07a1.97559 1.97559 0 0 0 -.57-1.77l-16.09-15.62 22.24-3.22a1.97579 1.97579 0 0 0 1.5-1.09l9.95-20.09 9.96 20.09a1.97579 1.97579 0 0 0 1.5 1.09l22.23 3.22z" fill="#2d4356"/><path d="m80.81 77.28 3.8 22.07-19.9-10.43a2.014 2.014 0 0 0 -1.85 0l-19.9 10.43 3.79-22.07a1.97559 1.97559 0 0 0 -.57-1.77l-16.09-15.62 22.24-3.22a1.97579 1.97579 0 0 0 1.5-1.09l9.95-20.09 9.96 20.09a1.97579 1.97579 0 0 0 1.5 1.09l22.23 3.22-16.08 15.62a2.00909 2.00909 0 0 0 -.58 1.77z" fill="#ffdb80"/><g fill="#2d4356"><circle cx="64" cy="5" r="2"/><circle cx="60.167" cy="12.757" r="2"/><circle cx="56.335" cy="20.524" r="2"/><circle cx="52.505" cy="28.295" r="2"/><circle cx="48.675" cy="36.066" r="2"/><circle cx="44.84" cy="43.831" r="2"/><circle cx="36.27" cy="45.08" r="2"/><circle cx="27.704" cy="46.325" r="2"/><circle cx="19.135" cy="47.57" r="2"/><circle cx="10.57" cy="48.82" r="2"/><circle cx="2" cy="50.062" r="2"/><circle cx="8.199" cy="56.111" r="2"/><circle cx="14.399" cy="62.16" r="2"/><circle cx="20.599" cy="68.205" r="2"/><circle cx="26.799" cy="74.254" r="2"/><circle cx="33" cy="80.302" r="2"/><circle cx="31.535" cy="88.841" r="2"/><circle cx="30.07" cy="97.377" r="2"/><circle cx="28.61" cy="105.917" r="2"/><circle cx="27.145" cy="114.458" r="2"/><circle cx="25.68" cy="123" r="2"/><circle cx="33.343" cy="118.967" r="2"/><circle cx="41.008" cy="114.937" r="2"/><circle cx="48.672" cy="110.906" r="2"/><circle cx="56.336" cy="106.874" r="2"/><circle cx="64" cy="102.85" r="2"/><circle cx="71.662" cy="106.874" r="2"/><circle cx="79.326" cy="110.906" r="2"/><circle cx="86.988" cy="114.937" r="2"/><circle cx="94.652" cy="118.967" r="2"/><circle cx="102.319" cy="123" r="2"/><circle cx="100.851" cy="114.458" r="2"/><circle cx="99.39" cy="105.918" r="2"/><circle cx="97.925" cy="97.377" r="2"/><circle cx="96.461" cy="88.841" r="2"/><circle cx="95" cy="80.305" r="2"/><circle cx="101.2" cy="74.254" r="2"/><circle cx="107.4" cy="68.204" r="2"/><circle cx="113.599" cy="62.16" r="2"/><circle cx="119.799" cy="56.111" r="2"/><circle cx="126" cy="50.062" r="2"/><circle cx="117.43" cy="48.82" r="2"/><circle cx="108.86" cy="47.57" r="2"/><circle cx="100.291" cy="46.325" r="2"/><circle cx="91.729" cy="45.08" r="2"/><circle cx="83.16" cy="43.831" r="2"/><circle cx="79.327" cy="36.061" r="2"/><circle cx="75.495" cy="28.295" r="2"/><circle cx="71.665" cy="20.524" r="2"/><circle cx="67.833" cy="12.762" r="2"/></g><path d="m97.4699 59.89-16.08 15.62a1.90977 1.90977 0 0 0 -.43.63l-.15-.86a2.00909 2.00909 0 0 1 .58-1.77l14.29-13.88z" fill="#ad9359" opacity=".45"/><path d="m46.74993 75.28-.14.84a2.11477 2.11477 0 0 0 -.43-.61l-16.08993-15.62 1.79-.26 14.3 13.88a1.97559 1.97559 0 0 1 .56993 1.77z" fill="#ad9359" opacity=".45"/><path d="m84.60992 99.35-19.89992-10.43a2.014 2.014 0 0 0 -1.85 0l-19.9 10.43.38-2.2 19.52-10.23a2.014 2.014 0 0 1 1.85 0l19.52 10.23z" fill="#ad9359" opacity=".45"/><path d="m97.4699 59.89-1.79 1.74-20.44-2.96a1.97579 1.97579 0 0 1 -1.5-1.09l-9.9599-20.09-9.95 20.09a1.97579 1.97579 0 0 1 -1.5 1.09l-20.45 2.96-1.79-1.74 22.24-3.22a1.97579 1.97579 0 0 0 1.5-1.09l9.95-20.09 9.96 20.09a1.97579 1.97579 0 0 0 1.5 1.09z" fill="#f9edd2" opacity=".5"/></svg>