<svg id="Layer_1" viewBox="0 0 128 128" xmlns="http://www.w3.org/2000/svg" data-name="Layer 1"><path d="m84.93457 77.6445 18.24316-17.71581a2.00082 2.00082 0 0 0 -1.10742-3.415l-25.2168-3.65028-11.27734-22.76225a1.99956 1.99956 0 0 0 -3.584 0l-11.27635 22.76229-25.21782 3.65028a2.00082 2.00082 0 0 0 -1.10742 3.415l18.24321 17.71577-4.30566 25.013a1.99973 1.99973 0 0 0 2.89844 2.11151l22.55761-11.81424s22.52545 11.79742 22.55756 11.81423a2.04568 2.04568 0 0 0 2.10553-.15526 1.998 1.998 0 0 0 .793-1.95626zm-20.22266 11.28a2.0118 2.0118 0 0 0 -1.85547 0l-19.89944 10.4226 3.79785-22.06346a1.9996 1.9996 0 0 0 -.57715-1.77464l-16.084-15.6184 22.23438-3.21814a1.99981 1.99981 0 0 0 1.50592-1.09191l9.9502-20.08621 9.95117 20.08621a1.99981 1.99981 0 0 0 1.50586 1.09192l22.2334 3.21814-16.084 15.61839a1.9996 1.9996 0 0 0 -.57715 1.77464l3.79785 22.06346z"/><circle cx="64" cy="5" r="2"/><circle cx="60.167" cy="12.757" r="2"/><circle cx="56.335" cy="20.524" r="2"/><circle cx="52.505" cy="28.295" r="2"/><circle cx="48.675" cy="36.066" r="2"/><circle cx="44.84" cy="43.831" r="2"/><circle cx="36.27" cy="45.08" r="2"/><circle cx="27.704" cy="46.325" r="2"/><circle cx="19.135" cy="47.57" r="2"/><circle cx="10.57" cy="48.82" r="2"/><circle cx="2" cy="50.062" r="2"/><circle cx="8.199" cy="56.111" r="2"/><circle cx="14.399" cy="62.16" r="2"/><circle cx="20.599" cy="68.205" r="2"/><circle cx="26.799" cy="74.254" r="2"/><circle cx="33" cy="80.302" r="2"/><circle cx="31.535" cy="88.841" r="2"/><circle cx="30.07" cy="97.377" r="2"/><circle cx="28.61" cy="105.917" r="2"/><circle cx="27.145" cy="114.458" r="2"/><circle cx="25.68" cy="123" r="2"/><circle cx="33.343" cy="118.967" r="2"/><circle cx="41.008" cy="114.937" r="2"/><circle cx="48.672" cy="110.906" r="2"/><circle cx="56.336" cy="106.874" r="2"/><circle cx="64" cy="102.85" r="2"/><circle cx="71.662" cy="106.874" r="2"/><circle cx="79.326" cy="110.906" r="2"/><circle cx="86.988" cy="114.937" r="2"/><circle cx="94.652" cy="118.967" r="2"/><circle cx="102.319" cy="123" r="2"/><circle cx="100.851" cy="114.458" r="2"/><circle cx="99.39" cy="105.918" r="2"/><circle cx="97.925" cy="97.377" r="2"/><circle cx="96.461" cy="88.841" r="2"/><circle cx="95" cy="80.305" r="2"/><circle cx="101.2" cy="74.254" r="2"/><circle cx="107.4" cy="68.204" r="2"/><circle cx="113.599" cy="62.16" r="2"/><circle cx="119.799" cy="56.111" r="2"/><circle cx="126" cy="50.062" r="2"/><circle cx="117.43" cy="48.82" r="2"/><circle cx="108.86" cy="47.57" r="2"/><circle cx="100.291" cy="46.325" r="2"/><circle cx="91.729" cy="45.08" r="2"/><circle cx="83.16" cy="43.831" r="2"/><circle cx="79.327" cy="36.061" r="2"/><circle cx="75.495" cy="28.295" r="2"/><circle cx="71.665" cy="20.524" r="2"/><circle cx="67.833" cy="12.762" r="2"/></svg>