<svg clip-rule="evenodd" fill-rule="evenodd" stroke-linejoin="round" stroke-miterlimit="2" viewBox="0 0 32 32" xmlns="http://www.w3.org/2000/svg"><g transform="translate(-288 -96)"><g transform="matrix(.707 -.707 .762 .762 -62.409 138.237)"><path d="m284.592 213.1c1.123-.471 2.443-.256 3.327.542.883.798 1.151 2.016.674 3.071l-2.199 4.861c-.134.297-.093.636.108.898l3.839 4.986c.687.891.746 2.073.151 3.019s-1.733 1.481-2.907 1.366l-6.259-.614c-.436-.042-.852.183-1.024.557l-2.264 4.9c-.53 1.146-1.817 1.826-3.15 1.663-1.332-.163-2.386-1.129-2.577-2.363l-.965-6.228c-.063-.407-.408-.728-.847-.786l-6.713-.895c-1.331-.177-2.372-1.154-2.548-2.391-.176-1.236.557-2.43 1.793-2.922l5.307-2.109c.397-.158.64-.535.602-.934l-.538-5.695c-.102-1.082.484-2.121 1.501-2.659 1.017-.539 2.279-.48 3.232.152l5.43 3.598c.29.192.669.227.993.091z" fill="#ffb423"/></g><g transform="matrix(1.285 0 0 1.285 -86.595 -93.132)"><path d="m301.873 149.879c.339-.898 1.193-1.497 2.153-1.51.959-.013 1.829.563 2.192 1.451l1.674 4.094c.102.25.327.429.593.474l5.071.845c.906.151 1.64.819 1.874 1.708s-.075 1.832-.79 2.41l-3.809 3.081c-.265.214-.36.577-.233.894l1.661 4.152c.389.972.084 2.083-.747 2.72-.83.637-1.982.644-2.82.017l-4.226-3.164c-.276-.207-.656-.207-.932 0l-4.226 3.164c-.838.627-1.99.62-2.82-.017-.831-.637-1.136-1.748-.747-2.72l1.669-4.172c.125-.312.035-.669-.223-.885l-3.674-3.083c-.699-.586-.992-1.524-.752-2.404.24-.879.97-1.538 1.869-1.688l5.123-.854c.274-.045.503-.233.601-.492zm1.456.55-1.519 4.021c-.294.778-.98 1.341-1.801 1.478l-5.124.853c-.299.05-.542.27-.622.563s.017.606.25.801l3.675 3.083c.773.649 1.042 1.72.667 2.656l-1.669 4.173c-.13.323-.028.694.249.906.277.213.661.215.94.006l4.226-3.164c.829-.621 1.969-.621 2.798 0l4.226 3.164c.279.209.663.207.94-.006.277-.212.379-.583.249-.906l-1.661-4.153c-.38-.951-.097-2.038.699-2.683l3.809-3.08c.238-.193.341-.507.263-.803-.078-.297-.322-.52-.624-.57l-5.071-.845c-.799-.133-1.471-.67-1.778-1.419l-1.673-4.095c-.122-.296-.411-.488-.731-.483-.32.004-.605.204-.718.503z" fill="#2b2d42"/></g></g></svg>